<?xml version="1.0" encoding="UTF-8" standalone="no"?>
<!-- Created with Inkscape (http://www.inkscape.org/) -->
<svg
   xmlns:svg="http://www.w3.org/2000/svg"
   xmlns="http://www.w3.org/2000/svg"
   version="1.0"
   width="24.071581"
   height="24.000067"
   id="svg7384">
  <defs
     id="defs7386" />
  <g
     transform="translate(-438,-201.99993)"
     id="layer3" />
  <g
     transform="translate(-438,-201.99993)"
     id="layer5" />
  <g
     transform="translate(-438,-201.99993)"
     id="layer7" />
  <g
     transform="translate(-438,-201.99993)"
     id="layer2" />
  <g
     transform="translate(-438,-201.99993)"
     id="layer8" />
  <g
     transform="translate(-438,-1154.3621)"
     id="layer1">
    <rect
       width="24"
       height="24"
       x="438.07159"
       y="1154.3621"
       id="rect10647"
       style="opacity:0;fill:#ffffff;fill-opacity:1;stroke:none;display:inline" />
    <g
       transform="translate(391.07158,784.99993)"
       id="g10728">
      <path
         d="M 55.92842,379.36225 C 54.283412,379.36225 52.92842,380.71724 52.92842,382.36225 C 52.92842,384.00726 54.283412,385.36225 55.92842,385.36225 C 57.573428,385.36225 58.92842,384.00726 58.92842,382.36225 C 58.92842,380.71724 57.573428,379.36225 55.92842,379.36225 z M 54.92842,381.86507 C 54.93947,381.5778 55.124062,381.36225 55.422373,381.36225 C 55.422373,381.36225 56.449888,381.36225 56.449888,381.36225 C 56.73715,381.37325 56.92842,381.57217 56.92842,381.87048 C 56.92842,381.87048 56.92842,382.82087 56.92842,382.82087 C 56.92842,383.16338 56.726101,383.36225 56.438839,383.36225 C 56.438839,383.36225 55.477616,383.36225 55.477616,383.36225 C 55.190354,383.36225 54.92842,383.14128 54.92842,382.84297 C 54.92842,382.84297 54.92842,381.86507 54.92842,381.86507 L 54.92842,381.86507 z"
         id="path10661"
         style="font-size:medium;font-style:normal;font-variant:normal;font-weight:normal;font-stretch:normal;text-indent:0;text-align:start;text-decoration:none;line-height:normal;letter-spacing:normal;word-spacing:normal;text-transform:none;direction:ltr;block-progression:tb;writing-mode:lr-tb;text-anchor:start;fill:#bebebe;fill-opacity:1;stroke:none;stroke-width:2.5;marker:none;visibility:visible;display:inline;overflow:visible;enable-background:accumulate;font-family:Bitstream Vera Sans;-inkscape-font-specification:Bitstream Vera Sans" />
      <path
         d="M 447,217 L 447,209 L 455,209 L 455,217"
         transform="translate(-389.07158,165.36225)"
         id="path10686"
         style="fill:#ffffff;fill-opacity:0;stroke:#bebebe;stroke-width:2;stroke-linecap:round;stroke-linejoin:miter;marker:none;stroke-miterlimit:4;stroke-dasharray:none;stroke-dashoffset:0;stroke-opacity:1;visibility:visible;display:inline;overflow:visible;enable-background:accumulate" />
      <path
         d="M 63.92842,379.36225 C 62.283412,379.36225 60.92842,380.71724 60.92842,382.36225 C 60.92842,384.00726 62.283412,385.36225 63.92842,385.36225 C 65.573428,385.36225 66.92842,384.00726 66.92842,382.36225 C 66.92842,380.71724 65.573428,379.36225 63.92842,379.36225 z M 62.92842,381.86507 C 62.93947,381.5778 63.124062,381.36225 63.422373,381.36225 C 63.422373,381.36225 64.449888,381.36225 64.449888,381.36225 C 64.73715,381.37325 64.92842,381.57217 64.92842,381.87048 C 64.92842,381.87048 64.92842,382.82087 64.92842,382.82087 C 64.92842,383.16338 64.726101,383.36225 64.438839,383.36225 C 64.438839,383.36225 63.477616,383.36225 63.477616,383.36225 C 63.190354,383.36225 62.92842,383.14128 62.92842,382.84297 C 62.92842,382.84297 62.92842,381.86507 62.92842,381.86507 L 62.92842,381.86507 z"
         id="path10702"
         style="font-size:medium;font-style:normal;font-variant:normal;font-weight:normal;font-stretch:normal;text-indent:0;text-align:start;text-decoration:none;line-height:normal;letter-spacing:normal;word-spacing:normal;text-transform:none;direction:ltr;block-progression:tb;writing-mode:lr-tb;text-anchor:start;fill:#bebebe;fill-opacity:1;stroke:none;stroke-width:2.5;marker:none;visibility:visible;display:inline;overflow:visible;enable-background:accumulate;font-family:Bitstream Vera Sans;-inkscape-font-specification:Bitstream Vera Sans" />
    </g>
    <path
       d="M 438,1162.375 L 438,1163.375 L 438,1175.375 L 438,1176.375 L 439,1176.375 L 441,1176.375 L 441,1177.375 L 441,1178.375 L 442,1178.375 L 451.0625,1178.375 L 452.0625,1178.375 L 452.0625,1177.375 L 452.0625,1176.375 L 461,1176.375 L 462,1176.375 L 462,1175.375 L 462,1163.375 L 462,1162.375 L 461,1162.375 L 459.3125,1162.375 C 458.95186,1162.3699 458.61642,1162.5594 458.43461,1162.8709 C 458.25281,1163.1824 458.25281,1163.5676 458.43461,1163.8791 C 458.61642,1164.1906 458.95186,1164.3801 459.3125,1164.375 L 460,1164.375 L 460,1174.375 L 451.0625,1174.375 L 450.0625,1174.375 L 450.0625,1175.375 L 450.0625,1176.375 L 443,1176.375 L 443,1175.375 L 443,1174.375 L 442,1174.375 L 440,1174.375 L 440,1164.375 L 443,1164.375 C 443.36064,1164.3801 443.69608,1164.1906 443.87789,1163.8791 C 444.05969,1163.5676 444.05969,1163.1824 443.87789,1162.8709 C 443.69608,1162.5594 443.36064,1162.3699 443,1162.375 L 439,1162.375 L 438,1162.375 z"
       id="path10704"
       style="fill:#bebebe;fill-opacity:1;fill-rule:nonzero;stroke:none;stroke-width:2;stroke-linecap:round;stroke-linejoin:miter;marker:none;stroke-miterlimit:4;stroke-dasharray:none;stroke-dashoffset:0;stroke-opacity:1;visibility:visible;display:inline;overflow:visible;enable-background:accumulate" />
    <path
       d="M 444.4375,1174.3438 C 444.17364,1174.3764 443.98143,1174.6098 444,1174.875 L 444,1177.1875 C 443.99745,1177.3678 444.09219,1177.5355 444.24794,1177.6264 C 444.40369,1177.7173 444.59631,1177.7173 444.75206,1177.6264 C 444.90781,1177.5355 445.00255,1177.3678 445,1177.1875 L 445,1174.875 C 445.01056,1174.7255 444.95349,1174.5791 444.84452,1174.4762 C 444.73555,1174.3733 444.58616,1174.3247 444.4375,1174.3438 z"
       id="path10754"
       style="fill:#bebebe;fill-opacity:1;stroke:none;stroke-width:1px;stroke-linecap:round;stroke-linejoin:miter;stroke-opacity:1" />
    <path
       d="M 446.4375,1174.3438 C 446.17364,1174.3764 445.98143,1174.6098 446,1174.875 L 446,1177.1875 C 445.99745,1177.3678 446.09219,1177.5355 446.24794,1177.6264 C 446.40369,1177.7173 446.59631,1177.7173 446.75206,1177.6264 C 446.90781,1177.5355 447.00255,1177.3678 447,1177.1875 L 447,1174.875 C 447.01056,1174.7255 446.95349,1174.5791 446.84452,1174.4762 C 446.73555,1174.3733 446.58616,1174.3247 446.4375,1174.3438 z"
       id="path10756"
       style="fill:#bebebe;fill-opacity:1;stroke:none;stroke-width:1px;stroke-linecap:round;stroke-linejoin:miter;stroke-opacity:1" />
    <path
       d="M 448.4375,1174.3438 C 448.17364,1174.3764 447.98143,1174.6098 448,1174.875 L 448,1177.1875 C 447.99745,1177.3678 448.09219,1177.5355 448.24794,1177.6264 C 448.40369,1177.7173 448.59631,1177.7173 448.75206,1177.6264 C 448.90781,1177.5355 449.00255,1177.3678 449,1177.1875 L 449,1174.875 C 449.01056,1174.7255 448.95349,1174.5791 448.84452,1174.4762 C 448.73555,1174.3733 448.58616,1174.3247 448.4375,1174.3438 z"
       id="path10758"
       style="fill:#bebebe;fill-opacity:1;stroke:none;stroke-width:1px;stroke-linecap:round;stroke-linejoin:miter;stroke-opacity:1" />
  </g>
  <g
     transform="translate(-438,-201.99993)"
     id="layer4" />
  <g
     transform="translate(-438,-201.99993)"
     id="layer9" />
  <g
     transform="translate(-438,-201.99993)"
     id="layer6" />
</svg>
