<?xml version="1.0" encoding="UTF-8" standalone="no"?>
<!-- Created with Inkscape (http://www.inkscape.org/) -->
<svg
   xmlns:svg="http://www.w3.org/2000/svg"
   xmlns="http://www.w3.org/2000/svg"
   version="1.0"
   width="24"
   height="24"
   id="svg7384">
  <defs
     id="defs7386" />
  <g
     transform="translate(-240,-202)"
     id="layer3" />
  <g
     transform="translate(-240,-202)"
     id="layer5" />
  <g
     transform="translate(-240,-202)"
     id="layer7" />
  <g
     transform="translate(-240,-202)"
     id="layer2" />
  <g
     transform="translate(-240,-202)"
     id="layer8" />
  <g
     transform="translate(-240,-1154.3622)"
     id="layer1">
    <path
       d="M 247.98527,1165.3502 C 247.43448,1165.3588 246.9943,1165.8111 247.00076,1166.3619 C 247.00076,1169.111 249.2504,1171.3606 251.99946,1171.3606 C 254.74852,1171.3606 256.99816,1169.111 256.99816,1166.3619 C 257.02166,1165.9903 256.83672,1165.6364 256.51822,1165.4434 C 256.19972,1165.2505 255.80039,1165.2505 255.48189,1165.4434 C 255.16339,1165.6364 254.97845,1165.9903 255.00195,1166.3619 C 255.00195,1168.0289 253.6664,1169.3644 251.99946,1169.3644 C 250.33252,1169.3644 249.00242,1168.0289 249.00242,1166.3619 C 249.00559,1166.0917 248.89927,1165.8317 248.70766,1165.6411 C 248.51606,1165.4505 248.25548,1165.3456 247.98527,1165.3502 z"
       id="path6354"
       style="fill:#bebebe;fill-opacity:1;stroke:none;stroke-width:11.49049091;stroke-linecap:round;stroke-miterlimit:4;stroke-dasharray:none;stroke-dashoffset:0;stroke-opacity:1;display:inline" />
    <path
       d="M 244.88855,1165.3528 C 244.37807,1165.4118 243.99535,1165.848 244.00331,1166.3618 C 244.00331,1170.7669 247.59399,1174.3576 251.99906,1174.3576 C 256.40412,1174.3576 260.00432,1170.7669 260.00432,1166.3618 C 260.00432,1165.8072 259.55471,1165.3576 259.00009,1165.3576 C 258.44547,1165.3576 257.99587,1165.8072 257.99587,1166.3618 C 257.99587,1169.6848 255.32199,1172.3586 251.99906,1172.3586 C 248.67612,1172.3586 246.00224,1169.6848 246.00224,1166.3618 C 246.00667,1166.0741 245.88697,1165.7985 245.67374,1165.6053 C 245.46051,1165.4121 245.17441,1165.3201 244.88855,1165.3528 z"
       id="path6356"
       style="fill:#bebebe;fill-opacity:1;stroke:none;stroke-width:6.56599188;stroke-linecap:round;stroke-miterlimit:4;stroke-dasharray:none;stroke-dashoffset:0;stroke-opacity:1;display:inline" />
    <rect
       width="24"
       height="24"
       x="240"
       y="1154.3622"
       id="rect6366"
       style="opacity:0;fill:#ffffff;fill-opacity:1;stroke:none;display:inline" />
    <path
       d="M 247.98527,1160.3741 C 247.43448,1160.3655 246.9943,1159.9132 247.00076,1159.3624 C 247.00076,1156.6133 249.2504,1154.3637 251.99946,1154.3637 C 254.74852,1154.3637 256.99816,1156.6133 256.99816,1159.3624 C 257.02166,1159.734 256.83672,1160.0879 256.51822,1160.2809 C 256.19972,1160.4738 255.80039,1160.4738 255.48189,1160.2809 C 255.16339,1160.0879 254.97845,1159.734 255.00195,1159.3624 C 255.00195,1157.6954 253.6664,1156.3599 251.99946,1156.3599 C 250.33252,1156.3599 249.00242,1157.6954 249.00242,1159.3624 C 249.00559,1159.6326 248.89927,1159.8926 248.70766,1160.0832 C 248.51606,1160.2738 248.25548,1160.3787 247.98527,1160.3741 z"
       id="path7168"
       style="fill:#bebebe;fill-opacity:1;stroke:none;stroke-width:11.49049091;stroke-linecap:round;stroke-miterlimit:4;stroke-dasharray:none;stroke-dashoffset:0;stroke-opacity:1;display:inline" />
    <path
       d="M 255.875,1158.3438 C 255.3599,1158.4083 254.97983,1158.8563 255,1159.375 L 255,1166.375 C 254.9949,1166.7356 255.18438,1167.0711 255.49587,1167.2529 C 255.80737,1167.4347 256.19263,1167.4347 256.50413,1167.2529 C 256.81562,1167.0711 257.0051,1166.7356 257,1166.375 L 257,1159.375 C 257.01147,1159.0813 256.89313,1158.7974 256.67644,1158.5987 C 256.45974,1158.4001 256.16663,1158.3069 255.875,1158.3438 z"
       id="path5586"
       style="fill:#bebebe;fill-opacity:1;stroke:none;stroke-width:2;stroke-linecap:round;stroke-linejoin:miter;stroke-miterlimit:4;stroke-dasharray:none;stroke-opacity:1" />
    <path
       d="M 247.875,1158.3438 C 247.3599,1158.4083 246.97983,1158.8563 247,1159.375 L 247,1166.375 C 246.9949,1166.7356 247.18438,1167.0711 247.49587,1167.2529 C 247.80737,1167.4347 248.19263,1167.4347 248.50413,1167.2529 C 248.81562,1167.0711 249.0051,1166.7356 249,1166.375 L 249,1159.375 C 249.01147,1159.0813 248.89313,1158.7974 248.67644,1158.5987 C 248.45974,1158.4001 248.16663,1158.3069 247.875,1158.3438 z"
       id="path5588"
       style="fill:#bebebe;fill-opacity:1;stroke:none;stroke-width:2;stroke-linecap:round;stroke-linejoin:miter;stroke-miterlimit:4;stroke-dasharray:none;stroke-opacity:1" />
    <path
       d="M 244.875,1163.3438 C 244.37204,1163.4072 243.99607,1163.8369 244,1164.3438 L 244,1166.375 C 243.9949,1166.7356 244.18438,1167.0711 244.49587,1167.2529 C 244.80737,1167.4347 245.19263,1167.4347 245.50413,1167.2529 C 245.81562,1167.0711 246.0051,1166.7356 246,1166.375 L 246,1164.3438 C 246.00223,1164.0554 245.87989,1163.7802 245.66436,1163.5886 C 245.44883,1163.397 245.16111,1163.3078 244.875,1163.3438 z"
       id="path5590"
       style="fill:#bebebe;fill-opacity:1;stroke:none;stroke-width:2;stroke-linecap:round;stroke-linejoin:miter;stroke-miterlimit:4;stroke-dasharray:none;stroke-opacity:1" />
    <path
       d="M 258.78125,1163.3438 C 258.31562,1163.4481 257.98851,1163.8668 258,1164.3438 L 258,1166.3438 C 257.9949,1166.7044 258.18438,1167.0399 258.49587,1167.2217 C 258.80737,1167.4035 259.19263,1167.4035 259.50413,1167.2217 C 259.81562,1167.0399 260.0051,1166.7044 260,1166.3438 L 260,1164.3438 C 260.00744,1164.0359 259.87264,1163.7418 259.63457,1163.5465 C 259.39651,1163.3512 259.08173,1163.2764 258.78125,1163.3438 z"
       id="path5592"
       style="fill:#bebebe;fill-opacity:1;stroke:none;stroke-width:2;stroke-linecap:round;stroke-linejoin:miter;stroke-miterlimit:4;stroke-dasharray:none;stroke-opacity:1" />
    <path
       d="M 253.5,1159.3438 C 253.31968,1159.3412 253.15196,1159.436 253.06106,1159.5917 C 252.97015,1159.7475 252.97015,1159.9401 253.06106,1160.0959 C 253.15196,1160.2516 253.31968,1160.3464 253.5,1160.3438 L 256.1875,1160.3438 C 256.36782,1160.3464 256.53554,1160.2516 256.62644,1160.0959 C 256.71735,1159.9401 256.71735,1159.7475 256.62644,1159.5917 C 256.53554,1159.436 256.36782,1159.3412 256.1875,1159.3438 L 253.5,1159.3438 z"
       id="path5594"
       style="fill:#bebebe;fill-opacity:1;stroke:none;stroke-width:1px;stroke-linecap:round;stroke-linejoin:miter;stroke-opacity:1" />
    <path
       d="M 253.34375,1161.375 C 253.06761,1161.4181 252.87873,1161.677 252.92188,1161.9531 C 252.96502,1162.2293 253.22386,1162.4181 253.5,1162.375 L 256.1875,1162.375 C 256.36782,1162.3776 256.53554,1162.2828 256.62644,1162.1271 C 256.71735,1161.9713 256.71735,1161.7787 256.62644,1161.6229 C 256.53554,1161.4672 256.36782,1161.3724 256.1875,1161.375 L 253.5,1161.375 C 253.44824,1161.3668 253.39551,1161.3668 253.34375,1161.375 z"
       id="path5596"
       style="fill:#bebebe;fill-opacity:1;stroke:none;stroke-width:1px;stroke-linecap:round;stroke-linejoin:miter;stroke-opacity:1" />
    <path
       d="M 253.34375,1163.375 C 253.06761,1163.4181 252.87873,1163.677 252.92188,1163.9531 C 252.96502,1164.2293 253.22386,1164.4181 253.5,1164.375 L 256.1875,1164.375 C 256.36782,1164.3776 256.53554,1164.2828 256.62644,1164.1271 C 256.71735,1163.9713 256.71735,1163.7787 256.62644,1163.6229 C 256.53554,1163.4672 256.36782,1163.3724 256.1875,1163.375 L 253.5,1163.375 C 253.44824,1163.3668 253.39551,1163.3668 253.34375,1163.375 z"
       id="path5598"
       style="fill:#bebebe;fill-opacity:1;stroke:none;stroke-width:1px;stroke-linecap:round;stroke-linejoin:miter;stroke-opacity:1" />
    <path
       d="M 247.8125,1159.3438 C 247.63218,1159.3412 247.46446,1159.436 247.37356,1159.5917 C 247.28265,1159.7475 247.28265,1159.9401 247.37356,1160.0959 C 247.46446,1160.2516 247.63218,1160.3464 247.8125,1160.3438 L 250.5,1160.3438 C 250.68032,1160.3464 250.84804,1160.2516 250.93894,1160.0959 C 251.02985,1159.9401 251.02985,1159.7475 250.93894,1159.5917 C 250.84804,1159.436 250.68032,1159.3412 250.5,1159.3438 L 247.8125,1159.3438 z"
       id="path5600"
       style="fill:#bebebe;fill-opacity:1;stroke:none;stroke-width:1px;stroke-linecap:round;stroke-linejoin:miter;stroke-opacity:1" />
    <path
       d="M 247.65625,1161.375 C 247.38011,1161.4181 247.19123,1161.677 247.23438,1161.9531 C 247.27752,1162.2293 247.53636,1162.4181 247.8125,1162.375 L 250.5,1162.375 C 250.68032,1162.3776 250.84804,1162.2828 250.93894,1162.1271 C 251.02985,1161.9713 251.02985,1161.7787 250.93894,1161.6229 C 250.84804,1161.4672 250.68032,1161.3724 250.5,1161.375 L 247.8125,1161.375 C 247.76074,1161.3668 247.70801,1161.3668 247.65625,1161.375 L 247.65625,1161.375 z"
       id="path5602"
       style="fill:#bebebe;fill-opacity:1;stroke:none;stroke-width:1px;stroke-linecap:round;stroke-linejoin:miter;stroke-opacity:1" />
    <path
       d="M 247.65625,1163.375 C 247.38011,1163.4181 247.19123,1163.677 247.23438,1163.9531 C 247.27752,1164.2293 247.53636,1164.4181 247.8125,1164.375 L 250.5,1164.375 C 250.68032,1164.3776 250.84804,1164.2828 250.93894,1164.1271 C 251.02985,1163.9713 251.02985,1163.7787 250.93894,1163.6229 C 250.84804,1163.4672 250.68032,1163.3724 250.5,1163.375 L 247.8125,1163.375 C 247.76074,1163.3668 247.70801,1163.3668 247.65625,1163.375 L 247.65625,1163.375 z"
       id="path5604"
       style="fill:#bebebe;fill-opacity:1;stroke:none;stroke-width:1px;stroke-linecap:round;stroke-linejoin:miter;stroke-opacity:1" />
    <path
       d="M 248.8125,1176.375 C 248.26022,1176.4268 247.85447,1176.9165 247.90625,1177.4688 C 247.95803,1178.021 248.44772,1178.4268 249,1178.375 L 255,1178.375 C 255.36064,1178.3801 255.69609,1178.1906 255.87789,1177.8791 C 256.0597,1177.5676 256.0597,1177.1824 255.87789,1176.8709 C 255.69609,1176.5594 255.36064,1176.3699 255,1176.375 L 249,1176.375 C 248.93764,1176.3691 248.87486,1176.3691 248.8125,1176.375 z"
       id="path8255"
       style="fill:#bebebe;fill-opacity:1;stroke:none;stroke-width:2.00000024;stroke-linecap:round;stroke-linejoin:miter;marker:none;stroke-miterlimit:4;stroke-dasharray:none;stroke-dashoffset:0;stroke-opacity:1;visibility:visible;display:inline;overflow:visible;enable-background:accumulate" />
    <path
       d="M 251.875,1172.3438 C 251.3599,1172.4083 250.97983,1172.8563 251,1173.375 L 251,1177.375 C 250.9949,1177.7356 251.18437,1178.0711 251.49587,1178.2529 C 251.80737,1178.4347 252.19263,1178.4347 252.50413,1178.2529 C 252.81563,1178.0711 253.0051,1177.7356 253,1177.375 L 253,1173.375 C 253.01147,1173.0813 252.89313,1172.7974 252.67644,1172.5987 C 252.45974,1172.4001 252.16663,1172.3069 251.875,1172.3438 z"
       id="path8257"
       style="fill:#bebebe;fill-opacity:1;stroke:none;stroke-width:2.00000024;stroke-linecap:round;stroke-linejoin:miter;marker:none;stroke-miterlimit:4;stroke-dasharray:none;stroke-dashoffset:0;stroke-opacity:1;visibility:visible;display:inline;overflow:visible;enable-background:accumulate" />
  </g>
  <g
     transform="translate(-240,-202)"
     id="layer4" />
  <g
     transform="translate(-240,-202)"
     id="layer9" />
  <g
     transform="translate(-240,-202)"
     id="layer6" />
</svg>
