<?xml version="1.0" encoding="UTF-8" standalone="no"?>
<!-- Created with Inkscape (http://www.inkscape.org/) -->
<svg
   xmlns:svg="http://www.w3.org/2000/svg"
   xmlns="http://www.w3.org/2000/svg"
   version="1.0"
   width="24.111916"
   height="24"
   id="svg7384">
  <defs
     id="defs7386" />
  <g
     transform="translate(-409.91883,-175)"
     id="layer3" />
  <g
     transform="translate(-409.91883,-175)"
     id="layer5" />
  <g
     transform="translate(-409.91883,-175)"
     id="layer7" />
  <g
     transform="translate(-409.91883,-175)"
     id="layer2" />
  <g
     transform="translate(-409.91883,-175)"
     id="layer8" />
  <g
     transform="translate(-409.91883,-1127.3622)"
     id="layer1">
    <rect
       width="24"
       height="24"
       x="-434.03076"
       y="1127.3622"
       transform="scale(-1,1)"
       id="rect5964"
       style="opacity:0;fill:none;stroke:none;display:inline" />
    <path
       d="M 412.96875,1130.375 L 412.96875,1131.375 L 412.96875,1134.4062 L 411.71875,1134.4062 L 411.65625,1134.4062 L 411.59375,1134.4062 C 410.60927,1134.5295 409.90625,1135.3189 409.90625,1136.4062 L 409.90625,1141.5 C 409.90626,1142.5303 410.64889,1143.3438 411.625,1143.3438 L 413,1143.375 L 413,1146.3125 L 413,1147.3125 L 414,1147.3125 L 433.03125,1147.3125 L 434.03125,1147.3125 L 434.03125,1146.3125 L 434.03125,1131.375 L 434.03125,1130.375 L 433.03125,1130.375 L 413.96875,1130.375 L 412.96875,1130.375 z M 414.96875,1132.375 L 432.03125,1132.375 L 432.03125,1145.3125 L 415,1145.3125 L 415,1142.375 L 415,1141.4062 L 414.03125,1141.375 L 411.90625,1141.3438 L 411.90625,1136.4062 L 413.96875,1136.4062 L 414.96875,1136.4062 L 414.96875,1135.4062 L 414.96875,1132.375 z"
       id="path8203"
       style="fill:#bebebe;fill-opacity:1;stroke:none;stroke-width:2;stroke-linecap:round;stroke-linejoin:miter;stroke-miterlimit:4;stroke-dasharray:none;stroke-opacity:1" />
  </g>
  <g
     transform="translate(-409.91883,-175)"
     id="layer4" />
  <g
     transform="translate(-409.91883,-175)"
     id="layer9" />
  <g
     transform="translate(-409.91883,-175)"
     id="layer6" />
</svg>
