<?xml version="1.0" encoding="UTF-8" standalone="no"?>
<!-- Created with Inkscape (http://www.inkscape.org/) -->
<svg
   xmlns:svg="http://www.w3.org/2000/svg"
   xmlns="http://www.w3.org/2000/svg"
   version="1.0"
   width="24"
   height="24"
   id="svg7384">
  <title
     id="title9167">Moblin Icon Theme</title>
  <defs
     id="defs7386" />
  <g
     transform="translate(-326,-229.99993)"
     id="layer3" />
  <g
     transform="translate(-326,-229.99993)"
     id="layer5" />
  <g
     transform="translate(-326,-229.99993)"
     id="layer7" />
  <g
     transform="translate(-326,-229.99993)"
     id="layer2" />
  <g
     transform="translate(-326,-229.99993)"
     id="layer8" />
  <g
     transform="translate(-326,-1182.3621)"
     id="layer1">
    <rect
       width="24"
       height="24"
       x="326"
       y="1182.3621"
       id="rect7826"
       style="opacity:0;fill:#ffffff;fill-opacity:1;stroke:none;display:inline" />
    <path
       d="M 336.78125,1184.375 C 336.31562,1184.4793 335.98851,1184.898 336,1185.375 L 336,1192.1875 L 333.5625,1190.4688 C 333.10515,1190.1581 332.48256,1190.2771 332.1719,1190.7344 C 331.86124,1191.1917 331.98015,1191.8143 332.4375,1192.125 L 335.0625,1193.9688 L 332.5,1195.5 C 332.14996,1195.6558 331.91973,1195.998 331.90721,1196.381 C 331.89469,1196.7639 332.10208,1197.1204 332.44119,1197.2987 C 332.7803,1197.4771 333.19152,1197.4461 333.5,1197.2188 L 336,1195.7188 L 336,1203.3125 C 336.01155,1203.6914 336.23634,1204.0312 336.58054,1204.1901 C 336.92473,1204.3489 337.32916,1204.2995 337.625,1204.0625 L 343.65625,1199.1562 C 343.89844,1198.9575 344.03354,1198.6568 344.02126,1198.3438 C 344.00899,1198.0308 343.85075,1197.7416 343.59375,1197.5625 L 338.6875,1194.0938 L 343.5,1191.2188 C 343.77732,1191.052 343.95677,1190.7612 343.98159,1190.4385 C 344.00641,1190.1158 343.87354,1189.8011 343.625,1189.5938 L 337.625,1184.5938 C 337.392,1184.3957 337.08116,1184.3151 336.78125,1184.375 L 336.78125,1184.375 z M 338,1187.4688 L 341.28125,1190.2188 L 338,1192.1875 L 338,1187.4688 z M 338,1196.0625 L 341.375,1198.4375 L 338,1201.1875 L 338,1196.0625 z"
       id="path7887"
       style="fill:#bebebe;fill-opacity:1;stroke:none;stroke-width:2;stroke-linecap:round;stroke-linejoin:round;marker:none;stroke-miterlimit:4;stroke-dasharray:none;stroke-dashoffset:0;stroke-opacity:1;visibility:visible;display:inline;overflow:visible;enable-background:accumulate" />
  </g>
  <g
     transform="translate(-326,-229.99993)"
     id="layer11" />
  <g
     transform="translate(-326,-229.99993)"
     id="layer4" />
  <g
     transform="translate(-326,-229.99993)"
     id="layer9" />
  <g
     transform="translate(-326,-229.99993)"
     id="layer10" />
  <g
     transform="translate(-326,-229.99993)"
     id="layer6" />
</svg>
