<?xml version="1.0" encoding="UTF-8" standalone="no"?>
<!-- Created with Inkscape (http://www.inkscape.org/) -->
<svg
   xmlns:svg="http://www.w3.org/2000/svg"
   xmlns="http://www.w3.org/2000/svg"
   version="1.0"
   width="24.000017"
   height="24"
   id="svg7384">
  <defs
     id="defs7386" />
  <g
     transform="translate(-269,-175)"
     id="layer3" />
  <g
     transform="translate(-269,-175)"
     id="layer5" />
  <g
     transform="translate(-269,-175)"
     id="layer7" />
  <g
     transform="translate(-269,-175)"
     id="layer2" />
  <g
     transform="translate(-269,-175)"
     id="layer8" />
  <g
     transform="translate(-269,-1127.3622)"
     id="layer1">
    <rect
       width="24"
       height="24"
       x="269"
       y="1127.3622"
       id="rect12482"
       style="opacity:0;fill:#ffffff;fill-opacity:1;stroke:none;display:inline" />
    <path
       d="M 281.4997,1145.3639 C 279.57863,1145.3639 278.00155,1143.7834 278.00155,1141.8624 C 278.00155,1139.9413 279.57863,1138.3608 281.4997,1138.3608 C 283.42076,1138.3608 285.00124,1139.9413 285.00124,1141.8624 C 285.00124,1143.7834 283.42076,1145.3639 281.4997,1145.3639 z M 281.4997,1143.3616 C 282.33864,1143.3616 282.9989,1142.7013 282.9989,1141.8624 C 282.9989,1141.0234 282.33863,1140.3632 281.4997,1140.3632 C 280.66076,1140.3632 280.00049,1141.0234 280.00049,1141.8624 C 280.00049,1142.7013 280.66076,1143.3616 281.4997,1143.3616 z"
       id="path3543-2-2-9"
       style="fill:#bebebe;fill-opacity:1;stroke:none;stroke-width:18.38477325;stroke-linecap:round;stroke-miterlimit:4;stroke-dasharray:none;stroke-dashoffset:0;stroke-opacity:1;display:inline" />
    <path
       d="M 269.98508,1136.2266 C 269.42395,1136.2187 268.97557,1135.7722 268.98338,1135.229 C 268.98338,1133.6663 270.31376,1132.3785 271.92816,1132.3785 C 272.29778,1132.3687 272.64372,1132.554 272.8315,1132.8624 C 273.01927,1133.1707 273.01927,1133.5534 272.8315,1133.8618 C 272.64372,1134.1701 272.29778,1134.3554 271.92816,1134.3457 C 271.41363,1134.3457 271.01562,1134.7309 271.01562,1135.229 C 271.01944,1135.4947 270.91209,1135.7506 270.71799,1135.9385 C 270.52389,1136.1263 270.25954,1136.2303 269.98508,1136.2266 z"
       id="path2874-9"
       style="fill:#bebebe;fill-opacity:1;stroke:none;stroke-width:24.22530937;stroke-linecap:round;stroke-miterlimit:4;stroke-dasharray:none;stroke-dashoffset:0;stroke-opacity:1;display:inline" />
    <path
       d="M 269.99418,1144.4979 C 269.43305,1144.5058 268.98467,1144.9523 268.99248,1145.4955 C 268.99248,1147.0582 270.32286,1148.346 271.93726,1148.346 C 272.30688,1148.3558 272.65282,1148.1705 272.8406,1147.8621 C 273.02837,1147.5538 273.02837,1147.1711 272.8406,1146.8627 C 272.65282,1146.5544 272.30688,1146.3691 271.93726,1146.3788 C 271.42273,1146.3788 271.02472,1145.9936 271.02472,1145.4955 C 271.02854,1145.2298 270.92119,1144.9739 270.72709,1144.786 C 270.53299,1144.5982 270.26864,1144.4942 269.99418,1144.4979 z"
       id="path2876-2"
       style="fill:#bebebe;fill-opacity:1;stroke:none;stroke-width:24.22530937;stroke-linecap:round;stroke-miterlimit:4;stroke-dasharray:none;stroke-dashoffset:0;stroke-opacity:1;display:inline" />
    <path
       d="M 276.98508,1134.2266 C 276.42395,1134.2187 275.97557,1133.7722 275.98338,1133.229 C 275.98338,1131.6663 277.31376,1130.3785 278.92816,1130.3785 C 279.29778,1130.3687 279.64372,1130.554 279.8315,1130.8624 C 280.01927,1131.1707 280.01927,1131.5534 279.8315,1131.8618 C 279.64372,1132.1701 279.29778,1132.3554 278.92816,1132.3457 C 278.41363,1132.3457 278.01562,1132.7309 278.01562,1133.229 C 278.01944,1133.4947 277.91209,1133.7506 277.71799,1133.9385 C 277.52389,1134.1263 277.25954,1134.2303 276.98508,1134.2266 z"
       id="path2874-0-9"
       style="fill:#bebebe;fill-opacity:1;stroke:none;stroke-width:24.22530937;stroke-linecap:round;stroke-miterlimit:4;stroke-dasharray:none;stroke-dashoffset:0;stroke-opacity:1;display:inline" />
    <path
       d="M 286.01498,1134.2266 C 286.57611,1134.2187 287.02449,1133.7722 287.01668,1133.229 C 287.01668,1131.6663 285.6863,1130.3785 284.0719,1130.3785 C 283.70228,1130.3687 283.35634,1130.554 283.16856,1130.8624 C 282.98079,1131.1707 282.98079,1131.5534 283.16856,1131.8618 C 283.35634,1132.1701 283.70228,1132.3554 284.0719,1132.3457 C 284.58643,1132.3457 284.98444,1132.7309 284.98444,1133.229 C 284.98062,1133.4947 285.08797,1133.7506 285.28207,1133.9385 C 285.47617,1134.1263 285.74052,1134.2303 286.01498,1134.2266 z"
       id="path2922-8"
       style="fill:#bebebe;fill-opacity:1;stroke:none;stroke-width:24.22530937;stroke-linecap:round;stroke-miterlimit:4;stroke-dasharray:none;stroke-dashoffset:0;stroke-opacity:1;display:inline" />
    <path
       d="M 292.01498,1136.2266 C 292.57611,1136.2187 293.02449,1135.7722 293.01668,1135.229 C 293.01668,1133.6663 291.6863,1132.3785 290.0719,1132.3785 C 289.70228,1132.3687 289.35634,1132.554 289.16856,1132.8624 C 288.98079,1133.1707 288.98079,1133.5534 289.16856,1133.8618 C 289.35634,1134.1701 289.70228,1134.3554 290.0719,1134.3457 C 290.58643,1134.3457 290.98444,1134.7309 290.98444,1135.229 C 290.98062,1135.4947 291.08797,1135.7506 291.28207,1135.9385 C 291.47617,1136.1263 291.74052,1136.2303 292.01498,1136.2266 z"
       id="path2988-1"
       style="fill:#bebebe;fill-opacity:1;stroke:none;stroke-width:24.22530937;stroke-linecap:round;stroke-miterlimit:4;stroke-dasharray:none;stroke-dashoffset:0;stroke-opacity:1;display:inline" />
    <path
       d="M 281.49915,1149.3579 C 277.37009,1149.3579 274.00382,1145.9917 274.00382,1141.8626 C 274.00382,1137.7336 277.37009,1134.3584 281.49915,1134.3584 C 285.62822,1134.3584 289.00332,1137.7336 289.00332,1141.8626 C 289.00332,1145.9917 285.62822,1149.3579 281.49915,1149.3579 z M 281.49915,1147.3604 C 284.54609,1147.3604 286.99691,1144.9096 286.99691,1141.8626 C 286.99691,1138.8157 284.54609,1136.3649 281.49915,1136.3649 C 278.45222,1136.3649 276.0014,1138.8157 276.0014,1141.8626 C 276.0014,1144.9096 278.45222,1147.3604 281.49915,1147.3604 z"
       id="path10408-2"
       style="fill:#bebebe;fill-opacity:1;stroke:none;stroke-width:7.07106781;stroke-linecap:round;stroke-miterlimit:4;stroke-dasharray:none;stroke-dashoffset:0;stroke-opacity:1;display:inline" />
    <path
       d="M 292.01498,1144.4979 C 292.57611,1144.5058 293.02449,1144.9523 293.01668,1145.4955 C 293.01668,1147.0582 291.6863,1148.346 290.0719,1148.346 C 289.70228,1148.3558 289.35634,1148.1705 289.16856,1147.8621 C 288.98079,1147.5538 288.98079,1147.1711 289.16856,1146.8627 C 289.35634,1146.5544 289.70228,1146.3691 290.0719,1146.3788 C 290.58643,1146.3788 290.98444,1145.9936 290.98444,1145.4955 C 290.98062,1145.2298 291.08797,1144.9739 291.28207,1144.786 C 291.47617,1144.5982 291.74052,1144.4942 292.01498,1144.4979 z"
       id="path12488"
       style="fill:#bebebe;fill-opacity:1;stroke:none;stroke-width:24.22530937;stroke-linecap:round;stroke-miterlimit:4;stroke-dasharray:none;stroke-dashoffset:0;stroke-opacity:1;display:inline" />
    <path
       d="M 271.8125,1146.375 C 271.26022,1146.4268 270.85447,1146.9165 270.90625,1147.4688 C 270.95803,1148.021 271.44772,1148.4268 272,1148.375 L 274,1148.375 C 274.36064,1148.3801 274.69608,1148.1906 274.87789,1147.8791 C 275.05969,1147.5676 275.05969,1147.1824 274.87789,1146.8709 C 274.69608,1146.5594 274.36064,1146.3699 274,1146.375 L 272,1146.375 C 271.93764,1146.3691 271.87486,1146.3691 271.8125,1146.375 z"
       id="path7624"
       style="fill:#bebebe;fill-opacity:1;stroke:none;stroke-width:2;stroke-linecap:round;stroke-linejoin:round;marker:none;stroke-miterlimit:4;stroke-dasharray:none;stroke-dashoffset:0;stroke-opacity:1;visibility:visible;display:inline;overflow:visible;enable-background:accumulate" />
    <path
       d="M 269.875,1134.3438 C 269.3599,1134.4083 268.97983,1134.8563 269,1135.375 L 269,1145.3438 C 268.9949,1145.7044 269.18438,1146.0399 269.49587,1146.2217 C 269.80737,1146.4035 270.19263,1146.4035 270.50413,1146.2217 C 270.81562,1146.0399 271.0051,1145.7044 271,1145.3438 L 271,1135.375 C 271.01147,1135.0813 270.89313,1134.7974 270.67644,1134.5987 C 270.45974,1134.4001 270.16663,1134.3069 269.875,1134.3438 z"
       id="path7626"
       style="fill:#bebebe;fill-opacity:1;stroke:none;stroke-width:2;stroke-linecap:round;stroke-linejoin:round;marker:none;stroke-miterlimit:4;stroke-dasharray:none;stroke-dashoffset:0;stroke-opacity:1;visibility:visible;display:inline;overflow:visible;enable-background:accumulate" />
    <path
       d="M 271.8125,1132.375 C 271.26022,1132.4268 270.85447,1132.9165 270.90625,1133.4688 C 270.95803,1134.021 271.44772,1134.4268 272,1134.375 L 277,1134.375 C 277.36064,1134.3801 277.69608,1134.1906 277.87789,1133.8791 C 278.05969,1133.5676 278.05969,1133.1824 277.87789,1132.8709 C 277.69608,1132.5594 277.36064,1132.3699 277,1132.375 L 272,1132.375 C 271.93764,1132.3691 271.87486,1132.3691 271.8125,1132.375 z"
       id="path7628"
       style="fill:#bebebe;fill-opacity:1;stroke:none;stroke-width:2;stroke-linecap:round;stroke-linejoin:round;marker:none;stroke-miterlimit:4;stroke-dasharray:none;stroke-dashoffset:0;stroke-opacity:1;visibility:visible;display:inline;overflow:visible;enable-background:accumulate" />
    <path
       d="M 278.8125,1130.375 C 278.26022,1130.4268 277.85447,1130.9165 277.90625,1131.4688 C 277.95803,1132.021 278.44772,1132.4268 279,1132.375 L 284,1132.375 C 284.36064,1132.3801 284.69608,1132.1906 284.87789,1131.8791 C 285.05969,1131.5676 285.05969,1131.1824 284.87789,1130.8709 C 284.69608,1130.5594 284.36064,1130.3699 284,1130.375 L 279,1130.375 C 278.93764,1130.3691 278.87486,1130.3691 278.8125,1130.375 z"
       id="path7630"
       style="fill:#bebebe;fill-opacity:1;stroke:none;stroke-width:2;stroke-linecap:round;stroke-linejoin:round;marker:none;stroke-miterlimit:4;stroke-dasharray:none;stroke-dashoffset:0;stroke-opacity:1;visibility:visible;display:inline;overflow:visible;enable-background:accumulate" />
    <path
       d="M 285.8125,1132.375 C 285.26022,1132.4268 284.85447,1132.9165 284.90625,1133.4688 C 284.95803,1134.021 285.44772,1134.4268 286,1134.375 L 290,1134.375 C 290.36064,1134.3801 290.69608,1134.1906 290.87789,1133.8791 C 291.05969,1133.5676 291.05969,1133.1824 290.87789,1132.8709 C 290.69608,1132.5594 290.36064,1132.3699 290,1132.375 L 286,1132.375 C 285.93764,1132.3691 285.87486,1132.3691 285.8125,1132.375 z"
       id="path7632"
       style="fill:#bebebe;fill-opacity:1;stroke:none;stroke-width:2;stroke-linecap:round;stroke-linejoin:round;marker:none;stroke-miterlimit:4;stroke-dasharray:none;stroke-dashoffset:0;stroke-opacity:1;visibility:visible;display:inline;overflow:visible;enable-background:accumulate" />
    <path
       d="M 291.875,1134.1875 C 291.35986,1134.252 290.97978,1134.7 291,1135.2188 L 291,1145.375 C 290.9949,1145.7356 291.18438,1146.0711 291.49587,1146.2529 C 291.80737,1146.4347 292.19263,1146.4347 292.50413,1146.2529 C 292.81562,1146.0711 293.0051,1145.7356 293,1145.375 L 293,1135.2188 C 293.0115,1134.925 292.89318,1134.6411 292.67648,1134.4425 C 292.45977,1134.2438 292.16665,1134.1506 291.875,1134.1875 L 291.875,1134.1875 z"
       id="path7634"
       style="fill:#bebebe;fill-opacity:1;stroke:none;stroke-width:2;stroke-linecap:round;stroke-linejoin:round;stroke-miterlimit:4;stroke-dasharray:none;stroke-opacity:1" />
    <path
       d="M 288.8125,1146.4062 C 288.26022,1146.458 287.85447,1146.9477 287.90625,1147.5 C 287.95803,1148.0522 288.44772,1148.458 289,1148.4062 L 290.0625,1148.4062 C 290.42314,1148.4113 290.75858,1148.2218 290.94039,1147.9103 C 291.12219,1147.5988 291.12219,1147.2136 290.94039,1146.9021 C 290.75858,1146.5906 290.42314,1146.4011 290.0625,1146.4062 L 289,1146.4062 C 288.93764,1146.4003 288.87486,1146.4003 288.8125,1146.4062 L 288.8125,1146.4062 z"
       id="path7636"
       style="fill:#bebebe;fill-opacity:1;stroke:none;stroke-width:2;stroke-linecap:round;stroke-linejoin:round;marker:none;stroke-miterlimit:4;stroke-dasharray:none;stroke-dashoffset:0;stroke-opacity:1;visibility:visible;display:inline;overflow:visible;enable-background:accumulate" />
  </g>
  <g
     transform="translate(-269,-175)"
     id="layer4" />
  <g
     transform="translate(-269,-175)"
     id="layer9" />
  <g
     transform="translate(-269,-175)"
     id="layer6" />
</svg>
