<?xml version="1.0" encoding="UTF-8" standalone="no"?>
<!-- Created with Inkscape (http://www.inkscape.org/) -->
<svg
   xmlns:svg="http://www.w3.org/2000/svg"
   xmlns="http://www.w3.org/2000/svg"
   version="1.0"
   width="24"
   height="24"
   id="svg7384">
  <defs
     id="defs7386" />
  <g
     transform="translate(-240,-175)"
     id="layer3" />
  <g
     transform="translate(-240,-175)"
     id="layer5" />
  <g
     transform="translate(-240,-175)"
     id="layer7" />
  <g
     transform="translate(-240,-175)"
     id="layer2" />
  <g
     transform="translate(-240,-175)"
     id="layer8" />
  <g
     transform="translate(-240,-1127.3622)"
     id="layer1">
    <rect
       width="24"
       height="24"
       x="240"
       y="1127.3622"
       id="rect6866-1"
       style="opacity:0;fill:#ffffff;fill-opacity:1;stroke:none;display:inline" />
    <path
       d="M 254.49939,1141.3636 C 251.47433,1141.3636 248.99824,1138.8875 248.99824,1135.8624 C 248.99824,1132.8374 251.47433,1130.3613 254.49939,1130.3613 C 257.52445,1130.3613 260.00054,1132.8374 260.00054,1135.8624 C 260.00054,1138.8875 257.52445,1141.3636 254.49939,1141.3636 z M 254.49939,1139.3626 C 256.44233,1139.3626 257.99957,1137.8054 257.99957,1135.8624 C 257.99957,1133.9195 256.44233,1132.3623 254.49939,1132.3623 C 252.55646,1132.3623 250.99922,1133.9195 250.99922,1135.8624 C 250.99922,1137.8054 252.55646,1139.3626 254.49939,1139.3626 z"
       id="path6898"
       style="fill:#bebebe;fill-opacity:1;stroke:none;stroke-width:10.21377277;stroke-linecap:round;stroke-miterlimit:4;stroke-dasharray:none;stroke-dashoffset:0;stroke-opacity:1;display:inline" />
    <path
       d="M 245.4994,1141.3636 C 242.47434,1141.3636 239.99825,1138.8875 239.99825,1135.8624 C 239.99825,1132.8374 242.47434,1130.3613 245.4994,1130.3613 C 248.52446,1130.3613 251.00055,1132.8374 251.00055,1135.8624 C 251.00055,1138.8875 248.52446,1141.3636 245.4994,1141.3636 z M 245.4994,1139.3626 C 247.44234,1139.3626 248.99958,1137.8054 248.99958,1135.8624 C 248.99958,1133.9195 247.44234,1132.3623 245.4994,1132.3623 C 243.55647,1132.3623 241.99923,1133.9195 241.99923,1135.8624 C 241.99923,1137.8054 243.55647,1139.3626 245.4994,1139.3626 z"
       id="path6900"
       style="fill:#bebebe;fill-opacity:1;stroke:none;stroke-width:10.21377277;stroke-linecap:round;stroke-miterlimit:4;stroke-dasharray:none;stroke-dashoffset:0;stroke-opacity:1;display:inline" />
    <path
       d="M 241.98503,1143.2266 C 241.4239,1143.2187 240.97552,1142.7722 240.98333,1142.229 C 240.98333,1140.6663 242.31371,1139.3785 243.92811,1139.3785 C 244.29773,1139.3687 244.64367,1139.554 244.83145,1139.8624 C 245.01922,1140.1707 245.01922,1140.5534 244.83145,1140.8618 C 244.64367,1141.1701 244.29773,1141.3554 243.92811,1141.3457 C 243.41358,1141.3457 243.01557,1141.7309 243.01557,1142.229 C 243.01939,1142.4947 242.91204,1142.7506 242.71794,1142.9385 C 242.52384,1143.1263 242.25949,1143.2303 241.98503,1143.2266 z"
       id="path6874-3"
       style="fill:#bebebe;fill-opacity:1;stroke:none;stroke-width:24.22530937;stroke-linecap:round;stroke-miterlimit:4;stroke-dasharray:none;stroke-dashoffset:0;stroke-opacity:1;display:inline" />
    <path
       d="M 258.01495,1143.2266 C 258.57608,1143.2187 259.02446,1142.7722 259.01665,1142.229 C 259.01665,1140.6663 257.68627,1139.3785 256.07187,1139.3785 C 255.70225,1139.3687 255.35631,1139.554 255.16853,1139.8624 C 254.98076,1140.1707 254.98076,1140.5534 255.16853,1140.8618 C 255.35631,1141.1701 255.70225,1141.3554 256.07187,1141.3457 C 256.5864,1141.3457 256.98441,1141.7309 256.98441,1142.229 C 256.98059,1142.4947 257.08794,1142.7506 257.28204,1142.9385 C 257.47614,1143.1263 257.74049,1143.2303 258.01495,1143.2266 z"
       id="path6888-3"
       style="fill:#bebebe;fill-opacity:1;stroke:none;stroke-width:24.22530937;stroke-linecap:round;stroke-miterlimit:4;stroke-dasharray:none;stroke-dashoffset:0;stroke-opacity:1;display:inline" />
    <path
       d="M 254.8125,1139.375 C 254.26022,1139.4268 253.85447,1139.9165 253.90625,1140.4688 C 253.95803,1141.021 254.44772,1141.4268 255,1141.375 L 256,1141.375 C 256.36064,1141.3801 256.69608,1141.1906 256.87789,1140.8791 C 257.05969,1140.5676 257.05969,1140.1824 256.87789,1139.8709 C 256.69608,1139.5594 256.36064,1139.3699 256,1139.375 L 255,1139.375 C 254.93764,1139.3691 254.87486,1139.3691 254.8125,1139.375 z"
       id="path8558"
       style="fill:#bebebe;fill-opacity:1;stroke:none;stroke-width:2;stroke-linecap:round;stroke-linejoin:round;marker:none;stroke-miterlimit:4;stroke-dasharray:none;stroke-dashoffset:0;stroke-opacity:1;visibility:visible;display:inline;overflow:visible;enable-background:accumulate" />
    <path
       d="M 243.90625,1139.375 C 243.54561,1139.3699 243.21017,1139.5594 243.02836,1139.8709 C 242.84656,1140.1824 242.84656,1140.5676 243.02836,1140.8791 C 243.21017,1141.1906 243.54561,1141.3801 243.90625,1141.375 L 245,1141.375 C 245.36064,1141.3801 245.69608,1141.1906 245.87789,1140.8791 C 246.05969,1140.5676 246.05969,1140.1824 245.87789,1139.8709 C 245.69608,1139.5594 245.36064,1139.3699 245,1139.375 L 243.90625,1139.375 z"
       id="path8560"
       style="fill:#bebebe;fill-opacity:1;stroke:none;stroke-width:2;stroke-linecap:round;stroke-linejoin:round;marker:none;stroke-miterlimit:4;stroke-dasharray:none;stroke-dashoffset:0;stroke-opacity:1;visibility:visible;display:inline;overflow:visible;enable-background:accumulate" />
    <path
       d="M 262.78125,1138.375 C 262.68161,1138.4019 262.58674,1138.4441 262.5,1138.5 L 257.5,1141.5 C 257.14996,1141.6558 256.91973,1141.998 256.90721,1142.381 C 256.89469,1142.7639 257.10208,1143.1204 257.44119,1143.2987 C 257.7803,1143.4771 258.19152,1143.4461 258.5,1143.2188 L 262,1141.125 L 262,1147.5938 L 258.5,1145.5 C 258.1892,1145.3206 257.80611,1145.3215 257.49614,1145.5023 C 257.18617,1145.6831 256.99683,1146.0162 257,1146.375 L 257,1147.375 L 243,1147.375 L 243,1142.1875 C 243.0051,1141.8269 242.81562,1141.4914 242.50413,1141.3096 C 242.19263,1141.1278 241.80737,1141.1278 241.49587,1141.3096 C 241.18438,1141.4914 240.9949,1141.8269 241,1142.1875 L 241,1148.375 C 241.00006,1148.9273 241.44774,1149.3749 242,1149.375 L 258,1149.375 C 258.55226,1149.3749 258.99994,1148.9273 259,1148.375 L 259,1148.125 L 262.5,1150.2188 C 262.80599,1150.3955 263.18251,1150.3976 263.49048,1150.2244 C 263.79845,1150.0512 263.99214,1149.7283 264,1149.375 L 264,1139.375 C 264.00744,1139.0671 263.87264,1138.773 263.63457,1138.5777 C 263.39651,1138.3824 263.08173,1138.3076 262.78125,1138.375 L 262.78125,1138.375 z"
       id="path8562"
       style="fill:#bebebe;fill-opacity:1;stroke:none;stroke-width:2;stroke-linecap:round;stroke-linejoin:round;marker:none;stroke-miterlimit:4;stroke-dasharray:none;stroke-dashoffset:0;stroke-opacity:1;visibility:visible;display:inline;overflow:visible;enable-background:accumulate" />
  </g>
  <g
     transform="translate(-240,-175)"
     id="layer4" />
  <g
     transform="translate(-240,-175)"
     id="layer9" />
  <g
     transform="translate(-240,-175)"
     id="layer6" />
</svg>
