<?xml version="1.0" encoding="UTF-8" standalone="no"?>
<!-- Created with Inkscape (http://www.inkscape.org/) -->
<svg
   xmlns:svg="http://www.w3.org/2000/svg"
   xmlns="http://www.w3.org/2000/svg"
   version="1.0"
   width="24.000017"
   height="24"
   id="svg7384">
  <defs
     id="defs7386" />
  <g
     transform="translate(-268.07158,-173.99993)"
     id="layer3" />
  <g
     transform="translate(-268.07158,-173.99993)"
     id="layer5" />
  <g
     transform="translate(-268.07158,-173.99993)"
     id="layer7" />
  <g
     transform="translate(-268.07158,-173.99993)"
     id="layer2" />
  <g
     transform="translate(-268.07158,-173.99993)"
     id="layer8" />
  <g
     transform="translate(-268.07158,-1126.3621)"
     id="layer1">
    <rect
       width="24"
       height="24"
       x="268.07159"
       y="1126.3621"
       id="rect12482"
       style="opacity:0;fill:#ffffff;fill-opacity:1;stroke:none;display:inline" />
    <path
       d="M 269.05666,1135.2266 C 268.49553,1135.2187 268.04715,1134.7722 268.05496,1134.229 C 268.05496,1132.6663 269.38534,1131.3785 270.99974,1131.3785 C 271.36936,1131.3687 271.7153,1131.554 271.90308,1131.8624 C 272.09085,1132.1707 272.09085,1132.5534 271.90308,1132.8618 C 271.7153,1133.1701 271.36936,1133.3554 270.99974,1133.3457 C 270.48521,1133.3457 270.0872,1133.7309 270.0872,1134.229 C 270.09102,1134.4947 269.98367,1134.7506 269.78957,1134.9385 C 269.59547,1135.1263 269.33112,1135.2303 269.05666,1135.2266 z"
       id="path2874-9"
       style="fill:#bebebe;fill-opacity:1;stroke:none;stroke-width:24.22530937;stroke-linecap:round;stroke-miterlimit:4;stroke-dasharray:none;stroke-dashoffset:0;stroke-opacity:1;display:inline" />
    <path
       d="M 269.06576,1143.4978 C 268.50463,1143.5057 268.05625,1143.9522 268.06406,1144.4954 C 268.06406,1146.0581 269.39444,1147.3459 271.00884,1147.3459 C 271.37846,1147.3557 271.7244,1147.1704 271.91218,1146.862 C 272.09995,1146.5537 272.09995,1146.171 271.91218,1145.8626 C 271.7244,1145.5543 271.37846,1145.369 271.00884,1145.3787 C 270.49431,1145.3787 270.0963,1144.9935 270.0963,1144.4954 C 270.10012,1144.2297 269.99277,1143.9738 269.79867,1143.7859 C 269.60457,1143.5981 269.34022,1143.4941 269.06576,1143.4978 z"
       id="path2876-2"
       style="fill:#bebebe;fill-opacity:1;stroke:none;stroke-width:24.22530937;stroke-linecap:round;stroke-miterlimit:4;stroke-dasharray:none;stroke-dashoffset:0;stroke-opacity:1;display:inline" />
    <path
       d="M 276.05666,1133.2266 C 275.49553,1133.2187 275.04715,1132.7722 275.05496,1132.229 C 275.05496,1130.6663 276.38534,1129.3785 277.99974,1129.3785 C 278.36936,1129.3687 278.7153,1129.554 278.90308,1129.8624 C 279.09085,1130.1707 279.09085,1130.5534 278.90308,1130.8618 C 278.7153,1131.1701 278.36936,1131.3554 277.99974,1131.3457 C 277.48521,1131.3457 277.0872,1131.7309 277.0872,1132.229 C 277.09102,1132.4947 276.98367,1132.7506 276.78957,1132.9385 C 276.59547,1133.1263 276.33112,1133.2303 276.05666,1133.2266 z"
       id="path2874-0-9"
       style="fill:#bebebe;fill-opacity:1;stroke:none;stroke-width:24.22530937;stroke-linecap:round;stroke-miterlimit:4;stroke-dasharray:none;stroke-dashoffset:0;stroke-opacity:1;display:inline" />
    <path
       d="M 285.08656,1133.2266 C 285.64769,1133.2187 286.09607,1132.7722 286.08826,1132.229 C 286.08826,1130.6663 284.75788,1129.3785 283.14348,1129.3785 C 282.77386,1129.3687 282.42792,1129.554 282.24014,1129.8624 C 282.05237,1130.1707 282.05237,1130.5534 282.24014,1130.8618 C 282.42792,1131.1701 282.77386,1131.3554 283.14348,1131.3457 C 283.65801,1131.3457 284.05602,1131.7309 284.05602,1132.229 C 284.0522,1132.4947 284.15955,1132.7506 284.35365,1132.9385 C 284.54775,1133.1263 284.8121,1133.2303 285.08656,1133.2266 z"
       id="path2922-8"
       style="fill:#bebebe;fill-opacity:1;stroke:none;stroke-width:24.22530937;stroke-linecap:round;stroke-miterlimit:4;stroke-dasharray:none;stroke-dashoffset:0;stroke-opacity:1;display:inline" />
    <path
       d="M 291.08656,1135.2266 C 291.64769,1135.2187 292.09607,1134.7722 292.08826,1134.229 C 292.08826,1132.6663 290.75788,1131.3785 289.14348,1131.3785 C 288.77386,1131.3687 288.42792,1131.554 288.24014,1131.8624 C 288.05237,1132.1707 288.05237,1132.5534 288.24014,1132.8618 C 288.42792,1133.1701 288.77386,1133.3554 289.14348,1133.3457 C 289.65801,1133.3457 290.05602,1133.7309 290.05602,1134.229 C 290.0522,1134.4947 290.15955,1134.7506 290.35365,1134.9385 C 290.54775,1135.1263 290.8121,1135.2303 291.08656,1135.2266 z"
       id="path2988-1"
       style="fill:#bebebe;fill-opacity:1;stroke:none;stroke-width:24.22530937;stroke-linecap:round;stroke-miterlimit:4;stroke-dasharray:none;stroke-dashoffset:0;stroke-opacity:1;display:inline" />
    <path
       d="M 280.57073,1148.3579 C 276.44167,1148.3579 273.0754,1144.9917 273.0754,1140.8626 C 273.0754,1136.7336 276.44167,1133.3584 280.57073,1133.3584 C 284.6998,1133.3584 288.0749,1136.7336 288.0749,1140.8626 C 288.0749,1144.9917 284.6998,1148.3579 280.57073,1148.3579 z M 280.57073,1146.3604 C 283.61767,1146.3604 286.06849,1143.9096 286.06849,1140.8626 C 286.06849,1137.8157 283.61767,1135.3649 280.57073,1135.3649 C 277.5238,1135.3649 275.07298,1137.8157 275.07298,1140.8626 C 275.07298,1143.9096 277.5238,1146.3604 280.57073,1146.3604 z"
       id="path10408-2"
       style="fill:#bebebe;fill-opacity:1;stroke:none;stroke-width:7.07106781;stroke-linecap:round;stroke-miterlimit:4;stroke-dasharray:none;stroke-dashoffset:0;stroke-opacity:1;display:inline" />
    <path
       d="M 291.08656,1143.4978 C 291.64769,1143.5057 292.09607,1143.9522 292.08826,1144.4954 C 292.08826,1146.0581 290.75788,1147.3459 289.14348,1147.3459 C 288.77386,1147.3557 288.42792,1147.1704 288.24014,1146.862 C 288.05237,1146.5537 288.05237,1146.171 288.24014,1145.8626 C 288.42792,1145.5543 288.77386,1145.369 289.14348,1145.3787 C 289.65801,1145.3787 290.05602,1144.9935 290.05602,1144.4954 C 290.0522,1144.2297 290.15955,1143.9738 290.35365,1143.7859 C 290.54775,1143.5981 290.8121,1143.4941 291.08656,1143.4978 z"
       id="path12488"
       style="fill:#bebebe;fill-opacity:1;stroke:none;stroke-width:24.22530937;stroke-linecap:round;stroke-miterlimit:4;stroke-dasharray:none;stroke-dashoffset:0;stroke-opacity:1;display:inline" />
    <path
       d="M 270.875,1145.375 C 270.32272,1145.4268 269.91697,1145.9165 269.96875,1146.4688 C 270.02053,1147.021 270.51022,1147.4268 271.0625,1147.375 L 273.0625,1147.375 C 273.42314,1147.3801 273.75858,1147.1906 273.94039,1146.8791 C 274.12219,1146.5676 274.12219,1146.1824 273.94039,1145.8709 C 273.75858,1145.5594 273.42314,1145.3699 273.0625,1145.375 L 271.0625,1145.375 C 271.00014,1145.3691 270.93736,1145.3691 270.875,1145.375 z"
       id="path7624"
       style="fill:#bebebe;fill-opacity:1;stroke:none;stroke-width:2;stroke-linecap:round;stroke-linejoin:round;marker:none;stroke-miterlimit:4;stroke-dasharray:none;stroke-dashoffset:0;stroke-opacity:1;visibility:visible;display:inline;overflow:visible;enable-background:accumulate" />
    <path
       d="M 268.96875,1133.3438 C 268.44119,1133.3932 268.04372,1133.8455 268.0625,1134.375 L 268.0625,1144.3438 C 268.0574,1144.7044 268.24688,1145.0399 268.55837,1145.2217 C 268.86987,1145.4035 269.25513,1145.4035 269.56663,1145.2217 C 269.87812,1145.0399 270.0676,1144.7044 270.0625,1144.3438 L 270.0625,1134.375 C 270.07273,1134.0873 269.95853,1133.8092 269.7491,1133.6118 C 269.53966,1133.4143 269.25531,1133.3167 268.96875,1133.3438 L 268.96875,1133.3438 z"
       id="path7626"
       style="fill:#bebebe;fill-opacity:1;stroke:none;stroke-width:2;stroke-linecap:round;stroke-linejoin:round;marker:none;stroke-miterlimit:4;stroke-dasharray:none;stroke-dashoffset:0;stroke-opacity:1;visibility:visible;display:inline;overflow:visible;enable-background:accumulate" />
    <path
       d="M 270.875,1131.375 C 270.32272,1131.4268 269.91697,1131.9165 269.96875,1132.4688 C 270.02053,1133.021 270.51022,1133.4268 271.0625,1133.375 L 276.0625,1133.375 C 276.42314,1133.3801 276.75858,1133.1906 276.94039,1132.8791 C 277.12219,1132.5676 277.12219,1132.1824 276.94039,1131.8709 C 276.75858,1131.5594 276.42314,1131.3699 276.0625,1131.375 L 271.0625,1131.375 C 271.00014,1131.3691 270.93736,1131.3691 270.875,1131.375 z"
       id="path7628"
       style="fill:#bebebe;fill-opacity:1;stroke:none;stroke-width:2;stroke-linecap:round;stroke-linejoin:round;marker:none;stroke-miterlimit:4;stroke-dasharray:none;stroke-dashoffset:0;stroke-opacity:1;visibility:visible;display:inline;overflow:visible;enable-background:accumulate" />
    <path
       d="M 277.875,1129.375 C 277.32272,1129.4268 276.91697,1129.9165 276.96875,1130.4688 C 277.02053,1131.021 277.51022,1131.4268 278.0625,1131.375 L 283.0625,1131.375 C 283.42314,1131.3801 283.75858,1131.1906 283.94039,1130.8791 C 284.12219,1130.5676 284.12219,1130.1824 283.94039,1129.8709 C 283.75858,1129.5594 283.42314,1129.3699 283.0625,1129.375 L 278.0625,1129.375 C 278.00014,1129.3691 277.93736,1129.3691 277.875,1129.375 z"
       id="path7630"
       style="fill:#bebebe;fill-opacity:1;stroke:none;stroke-width:2;stroke-linecap:round;stroke-linejoin:round;marker:none;stroke-miterlimit:4;stroke-dasharray:none;stroke-dashoffset:0;stroke-opacity:1;visibility:visible;display:inline;overflow:visible;enable-background:accumulate" />
    <path
       d="M 284.875,1131.375 C 284.32272,1131.4268 283.91697,1131.9165 283.96875,1132.4688 C 284.02053,1133.021 284.51022,1133.4268 285.0625,1133.375 L 289.0625,1133.375 C 289.42314,1133.3801 289.75858,1133.1906 289.94039,1132.8791 C 290.12219,1132.5676 290.12219,1132.1824 289.94039,1131.8709 C 289.75858,1131.5594 289.42314,1131.3699 289.0625,1131.375 L 285.0625,1131.375 C 285.00014,1131.3691 284.93736,1131.3691 284.875,1131.375 z"
       id="path7632"
       style="fill:#bebebe;fill-opacity:1;stroke:none;stroke-width:2;stroke-linecap:round;stroke-linejoin:round;marker:none;stroke-miterlimit:4;stroke-dasharray:none;stroke-dashoffset:0;stroke-opacity:1;visibility:visible;display:inline;overflow:visible;enable-background:accumulate" />
    <path
       d="M 290.96875,1133.1875 C 290.44115,1133.2369 290.04366,1133.6892 290.0625,1134.2188 L 290.0625,1144.375 C 290.0574,1144.7356 290.24688,1145.0711 290.55837,1145.2529 C 290.86987,1145.4347 291.25513,1145.4347 291.56663,1145.2529 C 291.87812,1145.0711 292.0676,1144.7356 292.0625,1144.375 L 292.0625,1134.2188 C 292.07276,1133.9311 291.95857,1133.653 291.74913,1133.4555 C 291.5397,1133.258 291.25533,1133.1604 290.96875,1133.1875 L 290.96875,1133.1875 z"
       id="path7634"
       style="fill:#bebebe;fill-opacity:1;stroke:none;stroke-width:2;stroke-linecap:round;stroke-linejoin:round;stroke-miterlimit:4;stroke-dasharray:none;stroke-opacity:1" />
    <path
       d="M 287.875,1145.4062 C 287.32272,1145.458 286.91697,1145.9477 286.96875,1146.5 C 287.02053,1147.0522 287.51022,1147.458 288.0625,1147.4062 L 289.125,1147.4062 C 289.48564,1147.4113 289.82108,1147.2218 290.00289,1146.9103 C 290.18469,1146.5988 290.18469,1146.2136 290.00289,1145.9021 C 289.82108,1145.5906 289.48564,1145.4011 289.125,1145.4062 L 288.0625,1145.4062 C 288.00014,1145.4003 287.93736,1145.4003 287.875,1145.4062 z"
       id="path7636"
       style="fill:#bebebe;fill-opacity:1;stroke:none;stroke-width:2;stroke-linecap:round;stroke-linejoin:round;marker:none;stroke-miterlimit:4;stroke-dasharray:none;stroke-dashoffset:0;stroke-opacity:1;visibility:visible;display:inline;overflow:visible;enable-background:accumulate" />
    <path
       d="M 280.5,1136.3622 C 278.01471,1136.3622 276,1138.3769 276,1140.8622 C 276,1143.3475 278.01471,1145.3622 280.5,1145.3622 C 282.98529,1145.3622 285,1143.3475 285,1140.8622 C 285,1138.3769 282.98529,1136.3622 280.5,1136.3622 z M 279.79688,1137.8153 C 281.05245,1137.8153 282.04688,1138.8566 282.04688,1140.1122 C 282.04688,1141.3677 281.05245,1142.3622 279.79688,1142.3622 C 278.5413,1142.3622 277.5,1141.3677 277.5,1140.1122 C 277.5,1138.8566 278.5413,1137.8153 279.79688,1137.8153 z"
       id="path10886-0"
       style="fill:#bebebe;fill-opacity:1;stroke:none;display:inline" />
  </g>
  <g
     transform="translate(-268.07158,-173.99993)"
     id="layer4" />
  <g
     transform="translate(-268.07158,-173.99993)"
     id="layer9" />
  <g
     transform="translate(-268.07158,-173.99993)"
     id="layer6" />
</svg>
