<?xml version="1.0" encoding="UTF-8" standalone="no"?>
<!-- Created with Inkscape (http://www.inkscape.org/) -->
<svg
   xmlns:svg="http://www.w3.org/2000/svg"
   xmlns="http://www.w3.org/2000/svg"
   version="1.0"
   width="24.03459"
   height="24"
   id="svg7384">
  <defs
     id="defs7386" />
  <g
     transform="translate(-382.00642,-175)"
     id="layer3" />
  <g
     transform="translate(-382.00642,-175)"
     id="layer5" />
  <g
     transform="translate(-382.00642,-175)"
     id="layer7" />
  <g
     transform="translate(-382.00642,-175)"
     id="layer2" />
  <g
     transform="translate(-382.00642,-175)"
     id="layer8" />
  <g
     transform="translate(-382.00642,-1127.3622)"
     id="layer1">
    <rect
       width="24"
       height="24"
       x="-406.03076"
       y="1127.3622"
       transform="scale(-1,1)"
       id="rect13226-7"
       style="opacity:0;fill:#ffffff;fill-opacity:1;stroke:none;display:inline" />
    <path
       d="M 385,1129.3438 C 384.44774,1129.3439 384.00006,1129.7915 384,1130.3438 L 384.03125,1143.375 L 383,1143.375 C 382.44774,1143.3751 382.00006,1143.8227 382,1144.375 L 382,1148.375 C 382.00006,1148.9273 382.44774,1149.3749 383,1149.375 L 405.03125,1149.375 C 405.58351,1149.3749 406.03119,1148.9273 406.03125,1148.375 L 406.03125,1144.375 C 406.03119,1143.8227 405.58351,1143.3751 405.03125,1143.375 L 404,1143.375 L 404,1130.3438 C 403.99994,1129.7915 403.55226,1129.3439 403,1129.3438 L 385,1129.3438 z M 386,1131.3438 L 402,1131.3438 L 402,1144.375 C 402.00006,1144.9273 402.44774,1145.3749 403,1145.375 L 404.03125,1145.375 L 404.03125,1147.375 L 384,1147.375 L 384,1145.375 L 385.03125,1145.375 C 385.30195,1145.3751 385.56114,1145.2655 385.74959,1145.0711 C 385.93804,1144.8768 386.03967,1144.6144 386.03125,1144.3438 L 386,1131.3438 z"
       id="path10147"
       style="fill:#bebebe;fill-opacity:1;stroke:none;stroke-width:2;stroke-linecap:round;stroke-linejoin:round;stroke-miterlimit:4;stroke-dasharray:none;stroke-opacity:1" />
    <path
       d="M 388.03125,1133.4062 L 388.03125,1134.375 L 388.03125,1142.375 L 388.03125,1143.375 L 389,1143.375 L 399.03125,1143.375 L 400.03125,1143.375 L 400.03125,1142.375 L 400.03125,1134.375 L 400.03125,1133.4062 L 399.03125,1133.4062 L 389,1133.4062 L 388.03125,1133.4062 z M 390,1135.375 L 398.03125,1135.375 L 398.03125,1141.4062 L 390,1141.4062 L 390,1135.375 z"
       id="rect10197"
       style="fill:#bebebe;fill-opacity:1;stroke:none;stroke-width:1.98964918;stroke-linecap:butt;stroke-linejoin:miter;marker:none;stroke-miterlimit:4;stroke-dasharray:none;stroke-dashoffset:0;stroke-opacity:1;visibility:visible;display:inline;overflow:visible;enable-background:accumulate" />
  </g>
  <g
     transform="translate(-382.00642,-175)"
     id="layer4" />
  <g
     transform="translate(-382.00642,-175)"
     id="layer9" />
  <g
     transform="translate(-382.00642,-175)"
     id="layer6" />
</svg>
