<?xml version="1.0" encoding="UTF-8" standalone="no"?>
<!-- Created with Inkscape (http://www.inkscape.org/) -->
<svg
   xmlns:svg="http://www.w3.org/2000/svg"
   xmlns="http://www.w3.org/2000/svg"
   version="1.0"
   width="24"
   height="24"
   id="svg7384">
  <defs
     id="defs7386" />
  <g
     transform="translate(-298.07158,-201.99993)"
     id="layer3" />
  <g
     transform="translate(-298.07158,-201.99993)"
     id="layer5" />
  <g
     transform="translate(-298.07158,-201.99993)"
     id="layer7" />
  <g
     transform="translate(-298.07158,-201.99993)"
     id="layer2" />
  <g
     transform="translate(-298.07158,-201.99993)"
     id="layer8" />
  <g
     transform="translate(-298.07158,-1154.3621)"
     id="layer1">
    <rect
       width="24"
       height="24"
       x="298.07159"
       y="1154.3621"
       id="rect10459"
       style="opacity:0;fill:#ffffff;fill-opacity:1;stroke:none;display:inline" />
    <path
       d="M 303.125,1156.375 C 301.41105,1156.375 300,1157.786 300,1159.5 L 300,1173.25 C 300,1174.964 301.41105,1176.375 303.125,1176.375 L 316.875,1176.375 C 318.58895,1176.375 320,1174.964 320,1173.25 L 320,1159.5 C 320,1157.786 318.58895,1156.375 316.875,1156.375 L 303.125,1156.375 z M 303.125,1158.375 L 316.875,1158.375 C 317.51555,1158.375 318,1158.8595 318,1159.5 L 318,1173.25 C 318,1173.8905 317.51555,1174.375 316.875,1174.375 L 303.125,1174.375 C 302.48445,1174.375 302,1173.8905 302,1173.25 L 302,1159.5 C 302,1158.8595 302.48445,1158.375 303.125,1158.375 z"
       id="rect10461"
       style="fill:#bebebe;fill-opacity:1;fill-rule:nonzero;stroke:none;stroke-width:2;marker:none;stroke-miterlimit:4;stroke-dasharray:none;stroke-opacity:1;visibility:visible;display:inline;overflow:visible;enable-background:new" />
    <path
       d="M 304.4375,1169.3438 C 304.17364,1169.3764 303.98143,1169.6098 304,1169.875 L 304,1172.7188 C 303.99745,1172.8991 304.09219,1173.0668 304.24794,1173.1577 C 304.40369,1173.2486 304.59631,1173.2486 304.75206,1173.1577 C 304.90781,1173.0668 305.00255,1172.8991 305,1172.7188 L 305,1169.875 C 305.01056,1169.7255 304.95349,1169.5791 304.84452,1169.4762 C 304.73555,1169.3733 304.58616,1169.3247 304.4375,1169.3438 z"
       id="path10463"
       style="fill:#bebebe;fill-opacity:1;fill-rule:nonzero;stroke:none;stroke-width:1;stroke-linecap:round;stroke-linejoin:miter;marker:none;stroke-miterlimit:4;stroke-dasharray:none;stroke-dashoffset:0;stroke-opacity:1;visibility:visible;display:inline;overflow:visible;enable-background:new" />
    <path
       d="M 306.4375,1169.3438 C 306.17364,1169.3764 305.98143,1169.6098 306,1169.875 L 306,1172.7188 C 305.99745,1172.8991 306.09219,1173.0668 306.24794,1173.1577 C 306.40369,1173.2486 306.59631,1173.2486 306.75206,1173.1577 C 306.90781,1173.0668 307.00255,1172.8991 307,1172.7188 L 307,1169.875 C 307.01056,1169.7255 306.95349,1169.5791 306.84452,1169.4762 C 306.73555,1169.3733 306.58616,1169.3247 306.4375,1169.3438 z"
       id="path10467"
       style="fill:#bebebe;fill-opacity:1;fill-rule:nonzero;stroke:none;stroke-width:1;stroke-linecap:round;stroke-linejoin:miter;marker:none;stroke-miterlimit:4;stroke-dasharray:none;stroke-dashoffset:0;stroke-opacity:1;visibility:visible;display:inline;overflow:visible;enable-background:new" />
    <path
       d="M 308.4375,1169.3438 C 308.17364,1169.3764 307.98143,1169.6098 308,1169.875 L 308,1172.7188 C 307.99745,1172.8991 308.09219,1173.0668 308.24794,1173.1577 C 308.40369,1173.2486 308.59631,1173.2486 308.75206,1173.1577 C 308.90781,1173.0668 309.00255,1172.8991 309,1172.7188 L 309,1169.875 C 309.01056,1169.7255 308.95349,1169.5791 308.84452,1169.4762 C 308.73555,1169.3733 308.58616,1169.3247 308.4375,1169.3438 z"
       id="path10469"
       style="fill:#bebebe;fill-opacity:1;fill-rule:nonzero;stroke:none;stroke-width:1;stroke-linecap:round;stroke-linejoin:miter;marker:none;stroke-miterlimit:4;stroke-dasharray:none;stroke-dashoffset:0;stroke-opacity:1;visibility:visible;display:inline;overflow:visible;enable-background:new" />
    <path
       d="M 310.4375,1169.3438 C 310.17364,1169.3764 309.98143,1169.6098 310,1169.875 L 310,1172.7188 C 309.99745,1172.8991 310.09219,1173.0668 310.24794,1173.1577 C 310.40369,1173.2486 310.59631,1173.2486 310.75206,1173.1577 C 310.90781,1173.0668 311.00255,1172.8991 311,1172.7188 L 311,1169.875 C 311.01056,1169.7255 310.95349,1169.5791 310.84452,1169.4762 C 310.73555,1169.3733 310.58616,1169.3247 310.4375,1169.3438 z"
       id="path10471"
       style="fill:#bebebe;fill-opacity:1;fill-rule:nonzero;stroke:none;stroke-width:1;stroke-linecap:round;stroke-linejoin:miter;marker:none;stroke-miterlimit:4;stroke-dasharray:none;stroke-dashoffset:0;stroke-opacity:1;visibility:visible;display:inline;overflow:visible;enable-background:new" />
  </g>
  <g
     transform="translate(-298.07158,-201.99993)"
     id="layer4" />
  <g
     transform="translate(-298.07158,-201.99993)"
     id="layer9" />
  <g
     transform="translate(-298.07158,-201.99993)"
     id="layer6" />
</svg>
