<?xml version="1.0" encoding="UTF-8" standalone="no"?>
<!-- Created with Inkscape (http://www.inkscape.org/) -->
<svg
   xmlns:svg="http://www.w3.org/2000/svg"
   xmlns="http://www.w3.org/2000/svg"
   version="1.0"
   width="24"
   height="24.000921"
   id="svg7384">
  <defs
     id="defs7386" />
  <g
     transform="translate(-326.07158,-201.99993)"
     id="layer3" />
  <g
     transform="translate(-326.07158,-201.99993)"
     id="layer5" />
  <g
     transform="translate(-326.07158,-201.99993)"
     id="layer7" />
  <g
     transform="translate(-326.07158,-201.99993)"
     id="layer2" />
  <g
     transform="translate(-326.07158,-201.99993)"
     id="layer8" />
  <g
     transform="translate(-326.07158,-1154.3621)"
     id="layer1">
    <rect
       width="24"
       height="24"
       x="326.07159"
       y="1154.3621"
       id="rect10476"
       style="opacity:0;fill:#ffffff;fill-opacity:1;stroke:none;display:inline" />
    <path
       d="M 331.125,1156.375 C 329.41108,1156.375 328,1157.786 328,1159.5 L 328,1173.25 C 328,1174.9639 329.41101,1176.375 331.125,1176.375 L 331.125,1174.375 C 330.48449,1174.375 330,1173.8905 330,1173.25 L 330,1159.5 C 330,1158.8594 330.48442,1158.375 331.125,1158.375 L 344.875,1158.375 C 345.51558,1158.375 346,1158.8594 346,1159.5 L 346,1173.25 C 346,1173.8905 345.51552,1174.375 344.875,1174.375 L 344.875,1176.375 C 346.58898,1176.375 348,1174.9639 348,1173.25 L 348,1159.5 C 348,1157.786 346.58892,1156.375 344.875,1156.375 L 331.125,1156.375 z"
       id="rect10478"
       style="fill:#bebebe;fill-opacity:1;fill-rule:nonzero;stroke:none;stroke-width:2;marker:none;stroke-miterlimit:4;stroke-opacity:1;visibility:visible;display:inline;overflow:visible;enable-background:new" />
    <path
       d="M 331.71875,1170.375 C 331.16647,1170.4009 330.73974,1170.8696 330.76563,1171.4219 C 330.79151,1171.9742 331.26022,1172.4009 331.8125,1172.375 L 344.125,1172.375 C 344.48563,1172.3801 344.82108,1172.1906 345.00288,1171.8791 C 345.18469,1171.5676 345.18469,1171.1824 345.00288,1170.8709 C 344.82108,1170.5594 344.48563,1170.3699 344.125,1170.375 L 331.8125,1170.375 C 331.78127,1170.3735 331.74998,1170.3735 331.71875,1170.375 z"
       id="path8966"
       style="fill:#bebebe;fill-opacity:1;stroke:none;stroke-width:1.99999988;stroke-linecap:round;stroke-linejoin:round;stroke-miterlimit:4;stroke-dasharray:none;stroke-opacity:1;display:inline" />
    <path
       d="M 342.84751,1170.6257 C 342.53931,1170.6343 342.25149,1170.7738 342.06356,1171.0056 C 341.87563,1171.2375 341.80749,1171.5372 341.87796,1171.8219 C 342.35204,1173.8566 341.01257,1175.8485 338.86759,1176.2982 C 336.72261,1176.7479 334.62273,1175.4773 334.14864,1173.4426 C 334.08005,1173.1483 334.05372,1172.9338 334.05372,1172.6323 C 334.05372,1172.0942 333.59384,1171.6579 333.02654,1171.6579 C 332.45924,1171.6579 331.99935,1172.0942 331.99935,1172.6323 C 331.99935,1173.0539 332.04582,1173.449 332.14174,1173.8607 C 332.85561,1176.9245 336.07843,1178.8791 339.3083,1178.2019 C 342.53817,1177.5247 344.59874,1174.4677 343.88486,1171.4039 C 343.78466,1170.9397 343.34681,1170.6112 342.84751,1170.6257 L 342.84751,1170.6257 z"
       id="path3624-71-2"
       style="fill:#bebebe;fill-opacity:1;stroke:none;stroke-width:9.46474361;stroke-linecap:round;stroke-miterlimit:4;stroke-dasharray:none;stroke-dashoffset:0;stroke-opacity:1;display:inline" />
    <path
       d="M 337.98585,1170.3591 C 337.63673,1170.3591 337.296,1170.4521 336.99365,1170.6283 C 336.05005,1171.1782 335.72341,1172.411 336.2682,1173.3634 C 336.81299,1174.3158 338.03444,1174.6454 338.97804,1174.0956 C 339.92165,1173.5457 340.24829,1172.3129 339.7035,1171.3605 C 339.62003,1171.1948 339.45275,1171.0892 339.26862,1171.0859 C 339.08449,1171.0826 338.91361,1171.1822 338.82439,1171.3448 C 338.73517,1171.5074 338.7422,1171.7065 338.84265,1171.8623 C 339.11816,1172.3439 338.95813,1172.9486 338.48094,1173.2267 C 338.00374,1173.5048 337.40657,1173.3433 337.13106,1172.8616 C 336.85556,1172.38 337.01559,1171.7752 337.49278,1171.4972 C 337.66403,1171.3974 337.7881,1171.3646 337.98585,1171.3646 C 338.26095,1171.3646 338.48397,1171.1395 338.48397,1170.8618 C 338.48397,1170.5842 338.26095,1170.3591 337.98585,1170.3591 z"
       id="path8964"
       style="fill:#bebebe;fill-opacity:1;stroke:none;stroke-width:15.39302731;stroke-linecap:round;stroke-miterlimit:4;stroke-dasharray:none;stroke-dashoffset:0;stroke-opacity:1;display:inline" />
  </g>
  <g
     transform="translate(-326.07158,-201.99993)"
     id="layer4" />
  <g
     transform="translate(-326.07158,-201.99993)"
     id="layer9" />
  <g
     transform="translate(-326.07158,-201.99993)"
     id="layer6" />
</svg>
