<?xml version="1.0" encoding="UTF-8" standalone="no"?>
<!-- Created with Inkscape (http://www.inkscape.org/) -->
<svg
   xmlns:svg="http://www.w3.org/2000/svg"
   xmlns="http://www.w3.org/2000/svg"
   version="1.0"
   width="24.02787"
   height="24"
   id="svg7384">
  <defs
     id="defs7386" />
  <g
     transform="translate(-298,-175)"
     id="layer3" />
  <g
     transform="translate(-298,-175)"
     id="layer5" />
  <g
     transform="translate(-298,-175)"
     id="layer7" />
  <g
     transform="translate(-298,-175)"
     id="layer2" />
  <g
     transform="translate(-298,-175)"
     id="layer8" />
  <g
     transform="translate(-298,-1127.3622)"
     id="layer1">
    <rect
       width="24"
       height="24"
       x="298"
       y="1127.3622"
       id="rect12611"
       style="opacity:0;fill:#ffffff;fill-opacity:1;stroke:none;display:inline" />
    <path
       d="M 298.9879,1137.4772 C 298.71948,1137.4747 298.46309,1137.3678 298.27528,1137.18 C 298.08748,1136.9922 297.98369,1136.7389 297.98682,1136.4761 C 297.98682,1136.1792 298.00751,1135.9009 298.05072,1135.607 C 298.53936,1132.2837 301.71412,1129.956 305.10799,1130.4345 C 305.66087,1130.5113 306.0455,1131.0125 305.96707,1131.5538 C 305.88865,1132.0952 305.37688,1132.4719 304.82399,1132.3951 C 302.51251,1132.0692 300.38569,1133.6217 300.05288,1135.8851 C 300.02131,1136.0999 300.01028,1136.2591 300.01028,1136.4761 C 300.01346,1136.7425 299.90676,1136.999 299.71434,1137.1874 C 299.52191,1137.3759 299.26001,1137.4803 298.9879,1137.4772 z"
       id="path3579-0"
       style="fill:#bebebe;fill-opacity:1;stroke:none;stroke-width:8.89589977;stroke-linecap:round;stroke-miterlimit:4;stroke-dasharray:none;stroke-dashoffset:0;stroke-opacity:1;display:inline" />
    <path
       d="M 321.0121,1137.4772 C 321.28052,1137.4747 321.53691,1137.3678 321.72472,1137.18 C 321.91252,1136.9922 322.01631,1136.7389 322.01318,1136.4761 C 322.01318,1136.1818 321.99175,1135.9054 321.94928,1135.614 C 321.46485,1132.2901 318.29358,1129.9602 314.89911,1130.4345 C 314.34623,1130.5113 313.9616,1131.0125 314.04003,1131.5538 C 314.11845,1132.0952 314.63022,1132.4719 315.1831,1132.3951 C 317.495,1132.072 319.61718,1133.6282 319.94712,1135.8921 C 319.97815,1136.105 319.98972,1136.261 319.98972,1136.4761 C 319.98654,1136.7425 320.09324,1136.999 320.28566,1137.1874 C 320.47809,1137.3759 320.73999,1137.4803 321.0121,1137.4772 z"
       id="path2840-0-7"
       style="fill:#bebebe;fill-opacity:1;stroke:none;stroke-width:8.89589977;stroke-linecap:round;stroke-miterlimit:4;stroke-dasharray:none;stroke-dashoffset:0;stroke-opacity:1;display:inline" />
    <path
       d="M 304.50064,1140.3646 C 302.58039,1140.3646 301.00384,1138.7864 301.00384,1136.8641 C 301.00384,1134.9418 302.5804,1133.3601 304.50064,1133.3601 C 306.42089,1133.3601 308.00084,1134.9418 308.00084,1136.8641 C 308.00084,1138.7864 306.42089,1140.3646 304.50064,1140.3646 z M 304.50064,1138.3643 C 305.33934,1138.3643 305.99927,1137.7037 305.99927,1136.8641 C 305.99927,1136.0245 305.33934,1135.3638 304.50064,1135.3638 C 303.66195,1135.3638 303.00201,1136.0245 303.00201,1136.8641 C 303.00201,1137.7037 303.66195,1138.3643 304.50064,1138.3643 z"
       id="path3579-2-8"
       style="fill:#bebebe;fill-opacity:1;stroke:none;stroke-width:18.38202477;stroke-linecap:round;stroke-miterlimit:4;stroke-dasharray:none;stroke-dashoffset:0;stroke-opacity:1;display:inline" />
    <path
       d="M -2.8284264,179.43886 A 22.98097,22.98097 0 1 1 -48.790367,179.43886 A 22.98097,22.98097 0 1 1 -2.8284264,179.43886 z"
       transform="matrix(4.351419e-2,0,0,-4.351411e-2,317.12308,1147.1703)"
       id="path3579-2-3-5-6"
       style="fill:#bebebe;fill-opacity:1;stroke:none;display:inline" />
    <path
       d="M 321.02613,1143.3902 C 321.54481,1143.4084 321.96507,1143.8084 321.99846,1144.3155 C 322.11825,1145.7794 321.36826,1147.1756 320.06942,1147.9099 C 318.22312,1148.9537 315.83249,1148.326 314.76653,1146.518 C 314.57525,1146.2114 314.56868,1145.8274 314.74938,1145.5147 C 314.93008,1145.202 315.26965,1145.0098 315.63655,1145.0125 C 316.00345,1145.0152 316.34004,1145.2124 316.51594,1145.5277 C 317.03513,1146.4082 318.15879,1146.7052 319.05805,1146.1968 C 319.72935,1145.8173 320.04543,1145.2289 319.98352,1144.4723 C 319.95614,1144.1887 320.05491,1143.9073 320.25457,1143.7 C 320.45422,1143.4928 320.73539,1143.3799 321.02613,1143.3902 z"
       id="path3727-4"
       style="fill:#bebebe;fill-opacity:1;stroke:none;stroke-width:16.17436218;stroke-linecap:round;stroke-miterlimit:4;stroke-dasharray:none;stroke-dashoffset:0;stroke-opacity:1;display:inline" />
    <path
       d="M 309.62256,1139.2487 C 307.86092,1139.4124 306.18372,1140.6627 305.23861,1142.7885 C 304.99579,1143.3335 305.1392,1144.031 305.55892,1144.3463 C 305.97864,1144.6616 306.51573,1144.4754 306.75855,1143.9304 C 307.79594,1141.597 310.07426,1140.8051 311.87107,1142.1523 C 312.49149,1142.6175 312.88207,1143.1247 313.24027,1143.9304 C 313.48308,1144.4754 314.02017,1144.6616 314.43989,1144.3463 C 314.85961,1144.031 315.00302,1143.3335 314.76021,1142.7885 C 314.26855,1141.6826 313.60195,1140.817 312.75037,1140.1785 C 311.76818,1139.4421 310.67955,1139.1504 309.62256,1139.2487 z"
       id="path3731-0"
       style="fill:#bebebe;fill-opacity:1;stroke:none;stroke-width:8.73233986;stroke-linecap:round;stroke-miterlimit:4;stroke-dasharray:none;stroke-dashoffset:0;stroke-opacity:1;display:inline" />
    <path
       d="M 299.02907,1143.394 C 298.51039,1143.4122 298.09013,1143.8122 298.05674,1144.3194 C 297.9394,1145.7814 298.68879,1147.1766 299.98578,1147.9099 C 301.83208,1148.9537 304.22271,1148.326 305.28867,1146.518 C 305.47995,1146.2114 305.48652,1145.8274 305.30582,1145.5147 C 305.12512,1145.202 304.78555,1145.0098 304.41865,1145.0125 C 304.05175,1145.0152 303.71516,1145.2124 303.53926,1145.5277 C 303.02007,1146.4082 301.89641,1146.7052 300.99715,1146.1968 C 300.32668,1145.8178 300.01103,1145.2319 300.07168,1144.4761 C 300.09906,1144.1925 300.00029,1143.9111 299.80063,1143.7039 C 299.60098,1143.4967 299.31981,1143.3837 299.02907,1143.394 z"
       id="path3737-8"
       style="fill:#bebebe;fill-opacity:1;stroke:none;stroke-width:16.17436218;stroke-linecap:round;stroke-miterlimit:4;stroke-dasharray:none;stroke-dashoffset:0;stroke-opacity:1;display:inline" />
    <path
       d="M -2.8284264,179.43886 A 22.98097,22.98097 0 1 1 -48.790367,179.43886 A 22.98097,22.98097 0 1 1 -2.8284264,179.43886 z"
       transform="matrix(4.351419e-2,0,0,-4.351411e-2,319.12308,1145.1703)"
       id="path3579-2-3-5-6-6"
       style="fill:#bebebe;fill-opacity:1;stroke:none;display:inline" />
    <path
       d="M -2.8284264,179.43886 A 22.98097,22.98097 0 1 1 -48.790367,179.43886 A 22.98097,22.98097 0 1 1 -2.8284264,179.43886 z"
       transform="matrix(4.351419e-2,0,0,-4.351411e-2,317.12308,1143.1703)"
       id="path3579-2-3-5-6-3"
       style="fill:#bebebe;fill-opacity:1;stroke:none;display:inline" />
    <path
       d="M -2.8284264,179.43886 A 22.98097,22.98097 0 1 1 -48.790367,179.43886 A 22.98097,22.98097 0 1 1 -2.8284264,179.43886 z"
       transform="matrix(4.351419e-2,0,0,-4.351411e-2,315.12308,1145.1703)"
       id="path3579-2-3-5-6-9"
       style="fill:#bebebe;fill-opacity:1;stroke:none;display:inline" />
    <path
       d="M 320.8125,1135.4062 C 320.34687,1135.5105 320.01976,1135.9292 320.03125,1136.4062 L 320.03125,1144.375 C 320.02615,1144.7356 320.21563,1145.0711 320.52712,1145.2529 C 320.83862,1145.4347 321.22388,1145.4347 321.53538,1145.2529 C 321.84687,1145.0711 322.03635,1144.7356 322.03125,1144.375 L 322.03125,1136.4062 C 322.03869,1136.0983 321.90389,1135.8042 321.66582,1135.6089 C 321.42776,1135.4136 321.11298,1135.3388 320.8125,1135.4062 z"
       id="path8613"
       style="fill:#bebebe;fill-opacity:1;stroke:none;stroke-width:1.99999976;stroke-linecap:round;stroke-linejoin:miter;marker:none;stroke-miterlimit:4;stroke-dasharray:none;stroke-dashoffset:0;stroke-opacity:1;visibility:visible;display:inline;overflow:visible;enable-background:accumulate" />
    <path
       d="M 313.8125,1142.0312 C 313.45495,1142.0435 313.13123,1142.2459 312.96355,1142.562 C 312.79586,1142.878 312.80976,1143.2595 313,1143.5625 L 314.8125,1146.5625 C 315.09729,1147.0371 315.71291,1147.191 316.18752,1146.9062 C 316.66214,1146.6214 316.81604,1146.0058 316.53125,1145.5312 L 314.71875,1142.5312 C 314.53311,1142.209 314.18404,1142.0164 313.8125,1142.0312 z"
       id="path8615"
       style="fill:#bebebe;fill-opacity:1;stroke:none;stroke-width:1.99999976;stroke-linecap:round;stroke-linejoin:miter;marker:none;stroke-miterlimit:4;stroke-dasharray:none;stroke-dashoffset:0;stroke-opacity:1;visibility:visible;display:inline;overflow:visible;enable-background:accumulate" />
    <path
       d="M 305.96875,1142.125 C 305.67663,1142.1811 305.42465,1142.3644 305.28125,1142.625 L 303.53125,1145.5312 C 303.24646,1146.0058 303.40036,1146.6214 303.87497,1146.9062 C 304.34959,1147.191 304.96521,1147.0371 305.25,1146.5625 L 307,1143.625 C 307.20188,1143.2891 307.18894,1142.8662 306.96691,1142.5433 C 306.74488,1142.2203 306.35468,1142.0568 305.96875,1142.125 z"
       id="path8617"
       style="fill:#bebebe;fill-opacity:1;stroke:none;stroke-width:1.99999976;stroke-linecap:round;stroke-linejoin:round;marker:none;stroke-miterlimit:4;stroke-dasharray:none;stroke-dashoffset:0;stroke-opacity:1;visibility:visible;display:inline;overflow:visible;enable-background:accumulate" />
    <path
       d="M 298.875,1135.3438 C 298.3599,1135.4083 297.97983,1135.8563 298,1136.375 L 298.03125,1144.4688 C 298.02615,1144.8294 298.21563,1145.1649 298.52712,1145.3467 C 298.83862,1145.5285 299.22388,1145.5285 299.53538,1145.3467 C 299.84687,1145.1649 300.03635,1144.8294 300.03125,1144.4688 L 300,1136.375 C 300.01147,1136.0813 299.89313,1135.7974 299.67644,1135.5987 C 299.45974,1135.4001 299.16663,1135.3069 298.875,1135.3438 z"
       id="path8619"
       style="fill:#bebebe;fill-opacity:1;stroke:none;stroke-width:1.99999976;stroke-linecap:round;stroke-linejoin:miter;marker:none;stroke-miterlimit:4;stroke-dasharray:none;stroke-dashoffset:0;stroke-opacity:1;visibility:visible;display:inline;overflow:visible;enable-background:accumulate" />
    <path
       d="M 304.78677,1130.4043 C 304.34978,1130.4802 304.01501,1130.8349 303.96444,1131.2756 C 303.91388,1131.7162 304.15959,1132.1375 304.56802,1132.3105 C 308.14634,1133.832 311.89005,1133.8493 315.47427,1132.3418 C 315.98341,1132.126 316.22126,1131.5384 316.00552,1131.0293 C 315.78978,1130.5201 315.20216,1130.2823 314.69302,1130.498 C 311.55317,1131.8186 308.48395,1131.7996 305.34927,1130.4668 C 305.1717,1130.3922 304.97638,1130.3705 304.78677,1130.4043 z"
       id="path7553"
       style="fill:#bebebe;fill-opacity:1;stroke:none;stroke-width:2;stroke-linecap:round;stroke-linejoin:round;marker:none;stroke-miterlimit:4;stroke-dasharray:none;stroke-dashoffset:0;stroke-opacity:1;visibility:visible;display:inline;overflow:visible;enable-background:accumulate" />
  </g>
  <g
     transform="translate(-298,-175)"
     id="layer4" />
  <g
     transform="translate(-298,-175)"
     id="layer9" />
  <g
     transform="translate(-298,-175)"
     id="layer6" />
</svg>
