<?xml version="1.0" encoding="UTF-8" standalone="no"?>
<!-- Created with Inkscape (http://www.inkscape.org/) -->

<svg
   xmlns:svg="http://www.w3.org/2000/svg"
   xmlns="http://www.w3.org/2000/svg"
   version="1.1"
   width="24.02434"
   height="24"
   id="svg7384">
  <title
     id="title9167">Moblin Icon Theme</title>
  <defs
     id="defs7386" />
  <g
     transform="translate(-410.00004,-230)"
     id="layer3" />
  <g
     transform="translate(-410.00004,-230)"
     id="layer5" />
  <g
     transform="translate(-410.00004,-230)"
     id="layer7" />
  <g
     transform="translate(-410.00004,-230)"
     id="layer2" />
  <g
     transform="translate(-410.00004,-230)"
     id="layer8" />
  <g
     transform="translate(-410.00004,-1182.3622)"
     id="layer1">
    <rect
       width="24"
       height="24"
       x="-1206.3622"
       y="410.02438"
       transform="matrix(0,-1,1,0,0,0)"
       id="rect7909-1"
       style="opacity:0;fill:#ffffff;fill-opacity:1;stroke:none;display:inline" />
    <path
       d="m 413.25,1184.375 c -1.69855,0 -3.1875,1.2705 -3.1875,2.9688 l 0,12.125 c 0,1.6982 1.48895,2.9687 3.1875,2.9687 l 15.5625,0 c 1.69855,0 3.21875,-1.2705 3.21875,-2.9687 l 0,-12.125 c 0,-1.6983 -1.5202,-2.9688 -3.21875,-2.9688 l -15.5625,0 z m 0,2.0938 15.5625,0 c 0.688,0 1.125,0.4319 1.125,0.875 l 0,12.125 c 0,0.443 -0.437,0.875 -1.125,0.875 l -15.5625,0 c -0.688,0 -1.09375,-0.432 -1.09375,-0.875 l 0,-12.125 c 0,-0.4431 0.40575,-0.875 1.09375,-0.875 z"
       id="rect7921-7"
       style="font-size:medium;font-style:normal;font-variant:normal;font-weight:normal;font-stretch:normal;text-indent:0;text-align:start;text-decoration:none;line-height:normal;letter-spacing:normal;word-spacing:normal;text-transform:none;direction:ltr;block-progression:tb;writing-mode:lr-tb;text-anchor:start;color:#000000;fill:#bebebe;fill-opacity:1;stroke:none;stroke-width:2.09847474;marker:none;visibility:visible;display:inline;overflow:visible;enable-background:accumulate;font-family:Bitstream Vera Sans;-inkscape-font-specification:Bitstream Vera Sans" />
    <path
       d="m 410.84375,1196.25 a 1.052598,1.052598 0 1 0 0.21875,2.0938 l 19.84375,0 a 1.0495676,1.0495676 0 1 0 0,-2.0938 l -19.84375,0 a 1.0495676,1.0495676 0 0 0 -0.21875,0 z"
       id="path7923-8"
       style="font-size:medium;font-style:normal;font-variant:normal;font-weight:normal;font-stretch:normal;text-indent:0;text-align:start;text-decoration:none;line-height:normal;letter-spacing:normal;word-spacing:normal;text-transform:none;direction:ltr;block-progression:tb;writing-mode:lr-tb;text-anchor:start;color:#000000;fill:#bebebe;fill-opacity:1;stroke:none;stroke-width:2.09892535;marker:none;visibility:visible;display:inline;overflow:visible;enable-background:accumulate;font-family:Bitstream Vera Sans;-inkscape-font-specification:Bitstream Vera Sans" />
    <path
       d="m 420.90625,1196.2812 a 1.0001,1.0001 0 0 0 -0.875,1 l 0,4.0938 a 1.0001,1.0001 0 1 0 2,0 l 0,-4.0938 a 1.0001,1.0001 0 0 0 -1.125,-1 z"
       id="path7925-7"
       style="font-size:medium;font-style:normal;font-variant:normal;font-weight:normal;font-stretch:normal;text-indent:0;text-align:start;text-decoration:none;line-height:normal;letter-spacing:normal;word-spacing:normal;text-transform:none;direction:ltr;block-progression:tb;writing-mode:lr-tb;text-anchor:start;color:#000000;fill:#bebebe;fill-opacity:1;stroke:none;stroke-width:2;marker:none;visibility:visible;display:inline;overflow:visible;enable-background:accumulate;font-family:Bitstream Vera Sans;-inkscape-font-specification:Bitstream Vera Sans" />
  </g>
  <g
     transform="translate(-410.00004,-230)"
     id="layer11" />
  <g
     transform="translate(-410.00004,-230)"
     id="layer4" />
  <g
     transform="translate(-410.00004,-230)"
     id="layer12" />
  <g
     transform="translate(-410.00004,-230)"
     id="layer9" />
  <g
     transform="translate(-410.00004,-230)"
     id="layer10" />
  <g
     transform="translate(-410.00004,-230)"
     id="layer6" />
</svg>
