<?xml version="1.0" encoding="UTF-8" standalone="no"?>
<!-- Created with Inkscape (http://www.inkscape.org/) -->
<svg
   xmlns:svg="http://www.w3.org/2000/svg"
   xmlns="http://www.w3.org/2000/svg"
   version="1.0"
   width="24.02787"
   height="24"
   id="svg7384">
  <defs
     id="defs7386" />
  <g
     transform="translate(-298,-174)"
     id="layer3" />
  <g
     transform="translate(-298,-174)"
     id="layer5" />
  <g
     transform="translate(-298,-174)"
     id="layer7" />
  <g
     transform="translate(-298,-174)"
     id="layer2" />
  <g
     transform="translate(-298,-174)"
     id="layer8" />
  <g
     transform="translate(-298,-1126.3622)"
     id="layer1">
    <rect
       width="24"
       height="24"
       x="298"
       y="1126.3622"
       id="rect12611"
       style="opacity:0;fill:#ffffff;fill-opacity:1;stroke:none;display:inline" />
    <path
       d="M 298.9879,1136.4772 C 298.71948,1136.4747 298.46309,1136.3678 298.27528,1136.18 C 298.08748,1135.9922 297.98369,1135.7389 297.98682,1135.4761 C 297.98682,1135.1792 298.00751,1134.9009 298.05072,1134.607 C 298.53936,1131.2837 301.71412,1128.956 305.10799,1129.4345 C 305.66087,1129.5113 306.0455,1130.0125 305.96707,1130.5538 C 305.88865,1131.0952 305.37688,1131.4719 304.82399,1131.3951 C 302.51251,1131.0692 300.38569,1132.6217 300.05288,1134.8851 C 300.02131,1135.0999 300.01028,1135.2591 300.01028,1135.4761 C 300.01346,1135.7425 299.90676,1135.999 299.71434,1136.1874 C 299.52191,1136.3759 299.26001,1136.4803 298.9879,1136.4772 z"
       id="path3579-0"
       style="fill:#bebebe;fill-opacity:1;stroke:none;stroke-width:8.89589977;stroke-linecap:round;stroke-miterlimit:4;stroke-dasharray:none;stroke-dashoffset:0;stroke-opacity:1;display:inline" />
    <path
       d="M 321.0121,1136.4772 C 321.28052,1136.4747 321.53691,1136.3678 321.72472,1136.18 C 321.91252,1135.9922 322.01631,1135.7389 322.01318,1135.4761 C 322.01318,1135.1818 321.99175,1134.9054 321.94928,1134.614 C 321.46485,1131.2901 318.29358,1128.9602 314.89911,1129.4345 C 314.34623,1129.5113 313.9616,1130.0125 314.04003,1130.5538 C 314.11845,1131.0952 314.63022,1131.4719 315.1831,1131.3951 C 317.495,1131.072 319.61718,1132.6282 319.94712,1134.8921 C 319.97815,1135.105 319.98972,1135.261 319.98972,1135.4761 C 319.98654,1135.7425 320.09324,1135.999 320.28566,1136.1874 C 320.47809,1136.3759 320.73999,1136.4803 321.0121,1136.4772 z"
       id="path2840-0-7"
       style="fill:#bebebe;fill-opacity:1;stroke:none;stroke-width:8.89589977;stroke-linecap:round;stroke-miterlimit:4;stroke-dasharray:none;stroke-dashoffset:0;stroke-opacity:1;display:inline" />
    <path
       d="M 304.50071,1138.3674 C 303.12579,1138.3674 302.00014,1137.2405 302.00014,1135.8641 C 302.00014,1134.4876 303.12579,1133.3607 304.50071,1133.3607 C 305.87564,1133.3607 307.00129,1134.4876 307.00129,1135.8641 C 307.00129,1137.2405 305.87564,1138.3674 304.50071,1138.3674 z M 304.50071,1137.3677 C 305.33487,1137.3677 306.00269,1136.6991 306.00269,1135.8641 C 306.00269,1135.029 305.33487,1134.3604 304.50071,1134.3604 C 303.66656,1134.3604 302.99874,1135.029 302.99874,1135.8641 C 302.99874,1136.6991 303.66656,1137.3677 304.50071,1137.3677 z"
       id="path3579-2-8"
       style="fill:#bebebe;fill-opacity:1;stroke:none;stroke-width:11.47849751;stroke-linecap:round;stroke-miterlimit:4;stroke-dasharray:none;stroke-dashoffset:0;stroke-opacity:1;display:inline" />
    <path
       d="M -2.8284264,179.43886 A 22.98097,22.98097 0 1 1 -48.790367,179.43886 A 22.98097,22.98097 0 1 1 -2.8284264,179.43886 z"
       transform="matrix(4.351419e-2,0,0,-4.351411e-2,317.12308,1146.1703)"
       id="path3579-2-3-5-6"
       style="fill:#bebebe;fill-opacity:1;stroke:none;display:inline" />
    <path
       d="M 321.02613,1142.3902 C 321.54481,1142.4084 321.96507,1142.8084 321.99846,1143.3155 C 322.11825,1144.7794 321.36826,1146.1756 320.06942,1146.9099 C 318.22312,1147.9537 315.83249,1147.326 314.76653,1145.518 C 314.57525,1145.2114 314.56868,1144.8274 314.74938,1144.5147 C 314.93008,1144.202 315.26965,1144.0098 315.63655,1144.0125 C 316.00345,1144.0152 316.34004,1144.2124 316.51594,1144.5277 C 317.03513,1145.4082 318.15879,1145.7052 319.05805,1145.1968 C 319.72935,1144.8173 320.04543,1144.2289 319.98352,1143.4723 C 319.95614,1143.1887 320.05491,1142.9073 320.25457,1142.7 C 320.45422,1142.4928 320.73539,1142.3799 321.02613,1142.3902 z"
       id="path3727-4"
       style="fill:#bebebe;fill-opacity:1;stroke:none;stroke-width:16.17436218;stroke-linecap:round;stroke-miterlimit:4;stroke-dasharray:none;stroke-dashoffset:0;stroke-opacity:1;display:inline" />
    <path
       d="M 309.62256,1138.2487 C 307.86092,1138.4124 306.18372,1139.6627 305.23861,1141.7885 C 304.99579,1142.3335 305.1392,1143.031 305.55892,1143.3463 C 305.97864,1143.6616 306.51573,1143.4754 306.75855,1142.9304 C 307.79594,1140.597 310.07426,1139.8051 311.87107,1141.1523 C 312.49149,1141.6175 312.88207,1142.1247 313.24027,1142.9304 C 313.48308,1143.4754 314.02017,1143.6616 314.43989,1143.3463 C 314.85961,1143.031 315.00302,1142.3335 314.76021,1141.7885 C 314.26855,1140.6826 313.60195,1139.817 312.75037,1139.1785 C 311.76818,1138.4421 310.67955,1138.1504 309.62256,1138.2487 z"
       id="path3731-0"
       style="fill:#bebebe;fill-opacity:1;stroke:none;stroke-width:8.73233986;stroke-linecap:round;stroke-miterlimit:4;stroke-dasharray:none;stroke-dashoffset:0;stroke-opacity:1;display:inline" />
    <path
       d="M 299.02907,1142.394 C 298.51039,1142.4122 298.09013,1142.8122 298.05674,1143.3194 C 297.9394,1144.7814 298.68879,1146.1766 299.98578,1146.9099 C 301.83208,1147.9537 304.22271,1147.326 305.28867,1145.518 C 305.47995,1145.2114 305.48652,1144.8274 305.30582,1144.5147 C 305.12512,1144.202 304.78555,1144.0098 304.41865,1144.0125 C 304.05175,1144.0152 303.71516,1144.2124 303.53926,1144.5277 C 303.02007,1145.4082 301.89641,1145.7052 300.99715,1145.1968 C 300.32668,1144.8178 300.01103,1144.2319 300.07168,1143.4761 C 300.09906,1143.1925 300.00029,1142.9111 299.80063,1142.7039 C 299.60098,1142.4967 299.31981,1142.3837 299.02907,1142.394 z"
       id="path3737-8"
       style="fill:#bebebe;fill-opacity:1;stroke:none;stroke-width:16.17436218;stroke-linecap:round;stroke-miterlimit:4;stroke-dasharray:none;stroke-dashoffset:0;stroke-opacity:1;display:inline" />
    <path
       d="M -2.8284264,179.43886 A 22.98097,22.98097 0 1 1 -48.790367,179.43886 A 22.98097,22.98097 0 1 1 -2.8284264,179.43886 z"
       transform="matrix(4.351419e-2,0,0,-4.351411e-2,319.12308,1144.1703)"
       id="path3579-2-3-5-6-6"
       style="fill:#bebebe;fill-opacity:1;stroke:none;display:inline" />
    <path
       d="M -2.8284264,179.43886 A 22.98097,22.98097 0 1 1 -48.790367,179.43886 A 22.98097,22.98097 0 1 1 -2.8284264,179.43886 z"
       transform="matrix(4.351419e-2,0,0,-4.351411e-2,317.12308,1142.1703)"
       id="path3579-2-3-5-6-3"
       style="fill:#bebebe;fill-opacity:1;stroke:none;display:inline" />
    <path
       d="M -2.8284264,179.43886 A 22.98097,22.98097 0 1 1 -48.790367,179.43886 A 22.98097,22.98097 0 1 1 -2.8284264,179.43886 z"
       transform="matrix(4.351419e-2,0,0,-4.351411e-2,315.12308,1144.1703)"
       id="path3579-2-3-5-6-9"
       style="fill:#bebebe;fill-opacity:1;stroke:none;display:inline" />
    <path
       d="M 320.8125,1134.4062 C 320.34687,1134.5105 320.01976,1134.9292 320.03125,1135.4062 L 320.03125,1143.375 C 320.02615,1143.7356 320.21563,1144.0711 320.52712,1144.2529 C 320.83862,1144.4347 321.22388,1144.4347 321.53538,1144.2529 C 321.84687,1144.0711 322.03635,1143.7356 322.03125,1143.375 L 322.03125,1135.4062 C 322.03869,1135.0983 321.90389,1134.8042 321.66582,1134.6089 C 321.42776,1134.4136 321.11298,1134.3388 320.8125,1134.4062 L 320.8125,1134.4062 z"
       id="path8613"
       style="fill:#bebebe;fill-opacity:1;stroke:none;stroke-width:1.99999976;stroke-linecap:round;stroke-linejoin:miter;marker:none;stroke-miterlimit:4;stroke-dasharray:none;stroke-dashoffset:0;stroke-opacity:1;visibility:visible;display:inline;overflow:visible;enable-background:accumulate" />
    <path
       d="M 313.8125,1141.0312 C 313.45495,1141.0435 313.13123,1141.2459 312.96355,1141.562 C 312.79586,1141.878 312.80976,1142.2595 313,1142.5625 L 314.8125,1145.5625 C 315.09729,1146.0371 315.71291,1146.191 316.18752,1145.9062 C 316.66214,1145.6214 316.81604,1145.0058 316.53125,1144.5312 L 314.71875,1141.5312 C 314.53311,1141.209 314.18404,1141.0164 313.8125,1141.0312 L 313.8125,1141.0312 z"
       id="path8615"
       style="fill:#bebebe;fill-opacity:1;stroke:none;stroke-width:1.99999976;stroke-linecap:round;stroke-linejoin:miter;marker:none;stroke-miterlimit:4;stroke-dasharray:none;stroke-dashoffset:0;stroke-opacity:1;visibility:visible;display:inline;overflow:visible;enable-background:accumulate" />
    <path
       d="M 305.96875,1141.125 C 305.67663,1141.1811 305.42465,1141.3644 305.28125,1141.625 L 303.53125,1144.5312 C 303.24646,1145.0058 303.40036,1145.6214 303.87497,1145.9062 C 304.34959,1146.191 304.96521,1146.0371 305.25,1145.5625 L 307,1142.625 C 307.20188,1142.2891 307.18894,1141.8662 306.96691,1141.5433 C 306.74488,1141.2203 306.35468,1141.0568 305.96875,1141.125 L 305.96875,1141.125 z"
       id="path8617"
       style="fill:#bebebe;fill-opacity:1;stroke:none;stroke-width:1.99999976;stroke-linecap:round;stroke-linejoin:round;marker:none;stroke-miterlimit:4;stroke-dasharray:none;stroke-dashoffset:0;stroke-opacity:1;visibility:visible;display:inline;overflow:visible;enable-background:accumulate" />
    <path
       d="M 298.875,1134.3438 C 298.3599,1134.4083 297.97983,1134.8563 298,1135.375 L 298.03125,1143.4688 C 298.02615,1143.8294 298.21563,1144.1649 298.52712,1144.3467 C 298.83862,1144.5285 299.22388,1144.5285 299.53538,1144.3467 C 299.84687,1144.1649 300.03635,1143.8294 300.03125,1143.4688 L 300,1135.375 C 300.01147,1135.0813 299.89313,1134.7974 299.67644,1134.5987 C 299.45974,1134.4001 299.16663,1134.3069 298.875,1134.3438 z"
       id="path8619"
       style="fill:#bebebe;fill-opacity:1;stroke:none;stroke-width:1.99999976;stroke-linecap:round;stroke-linejoin:miter;marker:none;stroke-miterlimit:4;stroke-dasharray:none;stroke-dashoffset:0;stroke-opacity:1;visibility:visible;display:inline;overflow:visible;enable-background:accumulate" />
    <path
       d="M 304.78677,1129.4043 C 304.34978,1129.4802 304.01501,1129.8349 303.96444,1130.2756 C 303.91388,1130.7162 304.15959,1131.1375 304.56802,1131.3105 C 308.14634,1132.832 311.89005,1132.8493 315.47427,1131.3418 C 315.98341,1131.126 316.22126,1130.5384 316.00552,1130.0293 C 315.78978,1129.5201 315.20216,1129.2823 314.69302,1129.498 C 311.55317,1130.8186 308.48395,1130.7996 305.34927,1129.4668 C 305.1717,1129.3922 304.97638,1129.3705 304.78677,1129.4043 z"
       id="path7553"
       style="fill:#bebebe;fill-opacity:1;stroke:none;stroke-width:2;stroke-linecap:round;stroke-linejoin:round;marker:none;stroke-miterlimit:4;stroke-dasharray:none;stroke-dashoffset:0;stroke-opacity:1;visibility:visible;display:inline;overflow:visible;enable-background:accumulate" />
  </g>
  <g
     transform="translate(-298,-174)"
     id="layer4" />
  <g
     transform="translate(-298,-174)"
     id="layer9" />
  <g
     transform="translate(-298,-174)"
     id="layer6" />
</svg>
