<?xml version="1.0" encoding="UTF-8" standalone="no"?>
<!-- Created with Inkscape (http://www.inkscape.org/) -->
<svg
   xmlns:svg="http://www.w3.org/2000/svg"
   xmlns="http://www.w3.org/2000/svg"
   version="1.0"
   width="24"
   height="24"
   id="svg7384">
  <defs
     id="defs7386" />
  <g
     transform="translate(-410.07158,-201.99993)"
     id="layer3" />
  <g
     transform="translate(-410.07158,-201.99993)"
     id="layer5" />
  <g
     transform="translate(-410.07158,-201.99993)"
     id="layer7" />
  <g
     transform="translate(-410.07158,-201.99993)"
     id="layer2" />
  <g
     transform="translate(-410.07158,-201.99993)"
     id="layer8" />
  <g
     transform="translate(-410.07158,-1154.3621)"
     id="layer1">
    <rect
       width="24"
       height="24"
       x="410.07159"
       y="1154.3621"
       id="rect10615"
       style="opacity:0;fill:#ffffff;fill-opacity:1;stroke:none;display:inline" />
    <path
       d="M 414,1156.375 L 414,1157.375 L 414,1175.375 L 414,1176.375 L 415,1176.375 L 429,1176.375 L 430,1176.375 L 430,1175.375 L 430,1160.375 L 430,1159.9688 L 429.71875,1159.6562 L 426.84375,1156.6562 L 426.5625,1156.375 L 426.125,1156.375 L 415,1156.375 L 414,1156.375 z M 416,1158.375 L 425.71875,1158.375 L 428,1160.7812 L 428,1174.375 L 416,1174.375 L 416,1158.375 z"
       id="path10629"
       style="fill:#bebebe;fill-opacity:1;stroke:none;stroke-width:2;stroke-linecap:butt;stroke-linejoin:miter;stroke-miterlimit:4;stroke-dasharray:none;stroke-opacity:1" />
    <path
       d="M 417.34375,1172.375 C 417.12959,1172.4452 416.98882,1172.6499 417,1172.875 L 417,1175.375 C 417.00003,1175.6511 417.22387,1175.875 417.5,1175.875 L 426.5,1175.875 C 426.77613,1175.875 426.99997,1175.6511 427,1175.375 L 427,1172.875 C 426.99997,1172.5989 426.77613,1172.375 426.5,1172.375 L 417.5,1172.375 C 417.44824,1172.3668 417.39551,1172.3668 417.34375,1172.375 z M 418,1173.375 L 426,1173.375 L 426,1174.875 L 418,1174.875 L 418,1173.375 z"
       id="rect10631"
       style="fill:#bebebe;fill-opacity:1;stroke:none;stroke-width:1;stroke-linecap:round;stroke-linejoin:round;marker:none;stroke-miterlimit:4;stroke-dasharray:none;stroke-dashoffset:0;stroke-opacity:1;visibility:visible;display:inline;overflow:visible;enable-background:accumulate" />
    <path
       d="M 418.25,1159.375 C 417.56615,1159.375 417,1159.9412 417,1160.625 L 417,1163.125 C 417,1163.8089 417.56614,1164.375 418.25,1164.375 L 425.8125,1164.375 C 426.49635,1164.375 427.0625,1163.8089 427.0625,1163.125 L 427.0625,1161.5625 C 427.06505,1161.3822 426.97031,1161.2145 426.81456,1161.1236 C 426.65881,1161.0327 426.46619,1161.0327 426.31044,1161.1236 C 426.15469,1161.2145 426.05995,1161.3822 426.0625,1161.5625 L 426.0625,1163.125 C 426.0625,1163.2722 425.95965,1163.375 425.8125,1163.375 L 418.25,1163.375 C 418.10286,1163.375 418,1163.2721 418,1163.125 L 418,1160.625 C 418,1160.4779 418.10285,1160.375 418.25,1160.375 L 424.6875,1160.375 C 424.86782,1160.3776 425.03554,1160.2828 425.12644,1160.1271 C 425.21735,1159.9713 425.21735,1159.7787 425.12644,1159.6229 C 425.03554,1159.4672 424.86782,1159.3724 424.6875,1159.375 L 418.25,1159.375 z"
       id="rect10633"
       style="fill:#bebebe;fill-opacity:1;stroke:none;stroke-width:1;stroke-linecap:round;stroke-linejoin:round;marker:none;stroke-miterlimit:4;stroke-dashoffset:0;stroke-opacity:1;visibility:visible;display:inline;overflow:visible;enable-background:accumulate" />
    <path
       d="M 419.4375,1159.3438 C 419.17364,1159.3764 418.98143,1159.6098 419,1159.875 L 419,1161.875 C 418.99745,1162.0553 419.09219,1162.223 419.24794,1162.3139 C 419.40369,1162.4048 419.59631,1162.4048 419.75206,1162.3139 C 419.90781,1162.223 420.00255,1162.0553 420,1161.875 L 420,1159.875 C 420.01056,1159.7255 419.95349,1159.5791 419.84452,1159.4762 C 419.73555,1159.3733 419.58616,1159.3247 419.4375,1159.3438 z"
       id="path10636"
       style="opacity:0.2;fill:#bebebe;fill-opacity:1;stroke:none;stroke-width:1px;stroke-linecap:round;stroke-linejoin:miter;stroke-opacity:1" />
    <path
       d="M 421.4375,1159.3438 C 421.17364,1159.3764 420.98143,1159.6098 421,1159.875 L 421,1161.875 C 420.99745,1162.0553 421.09219,1162.223 421.24794,1162.3139 C 421.40369,1162.4048 421.59631,1162.4048 421.75206,1162.3139 C 421.90781,1162.223 422.00255,1162.0553 422,1161.875 L 422,1159.875 C 422.01056,1159.7255 421.95349,1159.5791 421.84452,1159.4762 C 421.73555,1159.3733 421.58616,1159.3247 421.4375,1159.3438 z"
       id="path10639"
       style="opacity:0.2;fill:#bebebe;fill-opacity:1;stroke:none;stroke-width:1px;stroke-linecap:round;stroke-linejoin:miter;stroke-opacity:1" />
    <path
       d="M 424.4375,1161.3438 C 424.17364,1161.3764 423.98143,1161.6098 424,1161.875 L 424,1163.875 C 423.99745,1164.0553 424.09219,1164.223 424.24794,1164.3139 C 424.40369,1164.4048 424.59631,1164.4048 424.75206,1164.3139 C 424.90781,1164.223 425.00255,1164.0553 425,1163.875 L 425,1161.875 C 425.01056,1161.7255 424.95349,1161.5791 424.84452,1161.4762 C 424.73555,1161.3733 424.58616,1161.3247 424.4375,1161.3438 z"
       id="path10641"
       style="opacity:0.2;fill:#bebebe;fill-opacity:1;stroke:none;stroke-width:1px;stroke-linecap:round;stroke-linejoin:miter;stroke-opacity:1" />
  </g>
  <g
     transform="translate(-410.07158,-201.99993)"
     id="layer4" />
  <g
     transform="translate(-410.07158,-201.99993)"
     id="layer9" />
  <g
     transform="translate(-410.07158,-201.99993)"
     id="layer6" />
</svg>
