<?xml version="1.0" encoding="UTF-8" standalone="no"?>
<!-- Created with Inkscape (http://www.inkscape.org/) -->
<svg
   xmlns:svg="http://www.w3.org/2000/svg"
   xmlns="http://www.w3.org/2000/svg"
   version="1.0"
   width="24"
   height="24"
   id="svg7384">
  <defs
     id="defs7386" />
  <g
     transform="translate(-354,-175)"
     id="layer3" />
  <g
     transform="translate(-354,-175)"
     id="layer5" />
  <g
     transform="translate(-354,-175)"
     id="layer7" />
  <g
     transform="translate(-354,-175)"
     id="layer2" />
  <g
     transform="translate(-354,-175)"
     id="layer8" />
  <g
     transform="translate(-354,-1127.3622)"
     id="layer1">
    <rect
       width="24"
       height="24"
       x="-378"
       y="1127.3622"
       transform="scale(-1,1)"
       id="rect4670-4"
       style="opacity:0;fill:#ffffff;fill-opacity:1;stroke:none;display:inline" />
    <path
       d="M 374.875,1128.3438 C 374.3599,1128.4083 373.97983,1128.8563 374,1129.375 L 374,1134.375 L 357,1134.375 C 356.44774,1134.3751 356.00006,1134.8227 356,1135.375 L 356,1148.375 C 356.00006,1148.9273 356.44774,1149.3749 357,1149.375 L 375,1149.375 C 375.55226,1149.3749 375.99994,1148.9273 376,1148.375 L 376,1135.5312 C 376.02364,1135.4073 376.02364,1135.2801 376,1135.1562 L 376,1129.375 C 376.01147,1129.0813 375.89313,1128.7974 375.67644,1128.5987 C 375.45974,1128.4001 375.16663,1128.3069 374.875,1128.3438 L 374.875,1128.3438 z M 358,1136.375 L 374,1136.375 L 374,1147.375 L 358,1147.375 L 358,1136.375 z"
       id="path8588"
       style="fill:#bebebe;fill-opacity:1;stroke:none;stroke-width:2;stroke-linecap:round;stroke-linejoin:round;marker:none;stroke-miterlimit:4;stroke-dasharray:none;stroke-dashoffset:0;stroke-opacity:1;visibility:visible;display:inline;overflow:visible;enable-background:accumulate" />
    <path
       d="M 359.8125,1137.375 C 359.33442,1137.4662 358.99142,1137.8884 359,1138.375 L 359,1142.375 C 359.00006,1142.9273 359.44774,1143.3749 360,1143.375 L 372,1143.375 C 372.55226,1143.3749 372.99994,1142.9273 373,1142.375 L 373,1138.375 C 372.99994,1137.8227 372.55226,1137.3751 372,1137.375 L 360,1137.375 C 359.93764,1137.3691 359.87486,1137.3691 359.8125,1137.375 z M 361,1139.375 L 371,1139.375 L 371,1141.375 L 361,1141.375 L 361,1139.375 z"
       id="rect8590"
       style="fill:#bebebe;fill-opacity:1;stroke:none;stroke-width:2;stroke-linecap:round;stroke-linejoin:round;marker:none;stroke-miterlimit:4;stroke-dasharray:none;stroke-dashoffset:0;stroke-opacity:1;visibility:visible;display:inline;overflow:visible;enable-background:accumulate" />
  </g>
  <g
     transform="translate(-354,-175)"
     id="layer4" />
  <g
     transform="translate(-354,-175)"
     id="layer9" />
  <g
     transform="translate(-354,-175)"
     id="layer6" />
</svg>
