<?xml version="1.0" encoding="UTF-8" standalone="no"?>
<!-- Created with Inkscape (http://www.inkscape.org/) -->
<svg
   xmlns:svg="http://www.w3.org/2000/svg"
   xmlns="http://www.w3.org/2000/svg"
   version="1.0"
   width="24"
   height="24"
   id="svg7384">
  <defs
     id="defs7386" />
  <g
     transform="translate(-354,-174)"
     id="layer3" />
  <g
     transform="translate(-354,-174)"
     id="layer5" />
  <g
     transform="translate(-354,-174)"
     id="layer7" />
  <g
     transform="translate(-354,-174)"
     id="layer2" />
  <g
     transform="translate(-354,-174)"
     id="layer8" />
  <g
     transform="translate(-354,-1126.3622)"
     id="layer1">
    <rect
       width="24"
       height="24"
       x="-378"
       y="1126.3622"
       transform="scale(-1,1)"
       id="rect4670-4"
       style="opacity:0;fill:#ffffff;fill-opacity:1;stroke:none;display:inline" />
    <path
       d="M 374.875,1127.3438 C 374.3599,1127.4083 373.97983,1127.8563 374,1128.375 L 374,1133.375 L 357,1133.375 C 356.44774,1133.3751 356.00006,1133.8227 356,1134.375 L 356,1147.375 C 356.00006,1147.9273 356.44774,1148.3749 357,1148.375 L 375,1148.375 C 375.55226,1148.3749 375.99994,1147.9273 376,1147.375 L 376,1134.5312 C 376.02364,1134.4073 376.02364,1134.2801 376,1134.1562 L 376,1128.375 C 376.01147,1128.0813 375.89313,1127.7974 375.67644,1127.5987 C 375.45974,1127.4001 375.16663,1127.3069 374.875,1127.3438 L 374.875,1127.3438 z M 358,1135.375 L 374,1135.375 L 374,1146.375 L 358,1146.375 L 358,1135.375 z"
       id="path8588"
       style="fill:#bebebe;fill-opacity:1;stroke:none;stroke-width:2;stroke-linecap:round;stroke-linejoin:round;marker:none;stroke-miterlimit:4;stroke-dasharray:none;stroke-dashoffset:0;stroke-opacity:1;visibility:visible;display:inline;overflow:visible;enable-background:accumulate" />
    <path
       d="M 359.34375,1136.375 C 359.12959,1136.4452 358.98882,1136.6499 359,1136.875 L 359,1139.875 C 359.00003,1140.1511 359.22387,1140.375 359.5,1140.375 L 372.5,1140.375 C 372.77613,1140.375 372.99997,1140.1511 373,1139.875 L 373,1136.875 C 372.99997,1136.5989 372.77613,1136.375 372.5,1136.375 L 359.5,1136.375 C 359.44824,1136.3668 359.39551,1136.3668 359.34375,1136.375 z M 360,1137.375 L 372,1137.375 L 372,1139.375 L 360,1139.375 L 360,1137.375 z"
       id="rect8590"
       style="fill:#bebebe;fill-opacity:1;stroke:none;stroke-width:0.99999994;stroke-linecap:round;stroke-linejoin:round;marker:none;stroke-miterlimit:4;stroke-dasharray:none;stroke-dashoffset:0;stroke-opacity:1;visibility:visible;display:inline;overflow:visible;enable-background:accumulate" />
    <path
       d="M 371.50001,1142.3465 C 370.68161,1142.3465 370.00001,1143.0494 370.00001,1143.8934 C 370.00001,1144.7374 370.68161,1145.4403 371.50001,1145.4403 C 372.31841,1145.4403 373.00001,1144.7374 373.00001,1143.8934 C 373.00001,1143.0494 372.31841,1142.3465 371.50001,1142.3465 z M 371.50001,1143.3778 C 371.78561,1143.3778 372.00001,1143.5989 372.00001,1143.8934 C 372.00001,1144.1879 371.78561,1144.409 371.50001,1144.409 C 371.21441,1144.409 371.00001,1144.1879 371.00001,1143.8934 C 371.00001,1143.5989 371.21441,1143.3778 371.50001,1143.3778 z"
       id="path5490"
       style="fill:#bebebe;fill-opacity:1;stroke:none;stroke-width:1.04627764;stroke-linecap:square;stroke-linejoin:miter;marker:none;stroke-miterlimit:4;stroke-dasharray:none;stroke-dashoffset:0;stroke-opacity:1;visibility:visible;display:inline;overflow:visible;enable-background:accumulate" />
  </g>
  <g
     transform="translate(-354,-174)"
     id="layer4" />
  <g
     transform="translate(-354,-174)"
     id="layer9" />
  <g
     transform="translate(-354,-174)"
     id="layer6" />
</svg>
