<?xml version="1.0" encoding="UTF-8" standalone="no"?>
<!-- Created with Inkscape (http://www.inkscape.org/) -->
<svg
   xmlns:svg="http://www.w3.org/2000/svg"
   xmlns="http://www.w3.org/2000/svg"
   version="1.0"
   width="24"
   height="24"
   id="svg7384">
  <defs
     id="defs7386" />
  <g
     transform="translate(-326,-174)"
     id="layer3" />
  <g
     transform="translate(-326,-174)"
     id="layer5" />
  <g
     transform="translate(-326,-174)"
     id="layer7" />
  <g
     transform="translate(-326,-174)"
     id="layer2" />
  <g
     transform="translate(-326,-174)"
     id="layer8" />
  <g
     transform="translate(-326,-1126.3622)"
     id="layer1">
    <rect
       width="24"
       height="24"
       x="326"
       y="1126.3622"
       id="rect6439-0-6"
       style="opacity:0;fill:#ffffff;fill-opacity:1;stroke:none;display:inline" />
    <path
       d="M 337.6986,1133.0629 C 338.0904,1132.6711 338.0904,1132.0404 337.6986,1131.6487 L 334.4129,1128.3642 C 334.4129,1128.3642 332.9987,1128.3642 332.9987,1128.3642 C 332.9987,1128.3642 332.9987,1129.7784 332.9987,1129.7784 L 336.2844,1133.0629 C 336.6761,1133.4546 337.3069,1133.4546 337.6986,1133.0629 z"
       id="rect10637"
       style="fill:#bebebe;fill-opacity:1;stroke:none;display:inline" />
    <path
       d="M 337.3001,1133.0629 C 336.9083,1132.6711 336.9083,1132.0404 337.3001,1131.6487 L 340.5858,1128.3642 C 340.5858,1128.3642 342,1128.3642 342,1128.3642 C 342,1128.3642 342,1129.7784 342,1129.7784 L 338.7143,1133.0629 C 338.3226,1133.4546 337.6918,1133.4546 337.3001,1133.0629 z"
       id="path13548"
       style="fill:#bebebe;fill-opacity:1;stroke:none;display:inline" />
    <path
       d="M 331,1135.375 L 331,1135.875 L 331,1145.875 L 331,1146.375 L 331.5,1146.375 L 344.5,1146.375 L 345,1146.375 L 345,1145.875 L 345,1135.875 L 345,1135.375 L 344.5,1135.375 L 331.5,1135.375 L 331,1135.375 z M 332,1136.375 L 344,1136.375 L 344,1145.375 L 332,1145.375 L 332,1136.375 z"
       id="rect5486"
       style="fill:#bebebe;fill-opacity:1;stroke:none;stroke-width:1;stroke-linecap:square;stroke-linejoin:miter;marker:none;stroke-miterlimit:4;stroke-dasharray:none;stroke-dashoffset:0;stroke-opacity:1;visibility:visible;display:inline;overflow:visible;enable-background:accumulate" />
    <path
       d="M 330,1132.375 C 328.9093,1132.375 328,1133.2843 328,1134.375 L 328,1147.375 C 328,1148.4657 328.9093,1149.375 330,1149.375 L 346,1149.375 C 347.0907,1149.375 348,1148.4657 348,1147.375 L 348,1134.375 C 348,1133.2843 347.0907,1132.375 346,1132.375 L 330,1132.375 z M 330,1134.375 L 346,1134.375 L 346,1147.375 L 330,1147.375 L 330,1134.375 z"
       id="rect5488"
       style="fill:#bebebe;fill-opacity:1;stroke:none;stroke-width:2;stroke-linecap:square;stroke-linejoin:round;marker:none;stroke-miterlimit:4;stroke-dasharray:none;stroke-dashoffset:0;stroke-opacity:1;visibility:visible;display:inline;overflow:visible;enable-background:accumulate" />
  </g>
  <g
     transform="translate(-326,-174)"
     id="layer4" />
  <g
     transform="translate(-326,-174)"
     id="layer9" />
  <g
     transform="translate(-326,-174)"
     id="layer6" />
</svg>
