<?xml version="1.0" encoding="UTF-8" standalone="no"?>
<!-- Created with Inkscape (http://www.inkscape.org/) -->
<svg
   xmlns:svg="http://www.w3.org/2000/svg"
   xmlns="http://www.w3.org/2000/svg"
   version="1.0"
   width="24"
   height="24"
   id="svg7384">
  <defs
     id="defs7386" />
  <g
     transform="translate(-326,-175)"
     id="layer3" />
  <g
     transform="translate(-326,-175)"
     id="layer5" />
  <g
     transform="translate(-326,-175)"
     id="layer7" />
  <g
     transform="translate(-326,-175)"
     id="layer2" />
  <g
     transform="translate(-326,-175)"
     id="layer8" />
  <g
     transform="translate(-326,-1127.3622)"
     id="layer1">
    <rect
       width="24"
       height="24"
       x="326"
       y="1127.3622"
       id="rect6439-0-6"
       style="opacity:0;fill:#ffffff;fill-opacity:1;stroke:none;display:inline" />
    <rect
       width="2"
       height="20.000002"
       rx="1"
       ry="1"
       x="-1135.3622"
       y="328"
       transform="matrix(0,-1,1,0,0,0)"
       id="rect2807-8-5"
       style="fill:#bebebe;fill-opacity:1;stroke:none;display:inline" />
    <rect
       width="2"
       height="14"
       rx="0"
       ry="0"
       x="-1138.3622"
       y="331"
       transform="matrix(0,-1,1,0,0,0)"
       id="rect2809-9-4"
       style="fill:#bebebe;fill-opacity:1;stroke:none;display:inline" />
    <rect
       width="2"
       height="11"
       rx="0"
       ry="0"
       x="-333"
       y="-1147.3622"
       transform="scale(-1,-1)"
       id="rect2811-9-4"
       style="fill:#bebebe;fill-opacity:1;stroke:none;display:inline" />
    <rect
       width="2"
       height="11"
       rx="0"
       ry="0"
       x="-345"
       y="-1147.3622"
       transform="scale(-1,-1)"
       id="rect2813-1"
       style="fill:#bebebe;fill-opacity:1;stroke:none;display:inline" />
    <rect
       width="2"
       height="14"
       rx="0"
       ry="0"
       x="-1147.3622"
       y="331"
       transform="matrix(0,-1,1,0,0,0)"
       id="rect2815-3"
       style="fill:#bebebe;fill-opacity:1;stroke:none;display:inline" />
    <rect
       width="2"
       height="17"
       rx="1"
       ry="1"
       x="-348"
       y="-1150.3622"
       transform="scale(-1,-1)"
       id="rect2817-1"
       style="fill:#bebebe;fill-opacity:1;stroke:none;display:inline" />
    <rect
       width="2"
       height="20.000002"
       rx="1"
       ry="1"
       x="-1150.3622"
       y="328"
       transform="matrix(0,-1,1,0,0,0)"
       id="rect2819-1-1"
       style="fill:#bebebe;fill-opacity:1;stroke:none;display:inline" />
    <rect
       width="2"
       height="17"
       rx="1"
       ry="1"
       x="-330"
       y="-1150.3622"
       transform="scale(-1,-1)"
       id="rect2821-6-6"
       style="fill:#bebebe;fill-opacity:1;stroke:none;display:inline" />
    <path
       d="M 337.6986,1134.0629 C 338.0904,1133.6711 338.0904,1133.0404 337.6986,1132.6487 L 334.4129,1129.3642 C 334.4129,1129.3642 332.9987,1129.3642 332.9987,1129.3642 C 332.9987,1129.3642 332.9987,1130.7784 332.9987,1130.7784 L 336.2844,1134.0629 C 336.6761,1134.4546 337.3069,1134.4546 337.6986,1134.0629 z"
       id="rect10637"
       style="fill:#bebebe;fill-opacity:1;stroke:none;display:inline" />
    <path
       d="M 337.3001,1134.0629 C 336.9083,1133.6711 336.9083,1133.0404 337.3001,1132.6487 L 340.5858,1129.3642 C 340.5858,1129.3642 342,1129.3642 342,1129.3642 C 342,1129.3642 342,1130.7784 342,1130.7784 L 338.7143,1134.0629 C 338.3226,1134.4546 337.6918,1134.4546 337.3001,1134.0629 z"
       id="path13548"
       style="fill:#bebebe;fill-opacity:1;stroke:none;display:inline" />
  </g>
  <g
     transform="translate(-326,-175)"
     id="layer4" />
  <g
     transform="translate(-326,-175)"
     id="layer9" />
  <g
     transform="translate(-326,-175)"
     id="layer6" />
</svg>
