<?xml version="1.0" encoding="UTF-8" standalone="no"?>
<!-- Created with Inkscape (http://www.inkscape.org/) -->
<svg
   xmlns:svg="http://www.w3.org/2000/svg"
   xmlns="http://www.w3.org/2000/svg"
   version="1.0"
   width="24"
   height="24"
   id="svg7384">
  <defs
     id="defs7386" />
  <g
     transform="translate(-268.07158,-201.99993)"
     id="layer3" />
  <g
     transform="translate(-268.07158,-201.99993)"
     id="layer5" />
  <g
     transform="translate(-268.07158,-201.99993)"
     id="layer7" />
  <g
     transform="translate(-268.07158,-201.99993)"
     id="layer2" />
  <g
     transform="translate(-268.07158,-201.99993)"
     id="layer8" />
  <g
     transform="translate(-268.07158,-1154.3621)"
     id="layer1">
    <rect
       width="24"
       height="24"
       x="268.07159"
       y="1154.3621"
       id="rect9626"
       style="opacity:0;fill:#ffffff;fill-opacity:1;stroke:none;display:inline" />
    <path
       d="M 273.125,1156.375 C 271.41105,1156.375 270,1157.786 270,1159.5 L 270,1169.25 C 270,1170.964 271.41105,1172.375 273.125,1172.375 L 286.875,1172.375 C 288.58895,1172.375 290,1170.9639 290,1169.25 L 290,1159.5 C 290,1157.786 288.58895,1156.375 286.875,1156.375 L 273.125,1156.375 z M 273.125,1158.375 L 286.875,1158.375 C 287.51555,1158.375 288,1158.8595 288,1159.5 L 288,1169.25 C 288,1169.8905 287.51555,1170.375 286.875,1170.375 L 273.125,1170.375 C 272.48445,1170.375 272,1169.8905 272,1169.25 L 272,1159.5 C 272,1158.8595 272.48445,1158.375 273.125,1158.375 z"
       id="rect9658"
       style="fill:#bebebe;fill-opacity:1;fill-rule:nonzero;stroke:none;stroke-width:2;marker:none;stroke-miterlimit:4;stroke-dasharray:none;stroke-opacity:1;visibility:visible;display:inline;overflow:visible;enable-background:new" />
    <path
       d="M 276.875,1173.375 C 276.32272,1173.4268 275.91697,1173.9165 275.96875,1174.4688 C 276.02053,1175.021 276.51022,1175.4268 277.0625,1175.375 L 282.96875,1175.375 C 283.32938,1175.3801 283.66482,1175.1906 283.84663,1174.8791 C 284.02843,1174.5676 284.02843,1174.1824 283.84663,1173.8709 C 283.66482,1173.5594 283.32938,1173.3699 282.96875,1173.375 L 277.0625,1173.375 C 277.00014,1173.3691 276.93736,1173.3691 276.875,1173.375 z"
       id="path9660"
       style="fill:#bebebe;fill-opacity:1;fill-rule:nonzero;stroke:none;stroke-width:1.99999964;stroke-linecap:round;stroke-linejoin:miter;marker:none;stroke-miterlimit:4;stroke-dasharray:none;stroke-dashoffset:0;stroke-opacity:1;visibility:visible;display:inline;overflow:visible;enable-background:new" />
    <path
       d="M 273.34375,1159.375 C 273.12959,1159.4452 272.98882,1159.6499 273,1159.875 L 273,1168.875 C 273.00003,1169.1511 273.22387,1169.375 273.5,1169.375 L 286.5,1169.375 C 286.77613,1169.375 286.99997,1169.1511 287,1168.875 L 287,1159.875 C 286.99997,1159.5989 286.77613,1159.375 286.5,1159.375 L 273.5,1159.375 C 273.44824,1159.3668 273.39551,1159.3668 273.34375,1159.375 L 273.34375,1159.375 z M 274,1160.375 L 286,1160.375 L 286,1168.375 L 274,1168.375 L 274,1160.375 z"
       id="rect9662"
       style="fill:#bebebe;fill-opacity:1;fill-rule:nonzero;stroke:none;stroke-width:0.99999988;stroke-linejoin:round;marker:none;stroke-miterlimit:4;stroke-dasharray:none;stroke-opacity:1;visibility:visible;display:inline;overflow:visible;enable-background:new" />
  </g>
  <g
     transform="translate(-268.07158,-201.99993)"
     id="layer4" />
  <g
     transform="translate(-268.07158,-201.99993)"
     id="layer9" />
  <g
     transform="translate(-268.07158,-201.99993)"
     id="layer6" />
</svg>
