<?xml version="1.0" encoding="UTF-8" standalone="no"?>
<!-- Created with Inkscape (http://www.inkscape.org/) -->
<svg
   xmlns:svg="http://www.w3.org/2000/svg"
   xmlns="http://www.w3.org/2000/svg"
   version="1.0"
   width="24"
   height="24"
   id="svg7384">
  <title
     id="title9167">Moblin Icon Theme</title>
  <defs
     id="defs7386" />
  <g
     transform="translate(-772,-230)"
     id="layer3" />
  <g
     transform="translate(-772,-230)"
     id="layer5" />
  <g
     transform="translate(-772,-230)"
     id="layer7">
    <rect
       width="24"
       height="24"
       x="772"
       y="230"
       id="rect15455"
       style="opacity:0;fill:#ffffff;fill-opacity:1;stroke:none;display:inline" />
    <path
       d="M 782.99999,232.01234 C 780.25093,232.01234 778.01234,234.25094 778.01234,237 C 778.01234,239.74906 780.25093,241.98765 782.99999,241.98765 C 785.74905,241.98765 787.98765,239.74906 787.98765,237 C 787.98765,234.25094 785.74905,232.01234 782.99999,232.01234 z M 782.99999,233.98765 C 784.66693,233.98765 786.01234,235.33306 786.01234,237 C 786.01234,238.66694 784.66693,240.01234 782.99999,240.01234 C 781.33305,240.01234 779.98765,238.66694 779.98765,237 C 779.98765,235.33306 781.33305,233.98765 782.99999,233.98765 z"
       id="path15463"
       style="fill:#bebebe;fill-opacity:1;stroke:none;stroke-width:2.53125;stroke-linecap:round;stroke-linejoin:miter;marker:none;stroke-miterlimit:4;stroke-dasharray:none;stroke-dashoffset:0;stroke-opacity:1;visibility:visible;display:inline;overflow:visible;enable-background:accumulate" />
    <path
       d="M 785.19448,239.55556 C 784.8027,239.62178 784.48728,239.91365 784.39091,240.29912 C 784.29454,240.68459 784.43551,241.09055 784.75003,241.33334 C 785.60264,242.04953 786.00003,242.88652 786.00003,244.00001 C 785.99493,244.36065 786.18441,244.69609 786.4959,244.8779 C 786.8074,245.0597 787.19266,245.0597 787.50416,244.8779 C 787.81566,244.69609 788.00513,244.36065 788.00003,244.00001 C 788.00003,242.35517 787.28727,240.83572 786.02781,239.77779 C 785.79788,239.58159 785.49156,239.49991 785.19448,239.55556 z"
       id="path15465"
       style="fill:#bebebe;fill-opacity:1;stroke:none;stroke-width:2.25;stroke-linecap:round;stroke-linejoin:miter;marker:none;stroke-miterlimit:4;stroke-dasharray:none;stroke-dashoffset:0;stroke-opacity:1;visibility:visible;display:inline;overflow:visible;enable-background:accumulate" />
    <path
       d="M 778.84375,243.28125 C 778.37812,243.38553 778.05101,243.80423 778.0625,244.28125 L 778.0625,252.84375 L 778.0625,254.59375 L 779.5625,253.6875 L 782.96875,251.6875 L 786.53125,253.65625 L 788,254.46875 L 788,252.78125 L 788,244.28125 C 788.0051,243.92061 787.81562,243.58517 787.50413,243.40336 C 787.19263,243.22156 786.80737,243.22156 786.49587,243.40336 C 786.18438,243.58517 785.9949,243.92061 786,244.28125 L 786,251.09375 L 783.40625,249.65625 L 782.90625,249.375 L 782.40625,249.6875 L 780.0625,251.09375 L 780.0625,244.28125 C 780.06994,243.97339 779.93514,243.67928 779.69707,243.48394 C 779.45901,243.2886 779.14423,243.21383 778.84375,243.28125 z"
       id="path15467"
       style="fill:#bebebe;fill-opacity:1;stroke:none;stroke-width:2;stroke-linecap:round;stroke-linejoin:miter;marker:none;stroke-miterlimit:4;stroke-dasharray:none;stroke-dashoffset:0;stroke-opacity:1;visibility:visible;display:inline;overflow:visible;enable-background:accumulate" />
    <path
       d="M 780.4167,239.58334 C 780.22966,239.61745 780.05621,239.70418 779.9167,239.83334 C 778.68243,240.89128 778.00003,242.37438 778.00003,244.00001 C 777.99493,244.36065 778.18441,244.69609 778.4959,244.8779 C 778.8074,245.0597 779.19266,245.0597 779.50416,244.8779 C 779.81566,244.69609 780.00513,244.36065 780.00003,244.00001 C 780.00003,242.89883 780.38617,242.04998 781.22225,241.33334 C 781.56441,241.04298 781.67126,240.56026 781.48362,240.15263 C 781.29598,239.74499 780.85978,239.51224 780.4167,239.58334 z"
       id="path15469"
       style="fill:#bebebe;fill-opacity:1;stroke:none;stroke-width:2.25;stroke-linecap:round;stroke-linejoin:miter;marker:none;stroke-miterlimit:4;stroke-dasharray:none;stroke-dashoffset:0;stroke-opacity:1;visibility:visible;display:inline;overflow:visible;enable-background:accumulate" />
  </g>
  <g
     transform="translate(-772,-230)"
     id="layer2" />
  <g
     transform="translate(-772,-230)"
     id="layer8" />
  <g
     transform="translate(-772,-1182.3622)"
     id="layer1" />
  <g
     transform="translate(-772,-230)"
     id="layer11" />
  <g
     transform="translate(-772,-230)"
     id="layer4" />
  <g
     transform="translate(-772,-230)"
     id="layer9" />
  <g
     transform="translate(-772,-230)"
     id="layer10" />
  <g
     transform="translate(-772,-230)"
     id="layer6" />
</svg>
