<?xml version="1.0" encoding="UTF-8" standalone="no"?>
<!-- Created with Inkscape (http://www.inkscape.org/) -->
<svg
   xmlns:svg="http://www.w3.org/2000/svg"
   xmlns="http://www.w3.org/2000/svg"
   version="1.0"
   width="24"
   height="24"
   id="svg7384">
  <title
     id="title9167">Moblin Icon Theme</title>
  <defs
     id="defs7386" />
  <g
     transform="translate(-798,-202.01932)"
     id="layer3" />
  <g
     transform="translate(-798,-202.01932)"
     id="layer5" />
  <g
     transform="translate(-798,-202.01932)"
     id="layer7">
    <rect
       width="24"
       height="24"
       x="798"
       y="202.01932"
       id="rect6036"
       style="opacity:0;fill:#ffffff;fill-opacity:1;stroke:none;display:inline" />
    <path
       d="M 800.11344,213.43577 C 799.83989,213.83833 799.89586,214.37936 800.24602,214.7174 L 809.28373,223.75511 C 809.67428,224.14558 810.3074,224.14558 810.69795,223.75511 L 819.75775,214.6953 C 820.14822,214.30475 820.14822,213.67164 819.75775,213.28109 L 810.72004,204.24338 C 810.3295,203.85291 809.69638,203.85291 809.30583,204.24338 L 800.24602,213.30319 C 800.19778,213.34313 800.15339,213.38752 800.11344,213.43577 z M 802.36734,214.01029 L 810.01294,206.3647 L 817.63643,213.9882 L 809.99084,221.63379 L 802.36734,214.01029 z"
       id="rect6042"
       style="fill:#bebebe;fill-opacity:1;stroke:none;stroke-width:1.99999988;stroke-linecap:round;stroke-linejoin:round;marker:none;stroke-miterlimit:4;stroke-dasharray:none;stroke-dashoffset:0;stroke-opacity:1;visibility:visible;display:inline;overflow:visible;enable-background:accumulate" />
    <path
       d="M 815.99997,212.97618 C 815.15467,212.97506 814.3289,213.17791 813.51188,213.55237 C 810.50602,214.93004 809.17469,218.48223 810.55235,221.48808 C 810.59003,221.69121 810.74875,221.85026 810.95181,221.88836 C 811.15486,221.92646 811.36044,221.83576 811.46918,221.6601 C 811.57793,221.48444 811.56746,221.25999 811.44283,221.09522 C 810.2906,218.58123 811.39074,215.59509 813.90474,214.44284 C 815.30042,213.80317 816.70124,213.82566 818.09521,214.46903 C 818.34834,214.58475 818.64735,214.47335 818.76307,214.22022 C 818.87879,213.96709 818.76739,213.66808 818.51426,213.55237 C 817.69823,213.17574 816.84528,212.97729 815.99997,212.97618 z"
       id="path6065"
       style="fill:#bebebe;fill-opacity:1;stroke:none;stroke-width:1.19318187;stroke-linecap:round;stroke-linejoin:round;marker:none;stroke-miterlimit:4;stroke-dasharray:none;stroke-dashoffset:0;stroke-opacity:1;visibility:visible;display:inline;overflow:visible;enable-background:accumulate" />
    <path
       d="M 804.84158,215.99763 C 806.2818,216.03543 807.7276,215.56538 808.90111,214.55715 C 811.40912,212.40238 811.71065,208.60563 809.55587,206.09763 C 809.46924,205.99659 809.34591,205.93426 809.21319,205.92443 C 809.08046,205.9146 808.94929,205.95808 808.84873,206.04525 L 804.68444,209.63334 C 804.66648,209.64104 804.64899,209.64979 804.63206,209.65954 L 800.83444,213.64049 C 800.74406,213.73769 800.69604,213.86685 800.70095,213.99949 C 800.70586,214.13213 800.76331,214.25737 800.86063,214.34763 C 801.97964,215.41603 803.40137,215.95983 804.84158,215.99763 z M 804.86777,215.00239 C 803.84016,214.97542 802.8487,214.56752 801.98682,213.90239 L 805.36539,210.34049 L 809.03206,207.19763 C 810.47756,209.27824 810.21068,212.10996 808.24635,213.79763 C 807.2618,214.6435 806.06472,215.0338 804.86777,215.00239 z"
       id="path6067"
       style="fill:#bebebe;fill-opacity:1;stroke:none;stroke-width:1.19318187;stroke-linecap:round;stroke-linejoin:round;marker:none;stroke-miterlimit:4;stroke-dasharray:none;stroke-dashoffset:0;stroke-opacity:1;visibility:visible;display:inline;overflow:visible;enable-background:accumulate" />
    <path
       d="M 807.75,216.1875 A 0.6875,0.6875 0 1 1 806.375,216.1875 A 0.6875,0.6875 0 1 1 807.75,216.1875 z"
       transform="matrix(1.4545187,0,0,1.4545383,-366.88749,-98.45301)"
       id="path6069"
       style="fill:#bebebe;fill-opacity:1;stroke:none;stroke-width:1;marker:none;visibility:visible;display:inline;overflow:visible;enable-background:accumulate" />
    <path
       d="M 807.75,216.1875 A 0.6875,0.6875 0 1 1 806.375,216.1875 A 0.6875,0.6875 0 1 1 807.75,216.1875 z"
       transform="matrix(1.4545187,0,0,1.4545383,-364.38749,-100.0155)"
       id="path6071"
       style="fill:#bebebe;fill-opacity:1;stroke:none;stroke-width:1;marker:none;visibility:visible;display:inline;overflow:visible;enable-background:accumulate" />
    <path
       d="M 807.75,216.1875 A 0.6875,0.6875 0 1 1 806.375,216.1875 A 0.6875,0.6875 0 1 1 807.75,216.1875 z"
       transform="matrix(1.4545187,0,0,1.4545383,-362.88749,-102.453)"
       id="path6073"
       style="fill:#bebebe;fill-opacity:1;stroke:none;stroke-width:1;marker:none;visibility:visible;display:inline;overflow:visible;enable-background:accumulate" />
    <path
       d="M 807.75,216.1875 A 0.6875,0.6875 0 1 1 806.375,216.1875 A 0.6875,0.6875 0 1 1 807.75,216.1875 z"
       transform="matrix(1.4545187,0,0,1.4545383,-362.88749,-105.453)"
       id="path6075"
       style="fill:#bebebe;fill-opacity:1;stroke:none;stroke-width:1;marker:none;visibility:visible;display:inline;overflow:visible;enable-background:accumulate" />
    <path
       d="M 807.75,216.1875 A 0.6875,0.6875 0 1 1 806.375,216.1875 A 0.6875,0.6875 0 1 1 807.75,216.1875 z"
       transform="matrix(1.4545187,0,0,1.4545383,-363.69999,-97.45301)"
       id="path6077"
       style="fill:#bebebe;fill-opacity:1;stroke:none;stroke-width:1;marker:none;visibility:visible;display:inline;overflow:visible;enable-background:accumulate" />
    <path
       d="M 807.75,216.1875 A 0.6875,0.6875 0 1 1 806.375,216.1875 A 0.6875,0.6875 0 1 1 807.75,216.1875 z"
       transform="matrix(1.4545187,0,0,1.4545383,-362.01249,-99.95301)"
       id="path6079"
       style="fill:#bebebe;fill-opacity:1;stroke:none;stroke-width:1;marker:none;visibility:visible;display:inline;overflow:visible;enable-background:accumulate" />
    <path
       d="M 807.75,216.1875 A 0.6875,0.6875 0 1 1 806.375,216.1875 A 0.6875,0.6875 0 1 1 807.75,216.1875 z"
       transform="matrix(1.4545187,0,0,1.4545383,-359.44999,-101.32801)"
       id="path6081"
       style="fill:#bebebe;fill-opacity:1;stroke:none;stroke-width:1;marker:none;visibility:visible;display:inline;overflow:visible;enable-background:accumulate" />
    <path
       d="M 807.75,216.1875 A 0.6875,0.6875 0 1 1 806.375,216.1875 A 0.6875,0.6875 0 1 1 807.75,216.1875 z"
       transform="matrix(1.4545187,0,0,1.4545383,-364.07499,-94.57801)"
       id="path6083"
       style="fill:#bebebe;fill-opacity:1;stroke:none;stroke-width:1;marker:none;visibility:visible;display:inline;overflow:visible;enable-background:accumulate" />
    <path
       d="M 810.39734,223.2766 A 6.5625,6.5625 0 0 1 819.90681,214.25352 L 815.375,219 z"
       transform="matrix(-0.8380952,0,0,-0.8380952,1488.3606,393.54286)"
       id="path6085"
       style="fill:#bebebe;fill-opacity:1;stroke:none;stroke-width:1.19318187;marker:none;visibility:visible;display:inline;overflow:visible;enable-background:accumulate" />
  </g>
  <g
     transform="translate(-798,-202.01932)"
     id="layer2" />
  <g
     transform="translate(-798,-202.01932)"
     id="layer8" />
  <g
     transform="translate(-798,-1154.3815)"
     id="layer1" />
  <g
     transform="translate(-798,-202.01932)"
     id="layer11" />
  <g
     transform="translate(-798,-202.01932)"
     id="layer4" />
  <g
     transform="translate(-798,-202.01932)"
     id="layer12" />
  <g
     transform="translate(-798,-202.01932)"
     id="layer9" />
  <g
     transform="translate(-798,-202.01932)"
     id="layer10" />
  <g
     transform="translate(-798,-202.01932)"
     id="layer6" />
</svg>
