<?xml version="1.0" encoding="UTF-8" standalone="no"?>
<!-- Created with Inkscape (http://www.inkscape.org/) -->
<svg
   xmlns:svg="http://www.w3.org/2000/svg"
   xmlns="http://www.w3.org/2000/svg"
   version="1.0"
   width="24"
   height="24"
   id="svg7384">
  <title
     id="title9167">Moblin Icon Theme</title>
  <defs
     id="defs7386" />
  <g
     transform="translate(-771,-174.01932)"
     id="layer3" />
  <g
     transform="translate(-771,-174.01932)"
     id="layer5" />
  <g
     transform="translate(-771,-174.01932)"
     id="layer7">
    <rect
       width="24"
       height="24"
       x="771"
       y="174.01932"
       id="rect7233"
       style="opacity:0;fill:#ffffff;fill-opacity:1;stroke:none;display:inline" />
    <rect
       width="2"
       height="15.559282"
       rx="1"
       ry="0.99999994"
       x="792"
       y="176.01932"
       id="rect2841"
       style="fill:#bebebe;fill-opacity:1;stroke:none;display:inline" />
    <path
       d="M 788.98999,186.02126 C 786.24092,186.02126 783.99006,188.27213 783.99006,191.02119 C 783.99006,193.77026 786.24092,196.02112 788.98999,196.02112 C 791.73905,196.02112 793.98992,193.77026 793.98992,191.02119 C 793.98992,188.27213 791.73905,186.02126 788.98999,186.02126 z M 788.98999,188.01077 C 790.65692,188.01077 792.00042,189.35426 792.00042,191.02119 C 792.00042,192.68813 790.65692,194.03162 788.98999,194.03162 C 787.32305,194.03162 786.00574,192.68813 786.00574,191.02119 C 786.00574,189.35426 787.32305,188.01077 788.98999,188.01077 z"
       id="path3603"
       style="fill:#bebebe;fill-opacity:1;stroke:none;stroke-width:2.38753414;stroke-linecap:round;stroke-miterlimit:4;stroke-dasharray:none;stroke-opacity:1;display:inline" />
    <rect
       width="2"
       height="15.999999"
       rx="1"
       ry="0.99999994"
       x="780"
       y="176.01932"
       id="rect3605"
       style="fill:#bebebe;fill-opacity:1;stroke:none;display:inline" />
    <rect
       width="2"
       height="14.000002"
       rx="1"
       ry="1"
       x="176.01935"
       y="-794"
       transform="matrix(0,1,-1,0,0,0)"
       id="rect3607"
       style="fill:#bebebe;fill-opacity:1;stroke:none;display:inline" />
    <path
       d="M 776.98999,186.02126 C 774.24092,186.02126 771.99006,188.27213 771.99006,191.02119 C 771.99006,193.77026 774.24092,196.02112 776.98999,196.02112 C 779.73905,196.02112 781.98992,193.77026 781.98992,191.02119 C 781.98992,188.27213 779.73905,186.02126 776.98999,186.02126 z M 776.98999,188.01077 C 778.65692,188.01077 780.00042,189.35426 780.00042,191.02119 C 780.00042,192.68813 778.65692,194.03162 776.98999,194.03162 C 775.32305,194.03162 774.00574,192.68813 774.00574,191.02119 C 774.00574,189.35426 775.32305,188.01077 776.98999,188.01077 z"
       id="path3609"
       style="fill:#bebebe;fill-opacity:1;stroke:none;stroke-width:2.38753414;stroke-linecap:round;stroke-miterlimit:4;stroke-dasharray:none;stroke-opacity:1;display:inline" />
  </g>
  <g
     transform="translate(-771,-174.01932)"
     id="layer2" />
  <g
     transform="translate(-771,-174.01932)"
     id="layer8" />
  <g
     transform="translate(-771,-1126.3815)"
     id="layer1" />
  <g
     transform="translate(-771,-174.01932)"
     id="layer11" />
  <g
     transform="translate(-771,-174.01932)"
     id="layer4" />
  <g
     transform="translate(-771,-174.01932)"
     id="layer12" />
  <g
     transform="translate(-771,-174.01932)"
     id="layer9" />
  <g
     transform="translate(-771,-174.01932)"
     id="layer10" />
  <g
     transform="translate(-771,-174.01932)"
     id="layer6" />
</svg>
