<?xml version="1.0" encoding="UTF-8" standalone="no"?>
<!-- Created with Inkscape (http://www.inkscape.org/) -->
<svg
   xmlns:svg="http://www.w3.org/2000/svg"
   xmlns="http://www.w3.org/2000/svg"
   version="1.0"
   width="24"
   height="24"
   id="svg7384">
  <defs
     id="defs7386" />
  <g
     transform="translate(-1003,-175.01932)"
     id="layer3" />
  <g
     transform="translate(-1003,-175.01932)"
     id="layer5" />
  <g
     transform="translate(-1003,-175.01932)"
     id="layer7">
    <rect
       width="24"
       height="24"
       x="1003"
       y="175.01932"
       id="rect7486"
       style="opacity:0;fill:#ffffff;fill-opacity:1;stroke:none;display:inline" />
    <path
       d="M 1014.4997,191.02101 C 1012.5786,191.02101 1011.0015,189.44054 1011.0015,187.51947 C 1011.0015,185.59841 1012.5786,184.01794 1014.4997,184.01794 C 1016.4207,184.01794 1018.0012,185.59841 1018.0012,187.51947 C 1018.0012,189.44054 1016.4207,191.02101 1014.4997,191.02101 z M 1014.4997,189.01868 C 1015.3386,189.01868 1015.9989,188.35841 1015.9989,187.51947 C 1015.9989,186.68054 1015.3386,186.02027 1014.4997,186.02027 C 1013.6607,186.02027 1013.0005,186.68054 1013.0005,187.51947 C 1013.0005,188.35841 1013.6607,189.01868 1014.4997,189.01868 z"
       id="path6532-9"
       style="fill:#bebebe;fill-opacity:1;stroke:none;stroke-width:18.38477516;stroke-linecap:round;stroke-miterlimit:4;stroke-dasharray:none;stroke-dashoffset:0;stroke-opacity:1;display:inline" />
    <path
       d="M 1006.4997,191.021 C 1004.5786,191.021 1003.0015,189.44052 1003.0015,187.51946 C 1003.0015,185.59839 1004.5786,184.01792 1006.4997,184.01792 C 1008.4207,184.01792 1010.0012,185.59839 1010.0012,187.51946 C 1010.0012,189.44052 1008.4207,191.021 1006.4997,191.021 z M 1006.4997,189.01866 C 1007.3386,189.01866 1007.9989,188.35839 1007.9989,187.51946 C 1007.9989,186.68052 1007.3386,186.02025 1006.4997,186.02025 C 1005.6607,186.02025 1005.0005,186.68052 1005.0005,187.51946 C 1005.0005,188.35839 1005.6607,189.01866 1006.4997,189.01866 z"
       id="path3624-98-1"
       style="fill:#bebebe;fill-opacity:1;stroke:none;stroke-width:18.38476562;stroke-linecap:round;stroke-miterlimit:4;stroke-dasharray:none;stroke-dashoffset:0;stroke-opacity:1;display:inline" />
    <rect
       width="6"
       height="2"
       rx="0.98780483"
       ry="0.98780483"
       x="-188.01932"
       y="1011"
       transform="matrix(0,-1,1,0,0,0)"
       id="rect3626-5-13-3"
       style="fill:#bebebe;fill-opacity:1;stroke:none;display:inline" />
    <rect
       width="4.5056"
       height="2"
       rx="0.98780489"
       ry="0.98780483"
       x="-191.01932"
       y="1007.9999"
       transform="matrix(0,-1,1,0,0,0)"
       id="rect3694-4-2"
       style="fill:#bebebe;fill-opacity:1;stroke:none;display:inline" />
    <path
       d="M 1022.4997,191.021 C 1020.5786,191.021 1019.0015,189.44053 1019.0015,187.51946 C 1019.0015,185.5984 1020.5786,184.01793 1022.4997,184.01793 C 1023.0526,184.01793 1023.5008,184.46617 1023.5008,185.01909 C 1023.5008,185.57202 1023.0526,186.02026 1022.4997,186.02026 C 1021.6607,186.02026 1021.0005,186.68053 1021.0005,187.51946 C 1021.0005,188.3584 1021.6607,189.01867 1022.4997,189.01867 C 1023.2517,189.01867 1023.8277,188.54318 1023.9717,187.80503 C 1024.0778,187.26242 1024.6036,186.90855 1025.1462,187.01463 C 1025.6888,187.12071 1026.0427,187.64657 1025.9366,188.18918 C 1025.617,189.82767 1024.1691,191.021 1022.4997,191.021 z"
       id="path7519"
       style="fill:#bebebe;fill-opacity:1;stroke:none;stroke-width:18.38477516;stroke-linecap:round;stroke-miterlimit:4;stroke-dasharray:none;stroke-dashoffset:0;stroke-opacity:1;display:inline" />
  </g>
  <g
     transform="translate(-1003,-175.01932)"
     id="layer2" />
  <g
     transform="translate(-1003,-175.01932)"
     id="layer8" />
  <g
     transform="translate(-1003,-1127.3815)"
     id="layer1" />
  <g
     transform="translate(-1003,-175.01932)"
     id="layer4" />
  <g
     transform="translate(-1003,-175.01932)"
     id="layer9" />
  <g
     transform="translate(-1003,-175.01932)"
     id="layer6" />
</svg>
