<?xml version="1.0" encoding="UTF-8" standalone="no"?>
<!-- Created with Inkscape (http://www.inkscape.org/) -->
<svg
   xmlns:svg="http://www.w3.org/2000/svg"
   xmlns="http://www.w3.org/2000/svg"
   version="1.0"
   width="24"
   height="24"
   id="svg7384">
  <defs
     id="defs7386" />
  <g
     transform="translate(-945,-175.01932)"
     id="layer3" />
  <g
     transform="translate(-945,-175.01932)"
     id="layer5" />
  <g
     transform="translate(-945,-175.01932)"
     id="layer7">
    <rect
       width="24"
       height="24"
       x="945"
       y="175.01932"
       id="rect8198"
       style="opacity:0;fill:#ffffff;fill-opacity:1;stroke:none;display:inline" />
    <path
       d="M -2.8284264,179.43886 A 22.98097,22.98097 0 1 1 -48.790367,179.43886 A 22.98097,22.98097 0 1 1 -2.8284264,179.43886 z"
       transform="matrix(6.52714e-2,0,0,-6.538932e-2,958.1844,197.25027)"
       id="path2809"
       style="fill:#cdcdcd;fill-opacity:1;stroke:none;display:inline" />
    <path
       d="M 950.03741,192.09716 C 949.74081,192.09328 949.46128,191.95733 949.27455,191.72614 C 946.26344,188.18548 946.22526,183.05738 949.18208,179.47098 C 952.51659,175.42646 958.52321,174.86235 962.55524,178.2072 C 966.58726,181.55204 967.14963,187.57728 963.81511,191.6218 C 963.59414,191.91681 963.22935,192.06606 962.86571,192.01023 C 962.50208,191.9544 962.19849,191.70254 962.0756,191.35473 C 961.95271,191.00692 962.03041,190.6195 962.27784,190.34642 C 964.92377,187.1371 964.48322,182.40337 961.28381,179.74924 C 958.08439,177.0951 953.3653,177.53702 950.71936,180.74635 C 948.3564,183.61243 948.38237,187.59804 950.78871,190.42758 C 951.0522,190.72294 951.11729,191.14638 950.95473,191.50763 C 950.79217,191.86889 950.43253,192.10002 950.03741,192.09716 L 950.03741,192.09716 z"
       id="path2823"
       style="fill:#bebebe;fill-opacity:1;stroke:none;stroke-width:5.39892864;stroke-linecap:round;stroke-miterlimit:4;stroke-dasharray:none;stroke-dashoffset:0;stroke-opacity:1;display:inline" />
    <path
       d="M 960.246,189.01151 C 959.87379,189.01262 959.53165,188.80797 959.35756,188.48008 C 959.18346,188.15219 959.20612,187.75513 959.4164,187.44903 C 960.48436,185.84171 960.04698,183.70441 958.4343,182.64 C 956.82161,181.5756 954.67715,182.01152 953.60919,183.61883 C 952.80389,184.83084 952.7959,186.20597 953.59089,187.42471 C 953.80544,187.72333 953.83816,188.11525 953.67608,188.44511 C 953.51401,188.77497 953.18331,188.9895 952.81507,189.00368 C 952.44683,189.01786 952.10051,188.82939 951.91339,188.51297 C 950.71255,186.67205 950.72137,184.34306 951.93779,182.51233 C 953.60422,180.00429 957.02807,179.31329 959.5445,180.97417 C 962.06092,182.63505 962.75424,186.04749 961.0878,188.55553 C 960.90304,188.84008 960.58606,189.01177 960.246,189.01151 L 960.246,189.01151 z"
       id="path8206"
       style="fill:#bebebe;fill-opacity:1;stroke:none;stroke-width:10.26299953;stroke-linecap:round;stroke-miterlimit:4;stroke-dasharray:none;stroke-dashoffset:0;stroke-opacity:1;display:inline" />
    <path
       d="M 956.49935,189.02177 C 954.02629,189.02177 952.00174,191.04632 952.00174,193.51938 C 951.98875,193.88493 952.17636,194.2284 952.49094,194.41503 C 952.80552,194.60165 953.1969,194.60165 953.51148,194.41503 C 953.82606,194.2284 954.01367,193.88493 954.00068,193.51938 C 954.00068,192.12844 955.10841,191.02071 956.49935,191.02071 C 957.89029,191.02071 958.99803,192.12844 958.99803,193.51938 C 958.99803,194.07269 959.44657,194.52123 959.99988,194.52123 C 960.55318,194.52123 961.00173,194.07269 961.00173,193.51938 C 961.00173,191.04632 958.97242,189.02177 956.49935,189.02177 z"
       id="path8212"
       style="fill:#bebebe;fill-opacity:1;stroke:none;stroke-width:13.13197136;stroke-linecap:round;stroke-miterlimit:4;stroke-dasharray:none;stroke-dashoffset:0;stroke-opacity:1;display:inline" />
    <rect
       width="5.6856318"
       height="2"
       rx="1"
       ry="1"
       x="192.33397"
       y="951.99982"
       transform="matrix(0,1,1,0,0,0)"
       id="rect2852-3-6"
       style="fill:#bebebe;fill-opacity:1;stroke:none;display:inline" />
    <rect
       width="9"
       height="2"
       rx="1"
       ry="1"
       x="-960.99982"
       y="196.01959"
       transform="scale(-1,1)"
       id="rect7750"
       style="fill:#bebebe;fill-opacity:1;stroke:none;display:inline" />
    <rect
       width="5.6533661"
       height="2"
       rx="1"
       ry="1"
       x="192.36624"
       y="958.99982"
       transform="matrix(0,1,1,0,0,0)"
       id="rect7752"
       style="fill:#bebebe;fill-opacity:1;stroke:none;display:inline" />
  </g>
  <g
     transform="translate(-945,-175.01932)"
     id="layer2" />
  <g
     transform="translate(-945,-175.01932)"
     id="layer8" />
  <g
     transform="translate(-945,-1127.3815)"
     id="layer1" />
  <g
     transform="translate(-945,-175.01932)"
     id="layer4" />
  <g
     transform="translate(-945,-175.01932)"
     id="layer9" />
  <g
     transform="translate(-945,-175.01932)"
     id="layer6" />
</svg>
