<?xml version="1.0" encoding="UTF-8" standalone="no"?>
<!-- Created with Inkscape (http://www.inkscape.org/) -->
<svg
   xmlns:svg="http://www.w3.org/2000/svg"
   xmlns="http://www.w3.org/2000/svg"
   version="1.0"
   width="24"
   height="24"
   id="svg7384">
  <title
     id="title9167">Moblin Icon Theme</title>
  <defs
     id="defs7386" />
  <g
     transform="translate(-944,-174)"
     id="layer3" />
  <g
     transform="translate(-944,-174)"
     id="layer5" />
  <g
     transform="translate(-944,-174)"
     id="layer7">
    <rect
       width="24"
       height="24"
       x="944"
       y="174"
       id="rect8198"
       style="opacity:0;fill:#ffffff;fill-opacity:1;stroke:none;display:inline" />
    <path
       d="M -2.8284264,179.43886 A 22.98097,22.98097 0 1 1 -48.790367,179.43886 A 22.98097,22.98097 0 1 1 -2.8284264,179.43886 z"
       transform="matrix(6.52714e-2,0,0,-6.538932e-2,957.1844,196.23095)"
       id="path2809"
       style="fill:#cdcdcd;fill-opacity:1;stroke:none;display:inline" />
    <path
       d="M 949.03741,191.07784 C 948.74081,191.07396 948.46128,190.93801 948.27455,190.70682 C 945.26344,187.16616 945.22526,182.03806 948.18208,178.45166 C 951.51659,174.40714 957.52321,173.84303 961.55524,177.18788 C 965.58726,180.53272 966.14963,186.55796 962.81511,190.60248 C 962.59414,190.89749 962.22935,191.04674 961.86571,190.99091 C 961.50208,190.93508 961.19849,190.68322 961.0756,190.33541 C 960.95271,189.9876 961.03041,189.60018 961.27784,189.3271 C 963.92377,186.11778 963.48322,181.38405 960.28381,178.72992 C 957.08439,176.07578 952.3653,176.5177 949.71936,179.72703 C 947.3564,182.59311 947.38237,186.57872 949.78871,189.40826 C 950.0522,189.70362 950.11729,190.12706 949.95473,190.48831 C 949.79217,190.84957 949.43253,191.0807 949.03741,191.07784 L 949.03741,191.07784 z"
       id="path2823"
       style="fill:#bebebe;fill-opacity:1;stroke:none;stroke-width:5.39892864;stroke-linecap:round;stroke-miterlimit:4;stroke-dasharray:none;stroke-dashoffset:0;stroke-opacity:1;display:inline" />
    <path
       d="M 959.246,187.99219 C 958.87379,187.9933 958.53165,187.78865 958.35756,187.46076 C 958.18346,187.13287 958.20612,186.73581 958.4164,186.42971 C 959.48436,184.82239 959.04698,182.68509 957.4343,181.62068 C 955.82161,180.55628 953.67715,180.9922 952.60919,182.59951 C 951.80389,183.81152 951.7959,185.18665 952.59089,186.40539 C 952.80544,186.70401 952.83816,187.09593 952.67608,187.42579 C 952.51401,187.75565 952.18331,187.97018 951.81507,187.98436 C 951.44683,187.99854 951.10051,187.81007 950.91339,187.49365 C 949.71255,185.65273 949.72137,183.32374 950.93779,181.49301 C 952.60422,178.98497 956.02807,178.29397 958.5445,179.95485 C 961.06092,181.61573 961.75424,185.02817 960.0878,187.53621 C 959.90304,187.82076 959.58606,187.99245 959.246,187.99219 L 959.246,187.99219 z"
       id="path8206"
       style="fill:#bebebe;fill-opacity:1;stroke:none;stroke-width:10.26299953;stroke-linecap:round;stroke-miterlimit:4;stroke-dasharray:none;stroke-dashoffset:0;stroke-opacity:1;display:inline" />
    <path
       d="M 955.49935,188.00245 C 953.02629,188.00245 951.00174,190.027 951.00174,192.50006 C 950.98875,192.86561 951.17636,193.20908 951.49094,193.39571 C 951.80552,193.58233 952.1969,193.58233 952.51148,193.39571 C 952.82606,193.20908 953.01367,192.86561 953.00068,192.50006 C 953.00068,191.10912 954.10841,190.00139 955.49935,190.00139 C 956.89029,190.00139 957.99803,191.10912 957.99803,192.50006 C 957.99803,193.05337 958.44657,193.50191 958.99988,193.50191 C 959.55318,193.50191 960.00173,193.05337 960.00173,192.50006 C 960.00173,190.027 957.97242,188.00245 955.49935,188.00245 z"
       id="path8212"
       style="fill:#bebebe;fill-opacity:1;stroke:none;stroke-width:13.13197136;stroke-linecap:round;stroke-miterlimit:4;stroke-dasharray:none;stroke-dashoffset:0;stroke-opacity:1;display:inline" />
    <rect
       width="5.9999933"
       height="2"
       rx="1"
       ry="1"
       x="192"
       y="951"
       transform="matrix(0,1,1,0,0,0)"
       id="rect2852-3-6"
       style="fill:#bebebe;fill-opacity:1;stroke:none;display:inline" />
    <rect
       width="9"
       height="2"
       rx="1"
       ry="1"
       x="-960"
       y="195.99998"
       transform="scale(-1,1)"
       id="rect7750"
       style="fill:#bebebe;fill-opacity:1;stroke:none;display:inline" />
    <rect
       width="6.0283661"
       height="2.0000389"
       rx="1"
       ry="1"
       x="191.97163"
       y="958"
       transform="matrix(0,1,1,0,0,0)"
       id="rect7752"
       style="fill:#bebebe;fill-opacity:1;stroke:none;display:inline" />
  </g>
  <g
     transform="translate(-944,-174)"
     id="layer2" />
  <g
     transform="translate(-944,-174)"
     id="layer8" />
  <g
     transform="translate(-944,-1126.3622)"
     id="layer1" />
  <g
     transform="translate(-944,-174)"
     id="layer11" />
  <g
     transform="translate(-944,-174)"
     id="layer4" />
  <g
     transform="translate(-944,-174)"
     id="layer12" />
  <g
     transform="translate(-944,-174)"
     id="layer9" />
  <g
     transform="translate(-944,-174)"
     id="layer10" />
  <g
     transform="translate(-944,-174)"
     id="layer6" />
</svg>
