<?xml version="1.0" encoding="UTF-8" standalone="no"?>
<!-- Created with Inkscape (http://www.inkscape.org/) -->
<svg
   xmlns:svg="http://www.w3.org/2000/svg"
   xmlns="http://www.w3.org/2000/svg"
   version="1.0"
   width="24"
   height="24.025078"
   id="svg7384">
  <title
     id="title9167">Moblin Icon Theme</title>
  <defs
     id="defs7386" />
  <g
     transform="translate(-772,-201.99424)"
     id="layer3" />
  <g
     transform="translate(-772,-201.99424)"
     id="layer5" />
  <g
     transform="translate(-772,-201.99424)"
     id="layer7">
    <rect
       width="24"
       height="24"
       x="772"
       y="202.01932"
       id="rect6089"
       style="opacity:0;fill:#ffffff;fill-opacity:1;stroke:none;display:inline" />
    <g
       transform="translate(-86,27)"
       id="use6091">
      <path
         d="M 861.0615,175.99424 L 871.0052,175.99424 L 877.05979,182.00464 L 877.01559,196.0142 L 861.0173,196.0142 L 861.0615,175.99424 L 861.0615,175.99424 z"
         id="path12323"
         style="fill:none;stroke:#bebebe;stroke-width:2;stroke-linecap:butt;stroke-linejoin:round;stroke-miterlimit:4;stroke-dasharray:none;stroke-opacity:1" />
      <path
         d="M 870,176.24518 L 870,182.9558 L 877.10837,183 L 870,176.24518 z"
         id="path12325"
         style="fill:#bebebe;fill-opacity:1;stroke:none" />
    </g>
    <path
       d="M 778.08265,214.60691 C 777.88741,214.80219 777.88741,215.11875 778.08265,215.31402 L 782.61255,219.84392 C 782.80782,220.03916 783.12438,220.03916 783.31965,219.84392 L 787.84956,215.31402 C 788.04479,215.11875 788.04479,214.80219 787.84956,214.60691 L 783.31965,210.07701 C 783.12438,209.88178 782.80782,209.88178 782.61255,210.07701 L 778.08265,214.60691 z M 779.14331,214.96047 L 782.9661,211.13767 L 786.7889,214.96047 L 782.9661,218.78326 L 779.14331,214.96047 z"
       id="rect6042-5"
       style="fill:#bebebe;fill-opacity:1;stroke:none;stroke-width:1;stroke-linecap:round;stroke-linejoin:round;marker:none;stroke-miterlimit:4;stroke-dasharray:none;stroke-dashoffset:0;stroke-opacity:1;visibility:visible;display:inline;overflow:visible;enable-background:accumulate" />
    <path
       d="M 810.39734,223.2766 A 6.5625,6.5625 0 0 1 819.90681,214.25352 L 815.375,219 z"
       transform="matrix(-0.489472,0,0,-0.489472,1179.6723,319.77431)"
       id="path6085-3"
       style="fill:#bebebe;fill-opacity:1;stroke:none;stroke-width:1.19318187;marker:none;visibility:visible;display:inline;overflow:visible;enable-background:accumulate" />
  </g>
  <g
     transform="translate(-772,-201.99424)"
     id="layer2" />
  <g
     transform="translate(-772,-201.99424)"
     id="layer8" />
  <g
     transform="translate(-772,-1154.3564)"
     id="layer1" />
  <g
     transform="translate(-772,-201.99424)"
     id="layer11" />
  <g
     transform="translate(-772,-201.99424)"
     id="layer4" />
  <g
     transform="translate(-772,-201.99424)"
     id="layer12" />
  <g
     transform="translate(-772,-201.99424)"
     id="layer9" />
  <g
     transform="translate(-772,-201.99424)"
     id="layer10" />
  <g
     transform="translate(-772,-201.99424)"
     id="layer6" />
</svg>
