<?xml version="1.0" encoding="UTF-8" standalone="no"?>
<!-- Created with Inkscape (http://www.inkscape.org/) -->
<svg
   xmlns:svg="http://www.w3.org/2000/svg"
   xmlns="http://www.w3.org/2000/svg"
   version="1.0"
   width="24"
   height="24.025078"
   id="svg7384">
  <defs
     id="defs7386" />
  <g
     transform="translate(-886,-201.99424)"
     id="layer3" />
  <g
     transform="translate(-886,-201.99424)"
     id="layer5" />
  <g
     transform="translate(-886,-201.99424)"
     id="layer7">
    <rect
       width="24"
       height="24"
       x="886"
       y="202.01932"
       id="rect8186"
       style="opacity:0;fill:#ffffff;fill-opacity:1;stroke:none;display:inline" />
    <g
       transform="translate(28,27)"
       id="use8188">
      <path
         d="M 861.0615,175.99424 L 871.0052,175.99424 L 877.05979,182.00464 L 877.01559,196.0142 L 861.0173,196.0142 L 861.0615,175.99424 L 861.0615,175.99424 z"
         id="path9009"
         style="fill:none;stroke:#bebebe;stroke-width:2;stroke-linecap:butt;stroke-linejoin:round;stroke-miterlimit:4;stroke-dasharray:none;stroke-opacity:1" />
      <path
         d="M 870,176.24518 L 870,182.9558 L 877.10837,183 L 870,176.24518 z"
         id="path9011"
         style="fill:#bebebe;fill-opacity:1;stroke:none" />
    </g>
    <path
       d="M 895.99267,204.03309 L 891.03331,222.05276 L 889.97691,222.06426 L 889.98191,204.03304 L 895.99232,204.03304 L 895.99267,204.03309 z"
       id="path8200"
       style="opacity:0.5;fill:#bebebe;fill-opacity:1;stroke:none;stroke-width:1px;stroke-linecap:butt;stroke-linejoin:miter;stroke-opacity:1" />
    <path
       d="M 896.0811,205.13794 A 0.9722718,0.92807764 0 1 1 894.13655,205.13794 A 0.9722718,0.92807764 0 1 1 896.0811,205.13794 z"
       transform="matrix(0.5142656,0,0,0.5387481,436.17632,96.982335)"
       id="path8202"
       style="fill:#bebebe;fill-opacity:1;fill-rule:nonzero;stroke:none;stroke-width:2;marker:none;visibility:visible;display:inline;overflow:visible;enable-background:accumulate" />
    <path
       d="M 896.0811,205.13794 A 0.9722718,0.92807764 0 1 1 894.13655,205.13794 A 0.9722718,0.92807764 0 1 1 896.0811,205.13794 z"
       transform="matrix(0.5142656,0,0,0.5387481,436.17632,94.982335)"
       id="path8219"
       style="fill:#bebebe;fill-opacity:1;fill-rule:nonzero;stroke:none;stroke-width:2;marker:none;visibility:visible;display:inline;overflow:visible;enable-background:accumulate" />
    <path
       d="M 896.0811,205.13794 A 0.9722718,0.92807764 0 1 1 894.13655,205.13794 A 0.9722718,0.92807764 0 1 1 896.0811,205.13794 z"
       transform="matrix(0.5142656,0,0,0.5387481,436.17632,98.982335)"
       id="path8221"
       style="fill:#bebebe;fill-opacity:1;fill-rule:nonzero;stroke:none;stroke-width:2;marker:none;visibility:visible;display:inline;overflow:visible;enable-background:accumulate" />
    <path
       d="M 896.0811,205.13794 A 0.9722718,0.92807764 0 1 1 894.13655,205.13794 A 0.9722718,0.92807764 0 1 1 896.0811,205.13794 z"
       transform="matrix(0.5142656,0,0,0.5387481,436.17632,100.98234)"
       id="path8223"
       style="fill:#bebebe;fill-opacity:1;fill-rule:nonzero;stroke:none;stroke-width:2;marker:none;visibility:visible;display:inline;overflow:visible;enable-background:accumulate" />
    <path
       d="M 896.0811,205.13794 A 0.9722718,0.92807764 0 1 1 894.13655,205.13794 A 0.9722718,0.92807764 0 1 1 896.0811,205.13794 z"
       transform="matrix(0.5142656,0,0,0.5387481,436.17632,102.98234)"
       id="path8225"
       style="fill:#bebebe;fill-opacity:1;fill-rule:nonzero;stroke:none;stroke-width:2;marker:none;visibility:visible;display:inline;overflow:visible;enable-background:accumulate" />
    <path
       d="M 896.0811,205.13794 A 0.9722718,0.92807764 0 1 1 894.13655,205.13794 A 0.9722718,0.92807764 0 1 1 896.0811,205.13794 z"
       transform="matrix(0.5142656,0,0,0.5387481,436.17633,104.98234)"
       id="path8229"
       style="fill:#bebebe;fill-opacity:1;fill-rule:nonzero;stroke:none;stroke-width:2;marker:none;visibility:visible;display:inline;overflow:visible;enable-background:accumulate" />
    <path
       d="M 896.0811,205.13794 A 0.9722718,0.92807764 0 1 1 894.13655,205.13794 A 0.9722718,0.92807764 0 1 1 896.0811,205.13794 z"
       transform="matrix(0.5142656,0,0,0.5387481,436.17633,106.98234)"
       id="path8231"
       style="fill:#bebebe;fill-opacity:1;fill-rule:nonzero;stroke:none;stroke-width:2;marker:none;visibility:visible;display:inline;overflow:visible;enable-background:accumulate" />
    <path
       d="M 896.0811,205.13794 A 0.9722718,0.92807764 0 1 1 894.13655,205.13794 A 0.9722718,0.92807764 0 1 1 896.0811,205.13794 z"
       transform="matrix(0.5142656,0,0,0.5387481,436.17633,108.98234)"
       id="path8233"
       style="fill:#bebebe;fill-opacity:1;fill-rule:nonzero;stroke:none;stroke-width:2;marker:none;visibility:visible;display:inline;overflow:visible;enable-background:accumulate" />
    <path
       d="M 896.0811,205.13794 A 0.9722718,0.92807764 0 1 1 894.13655,205.13794 A 0.9722718,0.92807764 0 1 1 896.0811,205.13794 z"
       transform="matrix(0.5142656,0,0,0.5387481,436.17633,110.98234)"
       id="path8235"
       style="fill:#bebebe;fill-opacity:1;fill-rule:nonzero;stroke:none;stroke-width:2;marker:none;visibility:visible;display:inline;overflow:visible;enable-background:accumulate" />
    <path
       d="M 896.0811,205.13794 A 0.9722718,0.92807764 0 1 1 894.13655,205.13794 A 0.9722718,0.92807764 0 1 1 896.0811,205.13794 z"
       transform="matrix(0.5142656,0,0,0.5387481,434.17635,98.982335)"
       id="path8237"
       style="fill:#bebebe;fill-opacity:1;fill-rule:nonzero;stroke:none;stroke-width:2;marker:none;visibility:visible;display:inline;overflow:visible;enable-background:accumulate" />
    <path
       d="M 896.0811,205.13794 A 0.9722718,0.92807764 0 1 1 894.13655,205.13794 A 0.9722718,0.92807764 0 1 1 896.0811,205.13794 z"
       transform="matrix(0.5142656,0,0,0.5387481,433.17633,102.98234)"
       id="path8239"
       style="fill:#bebebe;fill-opacity:1;fill-rule:nonzero;stroke:none;stroke-width:2;marker:none;visibility:visible;display:inline;overflow:visible;enable-background:accumulate" />
    <path
       d="M 896.0811,205.13794 A 0.9722718,0.92807764 0 1 1 894.13655,205.13794 A 0.9722718,0.92807764 0 1 1 896.0811,205.13794 z"
       transform="matrix(0.5142656,0,0,0.5387481,432.17635,106.98234)"
       id="path8241"
       style="fill:#bebebe;fill-opacity:1;fill-rule:nonzero;stroke:none;stroke-width:2;marker:none;visibility:visible;display:inline;overflow:visible;enable-background:accumulate" />
    <path
       d="M 896.0811,205.13794 A 0.9722718,0.92807764 0 1 1 894.13655,205.13794 A 0.9722718,0.92807764 0 1 1 896.0811,205.13794 z"
       transform="matrix(0.5142656,0,0,0.5387481,431.17633,110.98234)"
       id="path8243"
       style="fill:#bebebe;fill-opacity:1;fill-rule:nonzero;stroke:none;stroke-width:2;marker:none;visibility:visible;display:inline;overflow:visible;enable-background:accumulate" />
    <path
       d="M 896.0811,205.13794 A 0.9722718,0.92807764 0 1 1 894.13655,205.13794 A 0.9722718,0.92807764 0 1 1 896.0811,205.13794 z"
       transform="matrix(-0.5142656,0,0,0.5387481,1359.8534,102.98234)"
       id="path8249"
       style="fill:#bebebe;fill-opacity:1;fill-rule:nonzero;stroke:none;stroke-width:2;marker:none;visibility:visible;display:inline;overflow:visible;enable-background:accumulate" />
    <path
       d="M 896.0811,205.13794 A 0.9722718,0.92807764 0 1 1 894.13655,205.13794 A 0.9722718,0.92807764 0 1 1 896.0811,205.13794 z"
       transform="matrix(-0.5142656,0,0,0.5387481,1360.8533,106.98234)"
       id="path8251"
       style="fill:#bebebe;fill-opacity:1;fill-rule:nonzero;stroke:none;stroke-width:2;marker:none;visibility:visible;display:inline;overflow:visible;enable-background:accumulate" />
    <path
       d="M 896.0811,205.13794 A 0.9722718,0.92807764 0 1 1 894.13655,205.13794 A 0.9722718,0.92807764 0 1 1 896.0811,205.13794 z"
       transform="matrix(-0.5142656,0,0,0.5387481,1361.8534,110.98234)"
       id="path8253"
       style="fill:#bebebe;fill-opacity:1;fill-rule:nonzero;stroke:none;stroke-width:2;marker:none;visibility:visible;display:inline;overflow:visible;enable-background:accumulate" />
  </g>
  <g
     transform="translate(-886,-201.99424)"
     id="layer2" />
  <g
     transform="translate(-886,-201.99424)"
     id="layer8" />
  <g
     transform="translate(-886,-1154.3564)"
     id="layer1" />
  <g
     transform="translate(-886,-201.99424)"
     id="layer4" />
  <g
     transform="translate(-886,-201.99424)"
     id="layer9" />
  <g
     transform="translate(-886,-201.99424)"
     id="layer6" />
</svg>
