<?xml version="1.0" encoding="UTF-8" standalone="no"?>
<!-- Created with Inkscape (http://www.inkscape.org/) -->
<svg
   xmlns:svg="http://www.w3.org/2000/svg"
   xmlns="http://www.w3.org/2000/svg"
   version="1.0"
   width="24"
   height="24.025078"
   id="svg7384">
  <defs
     id="defs7386" />
  <g
     transform="translate(-858,-201.99424)"
     id="layer3" />
  <g
     transform="translate(-858,-201.99424)"
     id="layer5" />
  <g
     transform="translate(-858,-201.99424)"
     id="layer7">
    <rect
       width="24"
       height="24"
       x="858"
       y="202.01932"
       id="rect8091"
       style="opacity:0;fill:#ffffff;fill-opacity:1;stroke:none;display:inline" />
    <g
       transform="translate(0,27)"
       id="use8126">
      <path
         d="M 861.0615,175.99424 L 871.0052,175.99424 L 877.05979,182.00464 L 877.01559,196.0142 L 861.0173,196.0142 L 861.0615,175.99424 L 861.0615,175.99424 z"
         id="path9000"
         style="fill:none;stroke:#bebebe;stroke-width:2;stroke-linecap:butt;stroke-linejoin:round;stroke-miterlimit:4;stroke-dasharray:none;stroke-opacity:1" />
      <path
         d="M 870,176.24518 L 870,182.9558 L 877.10837,183 L 870,176.24518 z"
         id="path9002"
         style="fill:#bebebe;fill-opacity:1;stroke:none" />
    </g>
    <path
       d="M 863.40625,206 C 863.13011,206.02589 862.92724,206.27073 862.95313,206.54687 C 862.97901,206.82302 863.22386,207.02589 863.5,207 L 868.03125,207 C 868.21157,207.00255 868.37929,206.90781 868.47019,206.75206 C 868.5611,206.59631 868.5611,206.40369 868.47019,206.24794 C 868.37929,206.09219 868.21157,205.99745 868.03125,206 L 863.5,206 C 863.46882,205.99706 863.43743,205.99706 863.40625,206 z"
       id="path8100-5"
       style="fill:#bebebe;fill-opacity:1;stroke:none;stroke-width:1px;stroke-linecap:round;stroke-linejoin:miter;stroke-opacity:1" />
    <path
       d="M 863.40625,209 C 863.13011,209.02589 862.92724,209.27073 862.95313,209.54687 C 862.97901,209.82302 863.22386,210.02589 863.5,210 L 868.03125,210 C 868.21157,210.00255 868.37929,209.90781 868.47019,209.75206 C 868.5611,209.59631 868.5611,209.40369 868.47019,209.24794 C 868.37929,209.09219 868.21157,208.99745 868.03125,209 L 863.5,209 C 863.46882,208.99706 863.43743,208.99706 863.40625,209 z"
       id="path8106-0"
       style="fill:#bebebe;fill-opacity:1;stroke:none;stroke-width:1px;stroke-linecap:round;stroke-linejoin:miter;stroke-opacity:1" />
    <path
       d="M 863.40625,212 C 863.13011,212.02589 862.92724,212.27073 862.95313,212.54687 C 862.97901,212.82302 863.22386,213.02589 863.5,213 L 874.5,213 C 874.68032,213.00255 874.84804,212.90781 874.93894,212.75206 C 875.02985,212.59631 875.02985,212.40369 874.93894,212.24794 C 874.84804,212.09219 874.68032,211.99745 874.5,212 L 863.5,212 C 863.46882,211.99706 863.43743,211.99706 863.40625,212 z"
       id="path8110-4"
       style="fill:#bebebe;fill-opacity:1;stroke:none;stroke-width:1px;stroke-linecap:round;stroke-linejoin:miter;stroke-opacity:1" />
    <path
       d="M 863.4375,218 C 863.16136,218.02589 862.95849,218.27073 862.98437,218.54688 C 863.01026,218.82302 863.25511,219.02589 863.53125,219 L 874.5,219 C 874.68032,219.00255 874.84804,218.90781 874.93894,218.75206 C 875.02984,218.59631 875.02984,218.40369 874.93894,218.24794 C 874.84804,218.09219 874.68032,217.99745 874.5,218 L 863.53125,218 C 863.50007,217.99706 863.46868,217.99706 863.4375,218 z"
       id="path8114-7"
       style="fill:#bebebe;fill-opacity:1;stroke:none;stroke-width:0.99999994px;stroke-linecap:round;stroke-linejoin:miter;stroke-opacity:1" />
    <path
       d="M 863.4375,215 C 863.16136,215.02589 862.95849,215.27073 862.98437,215.54688 C 863.01026,215.82302 863.25511,216.02589 863.53125,216 L 874.5,216 C 874.68032,216.00255 874.84804,215.90781 874.93894,215.75206 C 875.02985,215.59631 875.02985,215.40369 874.93894,215.24794 C 874.84804,215.09219 874.68032,214.99745 874.5,215 L 863.53125,215 C 863.50007,214.99706 863.46868,214.99706 863.4375,215 z"
       id="path8118-7"
       style="fill:#bebebe;fill-opacity:1;stroke:none;stroke-width:1px;stroke-linecap:round;stroke-linejoin:miter;stroke-opacity:1" />
  </g>
  <g
     transform="translate(-858,-201.99424)"
     id="layer2" />
  <g
     transform="translate(-858,-201.99424)"
     id="layer8" />
  <g
     transform="translate(-858,-1154.3564)"
     id="layer1" />
  <g
     transform="translate(-858,-201.99424)"
     id="layer4" />
  <g
     transform="translate(-858,-201.99424)"
     id="layer9" />
  <g
     transform="translate(-858,-201.99424)"
     id="layer6" />
</svg>
