<?xml version="1.0" encoding="UTF-8" standalone="no"?>
<!-- Created with Inkscape (http://www.inkscape.org/) -->
<svg
   xmlns:svg="http://www.w3.org/2000/svg"
   xmlns="http://www.w3.org/2000/svg"
   version="1.0"
   width="24"
   height="24.038626"
   id="svg7384">
  <title
     id="title9167">Moblin Icon Theme</title>
  <defs
     id="defs7386" />
  <g
     transform="translate(-800,-173.98068)"
     id="layer3" />
  <g
     transform="translate(-800,-173.98068)"
     id="layer5" />
  <g
     transform="translate(-800,-173.98068)"
     id="layer7">
    <rect
       width="24"
       height="24"
       x="800"
       y="173.98068"
       id="rect7213"
       style="opacity:0;fill:#ffffff;fill-opacity:1;stroke:none;display:inline" />
    <rect
       width="2"
       height="17"
       rx="1"
       ry="1"
       x="819.0528"
       y="178.01932"
       id="rect2827"
       style="fill:#bebebe;fill-opacity:1;stroke:none;display:inline" />
    <rect
       width="2"
       height="16.80867"
       rx="1"
       ry="1"
       x="803.0528"
       y="178.01932"
       id="rect2829-2"
       style="fill:#bebebe;fill-opacity:1;stroke:none;display:inline" />
    <rect
       width="2"
       height="8.7101784"
       rx="0"
       ry="0"
       x="807.0528"
       y="182.01932"
       id="rect2833-10"
       style="fill:#bebebe;fill-opacity:1;stroke:none;display:inline" />
    <rect
       width="2"
       height="10"
       rx="0"
       ry="0"
       x="-184.01932"
       y="807.0528"
       transform="matrix(0,-1,1,0,0,0)"
       id="rect2837-22"
       style="fill:#bebebe;fill-opacity:1;stroke:none;display:inline" />
    <rect
       width="2"
       height="9"
       rx="0"
       ry="0"
       x="-191.01932"
       y="807.0528"
       transform="matrix(0,-1,1,0,0,0)"
       id="rect2839"
       style="fill:#bebebe;fill-opacity:1;stroke:none;display:inline" />
    <rect
       width="2"
       height="9"
       rx="0"
       ry="0"
       x="815.0528"
       y="182.01932"
       id="rect2835-8"
       style="fill:#bebebe;fill-opacity:1;stroke:none;display:inline" />
    <rect
       width="2"
       height="10.05373"
       rx="1"
       ry="0.99999994"
       x="-180.01932"
       y="806.99908"
       transform="matrix(0,-1,1,0,0,0)"
       id="rect2841-3"
       style="fill:#bebebe;fill-opacity:1;stroke:none;display:inline" />
    <path
       d="M 816.12096,180.00395 C 815.56921,179.98924 815.1337,179.53031 815.14786,178.97854 C 815.16189,177.78553 815.39354,176.70321 815.86984,175.60931 C 816.09232,175.10367 816.68259,174.87412 817.18823,175.0966 C 817.69388,175.31909 817.92343,175.90935 817.70094,176.415 C 817.31603,177.29903 817.15771,178.03534 817.14638,178.99946 C 817.14765,179.26991 817.03934,179.52935 816.84614,179.71861 C 816.65294,179.90786 816.39133,180.0108 816.12096,180.00395 z"
       id="path2793"
       style="fill:#bebebe;fill-opacity:1;stroke:none;stroke-width:5.97317934;stroke-linecap:round;stroke-miterlimit:4;stroke-dasharray:none;stroke-dashoffset:0;stroke-opacity:1;display:inline" />
    <path
       d="M 804.03497,180.34724 C 803.48326,180.33817 803.04313,179.884 803.0514,179.33228 C 803.0514,177.98393 803.33265,176.75828 803.91987,175.54452 C 804.06509,175.2067 804.38397,174.97581 804.75024,174.9433 C 805.11651,174.91078 805.47108,175.08188 805.67354,175.38884 C 805.876,175.6958 805.89368,176.0891 805.71958,176.41298 C 805.24551,177.39288 805.04992,178.24373 805.04992,179.33228 C 805.05397,179.60268 804.94834,179.8632 804.75711,180.05442 C 804.56589,180.24565 804.30537,180.35128 804.03497,180.34724 z"
       id="path2797"
       style="fill:#bebebe;fill-opacity:1;stroke:none;stroke-width:5.97317934;stroke-linecap:round;stroke-miterlimit:4;stroke-dasharray:none;stroke-dashoffset:0;stroke-opacity:1;display:inline" />
    <path
       d="M 808.00794,179.98102 C 807.74284,179.96596 807.49461,179.84611 807.31796,179.64787 C 807.14131,179.44963 807.05074,179.18928 807.06623,178.92421 C 807.12278,177.71787 807.39828,176.63164 807.92423,175.54452 C 808.06945,175.2067 808.38833,174.97581 808.7546,174.9433 C 809.12087,174.91078 809.47544,175.08188 809.6779,175.38884 C 809.88036,175.6958 809.89804,176.0891 809.72394,176.41298 C 809.29893,177.29146 809.11044,178.04356 809.06474,179.01838 C 809.05511,179.28719 808.9376,179.54078 808.73875,179.72191 C 808.5399,179.90304 808.27647,179.99644 808.00794,179.98102 z"
       id="path3615"
       style="fill:#bebebe;fill-opacity:1;stroke:none;stroke-width:5.97317934;stroke-linecap:round;stroke-miterlimit:4;stroke-dasharray:none;stroke-dashoffset:0;stroke-opacity:1;display:inline" />
    <path
       d="M 820.02825,179.98478 C 819.4765,179.97007 819.04099,179.51114 819.05515,178.95937 C 819.06918,177.76636 819.30083,176.68404 819.77713,175.59014 C 819.99961,175.0845 820.58988,174.85495 821.09552,175.07743 C 821.60117,175.29992 821.83072,175.89018 821.60823,176.39583 C 821.22332,177.27986 821.065,178.01617 821.05367,178.98029 C 821.05494,179.25074 820.94663,179.51018 820.75343,179.69944 C 820.56023,179.88869 820.29862,179.99163 820.02825,179.98478 z"
       id="path3617"
       style="fill:#bebebe;fill-opacity:1;stroke:none;stroke-width:5.97317934;stroke-linecap:round;stroke-miterlimit:4;stroke-dasharray:none;stroke-dashoffset:0;stroke-opacity:1;display:inline" />
    <rect
       width="2"
       height="9.9502506"
       rx="1"
       ry="1"
       x="193.00305"
       y="-816.95703"
       transform="matrix(0,1,-1,0,0,0)"
       id="rect3619"
       style="fill:#bebebe;fill-opacity:1;stroke:none;display:inline" />
    <path
       d="M 808.03136,193.02626 C 808.58311,193.04097 809.01862,193.4999 809.00446,194.05167 C 808.99043,195.24468 808.75878,196.327 808.28248,197.4209 C 808.06,197.92654 807.46973,198.15609 806.96409,197.93361 C 806.45844,197.71112 806.22889,197.12086 806.45138,196.61521 C 806.83629,195.73118 806.99461,194.99487 807.00594,194.03075 C 807.00467,193.7603 807.11298,193.50086 807.30618,193.3116 C 807.49938,193.12235 807.76099,193.01941 808.03136,193.02626 z"
       id="path3621"
       style="fill:#bebebe;fill-opacity:1;stroke:none;stroke-width:5.97317934;stroke-linecap:round;stroke-miterlimit:4;stroke-dasharray:none;stroke-dashoffset:0;stroke-opacity:1;display:inline" />
    <path
       d="M 820.04351,192.63652 C 820.59522,192.64559 821.03535,193.09976 821.02708,193.65148 C 821.02708,194.99983 820.74583,196.22548 820.15861,197.43924 C 820.01339,197.77706 819.69451,198.00795 819.32824,198.04046 C 818.96197,198.07298 818.6074,197.90188 818.40494,197.59492 C 818.20248,197.28796 818.1848,196.89466 818.3589,196.57078 C 818.83297,195.59088 819.02856,194.74003 819.02856,193.65148 C 819.02451,193.38108 819.13014,193.12056 819.32137,192.92934 C 819.51259,192.73811 819.77311,192.63248 820.04351,192.63652 z"
       id="path3623"
       style="fill:#bebebe;fill-opacity:1;stroke:none;stroke-width:5.97317934;stroke-linecap:round;stroke-miterlimit:4;stroke-dasharray:none;stroke-dashoffset:0;stroke-opacity:1;display:inline" />
    <path
       d="M 816.07053,193.00275 C 816.33563,193.0178 816.58386,193.13765 816.76051,193.33589 C 816.93716,193.53413 817.02773,193.79448 817.01224,194.05955 C 816.95569,195.26589 816.68019,196.35212 816.15424,197.43924 C 816.00902,197.77706 815.69014,198.00795 815.32387,198.04046 C 814.9576,198.07298 814.60303,197.90188 814.40057,197.59492 C 814.19811,197.28796 814.18043,196.89466 814.35453,196.57078 C 814.77954,195.6923 814.96803,194.9402 815.01373,193.96538 C 815.02336,193.69657 815.14087,193.44298 815.33972,193.26185 C 815.53857,193.08072 815.802,192.98732 816.07053,193.00275 z"
       id="path3625"
       style="fill:#bebebe;fill-opacity:1;stroke:none;stroke-width:5.97317934;stroke-linecap:round;stroke-miterlimit:4;stroke-dasharray:none;stroke-dashoffset:0;stroke-opacity:1;display:inline" />
    <path
       d="M 804.05023,192.99897 C 804.60198,193.01368 805.03749,193.47261 805.02333,194.02438 C 805.0093,195.21739 804.77765,196.29971 804.30135,197.39361 C 804.07887,197.89925 803.4886,198.1288 802.98296,197.90632 C 802.47731,197.68383 802.24776,197.09357 802.47025,196.58792 C 802.85516,195.70389 803.01348,194.96758 803.02481,194.00346 C 803.02354,193.73301 803.13185,193.47357 803.32505,193.28431 C 803.51825,193.09506 803.77986,192.99212 804.05023,192.99897 z"
       id="path3627"
       style="fill:#bebebe;fill-opacity:1;stroke:none;stroke-width:5.97317934;stroke-linecap:round;stroke-miterlimit:4;stroke-dasharray:none;stroke-dashoffset:0;stroke-opacity:1;display:inline" />
  </g>
  <g
     transform="translate(-800,-173.98068)"
     id="layer2" />
  <g
     transform="translate(-800,-173.98068)"
     id="layer8" />
  <g
     transform="translate(-800,-1126.3429)"
     id="layer1" />
  <g
     transform="translate(-800,-173.98068)"
     id="layer11" />
  <g
     transform="translate(-800,-173.98068)"
     id="layer4" />
  <g
     transform="translate(-800,-173.98068)"
     id="layer12" />
  <g
     transform="translate(-800,-173.98068)"
     id="layer9" />
  <g
     transform="translate(-800,-173.98068)"
     id="layer10" />
  <g
     transform="translate(-800,-173.98068)"
     id="layer6" />
</svg>
