<?xml version="1.0" encoding="UTF-8" standalone="no"?>
<!-- Created with Inkscape (http://www.inkscape.org/) -->
<svg
   xmlns:svg="http://www.w3.org/2000/svg"
   xmlns="http://www.w3.org/2000/svg"
   version="1.0"
   width="24"
   height="24.038626"
   id="svg7384">
  <defs
     id="defs7386" />
  <g
     transform="translate(-800,-174.98068)"
     id="layer3" />
  <g
     transform="translate(-800,-174.98068)"
     id="layer5" />
  <g
     transform="translate(-800,-174.98068)"
     id="layer7">
    <rect
       width="24"
       height="24"
       x="800"
       y="174.98068"
       id="rect7213"
       style="opacity:0;fill:#ffffff;fill-opacity:1;stroke:none;display:inline" />
    <rect
       width="2"
       height="17"
       rx="1"
       ry="1"
       x="819.0528"
       y="179.01932"
       id="rect2827"
       style="fill:#bebebe;fill-opacity:1;stroke:none;display:inline" />
    <rect
       width="2"
       height="16.80867"
       rx="1"
       ry="1"
       x="803.0528"
       y="179.01932"
       id="rect2829-2"
       style="fill:#bebebe;fill-opacity:1;stroke:none;display:inline" />
    <rect
       width="2"
       height="8.7101784"
       rx="0"
       ry="0"
       x="807.0528"
       y="183.01932"
       id="rect2833-10"
       style="fill:#bebebe;fill-opacity:1;stroke:none;display:inline" />
    <rect
       width="2"
       height="10"
       rx="0"
       ry="0"
       x="-185.01932"
       y="807.0528"
       transform="matrix(0,-1,1,0,0,0)"
       id="rect2837-22"
       style="fill:#bebebe;fill-opacity:1;stroke:none;display:inline" />
    <rect
       width="2"
       height="9"
       rx="0"
       ry="0"
       x="-192.01932"
       y="807.0528"
       transform="matrix(0,-1,1,0,0,0)"
       id="rect2839"
       style="fill:#bebebe;fill-opacity:1;stroke:none;display:inline" />
    <rect
       width="2"
       height="9"
       rx="0"
       ry="0"
       x="815.0528"
       y="183.01932"
       id="rect2835-8"
       style="fill:#bebebe;fill-opacity:1;stroke:none;display:inline" />
    <rect
       width="2"
       height="10.05373"
       rx="1"
       ry="0.99999994"
       x="-181.01932"
       y="806.99908"
       transform="matrix(0,-1,1,0,0,0)"
       id="rect2841-3"
       style="fill:#bebebe;fill-opacity:1;stroke:none;display:inline" />
    <path
       d="M 816.12096,181.00395 C 815.56921,180.98924 815.1337,180.53031 815.14786,179.97854 C 815.16189,178.78553 815.39354,177.70321 815.86984,176.60931 C 816.09232,176.10367 816.68259,175.87412 817.18823,176.0966 C 817.69388,176.31909 817.92343,176.90935 817.70094,177.415 C 817.31603,178.29903 817.15771,179.03534 817.14638,179.99946 C 817.14765,180.26991 817.03934,180.52935 816.84614,180.71861 C 816.65294,180.90786 816.39133,181.0108 816.12096,181.00395 z"
       id="path2793"
       style="fill:#bebebe;fill-opacity:1;stroke:none;stroke-width:5.97317934;stroke-linecap:round;stroke-miterlimit:4;stroke-dasharray:none;stroke-dashoffset:0;stroke-opacity:1;display:inline" />
    <path
       d="M 804.03497,181.34724 C 803.48326,181.33817 803.04313,180.884 803.0514,180.33228 C 803.0514,178.98393 803.33265,177.75828 803.91987,176.54452 C 804.06509,176.2067 804.38397,175.97581 804.75024,175.9433 C 805.11651,175.91078 805.47108,176.08188 805.67354,176.38884 C 805.876,176.6958 805.89368,177.0891 805.71958,177.41298 C 805.24551,178.39288 805.04992,179.24373 805.04992,180.33228 C 805.05397,180.60268 804.94834,180.8632 804.75711,181.05442 C 804.56589,181.24565 804.30537,181.35128 804.03497,181.34724 z"
       id="path2797"
       style="fill:#bebebe;fill-opacity:1;stroke:none;stroke-width:5.97317934;stroke-linecap:round;stroke-miterlimit:4;stroke-dasharray:none;stroke-dashoffset:0;stroke-opacity:1;display:inline" />
    <path
       d="M 808.00794,180.98102 C 807.74284,180.96596 807.49461,180.84611 807.31796,180.64787 C 807.14131,180.44963 807.05074,180.18928 807.06623,179.92421 C 807.12278,178.71787 807.39828,177.63164 807.92423,176.54452 C 808.06945,176.2067 808.38833,175.97581 808.7546,175.9433 C 809.12087,175.91078 809.47544,176.08188 809.6779,176.38884 C 809.88036,176.6958 809.89804,177.0891 809.72394,177.41298 C 809.29893,178.29146 809.11044,179.04356 809.06474,180.01838 C 809.05511,180.28719 808.9376,180.54078 808.73875,180.72191 C 808.5399,180.90304 808.27647,180.99644 808.00794,180.98102 z"
       id="path3615"
       style="fill:#bebebe;fill-opacity:1;stroke:none;stroke-width:5.97317934;stroke-linecap:round;stroke-miterlimit:4;stroke-dasharray:none;stroke-dashoffset:0;stroke-opacity:1;display:inline" />
    <path
       d="M 820.02825,180.98478 C 819.4765,180.97007 819.04099,180.51114 819.05515,179.95937 C 819.06918,178.76636 819.30083,177.68404 819.77713,176.59014 C 819.99961,176.0845 820.58988,175.85495 821.09552,176.07743 C 821.60117,176.29992 821.83072,176.89018 821.60823,177.39583 C 821.22332,178.27986 821.065,179.01617 821.05367,179.98029 C 821.05494,180.25074 820.94663,180.51018 820.75343,180.69944 C 820.56023,180.88869 820.29862,180.99163 820.02825,180.98478 z"
       id="path3617"
       style="fill:#bebebe;fill-opacity:1;stroke:none;stroke-width:5.97317934;stroke-linecap:round;stroke-miterlimit:4;stroke-dasharray:none;stroke-dashoffset:0;stroke-opacity:1;display:inline" />
    <rect
       width="2"
       height="9.9502506"
       rx="1"
       ry="1"
       x="194.00305"
       y="-816.95703"
       transform="matrix(0,1,-1,0,0,0)"
       id="rect3619"
       style="fill:#bebebe;fill-opacity:1;stroke:none;display:inline" />
    <path
       d="M 808.03136,194.02626 C 808.58311,194.04097 809.01862,194.4999 809.00446,195.05167 C 808.99043,196.24468 808.75878,197.327 808.28248,198.4209 C 808.06,198.92654 807.46973,199.15609 806.96409,198.93361 C 806.45844,198.71112 806.22889,198.12086 806.45138,197.61521 C 806.83629,196.73118 806.99461,195.99487 807.00594,195.03075 C 807.00467,194.7603 807.11298,194.50086 807.30618,194.3116 C 807.49938,194.12235 807.76099,194.01941 808.03136,194.02626 z"
       id="path3621"
       style="fill:#bebebe;fill-opacity:1;stroke:none;stroke-width:5.97317934;stroke-linecap:round;stroke-miterlimit:4;stroke-dasharray:none;stroke-dashoffset:0;stroke-opacity:1;display:inline" />
    <path
       d="M 820.04351,193.63652 C 820.59522,193.64559 821.03535,194.09976 821.02708,194.65148 C 821.02708,195.99983 820.74583,197.22548 820.15861,198.43924 C 820.01339,198.77706 819.69451,199.00795 819.32824,199.04046 C 818.96197,199.07298 818.6074,198.90188 818.40494,198.59492 C 818.20248,198.28796 818.1848,197.89466 818.3589,197.57078 C 818.83297,196.59088 819.02856,195.74003 819.02856,194.65148 C 819.02451,194.38108 819.13014,194.12056 819.32137,193.92934 C 819.51259,193.73811 819.77311,193.63248 820.04351,193.63652 z"
       id="path3623"
       style="fill:#bebebe;fill-opacity:1;stroke:none;stroke-width:5.97317934;stroke-linecap:round;stroke-miterlimit:4;stroke-dasharray:none;stroke-dashoffset:0;stroke-opacity:1;display:inline" />
    <path
       d="M 816.07053,194.00275 C 816.33563,194.0178 816.58386,194.13765 816.76051,194.33589 C 816.93716,194.53413 817.02773,194.79448 817.01224,195.05955 C 816.95569,196.26589 816.68019,197.35212 816.15424,198.43924 C 816.00902,198.77706 815.69014,199.00795 815.32387,199.04046 C 814.9576,199.07298 814.60303,198.90188 814.40057,198.59492 C 814.19811,198.28796 814.18043,197.89466 814.35453,197.57078 C 814.77954,196.6923 814.96803,195.9402 815.01373,194.96538 C 815.02336,194.69657 815.14087,194.44298 815.33972,194.26185 C 815.53857,194.08072 815.802,193.98732 816.07053,194.00275 z"
       id="path3625"
       style="fill:#bebebe;fill-opacity:1;stroke:none;stroke-width:5.97317934;stroke-linecap:round;stroke-miterlimit:4;stroke-dasharray:none;stroke-dashoffset:0;stroke-opacity:1;display:inline" />
    <path
       d="M 804.05023,193.99897 C 804.60198,194.01368 805.03749,194.47261 805.02333,195.02438 C 805.0093,196.21739 804.77765,197.29971 804.30135,198.39361 C 804.07887,198.89925 803.4886,199.1288 802.98296,198.90632 C 802.47731,198.68383 802.24776,198.09357 802.47025,197.58792 C 802.85516,196.70389 803.01348,195.96758 803.02481,195.00346 C 803.02354,194.73301 803.13185,194.47357 803.32505,194.28431 C 803.51825,194.09506 803.77986,193.99212 804.05023,193.99897 z"
       id="path3627"
       style="fill:#bebebe;fill-opacity:1;stroke:none;stroke-width:5.97317934;stroke-linecap:round;stroke-miterlimit:4;stroke-dasharray:none;stroke-dashoffset:0;stroke-opacity:1;display:inline" />
  </g>
  <g
     transform="translate(-800,-174.98068)"
     id="layer2" />
  <g
     transform="translate(-800,-174.98068)"
     id="layer8" />
  <g
     transform="translate(-800,-1127.3429)"
     id="layer1" />
  <g
     transform="translate(-800,-174.98068)"
     id="layer4" />
  <g
     transform="translate(-800,-174.98068)"
     id="layer9" />
  <g
     transform="translate(-800,-174.98068)"
     id="layer6" />
</svg>
