<?xml version="1.0" encoding="UTF-8" standalone="no"?>
<!-- Created with Inkscape (http://www.inkscape.org/) -->
<svg
   xmlns:svg="http://www.w3.org/2000/svg"
   xmlns="http://www.w3.org/2000/svg"
   version="1.0"
   width="24"
   height="24"
   id="svg7384">
  <title
     id="title9167">Moblin Icon Theme</title>
  <defs
     id="defs7386" />
  <g
     transform="translate(-888,-174.01932)"
     id="layer3" />
  <g
     transform="translate(-888,-174.01932)"
     id="layer5" />
  <g
     transform="translate(-888,-174.01932)"
     id="layer7">
    <rect
       width="24"
       height="24"
       x="888"
       y="174.01932"
       id="rect5816"
       style="opacity:0;fill:#ffffff;fill-opacity:1;stroke:none;display:inline" />
    <path
       d="M -25.809396,202.41983 A 22.98097,22.98097 0 1 1 -2.8552469,180.54882 L -25.809397,179.43886 z"
       transform="matrix(0.3776746,0.1006559,0.1016667,-0.3774038,888.51134,257.34028)"
       id="path2812-0"
       style="fill:#bebebe;fill-opacity:1;stroke:none;display:inline" />
    <path
       d="M -48.790367,179.43886 A 22.98097,22.98097 0 0 1 -25.809396,156.45789 L -25.809397,179.43886 z"
       transform="matrix(-9.067004e-2,0.3365823,-0.3368238,-8.97686e-2,959.09305,208.80586)"
       id="path5866"
       style="fill:#bebebe;fill-opacity:1;stroke:none;display:inline" />
  </g>
  <g
     transform="translate(-888,-174.01932)"
     id="layer2" />
  <g
     transform="translate(-888,-174.01932)"
     id="layer8" />
  <g
     transform="translate(-888,-1126.3815)"
     id="layer1" />
  <g
     transform="translate(-888,-174.01932)"
     id="layer11" />
  <g
     transform="translate(-888,-174.01932)"
     id="layer4" />
  <g
     transform="translate(-888,-174.01932)"
     id="layer12" />
  <g
     transform="translate(-888,-174.01932)"
     id="layer9" />
  <g
     transform="translate(-888,-174.01932)"
     id="layer10" />
  <g
     transform="translate(-888,-174.01932)"
     id="layer6" />
</svg>
