<?xml version="1.0" encoding="UTF-8" standalone="no"?>
<!-- Created with Inkscape (http://www.inkscape.org/) -->
<svg
   xmlns:svg="http://www.w3.org/2000/svg"
   xmlns="http://www.w3.org/2000/svg"
   version="1.0"
   width="24.022266"
   height="24"
   id="svg7384">
  <title
     id="title9167">Moblin Icon Theme</title>
  <defs
     id="defs7386" />
  <g
     transform="translate(-944.00035,-230)"
     id="layer3" />
  <g
     transform="translate(-944.00035,-230)"
     id="layer5" />
  <g
     transform="translate(-944.00035,-230)"
     id="layer7">
    <rect
       width="24"
       height="24"
       x="944.02264"
       y="230"
       id="rect8746"
       style="opacity:0;fill:#ffffff;fill-opacity:1;stroke:none;display:inline" />
    <path
       d="M 950.67367,251.70091 C 945.87808,250.42281 943.0212,245.47456 944.31213,240.6824 C 945.60306,235.89025 950.56458,233.02572 955.36017,234.30381 C 955.73124,234.37067 956.03266,234.6403 956.13982,235.00124 C 956.24697,235.36218 956.14167,235.7531 955.86743,236.01239 C 955.59319,236.27168 955.19662,236.35528 954.84166,236.22864 C 951.09169,235.22922 947.25833,237.4513 946.24887,241.19857 C 945.23941,244.94585 947.44222,248.77666 951.19219,249.77608 C 954.94215,250.7755 958.78604,248.55623 959.7955,244.80895 C 959.86331,244.43823 960.134,244.13659 960.49567,244.02874 C 960.85734,243.92089 961.24854,244.02515 961.50754,244.29842 C 961.76654,244.57169 961.84934,244.96754 961.72171,245.32232 C 960.43078,250.11447 955.46926,252.97901 950.67367,251.70091 z"
       id="path8748"
       style="fill:#bebebe;fill-opacity:1;stroke:none;stroke-width:5.73755836;stroke-linecap:round;stroke-miterlimit:4;stroke-dasharray:none;stroke-dashoffset:0;stroke-opacity:1;display:inline" />
    <path
       d="M 952.75154,243.97362 L 960.4612,245.96602 C 960.99633,246.10941 961.54256,245.79403 961.68595,245.25891 C 961.82933,244.72379 961.51397,244.17756 960.97885,244.03417 L 953.26918,242.04178 C 952.73406,241.89838 952.18783,242.21375 952.04444,242.74888 C 951.90105,243.284 952.21642,243.83024 952.75154,243.97362 z"
       id="path8750"
       style="fill:#bebebe;fill-opacity:1;stroke:none;display:inline" />
    <path
       d="M 952.04353,242.7473 L 954.17289,235.07434 C 954.31627,234.53922 954.86251,234.22384 955.39764,234.36723 C 955.93275,234.51063 956.24812,235.05686 956.10474,235.59197 L 953.97537,243.26494 C 953.832,243.80006 953.28576,244.11544 952.75063,243.97204 C 952.21551,243.82866 951.90013,243.28242 952.04353,242.7473 z"
       id="path8752"
       style="fill:#bebebe;fill-opacity:1;stroke:none;display:inline" />
    <path
       d="M 958.50957,239.94711 L 964.67229,241.48235 C 965.20742,241.62574 965.75365,241.31037 965.89704,240.77525 C 966.04042,240.24012 965.72506,239.69388 965.18994,239.55051 L 959.02721,238.01527 C 958.49209,237.87187 957.94586,238.18724 957.80246,238.72237 C 957.65907,239.25751 957.97444,239.80373 958.50957,239.94711 L 958.50957,239.94711 z"
       id="path8754"
       style="fill:#bebebe;fill-opacity:1;stroke:none;display:inline" />
    <path
       d="M 957.80155,238.72079 L 959.50988,232.58958 C 959.65327,232.05445 960.19949,231.73908 960.73463,231.88246 C 961.26976,232.02586 961.58512,232.57209 961.44174,233.1072 L 959.73341,239.23843 C 959.59003,239.77355 959.04379,240.08892 958.50867,239.94554 C 957.97353,239.80216 957.65816,239.25592 957.80155,238.72079 L 957.80155,238.72079 z"
       id="path8756"
       style="fill:#bebebe;fill-opacity:1;stroke:none;display:inline" />
    <path
       d="M 965.99124,240.72516 C 966.00443,240.66801 966.01256,240.60982 966.01553,240.55126 C 966.25658,236.85703 964.31076,233.51156 960.98112,231.89311 C 960.65769,231.71442 960.26152,231.72875 959.951,231.93035 C 959.64047,232.13196 959.46627,232.48796 959.49803,232.85601 C 959.52979,233.22406 959.76234,233.54411 960.1027,233.6882 C 962.75042,234.97519 964.20774,237.49784 964.01606,240.43549 C 963.97343,240.95984 964.34497,241.4265 964.86589,241.5029 C 965.38681,241.5793 965.87881,241.23927 965.99124,240.72516 z"
       id="path8758"
       style="fill:#bebebe;fill-opacity:1;stroke:none;stroke-width:5.73755836;stroke-linecap:round;stroke-miterlimit:4;stroke-dasharray:none;stroke-dashoffset:0;stroke-opacity:1;display:inline" />
  </g>
  <g
     transform="translate(-944.00035,-230)"
     id="layer2" />
  <g
     transform="translate(-944.00035,-230)"
     id="layer8" />
  <g
     transform="translate(-944.00035,-1182.3622)"
     id="layer1" />
  <g
     transform="translate(-944.00035,-230)"
     id="layer11" />
  <g
     transform="translate(-944.00035,-230)"
     id="layer4" />
  <g
     transform="translate(-944.00035,-230)"
     id="layer12" />
  <g
     transform="translate(-944.00035,-230)"
     id="layer9" />
  <g
     transform="translate(-944.00035,-230)"
     id="layer10" />
  <g
     transform="translate(-944.00035,-230)"
     id="layer6" />
</svg>
