<?xml version="1.0" encoding="UTF-8" standalone="no"?>
<!-- Created with Inkscape (http://www.inkscape.org/) -->
<svg
   xmlns:svg="http://www.w3.org/2000/svg"
   xmlns="http://www.w3.org/2000/svg"
   version="1.0"
   width="24"
   height="24"
   id="svg7384">
  <defs
     id="defs7386" />
  <g
     transform="translate(-858,-175.01932)"
     id="layer3" />
  <g
     transform="translate(-858,-175.01932)"
     id="layer5" />
  <g
     transform="translate(-858,-175.01932)"
     id="layer7">
    <rect
       width="24"
       height="24"
       x="858"
       y="175.01932"
       id="rect7242-4"
       style="opacity:0;fill:#ffffff;fill-opacity:1;stroke:none;display:inline" />
    <path
       d="M 861.84375,176.0625 C 861.36567,176.15372 861.02267,176.57587 861.03125,177.0625 L 861,197.03125 C 861.00006,197.58351 861.44774,198.03119 862,198.03125 L 877,198.03125 C 877.55226,198.03119 877.99994,197.58351 878,197.03125 L 878,183.03125 C 878.0062,182.76369 877.9049,182.5048 877.71875,182.3125 L 871.75,176.34375 C 871.56544,176.16522 871.31928,176.06451 871.0625,176.0625 L 862.03125,176.0625 C 861.96889,176.05663 861.90611,176.05663 861.84375,176.0625 z M 863.03125,178.0625 L 870.65625,178.0625 L 876,183.40625 L 876,196.03125 L 863,196.03125 L 863.03125,178.0625 z"
       id="path8829"
       style="fill:#bebebe;fill-opacity:1;stroke:none;stroke-width:2;stroke-linecap:butt;stroke-linejoin:round;stroke-miterlimit:4;stroke-dasharray:none;stroke-opacity:1" />
  </g>
  <g
     transform="translate(-858,-175.01932)"
     id="layer2" />
  <g
     transform="translate(-858,-175.01932)"
     id="layer8" />
  <g
     transform="translate(-858,-1127.3815)"
     id="layer1" />
  <g
     transform="translate(-858,-175.01932)"
     id="layer4" />
  <g
     transform="translate(-858,-175.01932)"
     id="layer9" />
  <g
     transform="translate(-858,-175.01932)"
     id="layer6" />
</svg>
