<?xml version="1.0" encoding="UTF-8" standalone="no"?>
<!-- Created with Inkscape (http://www.inkscape.org/) -->
<svg
   xmlns:svg="http://www.w3.org/2000/svg"
   xmlns="http://www.w3.org/2000/svg"
   version="1.0"
   width="24"
   height="24"
   id="svg7384">
  <title
     id="title9167">Moblin Icon Theme</title>
  <defs
     id="defs7386" />
  <g
     transform="translate(-944,-202)"
     id="layer3" />
  <g
     transform="translate(-944,-202)"
     id="layer5" />
  <g
     transform="translate(-944,-202)"
     id="layer7">
    <rect
       width="24"
       height="24"
       x="944"
       y="202"
       id="rect6201"
       style="opacity:0;fill:#ffffff;fill-opacity:1;stroke:none;display:inline" />
    <path
       d="M 956.00003,208.99999 C 953.25096,208.99999 951.00001,211.25093 951.00001,214.00001 C 951.00001,216.74908 953.25096,219.00002 956.00003,219.00002 C 958.7491,219.00002 961.00005,216.74908 961.00005,214.00001 C 961.00005,211.25093 958.7491,208.99999 956.00003,208.99999 z M 956.00003,211 C 957.66697,211 959.00004,212.33306 959.00004,214.00001 C 959.00004,215.66695 957.66697,217.00002 956.00003,217.00002 C 954.33309,217.00002 953.00002,215.66695 953.00002,214.00001 C 953.00002,212.33306 954.33309,211 956.00003,211 z"
       id="path6247"
       style="fill:#bebebe;fill-opacity:1;stroke:none;stroke-width:1.74999416;stroke-linecap:round;stroke-linejoin:round;marker:none;stroke-miterlimit:4;stroke-dasharray:none;stroke-dashoffset:0;stroke-opacity:1;visibility:visible;display:inline;overflow:visible;enable-background:accumulate" />
    <path
       d="M 955.19636,204.03572 C 953.90149,204.13706 952.64169,204.52568 951.41956,205.16072 C 946.53103,207.70083 944.62056,213.69187 947.16062,218.58039 C 949.70074,223.46892 955.6918,225.37945 960.5803,222.83933 C 960.95579,222.7192 961.22567,222.38967 961.26946,221.99786 C 961.31324,221.60605 961.12275,221.22508 960.78304,221.02503 C 960.44332,220.82497 960.01777,220.84316 959.69637,221.07147 C 955.76812,223.11262 950.96966,221.62474 948.92849,217.69646 C 946.88736,213.76816 948.37522,208.96976 952.30349,206.92858 C 956.23175,204.88743 961.0302,206.37531 963.07138,210.30359 C 963.7894,211.6855 964.05348,212.92799 963.95531,214.48217 C 963.91093,215.03692 964.32466,215.52261 964.87942,215.56699 C 965.43417,215.61137 965.91986,215.19764 965.96424,214.64288 C 966.08232,212.77361 965.70278,211.08165 964.83924,209.41966 C 962.93414,205.75326 959.08095,203.73167 955.19636,204.03572 z"
       id="path6307"
       style="fill:#bebebe;fill-opacity:1;stroke:none;stroke-width:0.77777588;stroke-linecap:round;stroke-linejoin:round;marker:none;stroke-miterlimit:4;stroke-dasharray:none;stroke-dashoffset:0;stroke-opacity:1;visibility:visible;display:inline;overflow:visible;enable-background:accumulate" />
    <path
       d="M 959.85935,213.70152 C 959.40605,213.7689 959.054,214.10068 958.99215,214.51876 C 958.9537,214.75051 958.93071,214.99996 958.94768,215.23386 C 959.07668,217.01168 960.7929,218.3762 962.72777,218.25767 C 964.66263,218.13915 966.14766,216.5622 966.01866,214.78437 C 965.97568,214.25403 965.47294,213.85612 964.89575,213.89561 C 964.31857,213.93511 963.88552,214.39705 963.9285,214.92739 C 963.9824,215.67023 963.38057,216.28762 962.57211,216.33714 C 961.76363,216.38667 961.09175,215.83369 961.03785,215.09084 C 961.02945,214.97507 961.04105,214.9195 961.06008,214.8048 C 961.11551,214.49939 961.00699,214.18818 960.76871,213.96924 C 960.53043,213.7503 960.19174,213.65059 959.85935,213.70152 z"
       id="path6309"
       style="fill:#bebebe;fill-opacity:1;stroke:none;stroke-width:2.93229055;stroke-linecap:round;stroke-linejoin:round;marker:none;stroke-miterlimit:4;stroke-dasharray:none;stroke-dashoffset:0;stroke-opacity:1;visibility:visible;display:inline;overflow:visible;enable-background:accumulate" />
  </g>
  <g
     transform="translate(-944,-202)"
     id="layer2" />
  <g
     transform="translate(-944,-202)"
     id="layer8" />
  <g
     transform="translate(-944,-1154.3622)"
     id="layer1" />
  <g
     transform="translate(-944,-202)"
     id="layer11" />
  <g
     transform="translate(-944,-202)"
     id="layer4" />
  <g
     transform="translate(-944,-202)"
     id="layer12" />
  <g
     transform="translate(-944,-202)"
     id="layer9" />
  <g
     transform="translate(-944,-202)"
     id="layer10" />
  <g
     transform="translate(-944,-202)"
     id="layer6" />
</svg>
