<?xml version="1.0" encoding="UTF-8" standalone="no"?>
<!-- Created with Inkscape (http://www.inkscape.org/) -->
<svg
   xmlns:svg="http://www.w3.org/2000/svg"
   xmlns="http://www.w3.org/2000/svg"
   version="1.0"
   width="24.022266"
   height="24"
   id="svg7384">
  <defs
     id="defs7386" />
  <g
     transform="translate(-887.97773,-174.01932)"
     id="layer3" />
  <g
     transform="translate(-887.97773,-174.01932)"
     id="layer5" />
  <g
     transform="translate(-887.97773,-174.01932)"
     id="layer7">
    <rect
       width="24"
       height="24"
       x="888"
       y="174.01932"
       id="rect5816"
       style="opacity:0;fill:#ffffff;fill-opacity:1;stroke:none;display:inline" />
    <path
       d="M 894.65105,195.72023 C 889.85546,194.44213 886.99858,189.49388 888.28951,184.70172 C 889.58044,179.90957 894.54196,177.04504 899.33755,178.32313 C 899.70862,178.38999 900.01004,178.65962 900.1172,179.02056 C 900.22435,179.3815 900.11905,179.77242 899.84481,180.03171 C 899.57057,180.291 899.174,180.3746 898.81904,180.24796 C 895.06907,179.24854 891.23571,181.47062 890.22625,185.21789 C 889.21679,188.96517 891.4196,192.79598 895.16957,193.7954 C 898.91953,194.79482 902.76342,192.57555 903.77288,188.82827 C 903.84069,188.45755 904.11138,188.15591 904.47305,188.04806 C 904.83472,187.94021 905.22592,188.04447 905.48492,188.31774 C 905.74392,188.59101 905.82672,188.98686 905.69909,189.34164 C 904.40816,194.13379 899.44664,196.99833 894.65105,195.72023 z"
       id="path2812-0"
       style="fill:#bebebe;fill-opacity:1;stroke:none;stroke-width:5.73755836;stroke-linecap:round;stroke-miterlimit:4;stroke-dasharray:none;stroke-dashoffset:0;stroke-opacity:1;display:inline" />
    <path
       d="M 896.72892,187.99294 L 904.43858,189.98534 C 904.97371,190.12873 905.51994,189.81335 905.66333,189.27823 C 905.80671,188.74311 905.49135,188.19688 904.95623,188.05349 L 897.24656,186.0611 C 896.71144,185.9177 896.16521,186.23307 896.02182,186.7682 C 895.87843,187.30332 896.1938,187.84956 896.72892,187.99294 z"
       id="rect5857"
       style="fill:#bebebe;fill-opacity:1;stroke:none;display:inline" />
    <path
       d="M 896.02091,186.76662 L 898.15027,179.09366 C 898.29365,178.55854 898.83989,178.24316 899.37502,178.38655 C 899.91013,178.52995 900.2255,179.07618 900.08212,179.61129 L 897.95275,187.28426 C 897.80938,187.81938 897.26314,188.13476 896.72801,187.99136 C 896.19289,187.84798 895.87751,187.30174 896.02091,186.76662 z"
       id="path5860"
       style="fill:#bebebe;fill-opacity:1;stroke:none;display:inline" />
    <path
       d="M 902.48695,183.96643 L 908.64967,185.50167 C 909.1848,185.64506 909.73103,185.32969 909.87442,184.79457 C 910.0178,184.25944 909.70244,183.7132 909.16732,183.56983 L 903.00459,182.03459 C 902.46947,181.89119 901.92324,182.20656 901.77984,182.74169 C 901.63645,183.27683 901.95182,183.82305 902.48695,183.96643 L 902.48695,183.96643 z"
       id="path5862"
       style="fill:#bebebe;fill-opacity:1;stroke:none;display:inline" />
    <path
       d="M 901.77893,182.74011 L 903.48726,176.6089 C 903.63065,176.07377 904.17687,175.7584 904.71201,175.90178 C 905.24714,176.04518 905.5625,176.59141 905.41912,177.12652 L 903.71079,183.25775 C 903.56741,183.79287 903.02117,184.10824 902.48605,183.96486 C 901.95091,183.82148 901.63554,183.27524 901.77893,182.74011 L 901.77893,182.74011 z"
       id="path5864"
       style="fill:#bebebe;fill-opacity:1;stroke:none;display:inline" />
    <path
       d="M 909.96859,184.74448 C 909.98178,184.68733 909.98991,184.62914 909.99288,184.57058 C 910.23393,180.87635 908.28811,177.53088 904.95847,175.91243 C 904.63504,175.73374 904.23887,175.74807 903.92835,175.94967 C 903.61782,176.15128 903.44362,176.50728 903.47538,176.87533 C 903.50714,177.24338 903.73969,177.56343 904.08005,177.70752 C 906.72777,178.99451 908.18509,181.51716 907.99341,184.45481 C 907.95078,184.97916 908.32232,185.44582 908.84324,185.52222 C 909.36416,185.59862 909.85616,185.25859 909.96859,184.74448 z"
       id="path5866"
       style="fill:#bebebe;fill-opacity:1;stroke:none;stroke-width:5.73755836;stroke-linecap:round;stroke-miterlimit:4;stroke-dasharray:none;stroke-dashoffset:0;stroke-opacity:1;display:inline" />
  </g>
  <g
     transform="translate(-887.97773,-174.01932)"
     id="layer2" />
  <g
     transform="translate(-887.97773,-174.01932)"
     id="layer8" />
  <g
     transform="translate(-887.97773,-1126.3815)"
     id="layer1" />
  <g
     transform="translate(-887.97773,-174.01932)"
     id="layer4" />
  <g
     transform="translate(-887.97773,-174.01932)"
     id="layer9" />
  <g
     transform="translate(-887.97773,-174.01932)"
     id="layer6" />
</svg>
