<?xml version="1.0" encoding="UTF-8" standalone="no"?>
<!-- Created with Inkscape (http://www.inkscape.org/) -->
<svg
   xmlns:svg="http://www.w3.org/2000/svg"
   xmlns="http://www.w3.org/2000/svg"
   version="1.0"
   width="24"
   height="24"
   id="svg7384">
  <defs
     id="defs7386" />
  <g
     transform="translate(-916,-175.01932)"
     id="layer3" />
  <g
     transform="translate(-916,-175.01932)"
     id="layer5" />
  <g
     transform="translate(-916,-175.01932)"
     id="layer7">
    <rect
       width="24"
       height="24"
       x="916"
       y="175.01932"
       id="rect6439"
       style="opacity:0;fill:#ffffff;fill-opacity:1;stroke:none;display:inline" />
    <rect
       width="17.977303"
       height="2"
       rx="1"
       ry="1"
       x="175.01932"
       y="937"
       transform="matrix(0,1,1,0,0,0)"
       id="rect2852-3"
       style="fill:#bebebe;fill-opacity:1;stroke:none;display:inline" />
    <rect
       width="17.977303"
       height="2"
       rx="1"
       ry="1"
       x="175.01932"
       y="917"
       transform="matrix(0,1,1,0,0,0)"
       id="rect2862-7"
       style="fill:#bebebe;fill-opacity:1;stroke:none;display:inline" />
    <rect
       width="22"
       height="2"
       rx="1"
       ry="1"
       x="917"
       y="-177.01932"
       transform="scale(1,-1)"
       id="rect2880-4"
       style="fill:#bebebe;fill-opacity:1;stroke:none;display:inline" />
    <rect
       width="22"
       height="2"
       rx="1"
       ry="1"
       x="917"
       y="-193.03299"
       transform="scale(1,-1)"
       id="rect2883"
       style="fill:#bebebe;fill-opacity:1;stroke:none;display:inline" />
    <rect
       width="4.1826186"
       height="2"
       rx="1"
       ry="1"
       x="191.79263"
       y="927"
       transform="matrix(0,1,1,0,0,0)"
       id="rect2885"
       style="fill:#bebebe;fill-opacity:1;stroke:none;display:inline" />
    <path
       d="M 927.97902,193.98925 C 925.78196,193.98925 923.98115,195.79006 923.98115,197.98712 C 923.96815,198.35267 924.15576,198.69616 924.47034,198.88279 C 924.78493,199.06942 925.17631,199.06942 925.4909,198.88279 C 925.80548,198.69616 925.99309,198.35267 925.98009,197.98712 C 925.98009,196.87219 926.86409,195.98819 927.97902,195.98819 C 929.09396,195.98819 929.97796,196.87219 929.97796,197.98712 C 929.97796,198.54024 930.42635,198.98863 930.97947,198.98863 C 931.53259,198.98863 931.98098,198.54024 931.98098,197.98712 C 931.98098,195.79006 930.17609,193.98925 927.97902,193.98925 z"
       id="path3543-4-5"
       style="fill:#bebebe;fill-opacity:1;stroke:none;stroke-width:15.32064629;stroke-linecap:round;stroke-miterlimit:4;stroke-dasharray:none;stroke-dashoffset:0;stroke-opacity:1;display:inline" />
  </g>
  <g
     transform="translate(-916,-175.01932)"
     id="layer2" />
  <g
     transform="translate(-916,-175.01932)"
     id="layer8" />
  <g
     transform="translate(-916,-1127.3815)"
     id="layer1" />
  <g
     transform="translate(-916,-175.01932)"
     id="layer4" />
  <g
     transform="translate(-916,-175.01932)"
     id="layer9" />
  <g
     transform="translate(-916,-175.01932)"
     id="layer6" />
</svg>
