<?xml version="1.0" encoding="UTF-8" standalone="no"?>
<!-- Created with Inkscape (http://www.inkscape.org/) -->
<svg
   xmlns:svg="http://www.w3.org/2000/svg"
   xmlns="http://www.w3.org/2000/svg"
   version="1.0"
   width="24"
   height="24"
   id="svg7384">
  <defs
     id="defs7386" />
  <g
     transform="translate(-887,-175.01932)"
     id="layer3" />
  <g
     transform="translate(-887,-175.01932)"
     id="layer5" />
  <g
     transform="translate(-887,-175.01932)"
     id="layer7">
    <rect
       width="24"
       height="24"
       x="887"
       y="175.01932"
       id="rect5816"
       style="opacity:0;fill:#ffffff;fill-opacity:1;stroke:none;display:inline" />
    <path
       d="M 891.64175,193.38043 C 888.1277,189.87577 888.1277,184.16201 891.64175,180.65736 C 895.15581,177.15269 900.88488,177.1527 904.39894,180.65736 C 904.68686,180.90079 904.81308,181.28501 904.72541,181.65117 C 904.63774,182.01733 904.35109,182.30322 903.98394,182.39065 C 903.6168,182.47808 903.23156,182.3522 902.98747,182.06505 C 900.23962,179.32454 895.80879,179.33223 893.06093,182.07274 C 890.31308,184.81325 890.30537,189.23223 893.05322,191.97274 C 895.80107,194.71324 900.23962,194.71324 902.98747,191.97274 C 903.23156,191.68558 903.6168,191.5597 903.98394,191.64713 C 904.35109,191.73457 904.63774,192.02046 904.72541,192.38662 C 904.81308,192.75278 904.68686,193.137 904.39894,193.38043 C 900.88488,196.88509 895.15581,196.88509 891.64175,193.38043 z"
       id="path2812-0"
       style="fill:#bebebe;fill-opacity:1;stroke:none;stroke-width:5.73755836;stroke-linecap:round;stroke-miterlimit:4;stroke-dasharray:none;stroke-dashoffset:0;stroke-opacity:1;display:inline" />
    <path
       d="M 897.30489,187.72733 L 902.98545,193.30763 C 903.37719,193.69937 904.00793,193.69937 904.39967,193.30763 C 904.7914,192.91589 904.7914,192.28515 904.39967,191.89342 L 898.7191,186.31312 C 898.32737,185.92138 897.69663,185.92138 897.30489,186.31312 C 896.91315,186.70486 896.91315,187.3356 897.30489,187.72733 z"
       id="rect5857"
       style="fill:#bebebe;fill-opacity:1;stroke:none;display:inline" />
    <path
       d="M 897.30489,186.3113 L 902.98545,180.731 C 903.37719,180.33926 904.00793,180.33926 904.39967,180.731 C 904.7914,181.12274 904.7914,181.75348 904.39967,182.14521 L 898.7191,187.72551 C 898.32737,188.11725 897.69663,188.11725 897.30489,187.72551 C 896.91315,187.33377 896.91315,186.70303 897.30489,186.3113 z"
       id="path5860"
       style="fill:#bebebe;fill-opacity:1;stroke:none;display:inline" />
    <path
       d="M 902.29381,187.72733 L 906.86326,192.13825 C 907.255,192.52999 907.88573,192.52999 908.27748,192.13825 C 908.66921,191.74651 908.66921,191.11577 908.27748,190.72404 L 903.70802,186.31312 C 903.31629,185.92138 902.68555,185.92138 902.29381,186.31312 C 901.90206,186.70486 901.90206,187.3356 902.29381,187.72733 L 902.29381,187.72733 z"
       id="path5862"
       style="fill:#bebebe;fill-opacity:1;stroke:none;display:inline" />
    <path
       d="M 902.29381,186.3113 L 906.83887,181.85567 C 907.23061,181.46393 907.86134,181.46393 908.25309,181.85567 C 908.64482,182.24741 908.64482,182.87815 908.25309,183.26988 L 903.70802,187.72551 C 903.31629,188.11725 902.68555,188.11725 902.29381,187.72551 C 901.90206,187.33377 901.90206,186.70303 902.29381,186.3113 z"
       id="path5864"
       style="fill:#bebebe;fill-opacity:1;stroke:none;display:inline" />
    <path
       d="M 908.38407,192.14197 C 908.42406,192.09906 908.4602,192.05273 908.49205,192.00351 C 910.54792,188.92473 910.53553,185.05456 908.4612,181.98812 C 908.27044,181.67166 907.92019,181.48598 907.55046,181.50531 C 907.18074,181.52465 906.85187,181.74585 906.69536,182.08047 C 906.53884,182.4151 906.5802,182.80854 906.80292,183.10351 C 908.45242,185.54193 908.45317,188.45527 906.81834,190.90351 C 906.51925,191.33629 906.60768,191.92621 907.02061,192.25283 C 907.43354,192.57945 908.02964,192.53098 908.38407,192.14197 z"
       id="path5866"
       style="fill:#bebebe;fill-opacity:1;stroke:none;stroke-width:5.73755836;stroke-linecap:round;stroke-miterlimit:4;stroke-dasharray:none;stroke-dashoffset:0;stroke-opacity:1;display:inline" />
  </g>
  <g
     transform="translate(-887,-175.01932)"
     id="layer2" />
  <g
     transform="translate(-887,-175.01932)"
     id="layer8" />
  <g
     transform="translate(-887,-1127.3815)"
     id="layer1" />
  <g
     transform="translate(-887,-175.01932)"
     id="layer4" />
  <g
     transform="translate(-887,-175.01932)"
     id="layer9" />
  <g
     transform="translate(-887,-175.01932)"
     id="layer6" />
</svg>
