<?xml version="1.0" encoding="UTF-8" standalone="no"?>
<!-- Created with Inkscape (http://www.inkscape.org/) -->
<svg
   xmlns:svg="http://www.w3.org/2000/svg"
   xmlns="http://www.w3.org/2000/svg"
   version="1.0"
   width="24"
   height="24"
   id="svg7384">
  <defs
     id="defs7386" />
  <g
     transform="translate(-1527.0272,-235.01474)"
     id="layer3" />
  <g
     transform="translate(-1527.0272,-235.01474)"
     id="layer5" />
  <g
     transform="translate(-1527.0272,-235.01474)"
     id="layer7" />
  <g
     transform="translate(-1527.0272,-235.01474)"
     id="layer2" />
  <g
     transform="translate(-1527.0272,-235.01474)"
     id="layer8" />
  <g
     transform="translate(-1527.0272,-1187.3769)"
     id="layer1" />
  <g
     transform="translate(-1527.0272,-235.01474)"
     id="layer4">
    <rect
       width="24"
       height="24"
       x="-1551.0272"
       y="235.01474"
       transform="scale(-1,1)"
       id="rect7606"
       style="opacity:0;fill:#ffffff;fill-opacity:1;stroke:none;display:inline" />
    <rect
       width="7.9113789"
       height="2"
       rx="0.98791033"
       ry="0.98791033"
       x="-250.90909"
       y="1528.019"
       transform="matrix(0,-1,1,0,0,0)"
       id="rect3554-96"
       style="fill:#bebebe;fill-opacity:1;stroke:none;display:inline" />
    <rect
       width="15.986577"
       height="2"
       rx="0.98791039"
       ry="0.98791033"
       x="-254.9888"
       y="1536.0156"
       transform="matrix(0,-1,1,0,0,0)"
       id="rect2773-4"
       style="fill:#bebebe;fill-opacity:1;stroke:none;display:inline" />
    <rect
       width="6.0200119"
       height="2"
       rx="0.98791033"
       ry="0.98791033"
       x="1528.001"
       y="242.99081"
       id="rect2797-80"
       style="fill:#bebebe;fill-opacity:1;stroke:none;display:inline" />
    <rect
       width="6.0200119"
       height="2"
       rx="0.98791033"
       ry="0.98791033"
       x="1528.001"
       y="248.97726"
       id="rect2799-8"
       style="fill:#bebebe;fill-opacity:1;stroke:none;display:inline" />
    <path
       d="M 1532.3058,243.29411 L 1536.3064,239.28674 C 1536.6934,238.89973 1537.3165,238.89973 1537.7036,239.28674 L 1537.7207,239.30384 C 1538.1076,239.69084 1538.1076,240.31396 1537.7207,240.70096 L 1533.7201,244.70834 C 1533.3331,245.09534 1532.71,245.09534 1532.3229,244.70834 L 1532.3058,244.69124 C 1531.9189,244.30424 1531.9189,243.68112 1532.3058,243.29412 L 1532.3058,243.29411 z"
       id="rect2801-5"
       style="fill:#bebebe;fill-opacity:1;stroke:none;display:inline" />
    <path
       d="M 1532.3058,250.70367 L 1536.3064,254.71104 C 1536.6934,255.09804 1537.3165,255.09804 1537.7036,254.71104 L 1537.7207,254.69394 C 1538.1076,254.30694 1538.1076,253.68382 1537.7207,253.29682 L 1533.7201,249.28945 C 1533.333,248.90244 1532.7099,248.90244 1532.3229,249.28944 L 1532.3058,249.30654 C 1531.9188,249.69355 1531.9188,250.31666 1532.3058,250.70366 L 1532.3058,250.70367 L 1532.3058,250.70367 z"
       id="path2826-64"
       style="fill:#bebebe;fill-opacity:1;stroke:none;display:inline" />
    <path
       d="M 1541.4137,249.98546 L 1547.0035,244.42121 L 1547.0125,243.007 C 1547.0125,243.007 1545.5889,243.007 1545.5889,243.007 L 1539.9991,248.57124 C 1539.9991,248.57124 1539.9991,249.99471 1539.9991,249.99471 C 1539.9991,249.99471 1541.4133,249.98571 1541.4133,249.98571 L 1541.4137,249.98546 L 1541.4137,249.98546 z"
       id="path2966"
       style="fill:#ed2124;fill-opacity:1;stroke:none;display:inline" />
    <path
       d="M 1545.5979,249.98546 L 1540.0081,244.42121 L 1539.9991,243.007 C 1539.9991,243.007 1541.4226,243.007 1541.4226,243.007 L 1547.0125,248.57124 C 1547.0125,248.57124 1547.0125,249.99471 1547.0125,249.99471 C 1547.0125,249.99471 1545.5982,249.98571 1545.5982,249.98571 L 1545.5979,249.98546 L 1545.5979,249.98546 z"
       id="path7711"
       style="fill:#ed2124;fill-opacity:1;stroke:none;display:inline" />
  </g>
  <g
     transform="translate(-1527.0272,-235.01474)"
     id="layer9" />
  <g
     transform="translate(-1527.0272,-235.01474)"
     id="layer6" />
</svg>
