<?xml version="1.0" encoding="UTF-8" standalone="no"?>
<!-- Created with Inkscape (http://www.inkscape.org/) -->
<svg
   xmlns:svg="http://www.w3.org/2000/svg"
   xmlns="http://www.w3.org/2000/svg"
   version="1.0"
   width="24"
   height="24"
   id="svg7384">
  <defs
     id="defs7386" />
  <g
     transform="translate(-1498.001,-235.01471)"
     id="layer3" />
  <g
     transform="translate(-1498.001,-235.01471)"
     id="layer5" />
  <g
     transform="translate(-1498.001,-235.01471)"
     id="layer7" />
  <g
     transform="translate(-1498.001,-235.01471)"
     id="layer2" />
  <g
     transform="translate(-1498.001,-235.01471)"
     id="layer8" />
  <g
     transform="translate(-1498.001,-1187.3769)"
     id="layer1" />
  <g
     transform="translate(-1498.001,-235.01471)"
     id="layer4">
    <rect
       width="24"
       height="24"
       x="-259.01471"
       y="1498.001"
       transform="matrix(0,-1,1,0,0,0)"
       id="rect7592"
       style="opacity:0;fill:#ffffff;fill-opacity:1;stroke:none;display:inline" />
    <g
       transform="translate(1498.0117,234.99152)"
       id="layer1-34"
       style="display:inline">
      <rect
         width="7.9113789"
         height="2"
         rx="0.98791033"
         ry="0.98791033"
         x="-15.917543"
         y="1.0072563"
         transform="matrix(0,-1,1,0,0,0)"
         id="rect3554-9"
         style="fill:#bebebe;fill-opacity:1;stroke:none" />
      <rect
         width="15.986577"
         height="2"
         rx="0.98791039"
         ry="0.98791033"
         x="-19.997301"
         y="9.0038872"
         transform="matrix(0,-1,1,0,0,0)"
         id="rect2773-64"
         style="fill:#bebebe;fill-opacity:1;stroke:none;display:inline" />
      <rect
         width="6.0200119"
         height="2"
         rx="0.98791033"
         ry="0.98791033"
         x="0.98922187"
         y="7.9992871"
         id="rect2797-67"
         style="fill:#bebebe;fill-opacity:1;stroke:none" />
      <rect
         width="6.0200119"
         height="2"
         rx="0.98791033"
         ry="0.98791033"
         x="0.98922187"
         y="13.985742"
         id="rect2799-52"
         style="fill:#bebebe;fill-opacity:1;stroke:none" />
      <path
         d="M -2.1273056,9.614325 L 3.5351829,9.609535 C 4.0824852,9.609535 4.5230932,10.050143 4.5230932,10.597446 L 4.5230932,10.621626 C 4.5230932,11.168928 4.0824852,11.609536 3.5351829,11.609536 L -2.1273056,11.614336 C -2.6746079,11.614336 -3.1152159,11.173728 -3.1152159,10.626426 L -3.1152159,10.602246 C -3.1152159,10.054943 -2.6746079,9.6143347 -2.1273056,9.6143347 L -2.1273056,9.614325 z"
         transform="matrix(0.7071068,-0.7071068,0.7071068,0.7071068,0,0)"
         id="rect2801-8"
         style="fill:#bebebe;fill-opacity:1;stroke:none;display:inline" />
      <path
         d="M 5.2941222,15.712147 L 9.2947191,19.719518 C 9.6817203,20.106519 10.304834,20.106519 10.691836,19.719517 L 10.708936,19.702417 C 11.095937,19.315416 11.095937,18.692303 10.708936,18.305302 L 6.7083433,14.297926 C 6.3213421,13.910924 5.6982283,13.910924 5.3112274,14.297925 L 5.2941294,14.315025 C 4.9071278,14.702027 4.9071278,15.325141 5.2941289,15.712142 L 5.2941222,15.712147 L 5.2941222,15.712147 z"
         id="path2826-8"
         style="fill:#bebebe;fill-opacity:1;stroke:none;display:inline" />
      <rect
         width="9.9919968"
         height="2"
         rx="0.98791039"
         ry="0.98791033"
         x="-17.000011"
         y="13.012017"
         transform="matrix(0,-1,1,0,0,0)"
         id="rect2828-2"
         style="fill:#31c2ee;fill-opacity:1;stroke:none;display:inline" />
    </g>
  </g>
  <g
     transform="translate(-1498.001,-235.01471)"
     id="layer9" />
  <g
     transform="translate(-1498.001,-235.01471)"
     id="layer6" />
</svg>
