<?xml version="1.0" encoding="UTF-8" standalone="no"?>
<!-- Created with Inkscape (http://www.inkscape.org/) -->
<svg
   xmlns:svg="http://www.w3.org/2000/svg"
   xmlns="http://www.w3.org/2000/svg"
   version="1.0"
   width="24.000046"
   height="24"
   id="svg7384">
  <title
     id="title9167">Moblin Icon Theme</title>
  <defs
     id="defs7386" />
  <g
     transform="translate(-1555.001,-310.99646)"
     id="layer3">
    <rect
       width="24"
       height="24"
       x="-1579.001"
       y="310.99646"
       transform="scale(-1,1)"
       id="rect10344"
       style="opacity:0;fill:#ffffff;fill-opacity:1;stroke:none;display:inline" />
    <rect
       width="2.0000267"
       height="16"
       rx="1.0000134"
       ry="1.0000134"
       x="1577.001"
       y="313.99646"
       id="rect10346"
       style="fill:#bebebe;fill-opacity:1;stroke:none;display:inline" />
    <rect
       width="2"
       height="22.000031"
       rx="1"
       ry="1"
       x="313.99646"
       y="-1579.001"
       transform="matrix(0,1,-1,0,0,0)"
       id="rect10348"
       style="fill:#bebebe;fill-opacity:1;stroke:none;display:inline" />
    <rect
       width="1.9999046"
       height="21.99999"
       rx="0.99995232"
       ry="0.99995232"
       x="327.99658"
       y="-1579.001"
       transform="matrix(0,1,-1,0,0,0)"
       id="rect10350"
       style="fill:#bebebe;fill-opacity:1;stroke:none;display:inline" />
    <rect
       width="2.000061"
       height="8"
       rx="1.0000305"
       ry="1.0000305"
       x="1555.001"
       y="317.99646"
       id="rect10352"
       style="fill:#bebebe;fill-opacity:1;stroke:none;display:inline" />
    <rect
       width="1.9999797"
       height="4.0000191"
       rx="0.99998987"
       ry="0.99998987"
       x="317.99646"
       y="-1559.001"
       transform="matrix(0,1,-1,0,0,0)"
       id="rect10354"
       style="fill:#bebebe;fill-opacity:1;stroke:none;display:inline" />
    <rect
       width="2"
       height="4.0000191"
       rx="1"
       ry="1"
       x="323.99646"
       y="-1559.001"
       transform="matrix(0,1,-1,0,0,0)"
       id="rect10356"
       style="fill:#bebebe;fill-opacity:1;stroke:none;display:inline" />
    <rect
       width="2.000061"
       height="6"
       rx="1.5"
       ry="1.4999999"
       x="1556.9948"
       y="313.99646"
       transform="matrix(1,0,2.0345052e-5,1,0,0)"
       id="rect10360"
       style="fill:#bebebe;fill-opacity:1;stroke:none;display:inline" />
    <rect
       width="2.000061"
       height="6"
       rx="1.0000305"
       ry="1.0000305"
       x="1556.9948"
       y="323.99646"
       transform="matrix(1,0,2.0345052e-5,1,0,0)"
       id="rect10362"
       style="fill:#bebebe;fill-opacity:1;stroke:none;display:inline" />
    <rect
       width="2"
       height="8"
       rx="1"
       ry="1"
       x="1573.001"
       y="317.99646"
       id="rect6994-3"
       style="fill:#cc0000;fill-opacity:1;fill-rule:nonzero;stroke:none;marker:none;visibility:visible;display:inline;overflow:visible;enable-background:accumulate" />
    <path
       d="M 1577,332.98675 L 1560.9885,333.00525 L 1569,319 L 1577,332.98675 L 1577,332.98675 z"
       id="path5469"
       style="fill:#febf00;fill-opacity:1;stroke:none;display:inline" />
    <path
       d="M 1568.8438,318 C 1568.5401,318.04735 1568.275,318.23173 1568.125,318.5 L 1560.125,332.5 C 1559.9456,332.8108 1559.9465,333.19389 1560.1273,333.50386 C 1560.3081,333.81383 1560.6412,334.00317 1561,334 L 1577,334 C 1577.3588,334.00317 1577.6919,333.81383 1577.8727,333.50386 C 1578.0535,333.19389 1578.0544,332.8108 1577.875,332.5 L 1569.875,318.5 C 1569.6703,318.13339 1569.2584,317.93367 1568.8438,318 z M 1569,321.03125 L 1575.2812,332 L 1562.7188,332 L 1569,321.03125 z"
       id="rect16671-4"
       style="fill:#febf00;fill-opacity:1;stroke:none;stroke-width:2;stroke-linecap:round;stroke-linejoin:round;stroke-miterlimit:4;stroke-dasharray:none;stroke-opacity:1;display:inline" />
    <path
       d="M 1568.7812,322 C 1568.3156,322.1043 1567.9885,322.52299 1568,323 L 1568,328 C 1567.9949,328.36064 1568.1844,328.69608 1568.4959,328.87789 C 1568.8074,329.05969 1569.1926,329.05969 1569.5041,328.87789 C 1569.8156,328.69608 1570.0051,328.36064 1570,328 L 1570,323 C 1570.0074,322.69213 1569.8726,322.398 1569.6346,322.20267 C 1569.3965,322.00733 1569.0817,321.93257 1568.7812,322 L 1568.7812,322 z"
       id="path10386"
       style="fill:#ffffff;fill-opacity:1;stroke:none;stroke-width:2;stroke-linecap:round;stroke-linejoin:miter;stroke-miterlimit:4;stroke-dasharray:none;stroke-opacity:1" />
    <path
       d="M 1570,312 A 1,1 0 1 1 1568,312 A 1,1 0 1 1 1570,312 z"
       transform="translate(0,19)"
       id="path5350"
       style="fill:#ffffff;fill-opacity:1;stroke:none;stroke-width:0.99999994px;marker:none;visibility:visible;display:inline;overflow:visible;enable-background:new" />
  </g>
  <g
     transform="translate(-1555.001,-310.99646)"
     id="layer5" />
  <g
     transform="translate(-1555.001,-310.99646)"
     id="layer7" />
  <g
     transform="translate(-1555.001,-310.99646)"
     id="layer2" />
  <g
     transform="translate(-1555.001,-310.99646)"
     id="layer8" />
  <g
     transform="translate(-1555.001,-1263.3586)"
     id="layer1" />
  <g
     transform="translate(-1555.001,-310.99646)"
     id="layer11" />
  <g
     transform="translate(-1555.001,-310.99646)"
     id="layer4" />
  <g
     transform="translate(-1555.001,-310.99646)"
     id="layer12" />
  <g
     transform="translate(-1555.001,-310.99646)"
     id="layer9" />
  <g
     transform="translate(-1555.001,-310.99646)"
     id="layer10" />
  <g
     transform="translate(-1555.001,-310.99646)"
     id="layer6" />
</svg>
