<?xml version="1.0" encoding="UTF-8" standalone="no"?>
<!-- Created with Inkscape (http://www.inkscape.org/) -->
<svg
   xmlns:svg="http://www.w3.org/2000/svg"
   xmlns="http://www.w3.org/2000/svg"
   version="1.0"
   width="24.000046"
   height="24"
   id="svg7384">
  <defs
     id="defs7386" />
  <g
     transform="translate(-1498.001,-291.99646)"
     id="layer3" />
  <g
     transform="translate(-1498.001,-291.99646)"
     id="layer5" />
  <g
     transform="translate(-1498.001,-291.99646)"
     id="layer7" />
  <g
     transform="translate(-1498.001,-291.99646)"
     id="layer2" />
  <g
     transform="translate(-1498.001,-291.99646)"
     id="layer8" />
  <g
     transform="translate(-1498.001,-1244.3586)"
     id="layer1" />
  <g
     transform="translate(-1498.001,-291.99646)"
     id="layer4">
    <rect
       width="2.0000267"
       height="16"
       rx="1.0000134"
       ry="1.0000134"
       x="1520.001"
       y="294.99646"
       id="rect6949"
       style="fill:#bebebe;fill-opacity:1;stroke:none;display:inline" />
    <rect
       width="2"
       height="22.000031"
       rx="1"
       ry="1"
       x="294.99646"
       y="-1522.001"
       transform="matrix(0,1,-1,0,0,0)"
       id="rect6951"
       style="fill:#bebebe;fill-opacity:1;stroke:none;display:inline" />
    <rect
       width="1.9999046"
       height="21.99999"
       rx="0.99995232"
       ry="0.99995232"
       x="308.99658"
       y="-1522.001"
       transform="matrix(0,1,-1,0,0,0)"
       id="rect6953"
       style="fill:#bebebe;fill-opacity:1;stroke:none;display:inline" />
    <rect
       width="2.000061"
       height="8"
       rx="1.0000305"
       ry="1.0000305"
       x="1498.001"
       y="298.99646"
       id="rect6955"
       style="fill:#bebebe;fill-opacity:1;stroke:none;display:inline" />
    <rect
       width="1.9999797"
       height="4.0000191"
       rx="0.99998987"
       ry="0.99998987"
       x="298.99646"
       y="-1502.001"
       transform="matrix(0,1,-1,0,0,0)"
       id="rect6957"
       style="fill:#bebebe;fill-opacity:1;stroke:none;display:inline" />
    <rect
       width="2"
       height="4.0000191"
       rx="1"
       ry="1"
       x="304.99646"
       y="-1502.001"
       transform="matrix(0,1,-1,0,0,0)"
       id="rect6959"
       style="fill:#bebebe;fill-opacity:1;stroke:none;display:inline" />
    <rect
       width="2.0000267"
       height="8"
       rx="1.0000134"
       ry="1.0000134"
       x="1512.001"
       y="298.99646"
       id="rect6963"
       style="fill:#febf00;fill-opacity:1;stroke:none;display:inline" />
    <rect
       width="2"
       height="8"
       rx="1"
       ry="1"
       x="1516.001"
       y="298.99646"
       id="rect6965"
       style="fill:#febf00;fill-opacity:1;stroke:none;display:inline" />
    <rect
       width="2.000061"
       height="6"
       rx="1.5"
       ry="1.4999999"
       x="1499.9951"
       y="294.99646"
       transform="matrix(1,0,2.0345052e-5,1,0,0)"
       id="rect6969"
       style="fill:#bebebe;fill-opacity:1;stroke:none;display:inline" />
    <rect
       width="2.000061"
       height="6"
       rx="1.0000305"
       ry="1.0000305"
       x="1499.9951"
       y="304.99646"
       transform="matrix(1,0,2.0345052e-5,1,0,0)"
       id="rect6972"
       style="fill:#bebebe;fill-opacity:1;stroke:none;display:inline" />
    <rect
       width="24"
       height="24"
       x="-1522.001"
       y="291.99646"
       transform="scale(-1,1)"
       id="rect6947"
       style="opacity:0;fill:#ffffff;fill-opacity:1;stroke:none;display:inline" />
  </g>
  <g
     transform="translate(-1498.001,-291.99646)"
     id="layer9" />
  <g
     transform="translate(-1498.001,-291.99646)"
     id="layer6" />
</svg>
