<?xml version="1.0" encoding="UTF-8" standalone="no"?>
<!-- Created with Inkscape (http://www.inkscape.org/) -->
<svg
   xmlns:svg="http://www.w3.org/2000/svg"
   xmlns="http://www.w3.org/2000/svg"
   version="1.0"
   width="24.000046"
   height="24"
   id="svg7384">
  <title
     id="title9167">Moblin Icon Theme</title>
  <defs
     id="defs7386" />
  <g
     transform="translate(-1440.001,-310.99646)"
     id="layer3">
    <rect
       width="24"
       height="24"
       x="-1464.001"
       y="310.99646"
       transform="scale(-1,1)"
       id="rect6863"
       style="opacity:0;fill:#ffffff;fill-opacity:1;stroke:none;display:inline" />
    <rect
       width="2.0000267"
       height="16"
       rx="1.0000134"
       ry="1.0000134"
       x="1462.001"
       y="313.99646"
       id="rect6872"
       style="fill:#bebebe;fill-opacity:1;stroke:none;display:inline" />
    <rect
       width="2"
       height="22.000031"
       rx="1"
       ry="1"
       x="313.99646"
       y="-1464.001"
       transform="matrix(0,1,-1,0,0,0)"
       id="rect6876"
       style="fill:#bebebe;fill-opacity:1;stroke:none;display:inline" />
    <rect
       width="1.9999046"
       height="21.99999"
       rx="0.99995232"
       ry="0.99995232"
       x="327.99658"
       y="-1464.001"
       transform="matrix(0,1,-1,0,0,0)"
       id="rect6878"
       style="fill:#bebebe;fill-opacity:1;stroke:none;display:inline" />
    <rect
       width="2.000061"
       height="8"
       rx="1.0000305"
       ry="1.0000305"
       x="1440.001"
       y="317.99646"
       id="rect6880"
       style="fill:#bebebe;fill-opacity:1;stroke:none;display:inline" />
    <rect
       width="1.9999797"
       height="4.0000191"
       rx="0.99998987"
       ry="0.99998987"
       x="317.99646"
       y="-1444.001"
       transform="matrix(0,1,-1,0,0,0)"
       id="rect6882"
       style="fill:#bebebe;fill-opacity:1;stroke:none;display:inline" />
    <rect
       width="2"
       height="4.0000191"
       rx="1"
       ry="1"
       x="323.99646"
       y="-1444.001"
       transform="matrix(0,1,-1,0,0,0)"
       id="rect6884"
       style="fill:#bebebe;fill-opacity:1;stroke:none;display:inline" />
    <rect
       width="2"
       height="8"
       rx="1"
       ry="1"
       x="1450.001"
       y="317.99646"
       id="rect6886"
       style="fill:#a0da00;fill-opacity:1;stroke:none;display:inline" />
    <rect
       width="2.0000267"
       height="8"
       rx="1.0000134"
       ry="1.0000134"
       x="1454.001"
       y="317.99646"
       id="rect6888"
       style="fill:#a0da00;fill-opacity:1;stroke:none;display:inline" />
    <rect
       width="2"
       height="8"
       rx="1"
       ry="1"
       x="1458.001"
       y="317.99646"
       id="rect6890"
       style="fill:#a0da00;fill-opacity:1;stroke:none;display:inline" />
    <rect
       width="2"
       height="8"
       rx="1"
       ry="1"
       x="1446.001"
       y="317.99646"
       id="rect6900"
       style="fill:#a0da00;fill-opacity:1;stroke:none;display:inline" />
    <rect
       width="2.000061"
       height="6"
       rx="1.5"
       ry="1.4999999"
       x="1441.9944"
       y="313.99646"
       transform="matrix(1,0,2.0345052e-5,1,0,0)"
       id="rect6915"
       style="fill:#bebebe;fill-opacity:1;stroke:none;display:inline" />
    <rect
       width="2.000061"
       height="6"
       rx="1.0000305"
       ry="1.0000305"
       x="1441.9943"
       y="323.99646"
       transform="matrix(1,0,2.0345052e-5,1,0,0)"
       id="rect6917"
       style="fill:#bebebe;fill-opacity:1;stroke:none;display:inline" />
  </g>
  <g
     transform="translate(-1440.001,-310.99646)"
     id="layer5" />
  <g
     transform="translate(-1440.001,-310.99646)"
     id="layer7" />
  <g
     transform="translate(-1440.001,-310.99646)"
     id="layer2" />
  <g
     transform="translate(-1440.001,-310.99646)"
     id="layer8" />
  <g
     transform="translate(-1440.001,-1263.3586)"
     id="layer1" />
  <g
     transform="translate(-1440.001,-310.99646)"
     id="layer11" />
  <g
     transform="translate(-1440.001,-310.99646)"
     id="layer4" />
  <g
     transform="translate(-1440.001,-310.99646)"
     id="layer12" />
  <g
     transform="translate(-1440.001,-310.99646)"
     id="layer9" />
  <g
     transform="translate(-1440.001,-310.99646)"
     id="layer10" />
  <g
     transform="translate(-1440.001,-310.99646)"
     id="layer6" />
</svg>
