<?xml version="1.0" encoding="UTF-8" standalone="no"?>
<!-- Created with Inkscape (http://www.inkscape.org/) -->
<svg
   xmlns:svg="http://www.w3.org/2000/svg"
   xmlns="http://www.w3.org/2000/svg"
   version="1.0"
   width="24.019951"
   height="24"
   id="svg7384">
  <title
     id="title9167">Moblin Icon Theme</title>
  <defs
     id="defs7386" />
  <g
     transform="translate(-1469.98,-366)"
     id="layer3">
    <rect
       width="24"
       height="24"
       x="1470"
       y="366"
       id="rect7785"
       style="opacity:0;fill:#ffffff;fill-opacity:1;stroke:none;display:inline" />
    <path
       d="M 1474.875,368 C 1474.3597,368.0486 1473.9666,368.48238 1473.9688,369 L 1473.9688,375.8125 L 1471.5625,374.125 C 1471.274,373.88466 1470.8752,373.82617 1470.5298,373.97356 C 1470.1844,374.12095 1469.9507,374.44938 1469.9247,374.82398 C 1469.8986,375.19857 1470.0846,375.5562 1470.4062,375.75 L 1473.0312,377.625 L 1470.4688,379.15625 C 1470.1062,379.30877 1469.8667,379.65968 1469.8568,380.05292 C 1469.8469,380.44617 1470.0684,380.80869 1470.4229,380.97928 C 1470.7773,381.14987 1471.1989,381.09683 1471.5,380.84375 L 1473.9688,379.375 L 1473.9688,386.9375 C 1473.9582,387.33412 1474.183,387.6995 1474.5419,387.86877 C 1474.9007,388.03804 1475.3257,387.97918 1475.625,387.71875 L 1481.625,382.78125 C 1481.8672,382.58256 1482.0023,382.28187 1481.99,381.96883 C 1481.9778,381.6558 1481.8195,381.36661 1481.5625,381.1875 L 1476.6875,377.75 L 1481.5,374.84375 C 1481.7773,374.67691 1481.9568,374.38618 1481.9816,374.06349 C 1482.0064,373.7408 1481.8735,373.42604 1481.625,373.21875 L 1475.625,368.21875 C 1475.415,368.04716 1475.1443,367.96822 1474.875,368 z M 1475.9688,371.125 L 1479.25,373.875 L 1475.9688,375.84375 L 1475.9688,371.125 z M 1475.9688,379.6875 L 1479.3438,382.09375 L 1475.9688,384.84375 L 1475.9688,379.6875 z"
       id="path7787"
       style="fill:#bebebe;fill-opacity:1;stroke:none;stroke-width:2;stroke-linecap:round;stroke-linejoin:round;marker:none;stroke-miterlimit:4;stroke-dasharray:none;stroke-dashoffset:0;stroke-opacity:1;visibility:visible;display:inline;overflow:visible;enable-background:accumulate" />
    <path
       d="M 1486.4022,387.99075 L 1491.992,382.4265 L 1492.002,381.01229 C 1492.002,381.01229 1490.5784,381.01229 1490.5784,381.01229 L 1484.9886,386.57653 C 1484.9886,386.57653 1484.9886,388 1484.9886,388 C 1484.9886,388 1486.4028,387.991 1486.4028,387.991 L 1486.4032,387.99075 L 1486.4032,387.99075 L 1486.4022,387.99075 z"
       id="path2966-2"
       style="fill:#ed2124;fill-opacity:1;stroke:none;display:inline" />
    <path
       d="M 1490.5864,387.99075 L 1484.9966,382.4265 L 1484.9866,381.01229 C 1484.9866,381.01229 1486.4101,381.01229 1486.4101,381.01229 L 1492,386.57653 C 1492,386.57653 1492,388 1492,388 C 1492,388 1490.5857,387.991 1490.5857,387.991 L 1490.5854,387.99075 L 1490.5854,387.99075 L 1490.5864,387.99075 z"
       id="path7711-5"
       style="fill:#ed2124;fill-opacity:1;stroke:none;display:inline" />
  </g>
  <g
     transform="translate(-1469.98,-366)"
     id="layer5" />
  <g
     transform="translate(-1469.98,-366)"
     id="layer7" />
  <g
     transform="translate(-1469.98,-366)"
     id="layer2" />
  <g
     transform="translate(-1469.98,-366)"
     id="layer8" />
  <g
     transform="translate(-1469.98,-1318.3622)"
     id="layer1" />
  <g
     transform="translate(-1469.98,-366)"
     id="layer11" />
  <g
     transform="translate(-1469.98,-366)"
     id="layer4" />
  <g
     transform="translate(-1469.98,-366)"
     id="layer12" />
  <g
     transform="translate(-1469.98,-366)"
     id="layer9" />
  <g
     transform="translate(-1469.98,-366)"
     id="layer10" />
  <g
     transform="translate(-1469.98,-366)"
     id="layer6" />
</svg>
