<?xml version="1.0" encoding="UTF-8" standalone="no"?>
<!-- Created with Inkscape (http://www.inkscape.org/) -->
<svg
   xmlns:svg="http://www.w3.org/2000/svg"
   xmlns="http://www.w3.org/2000/svg"
   version="1.0"
   width="24.019951"
   height="24"
   id="svg7384">
  <title
     id="title9167">Moblin Icon Theme</title>
  <defs
     id="defs7386" />
  <g
     transform="translate(-1439.98,-366)"
     id="layer3">
    <rect
       width="24"
       height="24"
       x="1440"
       y="366"
       id="rect7826-0"
       style="opacity:0;fill:#ffffff;fill-opacity:1;stroke:none;display:inline" />
    <path
       d="M 1444.875,368 C 1444.3597,368.0486 1443.9666,368.48238 1443.9688,369 L 1443.9688,375.8125 L 1441.5625,374.125 C 1441.274,373.88466 1440.8752,373.82617 1440.5298,373.97356 C 1440.1844,374.12095 1439.9507,374.44938 1439.9247,374.82398 C 1439.8986,375.19857 1440.0846,375.5562 1440.4062,375.75 L 1443.0312,377.625 L 1440.4688,379.15625 C 1440.1062,379.30877 1439.8667,379.65968 1439.8568,380.05292 C 1439.8469,380.44617 1440.0684,380.80869 1440.4229,380.97928 C 1440.7773,381.14987 1441.1989,381.09683 1441.5,380.84375 L 1443.9688,379.375 L 1443.9688,386.9375 C 1443.9582,387.33412 1444.183,387.6995 1444.5419,387.86877 C 1444.9007,388.03804 1445.3257,387.97918 1445.625,387.71875 L 1451.625,382.78125 C 1451.8672,382.58256 1452.0023,382.28187 1451.99,381.96883 C 1451.9778,381.6558 1451.8195,381.36661 1451.5625,381.1875 L 1446.6875,377.75 L 1451.5,374.84375 C 1451.7773,374.67691 1451.9568,374.38618 1451.9816,374.06349 C 1452.0064,373.7408 1451.8735,373.42604 1451.625,373.21875 L 1445.625,368.21875 C 1445.415,368.04716 1445.1443,367.96822 1444.875,368 z M 1445.9688,371.125 L 1449.25,373.875 L 1445.9688,375.84375 L 1445.9688,371.125 z M 1445.9688,379.6875 L 1449.3438,382.09375 L 1445.9688,384.84375 L 1445.9688,379.6875 z"
       id="path7887-5"
       style="fill:#bebebe;fill-opacity:1;stroke:none;stroke-width:2;stroke-linecap:round;stroke-linejoin:round;marker:none;stroke-miterlimit:4;stroke-dasharray:none;stroke-dashoffset:0;stroke-opacity:1;visibility:visible;display:inline;overflow:visible;enable-background:accumulate" />
    <path
       d="M 1460.875,381.96875 C 1460.647,382.00143 1460.4372,382.11181 1460.2812,382.28125 L 1457.0312,385.625 L 1455.8125,384.375 C 1455.5785,384.07255 1455.1926,383.92997 1454.8182,384.00768 C 1454.4438,384.08539 1454.1465,384.36978 1454.0522,384.74036 C 1453.9579,385.11094 1454.0832,385.50284 1454.375,385.75 L 1456.3125,387.75 C 1456.5009,387.94474 1456.7603,388.05469 1457.0312,388.05469 C 1457.3022,388.05469 1457.5616,387.94474 1457.75,387.75 L 1461.7188,383.65625 C 1462.0138,383.35122 1462.0841,382.89326 1461.8944,382.51374 C 1461.7046,382.13422 1461.296,381.91577 1460.875,381.96875 z"
       id="path7800"
       style="fill:#4e9a06;fill-opacity:1;stroke:none;stroke-width:2;stroke-linecap:round;stroke-linejoin:round;marker:none;stroke-miterlimit:4;stroke-dasharray:none;stroke-dashoffset:0;stroke-opacity:1;visibility:visible;display:inline;overflow:visible;enable-background:accumulate" />
  </g>
  <g
     transform="translate(-1439.98,-366)"
     id="layer5" />
  <g
     transform="translate(-1439.98,-366)"
     id="layer7" />
  <g
     transform="translate(-1439.98,-366)"
     id="layer2" />
  <g
     transform="translate(-1439.98,-366)"
     id="layer8" />
  <g
     transform="translate(-1439.98,-1318.3622)"
     id="layer1" />
  <g
     transform="translate(-1439.98,-366)"
     id="layer11" />
  <g
     transform="translate(-1439.98,-366)"
     id="layer4" />
  <g
     transform="translate(-1439.98,-366)"
     id="layer12" />
  <g
     transform="translate(-1439.98,-366)"
     id="layer9" />
  <g
     transform="translate(-1439.98,-366)"
     id="layer10" />
  <g
     transform="translate(-1439.98,-366)"
     id="layer6" />
</svg>
