<?xml version="1.0" encoding="UTF-8" standalone="no"?>
<!-- Created with Inkscape (http://www.inkscape.org/) -->
<svg
   xmlns:svg="http://www.w3.org/2000/svg"
   xmlns="http://www.w3.org/2000/svg"
   version="1.0"
   width="24.071299"
   height="24"
   id="svg7384">
  <title
     id="title9167">Moblin Icon Theme</title>
  <defs
     id="defs7386" />
  <g
     transform="translate(-1648.0012,-366.00083)"
     id="layer3">
    <rect
       width="24"
       height="24"
       x="1648.0725"
       y="366.00082"
       id="rect8080"
       style="opacity:0;fill:#ffffff;fill-opacity:1;stroke:none;display:inline" />
    <path
       d="M 1658.0003,381.00052 C 1655.2457,381.00052 1653.0009,378.75568 1653.0009,376.00116 C 1653.0009,373.24664 1655.2457,371.0018 1658.0003,371.0018 C 1660.7548,371.0018 1662.9996,373.24664 1662.9996,376.00116 C 1662.9996,378.75568 1660.7548,381.00052 1658.0003,381.00052 z M 1658.0003,380.0031 C 1660.2137,380.0031 1662.0022,378.21462 1662.0022,376.00116 C 1662.0022,373.7877 1660.2137,371.99923 1658.0003,371.99923 C 1655.7868,371.99923 1653.9983,373.7877 1653.9983,376.00116 C 1653.9983,378.21462 1655.7868,380.0031 1658.0003,380.0031 z"
       id="path8082"
       style="fill:#bebebe;fill-opacity:1;stroke:none;stroke-width:5.10689974;stroke-linecap:round;stroke-miterlimit:4;stroke-dasharray:none;stroke-dashoffset:0;stroke-opacity:1;display:inline" />
    <path
       d="M 1652.9942,384.5071 C 1652.805,384.49701 1652.6225,384.43335 1652.468,384.32353 C 1651.3306,383.56719 1650.4353,382.68193 1649.6776,381.54542 C 1646.6218,376.9616 1647.8719,370.73522 1652.4558,367.67938 C 1657.0396,364.62353 1663.266,365.87366 1666.3218,370.45748 C 1669.3776,375.0413 1668.1275,381.26768 1663.5437,384.32353 C 1663.2468,384.54942 1662.8489,384.59132 1662.5115,384.43221 C 1662.1741,384.2731 1661.9533,383.93944 1661.9387,383.56669 C 1661.9242,383.19394 1662.1183,382.84406 1662.4422,382.65911 C 1666.1257,380.20352 1667.113,375.24237 1664.6574,371.55893 C 1662.2018,367.8755 1657.2529,366.8882 1653.5694,369.34379 C 1649.886,371.79939 1648.8865,376.76054 1651.3421,380.44397 C 1651.9737,381.39147 1652.6212,382.02856 1653.5694,382.65911 C 1653.9558,382.89968 1654.131,383.37076 1653.9957,383.80531 C 1653.8605,384.23987 1653.4489,384.5283 1652.9942,384.5071 z"
       id="path8084"
       style="fill:#bebebe;fill-opacity:1;stroke:none;stroke-width:5.10689878;stroke-linecap:round;stroke-miterlimit:4;stroke-dasharray:none;stroke-dashoffset:0;stroke-opacity:1;display:inline" />
    <path
       d="M 1658.0009,373.00089 C 1656.344,373.00089 1655.0009,374.34403 1655.0009,376.00089 C 1655.0009,377.65775 1656.344,379.00089 1658.0009,379.00089 C 1659.6578,379.00089 1661.0009,377.65775 1661.0009,376.00089 C 1661.0009,374.34403 1659.6578,373.00089 1658.0009,373.00089 z M 1657.5322,373.96964 C 1658.3692,373.96964 1659.0322,374.66384 1659.0322,375.50089 C 1659.0322,376.33794 1658.3692,377.00089 1657.5322,377.00089 C 1656.6951,377.00089 1656.0009,376.33794 1656.0009,375.50089 C 1656.0009,374.66384 1656.6951,373.96964 1657.5322,373.96964 z"
       id="path8086"
       style="fill:#bebebe;fill-opacity:1;stroke:none;display:inline" />
    <path
       d="M 1662,383.71875 L 1662,385.3125 C 1662,385.71068 1661.7107,386 1661.3125,386 L 1654.6875,386 C 1654.2894,386 1654,385.7107 1654,385.3125 L 1654,383.75 L 1652,383.75 L 1652,385.3125 C 1652,386.78406 1653.2159,388.00001 1654.6875,388 L 1661.3125,388 C 1662.7841,388 1664.0001,386.78409 1664,385.3125 L 1664,383.71875 L 1662,383.71875 z"
       id="path8088"
       style="fill:#bebebe;fill-opacity:1;stroke:none;stroke-width:1.99999976;marker:none;stroke-miterlimit:4;stroke-opacity:1;visibility:visible;display:inline;overflow:visible;enable-background:accumulate" />
    <g
       transform="matrix(1,0,0,-1,1599.0725,774.41193)"
       id="g8090" />
    <path
       d="M 1657.9998,385.00542 C 1653.0373,385.00542 1648.9958,380.96391 1648.9958,376.00139 C 1648.9958,371.03887 1653.0373,366.99736 1657.9998,366.99736 C 1662.9623,366.99736 1667.0039,371.03887 1667.0039,376.00139 C 1667.0039,380.96391 1662.9623,385.00542 1657.9998,385.00542 z M 1657.9998,383.99984 C 1662.4213,383.99984 1665.9983,380.42285 1665.9983,376.00139 C 1665.9983,371.57993 1662.4213,368.00294 1657.9998,368.00294 C 1653.5783,368.00294 1650.0013,371.57993 1650.0013,376.00139 C 1650.0013,380.42285 1653.5783,383.99984 1657.9998,383.99984 z"
       id="path8092"
       style="fill:#bebebe;fill-opacity:1;stroke:none;stroke-width:2.70364738;stroke-linecap:round;stroke-miterlimit:4;stroke-dasharray:none;stroke-dashoffset:0;stroke-opacity:1;display:inline" />
    <path
       d="M 1666.4022,389.97846 L 1671.992,384.41421 L 1672.002,383 C 1672.002,383 1670.5784,383 1670.5784,383 L 1664.9886,388.56424 C 1664.9886,388.56424 1664.9886,389.98771 1664.9886,389.98771 C 1664.9886,389.98771 1666.4028,389.97871 1666.4028,389.97871 L 1666.4032,389.97846 L 1666.4032,389.97846 L 1666.4022,389.97846 z"
       id="path2966-2-5-7"
       style="fill:#ed2124;fill-opacity:1;stroke:none;display:inline" />
    <path
       d="M 1670.5864,389.97846 L 1664.9966,384.41421 L 1664.9866,383 C 1664.9866,383 1666.4101,383 1666.4101,383 L 1672,388.56424 C 1672,388.56424 1672,389.98771 1672,389.98771 C 1672,389.98771 1670.5857,389.97871 1670.5857,389.97871 L 1670.5854,389.97846 L 1670.5854,389.97846 L 1670.5864,389.97846 z"
       id="path7711-5-8-3"
       style="fill:#ed2124;fill-opacity:1;stroke:none;display:inline" />
  </g>
  <g
     transform="translate(-1648.0012,-366.00083)"
     id="layer5" />
  <g
     transform="translate(-1648.0012,-366.00083)"
     id="layer7" />
  <g
     transform="translate(-1648.0012,-366.00083)"
     id="layer2" />
  <g
     transform="translate(-1648.0012,-366.00083)"
     id="layer8" />
  <g
     transform="translate(-1648.0012,-1318.363)"
     id="layer1" />
  <g
     transform="translate(-1648.0012,-366.00083)"
     id="layer11" />
  <g
     transform="translate(-1648.0012,-366.00083)"
     id="layer4" />
  <g
     transform="translate(-1648.0012,-366.00083)"
     id="layer12" />
  <g
     transform="translate(-1648.0012,-366.00083)"
     id="layer9" />
  <g
     transform="translate(-1648.0012,-366.00083)"
     id="layer10" />
  <g
     transform="translate(-1648.0012,-366.00083)"
     id="layer6" />
</svg>
