<?xml version="1.0" encoding="UTF-8" standalone="no"?>
<!-- Created with Inkscape (http://www.inkscape.org/) -->
<svg
   xmlns:svg="http://www.w3.org/2000/svg"
   xmlns="http://www.w3.org/2000/svg"
   version="1.0"
   width="24.03772"
   height="24.017349"
   id="svg7384">
  <title
     id="title9167">Moblin Icon Theme</title>
  <defs
     id="defs7386" />
  <g
     transform="translate(-1497.9633,-173.99739)"
     id="layer3">
    <rect
       width="24"
       height="24"
       x="-198.01474"
       y="1498.001"
       transform="matrix(0,-1,1,0,0,0)"
       id="rect5847"
       style="opacity:0;fill:#ffffff;fill-opacity:1;stroke:none;display:inline" />
    <rect
       width="17.677189"
       height="17.677189"
       rx="2.209482"
       ry="2.209482"
       x="1190.9429"
       y="-946.46356"
       transform="matrix(0.7062464,0.7079661,-0.7062464,0.7079661,0,0)"
       id="rect15586"
       style="fill:#31c2ee;fill-opacity:1;stroke:none;display:inline" />
    <path
       d="M 736.86871,179.71892 A 1.7154472,1.7154472 0 1 1 733.43781,179.71892 A 1.7154472,1.7154472 0 1 1 736.86871,179.71892 z"
       transform="matrix(0.8744076,0,0,0.8744076,866.67819,34.378553)"
       id="path5855"
       style="fill:#ffffff;fill-opacity:1;stroke:none;display:inline" />
    <path
       d="M 1509.4438,178.03297 C 1510.6151,178.03297 1511.783,178.47458 1512.668,179.34458 C 1514.4379,181.08456 1514.4379,183.94405 1512.668,185.68403 C 1512.3175,186.16104 1511.7139,186.39008 1511.1283,186.26826 C 1510.5427,186.14644 1510.0852,185.69668 1509.9613,185.12098 C 1509.8374,184.54528 1510.0704,183.95189 1510.5556,183.60731 C 1511.1679,183.00537 1511.1679,182.02326 1510.5556,181.4213 C 1509.9433,180.81932 1508.9999,180.81934 1508.3876,181.4213 C 1508.0461,181.75703 1507.8891,182.03949 1507.8873,182.51431 C 1507.9611,183.08614 1507.6923,183.64845 1507.1973,183.95742 C 1506.7023,184.2664 1506.0703,184.2664 1505.5753,183.95742 C 1505.0804,183.64845 1504.8115,183.08614 1504.8854,182.51431 C 1504.8898,181.34099 1505.3757,180.17423 1506.2196,179.34458 C 1507.1045,178.4746 1508.2725,178.03297 1509.4438,178.03297 z"
       id="path5855-1"
       style="fill:#ffffff;fill-opacity:1;stroke:none;stroke-width:1.70088911;stroke-linecap:round;stroke-miterlimit:4;stroke-dasharray:none;stroke-opacity:1;display:inline" />
    <path
       d="M 1510.6545,184.02088 C 1511.2218,184.10383 1511.6922,184.50291 1511.8666,185.04914 C 1512.0409,185.59536 1511.8886,186.19318 1511.4742,186.58945 C 1511.2222,186.84605 1511.1057,187.00152 1511.037,187.35455 C 1510.871,188.16948 1510.0758,188.69554 1509.2609,188.52954 C 1508.446,188.36353 1507.9199,187.56833 1508.0859,186.7534 C 1508.2524,185.89709 1508.6769,185.08052 1509.2882,184.45808 C 1509.6399,184.08993 1510.1544,183.92531 1510.6545,184.02088 z"
       id="path5925"
       style="fill:#ffffff;fill-opacity:1;stroke:none;stroke-width:1.71544778;stroke-linecap:round;stroke-miterlimit:4;stroke-dasharray:none;stroke-opacity:1;display:inline" />
    <path
       d="M 736.86871,179.71892 A 1.7154472,1.7154472 0 1 1 733.43781,179.71892 A 1.7154472,1.7154472 0 1 1 736.86871,179.71892 z"
       transform="matrix(0.8744076,0,0,0.8744076,866.67819,30.378553)"
       id="path5855-3"
       style="fill:#ffffff;fill-opacity:1;stroke:none;display:inline" />
    <rect
       width="3"
       height="3"
       rx="0.98178333"
       ry="0.98178333"
       x="1197.7106"
       y="-939.1828"
       transform="matrix(0.7071068,0.7071068,-0.7071068,0.7071068,0,0)"
       id="rect16795"
       style="fill:#ffffff;fill-opacity:1;stroke:none;display:inline" />
  </g>
  <g
     transform="translate(-1497.9633,-173.99739)"
     id="layer5" />
  <g
     transform="translate(-1497.9633,-173.99739)"
     id="layer7" />
  <g
     transform="translate(-1497.9633,-173.99739)"
     id="layer2" />
  <g
     transform="translate(-1497.9633,-173.99739)"
     id="layer8" />
  <g
     transform="translate(-1497.9633,-1126.3596)"
     id="layer1" />
  <g
     transform="translate(-1497.9633,-173.99739)"
     id="layer11" />
  <g
     transform="translate(-1497.9633,-173.99739)"
     id="layer4" />
  <g
     transform="translate(-1497.9633,-173.99739)"
     id="layer12" />
  <g
     transform="translate(-1497.9633,-173.99739)"
     id="layer9" />
  <g
     transform="translate(-1497.9633,-173.99739)"
     id="layer10" />
  <g
     transform="translate(-1497.9633,-173.99739)"
     id="layer6" />
</svg>
