<?xml version="1.0" encoding="UTF-8" standalone="no"?>
<!-- Created with Inkscape (http://www.inkscape.org/) -->
<svg
   xmlns:svg="http://www.w3.org/2000/svg"
   xmlns="http://www.w3.org/2000/svg"
   version="1.0"
   width="24.03772"
   height="24.017349"
   id="svg7384">
  <defs
     id="defs7386" />
  <g
     transform="translate(-1497.9633,-174.99739)"
     id="layer3" />
  <g
     transform="translate(-1497.9633,-174.99739)"
     id="layer5" />
  <g
     transform="translate(-1497.9633,-174.99739)"
     id="layer7" />
  <g
     transform="translate(-1497.9633,-174.99739)"
     id="layer2" />
  <g
     transform="translate(-1497.9633,-174.99739)"
     id="layer8" />
  <g
     transform="translate(-1497.9633,-1127.3596)"
     id="layer1" />
  <g
     transform="translate(-1497.9633,-174.99739)"
     id="layer4">
    <rect
       width="24"
       height="24"
       x="-199.01474"
       y="1498.001"
       transform="matrix(0,-1,1,0,0,0)"
       id="rect5847"
       style="opacity:0;fill:#ffffff;fill-opacity:1;stroke:none;display:inline" />
    <rect
       width="17.677189"
       height="17.677189"
       rx="2.209482"
       ry="2.209482"
       x="1191.6492"
       y="-945.75732"
       transform="matrix(0.7062464,0.7079661,-0.7062464,0.7079661,0,0)"
       id="rect15586"
       style="fill:#31c2ee;fill-opacity:1;stroke:none;display:inline" />
    <path
       d="M 736.86871,179.71892 A 1.7154472,1.7154472 0 1 1 733.43781,179.71892 A 1.7154472,1.7154472 0 1 1 736.86871,179.71892 z"
       transform="matrix(0.8744076,0,0,0.8744076,866.67819,35.378553)"
       id="path5855"
       style="fill:#ffffff;fill-opacity:1;stroke:none;display:inline" />
    <path
       d="M 1509.4438,179.03297 C 1510.6151,179.03297 1511.783,179.47458 1512.668,180.34458 C 1514.4379,182.08456 1514.4379,184.94405 1512.668,186.68403 C 1512.3175,187.16104 1511.7139,187.39008 1511.1283,187.26826 C 1510.5427,187.14644 1510.0852,186.69668 1509.9613,186.12098 C 1509.8374,185.54528 1510.0704,184.95189 1510.5556,184.60731 C 1511.1679,184.00537 1511.1679,183.02326 1510.5556,182.4213 C 1509.9433,181.81932 1508.9999,181.81934 1508.3876,182.4213 C 1508.0461,182.75703 1507.8891,183.03949 1507.8873,183.51431 C 1507.9611,184.08614 1507.6923,184.64845 1507.1973,184.95742 C 1506.7023,185.2664 1506.0703,185.2664 1505.5753,184.95742 C 1505.0804,184.64845 1504.8115,184.08614 1504.8854,183.51431 C 1504.8898,182.34099 1505.3757,181.17423 1506.2196,180.34458 C 1507.1045,179.4746 1508.2725,179.03297 1509.4438,179.03297 z"
       id="path5855-1"
       style="fill:#ffffff;fill-opacity:1;stroke:none;stroke-width:1.70088911;stroke-linecap:round;stroke-miterlimit:4;stroke-dasharray:none;stroke-opacity:1;display:inline" />
    <path
       d="M 1510.6545,185.02088 C 1511.2218,185.10383 1511.6922,185.50291 1511.8666,186.04914 C 1512.0409,186.59536 1511.8886,187.19318 1511.4742,187.58945 C 1511.2222,187.84605 1511.1057,188.00152 1511.037,188.35455 C 1510.871,189.16948 1510.0758,189.69554 1509.2609,189.52954 C 1508.446,189.36353 1507.9199,188.56833 1508.0859,187.7534 C 1508.2524,186.89709 1508.6769,186.08052 1509.2882,185.45808 C 1509.6399,185.08993 1510.1544,184.92531 1510.6545,185.02088 z"
       id="path5925"
       style="fill:#ffffff;fill-opacity:1;stroke:none;stroke-width:1.71544778;stroke-linecap:round;stroke-miterlimit:4;stroke-dasharray:none;stroke-opacity:1;display:inline" />
    <path
       d="M 736.86871,179.71892 A 1.7154472,1.7154472 0 1 1 733.43781,179.71892 A 1.7154472,1.7154472 0 1 1 736.86871,179.71892 z"
       transform="matrix(0.8744076,0,0,0.8744076,866.67819,31.378553)"
       id="path5855-3"
       style="fill:#ffffff;fill-opacity:1;stroke:none;display:inline" />
    <rect
       width="3"
       height="3"
       rx="0.98178333"
       ry="0.98178333"
       x="1198.4176"
       y="-938.47565"
       transform="matrix(0.7071068,0.7071068,-0.7071068,0.7071068,0,0)"
       id="rect16795"
       style="fill:#ffffff;fill-opacity:1;stroke:none;display:inline" />
  </g>
  <g
     transform="translate(-1497.9633,-174.99739)"
     id="layer9" />
  <g
     transform="translate(-1497.9633,-174.99739)"
     id="layer6" />
</svg>
