<?xml version="1.0" encoding="UTF-8" standalone="no"?>
<!-- Created with Inkscape (http://www.inkscape.org/) -->
<svg
   xmlns:svg="http://www.w3.org/2000/svg"
   xmlns="http://www.w3.org/2000/svg"
   version="1.0"
   width="24"
   height="24"
   id="svg7384">
  <defs
     id="defs7386" />
  <g
     transform="translate(-1469.001,-175.01474)"
     id="layer3" />
  <g
     transform="translate(-1469.001,-175.01474)"
     id="layer5" />
  <g
     transform="translate(-1469.001,-175.01474)"
     id="layer7" />
  <g
     transform="translate(-1469.001,-175.01474)"
     id="layer2" />
  <g
     transform="translate(-1469.001,-175.01474)"
     id="layer8" />
  <g
     transform="translate(-1469.001,-1127.3769)"
     id="layer1" />
  <g
     transform="translate(-1469.001,-175.01474)"
     id="layer4">
    <rect
       width="24"
       height="24"
       x="-199.01474"
       y="1469.001"
       transform="matrix(0,-1,1,0,0,0)"
       id="rect5687"
       style="opacity:0;fill:#ffffff;fill-opacity:1;stroke:none;display:inline" />
    <rect
       width="20.999989"
       height="2.9999962"
       rx="1.499998"
       ry="1.4999981"
       x="1471.001"
       y="193.01476"
       id="rect16663"
       style="fill:#febf00;fill-opacity:1;stroke:none;display:inline" />
    <path
       d="M 1471.2032,193.75635 L 1480.209,177.75765 C 1480.6245,177.03805 1481.5384,176.79315 1482.2581,177.20865 C 1482.9777,177.62415 1483.2226,178.53805 1482.8071,179.25765 L 1473.8012,195.25635 C 1473.3857,195.97595 1472.4719,196.22085 1471.7522,195.80535 C 1471.0325,195.38985 1470.7877,194.47595 1471.2032,193.75635 L 1471.2032,193.75635 L 1471.2032,193.75635 z"
       id="rect16665"
       style="fill:#febf00;fill-opacity:1;stroke:none;display:inline" />
    <path
       d="M 1491.7986,193.76325 L 1482.7736,177.75315 C 1482.3581,177.03345 1481.4442,176.78865 1480.7245,177.20415 C 1480.0049,177.61965 1479.76,178.53345 1480.1755,179.25315 L 1489.2006,195.26325 C 1489.6161,195.98295 1490.5299,196.22785 1491.2496,195.81235 C 1491.9693,195.39685 1492.2141,194.48295 1491.7986,193.76325 z"
       id="rect16667"
       style="fill:#febf00;fill-opacity:1;stroke:none;display:inline" />
    <path
       d="M 1481.2715,180.42135 L 1489.5479,194.47555 L 1472.0248,194.55655 L 1481.2715,180.42105 L 1481.2715,180.42135 L 1481.2715,180.42135 z"
       id="rect16671"
       style="fill:#febf00;fill-opacity:1;stroke:none;display:inline" />
    <rect
       width="7"
       height="2.9999962"
       rx="1.4999981"
       ry="1.4999981"
       x="-189.01476"
       y="1480.001"
       transform="matrix(0,-1,1,0,0,0)"
       id="rect16663-8"
       style="fill:#ffffff;fill-opacity:1;stroke:none;display:inline" />
    <rect
       width="3.008482"
       height="3"
       rx="0.9902699"
       ry="0.9902699"
       x="1479.9924"
       y="190.01476"
       id="rect16797"
       style="fill:#ffffff;fill-opacity:1;stroke:none;display:inline" />
  </g>
  <g
     transform="translate(-1469.001,-175.01474)"
     id="layer9" />
  <g
     transform="translate(-1469.001,-175.01474)"
     id="layer6" />
</svg>
