<?xml version="1.0" encoding="UTF-8" standalone="no"?>
<!-- Created with Inkscape (http://www.inkscape.org/) -->
<svg
   xmlns:svg="http://www.w3.org/2000/svg"
   xmlns="http://www.w3.org/2000/svg"
   version="1.0"
   width="24"
   height="24"
   id="svg7384">
  <title
     id="title9167">Moblin Icon Theme</title>
  <defs
     id="defs7386" />
  <g
     transform="translate(-1440.001,-174.01474)"
     id="layer3">
    <rect
       width="24"
       height="24"
       x="-198.01474"
       y="1440.001"
       transform="matrix(0,-1,1,0,0,0)"
       id="rect7334-2"
       style="opacity:0;fill:#ffffff;fill-opacity:1;stroke:none;display:inline" />
    <path
       d="M 1499.676,455.81107 A 9.2134676,9.2134676 0 1 1 1481.2491,455.81107 A 9.2134676,9.2134676 0 1 1 1499.676,455.81107 z"
       transform="matrix(1.031099,0,0,1.0310994,-84.31346,-284.47185)"
       id="path16727"
       style="fill:#009bce;fill-opacity:1;stroke:none;display:inline" />
    <rect
       width="8.9999695"
       height="2.9999962"
       rx="1.4999981"
       ry="1.4999981"
       x="183.13976"
       y="1451.251"
       transform="matrix(0,1,1,0,0,0)"
       id="rect16698"
       style="fill:#ffffff;fill-opacity:1;stroke:none;display:inline" />
    <rect
       width="3.008482"
       height="3"
       rx="0.9902699"
       ry="0.9902699"
       x="1451.001"
       y="179.01476"
       id="rect16797-3"
       style="fill:#ffffff;fill-opacity:1;stroke:none;display:inline" />
  </g>
  <g
     transform="translate(-1440.001,-174.01474)"
     id="layer5" />
  <g
     transform="translate(-1440.001,-174.01474)"
     id="layer7" />
  <g
     transform="translate(-1440.001,-174.01474)"
     id="layer2" />
  <g
     transform="translate(-1440.001,-174.01474)"
     id="layer8" />
  <g
     transform="translate(-1440.001,-1126.3769)"
     id="layer1" />
  <g
     transform="translate(-1440.001,-174.01474)"
     id="layer11" />
  <g
     transform="translate(-1440.001,-174.01474)"
     id="layer4" />
  <g
     transform="translate(-1440.001,-174.01474)"
     id="layer12" />
  <g
     transform="translate(-1440.001,-174.01474)"
     id="layer9" />
  <g
     transform="translate(-1440.001,-174.01474)"
     id="layer10" />
  <g
     transform="translate(-1440.001,-174.01474)"
     id="layer6" />
</svg>
