<?xml version="1.0" encoding="UTF-8" standalone="no"?>
<!-- Created with Inkscape (http://www.inkscape.org/) -->
<svg
   xmlns:svg="http://www.w3.org/2000/svg"
   xmlns="http://www.w3.org/2000/svg"
   version="1.0"
   width="24"
   height="24"
   id="svg7384">
  <title
     id="title9167">Moblin Icon Theme</title>
  <defs
     id="defs7386" />
  <g
     transform="translate(-1439.9897,-396)"
     id="layer3">
    <rect
       width="24"
       height="24"
       x="-1463.9897"
       y="396"
       transform="scale(-1,1)"
       id="rect13226-7-1"
       style="opacity:0;fill:#ffffff;fill-opacity:1;stroke:none;display:inline" />
    <path
       d="M 1444.8438,400 C 1444.3284,400.04855 1443.9353,400.48235 1443.9375,401 L 1443.9375,410.28125 L 1442.0938,414.625 C 1441.9684,414.93496 1442.0063,415.28705 1442.1946,415.5633 C 1442.3829,415.83956 1442.6969,416.00343 1443.0312,416 L 1461.0312,416 C 1461.3684,415.99744 1461.6816,415.82514 1461.8642,415.54171 C 1462.0469,415.25828 1462.0744,414.90188 1461.9375,414.59375 L 1460,410.25 L 1460,401 C 1459.9999,400.44774 1459.5523,400.00006 1459,400 L 1444.9375,400 C 1444.9063,399.99854 1444.875,399.99854 1444.8438,400 z M 1445.9375,402 L 1458,402 L 1458,410.4375 C 1458.0024,410.578 1458.0343,410.71643 1458.0938,410.84375 L 1459.5,414 L 1444.5312,414 L 1445.875,410.84375 C 1445.9237,410.71412 1445.945,410.57578 1445.9375,410.4375 L 1445.9375,402 z"
       id="path10147-4"
       style="fill:#bebebe;fill-opacity:1;stroke:none;stroke-width:2;stroke-linecap:round;stroke-linejoin:round;stroke-miterlimit:4;stroke-dasharray:none;stroke-opacity:1" />
  </g>
  <g
     transform="translate(-1439.9897,-396)"
     id="layer5" />
  <g
     transform="translate(-1439.9897,-396)"
     id="layer7" />
  <g
     transform="translate(-1439.9897,-396)"
     id="layer2" />
  <g
     transform="translate(-1439.9897,-396)"
     id="layer8" />
  <g
     transform="translate(-1439.9897,-1348.3622)"
     id="layer1" />
  <g
     transform="translate(-1439.9897,-396)"
     id="layer11" />
  <g
     transform="translate(-1439.9897,-396)"
     id="layer4" />
  <g
     transform="translate(-1439.9897,-396)"
     id="layer12" />
  <g
     transform="translate(-1439.9897,-396)"
     id="layer9" />
  <g
     transform="translate(-1439.9897,-396)"
     id="layer10" />
  <g
     transform="translate(-1439.9897,-396)"
     id="layer6" />
</svg>
