<?xml version="1.0" encoding="UTF-8" standalone="no"?>
<!-- Created with Inkscape (http://www.inkscape.org/) -->
<svg
   xmlns:svg="http://www.w3.org/2000/svg"
   xmlns="http://www.w3.org/2000/svg"
   version="1.0"
   width="24"
   height="24"
   id="svg7384">
  <title
     id="title9167">Moblin Icon Theme</title>
  <defs
     id="defs7386" />
  <g
     transform="translate(-1526,-396)"
     id="layer3">
    <rect
       width="24"
       height="24"
       x="1526"
       y="396"
       id="rect8971"
       style="opacity:0;fill:#ffffff;fill-opacity:1;stroke:none;display:inline" />
    <path
       d="M 1528.4688,400 C 1527.1266,400 1526,401.12656 1526,402.46875 L 1526,411.53125 C 1526,412.87344 1527.1265,414 1528.4688,414 L 1547.5312,414 C 1548.8734,414 1550,412.87344 1550,411.53125 L 1550,402.46875 C 1550,401.12656 1548.8735,400 1547.5312,400 L 1528.4688,400 z M 1528.4688,402 L 1547.5312,402 C 1547.8001,402 1548,402.19996 1548,402.46875 L 1548,411.53125 C 1548,411.80003 1547.8,412 1547.5312,412 L 1528.4688,412 C 1528.1999,412 1528,411.80004 1528,411.53125 L 1528,402.46875 C 1528,402.19997 1528.2,402 1528.4688,402 z"
       id="rect8973"
       style="fill:#bebebe;fill-opacity:1;stroke:none;stroke-width:2;marker:none;stroke-miterlimit:4;stroke-dasharray:none;stroke-opacity:1;visibility:visible;display:inline;overflow:visible;enable-background:new" />
    <path
       d="M 1534.9688,416 C 1534.4165,416.02587 1533.9898,416.49457 1534.0157,417.04685 C 1534.0415,417.59913 1534.5102,418.02587 1535.0625,418 L 1540.875,418 C 1541.2356,418.0051 1541.5711,417.81562 1541.7529,417.50413 C 1541.9347,417.19263 1541.9347,416.80737 1541.7529,416.49587 C 1541.5711,416.18438 1541.2356,415.9949 1540.875,416 L 1535.0625,416 C 1535.0313,415.99854 1535,415.99854 1534.9688,416 L 1534.9688,416 z"
       id="path8975"
       style="fill:#bebebe;fill-opacity:1;fill-rule:nonzero;stroke:none;stroke-width:2;stroke-linecap:round;stroke-linejoin:miter;marker:none;stroke-miterlimit:4;stroke-dasharray:none;stroke-dashoffset:0;stroke-opacity:1;visibility:visible;display:inline;overflow:visible;enable-background:new" />
    <path
       d="M 1537,403.0625 L 1538,403.0625 L 1538,402.0625 L 1537,402.0625 L 1537,403.0625 z M 1537,405.0625 L 1538,405.0625 L 1538,404.0625 L 1537,404.0625 L 1537,405.0625 z M 1537,407.0625 L 1538,407.0625 L 1538,406.0625 L 1537,406.0625 L 1537,407.0625 z M 1537,409.0625 L 1538,409.0625 L 1538,408.0625 L 1537,408.0625 L 1537,409.0625 z M 1537,411.0625 L 1538,411.0625 L 1538,410.0625 L 1537,410.0625 L 1537,411.0625 z"
       id="path8979"
       style="fill:#bebebe;fill-opacity:1;stroke:none;stroke-width:1;stroke-linecap:butt;stroke-linejoin:miter;marker:none;stroke-miterlimit:4;stroke-dasharray:1, 1;stroke-dashoffset:0;stroke-opacity:1;visibility:visible;display:inline;overflow:visible;enable-background:accumulate" />
  </g>
  <g
     transform="translate(-1526,-396)"
     id="layer5" />
  <g
     transform="translate(-1526,-396)"
     id="layer7" />
  <g
     transform="translate(-1526,-396)"
     id="layer2" />
  <g
     transform="translate(-1526,-396)"
     id="layer8" />
  <g
     transform="translate(-1526,-1348.3622)"
     id="layer1" />
  <g
     transform="translate(-1526,-396)"
     id="layer11" />
  <g
     transform="translate(-1526,-396)"
     id="layer4" />
  <g
     transform="translate(-1526,-396)"
     id="layer12" />
  <g
     transform="translate(-1526,-396)"
     id="layer9" />
  <g
     transform="translate(-1526,-396)"
     id="layer10" />
  <g
     transform="translate(-1526,-396)"
     id="layer6" />
</svg>
