<?xml version="1.0" encoding="UTF-8" standalone="no"?>
<!-- Created with Inkscape (http://www.inkscape.org/) -->
<svg
   xmlns:svg="http://www.w3.org/2000/svg"
   xmlns="http://www.w3.org/2000/svg"
   version="1.0"
   width="24"
   height="24.014709"
   id="svg7384">
  <title
     id="title9167">Moblin Icon Theme</title>
  <defs
     id="defs7386" />
  <g
     transform="translate(-1528,-396)"
     id="layer3">
    <rect
       width="24"
       height="24"
       x="-420.01471"
       y="1528"
       transform="matrix(0,-1,1,0,0,0)"
       id="rect7827"
       style="opacity:0;fill:#ffffff;fill-opacity:1;stroke:none;display:inline" />
    <path
       d="M 1538.9995,411.99893 C 1536.2504,411.99893 1534.0008,409.74929 1534.0008,407.00023 C 1534.0008,404.25116 1536.2504,402.00153 1538.9995,402.00153 C 1541.7485,402.00153 1543.9982,404.25116 1543.9982,407.00023 C 1543.9982,409.74929 1541.7485,411.99893 1538.9995,411.99893 z M 1538.9995,409.99727 C 1540.6664,409.99727 1542.0019,408.66716 1542.0019,407.00023 C 1542.0019,405.33329 1540.6664,403.99774 1538.9995,403.99774 C 1537.3325,403.99774 1536.0024,405.33329 1536.0024,407.00023 C 1536.0024,408.66716 1537.3325,409.99727 1538.9995,409.99727 z"
       id="path7830"
       style="fill:#bebebe;fill-opacity:1;stroke:none;stroke-width:11.49051189;stroke-linecap:round;stroke-linejoin:miter;marker:none;stroke-miterlimit:4;stroke-dasharray:none;stroke-dashoffset:0;stroke-opacity:1;visibility:visible;display:inline;overflow:visible;enable-background:new" />
    <path
       d="M 1538.7812,396 C 1538.3156,396.1043 1537.9885,396.52299 1538,397 L 1538,399 C 1537.9949,399.36064 1538.1844,399.69608 1538.4959,399.87789 C 1538.8074,400.05969 1539.1926,400.05969 1539.5041,399.87789 C 1539.8156,399.69608 1540.0051,399.36064 1540,399 L 1540,397 C 1540.0074,396.69213 1539.8726,396.398 1539.6346,396.20267 C 1539.3965,396.00733 1539.0817,395.93257 1538.7812,396 z"
       id="path7832"
       style="fill:#bebebe;fill-opacity:1;stroke:none;stroke-width:2;stroke-linecap:round;stroke-linejoin:miter;marker:none;stroke-miterlimit:4;stroke-dasharray:none;stroke-dashoffset:0;stroke-opacity:1;visibility:visible;display:inline;overflow:visible;enable-background:new" />
    <path
       d="M 1538.7812,414 C 1538.3156,414.1043 1537.9885,414.52299 1538,415 L 1538,417 C 1537.9949,417.36064 1538.1844,417.69608 1538.4959,417.87789 C 1538.8074,418.05969 1539.1926,418.05969 1539.5041,417.87789 C 1539.8156,417.69608 1540.0051,417.36064 1540,417 L 1540,415 C 1540.0074,414.69213 1539.8726,414.398 1539.6346,414.20267 C 1539.3965,414.00733 1539.0817,413.93257 1538.7812,414 z"
       id="path7834"
       style="fill:#bebebe;fill-opacity:1;stroke:none;stroke-width:2;stroke-linecap:round;stroke-linejoin:miter;marker:none;stroke-miterlimit:4;stroke-dasharray:none;stroke-dashoffset:0;stroke-opacity:1;visibility:visible;display:inline;overflow:visible;enable-background:new" />
    <path
       d="M 1546.9062,406 C 1546.3539,406.0259 1545.9272,406.49462 1545.9531,407.0469 C 1545.979,407.59918 1546.4477,408.0259 1547,408 L 1549,408 C 1549.3606,408.0051 1549.6961,407.81562 1549.8779,407.50413 C 1550.0597,407.19263 1550.0597,406.80737 1549.8779,406.49587 C 1549.6961,406.18438 1549.3606,405.9949 1549,406 L 1547,406 C 1546.9688,405.99853 1546.9374,405.99853 1546.9062,406 z"
       id="path7836"
       style="fill:#bebebe;fill-opacity:1;stroke:none;stroke-width:2;stroke-linecap:round;stroke-linejoin:miter;marker:none;stroke-miterlimit:4;stroke-dasharray:none;stroke-dashoffset:0;stroke-opacity:1;visibility:visible;display:inline;overflow:visible;enable-background:new" />
    <path
       d="M 1528.9062,406 C 1528.3539,406.0259 1527.9272,406.49462 1527.9531,407.0469 C 1527.979,407.59918 1528.4477,408.0259 1529,408 L 1531,408 C 1531.3606,408.0051 1531.6961,407.81562 1531.8779,407.50413 C 1532.0597,407.19263 1532.0597,406.80737 1531.8779,406.49587 C 1531.6961,406.18438 1531.3606,405.9949 1531,406 L 1529,406 C 1528.9688,405.99853 1528.9374,405.99853 1528.9062,406 z"
       id="path7838"
       style="fill:#bebebe;fill-opacity:1;stroke:none;stroke-width:2;stroke-linecap:round;stroke-linejoin:miter;marker:none;stroke-miterlimit:4;stroke-dasharray:none;stroke-dashoffset:0;stroke-opacity:1;visibility:visible;display:inline;overflow:visible;enable-background:new" />
    <path
       d="M 1546.0625,398.90625 C 1545.8013,398.91657 1545.5545,399.02874 1545.375,399.21875 L 1543.9375,400.625 C 1543.5405,401.02195 1543.5405,401.66555 1543.9375,402.0625 C 1544.3345,402.45945 1544.978,402.45945 1545.375,402.0625 L 1546.7812,400.625 C 1547.0772,400.33871 1547.1675,399.90021 1547.0087,399.52025 C 1546.8498,399.1403 1546.4742,398.89659 1546.0625,398.90625 z"
       id="path7840"
       style="fill:#bebebe;fill-opacity:1;stroke:none;stroke-width:2;stroke-linecap:round;stroke-linejoin:miter;marker:none;stroke-miterlimit:4;stroke-dasharray:none;stroke-dashoffset:0;stroke-opacity:1;visibility:visible;display:inline;overflow:visible;enable-background:new" />
    <path
       d="M 1533.2188,411.65625 C 1532.9948,411.68045 1532.7856,411.77955 1532.625,411.9375 L 1531.2188,413.375 C 1530.9206,413.61525 1530.7857,414.00473 1530.8715,414.37797 C 1530.9573,414.7512 1531.2488,415.04265 1531.622,415.12849 C 1531.9953,415.21433 1532.3847,415.07949 1532.625,414.78125 L 1534.0625,413.375 C 1534.3851,413.07452 1534.473,412.59821 1534.2787,412.20243 C 1534.0844,411.80665 1533.6539,411.58478 1533.2188,411.65625 z"
       id="path7842"
       style="fill:#bebebe;fill-opacity:1;stroke:none;stroke-width:2;stroke-linecap:round;stroke-linejoin:miter;marker:none;stroke-miterlimit:4;stroke-dasharray:none;stroke-dashoffset:0;stroke-opacity:1;visibility:visible;display:inline;overflow:visible;enable-background:new" />
    <path
       d="M 1544.4375,411.65625 C 1544.0644,411.72394 1543.7617,411.99682 1543.6557,412.36093 C 1543.5498,412.72504 1543.6589,413.11773 1543.9375,413.375 L 1545.375,414.78125 C 1545.6153,415.07949 1546.0047,415.21433 1546.378,415.12849 C 1546.7512,415.04265 1547.0427,414.7512 1547.1285,414.37797 C 1547.2143,414.00473 1547.0794,413.61525 1546.7812,413.375 L 1545.375,411.9375 C 1545.1329,411.68679 1544.7777,411.58023 1544.4375,411.65625 z"
       id="path7844"
       style="fill:#bebebe;fill-opacity:1;stroke:none;stroke-width:2;stroke-linecap:round;stroke-linejoin:miter;marker:none;stroke-miterlimit:4;stroke-dasharray:none;stroke-dashoffset:0;stroke-opacity:1;visibility:visible;display:inline;overflow:visible;enable-background:new" />
    <path
       d="M 1531.9062,398.90625 C 1531.5002,398.90953 1531.1365,399.15795 1530.9857,399.53494 C 1530.8349,399.91192 1530.927,400.34265 1531.2188,400.625 L 1532.625,402.0625 C 1533.022,402.45945 1533.6655,402.45945 1534.0625,402.0625 C 1534.4595,401.66555 1534.4595,401.02195 1534.0625,400.625 L 1532.625,399.21875 C 1532.4379,399.02112 1532.1783,398.90828 1531.9062,398.90625 z"
       id="path7846"
       style="fill:#bebebe;fill-opacity:1;stroke:none;stroke-width:2;stroke-linecap:round;stroke-linejoin:miter;marker:none;stroke-miterlimit:4;stroke-dasharray:none;stroke-dashoffset:0;stroke-opacity:1;visibility:visible;display:inline;overflow:visible;enable-background:new" />
  </g>
  <g
     transform="translate(-1528,-396)"
     id="layer5" />
  <g
     transform="translate(-1528,-396)"
     id="layer7" />
  <g
     transform="translate(-1528,-396)"
     id="layer2" />
  <g
     transform="translate(-1528,-396)"
     id="layer8" />
  <g
     transform="translate(-1528,-1348.3622)"
     id="layer1" />
  <g
     transform="translate(-1528,-396)"
     id="layer11" />
  <g
     transform="translate(-1528,-396)"
     id="layer4" />
  <g
     transform="translate(-1528,-396)"
     id="layer12" />
  <g
     transform="translate(-1528,-396)"
     id="layer9" />
  <g
     transform="translate(-1528,-396)"
     id="layer10" />
  <g
     transform="translate(-1528,-396)"
     id="layer6" />
</svg>
