<?xml version="1.0" encoding="UTF-8" standalone="no"?>
<!-- Created with Inkscape (http://www.inkscape.org/) -->
<svg
   xmlns:svg="http://www.w3.org/2000/svg"
   xmlns="http://www.w3.org/2000/svg"
   version="1.0"
   width="24"
   height="24"
   id="svg7384">
  <title
     id="title9167">Moblin Icon Theme</title>
  <defs
     id="defs7386" />
  <g
     transform="translate(-1498,-396)"
     id="layer3">
    <rect
       width="24"
       height="24"
       x="1498"
       y="396"
       id="rect8188"
       style="opacity:0;fill:#ffffff;fill-opacity:1;stroke:none;display:inline" />
    <path
       d="M 1502.4688,404 C 1501.1266,404 1500,405.12656 1500,406.46875 L 1500,411.53125 C 1500,412.87344 1501.1265,414 1502.4688,414 L 1511.5312,414 C 1512.8734,414 1514,412.87344 1514,411.53125 L 1514,406.46875 C 1514,405.12656 1512.8735,404 1511.5312,404 L 1502.4688,404 z M 1502.4688,406 L 1511.5312,406 C 1511.8001,406 1512,406.19996 1512,406.46875 L 1512,411.53125 C 1512,411.80003 1511.8,412 1511.5312,412 L 1502.4688,412 C 1502.1999,412 1502,411.80004 1502,411.53125 L 1502,406.46875 C 1502,406.19997 1502.2,406 1502.4688,406 z"
       id="rect8190"
       style="fill:#bebebe;fill-opacity:1;stroke:none;stroke-width:2;marker:none;stroke-miterlimit:4;stroke-dasharray:none;stroke-opacity:1;visibility:visible;display:inline;overflow:visible;enable-background:new" />
    <path
       d="M 1504.875,416 C 1504.3227,416.0259 1503.896,416.49462 1503.9219,417.0469 C 1503.9478,417.59918 1504.4165,418.0259 1504.9688,418 L 1509,418 C 1509.3606,418.0051 1509.6961,417.81562 1509.8779,417.50413 C 1510.0597,417.19263 1510.0597,416.80737 1509.8779,416.49587 C 1509.6961,416.18438 1509.3606,415.9949 1509,416 L 1504.9688,416 C 1504.9376,415.99853 1504.9062,415.99853 1504.875,416 L 1504.875,416 z"
       id="path8192"
       style="fill:#bebebe;fill-opacity:1;fill-rule:nonzero;stroke:none;stroke-width:2;stroke-linecap:round;stroke-linejoin:miter;marker:none;stroke-miterlimit:4;stroke-dasharray:none;stroke-dashoffset:0;stroke-opacity:1;visibility:visible;display:inline;overflow:visible;enable-background:new" />
    <path
       d="M 1508.4688,398 C 1507.1265,398 1506,399.12653 1506,400.46875 L 1506,402.1875 L 1508,402.1875 L 1508,400.46875 C 1508,400.20001 1508.2,400 1508.4688,400 L 1517.5312,400 C 1517.8,400 1518,400.19999 1518,400.46875 L 1518,405.53125 C 1518,405.8 1517.8001,406 1517.5312,406 L 1516.0625,406 L 1516.0625,408 L 1517.5312,408 C 1518.8734,408 1520,406.87347 1520,405.53125 L 1520,400.46875 C 1520,399.12653 1518.8734,398 1517.5312,398 L 1508.4688,398 z"
       id="rect8966"
       style="fill:#bebebe;fill-opacity:1;stroke:none;stroke-width:2;marker:none;stroke-miterlimit:4;stroke-opacity:1;visibility:visible;display:inline;overflow:visible;enable-background:new" />
  </g>
  <g
     transform="translate(-1498,-396)"
     id="layer5" />
  <g
     transform="translate(-1498,-396)"
     id="layer7" />
  <g
     transform="translate(-1498,-396)"
     id="layer2" />
  <g
     transform="translate(-1498,-396)"
     id="layer8" />
  <g
     transform="translate(-1498,-1348.3622)"
     id="layer1" />
  <g
     transform="translate(-1498,-396)"
     id="layer11" />
  <g
     transform="translate(-1498,-396)"
     id="layer4" />
  <g
     transform="translate(-1498,-396)"
     id="layer12" />
  <g
     transform="translate(-1498,-396)"
     id="layer9" />
  <g
     transform="translate(-1498,-396)"
     id="layer10" />
  <g
     transform="translate(-1498,-396)"
     id="layer6" />
</svg>
