<?xml version="1.0" encoding="UTF-8" standalone="no"?>
<!-- Created with Inkscape (http://www.inkscape.org/) -->
<svg
   xmlns:svg="http://www.w3.org/2000/svg"
   xmlns="http://www.w3.org/2000/svg"
   version="1.0"
   width="24"
   height="24"
   id="svg7384">
  <title
     id="title9167">Moblin Icon Theme</title>
  <defs
     id="defs7386" />
  <g
     transform="translate(-1468,-396)"
     id="layer3">
    <rect
       width="24"
       height="24"
       x="1468"
       y="396"
       id="rect9626-7"
       style="opacity:0;fill:#ffffff;fill-opacity:1;stroke:none;display:inline" />
    <path
       d="M 1473.0625,398 C 1471.3485,398 1469.9375,399.41105 1469.9375,401.125 L 1469.9375,410.875 C 1469.9375,412.58895 1471.3486,413.99999 1473.0625,414 L 1486.8125,414 C 1488.5265,414 1489.9375,412.58895 1489.9375,410.875 L 1489.9375,401.125 C 1489.9375,399.41105 1488.5265,398 1486.8125,398 L 1473.0625,398 z M 1473.0625,400 L 1486.8125,400 C 1487.453,400 1487.9375,400.48445 1487.9375,401.125 L 1487.9375,410.875 C 1487.9375,411.51554 1487.453,412 1486.8125,412 L 1473.0625,412 C 1472.4219,412 1471.9375,411.51555 1471.9375,410.875 L 1471.9375,401.125 C 1471.9375,400.48445 1472.422,400 1473.0625,400 z"
       id="rect9658-0"
       style="fill:#bebebe;fill-opacity:1;stroke:none;stroke-width:2;marker:none;stroke-miterlimit:4;stroke-dasharray:none;stroke-opacity:1;visibility:visible;display:inline;overflow:visible;enable-background:new" />
    <path
       d="M 1476.875,415 C 1476.3227,415.03452 1475.903,415.51022 1475.9375,416.0625 C 1475.972,416.61478 1476.4477,417.03452 1477,417 L 1482.875,417 C 1483.2356,417.0051 1483.5711,416.81562 1483.7529,416.50412 C 1483.9347,416.19263 1483.9347,415.80737 1483.7529,415.49588 C 1483.5711,415.18438 1483.2356,414.9949 1482.875,415 L 1477,415 C 1476.9584,414.99739 1476.9166,414.99739 1476.875,415 z"
       id="path9660-4"
       style="fill:#bebebe;fill-opacity:1;fill-rule:nonzero;stroke:none;stroke-width:1.99999964;stroke-linecap:round;stroke-linejoin:miter;marker:none;stroke-miterlimit:4;stroke-dasharray:none;stroke-dashoffset:0;stroke-opacity:1;visibility:visible;display:inline;overflow:visible;enable-background:new" />
  </g>
  <g
     transform="translate(-1468,-396)"
     id="layer5" />
  <g
     transform="translate(-1468,-396)"
     id="layer7" />
  <g
     transform="translate(-1468,-396)"
     id="layer2" />
  <g
     transform="translate(-1468,-396)"
     id="layer8" />
  <g
     transform="translate(-1468,-1348.3622)"
     id="layer1" />
  <g
     transform="translate(-1468,-396)"
     id="layer11" />
  <g
     transform="translate(-1468,-396)"
     id="layer4" />
  <g
     transform="translate(-1468,-396)"
     id="layer12" />
  <g
     transform="translate(-1468,-396)"
     id="layer9" />
  <g
     transform="translate(-1468,-396)"
     id="layer10" />
  <g
     transform="translate(-1468,-396)"
     id="layer6" />
</svg>
