<?xml version="1.0" encoding="UTF-8" standalone="no"?>
<!-- Created with Inkscape (http://www.inkscape.org/) -->
<svg
   xmlns:svg="http://www.w3.org/2000/svg"
   xmlns="http://www.w3.org/2000/svg"
   version="1.0"
   width="24"
   height="24"
   id="svg7384">
  <defs
     id="defs7386" />
  <g
     transform="translate(-1413,-257.00293)"
     id="layer3">
    <rect
       width="24"
       height="24"
       x="-1437"
       y="257.00293"
       transform="scale(-1,1)"
       id="rect6369"
       style="opacity:0;fill:#ffffff;fill-opacity:1;stroke:none;display:inline" />
    <path
       d="M 1414.9062,258 C 1414.3909,258.0486 1413.9978,258.48238 1414,259 L 1414,276 C 1414.0001,276.55226 1414.4477,276.99994 1415,277 L 1431,277 C 1432.2121,277 1433.4651,276.64333 1434.4375,275.8125 C 1435.4099,274.98167 1436.0312,273.65457 1436.0312,272.03125 L 1436.0312,266.03125 C 1436.0311,265.47899 1435.5835,265.03131 1435.0312,265.03125 L 1433,265.03125 C 1433.0059,264.96889 1433.0059,264.90611 1433,264.84375 L 1433,262 C 1432.9999,261.44774 1432.5523,261.00006 1432,261 L 1424,261 L 1424,259 C 1423.9999,258.44774 1423.5523,258.00006 1423,258 L 1415,258 C 1414.9688,257.99853 1414.9374,257.99853 1414.9062,258 z M 1416,260 L 1422,260 L 1422,262 C 1422.0001,262.55226 1422.4477,262.99994 1423,263 L 1431,263 L 1431,264.84375 C 1431.0044,264.9071 1431.0149,264.96988 1431.0312,265.03125 L 1420,265.03125 C 1419.6394,265.02615 1419.3039,265.21563 1419.1221,265.52712 C 1418.9403,265.83862 1418.9403,266.22388 1419.1221,266.53538 C 1419.3039,266.84687 1419.6394,267.03635 1420,267.03125 L 1434.0312,267.03125 L 1434.0312,272.03125 C 1434.0312,273.17273 1433.6599,273.85545 1433.125,274.3125 C 1432.5901,274.76955 1431.8208,275 1431,275 L 1416,275 L 1416,260 z"
       id="path6371"
       style="fill:#bebebe;fill-opacity:1;stroke:none;stroke-width:2;stroke-linecap:round;stroke-linejoin:round;stroke-miterlimit:4;stroke-dasharray:none;stroke-opacity:1" />
    <path
       d="M 1419,266.03125 L 1419,272.03125 C 1418.9962,273.1879 1418.311,273.7526 1417.5312,274.125 C 1416.7515,274.4974 1415.9375,274.5625 1415.9375,274.5625 L 1416.0312,275.5625 C 1416.0312,275.5625 1416.9977,275.495 1417.9688,275.03125 C 1418.9398,274.5675 1419.9948,273.61339 1420,272.03125 L 1420,266.03125 L 1419,266.03125 z"
       id="path6373"
       style="fill:#bebebe;fill-opacity:1;stroke:none;stroke-width:1px;stroke-linecap:butt;stroke-linejoin:miter;stroke-opacity:1" />
  </g>
  <g
     transform="translate(-1413,-257.00293)"
     id="layer5" />
  <g
     transform="translate(-1413,-257.00293)"
     id="layer7" />
  <g
     transform="translate(-1413,-257.00293)"
     id="layer2" />
  <g
     transform="translate(-1413,-257.00293)"
     id="layer8" />
  <g
     transform="translate(-1413,-1209.3651)"
     id="layer1" />
  <g
     transform="translate(-1413,-257.00293)"
     id="layer4" />
  <g
     transform="translate(-1413,-257.00293)"
     id="layer9" />
  <g
     transform="translate(-1413,-257.00293)"
     id="layer6" />
</svg>
