<?xml version="1.0" encoding="UTF-8" standalone="no"?>
<!-- Created with Inkscape (http://www.inkscape.org/) -->
<svg
   xmlns:svg="http://www.w3.org/2000/svg"
   xmlns="http://www.w3.org/2000/svg"
   version="1.0"
   width="24"
   height="24"
   id="svg7384">
  <defs
     id="defs7386" />
  <g
     transform="translate(-1413,-205.00293)"
     id="layer3">
    <rect
       width="24"
       height="24"
       x="-1437"
       y="205.00293"
       transform="scale(-1,1)"
       id="rect5663"
       style="opacity:0;fill:#ffffff;fill-opacity:1;stroke:none;display:inline" />
    <path
       d="M 1414.9062,206 C 1414.3909,206.0486 1413.9978,206.48238 1414,207 L 1414,224 C 1414.0001,224.55226 1414.4477,224.99994 1415,225 L 1431,225 C 1432.3351,225 1433.4513,224.27834 1434.0938,223.3125 C 1434.7362,222.34666 1435,221.16251 1435,219.96875 L 1435,213 C 1434.9999,212.44774 1434.5523,212.00006 1434,212 L 1433,212 L 1433,210 C 1432.9999,209.44774 1432.5523,209.00006 1432,209 L 1424,209 L 1424,207 C 1423.9999,206.44774 1423.5523,206.00006 1423,206 L 1415,206 C 1414.9688,205.99853 1414.9374,205.99853 1414.9062,206 z M 1416,208 L 1422,208 L 1422,210 C 1422.0001,210.55226 1422.4477,210.99994 1423,211 L 1431,211 L 1431,213 C 1431.0001,213.55226 1431.4477,213.99994 1432,214 L 1433,214 L 1433,219.96875 C 1433,220.85211 1432.7868,221.69354 1432.4375,222.21875 C 1432.0882,222.74396 1431.6978,223 1431,223 L 1416,223 L 1416,208 z"
       id="path5665"
       style="opacity:0.5;fill:#bebebe;fill-opacity:1;stroke:none;stroke-width:2;stroke-linecap:butt;stroke-linejoin:round;stroke-miterlimit:4;stroke-dasharray:none;stroke-dashoffset:0.4;stroke-opacity:1" />
    <path
       d="M 1415.5,207.5 L 1415,207.5 L 1415,208 L 1415.5,208 L 1416,208 L 1416.375,208 L 1416.375,207 L 1415.5,207 L 1415.5,207.5 z M 1417.375,208 L 1418.375,208 L 1418.375,207 L 1417.375,207 L 1417.375,208 z M 1419.375,208 L 1420.375,208 L 1420.375,207 L 1419.375,207 L 1419.375,208 z M 1421.375,208 L 1422.375,208 L 1422.375,207 L 1421.375,207 L 1421.375,208 z M 1422,209.375 L 1423,209.375 L 1423,208.375 L 1422,208.375 L 1422,209.375 z M 1415,210 L 1416,210 L 1416,209 L 1415,209 L 1415,210 z M 1422.9062,209.96875 L 1422.9062,210 L 1422.6562,210.3125 L 1422.6562,210.34375 L 1422.2188,210.625 L 1422.375,210.78125 L 1422.5312,210.875 L 1422.7188,210.9375 L 1422.9062,211 L 1423,211 L 1423.5938,211 L 1423.5938,210 L 1423.0938,210 L 1423.0312,210 L 1423,210 L 1422.9375,209.9375 L 1422.9062,209.96875 z M 1424.5938,211 L 1425.5938,211 L 1425.5938,210 L 1424.5938,210 L 1424.5938,211 z M 1426.5938,211 L 1427.5938,211 L 1427.5938,210 L 1426.5938,210 L 1426.5938,211 z M 1428.5938,211 L 1429.5938,211 L 1429.5938,210 L 1428.5938,210 L 1428.5938,211 z M 1430.5938,211 L 1431.5,211 L 1431.5,210.59375 L 1432,210.59375 L 1432,210.5 L 1431.5,210 L 1430.5938,210 L 1430.5938,211 z M 1415,212 L 1416,212 L 1416,211 L 1415,211 L 1415,212 z M 1431,212.59375 L 1432,212.59375 L 1432,211.59375 L 1431,211.59375 L 1431,212.59375 z M 1431.7188,213.9375 L 1431.9062,214 L 1432,214 L 1432.8125,214 L 1432.8125,213 L 1432.0938,213 L 1432,213 L 1431.9062,212.96875 L 1431.7188,213.9375 z M 1415,214 L 1416,214 L 1416,213 L 1415,213 L 1415,214 z M 1433,214.8125 L 1434,214.8125 L 1434,213.8125 L 1433,213.8125 L 1433,214.8125 z M 1415,216 L 1416,216 L 1416,215 L 1415,215 L 1415,216 z M 1433,216.8125 L 1434,216.8125 L 1434,215.8125 L 1433,215.8125 L 1433,216.8125 z M 1415,218 L 1416,218 L 1416,217 L 1415,217 L 1415,218 z M 1433,218.8125 L 1434,218.8125 L 1434,217.8125 L 1433,217.8125 L 1433,218.8125 z M 1415,220 L 1416,220 L 1416,219 L 1415,219 L 1415,220 z M 1433,219.9375 L 1433,219.96875 L 1432.9688,220.59375 L 1432.9688,220.65625 L 1432.9375,220.71875 L 1433.9375,220.90625 L 1433.9375,220.78125 L 1433.9688,220.71875 L 1434,220 L 1434,219.96875 L 1434,219.8125 L 1433,219.8125 L 1433,219.9375 z M 1415,222 L 1416,222 L 1416,221 L 1415,221 L 1415,222 z M 1432.6875,221.75 L 1432.6562,221.8125 L 1432.4688,222.1875 L 1432.4375,222.25 L 1432.4062,222.28125 L 1432.3438,222.34375 L 1433.125,222.96875 L 1433.2188,222.8125 L 1433.2812,222.71875 L 1433.5625,222.21875 L 1433.5938,222.125 L 1433.6562,221.9375 L 1432.7188,221.625 L 1432.6875,221.75 z M 1431.5312,222.9375 L 1431.4688,222.9375 L 1430.9375,223 L 1431.0625,224 L 1431.6562,223.9375 L 1431.7812,223.90625 L 1432.1562,223.75 L 1431.7812,222.8125 L 1431.5312,222.9375 z M 1415,223.5 L 1415.5,224 L 1416,224 L 1416,223.5 L 1416,223 L 1415.5,223 L 1415,223 L 1415,223.5 z M 1417,224 L 1418,224 L 1418,223 L 1417,223 L 1417,224 z M 1419,224 L 1420,224 L 1420,223 L 1419,223 L 1419,224 z M 1421,224 L 1422,224 L 1422,223 L 1421,223 L 1421,224 z M 1423,224 L 1424,224 L 1424,223 L 1423,223 L 1423,224 z M 1425,224 L 1426,224 L 1426,223 L 1425,223 L 1425,224 z M 1427,224 L 1428,224 L 1428,223 L 1427,223 L 1427,224 z M 1429,224 L 1430,224 L 1430,223 L 1429,223 L 1429,224 z"
       id="path5725"
       style="fill:#bebebe;fill-opacity:1;stroke:none;stroke-width:1;stroke-linecap:butt;stroke-linejoin:round;stroke-miterlimit:4;stroke-dasharray:1, 1;stroke-dashoffset:0.5;stroke-opacity:1" />
  </g>
  <g
     transform="translate(-1413,-205.00293)"
     id="layer5" />
  <g
     transform="translate(-1413,-205.00293)"
     id="layer7" />
  <g
     transform="translate(-1413,-205.00293)"
     id="layer2" />
  <g
     transform="translate(-1413,-205.00293)"
     id="layer8" />
  <g
     transform="translate(-1413,-1157.3651)"
     id="layer1" />
  <g
     transform="translate(-1413,-205.00293)"
     id="layer4" />
  <g
     transform="translate(-1413,-205.00293)"
     id="layer9" />
  <g
     transform="translate(-1413,-205.00293)"
     id="layer6" />
</svg>
