<?xml version="1.0" encoding="UTF-8" standalone="no"?>
<!-- Created with Inkscape (http://www.inkscape.org/) -->
<svg
   xmlns:svg="http://www.w3.org/2000/svg"
   xmlns="http://www.w3.org/2000/svg"
   version="1.0"
   width="24.02722"
   height="24"
   id="svg7384">
  <title
     id="title9167">Moblin Icon Theme</title>
  <defs
     id="defs7386" />
  <g
     transform="translate(-1411.9728,-229.98822)"
     id="layer3">
    <rect
       width="24"
       height="24"
       x="-1435.9728"
       y="229.98822"
       transform="scale(-1,1)"
       id="rect5679"
       style="opacity:0;fill:#ffffff;fill-opacity:1;stroke:none;display:inline" />
    <path
       d="M 1417.9688,244 L 1417.9688,245 L 1417.9688,247.4375 C 1417.965,248.56406 1417.6701,248.72874 1417.4688,248.84375 C 1417.2674,248.95876 1417.0625,248.96875 1417.0625,248.96875 C 1416.684,248.87217 1416.2838,249.00485 1416.038,249.30847 C 1415.7922,249.61209 1415.7456,250.03106 1415.9188,250.38122 C 1416.092,250.73139 1416.4533,250.94865 1416.8438,250.9375 C 1416.8438,250.9375 1417.6393,251.04971 1418.4375,250.59375 C 1419.2357,250.13779 1419.9635,249.04973 1419.9688,247.4375 L 1419.9688,246 L 1434.5312,246 C 1434.8918,246.0051 1435.2273,245.81562 1435.4091,245.50413 C 1435.5909,245.19263 1435.5909,244.80737 1435.4091,244.49587 C 1435.2273,244.18438 1434.8918,243.9949 1434.5312,244 L 1418.9688,244 L 1417.9688,244 z"
       id="path5683"
       style="fill:#bebebe;fill-opacity:1;stroke:none;stroke-width:2;stroke-linecap:round;stroke-linejoin:miter;stroke-miterlimit:4;stroke-dasharray:none;stroke-opacity:1" />
    <path
       d="M 1412.9688,230 C 1412.4534,230.04855 1412.0603,230.48235 1412.0625,231 L 1412.0625,252.96875 C 1412.0626,253.52101 1412.5102,253.96869 1413.0625,253.96875 L 1431.375,253.96875 C 1432.8227,253.96875 1434.0604,253.32946 1434.8438,252.375 C 1435.6271,251.42054 1436,250.18089 1436,248.9375 L 1436,234.96875 C 1435.9999,234.41649 1435.5523,233.96881 1435,233.96875 L 1424.0312,233.96875 C 1424.0441,233.50176 1424.0625,233.03125 1424.0625,233.03125 C 1424.0627,233.02083 1424.0627,233.01042 1424.0625,233 C 1424.0625,231.35637 1422.71,230 1421.0312,230 L 1413.0625,230 C 1413.0313,229.99854 1413,229.99854 1412.9688,230 z M 1414.0625,232 L 1421.0312,232 C 1421.4897,232 1422.0625,232.60919 1422.0625,233 C 1422.0625,233 1422,234.9375 1422,234.9375 C 1421.9916,235.20808 1422.0932,235.47052 1422.2816,235.66487 C 1422.4701,235.85921 1422.7293,235.96885 1423,235.96875 L 1434,235.96875 L 1434,248.9375 C 1434,249.77122 1433.7217,250.55716 1433.2812,251.09375 C 1432.8408,251.63034 1432.2696,251.96875 1431.375,251.96875 L 1414.0625,251.96875 L 1414.0625,232 z"
       id="path8794-8"
       style="fill:#bebebe;fill-opacity:1;stroke:none;stroke-width:2;stroke-linecap:round;stroke-linejoin:round;stroke-miterlimit:4;stroke-dasharray:none;stroke-opacity:1" />
  </g>
  <g
     transform="translate(-1411.9728,-229.98822)"
     id="layer5" />
  <g
     transform="translate(-1411.9728,-229.98822)"
     id="layer7" />
  <g
     transform="translate(-1411.9728,-229.98822)"
     id="layer2" />
  <g
     transform="translate(-1411.9728,-229.98822)"
     id="layer8" />
  <g
     transform="translate(-1411.9728,-1182.3504)"
     id="layer1" />
  <g
     transform="translate(-1411.9728,-229.98822)"
     id="layer11" />
  <g
     transform="translate(-1411.9728,-229.98822)"
     id="layer4" />
  <g
     transform="translate(-1411.9728,-229.98822)"
     id="layer12" />
  <g
     transform="translate(-1411.9728,-229.98822)"
     id="layer9" />
  <g
     transform="translate(-1411.9728,-229.98822)"
     id="layer10" />
  <g
     transform="translate(-1411.9728,-229.98822)"
     id="layer6" />
</svg>
