<?xml version="1.0" encoding="UTF-8" standalone="no"?>
<!-- Created with Inkscape (http://www.inkscape.org/) -->
<svg
   xmlns:svg="http://www.w3.org/2000/svg"
   xmlns="http://www.w3.org/2000/svg"
   version="1.0"
   width="24"
   height="24"
   id="svg7384">
  <defs
     id="defs7386" />
  <g
     transform="translate(-1413,-231.00293)"
     id="layer3">
    <rect
       width="24"
       height="24"
       x="-1437"
       y="231.00293"
       transform="scale(-1,1)"
       id="rect5679"
       style="opacity:0;fill:#ffffff;fill-opacity:1;stroke:none;display:inline" />
    <path
       d="M 1414.9062,232 C 1414.3909,232.0486 1413.9978,232.48238 1414,233 L 1414,250 C 1414.0001,250.55226 1414.4477,250.99994 1415,251 L 1431,251 C 1432.2121,251 1433.4651,250.64333 1434.4375,249.8125 C 1435.4099,248.98167 1436.0312,247.65457 1436.0312,246.03125 L 1436.0312,242.03125 C 1436.0311,241.47899 1435.5835,241.03131 1435.0312,241.03125 L 1433,241.03125 C 1433.0059,240.96889 1433.0059,240.90611 1433,240.84375 L 1433,236 C 1432.9999,235.44774 1432.5523,235.00006 1432,235 L 1424,235 L 1424,233 C 1423.9999,232.44774 1423.5523,232.00006 1423,232 L 1415,232 C 1414.9688,231.99853 1414.9374,231.99853 1414.9062,232 z M 1416,234 L 1422,234 L 1422,236 C 1422.0001,236.55226 1422.4477,236.99994 1423,237 L 1431,237 L 1431,240.84375 C 1431.0044,240.9071 1431.0149,240.96988 1431.0312,241.03125 L 1420,241.03125 C 1419.6394,241.02615 1419.3039,241.21563 1419.1221,241.52712 C 1418.9403,241.83862 1418.9403,242.22388 1419.1221,242.53538 C 1419.3039,242.84687 1419.6394,243.03635 1420,243.03125 L 1434.0312,243.03125 L 1434.0312,246.03125 C 1434.0312,247.17273 1433.6599,247.85545 1433.125,248.3125 C 1432.5901,248.76955 1431.8208,249 1431,249 L 1416,249 L 1416,234 z"
       id="path5681"
       style="fill:#bebebe;fill-opacity:1;stroke:none;stroke-width:2;stroke-linecap:round;stroke-linejoin:round;stroke-miterlimit:4;stroke-dasharray:none;stroke-opacity:1" />
    <path
       d="M 1419,242.03125 L 1419,246.03125 C 1418.9962,247.1879 1418.311,247.7526 1417.5312,248.125 C 1416.7515,248.4974 1415.9375,248.5625 1415.9375,248.5625 L 1416.0312,249.5625 C 1416.0312,249.5625 1416.9977,249.495 1417.9688,249.03125 C 1418.9398,248.5675 1419.9948,247.61339 1420,246.03125 L 1420,242.03125 L 1419,242.03125 z"
       id="path5683"
       style="fill:#bebebe;fill-opacity:1;stroke:none;stroke-width:1px;stroke-linecap:butt;stroke-linejoin:miter;stroke-opacity:1" />
  </g>
  <g
     transform="translate(-1413,-231.00293)"
     id="layer5" />
  <g
     transform="translate(-1413,-231.00293)"
     id="layer7" />
  <g
     transform="translate(-1413,-231.00293)"
     id="layer2" />
  <g
     transform="translate(-1413,-231.00293)"
     id="layer8" />
  <g
     transform="translate(-1413,-1183.3651)"
     id="layer1" />
  <g
     transform="translate(-1413,-231.00293)"
     id="layer4" />
  <g
     transform="translate(-1413,-231.00293)"
     id="layer9" />
  <g
     transform="translate(-1413,-231.00293)"
     id="layer6" />
</svg>
