<?xml version="1.0" encoding="UTF-8" standalone="no"?>
<!-- Created with Inkscape (http://www.inkscape.org/) -->
<svg
   xmlns:svg="http://www.w3.org/2000/svg"
   xmlns="http://www.w3.org/2000/svg"
   version="1.0"
   width="24"
   height="24"
   id="svg7384">
  <defs
     id="defs7386" />
  <g
     transform="translate(-1411.9728,-255.98822)"
     id="layer3">
    <rect
       width="24"
       height="24"
       x="-1435.9728"
       y="255.98822"
       transform="scale(-1,1)"
       id="rect6369"
       style="opacity:0;fill:#ffffff;fill-opacity:1;stroke:none;display:inline" />
    <path
       d="M 1412.9062,256 C 1412.3909,256.0486 1411.9978,256.48238 1412,257 L 1412,274.96875 C 1412.0001,275.52101 1412.4477,275.96869 1413,275.96875 L 1429.4375,275.96875 C 1430.8852,275.96875 1432.0916,275.32946 1432.875,274.375 C 1433.6584,273.42054 1434.0625,272.18089 1434.0625,270.9375 L 1434.0625,267.03125 C 1434.0624,266.47899 1433.6148,266.03131 1433.0625,266.03125 L 1432.0625,266.03125 L 1432.0625,261.03125 C 1432.0624,260.47899 1431.6148,260.03131 1431.0625,260.03125 L 1423,260.03125 L 1423,259.96875 C 1423,258.9661 1422.6409,258.01054 1421.9375,257.25 C 1421.2341,256.48946 1420.1839,256 1418.9375,256 L 1413,256 C 1412.9688,255.99853 1412.9374,255.99853 1412.9062,256 z M 1414,258 L 1418.9375,258 C 1419.7067,258 1420.1449,258.24356 1420.4688,258.59375 C 1420.7926,258.94394 1421,259.44554 1421,260 C 1420.9998,260.01042 1420.9998,260.02083 1421,260.03125 L 1421.0312,261.0625 C 1421.0481,261.60252 1421.4909,262.03146 1422.0312,262.03125 L 1430.0625,262.03125 L 1430.0625,266.03125 L 1417,266.03125 C 1416.6394,266.02615 1416.3039,266.21563 1416.1221,266.52712 C 1415.9403,266.83862 1415.9403,267.22388 1416.1221,267.53538 C 1416.3039,267.84687 1416.6394,268.03635 1417,268.03125 L 1430.875,268.03125 L 1430.9688,268.03125 C 1431.0311,268.03712 1431.0939,268.03712 1431.1562,268.03125 L 1431.25,268.03125 L 1432.0625,268.03125 L 1432.0625,270.9375 C 1432.0625,271.77124 1431.7842,272.55716 1431.3438,273.09375 C 1430.9033,273.63034 1430.3321,273.96875 1429.4375,273.96875 L 1414,273.96875 L 1414,258 z"
       id="path6234-4"
       style="fill:#bebebe;fill-opacity:1;stroke:none;stroke-width:2;stroke-linecap:round;stroke-linejoin:round;stroke-miterlimit:4;stroke-dasharray:none;stroke-opacity:1" />
    <path
       d="M 1416,267.03125 L 1416,270.96875 C 1415.9999,271.9325 1415.6609,272.56204 1415.25,272.96875 C 1414.8391,273.37546 1414.3323,273.53125 1414.0312,273.53125 L 1414.0312,274.53125 C 1414.6583,274.53125 1415.3743,274.27588 1415.9688,273.6875 C 1416.5632,273.09912 1416.9999,272.17053 1417,270.96875 L 1417,267.03125 L 1416,267.03125 z"
       id="path6236-3"
       style="fill:#bebebe;fill-opacity:1;stroke:none;stroke-width:1px;stroke-linecap:butt;stroke-linejoin:miter;stroke-opacity:1" />
  </g>
  <g
     transform="translate(-1411.9728,-255.98822)"
     id="layer5" />
  <g
     transform="translate(-1411.9728,-255.98822)"
     id="layer7" />
  <g
     transform="translate(-1411.9728,-255.98822)"
     id="layer2" />
  <g
     transform="translate(-1411.9728,-255.98822)"
     id="layer8" />
  <g
     transform="translate(-1411.9728,-1208.3504)"
     id="layer1" />
  <g
     transform="translate(-1411.9728,-255.98822)"
     id="layer4" />
  <g
     transform="translate(-1411.9728,-255.98822)"
     id="layer9" />
  <g
     transform="translate(-1411.9728,-255.98822)"
     id="layer6" />
</svg>
