<?xml version="1.0" encoding="UTF-8" standalone="no"?>
<!-- Created with Inkscape (http://www.inkscape.org/) -->
<svg
   xmlns:svg="http://www.w3.org/2000/svg"
   xmlns="http://www.w3.org/2000/svg"
   version="1.0"
   width="24"
   height="24"
   id="svg7384">
  <defs
     id="defs7386" />
  <g
     transform="translate(-1411.9728,-255.98822)"
     id="layer3">
    <rect
       width="24"
       height="24"
       x="-1435.9728"
       y="255.98822"
       transform="scale(-1,1)"
       id="rect6369"
       style="opacity:0;fill:#ffffff;fill-opacity:1;stroke:none;display:inline" />
    <path
       d="M 1412.8125,256.0625 C 1412.3344,256.15372 1411.9914,256.57587 1412,257.0625 L 1412,276 C 1412.0001,276.55226 1412.4477,276.99994 1413,277 L 1429,277 C 1430.2121,277 1431.4651,276.64333 1432.4375,275.8125 C 1433.4099,274.98167 1434.0312,273.65457 1434.0312,272.03125 L 1434.0312,266.03125 C 1434.0311,265.47899 1433.5835,265.03131 1433.0312,265.03125 L 1430.0312,265.03125 C 1430.0371,264.96889 1430.0371,264.90611 1430.0312,264.84375 L 1430.0312,261.03125 C 1430.0311,260.47899 1429.5835,260.03131 1429.0312,260.03125 L 1423.6562,260.03125 L 1421.875,256.59375 C 1421.7029,256.26951 1421.3671,256.06559 1421,256.0625 L 1413,256.0625 C 1412.9376,256.05663 1412.8749,256.05663 1412.8125,256.0625 z M 1414,258.0625 L 1420.4062,258.0625 L 1422.1875,261.5 C 1422.3596,261.82424 1422.6954,262.02816 1423.0625,262.03125 L 1428.0312,262.03125 L 1428.0312,264.84375 C 1428.0253,264.90611 1428.0253,264.96889 1428.0312,265.03125 L 1418,265.03125 C 1417.6394,265.02615 1417.3039,265.21563 1417.1221,265.52712 C 1416.9403,265.83862 1416.9403,266.22388 1417.1221,266.53538 C 1417.3039,266.84687 1417.6394,267.03635 1418,267.03125 L 1432.0312,267.03125 L 1432.0312,272.03125 C 1432.0312,273.17273 1431.6599,273.85545 1431.125,274.3125 C 1430.5901,274.76955 1429.8208,275 1429,275 L 1414,275 L 1414,258.0625 z"
       id="path6371"
       style="fill:#bebebe;fill-opacity:1;stroke:none;stroke-width:2;stroke-linecap:round;stroke-linejoin:round;stroke-miterlimit:4;stroke-dasharray:none;stroke-opacity:1" />
    <path
       d="M 1417,265.9375 L 1417,271.9375 C 1416.9962,273.09415 1416.2798,273.6901 1415.5,274.0625 C 1414.7202,274.4349 1413.9375,274.5 1413.9375,274.5 L 1414.0312,275.5 C 1414.0312,275.5 1414.9665,275.40124 1415.9375,274.9375 C 1416.9085,274.47376 1417.9948,273.55089 1418,271.96875 L 1418,265.9375 L 1417,265.9375 z"
       id="path6373"
       style="fill:#bebebe;fill-opacity:1;stroke:none;stroke-width:1px;stroke-linecap:butt;stroke-linejoin:miter;stroke-opacity:1" />
  </g>
  <g
     transform="translate(-1411.9728,-255.98822)"
     id="layer5" />
  <g
     transform="translate(-1411.9728,-255.98822)"
     id="layer7" />
  <g
     transform="translate(-1411.9728,-255.98822)"
     id="layer2" />
  <g
     transform="translate(-1411.9728,-255.98822)"
     id="layer8" />
  <g
     transform="translate(-1411.9728,-1208.3504)"
     id="layer1" />
  <g
     transform="translate(-1411.9728,-255.98822)"
     id="layer4" />
  <g
     transform="translate(-1411.9728,-255.98822)"
     id="layer9" />
  <g
     transform="translate(-1411.9728,-255.98822)"
     id="layer6" />
</svg>
