<?xml version="1.0" encoding="UTF-8" standalone="no"?>
<!-- Created with Inkscape (http://www.inkscape.org/) -->
<svg
   xmlns:svg="http://www.w3.org/2000/svg"
   xmlns="http://www.w3.org/2000/svg"
   version="1.0"
   width="24"
   height="24"
   id="svg7384">
  <defs
     id="defs7386" />
  <g
     transform="translate(-1411.9728,-229.98822)"
     id="layer3">
    <rect
       width="24"
       height="24"
       x="-1435.9728"
       y="229.98822"
       transform="scale(-1,1)"
       id="rect5679"
       style="opacity:0;fill:#ffffff;fill-opacity:1;stroke:none;display:inline" />
    <path
       d="M 1412.8438,230.0625 C 1412.3782,230.16676 1412.051,230.58546 1412.0625,231.0625 L 1412.0625,250 C 1412.0626,250.55226 1412.5102,250.99994 1413.0625,251 L 1428.9688,251 C 1430.1809,251 1431.4338,250.64333 1432.4062,249.8125 C 1433.3787,248.98167 1434,247.65457 1434,246.03125 L 1434,242.03125 C 1433.9999,241.47899 1433.5523,241.03131 1433,241.03125 L 1430.0625,241.03125 C 1430.0789,240.96989 1430.0893,240.9071 1430.0938,240.84375 L 1430.0938,235.03125 C 1430.0937,234.47899 1429.6461,234.03131 1429.0938,234.03125 L 1423.6875,234.03125 L 1421.8438,230.59375 C 1421.6717,230.26951 1421.3359,230.06559 1420.9688,230.0625 L 1413.0625,230.0625 C 1412.9898,230.05451 1412.9165,230.05451 1412.8438,230.0625 z M 1414.0625,232.0625 L 1420.375,232.0625 L 1422.2188,235.5 C 1422.3909,235.82424 1422.7267,236.02816 1423.0938,236.03125 L 1428.0938,236.03125 L 1428.0938,240.84375 C 1428.0879,240.90611 1428.0879,240.96889 1428.0938,241.03125 L 1417.9688,241.03125 C 1417.6082,241.02615 1417.2727,241.21563 1417.0909,241.52712 C 1416.9091,241.83862 1416.9091,242.22388 1417.0909,242.53538 C 1417.2727,242.84687 1417.6082,243.03635 1417.9688,243.03125 L 1432,243.03125 L 1432,246.03125 C 1432,247.17273 1431.6287,247.85545 1431.0938,248.3125 C 1430.5588,248.76955 1429.7895,249 1428.9688,249 L 1414.0625,249 L 1414.0625,232.0625 z"
       id="path5681"
       style="fill:#bebebe;fill-opacity:1;stroke:none;stroke-width:2;stroke-linecap:round;stroke-linejoin:round;stroke-miterlimit:4;stroke-dasharray:none;stroke-opacity:1" />
    <path
       d="M 1417,242.28125 L 1417,246.28125 C 1416.9962,247.4379 1416.2798,248.0026 1415.5,248.375 C 1414.7202,248.7474 1413.9375,248.8125 1413.9375,248.8125 L 1414.0312,249.8125 C 1414.0312,249.8125 1414.9665,249.745 1415.9375,249.28125 C 1416.9085,248.8175 1417.9948,247.8634 1418,246.28125 L 1418,242.28125 L 1417,242.28125 z"
       id="path5683"
       style="fill:#bebebe;fill-opacity:1;stroke:none;stroke-width:1px;stroke-linecap:butt;stroke-linejoin:miter;stroke-opacity:1" />
  </g>
  <g
     transform="translate(-1411.9728,-229.98822)"
     id="layer5" />
  <g
     transform="translate(-1411.9728,-229.98822)"
     id="layer7" />
  <g
     transform="translate(-1411.9728,-229.98822)"
     id="layer2" />
  <g
     transform="translate(-1411.9728,-229.98822)"
     id="layer8" />
  <g
     transform="translate(-1411.9728,-1182.3504)"
     id="layer1" />
  <g
     transform="translate(-1411.9728,-229.98822)"
     id="layer4" />
  <g
     transform="translate(-1411.9728,-229.98822)"
     id="layer9" />
  <g
     transform="translate(-1411.9728,-229.98822)"
     id="layer6" />
</svg>
