<?xml version="1.0" encoding="UTF-8" standalone="no"?>
<!-- Created with Inkscape (http://www.inkscape.org/) -->
<svg
   xmlns:svg="http://www.w3.org/2000/svg"
   xmlns="http://www.w3.org/2000/svg"
   version="1.0"
   width="24"
   height="24"
   id="svg7384">
  <defs
     id="defs7386" />
  <g
     transform="translate(-1411.9728,-229.98822)"
     id="layer3">
    <rect
       width="24"
       height="24"
       x="-1435.9728"
       y="229.98822"
       transform="scale(-1,1)"
       id="rect5679"
       style="opacity:0;fill:#ffffff;fill-opacity:1;stroke:none;display:inline" />
    <path
       d="M 1417,243 L 1417,245.46875 C 1416.9962,246.6254 1416.2798,247.1901 1415.5,247.5625 C 1414.7202,247.9349 1413.9375,248 1413.9375,248 L 1414.0312,249 C 1414.0312,249 1414.9665,248.9325 1415.9375,248.46875 C 1416.9085,248.005 1417.9948,247.0509 1418,245.46875 L 1418,243.03125 L 1417,243 z"
       id="path5683"
       style="fill:#bebebe;fill-opacity:1;stroke:none;stroke-width:1px;stroke-linecap:butt;stroke-linejoin:miter;stroke-opacity:1" />
    <path
       d="M 1412.9062,230 C 1412.3909,230.0486 1411.9978,230.48238 1412,231 L 1412,248.96875 C 1412.0001,249.52101 1412.4477,249.96869 1413,249.96875 L 1429.4375,249.96875 C 1430.8852,249.96875 1432.0916,249.32946 1432.875,248.375 C 1433.6584,247.42054 1434.0625,246.18089 1434.0625,244.9375 L 1434.0625,243.03125 C 1434.0624,242.47899 1433.6148,242.03131 1433.0625,242.03125 L 1432.0625,242.03125 L 1432.0625,235.03125 C 1432.0624,234.47899 1431.6148,234.03131 1431.0625,234.03125 L 1423,234.03125 L 1423,233.96875 C 1423,232.9661 1422.6409,232.01054 1421.9375,231.25 C 1421.2341,230.48946 1420.1839,230 1418.9375,230 L 1413,230 C 1412.9688,229.99853 1412.9374,229.99853 1412.9062,230 z M 1414,232 L 1418.9375,232 C 1419.7067,232 1420.1449,232.24356 1420.4688,232.59375 C 1420.7926,232.94394 1421,233.44554 1421,234 C 1420.9998,234.01042 1420.9998,234.02083 1421,234.03125 L 1421.0312,235.0625 C 1421.0481,235.60252 1421.4909,236.03146 1422.0312,236.03125 L 1430.0625,236.03125 L 1430.0625,242.03125 L 1417.9375,242.03125 C 1417.5769,242.02615 1417.2414,242.21563 1417.0596,242.52712 C 1416.8778,242.83862 1416.8778,243.22388 1417.0596,243.53538 C 1417.2414,243.84687 1417.5769,244.03635 1417.9375,244.03125 L 1430.875,244.03125 L 1430.9688,244.03125 C 1431.0311,244.03712 1431.0939,244.03712 1431.1562,244.03125 L 1431.25,244.03125 L 1432.0625,244.03125 L 1432.0625,244.9375 C 1432.0625,245.77123 1431.7842,246.55716 1431.3438,247.09375 C 1430.9033,247.63034 1430.3321,247.96875 1429.4375,247.96875 L 1414,247.96875 L 1414,232 z"
       id="path6234-4-9"
       style="fill:#bebebe;fill-opacity:1;stroke:none;stroke-width:2;stroke-linecap:round;stroke-linejoin:round;stroke-miterlimit:4;stroke-dasharray:none;stroke-opacity:1" />
  </g>
  <g
     transform="translate(-1411.9728,-229.98822)"
     id="layer5" />
  <g
     transform="translate(-1411.9728,-229.98822)"
     id="layer7" />
  <g
     transform="translate(-1411.9728,-229.98822)"
     id="layer2" />
  <g
     transform="translate(-1411.9728,-229.98822)"
     id="layer8" />
  <g
     transform="translate(-1411.9728,-1182.3504)"
     id="layer1" />
  <g
     transform="translate(-1411.9728,-229.98822)"
     id="layer4" />
  <g
     transform="translate(-1411.9728,-229.98822)"
     id="layer9" />
  <g
     transform="translate(-1411.9728,-229.98822)"
     id="layer6" />
</svg>
