<?xml version="1.0" encoding="UTF-8" standalone="no"?>
<!-- Created with Inkscape (http://www.inkscape.org/) -->
<svg
   xmlns:svg="http://www.w3.org/2000/svg"
   xmlns="http://www.w3.org/2000/svg"
   version="1.0"
   width="24.02726"
   height="24"
   id="svg7384">
  <title
     id="title9167">Moblin Icon Theme</title>
  <defs
     id="defs7386" />
  <g
     transform="translate(-1411.9728,-255.98822)"
     id="layer3">
    <rect
       width="24"
       height="24"
       x="-1435.9728"
       y="255.98822"
       transform="scale(-1,1)"
       id="rect6369"
       style="opacity:0;fill:#ffffff;fill-opacity:1;stroke:none;display:inline" />
    <path
       d="M 1417.9688,266 L 1417.9688,267 L 1417.9688,272.5 C 1417.965,273.62657 1417.67,273.79125 1417.4688,273.90625 C 1417.2675,274.02125 1417.0625,274.03125 1417.0625,274.03125 C 1416.684,273.93467 1416.2838,274.06735 1416.038,274.37097 C 1415.7922,274.67459 1415.7456,275.09356 1415.9188,275.44372 C 1416.092,275.79389 1416.4533,276.01115 1416.8438,276 C 1416.8438,276 1417.6394,276.11223 1418.4375,275.65625 C 1419.2356,275.20028 1419.9635,274.11222 1419.9688,272.5 L 1419.9688,268 L 1434.5312,268 C 1434.8918,268.0051 1435.2273,267.81562 1435.4091,267.50413 C 1435.5909,267.19263 1435.5909,266.80737 1435.4091,266.49587 C 1435.2273,266.18438 1434.8918,265.9949 1434.5312,266 L 1418.9688,266 L 1417.9688,266 z"
       id="path5683-8"
       style="fill:#bebebe;fill-opacity:1;stroke:none;stroke-width:2;stroke-linecap:round;stroke-linejoin:miter;stroke-miterlimit:4;stroke-dasharray:none;stroke-opacity:1" />
    <path
       d="M 1412.9688,256 C 1412.4534,256.04855 1412.0603,256.48235 1412.0625,257 L 1412.0625,278.96875 C 1412.0626,279.52101 1412.5102,279.96869 1413.0625,279.96875 L 1431.375,279.96875 C 1432.8227,279.96875 1434.0604,279.32946 1434.8438,278.375 C 1435.6271,277.42054 1436,276.1809 1436,274.9375 L 1436,260.96875 C 1435.9999,260.41649 1435.5523,259.96881 1435,259.96875 L 1424.0312,259.96875 C 1424.0441,259.50176 1424.0625,259.03125 1424.0625,259.03125 C 1424.0627,259.02083 1424.0627,259.01042 1424.0625,259 C 1424.0625,257.35637 1422.7099,256 1421.0312,256 L 1413.0625,256 C 1413.0313,255.99854 1413,255.99854 1412.9688,256 z M 1414.0625,258 L 1421.0312,258 C 1421.4895,258 1422.0625,258.60919 1422.0625,259 C 1422.0625,259 1422,260.9375 1422,260.9375 C 1421.9916,261.20808 1422.0932,261.47052 1422.2816,261.66487 C 1422.4701,261.85921 1422.7293,261.96885 1423,261.96875 L 1434,261.96875 L 1434,274.9375 C 1434,275.77123 1433.7217,276.55716 1433.2812,277.09375 C 1432.8408,277.63034 1432.2696,277.96875 1431.375,277.96875 L 1414.0625,277.96875 L 1414.0625,258 z"
       id="path8794-8-1"
       style="fill:#bebebe;fill-opacity:1;stroke:none;stroke-width:2;stroke-linecap:round;stroke-linejoin:round;stroke-miterlimit:4;stroke-dasharray:none;stroke-opacity:1" />
  </g>
  <g
     transform="translate(-1411.9728,-255.98822)"
     id="layer5" />
  <g
     transform="translate(-1411.9728,-255.98822)"
     id="layer7" />
  <g
     transform="translate(-1411.9728,-255.98822)"
     id="layer2" />
  <g
     transform="translate(-1411.9728,-255.98822)"
     id="layer8" />
  <g
     transform="translate(-1411.9728,-1208.3504)"
     id="layer1" />
  <g
     transform="translate(-1411.9728,-255.98822)"
     id="layer11" />
  <g
     transform="translate(-1411.9728,-255.98822)"
     id="layer4" />
  <g
     transform="translate(-1411.9728,-255.98822)"
     id="layer12" />
  <g
     transform="translate(-1411.9728,-255.98822)"
     id="layer9" />
  <g
     transform="translate(-1411.9728,-255.98822)"
     id="layer10" />
  <g
     transform="translate(-1411.9728,-255.98822)"
     id="layer6" />
</svg>
