<?xml version="1.0" encoding="UTF-8" standalone="no"?>
<!-- Created with Inkscape (http://www.inkscape.org/) -->
<svg
   xmlns:svg="http://www.w3.org/2000/svg"
   xmlns="http://www.w3.org/2000/svg"
   version="1.0"
   width="24"
   height="24.014713"
   id="svg7384">
  <title
     id="title9167">Moblin Icon Theme</title>
  <defs
     id="defs7386" />
  <g
     transform="translate(-1554,-174)"
     id="layer3">
    <rect
       width="24"
       height="24"
       x="-198.01471"
       y="1554"
       transform="matrix(0,-1,1,0,0,0)"
       id="rect14963"
       style="opacity:0;fill:#ffffff;fill-opacity:1;stroke:none;display:inline" />
    <path
       d="M -9.7277484,12.670291 A 1.7361484,1.7361484 0 1 1 -13.200045,12.670291 A 1.7361484,1.7361484 0 1 1 -9.7277484,12.670291 z"
       transform="matrix(0.5759808,0,0,0.5759808,1561.603,167.70214)"
       id="path14978"
       style="fill:#bebebe;fill-opacity:1;stroke:none" />
    <path
       d="M -9.7277484,12.670291 A 1.7361484,1.7361484 0 1 1 -13.200045,12.670291 A 1.7361484,1.7361484 0 1 1 -9.7277484,12.670291 z"
       transform="matrix(0.5759808,0,0,0.5759808,1561.603,171.70214)"
       id="path14980"
       style="fill:#bebebe;fill-opacity:1;stroke:none" />
    <path
       d="M -9.7277484,12.670291 A 1.7361484,1.7361484 0 1 1 -13.200045,12.670291 A 1.7361484,1.7361484 0 1 1 -9.7277484,12.670291 z"
       transform="matrix(0.5759808,0,0,0.5759808,1561.603,175.70214)"
       id="path14982"
       style="fill:#bebebe;fill-opacity:1;stroke:none" />
    <path
       d="M -9.7277484,12.670291 A 1.7361484,1.7361484 0 1 1 -13.200045,12.670291 A 1.7361484,1.7361484 0 1 1 -9.7277484,12.670291 z"
       transform="matrix(0.5759808,0,0,0.5759808,1561.603,179.70214)"
       id="path14984"
       style="fill:#bebebe;fill-opacity:1;stroke:none" />
    <path
       d="M -9.7277484,12.670291 A 1.7361484,1.7361484 0 1 1 -13.200045,12.670291 A 1.7361484,1.7361484 0 1 1 -9.7277484,12.670291 z"
       transform="matrix(0.5759808,0,0,0.5759808,1561.603,183.70214)"
       id="path14986"
       style="fill:#bebebe;fill-opacity:1;stroke:none" />
    <path
       d="M -9.7277484,12.670291 A 1.7361484,1.7361484 0 1 1 -13.200045,12.670291 A 1.7361484,1.7361484 0 1 1 -9.7277484,12.670291 z"
       transform="matrix(0.5759808,0,0,0.5759808,1561.603,187.70214)"
       id="path14988"
       style="fill:#bebebe;fill-opacity:1;stroke:none" />
    <path
       d="M -9.7277484,12.670291 A 1.7361484,1.7361484 0 1 1 -13.200045,12.670291 A 1.7361484,1.7361484 0 1 1 -9.7277484,12.670291 z"
       transform="matrix(0.5759808,0,0,0.5759808,1565.603,187.70214)"
       id="path14990"
       style="fill:#bebebe;fill-opacity:1;stroke:none" />
    <path
       d="M -9.7277484,12.670291 A 1.7361484,1.7361484 0 1 1 -13.200045,12.670291 A 1.7361484,1.7361484 0 1 1 -9.7277484,12.670291 z"
       transform="matrix(0.5759808,0,0,0.5759808,1569.603,187.70214)"
       id="path14992"
       style="fill:#bebebe;fill-opacity:1;stroke:none" />
    <path
       d="M -9.7277484,12.670291 A 1.7361484,1.7361484 0 1 1 -13.200045,12.670291 A 1.7361484,1.7361484 0 1 1 -9.7277484,12.670291 z"
       transform="matrix(0.5759808,0,0,0.5759808,1573.603,187.70214)"
       id="path14994"
       style="fill:#bebebe;fill-opacity:1;stroke:none" />
    <path
       d="M -9.7277484,12.670291 A 1.7361484,1.7361484 0 1 1 -13.200045,12.670291 A 1.7361484,1.7361484 0 1 1 -9.7277484,12.670291 z"
       transform="matrix(0.5759808,0,0,0.5759808,1577.603,187.70214)"
       id="path14996"
       style="fill:#bebebe;fill-opacity:1;stroke:none" />
    <path
       d="M -9.7277484,12.670291 A 1.7361484,1.7361484 0 1 1 -13.200045,12.670291 A 1.7361484,1.7361484 0 1 1 -9.7277484,12.670291 z"
       transform="matrix(0.5759808,0,0,0.5759808,1581.603,187.70214)"
       id="path14998"
       style="fill:#bebebe;fill-opacity:1;stroke:none" />
    <path
       d="M -9.7277484,12.670291 A 1.7361484,1.7361484 0 1 1 -13.200045,12.670291 A 1.7361484,1.7361484 0 1 1 -9.7277484,12.670291 z"
       transform="matrix(0.5759808,0,0,0.5759808,1581.603,183.70214)"
       id="path15000"
       style="fill:#bebebe;fill-opacity:1;stroke:none" />
    <path
       d="M -9.7277484,12.670291 A 1.7361484,1.7361484 0 1 1 -13.200045,12.670291 A 1.7361484,1.7361484 0 1 1 -9.7277484,12.670291 z"
       transform="matrix(0.5759808,0,0,0.5759808,1581.603,179.70214)"
       id="path15002"
       style="fill:#bebebe;fill-opacity:1;stroke:none" />
    <path
       d="M -9.7277484,12.670291 A 1.7361484,1.7361484 0 1 1 -13.200045,12.670291 A 1.7361484,1.7361484 0 1 1 -9.7277484,12.670291 z"
       transform="matrix(0.5759808,0,0,0.5759808,1581.603,175.70214)"
       id="path15004"
       style="fill:#bebebe;fill-opacity:1;stroke:none" />
    <path
       d="M -9.7277484,12.670291 A 1.7361484,1.7361484 0 1 1 -13.200045,12.670291 A 1.7361484,1.7361484 0 1 1 -9.7277484,12.670291 z"
       transform="matrix(0.5759808,0,0,0.5759808,1581.603,171.70214)"
       id="path15006"
       style="fill:#bebebe;fill-opacity:1;stroke:none" />
    <path
       d="M -9.7277484,12.670291 A 1.7361484,1.7361484 0 1 1 -13.200045,12.670291 A 1.7361484,1.7361484 0 1 1 -9.7277484,12.670291 z"
       transform="matrix(0.5759808,0,0,0.5759808,1581.603,167.70214)"
       id="path15008"
       style="fill:#bebebe;fill-opacity:1;stroke:none" />
    <path
       d="M -9.7277484,12.670291 A 1.7361484,1.7361484 0 1 1 -13.200045,12.670291 A 1.7361484,1.7361484 0 1 1 -9.7277484,12.670291 z"
       transform="matrix(0.5759808,0,0,0.5759808,1577.603,167.70214)"
       id="path15010"
       style="fill:#bebebe;fill-opacity:1;stroke:none" />
    <path
       d="M -9.7277484,12.670291 A 1.7361484,1.7361484 0 1 1 -13.200045,12.670291 A 1.7361484,1.7361484 0 1 1 -9.7277484,12.670291 z"
       transform="matrix(0.5759808,0,0,0.5759808,1573.603,167.70214)"
       id="path15012"
       style="fill:#bebebe;fill-opacity:1;stroke:none" />
    <path
       d="M -9.7277484,12.670291 A 1.7361484,1.7361484 0 1 1 -13.200045,12.670291 A 1.7361484,1.7361484 0 1 1 -9.7277484,12.670291 z"
       transform="matrix(0.5759808,0,0,0.5759808,1569.603,167.70214)"
       id="path15014"
       style="fill:#bebebe;fill-opacity:1;stroke:none" />
    <path
       d="M -9.7277484,12.670291 A 1.7361484,1.7361484 0 1 1 -13.200045,12.670291 A 1.7361484,1.7361484 0 1 1 -9.7277484,12.670291 z"
       transform="matrix(0.5759808,0,0,0.5759808,1565.603,167.70214)"
       id="path15016"
       style="fill:#bebebe;fill-opacity:1;stroke:none" />
    <path
       d="M 1563.1942,187.99201 L 1568.0191,183.18913 L 1568.0291,181.96842 C 1568.0291,181.96842 1566.8003,181.96842 1566.8003,181.96842 L 1561.9754,186.7713 C 1561.9754,186.7713 1561.9754,188 1561.9754,188 C 1561.9754,188 1563.1961,187.992 1563.1961,187.992 L 1563.1964,187.99178 L 1563.1964,187.99178 L 1563.1942,187.99201 z"
       id="path2966-9"
       style="fill:#ed2124;fill-opacity:1;stroke:none;display:inline" />
    <path
       d="M 1566.8058,187.99201 L 1561.9809,183.18913 L 1561.9709,181.96842 C 1561.9709,181.96842 1563.1997,181.96842 1563.1997,181.96842 L 1568.0247,186.7713 C 1568.0247,186.7713 1568.0247,188 1568.0247,188 C 1568.0247,188 1566.8039,187.992 1566.8039,187.992 L 1566.8037,187.99178 L 1566.8037,187.99178 L 1566.8058,187.99201 z"
       id="path7711-0"
       style="fill:#ed2124;fill-opacity:1;stroke:none;display:inline" />
  </g>
  <g
     transform="translate(-1554,-174)"
     id="layer5" />
  <g
     transform="translate(-1554,-174)"
     id="layer7" />
  <g
     transform="translate(-1554,-174)"
     id="layer2" />
  <g
     transform="translate(-1554,-174)"
     id="layer8" />
  <g
     transform="translate(-1554,-1126.3622)"
     id="layer1" />
  <g
     transform="translate(-1554,-174)"
     id="layer11" />
  <g
     transform="translate(-1554,-174)"
     id="layer4" />
  <g
     transform="translate(-1554,-174)"
     id="layer12" />
  <g
     transform="translate(-1554,-174)"
     id="layer9" />
  <g
     transform="translate(-1554,-174)"
     id="layer10" />
  <g
     transform="translate(-1554,-174)"
     id="layer6" />
</svg>
