<?xml version="1.0" encoding="UTF-8" standalone="no"?>
<!-- Created with Inkscape (http://www.inkscape.org/) -->
<svg
   xmlns:svg="http://www.w3.org/2000/svg"
   xmlns="http://www.w3.org/2000/svg"
   version="1.0"
   width="24"
   height="24"
   id="svg7384">
  <defs
     id="defs7386" />
  <g
     transform="translate(-1440.001,-320.99646)"
     id="layer3" />
  <g
     transform="translate(-1440.001,-320.99646)"
     id="layer5" />
  <g
     transform="translate(-1440.001,-320.99646)"
     id="layer7" />
  <g
     transform="translate(-1440.001,-320.99646)"
     id="layer2" />
  <g
     transform="translate(-1440.001,-320.99646)"
     id="layer8" />
  <g
     transform="translate(-1440.001,-1273.3586)"
     id="layer1" />
  <g
     transform="translate(-1440.001,-320.99646)"
     id="layer4">
    <rect
       width="24"
       height="24"
       x="-1464.001"
       y="320.99646"
       transform="scale(-1,1)"
       id="rect9453"
       style="opacity:0.26633169;fill:#ffffff;fill-opacity:0;stroke:none;display:inline" />
    <path
       d="M 1449.988,327.67335 C 1449.4465,327.6652 1449.014,327.2018 1449.0219,326.63838 C 1449.0219,324.07628 1451.038,321.97854 1453.5005,321.97854 C 1455.9629,321.97854 1457.979,324.07628 1457.979,326.63838 C 1458.0047,327.01898 1457.8241,327.38266 1457.5109,327.58108 C 1457.1977,327.77951 1456.8043,327.77951 1456.4911,327.58108 C 1456.1779,327.38266 1455.9973,327.01898 1456.0229,326.63838 C 1456.0229,325.18009 1454.902,324.01877 1453.5005,324.01877 C 1452.0989,324.01877 1450.9827,325.18009 1450.9827,326.63838 C 1450.9866,326.91409 1450.8831,327.1797 1450.6957,327.37467 C 1450.5083,327.56965 1450.253,327.67739 1449.988,327.67335 z"
       id="path9455"
       style="fill:#bebebe;fill-opacity:1;stroke:none;stroke-width:12.87401676;stroke-linecap:round;stroke-miterlimit:4;stroke-dasharray:none;stroke-dashoffset:0;stroke-opacity:1;display:inline" />
    <path
       d="M 1452.0007,338.99637 C 1450.3556,338.99637 1449.0009,337.64167 1449.0009,335.9966 C 1448.9879,335.63105 1449.1755,335.28756 1449.4901,335.10093 C 1449.8047,334.9143 1450.1961,334.9143 1450.5107,335.10093 C 1450.8252,335.28756 1451.0129,335.63105 1450.9999,335.9966 C 1450.9999,336.55954 1451.4377,336.99743 1452.0007,336.99743 C 1452.5636,336.99743 1453.0015,336.55954 1453.0015,335.9966 C 1452.9885,335.63105 1453.1761,335.28756 1453.4907,335.10093 C 1453.8053,334.9143 1454.1967,334.9143 1454.5113,335.10093 C 1454.8258,335.28756 1455.0134,335.63105 1455.0004,335.9966 C 1455.0004,337.64167 1453.6457,338.99637 1452.0007,338.99637 z"
       id="path9457"
       style="fill:#bebebe;fill-opacity:1;stroke:none;stroke-width:22.9809742;stroke-linecap:round;stroke-miterlimit:4;stroke-dasharray:none;stroke-dashoffset:0;stroke-opacity:1;display:inline" />
    <path
       d="M 1452.0002,343.99359 C 1448.6992,343.99359 1446.0034,341.29785 1446.0034,337.99679 C 1445.9904,337.63123 1446.178,337.28774 1446.4926,337.10111 C 1446.8072,336.91448 1447.1986,336.91448 1447.5132,337.10111 C 1447.8278,337.28774 1448.0154,337.63123 1448.0024,337.99679 C 1448.0024,340.21572 1449.7813,341.99465 1452.0002,341.99465 C 1454.2192,341.99465 1455.9981,340.21572 1455.9981,337.99679 C 1455.9981,337.44292 1456.4471,336.99392 1457.001,336.99392 C 1457.5548,336.99392 1458.0038,337.44292 1458.0038,337.99679 C 1458.0038,341.29785 1455.3013,343.99359 1452.0002,343.99359 z"
       id="path9459"
       style="fill:#bebebe;fill-opacity:1;stroke:none;stroke-width:9.1923914;stroke-linecap:round;stroke-miterlimit:4;stroke-dasharray:none;stroke-dashoffset:0;stroke-opacity:1;display:inline" />
    <rect
       width="1.9999756"
       height="10"
       rx="0.99998778"
       ry="0.99998778"
       x="1446.001"
       y="328.99649"
       id="rect9461"
       style="fill:#bebebe;fill-opacity:1;stroke:none;display:inline" />
    <rect
       width="2"
       height="8"
       rx="1"
       ry="1"
       x="1453.001"
       y="328.99649"
       id="rect9463"
       style="fill:#bebebe;fill-opacity:1;stroke:none;display:inline" />
    <rect
       width="2"
       height="13.799988"
       rx="1.5"
       ry="1.5000001"
       x="1456.001"
       y="325.19647"
       id="rect9465"
       style="fill:#bebebe;fill-opacity:1;stroke:none;display:inline" />
    <rect
       width="2"
       height="12.225037"
       rx="1.5"
       ry="1.5000001"
       x="1449.001"
       y="324.77142"
       id="rect9467"
       style="fill:#bebebe;fill-opacity:1;stroke:none;display:inline" />
  </g>
  <g
     transform="translate(-1440.001,-320.99646)"
     id="layer9" />
  <g
     transform="translate(-1440.001,-320.99646)"
     id="layer6" />
</svg>
