<?xml version="1.0" encoding="UTF-8" standalone="no"?>
<!-- Created with Inkscape (http://www.inkscape.org/) -->
<svg
   xmlns:svg="http://www.w3.org/2000/svg"
   xmlns="http://www.w3.org/2000/svg"
   version="1.0"
   width="24"
   height="24"
   id="svg7384">
  <title
     id="title9167">Moblin Icon Theme</title>
  <defs
     id="defs7386" />
  <g
     transform="translate(-1499,-340)"
     id="layer3">
    <path
       d="M 1506.9737,352.66928 L 1506.9737,359.34901 L 1510.611,355.98627 L 1506.9737,352.66928 L 1506.9737,352.66928 z"
       id="path13844-5-6"
       style="fill:#bebebe;fill-opacity:1;stroke-width:1px;display:inline" />
    <rect
       width="24"
       height="24"
       x="-1523"
       y="340"
       transform="scale(-1,1)"
       id="rect7554-0"
       style="opacity:0;fill:#ffffff;fill-opacity:1;stroke:none;display:inline" />
    <path
       d="M 1505.4688,345.96875 C 1502.4347,345.96875 1499.9687,348.46595 1499.9688,351.5 C 1499.9688,354.53403 1502.4347,357.00001 1505.4688,357 L 1509,357 L 1509,355 L 1505.4688,355 C 1503.5081,355.00001 1501.9688,353.46061 1501.9688,351.5 C 1501.9687,349.53937 1503.5082,347.96875 1505.4688,347.96875 L 1516.4375,347.96875 C 1518.3982,347.96875 1519.9375,349.53935 1519.9375,351.5 C 1519.9375,353.46064 1518.3982,355 1516.4375,355 L 1513.0625,355 L 1513.0625,357 L 1516.4375,357 C 1519.4716,357 1521.9375,354.53399 1521.9375,351.5 C 1521.9375,348.46599 1519.4716,345.96874 1516.4375,345.96875 L 1505.4688,345.96875 z"
       id="rect8946"
       style="fill:#bebebe;fill-opacity:1;stroke:none;stroke-width:2;stroke-linecap:butt;stroke-linejoin:miter;marker:none;stroke-miterlimit:4;stroke-dasharray:none;stroke-dashoffset:0;stroke-opacity:1;visibility:visible;display:inline;overflow:visible;enable-background:accumulate" />
  </g>
  <g
     transform="translate(-1499,-340)"
     id="layer5" />
  <g
     transform="translate(-1499,-340)"
     id="layer7" />
  <g
     transform="translate(-1499,-340)"
     id="layer2" />
  <g
     transform="translate(-1499,-340)"
     id="layer8" />
  <g
     transform="translate(-1499,-1292.3622)"
     id="layer1" />
  <g
     transform="translate(-1499,-340)"
     id="layer11" />
  <g
     transform="translate(-1499,-340)"
     id="layer4" />
  <g
     transform="translate(-1499,-340)"
     id="layer12" />
  <g
     transform="translate(-1499,-340)"
     id="layer9" />
  <g
     transform="translate(-1499,-340)"
     id="layer10" />
  <g
     transform="translate(-1499,-340)"
     id="layer6" />
</svg>
