<?xml version="1.0" encoding="UTF-8" standalone="no"?>
<!-- Created with Inkscape (http://www.inkscape.org/) -->
<svg
   xmlns:svg="http://www.w3.org/2000/svg"
   xmlns="http://www.w3.org/2000/svg"
   version="1.0"
   width="24"
   height="24"
   id="svg7384">
  <defs
     id="defs7386" />
  <g
     transform="translate(-1527.0272,-321.01471)"
     id="layer3" />
  <g
     transform="translate(-1527.0272,-321.01471)"
     id="layer5" />
  <g
     transform="translate(-1527.0272,-321.01471)"
     id="layer7" />
  <g
     transform="translate(-1527.0272,-321.01471)"
     id="layer2" />
  <g
     transform="translate(-1527.0272,-321.01471)"
     id="layer8" />
  <g
     transform="translate(-1527.0272,-1273.3769)"
     id="layer1" />
  <g
     transform="translate(-1527.0272,-321.01471)"
     id="layer4">
    <path
       d="M 1535.0009,333.68399 L 1535.0009,340.36372 L 1538.6382,337.00098 L 1535.0009,333.68399 z"
       id="path13844-5-6"
       style="fill:#bebebe;fill-opacity:1;stroke-width:1px;display:inline" />
    <rect
       width="24"
       height="24"
       x="-1551.0272"
       y="321.01471"
       transform="scale(-1,1)"
       id="rect7554-0"
       style="opacity:0;fill:#ffffff;fill-opacity:1;stroke:none;display:inline" />
    <path
       d="M 1533.5,327 C 1530.466,327 1528,329.46594 1528,332.5 C 1528,335.53403 1530.466,338.00001 1533.5,338 L 1537.0312,338 L 1537.0312,336 L 1533.5,336 C 1531.5394,336.00001 1530,334.46061 1530,332.5 C 1530,330.53938 1531.5394,329 1533.5,329 L 1544.4688,329 C 1546.4294,329 1547.9688,330.53935 1547.9688,332.5 C 1547.9687,334.46065 1546.4295,336 1544.4688,336 L 1541.0938,336 L 1541.0938,338 L 1544.4688,338 C 1547.5028,338 1549.9687,335.53398 1549.9688,332.5 C 1549.9688,329.46599 1547.5028,326.99999 1544.4688,327 L 1533.5,327 z"
       id="rect8946"
       style="fill:#bebebe;fill-opacity:1;stroke:none;stroke-width:2;stroke-linecap:butt;stroke-linejoin:miter;marker:none;stroke-miterlimit:4;stroke-dasharray:none;stroke-dashoffset:0;stroke-opacity:1;visibility:visible;display:inline;overflow:visible;enable-background:accumulate" />
  </g>
  <g
     transform="translate(-1527.0272,-321.01471)"
     id="layer9" />
  <g
     transform="translate(-1527.0272,-321.01471)"
     id="layer6" />
</svg>
