<?xml version="1.0" encoding="UTF-8" standalone="no"?>
<!-- Created with Inkscape (http://www.inkscape.org/) -->
<svg
   xmlns:svg="http://www.w3.org/2000/svg"
   xmlns="http://www.w3.org/2000/svg"
   xmlns:xlink="http://www.w3.org/1999/xlink"
   version="1.0"
   width="24"
   height="24"
   id="svg7384">
  <defs
     id="defs7386">
    <linearGradient
       id="linearGradient14578">
      <stop
         id="stop14580"
         style="stop-color:#bebebe;stop-opacity:1"
         offset="0" />
      <stop
         id="stop14582"
         style="stop-color:#bebebe;stop-opacity:0"
         offset="1" />
    </linearGradient>
    <linearGradient
       x1="538.02631"
       y1="958.12659"
       x2="534.83978"
       y2="958.12659"
       id="linearGradient8945"
       xlink:href="#linearGradient14578"
       gradientUnits="userSpaceOnUse"
       gradientTransform="translate(967.0009,-620.09354)" />
    <linearGradient
       x1="538.02631"
       y1="958.12659"
       x2="534.83978"
       y2="958.12659"
       id="linearGradient8963"
       xlink:href="#linearGradient14578"
       gradientUnits="userSpaceOnUse"
       gradientTransform="translate(967.0009,-620.09354)" />
  </defs>
  <g
     transform="translate(-1498.0272,-321.01471)"
     id="layer3" />
  <g
     transform="translate(-1498.0272,-321.01471)"
     id="layer5" />
  <g
     transform="translate(-1498.0272,-321.01471)"
     id="layer7" />
  <g
     transform="translate(-1498.0272,-321.01471)"
     id="layer2" />
  <g
     transform="translate(-1498.0272,-321.01471)"
     id="layer8" />
  <g
     transform="translate(-1498.0272,-1273.3769)"
     id="layer1" />
  <g
     transform="translate(-1498.0272,-321.01471)"
     id="layer4">
    <path
       d="M 1505.3933,338.02099 C 1505.4656,338.02258 1505.5353,338.02207 1505.6076,338.02099 C 1508.7956,337.97352 1511.3575,335.32555 1511.3101,332.13288 L 1509.3161,332.16088 C 1509.3474,334.27075 1507.6771,335.98337 1505.5703,336.01474 C 1505.5187,336.01551 1505.4821,336.01588 1505.4306,336.01474 L 1505.3933,338.02099 z"
       id="path13012-2"
       style="fill:#bebebe;fill-opacity:1;stroke:none;stroke-width:6.70271683;stroke-linecap:butt;stroke-linejoin:miter;marker:none;stroke-miterlimit:4;stroke-dasharray:none;stroke-dashoffset:0;stroke-opacity:1;visibility:visible;display:inline;overflow:visible;enable-background:accumulate" />
    <path
       d="M 1514.9852,327.02873 L 1514.8746,329.02778 C 1512.9993,328.92479 1511.4201,330.34879 1511.3175,332.23138 C 1511.3144,332.28798 1511.3095,332.32864 1511.309,332.38515 L 1509.3177,332.36806 C 1509.3185,332.28612 1509.3217,332.20197 1509.3262,332.12032 C 1509.4878,329.15512 1512.0315,326.86651 1514.9852,327.02873 z"
       id="path13811-9"
       style="fill:#bebebe;fill-opacity:1;stroke:none;stroke-width:7.33019447;stroke-linecap:butt;stroke-linejoin:miter;marker:none;stroke-miterlimit:4;stroke-dasharray:none;stroke-dashoffset:0;stroke-opacity:1;visibility:visible;display:inline;overflow:visible;enable-background:accumulate" />
    <path
       d="M 1502.0625,336.03125 L 1502.0625,338.03125 L 1505.6875,338.03125 L 1505.6875,336.03125 L 1502.0625,336.03125 z"
       id="path13836-0"
       style="fill:url(#linearGradient8963);fill-opacity:1;stroke:none;stroke-width:2;stroke-linecap:butt;stroke-linejoin:miter;marker:none;stroke-miterlimit:4;stroke-dasharray:none;stroke-dashoffset:0;stroke-opacity:1;visibility:visible;display:inline;overflow:visible;enable-background:accumulate" />
    <path
       d="M 1514.875,327.03125 L 1514.875,329.03125 L 1516.2812,329.03125 L 1516.2812,327.03125 L 1514.875,327.03125 z"
       id="path13838-1"
       style="fill:#bebebe;fill-opacity:1;stroke:none;stroke-width:2;stroke-linecap:butt;stroke-linejoin:miter;marker:none;stroke-miterlimit:4;stroke-dasharray:none;stroke-dashoffset:0;stroke-opacity:1;visibility:visible;display:inline;overflow:visible;enable-background:accumulate" />
    <path
       d="M 1516.0634,324.77785 L 1516.0634,331.45758 L 1519.7007,328.09484 L 1516.0634,324.77785 L 1516.0634,324.77785 z"
       id="path13842-7"
       style="fill:#bebebe;fill-opacity:1;stroke-width:1px;display:inline" />
    <path
       d="M 1516.0634,333.6685 L 1516.0634,340.34823 L 1519.7007,336.98549 L 1516.0634,333.6685 L 1516.0634,333.6685 z"
       id="path13844-5"
       style="fill:#bebebe;fill-opacity:1;stroke-width:1px;display:inline" />
    <path
       d="M 1505.3933,327.02425 C 1506.6788,326.99608 1507.8745,327.37867 1508.9154,328.13468 L 1507.7507,329.74901 C 1507.0195,329.218 1506.3335,329.01071 1505.4306,329.0305 L 1505.3933,327.02425 z"
       id="path7873"
       style="fill:#bebebe;fill-opacity:1;stroke:none;stroke-width:6.70271683;stroke-linecap:butt;stroke-linejoin:miter;marker:none;stroke-miterlimit:4;stroke-dasharray:none;stroke-dashoffset:0;stroke-opacity:1;visibility:visible;display:inline;overflow:visible;enable-background:accumulate" />
    <path
       d="M 1514.9852,338.01651 L 1514.8746,336.01746 C 1514.0042,336.06526 1513.3493,335.86125 1512.6535,335.33403 L 1511.4536,336.9401 C 1512.4811,337.71873 1513.6998,338.0871 1514.9852,338.01651 z"
       id="path7875"
       style="fill:#bebebe;fill-opacity:1;stroke:none;stroke-width:7.33019447;stroke-linecap:butt;stroke-linejoin:miter;marker:none;stroke-miterlimit:4;stroke-dasharray:none;stroke-dashoffset:0;stroke-opacity:1;visibility:visible;display:inline;overflow:visible;enable-background:accumulate" />
    <path
       d="M 1502.0625,327.03125 L 1502.0625,329.03125 L 1505.6875,329.03125 L 1505.6875,327.03125 L 1502.0625,327.03125 z"
       id="path7877"
       style="fill:url(#linearGradient8945);fill-opacity:1;stroke:none;stroke-width:2;stroke-linecap:butt;stroke-linejoin:miter;marker:none;stroke-miterlimit:4;stroke-dasharray:none;stroke-dashoffset:0;stroke-opacity:1;visibility:visible;display:inline;overflow:visible;enable-background:accumulate" />
    <path
       d="M 1514.875,336.03125 L 1514.875,338.03125 L 1516.2188,338.03125 L 1516.2188,336.03125 L 1514.875,336.03125 z"
       id="path7879"
       style="fill:#bebebe;fill-opacity:1;stroke:none;stroke-width:2;stroke-linecap:butt;stroke-linejoin:miter;marker:none;stroke-miterlimit:4;stroke-dasharray:none;stroke-dashoffset:0;stroke-opacity:1;visibility:visible;display:inline;overflow:visible;enable-background:accumulate" />
    <rect
       width="24"
       height="24"
       x="-1522.0272"
       y="321.01471"
       transform="scale(-1,1)"
       id="rect7554"
       style="opacity:0;fill:#ffffff;fill-opacity:1;stroke:none;display:inline" />
  </g>
  <g
     transform="translate(-1498.0272,-321.01471)"
     id="layer9" />
  <g
     transform="translate(-1498.0272,-321.01471)"
     id="layer6" />
</svg>
