<?xml version="1.0" encoding="UTF-8" standalone="no"?>
<!-- Created with Inkscape (http://www.inkscape.org/) -->
<svg
   xmlns:svg="http://www.w3.org/2000/svg"
   xmlns="http://www.w3.org/2000/svg"
   version="1.0"
   width="24"
   height="24.014709"
   id="svg7384">
  <defs
     id="defs7386" />
  <g
     transform="translate(-1440.0272,-264)"
     id="layer3" />
  <g
     transform="translate(-1440.0272,-264)"
     id="layer5" />
  <g
     transform="translate(-1440.0272,-264)"
     id="layer7" />
  <g
     transform="translate(-1440.0272,-264)"
     id="layer2" />
  <g
     transform="translate(-1440.0272,-264)"
     id="layer8" />
  <g
     transform="translate(-1440.0272,-1216.3622)"
     id="layer1" />
  <g
     transform="translate(-1440.0272,-264)"
     id="layer4">
    <rect
       width="24"
       height="24"
       x="-1464.0272"
       y="264.01471"
       transform="scale(-1,1)"
       id="rect6018"
       style="opacity:0;fill:#ffffff;fill-opacity:1;stroke:none;display:inline" />
    <path
       d="M -2.8284264,179.43886 A 22.98097,22.98097 0 1 1 -48.790367,179.43886 A 22.98097,22.98097 0 1 1 -2.8284264,179.43886 z"
       transform="matrix(4.351428e-2,0,0,-4.351426e-2,1448.124,287.80464)"
       id="path2820"
       style="fill:#bebebe;fill-opacity:1;fill-rule:nonzero;stroke:none;marker:none;visibility:visible;display:inline;overflow:visible;enable-background:accumulate" />
    <path
       d="M -2.8284264,179.43886 A 22.98097,22.98097 0 1 1 -48.790367,179.43886 A 22.98097,22.98097 0 1 1 -2.8284264,179.43886 z"
       transform="matrix(4.351428e-2,0,0,-4.351426e-2,1458.124,277.80464)"
       id="path2820-8-2"
       style="fill:#bebebe;fill-opacity:1;stroke:none;display:inline" />
    <path
       d="M 1452.0085,270.98659 C 1449.8091,270.98659 1448.0023,272.79336 1448.0023,274.99279 C 1448.0023,277.19223 1449.8091,278.999 1452.0085,278.999 C 1454.208,278.999 1456.0148,277.19223 1456.0148,274.99279 C 1456.0148,272.79336 1454.208,270.98659 1452.0085,270.98659 z M 1452.0085,273.00245 C 1453.1259,273.00245 1453.9989,273.87548 1453.9989,274.99279 C 1453.9989,276.1101 1453.1259,277.00865 1452.0085,277.00865 C 1450.8912,277.00865 1449.9927,276.1101 1449.9927,274.99279 C 1449.9927,273.87548 1450.8912,273.00245 1452.0085,273.00245 z"
       id="path3895"
       style="fill:#bebebe;fill-opacity:1;stroke:none;stroke-width:2.44932628;stroke-miterlimit:4;stroke-dasharray:none;stroke-opacity:1;display:inline" />
    <path
       d="M 1459.7812,264 C 1459.3156,264.1043 1458.9885,264.52299 1459,265 L 1459,267 C 1459.0001,267.55226 1459.4477,267.99994 1460,268 L 1461.875,268 C 1462.2356,268.0051 1462.5711,267.81562 1462.7529,267.50413 C 1462.9347,267.19263 1462.9347,266.80737 1462.7529,266.49587 C 1462.5711,266.18438 1462.2356,265.9949 1461.875,266 L 1461,266 L 1461,265 C 1461.0074,264.69213 1460.8726,264.398 1460.6346,264.20267 C 1460.3965,264.00733 1460.0817,263.93257 1459.7812,264 L 1459.7812,264 z"
       id="path10556"
       style="fill:#bebebe;fill-opacity:1;stroke:none;stroke-width:2;stroke-linecap:round;stroke-linejoin:round;marker:none;stroke-miterlimit:4;stroke-dasharray:none;stroke-dashoffset:0;stroke-opacity:1;visibility:visible;display:inline;overflow:visible;enable-background:accumulate" />
    <path
       d="M 1441.9062,282 C 1441.3539,282.0259 1440.9272,282.49462 1440.9531,283.0469 C 1440.979,283.59918 1441.4477,284.0259 1442,284 L 1442.875,284 L 1442.875,285 C 1442.8699,285.36064 1443.0594,285.69608 1443.3709,285.87789 C 1443.6824,286.05969 1444.0676,286.05969 1444.3791,285.87789 C 1444.6906,285.69608 1444.8801,285.36064 1444.875,285 L 1444.875,283 C 1444.8749,282.44774 1444.4273,282.00006 1443.875,282 L 1442,282 C 1441.9688,281.99853 1441.9374,281.99853 1441.9062,282 z"
       id="path10579"
       style="fill:#bebebe;fill-opacity:1;stroke:none;stroke-width:2;stroke-linecap:round;stroke-linejoin:round;marker:none;stroke-miterlimit:4;stroke-dasharray:none;stroke-dashoffset:0;stroke-opacity:1;visibility:visible;display:inline;overflow:visible;enable-background:accumulate" />
  </g>
  <g
     transform="translate(-1440.0272,-264)"
     id="layer9" />
  <g
     transform="translate(-1440.0272,-264)"
     id="layer6" />
</svg>
