<?xml version="1.0" encoding="UTF-8" standalone="no"?>
<!-- Created with Inkscape (http://www.inkscape.org/) -->
<svg
   xmlns:svg="http://www.w3.org/2000/svg"
   xmlns="http://www.w3.org/2000/svg"
   version="1.0"
   width="24"
   height="24"
   id="svg7384">
  <defs
     id="defs7386" />
  <g
     transform="translate(-1498.0272,-264.01471)"
     id="layer3" />
  <g
     transform="translate(-1498.0272,-264.01471)"
     id="layer5" />
  <g
     transform="translate(-1498.0272,-264.01471)"
     id="layer7" />
  <g
     transform="translate(-1498.0272,-264.01471)"
     id="layer2" />
  <g
     transform="translate(-1498.0272,-264.01471)"
     id="layer8" />
  <g
     transform="translate(-1498.0272,-1216.3769)"
     id="layer1" />
  <g
     transform="translate(-1498.0272,-264.01471)"
     id="layer4">
    <rect
       width="24"
       height="24"
       x="-1522.0272"
       y="264.01471"
       transform="scale(-1,1)"
       id="rect10636"
       style="opacity:0;fill:#ffffff;fill-opacity:1;stroke:none;display:inline" />
    <path
       d="M -2.8284264,179.43886 A 22.98097,22.98097 0 1 1 -48.790367,179.43886 A 22.98097,22.98097 0 1 1 -2.8284264,179.43886 z"
       transform="matrix(4.351428e-2,0,0,-4.351426e-2,1506.124,287.80464)"
       id="path10638"
       style="fill:#bebebe;fill-opacity:1;fill-rule:nonzero;stroke:none;marker:none;visibility:visible;display:inline;overflow:visible;enable-background:accumulate" />
    <path
       d="M -2.8284264,179.43886 A 22.98097,22.98097 0 1 1 -48.790367,179.43886 A 22.98097,22.98097 0 1 1 -2.8284264,179.43886 z"
       transform="matrix(4.351428e-2,0,0,-4.351426e-2,1516.124,277.80464)"
       id="path10640"
       style="fill:#bebebe;fill-opacity:1;stroke:none;display:inline" />
    <path
       d="M 1510.0085,270.98659 C 1507.8091,270.98659 1506.0023,272.79336 1506.0023,274.99279 C 1506.0023,277.19223 1507.8091,278.999 1510.0085,278.999 C 1512.208,278.999 1514.0148,277.19223 1514.0148,274.99279 C 1514.0148,272.79336 1512.208,270.98659 1510.0085,270.98659 z M 1510.0085,273.00245 C 1511.1259,273.00245 1511.9989,273.87548 1511.9989,274.99279 C 1511.9989,276.1101 1511.1259,277.00865 1510.0085,277.00865 C 1508.8912,277.00865 1507.9927,276.1101 1507.9927,274.99279 C 1507.9927,273.87548 1508.8912,273.00245 1510.0085,273.00245 z"
       id="path10642"
       style="fill:#bebebe;fill-opacity:1;stroke:none;stroke-width:2.44932628;stroke-miterlimit:4;stroke-dasharray:none;stroke-opacity:1;display:inline" />
    <path
       d="M -2.8284264,179.43886 A 22.98097,22.98097 0 1 1 -48.790367,179.43886 A 22.98097,22.98097 0 1 1 -2.8284264,179.43886 z"
       transform="matrix(4.351428e-2,0,0,-4.351426e-2,1502.124,291.80464)"
       id="path10646"
       style="fill:#bebebe;fill-opacity:1;fill-rule:nonzero;stroke:none;marker:none;visibility:visible;display:inline;overflow:visible;enable-background:accumulate" />
    <path
       d="M -2.8284264,179.43886 A 22.98097,22.98097 0 1 1 -48.790367,179.43886 A 22.98097,22.98097 0 1 1 -2.8284264,179.43886 z"
       transform="matrix(4.351428e-2,0,0,-4.351426e-2,1520.124,273.80464)"
       id="path10648"
       style="fill:#bebebe;fill-opacity:1;stroke:none;display:inline" />
  </g>
  <g
     transform="translate(-1498.0272,-264.01471)"
     id="layer9" />
  <g
     transform="translate(-1498.0272,-264.01471)"
     id="layer6" />
</svg>
