<?xml version="1.0" encoding="UTF-8" standalone="no"?>
<!-- Created with Inkscape (http://www.inkscape.org/) -->
<svg
   xmlns:svg="http://www.w3.org/2000/svg"
   xmlns="http://www.w3.org/2000/svg"
   version="1.0"
   width="24"
   height="24.014709"
   id="svg7384">
  <defs
     id="defs7386" />
  <g
     transform="translate(-1469.0272,-264)"
     id="layer3" />
  <g
     transform="translate(-1469.0272,-264)"
     id="layer5" />
  <g
     transform="translate(-1469.0272,-264)"
     id="layer7" />
  <g
     transform="translate(-1469.0272,-264)"
     id="layer2" />
  <g
     transform="translate(-1469.0272,-264)"
     id="layer8" />
  <g
     transform="translate(-1469.0272,-1216.3622)"
     id="layer1" />
  <g
     transform="translate(-1469.0272,-264)"
     id="layer4">
    <rect
       width="24"
       height="24"
       x="-1493.0272"
       y="264.01471"
       transform="scale(-1,1)"
       id="rect10618"
       style="opacity:0;fill:#ffffff;fill-opacity:1;stroke:none;display:inline" />
    <path
       d="M -2.8284264,179.43886 A 22.98097,22.98097 0 1 1 -48.790367,179.43886 A 22.98097,22.98097 0 1 1 -2.8284264,179.43886 z"
       transform="matrix(4.351428e-2,0,0,-4.351426e-2,1477.124,287.80464)"
       id="path10620"
       style="fill:#bebebe;fill-opacity:1;fill-rule:nonzero;stroke:none;marker:none;visibility:visible;display:inline;overflow:visible;enable-background:accumulate" />
    <path
       d="M -2.8284264,179.43886 A 22.98097,22.98097 0 1 1 -48.790367,179.43886 A 22.98097,22.98097 0 1 1 -2.8284264,179.43886 z"
       transform="matrix(4.351428e-2,0,0,-4.351426e-2,1487.124,277.80464)"
       id="path10622"
       style="fill:#bebebe;fill-opacity:1;stroke:none;display:inline" />
    <path
       d="M 1481.0085,270.98659 C 1478.8091,270.98659 1477.0023,272.79336 1477.0023,274.99279 C 1477.0023,277.19223 1478.8091,278.999 1481.0085,278.999 C 1483.208,278.999 1485.0148,277.19223 1485.0148,274.99279 C 1485.0148,272.79336 1483.208,270.98659 1481.0085,270.98659 z M 1481.0085,273.00245 C 1482.1259,273.00245 1482.9989,273.87548 1482.9989,274.99279 C 1482.9989,276.1101 1482.1259,277.00865 1481.0085,277.00865 C 1479.8912,277.00865 1478.9927,276.1101 1478.9927,274.99279 C 1478.9927,273.87548 1479.8912,273.00245 1481.0085,273.00245 z"
       id="path10624"
       style="fill:#bebebe;fill-opacity:1;stroke:none;stroke-width:2.44932628;stroke-miterlimit:4;stroke-dasharray:none;stroke-opacity:1;display:inline" />
    <path
       d="M 1488.7812,264 C 1488.3156,264.1043 1487.9885,264.52299 1488,265 L 1488,267 C 1488.0001,267.55226 1488.4477,267.99994 1489,268 L 1490.875,268 C 1491.2356,268.0051 1491.5711,267.81562 1491.7529,267.50413 C 1491.9347,267.19263 1491.9347,266.80737 1491.7529,266.49587 C 1491.5711,266.18438 1491.2356,265.9949 1490.875,266 L 1490,266 L 1490,265 C 1490.0074,264.69213 1489.8726,264.398 1489.6346,264.20267 C 1489.3965,264.00733 1489.0817,263.93257 1488.7812,264 L 1488.7812,264 z"
       id="path10626"
       style="fill:#bebebe;fill-opacity:1;stroke:none;stroke-width:2;stroke-linecap:round;stroke-linejoin:round;marker:none;stroke-miterlimit:4;stroke-dasharray:none;stroke-dashoffset:0;stroke-opacity:1;visibility:visible;display:inline;overflow:visible;enable-background:accumulate" />
    <path
       d="M -2.8284264,179.43886 A 22.98097,22.98097 0 1 1 -48.790367,179.43886 A 22.98097,22.98097 0 1 1 -2.8284264,179.43886 z"
       transform="matrix(4.351428e-2,0,0,-4.351426e-2,1473.124,291.80464)"
       id="path10632"
       style="fill:#bebebe;fill-opacity:1;fill-rule:nonzero;stroke:none;marker:none;visibility:visible;display:inline;overflow:visible;enable-background:accumulate" />
  </g>
  <g
     transform="translate(-1469.0272,-264)"
     id="layer9" />
  <g
     transform="translate(-1469.0272,-264)"
     id="layer6" />
</svg>
