<?xml version="1.0" encoding="UTF-8" standalone="no"?>
<!-- Created with Inkscape (http://www.inkscape.org/) -->

<svg
   xmlns:svg="http://www.w3.org/2000/svg"
   xmlns="http://www.w3.org/2000/svg"
   version="1.1"
   width="24"
   height="24.092928"
   id="svg7384">
  <title
     id="title9167">Moblin Icon Theme</title>
  <defs
     id="defs7386" />
  <g
     transform="translate(-1588.0725,-396.00083)"
     id="layer3">
    <rect
       width="24"
       height="24"
       x="1588.0725"
       y="396.00082"
       id="rect12585"
       style="opacity:0;fill:#ffffff;fill-opacity:1;stroke:none;display:inline" />
    <g
       transform="matrix(1,0,0,-1,1539.0725,804.41193)"
       id="g12593" />
    <path
       d="m 1610.875,414 a 1.0001,1.0001 0 0 0 -0.5938,0.3125 l -3.25,3.34375 -1.2187,-1.25 a 1.0001,1.0001 0 1 0 -1.4375,1.375 l 1.9375,2 a 1.0001,1.0001 0 0 0 1.4375,0 l 3.9688,-4.09375 A 1.0001,1.0001 0 0 0 1610.875,414 z"
       id="path12597"
       style="font-size:medium;font-style:normal;font-variant:normal;font-weight:normal;font-stretch:normal;text-indent:0;text-align:start;text-decoration:none;line-height:normal;letter-spacing:normal;word-spacing:normal;text-transform:none;direction:ltr;block-progression:tb;writing-mode:lr-tb;text-anchor:start;color:#000000;fill:#4e9a06;fill-opacity:1;stroke:none;stroke-width:2;marker:none;visibility:visible;display:inline;overflow:visible;enable-background:accumulate;font-family:Bitstream Vera Sans;-inkscape-font-specification:Bitstream Vera Sans" />
    <path
       d="m 1592.8438,398.125 a 1.0001,1.0001 0 0 0 -0.5,1.71875 l 2.0312,2.03125 -2.375,2.34375 a 1.0001,1.0001 0 0 0 0.031,1.46875 l 2.4688,2.1875 -3.3125,3.0625 a 1.0174263,1.0174263 0 1 0 1.375,1.5 l 4.125,-3.8125 a 1.0001,1.0001 0 0 0 -0.031,-1.5 l -2.5,-2.21875 2.3438,-2.3125 a 1.0001,1.0001 0 0 0 0.031,-1.4375 l -2.75,-2.75 a 1.0001,1.0001 0 0 0 -0.9374,-0.28125 z"
       id="path12633"
       style="font-size:medium;font-style:normal;font-variant:normal;font-weight:normal;font-stretch:normal;text-indent:0;text-align:start;text-decoration:none;line-height:normal;letter-spacing:normal;word-spacing:normal;text-transform:none;direction:ltr;block-progression:tb;writing-mode:lr-tb;text-anchor:start;color:#000000;fill:#bebebe;fill-opacity:1;stroke:none;stroke-width:2;marker:none;visibility:visible;display:inline;overflow:visible;enable-background:new;font-family:Bitstream Vera Sans;-inkscape-font-specification:Bitstream Vera Sans" />
    <path
       d="m 1602.9062,399.875 a 1.0001,1.0001 0 0 0 -0.4687,0.28125 l -4.3125,4.25 a 1.0001,1.0001 0 0 0 0,1.4375 l 8.25,8.0625 a 1.0001,1.0001 0 0 0 1.6875,-0.71875 l 0,-8.125 a 1.0001,1.0001 0 0 0 -1,-1 l -2.375,0 a 1.0001,1.0001 0 1 0 0,2 l 1.375,0 0,4.75 -5.8437,-5.6875 3.5937,-3.53125 a 1.0001,1.0001 0 0 0 -0.9063,-1.71875 z"
       id="path12635"
       style="font-size:medium;font-style:normal;font-variant:normal;font-weight:normal;font-stretch:normal;text-indent:0;text-align:start;text-decoration:none;line-height:normal;letter-spacing:normal;word-spacing:normal;text-transform:none;direction:ltr;block-progression:tb;writing-mode:lr-tb;text-anchor:start;color:#000000;fill:#bebebe;fill-opacity:1;stroke:none;stroke-width:2;marker:none;visibility:visible;display:inline;overflow:visible;enable-background:new;font-family:Bitstream Vera Sans;-inkscape-font-specification:Bitstream Vera Sans" />
  </g>
  <g
     transform="translate(-1588.0725,-396.00083)"
     id="layer5" />
  <g
     transform="translate(-1588.0725,-396.00083)"
     id="layer7" />
  <g
     transform="translate(-1588.0725,-396.00083)"
     id="layer2" />
  <g
     transform="translate(-1588.0725,-396.00083)"
     id="layer8" />
  <g
     transform="translate(-1588.0725,-1348.363)"
     id="layer1" />
  <g
     transform="translate(-1588.0725,-396.00083)"
     id="layer11" />
  <g
     transform="translate(-1588.0725,-396.00083)"
     id="layer4" />
  <g
     transform="translate(-1588.0725,-396.00083)"
     id="layer12" />
  <g
     transform="translate(-1588.0725,-396.00083)"
     id="layer9" />
  <g
     transform="translate(-1588.0725,-396.00083)"
     id="layer10" />
  <g
     transform="translate(-1588.0725,-396.00083)"
     id="layer6" />
</svg>
