<?xml version="1.0" encoding="UTF-8" standalone="no"?>
<!-- Created with Inkscape (http://www.inkscape.org/) -->
<svg
   xmlns:svg="http://www.w3.org/2000/svg"
   xmlns="http://www.w3.org/2000/svg"
   version="1.0"
   width="24"
   height="24"
   id="svg7384">
  <defs
     id="defs7386" />
  <g
     transform="translate(-1413.0272,-264.01471)"
     id="layer3" />
  <g
     transform="translate(-1413.0272,-264.01471)"
     id="layer5" />
  <g
     transform="translate(-1413.0272,-264.01471)"
     id="layer7" />
  <g
     transform="translate(-1413.0272,-264.01471)"
     id="layer2" />
  <g
     transform="translate(-1413.0272,-264.01471)"
     id="layer8" />
  <g
     transform="translate(-1413.0272,-1216.3769)"
     id="layer1" />
  <g
     transform="translate(-1413.0272,-264.01471)"
     id="layer4">
    <rect
       width="24"
       height="24"
       x="-1437.0272"
       y="264.01471"
       transform="scale(-1,1)"
       id="rect10604"
       style="opacity:0;fill:#ffffff;fill-opacity:1;stroke:none;display:inline" />
    <path
       d="M -2.8284264,179.43886 A 22.98097,22.98097 0 1 1 -48.790367,179.43886 A 22.98097,22.98097 0 1 1 -2.8284264,179.43886 z"
       transform="matrix(4.351428e-2,0,0,-4.351426e-2,1421.124,287.80464)"
       id="path10606"
       style="fill:#bebebe;fill-opacity:1;fill-rule:nonzero;stroke:none;marker:none;visibility:visible;display:inline;overflow:visible;enable-background:accumulate" />
    <path
       d="M -2.8284264,179.43886 A 22.98097,22.98097 0 1 1 -48.790367,179.43886 A 22.98097,22.98097 0 1 1 -2.8284264,179.43886 z"
       transform="matrix(4.351428e-2,0,0,-4.351426e-2,1431.124,277.80464)"
       id="path10608"
       style="fill:#bebebe;fill-opacity:1;stroke:none;display:inline" />
    <path
       d="M 1425.0085,270.98659 C 1422.8091,270.98659 1421.0023,272.79336 1421.0023,274.99279 C 1421.0023,277.19223 1422.8091,278.999 1425.0085,278.999 C 1427.208,278.999 1429.0148,277.19223 1429.0148,274.99279 C 1429.0148,272.79336 1427.208,270.98659 1425.0085,270.98659 z M 1425.0085,273.00245 C 1426.1259,273.00245 1426.9989,273.87548 1426.9989,274.99279 C 1426.9989,276.1101 1426.1259,277.00865 1425.0085,277.00865 C 1423.8912,277.00865 1422.9927,276.1101 1422.9927,274.99279 C 1422.9927,273.87548 1423.8912,273.00245 1425.0085,273.00245 z"
       id="path10610"
       style="fill:#bebebe;fill-opacity:1;stroke:none;stroke-width:2.44932628;stroke-miterlimit:4;stroke-dasharray:none;stroke-opacity:1;display:inline" />
    <path
       d="M 1414.9062,282 C 1414.3539,282.0259 1413.9272,282.49462 1413.9531,283.0469 C 1413.979,283.59918 1414.4477,284.0259 1415,284 L 1415.875,284 L 1415.875,285 C 1415.8699,285.36064 1416.0594,285.69608 1416.3709,285.87789 C 1416.6824,286.05969 1417.0676,286.05969 1417.3791,285.87789 C 1417.6906,285.69608 1417.8801,285.36064 1417.875,285 L 1417.875,283 C 1417.8749,282.44774 1417.4273,282.00006 1416.875,282 L 1415,282 C 1414.9688,281.99853 1414.9374,281.99853 1414.9062,282 L 1414.9062,282 z"
       id="path10614"
       style="fill:#bebebe;fill-opacity:1;stroke:none;stroke-width:2;stroke-linecap:round;stroke-linejoin:round;marker:none;stroke-miterlimit:4;stroke-dasharray:none;stroke-dashoffset:0;stroke-opacity:1;visibility:visible;display:inline;overflow:visible;enable-background:accumulate" />
    <path
       d="M -2.8284264,179.43886 A 22.98097,22.98097 0 1 1 -48.790367,179.43886 A 22.98097,22.98097 0 1 1 -2.8284264,179.43886 z"
       transform="matrix(4.351428e-2,0,0,-4.351426e-2,1435.124,273.80464)"
       id="path10630"
       style="fill:#bebebe;fill-opacity:1;stroke:none;display:inline" />
  </g>
  <g
     transform="translate(-1413.0272,-264.01471)"
     id="layer9" />
  <g
     transform="translate(-1413.0272,-264.01471)"
     id="layer6" />
</svg>
