<?xml version="1.0" encoding="UTF-8" standalone="no"?>
<!-- Created with Inkscape (http://www.inkscape.org/) -->
<svg
   xmlns:svg="http://www.w3.org/2000/svg"
   xmlns="http://www.w3.org/2000/svg"
   version="1.0"
   width="24"
   height="24"
   id="svg7384">
  <defs
     id="defs7386" />
  <g
     transform="translate(-1527.0272,-264.01471)"
     id="layer3" />
  <g
     transform="translate(-1527.0272,-264.01471)"
     id="layer5" />
  <g
     transform="translate(-1527.0272,-264.01471)"
     id="layer7" />
  <g
     transform="translate(-1527.0272,-264.01471)"
     id="layer2" />
  <g
     transform="translate(-1527.0272,-264.01471)"
     id="layer8" />
  <g
     transform="translate(-1527.0272,-1216.3769)"
     id="layer1" />
  <g
     transform="translate(-1527.0272,-264.01471)"
     id="layer4">
    <g
       transform="translate(87,0)"
       id="g10650">
      <rect
         width="24"
         height="24"
         x="-1464.0272"
         y="264.01471"
         transform="scale(-1,1)"
         id="rect10652"
         style="opacity:0;fill:#ffffff;fill-opacity:1;stroke:none;display:inline" />
      <path
         d="M -2.8284264,179.43886 A 22.98097,22.98097 0 1 1 -48.790367,179.43886 A 22.98097,22.98097 0 1 1 -2.8284264,179.43886 z"
         transform="matrix(4.351428e-2,0,0,-4.351426e-2,1448.124,287.80464)"
         id="path10654"
         style="fill:#bebebe;fill-opacity:1;fill-rule:nonzero;stroke:none;marker:none;visibility:visible;display:inline;overflow:visible;enable-background:accumulate" />
      <path
         d="M -2.8284264,179.43886 A 22.98097,22.98097 0 1 1 -48.790367,179.43886 A 22.98097,22.98097 0 1 1 -2.8284264,179.43886 z"
         transform="matrix(4.351428e-2,0,0,-4.351426e-2,1458.124,277.80464)"
         id="path10656"
         style="fill:#bebebe;fill-opacity:1;stroke:none;display:inline" />
      <path
         d="M -2.8284264,179.43886 A 22.98097,22.98097 0 1 1 -48.790367,179.43886 A 22.98097,22.98097 0 1 1 -2.8284264,179.43886 z"
         transform="matrix(4.351428e-2,0,0,-4.351426e-2,1444.124,291.80464)"
         id="path10660"
         style="fill:#bebebe;fill-opacity:1;fill-rule:nonzero;stroke:none;marker:none;visibility:visible;display:inline;overflow:visible;enable-background:accumulate" />
      <path
         d="M -2.8284264,179.43886 A 22.98097,22.98097 0 1 1 -48.790367,179.43886 A 22.98097,22.98097 0 1 1 -2.8284264,179.43886 z"
         transform="matrix(4.351428e-2,0,0,-4.351426e-2,1462.124,273.80464)"
         id="path10662"
         style="fill:#bebebe;fill-opacity:1;stroke:none;display:inline" />
    </g>
    <path
       d="M 1540.875,272 C 1540.647,272.03268 1540.4372,272.14306 1540.2812,272.3125 L 1536.2812,276.375 C 1535.9896,276.62222 1535.8644,277.01405 1535.9587,277.38454 C 1536.053,277.75502 1536.3503,278.03934 1536.7246,278.11706 C 1537.0989,278.19478 1537.4848,278.05232 1537.7188,277.75 L 1541.7188,273.6875 C 1542.0138,273.38247 1542.0841,272.92451 1541.8944,272.54499 C 1541.7046,272.16547 1541.296,271.94702 1540.875,272 z"
       id="path10664"
       style="fill:#bebebe;fill-opacity:1;stroke:none;stroke-width:2;stroke-linecap:round;stroke-linejoin:miter;marker:none;stroke-miterlimit:4;stroke-dasharray:none;stroke-dashoffset:0;stroke-opacity:1;visibility:visible;display:inline;overflow:visible;enable-background:accumulate" />
    <path
       d="M 1536.8125,272 C 1536.4475,272.06655 1536.1494,272.32967 1536.038,272.68353 C 1535.9266,273.0374 1536.0202,273.42386 1536.2812,273.6875 L 1540.2812,277.75 C 1540.5152,278.05232 1540.9011,278.19478 1541.2754,278.11706 C 1541.6497,278.03934 1541.947,277.75502 1542.0413,277.38454 C 1542.1356,277.01405 1542.0104,276.62222 1541.7188,276.375 L 1537.7188,272.3125 C 1537.4896,272.06089 1537.1481,271.94315 1536.8125,272 L 1536.8125,272 z"
       id="path10687"
       style="fill:#bebebe;fill-opacity:1;stroke:none;stroke-width:2;stroke-linecap:round;stroke-linejoin:miter;marker:none;stroke-miterlimit:4;stroke-dasharray:none;stroke-dashoffset:0;stroke-opacity:1;visibility:visible;display:inline;overflow:visible;enable-background:accumulate" />
  </g>
  <g
     transform="translate(-1527.0272,-264.01471)"
     id="layer9" />
  <g
     transform="translate(-1527.0272,-264.01471)"
     id="layer6" />
</svg>
