<?xml version="1.0" encoding="UTF-8" standalone="no"?>
<!-- Created with Inkscape (http://www.inkscape.org/) -->
<svg
   xmlns:svg="http://www.w3.org/2000/svg"
   xmlns="http://www.w3.org/2000/svg"
   version="1.0"
   width="24"
   height="24.014709"
   id="svg7384">
  <defs
     id="defs7386" />
  <g
     transform="translate(-1555.0272,-264)"
     id="layer3">
    <g
       transform="translate(28,-1.9073485e-7)"
       id="g10746">
      <rect
         width="24"
         height="24"
         x="-1551.0272"
         y="264.01471"
         transform="scale(-1,1)"
         id="rect10703"
         style="opacity:0;fill:#ffffff;fill-opacity:1;stroke:none;display:inline" />
      <path
         d="M -2.8284264,179.43886 A 22.98097,22.98097 0 1 1 -48.790367,179.43886 A 22.98097,22.98097 0 1 1 -2.8284264,179.43886 z"
         transform="matrix(4.351428e-2,0,0,-4.351426e-2,1535.124,287.80464)"
         id="path10705"
         style="fill:#bebebe;fill-opacity:1;fill-rule:nonzero;stroke:none;marker:none;visibility:visible;display:inline;overflow:visible;enable-background:accumulate" />
      <path
         d="M -2.8284264,179.43886 A 22.98097,22.98097 0 1 1 -48.790367,179.43886 A 22.98097,22.98097 0 1 1 -2.8284264,179.43886 z"
         transform="matrix(4.351428e-2,0,0,-4.351426e-2,1545.124,277.80464)"
         id="path10707"
         style="fill:#bebebe;fill-opacity:1;stroke:none;display:inline" />
      <path
         d="M 1537,277.0625 L 1541,273"
         id="path10713"
         style="fill:none;stroke:#bebebe;stroke-width:2;stroke-linecap:round;stroke-linejoin:miter;marker:none;stroke-miterlimit:4;stroke-dasharray:none;stroke-dashoffset:0;stroke-opacity:1;visibility:visible;display:inline;overflow:visible;enable-background:accumulate" />
      <path
         d="M 1541,277.0625 L 1537,273"
         id="path10715"
         style="fill:none;stroke:#bebebe;stroke-width:2;stroke-linecap:round;stroke-linejoin:miter;marker:none;stroke-miterlimit:4;stroke-dasharray:none;stroke-dashoffset:0;stroke-opacity:1;visibility:visible;display:inline;overflow:visible;enable-background:accumulate" />
      <path
         d="M 1548.875,267 L 1547,267 L 1547,265"
         id="path10626-8"
         style="fill:none;stroke:#bebebe;stroke-width:2;stroke-linecap:round;stroke-linejoin:round;marker:none;stroke-miterlimit:4;stroke-dasharray:none;stroke-dashoffset:0;stroke-opacity:1;visibility:visible;display:inline;overflow:visible;enable-background:accumulate" />
      <path
         d="M 1529,283 L 1530.875,283 L 1530.875,285"
         id="path10744"
         style="fill:none;stroke:#bebebe;stroke-width:2;stroke-linecap:round;stroke-linejoin:round;marker:none;stroke-miterlimit:4;stroke-dasharray:none;stroke-dashoffset:0;stroke-opacity:1;visibility:visible;display:inline;overflow:visible;enable-background:accumulate" />
    </g>
  </g>
  <g
     transform="translate(-1555.0272,-264)"
     id="layer5" />
  <g
     transform="translate(-1555.0272,-264)"
     id="layer7" />
  <g
     transform="translate(-1555.0272,-264)"
     id="layer2" />
  <g
     transform="translate(-1555.0272,-264)"
     id="layer8" />
  <g
     transform="translate(-1555.0272,-1216.3622)"
     id="layer1" />
  <g
     transform="translate(-1555.0272,-264)"
     id="layer4" />
  <g
     transform="translate(-1555.0272,-264)"
     id="layer9" />
  <g
     transform="translate(-1555.0272,-264)"
     id="layer6" />
</svg>
