<?xml version="1.0" encoding="UTF-8" standalone="no"?>
<!-- Created with Inkscape (http://www.inkscape.org/) -->

<svg
   xmlns:svg="http://www.w3.org/2000/svg"
   xmlns="http://www.w3.org/2000/svg"
   version="1.1"
   width="24"
   height="24"
   id="svg7384">
  <title
     id="title9167">Moblin Icon Theme</title>
  <defs
     id="defs7386" />
  <g
     transform="translate(-1618.0725,-396.00083)"
     id="layer3">
    <rect
       width="24"
       height="24"
       x="1618.0725"
       y="396.00082"
       id="rect12617"
       style="opacity:0;fill:#ffffff;fill-opacity:1;stroke:none;display:inline" />
    <g
       transform="matrix(1,0,0,-1,1569.0725,804.41193)"
       id="g12623" />
    <path
       d="m 1636.4022,419.97846 5.5898,-5.56425 0.01,-1.41421 c 0,0 -1.4236,0 -1.4236,0 l -5.5898,5.56424 c 0,0 0,1.42347 0,1.42347 0,0 1.4142,-0.009 1.4142,-0.009 l 4e-4,-2.5e-4 0,0 z"
       id="path12627"
       style="fill:#ed2124;fill-opacity:1;stroke:none;display:inline" />
    <path
       d="m 1640.5864,419.97846 -5.5898,-5.56425 -0.01,-1.41421 c 0,0 1.4235,0 1.4235,0 l 5.5899,5.56424 c 0,0 0,1.42347 0,1.42347 0,0 -1.4143,-0.009 -1.4143,-0.009 l -3e-4,-2.5e-4 0,0 z"
       id="path12629"
       style="fill:#ed2124;fill-opacity:1;stroke:none;display:inline" />
    <path
       d="m 1622.8438,398.125 a 1.0001,1.0001 0 0 0 -0.5,1.71875 l 2.0312,2.03125 -2.375,2.34375 a 1.0001,1.0001 0 0 0 0.031,1.46875 l 2.4688,2.1875 -3.3125,3.0625 a 1.0174263,1.0174263 0 1 0 1.375,1.5 l 4.125,-3.8125 a 1.0001,1.0001 0 0 0 -0.031,-1.5 l -2.5,-2.21875 2.3438,-2.3125 a 1.0001,1.0001 0 0 0 0.031,-1.4375 l -2.75,-2.75 a 1.0001,1.0001 0 0 0 -0.9374,-0.28125 z"
       id="path12633-2"
       style="font-size:medium;font-style:normal;font-variant:normal;font-weight:normal;font-stretch:normal;text-indent:0;text-align:start;text-decoration:none;line-height:normal;letter-spacing:normal;word-spacing:normal;text-transform:none;direction:ltr;block-progression:tb;writing-mode:lr-tb;text-anchor:start;color:#000000;fill:#bebebe;fill-opacity:1;stroke:none;stroke-width:2;marker:none;visibility:visible;display:inline;overflow:visible;enable-background:new;font-family:Bitstream Vera Sans;-inkscape-font-specification:Bitstream Vera Sans" />
    <path
       d="m 1632.9062,399.875 a 1.0001,1.0001 0 0 0 -0.4687,0.28125 l -4.3125,4.25 a 1.0001,1.0001 0 0 0 0,1.4375 l 5.3438,5.21875 a 1.0001,1.0001 0 1 0 1.375,-1.4375 l -4.625,-4.5 3.5937,-3.53125 a 1.0001,1.0001 0 0 0 -0.9063,-1.71875 z m 1.6876,4.1875 a 1.0011039,1.0011039 0 1 0 0.094,2 l 1.375,0 0,3.6875 a 1.0001,1.0001 0 1 0 2,0 l 0,-4.6875 a 1.0001,1.0001 0 0 0 -1,-1 l -2.375,0 a 1.0001,1.0001 0 0 0 -0.094,0 z"
       id="path12635-9"
       style="font-size:medium;font-style:normal;font-variant:normal;font-weight:normal;font-stretch:normal;text-indent:0;text-align:start;text-decoration:none;line-height:normal;letter-spacing:normal;word-spacing:normal;text-transform:none;direction:ltr;block-progression:tb;writing-mode:lr-tb;text-anchor:start;color:#000000;fill:#bebebe;fill-opacity:1;stroke:none;stroke-width:2;marker:none;visibility:visible;display:inline;overflow:visible;enable-background:new;font-family:Bitstream Vera Sans;-inkscape-font-specification:Bitstream Vera Sans" />
  </g>
  <g
     transform="translate(-1618.0725,-396.00083)"
     id="layer5" />
  <g
     transform="translate(-1618.0725,-396.00083)"
     id="layer7" />
  <g
     transform="translate(-1618.0725,-396.00083)"
     id="layer2" />
  <g
     transform="translate(-1618.0725,-396.00083)"
     id="layer8" />
  <g
     transform="translate(-1618.0725,-1348.363)"
     id="layer1" />
  <g
     transform="translate(-1618.0725,-396.00083)"
     id="layer11" />
  <g
     transform="translate(-1618.0725,-396.00083)"
     id="layer4" />
  <g
     transform="translate(-1618.0725,-396.00083)"
     id="layer12" />
  <g
     transform="translate(-1618.0725,-396.00083)"
     id="layer9" />
  <g
     transform="translate(-1618.0725,-396.00083)"
     id="layer10" />
  <g
     transform="translate(-1618.0725,-396.00083)"
     id="layer6" />
</svg>
