<?xml version="1.0" encoding="UTF-8" standalone="no"?>
<!-- Created with Inkscape (http://www.inkscape.org/) -->
<svg
   xmlns:svg="http://www.w3.org/2000/svg"
   xmlns="http://www.w3.org/2000/svg"
   version="1.0"
   width="24.001978"
   height="24"
   id="svg7384">
  <title
     id="title9167">Moblin Icon Theme</title>
  <defs
     id="defs7386" />
  <g
     transform="translate(-1582,-234.01474)"
     id="layer3">
    <rect
       width="24"
       height="24"
       x="-1606"
       y="234.01474"
       transform="scale(-1,1)"
       id="rect24500"
       style="opacity:0;fill:#ffffff;fill-opacity:1;stroke:none;display:inline" />
    <path
       d="M 1600.4022,257.99075 L 1605.992,252.4265 L 1606.002,251.01229 C 1606.002,251.01229 1604.5784,251.01229 1604.5784,251.01229 L 1598.9886,256.57653 C 1598.9886,256.57653 1598.9886,258 1598.9886,258 C 1598.9886,258 1600.4028,257.991 1600.4028,257.991 L 1600.4032,257.99075 L 1600.4032,257.99075 L 1600.4022,257.99075 z"
       id="path24514"
       style="fill:#ed2124;fill-opacity:1;stroke:none;display:inline" />
    <path
       d="M 1604.5864,257.99075 L 1598.9966,252.4265 L 1598.9866,251.01229 C 1598.9866,251.01229 1600.4101,251.01229 1600.4101,251.01229 L 1606,256.57653 C 1606,256.57653 1606,258 1606,258 C 1606,258 1604.5857,257.991 1604.5857,257.991 L 1604.5854,257.99075 L 1604.5854,257.99075 L 1604.5864,257.99075 z"
       id="path24516"
       style="fill:#ed2124;fill-opacity:1;stroke:none;display:inline" />
    <path
       d="M 1583.8125,234.0625 C 1582.8365,234.0625 1582.0312,234.86778 1582.0312,235.84375 L 1582.0312,238.21875 C 1582.0312,239.19472 1582.8365,240 1583.8125,240 L 1586.2188,240 C 1587.1947,240 1588,239.19472 1588,238.21875 L 1588,235.84375 C 1588,234.86778 1587.1947,234.0625 1586.2188,234.0625 L 1583.8125,234.0625 z M 1584.0312,236.0625 L 1586,236.0625 L 1586,238 L 1584.0312,238 L 1584.0312,236.0625 z"
       id="rect24518-1"
       style="opacity:0.5;fill:#bebebe;fill-opacity:1;stroke:none;stroke-width:1.99999976;stroke-linecap:butt;stroke-linejoin:miter;marker:none;stroke-miterlimit:4;stroke-dasharray:none;stroke-dashoffset:0;stroke-opacity:1;visibility:visible;display:inline;overflow:visible;enable-background:accumulate" />
    <path
       d="M 1591.8125,234.0625 C 1590.8365,234.0625 1590.0312,234.86778 1590.0312,235.84375 L 1590.0312,238.21875 C 1590.0312,239.19472 1590.8365,240 1591.8125,240 L 1594.2188,240 C 1595.1947,240 1596,239.19472 1596,238.21875 L 1596,235.84375 C 1596,234.86778 1595.1947,234.0625 1594.2188,234.0625 L 1591.8125,234.0625 z M 1592.0312,236.0625 L 1594,236.0625 L 1594,238 L 1592.0312,238 L 1592.0312,236.0625 z"
       id="rect24522-3"
       style="opacity:0.5;fill:#bebebe;fill-opacity:1;stroke:none;stroke-width:1.99999976;stroke-linecap:butt;stroke-linejoin:miter;marker:none;stroke-miterlimit:4;stroke-dasharray:none;stroke-dashoffset:0;stroke-opacity:1;visibility:visible;display:inline;overflow:visible;enable-background:accumulate" />
    <path
       d="M 1599.8125,234.0625 C 1598.8365,234.0625 1598.0312,234.86778 1598.0312,235.84375 L 1598.0312,238.21875 C 1598.0312,239.19472 1598.8365,240 1599.8125,240 L 1602.2188,240 C 1603.1947,240 1604,239.19472 1604,238.21875 L 1604,235.84375 C 1604,234.86778 1603.1947,234.0625 1602.2188,234.0625 L 1599.8125,234.0625 z M 1600.0312,236.0625 L 1602,236.0625 L 1602,238 L 1600.0312,238 L 1600.0312,236.0625 z"
       id="rect24524-1"
       style="opacity:0.5;fill:#bebebe;fill-opacity:1;stroke:none;stroke-width:1.99999976;stroke-linecap:butt;stroke-linejoin:miter;marker:none;stroke-miterlimit:4;stroke-dasharray:none;stroke-dashoffset:0;stroke-opacity:1;visibility:visible;display:inline;overflow:visible;enable-background:accumulate" />
    <path
       d="M 1583.8125,242.0625 C 1582.8365,242.0625 1582.0312,242.86778 1582.0312,243.84375 L 1582.0312,246.21875 C 1582.0312,247.19472 1582.8365,248 1583.8125,248 L 1586.2188,248 C 1587.1947,248 1588,247.19472 1588,246.21875 L 1588,243.84375 C 1588,242.86778 1587.1947,242.0625 1586.2188,242.0625 L 1583.8125,242.0625 z M 1584.0312,244.0625 L 1586,244.0625 L 1586,246 L 1584.0312,246 L 1584.0312,244.0625 z"
       id="rect24526-9"
       style="opacity:0.5;fill:#bebebe;fill-opacity:1;stroke:none;stroke-width:1.99999976;stroke-linecap:butt;stroke-linejoin:miter;marker:none;stroke-miterlimit:4;stroke-dasharray:none;stroke-dashoffset:0;stroke-opacity:1;visibility:visible;display:inline;overflow:visible;enable-background:accumulate" />
    <path
       d="M 1591.8125,242.0625 C 1590.8365,242.0625 1590.0312,242.86778 1590.0312,243.84375 L 1590.0312,246.21875 C 1590.0312,247.19472 1590.8365,248 1591.8125,248 L 1594.2188,248 C 1595.1947,248 1596,247.19472 1596,246.21875 L 1596,243.84375 C 1596,242.86778 1595.1947,242.0625 1594.2188,242.0625 L 1591.8125,242.0625 z M 1592.0312,244.0625 L 1594,244.0625 L 1594,246 L 1592.0312,246 L 1592.0312,244.0625 z"
       id="rect24528-5"
       style="opacity:0.5;fill:#bebebe;fill-opacity:1;stroke:none;stroke-width:1.99999976;stroke-linecap:butt;stroke-linejoin:miter;marker:none;stroke-miterlimit:4;stroke-dasharray:none;stroke-dashoffset:0;stroke-opacity:1;visibility:visible;display:inline;overflow:visible;enable-background:accumulate" />
    <path
       d="M 1583.8125,250 C 1582.8365,250 1582.0312,250.80528 1582.0312,251.78125 L 1582.0312,254.15625 C 1582.0312,255.13222 1582.8365,255.9375 1583.8125,255.9375 L 1586.2188,255.9375 C 1587.1947,255.9375 1588,255.13222 1588,254.15625 L 1588,251.78125 C 1588,250.80528 1587.1947,250 1586.2188,250 L 1583.8125,250 z M 1584.0312,252 L 1586,252 L 1586,253.9375 L 1584.0312,253.9375 L 1584.0312,252 z"
       id="rect24532-1"
       style="opacity:0.5;fill:#bebebe;fill-opacity:1;stroke:none;stroke-width:1.99999976;stroke-linecap:butt;stroke-linejoin:miter;marker:none;stroke-miterlimit:4;stroke-dasharray:none;stroke-dashoffset:0;stroke-opacity:1;visibility:visible;display:inline;overflow:visible;enable-background:accumulate" />
    <path
       d="M 1591.8125,250 C 1590.8365,250 1590.0312,250.80528 1590.0312,251.78125 L 1590.0312,254.15625 C 1590.0312,255.13222 1590.8365,255.9375 1591.8125,255.9375 L 1594.2188,255.9375 C 1595.1947,255.9375 1596,255.13222 1596,254.15625 L 1596,251.78125 C 1596,250.80528 1595.1947,250 1594.2188,250 L 1591.8125,250 z M 1592.0312,252 L 1594,252 L 1594,253.9375 L 1592.0312,253.9375 L 1592.0312,252 z"
       id="rect24534-8"
       style="opacity:0.5;fill:#bebebe;fill-opacity:1;stroke:none;stroke-width:1.99999976;stroke-linecap:butt;stroke-linejoin:miter;marker:none;stroke-miterlimit:4;stroke-dasharray:none;stroke-dashoffset:0;stroke-opacity:1;visibility:visible;display:inline;overflow:visible;enable-background:accumulate" />
    <path
       d="M 1599.8125,243 C 1598.8365,243 1598.0311,243.80526 1598.0312,244.78125 L 1598.0312,247.9375 L 1600.0312,247.9375 L 1600.0312,245 L 1602,245 L 1602,249 L 1604,249 L 1604,244.78125 C 1604,243.80533 1603.1947,243.00001 1602.2188,243 L 1599.8125,243 z"
       id="rect24536-6"
       style="opacity:0.5;fill:#bebebe;fill-opacity:1;stroke:none;stroke-width:1.99999976;stroke-linecap:butt;stroke-linejoin:miter;marker:none;stroke-miterlimit:4;stroke-dashoffset:0;stroke-opacity:1;visibility:visible;display:inline;overflow:visible;enable-background:accumulate" />
  </g>
  <g
     transform="translate(-1582,-234.01474)"
     id="layer5" />
  <g
     transform="translate(-1582,-234.01474)"
     id="layer7" />
  <g
     transform="translate(-1582,-234.01474)"
     id="layer2" />
  <g
     transform="translate(-1582,-234.01474)"
     id="layer8" />
  <g
     transform="translate(-1582,-1186.3769)"
     id="layer1" />
  <g
     transform="translate(-1582,-234.01474)"
     id="layer11" />
  <g
     transform="translate(-1582,-234.01474)"
     id="layer4" />
  <g
     transform="translate(-1582,-234.01474)"
     id="layer12" />
  <g
     transform="translate(-1582,-234.01474)"
     id="layer9" />
  <g
     transform="translate(-1582,-234.01474)"
     id="layer10" />
  <g
     transform="translate(-1582,-234.01474)"
     id="layer6" />
</svg>
