<?xml version="1.0" encoding="UTF-8" standalone="no"?>
<!-- Created with Inkscape (http://www.inkscape.org/) -->
<svg
   xmlns:svg="http://www.w3.org/2000/svg"
   xmlns="http://www.w3.org/2000/svg"
   version="1.0"
   width="24"
   height="24"
   id="svg7384">
  <title
     id="title9167">Moblin Icon Theme</title>
  <defs
     id="defs7386" />
  <g
     transform="translate(-1554,-234.01474)"
     id="layer3">
    <rect
       width="24"
       height="24"
       x="-1578"
       y="234.01474"
       transform="scale(-1,1)"
       id="rect24480"
       style="opacity:0;fill:#ffffff;fill-opacity:1;stroke:none;display:inline" />
    <path
       d="M 1555.8125,234.0625 C 1554.8365,234.0625 1554.0312,234.86778 1554.0312,235.84375 L 1554.0312,238.21875 C 1554.0312,239.19472 1554.8365,240 1555.8125,240 L 1558.2188,240 C 1559.1947,240 1560,239.19472 1560,238.21875 L 1560,235.84375 C 1560,234.86778 1559.1947,234.0625 1558.2188,234.0625 L 1555.8125,234.0625 z M 1556.0312,236.0625 L 1558,236.0625 L 1558,238 L 1556.0312,238 L 1556.0312,236.0625 z"
       id="rect24518"
       style="fill:#bebebe;fill-opacity:1;stroke:none;stroke-width:1.99999976;stroke-linecap:butt;stroke-linejoin:miter;marker:none;stroke-miterlimit:4;stroke-dasharray:none;stroke-dashoffset:0;stroke-opacity:1;visibility:visible;display:inline;overflow:visible;enable-background:accumulate" />
    <path
       d="M 1563.8125,234.0625 C 1562.8365,234.0625 1562.0312,234.86778 1562.0312,235.84375 L 1562.0312,238.21875 C 1562.0312,239.19472 1562.8365,240 1563.8125,240 L 1566.2188,240 C 1567.1947,240 1568,239.19472 1568,238.21875 L 1568,235.84375 C 1568,234.86778 1567.1947,234.0625 1566.2188,234.0625 L 1563.8125,234.0625 z M 1564.0312,236.0625 L 1566,236.0625 L 1566,238 L 1564.0312,238 L 1564.0312,236.0625 z"
       id="rect24522"
       style="fill:#bebebe;fill-opacity:1;stroke:none;stroke-width:1.99999976;stroke-linecap:butt;stroke-linejoin:miter;marker:none;stroke-miterlimit:4;stroke-dasharray:none;stroke-dashoffset:0;stroke-opacity:1;visibility:visible;display:inline;overflow:visible;enable-background:accumulate" />
    <path
       d="M 1571.8125,234.0625 C 1570.8365,234.0625 1570.0312,234.86778 1570.0312,235.84375 L 1570.0312,238.21875 C 1570.0312,239.19472 1570.8365,240 1571.8125,240 L 1574.2188,240 C 1575.1947,240 1576,239.19472 1576,238.21875 L 1576,235.84375 C 1576,234.86778 1575.1947,234.0625 1574.2188,234.0625 L 1571.8125,234.0625 z M 1572.0312,236.0625 L 1574,236.0625 L 1574,238 L 1572.0312,238 L 1572.0312,236.0625 z"
       id="rect24524"
       style="fill:#bebebe;fill-opacity:1;stroke:none;stroke-width:1.99999976;stroke-linecap:butt;stroke-linejoin:miter;marker:none;stroke-miterlimit:4;stroke-dasharray:none;stroke-dashoffset:0;stroke-opacity:1;visibility:visible;display:inline;overflow:visible;enable-background:accumulate" />
    <path
       d="M 1555.8125,242.0625 C 1554.8365,242.0625 1554.0312,242.86778 1554.0312,243.84375 L 1554.0312,246.21875 C 1554.0312,247.19472 1554.8365,248 1555.8125,248 L 1558.2188,248 C 1559.1947,248 1560,247.19472 1560,246.21875 L 1560,243.84375 C 1560,242.86778 1559.1947,242.0625 1558.2188,242.0625 L 1555.8125,242.0625 z M 1556.0312,244.0625 L 1558,244.0625 L 1558,246 L 1556.0312,246 L 1556.0312,244.0625 z"
       id="rect24526"
       style="fill:#bebebe;fill-opacity:1;stroke:none;stroke-width:1.99999976;stroke-linecap:butt;stroke-linejoin:miter;marker:none;stroke-miterlimit:4;stroke-dasharray:none;stroke-dashoffset:0;stroke-opacity:1;visibility:visible;display:inline;overflow:visible;enable-background:accumulate" />
    <path
       d="M 1563.8125,242.0625 C 1562.8365,242.0625 1562.0312,242.86778 1562.0312,243.84375 L 1562.0312,246.21875 C 1562.0312,247.19472 1562.8365,248 1563.8125,248 L 1566.2188,248 C 1567.1947,248 1568,247.19472 1568,246.21875 L 1568,243.84375 C 1568,242.86778 1567.1947,242.0625 1566.2188,242.0625 L 1563.8125,242.0625 z M 1564.0312,244.0625 L 1566,244.0625 L 1566,246 L 1564.0312,246 L 1564.0312,244.0625 z"
       id="rect24528"
       style="fill:#bebebe;fill-opacity:1;stroke:none;stroke-width:1.99999976;stroke-linecap:butt;stroke-linejoin:miter;marker:none;stroke-miterlimit:4;stroke-dasharray:none;stroke-dashoffset:0;stroke-opacity:1;visibility:visible;display:inline;overflow:visible;enable-background:accumulate" />
    <path
       d="M 1555.8125,250 C 1554.8365,250 1554.0312,250.80528 1554.0312,251.78125 L 1554.0312,254.15625 C 1554.0312,255.13222 1554.8365,255.9375 1555.8125,255.9375 L 1558.2188,255.9375 C 1559.1947,255.9375 1560,255.13222 1560,254.15625 L 1560,251.78125 C 1560,250.80528 1559.1947,250 1558.2188,250 L 1555.8125,250 z M 1556.0312,252 L 1558,252 L 1558,253.9375 L 1556.0312,253.9375 L 1556.0312,252 z"
       id="rect24532"
       style="fill:#bebebe;fill-opacity:1;stroke:none;stroke-width:1.99999976;stroke-linecap:butt;stroke-linejoin:miter;marker:none;stroke-miterlimit:4;stroke-dasharray:none;stroke-dashoffset:0;stroke-opacity:1;visibility:visible;display:inline;overflow:visible;enable-background:accumulate" />
    <path
       d="M 1563.8125,250 C 1562.8365,250 1562.0312,250.80528 1562.0312,251.78125 L 1562.0312,254.15625 C 1562.0312,255.13222 1562.8365,255.9375 1563.8125,255.9375 L 1566.2188,255.9375 C 1567.1947,255.9375 1568,255.13222 1568,254.15625 L 1568,251.78125 C 1568,250.80528 1567.1947,250 1566.2188,250 L 1563.8125,250 z M 1564.0312,252 L 1566,252 L 1566,253.9375 L 1564.0312,253.9375 L 1564.0312,252 z"
       id="rect24534"
       style="fill:#bebebe;fill-opacity:1;stroke:none;stroke-width:1.99999976;stroke-linecap:butt;stroke-linejoin:miter;marker:none;stroke-miterlimit:4;stroke-dasharray:none;stroke-dashoffset:0;stroke-opacity:1;visibility:visible;display:inline;overflow:visible;enable-background:accumulate" />
    <path
       d="M 1571.8125,243 C 1570.8365,243 1570.0312,243.80528 1570.0312,244.78125 L 1570.0312,254.15625 C 1570.0312,255.13222 1570.8365,255.9375 1571.8125,255.9375 L 1574.2188,255.9375 C 1575.1947,255.9375 1576,255.13222 1576,254.15625 L 1576,244.78125 C 1576,243.80528 1575.1947,243 1574.2188,243 L 1571.8125,243 z M 1572.0312,245 L 1574,245 L 1574,253.9375 L 1572.0312,253.9375 L 1572.0312,245 z"
       id="rect24536"
       style="fill:#bebebe;fill-opacity:1;stroke:none;stroke-width:1.99999976;stroke-linecap:butt;stroke-linejoin:miter;marker:none;stroke-miterlimit:4;stroke-dasharray:none;stroke-dashoffset:0;stroke-opacity:1;visibility:visible;display:inline;overflow:visible;enable-background:accumulate" />
  </g>
  <g
     transform="translate(-1554,-234.01474)"
     id="layer5" />
  <g
     transform="translate(-1554,-234.01474)"
     id="layer7" />
  <g
     transform="translate(-1554,-234.01474)"
     id="layer2" />
  <g
     transform="translate(-1554,-234.01474)"
     id="layer8" />
  <g
     transform="translate(-1554,-1186.3769)"
     id="layer1" />
  <g
     transform="translate(-1554,-234.01474)"
     id="layer11" />
  <g
     transform="translate(-1554,-234.01474)"
     id="layer4" />
  <g
     transform="translate(-1554,-234.01474)"
     id="layer12" />
  <g
     transform="translate(-1554,-234.01474)"
     id="layer9" />
  <g
     transform="translate(-1554,-234.01474)"
     id="layer10" />
  <g
     transform="translate(-1554,-234.01474)"
     id="layer6" />
</svg>
