<?xml version="1.0" encoding="UTF-8" standalone="no"?>
<!-- Created with Inkscape (http://www.inkscape.org/) -->
<svg
   xmlns:svg="http://www.w3.org/2000/svg"
   xmlns="http://www.w3.org/2000/svg"
   version="1.0"
   width="24"
   height="24"
   id="svg7384">
  <title
     id="title9167">Moblin Icon Theme</title>
  <defs
     id="defs7386" />
  <g
     transform="translate(-1560,-396.01471)"
     id="layer3">
    <rect
       width="24"
       height="24"
       x="-420.01471"
       y="1560"
       transform="matrix(0,-1,1,0,0,0)"
       id="rect7838"
       style="opacity:0;fill:#ffffff;fill-opacity:1;stroke:none;display:inline" />
    <path
       d="M 1572.0625,398.03125 C 1568.3653,398.03125 1565.7692,399.3831 1564.1875,401.21875 C 1562.6058,403.0544 1562.0312,405.2905 1562.0312,407.125 C 1562.0312,409.93419 1562.968,411.99609 1564.4688,413.28125 C 1565.9695,414.56641 1567.9121,415.0625 1569.7812,415.0625 C 1571.2026,415.0625 1572.5095,414.62473 1573.5938,413.90625 C 1573.7402,413.97492 1573.901,414.00709 1574.0625,414 L 1580.9688,413.96875 L 1581.9375,413.96875 L 1581.9688,413 C 1581.9688,413 1582,410.97372 1582,409.84375 C 1582,406.87879 1581.3248,403.98055 1579.7188,401.75 C 1578.1127,399.51945 1575.5153,398.03125 1572.0625,398.03125 z M 1572.0625,400.03125 C 1574.9724,400.03125 1576.8219,401.13981 1578.0938,402.90625 C 1579.3656,404.67269 1580,407.18392 1580,409.84375 C 1580,410.58271 1579.9794,411.29059 1579.9688,411.96875 L 1575.375,412 C 1575.7557,411.25069 1576,410.41204 1576,409.46875 C 1576,408.04629 1575.5661,406.71493 1574.8125,405.71875 C 1574.0589,404.72257 1572.9389,404.03125 1571.6562,404.03125 C 1570.1746,404.03125 1568.8887,404.53092 1568.0625,405.40625 C 1567.2363,406.28158 1566.9201,407.5371 1567.2188,408.75 C 1567.4103,409.52743 1567.8999,410.15066 1568.5625,410.59375 C 1569.2251,411.03684 1570.2136,411.28647 1571.0938,410.8125 C 1571.7072,410.48205 1571.8954,410.06874 1572.0312,409.5 C 1572.0992,409.21563 1572.1431,408.84874 1571.9062,408.4375 C 1571.6694,408.02626 1571.1487,407.77521 1570.75,407.75 C 1570.4447,407.727 1570.1457,407.84513 1569.9385,408.07058 C 1569.7313,408.29603 1569.6388,408.60396 1569.6875,408.90625 C 1569.4488,408.73588 1569.1913,408.42349 1569.1562,408.28125 C 1569.0027,407.6576 1569.1522,407.18289 1569.5312,406.78125 C 1569.9103,406.37961 1570.6052,406.03125 1571.6562,406.03125 C 1572.2203,406.03125 1572.7593,406.33012 1573.2188,406.9375 C 1573.6782,407.54488 1574,408.45804 1574,409.46875 C 1574,410.67982 1573.5654,411.49374 1572.8438,412.09375 C 1572.1221,412.69376 1571.0413,413.0625 1569.7812,413.0625 C 1568.2557,413.0625 1566.8158,412.66719 1565.7812,411.78125 C 1564.7467,410.89531 1564.0312,409.50043 1564.0312,407.125 C 1564.0312,405.72632 1564.4806,403.9007 1565.6875,402.5 C 1566.8944,401.0993 1568.8327,400.03125 1572.0625,400.03125 z"
       id="path7859"
       style="fill:#bebebe;fill-opacity:1;stroke:none;stroke-width:2;stroke-linecap:round;stroke-linejoin:miter;marker:none;stroke-miterlimit:4;stroke-dasharray:none;stroke-dashoffset:0;stroke-opacity:1;visibility:visible;display:inline;overflow:visible;enable-background:new" />
  </g>
  <g
     transform="translate(-1560,-396.01471)"
     id="layer5" />
  <g
     transform="translate(-1560,-396.01471)"
     id="layer7" />
  <g
     transform="translate(-1560,-396.01471)"
     id="layer2" />
  <g
     transform="translate(-1560,-396.01471)"
     id="layer8" />
  <g
     transform="translate(-1560,-1348.3769)"
     id="layer1" />
  <g
     transform="translate(-1560,-396.01471)"
     id="layer11" />
  <g
     transform="translate(-1560,-396.01471)"
     id="layer4" />
  <g
     transform="translate(-1560,-396.01471)"
     id="layer12" />
  <g
     transform="translate(-1560,-396.01471)"
     id="layer9" />
  <g
     transform="translate(-1560,-396.01471)"
     id="layer10" />
  <g
     transform="translate(-1560,-396.01471)"
     id="layer6" />
</svg>
