<?xml version="1.0" encoding="UTF-8" standalone="no"?>
<!-- Created with Inkscape (http://www.inkscape.org/) -->
<svg
   xmlns:svg="http://www.w3.org/2000/svg"
   xmlns="http://www.w3.org/2000/svg"
   version="1.0"
   width="24"
   height="24"
   id="svg7384">
  <title
     id="title9167">Moblin Icon Theme</title>
  <defs
     id="defs7386" />
  <g
     transform="translate(-1610,-174.01471)"
     id="layer3">
    <rect
       width="24"
       height="24"
       x="-198.01471"
       y="1610"
       transform="matrix(0,-1,1,0,0,0)"
       id="rect15196"
       style="opacity:0;fill:#ffffff;fill-opacity:1;stroke:none;display:inline" />
    <path
       d="M 1622,174.6875 L 1621.2812,175.375 L 1618.6562,178 L 1615,178 L 1614,178 L 1614,179 L 1614,182.65625 L 1611.375,185.28125 L 1610.6875,186 L 1611.375,186.71875 L 1614,189.34375 L 1614,193 L 1614,194 L 1615,194 L 1618.6562,194 L 1621.2812,196.625 L 1622,197.3125 L 1622.7188,196.625 L 1625.3438,194 L 1629,194 L 1630,194 L 1630,193 L 1630,189.34375 L 1632.625,186.71875 L 1633.3125,186 L 1632.625,185.28125 L 1630,182.65625 L 1630,179 L 1630,178 L 1629,178 L 1625.3438,178 L 1622.7188,175.375 L 1622,174.6875 z M 1622,177.53125 L 1624.1875,179.71875 L 1624.5,180 L 1624.9062,180 L 1628,180 L 1628,183.09375 L 1628,183.5 L 1628.2812,183.8125 L 1630.4688,186 L 1628.2812,188.1875 L 1628,188.5 L 1628,188.90625 L 1628,192 L 1624.9062,192 L 1624.5,192 L 1624.1875,192.28125 L 1622,194.46875 L 1619.8125,192.28125 L 1619.5,192 L 1619.0938,192 L 1616,192 L 1616,188.90625 L 1616,188.5 L 1615.7188,188.1875 L 1613.5312,186 L 1615.7188,183.8125 L 1616,183.5 L 1616,183.09375 L 1616,180 L 1619.0938,180 L 1619.5,180 L 1619.8125,179.71875 L 1622,177.53125 z"
       id="path15198"
       style="fill:#a0da00;fill-opacity:1;stroke:none;stroke-width:2;stroke-linecap:butt;stroke-linejoin:miter;marker:none;stroke-miterlimit:4;stroke-dasharray:none;stroke-dashoffset:0;stroke-opacity:1;visibility:visible;display:inline;overflow:visible;enable-background:accumulate" />
    <path
       d="M 1618.7812,186 C 1618.4081,186.06769 1618.1054,186.34057 1617.9994,186.70468 C 1617.8935,187.06879 1618.0026,187.46148 1618.2812,187.71875 L 1621.2812,190.71875 L 1622,191.4375 L 1622.7188,190.71875 L 1625.7188,187.71875 C 1626.1158,187.32177 1626.1157,186.67815 1625.7188,186.2812 C 1625.3218,185.88425 1624.6782,185.88427 1624.2812,186.28125 L 1622,188.59375 L 1619.7188,186.28125 C 1619.4766,186.0305 1619.1214,185.92394 1618.7812,186 z"
       id="path15200"
       style="fill:#7dbe0c;fill-opacity:1;stroke:none;stroke-width:2;stroke-linecap:round;stroke-linejoin:miter;marker:none;stroke-miterlimit:4;stroke-dashoffset:0;stroke-opacity:1;visibility:visible;display:inline;overflow:visible;enable-background:accumulate" />
    <path
       d="M 1621.7812,181 C 1621.3156,181.1043 1620.9885,181.52299 1621,182 L 1621,189 C 1620.9949,189.36064 1621.1844,189.69608 1621.4959,189.87789 C 1621.8074,190.05969 1622.1926,190.05969 1622.5041,189.87789 C 1622.8156,189.69608 1623.0051,189.36064 1623,189 L 1623,182 C 1623.0074,181.69213 1622.8726,181.398 1622.6346,181.20267 C 1622.3965,181.00733 1622.0817,180.93257 1621.7812,181 L 1621.7812,181 z"
       id="path15202"
       style="fill:#7dbe0c;fill-opacity:1;stroke:none;stroke-width:2;stroke-linecap:round;stroke-linejoin:miter;marker:none;stroke-miterlimit:4;stroke-dasharray:none;stroke-dashoffset:0;stroke-opacity:1;visibility:visible;display:inline;overflow:visible;enable-background:accumulate" />
  </g>
  <g
     transform="translate(-1610,-174.01471)"
     id="layer5" />
  <g
     transform="translate(-1610,-174.01471)"
     id="layer7" />
  <g
     transform="translate(-1610,-174.01471)"
     id="layer2" />
  <g
     transform="translate(-1610,-174.01471)"
     id="layer8" />
  <g
     transform="translate(-1610,-1126.3769)"
     id="layer1" />
  <g
     transform="translate(-1610,-174.01471)"
     id="layer11" />
  <g
     transform="translate(-1610,-174.01471)"
     id="layer4" />
  <g
     transform="translate(-1610,-174.01471)"
     id="layer12" />
  <g
     transform="translate(-1610,-174.01471)"
     id="layer9" />
  <g
     transform="translate(-1610,-174.01471)"
     id="layer10" />
  <g
     transform="translate(-1610,-174.01471)"
     id="layer6" />
</svg>
