<?xml version="1.0" encoding="UTF-8" standalone="no"?>
<!-- Created with Inkscape (http://www.inkscape.org/) -->
<svg
   xmlns:svg="http://www.w3.org/2000/svg"
   xmlns="http://www.w3.org/2000/svg"
   version="1.0"
   width="24"
   height="24.000002"
   id="svg7384">
  <defs
     id="defs7386" />
  <g
     transform="translate(-1468,-340)"
     id="layer3">
    <rect
       width="24"
       height="24"
       x="-1492"
       y="340"
       transform="scale(-1,1)"
       id="rect9485"
       style="opacity:0;fill:#ffffff;fill-opacity:1;stroke:none;display:inline" />
    <rect
       width="2"
       height="6"
       rx="1"
       ry="0.99999982"
       x="1478.001"
       y="343.99649"
       id="rect10270"
       style="fill:#bebebe;fill-opacity:1;stroke:none;display:inline" />
    <path
       d="M 1479.0114,362.00366 C 1485.0724,362.00366 1489.9988,357.07727 1489.9988,351.01622 C 1489.9988,344.95517 1485.0724,339.99154 1479.0114,339.99154 C 1472.9503,339.99154 1467.9867,344.95517 1467.9867,351.01622 C 1467.9867,357.07727 1472.9503,362.00366 1479.0114,362.00366 z M 1479.0114,359.9924 C 1474.0324,359.9924 1469.9979,355.99514 1469.9979,351.01622 C 1469.9979,346.0373 1474.0324,342.0028 1479.0114,342.0028 C 1483.9903,342.0028 1487.9875,346.0373 1487.9875,351.01622 C 1487.9875,355.99514 1483.9903,359.9924 1479.0114,359.9924 z"
       id="path9667"
       style="fill:#bebebe;fill-opacity:1;stroke:none;stroke-width:1.67805386;stroke-linecap:round;stroke-miterlimit:4;stroke-dasharray:none;stroke-opacity:1;display:inline" />
    <path
       d="M 1478.1863,356.93022 C 1479.7099,357.1385 1481.3228,356.77387 1482.6372,355.77559 C 1485.2661,353.77903 1485.7698,350.00548 1483.7732,347.37661 C 1483.5703,347.0577 1483.2051,346.88038 1482.829,346.91829 C 1482.453,346.9562 1482.1304,347.20286 1481.9953,347.55583 C 1481.8602,347.90881 1481.9356,348.30779 1482.1902,348.58711 C 1483.5323,350.35421 1483.1938,352.85056 1481.4267,354.19263 C 1479.6596,355.53471 1477.1632,355.17757 1475.8212,353.41047 C 1474.6986,351.93236 1474.6989,350.06548 1475.8212,348.58711 C 1476.1554,348.14484 1476.0679,347.51534 1475.6256,347.18107 C 1475.1834,346.8468 1474.5539,346.93434 1474.2196,347.37661 C 1472.5821,349.53377 1472.5816,352.4642 1474.2196,354.62096 C 1475.2179,355.9354 1476.6627,356.72194 1478.1863,356.93022 z"
       id="path10982"
       style="fill:#bebebe;fill-opacity:1;stroke:none;stroke-width:3.35606313;stroke-linecap:round;stroke-miterlimit:4;stroke-dasharray:none;stroke-opacity:1;display:inline" />
  </g>
  <g
     transform="translate(-1468,-340)"
     id="layer5" />
  <g
     transform="translate(-1468,-340)"
     id="layer7" />
  <g
     transform="translate(-1468,-340)"
     id="layer2" />
  <g
     transform="translate(-1468,-340)"
     id="layer8" />
  <g
     transform="translate(-1468,-1292.3622)"
     id="layer1" />
  <g
     transform="translate(-1468,-340)"
     id="layer4" />
  <g
     transform="translate(-1468,-340)"
     id="layer9" />
  <g
     transform="translate(-1468,-340)"
     id="layer6" />
</svg>
