<?xml version="1.0" encoding="UTF-8" standalone="no"?>
<!-- Created with Inkscape (http://www.inkscape.org/) -->
<svg
   xmlns:svg="http://www.w3.org/2000/svg"
   xmlns="http://www.w3.org/2000/svg"
   version="1.0"
   width="24"
   height="24"
   id="svg7384">
  <defs
     id="defs7386" />
  <g
     transform="translate(-1413,-174.99707)"
     id="layer3">
    <rect
       width="24"
       height="24"
       x="-1437"
       y="174.99707"
       transform="scale(-1,1)"
       id="rect11057-8"
       style="opacity:0;fill:#656565;fill-opacity:1;stroke:none;display:inline" />
    <path
       d="M 1429.553,181.48753 C 1429.063,181.53673 1428.6817,181.93539 1428.6544,182.42715 C 1428.627,182.91892 1428.9618,183.35736 1429.4434,183.46054 C 1431.5604,184.02778 1432.951,185.81773 1432.951,188.00942 C 1432.8858,188.40095 1433.0582,188.794 1433.3906,189.01106 C 1433.7229,189.22813 1434.1521,189.22813 1434.4844,189.01106 C 1434.8167,188.794 1434.9892,188.40095 1434.924,188.00942 C 1434.924,184.95729 1432.9396,182.33228 1429.9915,181.54234 C 1429.8512,181.49161 1429.7014,181.47288 1429.553,181.48753 L 1429.553,181.48753 z"
       id="path10391-5"
       style="fill:#bebebe;fill-opacity:1;stroke:none;stroke-width:1.14039135;stroke-linecap:round;stroke-miterlimit:4;stroke-dasharray:none;stroke-opacity:1;display:inline" />
    <path
       d="M 1421.3978,181.48753 C 1421.8878,181.53673 1422.2691,181.93539 1422.2964,182.42715 C 1422.3238,182.91892 1421.989,183.35736 1421.5074,183.46054 C 1419.3904,184.02778 1417.9998,185.81773 1417.9998,188.00942 C 1418.065,188.40095 1417.8926,188.794 1417.5602,189.01106 C 1417.2279,189.22813 1416.7987,189.22813 1416.4664,189.01106 C 1416.1341,188.794 1415.9616,188.40095 1416.0268,188.00942 C 1416.0268,184.95729 1418.0112,182.33228 1420.9593,181.54234 C 1421.0996,181.49161 1421.2494,181.47288 1421.3978,181.48753 L 1421.3978,181.48753 z"
       id="path10393-8"
       style="fill:#bebebe;fill-opacity:1;stroke:none;stroke-width:1.14039135;stroke-linecap:round;stroke-miterlimit:4;stroke-dasharray:none;stroke-opacity:1;display:inline" />
    <path
       d="M 1416.0156,191.57259 C 1416.0699,191.04375 1416.5286,190.64988 1417.0595,190.67599 C 1417.5905,190.70211 1418.0083,191.13908 1418.0105,191.6707 C 1418.0105,193.00711 1419.0942,194.05809 1420.4306,194.05809 C 1420.9905,194.05809 1421.4444,194.512 1421.4444,195.07192 C 1421.4444,195.63184 1420.9905,196.08574 1420.4306,196.08574 C 1418.0121,196.08574 1416.0156,194.08924 1416.0156,191.6707 C 1416.014,191.63802 1416.014,191.60527 1416.0156,191.57259 z"
       id="path10395-5"
       style="fill:#bebebe;fill-opacity:1;stroke:none;stroke-width:1.91107965;stroke-linecap:round;stroke-miterlimit:4;stroke-dasharray:none;stroke-opacity:1;display:inline" />
    <path
       d="M 1434.9474,191.54134 C 1434.8931,191.0125 1434.4344,190.61863 1433.9035,190.64474 C 1433.3725,190.67086 1432.9547,191.10783 1432.9525,191.63945 C 1432.9525,192.97586 1431.8688,194.02684 1430.5324,194.02684 C 1429.9725,194.02684 1429.5186,194.48075 1429.5186,195.04067 C 1429.5186,195.60059 1429.9725,196.05449 1430.5324,196.05449 C 1432.9509,196.05449 1434.9474,194.05799 1434.9474,191.63945 C 1434.949,191.60677 1434.949,191.57402 1434.9474,191.54134 z"
       id="path10397-9"
       style="fill:#bebebe;fill-opacity:1;stroke:none;stroke-width:1.91107965;stroke-linecap:round;stroke-miterlimit:4;stroke-dasharray:none;stroke-opacity:1;display:inline" />
    <path
       d="M 1422,176.9375 C 1421.6107,176.97537 1421.2793,177.23666 1421.1516,177.60632 C 1421.0238,177.97599 1421.1233,178.38617 1421.4062,178.65625 L 1423.375,180.65625 C 1423.7633,181.0532 1424.3999,181.0602 1424.7969,180.67187 C 1425.1938,180.28355 1425.2008,179.64695 1424.8125,179.25 L 1422.8125,177.25 C 1422.6036,177.02724 1422.3043,176.91215 1422,176.9375 z"
       id="path8363"
       style="fill:#bebebe;fill-opacity:1;stroke:none;stroke-width:1.99999988;stroke-linecap:round;stroke-linejoin:miter;marker:none;stroke-miterlimit:4;stroke-dasharray:none;stroke-dashoffset:0;stroke-opacity:1;visibility:visible;display:inline;overflow:visible;enable-background:accumulate" />
    <path
       d="M 1427.9688,176.9375 C 1427.7408,176.97018 1427.531,177.08056 1427.375,177.25 L 1425.4062,179.25 C 1425.1081,179.49031 1424.9734,179.87973 1425.0592,180.25288 C 1425.1451,180.62603 1425.4365,180.9174 1425.8096,181.00325 C 1426.1828,181.0891 1426.5722,180.95436 1426.8125,180.65625 L 1428.8125,178.65625 C 1429.1351,178.35577 1429.223,177.87946 1429.0287,177.48368 C 1428.8344,177.0879 1428.4039,176.86603 1427.9688,176.9375 z"
       id="path8386"
       style="fill:#bebebe;fill-opacity:1;stroke:none;stroke-width:1.99999988;stroke-linecap:round;stroke-linejoin:miter;marker:none;stroke-miterlimit:4;stroke-dasharray:none;stroke-dashoffset:0;stroke-opacity:1;visibility:visible;display:inline;overflow:visible;enable-background:accumulate" />
    <path
       d="M 1433.7188,187.03125 C 1433.2532,187.13551 1432.926,187.55421 1432.9375,188.03125 L 1432.9375,192.09375 C 1432.9324,192.45438 1433.1219,192.78983 1433.4334,192.97163 C 1433.7449,193.15344 1434.1301,193.15344 1434.4416,192.97163 C 1434.7531,192.78983 1434.9426,192.45438 1434.9375,192.09375 L 1434.9375,188.03125 C 1434.9449,187.7234 1434.8101,187.4293 1434.5721,187.23396 C 1434.334,187.03863 1434.0193,186.96385 1433.7188,187.03125 L 1433.7188,187.03125 z"
       id="path8388"
       style="fill:#bebebe;fill-opacity:1;stroke:none;stroke-width:1.99999988;stroke-linecap:round;stroke-linejoin:miter;marker:none;stroke-miterlimit:4;stroke-dasharray:none;stroke-dashoffset:0;stroke-opacity:1;visibility:visible;display:inline;overflow:visible;enable-background:accumulate" />
    <path
       d="M 1416.7812,187.03125 C 1416.3156,187.13555 1415.9885,187.55424 1416,188.03125 L 1416,192.09375 C 1415.9949,192.45438 1416.1844,192.78983 1416.4959,192.97163 C 1416.8074,193.15344 1417.1926,193.15344 1417.5041,192.97163 C 1417.8156,192.78983 1418.0051,192.45438 1418,192.09375 L 1418,188.03125 C 1418.0074,187.72338 1417.8726,187.42925 1417.6346,187.23392 C 1417.3965,187.03858 1417.0817,186.96382 1416.7812,187.03125 z"
       id="path8411"
       style="fill:#bebebe;fill-opacity:1;stroke:none;stroke-width:1.99999988;stroke-linecap:round;stroke-linejoin:miter;marker:none;stroke-miterlimit:4;stroke-dasharray:none;stroke-dashoffset:0;stroke-opacity:1;visibility:visible;display:inline;overflow:visible;enable-background:accumulate" />
    <path
       d="M 1420.25,194.0625 C 1419.6977,194.0884 1419.271,194.55712 1419.2969,195.1094 C 1419.3228,195.66168 1419.7915,196.0884 1420.3438,196.0625 L 1430.5312,196.0625 C 1430.8918,196.0676 1431.2273,195.87812 1431.4091,195.56663 C 1431.5909,195.25513 1431.5909,194.86987 1431.4091,194.55837 C 1431.2273,194.24688 1430.8918,194.0574 1430.5312,194.0625 L 1420.3438,194.0625 C 1420.3126,194.06103 1420.2812,194.06103 1420.25,194.0625 z"
       id="path8413"
       style="fill:#bebebe;fill-opacity:1;stroke:none;stroke-width:1.99999988;stroke-linecap:round;stroke-linejoin:miter;marker:none;stroke-miterlimit:4;stroke-dasharray:none;stroke-dashoffset:0;stroke-opacity:1;visibility:visible;display:inline;overflow:visible;enable-background:accumulate" />
  </g>
  <g
     transform="translate(-1413,-174.99707)"
     id="layer5" />
  <g
     transform="translate(-1413,-174.99707)"
     id="layer7" />
  <g
     transform="translate(-1413,-174.99707)"
     id="layer2" />
  <g
     transform="translate(-1413,-174.99707)"
     id="layer8" />
  <g
     transform="translate(-1413,-1127.3593)"
     id="layer1" />
  <g
     transform="translate(-1413,-174.99707)"
     id="layer4" />
  <g
     transform="translate(-1413,-174.99707)"
     id="layer9" />
  <g
     transform="translate(-1413,-174.99707)"
     id="layer6" />
</svg>
