<?xml version="1.0" encoding="UTF-8" standalone="no"?>
<!-- Created with Inkscape (http://www.inkscape.org/) -->
<svg
   xmlns:svg="http://www.w3.org/2000/svg"
   xmlns="http://www.w3.org/2000/svg"
   version="1.0"
   width="24"
   height="24"
   id="svg7384">
  <defs
     id="defs7386" />
  <g
     transform="translate(-1412,-174)"
     id="layer3">
    <rect
       width="24"
       height="24"
       x="-1436"
       y="174"
       transform="scale(-1,1)"
       id="rect11057-8"
       style="opacity:0;fill:#656565;fill-opacity:1;stroke:none;display:inline" />
    <path
       d="M 1428.2735,180.34778 C 1427.8207,180.38901 1427.4515,180.71819 1427.3701,181.15316 C 1427.2888,181.58814 1427.5152,182.02259 1427.9241,182.21613 C 1430.531,183.6793 1431.9426,186.08369 1431.9426,189.0101 C 1431.9426,189.57293 1432.4119,190.0292 1432.9909,190.0292 C 1433.5698,190.0292 1434.0392,189.57293 1434.0392,189.0101 C 1434.0392,185.43603 1432.1563,182.30466 1428.9724,180.51763 C 1428.7687,180.3798 1428.52,180.31937 1428.2735,180.34778 L 1428.2735,180.34778 z"
       id="path10391-5"
       style="fill:#bebebe;fill-opacity:1;stroke:none;stroke-width:0.72562301;stroke-linecap:round;stroke-miterlimit:4;stroke-dasharray:none;stroke-opacity:1;display:inline" />
    <path
       d="M 1414.0433,191.54781 C 1414.0976,191.01897 1414.5563,190.6251 1415.0872,190.65121 C 1415.6182,190.67733 1416.036,191.1143 1416.0382,191.64592 C 1416.0382,192.98233 1417.1219,194.03331 1418.4583,194.03331 C 1419.0182,194.03331 1419.4721,194.48722 1419.4721,195.04714 C 1419.4721,195.60706 1419.0182,196.06096 1418.4583,196.06096 C 1416.0398,196.06096 1414.0433,194.06446 1414.0433,191.64592 C 1414.0417,191.61324 1414.0417,191.58049 1414.0433,191.54781 z"
       id="path10395-5"
       style="fill:#bebebe;fill-opacity:1;stroke:none;stroke-width:1.91107965;stroke-linecap:round;stroke-miterlimit:4;stroke-dasharray:none;stroke-opacity:1;display:inline" />
    <path
       d="M 1434.0008,191.51656 C 1433.9465,190.98772 1433.4878,190.59385 1432.9569,190.61996 C 1432.4259,190.64608 1432.0081,191.08305 1432.0059,191.61467 C 1432.0059,192.95108 1430.9222,194.00206 1429.5858,194.00206 C 1429.0259,194.00206 1428.572,194.45597 1428.572,195.01589 C 1428.572,195.57581 1429.0259,196.02971 1429.5858,196.02971 C 1432.0043,196.02971 1434.0008,194.03321 1434.0008,191.61467 C 1434.0024,191.58199 1434.0024,191.54924 1434.0008,191.51656 z"
       id="path10397-9"
       style="fill:#bebebe;fill-opacity:1;stroke:none;stroke-width:1.91107965;stroke-linecap:round;stroke-miterlimit:4;stroke-dasharray:none;stroke-opacity:1;display:inline" />
    <path
       d="M 1420.9062,176 C 1420.517,176.0379 1420.1855,176.29921 1420.0578,176.66886 C 1419.9301,177.03852 1420.0296,177.44869 1420.3125,177.71875 L 1422.3125,179.71875 C 1422.7095,180.10709 1423.3461,180.1001 1423.7344,179.70315 C 1424.1227,179.3062 1424.1158,178.66959 1423.7188,178.28125 L 1421.7188,176.3125 C 1421.5099,176.08971 1421.2106,175.97462 1420.9062,176 L 1420.9062,176 z"
       id="path8363"
       style="fill:#bebebe;fill-opacity:1;stroke:none;stroke-width:1.99999988;stroke-linecap:round;stroke-linejoin:miter;marker:none;stroke-miterlimit:4;stroke-dasharray:none;stroke-dashoffset:0;stroke-opacity:1;visibility:visible;display:inline;overflow:visible;enable-background:accumulate" />
    <path
       d="M 1426.875,176 C 1426.647,176.03268 1426.4372,176.14306 1426.2812,176.3125 L 1424.3125,178.28125 C 1423.9155,178.66959 1423.9086,179.3062 1424.2969,179.70315 C 1424.6852,180.1001 1425.3218,180.10709 1425.7188,179.71875 L 1427.7188,177.71875 C 1428.0415,177.41826 1428.1293,176.94191 1427.935,176.54611 C 1427.7407,176.15032 1427.3101,175.92847 1426.875,176 L 1426.875,176 z"
       id="path8386"
       style="fill:#bebebe;fill-opacity:1;stroke:none;stroke-width:1.99999988;stroke-linecap:round;stroke-linejoin:miter;marker:none;stroke-miterlimit:4;stroke-dasharray:none;stroke-dashoffset:0;stroke-opacity:1;visibility:visible;display:inline;overflow:visible;enable-background:accumulate" />
    <path
       d="M 1432.7812,187 C 1432.3156,187.1043 1431.9885,187.52299 1432,188 L 1432,191.84375 C 1431.9949,192.20438 1432.1844,192.53983 1432.4959,192.72163 C 1432.8074,192.90344 1433.1926,192.90344 1433.5041,192.72163 C 1433.8156,192.53983 1434.0051,192.20438 1434,191.84375 L 1434,188 C 1434.0074,187.69213 1433.8726,187.398 1433.6346,187.20267 C 1433.3965,187.00733 1433.0817,186.93257 1432.7812,187 z"
       id="path8388"
       style="fill:#bebebe;fill-opacity:1;stroke:none;stroke-width:1.99999976;stroke-linecap:round;stroke-linejoin:miter;marker:none;stroke-miterlimit:4;stroke-dasharray:none;stroke-dashoffset:0;stroke-opacity:1;visibility:visible;display:inline;overflow:visible;enable-background:accumulate" />
    <path
       d="M 1417.9062,194 C 1417.3539,194.0259 1416.9272,194.49462 1416.9531,195.0469 C 1416.979,195.59918 1417.4477,196.0259 1418,196 L 1430,196 C 1430.3606,196.0051 1430.6961,195.81562 1430.8779,195.50413 C 1431.0597,195.19263 1431.0597,194.80737 1430.8779,194.49587 C 1430.6961,194.18438 1430.3606,193.9949 1430,194 L 1418,194 C 1417.9688,193.99853 1417.9374,193.99853 1417.9062,194 z"
       id="path8413"
       style="fill:#bebebe;fill-opacity:1;stroke:none;stroke-width:1.99999988;stroke-linecap:round;stroke-linejoin:miter;marker:none;stroke-miterlimit:4;stroke-dasharray:none;stroke-dashoffset:0;stroke-opacity:1;visibility:visible;display:inline;overflow:visible;enable-background:accumulate" />
    <path
       d="M 1419.7373,180.34778 C 1420.1901,180.38901 1420.5593,180.71819 1420.6406,181.15316 C 1420.722,181.58814 1420.4956,182.02259 1420.0867,182.21613 C 1417.4797,183.6793 1416.0682,186.08369 1416.0682,189.0101 C 1416.0682,189.57293 1415.5989,190.0292 1415.0199,190.0292 C 1414.441,190.0292 1413.9716,189.57293 1413.9716,189.0101 C 1413.9716,185.43603 1415.8544,182.30466 1419.0384,180.51763 C 1419.2421,180.3798 1419.4908,180.31937 1419.7373,180.34778 L 1419.7373,180.34778 z"
       id="path7532"
       style="fill:#bebebe;fill-opacity:1;stroke:none;stroke-width:0.72562301;stroke-linecap:round;stroke-miterlimit:4;stroke-dasharray:none;stroke-opacity:1;display:inline" />
    <path
       d="M 1414.8125,187 C 1414.3344,187.09122 1413.9914,187.51337 1414,188 L 1414,191.84375 C 1413.9949,192.20438 1414.1844,192.53983 1414.4959,192.72163 C 1414.8074,192.90344 1415.1926,192.90344 1415.5041,192.72163 C 1415.8156,192.53983 1416.0051,192.20438 1416,191.84375 L 1416,188 C 1416.0053,187.69886 1415.8746,187.41137 1415.6443,187.21737 C 1415.4139,187.02337 1415.1083,186.94352 1414.8125,187 z"
       id="path7534"
       style="fill:#bebebe;fill-opacity:1;stroke:none;stroke-width:1.99999976;stroke-linecap:round;stroke-linejoin:miter;marker:none;stroke-miterlimit:4;stroke-dasharray:none;stroke-dashoffset:0;stroke-opacity:1;visibility:visible;display:inline;overflow:visible;enable-background:accumulate" />
  </g>
  <g
     transform="translate(-1412,-174)"
     id="layer5" />
  <g
     transform="translate(-1412,-174)"
     id="layer7" />
  <g
     transform="translate(-1412,-174)"
     id="layer2" />
  <g
     transform="translate(-1412,-174)"
     id="layer8" />
  <g
     transform="translate(-1412,-1126.3622)"
     id="layer1" />
  <g
     transform="translate(-1412,-174)"
     id="layer4" />
  <g
     transform="translate(-1412,-174)"
     id="layer9" />
  <g
     transform="translate(-1412,-174)"
     id="layer6" />
</svg>
