<?xml version="1.0" encoding="UTF-8" standalone="no"?>
<!-- Created with Inkscape (http://www.inkscape.org/) -->
<svg
   xmlns:svg="http://www.w3.org/2000/svg"
   xmlns="http://www.w3.org/2000/svg"
   version="1.0"
   width="24"
   height="24.014709"
   id="svg7384">
  <title
     id="title9167">Moblin Icon Theme</title>
  <defs
     id="defs7386" />
  <g
     transform="translate(-1554,-204)"
     id="layer3">
    <rect
       width="24"
       height="24"
       x="-228.01471"
       y="1554"
       transform="matrix(0,-1,1,0,0,0)"
       id="rect15561"
       style="opacity:0;fill:#ffffff;fill-opacity:1;stroke:none;display:inline" />
    <path
       d="M 1564.9995,219.99893 C 1562.2504,219.99893 1560.0008,217.74929 1560.0008,215.00023 C 1560.0008,212.25116 1562.2504,210.00153 1564.9995,210.00153 C 1567.7485,210.00153 1569.9982,212.25116 1569.9982,215.00023 C 1569.9982,217.74929 1567.7485,219.99893 1564.9995,219.99893 z M 1564.9995,217.99727 C 1566.6664,217.99727 1568.0019,216.66716 1568.0019,215.00023 C 1568.0019,213.33329 1566.6664,211.99774 1564.9995,211.99774 C 1563.3325,211.99774 1562.0024,213.33329 1562.0024,215.00023 C 1562.0024,216.66716 1563.3325,217.99727 1564.9995,217.99727 z"
       id="path2876-6-6-4"
       style="fill:#fde900;fill-opacity:1;stroke:none;stroke-width:11.49051189;stroke-linecap:round;stroke-miterlimit:4;stroke-dasharray:none;stroke-dashoffset:0;stroke-opacity:1;display:inline" />
    <path
       d="M 1564.7812,204 C 1564.3156,204.1043 1563.9885,204.52299 1564,205 L 1564,207 C 1563.9949,207.36064 1564.1844,207.69608 1564.4959,207.87789 C 1564.8074,208.05969 1565.1926,208.05969 1565.5041,207.87789 C 1565.8156,207.69608 1566.0051,207.36064 1566,207 L 1566,205 C 1566.0074,204.69213 1565.8726,204.398 1565.6346,204.20267 C 1565.3965,204.00733 1565.0817,203.93257 1564.7812,204 L 1564.7812,204 z"
       id="path15670"
       style="fill:#febf00;fill-opacity:1;stroke:none;stroke-width:2;stroke-linecap:round;stroke-linejoin:miter;marker:none;stroke-miterlimit:4;stroke-dasharray:none;stroke-dashoffset:0;stroke-opacity:1;visibility:visible;display:inline;overflow:visible;enable-background:accumulate" />
    <path
       d="M 1564.7812,222 C 1564.3156,222.1043 1563.9885,222.52299 1564,223 L 1564,225 C 1563.9949,225.36064 1564.1844,225.69608 1564.4959,225.87789 C 1564.8074,226.05969 1565.1926,226.05969 1565.5041,225.87789 C 1565.8156,225.69608 1566.0051,225.36064 1566,225 L 1566,223 C 1566.0074,222.69213 1565.8726,222.398 1565.6346,222.20267 C 1565.3965,222.00733 1565.0817,221.93257 1564.7812,222 L 1564.7812,222 z"
       id="path15693"
       style="fill:#febf00;fill-opacity:1;stroke:none;stroke-width:2;stroke-linecap:round;stroke-linejoin:miter;marker:none;stroke-miterlimit:4;stroke-dasharray:none;stroke-dashoffset:0;stroke-opacity:1;visibility:visible;display:inline;overflow:visible;enable-background:accumulate" />
    <path
       d="M 1572.9062,214 C 1572.3539,214.0259 1571.9272,214.49462 1571.9531,215.0469 C 1571.979,215.59918 1572.4477,216.0259 1573,216 L 1575,216 C 1575.3606,216.0051 1575.6961,215.81562 1575.8779,215.50413 C 1576.0597,215.19263 1576.0597,214.80737 1575.8779,214.49587 C 1575.6961,214.18438 1575.3606,213.9949 1575,214 L 1573,214 C 1572.9688,213.99853 1572.9374,213.99853 1572.9062,214 L 1572.9062,214 z"
       id="path15695"
       style="fill:#febf00;fill-opacity:1;stroke:none;stroke-width:2;stroke-linecap:round;stroke-linejoin:miter;marker:none;stroke-miterlimit:4;stroke-dasharray:none;stroke-dashoffset:0;stroke-opacity:1;visibility:visible;display:inline;overflow:visible;enable-background:accumulate" />
    <path
       d="M 1554.9062,214 C 1554.3539,214.0259 1553.9272,214.49462 1553.9531,215.0469 C 1553.979,215.59918 1554.4477,216.0259 1555,216 L 1557,216 C 1557.3606,216.0051 1557.6961,215.81562 1557.8779,215.50413 C 1558.0597,215.19263 1558.0597,214.80737 1557.8779,214.49587 C 1557.6961,214.18438 1557.3606,213.9949 1557,214 L 1555,214 C 1554.9688,213.99853 1554.9374,213.99853 1554.9062,214 L 1554.9062,214 z"
       id="path15698"
       style="fill:#febf00;fill-opacity:1;stroke:none;stroke-width:2;stroke-linecap:round;stroke-linejoin:miter;marker:none;stroke-miterlimit:4;stroke-dasharray:none;stroke-dashoffset:0;stroke-opacity:1;visibility:visible;display:inline;overflow:visible;enable-background:accumulate" />
    <path
       d="M 1572.0625,206.90625 C 1571.8013,206.91657 1571.5545,207.02874 1571.375,207.21875 L 1569.9375,208.625 C 1569.5405,209.02195 1569.5405,209.66555 1569.9375,210.0625 C 1570.3345,210.45945 1570.978,210.45945 1571.375,210.0625 L 1572.7812,208.625 C 1573.0772,208.33871 1573.1675,207.90021 1573.0087,207.52025 C 1572.8498,207.1403 1572.4742,206.89659 1572.0625,206.90625 z"
       id="path15716"
       style="fill:#febf00;fill-opacity:1;stroke:none;stroke-width:2;stroke-linecap:round;stroke-linejoin:miter;marker:none;stroke-miterlimit:4;stroke-dasharray:none;stroke-dashoffset:0;stroke-opacity:1;visibility:visible;display:inline;overflow:visible;enable-background:accumulate" />
    <path
       d="M 1559.2188,219.65625 C 1558.9948,219.68045 1558.7856,219.77955 1558.625,219.9375 L 1557.2188,221.375 C 1556.9206,221.61525 1556.7857,222.00473 1556.8715,222.37797 C 1556.9573,222.7512 1557.2488,223.04265 1557.622,223.12849 C 1557.9953,223.21433 1558.3847,223.07949 1558.625,222.78125 L 1560.0625,221.375 C 1560.3851,221.07452 1560.473,220.59821 1560.2787,220.20243 C 1560.0844,219.80665 1559.6539,219.58478 1559.2188,219.65625 z"
       id="path15718"
       style="fill:#febf00;fill-opacity:1;stroke:none;stroke-width:2;stroke-linecap:round;stroke-linejoin:miter;marker:none;stroke-miterlimit:4;stroke-dasharray:none;stroke-dashoffset:0;stroke-opacity:1;visibility:visible;display:inline;overflow:visible;enable-background:accumulate" />
    <path
       d="M 1570.4375,219.65625 C 1570.0644,219.72394 1569.7617,219.99682 1569.6557,220.36093 C 1569.5498,220.72504 1569.6589,221.11773 1569.9375,221.375 L 1571.375,222.78125 C 1571.6153,223.07949 1572.0047,223.21433 1572.378,223.12849 C 1572.7512,223.04265 1573.0427,222.7512 1573.1285,222.37797 C 1573.2143,222.00473 1573.0794,221.61525 1572.7812,221.375 L 1571.375,219.9375 C 1571.1329,219.68679 1570.7777,219.58023 1570.4375,219.65625 z"
       id="path15720"
       style="fill:#febf00;fill-opacity:1;stroke:none;stroke-width:2;stroke-linecap:round;stroke-linejoin:miter;marker:none;stroke-miterlimit:4;stroke-dasharray:none;stroke-dashoffset:0;stroke-opacity:1;visibility:visible;display:inline;overflow:visible;enable-background:accumulate" />
    <path
       d="M 1557.9062,206.90625 C 1557.5002,206.90953 1557.1365,207.15795 1556.9857,207.53494 C 1556.8349,207.91192 1556.927,208.34265 1557.2188,208.625 L 1558.625,210.0625 C 1559.022,210.45945 1559.6655,210.45945 1560.0625,210.0625 C 1560.4595,209.66555 1560.4595,209.02195 1560.0625,208.625 L 1558.625,207.21875 C 1558.4379,207.02112 1558.1783,206.90828 1557.9062,206.90625 z"
       id="path15722"
       style="fill:#febf00;fill-opacity:1;stroke:none;stroke-width:2;stroke-linecap:round;stroke-linejoin:miter;marker:none;stroke-miterlimit:4;stroke-dasharray:none;stroke-dashoffset:0;stroke-opacity:1;visibility:visible;display:inline;overflow:visible;enable-background:accumulate" />
  </g>
  <g
     transform="translate(-1554,-204)"
     id="layer5" />
  <g
     transform="translate(-1554,-204)"
     id="layer7" />
  <g
     transform="translate(-1554,-204)"
     id="layer2" />
  <g
     transform="translate(-1554,-204)"
     id="layer8" />
  <g
     transform="translate(-1554,-1156.3622)"
     id="layer1" />
  <g
     transform="translate(-1554,-204)"
     id="layer11" />
  <g
     transform="translate(-1554,-204)"
     id="layer4" />
  <g
     transform="translate(-1554,-204)"
     id="layer12" />
  <g
     transform="translate(-1554,-204)"
     id="layer9" />
  <g
     transform="translate(-1554,-204)"
     id="layer10" />
  <g
     transform="translate(-1554,-204)"
     id="layer6" />
</svg>
