<?xml version="1.0" encoding="UTF-8" standalone="no"?>
<!-- Created with Inkscape (http://www.inkscape.org/) -->
<svg
   xmlns:svg="http://www.w3.org/2000/svg"
   xmlns="http://www.w3.org/2000/svg"
   version="1.0"
   width="24"
   height="24"
   id="svg7384">
  <title
     id="title9167">Moblin Icon Theme</title>
  <defs
     id="defs7386" />
  <g
     transform="translate(-1582,-204.01471)"
     id="layer3">
    <rect
       width="24"
       height="24"
       x="-228.01471"
       y="1582"
       transform="matrix(0,-1,1,0,0,0)"
       id="rect16078"
       style="opacity:0;fill:#ffffff;fill-opacity:1;stroke:none;display:inline" />
    <path
       d="M 1587.6867,217.16526 C 1587.3917,217.15621 1587.1158,217.01771 1586.9326,216.78677 C 1586.8731,216.71367 1586.819,216.64006 1586.7645,216.56311 C 1585.4434,214.69517 1585.8928,212.07968 1587.7642,210.76099 C 1589.6356,209.4423 1592.2559,209.89519 1593.577,211.76314 C 1593.8959,212.21446 1593.7878,212.83837 1593.3357,213.15668 C 1592.8835,213.47498 1592.2585,213.36714 1591.9396,212.91582 C 1591.2431,211.93109 1589.9056,211.70021 1588.919,212.39539 C 1587.9325,213.09056 1587.7012,214.4257 1588.3976,215.41043 C 1588.43,215.45624 1588.4527,215.48302 1588.4881,215.52656 C 1588.7408,215.82889 1588.792,216.25115 1588.619,216.60495 C 1588.446,216.95876 1588.0809,217.17815 1587.6867,217.16526 L 1587.6867,217.16526 z"
       id="path16081"
       style="fill:#fde900;fill-opacity:1;stroke:none;stroke-width:14.51800919;stroke-linecap:round;stroke-miterlimit:4;stroke-dasharray:none;stroke-dashoffset:0;stroke-opacity:1;display:inline" />
    <path
       d="M 1589.7812,206 C 1589.3156,206.1043 1588.9885,206.52299 1589,207 L 1589,207.75 C 1588.9949,208.11063 1589.1844,208.44608 1589.4959,208.62788 C 1589.8074,208.80969 1590.1926,208.80969 1590.5041,208.62788 C 1590.8156,208.44608 1591.0051,208.11063 1591,207.75 L 1591,207 C 1591.0074,206.69213 1590.8726,206.398 1590.6346,206.20267 C 1590.3965,206.00733 1590.0817,205.93257 1589.7812,206 z"
       id="path16083"
       style="fill:#febf00;fill-opacity:1;stroke:none;stroke-width:1.99999988;stroke-linecap:round;stroke-linejoin:miter;marker:none;stroke-miterlimit:4;stroke-dasharray:none;stroke-dashoffset:0;stroke-opacity:1;visibility:visible;display:inline;overflow:visible;enable-background:accumulate" />
    <path
       d="M 1582.9062,213.0625 C 1582.3539,213.0884 1581.9272,213.55712 1581.9531,214.1094 C 1581.979,214.66168 1582.4477,215.0884 1583,215.0625 L 1583.75,215.0625 C 1584.1106,215.0676 1584.4461,214.87812 1584.6279,214.56663 C 1584.8097,214.25513 1584.8097,213.86987 1584.6279,213.55837 C 1584.4461,213.24688 1584.1106,213.0574 1583.75,213.0625 L 1583,213.0625 C 1582.9688,213.06103 1582.9374,213.06103 1582.9062,213.0625 z"
       id="path16089"
       style="fill:#febf00;fill-opacity:1;stroke:none;stroke-width:1.99999988;stroke-linecap:round;stroke-linejoin:miter;marker:none;stroke-miterlimit:4;stroke-dasharray:none;stroke-dashoffset:0;stroke-opacity:1;visibility:visible;display:inline;overflow:visible;enable-background:accumulate" />
    <path
       d="M 1594.8438,208 C 1594.6457,208.0283 1594.4606,208.11538 1594.3125,208.25 L 1593.625,208.875 C 1593.2108,209.2547 1593.1828,209.89829 1593.5625,210.3125 C 1593.9422,210.72671 1594.5858,210.7547 1595,210.375 L 1595.6875,209.75 C 1596.043,209.45695 1596.1523,208.95899 1595.9522,208.54401 C 1595.7521,208.12904 1595.2945,207.90441 1594.8438,208 z"
       id="path16091"
       style="fill:#febf00;fill-opacity:1;stroke:none;stroke-width:1.99999988;stroke-linecap:round;stroke-linejoin:miter;marker:none;stroke-miterlimit:4;stroke-dasharray:none;stroke-dashoffset:0;stroke-opacity:1;visibility:visible;display:inline;overflow:visible;enable-background:accumulate" />
    <path
       d="M 1585.5,217.375 C 1585.276,217.3992 1585.0668,217.4983 1584.9062,217.65625 L 1584.2812,218.28125 C 1583.8842,218.67823 1583.8843,219.32185 1584.2812,219.7188 C 1584.6782,220.11575 1585.3218,220.11573 1585.7188,219.71875 L 1586.3438,219.09375 C 1586.6665,218.79326 1586.7543,218.31691 1586.56,217.92111 C 1586.3657,217.52532 1585.9351,217.30347 1585.5,217.375 z"
       id="path16093"
       style="fill:#febf00;fill-opacity:1;stroke:none;stroke-width:1.99999988;stroke-linecap:round;stroke-linejoin:miter;marker:none;stroke-miterlimit:4;stroke-dasharray:none;stroke-dashoffset:0;stroke-opacity:1;visibility:visible;display:inline;overflow:visible;enable-background:accumulate" />
    <path
       d="M 1584.7812,208 C 1584.4081,208.06769 1584.1054,208.34057 1583.9994,208.70468 C 1583.8935,209.06879 1584.0026,209.46148 1584.2812,209.71875 L 1584.9062,210.34375 C 1585.3032,210.74073 1585.9468,210.74075 1586.3438,210.3438 C 1586.7407,209.94685 1586.7408,209.30323 1586.3438,208.90625 L 1585.7188,208.28125 C 1585.4766,208.0305 1585.1214,207.92394 1584.7812,208 L 1584.7812,208 z"
       id="path16097"
       style="fill:#febf00;fill-opacity:1;stroke:none;stroke-width:1.99999988;stroke-linecap:round;stroke-linejoin:miter;marker:none;stroke-miterlimit:4;stroke-dasharray:none;stroke-dashoffset:0;stroke-opacity:1;visibility:visible;display:inline;overflow:visible;enable-background:accumulate" />
    <path
       d="M 1601.6203,221.33511 C 1601.1949,221.34588 1600.8093,221.08627 1600.6592,220.68807 C 1600.5091,220.28986 1600.6274,219.84029 1600.9541,219.56758 C 1601.2412,219.32047 1601.2715,218.91428 1601.0244,218.62716 C 1600.7773,218.34005 1600.3711,218.3098 1600.0839,218.55692 C 1599.9827,218.64406 1599.9606,218.67238 1599.9072,218.79485 C 1599.772,219.13349 1599.4633,219.37173 1599.1015,219.41662 C 1598.7396,219.4615 1598.382,219.30591 1598.1682,219.01056 C 1597.9544,218.71522 1597.9183,218.32692 1598.0739,217.9972 C 1598.2308,217.63731 1598.4834,217.297 1598.781,217.04092 C 1599.8883,216.0879 1601.5873,216.21462 1602.5404,217.32191 C 1603.4934,218.42921 1603.3667,220.13056 1602.2594,221.08358 C 1602.0827,221.24022 1601.8564,221.32932 1601.6203,221.33511 z"
       id="path2805-4"
       style="fill:#bebebe;fill-opacity:1;stroke:none;stroke-width:27.58085823;stroke-linecap:round;stroke-miterlimit:4;stroke-dasharray:none;stroke-dashoffset:0;stroke-opacity:1;display:inline" />
    <path
       d="M 1593.1077,220.77516 C 1592.7769,220.76146 1592.4744,220.58498 1592.2997,220.30382 C 1591.7982,219.52317 1591.5802,218.60521 1591.6726,217.68199 C 1591.8966,215.44376 1593.9163,213.79245 1596.1546,214.01646 C 1598.3928,214.24048 1600.0441,216.26019 1599.8201,218.49842 C 1599.7655,219.0481 1599.2756,219.44943 1598.7259,219.39481 C 1598.1762,219.34019 1597.7749,218.8503 1597.8295,218.30062 C 1597.9458,217.13915 1597.1183,216.12329 1595.9568,216.00704 C 1594.7953,215.89079 1593.7794,216.7183 1593.6632,217.87978 C 1593.6103,218.40827 1593.696,218.77539 1593.983,219.22226 C 1594.1913,219.53558 1594.2062,219.9393 1594.0214,220.26706 C 1593.8367,220.59482 1593.4836,220.79116 1593.1077,220.77516 L 1593.1077,220.77516 z"
       id="path2818-0"
       style="fill:#bebebe;fill-opacity:1;stroke:none;stroke-width:14.85122967;stroke-linecap:round;stroke-miterlimit:4;stroke-dasharray:none;stroke-dashoffset:0;stroke-opacity:1;display:inline" />
    <path
       d="M 1590.9235,225.99089 C 1589.8437,225.99089 1588.8182,225.57039 1588.0491,224.81254 C 1586.4469,223.23373 1586.4282,220.62402 1588.007,219.02177 C 1589.5858,217.41952 1592.1956,217.40088 1593.7978,218.97969 C 1594.0607,219.2289 1594.1683,219.60081 1594.0791,219.9519 C 1593.9898,220.30299 1593.7177,220.57838 1593.3677,220.67179 C 1593.0177,220.76521 1592.6445,220.66205 1592.3922,220.40213 C 1591.5607,219.58284 1590.253,219.59593 1589.4337,220.42738 C 1588.6144,221.25883 1588.6233,222.57081 1589.4547,223.3901 C 1589.891,223.82004 1590.3109,223.9919 1590.9235,223.9919 C 1591.2888,223.9792 1591.632,224.16687 1591.8185,224.48135 C 1592.0049,224.79582 1592.0049,225.18697 1591.8185,225.50144 C 1591.632,225.81591 1591.2888,226.00359 1590.9235,225.99089 z"
       id="path2820-3"
       style="fill:#bebebe;fill-opacity:1;stroke:none;stroke-width:14.85122967;stroke-linecap:round;stroke-miterlimit:4;stroke-dasharray:none;stroke-dashoffset:0;stroke-opacity:1;display:inline" />
    <path
       d="M 1602.6039,225.994 C 1602.0515,225.994 1601.6036,225.54615 1601.6036,224.9937 C 1601.6036,224.44124 1602.0515,223.99339 1602.6039,223.99339 C 1603.377,223.99339 1603.9862,223.38738 1603.9862,222.61433 C 1603.9862,221.84128 1603.377,221.23203 1602.6039,221.23203 C 1602.4926,221.23203 1602.4379,221.2389 1602.3288,221.26117 C 1601.974,221.34541 1601.6014,221.22985 1601.3566,220.95957 C 1601.1117,220.6893 1601.0334,220.30718 1601.1522,219.96238 C 1601.271,219.61758 1601.568,219.36477 1601.9274,219.30264 C 1602.1482,219.25758 1602.3786,219.23466 1602.6039,219.23466 C 1604.4591,219.23466 1605.9836,220.75916 1605.9836,222.61433 C 1605.9836,224.4695 1604.4591,225.994 1602.6039,225.994 z"
       id="path2822-7"
       style="fill:#bebebe;fill-opacity:1;stroke:none;stroke-width:19.30659676;stroke-linecap:round;stroke-miterlimit:4;stroke-dasharray:none;stroke-dashoffset:0;stroke-opacity:1;display:inline" />
    <path
       d="M 1590.6562,224 C 1590.1039,224.0259 1589.6772,224.49462 1589.7031,225.0469 C 1589.729,225.59918 1590.1977,226.0259 1590.75,226 L 1602.6562,226 C 1603.0168,226.0051 1603.3523,225.81562 1603.5341,225.50413 C 1603.7159,225.19263 1603.7159,224.80737 1603.5341,224.49587 C 1603.3523,224.18438 1603.0168,223.9949 1602.6562,224 L 1590.75,224 C 1590.7188,223.99853 1590.6874,223.99853 1590.6562,224 z"
       id="path16154"
       style="fill:#bebebe;fill-opacity:1;stroke:none;stroke-width:1.99999988;stroke-linecap:round;stroke-linejoin:miter;marker:none;stroke-miterlimit:4;stroke-dasharray:none;stroke-dashoffset:0;stroke-opacity:1;visibility:visible;display:inline;overflow:visible;enable-background:accumulate" />
  </g>
  <g
     transform="translate(-1582,-204.01471)"
     id="layer5" />
  <g
     transform="translate(-1582,-204.01471)"
     id="layer7" />
  <g
     transform="translate(-1582,-204.01471)"
     id="layer2" />
  <g
     transform="translate(-1582,-204.01471)"
     id="layer8" />
  <g
     transform="translate(-1582,-1156.3769)"
     id="layer1" />
  <g
     transform="translate(-1582,-204.01471)"
     id="layer11" />
  <g
     transform="translate(-1582,-204.01471)"
     id="layer4" />
  <g
     transform="translate(-1582,-204.01471)"
     id="layer12" />
  <g
     transform="translate(-1582,-204.01471)"
     id="layer9" />
  <g
     transform="translate(-1582,-204.01471)"
     id="layer10" />
  <g
     transform="translate(-1582,-204.01471)"
     id="layer6" />
</svg>
