<?xml version="1.0" encoding="UTF-8" standalone="no"?>
<!-- Created with Inkscape (http://www.inkscape.org/) -->
<svg
   xmlns:svg="http://www.w3.org/2000/svg"
   xmlns="http://www.w3.org/2000/svg"
   version="1.0"
   width="24"
   height="24"
   id="svg7384">
  <title
     id="title9167">Moblin Icon Theme</title>
  <defs
     id="defs7386" />
  <g
     transform="translate(-1498,-366)"
     id="layer3">
    <rect
       width="24"
       height="24"
       x="-390"
       y="1498"
       transform="matrix(0,-1,1,0,0,0)"
       id="rect7847"
       style="opacity:0;fill:#ffffff;fill-opacity:1;stroke:none;display:inline" />
    <g
       transform="translate(1497.8878,365.99242)"
       id="g7850"
       style="fill:none;stroke:#bebebe;stroke-width:2;stroke-linecap:round;stroke-linejoin:round;marker:none;stroke-miterlimit:4;stroke-dasharray:none;stroke-dashoffset:0;stroke-opacity:1;visibility:visible;display:inline;overflow:visible;enable-background:accumulate">
      <path
         d="M -2.8284264,179.43886 A 22.98097,22.98097 0 1 1 -48.790367,179.43886 A 22.98097,22.98097 0 1 1 -2.8284264,179.43886 z"
         transform="matrix(8.702852e-2,0,0,-8.702852e-2,14.24984,33.613547)"
         id="path7852"
         style="fill:none;stroke:#bebebe;stroke-width:22.98097229;stroke-linecap:round;stroke-linejoin:round;marker:none;stroke-miterlimit:4;stroke-dasharray:none;stroke-dashoffset:0;stroke-opacity:1;visibility:visible;display:inline;overflow:visible;enable-background:accumulate" />
      <path
         d="M -9.5593967,195.68886 A 22.98097,22.98097 0 0 1 -42.059397,195.68886"
         transform="matrix(0.2610856,0,0,-0.2610856,18.760122,64.828175)"
         id="path7854"
         style="fill:none;stroke:#bebebe;stroke-width:7.66032267;stroke-linecap:round;stroke-linejoin:round;marker:none;stroke-miterlimit:4;stroke-dasharray:none;stroke-dashoffset:0;stroke-opacity:1;visibility:visible;display:inline;overflow:visible;enable-background:accumulate" />
      <path
         d="M -9.5593967,195.68886 A 22.98097,22.98097 0 0 1 -42.059397,195.68886"
         transform="matrix(0.4351426,0,0,-0.4351426,23.232078,96.081127)"
         id="path7856"
         style="fill:none;stroke:#bebebe;stroke-width:4.59619427;stroke-linecap:round;stroke-linejoin:round;marker:none;stroke-miterlimit:4;stroke-dasharray:none;stroke-dashoffset:0;stroke-opacity:1;visibility:visible;display:inline;overflow:visible;enable-background:accumulate" />
      <path
         d="M -9.5593967,195.68886 A 22.98097,22.98097 0 0 1 -42.059397,195.68886"
         transform="matrix(0.6091997,0,0,-0.6091997,27.734693,127.30342)"
         id="path7858"
         style="fill:none;stroke:#bebebe;stroke-width:3.2829957;stroke-linecap:round;stroke-linejoin:round;marker:none;stroke-miterlimit:4;stroke-dasharray:none;stroke-dashoffset:0;stroke-opacity:1;visibility:visible;display:inline;overflow:visible;enable-background:accumulate" />
    </g>
  </g>
  <g
     transform="translate(-1498,-366)"
     id="layer5" />
  <g
     transform="translate(-1498,-366)"
     id="layer7" />
  <g
     transform="translate(-1498,-366)"
     id="layer2" />
  <g
     transform="translate(-1498,-366)"
     id="layer8" />
  <g
     transform="translate(-1498,-1318.3622)"
     id="layer1" />
  <g
     transform="translate(-1498,-366)"
     id="layer11" />
  <g
     transform="translate(-1498,-366)"
     id="layer4" />
  <g
     transform="translate(-1498,-366)"
     id="layer12" />
  <g
     transform="translate(-1498,-366)"
     id="layer9" />
  <g
     transform="translate(-1498,-366)"
     id="layer10" />
  <g
     transform="translate(-1498,-366)"
     id="layer6" />
</svg>
