<?xml version="1.0" encoding="UTF-8" standalone="no"?>
<!-- Created with Inkscape (http://www.inkscape.org/) -->
<svg
   xmlns:svg="http://www.w3.org/2000/svg"
   xmlns="http://www.w3.org/2000/svg"
   version="1.0"
   width="24"
   height="24"
   id="svg7384">
  <defs
     id="defs7386" />
  <g
     transform="translate(-1498.001,-205.01474)"
     id="layer3" />
  <g
     transform="translate(-1498.001,-205.01474)"
     id="layer5" />
  <g
     transform="translate(-1498.001,-205.01474)"
     id="layer7" />
  <g
     transform="translate(-1498.001,-205.01474)"
     id="layer2" />
  <g
     transform="translate(-1498.001,-205.01474)"
     id="layer8" />
  <g
     transform="translate(-1498.001,-1157.3769)"
     id="layer1" />
  <g
     transform="translate(-1498.001,-205.01474)"
     id="layer4">
    <rect
       width="24"
       height="24"
       x="-229.01474"
       y="1498.001"
       transform="matrix(0,-1,1,0,0,0)"
       id="rect10176"
       style="opacity:0;fill:#ffffff;fill-opacity:1;stroke:none;display:inline" />
    <g
       transform="translate(1498.0707,204.99686)"
       id="use10186"
       style="display:inline">
      <path
         d="M -2.8284264,179.43886 A 22.98097,22.98097 0 1 1 -48.790367,179.43886 A 22.98097,22.98097 0 1 1 -2.8284264,179.43886 z"
         transform="matrix(8.702852e-2,0,0,-8.702852e-2,14.24984,33.613547)"
         id="path10757"
         style="fill:none;stroke:#31c2ee;stroke-width:22.9809742;stroke-linecap:round;stroke-miterlimit:4;stroke-dasharray:none;stroke-dashoffset:0;stroke-opacity:1;display:inline" />
      <path
         d="M -9.5593967,195.68886 A 22.98097,22.98097 0 0 1 -42.059397,195.68886"
         transform="matrix(0.2610856,0,0,-0.2610856,18.760122,64.828175)"
         id="path10759"
         style="fill:none;stroke:#31c2ee;stroke-width:7.66032362;stroke-linecap:round;stroke-miterlimit:4;stroke-dasharray:none;stroke-dashoffset:0;stroke-opacity:1;display:inline" />
    </g>
  </g>
  <g
     transform="translate(-1498.001,-205.01474)"
     id="layer9" />
  <g
     transform="translate(-1498.001,-205.01474)"
     id="layer6" />
</svg>
