<?xml version="1.0" encoding="UTF-8" standalone="no"?>
<!-- Created with Inkscape (http://www.inkscape.org/) -->
<svg
   xmlns:svg="http://www.w3.org/2000/svg"
   xmlns="http://www.w3.org/2000/svg"
   version="1.0"
   width="24"
   height="24"
   id="svg7384">
  <title
     id="title9167">Moblin Icon Theme</title>
  <defs
     id="defs7386" />
  <g
     transform="translate(-1526,-366)"
     id="layer3">
    <rect
       width="24"
       height="24"
       x="-390"
       y="1526"
       transform="matrix(0,-1,1,0,0,0)"
       id="rect7870"
       style="opacity:0;fill:#ffffff;fill-opacity:1;stroke:none;display:inline" />
    <g
       transform="translate(1525.8878,365.99242)"
       id="g7872"
       style="fill:none;stroke:#bebebe;stroke-width:2;stroke-linecap:round;stroke-linejoin:round;marker:none;stroke-miterlimit:4;stroke-dasharray:none;stroke-dashoffset:0;stroke-opacity:1;visibility:visible;display:inline;overflow:visible;enable-background:accumulate">
      <path
         d="M -2.8284264,179.43886 A 22.98097,22.98097 0 1 1 -48.790367,179.43886 A 22.98097,22.98097 0 1 1 -2.8284264,179.43886 z"
         transform="matrix(8.702852e-2,0,0,-8.702852e-2,14.24984,33.613547)"
         id="path7874"
         style="fill:none;stroke:#bebebe;stroke-width:22.98097229;stroke-linecap:round;stroke-linejoin:round;marker:none;stroke-miterlimit:4;stroke-dasharray:none;stroke-dashoffset:0;stroke-opacity:1;visibility:visible;display:inline;overflow:visible;enable-background:accumulate" />
    </g>
    <path
       d="M 1535.4022,377.97846 L 1540.992,372.41421 L 1541.002,371 C 1541.002,371 1539.5784,371 1539.5784,371 L 1533.9886,376.56424 C 1533.9886,376.56424 1533.9886,377.98771 1533.9886,377.98771 C 1533.9886,377.98771 1535.4028,377.97871 1535.4028,377.97871 L 1535.4032,377.97846 L 1535.4032,377.97846 L 1535.4022,377.97846 z"
       id="path2966-2-0"
       style="fill:#ed2124;fill-opacity:1;stroke:none;display:inline" />
    <path
       d="M 1539.5864,377.97846 L 1533.9966,372.41421 L 1533.9866,371 C 1533.9866,371 1535.4101,371 1535.4101,371 L 1541,376.56424 C 1541,376.56424 1541,377.98771 1541,377.98771 C 1541,377.98771 1539.5857,377.97871 1539.5857,377.97871 L 1539.5854,377.97846 L 1539.5854,377.97846 L 1539.5864,377.97846 z"
       id="path7711-5-9"
       style="fill:#ed2124;fill-opacity:1;stroke:none;display:inline" />
  </g>
  <g
     transform="translate(-1526,-366)"
     id="layer5" />
  <g
     transform="translate(-1526,-366)"
     id="layer7" />
  <g
     transform="translate(-1526,-366)"
     id="layer2" />
  <g
     transform="translate(-1526,-366)"
     id="layer8" />
  <g
     transform="translate(-1526,-1318.3622)"
     id="layer1" />
  <g
     transform="translate(-1526,-366)"
     id="layer11" />
  <g
     transform="translate(-1526,-366)"
     id="layer4" />
  <g
     transform="translate(-1526,-366)"
     id="layer12" />
  <g
     transform="translate(-1526,-366)"
     id="layer9" />
  <g
     transform="translate(-1526,-366)"
     id="layer10" />
  <g
     transform="translate(-1526,-366)"
     id="layer6" />
</svg>
