<?xml version="1.0" encoding="UTF-8" standalone="no"?>
<!-- Created with Inkscape (http://www.inkscape.org/) -->

<svg
   xmlns:dc="http://purl.org/dc/elements/1.1/"
   xmlns:cc="http://creativecommons.org/ns#"
   xmlns:rdf="http://www.w3.org/1999/02/22-rdf-syntax-ns#"
   xmlns:svg="http://www.w3.org/2000/svg"
   xmlns="http://www.w3.org/2000/svg"
   xmlns:sodipodi="http://sodipodi.sourceforge.net/DTD/sodipodi-0.dtd"
   xmlns:inkscape="http://www.inkscape.org/namespaces/inkscape"
   width="744.09448819"
   height="1052.3622047"
   id="svg7384"
   version="1.1"
   inkscape:version="0.46+devel"
   sodipodi:docname="moblin-icon-theme.svg"
   inkscape:output_extension="org.inkscape.output.svg.inkscape">
  <defs
     id="defs7386">
    <inkscape:perspective
       sodipodi:type="inkscape:persp3d"
       inkscape:vp_x="0 : 526.18109 : 1"
       inkscape:vp_y="0 : 1000 : 0"
       inkscape:vp_z="744.09448 : 526.18109 : 1"
       inkscape:persp3d-origin="372.04724 : 350.78739 : 1"
       id="perspective7392" />
    <inkscape:perspective
       id="perspective7167"
       inkscape:persp3d-origin="0.5 : 0.33333333 : 1"
       inkscape:vp_z="1 : 0.5 : 1"
       inkscape:vp_y="0 : 1000 : 0"
       inkscape:vp_x="0 : 0.5 : 1"
       sodipodi:type="inkscape:persp3d" />
  </defs>
  <sodipodi:namedview
     id="base"
     pagecolor="#ffffff"
     bordercolor="#666666"
     borderopacity="1.0"
     inkscape:pageopacity="0.0"
     inkscape:pageshadow="2"
     inkscape:zoom="1"
     inkscape:cx="380.48847"
     inkscape:cy="352.95292"
     inkscape:document-units="px"
     inkscape:current-layer="layer1"
     showgrid="false"
     showborder="false"
     inkscape:window-width="1222"
     inkscape:window-height="999"
     inkscape:window-x="1658"
     inkscape:window-y="45"
     inkscape:window-maximized="0">
    <inkscape:grid
       type="xygrid"
       id="grid7831"
       empspacing="5"
       visible="true"
       enabled="true"
       snapvisiblegridlinesonly="true" />
  </sodipodi:namedview>
  <metadata
     id="metadata7389">
    <rdf:RDF>
      <cc:Work
         rdf:about="">
        <dc:format>image/svg+xml</dc:format>
        <dc:type
           rdf:resource="http://purl.org/dc/dcmitype/StillImage" />
        <dc:title></dc:title>
      </cc:Work>
    </rdf:RDF>
  </metadata>
  <g
     inkscape:label="devices"
     inkscape:groupmode="layer"
     id="layer1">
    <g
       id="g7898"
       inkscape:label="radio">
      <rect
         y="367.36218"
         x="-158"
         height="24"
         width="24"
         id="rect4670-4"
         style="opacity:0;fill:#ffffff;fill-opacity:1;stroke:none;display:inline"
         transform="scale(-1,1)" />
      <rect
         style="fill:#bebebe;fill-opacity:1;stroke:none;display:inline"
         id="rect2843-84-7"
         width="2"
         height="14.994812"
         x="136"
         y="374.36737"
         rx="1"
         ry="1" />
      <rect
         transform="matrix(0,1,-1,0,0,0)"
         ry="1"
         rx="1"
         y="-156"
         x="374.36737"
         height="19.999998"
         width="2"
         id="rect2867-5-6"
         style="fill:#bebebe;fill-opacity:1;stroke:none;display:inline" />
      <rect
         style="fill:#bebebe;fill-opacity:1;stroke:none;display:inline"
         id="rect2869-5-1"
         width="2"
         height="19.484425"
         x="387.36218"
         y="-155.48444"
         rx="1"
         ry="1"
         transform="matrix(0,1,-1,0,0,0)" />
      <rect
         style="fill:#bebebe;fill-opacity:1;stroke:none;display:inline"
         id="rect2915-6"
         width="2"
         height="13.5"
         x="377.36737"
         y="-152.5"
         rx="1"
         ry="1"
         transform="matrix(0,1,-1,0,0,0)" />
      <rect
         style="fill:#bebebe;fill-opacity:1;stroke:none;display:inline"
         id="rect2919-0"
         width="2"
         height="14"
         x="381.36737"
         y="-153"
         rx="1"
         ry="1"
         transform="matrix(0,1,-1,0,0,0)" />
      <rect
         ry="1"
         rx="1"
         y="377.36737"
         x="139"
         height="6"
         width="2"
         id="rect2921-8"
         style="fill:#bebebe;fill-opacity:1;stroke:none;display:inline" />
      <rect
         style="fill:#bebebe;fill-opacity:1;stroke:none;display:inline"
         id="rect5725-4"
         width="2"
         height="6"
         x="151"
         y="377.36737"
         rx="1"
         ry="1" />
      <rect
         ry="1"
         rx="1"
         y="368.36737"
         x="154"
         height="20.994812"
         width="2"
         id="rect2851-04-2"
         style="fill:#bebebe;fill-opacity:1;stroke:none;display:inline" />
    </g>
    <g
       id="g7885"
       inkscape:label="tv">
      <rect
         y="367.36218"
         x="106"
         height="24"
         width="24"
         id="rect6439-0-6"
         style="opacity:0;fill:#ffffff;fill-opacity:1;stroke:none;display:inline" />
      <rect
         style="fill:#bebebe;fill-opacity:1;stroke:none;display:inline"
         id="rect2807-8-5"
         width="2"
         height="20.000002"
         x="-375.36218"
         y="108"
         rx="1"
         ry="1"
         transform="matrix(0,-1,1,0,0,0)" />
      <rect
         style="fill:#bebebe;fill-opacity:1;stroke:none;display:inline"
         id="rect2809-9-4"
         width="2"
         height="14"
         x="-378.36218"
         y="111"
         rx="0"
         ry="0"
         transform="matrix(0,-1,1,0,0,0)" />
      <rect
         transform="scale(-1,-1)"
         ry="0"
         rx="0"
         y="-387.36218"
         x="-113"
         height="11"
         width="2"
         id="rect2811-9-4"
         style="fill:#bebebe;fill-opacity:1;stroke:none;display:inline" />
      <rect
         style="fill:#bebebe;fill-opacity:1;stroke:none;display:inline"
         id="rect2813-1"
         width="2"
         height="11"
         x="-125"
         y="-387.36218"
         rx="0"
         ry="0"
         transform="scale(-1,-1)" />
      <rect
         transform="matrix(0,-1,1,0,0,0)"
         ry="0"
         rx="0"
         y="111"
         x="-387.36218"
         height="14"
         width="2"
         id="rect2815-3"
         style="fill:#bebebe;fill-opacity:1;stroke:none;display:inline" />
      <rect
         transform="scale(-1,-1)"
         ry="1"
         rx="1"
         y="-390.36218"
         x="-128"
         height="17"
         width="2"
         id="rect2817-1"
         style="fill:#bebebe;fill-opacity:1;stroke:none;display:inline" />
      <rect
         transform="matrix(0,-1,1,0,0,0)"
         ry="1"
         rx="1"
         y="108"
         x="-390.36218"
         height="20.000002"
         width="2"
         id="rect2819-1-1"
         style="fill:#bebebe;fill-opacity:1;stroke:none;display:inline" />
      <rect
         style="fill:#bebebe;fill-opacity:1;stroke:none;display:inline"
         id="rect2821-6-6"
         width="2"
         height="17"
         x="-110"
         y="-390.36218"
         rx="1"
         ry="1"
         transform="scale(-1,-1)" />
      <path
         sodipodi:nodetypes="cccsccc"
         id="rect10637"
         d="m 117.6986,374.06289 c 0.3918,-0.39174 0.3918,-1.02248 0,-1.41421 l -3.2857,-3.28446 c 0,0 -1.4142,0 -1.4142,0 0,0 0,1.41421 0,1.41421 l 3.2857,3.28446 c 0.3917,0.39174 1.0225,0.39174 1.4142,0 z"
         style="fill:#bebebe;fill-opacity:1;stroke:none;display:inline" />
      <path
         style="fill:#bebebe;fill-opacity:1;stroke:none;display:inline"
         d="m 117.3001,374.06289 c -0.3918,-0.39174 -0.3918,-1.02248 0,-1.41421 l 3.2857,-3.28446 c 0,0 1.4142,0 1.4142,0 0,0 0,1.41421 0,1.41421 l -3.2857,3.28446 c -0.3917,0.39174 -1.0225,0.39174 -1.4142,0 z"
         id="path13548"
         sodipodi:nodetypes="cccsccc" />
    </g>
    <g
       id="g7974"
       inkscape:label="audio-input-microphone">
      <rect
         style="fill:#bebebe;fill-opacity:1;stroke:none;display:inline"
         id="rect6352"
         width="2"
         height="9.0000181"
         x="27"
         y="399.36218"
         rx="1.5"
         ry="1.5" />
      <path
         sodipodi:open="true"
         sodipodi:end="3.1415927"
         sodipodi:start="0"
         transform="matrix(0.1740571,0,0,0.1740568,36.492308,376.12964)"
         d="m -2.8284264,179.43886 a 22.98097,22.98097 0 1 1 -45.9619406,0"
         sodipodi:ry="22.98097"
         sodipodi:rx="22.98097"
         sodipodi:cy="179.43886"
         sodipodi:cx="-25.809397"
         id="path6354"
         style="fill:none;stroke:#bebebe;stroke-width:11.49049091;stroke-linecap:round;stroke-miterlimit:4;stroke-opacity:1;stroke-dasharray:none;stroke-dashoffset:0;display:inline"
         sodipodi:type="arc" />
      <path
         sodipodi:open="true"
         sodipodi:end="3.1415927"
         sodipodi:start="0"
         transform="matrix(0.3045999,0,0,0.3045998,39.861538,352.70516)"
         d="m -2.8284264,179.43886 a 22.98097,22.98097 0 1 1 -45.9619406,0"
         sodipodi:ry="22.98097"
         sodipodi:rx="22.98097"
         sodipodi:cy="179.43886"
         sodipodi:cx="-25.809397"
         id="path6356"
         style="fill:none;stroke:#bebebe;stroke-width:6.56599188;stroke-linecap:round;stroke-miterlimit:4;stroke-opacity:1;stroke-dasharray:none;stroke-dashoffset:0;display:inline"
         sodipodi:type="arc" />
      <rect
         style="fill:#bebebe;fill-opacity:1;stroke:none;display:inline"
         id="rect6358"
         width="2"
         height="5.8050842"
         x="31"
         y="413.62531"
         rx="1.5000001"
         ry="1.5" />
      <rect
         transform="matrix(0,1,-1,0,0,0)"
         ry="1.0426602"
         rx="1.0426602"
         y="-36"
         x="417.36218"
         height="8"
         width="2.0853205"
         id="rect6360"
         style="fill:#bebebe;fill-opacity:1;stroke:none;display:inline" />
      <rect
         style="fill:#bebebe;fill-opacity:1;stroke:none;display:inline"
         id="rect6364"
         width="2"
         height="4"
         x="24"
         y="404.36218"
         rx="1"
         ry="1" />
      <rect
         y="395.36218"
         x="20"
         height="24"
         width="24"
         id="rect6366"
         style="opacity:0;fill:#ffffff;fill-opacity:1;stroke:none;display:inline" />
      <rect
         style="fill:#bebebe;fill-opacity:1;stroke:none;display:inline"
         id="rect7166"
         width="2"
         height="4"
         x="38"
         y="404.36218"
         rx="1"
         ry="1" />
      <path
         sodipodi:type="arc"
         style="fill:none;stroke:#bebebe;stroke-width:11.49049091;stroke-linecap:round;stroke-miterlimit:4;stroke-opacity:1;stroke-dasharray:none;stroke-dashoffset:0;display:inline"
         id="path7168"
         sodipodi:cx="-25.809397"
         sodipodi:cy="179.43886"
         sodipodi:rx="22.98097"
         sodipodi:ry="22.98097"
         d="m -2.8284264,179.43886 a 22.98097,22.98097 0 1 1 -45.9619406,0"
         transform="matrix(0.1740571,0,0,-0.1740568,36.492308,431.59475)"
         sodipodi:start="0"
         sodipodi:end="3.1415927"
         sodipodi:open="true" />
      <rect
         style="fill:#bebebe;fill-opacity:1;stroke:none;display:inline"
         id="rect7170"
         width="2"
         height="9.0000181"
         x="35"
         y="399.36218"
         rx="1.5"
         ry="1.5" />
    </g>
    <g
       id="g7924"
       inkscape:label="battery">
      <rect
         y="367.36218"
         x="-214.03075"
         height="24"
         width="24"
         id="rect5964"
         style="opacity:0;fill:#ffffff;fill-opacity:1;stroke:none;display:inline"
         transform="scale(-1,1)" />
      <rect
         style="fill:#bebebe;fill-opacity:1;stroke:none;display:inline"
         id="rect2872-9-9"
         width="2"
         height="17"
         x="212.03075"
         y="370.36218"
         rx="1"
         ry="0.99999994" />
      <rect
         ry="1"
         rx="1"
         y="370.36218"
         x="193"
         height="6.0000033"
         width="2"
         id="rect4322-5"
         style="fill:#bebebe;fill-opacity:1;stroke:none;display:inline" />
      <rect
         transform="matrix(0,1,-1,0,0,0)"
         style="fill:#bebebe;fill-opacity:1;stroke:none;display:inline"
         id="rect4324-2"
         width="2"
         height="21.030746"
         x="370.36218"
         y="-214.03075"
         rx="1"
         ry="1" />
      <rect
         ry="1"
         rx="1"
         y="-214.03075"
         x="385.36218"
         height="20.030746"
         width="2"
         id="rect4326-1"
         style="fill:#bebebe;fill-opacity:1;stroke:none;display:inline"
         transform="matrix(0,1,-1,0,0,0)" />
      <rect
         ry="1"
         rx="1"
         y="-195"
         x="374.36218"
         height="5"
         width="2"
         id="rect2808-5"
         style="fill:#bebebe;fill-opacity:1;stroke:none;display:inline"
         transform="matrix(0,1,-1,0,0,0)" />
      <rect
         transform="matrix(0,1,-1,0,0,0)"
         style="fill:#bebebe;fill-opacity:1;stroke:none;display:inline"
         id="rect2810-18"
         width="2"
         height="5"
         x="381.36218"
         y="-195"
         rx="1"
         ry="1" />
      <rect
         style="fill:#bebebe;fill-opacity:1;stroke:none;display:inline"
         id="rect2812-85"
         width="2"
         height="8.999999"
         x="190"
         y="374.36218"
         rx="1"
         ry="1" />
      <rect
         style="fill:#bebebe;fill-opacity:1;stroke:none;display:inline"
         id="rect6223"
         width="2"
         height="6.0000033"
         x="193"
         y="381.36218"
         rx="1"
         ry="1" />
    </g>
    <g
       id="g7935"
       inkscape:label="phone-cell">
      <rect
         inkscape:export-ydpi="90"
         inkscape:export-xdpi="90"
         inkscape:export-filename="/home/hbons/Intel/phone-icons/rect6307.png"
         transform="scale(-1,1)"
         ry="1"
         rx="1"
         y="371.83093"
         x="-225"
         height="16.53125"
         width="2"
         id="rect6291"
         style="fill:#bebebe;fill-opacity:1;stroke:none;display:inline" />
      <rect
         inkscape:export-ydpi="90"
         inkscape:export-xdpi="90"
         inkscape:export-filename="/home/hbons/Intel/phone-icons/rect6307.png"
         transform="scale(-1,1)"
         style="fill:#bebebe;fill-opacity:1;stroke:none;display:inline"
         id="rect6293"
         width="2"
         height="16"
         x="-236"
         y="372.36218"
         rx="1"
         ry="1" />
      <rect
         inkscape:export-ydpi="90"
         inkscape:export-xdpi="90"
         inkscape:export-filename="/home/hbons/Intel/phone-icons/rect6307.png"
         transform="matrix(0,1,1,0,0,0)"
         style="fill:#bebebe;fill-opacity:1;stroke:none;display:inline"
         id="rect6295"
         width="2.0000234"
         height="13"
         x="386.36218"
         y="223"
         rx="1.0000117"
         ry="1.0000117" />
      <rect
         inkscape:export-ydpi="90"
         inkscape:export-xdpi="90"
         inkscape:export-filename="/home/hbons/Intel/phone-icons/rect6307.png"
         ry="1.0000117"
         rx="1.0000117"
         y="226.34375"
         x="372.36218"
         height="9.65625"
         width="2.0000234"
         id="rect6299"
         style="fill:#bebebe;fill-opacity:1;stroke:none;display:inline"
         transform="matrix(0,1,1,0,0,0)" />
      <rect
         inkscape:export-ydpi="90"
         inkscape:export-xdpi="90"
         inkscape:export-filename="/home/hbons/Intel/phone-icons/rect6307.png"
         transform="scale(-1,1)"
         y="376.36218"
         x="-232"
         height="5"
         width="4.9999847"
         id="rect6305"
         style="fill:none;stroke:#bebebe;stroke-width:2.00000024;stroke-linecap:round;stroke-linejoin:miter;stroke-miterlimit:4;stroke-opacity:1;stroke-dasharray:none;stroke-dashoffset:220;display:inline" />
      <path
         inkscape:export-ydpi="90"
         inkscape:export-xdpi="90"
         inkscape:export-filename="/home/hbons/Intel/phone-icons/rect6307.png"
         sodipodi:open="true"
         sodipodi:end="6.5449847"
         sodipodi:start="3.1415927"
         transform="matrix(0.7111111,0,0,0.7441895,71,-125.19552)"
         d="m 215.15625,669.2619 a 2.109375,2.015625 0 1 1 4.14687,0.52168"
         sodipodi:ry="2.015625"
         sodipodi:rx="2.109375"
         sodipodi:cy="669.2619"
         sodipodi:cx="217.26562"
         id="path7255"
         style="fill:none;stroke:#bebebe;stroke-width:2.74928331;stroke-linecap:round;stroke-miterlimit:4;stroke-opacity:1;stroke-dasharray:none;display:inline"
         sodipodi:type="arc" />
      <rect
         inkscape:export-ydpi="90"
         inkscape:export-xdpi="90"
         inkscape:export-filename="/home/hbons/Intel/phone-icons/rect6307.png"
         transform="scale(-1,1)"
         style="opacity:0;fill:#ffffff;fill-opacity:1;stroke:none;display:inline"
         id="rect6307"
         width="24"
         height="24"
         x="-242.03075"
         y="367.36218" />
    </g>
    <g
       id="g7849"
       inkscape:label="camera-photo">
      <rect
         style="opacity:0;fill:#ffffff;fill-opacity:1;stroke:none;display:inline"
         id="rect12482"
         width="24"
         height="24"
         x="49"
         y="367.36218" />
      <path
         sodipodi:type="arc"
         style="fill:none;stroke:#bebebe;stroke-width:18.38477325;stroke-linecap:round;stroke-miterlimit:4;stroke-opacity:1;stroke-dasharray:none;stroke-dashoffset:0;display:inline"
         id="path3543-2-2-9"
         sodipodi:cx="-25.809397"
         sodipodi:cy="179.43886"
         sodipodi:rx="22.98097"
         sodipodi:ry="22.98097"
         d="m -2.8284264,179.43886 a 22.98097,22.98097 0 1 1 -45.9619406,0 22.98097,22.98097 0 1 1 45.9619406,0 z"
         transform="matrix(0.1087858,0,0,-0.1087856,64.30773,401.38261)" />
      <rect
         transform="matrix(0,1,-1,0,0,0)"
         ry="0.99999994"
         rx="1"
         y="-58.000031"
         x="372.36218"
         height="7"
         width="2"
         id="rect2846-84-9"
         style="fill:#bebebe;fill-opacity:1;stroke:none;display:inline" />
      <rect
         style="fill:#bebebe;fill-opacity:1;stroke:none;display:inline"
         id="rect2872-2"
         width="2.0000057"
         height="4.0000081"
         x="386.36218"
         y="-55"
         rx="1.0000029"
         ry="1.0000029"
         transform="matrix(0,1,-1,0,0,0)" />
      <path
         sodipodi:open="true"
         sodipodi:end="3.1415927"
         sodipodi:start="1.5707963"
         transform="matrix(0.08391178,0,0,-0.08122662,54.09413,389.80413)"
         d="M -25.809396,202.41983 A 22.98097,22.98097 0 0 1 -48.790367,179.43886"
         sodipodi:ry="22.98097"
         sodipodi:rx="22.98097"
         sodipodi:cy="179.43886"
         sodipodi:cx="-25.809397"
         id="path2874-9"
         style="fill:none;stroke:#bebebe;stroke-width:24.22530937;stroke-linecap:round;stroke-miterlimit:4;stroke-opacity:1;stroke-dasharray:none;stroke-dashoffset:0;display:inline"
         sodipodi:type="arc" />
      <path
         sodipodi:type="arc"
         style="fill:none;stroke:#bebebe;stroke-width:24.22530937;stroke-linecap:round;stroke-miterlimit:4;stroke-opacity:1;stroke-dasharray:none;stroke-dashoffset:0;display:inline"
         id="path2876-2"
         sodipodi:cx="-25.809397"
         sodipodi:cy="179.43886"
         sodipodi:rx="22.98097"
         sodipodi:ry="22.98097"
         d="M -25.809396,202.41983 A 22.98097,22.98097 0 0 1 -48.790367,179.43886"
         transform="matrix(0.08391178,0,0,0.08122662,54.16573,370.92036)"
         sodipodi:start="1.5707963"
         sodipodi:end="3.1415927"
         sodipodi:open="true" />
      <rect
         style="fill:#bebebe;fill-opacity:1;stroke:none;display:inline"
         id="rect2872-9-8-2"
         width="1.9999919"
         height="12"
         x="49"
         y="374.36218"
         rx="0.99999595"
         ry="0.99999601" />
      <path
         sodipodi:open="true"
         sodipodi:end="3.1415927"
         sodipodi:start="1.5707963"
         transform="matrix(0.08391178,0,0,-0.08122662,61.09413,387.80413)"
         d="M -25.809396,202.41983 A 22.98097,22.98097 0 0 1 -48.790367,179.43886"
         sodipodi:ry="22.98097"
         sodipodi:rx="22.98097"
         sodipodi:cy="179.43886"
         sodipodi:cx="-25.809397"
         id="path2874-0-9"
         style="fill:none;stroke:#bebebe;stroke-width:24.22530937;stroke-linecap:round;stroke-miterlimit:4;stroke-opacity:1;stroke-dasharray:none;stroke-dashoffset:0;display:inline"
         sodipodi:type="arc" />
      <path
         sodipodi:type="arc"
         style="fill:none;stroke:#bebebe;stroke-width:24.22530937;stroke-linecap:round;stroke-miterlimit:4;stroke-opacity:1;stroke-dasharray:none;stroke-dashoffset:0;display:inline"
         id="path2922-8"
         sodipodi:cx="-25.809397"
         sodipodi:cy="179.43886"
         sodipodi:rx="22.98097"
         sodipodi:ry="22.98097"
         d="M -25.809396,202.41983 A 22.98097,22.98097 0 0 1 -48.790367,179.43886"
         transform="matrix(-0.08391178,0,0,-0.08122662,61.90593,387.80413)"
         sodipodi:start="1.5707963"
         sodipodi:end="3.1415927"
         sodipodi:open="true" />
      <rect
         style="fill:#bebebe;fill-opacity:1;stroke:none;display:inline"
         id="rect2848-2-1"
         width="2"
         height="7"
         x="370.36218"
         y="-65.000031"
         rx="1"
         ry="1"
         transform="matrix(0,1,-1,0,0,0)" />
      <rect
         style="fill:#bebebe;fill-opacity:1;stroke:none;display:inline"
         id="rect2986-8"
         width="2"
         height="6"
         x="372.36218"
         y="65.000031"
         rx="1"
         ry="0.99999994"
         transform="matrix(0,1,1,0,0,0)" />
      <path
         sodipodi:type="arc"
         style="fill:none;stroke:#bebebe;stroke-width:24.22530937;stroke-linecap:round;stroke-miterlimit:4;stroke-opacity:1;stroke-dasharray:none;stroke-dashoffset:0;display:inline"
         id="path2988-1"
         sodipodi:cx="-25.809397"
         sodipodi:cy="179.43886"
         sodipodi:rx="22.98097"
         sodipodi:ry="22.98097"
         d="M -25.809396,202.41983 A 22.98097,22.98097 0 0 1 -48.790367,179.43886"
         transform="matrix(-0.08391178,0,0,-0.08122662,67.90593,389.80413)"
         sodipodi:start="1.5707963"
         sodipodi:end="3.1415927"
         sodipodi:open="true" />
      <path
         transform="matrix(0.2828427,0,0,-0.2828427,68.80003,432.61522)"
         d="m -2.8284264,179.43886 a 22.98097,22.98097 0 1 1 -45.9619406,0 22.98097,22.98097 0 1 1 45.9619406,0 z"
         sodipodi:ry="22.98097"
         sodipodi:rx="22.98097"
         sodipodi:cy="179.43886"
         sodipodi:cx="-25.809397"
         id="path10408-2"
         style="fill:none;stroke:#bebebe;stroke-width:7.07106781;stroke-linecap:round;stroke-miterlimit:4;stroke-opacity:1;stroke-dasharray:none;stroke-dashoffset:0;display:inline"
         sodipodi:type="arc" />
      <rect
         transform="matrix(0,1,1,0,0,0)"
         ry="1.0000029"
         rx="1.0000029"
         y="68.000031"
         x="386.36218"
         height="3"
         width="2.0000057"
         id="rect12486"
         style="fill:#bebebe;fill-opacity:1;stroke:none;display:inline" />
      <path
         sodipodi:open="true"
         sodipodi:end="3.1415927"
         sodipodi:start="1.5707963"
         transform="matrix(-0.08391178,0,0,0.08122662,67.90593,370.92036)"
         d="M -25.809396,202.41983 A 22.98097,22.98097 0 0 1 -48.790367,179.43886"
         sodipodi:ry="22.98097"
         sodipodi:rx="22.98097"
         sodipodi:cy="179.43886"
         sodipodi:cx="-25.809397"
         id="path12488"
         style="fill:none;stroke:#bebebe;stroke-width:24.22530937;stroke-linecap:round;stroke-miterlimit:4;stroke-opacity:1;stroke-dasharray:none;stroke-dashoffset:0;display:inline"
         sodipodi:type="arc" />
      <rect
         transform="scale(-1,1)"
         ry="0.99999601"
         rx="0.99999595"
         y="374.36218"
         x="-73.000031"
         height="12"
         width="1.9999919"
         id="rect12490"
         style="fill:#bebebe;fill-opacity:1;stroke:none;display:inline" />
    </g>
    <g
       id="g7833"
       inkscape:label="camera-video">
      <rect
         y="367.36218"
         x="20"
         height="24"
         width="24"
         id="rect6866-1"
         style="opacity:0;fill:#ffffff;fill-opacity:1;stroke:none;display:inline" />
      <path
         transform="matrix(0.195814,0,0,-0.195814,39.55384,410.99883)"
         d="m -2.8284264,179.43886 a 22.98097,22.98097 0 1 1 -45.9619406,0 22.98097,22.98097 0 1 1 45.9619406,0 z"
         sodipodi:ry="22.98097"
         sodipodi:rx="22.98097"
         sodipodi:cy="179.43886"
         sodipodi:cx="-25.809397"
         id="path6898"
         style="fill:none;stroke:#bebebe;stroke-width:10.21377277;stroke-linecap:round;stroke-miterlimit:4;stroke-opacity:1;stroke-dasharray:none;stroke-dashoffset:0;display:inline"
         sodipodi:type="arc" />
      <path
         sodipodi:type="arc"
         style="fill:none;stroke:#bebebe;stroke-width:10.21377277;stroke-linecap:round;stroke-miterlimit:4;stroke-opacity:1;stroke-dasharray:none;stroke-dashoffset:0;display:inline"
         id="path6900"
         sodipodi:cx="-25.809397"
         sodipodi:cy="179.43886"
         sodipodi:rx="22.98097"
         sodipodi:ry="22.98097"
         d="m -2.8284264,179.43886 a 22.98097,22.98097 0 1 1 -45.9619406,0 22.98097,22.98097 0 1 1 45.9619406,0 z"
         transform="matrix(0.195814,0,0,-0.195814,30.55385,410.99883)" />
      <path
         sodipodi:type="arc"
         style="fill:none;stroke:#bebebe;stroke-width:24.22530937;stroke-linecap:round;stroke-miterlimit:4;stroke-opacity:1;stroke-dasharray:none;stroke-dashoffset:0;display:inline"
         id="path6874-3"
         sodipodi:cx="-25.809397"
         sodipodi:cy="179.43886"
         sodipodi:rx="22.98097"
         sodipodi:ry="22.98097"
         d="M -25.809396,202.41983 A 22.98097,22.98097 0 0 1 -48.790367,179.43886"
         transform="matrix(0.08391178,0,0,-0.08122662,26.09408,396.80407)"
         sodipodi:start="1.5707963"
         sodipodi:end="3.1415927"
         sodipodi:open="true" />
      <rect
         transform="scale(1,-1)"
         ry="1"
         rx="1"
         y="-383.36249"
         x="37"
         height="2.0003052"
         width="2"
         id="rect6886-0"
         style="fill:#bebebe;fill-opacity:1;stroke:none;display:inline" />
      <path
         sodipodi:open="true"
         sodipodi:end="3.1415927"
         sodipodi:start="1.5707963"
         transform="matrix(-0.08391178,0,0,-0.08122662,33.9059,396.80407)"
         d="M -25.809396,202.41983 A 22.98097,22.98097 0 0 1 -48.790367,179.43886"
         sodipodi:ry="22.98097"
         sodipodi:rx="22.98097"
         sodipodi:cy="179.43886"
         sodipodi:cx="-25.809397"
         id="path6888-3"
         style="fill:none;stroke:#bebebe;stroke-width:24.22530937;stroke-linecap:round;stroke-miterlimit:4;stroke-opacity:1;stroke-dasharray:none;stroke-dashoffset:0;display:inline"
         sodipodi:type="arc" />
      <rect
         style="fill:#bebebe;fill-opacity:1;stroke:none;display:inline"
         id="rect6930"
         width="2"
         height="8"
         x="21"
         y="-389.36218"
         rx="1"
         ry="0.99999994"
         transform="scale(1,-1)" />
      <rect
         transform="matrix(0,1,1,0,0,0)"
         ry="0.99999994"
         rx="1"
         y="21"
         x="387.36218"
         height="18"
         width="2"
         id="rect6932"
         style="fill:#bebebe;fill-opacity:1;stroke:none;display:inline" />
      <rect
         style="fill:#bebebe;fill-opacity:1;stroke:none;display:inline"
         id="rect6934"
         width="2"
         height="11.99999"
         x="42"
         y="-390.36218"
         rx="1"
         ry="0.99999994"
         transform="scale(1,-1)" />
      <path
         sodipodi:nodetypes="cccsccc"
         id="rect6936"
         d="m 37.13274,382.86164 c 0.277,0.47977 0.88625,0.64302 1.36603,0.36602 l 5.00035,-3.00034 c 0.47977,-0.277 0.64302,-0.88625 0.36602,-1.36603 -0.277,-0.47978 -0.88625,-0.64302 -1.36602,-0.36602 l -5.00035,3.00034 c -0.47978,0.277 -0.64303,0.88625 -0.36603,1.36603 z"
         style="fill:#bebebe;fill-opacity:1;stroke:none;display:inline" />
      <path
         sodipodi:nodetypes="cccsccc"
         id="rect6938"
         d="m 37.13412,385.86204 c 0.277,-0.47978 0.88625,-0.64303 1.36603,-0.36603 l 4.99898,3.00105 c 0.47978,0.277 0.64302,0.88625 0.36602,1.36603 -0.277,0.47978 -0.88624,0.64303 -1.36602,0.36603 l -4.99898,-3.00106 c -0.47978,-0.277 -0.64303,-0.88625 -0.36603,-1.36602 l 0,0 z"
         style="fill:#bebebe;fill-opacity:1;stroke:none;display:inline" />
      <rect
         transform="matrix(0,1,1,0,0,0)"
         ry="0.99999994"
         rx="1"
         y="23"
         x="379.36218"
         height="3"
         width="2"
         id="rect6932-6"
         style="fill:#bebebe;fill-opacity:1;stroke:none;display:inline" />
      <rect
         style="fill:#bebebe;fill-opacity:1;stroke:none;display:inline"
         id="rect6962"
         width="2"
         height="4"
         x="37"
         y="-389.36218"
         rx="1"
         ry="0.99999988"
         transform="scale(1,-1)" />
      <rect
         style="fill:#bebebe;fill-opacity:1;stroke:none;display:inline"
         id="rect6988"
         width="2"
         height="3"
         x="379.36218"
         y="34"
         rx="1"
         ry="0.99999994"
         transform="matrix(0,1,1,0,0,0)" />
    </g>
    <g
       id="g7909"
       inkscape:label="computer">
      <rect
         transform="scale(-1,1)"
         style="opacity:0;fill:#ffffff;fill-opacity:1;stroke:none;display:inline"
         id="rect13226-7"
         width="24"
         height="24"
         x="-186.03075"
         y="367.36218" />
      <rect
         transform="matrix(0,-1,1,0,0,0)"
         ry="1.1149201"
         rx="1.0000002"
         y="164.03075"
         x="-371.36218"
         height="20"
         width="2.0000005"
         id="rect2789-01"
         style="fill:#bebebe;fill-opacity:1;stroke:none;display:inline" />
      <rect
         style="fill:#bebebe;fill-opacity:1;stroke:none;display:inline"
         id="rect2826-69"
         width="2.0000005"
         height="16"
         x="-166.03075"
         y="-385.36218"
         rx="1.0000002"
         ry="1.1428573"
         transform="scale(-1,-1)" />
      <rect
         transform="scale(-1,-1)"
         ry="1.1428573"
         rx="1.0000002"
         y="-385.36218"
         x="-184.03075"
         height="16"
         width="2.0000005"
         id="rect2828-4"
         style="fill:#bebebe;fill-opacity:1;stroke:none;display:inline" />
      <rect
         style="fill:#bebebe;fill-opacity:1;stroke:none;display:inline"
         id="rect3636-1"
         width="2.0000002"
         height="4.0307488"
         x="-385.36218"
         y="162"
         rx="1.0000001"
         ry="1.0000001"
         transform="matrix(0,-1,1,0,0,0)" />
      <rect
         style="fill:#bebebe;fill-opacity:1;stroke:none;display:inline"
         id="rect3642-0"
         width="2.000001"
         height="24"
         x="-389.36218"
         y="162.03075"
         rx="1.0000005"
         ry="1.0909096"
         transform="matrix(0,-1,1,0,0,0)" />
      <rect
         style="fill:#bebebe;fill-opacity:1;stroke:none;display:inline"
         id="rect2830-6"
         width="1.9999995"
         height="6"
         x="184.03075"
         y="-389.36218"
         rx="0.99999976"
         ry="0.99999976"
         transform="scale(1,-1)" />
      <rect
         transform="matrix(0,-1,-1,0,0,0)"
         ry="1.0000001"
         rx="1.0000001"
         y="-186"
         x="-385.36218"
         height="3.9692562"
         width="2.0000002"
         id="rect2832-3"
         style="fill:#bebebe;fill-opacity:1;stroke:none;display:inline" />
      <rect
         transform="scale(-1,-1)"
         ry="0"
         rx="0"
         y="-383.36218"
         x="-170.03075"
         height="9"
         width="2.0000005"
         id="rect7393"
         style="fill:#bebebe;fill-opacity:1;stroke:none;display:inline" />
      <rect
         style="fill:#bebebe;fill-opacity:1;stroke:none;display:inline"
         id="rect7395"
         width="2.0000005"
         height="9"
         x="-180.03075"
         y="-383.36218"
         rx="0"
         ry="0"
         transform="scale(-1,-1)" />
      <rect
         style="fill:#bebebe;fill-opacity:1;stroke:none;display:inline"
         id="rect7397"
         width="2.0000005"
         height="12"
         x="381.36218"
         y="-180.03075"
         rx="0"
         ry="0"
         transform="matrix(0,1,-1,0,0,0)" />
      <rect
         transform="matrix(0,1,-1,0,0,0)"
         ry="0"
         rx="0"
         y="-180.03075"
         x="373.36218"
         height="12"
         width="2.0000005"
         id="rect7399"
         style="fill:#bebebe;fill-opacity:1;stroke:none;display:inline" />
      <rect
         transform="scale(1,-1)"
         ry="0.99999976"
         rx="0.99999976"
         y="-389.36218"
         x="162.03075"
         height="6"
         width="1.9999995"
         id="rect7691"
         style="fill:#bebebe;fill-opacity:1;stroke:none;display:inline" />
    </g>
    <g
       id="g7867"
       inkscape:label="input-gaming">
      <rect
         y="367.36218"
         x="78"
         height="24"
         width="24"
         id="rect12611"
         style="opacity:0;fill:#ffffff;fill-opacity:1;stroke:none;display:inline" />
      <path
         sodipodi:open="true"
         sodipodi:end="3.1415927"
         sodipodi:start="1.3089969"
         transform="matrix(0.2271959,0,0,-0.2224742,90.085,416.3963)"
         d="M -19.861483,201.63677 A 22.98097,22.98097 0 0 1 -48.790367,179.43886"
         sodipodi:ry="22.98097"
         sodipodi:rx="22.98097"
         sodipodi:cy="179.43886"
         sodipodi:cx="-25.809397"
         id="path3579-0"
         style="fill:none;stroke:#bebebe;stroke-width:8.89589977;stroke-linecap:round;stroke-miterlimit:4;stroke-opacity:1;stroke-dasharray:none;stroke-dashoffset:0;display:inline"
         sodipodi:type="arc" />
      <path
         sodipodi:type="arc"
         style="fill:none;stroke:#bebebe;stroke-width:8.89589977;stroke-linecap:round;stroke-miterlimit:4;stroke-opacity:1;stroke-dasharray:none;stroke-dashoffset:0;display:inline"
         id="path2840-0-7"
         sodipodi:cx="-25.809397"
         sodipodi:cy="179.43886"
         sodipodi:rx="22.98097"
         sodipodi:ry="22.98097"
         d="M -19.861483,201.63677 A 22.98097,22.98097 0 0 1 -48.790367,179.43886"
         transform="matrix(-0.2271959,0,0,-0.2224742,89.915,416.3963)"
         sodipodi:start="1.3089969"
         sodipodi:end="3.1415927"
         sodipodi:open="true" />
      <path
         sodipodi:open="true"
         sodipodi:end="5.4977871"
         sodipodi:start="3.9269908"
         transform="matrix(-0.2846088,0,0,-0.1318217,82.1495,392.98679)"
         d="m -42.059397,163.18886 a 22.98097,22.98097 0 0 1 32.4999995,0"
         sodipodi:ry="22.98097"
         sodipodi:rx="22.98097"
         sodipodi:cy="179.43886"
         sodipodi:cx="-25.809397"
         id="path2830-6-1"
         style="fill:none;stroke:#bebebe;stroke-width:10.32553291;stroke-linecap:round;stroke-miterlimit:4;stroke-opacity:1;stroke-dasharray:none;stroke-dashoffset:0;display:inline"
         sodipodi:type="arc" />
      <path
         transform="matrix(0.1087441,0,0,-0.1088598,87.3076,396.39764)"
         d="m -2.8284264,179.43886 a 22.98097,22.98097 0 1 1 -45.9619406,0 22.98097,22.98097 0 1 1 45.9619406,0 z"
         sodipodi:ry="22.98097"
         sodipodi:rx="22.98097"
         sodipodi:cy="179.43886"
         sodipodi:cx="-25.809397"
         id="path3579-2-8"
         style="fill:none;stroke:#bebebe;stroke-width:18.38202477;stroke-linecap:round;stroke-miterlimit:4;stroke-opacity:1;stroke-dasharray:none;stroke-dashoffset:0;display:inline"
         sodipodi:type="arc" />
      <path
         transform="matrix(0.04351419,0,0,-0.04351411,97.12308,387.17032)"
         d="m -2.8284264,179.43886 a 22.98097,22.98097 0 1 1 -45.9619406,0 22.98097,22.98097 0 1 1 45.9619406,0 z"
         sodipodi:ry="22.98097"
         sodipodi:rx="22.98097"
         sodipodi:cy="179.43886"
         sodipodi:cx="-25.809397"
         id="path3579-2-3-5-6"
         style="fill:#bebebe;fill-opacity:1;stroke:none;display:inline"
         sodipodi:type="arc" />
      <path
         sodipodi:type="arc"
         style="fill:none;stroke:#bebebe;stroke-width:16.17436218;stroke-linecap:round;stroke-miterlimit:4;stroke-opacity:1;stroke-dasharray:none;stroke-dashoffset:0;display:inline"
         id="path3727-4"
         sodipodi:cx="-25.809397"
         sodipodi:cy="179.43886"
         sodipodi:rx="22.98097"
         sodipodi:ry="22.98097"
         d="M -5.9072926,190.92934 A 22.98097,22.98097 0 0 1 -48.790367,179.43886"
         transform="matrix(-0.1249578,0,0,0.1223608,94.9032,362.6615)"
         sodipodi:start="0.52359878"
         sodipodi:end="3.1415927"
         sodipodi:open="true" />
      <path
         sodipodi:open="true"
         sodipodi:type="arc"
         style="fill:none;stroke:#bebebe;stroke-width:8.73233986;stroke-linecap:round;stroke-miterlimit:4;stroke-opacity:1;stroke-dasharray:none;stroke-dashoffset:0;display:inline"
         id="path3731-0"
         sodipodi:cx="-25.809397"
         sodipodi:cy="179.43886"
         sodipodi:rx="22.98097"
         sodipodi:ry="22.98097"
         d="m -45.711501,167.94837 a 22.98097,22.98097 0 0 1 39.804208,0"
         transform="matrix(0.2009837,0,0,0.2609984,95.1873,339.52798)"
         sodipodi:start="3.6651914"
         sodipodi:end="5.7595865" />
      <rect
         ry="1"
         rx="1"
         y="375.36218"
         x="78"
         height="10"
         width="2"
         id="rect3733-6"
         style="fill:#bebebe;fill-opacity:1;stroke:none;display:inline" />
      <rect
         style="fill:#bebebe;fill-opacity:1;stroke:none;display:inline"
         id="rect3735-9"
         width="2"
         height="10.567219"
         x="100"
         y="375.36218"
         rx="1"
         ry="1" />
      <path
         sodipodi:open="true"
         sodipodi:end="3.1415927"
         sodipodi:start="0.52359878"
         transform="matrix(0.1249578,0,0,0.1223608,85.152,362.6615)"
         d="M -5.9072926,190.92934 A 22.98097,22.98097 0 0 1 -48.790367,179.43886"
         sodipodi:ry="22.98097"
         sodipodi:rx="22.98097"
         sodipodi:cy="179.43886"
         sodipodi:cx="-25.809397"
         id="path3737-8"
         style="fill:none;stroke:#bebebe;stroke-width:16.17436218;stroke-linecap:round;stroke-miterlimit:4;stroke-opacity:1;stroke-dasharray:none;stroke-dashoffset:0;display:inline"
         sodipodi:type="arc" />
      <rect
         transform="matrix(0.86901211,0.49479081,-0.51187798,0.85905817,0,0)"
         ry="0.98189002"
         rx="0.98189968"
         y="289.6395"
         x="269.18146"
         height="5.1188736"
         width="1.9637887"
         id="rect3733-7-3"
         style="fill:#bebebe;fill-opacity:1;stroke:none;display:inline" />
      <path
         transform="matrix(0.04351419,0,0,-0.04351411,99.12308,385.17032)"
         d="m -2.8284264,179.43886 a 22.98097,22.98097 0 1 1 -45.9619406,0 22.98097,22.98097 0 1 1 45.9619406,0 z"
         sodipodi:ry="22.98097"
         sodipodi:rx="22.98097"
         sodipodi:cy="179.43886"
         sodipodi:cx="-25.809397"
         id="path3579-2-3-5-6-6"
         style="fill:#bebebe;fill-opacity:1;stroke:none;display:inline"
         sodipodi:type="arc" />
      <path
         transform="matrix(0.04351419,0,0,-0.04351411,97.12308,383.17032)"
         d="m -2.8284264,179.43886 a 22.98097,22.98097 0 1 1 -45.9619406,0 22.98097,22.98097 0 1 1 45.9619406,0 z"
         sodipodi:ry="22.98097"
         sodipodi:rx="22.98097"
         sodipodi:cy="179.43886"
         sodipodi:cx="-25.809397"
         id="path3579-2-3-5-6-3"
         style="fill:#bebebe;fill-opacity:1;stroke:none;display:inline"
         sodipodi:type="arc" />
      <path
         transform="matrix(0.04351419,0,0,-0.04351411,95.12308,385.17032)"
         d="m -2.8284264,179.43886 a 22.98097,22.98097 0 1 1 -45.9619406,0 22.98097,22.98097 0 1 1 45.9619406,0 z"
         sodipodi:ry="22.98097"
         sodipodi:rx="22.98097"
         sodipodi:cy="179.43886"
         sodipodi:cx="-25.809397"
         id="path3579-2-3-5-6-9"
         style="fill:#bebebe;fill-opacity:1;stroke:none;display:inline"
         sodipodi:type="arc" />
      <rect
         style="fill:#bebebe;fill-opacity:1;stroke:none;display:inline"
         id="rect12653"
         width="1.9637887"
         height="5.1188736"
         x="114.52083"
         y="378.72061"
         rx="0.98189968"
         ry="0.98189002"
         transform="matrix(-0.86901211,0.49479081,0.51187798,0.85905817,0,0)" />
    </g>
    <text
       xml:space="preserve"
       style="font-size:40px;font-style:normal;font-weight:normal;fill:#000000;fill-opacity:1;stroke:none;font-family:RaveIn;-inkscape-font-specification:RaveIn;font-stretch:normal;font-variant:normal;text-anchor:start;text-align:start;writing-mode:lr;line-height:125%"
       x="22"
       y="349.36218"
       id="text7827"
       sodipodi:linespacing="125%"><tspan
         sodipodi:role="line"
         id="tspan7829"
         x="22"
         y="349.36218">devices</tspan></text>
  </g>
</svg>
