<?xml version="1.0" encoding="UTF-8" standalone="no"?>
<!-- Created with Inkscape (http://www.inkscape.org/) -->

<svg
   xmlns:dc="http://purl.org/dc/elements/1.1/"
   xmlns:cc="http://creativecommons.org/ns#"
   xmlns:rdf="http://www.w3.org/1999/02/22-rdf-syntax-ns#"
   xmlns:svg="http://www.w3.org/2000/svg"
   xmlns="http://www.w3.org/2000/svg"
   xmlns:sodipodi="http://sodipodi.sourceforge.net/DTD/sodipodi-0.dtd"
   xmlns:inkscape="http://www.inkscape.org/namespaces/inkscape"
   width="300"
   height="100"
   id="svg7384"
   version="1.1"
   inkscape:version="0.46+devel"
   sodipodi:docname="moblin-icon-theme.svg"
   inkscape:output_extension="org.inkscape.output.svg.inkscape">
  <defs
     id="defs7386">
    <inkscape:perspective
       sodipodi:type="inkscape:persp3d"
       inkscape:vp_x="0 : 526.18109 : 1"
       inkscape:vp_y="0 : 1000 : 0"
       inkscape:vp_z="744.09448 : 526.18109 : 1"
       inkscape:persp3d-origin="372.04724 : 350.78739 : 1"
       id="perspective7392" />
    <inkscape:perspective
       id="perspective7167"
       inkscape:persp3d-origin="0.5 : 0.33333333 : 1"
       inkscape:vp_z="1 : 0.5 : 1"
       inkscape:vp_y="0 : 1000 : 0"
       inkscape:vp_x="0 : 0.5 : 1"
       sodipodi:type="inkscape:persp3d" />
    <inkscape:perspective
       id="perspective8213"
       inkscape:persp3d-origin="0.5 : 0.33333333 : 1"
       inkscape:vp_z="1 : 0.5 : 1"
       inkscape:vp_y="0 : 1000 : 0"
       inkscape:vp_x="0 : 0.5 : 1"
       sodipodi:type="inkscape:persp3d" />
    <inkscape:perspective
       id="perspective10112"
       inkscape:persp3d-origin="0.5 : 0.33333333 : 1"
       inkscape:vp_z="1 : 0.5 : 1"
       inkscape:vp_y="0 : 1000 : 0"
       inkscape:vp_x="0 : 0.5 : 1"
       sodipodi:type="inkscape:persp3d" />
    <inkscape:perspective
       id="perspective10134"
       inkscape:persp3d-origin="0.5 : 0.33333333 : 1"
       inkscape:vp_z="1 : 0.5 : 1"
       inkscape:vp_y="0 : 1000 : 0"
       inkscape:vp_x="0 : 0.5 : 1"
       sodipodi:type="inkscape:persp3d" />
    <inkscape:perspective
       id="perspective10170"
       inkscape:persp3d-origin="0.5 : 0.33333333 : 1"
       inkscape:vp_z="1 : 0.5 : 1"
       inkscape:vp_y="0 : 1000 : 0"
       inkscape:vp_x="0 : 0.5 : 1"
       sodipodi:type="inkscape:persp3d" />
    <inkscape:perspective
       id="perspective10192"
       inkscape:persp3d-origin="0.5 : 0.33333333 : 1"
       inkscape:vp_z="1 : 0.5 : 1"
       inkscape:vp_y="0 : 1000 : 0"
       inkscape:vp_x="0 : 0.5 : 1"
       sodipodi:type="inkscape:persp3d" />
    <inkscape:perspective
       id="perspective8465"
       inkscape:persp3d-origin="0.5 : 0.33333333 : 1"
       inkscape:vp_z="1 : 0.5 : 1"
       inkscape:vp_y="0 : 1000 : 0"
       inkscape:vp_x="0 : 0.5 : 1"
       sodipodi:type="inkscape:persp3d" />
    <inkscape:perspective
       id="perspective8505"
       inkscape:persp3d-origin="0.5 : 0.33333333 : 1"
       inkscape:vp_z="1 : 0.5 : 1"
       inkscape:vp_y="0 : 1000 : 0"
       inkscape:vp_x="0 : 0.5 : 1"
       sodipodi:type="inkscape:persp3d" />
    <inkscape:perspective
       id="perspective8505-1"
       inkscape:persp3d-origin="0.5 : 0.33333333 : 1"
       inkscape:vp_z="1 : 0.5 : 1"
       inkscape:vp_y="0 : 1000 : 0"
       inkscape:vp_x="0 : 0.5 : 1"
       sodipodi:type="inkscape:persp3d" />
    <inkscape:perspective
       id="perspective8505-4"
       inkscape:persp3d-origin="0.5 : 0.33333333 : 1"
       inkscape:vp_z="1 : 0.5 : 1"
       inkscape:vp_y="0 : 1000 : 0"
       inkscape:vp_x="0 : 0.5 : 1"
       sodipodi:type="inkscape:persp3d" />
    <inkscape:perspective
       id="perspective8505-9"
       inkscape:persp3d-origin="0.5 : 0.33333333 : 1"
       inkscape:vp_z="1 : 0.5 : 1"
       inkscape:vp_y="0 : 1000 : 0"
       inkscape:vp_x="0 : 0.5 : 1"
       sodipodi:type="inkscape:persp3d" />
    <inkscape:perspective
       id="perspective8505-8"
       inkscape:persp3d-origin="0.5 : 0.33333333 : 1"
       inkscape:vp_z="1 : 0.5 : 1"
       inkscape:vp_y="0 : 1000 : 0"
       inkscape:vp_x="0 : 0.5 : 1"
       sodipodi:type="inkscape:persp3d" />
    <inkscape:perspective
       id="perspective8505-7"
       inkscape:persp3d-origin="0.5 : 0.33333333 : 1"
       inkscape:vp_z="1 : 0.5 : 1"
       inkscape:vp_y="0 : 1000 : 0"
       inkscape:vp_x="0 : 0.5 : 1"
       sodipodi:type="inkscape:persp3d" />
    <inkscape:perspective
       id="perspective8505-11"
       inkscape:persp3d-origin="0.5 : 0.33333333 : 1"
       inkscape:vp_z="1 : 0.5 : 1"
       inkscape:vp_y="0 : 1000 : 0"
       inkscape:vp_x="0 : 0.5 : 1"
       sodipodi:type="inkscape:persp3d" />
    <inkscape:perspective
       id="perspective8505-0"
       inkscape:persp3d-origin="0.5 : 0.33333333 : 1"
       inkscape:vp_z="1 : 0.5 : 1"
       inkscape:vp_y="0 : 1000 : 0"
       inkscape:vp_x="0 : 0.5 : 1"
       sodipodi:type="inkscape:persp3d" />
    <inkscape:perspective
       id="perspective8505-5"
       inkscape:persp3d-origin="0.5 : 0.33333333 : 1"
       inkscape:vp_z="1 : 0.5 : 1"
       inkscape:vp_y="0 : 1000 : 0"
       inkscape:vp_x="0 : 0.5 : 1"
       sodipodi:type="inkscape:persp3d" />
    <inkscape:perspective
       id="perspective8600"
       inkscape:persp3d-origin="0.5 : 0.33333333 : 1"
       inkscape:vp_z="1 : 0.5 : 1"
       inkscape:vp_y="0 : 1000 : 0"
       inkscape:vp_x="0 : 0.5 : 1"
       sodipodi:type="inkscape:persp3d" />
  </defs>
  <sodipodi:namedview
     id="base"
     pagecolor="#ffffff"
     bordercolor="#666666"
     borderopacity="1.0"
     inkscape:pageopacity="0.0"
     inkscape:pageshadow="2"
     inkscape:zoom="1"
     inkscape:cx="142.44631"
     inkscape:cy="671.75119"
     inkscape:document-units="px"
     inkscape:current-layer="g7898"
     showgrid="false"
     showborder="false"
     inkscape:window-width="1222"
     inkscape:window-height="999"
     inkscape:window-x="1600"
     inkscape:window-y="0"
     inkscape:window-maximized="0"
     inkscape:showpageshadow="false">
    <inkscape:grid
       type="xygrid"
       id="grid7831"
       empspacing="5"
       visible="true"
       enabled="true"
       snapvisiblegridlinesonly="true" />
  </sodipodi:namedview>
  <metadata
     id="metadata7389">
    <rdf:RDF>
      <cc:Work
         rdf:about="">
        <dc:format>image/svg+xml</dc:format>
        <dc:type
           rdf:resource="http://purl.org/dc/dcmitype/StillImage" />
        <dc:title />
      </cc:Work>
    </rdf:RDF>
  </metadata>
  <g
     inkscape:label="devices"
     inkscape:groupmode="layer"
     id="layer1"
     transform="translate(0,-952.36218)">
    <g
       id="g7898"
       inkscape:label="radio">
      <rect
         y="367.36218"
         x="-158"
         height="24"
         width="24"
         id="rect4670-4"
         style="opacity:0;fill:#ffffff;fill-opacity:1;stroke:none;display:inline"
         transform="scale(-1,1)"
         inkscape:label="bbox" />
      <path
         style="fill:none;stroke:#bebebe;stroke-width:2;stroke-linecap:round;stroke-linejoin:round;stroke-opacity:1;color:#000000;stroke-miterlimit:4;stroke-dasharray:none;stroke-dashoffset:0;marker:none;visibility:visible;display:inline;overflow:visible;enable-background:accumulate"
         d="m 155,-583 0,19 -18,0 0,-13 18,0"
         id="path8588"
         transform="translate(0,952.36218)" />
      <rect
         style="color:#000000;fill:none;stroke:#bebebe;stroke-width:2;stroke-linecap:round;stroke-linejoin:round;stroke-miterlimit:4;stroke-opacity:1;stroke-dasharray:none;stroke-dashoffset:0;marker:none;visibility:visible;display:inline;overflow:visible;enable-background:accumulate"
         id="rect8590"
         width="12"
         height="4"
         x="140"
         y="378.36218" />
    </g>
    <g
       id="g7885"
       inkscape:label="tv">
      <rect
         y="367.36218"
         x="106"
         height="24"
         width="24"
         id="rect6439-0-6"
         style="opacity:0;fill:#ffffff;fill-opacity:1;stroke:none;display:inline"
         inkscape:label="bbox" />
      <rect
         style="fill:#bebebe;fill-opacity:1;stroke:none;display:inline"
         id="rect2807-8-5"
         width="2"
         height="20.000002"
         x="-375.36218"
         y="108"
         rx="1"
         ry="1"
         transform="matrix(0,-1,1,0,0,0)" />
      <rect
         style="fill:#bebebe;fill-opacity:1;stroke:none;display:inline"
         id="rect2809-9-4"
         width="2"
         height="14"
         x="-378.36218"
         y="111"
         rx="0"
         ry="0"
         transform="matrix(0,-1,1,0,0,0)" />
      <rect
         transform="scale(-1,-1)"
         ry="0"
         rx="0"
         y="-387.36218"
         x="-113"
         height="11"
         width="2"
         id="rect2811-9-4"
         style="fill:#bebebe;fill-opacity:1;stroke:none;display:inline" />
      <rect
         style="fill:#bebebe;fill-opacity:1;stroke:none;display:inline"
         id="rect2813-1"
         width="2"
         height="11"
         x="-125"
         y="-387.36218"
         rx="0"
         ry="0"
         transform="scale(-1,-1)" />
      <rect
         transform="matrix(0,-1,1,0,0,0)"
         ry="0"
         rx="0"
         y="111"
         x="-387.36218"
         height="14"
         width="2"
         id="rect2815-3"
         style="fill:#bebebe;fill-opacity:1;stroke:none;display:inline" />
      <rect
         transform="scale(-1,-1)"
         ry="1"
         rx="1"
         y="-390.36218"
         x="-128"
         height="17"
         width="2"
         id="rect2817-1"
         style="fill:#bebebe;fill-opacity:1;stroke:none;display:inline" />
      <rect
         transform="matrix(0,-1,1,0,0,0)"
         ry="1"
         rx="1"
         y="108"
         x="-390.36218"
         height="20.000002"
         width="2"
         id="rect2819-1-1"
         style="fill:#bebebe;fill-opacity:1;stroke:none;display:inline" />
      <rect
         style="fill:#bebebe;fill-opacity:1;stroke:none;display:inline"
         id="rect2821-6-6"
         width="2"
         height="17"
         x="-110"
         y="-390.36218"
         rx="1"
         ry="1"
         transform="scale(-1,-1)" />
      <path
         sodipodi:nodetypes="cccsccc"
         id="rect10637"
         d="m 117.6986,374.06289 c 0.3918,-0.39174 0.3918,-1.02248 0,-1.41421 l -3.2857,-3.28446 c 0,0 -1.4142,0 -1.4142,0 0,0 0,1.41421 0,1.41421 l 3.2857,3.28446 c 0.3917,0.39174 1.0225,0.39174 1.4142,0 z"
         style="fill:#bebebe;fill-opacity:1;stroke:none;display:inline" />
      <path
         style="fill:#bebebe;fill-opacity:1;stroke:none;display:inline"
         d="m 117.3001,374.06289 c -0.3918,-0.39174 -0.3918,-1.02248 0,-1.41421 l 3.2857,-3.28446 c 0,0 1.4142,0 1.4142,0 0,0 0,1.41421 0,1.41421 l -3.2857,3.28446 c -0.3917,0.39174 -1.0225,0.39174 -1.4142,0 z"
         id="path13548"
         sodipodi:nodetypes="cccsccc" />
    </g>
    <g
       id="g7974"
       inkscape:label="audio-input-microphone">
      <rect
         style="fill:#bebebe;fill-opacity:1;stroke:none;display:inline"
         id="rect6352"
         width="2"
         height="9.0000181"
         x="27"
         y="399.36218"
         rx="1.5"
         ry="1.5" />
      <path
         sodipodi:open="true"
         sodipodi:end="3.1415927"
         sodipodi:start="0"
         transform="matrix(0.1740571,0,0,0.1740568,36.492308,376.12964)"
         d="m -2.8284264,179.43886 c 0,12.69204 -10.2889306,22.98097 -22.9809706,22.98097 -12.692039,0 -22.98097,-10.28893 -22.98097,-22.98097 0,0 0,0 0,0"
         sodipodi:ry="22.98097"
         sodipodi:rx="22.98097"
         sodipodi:cy="179.43886"
         sodipodi:cx="-25.809397"
         id="path6354"
         style="fill:none;stroke:#bebebe;stroke-width:11.49049091;stroke-linecap:round;stroke-miterlimit:4;stroke-opacity:1;stroke-dasharray:none;stroke-dashoffset:0;display:inline"
         sodipodi:type="arc" />
      <path
         sodipodi:open="true"
         sodipodi:end="3.1415927"
         sodipodi:start="0"
         transform="matrix(0.3045999,0,0,0.3045998,39.861538,352.70516)"
         d="m -2.8284264,179.43886 c 0,12.69204 -10.2889306,22.98097 -22.9809706,22.98097 -12.692039,0 -22.98097,-10.28893 -22.98097,-22.98097 0,0 0,0 0,0"
         sodipodi:ry="22.98097"
         sodipodi:rx="22.98097"
         sodipodi:cy="179.43886"
         sodipodi:cx="-25.809397"
         id="path6356"
         style="fill:none;stroke:#bebebe;stroke-width:6.56599188;stroke-linecap:round;stroke-miterlimit:4;stroke-opacity:1;stroke-dasharray:none;stroke-dashoffset:0;display:inline"
         sodipodi:type="arc" />
      <rect
         style="fill:#bebebe;fill-opacity:1;stroke:none;display:inline"
         id="rect6358"
         width="2"
         height="5.8050842"
         x="31"
         y="413.62531"
         rx="1.5000001"
         ry="1.5" />
      <rect
         transform="matrix(0,1,-1,0,0,0)"
         ry="1.0426602"
         rx="1.0426602"
         y="-36"
         x="417.36218"
         height="8"
         width="2.0853205"
         id="rect6360"
         style="fill:#bebebe;fill-opacity:1;stroke:none;display:inline" />
      <rect
         style="fill:#bebebe;fill-opacity:1;stroke:none;display:inline"
         id="rect6364"
         width="2"
         height="4"
         x="24"
         y="404.36218"
         rx="1"
         ry="1" />
      <rect
         y="395.36218"
         x="20"
         height="24"
         width="24"
         id="rect6366"
         style="opacity:0;fill:#ffffff;fill-opacity:1;stroke:none;display:inline"
         inkscape:label="bbox" />
      <rect
         style="fill:#bebebe;fill-opacity:1;stroke:none;display:inline"
         id="rect7166"
         width="2"
         height="4"
         x="38"
         y="404.36218"
         rx="1"
         ry="1" />
      <path
         sodipodi:type="arc"
         style="fill:none;stroke:#bebebe;stroke-width:11.49049091;stroke-linecap:round;stroke-miterlimit:4;stroke-opacity:1;stroke-dasharray:none;stroke-dashoffset:0;display:inline"
         id="path7168"
         sodipodi:cx="-25.809397"
         sodipodi:cy="179.43886"
         sodipodi:rx="22.98097"
         sodipodi:ry="22.98097"
         d="m -2.8284264,179.43886 c 0,12.69204 -10.2889306,22.98097 -22.9809706,22.98097 -12.692039,0 -22.98097,-10.28893 -22.98097,-22.98097 0,0 0,0 0,0"
         transform="matrix(0.1740571,0,0,-0.1740568,36.492308,431.59475)"
         sodipodi:start="0"
         sodipodi:end="3.1415927"
         sodipodi:open="true" />
      <rect
         style="fill:#bebebe;fill-opacity:1;stroke:none;display:inline"
         id="rect7170"
         width="2"
         height="9.0000181"
         x="35"
         y="399.36218"
         rx="1.5"
         ry="1.5" />
    </g>
    <g
       id="g7924"
       inkscape:label="battery"
       style="fill:none">
      <rect
         y="367.36218"
         x="-214.03075"
         height="24"
         width="24"
         id="rect5964"
         style="opacity:0;fill:none;stroke:none;display:inline"
         transform="scale(-1,1)"
         inkscape:label="bbox" />
      <path
         style="fill:none;stroke:#bebebe;stroke-width:2;stroke-linecap:round;stroke-linejoin:miter;stroke-miterlimit:4;stroke-opacity:1;stroke-dasharray:none"
         d="m 194.01242,382.37851 0,3.93327 19.0035,0 0,-14.93763 -19.04769,0 0,4.02167 -2.2539,0 c -0.35356,0.0442 -0.7955,0.44194 -0.7955,1.01647 l 0,5.08233 c 0,0.53033 0.39775,0.83969 0.70711,0.83969 l 2.38648,0.0442 z"
         id="path8203"
         sodipodi:nodetypes="ccccccccccc" />
    </g>
    <g
       id="g7935"
       inkscape:label="phone-cell">
      <rect
         inkscape:export-ydpi="90"
         inkscape:export-xdpi="90"
         inkscape:export-filename="/home/hbons/Intel/phone-icons/rect6307.png"
         transform="scale(-1,1)"
         y="376.36218"
         x="-232"
         height="5"
         width="4.9999847"
         id="rect6305"
         style="fill:none;stroke:#bebebe;stroke-width:2.00000024;stroke-linecap:round;stroke-linejoin:miter;stroke-miterlimit:4;stroke-opacity:1;stroke-dasharray:none;stroke-dashoffset:220;display:inline" />
      <path
         inkscape:export-ydpi="90"
         inkscape:export-xdpi="90"
         inkscape:export-filename="/home/hbons/Intel/phone-icons/rect6307.png"
         sodipodi:open="true"
         sodipodi:end="6.2831853"
         sodipodi:start="3.1415927"
         transform="matrix(0.7111111,0,0,0.7441895,71,-125.19552)"
         d="m 215.15625,669.2619 c 0,-1.1132 0.9444,-2.01562 2.10938,-2.01562 1.16497,0 2.10937,0.90242 2.10937,2.01562"
         sodipodi:ry="2.015625"
         sodipodi:rx="2.109375"
         sodipodi:cy="669.2619"
         sodipodi:cx="217.26562"
         id="path7255"
         style="fill:none;stroke:#bebebe;stroke-width:2.74928331;stroke-linecap:round;stroke-miterlimit:4;stroke-opacity:1;stroke-dasharray:none;display:inline"
         sodipodi:type="arc" />
      <rect
         inkscape:export-ydpi="90"
         inkscape:export-xdpi="90"
         inkscape:export-filename="/home/hbons/Intel/phone-icons/rect6307.png"
         transform="scale(-1,1)"
         style="opacity:0;fill:#ffffff;fill-opacity:1;stroke:none;display:inline"
         id="rect6307"
         width="24"
         height="24"
         x="-242.03075"
         y="367.36218"
         inkscape:label="bbox" />
      <path
         style="stroke-width:2;color:#000000;fill:none;stroke:#bebebe;stroke-linecap:round;stroke-linejoin:round;stroke-miterlimit:4;stroke-opacity:1;stroke-dasharray:none;stroke-dashoffset:0;marker:none;visibility:visible;display:inline;overflow:visible;enable-background:accumulate"
         d="m 226.98128,372.83256 0,0.53033 7.99914,0 0,13.98746 -10.98604,0 0,-14.55067"
         id="path10102"
         sodipodi:nodetypes="cccccc" />
    </g>
    <g
       id="g7849"
       inkscape:label="camera-photo">
      <rect
         style="opacity:0;fill:#ffffff;fill-opacity:1;stroke:none;display:inline"
         id="rect12482"
         width="24"
         height="24"
         x="49"
         y="367.36218"
         inkscape:label="bbox" />
      <path
         sodipodi:type="arc"
         style="fill:none;stroke:#bebebe;stroke-width:18.38477325;stroke-linecap:round;stroke-miterlimit:4;stroke-opacity:1;stroke-dasharray:none;stroke-dashoffset:0;display:inline"
         id="path3543-2-2-9"
         sodipodi:cx="-25.809397"
         sodipodi:cy="179.43886"
         sodipodi:rx="22.98097"
         sodipodi:ry="22.98097"
         d="m -2.8284264,179.43886 c 0,12.69204 -10.2889306,22.98097 -22.9809706,22.98097 -12.692039,0 -22.98097,-10.28893 -22.98097,-22.98097 0,-12.69204 10.288931,-22.98097 22.98097,-22.98097 12.69204,0 22.9809706,10.28893 22.9809706,22.98097 z"
         transform="matrix(0.1087858,0,0,-0.1087856,64.30773,401.38261)" />
      <path
         sodipodi:open="true"
         sodipodi:end="3.1415927"
         sodipodi:start="1.5707963"
         transform="matrix(0.08391178,0,0,-0.08122662,54.09413,389.80413)"
         d="m -25.809396,202.41983 c -12.69204,0 -22.980971,-10.28893 -22.980971,-22.98097 0,0 0,0 0,0"
         sodipodi:ry="22.98097"
         sodipodi:rx="22.98097"
         sodipodi:cy="179.43886"
         sodipodi:cx="-25.809397"
         id="path2874-9"
         style="fill:none;stroke:#bebebe;stroke-width:24.22530937;stroke-linecap:round;stroke-miterlimit:4;stroke-opacity:1;stroke-dasharray:none;stroke-dashoffset:0;display:inline"
         sodipodi:type="arc" />
      <path
         sodipodi:type="arc"
         style="fill:none;stroke:#bebebe;stroke-width:24.22530937;stroke-linecap:round;stroke-miterlimit:4;stroke-opacity:1;stroke-dasharray:none;stroke-dashoffset:0;display:inline"
         id="path2876-2"
         sodipodi:cx="-25.809397"
         sodipodi:cy="179.43886"
         sodipodi:rx="22.98097"
         sodipodi:ry="22.98097"
         d="M -25.809396,202.41983 A 22.98097,22.98097 0 0 1 -48.790367,179.43886"
         transform="matrix(0.08391178,0,0,0.08122662,54.10323,370.92036)"
         sodipodi:start="1.5707963"
         sodipodi:end="3.1415927"
         sodipodi:open="true" />
      <path
         sodipodi:open="true"
         sodipodi:end="3.1415927"
         sodipodi:start="1.5707963"
         transform="matrix(0.08391178,0,0,-0.08122662,61.09413,387.80413)"
         d="m -25.809396,202.41983 c -12.69204,0 -22.980971,-10.28893 -22.980971,-22.98097 0,0 0,0 0,0"
         sodipodi:ry="22.98097"
         sodipodi:rx="22.98097"
         sodipodi:cy="179.43886"
         sodipodi:cx="-25.809397"
         id="path2874-0-9"
         style="fill:none;stroke:#bebebe;stroke-width:24.22530937;stroke-linecap:round;stroke-miterlimit:4;stroke-opacity:1;stroke-dasharray:none;stroke-dashoffset:0;display:inline"
         sodipodi:type="arc" />
      <path
         sodipodi:type="arc"
         style="fill:none;stroke:#bebebe;stroke-width:24.22530937;stroke-linecap:round;stroke-miterlimit:4;stroke-opacity:1;stroke-dasharray:none;stroke-dashoffset:0;display:inline"
         id="path2922-8"
         sodipodi:cx="-25.809397"
         sodipodi:cy="179.43886"
         sodipodi:rx="22.98097"
         sodipodi:ry="22.98097"
         d="m -25.809396,202.41983 c -12.69204,0 -22.980971,-10.28893 -22.980971,-22.98097 0,0 0,0 0,0"
         transform="matrix(-0.08391178,0,0,-0.08122662,61.90593,387.80413)"
         sodipodi:start="1.5707963"
         sodipodi:end="3.1415927"
         sodipodi:open="true" />
      <path
         sodipodi:type="arc"
         style="fill:none;stroke:#bebebe;stroke-width:24.22530937;stroke-linecap:round;stroke-miterlimit:4;stroke-opacity:1;stroke-dasharray:none;stroke-dashoffset:0;display:inline"
         id="path2988-1"
         sodipodi:cx="-25.809397"
         sodipodi:cy="179.43886"
         sodipodi:rx="22.98097"
         sodipodi:ry="22.98097"
         d="m -25.809396,202.41983 c -12.69204,0 -22.980971,-10.28893 -22.980971,-22.98097 0,0 0,0 0,0"
         transform="matrix(-0.08391178,0,0,-0.08122662,67.90593,389.80413)"
         sodipodi:start="1.5707963"
         sodipodi:end="3.1415927"
         sodipodi:open="true" />
      <path
         transform="matrix(0.2828427,0,0,-0.2828427,68.80003,432.61522)"
         d="m -2.8284264,179.43886 c 0,12.69204 -10.2889306,22.98097 -22.9809706,22.98097 -12.692039,0 -22.98097,-10.28893 -22.98097,-22.98097 0,-12.69204 10.288931,-22.98097 22.98097,-22.98097 12.69204,0 22.9809706,10.28893 22.9809706,22.98097 z"
         sodipodi:ry="22.98097"
         sodipodi:rx="22.98097"
         sodipodi:cy="179.43886"
         sodipodi:cx="-25.809397"
         id="path10408-2"
         style="fill:none;stroke:#bebebe;stroke-width:7.07106781;stroke-linecap:round;stroke-miterlimit:4;stroke-opacity:1;stroke-dasharray:none;stroke-dashoffset:0;display:inline"
         sodipodi:type="arc" />
      <path
         sodipodi:open="true"
         sodipodi:end="3.1415927"
         sodipodi:start="1.5707963"
         transform="matrix(-0.08391178,0,0,0.08122662,67.90593,370.92036)"
         d="m -25.809396,202.41983 c -12.69204,0 -22.980971,-10.28893 -22.980971,-22.98097 0,0 0,0 0,0"
         sodipodi:ry="22.98097"
         sodipodi:rx="22.98097"
         sodipodi:cy="179.43886"
         sodipodi:cx="-25.809397"
         id="path12488"
         style="fill:none;stroke:#bebebe;stroke-width:24.22530937;stroke-linecap:round;stroke-miterlimit:4;stroke-opacity:1;stroke-dasharray:none;stroke-dashoffset:0;display:inline"
         sodipodi:type="arc" />
      <path
         style="fill:none;stroke:#bebebe;stroke-width:2;stroke-linecap:round;stroke-linejoin:round;stroke-opacity:1;color:#000000;stroke-miterlimit:4;stroke-dasharray:none;stroke-dashoffset:0;marker:none;visibility:visible;display:inline;overflow:visible;enable-background:accumulate"
         d="m 54,387.36218 -2,0"
         id="path7624" />
      <path
         style="color:#000000;fill:none;stroke:#bebebe;stroke-width:2;stroke-linecap:round;stroke-linejoin:round;stroke-miterlimit:4;stroke-opacity:1;stroke-dasharray:none;stroke-dashoffset:0;marker:none;visibility:visible;display:inline;overflow:visible;enable-background:accumulate"
         d="m 50,385.33093 0,-9.96875"
         id="path7626" />
      <path
         style="fill:none;stroke:#bebebe;stroke-width:2;stroke-linecap:round;stroke-linejoin:round;stroke-opacity:1;color:#000000;stroke-miterlimit:4;stroke-dasharray:none;stroke-dashoffset:0;marker:none;visibility:visible;display:inline;overflow:visible;enable-background:accumulate"
         d="m 52,373.36218 5,0"
         id="path7628" />
      <path
         style="fill:none;stroke:#bebebe;stroke-width:2;stroke-linecap:round;stroke-linejoin:round;stroke-opacity:1;color:#000000;stroke-miterlimit:4;stroke-dasharray:none;stroke-dashoffset:0;marker:none;visibility:visible;display:inline;overflow:visible;enable-background:accumulate"
         d="m 59,371.36218 5,0"
         id="path7630" />
      <path
         style="color:#000000;fill:none;stroke:#bebebe;stroke-width:2;stroke-linecap:round;stroke-linejoin:round;stroke-miterlimit:4;stroke-opacity:1;stroke-dasharray:none;stroke-dashoffset:0;marker:none;visibility:visible;display:inline;overflow:visible;enable-background:accumulate"
         d="m 66,373.36218 4,0"
         id="path7632" />
      <path
         style="fill:none;stroke:#bebebe;stroke-width:2;stroke-linecap:round;stroke-linejoin:round;stroke-miterlimit:4;stroke-opacity:1;stroke-dasharray:none"
         d="m 72,375.20593 0,10.15625"
         id="path7634" />
      <path
         style="fill:none;stroke:#bebebe;stroke-width:2;stroke-linecap:round;stroke-linejoin:round;stroke-opacity:1;color:#000000;stroke-miterlimit:4;stroke-dasharray:none;stroke-dashoffset:0;marker:none;visibility:visible;display:inline;overflow:visible;enable-background:accumulate"
         d="m 70.0625,387.39343 -1.0625,0"
         id="path7636" />
    </g>
    <g
       id="g7833"
       inkscape:label="camera-video">
      <rect
         y="367.36218"
         x="20"
         height="24"
         width="24"
         id="rect6866-1"
         style="opacity:0;fill:#ffffff;fill-opacity:1;stroke:none;display:inline"
         inkscape:label="bbox" />
      <path
         transform="matrix(0.195814,0,0,-0.195814,39.55384,410.99883)"
         d="m -2.8284264,179.43886 c 0,12.69204 -10.2889306,22.98097 -22.9809706,22.98097 -12.692039,0 -22.98097,-10.28893 -22.98097,-22.98097 0,-12.69204 10.288931,-22.98097 22.98097,-22.98097 12.69204,0 22.9809706,10.28893 22.9809706,22.98097 z"
         sodipodi:ry="22.98097"
         sodipodi:rx="22.98097"
         sodipodi:cy="179.43886"
         sodipodi:cx="-25.809397"
         id="path6898"
         style="fill:none;stroke:#bebebe;stroke-width:10.21377277;stroke-linecap:round;stroke-miterlimit:4;stroke-opacity:1;stroke-dasharray:none;stroke-dashoffset:0;display:inline"
         sodipodi:type="arc" />
      <path
         sodipodi:type="arc"
         style="fill:none;stroke:#bebebe;stroke-width:10.21377277;stroke-linecap:round;stroke-miterlimit:4;stroke-opacity:1;stroke-dasharray:none;stroke-dashoffset:0;display:inline"
         id="path6900"
         sodipodi:cx="-25.809397"
         sodipodi:cy="179.43886"
         sodipodi:rx="22.98097"
         sodipodi:ry="22.98097"
         d="m -2.8284264,179.43886 c 0,12.69204 -10.2889306,22.98097 -22.9809706,22.98097 -12.692039,0 -22.98097,-10.28893 -22.98097,-22.98097 0,-12.69204 10.288931,-22.98097 22.98097,-22.98097 12.69204,0 22.9809706,10.28893 22.9809706,22.98097 z"
         transform="matrix(0.195814,0,0,-0.195814,30.55385,410.99883)" />
      <path
         sodipodi:type="arc"
         style="fill:none;stroke:#bebebe;stroke-width:24.22530937;stroke-linecap:round;stroke-miterlimit:4;stroke-opacity:1;stroke-dasharray:none;stroke-dashoffset:0;display:inline"
         id="path6874-3"
         sodipodi:cx="-25.809397"
         sodipodi:cy="179.43886"
         sodipodi:rx="22.98097"
         sodipodi:ry="22.98097"
         d="m -25.809396,202.41983 c -12.69204,0 -22.980971,-10.28893 -22.980971,-22.98097 0,0 0,0 0,0"
         transform="matrix(0.08391178,0,0,-0.08122662,26.09408,396.80407)"
         sodipodi:start="1.5707963"
         sodipodi:end="3.1415927"
         sodipodi:open="true" />
      <path
         sodipodi:open="true"
         sodipodi:end="3.1415927"
         sodipodi:start="1.5707963"
         transform="matrix(-0.08391178,0,0,-0.08122662,33.9059,396.80407)"
         d="m -25.809396,202.41983 c -12.69204,0 -22.980971,-10.28893 -22.980971,-22.98097 0,0 0,0 0,0"
         sodipodi:ry="22.98097"
         sodipodi:rx="22.98097"
         sodipodi:cy="179.43886"
         sodipodi:cx="-25.809397"
         id="path6888-3"
         style="fill:none;stroke:#bebebe;stroke-width:24.22530937;stroke-linecap:round;stroke-miterlimit:4;stroke-opacity:1;stroke-dasharray:none;stroke-dashoffset:0;display:inline"
         sodipodi:type="arc" />
      <path
         style="fill:none;stroke:#bebebe;stroke-width:2;stroke-linecap:round;stroke-linejoin:round;stroke-opacity:1;color:#000000;stroke-miterlimit:4;stroke-dasharray:none;stroke-dashoffset:0;marker:none;visibility:visible;display:inline;overflow:visible;enable-background:accumulate"
         d="m 35,-572 1,0"
         id="path8558"
         transform="translate(0,952.36218)" />
      <path
         style="color:#000000;fill:none;stroke:#bebebe;stroke-width:2;stroke-linecap:round;stroke-linejoin:round;stroke-miterlimit:4;stroke-opacity:1;stroke-dasharray:none;stroke-dashoffset:0;marker:none;visibility:visible;display:inline;overflow:visible;enable-background:accumulate"
         d="m 23.909048,380.38976 1.090952,0"
         id="path8560" />
      <path
         style="color:#000000;fill:none;stroke:#bebebe;stroke-width:2;stroke-linecap:round;stroke-linejoin:round;stroke-miterlimit:4;stroke-opacity:1;stroke-dasharray:none;stroke-dashoffset:0;marker:none;visibility:visible;display:inline;overflow:visible;enable-background:accumulate"
         d="m 22.008699,382.20173 0,6.16045 15.991301,0 0,-2 5,3 0,-10 -5,3"
         id="path8562"
         sodipodi:nodetypes="ccccccc" />
    </g>
    <g
       id="g7909"
       inkscape:label="computer">
      <rect
         transform="scale(-1,1)"
         style="opacity:0;fill:#ffffff;fill-opacity:1;stroke:none;display:inline"
         id="rect13226-7"
         width="24"
         height="24"
         x="-186.03075"
         y="367.36218"
         inkscape:label="bbox" />
      <path
         style="fill:none;stroke:#bebebe;stroke-width:2;stroke-linecap:round;stroke-linejoin:round;stroke-miterlimit:4;stroke-opacity:1;stroke-dasharray:none"
         d="m 165.00275,370.35769 18.00532,0 0,14.00955 2.03294,0 0,3.99578 -22.03459,0 0,-4.00336 2.01463,0 -0.0183,-14.00197 z"
         id="path10147"
         sodipodi:nodetypes="ccccccccc" />
      <rect
         style="color:#000000;fill:none;stroke:#bebebe;stroke-width:1.98964918;stroke-linecap:butt;stroke-linejoin:miter;stroke-miterlimit:4;stroke-opacity:1;stroke-dasharray:none;stroke-dashoffset:0;marker:none;visibility:visible;display:inline;overflow:visible;enable-background:accumulate"
         id="rect10197"
         width="10.024123"
         height="8.0017118"
         x="169.01166"
         y="374.38721" />
    </g>
    <g
       id="g7867"
       inkscape:label="input-gaming">
      <rect
         y="367.36218"
         x="78"
         height="24"
         width="24"
         id="rect12611"
         style="opacity:0;fill:#ffffff;fill-opacity:1;stroke:none;display:inline"
         inkscape:label="bbox" />
      <path
         sodipodi:open="true"
         sodipodi:end="3.1415927"
         sodipodi:start="1.3089969"
         transform="matrix(0.2271959,0,0,-0.2224742,90.085,416.3963)"
         d="m -19.861483,201.63677 c -12.259569,3.28494 -24.860884,-3.99043 -28.145826,-16.25 -0.519796,-1.9399 -0.783058,-3.93958 -0.783058,-5.94791"
         sodipodi:ry="22.98097"
         sodipodi:rx="22.98097"
         sodipodi:cy="179.43886"
         sodipodi:cx="-25.809397"
         id="path3579-0"
         style="fill:none;stroke:#bebebe;stroke-width:8.89589977;stroke-linecap:round;stroke-miterlimit:4;stroke-opacity:1;stroke-dasharray:none;stroke-dashoffset:0;display:inline"
         sodipodi:type="arc" />
      <path
         sodipodi:type="arc"
         style="fill:none;stroke:#bebebe;stroke-width:8.89589977;stroke-linecap:round;stroke-miterlimit:4;stroke-opacity:1;stroke-dasharray:none;stroke-dashoffset:0;display:inline"
         id="path2840-0-7"
         sodipodi:cx="-25.809397"
         sodipodi:cy="179.43886"
         sodipodi:rx="22.98097"
         sodipodi:ry="22.98097"
         d="m -19.861483,201.63677 c -12.259569,3.28494 -24.860884,-3.99043 -28.145826,-16.25 -0.519796,-1.9399 -0.783058,-3.93958 -0.783058,-5.94791"
         transform="matrix(-0.2271959,0,0,-0.2224742,89.915,416.3963)"
         sodipodi:start="1.3089969"
         sodipodi:end="3.1415927"
         sodipodi:open="true" />
      <path
         sodipodi:open="true"
         sodipodi:end="5.4977871"
         sodipodi:start="3.9269908"
         transform="matrix(-0.2846088,0,0,-0.1318217,82.1495,392.98679)"
         d="m -42.059397,163.18886 c 8.974627,-8.97463 23.525372,-8.97463 32.4999995,0"
         sodipodi:ry="22.98097"
         sodipodi:rx="22.98097"
         sodipodi:cy="179.43886"
         sodipodi:cx="-25.809397"
         id="path2830-6-1"
         style="fill:none;stroke:#bebebe;stroke-width:10.32553291;stroke-linecap:round;stroke-miterlimit:4;stroke-opacity:1;stroke-dasharray:none;stroke-dashoffset:0;display:inline"
         sodipodi:type="arc" />
      <path
         transform="matrix(0.1087441,0,0,-0.1088598,87.3076,396.39764)"
         d="m -2.8284264,179.43886 c 0,12.69204 -10.2889306,22.98097 -22.9809706,22.98097 -12.692039,0 -22.98097,-10.28893 -22.98097,-22.98097 0,-12.69204 10.288931,-22.98097 22.98097,-22.98097 12.69204,0 22.9809706,10.28893 22.9809706,22.98097 z"
         sodipodi:ry="22.98097"
         sodipodi:rx="22.98097"
         sodipodi:cy="179.43886"
         sodipodi:cx="-25.809397"
         id="path3579-2-8"
         style="fill:none;stroke:#bebebe;stroke-width:18.38202477;stroke-linecap:round;stroke-miterlimit:4;stroke-opacity:1;stroke-dasharray:none;stroke-dashoffset:0;display:inline"
         sodipodi:type="arc" />
      <path
         transform="matrix(0.04351419,0,0,-0.04351411,97.12308,387.17032)"
         d="m -2.8284264,179.43886 c 0,12.69204 -10.2889306,22.98097 -22.9809706,22.98097 -12.692039,0 -22.98097,-10.28893 -22.98097,-22.98097 0,-12.69204 10.288931,-22.98097 22.98097,-22.98097 12.69204,0 22.9809706,10.28893 22.9809706,22.98097 z"
         sodipodi:ry="22.98097"
         sodipodi:rx="22.98097"
         sodipodi:cy="179.43886"
         sodipodi:cx="-25.809397"
         id="path3579-2-3-5-6"
         style="fill:#bebebe;fill-opacity:1;stroke:none;display:inline"
         sodipodi:type="arc" />
      <path
         sodipodi:type="arc"
         style="fill:none;stroke:#bebebe;stroke-width:16.17436218;stroke-linecap:round;stroke-miterlimit:4;stroke-opacity:1;stroke-dasharray:none;stroke-dashoffset:0;display:inline"
         id="path3727-4"
         sodipodi:cx="-25.809397"
         sodipodi:cy="179.43886"
         sodipodi:rx="22.98097"
         sodipodi:ry="22.98097"
         d="m -5.9072926,190.92934 c -6.3460194,10.99163 -20.4009604,14.75764 -31.3925894,8.41162 -7.110337,-4.10515 -11.490486,-11.69179 -11.490485,-19.9021"
         transform="matrix(-0.1249578,0,0,0.1223608,94.9032,362.6615)"
         sodipodi:start="0.52359878"
         sodipodi:end="3.1415927"
         sodipodi:open="true" />
      <path
         sodipodi:open="true"
         sodipodi:type="arc"
         style="fill:none;stroke:#bebebe;stroke-width:8.73233986;stroke-linecap:round;stroke-miterlimit:4;stroke-opacity:1;stroke-dasharray:none;stroke-dashoffset:0;display:inline"
         id="path3731-0"
         sodipodi:cx="-25.809397"
         sodipodi:cy="179.43886"
         sodipodi:rx="22.98097"
         sodipodi:ry="22.98097"
         d="m -45.711501,167.94837 c 6.346019,-10.99163 20.40096,-14.75764 31.392589,-8.41162 3.493549,2.017 6.3946175,4.91807 8.411619,8.41162"
         transform="matrix(0.2009837,0,0,0.2609984,95.1873,339.52798)"
         sodipodi:start="3.6651914"
         sodipodi:end="5.7595865" />
      <rect
         ry="1"
         rx="1"
         y="375.36218"
         x="78"
         height="10"
         width="2"
         id="rect3733-6"
         style="fill:#bebebe;fill-opacity:1;stroke:none;display:inline" />
      <rect
         style="fill:#bebebe;fill-opacity:1;stroke:none;display:inline"
         id="rect3735-9"
         width="2"
         height="10.567219"
         x="100"
         y="375.36218"
         rx="1"
         ry="1" />
      <path
         sodipodi:open="true"
         sodipodi:end="3.1415927"
         sodipodi:start="0.52359878"
         transform="matrix(0.1249578,0,0,0.1223608,85.152,362.6615)"
         d="m -5.9072926,190.92934 c -6.3460194,10.99163 -20.4009604,14.75764 -31.3925894,8.41162 -7.110337,-4.10515 -11.490486,-11.69179 -11.490485,-19.9021"
         sodipodi:ry="22.98097"
         sodipodi:rx="22.98097"
         sodipodi:cy="179.43886"
         sodipodi:cx="-25.809397"
         id="path3737-8"
         style="fill:none;stroke:#bebebe;stroke-width:16.17436218;stroke-linecap:round;stroke-miterlimit:4;stroke-opacity:1;stroke-dasharray:none;stroke-dashoffset:0;display:inline"
         sodipodi:type="arc" />
      <rect
         transform="matrix(0.86901211,0.49479081,-0.51187798,0.85905817,0,0)"
         ry="0.98189002"
         rx="0.98189968"
         y="289.6395"
         x="269.18146"
         height="5.1188736"
         width="1.9637887"
         id="rect3733-7-3"
         style="fill:#bebebe;fill-opacity:1;stroke:none;display:inline" />
      <path
         transform="matrix(0.04351419,0,0,-0.04351411,99.12308,385.17032)"
         d="m -2.8284264,179.43886 c 0,12.69204 -10.2889306,22.98097 -22.9809706,22.98097 -12.692039,0 -22.98097,-10.28893 -22.98097,-22.98097 0,-12.69204 10.288931,-22.98097 22.98097,-22.98097 12.69204,0 22.9809706,10.28893 22.9809706,22.98097 z"
         sodipodi:ry="22.98097"
         sodipodi:rx="22.98097"
         sodipodi:cy="179.43886"
         sodipodi:cx="-25.809397"
         id="path3579-2-3-5-6-6"
         style="fill:#bebebe;fill-opacity:1;stroke:none;display:inline"
         sodipodi:type="arc" />
      <path
         transform="matrix(0.04351419,0,0,-0.04351411,97.12308,383.17032)"
         d="m -2.8284264,179.43886 c 0,12.69204 -10.2889306,22.98097 -22.9809706,22.98097 -12.692039,0 -22.98097,-10.28893 -22.98097,-22.98097 0,-12.69204 10.288931,-22.98097 22.98097,-22.98097 12.69204,0 22.9809706,10.28893 22.9809706,22.98097 z"
         sodipodi:ry="22.98097"
         sodipodi:rx="22.98097"
         sodipodi:cy="179.43886"
         sodipodi:cx="-25.809397"
         id="path3579-2-3-5-6-3"
         style="fill:#bebebe;fill-opacity:1;stroke:none;display:inline"
         sodipodi:type="arc" />
      <path
         transform="matrix(0.04351419,0,0,-0.04351411,95.12308,385.17032)"
         d="m -2.8284264,179.43886 c 0,12.69204 -10.2889306,22.98097 -22.9809706,22.98097 -12.692039,0 -22.98097,-10.28893 -22.98097,-22.98097 0,-12.69204 10.288931,-22.98097 22.98097,-22.98097 12.69204,0 22.9809706,10.28893 22.9809706,22.98097 z"
         sodipodi:ry="22.98097"
         sodipodi:rx="22.98097"
         sodipodi:cy="179.43886"
         sodipodi:cx="-25.809397"
         id="path3579-2-3-5-6-9"
         style="fill:#bebebe;fill-opacity:1;stroke:none;display:inline"
         sodipodi:type="arc" />
      <rect
         style="fill:#bebebe;fill-opacity:1;stroke:none;display:inline"
         id="rect12653"
         width="1.9637887"
         height="5.1188736"
         x="114.52083"
         y="378.72061"
         rx="0.98189968"
         ry="0.98189002"
         transform="matrix(-0.86901211,0.49479081,0.51187798,0.85905817,0,0)" />
    </g>
    <text
       xml:space="preserve"
       style="font-size:40px;font-style:normal;font-variant:normal;font-weight:normal;font-stretch:normal;text-align:start;line-height:125%;writing-mode:lr-tb;text-anchor:start;fill:#000000;fill-opacity:1;stroke:none;font-family:RaveIn;-inkscape-font-specification:RaveIn"
       x="22"
       y="349.36218"
       id="text7827"
       sodipodi:linespacing="125%"><tspan
         sodipodi:role="line"
         id="tspan7829"
         x="22"
         y="349.36218">devices</tspan></text>
    <text
       xml:space="preserve"
       style="font-size:44.97409439px;font-style:normal;font-variant:normal;font-weight:300;font-stretch:normal;text-align:start;line-height:125%;writing-mode:lr-tb;text-anchor:start;fill:#000000;fill-opacity:1;stroke:none;font-family:RaveIn;-inkscape-font-specification:RaveIn Light"
       x="21.726685"
       y="1004.8026"
       id="text9068"
       sodipodi:linespacing="125%"><tspan
         sodipodi:role="line"
         id="tspan9070"
         x="21.726685"
         y="1004.8026">moblin<tspan
   style="fill:#888a85"
   id="tspan9072">*</tspan>icons</tspan></text>
  </g>
</svg>
