<?xml version="1.0" encoding="UTF-8" standalone="no"?>
<!-- Created with Inkscape (http://www.inkscape.org/) -->
<svg
   xmlns:svg="http://www.w3.org/2000/svg"
   xmlns="http://www.w3.org/2000/svg"
   version="1.0"
   width="24"
   height="24"
   id="svg7384">
  <title
     id="title9167">Moblin Icon Theme</title>
  <defs
     id="defs7386" />
  <g
     transform="translate(-5.4882812e-5,-561.99993)"
     id="layer3" />
  <g
     transform="translate(-5.4882812e-5,-561.99993)"
     id="layer5" />
  <g
     transform="translate(-5.4882812e-5,-561.99993)"
     id="layer7" />
  <g
     transform="translate(-5.4882812e-5,-561.99993)"
     id="layer2" />
  <g
     transform="translate(-5.4882812e-5,-561.99993)"
     id="layer8" />
  <g
     transform="translate(-5.4882812e-5,-1514.3621)"
     id="layer1" />
  <g
     transform="translate(-5.4882812e-5,-561.99993)"
     id="layer11">
    <rect
       width="24"
       height="24"
       x="-24.000055"
       y="561.99994"
       transform="scale(-1,1)"
       id="rect12767"
       style="opacity:0;fill:#ffffff;fill-opacity:1;stroke:none;display:inline" />
    <path
       d="M 8.3277262,567.01448 C 6.5360407,566.92861 4.7165813,567.52361 3.2906648,568.8191 C 0.43883209,571.41007 0.2237491,575.86291 2.814722,578.71474 C 5.4056953,581.56657 9.858533,581.78166 12.710366,579.19068 C 13.121079,578.8183 13.152154,578.18348 12.779774,577.77277 C 12.407395,577.36206 11.772574,577.33098 11.361861,577.70336 C 9.3109605,579.56667 6.1653465,579.41714 4.3020433,577.36624 C 2.4387401,575.31533 2.5882685,572.16972 4.6391694,570.30642 C 6.6900702,568.44311 9.8356845,568.59264 11.698988,570.64354 C 12.281021,571.28418 12.605331,571.86991 12.829352,572.70596 C 12.893056,573.08019 13.163144,573.3861 13.526601,573.49567 C 13.890058,573.60524 14.284218,573.49959 14.544148,573.22292 C 14.804078,572.94626 14.884961,572.54628 14.752954,572.19036 C 14.457772,571.08872 13.953231,570.13918 13.186309,569.29504 C 11.890822,567.86912 10.119412,567.10035 8.3277262,567.01448 z"
       id="path3538"
       style="fill:#bebebe;fill-opacity:1;stroke:none;stroke-width:3.15163946;stroke-linecap:round;stroke-miterlimit:4;stroke-dasharray:none;stroke-opacity:1;display:inline" />
    <path
       d="M 18.4976,566.99798 C 16.576538,566.99798 14.997665,568.57685 14.997666,570.49791 C 14.997666,572.41898 16.576538,573.99785 18.4976,573.99785 C 18.875466,574.03301 19.240679,573.85128 19.440501,573.52865 C 19.640323,573.20602 19.640323,572.79809 19.440501,572.47546 C 19.240679,572.15283 18.875466,571.97109 18.4976,572.00625 C 17.658663,572.00625 17.003904,571.33685 17.003904,570.49791 C 17.003904,569.65898 17.658663,569.00422 18.4976,569.00422 C 19.032387,569.00422 19.396391,569.17368 19.713059,569.60463 C 19.907108,569.93043 20.268737,570.11846 20.646897,570.09018 C 21.025058,570.06189 21.354692,569.82216 21.498115,569.47111 C 21.641538,569.12006 21.574076,568.71809 21.323907,568.4331 C 20.665603,567.53722 19.60934,566.99798 18.4976,566.99798 z"
       id="path3540"
       style="fill:#bebebe;fill-opacity:1;stroke:none;stroke-width:4.26793575;stroke-linecap:round;stroke-linejoin:miter;stroke-miterlimit:4;stroke-dasharray:none;stroke-opacity:1;display:inline" />
    <path
       d="M 18.313769,572.01104 C 17.752362,572.03924 17.320711,572.50555 17.349649,573.05257 C 17.378588,573.59959 17.857157,574.02018 18.418564,573.99199 C 19.845538,573.99199 20.996536,575.09307 20.996536,576.48348 C 20.996536,577.87389 19.845538,578.9954 18.418564,578.9954 C 17.208489,578.9954 16.258579,578.27588 15.945388,577.13699 C 15.878971,576.76905 15.605083,576.46916 15.237735,576.36216 C 14.870386,576.25515 14.472516,576.35937 14.209744,576.63142 C 13.946972,576.90347 13.864318,577.29675 13.99619,577.64754 C 14.534991,579.60685 16.3368,580.95592 18.418564,580.95592 C 20.941799,580.95592 23.008612,578.94207 23.008611,576.48348 C 23.008611,574.0249 20.941799,572.01104 18.418564,572.01104 C 18.383656,572.00928 18.348677,572.00928 18.313769,572.01104 L 18.313769,572.01104 z"
       id="path3540-3"
       style="fill:#bebebe;fill-opacity:1;stroke:none;stroke-width:3.02094817;stroke-linecap:round;stroke-linejoin:miter;stroke-miterlimit:4;stroke-dasharray:none;stroke-opacity:1;display:inline" />
    <path
       d="M 13.625,571.40625 C 13.34375,571.44972 13.094341,571.61096 12.939242,571.84957 C 12.784144,572.08818 12.738048,572.38157 12.8125,572.65625 L 14.03125,577.6875 C 14.08941,578.06001 14.352122,578.36816 14.710746,578.48451 C 15.06937,578.60086 15.46295,578.50564 15.728727,578.23823 C 15.994504,577.97081 16.087303,577.57665 15.96875,577.21875 L 14.75,572.1875 C 14.640137,571.67087 14.147466,571.32873 13.625,571.40625 L 13.625,571.40625 z"
       id="path4601"
       style="fill:#bebebe;fill-opacity:1;stroke:none;stroke-width:1.99999988;stroke-linecap:round;stroke-linejoin:miter;marker:none;stroke-miterlimit:4;stroke-dasharray:none;stroke-dashoffset:0;stroke-opacity:1;visibility:visible;display:inline;overflow:visible;enable-background:accumulate" />
  </g>
  <g
     transform="translate(-5.4882812e-5,-561.99993)"
     id="layer4" />
  <g
     transform="translate(-5.4882812e-5,-561.99993)"
     id="layer9" />
  <g
     transform="translate(-5.4882812e-5,-561.99993)"
     id="layer10" />
  <g
     transform="translate(-5.4882812e-5,-561.99993)"
     id="layer6" />
</svg>
