<?xml version="1.0" encoding="UTF-8" standalone="no"?>
<!-- Created with Inkscape (http://www.inkscape.org/) -->
<svg
   xmlns:svg="http://www.w3.org/2000/svg"
   xmlns="http://www.w3.org/2000/svg"
   version="1.0"
   width="24.026243"
   height="24.01672"
   id="svg7384">
  <title
     id="title9167">Moblin Icon Theme</title>
  <defs
     id="defs7386" />
  <g
     transform="translate(166.02624,-562)"
     id="layer3" />
  <g
     transform="translate(166.02624,-562)"
     id="layer5" />
  <g
     transform="translate(166.02624,-562)"
     id="layer7" />
  <g
     transform="translate(166.02624,-562)"
     id="layer2" />
  <g
     transform="translate(166.02624,-562)"
     id="layer8" />
  <g
     transform="translate(166.02624,-1514.3622)"
     id="layer1" />
  <g
     transform="translate(166.02624,-562)"
     id="layer11">
    <rect
       width="24"
       height="24"
       x="142"
       y="562"
       transform="scale(-1,1)"
       id="rect7554-0-0-1"
       style="opacity:0;fill:none;stroke:none;display:inline" />
    <path
       d="M -156.99499,567.98547 C -157.54899,567.98547 -157.99499,568.43147 -157.99499,568.98547 L -157.99499,577.04797 C -158.83575,576.40679 -159.86248,576.01672 -160.99499,576.01672 C -163.74457,576.01672 -165.99499,578.26714 -165.99499,581.01672 C -165.99499,583.7663 -163.74457,586.01672 -160.99499,586.01672 C -158.24541,586.01672 -155.99499,583.7663 -155.99499,581.01672 C -155.99469,581.00672 -155.99499,580.99562 -155.99499,580.98542 L -155.99499,568.98542 C -155.99499,568.43142 -156.44099,567.98542 -156.99499,567.98542 L -156.99499,567.98547 z"
       id="rect3605-24-5"
       style="opacity:0.3;fill:#bebebe;fill-opacity:1;stroke:none;display:inline" />
    <path
       d="M -153.03125,566.96875 C -153.39188,566.96365 -153.72733,567.15313 -153.90913,567.46462 C -154.09094,567.77612 -154.09094,568.16138 -153.90913,568.47288 C -153.72733,568.78437 -153.39188,568.97385 -153.03125,568.96875 L -143.03125,568.96875 C -142.67062,568.97385 -142.33517,568.78437 -142.15337,568.47288 C -141.97156,568.16138 -141.97156,567.77612 -142.15337,567.46462 C -142.33517,567.15313 -142.67062,566.96365 -143.03125,566.96875 L -153.03125,566.96875 z"
       id="path11169-2-5"
       style="fill:#729fcf;fill-opacity:1;stroke:none;stroke-width:1.99999988;stroke-linecap:round;stroke-linejoin:miter;marker:none;stroke-miterlimit:4;stroke-dasharray:none;stroke-dashoffset:0;stroke-opacity:1;visibility:visible;display:inline;overflow:visible;enable-background:accumulate" />
    <path
       d="M -153.03125,570.96875 C -153.39188,570.96365 -153.72733,571.15313 -153.90913,571.46462 C -154.09094,571.77612 -154.09094,572.16138 -153.90913,572.47288 C -153.72733,572.78437 -153.39188,572.97385 -153.03125,572.96875 L -143.03125,572.96875 C -142.67062,572.97385 -142.33517,572.78437 -142.15337,572.47288 C -141.97156,572.16138 -141.97156,571.77612 -142.15337,571.46462 C -142.33517,571.15313 -142.67062,570.96365 -143.03125,570.96875 L -153.03125,570.96875 z"
       id="path11192-4-7"
       style="fill:#729fcf;fill-opacity:1;stroke:none;stroke-width:1.99999988;stroke-linecap:round;stroke-linejoin:miter;marker:none;stroke-miterlimit:4;stroke-dasharray:none;stroke-dashoffset:0;stroke-opacity:1;visibility:visible;display:inline;overflow:visible;enable-background:accumulate" />
    <path
       d="M -153.03125,574.96875 C -153.39188,574.96365 -153.72733,575.15313 -153.90913,575.46462 C -154.09094,575.77612 -154.09094,576.16138 -153.90913,576.47288 C -153.72733,576.78437 -153.39188,576.97385 -153.03125,576.96875 L -143.03125,576.96875 C -142.67062,576.97385 -142.33517,576.78437 -142.15337,576.47288 C -141.97156,576.16138 -141.97156,575.77612 -142.15337,575.46462 C -142.33517,575.15313 -142.67062,574.96365 -143.03125,574.96875 L -153.03125,574.96875 z"
       id="path11194-7-4"
       style="fill:#729fcf;fill-opacity:1;stroke:none;stroke-width:1.99999988;stroke-linecap:round;stroke-linejoin:miter;marker:none;stroke-miterlimit:4;stroke-dasharray:none;stroke-dashoffset:0;stroke-opacity:1;visibility:visible;display:inline;overflow:visible;enable-background:accumulate" />
    <path
       d="M -153.03125,578.96875 C -153.39188,578.96365 -153.72733,579.15313 -153.90913,579.46462 C -154.09094,579.77612 -154.09094,580.16138 -153.90913,580.47288 C -153.72733,580.78437 -153.39188,580.97385 -153.03125,580.96875 L -143.03125,580.96875 C -142.67062,580.97385 -142.33517,580.78437 -142.15337,580.47288 C -141.97156,580.16138 -141.97156,579.77612 -142.15337,579.46462 C -142.33517,579.15313 -142.67062,578.96365 -143.03125,578.96875 L -153.03125,578.96875 z"
       id="path11196-5-0"
       style="fill:#729fcf;fill-opacity:1;stroke:none;stroke-width:1.99999988;stroke-linecap:round;stroke-linejoin:miter;marker:none;stroke-miterlimit:4;stroke-dasharray:none;stroke-dashoffset:0;stroke-opacity:1;visibility:visible;display:inline;overflow:visible;enable-background:accumulate" />
    <path
       d="M 622.9375,955.96503 A 0.9375,0.9375 0 1 1 621.0625,955.96503 A 0.9375,0.9375 0 1 1 622.9375,955.96503 z"
       transform="matrix(1.0666667,0,0,1.0666667,-824.49291,-442.7143)"
       id="path11369"
       style="fill:#bebebe;fill-opacity:1;stroke:none;stroke-width:1.99999988;marker:none;visibility:visible;display:inline;overflow:visible;enable-background:accumulate" />
    <path
       d="M 622.9375,955.96503 A 0.9375,0.9375 0 1 1 621.0625,955.96503 A 0.9375,0.9375 0 1 1 622.9375,955.96503 z"
       transform="matrix(1.0666667,0,0,1.0666667,-824.49293,-434.71431)"
       id="path11371"
       style="fill:#bebebe;fill-opacity:1;stroke:none;stroke-width:1.99999988;marker:none;visibility:visible;display:inline;overflow:visible;enable-background:accumulate" />
    <path
       d="M 622.9375,955.96503 A 0.9375,0.9375 0 1 1 621.0625,955.96503 A 0.9375,0.9375 0 1 1 622.9375,955.96503 z"
       transform="matrix(1.0666667,0,0,1.0666667,-821.49293,-435.71431)"
       id="path11373"
       style="fill:#bebebe;fill-opacity:1;stroke:none;stroke-width:1.99999988;marker:none;visibility:visible;display:inline;overflow:visible;enable-background:accumulate" />
    <path
       d="M 622.9375,955.96503 A 0.9375,0.9375 0 1 1 621.0625,955.96503 A 0.9375,0.9375 0 1 1 622.9375,955.96503 z"
       transform="matrix(1.0666667,0,0,1.0666667,-827.49293,-435.71431)"
       id="path11375"
       style="fill:#bebebe;fill-opacity:1;stroke:none;stroke-width:1.99999988;marker:none;visibility:visible;display:inline;overflow:visible;enable-background:accumulate" />
    <path
       d="M 622.9375,955.96503 A 0.9375,0.9375 0 1 1 621.0625,955.96503 A 0.9375,0.9375 0 1 1 622.9375,955.96503 z"
       transform="matrix(1.0666667,0,0,1.0666667,-828.49293,-438.7143)"
       id="path11377"
       style="fill:#bebebe;fill-opacity:1;stroke:none;stroke-width:1.99999988;marker:none;visibility:visible;display:inline;overflow:visible;enable-background:accumulate" />
    <path
       d="M 622.9375,955.96503 A 0.9375,0.9375 0 1 1 621.0625,955.96503 A 0.9375,0.9375 0 1 1 622.9375,955.96503 z"
       transform="matrix(1.0666667,0,0,1.0666667,-827.49293,-441.7143)"
       id="path11379"
       style="fill:#bebebe;fill-opacity:1;stroke:none;stroke-width:1.99999988;marker:none;visibility:visible;display:inline;overflow:visible;enable-background:accumulate" />
    <path
       d="M 622.9375,955.96503 A 0.9375,0.9375 0 1 1 621.0625,955.96503 A 0.9375,0.9375 0 1 1 622.9375,955.96503 z"
       transform="matrix(1.0666667,0,0,1.0666667,-820.49293,-441.7143)"
       id="path11381"
       style="fill:#bebebe;fill-opacity:1;stroke:none;stroke-width:1.99999988;marker:none;visibility:visible;display:inline;overflow:visible;enable-background:accumulate" />
    <path
       d="M 622.9375,955.96503 A 0.9375,0.9375 0 1 1 621.0625,955.96503 A 0.9375,0.9375 0 1 1 622.9375,955.96503 z"
       transform="matrix(1.0666667,0,0,1.0666667,-820.49293,-438.7143)"
       id="path11388"
       style="fill:#bebebe;fill-opacity:1;stroke:none;stroke-width:1.99999988;marker:none;visibility:visible;display:inline;overflow:visible;enable-background:accumulate" />
    <path
       d="M 622.9375,955.96503 A 0.9375,0.9375 0 1 1 621.0625,955.96503 A 0.9375,0.9375 0 1 1 622.9375,955.96503 z"
       transform="matrix(1.0666667,0,0,1.0666667,-820.49293,-444.7143)"
       id="path11390"
       style="fill:#bebebe;fill-opacity:1;stroke:none;stroke-width:1.99999988;marker:none;visibility:visible;display:inline;overflow:visible;enable-background:accumulate" />
    <path
       d="M 622.9375,955.96503 A 0.9375,0.9375 0 1 1 621.0625,955.96503 A 0.9375,0.9375 0 1 1 622.9375,955.96503 z"
       transform="matrix(1.0666667,0,0,1.0666667,-820.49293,-447.7143)"
       id="path11392"
       style="fill:#bebebe;fill-opacity:1;stroke:none;stroke-width:1.99999988;marker:none;visibility:visible;display:inline;overflow:visible;enable-background:accumulate" />
    <path
       d="M 622.9375,955.96503 A 0.9375,0.9375 0 1 1 621.0625,955.96503 A 0.9375,0.9375 0 1 1 622.9375,955.96503 z"
       transform="matrix(1.0666667,0,0,1.0666667,-820.49293,-450.7143)"
       id="path11394"
       style="fill:#bebebe;fill-opacity:1;stroke:none;stroke-width:1.99999988;marker:none;visibility:visible;display:inline;overflow:visible;enable-background:accumulate" />
  </g>
  <g
     transform="translate(166.02624,-562)"
     id="layer4" />
  <g
     transform="translate(166.02624,-562)"
     id="layer9" />
  <g
     transform="translate(166.02624,-562)"
     id="layer10" />
  <g
     transform="translate(166.02624,-562)"
     id="layer6" />
</svg>
