<?xml version="1.0" encoding="UTF-8" standalone="no"?>
<!-- Created with Inkscape (http://www.inkscape.org/) -->
<svg
   xmlns:svg="http://www.w3.org/2000/svg"
   xmlns="http://www.w3.org/2000/svg"
   version="1.0"
   width="24"
   height="24"
   id="svg7384">
  <defs
     id="defs7386" />
  <g
     transform="translate(150,-174)"
     id="layer3" />
  <g
     transform="translate(150,-174)"
     id="layer5" />
  <g
     transform="translate(150,-174)"
     id="layer7" />
  <g
     transform="translate(150,-174)"
     id="layer2" />
  <g
     transform="translate(150,-174)"
     id="layer8" />
  <g
     transform="translate(150,-1126.3622)"
     id="layer1" />
  <g
     transform="translate(150,-174)"
     id="layer4">
    <rect
       width="24"
       height="24"
       x="126"
       y="174"
       transform="scale(-1,1)"
       id="rect6505"
       style="opacity:0;fill:#ffffff;fill-opacity:1;stroke:none;display:inline" />
    <path
       d="M -130.96875,179.6875 L -131.65625,180.375 L -139.6875,188.25 L -140,188.5625 L -140,188.96875 L -140,191 L -140,192 L -139,192 L -137,192 L -136.59375,192 L -136.28125,191.6875 L -128.34375,183.65625 L -127.65625,182.96875 L -128.375,182.25 L -130.28125,180.375 L -130.96875,179.6875 z M -130.96875,182.5 L -130.46875,182.96875 L -137.40625,190 L -138,190 L -138,189.375 L -130.96875,182.5 z"
       id="path6515"
       style="fill:#bebebe;fill-opacity:1;stroke:none;stroke-width:1.99999952;stroke-linecap:butt;stroke-linejoin:miter;marker:none;stroke-miterlimit:4;stroke-dasharray:none;stroke-dashoffset:0;stroke-opacity:1;visibility:visible;display:inline;overflow:visible;enable-background:accumulate" />
    <path
       d="M -145.15625,176 C -146.72127,176 -148,177.27874 -148,178.84375 L -148,195.15625 C -148,196.72126 -146.72127,198 -145.15625,198 L -132.84375,198 C -131.27873,198 -130,196.72126 -130,195.15625 L -130,189.96875 C -129.9949,189.60812 -130.18438,189.27268 -130.49588,189.09087 C -130.80737,188.90907 -131.19263,188.90907 -131.50412,189.09087 C -131.81562,189.27268 -132.0051,189.60812 -132,189.96875 L -132,195.15625 C -132,195.64785 -132.35215,196 -132.84375,196 L -145.15625,196 C -145.64786,196 -146,195.64786 -146,195.15625 L -146,178.84375 C -146,178.35215 -145.64785,178 -145.15625,178 L -132.84375,178 C -132.5717,178 -132.34434,178.12763 -132.1875,178.3125 C -131.96369,178.61635 -131.5879,178.76834 -131.21579,178.70552 C -130.84367,178.6427 -130.53861,178.37577 -130.42695,178.01529 C -130.31529,177.6548 -130.41605,177.26216 -130.6875,177 C -131.21056,176.38343 -131.97767,176 -132.84375,176 L -145.15625,176 z"
       id="rect6568"
       style="fill:#bebebe;fill-opacity:1;stroke:none;stroke-width:1.99999952;stroke-linecap:round;stroke-linejoin:miter;marker:none;stroke-miterlimit:4;stroke-dashoffset:0;stroke-opacity:1;visibility:visible;display:inline;overflow:visible;enable-background:accumulate" />
    <path
       d="M -143.49462,178.9854 C -144.31714,178.9854 -145.01489,179.68315 -145.01489,180.50568 C -145.01489,181.32821 -144.31714,181.99061 -143.49462,181.99061 C -142.67209,181.99061 -142.0097,181.32821 -142.0097,180.50568 C -142.0097,179.68315 -142.67209,178.9854 -143.49462,178.9854 z M -143.49462,180.01071 C -143.21316,180.01071 -142.99964,180.22421 -142.99964,180.50568 C -142.99964,180.78715 -143.21314,181.00066 -143.49462,181.00066 C -143.77608,181.00066 -143.98959,180.78716 -143.98959,180.50568 C -143.98959,180.22422 -143.77609,180.01071 -143.49462,180.01071 z"
       id="path6571"
       style="fill:#bebebe;fill-opacity:1;stroke:none;stroke-width:0.8838827;stroke-linecap:round;stroke-linejoin:miter;marker:none;stroke-miterlimit:4;stroke-dasharray:none;stroke-dashoffset:0;stroke-opacity:1;visibility:visible;display:inline;overflow:visible;enable-background:accumulate" />
    <path
       d="M -139.49461,178.9854 C -140.31714,178.9854 -141.01489,179.68315 -141.01489,180.50568 C -141.01489,181.32821 -140.31714,181.99061 -139.49461,181.99061 C -138.67208,181.99061 -138.00969,181.32821 -138.00969,180.50568 C -138.00969,179.68315 -138.67208,178.9854 -139.49461,178.9854 z M -139.49461,180.01071 C -139.21315,180.01071 -138.99964,180.22421 -138.99964,180.50568 C -138.99964,180.78715 -139.21314,181.00066 -139.49461,181.00066 C -139.77607,181.00066 -139.98959,180.78716 -139.98959,180.50568 C -139.98959,180.22422 -139.77608,180.01071 -139.49461,180.01071 z"
       id="path6573"
       style="fill:#bebebe;fill-opacity:1;stroke:none;stroke-width:0.8838827;stroke-linecap:round;stroke-linejoin:miter;marker:none;stroke-miterlimit:4;stroke-dasharray:none;stroke-dashoffset:0;stroke-opacity:1;visibility:visible;display:inline;overflow:visible;enable-background:accumulate" />
    <path
       d="M -135.49461,178.9854 C -136.31714,178.9854 -137.01489,179.68315 -137.01489,180.50568 C -137.01489,181.32821 -136.31714,181.99061 -135.49461,181.99061 C -134.67208,181.99061 -134.00969,181.32821 -134.00969,180.50568 C -134.00969,179.68315 -134.67208,178.9854 -135.49461,178.9854 z M -135.49461,180.01071 C -135.21315,180.01071 -134.99964,180.22421 -134.99964,180.50568 C -134.99964,180.78715 -135.21314,181.00066 -135.49461,181.00066 C -135.77607,181.00066 -135.98959,180.78716 -135.98959,180.50568 C -135.98959,180.22422 -135.77608,180.01071 -135.49461,180.01071 z"
       id="path6576"
       style="fill:#bebebe;fill-opacity:1;stroke:none;stroke-width:0.8838827;stroke-linecap:round;stroke-linejoin:miter;marker:none;stroke-miterlimit:4;stroke-dasharray:none;stroke-dashoffset:0;stroke-opacity:1;visibility:visible;display:inline;overflow:visible;enable-background:accumulate" />
    <path
       d="M -143.625,185 C -143.90114,185.02589 -144.10401,185.27073 -144.07812,185.54688 C -144.05224,185.82302 -143.80739,186.02589 -143.53125,186 L -138.40625,186 C -138.22593,186.00255 -138.05821,185.90781 -137.96731,185.75206 C -137.8764,185.59631 -137.8764,185.40369 -137.96731,185.24794 C -138.05821,185.09219 -138.22593,184.99745 -138.40625,185 L -143.53125,185 C -143.56243,184.99706 -143.59382,184.99706 -143.625,185 z"
       id="path6579"
       style="fill:#bebebe;fill-opacity:1;stroke:none;stroke-width:1px;stroke-linecap:round;stroke-linejoin:miter;stroke-opacity:1" />
    <path
       d="M -143.8125,188 C -144.08864,188.03452 -144.28452,188.28636 -144.25,188.5625 C -144.21548,188.83864 -143.96364,189.03452 -143.6875,189 L -141.5,189 C -141.31968,189.00255 -141.15196,188.90781 -141.06106,188.75206 C -140.97015,188.59631 -140.97015,188.40369 -141.06106,188.24794 C -141.15196,188.09219 -141.31968,187.99745 -141.5,188 L -143.6875,188 C -143.729,187.99477 -143.771,187.99477 -143.8125,188 z"
       id="path6583"
       style="fill:#bebebe;fill-opacity:1;stroke:none;stroke-width:1px;stroke-linecap:round;stroke-linejoin:miter;stroke-opacity:1" />
    <path
       d="M -143.8125,191 C -144.08864,191.03452 -144.28452,191.28636 -144.25,191.5625 C -144.21548,191.83864 -143.96364,192.03452 -143.6875,192 L -141.5,192 C -141.31968,192.00255 -141.15196,191.90781 -141.06106,191.75206 C -140.97015,191.59631 -140.97015,191.40369 -141.06106,191.24794 C -141.15196,191.09219 -141.31968,190.99745 -141.5,191 L -143.6875,191 C -143.729,190.99477 -143.771,190.99477 -143.8125,191 z"
       id="path6585"
       style="fill:#bebebe;fill-opacity:1;stroke:none;stroke-width:1px;stroke-linecap:round;stroke-linejoin:miter;stroke-opacity:1" />
  </g>
  <g
     transform="translate(150,-174)"
     id="layer9" />
  <g
     transform="translate(150,-174)"
     id="layer6" />
</svg>
