<?xml version="1.0" encoding="UTF-8" standalone="no"?>
<!-- Created with Inkscape (http://www.inkscape.org/) -->
<svg
   xmlns:svg="http://www.w3.org/2000/svg"
   xmlns="http://www.w3.org/2000/svg"
   version="1.0"
   width="24"
   height="24"
   id="svg7384">
  <title
     id="title9167">Moblin Icon Theme</title>
  <defs
     id="defs7386" />
  <g
     transform="translate(234,-232)"
     id="layer3" />
  <g
     transform="translate(234,-232)"
     id="layer5" />
  <g
     transform="translate(234,-232)"
     id="layer7" />
  <g
     transform="translate(234,-232)"
     id="layer2" />
  <g
     transform="translate(234,-232)"
     id="layer8" />
  <g
     transform="translate(234,-1184.3622)"
     id="layer1" />
  <g
     transform="translate(234,-232)"
     id="layer11" />
  <g
     transform="translate(234,-232)"
     id="layer4">
    <rect
       width="24"
       height="24"
       x="-234"
       y="232"
       id="rect6373"
       style="opacity:0;fill:#ffffff;fill-opacity:1;stroke:none;display:inline" />
    <path
       d="M -229,232 C -230.6447,232 -232,233.3553 -232,235 L -232,253 C -232,254.6447 -230.6447,256 -229,256 L -215,256 C -213.3553,256 -211.99999,254.6447 -212,253 L -212,235 C -212,233.3553 -213.3553,232 -215,232 L -229,232 z M -229,234 L -215,234 C -214.4287,234 -214,234.4287 -214,235 L -214,253 C -214,253.57129 -214.4287,254 -215,254 L -229,254 C -229.5713,254 -230,253.5713 -230,253 L -230,235 C -230,234.4287 -229.5713,234 -229,234 z"
       id="rect6395"
       style="fill:#bebebe;fill-opacity:1;stroke:none;stroke-width:1.99999988;marker:none;stroke-miterlimit:4;stroke-dasharray:none;stroke-opacity:1;visibility:visible;display:inline;overflow:visible;enable-background:accumulate" />
    <path
       d="M -229,235 L -229,235.5 L -229,240.5 L -229,241 L -228.5,241 L -216.5,241 L -216,241 L -216,240.5 L -216,235.5 L -216,235 L -216.5,235 L -228.5,235 L -229,235 z M -228,236 L -217,236 L -217,240 L -228,240 L -228,236 z"
       id="rect6397"
       style="fill:#bebebe;fill-opacity:1;stroke:none;stroke-width:0.99999994;marker:none;stroke-opacity:1;visibility:visible;display:inline;overflow:visible;enable-background:accumulate" />
    <path
       d="M -227.4375,242 C -228.29346,242 -229,242.70655 -229,243.5625 L -229,245.4375 C -229,246.29346 -228.29345,247 -227.4375,247 L -224.5625,247 C -223.70654,247 -223,246.29346 -223,245.4375 L -223,243.5625 C -223,242.70654 -223.70655,242 -224.5625,242 L -227.4375,242 z M -227.4375,243 L -224.5625,243 C -224.24326,243 -224,243.24325 -224,243.5625 L -224,245.4375 C -224,245.75676 -224.24325,246 -224.5625,246 L -227.4375,246 C -227.75675,246 -228,245.75675 -228,245.4375 L -228,243.5625 C -228,243.24326 -227.75675,243 -227.4375,243 z"
       id="rect6399"
       style="fill:#bebebe;fill-opacity:1;stroke:none;stroke-width:1;marker:none;stroke-opacity:1;visibility:visible;display:inline;overflow:visible;enable-background:accumulate" />
    <path
       d="M -220.4375,242 C -221.29346,242 -222,242.70655 -222,243.5625 L -222,245.4375 C -222,246.29346 -221.29345,247 -220.4375,247 L -217.5625,247 C -216.70654,247 -216,246.29346 -216,245.4375 L -216,243.5625 C -216,242.70654 -216.70655,242 -217.5625,242 L -220.4375,242 z M -220.4375,243 L -217.5625,243 C -217.24326,243 -217,243.24325 -217,243.5625 L -217,245.4375 C -217,245.75676 -217.24325,246 -217.5625,246 L -220.4375,246 C -220.75675,246 -221,245.75675 -221,245.4375 L -221,243.5625 C -221,243.24326 -220.75675,243 -220.4375,243 z"
       id="rect6401"
       style="fill:#bebebe;fill-opacity:1;stroke:none;stroke-width:1;marker:none;stroke-opacity:1;visibility:visible;display:inline;overflow:visible;enable-background:accumulate" />
    <path
       d="M -227.625,248 C -228.38302,248 -229,248.61698 -229,249.375 L -229,251.625 C -229,252.38302 -228.38302,253 -227.625,253 L -224.375,253 C -223.61698,253 -223,252.38302 -223,251.625 L -223,249.375 C -223,248.61698 -223.61698,248 -224.375,248 L -227.625,248 z M -227.625,249 L -224.375,249 C -224.15368,249 -224,249.15368 -224,249.375 L -224,251.625 C -224,251.84631 -224.15368,252 -224.375,252 L -227.625,252 C -227.84632,252 -228,251.84632 -228,251.625 L -228,249.375 C -228,249.15368 -227.84632,249 -227.625,249 z"
       id="rect6403"
       style="fill:#bebebe;fill-opacity:1;stroke:none;stroke-width:1;marker:none;stroke-opacity:1;visibility:visible;display:inline;overflow:visible;enable-background:accumulate" />
    <path
       d="M -220.34375,248 C -221.24867,248 -222,248.75133 -222,249.65625 L -222,251.34375 C -222,252.24867 -221.24867,253 -220.34375,253 L -217.65625,253 C -216.75133,253 -216,252.24867 -216,251.34375 L -216,249.65625 C -216,248.75133 -216.75133,248 -217.65625,248 L -220.34375,248 z M -220.34375,249 L -217.65625,249 C -217.28803,249 -217,249.28803 -217,249.65625 L -217,251.34375 C -217,251.71197 -217.28803,252 -217.65625,252 L -220.34375,252 C -220.71197,252 -221,251.71197 -221,251.34375 L -221,249.65625 C -221,249.28803 -220.71197,249 -220.34375,249 z"
       id="rect6410"
       style="fill:#bebebe;fill-opacity:1;stroke:none;stroke-width:1;marker:none;stroke-opacity:1;visibility:visible;display:inline;overflow:visible;enable-background:accumulate" />
  </g>
  <g
     transform="translate(234,-232)"
     id="layer9" />
  <g
     transform="translate(234,-232)"
     id="layer10" />
  <g
     transform="translate(234,-232)"
     id="layer6" />
</svg>
