<?xml version="1.0" encoding="UTF-8" standalone="no"?>
<!-- Created with Inkscape (http://www.inkscape.org/) -->
<svg
   xmlns:svg="http://www.w3.org/2000/svg"
   xmlns="http://www.w3.org/2000/svg"
   version="1.0"
   width="24"
   height="24.000067"
   id="svg7384">
  <title
     id="title9167">Moblin Icon Theme</title>
  <defs
     id="defs7386" />
  <g
     transform="translate(234,-201.99993)"
     id="layer3" />
  <g
     transform="translate(234,-201.99993)"
     id="layer5" />
  <g
     transform="translate(234,-201.99993)"
     id="layer7" />
  <g
     transform="translate(234,-201.99993)"
     id="layer2" />
  <g
     transform="translate(234,-201.99993)"
     id="layer8" />
  <g
     transform="translate(234,-1154.3621)"
     id="layer1" />
  <g
     transform="translate(234,-201.99993)"
     id="layer11" />
  <g
     transform="translate(234,-201.99993)"
     id="layer4">
    <rect
       width="24"
       height="24"
       x="-234"
       y="201.99994"
       id="rect6221"
       style="opacity:0;fill:#ffffff;fill-opacity:1;stroke:none;display:inline" />
    <g
       transform="translate(-280.82747,-167.36225)"
       id="g6352">
      <path
         d="M -25.809396,202.41983 A 22.98097,22.98097 0 0 1 -48.790367,179.43886"
         transform="matrix(4.559253e-2,0,0,-4.413358e-2,52.2245,387.29576)"
         id="path6223"
         style="fill:none;stroke:#bebebe;stroke-width:44.58600998;stroke-linecap:round;stroke-miterlimit:4;stroke-dasharray:none;stroke-dashoffset:0;stroke-opacity:1;display:inline" />
      <path
         d="M -25.809396,202.41983 A 22.98097,22.98097 0 0 1 -48.790367,179.43886"
         transform="matrix(4.559253e-2,0,0,4.413358e-2,52.229444,377.44297)"
         id="path6225"
         style="fill:none;stroke:#bebebe;stroke-width:44.58600998;stroke-linecap:round;stroke-miterlimit:4;stroke-dasharray:none;stroke-dashoffset:0;stroke-opacity:1;display:inline" />
      <path
         d="M -25.809396,202.41983 A 22.98097,22.98097 0 0 1 -48.790367,179.43886"
         transform="matrix(4.559253e-2,0,0,-4.413358e-2,56.027871,385.29576)"
         id="path6227"
         style="fill:none;stroke:#bebebe;stroke-width:44.58600998;stroke-linecap:round;stroke-miterlimit:4;stroke-dasharray:none;stroke-dashoffset:0;stroke-opacity:1;display:inline" />
      <path
         d="M -25.809396,202.41983 A 22.98097,22.98097 0 0 1 -48.790367,179.43886"
         transform="matrix(-4.559253e-2,0,0,-4.413358e-2,56.468954,385.29576)"
         id="path6229"
         style="fill:none;stroke:#bebebe;stroke-width:44.58600998;stroke-linecap:round;stroke-miterlimit:4;stroke-dasharray:none;stroke-dashoffset:0;stroke-opacity:1;display:inline" />
      <path
         d="M -25.809396,202.41983 A 22.98097,22.98097 0 0 1 -48.790367,179.43886"
         transform="matrix(-4.559253e-2,0,0,-4.413358e-2,59.728987,387.28153)"
         id="path6231"
         style="fill:none;stroke:#bebebe;stroke-width:44.58600998;stroke-linecap:round;stroke-miterlimit:4;stroke-dasharray:none;stroke-dashoffset:0;stroke-opacity:1;display:inline" />
      <path
         d="M -25.809396,202.41983 A 22.98097,22.98097 0 0 1 -48.790367,179.43886"
         transform="matrix(-4.559253e-2,0,0,4.413358e-2,59.728987,377.44297)"
         id="path6235"
         style="fill:none;stroke:#bebebe;stroke-width:44.58600998;stroke-linecap:round;stroke-miterlimit:4;stroke-dasharray:none;stroke-dashoffset:0;stroke-opacity:1;display:inline" />
      <path
         d="M 51.827469,386.37645 L 51.086678,386.37645"
         id="path6237"
         style="fill:none;stroke:#bebebe;stroke-width:2;stroke-linecap:round;stroke-linejoin:round;marker:none;stroke-miterlimit:4;stroke-dasharray:none;stroke-dashoffset:0;stroke-opacity:1;visibility:visible;display:inline;overflow:visible;enable-background:accumulate" />
      <path
         d="M 50,385.27279 L 50,379.36225"
         id="path6239"
         style="fill:none;stroke:#bebebe;stroke-width:2;stroke-linecap:round;stroke-linejoin:round;marker:none;stroke-miterlimit:4;stroke-dasharray:none;stroke-dashoffset:0;stroke-opacity:1;visibility:visible;display:inline;overflow:visible;enable-background:accumulate" />
      <path
         d="M 51.086678,378.36225 L 53.803372,378.36225"
         id="path6241"
         style="fill:none;stroke:#bebebe;stroke-width:2;stroke-linecap:round;stroke-linejoin:round;marker:none;stroke-miterlimit:4;stroke-dasharray:none;stroke-dashoffset:0;stroke-opacity:1;visibility:visible;display:inline;overflow:visible;enable-background:accumulate" />
      <path
         d="M 54.890049,376.36225 L 57.606743,376.36225"
         id="path6243"
         style="fill:none;stroke:#bebebe;stroke-width:2;stroke-linecap:round;stroke-linejoin:round;marker:none;stroke-miterlimit:4;stroke-dasharray:none;stroke-dashoffset:0;stroke-opacity:1;visibility:visible;display:inline;overflow:visible;enable-background:accumulate" />
      <path
         d="M 58.693421,378.36225 L 60.866776,378.36225"
         id="path6245"
         style="fill:none;stroke:#bebebe;stroke-width:2;stroke-linecap:round;stroke-linejoin:round;marker:none;stroke-miterlimit:4;stroke-dasharray:none;stroke-dashoffset:0;stroke-opacity:1;visibility:visible;display:inline;overflow:visible;enable-background:accumulate" />
      <path
         d="M 61.953454,379.36225 L 61.953454,385.28977"
         id="path6248"
         style="fill:none;stroke:#bebebe;stroke-width:2;stroke-linecap:round;stroke-linejoin:round;stroke-miterlimit:4;stroke-dasharray:none;stroke-opacity:1" />
      <path
         d="M 60.900735,386.39343 L 59.827469,386.39343"
         id="path6250"
         style="fill:none;stroke:#bebebe;stroke-width:2;stroke-linecap:round;stroke-linejoin:round;marker:none;stroke-miterlimit:4;stroke-dasharray:none;stroke-dashoffset:0;stroke-opacity:1;visibility:visible;display:inline;overflow:visible;enable-background:accumulate" />
      <path
         d="M 55.835406,380.39606 C 54.18293,380.39606 52.843344,381.73565 52.843344,383.38813 C 52.843344,385.0406 54.18293,386.38019 55.835406,386.38019 C 57.487883,386.38019 58.827469,385.0406 58.827469,383.38813 C 58.827469,381.73565 57.487883,380.39606 55.835406,380.39606 z M 55.367896,381.36225 C 56.202732,381.36225 56.863927,382.05461 56.863927,382.88945 C 56.863927,383.72428 56.202732,384.38548 55.367896,384.38548 C 54.533061,384.38548 53.840698,383.72428 53.840698,382.88945 C 53.840698,382.05461 54.533061,381.36225 55.367896,381.36225 z"
         id="path6252"
         style="fill:#bebebe;fill-opacity:1;stroke:none;display:inline" />
    </g>
    <path
       d="M -221.34375,204 C -221.89603,204.02589 -222.32276,204.49459 -222.29687,205.04687 C -222.27099,205.59916 -221.80228,206.02589 -221.25,206 L -212,206 L -212,224 C -213.67901,224 -226.32099,224 -228,224 C -227.9949,223.63936 -228.18438,223.30392 -228.49587,223.12211 C -228.80737,222.94031 -229.19263,222.94031 -229.50413,223.12211 C -229.81562,223.30392 -230.0051,223.63936 -230,224 L -230,225 C -229.99994,225.55226 -229.55226,225.99994 -229,226 C -229,226 -211,226 -211,226 C -210.44774,225.99994 -210.00006,225.55226 -210,225 L -210,205 C -210.00006,204.44774 -210.44774,204.00006 -211,204 L -221.25,204 C -221.28123,203.99853 -221.31252,203.99853 -221.34375,204 z"
       id="path5979-0"
       style="fill:#bebebe;fill-opacity:1;stroke:none;stroke-width:2;stroke-linecap:round;stroke-linejoin:round;stroke-miterlimit:4;stroke-dasharray:none;stroke-opacity:1" />
    <path
       d="M -220,205.99999 L -211.5625,205.99999 L -211.5625,207.99999 L -219.0625,207.99999 C -219.26832,207.30665 -219.18267,206.54045 -220,205.99999 z"
       id="rect6350"
       style="fill:#bebebe;fill-opacity:1;stroke:none;stroke-width:2;marker:none;visibility:visible;display:inline;overflow:visible;enable-background:accumulate" />
  </g>
  <g
     transform="translate(234,-201.99993)"
     id="layer9" />
  <g
     transform="translate(234,-201.99993)"
     id="layer10" />
  <g
     transform="translate(234,-201.99993)"
     id="layer6" />
</svg>
