<?xml version="1.0" encoding="UTF-8" standalone="no"?>
<!-- Created with Inkscape (http://www.inkscape.org/) -->

<svg
   xmlns:svg="http://www.w3.org/2000/svg"
   xmlns="http://www.w3.org/2000/svg"
   version="1.1"
   width="24"
   height="24"
   id="svg7384">
  <title
     id="title9167">Moblin Icon Theme</title>
  <defs
     id="defs7386" />
  <g
     transform="translate(262,-344)"
     id="layer3" />
  <g
     transform="translate(262,-344)"
     id="layer5" />
  <g
     transform="translate(262,-344)"
     id="layer7" />
  <g
     transform="translate(262,-344)"
     id="layer2" />
  <g
     transform="translate(262,-344)"
     id="layer8" />
  <g
     transform="translate(262,-1296.3622)"
     id="layer1" />
  <g
     transform="translate(262,-344)"
     id="layer11" />
  <g
     transform="translate(262,-344)"
     id="layer4">
    <rect
       width="24"
       height="24"
       x="-262"
       y="344"
       id="rect7866"
       style="opacity:0;fill:#ffffff;fill-opacity:1;stroke:none;display:inline" />
    <path
       d="m -251.125,346 a 1.0001,1.0001 0 0 0 -0.90625,1 l 0,6.8125 -2.40625,-1.6875 a 1.0001,1.0001 0 1 0 -1.15625,1.625 l 2.625,1.875 -2.5625,1.53125 a 1.0001,1.0001 0 1 0 1.03125,1.6875 l 2.46875,-1.46875 0,7.5625 a 1.0001,1.0001 0 0 0 1.65625,0.78125 l 6,-4.9375 a 1.0001,1.0001 0 0 0 -0.0625,-1.59375 l -4.875,-3.4375 4.8125,-2.90625 a 1.0001,1.0001 0 0 0 0.125,-1.625 l -6,-5 A 1.0001,1.0001 0 0 0 -251.125,346 z m 1.09375,3.125 3.28125,2.75 -3.28125,1.96875 0,-4.71875 z m 0,8.5625 3.375,2.40625 -3.375,2.75 0,-5.15625 z"
       id="path7868"
       style="font-size:medium;font-style:normal;font-variant:normal;font-weight:normal;font-stretch:normal;text-indent:0;text-align:start;text-decoration:none;line-height:normal;letter-spacing:normal;word-spacing:normal;text-transform:none;direction:ltr;block-progression:tb;writing-mode:lr-tb;text-anchor:start;color:#000000;fill:#bebebe;fill-opacity:1;stroke:none;stroke-width:2;marker:none;visibility:visible;display:inline;overflow:visible;enable-background:accumulate;font-family:Bitstream Vera Sans;-inkscape-font-specification:Bitstream Vera Sans" />
  </g>
  <g
     transform="translate(262,-344)"
     id="layer12" />
  <g
     transform="translate(262,-344)"
     id="layer9" />
  <g
     transform="translate(262,-344)"
     id="layer10" />
  <g
     transform="translate(262,-344)"
     id="layer6" />
</svg>
