<?xml version="1.0" encoding="UTF-8" standalone="no"?>
<!-- Created with Inkscape (http://www.inkscape.org/) -->
<svg
   xmlns:svg="http://www.w3.org/2000/svg"
   xmlns="http://www.w3.org/2000/svg"
   version="1.0"
   width="24"
   height="24"
   id="svg7384">
  <defs
     id="defs7386" />
  <g
     transform="translate(262,-202)"
     id="layer3" />
  <g
     transform="translate(262,-202)"
     id="layer5" />
  <g
     transform="translate(262,-202)"
     id="layer7" />
  <g
     transform="translate(262,-202)"
     id="layer2" />
  <g
     transform="translate(262,-202)"
     id="layer8" />
  <g
     transform="translate(262,-1154.3622)"
     id="layer1" />
  <g
     transform="translate(262,-202)"
     id="layer4">
    <rect
       width="24"
       height="24"
       x="-262"
       y="202"
       id="rect6589"
       style="opacity:0;fill:#ffffff;fill-opacity:1;stroke:none;display:inline" />
    <path
       d="M -250.0625,204 C -255.55579,204 -260.03126,208.47546 -260.03125,213.96875 C -260.03125,219.46204 -255.55578,223.9375 -250.0625,223.9375 C -244.56921,223.9375 -240.09375,219.46203 -240.09375,213.96875 C -240.09375,208.47546 -244.56922,204 -250.0625,204 z M -250.0625,206 C -245.65134,206 -242.09375,209.55759 -242.09375,213.96875 C -242.09375,218.37991 -245.65134,221.9375 -250.0625,221.9375 C -254.47366,221.9375 -258.03125,218.37991 -258.03125,213.96875 C -258.03126,209.55759 -254.47366,206 -250.0625,206 z"
       id="path6612"
       style="fill:#bebebe;fill-opacity:1;stroke:none;stroke-width:1.99999952;stroke-linecap:butt;stroke-linejoin:miter;marker:none;stroke-miterlimit:4;stroke-dasharray:none;stroke-dashoffset:0;stroke-opacity:1;visibility:visible;display:inline;overflow:visible;enable-background:accumulate" />
    <path
       d="M -250.05532,209.92932 C -252.2858,209.92932 -254.09961,211.74313 -254.0996,213.9736 C -254.0996,216.20408 -252.2858,218.03025 -250.05532,218.03025 C -247.82484,218.03025 -245.99867,216.20408 -245.99867,213.9736 C -245.99867,211.74313 -247.82484,209.92932 -250.05532,209.92932 z M -250.05532,210.93111 C -248.36591,210.93111 -247.00047,212.28419 -247.00047,213.9736 C -247.00047,215.66302 -248.36591,217.02846 -250.05532,217.02846 C -251.74474,217.02846 -253.09781,215.66302 -253.09781,213.9736 C -253.09781,212.28419 -251.74474,210.93111 -250.05532,210.93111 z"
       id="path6622"
       style="fill:#bebebe;fill-opacity:1;stroke:none;stroke-width:2.52671576;stroke-linecap:butt;stroke-linejoin:miter;marker:none;stroke-miterlimit:4;stroke-dasharray:none;stroke-dashoffset:0;stroke-opacity:1;visibility:visible;display:inline;overflow:visible;enable-background:accumulate" />
    <path
       d="M -241.79733,218.89477 L -242.53474,219.56999 C -241.76847,220.41055 -241.82746,221.70008 -242.66801,222.46635 C -243.50856,223.23263 -244.79809,223.17364 -245.56437,222.33309 C -245.65048,222.23863 -245.70864,222.16527 -245.7776,222.05767 L -246.62163,222.59962 C -246.52683,222.74755 -246.42014,222.87848 -246.30179,223.00831 C -245.17099,224.24871 -243.23318,224.33456 -241.99279,223.20377 C -240.75239,222.07298 -240.66653,220.13517 -241.79733,218.89477 z"
       id="path6624"
       style="fill:#bebebe;fill-opacity:1;stroke:none;stroke-width:3.51734686;stroke-linecap:butt;stroke-linejoin:miter;marker:none;stroke-miterlimit:4;stroke-dasharray:none;stroke-dashoffset:0;stroke-opacity:1;visibility:visible;display:inline;overflow:visible;enable-background:accumulate" />
    <path
       d="M -258.20266,218.89477 L -257.46525,219.56999 C -258.23152,220.41055 -258.17253,221.70008 -257.33198,222.46635 C -256.49143,223.23263 -255.2019,223.17364 -254.43562,222.33309 C -254.34951,222.23863 -254.29135,222.16527 -254.22239,222.05767 L -253.37836,222.59962 C -253.47316,222.74755 -253.57985,222.87848 -253.6982,223.00831 C -254.829,224.24871 -256.76681,224.33456 -258.0072,223.20377 C -259.2476,222.07298 -259.33346,220.13517 -258.20266,218.89477 z"
       id="path6626"
       style="fill:#bebebe;fill-opacity:1;stroke:none;stroke-width:3.51734686;stroke-linecap:butt;stroke-linejoin:miter;marker:none;stroke-miterlimit:4;stroke-dasharray:none;stroke-dashoffset:0;stroke-opacity:1;visibility:visible;display:inline;overflow:visible;enable-background:accumulate" />
    <path
       d="M -241.79733,209.10524 L -242.53474,208.43002 C -241.76847,207.58946 -241.82746,206.29993 -242.66801,205.53366 C -243.50856,204.76738 -244.79809,204.82637 -245.56437,205.66692 C -245.65048,205.76138 -245.70864,205.83474 -245.7776,205.94234 L -246.62163,205.40039 C -246.52683,205.25246 -246.42014,205.12153 -246.30179,204.9917 C -245.17099,203.7513 -243.23318,203.66545 -241.99279,204.79624 C -240.75239,205.92703 -240.66653,207.86484 -241.79733,209.10524 z"
       id="path6628"
       style="fill:#bebebe;fill-opacity:1;stroke:none;stroke-width:3.51734686;stroke-linecap:butt;stroke-linejoin:miter;marker:none;stroke-miterlimit:4;stroke-dasharray:none;stroke-dashoffset:0;stroke-opacity:1;visibility:visible;display:inline;overflow:visible;enable-background:accumulate" />
    <path
       d="M -258.20266,209.10524 L -257.46525,208.43002 C -258.23152,207.58946 -258.17253,206.29993 -257.33198,205.53366 C -256.49143,204.76738 -255.2019,204.82637 -254.43562,205.66692 C -254.34951,205.76138 -254.29135,205.83474 -254.22239,205.94234 L -253.37836,205.40039 C -253.47316,205.25246 -253.57985,205.12153 -253.6982,204.9917 C -254.829,203.7513 -256.76681,203.66545 -258.0072,204.79624 C -259.2476,205.92703 -259.33346,207.86484 -258.20266,209.10524 z"
       id="path6630"
       style="fill:#bebebe;fill-opacity:1;stroke:none;stroke-width:3.51734686;stroke-linecap:butt;stroke-linejoin:miter;marker:none;stroke-miterlimit:4;stroke-dasharray:none;stroke-dashoffset:0;stroke-opacity:1;visibility:visible;display:inline;overflow:visible;enable-background:accumulate" />
    <path
       d="M -246.5625,215.625 L -248.4375,217.375 L -245.3125,221.375 L -242.5625,218.5 L -246.5625,215.625 z"
       id="path6632"
       style="font-size:medium;font-style:normal;font-variant:normal;font-weight:normal;font-stretch:normal;text-indent:0;text-align:start;text-decoration:none;line-height:normal;letter-spacing:normal;word-spacing:normal;text-transform:none;direction:ltr;block-progression:tb;writing-mode:lr-tb;text-anchor:start;fill:#bebebe;fill-opacity:1;stroke:none;stroke-width:4;marker:none;visibility:visible;display:inline;overflow:visible;enable-background:accumulate;font-family:Bitstream Vera Sans;-inkscape-font-specification:Bitstream Vera Sans" />
    <path
       d="M -253,215.625 L -251.125,217.375 L -254.25,221.375 L -257,218.5 L -253,215.625 z"
       id="path6638"
       style="font-size:medium;font-style:normal;font-variant:normal;font-weight:normal;font-stretch:normal;text-indent:0;text-align:start;text-decoration:none;line-height:normal;letter-spacing:normal;word-spacing:normal;text-transform:none;direction:ltr;block-progression:tb;writing-mode:lr-tb;text-anchor:start;fill:#bebebe;fill-opacity:1;stroke:none;stroke-width:4;marker:none;visibility:visible;display:inline;overflow:visible;enable-background:accumulate;font-family:Bitstream Vera Sans;-inkscape-font-specification:Bitstream Vera Sans" />
    <path
       d="M -246.5625,212.5 L -248.4375,210.75 L -245.3125,206.75 L -242.5625,209.625 L -246.5625,212.5 z"
       id="path6640"
       style="font-size:medium;font-style:normal;font-variant:normal;font-weight:normal;font-stretch:normal;text-indent:0;text-align:start;text-decoration:none;line-height:normal;letter-spacing:normal;word-spacing:normal;text-transform:none;direction:ltr;block-progression:tb;writing-mode:lr-tb;text-anchor:start;fill:#bebebe;fill-opacity:1;stroke:none;stroke-width:4;marker:none;visibility:visible;display:inline;overflow:visible;enable-background:accumulate;font-family:Bitstream Vera Sans;-inkscape-font-specification:Bitstream Vera Sans" />
    <path
       d="M -253,212.5 L -251.125,210.75 L -254.25,206.75 L -257,209.625 L -253,212.5 z"
       id="path6642"
       style="font-size:medium;font-style:normal;font-variant:normal;font-weight:normal;font-stretch:normal;text-indent:0;text-align:start;text-decoration:none;line-height:normal;letter-spacing:normal;word-spacing:normal;text-transform:none;direction:ltr;block-progression:tb;writing-mode:lr-tb;text-anchor:start;fill:#bebebe;fill-opacity:1;stroke:none;stroke-width:4;marker:none;visibility:visible;display:inline;overflow:visible;enable-background:accumulate;font-family:Bitstream Vera Sans;-inkscape-font-specification:Bitstream Vera Sans" />
  </g>
  <g
     transform="translate(262,-202)"
     id="layer9" />
  <g
     transform="translate(262,-202)"
     id="layer6" />
</svg>
