<?xml version="1.0" encoding="UTF-8" standalone="no"?>
<!-- Created with Inkscape (http://www.inkscape.org/) -->
<svg
   xmlns:svg="http://www.w3.org/2000/svg"
   xmlns="http://www.w3.org/2000/svg"
   version="1.0"
   width="24"
   height="24"
   id="svg7384">
  <title
     id="title9167">Moblin Icon Theme</title>
  <defs
     id="defs7386" />
  <g
     transform="translate(262,-174)"
     id="layer3" />
  <g
     transform="translate(262,-174)"
     id="layer5" />
  <g
     transform="translate(262,-174)"
     id="layer7" />
  <g
     transform="translate(262,-174)"
     id="layer2" />
  <g
     transform="translate(262,-174)"
     id="layer8" />
  <g
     transform="translate(262,-1126.3622)"
     id="layer1" />
  <g
     transform="translate(262,-174)"
     id="layer11" />
  <g
     transform="translate(262,-174)"
     id="layer4">
    <rect
       width="24"
       height="24"
       x="-262"
       y="174"
       id="rect13080-5-4"
       style="opacity:0;fill:#ffffff;fill-opacity:1;stroke:none;display:inline" />
    <path
       d="M -258.1875,180 C -258.55246,180.06657 -258.85059,180.32969 -258.96199,180.68355 C -259.07339,181.03741 -258.97976,181.42387 -258.71875,181.6875 L -250.71875,189.8125 C -250.53034,190.00724 -250.27097,190.11719 -250,190.11719 C -249.72903,190.11719 -249.46966,190.00724 -249.28125,189.8125 L -241.28125,181.6875 C -240.98949,181.44034 -240.8642,181.04844 -240.95846,180.67786 C -241.05273,180.30728 -241.35005,180.02289 -241.72445,179.94518 C -242.09885,179.86747 -242.48479,180.01005 -242.71875,180.3125 L -250,187.71875 L -257.28125,180.3125 C -257.51048,180.06091 -257.85192,179.94317 -258.1875,180 z"
       id="path10740"
       style="fill:#bebebe;fill-opacity:1;stroke:none;stroke-width:1.99999988;stroke-linecap:round;stroke-linejoin:round;marker:none;stroke-miterlimit:4;stroke-dasharray:none;stroke-dashoffset:0;stroke-opacity:1;visibility:visible;display:inline;overflow:visible;enable-background:accumulate" />
    <path
       d="M -259.71875,176.03125 C -260.9415,176.03125 -261.96875,177.0585 -261.96875,178.28125 L -261.96875,193.75 C -261.96875,194.97275 -260.9415,196 -259.71875,196 L -240.25,196 C -239.02725,196 -238,194.97275 -238,193.75 L -238,178.28125 C -238,177.0585 -239.02725,176.03125 -240.25,176.03125 L -259.71875,176.03125 z M -259.71875,178.03125 L -240.25,178.03125 C -240.10065,178.03125 -240,178.1319 -240,178.28125 L -240,193.75 C -240,193.89935 -240.10065,194 -240.25,194 L -259.71875,194 C -259.86807,194 -259.96875,193.89935 -259.96875,193.75 L -259.96875,178.28125 C -259.96875,178.1319 -259.8681,178.03125 -259.71875,178.03125 z"
       id="rect10742"
       style="fill:#bebebe;fill-opacity:1;stroke:none;stroke-width:2;stroke-linecap:round;stroke-linejoin:round;marker:none;stroke-miterlimit:4;stroke-dasharray:none;stroke-dashoffset:0;stroke-opacity:1;visibility:visible;display:inline;overflow:visible;enable-background:accumulate" />
  </g>
  <g
     transform="translate(262,-174)"
     id="layer12" />
  <g
     transform="translate(262,-174)"
     id="layer9" />
  <g
     transform="translate(262,-174)"
     id="layer10" />
  <g
     transform="translate(262,-174)"
     id="layer6" />
</svg>
