<?xml version="1.0" encoding="UTF-8" standalone="no"?>
<!-- Created with Inkscape (http://www.inkscape.org/) -->
<svg
   xmlns:svg="http://www.w3.org/2000/svg"
   xmlns="http://www.w3.org/2000/svg"
   version="1.0"
   width="24"
   height="24"
   id="svg7384">
  <title
     id="title9167">Moblin Icon Theme</title>
  <defs
     id="defs7386" />
  <g
     transform="translate(150,-232)"
     id="layer3" />
  <g
     transform="translate(150,-232)"
     id="layer5" />
  <g
     transform="translate(150,-232)"
     id="layer7" />
  <g
     transform="translate(150,-232)"
     id="layer2" />
  <g
     transform="translate(150,-232)"
     id="layer8" />
  <g
     transform="translate(150,-1184.3622)"
     id="layer1" />
  <g
     transform="translate(150,-232)"
     id="layer11" />
  <g
     transform="translate(150,-232)"
     id="layer4">
    <rect
       width="24"
       height="24"
       x="-150"
       y="232"
       id="rect6514"
       style="opacity:0;fill:#ffffff;fill-opacity:1;stroke:none;display:inline" />
    <path
       d="M -129,237.84375 C -129.12991,237.85032 -129.25729,237.88216 -129.375,237.9375 L -147.40625,246.15625 C -147.87316,246.3268 -148.14394,246.81438 -148.04193,247.30088 C -147.93992,247.78738 -147.49609,248.12512 -147,248.09375 L -128.96875,248.09375 C -128.41649,248.09369 -127.96881,247.64601 -127.96875,247.09375 L -127.96875,238.84375 C -127.96865,238.57304 -128.07829,238.31385 -128.27263,238.12539 C -128.46698,237.93694 -128.72942,237.83532 -129,237.84375 z M -129.96875,240.4375 L -129.96875,246.09375 L -142.375,246.09375 L -129.96875,240.4375 z"
       id="path6528"
       style="fill:#bebebe;fill-opacity:1;stroke:none;stroke-width:2;stroke-linecap:round;stroke-linejoin:round;marker:none;stroke-miterlimit:4;stroke-dasharray:none;stroke-dashoffset:0;stroke-opacity:1;visibility:visible;display:inline;overflow:visible;enable-background:accumulate" />
  </g>
  <g
     transform="translate(150,-232)"
     id="layer9" />
  <g
     transform="translate(150,-232)"
     id="layer10" />
  <g
     transform="translate(150,-232)"
     id="layer6" />
</svg>
