<?xml version="1.0" encoding="UTF-8" standalone="no"?>
<!-- Created with Inkscape (http://www.inkscape.org/) -->
<svg
   xmlns:svg="http://www.w3.org/2000/svg"
   xmlns="http://www.w3.org/2000/svg"
   version="1.0"
   width="24"
   height="24.028402"
   id="svg7384">
  <title
     id="title9167">Moblin Icon Theme</title>
  <defs
     id="defs7386" />
  <g
     transform="translate(178,-261.9716)"
     id="layer3" />
  <g
     transform="translate(178,-261.9716)"
     id="layer5" />
  <g
     transform="translate(178,-261.9716)"
     id="layer7" />
  <g
     transform="translate(178,-261.9716)"
     id="layer2" />
  <g
     transform="translate(178,-261.9716)"
     id="layer8" />
  <g
     transform="translate(178,-1214.3338)"
     id="layer1" />
  <g
     transform="translate(178,-261.9716)"
     id="layer11" />
  <g
     transform="translate(178,-261.9716)"
     id="layer4">
    <rect
       width="24"
       height="24"
       x="-178"
       y="262"
       id="rect6817"
       style="opacity:0;fill:#ffffff;fill-opacity:1;stroke:none;display:inline" />
    <path
       d="M -175.13878,262.09375 C -175.60657,262.13504 -175.98262,262.49625 -176.04272,262.96199 C -176.10281,263.42774 -175.83076,263.87257 -175.38878,264.03125 C -172.47131,265.21579 -169.52613,265.3543 -166.51378,264.4375 C -165.97875,264.27354 -165.67795,263.7069 -165.8419,263.17188 C -166.00586,262.63685 -166.5725,262.33604 -167.10753,262.5 C -169.73395,263.29934 -172.09508,263.18903 -174.63878,262.15625 C -174.79738,262.09308 -174.96951,262.07157 -175.13878,262.09375 z"
       id="path6840"
       style="fill:#bebebe;fill-opacity:1;stroke:none;stroke-width:2;stroke-linecap:round;stroke-linejoin:round;marker:none;stroke-miterlimit:4;stroke-dasharray:none;stroke-dashoffset:0;stroke-opacity:1;visibility:visible;display:inline;overflow:visible;enable-background:accumulate" />
    <path
       d="M -164.32628,262 C -165.21187,262.04403 -166.08184,262.18108 -166.98253,262.40625 C -167.35504,262.46441 -167.66319,262.72712 -167.77954,263.08575 C -167.89589,263.44437 -167.80067,263.83795 -167.53326,264.10373 C -167.26584,264.3695 -166.87168,264.4623 -166.51378,264.34375 C -163.38016,263.56035 -160.50486,264.01002 -157.76378,265.71875 C -157.28916,266.00352 -156.67355,265.84962 -156.38878,265.375 C -156.10401,264.90038 -156.25791,264.28477 -156.73253,264 C -159.09613,262.52659 -161.6695,261.86791 -164.32628,262 z"
       id="path6842"
       style="fill:#bebebe;fill-opacity:1;stroke:none;stroke-width:2;stroke-linecap:round;stroke-linejoin:round;marker:none;stroke-miterlimit:4;stroke-dasharray:none;stroke-dashoffset:0;stroke-opacity:1;visibility:visible;display:inline;overflow:visible;enable-background:accumulate" />
    <path
       d="M -175.13878,274.09379 C -175.60657,274.13508 -175.98262,274.49629 -176.04272,274.96203 C -176.10281,275.42778 -175.83076,275.87261 -175.38878,276.03129 C -172.47131,277.21583 -169.52613,277.35434 -166.51378,276.43754 C -165.97875,276.27358 -165.67795,275.70694 -165.8419,275.17192 C -166.00586,274.63689 -166.5725,274.33608 -167.10753,274.50004 C -169.73395,275.29938 -172.09508,275.18907 -174.63878,274.15629 C -174.79738,274.09312 -174.96951,274.07161 -175.13878,274.09379 z"
       id="path6844"
       style="fill:#bebebe;fill-opacity:1;stroke:none;stroke-width:2;stroke-linecap:round;stroke-linejoin:round;marker:none;stroke-miterlimit:4;stroke-dasharray:none;stroke-dashoffset:0;stroke-opacity:1;visibility:visible;display:inline;overflow:visible;enable-background:accumulate" />
    <path
       d="M -164.32628,274.00004 C -165.21187,274.04407 -166.08184,274.18112 -166.98253,274.40629 C -167.35504,274.46445 -167.66319,274.72716 -167.77954,275.08579 C -167.89589,275.44441 -167.80067,275.83799 -167.53326,276.10377 C -167.26584,276.36954 -166.87168,276.46234 -166.51378,276.34379 C -163.38016,275.56039 -160.50486,276.01006 -157.76378,277.71879 C -157.28916,278.00356 -156.67355,277.84966 -156.38878,277.37504 C -156.10401,276.90042 -156.25791,276.28481 -156.73253,276.00004 C -159.09613,274.52663 -161.6695,273.86795 -164.32628,274.00004 z"
       id="path6846"
       style="fill:#bebebe;fill-opacity:1;stroke:none;stroke-width:2;stroke-linecap:round;stroke-linejoin:round;marker:none;stroke-miterlimit:4;stroke-dasharray:none;stroke-dashoffset:0;stroke-opacity:1;visibility:visible;display:inline;overflow:visible;enable-background:accumulate" />
    <path
       d="M -157.21875,263.9375 C -157.68438,264.04178 -158.01149,264.46048 -158,264.9375 L -158,276.875 C -158.0051,277.23564 -157.81562,277.57108 -157.50413,277.75289 C -157.19263,277.93469 -156.80737,277.93469 -156.49587,277.75289 C -156.18438,277.57108 -155.9949,277.23564 -156,276.875 L -156,264.9375 C -155.99256,264.62964 -156.12736,264.33553 -156.36543,264.14019 C -156.60349,263.94485 -156.91827,263.87008 -157.21875,263.9375 L -157.21875,263.9375 z"
       id="path6849"
       style="fill:#bebebe;fill-opacity:1;stroke:none;stroke-width:2;stroke-linecap:round;stroke-linejoin:round;marker:none;stroke-miterlimit:4;stroke-dasharray:none;stroke-dashoffset:0;stroke-opacity:1;visibility:visible;display:inline;overflow:visible;enable-background:accumulate" />
    <path
       d="M -175.21875,262.1875 C -175.68438,262.29178 -176.01149,262.71048 -176,263.1875 L -176,285 C -176.0051,285.36064 -175.81562,285.69608 -175.50413,285.87789 C -175.19263,286.05969 -174.80737,286.05969 -174.49587,285.87789 C -174.18438,285.69608 -173.9949,285.36064 -174,285 L -174,263.1875 C -173.99256,262.87964 -174.12736,262.58553 -174.36543,262.39019 C -174.60349,262.19485 -174.91827,262.12008 -175.21875,262.1875 z"
       id="path6851"
       style="fill:#bebebe;fill-opacity:1;stroke:none;stroke-width:2;stroke-linecap:round;stroke-linejoin:round;marker:none;stroke-miterlimit:4;stroke-dasharray:none;stroke-dashoffset:0;stroke-opacity:1;visibility:visible;display:inline;overflow:visible;enable-background:accumulate" />
    <path
       d="M -166.50309,265.98663 C -168.42963,265.98663 -169.98712,267.57222 -169.98711,269.49875 C -169.98711,271.42529 -168.42962,273.01087 -166.50309,273.01088 C -164.57655,273.01088 -162.99096,271.42529 -162.99097,269.49875 C -162.99097,267.57222 -164.57656,265.98664 -166.50309,265.98663 z M -166.50309,266.99812 C -165.11762,266.99813 -164.00246,268.11328 -164.00246,269.49875 C -164.00246,270.88423 -165.11762,271.99938 -166.50309,271.99938 C -167.88856,271.99938 -169.00372,270.88423 -169.00372,269.49875 C -169.00372,268.11329 -167.88856,266.99812 -166.50309,266.99812 z"
       id="path6853"
       style="fill:#bebebe;fill-opacity:1;stroke:none;stroke-width:1.11221945;stroke-linecap:round;stroke-linejoin:round;marker:none;stroke-miterlimit:4;stroke-dasharray:none;stroke-dashoffset:0;stroke-opacity:1;visibility:visible;display:inline;overflow:visible;enable-background:accumulate" />
    <path
       d="M -171.20823,269.59515 A 3.3366601,3.3366601 0 0 1 -167.87157,266.25849 L -167.87157,269.59515 z"
       transform="matrix(-0.7492513,0,0,0.7492513,-291.77799,67.00548)"
       id="path6857"
       style="fill:#bebebe;fill-opacity:1;stroke:none;stroke-width:1.11221945;marker:none;visibility:visible;display:inline;overflow:visible;enable-background:accumulate" />
    <path
       d="M -171.20823,269.59515 A 3.3366601,3.3366601 0 0 1 -167.87157,266.25849 L -167.87157,269.59515 z"
       transform="matrix(0.7492513,0,0,-0.7492513,-41.22201,471.99452)"
       id="path6859"
       style="fill:#bebebe;fill-opacity:1;stroke:none;stroke-width:1.11221945;marker:none;visibility:visible;display:inline;overflow:visible;enable-background:accumulate" />
  </g>
  <g
     transform="translate(178,-261.9716)"
     id="layer9" />
  <g
     transform="translate(178,-261.9716)"
     id="layer10" />
  <g
     transform="translate(178,-261.9716)"
     id="layer6" />
</svg>
