<?xml version="1.0" encoding="UTF-8" standalone="no"?>
<!-- Created with Inkscape (http://www.inkscape.org/) -->
<svg
   xmlns:svg="http://www.w3.org/2000/svg"
   xmlns="http://www.w3.org/2000/svg"
   version="1.0"
   width="24"
   height="24"
   id="svg7384">
  <title
     id="title9167">Moblin Icon Theme</title>
  <defs
     id="defs7386" />
  <g
     transform="translate(178,-292.00293)"
     id="layer3" />
  <g
     transform="translate(178,-292.00293)"
     id="layer5" />
  <g
     transform="translate(178,-292.00293)"
     id="layer7" />
  <g
     transform="translate(178,-292.00293)"
     id="layer2" />
  <g
     transform="translate(178,-292.00293)"
     id="layer8" />
  <g
     transform="translate(178,-1244.3651)"
     id="layer1" />
  <g
     transform="translate(178,-292.00293)"
     id="layer11" />
  <g
     transform="translate(178,-292.00293)"
     id="layer4">
    <rect
       width="24"
       height="24"
       x="-178"
       y="292.00293"
       id="rect6670"
       style="opacity:0;fill:#ffffff;fill-opacity:1;stroke:none;display:inline" />
    <path
       d="M -173.875,305 C -174.49173,305 -175,305.50827 -175,306.125 L -175,311.875 C -175,312.49173 -174.49173,313 -173.875,313 L -164.125,313 C -163.50827,313 -163,312.49173 -163,311.875 L -163,306.125 C -163,305.50827 -163.50827,305 -164.125,305 L -173.875,305 z M -173.875,306 L -164.125,306 C -164.04496,306 -164,306.04497 -164,306.125 L -164,311.875 C -164,311.95503 -164.04497,312 -164.125,312 L -173.875,312 C -173.95504,312 -174,311.95503 -174,311.875 L -174,306.125 C -174,306.04496 -173.95503,306 -173.875,306 z"
       id="rect6420-9"
       style="fill:#bebebe;fill-opacity:1;stroke:none;stroke-width:0.99999988;marker:none;stroke-opacity:1;visibility:visible;display:inline;overflow:visible;enable-background:accumulate" />
    <path
       d="M -174.96875,304 C -176.63451,304 -178,305.36548 -178,307.03125 L -178,312.96875 C -178,314.63451 -176.63451,316.00001 -174.96875,316 L -163.03125,316 C -161.36549,316 -160,314.63451 -160,312.96875 L -160,307.03125 C -160,305.36549 -161.36549,304 -163.03125,304 L -174.96875,304 z M -174.96875,306 L -163.03125,306 C -162.4389,306 -162,306.4389 -162,307.03125 L -162,312.96875 C -162,313.5611 -162.4389,314 -163.03125,314 L -174.96875,314 C -175.5611,314 -176,313.5611 -176,312.96875 L -176,307.03125 C -176,306.43887 -175.5611,306 -174.96875,306 z"
       id="rect6395-4-2"
       style="fill:#bebebe;fill-opacity:1;stroke:none;stroke-width:1.99999976;marker:none;stroke-miterlimit:4;stroke-dasharray:none;stroke-opacity:1;visibility:visible;display:inline;overflow:visible;enable-background:accumulate" />
    <path
       d="M -160.875,293 C -161.49173,293 -162,293.50827 -162,294.125 L -162,296.875 C -162,297.49173 -161.49173,298 -160.875,298 L -158.125,298 C -157.50827,298 -157,297.49173 -157,296.875 L -157,294.125 C -157,293.50827 -157.50827,293 -158.125,293 L -160.875,293 z M -160.875,294 L -158.125,294 C -158.04496,294 -158,294.04497 -158,294.125 L -158,296.875 C -158,296.95503 -158.04497,297 -158.125,297 L -160.875,297 C -160.95504,297 -161,296.95503 -161,296.875 L -161,294.125 C -161,294.04496 -160.95503,294 -160.875,294 z"
       id="rect6723"
       style="fill:#bebebe;fill-opacity:1;stroke:none;stroke-width:0.99999994;marker:none;stroke-opacity:1;visibility:visible;display:inline;overflow:visible;enable-background:accumulate" />
    <path
       d="M -162.09375,292.03125 C -163.68655,292.03125 -165,293.3447 -165,294.9375 L -165,299.09375 C -165,300.68655 -163.68655,302 -162.09375,302 L -156.9375,302 C -155.3447,302 -154.03125,300.68655 -154.03125,299.09375 L -154.03125,294.9375 C -154.03125,293.3447 -155.3447,292.03125 -156.9375,292.03125 L -162.09375,292.03125 z M -162.09375,294.03125 L -156.9375,294.03125 C -156.41811,294.03125 -156.03125,294.4181 -156.03125,294.9375 L -156.03125,299.09375 C -156.03125,299.61313 -156.4181,300 -156.9375,300 L -162.09375,300 C -162.61314,300 -163,299.61315 -163,299.09375 L -163,294.9375 C -163,294.41811 -162.61315,294.03125 -162.09375,294.03125 z"
       id="rect6725"
       style="fill:#bebebe;fill-opacity:1;stroke:none;stroke-width:1.99999976;marker:none;stroke-miterlimit:4;stroke-dasharray:none;stroke-opacity:1;visibility:visible;display:inline;overflow:visible;enable-background:accumulate" />
    <path
       d="M -173.875,293 C -174.49173,293 -175,293.50827 -175,294.125 L -175,296.875 C -175,297.49173 -174.49173,298 -173.875,298 L -171.125,298 C -170.50827,298 -170,297.49173 -170,296.875 L -170,294.125 C -170,293.50827 -170.50827,293 -171.125,293 L -173.875,293 z M -173.875,294 L -171.125,294 C -171.04497,294 -171,294.04497 -171,294.125 L -171,296.875 C -171,296.95503 -171.04497,297 -171.125,297 L -173.875,297 C -173.95504,297 -174,296.95503 -174,296.875 L -174,294.125 C -174,294.04496 -173.95503,294 -173.875,294 z"
       id="rect6727"
       style="fill:#bebebe;fill-opacity:1;stroke:none;stroke-width:0.99999988;marker:none;stroke-opacity:1;visibility:visible;display:inline;overflow:visible;enable-background:accumulate" />
    <path
       d="M -175.09375,292.03125 C -176.68655,292.03125 -178,293.3447 -178,294.9375 L -178,299.09375 C -178,300.68655 -176.68655,302 -175.09375,302 L -169.90625,302 C -168.31345,302 -167,300.68655 -167,299.09375 L -167,294.9375 C -167,293.3447 -168.31344,292.03125 -169.90625,292.03125 L -175.09375,292.03125 z M -175.09375,294.03125 L -169.90625,294.03125 C -169.38684,294.03125 -169,294.4181 -169,294.9375 L -169,299.09375 C -169,299.61313 -169.38685,300 -169.90625,300 L -175.09375,300 C -175.61314,300 -176,299.61315 -176,299.09375 L -176,294.9375 C -176,294.41811 -175.61315,294.03125 -175.09375,294.03125 z"
       id="rect6730"
       style="fill:#bebebe;fill-opacity:1;stroke:none;stroke-width:1.99999976;marker:none;stroke-miterlimit:4;stroke-dasharray:none;stroke-opacity:1;visibility:visible;display:inline;overflow:visible;enable-background:accumulate" />
    <path
       d="M -156.21875,300 C -156.68438,300.10428 -157.01149,300.52298 -157,301 L -157,307.9375 C -157,308.50694 -157.49655,309.02613 -158.1875,309.0625 L -161.0625,309.0625 C -161.42313,309.0574 -161.75857,309.24688 -161.94038,309.55838 C -162.12218,309.86987 -162.12218,310.25513 -161.94038,310.56662 C -161.75857,310.87812 -161.42313,311.0676 -161.0625,311.0625 L -158.125,311.0625 L -158.09375,311.0625 L -158.0625,311.0625 C -156.37845,310.97387 -155,309.61806 -155,307.9375 L -155,301 C -154.99256,300.69214 -155.12736,300.39803 -155.36543,300.20269 C -155.60349,300.00735 -155.91827,299.93258 -156.21875,300 L -156.21875,300 z"
       id="path6732"
       style="opacity:0.5;fill:#bebebe;fill-opacity:1;fill-rule:nonzero;stroke:none;stroke-width:1.99999952;stroke-linecap:round;stroke-linejoin:miter;marker:none;stroke-miterlimit:4;stroke-dasharray:none;stroke-dashoffset:0;stroke-opacity:1;visibility:visible;display:inline;overflow:visible;enable-background:accumulate" />
  </g>
  <g
     transform="translate(178,-292.00293)"
     id="layer9" />
  <g
     transform="translate(178,-292.00293)"
     id="layer10" />
  <g
     transform="translate(178,-292.00293)"
     id="layer6" />
</svg>
