<?xml version="1.0" encoding="UTF-8" standalone="no"?>
<!-- Created with Inkscape (http://www.inkscape.org/) -->
<svg
   xmlns:svg="http://www.w3.org/2000/svg"
   xmlns="http://www.w3.org/2000/svg"
   version="1.0"
   width="24"
   height="24"
   id="svg7384">
  <title
     id="title9167">Moblin Icon Theme</title>
  <defs
     id="defs7386" />
  <g
     transform="translate(206,-201.99993)"
     id="layer3" />
  <g
     transform="translate(206,-201.99993)"
     id="layer5" />
  <g
     transform="translate(206,-201.99993)"
     id="layer7" />
  <g
     transform="translate(206,-201.99993)"
     id="layer2" />
  <g
     transform="translate(206,-201.99993)"
     id="layer8" />
  <g
     transform="translate(206,-1154.3621)"
     id="layer1" />
  <g
     transform="translate(206,-201.99993)"
     id="layer11" />
  <g
     transform="translate(206,-201.99993)"
     id="layer4">
    <rect
       width="24"
       height="24"
       x="-206"
       y="201.99994"
       id="rect6371"
       style="opacity:0;fill:#ffffff;fill-opacity:1;stroke:none;display:inline" />
    <path
       d="M -197,204 C -199.65255,204 -201.78215,206.10385 -201.9375,208.71875 L -201.96875,208.71875 L -203.09375,212.65625 C -203.17056,212.91854 -203.13669,213.20083 -203,213.4375 L -202,215.21875 L -202,223 C -201.99994,223.55226 -201.55226,223.99994 -201,224 C -201,224 -187,224 -187,224 C -186.44774,223.99994 -186.00006,223.55226 -186,223 L -186,215.25 L -185.0625,213.53125 C -184.94247,213.31182 -184.90903,213.05538 -184.96875,212.8125 L -186.03125,208.75 L -186.0625,208.75 C -186.20213,206.1204 -188.33681,204 -191,204 L -197,204 z M -197,206 L -191,206 C -189.3207,206 -188,207.3207 -188,209 C -188.00016,209.08432 -187.98966,209.16832 -187.96875,209.25 L -187,212.9375 L -187.875,214.53125 C -187.95451,214.67487 -187.99744,214.83586 -188,215 L -188,222 C -189.59184,222 -198.40816,222 -200,222 L -200,214.9375 C -199.99727,214.76277 -200.04037,214.59038 -200.125,214.4375 L -201.03125,212.8125 L -200.03125,209.28125 C -200.00756,209.18946 -199.99703,209.09476 -200,209 C -200,207.3207 -198.6793,206 -197,206 z"
       id="rect6409"
       style="fill:#bebebe;fill-opacity:1;stroke:none;stroke-width:2;stroke-linecap:round;stroke-linejoin:round;marker:none;stroke-miterlimit:4;stroke-dasharray:none;stroke-dashoffset:0;stroke-opacity:1;visibility:visible;display:inline;overflow:visible;enable-background:accumulate" />
    <path
       d="M -190.62453,206.9374 C -190.79609,206.9769 -190.93407,207.08756 -190.99308,207.233 C -191.62399,208.67618 -193.47124,209.40695 -195.1322,208.85877 C -196.03123,208.56205 -196.62358,208.03546 -196.97496,207.25763 C -197.08456,207.01275 -197.40188,206.89144 -197.68371,206.98667 C -197.96554,207.0819 -198.10516,207.35761 -197.99556,207.60249 C -197.54524,208.59937 -196.68131,209.34065 -195.5291,209.72092 C -193.32552,210.4482 -190.83786,209.49251 -190.00082,207.57786 C -189.91747,207.41454 -189.94888,207.2242 -190.0817,207.08781 C -190.21451,206.95143 -190.42536,206.89301 -190.62453,206.9374 z"
       id="path6424"
       style="fill:#bebebe;fill-opacity:1;stroke:none;stroke-width:1.18253613;stroke-linecap:round;stroke-linejoin:round;marker:none;stroke-miterlimit:4;stroke-dasharray:none;stroke-dashoffset:0;stroke-opacity:1;visibility:visible;display:inline;overflow:visible;enable-background:accumulate" />
    <path
       d="M -194.00002,209 C -195.09855,209 -196.00002,209.90148 -196.00002,211.00001 C -196.00002,212.09854 -195.09855,213.00001 -194.00002,213.00001 C -192.90148,213.00001 -192.00001,212.09854 -192.00001,211.00001 C -192.00001,209.90148 -192.90148,209 -194.00002,209 z M -194.00002,210.00001 C -193.44254,210.00001 -193.00001,210.44254 -193.00001,211.00001 C -193.00001,211.55748 -193.44254,212.00001 -194.00002,212.00001 C -194.55749,212.00001 -195.00002,211.55748 -195.00002,211.00001 C -195.00002,210.44254 -194.55749,210.00001 -194.00002,210.00001 z"
       id="path6435"
       style="fill:#bebebe;fill-opacity:1;stroke:none;stroke-width:0.99999785;stroke-linecap:round;stroke-linejoin:round;marker:none;stroke-miterlimit:4;stroke-dasharray:none;stroke-dashoffset:0;stroke-opacity:1;visibility:visible;display:inline;overflow:visible;enable-background:accumulate" />
    <path
       d="M -194.03125,212 C -194.56941,212 -195.05592,212.24353 -195.375,212.59375 C -195.69408,212.94397 -195.89244,213.38028 -196,213.84375 L -197.03125,218.4375 C -197.07042,218.62638 -196.99746,218.82095 -196.84375,218.9375 C -196.84375,218.9375 -194.25,220.875 -194.25,220.875 C -194.0735,221.00522 -193.83275,221.00522 -193.65625,220.875 C -193.65625,220.875 -191.1875,218.90625 -191.1875,218.90625 C -191.03379,218.7897 -190.96083,218.59513 -191,218.40625 L -192,213.875 C -192.00152,213.86519 -191.99838,213.85353 -192,213.84375 C -192.07883,213.36623 -192.2695,212.93843 -192.59375,212.59375 C -192.92464,212.24201 -193.4306,212 -193.96875,212 L -194.03125,212 z M -194.03125,213 L -193.96875,213 C -193.69895,213 -193.50882,213.10578 -193.34375,213.28125 C -193.17868,213.45672 -193.04942,213.71185 -193,214.03125 C -193.00033,214.04166 -193.00033,214.05209 -193,214.0625 L -192.0625,218.3125 C -192.40317,218.58389 -193.54594,219.47568 -193.96875,219.8125 C -194.40669,219.48446 -195.61585,218.60808 -195.96875,218.34375 L -195,214.0625 C -194.92006,213.71801 -194.78626,213.427 -194.625,213.25 C -194.46374,213.073 -194.30105,213 -194.03125,213 z"
       id="rect6437"
       style="fill:#bebebe;fill-opacity:1;stroke:none;stroke-width:1;stroke-linecap:round;stroke-linejoin:round;marker:none;stroke-miterlimit:4;stroke-dashoffset:0;stroke-opacity:1;visibility:visible;display:inline;overflow:visible;enable-background:accumulate" />
    <path
       d="M -189.90217,210.78685 C -189.94428,210.81424 -189.98156,210.84691 -190.01281,210.88382 C -192.42428,212.42838 -195.48676,212.44561 -197.92389,210.93231 C -198.10435,210.82028 -198.34491,210.8173 -198.52892,210.92481 C -198.71292,211.03232 -198.8023,211.22808 -198.75372,211.41716 C -198.72823,211.51102 -198.67026,211.5957 -198.58776,211.65958 C -198.57069,211.67691 -198.5522,211.69311 -198.53243,211.70807 C -195.74189,213.44082 -192.1101,213.37963 -189.34894,211.6111 C -189.30683,211.58371 -189.26955,211.55104 -189.2383,211.51413 C -189.11145,211.35373 -189.11145,211.14119 -189.2383,210.98079 C -189.26955,210.94388 -189.30683,210.91121 -189.34894,210.88382 C -189.49724,210.76182 -189.71173,210.72422 -189.90217,210.78685 L -189.90217,210.78685 z"
       id="path6440"
       style="fill:#bebebe;fill-opacity:1;stroke:none;stroke-width:0.60338736;stroke-linecap:round;stroke-linejoin:round;marker:none;stroke-miterlimit:4;stroke-dasharray:none;stroke-dashoffset:0;stroke-opacity:1;visibility:visible;display:inline;overflow:visible;enable-background:accumulate" />
  </g>
  <g
     transform="translate(206,-201.99993)"
     id="layer9" />
  <g
     transform="translate(206,-201.99993)"
     id="layer10" />
  <g
     transform="translate(206,-201.99993)"
     id="layer6" />
</svg>
