<?xml version="1.0" encoding="UTF-8" standalone="no"?>
<!-- Created with Inkscape (http://www.inkscape.org/) -->
<svg
   xmlns:svg="http://www.w3.org/2000/svg"
   xmlns="http://www.w3.org/2000/svg"
   version="1.0"
   width="24.010803"
   height="24.115873"
   id="svg7384">
  <title
     id="title9167">Moblin Icon Theme</title>
  <defs
     id="defs7386" />
  <g
     transform="translate(178.0108,-317.93238)"
     id="layer3" />
  <g
     transform="translate(178.0108,-317.93238)"
     id="layer5" />
  <g
     transform="translate(178.0108,-317.93238)"
     id="layer7" />
  <g
     transform="translate(178.0108,-317.93238)"
     id="layer2" />
  <g
     transform="translate(178.0108,-317.93238)"
     id="layer8" />
  <g
     transform="translate(178.0108,-1270.2946)"
     id="layer1" />
  <g
     transform="translate(178.0108,-317.93238)"
     id="layer11" />
  <g
     transform="translate(178.0108,-317.93238)"
     id="layer4">
    <rect
       width="24"
       height="24"
       x="-178"
       y="318.04825"
       id="rect7615"
       style="opacity:0;fill:#ffffff;fill-opacity:1;stroke:none;display:inline" />
    <path
       d="M -174.75,317.9375 C -176.539,317.9375 -178,319.3985 -178,321.1875 L -178,328.75 C -178,330.539 -176.539,332 -174.75,332 L -174.125,332 C -173.76436,332.0051 -173.42892,331.81562 -173.24711,331.50413 C -173.06531,331.19263 -173.06531,330.80737 -173.24711,330.49587 C -173.42892,330.18438 -173.76436,329.9949 -174.125,330 L -174.75,330 C -175.46561,330 -176,329.4656 -176,328.75 L -176,321.1875 C -176,320.4719 -175.4656,319.9375 -174.75,319.9375 L -163.25,319.9375 C -162.5344,319.9375 -162,320.4719 -162,321.1875 L -162,324.0625 C -162.0051,324.42314 -161.81562,324.75858 -161.50413,324.94039 C -161.19263,325.12219 -160.80737,325.12219 -160.49587,324.94039 C -160.18438,324.75858 -159.9949,324.42314 -160,324.0625 L -160,321.1875 C -160,319.3985 -161.46101,317.93751 -163.25,317.9375 L -174.75,317.9375 z"
       id="rect7617"
       style="fill:#bebebe;fill-opacity:1;stroke:none;stroke-width:2;stroke-linecap:round;stroke-linejoin:round;marker:none;stroke-miterlimit:4;stroke-dashoffset:0;stroke-opacity:1;visibility:visible;display:inline;overflow:visible;enable-background:accumulate" />
    <rect
       width="14.980927"
       height="5.0043616"
       rx="0"
       ry="0"
       x="-176.98093"
       y="318.99564"
       id="rect7619"
       style="fill:#bebebe;fill-opacity:1;stroke:none;stroke-width:1;marker:none;visibility:visible;display:inline;overflow:visible;enable-background:accumulate" />
    <path
       d="M -168.75,325.9375 C -170.539,325.9375 -172,327.3985 -172,329.1875 L -172,336.75 C -172,338.539 -170.539,340 -168.75,340 L -157.25,340 C -155.461,340 -154,338.539 -154,336.75 L -154,329.1875 C -154,327.3985 -155.461,325.9375 -157.25,325.9375 L -168.75,325.9375 z M -168.75,327.9375 L -157.25,327.9375 C -156.5344,327.9375 -156,328.47191 -156,329.1875 L -156,336.75 C -156,337.4656 -156.53441,338 -157.25,338 L -168.75,338 C -169.4656,338 -170,337.46559 -170,336.75 L -170,329.1875 C -170,328.4719 -169.46559,327.9375 -168.75,327.9375 z"
       id="rect7633"
       style="fill:#bebebe;fill-opacity:1;stroke:none;stroke-width:2;stroke-linecap:round;stroke-linejoin:round;marker:none;stroke-miterlimit:4;stroke-dasharray:none;stroke-dashoffset:0;stroke-opacity:1;visibility:visible;display:inline;overflow:visible;enable-background:accumulate" />
    <rect
       width="14.980927"
       height="5.0043616"
       rx="0"
       ry="0"
       x="-170.98093"
       y="326.99564"
       id="rect7635"
       style="fill:#bebebe;fill-opacity:1;stroke:none;stroke-width:1;marker:none;visibility:visible;display:inline;overflow:visible;enable-background:accumulate" />
  </g>
  <g
     transform="translate(178.0108,-317.93238)"
     id="layer9" />
  <g
     transform="translate(178.0108,-317.93238)"
     id="layer10" />
  <g
     transform="translate(178.0108,-317.93238)"
     id="layer6" />
</svg>
