<?xml version="1.0" encoding="UTF-8" standalone="no"?>
<!-- Created with Inkscape (http://www.inkscape.org/) -->
<svg
   xmlns:svg="http://www.w3.org/2000/svg"
   xmlns="http://www.w3.org/2000/svg"
   version="1.0"
   width="24.0625"
   height="24.000002"
   id="svg7384">
  <title
     id="title9167">Moblin Icon Theme</title>
  <defs
     id="defs7386" />
  <g
     transform="translate(262,-232)"
     id="layer3" />
  <g
     transform="translate(262,-232)"
     id="layer5" />
  <g
     transform="translate(262,-232)"
     id="layer7" />
  <g
     transform="translate(262,-232)"
     id="layer2" />
  <g
     transform="translate(262,-232)"
     id="layer8" />
  <g
     transform="translate(262,-1184.3622)"
     id="layer1" />
  <g
     transform="translate(262,-232)"
     id="layer11" />
  <g
     transform="translate(262,-232)"
     id="layer4">
    <rect
       width="24"
       height="24"
       x="-262"
       y="232"
       id="rect9626-3"
       style="opacity:0;fill:#ffffff;fill-opacity:1;stroke:none;display:inline" />
    <path
       d="M -258.875,232 C -260.58895,232 -262,233.41105 -262,235.125 L -262,246.875 C -262,248.58895 -260.58895,250 -258.875,250 L -252,250 C -251.63936,250.0051 -251.30392,249.81562 -251.12211,249.50413 C -250.94031,249.19263 -250.94031,248.80737 -251.12211,248.49587 C -251.30392,248.18438 -251.63936,247.9949 -252,248 L -258.875,248 C -259.51555,248 -260,247.51555 -260,246.875 L -260,235.125 C -260,234.48445 -259.51555,234 -258.875,234 L -241.125,234 C -240.48445,234 -240,234.48445 -240,235.125 L -240,238.125 C -240.0051,238.48564 -239.81562,238.82108 -239.50413,239.00289 C -239.19263,239.18469 -238.80737,239.18469 -238.49587,239.00289 C -238.18438,238.82108 -237.9949,238.48564 -238,238.125 L -238,235.125 C -238,233.41105 -239.41105,232 -241.125,232 L -258.875,232 z"
       id="rect9658-2"
       style="fill:#bebebe;fill-opacity:1;stroke:none;stroke-width:2;stroke-linecap:round;marker:none;stroke-miterlimit:4;stroke-opacity:1;visibility:visible;display:inline;overflow:visible;enable-background:new" />
    <path
       d="M -253.125,251 C -253.67728,251.03452 -254.09702,251.51022 -254.0625,252.0625 C -254.02798,252.61478 -253.55228,253.03452 -253,253 L -247.125,253 C -246.76437,253.0051 -246.42893,252.81562 -246.24712,252.50412 C -246.06532,252.19263 -246.06532,251.80737 -246.24712,251.49588 C -246.42893,251.18438 -246.76437,250.9949 -247.125,251 L -253,251 C -253.04163,250.99739 -253.08337,250.99739 -253.125,251 z"
       id="path9660-2"
       style="fill:#bebebe;fill-opacity:1;fill-rule:nonzero;stroke:none;stroke-width:1.99999964;stroke-linecap:round;stroke-linejoin:miter;marker:none;stroke-miterlimit:4;stroke-dasharray:none;stroke-dashoffset:0;stroke-opacity:1;visibility:visible;display:inline;overflow:visible;enable-background:new" />
    <path
       d="M -258.59375,235 C -258.83279,235.04561 -259.00429,235.25668 -259,235.5 L -259,246.5 C -258.99997,246.77613 -258.77613,246.99997 -258.5,247 L -251.4375,247 C -251.25718,247.00255 -251.08946,246.90781 -250.99856,246.75206 C -250.90766,246.59631 -250.90766,246.40369 -250.99856,246.24794 C -251.08946,246.09219 -251.25718,245.99745 -251.4375,246 L -258,246 L -258,236 L -242,236 L -242,238.5625 C -242.00255,238.74282 -241.90781,238.91054 -241.75206,239.00144 C -241.59631,239.09234 -241.40369,239.09234 -241.24794,239.00144 C -241.09219,238.91054 -240.99745,238.74282 -241,238.5625 L -241,235.5 C -241.00003,235.22387 -241.22387,235.00003 -241.5,235 L -258.5,235 C -258.53118,234.99706 -258.56257,234.99706 -258.59375,235 z"
       id="rect9662-2"
       style="fill:#bebebe;fill-opacity:1;stroke:none;stroke-width:0.99999982;stroke-linecap:round;stroke-linejoin:round;marker:none;stroke-miterlimit:4;stroke-opacity:1;visibility:visible;display:inline;overflow:visible;enable-background:new" />
    <path
       d="M -248.15625,240.9375 C -248.62188,241.04178 -248.94899,241.46048 -248.9375,241.9375 L -249,249 C -248.99994,249.55226 -248.55226,249.99994 -248,250 L -239,250.0625 C -238.44774,250.06244 -238.00006,249.61476 -238,249.0625 L -237.9375,242 C -237.9324,241.63936 -238.12188,241.30392 -238.43337,241.12211 C -238.74487,240.94031 -239.13013,240.94031 -239.44163,241.12211 C -239.75312,241.30392 -239.9426,241.63936 -239.9375,242 L -240,248.0625 L -247,248 L -246.9375,241.9375 C -246.93006,241.62964 -247.06486,241.33553 -247.30293,241.14019 C -247.54099,240.94485 -247.85577,240.87008 -248.15625,240.9375 z"
       id="path6352"
       style="fill:#bebebe;fill-opacity:1;stroke:none;stroke-width:2;stroke-linecap:round;stroke-linejoin:round;marker:none;stroke-miterlimit:4;stroke-dasharray:none;stroke-dashoffset:0;stroke-opacity:1;visibility:visible;display:inline;overflow:visible;enable-background:accumulate" />
    <path
       d="M -243.6875,248.6875 C -244.44193,248.78259 -245.00589,249.42712 -245,250.1875 L -245,253 C -245.00765,253.54095 -244.72344,254.04412 -244.25619,254.31683 C -243.78894,254.58954 -243.21106,254.58954 -242.74381,254.31683 C -242.27656,254.04412 -241.99235,253.54095 -242,253 L -242,250.1875 C -241.99666,249.75497 -242.18017,249.34204 -242.50346,249.05467 C -242.82675,248.76731 -243.25834,248.63347 -243.6875,248.6875 L -243.6875,248.6875 z"
       id="path6355"
       style="fill:#bebebe;fill-opacity:1;stroke:none;stroke-width:3;stroke-linecap:round;stroke-linejoin:round;marker:none;stroke-miterlimit:4;stroke-dasharray:none;stroke-dashoffset:0;stroke-opacity:1;visibility:visible;display:inline;overflow:visible;enable-background:accumulate" />
    <path
       d="M -243.59375,241 C -243.83279,241.04561 -244.00429,241.25668 -244,241.5 L -244,242.5 C -244.00255,242.68032 -243.90781,242.84804 -243.75206,242.93894 C -243.59631,243.02985 -243.40369,243.02985 -243.24794,242.93894 C -243.09219,242.84804 -242.99745,242.68032 -243,242.5 L -243,241.5 C -242.99734,241.34943 -243.06268,241.20569 -243.17787,241.10868 C -243.29306,241.01168 -243.44583,240.97176 -243.59375,241 L -243.59375,241 z"
       id="path6361"
       style="fill:#bebebe;fill-opacity:1;stroke:none;stroke-width:1;stroke-linecap:round;stroke-linejoin:round;marker:none;stroke-miterlimit:4;stroke-dasharray:none;stroke-dashoffset:0;stroke-opacity:1;visibility:visible;display:inline;overflow:visible;enable-background:accumulate" />
    <path
       d="M -241.59375,241 C -241.83279,241.04561 -242.00429,241.25668 -242,241.5 L -242,242.5 C -242.00255,242.68032 -241.90781,242.84804 -241.75206,242.93894 C -241.59631,243.02985 -241.40369,243.02985 -241.24794,242.93894 C -241.09219,242.84804 -240.99745,242.68032 -241,242.5 L -241,241.5 C -240.99734,241.34943 -241.06268,241.20569 -241.17787,241.10868 C -241.29306,241.01168 -241.44583,240.97176 -241.59375,241 L -241.59375,241 z"
       id="path6363"
       style="fill:#bebebe;fill-opacity:1;stroke:none;stroke-width:1;stroke-linecap:round;stroke-linejoin:round;marker:none;stroke-miterlimit:4;stroke-dasharray:none;stroke-dashoffset:0;stroke-opacity:1;visibility:visible;display:inline;overflow:visible;enable-background:accumulate" />
    <path
       d="M -245.59375,241 C -245.83279,241.04561 -246.00429,241.25668 -246,241.5 L -246,242.5 C -246.00255,242.68032 -245.90781,242.84804 -245.75206,242.93894 C -245.59631,243.02985 -245.40369,243.02985 -245.24794,242.93894 C -245.09219,242.84804 -244.99745,242.68032 -245,242.5 L -245,241.5 C -244.99734,241.34943 -245.06268,241.20569 -245.17787,241.10868 C -245.29306,241.01168 -245.44583,240.97176 -245.59375,241 L -245.59375,241 z"
       id="path6365"
       style="fill:#bebebe;fill-opacity:1;stroke:none;stroke-width:1;stroke-linecap:round;stroke-linejoin:round;marker:none;stroke-miterlimit:4;stroke-dasharray:none;stroke-dashoffset:0;stroke-opacity:1;visibility:visible;display:inline;overflow:visible;enable-background:accumulate" />
    <path
       d="M -247.78125,246 C -248.05739,246.02589 -248.26026,246.27073 -248.23438,246.54688 C -248.20849,246.82302 -247.96364,247.02589 -247.6875,247 L -239.5,247 C -239.31968,247.00255 -239.15196,246.90781 -239.06106,246.75206 C -238.97015,246.59631 -238.97015,246.40369 -239.06106,246.24794 C -239.15196,246.09219 -239.31968,245.99745 -239.5,246 L -247.6875,246 C -247.71868,245.99706 -247.75007,245.99706 -247.78125,246 z"
       id="path6367"
       style="fill:#bebebe;fill-opacity:1;stroke:none;stroke-width:1;stroke-linecap:round;stroke-linejoin:round;marker:none;stroke-miterlimit:4;stroke-dasharray:none;stroke-dashoffset:0;stroke-opacity:1;visibility:visible;display:inline;overflow:visible;enable-background:accumulate" />
    <path
       d="M -251,235.69064 C -249,235.69064 -247.96875,237.5625 -248,239.0625 L -241.48437,239.0625 L -241.48437,235.69064 C -241.48437,235.69064 -251,235.69064 -251,235.69064 z"
       id="path6369"
       style="fill:#bebebe;fill-opacity:1;stroke:none;stroke-width:3;stroke-linecap:round;stroke-linejoin:round;marker:none;stroke-miterlimit:4;stroke-dasharray:none;stroke-dashoffset:0;stroke-opacity:1;visibility:visible;display:inline;overflow:visible;enable-background:accumulate" />
  </g>
  <g
     transform="translate(262,-232)"
     id="layer9" />
  <g
     transform="translate(262,-232)"
     id="layer10" />
  <g
     transform="translate(262,-232)"
     id="layer6" />
</svg>
