<?xml version="1.0" encoding="UTF-8" standalone="no"?>
<!-- Created with Inkscape (http://www.inkscape.org/) -->
<svg
   xmlns:svg="http://www.w3.org/2000/svg"
   xmlns="http://www.w3.org/2000/svg"
   version="1.0"
   width="24.052893"
   height="24.04825"
   id="svg7384">
  <title
     id="title9167">Moblin Icon Theme</title>
  <defs
     id="defs7386" />
  <g
     transform="translate(262.0108,-291.95175)"
     id="layer3" />
  <g
     transform="translate(262.0108,-291.95175)"
     id="layer5" />
  <g
     transform="translate(262.0108,-291.95175)"
     id="layer7" />
  <g
     transform="translate(262.0108,-291.95175)"
     id="layer2" />
  <g
     transform="translate(262.0108,-291.95175)"
     id="layer8" />
  <g
     transform="translate(262.0108,-1244.3139)"
     id="layer1" />
  <g
     transform="translate(262.0108,-291.95175)"
     id="layer11" />
  <g
     transform="translate(262.0108,-291.95175)"
     id="layer4">
    <rect
       width="24"
       height="24"
       x="-262"
       y="292"
       id="rect6967"
       style="opacity:0;fill:#ffffff;fill-opacity:1;stroke:none;display:inline" />
    <path
       d="M -253.125,311 C -253.67728,311.03452 -254.09702,311.51022 -254.0625,312.0625 C -254.02798,312.61478 -253.55228,313.03452 -253,313 L -247.125,313 C -246.76437,313.0051 -246.42893,312.81562 -246.24712,312.50412 C -246.06532,312.19263 -246.06532,311.80737 -246.24712,311.49588 C -246.42893,311.18438 -246.76437,310.9949 -247.125,311 L -253,311 C -253.04163,310.99739 -253.08337,310.99739 -253.125,311 z"
       id="path6971"
       style="fill:#bebebe;fill-opacity:1;fill-rule:nonzero;stroke:none;stroke-width:1.99999964;stroke-linecap:round;stroke-linejoin:miter;marker:none;stroke-miterlimit:4;stroke-dasharray:none;stroke-dashoffset:0;stroke-opacity:1;visibility:visible;display:inline;overflow:visible;enable-background:new" />
    <path
       d="M -258.75,291.9375 C -260.539,291.9375 -262,293.42975 -262,295.21875 L -262,306.71875 C -262,308.50775 -260.539,310.00001 -258.75,310 L -241.21875,310 C -239.42975,310 -237.96874,308.50776 -237.96875,306.71875 L -237.96875,295.21875 C -237.96875,293.42975 -239.42975,291.9375 -241.21875,291.9375 L -258.75,291.9375 z M -258.75,293.9375 L -241.21875,293.9375 C -240.50316,293.9375 -239.96875,294.50316 -239.96875,295.21875 L -239.96875,306.71875 C -239.96875,307.43435 -240.50316,308 -241.21875,308 L -258.75,308 C -259.4656,308 -260,307.43434 -260,306.71875 L -260,295.21875 C -260,294.50315 -259.46559,293.9375 -258.75,293.9375 z"
       id="rect6989"
       style="fill:#bebebe;fill-opacity:1;fill-rule:nonzero;stroke:none;stroke-width:2;stroke-linecap:round;stroke-linejoin:round;marker:none;stroke-miterlimit:4;stroke-dasharray:none;stroke-dashoffset:0;stroke-opacity:1;visibility:visible;display:inline;overflow:visible;enable-background:accumulate" />
    <path
       d="M -258.5,295 C -258.77613,295.00003 -258.99997,295.22387 -259,295.5 L -259,306.53125 C -258.99997,306.80738 -258.77613,307.03122 -258.5,307.03125 L -241.5,307.03125 C -241.22387,307.03122 -241.00003,306.80738 -241,306.53125 L -241,295.5 C -241.00003,295.22387 -241.22387,295.00003 -241.5,295 L -258.5,295 z M -258,296 L -242,296 L -242,306.03125 L -258,306.03125 L -258,296 z"
       id="rect7001"
       style="fill:#bebebe;fill-opacity:1;stroke:none;stroke-width:1;stroke-linecap:round;stroke-linejoin:round;marker:none;stroke-miterlimit:4;stroke-dasharray:none;stroke-dashoffset:0;stroke-opacity:1;visibility:visible;display:inline;overflow:visible;enable-background:accumulate" />
    <path
       d="M -253.30047,297.05 C -254.58747,297.24657 -255.63102,297.99935 -256.23049,299.15506 C -257.24466,301.11021 -256.47883,303.54579 -254.52368,304.55996 C -252.56854,305.57412 -250.1614,304.80832 -249.14723,302.85315 C -249.01369,302.60963 -249.10285,302.30397 -249.34636,302.17043 C -249.58988,302.03689 -249.89554,302.12604 -250.02909,302.36956 C -250.79411,303.84443 -252.59368,304.4147 -254.06853,303.64966 C -255.54339,302.88462 -256.11367,301.08507 -255.34864,299.61021 C -254.8826,298.71173 -254.13034,298.19846 -253.12979,298.04564 C -252.85485,297.99851 -252.67018,297.73742 -252.71731,297.46248 C -252.76444,297.18754 -253.02553,297.00287 -253.30047,297.05 z"
       id="path7003"
       style="fill:#bebebe;fill-opacity:1;stroke:none;stroke-width:1.09854102;stroke-linecap:round;stroke-linejoin:round;marker:none;stroke-miterlimit:4;stroke-dasharray:none;stroke-dashoffset:0;stroke-opacity:1;visibility:visible;display:inline;overflow:visible;enable-background:accumulate" />
    <path
       d="M -253.25624,296.92749 C -253.39749,296.97137 -253.51206,297.07553 -253.56916,297.21196 C -253.92614,297.92224 -254.05624,298.6693 -253.96741,299.45926 C -253.72132,301.648 -251.7469,303.23274 -249.55816,302.98666 C -249.28322,302.95524 -249.08581,302.70689 -249.11723,302.43195 C -249.14865,302.15701 -249.39701,301.9596 -249.67194,301.99102 C -251.32301,302.17665 -252.78614,300.99653 -252.97178,299.34547 C -253.04173,298.72329 -252.96847,298.19808 -252.68731,297.63866 C -252.59842,297.46373 -252.62006,297.25298 -252.74264,297.09976 C -252.86521,296.94654 -253.06607,296.87917 -253.25624,296.92749 L -253.25624,296.92749 z"
       id="path7005"
       style="fill:#bebebe;fill-opacity:1;stroke:none;stroke-width:1.09854102;stroke-linecap:round;stroke-linejoin:round;marker:none;stroke-miterlimit:4;stroke-dasharray:none;stroke-dashoffset:0;stroke-opacity:1;visibility:visible;display:inline;overflow:visible;enable-background:accumulate" />
    <path
       d="M -246.35262,297.01545 C -246.61042,296.93208 -246.88772,297.06919 -246.97798,297.32465 L -247.71263,299.27431 L -249.68695,300.0335 C -249.87832,300.11192 -250.00167,300.30006 -249.99727,300.50684 C -249.99287,300.71361 -249.86164,300.89634 -249.6671,300.96655 L -247.72953,301.72216 L -246.95826,303.67552 C -246.88018,303.86056 -246.69897,303.98093 -246.49814,303.98117 C -246.2973,303.98141 -246.11581,303.86147 -246.03729,303.67662 L -245.29054,301.70602 L -243.32832,300.96778 C -243.12821,300.89957 -242.99262,300.71287 -242.98966,300.50148 C -242.9867,300.29008 -243.11701,300.09966 -243.31513,300.02587 L -245.28574,299.27912 L -246.02397,297.3169 C -246.08017,297.17043 -246.20185,297.05881 -246.35262,297.01545 z M -246.50792,298.88069 L -246.14323,299.84528 C -246.08843,299.98245 -245.9758,300.08837 -245.83553,300.13464 L -244.89212,300.48383 L -245.85671,300.84852 C -245.99387,300.90332 -246.09979,301.01596 -246.14607,301.15623 L -246.5162,302.08755 L -246.87204,301.15599 C -246.91738,301.02227 -247.01715,300.91395 -247.1467,300.85778 L -248.09012,300.50859 L -247.14647,300.13181 C -247.01828,300.07882 -246.91785,299.97496 -246.8692,299.84505 L -246.50792,298.88069 z"
       id="path7007"
       style="fill:#bebebe;fill-opacity:1;stroke:none;stroke-width:1.29208565;stroke-linecap:round;stroke-linejoin:round;marker:none;stroke-miterlimit:4;stroke-dasharray:none;stroke-dashoffset:0;stroke-opacity:1;visibility:visible;display:inline;overflow:visible;enable-background:accumulate" />
  </g>
  <g
     transform="translate(262.0108,-291.95175)"
     id="layer9" />
  <g
     transform="translate(262.0108,-291.95175)"
     id="layer10" />
  <g
     transform="translate(262.0108,-291.95175)"
     id="layer6" />
</svg>
