<?xml version="1.0" encoding="UTF-8" standalone="no"?>
<!-- Created with Inkscape (http://www.inkscape.org/) -->
<svg
   xmlns:svg="http://www.w3.org/2000/svg"
   xmlns="http://www.w3.org/2000/svg"
   version="1.0"
   width="24"
   height="24"
   id="svg7384">
  <title
     id="title9167">Moblin Icon Theme</title>
  <defs
     id="defs7386" />
  <g
     transform="translate(234,-262)"
     id="layer3" />
  <g
     transform="translate(234,-262)"
     id="layer5" />
  <g
     transform="translate(234,-262)"
     id="layer7" />
  <g
     transform="translate(234,-262)"
     id="layer2" />
  <g
     transform="translate(234,-262)"
     id="layer8" />
  <g
     transform="translate(234,-1214.3622)"
     id="layer1" />
  <g
     transform="translate(234,-262)"
     id="layer11" />
  <g
     transform="translate(234,-262)"
     id="layer4">
    <g
       transform="translate(-1237,86.980682)"
       id="use6546">
      <rect
         width="24"
         height="24"
         x="1003"
         y="175.01932"
         id="rect9828"
         style="opacity:0;fill:#ffffff;fill-opacity:1;stroke:none;display:inline" />
      <g
         id="g9830">
        <path
           d="M -2.8284264,179.43886 A 22.98097,22.98097 0 1 1 -48.790367,179.43886 A 22.98097,22.98097 0 1 1 -2.8284264,179.43886 z"
           transform="matrix(0.1087857,0,0,-0.1087856,1017.3077,207.03969)"
           id="path9832"
           style="fill:none;stroke:#bebebe;stroke-width:18.38477516;stroke-linecap:round;stroke-miterlimit:4;stroke-dasharray:none;stroke-dashoffset:0;stroke-opacity:1;display:inline" />
        <path
           d="M -2.8284264,179.43886 A 22.98097,22.98097 0 1 1 -48.790367,179.43886 A 22.98097,22.98097 0 1 1 -2.8284264,179.43886 z"
           transform="matrix(0.1087858,0,0,-0.1087857,1009.3077,207.03969)"
           id="path9834"
           style="fill:none;stroke:#bebebe;stroke-width:18.38476562;stroke-linecap:round;stroke-miterlimit:4;stroke-dasharray:none;stroke-dashoffset:0;stroke-opacity:1;display:inline" />
        <rect
           width="6"
           height="2"
           rx="0.98780483"
           ry="0.98780483"
           x="-188.01932"
           y="1011"
           transform="matrix(0,-1,1,0,0,0)"
           id="rect9836"
           style="fill:#bebebe;fill-opacity:1;stroke:none;display:inline" />
        <rect
           width="4.5056"
           height="2"
           rx="0.98780489"
           ry="0.98780483"
           x="-191.01932"
           y="1007.9999"
           transform="matrix(0,-1,1,0,0,0)"
           id="rect9838"
           style="fill:#bebebe;fill-opacity:1;stroke:none;display:inline" />
        <path
           d="M -25.809396,202.41983 A 22.98097,22.98097 0 1 1 -3.2536825,175.03832"
           transform="matrix(0.1087857,0,0,-0.1087856,1025.3077,207.03968)"
           id="path9840"
           style="fill:none;stroke:#bebebe;stroke-width:18.38477516;stroke-linecap:round;stroke-miterlimit:4;stroke-dasharray:none;stroke-dashoffset:0;stroke-opacity:1;display:inline" />
      </g>
    </g>
  </g>
  <g
     transform="translate(234,-262)"
     id="layer9" />
  <g
     transform="translate(234,-262)"
     id="layer10" />
  <g
     transform="translate(234,-262)"
     id="layer6" />
</svg>
