<?xml version="1.0" encoding="UTF-8" standalone="no"?>
<!-- Created with Inkscape (http://www.inkscape.org/) -->
<svg
   xmlns:svg="http://www.w3.org/2000/svg"
   xmlns="http://www.w3.org/2000/svg"
   version="1.0"
   width="24"
   height="24"
   id="svg7384">
  <title
     id="title9167">Moblin Icon Theme</title>
  <defs
     id="defs7386" />
  <g
     transform="translate(262,-318)"
     id="layer3" />
  <g
     transform="translate(262,-318)"
     id="layer5" />
  <g
     transform="translate(262,-318)"
     id="layer7" />
  <g
     transform="translate(262,-318)"
     id="layer2" />
  <g
     transform="translate(262,-318)"
     id="layer8" />
  <g
     transform="translate(262,-1270.3622)"
     id="layer1" />
  <g
     transform="translate(262,-318)"
     id="layer11" />
  <g
     transform="translate(262,-318)"
     id="layer4">
    <rect
       width="24"
       height="24"
       x="-262"
       y="318"
       id="rect6788"
       style="opacity:0;fill:#ffffff;fill-opacity:1;stroke:none;display:inline" />
    <path
       d="M -250.5,319 C -256.29899,319 -261,323.70101 -261,329.5 C -261,335.29899 -256.29899,340 -250.5,340 C -244.70101,340 -240,335.29899 -240,329.5 C -240,323.70101 -244.70101,319 -250.5,319 z M -250.5625,322 C -249.3912,322 -248.22867,322.44253 -247.34375,323.3125 C -245.6713,324.95668 -245.60537,327.58953 -247.09375,329.34375 C -247.14738,329.43338 -247.21022,329.51717 -247.28125,329.59375 C -247.3022,329.61518 -247.32228,329.63514 -247.34375,329.65625 C -247.35401,329.66682 -247.36443,329.67724 -247.375,329.6875 C -247.55049,329.91569 -247.78919,330.0893 -248.0625,330.1875 L -248.5,330.53125 C -248.51026,330.54182 -248.52068,330.55224 -248.53125,330.5625 C -248.73751,330.77253 -248.91258,331.05478 -248.96875,331.34375 C -248.97738,331.38584 -248.9878,331.42755 -249,331.46875 C -248.9998,331.47895 -249,331.48975 -249,331.5 C -249,332.32843 -249.67157,333 -250.5,333 C -251.32843,333 -252,332.32843 -252,331.5 C -252,331.36193 -251.97243,331.22072 -251.9375,331.09375 C -251.9428,330.96794 -251.93231,330.84195 -251.90625,330.71875 C -251.73781,329.85237 -251.33717,329.06723 -250.71875,328.4375 C -250.59293,328.30784 -250.44471,328.20197 -250.28125,328.125 L -249.34375,327.40625 C -249.32316,327.39535 -249.30232,327.38493 -249.28125,327.375 C -248.85136,326.77218 -248.88987,325.94461 -249.4375,325.40625 C -250.05109,324.80303 -251.01141,324.80303 -251.625,325.40625 C -251.91257,325.68896 -252.12349,326.10021 -252.125,326.5 C -252.0481,327.07318 -252.31601,327.63823 -252.81197,327.94891 C -253.30793,328.25958 -253.94207,328.25958 -254.43803,327.94891 C -254.93399,327.63823 -255.2019,327.07318 -255.125,326.5 C -255.1205,325.31627 -254.63268,324.14953 -253.78125,323.3125 C -252.89633,322.44253 -251.7338,322 -250.5625,322 z M -250.5,334 C -249.67157,334 -249,334.67157 -249,335.5 C -249,336.32843 -249.67157,337 -250.5,337 C -251.32843,337 -252,336.32843 -252,335.5 C -252,334.67157 -251.32843,334 -250.5,334 z"
       id="path6790"
       style="fill:#bebebe;fill-opacity:1;stroke:none;stroke-width:2;marker:none;visibility:visible;display:inline;overflow:visible;enable-background:accumulate" />
  </g>
  <g
     transform="translate(262,-318)"
     id="layer12" />
  <g
     transform="translate(262,-318)"
     id="layer9" />
  <g
     transform="translate(262,-318)"
     id="layer10" />
  <g
     transform="translate(262,-318)"
     id="layer6" />
</svg>
