<?xml version="1.0" encoding="UTF-8" standalone="no"?>
<!-- Created with Inkscape (http://www.inkscape.org/) -->
<svg
   xmlns:svg="http://www.w3.org/2000/svg"
   xmlns="http://www.w3.org/2000/svg"
   version="1.0"
   width="24"
   height="24"
   id="svg7384">
  <title
     id="title9167">Moblin Icon Theme</title>
  <defs
     id="defs7386" />
  <g
     transform="translate(150,-202)"
     id="layer3" />
  <g
     transform="translate(150,-202)"
     id="layer5" />
  <g
     transform="translate(150,-202)"
     id="layer7" />
  <g
     transform="translate(150,-202)"
     id="layer2" />
  <g
     transform="translate(150,-202)"
     id="layer8" />
  <g
     transform="translate(150,-1154.3622)"
     id="layer1" />
  <g
     transform="translate(150,-202)"
     id="layer11" />
  <g
     transform="translate(150,-202)"
     id="layer4">
    <rect
       width="24"
       height="24"
       x="-150"
       y="202"
       id="rect6274"
       style="opacity:0;fill:#ffffff;fill-opacity:1;stroke:none;display:inline" />
    <path
       d="M -148,204 L -148,205 L -148,223 L -148,224 L -147,224 L -140.96875,224 C -140.60811,224.00511 -140.27266,223.81563 -140.09085,223.50413 C -139.90904,223.19263 -139.90904,222.80737 -140.09085,222.49587 C -140.27266,222.18437 -140.60811,221.99489 -140.96875,222 L -146,222 L -146,206 L -132,206 L -132,211 C -132.00511,211.36064 -131.81563,211.69609 -131.50413,211.8779 C -131.19263,212.05971 -130.80737,212.05971 -130.49587,211.8779 C -130.18437,211.69609 -129.99489,211.36064 -130,211 L -130,205 L -130,204 L -131,204 L -147,204 L -148,204 z"
       id="path5451-7"
       style="fill:#bebebe;fill-opacity:1;stroke:none;stroke-width:2.00000048;stroke-linecap:round;stroke-linejoin:miter;marker:none;stroke-miterlimit:4;stroke-dasharray:none;stroke-dashoffset:0;stroke-opacity:1;visibility:visible;display:inline;overflow:visible;enable-background:accumulate" />
    <path
       d="M -144.59375,211 C -144.86989,211.02589 -145.07276,211.27073 -145.04688,211.54687 C -145.02099,211.82302 -144.77614,212.02589 -144.5,212 L -136.5,212 C -136.31968,212.00255 -136.15196,211.90781 -136.06106,211.75206 C -135.97016,211.59631 -135.97016,211.40369 -136.06106,211.24794 C -136.15196,211.09219 -136.31968,210.99745 -136.5,211 L -144.5,211 C -144.53118,210.99706 -144.56257,210.99706 -144.59375,211 L -144.59375,211 z"
       id="path5455-3"
       style="fill:#bebebe;fill-opacity:1;stroke:none;stroke-width:0.99999994;stroke-linecap:round;stroke-linejoin:miter;marker:none;stroke-miterlimit:4;stroke-dasharray:none;stroke-dashoffset:0;stroke-opacity:1;visibility:visible;display:inline;overflow:visible;enable-background:accumulate" />
    <path
       d="M -134.3125,212 C -134.50306,212.04291 -134.67687,212.14068 -134.8125,212.28125 L -134.84375,212.3125 C -134.89054,212.36027 -134.93241,212.41262 -134.96875,212.46875 L -140.75,218.28125 C -141.02364,218.5704 -141.09973,218.99431 -140.94373,219.36058 C -140.78772,219.72685 -140.42934,219.96571 -140.03125,219.96875 L -138.03125,219.96875 L -138.03125,222.96875 C -138.03119,223.52101 -137.58351,223.96869 -137.03125,223.96875 L -131.03125,223.96875 C -130.47899,223.96869 -130.03131,223.52101 -130.03125,222.96875 L -130,220 L -128.03125,219.96875 C -127.62523,219.96551 -127.26146,219.7171 -127.11066,219.34011 C -126.95987,218.96311 -127.05197,218.53236 -127.34375,218.25 L -133.40625,212.28125 C -133.6418,212.04104 -133.98234,211.93535 -134.3125,212 L -134.3125,212 z M -134.09375,214.40625 L -130.46875,218 L -131,218 C -131.55226,218.00006 -131.99994,218.44774 -132,219 L -132.03125,221.96875 L -136.03125,221.96875 L -136.03125,218.96875 C -136.03131,218.41649 -136.47899,217.96881 -137.03125,217.96875 L -137.625,217.96875 L -134.09375,214.40625 z"
       id="path6316"
       style="fill:#bebebe;fill-opacity:1;stroke:none;stroke-width:2;stroke-linecap:round;stroke-linejoin:round;marker:none;stroke-miterlimit:4;stroke-dasharray:none;stroke-dashoffset:0;stroke-opacity:1;visibility:visible;display:inline;overflow:visible;enable-background:accumulate" />
  </g>
  <g
     transform="translate(150,-202)"
     id="layer9" />
  <g
     transform="translate(150,-202)"
     id="layer10" />
  <g
     transform="translate(150,-202)"
     id="layer6" />
</svg>
