<?xml version="1.0" encoding="UTF-8" standalone="no"?>
<!-- Created with Inkscape (http://www.inkscape.org/) -->
<svg
   xmlns:svg="http://www.w3.org/2000/svg"
   xmlns="http://www.w3.org/2000/svg"
   version="1.0"
   width="24"
   height="24"
   id="svg7384">
  <defs
     id="defs7386" />
  <g
     transform="translate(206,-174)"
     id="layer3" />
  <g
     transform="translate(206,-174)"
     id="layer5" />
  <g
     transform="translate(206,-174)"
     id="layer7" />
  <g
     transform="translate(206,-174)"
     id="layer2" />
  <g
     transform="translate(206,-174)"
     id="layer8" />
  <g
     transform="translate(206,-1126.3622)"
     id="layer1" />
  <g
     transform="translate(206,-174)"
     id="layer4" />
  <g
     transform="translate(206,-174)"
     id="layer9" />
  <g
     transform="translate(206,-174)"
     id="layer6">
    <rect
       width="24"
       height="24"
       x="182"
       y="174"
       transform="scale(-1,1)"
       id="rect10381"
       style="opacity:0;fill:#ffffff;fill-opacity:1;stroke:none;display:inline" />
    <path
       d="M -201.15625,174 C -202.72126,174 -204,175.27874 -204,176.84375 L -204,193.15625 C -204,194.72126 -202.72126,196 -201.15625,196 L -186.84375,196 C -185.27874,196 -183.99999,194.72127 -184,193.15625 L -184,176.84375 C -184,175.27874 -185.27873,174 -186.84375,174 L -201.15625,174 z M -201.15625,176 L -186.84375,176 C -186.35213,176 -186,176.35214 -186,176.84375 L -186,193.15625 C -186,193.64785 -186.35214,194 -186.84375,194 L -201.15625,194 C -201.64786,194 -202,193.64786 -202,193.15625 L -202,176.84375 C -202,176.35214 -201.64786,176 -201.15625,176 z"
       id="rect10405"
       style="fill:#bebebe;fill-opacity:1;stroke:none;stroke-width:1.99999952;marker:none;stroke-miterlimit:4;stroke-dasharray:none;stroke-opacity:1;visibility:visible;display:inline;overflow:visible;enable-background:accumulate" />
    <path
       d="M -198.78125,178 C -199.44134,178 -200,178.55866 -200,179.21875 L -200,182.78125 C -200,183.44134 -199.44134,184 -198.78125,184 L -189.21875,184 C -188.55866,184 -188,183.44134 -188,182.78125 L -188,179.21875 C -188,178.55866 -188.55866,178 -189.21875,178 L -198.78125,178 z M -198.78125,179 L -189.21875,179 C -189.09537,179 -189,179.09536 -189,179.21875 L -189,182.78125 C -189,182.90464 -189.09536,183 -189.21875,183 L -198.78125,183 C -198.90464,183 -199,182.90464 -199,182.78125 L -199,179.21875 C -199,179.09536 -198.90464,179 -198.78125,179 z"
       id="rect10452"
       style="fill:#bebebe;fill-opacity:1;stroke:none;stroke-width:1;marker:none;stroke-miterlimit:4;stroke-dasharray:none;stroke-opacity:1;visibility:visible;display:inline;overflow:visible;enable-background:accumulate" />
    <path
       d="M -198.78125,186 C -199.44134,186 -200,186.55866 -200,187.21875 L -200,190.78125 C -200,191.44134 -199.44134,192 -198.78125,192 L -189.21875,192 C -188.55866,192 -188,191.44134 -188,190.78125 L -188,187.21875 C -188,186.55866 -188.55866,186 -189.21875,186 L -198.78125,186 z M -198.78125,187 L -189.21875,187 C -189.09537,187 -189,187.09536 -189,187.21875 L -189,190.78125 C -189,190.90464 -189.09536,191 -189.21875,191 L -198.78125,191 C -198.90464,191 -199,190.90464 -199,190.78125 L -199,187.21875 C -199,187.09536 -198.90464,187 -198.78125,187 z"
       id="rect10456"
       style="fill:#bebebe;fill-opacity:1;stroke:none;stroke-width:1;marker:none;stroke-miterlimit:4;stroke-dasharray:none;stroke-opacity:1;visibility:visible;display:inline;overflow:visible;enable-background:accumulate" />
    <path
       d="M -196,179.96875 L -196,180.46875 L -196,181.5 C -196.00255,181.68032 -195.90781,181.84804 -195.75206,181.93894 C -195.59631,182.02985 -195.40369,182.02985 -195.24794,181.93894 C -195.09219,181.84804 -194.99745,181.68032 -195,181.5 L -195,180.96875 L -192.96875,180.96875 L -192.96875,181.4375 C -192.9713,181.61782 -192.87656,181.78554 -192.72081,181.87644 C -192.56506,181.96735 -192.37244,181.96735 -192.21669,181.87644 C -192.06094,181.78554 -191.9662,181.61782 -191.96875,181.4375 L -191.96875,180.46875 L -191.96875,179.96875 L -192.46875,179.96875 L -195.5,179.96875 L -196,179.96875 z"
       id="path10505"
       style="fill:#bebebe;fill-opacity:1;stroke:none;stroke-width:1;stroke-linecap:round;stroke-linejoin:miter;marker:none;stroke-miterlimit:4;stroke-dasharray:none;stroke-dashoffset:0;stroke-opacity:1;visibility:visible;display:inline;overflow:visible;enable-background:accumulate" />
    <path
       d="M -196,188 L -196,188.5 L -196,189.53125 C -196.00255,189.71157 -195.90781,189.87929 -195.75206,189.97019 C -195.59631,190.0611 -195.40369,190.0611 -195.24794,189.97019 C -195.09219,189.87929 -194.99745,189.71157 -195,189.53125 L -195,189 L -192.96875,189 L -192.96875,189.46875 C -192.9713,189.64907 -192.87656,189.81679 -192.72081,189.90769 C -192.56506,189.9986 -192.37244,189.9986 -192.21669,189.90769 C -192.06094,189.81679 -191.9662,189.64907 -191.96875,189.46875 L -191.96875,188.5 L -191.96875,188 L -192.46875,188 L -195.5,188 L -196,188 z"
       id="path10544"
       style="fill:#bebebe;fill-opacity:1;stroke:none;stroke-width:1;stroke-linecap:round;stroke-linejoin:miter;marker:none;stroke-miterlimit:4;stroke-dasharray:none;stroke-dashoffset:0;stroke-opacity:1;visibility:visible;display:inline;overflow:visible;enable-background:accumulate" />
  </g>
</svg>
