<?xml version="1.0" encoding="UTF-8" standalone="no"?>
<!-- Created with Inkscape (http://www.inkscape.org/) -->
<svg
   xmlns:svg="http://www.w3.org/2000/svg"
   xmlns="http://www.w3.org/2000/svg"
   version="1.0"
   width="24"
   height="24"
   id="svg7384">
  <title
     id="title9167">Moblin Icon Theme</title>
  <defs
     id="defs7386" />
  <g
     transform="translate(262,-318)"
     id="layer3" />
  <g
     transform="translate(262,-318)"
     id="layer5" />
  <g
     transform="translate(262,-318)"
     id="layer7" />
  <g
     transform="translate(262,-318)"
     id="layer2" />
  <g
     transform="translate(262,-318)"
     id="layer8" />
  <g
     transform="translate(262,-1270.3622)"
     id="layer1" />
  <g
     transform="translate(262,-318)"
     id="layer11" />
  <g
     transform="translate(262,-318)"
     id="layer4">
    <rect
       width="24"
       height="24"
       x="-262"
       y="318"
       id="rect6788"
       style="opacity:0;fill:#ffffff;fill-opacity:1;stroke:none;display:inline" />
    <path
       d="M -239,274 A 11,11 0 1 1 -261,274 A 11,11 0 1 1 -239,274 z"
       transform="matrix(0.9545455,0,0,0.9545455,-11.86364,67.95455)"
       id="path6790"
       style="fill:#bebebe;fill-opacity:1;stroke:none;stroke-width:2;marker:none;visibility:visible;display:inline;overflow:visible;enable-background:accumulate" />
    <path
       d="M 736.86871,179.71892 A 1.7154472,1.7154472 0 1 1 733.43781,179.71892 A 1.7154472,1.7154472 0 1 1 736.86871,179.71892 z"
       transform="matrix(0.8744076,0,0,0.8744076,-893.3236,178.35241)"
       id="path5855-31"
       style="fill:#ffffff;fill-opacity:1;stroke:none;display:inline" />
    <path
       d="M -250.55802,322.00683 C -249.38673,322.00683 -248.21875,322.44844 -247.3338,323.31844 C -245.5639,325.05842 -245.56392,327.91791 -247.3338,329.65789 C -247.68429,330.1349 -248.28789,330.36393 -248.87348,330.24212 C -249.45908,330.1203 -249.91658,329.67054 -250.04049,329.09484 C -250.1644,328.51914 -249.93143,327.92574 -249.44622,327.58117 C -248.83393,326.97923 -248.83391,325.99712 -249.44622,325.39516 C -250.05854,324.79318 -251.00192,324.7932 -251.61423,325.39516 C -251.95574,325.73089 -252.11274,326.01334 -252.11454,326.48816 C -252.04065,327.05999 -252.30949,327.62231 -252.80448,327.93128 C -253.29946,328.24026 -253.93147,328.24026 -254.42646,327.93128 C -254.92145,327.62231 -255.19028,327.05999 -255.1164,326.48816 C -255.11195,325.31485 -254.62614,324.14809 -253.78224,323.31844 C -252.8973,322.44846 -251.7293,322.00683 -250.55802,322.00683 z"
       id="path5855-1-9"
       style="fill:#ffffff;fill-opacity:1;stroke:none;stroke-width:1.70088911;stroke-linecap:round;stroke-miterlimit:4;stroke-dasharray:none;stroke-opacity:1;display:inline" />
    <path
       d="M -249.34733,327.99474 C -248.77999,328.07769 -248.30956,328.47677 -248.13523,329.023 C -247.96091,329.56922 -248.11318,330.16704 -248.52757,330.56331 C -248.77957,330.81991 -248.89613,330.97538 -248.96477,331.32841 C -249.13078,332.14334 -249.92598,332.6694 -250.74091,332.5034 C -251.55584,332.33739 -252.0819,331.54219 -251.9159,330.72726 C -251.74941,329.87095 -251.32487,329.05438 -250.71359,328.43194 C -250.36187,328.06379 -249.84743,327.89917 -249.34733,327.99474 z"
       id="path5925-3"
       style="fill:#ffffff;fill-opacity:1;stroke:none;stroke-width:1.71544778;stroke-linecap:round;stroke-miterlimit:4;stroke-dasharray:none;stroke-opacity:1;display:inline" />
    <path
       d="M 736.86871,179.71892 A 1.7154472,1.7154472 0 1 1 733.43781,179.71892 A 1.7154472,1.7154472 0 1 1 736.86871,179.71892 z"
       transform="matrix(0.8744076,0,0,0.8744076,-893.3236,174.35241)"
       id="path5855-3-7"
       style="fill:#ffffff;fill-opacity:1;stroke:none;display:inline" />
    <path
       d="M -248.5625,327.09375 C -248.8474,327.12125 -249.11848,327.22969 -249.34375,327.40625 L -250.53125,328.34375 C -251.18709,328.85289 -251.30601,329.79729 -250.79688,330.45313 C -250.28774,331.10896 -249.34334,331.22789 -248.6875,330.71875 L -247.5,329.78125 C -246.96348,329.37457 -246.7636,328.66027 -247.01112,328.03419 C -247.25864,327.40811 -247.89293,327.02361 -248.5625,327.09375 z"
       id="path6834"
       style="fill:#ffffff;fill-opacity:1;stroke:none;stroke-width:3;stroke-linecap:round;stroke-linejoin:miter;marker:none;stroke-miterlimit:4;stroke-dasharray:none;stroke-dashoffset:0;stroke-opacity:1;visibility:visible;display:inline;overflow:visible;enable-background:accumulate" />
  </g>
  <g
     transform="translate(262,-318)"
     id="layer9" />
  <g
     transform="translate(262,-318)"
     id="layer10" />
  <g
     transform="translate(262,-318)"
     id="layer6" />
</svg>
