<?xml version="1.0" encoding="UTF-8" standalone="no"?>
<!-- Created with Inkscape (http://www.inkscape.org/) -->
<svg
   xmlns:svg="http://www.w3.org/2000/svg"
   xmlns="http://www.w3.org/2000/svg"
   xmlns:xlink="http://www.w3.org/1999/xlink"
   version="1.0"
   width="24.003006"
   height="24.000002"
   id="svg7384">
  <defs
     id="defs7386">
    <linearGradient
       id="linearGradient12576">
      <stop
         id="stop12578"
         style="stop-color:#204a87;stop-opacity:1"
         offset="0" />
      <stop
         id="stop12580"
         style="stop-color:#729fcf;stop-opacity:1"
         offset="1" />
    </linearGradient>
    <linearGradient
       x1="-220.50125"
       y1="192.8125"
       x2="-220.50125"
       y2="177.25"
       id="linearGradient12582"
       xlink:href="#linearGradient12576"
       gradientUnits="userSpaceOnUse" />
    <linearGradient
       x1="-220.50125"
       y1="192.8125"
       x2="-220.50125"
       y2="177.25"
       id="linearGradient12590"
       xlink:href="#linearGradient12576"
       gradientUnits="userSpaceOnUse"
       gradientTransform="translate(-1.4375,-1.5)" />
    <linearGradient
       x1="-220.50125"
       y1="192.8125"
       x2="-220.50125"
       y2="177.25"
       id="linearGradient12617"
       xlink:href="#linearGradient12576"
       gradientUnits="userSpaceOnUse"
       gradientTransform="translate(-0.5,-0.5)" />
  </defs>
  <g
     transform="translate(232.00301,-175)"
     id="layer3" />
  <g
     transform="translate(232.00301,-175)"
     id="layer5" />
  <g
     transform="translate(232.00301,-175)"
     id="layer7" />
  <g
     transform="translate(232.00301,-175)"
     id="layer2" />
  <g
     transform="translate(232.00301,-175)"
     id="layer8" />
  <g
     transform="translate(232.00301,-1127.3622)"
     id="layer1" />
  <g
     transform="translate(232.00301,-175)"
     id="layer4">
    <rect
       width="24"
       height="24"
       x="208"
       y="175"
       transform="scale(-1,1)"
       id="rect5754"
       style="opacity:0;fill:#f5f5f5;fill-opacity:1;stroke:none;display:inline" />
    <g
       transform="translate(0.5,0.5)"
       id="g12572"
       style="fill:url(#linearGradient12582);fill-opacity:1">
      <path
         d="M -225.5,174.5 C -226.78145,174.49909 -228.05972,174.99722 -229.03125,175.96875 C -230.90573,177.84307 -230.96316,180.85411 -229.21875,182.8125 C -231.074,183.49267 -232.42976,185.23307 -232.5,187.3125 C -232.504,187.3645 -232.504,187.41677 -232.5,187.46875 C -232.50034,187.47955 -232.5,187.4891 -232.5,187.5 L -232.5,192.5 C -232.5,193.054 -232.054,193.5 -231.5,193.5 C -230.946,193.5 -230.5,193.054 -230.5,192.5 L -230.5,187.5 C -230.499,187.4688 -230.499,187.43745 -230.5,187.40625 C -230.4451,185.77972 -229.12753,184.499 -227.5,184.5 L -227.40625,184.5 L -225.5,184.5 L -223.5,184.5 C -222.44835,184.49936 -221.47785,185.03509 -220.90625,185.84375 C -220.90625,185.84375 -219.71875,184.28125 -219.71875,184.28125 C -220.27197,183.64501 -220.97505,183.14379 -221.78125,182.84375 C -220.02379,180.88847 -220.08617,177.85132 -221.96875,175.96875 C -222.94165,174.99577 -224.21855,174.50091 -225.5,174.5 z M -225.5,176.5 C -224.73335,176.50055 -223.96553,176.78447 -223.375,177.375 C -222.19406,178.55604 -222.19568,180.44568 -223.375,181.625 C -223.96466,182.21463 -224.73431,182.50153 -225.5,182.5 C -226.26569,182.498 -227.03447,182.21552 -227.625,181.625 C -228.8061,180.44395 -228.80432,178.55433 -227.625,177.375 C -227.03534,176.78528 -226.26665,176.49945 -225.5,176.5 z"
         transform="translate(0,1)"
         id="path12615"
         style="font-size:medium;font-style:normal;font-variant:normal;font-weight:normal;font-stretch:normal;text-indent:0;text-align:start;text-decoration:none;line-height:normal;letter-spacing:normal;word-spacing:normal;text-transform:none;direction:ltr;block-progression:tb;writing-mode:lr-tb;text-anchor:start;opacity:0.5;fill:#ffffff;fill-opacity:1;fill-rule:nonzero;stroke:none;stroke-width:11.48875809;marker:none;visibility:visible;display:inline;overflow:visible;enable-background:accumulate;font-family:Bitstream Vera Sans;-inkscape-font-specification:Bitstream Vera Sans" />
      <path
         d="M -225.5,174.5 C -226.78145,174.49909 -228.05972,174.99722 -229.03125,175.96875 C -230.90573,177.84307 -230.96316,180.85411 -229.21875,182.8125 C -231.074,183.49267 -232.42976,185.23307 -232.5,187.3125 C -232.504,187.3645 -232.504,187.41677 -232.5,187.46875 C -232.50034,187.47955 -232.5,187.48915 -232.5,187.50005 L -232.5,192.50005 C -232.5,193.05405 -232.054,193.50005 -231.5,193.50005 C -230.946,193.50005 -230.5,193.05405 -230.5,192.50005 L -230.5,187.50005 C -230.499,187.46885 -230.499,187.43755 -230.5,187.40635 C -230.4451,185.77983 -229.12753,184.4991 -227.5,184.5001 L -227.4063,184.5001 L -225.50005,184.5001 L -223.50005,184.5001 C -222.4484,184.49947 -221.48086,185.02806 -220.90926,185.83672 C -220.90926,185.83672 -219.70951,184.2773 -219.70951,184.2773 C -220.26272,183.64106 -220.9751,183.14389 -221.7813,182.84385 C -220.02384,180.88858 -220.08622,177.85142 -221.9688,175.96885 C -222.9417,174.99588 -224.21855,174.50091 -225.5,174.5 z M -225.5,176.5 C -224.73335,176.50055 -223.96553,176.78447 -223.375,177.375 C -222.19406,178.55604 -222.19568,180.44568 -223.375,181.625 C -223.96466,182.21463 -224.73431,182.50153 -225.5,182.5 C -226.26569,182.498 -227.03447,182.21552 -227.625,181.625 C -228.8061,180.44395 -228.80432,178.55433 -227.625,177.375 C -227.03534,176.78528 -226.26665,176.49945 -225.5,176.5 z"
         id="path5795"
         style="font-size:medium;font-style:normal;font-variant:normal;font-weight:normal;font-stretch:normal;text-indent:0;text-align:start;text-decoration:none;line-height:normal;letter-spacing:normal;word-spacing:normal;text-transform:none;direction:ltr;block-progression:tb;writing-mode:lr-tb;text-anchor:start;fill:url(#linearGradient12617);fill-opacity:1;stroke:none;stroke-width:11.48875809;marker:none;visibility:visible;display:inline;overflow:visible;enable-background:accumulate;font-family:Bitstream Vera Sans;-inkscape-font-specification:Bitstream Vera Sans" />
      <path
         d="M -216.4375,180.5 C -217.71895,180.49909 -218.99722,180.99722 -219.96875,181.96875 C -221.84323,183.84307 -221.90066,186.85411 -220.15625,188.8125 C -222.0115,189.49267 -223.36726,191.23307 -223.4375,193.3125 C -223.44158,193.3645 -223.44158,193.41675 -223.4375,193.46875 C -223.43784,193.47955 -223.4375,193.4891 -223.4375,193.5 L -223.4375,196.5 C -223.4375,197.054 -222.9915,197.5 -222.4375,197.5 C -221.8835,197.5 -221.4375,197.054 -221.4375,196.5 L -221.4375,193.5 C -221.43603,193.46878 -221.43603,193.43747 -221.4375,193.40625 C -221.3826,191.77972 -220.06503,190.499 -218.4375,190.5 C -218.41667,190.50064 -218.39583,190.50065 -218.375,190.5 L -216.4375,190.5 L -214.4375,190.5 C -212.76846,190.49899 -211.43629,191.83097 -211.4375,193.5 C -211.44336,193.56235 -211.44336,193.62514 -211.4375,193.6875 L -211.4375,196.5 C -211.4375,197.05399 -210.9915,197.5 -210.4375,197.5 C -209.8835,197.49999 -209.4375,197.054 -209.4375,196.5 L -209.4375,193.6875 L -209.4375,193.5625 C -209.43685,193.54166 -209.43685,193.52083 -209.4375,193.5 C -209.4355,191.3585 -210.81575,189.55199 -212.71875,188.84375 C -210.96129,186.88847 -211.02367,183.85132 -212.90625,181.96875 C -213.8792,180.99587 -215.15605,180.50091 -216.4375,180.5 z M -216.4375,182.5 C -215.67085,182.50055 -214.90303,182.78447 -214.3125,183.375 C -213.13156,184.55604 -213.13318,186.44568 -214.3125,187.625 C -214.90216,188.21463 -215.67181,188.50153 -216.4375,188.5 C -217.20319,188.498 -217.97197,188.21552 -218.5625,187.625 C -219.7436,186.44395 -219.74182,184.55433 -218.5625,183.375 C -217.97284,182.78528 -217.20415,182.49945 -216.4375,182.5 z"
         transform="translate(0,1)"
         id="path12588"
         style="font-size:medium;font-style:normal;font-variant:normal;font-weight:normal;font-stretch:normal;text-indent:0;text-align:start;text-decoration:none;line-height:normal;letter-spacing:normal;word-spacing:normal;text-transform:none;direction:ltr;block-progression:tb;writing-mode:lr-tb;text-anchor:start;opacity:0.5;fill:#ffffff;fill-opacity:1;fill-rule:nonzero;stroke:none;stroke-width:11.48875809;marker:none;visibility:visible;display:inline;overflow:visible;enable-background:accumulate;font-family:Bitstream Vera Sans;-inkscape-font-specification:Bitstream Vera Sans" />
      <path
         d="M -216.4375,180.5 C -217.71895,180.49909 -218.99722,180.99722 -219.96875,181.96875 C -221.84323,183.84307 -221.90066,186.85411 -220.15625,188.8125 C -222.0115,189.49267 -223.36726,191.23307 -223.4375,193.3125 C -223.44158,193.3645 -223.44158,193.41675 -223.4375,193.46875 C -223.43784,193.47955 -223.4375,193.48915 -223.4375,193.50005 L -223.4375,196.50005 C -223.4375,197.05405 -222.9915,197.50005 -222.4375,197.50005 C -221.8835,197.50005 -221.4375,197.05405 -221.4375,196.50005 L -221.4375,193.50005 C -221.43603,193.46883 -221.43603,193.43757 -221.4375,193.40635 C -221.3826,191.77983 -220.06503,190.4991 -218.4375,190.5001 C -218.41667,190.50075 -218.39583,190.50075 -218.375,190.5001 L -216.4375,190.5001 L -214.4375,190.5001 C -212.76846,190.4991 -211.43629,191.83107 -211.4375,193.5001 C -211.44336,193.56246 -211.44336,193.62524 -211.4375,193.6876 L -211.4375,196.5001 C -211.4375,197.0541 -210.9915,197.5001 -210.4375,197.5001 C -209.8835,197.5001 -209.4375,197.0541 -209.4375,196.5001 L -209.4375,193.6876 L -209.4375,193.5626 C -209.43685,193.54177 -209.43685,193.52093 -209.4375,193.5001 C -209.4355,191.35861 -210.81575,189.55209 -212.71875,188.84385 C -210.96129,186.88858 -211.02367,183.85142 -212.90625,181.96885 C -213.8792,180.99598 -215.15605,180.50101 -216.4375,180.5001 L -216.4375,180.5 z M -216.4375,182.5 C -215.67085,182.50055 -214.90303,182.78447 -214.3125,183.375 C -213.13156,184.55604 -213.13318,186.44568 -214.3125,187.625 C -214.90216,188.21463 -215.67181,188.50153 -216.4375,188.5 C -217.20319,188.498 -217.97197,188.21552 -218.5625,187.625 C -219.7436,186.44395 -219.74182,184.55433 -218.5625,183.375 C -217.97284,182.78528 -217.20415,182.49945 -216.4375,182.5 z"
         id="path5756"
         style="font-size:medium;font-style:normal;font-variant:normal;font-weight:normal;font-stretch:normal;text-indent:0;text-align:start;text-decoration:none;line-height:normal;letter-spacing:normal;word-spacing:normal;text-transform:none;direction:ltr;block-progression:tb;writing-mode:lr-tb;text-anchor:start;fill:url(#linearGradient12590);fill-opacity:1;stroke:none;stroke-width:11.48875809;marker:none;visibility:visible;display:inline;overflow:visible;enable-background:accumulate;font-family:Bitstream Vera Sans;-inkscape-font-specification:Bitstream Vera Sans" />
    </g>
  </g>
  <g
     transform="translate(232.00301,-175)"
     id="layer9" />
  <g
     transform="translate(232.00301,-175)"
     id="layer6" />
</svg>
