<?xml version="1.0" encoding="UTF-8" standalone="no"?>
<!-- Created with Inkscape (http://www.inkscape.org/) -->
<svg
   xmlns:svg="http://www.w3.org/2000/svg"
   xmlns="http://www.w3.org/2000/svg"
   version="1.0"
   width="24.000015"
   height="24.00621"
   id="svg7384">
  <defs
     id="defs7386" />
  <g
     transform="translate(178.00002,-174)"
     id="layer3" />
  <g
     transform="translate(178.00002,-174)"
     id="layer5" />
  <g
     transform="translate(178.00002,-174)"
     id="layer7" />
  <g
     transform="translate(178.00002,-174)"
     id="layer2" />
  <g
     transform="translate(178.00002,-174)"
     id="layer8" />
  <g
     transform="translate(178.00002,-1126.3622)"
     id="layer1" />
  <g
     transform="translate(178.00002,-174)"
     id="layer4">
    <rect
       width="24"
       height="24"
       x="154"
       y="174"
       transform="scale(-1,1)"
       id="rect6456"
       style="opacity:0;fill:#ffffff;fill-opacity:1;stroke:none;display:inline" />
    <path
       d="M -175.15625,174 C -176.72126,174 -178,175.27874 -178,176.84375 L -178,193.15625 C -178,194.72126 -176.72126,196 -175.15625,196 L -156.84375,196 C -155.27874,196 -154,194.72126 -154,193.15625 L -154,176.84375 C -154,175.27874 -155.27874,174 -156.84375,174 L -175.15625,174 z M -175.15625,176 L -156.84375,176 C -156.35214,176 -156,176.35214 -156,176.84375 L -156,193.15625 C -156,193.64786 -156.35214,194 -156.84375,194 L -175.15625,194 C -175.64786,194 -176,193.64786 -176,193.15625 L -176,176.84375 C -176,176.35214 -175.64786,176 -175.15625,176 z"
       id="rect6458"
       style="fill:#bebebe;fill-opacity:1;stroke:none;stroke-width:1.99999952;marker:none;stroke-miterlimit:4;stroke-dasharray:none;stroke-opacity:1;visibility:visible;display:inline;overflow:visible;enable-background:accumulate" />
    <path
       d="M -173.125,196 C -173.67728,196.02589 -174.10401,196.49459 -174.07812,197.04687 C -174.05224,197.59916 -173.58353,198.02589 -173.03125,198 L -159,198 C -158.63937,198.0051 -158.30393,197.81562 -158.12212,197.50412 C -157.94032,197.19263 -157.94032,196.80737 -158.12212,196.49588 C -158.30393,196.18438 -158.63937,195.9949 -159,196 L -173.03125,196 C -173.06248,195.99853 -173.09377,195.99853 -173.125,196 z"
       id="path6468"
       style="fill:#bebebe;fill-opacity:1;stroke:none;stroke-width:1.99999952;stroke-linecap:round;stroke-linejoin:miter;marker:none;stroke-miterlimit:4;stroke-dasharray:none;stroke-dashoffset:0;stroke-opacity:1;visibility:visible;display:inline;overflow:visible;enable-background:accumulate" />
    <path
       d="M -171.21875,179.90625 C -171.608,179.94413 -171.93946,180.20544 -172.06716,180.57509 C -172.19486,180.94475 -172.09537,181.35493 -171.8125,181.625 L -168.40625,184.96875 L -171.6875,188.3125 C -171.97926,188.55966 -172.10455,188.95156 -172.01029,189.32214 C -171.91602,189.69272 -171.6187,189.97711 -171.2443,190.05482 C -170.8699,190.13253 -170.48396,189.98995 -170.25,189.6875 L -166.28125,185.625 L -165.59375,184.90625 L -166.3125,184.21875 L -170.40625,180.1875 C -170.62091,179.97617 -170.91938,179.87286 -171.21875,179.90625 L -171.21875,179.90625 z"
       id="path6491"
       style="fill:#bebebe;fill-opacity:1;stroke:none;stroke-width:1.99999952;stroke-linecap:round;stroke-linejoin:miter;marker:none;stroke-miterlimit:4;stroke-dasharray:none;stroke-dashoffset:0;stroke-opacity:1;visibility:visible;display:inline;overflow:visible;enable-background:accumulate" />
    <path
       d="M -175,177 L -175,177.5 L -175,192.5 L -175,193 L -174.5,193 L -157.5,193 L -157,193 L -157,192.5 L -157,177.5 L -157,177 L -157.5,177 L -174.5,177 L -175,177 z M -174,178 L -158,178 L -158,192 L -174,192 L -174,178 z"
       id="rect6501"
       style="fill:#bebebe;fill-opacity:1;stroke:none;stroke-width:0.99999994;marker:none;stroke-miterlimit:4;stroke-dasharray:none;stroke-opacity:1;visibility:visible;display:inline;overflow:visible;enable-background:accumulate" />
  </g>
  <g
     transform="translate(178.00002,-174)"
     id="layer9" />
  <g
     transform="translate(178.00002,-174)"
     id="layer6" />
</svg>
