<?xml version="1.0" encoding="UTF-8" standalone="no"?>
<!-- Created with Inkscape (http://www.inkscape.org/) -->
<svg
   xmlns:svg="http://www.w3.org/2000/svg"
   xmlns="http://www.w3.org/2000/svg"
   version="1.0"
   width="24.06251"
   height="24.065418"
   id="svg7384">
  <title
     id="title9167">Moblin Icon Theme</title>
  <defs
     id="defs7386" />
  <g
     transform="translate(150.06251,-291.93751)"
     id="layer3" />
  <g
     transform="translate(150.06251,-291.93751)"
     id="layer5" />
  <g
     transform="translate(150.06251,-291.93751)"
     id="layer7" />
  <g
     transform="translate(150.06251,-291.93751)"
     id="layer2" />
  <g
     transform="translate(150.06251,-291.93751)"
     id="layer8" />
  <g
     transform="translate(150.06251,-1244.2997)"
     id="layer1" />
  <g
     transform="translate(150.06251,-291.93751)"
     id="layer11" />
  <g
     transform="translate(150.06251,-291.93751)"
     id="layer4">
    <rect
       width="24"
       height="24"
       x="-150"
       y="292.00293"
       id="rect6736"
       style="opacity:0;fill:#ffffff;fill-opacity:1;stroke:none;display:inline" />
    <path
       d="M -138.03126,291.92277 C -144.66157,291.92277 -150.07725,297.33845 -150.07725,303.96876 C -150.07725,310.59908 -144.66157,316.01476 -138.03126,316.01476 C -131.40094,316.01476 -125.98526,310.59908 -125.98526,303.96876 C -125.98526,297.33845 -131.40094,291.92277 -138.03126,291.92277 z M -138.03126,293.95226 C -132.48307,293.95226 -128.01475,298.42058 -128.01475,303.96876 C -128.01475,309.51695 -132.48307,313.98527 -138.03126,313.98527 C -143.57945,313.98527 -148.04777,309.51695 -148.04777,303.96876 C -148.04777,298.42058 -143.57945,293.95226 -138.03126,293.95226 z"
       id="path6775"
       style="fill:#bebebe;fill-opacity:1;fill-rule:nonzero;stroke:none;stroke-width:1.90934801;stroke-linecap:round;stroke-linejoin:miter;marker:none;stroke-miterlimit:4;stroke-dasharray:none;stroke-dashoffset:0;stroke-opacity:1;visibility:visible;display:inline;overflow:visible;enable-background:accumulate" />
    <path
       d="M -134.625,293.6875 C -134.72214,293.71328 -134.80926,293.76773 -134.875,293.84375 L -138.75,298.09375 L -138.875,298.25 L -138.875,298.4375 C -138.875,298.4375 -138.9375,304.4375 -138.9375,304.4375 L -138.9375,304.90625 L -138.46875,304.9375 C -138.46875,304.9375 -136.46875,305.0625 -136.46875,305.0625 L -136.125,305.09375 L -135.96875,304.75 L -134.71875,301.84375 L -131.65625,304.09375 L -130.84375,304.71875 L -130.875,303.65625 L -130.96875,301.21875 L -128.03125,302.21875 C -127.85601,302.30911 -127.64403,302.28807 -127.48998,302.16501 C -127.33593,302.04196 -127.26857,301.83987 -127.31798,301.649 C -127.36739,301.45813 -127.52434,301.3141 -127.71875,301.28125 L -131.34375,300.03125 L -132.03125,299.78125 L -132,300.53125 L -131.90625,302.6875 L -134.65625,300.65625 L -135.15625,300.28125 L -135.40625,300.875 L -136.75,304.03125 C -137.08831,304.01011 -137.51151,303.99537 -137.9375,303.96875 C -137.92953,303.20359 -137.87889,299.02946 -137.875,298.65625 L -134.125,294.53125 C -133.94761,294.3719 -133.90741,294.10946 -134.02898,293.90432 C -134.15054,293.69918 -134.40004,293.60842 -134.625,293.6875 L -134.625,293.6875 z"
       id="path6777"
       style="fill:#bebebe;fill-opacity:1;fill-rule:nonzero;stroke:none;stroke-width:1;stroke-linecap:round;stroke-linejoin:miter;marker:none;stroke-miterlimit:4;stroke-dasharray:none;stroke-dashoffset:0;stroke-opacity:1;visibility:visible;display:inline;overflow:visible;enable-background:accumulate" />
    <path
       d="M -132.65625,304.3125 L -133.15625,304.5625 L -138.53125,307.125 L -138.8125,307.25 L -138.8125,307.5625 L -138.875,310.5625 L -138.875,311.0625 L -138.375,311.0625 L -134.28125,311.0625 L -133,313.59375 L -132.71875,314.15625 L -132.25,313.78125 L -130.1875,312.15625 L -129.90625,311.90625 L -130.03125,311.59375 L -132.46875,304.84375 L -132.65625,304.3125 z M -133.21875,305.6875 L -131.09375,311.5625 L -132.40625,312.59375 L -133.5625,310.34375 L -133.6875,310.0625 L -134,310.0625 L -137.875,310.0625 L -137.8125,307.875 L -133.21875,305.6875 z"
       id="path6780"
       style="fill:#bebebe;fill-opacity:1;fill-rule:nonzero;stroke:none;stroke-width:1;stroke-linecap:round;stroke-linejoin:miter;marker:none;stroke-miterlimit:4;stroke-dasharray:none;stroke-dashoffset:0;stroke-opacity:1;visibility:visible;display:inline;overflow:visible;enable-background:accumulate" />
    <path
       d="M -144,294.5625 C -144.1995,294.5998 -144.35667,294.75398 -144.39779,294.95272 C -144.43891,295.15147 -144.35582,295.35535 -144.1875,295.46875 L -140.78125,298.03125 L -142.375,300.03125 L -142.40625,300.0625 L -146.96875,303.09375 L -147.65625,303.5625 L -146.90625,303.9375 L -143.375,305.78125 L -145.5625,308.4375 L -145.78125,308.6875 L -145.65625,308.96875 L -143.71875,313.28125 C -143.59794,313.54013 -143.29013,313.65206 -143.03125,313.53125 C -142.77237,313.41044 -142.66044,313.10263 -142.78125,312.84375 L -144.59375,308.8125 L -142.25,305.9375 L -141.84375,305.46875 L -142.40625,305.1875 L -145.71875,303.4375 L -141.71875,300.78125 L -141.65625,300.75 L -141.59375,300.6875 L -139.65625,298.25 L -139.34375,297.84375 L -139.75,297.53125 L -143.5625,294.65625 C -143.68544,294.55786 -143.84754,294.52312 -144,294.5625 z"
       id="path6782"
       style="fill:#bebebe;fill-opacity:1;fill-rule:nonzero;stroke:none;stroke-width:1;stroke-linecap:round;stroke-linejoin:miter;marker:none;stroke-miterlimit:4;stroke-dasharray:none;stroke-dashoffset:0;stroke-opacity:1;visibility:visible;display:inline;overflow:visible;enable-background:accumulate" />
    <path
       d="M -143.89623,294.89631 L -140.53747,297.54796 L -141.8633,300.46477 L -146.81305,303.64675 L -142.83557,305.50291 L -145.04528,308.50811 L -143.71945,312.92753 L -138.28527,314.38361 L -132.58252,313.01592 L -133.99674,310.54104 L -138.50454,310.54104 L -138.41614,307.27068 L -133.02445,304.7958 L -130.3728,311.86687 L -127.63276,306.91712 L -127.54436,301.61382 L -131.52183,300.55316 L -131.52183,303.46998 L -134.96898,301.08349 L -136.47158,304.70741 L -138.41612,304.44225 L -138.5929,298.25506 L -134.61542,294.01242 L -139.30001,293.39371 L -143.8962,294.89631 L -143.89623,294.89631 z"
       id="path6784"
       style="opacity:0.5;fill:#bebebe;fill-opacity:1;fill-rule:nonzero;stroke:none;stroke-width:1;stroke-linecap:round;stroke-linejoin:miter;marker:none;stroke-miterlimit:4;stroke-dasharray:none;stroke-dashoffset:0;stroke-opacity:1;visibility:visible;display:inline;overflow:visible;enable-background:accumulate" />
  </g>
  <g
     transform="translate(150.06251,-291.93751)"
     id="layer9" />
  <g
     transform="translate(150.06251,-291.93751)"
     id="layer10" />
  <g
     transform="translate(150.06251,-291.93751)"
     id="layer6" />
</svg>
