<?xml version="1.0" encoding="UTF-8" standalone="no"?>
<!-- Created with Inkscape (http://www.inkscape.org/) -->
<svg
   xmlns:svg="http://www.w3.org/2000/svg"
   xmlns="http://www.w3.org/2000/svg"
   version="1.0"
   width="24"
   height="24"
   id="svg7384">
  <title
     id="title9167">Moblin Icon Theme</title>
  <defs
     id="defs7386" />
  <g
     transform="translate(-592,-284)"
     id="layer3" />
  <g
     transform="translate(-592,-284)"
     id="layer5" />
  <g
     transform="translate(-592,-284)"
     id="layer7" />
  <g
     transform="translate(-592,-284)"
     id="layer2" />
  <g
     transform="translate(-592,-284)"
     id="layer8">
    <g
       transform="translate(6.25e-2,109)"
       id="use10215">
      <rect
         width="24"
         height="24"
         rx="3"
         ry="3"
         x="591.9375"
         y="175"
         id="rect12231"
         style="fill:#ed2124;fill-opacity:1;stroke:none;display:inline" />
      <path
         d="M 597.99582,182.41271 L 603.28211,187.70601 C 603.67385,188.09781 604.30458,188.09781 604.69631,187.70601 C 605.08805,187.31431 605.08805,186.68361 604.69631,186.29181 L 599.41003,180.99851 C 599.41003,180.99851 597.99582,180.99851 597.99582,180.99851 C 597.99582,180.99851 597.99582,182.41271 597.99582,182.41271 z"
         id="path12233"
         style="fill:#ffffff;fill-opacity:1;stroke:none;display:inline" />
      <path
         d="M 609.9375,182.39711 L 604.6981,187.70601 C 604.30637,188.09781 603.67562,188.09781 603.28388,187.70601 C 602.89216,187.31431 602.89216,186.68361 603.28388,186.29181 L 608.52329,180.98291 C 608.52329,180.98291 609.9375,180.98291 609.9375,180.98291 C 609.9375,180.98291 609.9375,182.39711 609.9375,182.39711 L 609.9375,182.39711 z"
         id="path12235"
         style="fill:#ffffff;fill-opacity:1;stroke:none;display:inline" />
      <path
         d="M 597.9375,191.57011 L 603.22379,186.27681 C 603.61553,185.88501 604.24626,185.88501 604.63799,186.27681 C 605.02973,186.66851 605.02973,187.29921 604.63799,187.69101 L 599.35171,192.98431 C 599.35171,192.98431 597.9375,192.98431 597.9375,192.98431 C 597.9375,192.98431 597.9375,191.57011 597.9375,191.57011 z"
         id="path12237"
         style="fill:#ffffff;fill-opacity:1;stroke:none;display:inline" />
      <path
         d="M 609.87918,191.58571 L 604.63978,186.27681 C 604.24805,185.88501 603.6173,185.88501 603.22556,186.27681 C 602.83384,186.66851 602.83384,187.29921 603.22556,187.69101 L 608.46497,192.99991 C 608.46497,192.99991 609.87918,192.99991 609.87918,192.99991 C 609.87918,192.99991 609.87918,191.58571 609.87918,191.58571 L 609.87918,191.58571 z"
         id="path12239"
         style="fill:#ffffff;fill-opacity:1;stroke:none;display:inline" />
    </g>
  </g>
  <g
     transform="translate(-592,-1236.3622)"
     id="layer1" />
  <g
     transform="translate(-592,-284)"
     id="layer11" />
  <g
     transform="translate(-592,-284)"
     id="layer4" />
  <g
     transform="translate(-592,-284)"
     id="layer12" />
  <g
     transform="translate(-592,-284)"
     id="layer9" />
  <g
     transform="translate(-592,-284)"
     id="layer10" />
  <g
     transform="translate(-592,-284)"
     id="layer6" />
</svg>
