<?xml version="1.0" encoding="UTF-8" standalone="no"?>
<!-- Created with Inkscape (http://www.inkscape.org/) -->
<svg
   xmlns:svg="http://www.w3.org/2000/svg"
   xmlns="http://www.w3.org/2000/svg"
   version="1.0"
   width="24"
   height="24"
   id="svg7384">
  <defs
     id="defs7386" />
  <g
     transform="translate(-618.9375,-229)"
     id="layer3" />
  <g
     transform="translate(-618.9375,-229)"
     id="layer5" />
  <g
     transform="translate(-618.9375,-229)"
     id="layer7" />
  <g
     transform="translate(-618.9375,-229)"
     id="layer2" />
  <g
     transform="translate(-618.9375,-229)"
     id="layer8">
    <rect
       width="24"
       height="24"
       rx="2.875"
       ry="2.875"
       x="618.9375"
       y="229"
       id="rect5877"
       style="fill:#31c2ee;fill-opacity:1;stroke:none;display:inline" />
    <rect
       width="6.0000305"
       height="2"
       rx="0.99999988"
       ry="1"
       x="-633.9375"
       y="234.98926"
       transform="scale(-1,1)"
       id="rect5879"
       style="fill:#ffffff;fill-opacity:1;stroke:none;display:inline" />
    <path
       d="M 635.64558,234.28311 L 638.63212,237.29161 C 639.02386,237.68341 639.02386,238.31411 638.63212,238.70591 L 638.63205,238.70591 C 638.24031,239.09771 637.60957,239.09771 637.21783,238.70591 L 634.2313,235.69731 C 633.83957,235.30561 633.83957,234.67491 634.23131,234.28311 L 634.23138,234.28311 C 634.62312,233.89131 635.25385,233.89131 635.64558,234.28311 z"
       id="path5894"
       style="fill:#ffffff;fill-opacity:1;stroke:none;display:inline" />
    <rect
       width="5"
       height="1.999939"
       rx="1"
       ry="1"
       x="-638.9375"
       y="233.98926"
       transform="scale(-1,1)"
       id="rect5901"
       style="fill:#ffffff;fill-opacity:1;stroke:none;display:inline" />
    <rect
       width="5"
       height="1.999939"
       rx="1"
       ry="1"
       x="-238.98926"
       y="-638.9375"
       transform="matrix(0,-1,-1,0,0,0)"
       id="rect5917"
       style="fill:#ffffff;fill-opacity:1;stroke:none;display:inline" />
    <path
       d="M 626.22942,234.28311 L 623.24288,237.29161 C 622.85114,237.68341 622.85114,238.31411 623.24288,238.70591 L 623.24295,238.70591 C 623.63469,239.09771 624.26543,239.09771 624.65717,238.70591 L 627.6437,235.69731 C 628.03543,235.30561 628.03543,234.67491 627.64369,234.28311 L 627.64362,234.28311 C 627.25188,233.89131 626.62115,233.89131 626.22942,234.28311 z"
       id="path5919"
       style="fill:#ffffff;fill-opacity:1;stroke:none;display:inline" />
    <rect
       width="5"
       height="1.999939"
       rx="1"
       ry="1"
       x="622.9375"
       y="233.98926"
       id="rect5922"
       style="fill:#ffffff;fill-opacity:1;stroke:none;display:inline" />
    <rect
       width="5"
       height="1.999939"
       rx="1"
       ry="1"
       x="-238.98926"
       y="622.9375"
       transform="matrix(0,-1,1,0,0,0)"
       id="rect5924"
       style="fill:#ffffff;fill-opacity:1;stroke:none;display:inline" />
    <rect
       width="6"
       height="2"
       rx="0.99999994"
       ry="1"
       x="-633.9375"
       y="-246.98926"
       transform="scale(-1,-1)"
       id="rect5926"
       style="fill:#ffffff;fill-opacity:1;stroke:none;display:inline" />
    <path
       d="M 635.64558,247.70591 L 638.63212,244.69741 C 639.02386,244.30561 639.02386,243.67491 638.63212,243.28311 L 638.63205,243.28311 C 638.24031,242.89131 637.60957,242.89131 637.21783,243.28311 L 634.2313,246.29171 C 633.83957,246.68341 633.83957,247.31411 634.23131,247.70591 L 634.23138,247.70591 C 634.62312,248.09771 635.25385,248.09771 635.64558,247.70591 z"
       id="path5928"
       style="fill:#ffffff;fill-opacity:1;stroke:none;display:inline" />
    <rect
       width="5"
       height="1.999939"
       rx="1"
       ry="1"
       x="-638.9375"
       y="-248"
       transform="scale(-1,-1)"
       id="rect5930"
       style="fill:#ffffff;fill-opacity:1;stroke:none;display:inline" />
    <rect
       width="5"
       height="1.999939"
       rx="1"
       ry="1"
       x="243"
       y="-638.9375"
       transform="matrix(0,1,-1,0,0,0)"
       id="rect5932"
       style="fill:#ffffff;fill-opacity:1;stroke:none;display:inline" />
    <path
       d="M 626.22942,247.70591 L 623.24288,244.69741 C 622.85114,244.30561 622.85114,243.67491 623.24288,243.28311 L 623.24295,243.28311 C 623.63469,242.89131 624.26543,242.89131 624.65717,243.28311 L 627.6437,246.29171 C 628.03543,246.68341 628.03543,247.31411 627.64369,247.70591 L 627.64362,247.70591 C 627.25188,248.09771 626.62115,248.09771 626.22942,247.70591 z"
       id="path5934"
       style="fill:#ffffff;fill-opacity:1;stroke:none;display:inline" />
    <rect
       width="5"
       height="1.999939"
       rx="1"
       ry="1"
       x="622.9375"
       y="-248"
       transform="scale(1,-1)"
       id="rect5936"
       style="fill:#ffffff;fill-opacity:1;stroke:none;display:inline" />
    <rect
       width="5"
       height="1.999939"
       rx="1"
       ry="1"
       x="243"
       y="622.9375"
       transform="matrix(0,1,1,0,0,0)"
       id="rect5938"
       style="fill:#ffffff;fill-opacity:1;stroke:none;display:inline" />
    <rect
       width="3.999939"
       height="2"
       rx="0.99999994"
       ry="1"
       x="238.98926"
       y="-637.9375"
       transform="matrix(0,1,-1,0,0,0)"
       id="rect5940"
       style="fill:#ffffff;fill-opacity:1;stroke:none;display:inline" />
    <rect
       width="4.010612"
       height="2"
       rx="0.99999988"
       ry="1"
       x="238.98926"
       y="-625.9375"
       transform="matrix(0,1,-1,0,0,0)"
       id="rect5943"
       style="fill:#ffffff;fill-opacity:1;stroke:none;display:inline" />
  </g>
  <g
     transform="translate(-618.9375,-1181.3622)"
     id="layer1" />
  <g
     transform="translate(-618.9375,-229)"
     id="layer4" />
  <g
     transform="translate(-618.9375,-229)"
     id="layer9" />
  <g
     transform="translate(-618.9375,-229)"
     id="layer6" />
</svg>
