<?xml version="1.0" encoding="UTF-8" standalone="no"?>
<!-- Created with Inkscape (http://www.inkscape.org/) -->
<svg
   xmlns:svg="http://www.w3.org/2000/svg"
   xmlns="http://www.w3.org/2000/svg"
   version="1.0"
   width="24"
   height="24"
   id="svg7384">
  <defs
     id="defs7386" />
  <g
     transform="translate(-510.9375,-202)"
     id="layer3" />
  <g
     transform="translate(-510.9375,-202)"
     id="layer5" />
  <g
     transform="translate(-510.9375,-202)"
     id="layer7" />
  <g
     transform="translate(-510.9375,-202)"
     id="layer2" />
  <g
     transform="translate(-510.9375,-202)"
     id="layer8">
    <rect
       width="24"
       height="24"
       rx="3"
       ry="3"
       x="510.9375"
       y="202"
       id="rect6705"
       style="fill:#ed2124;fill-opacity:1;stroke:none;display:inline" />
    <path
       d="M 531.93455,214.001 C 531.93455,218.95806 527.89504,222.99756 522.93798,222.99756 C 517.98092,222.99756 513.9414,218.95806 513.9414,214.001 C 513.9414,209.04394 517.98092,205.00443 522.93798,205.00443 C 527.89504,205.00443 531.93455,209.04394 531.93455,214.001 z M 529.9329,214.001 C 529.9329,210.12606 526.81292,206.99521 522.93798,206.99521 C 519.06304,206.99521 515.93218,210.12606 515.93218,214.001 C 515.93218,217.87593 519.06304,220.99591 522.93798,220.99591 C 526.81292,220.99591 529.9329,217.87593 529.9329,214.001 z"
       id="path6722"
       style="fill:#ffffff;fill-opacity:1;stroke:none;stroke-width:5.74524403;stroke-linecap:round;stroke-miterlimit:4;stroke-dasharray:none;stroke-dashoffset:0;stroke-opacity:1;display:inline" />
  </g>
  <g
     transform="translate(-510.9375,-1154.3622)"
     id="layer1" />
  <g
     transform="translate(-510.9375,-202)"
     id="layer4" />
  <g
     transform="translate(-510.9375,-202)"
     id="layer9" />
  <g
     transform="translate(-510.9375,-202)"
     id="layer6" />
</svg>
