<?xml version="1.0" encoding="UTF-8" standalone="no"?>
<!-- Created with Inkscape (http://www.inkscape.org/) -->
<svg
   xmlns:svg="http://www.w3.org/2000/svg"
   xmlns="http://www.w3.org/2000/svg"
   version="1.0"
   width="24"
   height="24"
   id="svg7384">
  <title
     id="title9167">Moblin Icon Theme</title>
  <defs
     id="defs7386" />
  <g
     transform="translate(-620,-284)"
     id="layer3" />
  <g
     transform="translate(-620,-284)"
     id="layer5" />
  <g
     transform="translate(-620,-284)"
     id="layer7" />
  <g
     transform="translate(-620,-284)"
     id="layer2" />
  <g
     transform="translate(-620,-284)"
     id="layer8">
    <rect
       width="24"
       height="24"
       rx="2.9375"
       ry="2.9375"
       x="620"
       y="284"
       id="rect10209"
       style="fill:#7dbe0c;fill-opacity:1;stroke:none;display:inline" />
    <path
       d="M 631.69912,300.70401 L 638.00002,293.43311 C 638.00002,293.43311 638.00002,292.03621 638.00002,292.03621 C 638.00002,292.03621 636.60306,292.03621 636.60306,292.03621 L 630.30215,299.30701 C 629.91519,299.69401 629.91519,300.31701 630.30215,300.70401 C 630.68911,301.09091 631.31216,301.09091 631.69912,300.70401 L 631.69912,300.70401 L 631.69912,300.70401 z"
       id="path10211"
       style="fill:#ffffff;fill-opacity:1;stroke:none;display:inline" />
    <path
       d="M 631.68397,299.31271 L 628.40567,296.02871 C 628.40567,296.02871 627.0087,296.02871 627.0087,296.02871 C 627.0087,296.02871 627.0087,297.42571 627.0087,297.42571 L 630.287,300.70971 C 630.67396,301.09671 631.297,301.09671 631.68396,300.70971 C 632.07092,300.32271 632.07092,299.69971 631.68397,299.31271 z"
       id="path10213"
       style="fill:#ffffff;fill-opacity:1;stroke:none;display:inline" />
  </g>
  <g
     transform="translate(-620,-1236.3622)"
     id="layer1" />
  <g
     transform="translate(-620,-284)"
     id="layer11" />
  <g
     transform="translate(-620,-284)"
     id="layer4" />
  <g
     transform="translate(-620,-284)"
     id="layer12" />
  <g
     transform="translate(-620,-284)"
     id="layer9" />
  <g
     transform="translate(-620,-284)"
     id="layer10" />
  <g
     transform="translate(-620,-284)"
     id="layer6" />
</svg>
