<?xml version="1.0" encoding="UTF-8" standalone="no"?>
<!-- Created with Inkscape (http://www.inkscape.org/) -->
<svg
   xmlns:svg="http://www.w3.org/2000/svg"
   xmlns="http://www.w3.org/2000/svg"
   version="1.0"
   width="24"
   height="24"
   id="svg7384">
  <defs
     id="defs7386" />
  <g
     transform="translate(-564.9375,-175)"
     id="layer3" />
  <g
     transform="translate(-564.9375,-175)"
     id="layer5" />
  <g
     transform="translate(-564.9375,-175)"
     id="layer7" />
  <g
     transform="translate(-564.9375,-175)"
     id="layer2" />
  <g
     transform="translate(-564.9375,-175)"
     id="layer8">
    <rect
       width="24"
       height="24"
       rx="3"
       ry="3"
       x="564.9375"
       y="175"
       id="rect6619"
       style="fill:#31c2ee;fill-opacity:1;stroke:none;display:inline" />
    <rect
       width="8.9756165"
       height="1.9756097"
       rx="0.98780471"
       ry="0.98780483"
       x="568.9375"
       y="182"
       id="rect6638"
       style="fill:#ffffff;fill-opacity:1;stroke:none;display:inline" />
    <rect
       width="10.622375"
       height="1.9756097"
       rx="0.98780477"
       ry="0.98780483"
       x="-195.93481"
       y="578.96185"
       transform="matrix(0,-1,1,0,0,0)"
       id="rect6640"
       style="fill:#ffffff;fill-opacity:1;stroke:none;display:inline" />
    <rect
       width="13.972839"
       height="1.9756097"
       rx="0.98780495"
       ry="0.98780483"
       x="-195.97266"
       y="568.96552"
       transform="matrix(0,-1,1,0,0,0)"
       id="rect6642"
       style="fill:#ffffff;fill-opacity:1;stroke:none;display:inline" />
    <rect
       width="11.928009"
       height="1.9756097"
       rx="0.98780477"
       ry="0.98780483"
       x="569.00946"
       y="194.02417"
       id="rect6644"
       style="fill:#ffffff;fill-opacity:1;stroke:none;display:inline" />
    <path
       d="M 577.62004,182.28811 L 580.64727,185.31281 C 581.03423,185.69971 581.03423,186.32281 580.64727,186.70971 C 580.26031,187.09671 579.63726,187.09671 579.2503,186.70971 L 576.22308,183.68501 C 575.83612,183.29811 575.83612,182.67501 576.22308,182.28811 C 576.61004,181.90111 577.23308,181.90111 577.62004,182.28811 z"
       id="path6646"
       style="fill:#ffffff;fill-opacity:1;stroke:none;display:inline" />
    <rect
       width="8.59375"
       height="2"
       rx="0.98780477"
       ry="0.98780483"
       x="572.9375"
       y="178"
       id="rect6658"
       style="fill:#ffffff;fill-opacity:1;stroke:none;display:inline" />
    <rect
       width="11.000061"
       height="2"
       rx="0.98780471"
       ry="0.98780483"
       x="-192"
       y="582.9375"
       transform="matrix(0,-1,1,0,0,0)"
       id="rect6660"
       style="fill:#ffffff;fill-opacity:1;stroke:none;display:inline" />
    <path
       d="M 581.62004,178.28811 L 584.64727,181.31281 C 585.03423,181.69971 585.03423,182.32281 584.64727,182.70971 C 584.26031,183.09671 583.63726,183.09671 583.2503,182.70971 L 580.22308,179.68501 C 579.83612,179.29811 579.83612,178.67501 580.22308,178.28811 C 580.61004,177.90111 581.23308,177.90111 581.62004,178.28811 z"
       id="path6662"
       style="fill:#ffffff;fill-opacity:1;stroke:none;display:inline" />
    <rect
       width="2.999939"
       height="2"
       rx="0.98780471"
       ry="0.98780483"
       x="-181"
       y="572.9375"
       transform="matrix(0,-1,1,0,0,0)"
       id="rect6668"
       style="fill:#ffffff;fill-opacity:1;stroke:none;display:inline" />
    <rect
       width="3"
       height="1.9756097"
       rx="0.98780477"
       ry="0.98780483"
       x="581.9375"
       y="190.02417"
       id="rect6672"
       style="fill:#ffffff;fill-opacity:1;stroke:none;display:inline" />
  </g>
  <g
     transform="translate(-564.9375,-1127.3622)"
     id="layer1" />
  <g
     transform="translate(-564.9375,-175)"
     id="layer4" />
  <g
     transform="translate(-564.9375,-175)"
     id="layer9" />
  <g
     transform="translate(-564.9375,-175)"
     id="layer6" />
</svg>
