<?xml version="1.0" encoding="UTF-8" standalone="no"?>
<!-- Created with Inkscape (http://www.inkscape.org/) -->
<svg
   xmlns:svg="http://www.w3.org/2000/svg"
   xmlns="http://www.w3.org/2000/svg"
   version="1.0"
   width="24"
   height="24"
   id="svg7384">
  <defs
     id="defs7386" />
  <g
     transform="translate(-618.9375,-202)"
     id="layer3" />
  <g
     transform="translate(-618.9375,-202)"
     id="layer5" />
  <g
     transform="translate(-618.9375,-202)"
     id="layer7" />
  <g
     transform="translate(-618.9375,-202)"
     id="layer2" />
  <g
     transform="translate(-618.9375,-202)"
     id="layer8">
    <rect
       width="24"
       height="24"
       rx="3"
       ry="3"
       x="618.9375"
       y="202"
       id="rect6795"
       style="fill:#febf00;fill-opacity:1;stroke:none;display:inline" />
    <rect
       width="10.000134"
       height="2"
       rx="0.99999988"
       ry="1"
       x="211.99976"
       y="623.9375"
       transform="matrix(0,1,1,0,0,0)"
       id="rect6797"
       style="fill:#ffffff;fill-opacity:1;stroke:none;display:inline" />
    <rect
       width="10.000061"
       height="2"
       rx="0.99999988"
       ry="1"
       x="211.99976"
       y="635.9375"
       transform="matrix(0,1,1,0,0,0)"
       id="rect6799"
       style="fill:#ffffff;fill-opacity:1;stroke:none;display:inline" />
    <rect
       width="14"
       height="2"
       rx="0.99999988"
       ry="1"
       x="-637.9375"
       y="212"
       transform="scale(-1,1)"
       id="rect6801"
       style="fill:#ffffff;fill-opacity:1;stroke:none;display:inline" />
    <rect
       width="14"
       height="2"
       rx="0.99999994"
       ry="1"
       x="-637.9375"
       y="220"
       transform="scale(-1,1)"
       id="rect6803"
       style="fill:#ffffff;fill-opacity:1;stroke:none;display:inline" />
    <rect
       width="4.3127375"
       height="2"
       rx="1"
       ry="1"
       x="208.6875"
       y="633.9375"
       transform="matrix(0,1,1,0,0,0)"
       id="rect6807"
       style="fill:#ffffff;fill-opacity:1;stroke:none;display:inline" />
    <rect
       width="4.5001421"
       height="2"
       rx="0.99999994"
       ry="1"
       x="208.5"
       y="625.9375"
       transform="matrix(0,1,1,0,0,0)"
       id="rect6809"
       style="fill:#ffffff;fill-opacity:1;stroke:none;display:inline" />
    <rect
       width="4.8093591"
       height="2"
       rx="0.99999994"
       ry="1"
       x="-633.4375"
       y="205.99976"
       transform="scale(-1,1)"
       id="rect6811"
       style="fill:#ffffff;fill-opacity:1;stroke:none;display:inline" />
    <path
       d="M 626.91152,210.51304 C 626.36099,210.50338 625.92183,210.05054 625.92905,209.49998 C 625.92905,207.57891 627.50613,205.99844 629.42719,205.99844 C 629.98012,205.99844 630.42836,206.44667 630.42836,206.9996 C 630.42836,207.55253 629.98012,208.00077 629.42719,208.00077 C 628.58825,208.00077 627.92799,208.66104 627.92799,209.49998 C 627.93153,209.77032 627.82546,210.03058 627.63396,210.22144 C 627.44247,210.4123 627.18185,210.51749 626.91152,210.51304 z"
       id="path6813"
       style="fill:#ffffff;fill-opacity:1;stroke:none;stroke-width:18.38477516;stroke-linecap:round;stroke-miterlimit:4;stroke-dasharray:none;stroke-dashoffset:0;stroke-opacity:1;display:inline" />
    <path
       d="M 634.95351,210.51304 C 635.50404,210.50338 635.9432,210.05054 635.93598,209.49998 C 635.93598,207.57891 634.3589,205.99844 632.43784,205.99844 C 631.88491,205.99844 631.43667,206.44667 631.43667,206.9996 C 631.43667,207.55253 631.88491,208.00077 632.43784,208.00077 C 633.27678,208.00077 633.93704,208.66104 633.93704,209.49998 C 633.9335,209.77032 634.03957,210.03058 634.23107,210.22144 C 634.42256,210.4123 634.68318,210.51749 634.95351,210.51304 z"
       id="path6816"
       style="fill:#ffffff;fill-opacity:1;stroke:none;stroke-width:18.38477516;stroke-linecap:round;stroke-miterlimit:4;stroke-dasharray:none;stroke-dashoffset:0;stroke-opacity:1;display:inline" />
  </g>
  <g
     transform="translate(-618.9375,-1154.3622)"
     id="layer1" />
  <g
     transform="translate(-618.9375,-202)"
     id="layer4" />
  <g
     transform="translate(-618.9375,-202)"
     id="layer9" />
  <g
     transform="translate(-618.9375,-202)"
     id="layer6" />
</svg>
