<?xml version="1.0" encoding="UTF-8" standalone="no"?>
<!-- Created with Inkscape (http://www.inkscape.org/) -->
<svg
   xmlns:svg="http://www.w3.org/2000/svg"
   xmlns="http://www.w3.org/2000/svg"
   version="1.0"
   width="24"
   height="24"
   id="svg7384">
  <defs
     id="defs7386" />
  <g
     transform="translate(-537.9375,-175)"
     id="layer3" />
  <g
     transform="translate(-537.9375,-175)"
     id="layer5" />
  <g
     transform="translate(-537.9375,-175)"
     id="layer7" />
  <g
     transform="translate(-537.9375,-175)"
     id="layer2" />
  <g
     transform="translate(-537.9375,-175)"
     id="layer8">
    <rect
       width="24"
       height="24"
       rx="2.9375"
       ry="2.9375"
       x="537.9375"
       y="175"
       id="rect6591"
       style="fill:#febf00;fill-opacity:1;stroke:none;display:inline" />
    <rect
       width="17.999939"
       height="2"
       rx="0.99999994"
       ry="1"
       x="178"
       y="540.9375"
       transform="matrix(0,1,1,0,0,0)"
       id="rect6595"
       style="fill:#ffffff;fill-opacity:1;stroke:none;display:inline" />
    <rect
       width="18.000061"
       height="2"
       rx="0.99999994"
       ry="1"
       x="177.99976"
       y="556.9375"
       transform="matrix(0,1,1,0,0,0)"
       id="rect6597"
       style="fill:#ffffff;fill-opacity:1;stroke:none;display:inline" />
    <rect
       width="18"
       height="2"
       rx="0.99999988"
       ry="1"
       x="-558.9375"
       y="178"
       transform="scale(-1,1)"
       id="rect6599"
       style="fill:#ffffff;fill-opacity:1;stroke:none;display:inline" />
    <rect
       width="18"
       height="2"
       rx="0.99999994"
       ry="1"
       x="-558.9375"
       y="194"
       transform="scale(-1,1)"
       id="rect6601"
       style="fill:#ffffff;fill-opacity:1;stroke:none;display:inline" />
    <rect
       width="12.000015"
       height="2"
       rx="0"
       ry="0"
       x="-555.9375"
       y="181"
       transform="scale(-1,1)"
       id="rect6603"
       style="fill:#ffffff;fill-opacity:1;stroke:none;display:inline" />
    <rect
       width="12.000005"
       height="2"
       rx="0"
       ry="0"
       x="-555.9375"
       y="189"
       transform="scale(-1,1)"
       id="rect6605"
       style="fill:#ffffff;fill-opacity:1;stroke:none;display:inline" />
    <rect
       width="9.999939"
       height="2.0000205"
       rx="0"
       ry="0"
       x="181"
       y="553.9375"
       transform="matrix(0,1,1,0,0,0)"
       id="rect6607"
       style="fill:#ffffff;fill-opacity:1;stroke:none;display:inline" />
    <rect
       width="10.000012"
       height="2"
       rx="0"
       ry="0"
       x="181"
       y="543.9375"
       transform="matrix(0,1,1,0,0,0)"
       id="rect6609"
       style="fill:#ffffff;fill-opacity:1;stroke:none;display:inline" />
  </g>
  <g
     transform="translate(-537.9375,-1127.3622)"
     id="layer1" />
  <g
     transform="translate(-537.9375,-175)"
     id="layer4" />
  <g
     transform="translate(-537.9375,-175)"
     id="layer9" />
  <g
     transform="translate(-537.9375,-175)"
     id="layer6" />
</svg>
