<?xml version="1.0" encoding="UTF-8" standalone="no"?>
<!-- Created with Inkscape (http://www.inkscape.org/) -->
<svg
   xmlns:svg="http://www.w3.org/2000/svg"
   xmlns="http://www.w3.org/2000/svg"
   version="1.0"
   width="24"
   height="24"
   id="svg7384">
  <defs
     id="defs7386" />
  <g
     transform="translate(-564.9375,-202)"
     id="layer3" />
  <g
     transform="translate(-564.9375,-202)"
     id="layer5" />
  <g
     transform="translate(-564.9375,-202)"
     id="layer7" />
  <g
     transform="translate(-564.9375,-202)"
     id="layer2" />
  <g
     transform="translate(-564.9375,-202)"
     id="layer8">
    <rect
       width="24"
       height="24"
       rx="3"
       ry="3"
       x="564.9375"
       y="202"
       id="rect6746"
       style="fill:#a0da00;fill-opacity:1;stroke:none;display:inline" />
    <path
       d="M 571.99582,210.41271 L 576.28211,214.70601 C 576.67385,215.09781 577.30458,215.09781 577.69631,214.70601 C 578.08805,214.31431 578.08805,213.68361 577.69631,213.29181 L 573.41003,208.99851 C 573.41003,208.99851 571.99582,208.99851 571.99582,208.99851 C 571.99582,208.99851 571.99582,210.41271 571.99582,210.41271 z"
       id="path6748"
       style="fill:#ffffff;fill-opacity:1;stroke:none;display:inline" />
    <path
       d="M 581.9375,210.39711 L 577.6981,214.70601 C 577.30637,215.09781 576.67562,215.09781 576.28388,214.70601 C 575.89216,214.31431 575.89216,213.68361 576.28388,213.29181 L 580.52329,208.98291 C 580.52329,208.98291 581.9375,208.98291 581.9375,208.98291 C 581.9375,208.98291 581.9375,210.39711 581.9375,210.39711 L 581.9375,210.39711 z"
       id="path6750"
       style="fill:#ffffff;fill-opacity:1;stroke:none;display:inline" />
    <path
       d="M 571.9375,217.57011 L 576.22379,213.27681 C 576.61553,212.88501 577.24626,212.88501 577.63799,213.27681 C 578.02973,213.66851 578.02973,214.29921 577.63799,214.69101 L 573.35171,218.98431 C 573.35171,218.98431 571.9375,218.98431 571.9375,218.98431 C 571.9375,218.98431 571.9375,217.57011 571.9375,217.57011 z"
       id="path6752"
       style="fill:#ffffff;fill-opacity:1;stroke:none;display:inline" />
    <path
       d="M 581.87918,217.58571 L 577.63978,213.27681 C 577.24805,212.88501 576.6173,212.88501 576.22556,213.27681 C 575.83384,213.66851 575.83384,214.29921 576.22556,214.69101 L 580.46497,218.99991 C 580.46497,218.99991 581.87918,218.99991 581.87918,218.99991 C 581.87918,218.99991 581.87918,217.58571 581.87918,217.58571 L 581.87918,217.58571 z"
       id="path6754"
       style="fill:#ffffff;fill-opacity:1;stroke:none;display:inline" />
    <rect
       width="11.999998"
       height="2"
       rx="1"
       ry="1"
       x="570.9375"
       y="213"
       id="rect6757"
       style="fill:#ffffff;fill-opacity:1;stroke:none;stroke-width:2;stroke-linecap:round;stroke-miterlimit:4;stroke-dasharray:none;stroke-opacity:1;display:inline" />
    <rect
       width="11.999996"
       height="2"
       rx="1"
       ry="1"
       x="-220"
       y="575.9375"
       transform="matrix(0,-1,1,0,0,0)"
       id="rect6759"
       style="fill:#ffffff;fill-opacity:1;stroke:none;stroke-width:2;stroke-linecap:round;stroke-miterlimit:4;stroke-dasharray:none;stroke-opacity:1;display:inline" />
  </g>
  <g
     transform="translate(-564.9375,-1154.3622)"
     id="layer1" />
  <g
     transform="translate(-564.9375,-202)"
     id="layer4" />
  <g
     transform="translate(-564.9375,-202)"
     id="layer9" />
  <g
     transform="translate(-564.9375,-202)"
     id="layer6" />
</svg>
