<?xml version="1.0" encoding="UTF-8" standalone="no"?>
<!-- Created with Inkscape (http://www.inkscape.org/) -->
<svg
   xmlns:svg="http://www.w3.org/2000/svg"
   xmlns="http://www.w3.org/2000/svg"
   version="1.0"
   width="24"
   height="24"
   id="svg7384">
  <defs
     id="defs7386" />
  <g
     transform="translate(-510.9375,-229)"
     id="layer3" />
  <g
     transform="translate(-510.9375,-229)"
     id="layer5" />
  <g
     transform="translate(-510.9375,-229)"
     id="layer7" />
  <g
     transform="translate(-510.9375,-229)"
     id="layer2" />
  <g
     transform="translate(-510.9375,-229)"
     id="layer8">
    <rect
       width="24"
       height="24"
       rx="2.9375"
       ry="2.9375"
       x="510.9375"
       y="229"
       id="rect6818"
       style="fill:#31c2ee;fill-opacity:1;stroke:none;display:inline" />
    <path
       d="M 522.63662,245.70401 L 528.93752,238.43311 C 528.93752,238.43311 528.93752,237.03621 528.93752,237.03621 C 528.93752,237.03621 527.54056,237.03621 527.54056,237.03621 L 521.23965,244.30701 C 520.85269,244.69401 520.85269,245.31701 521.23965,245.70401 C 521.62661,246.09091 522.24966,246.09091 522.63662,245.70401 L 522.63662,245.70401 z"
       id="path6825"
       style="fill:#ffffff;fill-opacity:1;stroke:none;display:inline" />
    <path
       d="M 522.62147,244.31271 L 519.34317,241.02871 C 519.34317,241.02871 517.9462,241.02871 517.9462,241.02871 C 517.9462,241.02871 517.9462,242.42571 517.9462,242.42571 L 521.2245,245.70971 C 521.61146,246.09671 522.2345,246.09671 522.62146,245.70971 C 523.00842,245.32271 523.00842,244.69971 522.62147,244.31271 z"
       id="path6827"
       style="fill:#ffffff;fill-opacity:1;stroke:none;display:inline" />
  </g>
  <g
     transform="translate(-510.9375,-1181.3622)"
     id="layer1" />
  <g
     transform="translate(-510.9375,-229)"
     id="layer4" />
  <g
     transform="translate(-510.9375,-229)"
     id="layer9" />
  <g
     transform="translate(-510.9375,-229)"
     id="layer6" />
</svg>
