<?xml version="1.0" encoding="UTF-8" standalone="no"?>
<!-- Created with Inkscape (http://www.inkscape.org/) -->
<svg
   xmlns:svg="http://www.w3.org/2000/svg"
   xmlns="http://www.w3.org/2000/svg"
   version="1.0"
   width="24"
   height="24"
   id="svg7384">
  <defs
     id="defs7386" />
  <g
     transform="translate(-510.9375,-256)"
     id="layer3" />
  <g
     transform="translate(-510.9375,-256)"
     id="layer5" />
  <g
     transform="translate(-510.9375,-256)"
     id="layer7" />
  <g
     transform="translate(-510.9375,-256)"
     id="layer2" />
  <g
     transform="translate(-510.9375,-256)"
     id="layer8">
    <rect
       width="24"
       height="24"
       rx="2.9375"
       ry="2.9375"
       x="510.9375"
       y="256"
       id="rect5979"
       style="fill:#31c2ee;fill-opacity:1;stroke:none;display:inline" />
    <rect
       width="2"
       height="5.9999995"
       rx="0.99999905"
       ry="0.99999905"
       x="513.9375"
       y="270"
       id="rect5949"
       style="fill:#ffffff;fill-opacity:1;stroke:none;display:inline" />
    <rect
       width="2"
       height="5.9999995"
       rx="0.99999905"
       ry="0.99999905"
       x="529.9375"
       y="270"
       id="rect5951"
       style="fill:#ffffff;fill-opacity:1;stroke:none;display:inline" />
    <rect
       width="2"
       height="3"
       rx="0.99999905"
       ry="0.99999887"
       x="-272"
       y="528.9375"
       transform="matrix(0,-1,1,0,0,0)"
       id="rect5953"
       style="fill:#ffffff;fill-opacity:1;stroke:none;display:inline" />
    <rect
       width="2"
       height="2.9999998"
       rx="0.99999905"
       ry="0.99999923"
       x="-272"
       y="513.9375"
       transform="matrix(0,-1,1,0,0,0)"
       id="rect5957"
       style="fill:#ffffff;fill-opacity:1;stroke:none;display:inline" />
    <rect
       width="2"
       height="11.999743"
       rx="0.99999905"
       ry="0.99999905"
       x="-516.9375"
       y="-272"
       transform="scale(-1,-1)"
       id="rect5959"
       style="fill:#ffffff;fill-opacity:1;stroke:none;display:inline" />
    <rect
       width="2"
       height="11.999988"
       rx="0.99999905"
       ry="0.99999905"
       x="-530.9375"
       y="-272"
       transform="scale(-1,-1)"
       id="rect5961"
       style="fill:#ffffff;fill-opacity:1;stroke:none;display:inline" />
    <rect
       width="2"
       height="18"
       rx="0.99999905"
       ry="0.99999899"
       x="-276"
       y="513.9375"
       transform="matrix(0,-1,1,0,0,0)"
       id="rect5963"
       style="fill:#ffffff;fill-opacity:1;stroke:none;display:inline" />
    <rect
       width="2"
       height="16"
       rx="0.99999905"
       ry="0.99999911"
       x="-262"
       y="514.9375"
       transform="matrix(0,-1,1,0,0,0)"
       id="rect5965"
       style="fill:#ffffff;fill-opacity:1;stroke:none;display:inline" />
    <rect
       width="7.9999881"
       height="2"
       rx="0"
       ry="0"
       x="-271"
       y="525.9375"
       transform="matrix(0,-1,1,0,0,0)"
       id="rect5971"
       style="fill:#ffffff;fill-opacity:1;stroke:none;display:inline" />
    <rect
       width="7.9999881"
       height="2"
       rx="0"
       ry="0"
       x="-271"
       y="517.9375"
       transform="matrix(0,-1,1,0,0,0)"
       id="rect5973"
       style="fill:#ffffff;fill-opacity:1;stroke:none;display:inline" />
    <rect
       width="10"
       height="2"
       rx="0"
       ry="0"
       x="517.9375"
       y="263"
       id="rect5975"
       style="fill:#ffffff;fill-opacity:1;stroke:none;display:inline" />
    <rect
       width="10"
       height="2"
       rx="0"
       ry="0"
       x="517.9375"
       y="269"
       id="rect5977"
       style="fill:#ffffff;fill-opacity:1;stroke:none;display:inline" />
  </g>
  <g
     transform="translate(-510.9375,-1208.3622)"
     id="layer1" />
  <g
     transform="translate(-510.9375,-256)"
     id="layer4" />
  <g
     transform="translate(-510.9375,-256)"
     id="layer9" />
  <g
     transform="translate(-510.9375,-256)"
     id="layer6" />
</svg>
