<?xml version="1.0" encoding="UTF-8" standalone="no"?>
<!-- Created with Inkscape (http://www.inkscape.org/) -->
<svg
   xmlns:svg="http://www.w3.org/2000/svg"
   xmlns="http://www.w3.org/2000/svg"
   version="1.0"
   width="24"
   height="24"
   id="svg7384">
  <defs
     id="defs7386" />
  <g
     transform="translate(-591.9375,-202)"
     id="layer3" />
  <g
     transform="translate(-591.9375,-202)"
     id="layer5" />
  <g
     transform="translate(-591.9375,-202)"
     id="layer7" />
  <g
     transform="translate(-591.9375,-202)"
     id="layer2" />
  <g
     transform="translate(-591.9375,-202)"
     id="layer8">
    <rect
       width="24"
       height="24"
       rx="3"
       ry="3"
       x="591.9375"
       y="202"
       id="rect6761"
       style="fill:#606eff;fill-opacity:1;stroke:none;display:inline" />
    <rect
       width="10.000048"
       height="2"
       rx="0.99999994"
       ry="1"
       x="208.99976"
       y="594.9375"
       transform="matrix(0,1,1,0,0,0)"
       id="rect6763"
       style="fill:#ffffff;fill-opacity:1;stroke:none;display:inline" />
    <rect
       width="10.000115"
       height="2"
       rx="0.99999994"
       ry="1"
       x="208.99976"
       y="610.9375"
       transform="matrix(0,1,1,0,0,0)"
       id="rect6765"
       style="fill:#ffffff;fill-opacity:1;stroke:none;display:inline" />
    <rect
       width="18"
       height="2"
       rx="0.99999988"
       ry="1"
       x="-612.9375"
       y="209"
       transform="scale(-1,1)"
       id="rect6767"
       style="fill:#ffffff;fill-opacity:1;stroke:none;display:inline" />
    <rect
       width="17.602264"
       height="2"
       rx="0.99999994"
       ry="1"
       x="-612.53973"
       y="217"
       transform="scale(-1,1)"
       id="rect6769"
       style="fill:#ffffff;fill-opacity:1;stroke:none;display:inline" />
    <rect
       width="9.0000153"
       height="3.999939"
       rx="0"
       ry="0"
       x="-606.9375"
       y="212"
       transform="scale(-1,1)"
       id="rect6771"
       style="fill:#ffffff;fill-opacity:1;stroke:none;display:inline" />
  </g>
  <g
     transform="translate(-591.9375,-1154.3622)"
     id="layer1" />
  <g
     transform="translate(-591.9375,-202)"
     id="layer4" />
  <g
     transform="translate(-591.9375,-202)"
     id="layer9" />
  <g
     transform="translate(-591.9375,-202)"
     id="layer6" />
</svg>
