<?xml version="1.0" encoding="UTF-8" standalone="no"?>
<!-- Created with Inkscape (http://www.inkscape.org/) -->
<svg
   xmlns:svg="http://www.w3.org/2000/svg"
   xmlns="http://www.w3.org/2000/svg"
   version="1.0"
   width="24"
   height="24"
   id="svg7384">
  <defs
     id="defs7386" />
  <g
     transform="translate(-537.9375,-202)"
     id="layer3" />
  <g
     transform="translate(-537.9375,-202)"
     id="layer5" />
  <g
     transform="translate(-537.9375,-202)"
     id="layer7" />
  <g
     transform="translate(-537.9375,-202)"
     id="layer2" />
  <g
     transform="translate(-537.9375,-202)"
     id="layer8">
    <rect
       width="24"
       height="24"
       rx="2.9375"
       ry="2.9375"
       x="537.9375"
       y="202"
       id="rect6829"
       style="fill:#606eff;fill-opacity:1;stroke:none;display:inline" />
    <path
       d="M 558.93455,214.001 C 558.93455,218.95806 554.89504,222.99756 549.93798,222.99756 C 544.98092,222.99756 540.9414,218.95806 540.9414,214.001 C 540.9414,209.04394 544.98092,205.00443 549.93798,205.00443 C 554.89504,205.00443 558.93455,209.04394 558.93455,214.001 z M 556.9329,214.001 C 556.9329,210.12606 553.81292,206.99521 549.93798,206.99521 C 546.06304,206.99521 542.93218,210.12606 542.93218,214.001 C 542.93218,217.87593 546.06304,220.99591 549.93798,220.99591 C 553.81292,220.99591 556.9329,217.87593 556.9329,214.001 z"
       id="path6833"
       style="fill:#ffffff;fill-opacity:1;stroke:none;stroke-width:5.74524403;stroke-linecap:round;stroke-miterlimit:4;stroke-dasharray:none;stroke-dashoffset:0;stroke-opacity:1;display:inline" />
    <path
       d="M 554.93643,214.00044 C 554.93643,216.74949 552.6868,218.99911 549.93774,218.99911 C 547.18869,218.99911 544.93906,216.74949 544.93906,214.00044 C 544.93906,211.25138 547.18869,209.00176 549.93774,209.00176 C 552.6868,209.00176 554.93643,211.25138 554.93643,214.00044 z M 552.93478,214.00044 C 552.93478,212.33351 551.60467,210.99797 549.93774,210.99797 C 548.27082,210.99797 546.93527,212.33351 546.93527,214.00044 C 546.93527,215.66736 548.27082,216.99747 549.93774,216.99747 C 551.60467,216.99747 552.93478,215.66736 552.93478,214.00044 z"
       id="path6835"
       style="fill:#ffffff;fill-opacity:1;stroke:none;stroke-width:11.49053383;stroke-linecap:round;stroke-miterlimit:4;stroke-dasharray:none;stroke-dashoffset:0;stroke-opacity:1;display:inline" />
  </g>
  <g
     transform="translate(-537.9375,-1154.3622)"
     id="layer1" />
  <g
     transform="translate(-537.9375,-202)"
     id="layer4" />
  <g
     transform="translate(-537.9375,-202)"
     id="layer9" />
  <g
     transform="translate(-537.9375,-202)"
     id="layer6" />
</svg>
