<?xml version="1.0" encoding="UTF-8" standalone="no"?>
<!-- Created with Inkscape (http://www.inkscape.org/) -->
<svg
   xmlns:svg="http://www.w3.org/2000/svg"
   xmlns="http://www.w3.org/2000/svg"
   version="1.0"
   width="24"
   height="24"
   id="svg7384">
  <defs
     id="defs7386" />
  <g
     transform="translate(-537.9375,-256)"
     id="layer3" />
  <g
     transform="translate(-537.9375,-256)"
     id="layer5" />
  <g
     transform="translate(-537.9375,-256)"
     id="layer7" />
  <g
     transform="translate(-537.9375,-256)"
     id="layer2" />
  <g
     transform="translate(-537.9375,-256)"
     id="layer8">
    <rect
       width="24"
       height="24"
       rx="2.9375"
       ry="2.9375"
       x="537.9375"
       y="256"
       id="rect6013"
       style="fill:#31c2ee;fill-opacity:1;stroke:none;display:inline" />
    <rect
       width="1.9999878"
       height="8"
       rx="1.0000005"
       ry="1.0000005"
       x="-264"
       y="547.9375"
       transform="matrix(0,-1,1,0,0,0)"
       id="rect5993"
       style="fill:#ffffff;fill-opacity:1;stroke:none;display:inline" />
    <rect
       width="2"
       height="16"
       rx="1.0000001"
       ry="1.0000001"
       x="540.9375"
       y="260"
       id="rect5995"
       style="fill:#ffffff;fill-opacity:1;stroke:none;display:inline" />
    <rect
       width="1.9999695"
       height="10"
       rx="1.0000002"
       ry="1.0000002"
       x="-276"
       y="540.9375"
       transform="matrix(0,-1,1,0,0,0)"
       id="rect5997"
       style="fill:#ffffff;fill-opacity:1;stroke:none;display:inline" />
    <rect
       width="2"
       height="9"
       rx="1.0000001"
       ry="1.0000001"
       x="-262"
       y="540.9375"
       transform="matrix(0,-1,1,0,0,0)"
       id="rect5999"
       style="fill:#ffffff;fill-opacity:1;stroke:none;display:inline" />
    <rect
       width="2"
       height="3.9999881"
       rx="1.0609763"
       ry="1.0609763"
       x="547.9375"
       y="260"
       id="rect6001"
       style="fill:#ffffff;fill-opacity:1;stroke:none;display:inline" />
    <rect
       width="2"
       height="15.000005"
       rx="1.0000002"
       ry="1.0000002"
       x="-267"
       y="543.9375"
       transform="matrix(0,-1,1,0,0,0)"
       id="rect6003"
       style="fill:#ffffff;fill-opacity:1;stroke:none;display:inline" />
    <rect
       width="2"
       height="10.999939"
       rx="1.0000001"
       ry="1.0000001"
       x="556.9375"
       y="265"
       id="rect6005"
       style="fill:#ffffff;fill-opacity:1;stroke:none;display:inline" />
    <path
       d="M 552.9375,271.99991 C 552.3835,271.99991 551.9375,272.44591 551.9375,272.99991 L 551.9375,275.99991 C 551.9375,276.55391 552.3835,276.99991 552.9375,276.99991 L 554.9375,276.99991 C 555.4915,276.99991 555.9375,276.55391 555.9375,275.99991 L 555.9375,272.99991 C 555.9375,272.44591 555.4915,271.99991 554.9375,271.99991 L 552.9375,271.99991 z M 552.9375,274.99991 L 554.9375,274.99991 L 554.9375,275.99991 L 552.9375,275.99991 L 552.9375,274.99991 z"
       id="path6007"
       style="fill:#ffffff;fill-opacity:1;stroke:none;display:inline" />
    <rect
       width="1.000061"
       height="1.9999924"
       rx="0"
       ry="0"
       x="-269"
       y="552.9375"
       transform="matrix(0,-1,1,0,0,0)"
       id="rect6009"
       style="fill:#ffffff;fill-opacity:1;stroke:none;display:inline" />
    <rect
       width="0.99996948"
       height="1.9999924"
       rx="0"
       ry="0"
       x="-271"
       y="552.9375"
       transform="matrix(0,-1,1,0,0,0)"
       id="rect6011"
       style="fill:#ffffff;fill-opacity:1;stroke:none;display:inline" />
  </g>
  <g
     transform="translate(-537.9375,-1208.3622)"
     id="layer1" />
  <g
     transform="translate(-537.9375,-256)"
     id="layer4" />
  <g
     transform="translate(-537.9375,-256)"
     id="layer9" />
  <g
     transform="translate(-537.9375,-256)"
     id="layer6" />
</svg>
