<?xml version="1.0" encoding="UTF-8" standalone="no"?>
<!-- Created with Inkscape (http://www.inkscape.org/) -->
<svg
   xmlns:svg="http://www.w3.org/2000/svg"
   xmlns="http://www.w3.org/2000/svg"
   version="1.0"
   width="24"
   height="24"
   id="svg7384">
  <title
     id="title9167">Moblin Icon Theme</title>
  <defs
     id="defs7386" />
  <g
     transform="translate(280,-970)"
     id="layer3" />
  <g
     transform="translate(280,-970)"
     id="layer5" />
  <g
     transform="translate(280,-970)"
     id="layer7" />
  <g
     transform="translate(280,-970)"
     id="layer2" />
  <g
     transform="translate(280,-970)"
     id="layer8" />
  <g
     transform="translate(280,-1922.3622)"
     id="layer1" />
  <g
     transform="translate(280,-970)"
     id="layer11" />
  <g
     transform="translate(280,-970)"
     id="layer4" />
  <g
     transform="translate(280,-970)"
     id="layer12">
    <rect
       width="24"
       height="24"
       x="256"
       y="970"
       transform="scale(-1,1)"
       id="rect8525"
       style="opacity:0;fill:#ffffff;fill-opacity:1;stroke:none;display:inline" />
    <rect
       width="2"
       height="10"
       rx="1"
       ry="1"
       x="-280"
       y="970"
       id="rect2843-2"
       style="fill:#bebebe;fill-opacity:1;stroke:none;display:inline" />
    <rect
       width="2"
       height="9.9044342"
       rx="1"
       ry="1"
       x="-272"
       y="970.09558"
       id="rect2833"
       style="fill:#bebebe;fill-opacity:1;stroke:none;display:inline" />
    <rect
       width="2"
       height="10"
       rx="1"
       ry="1"
       x="-972"
       y="-280"
       transform="matrix(0,-1,1,0,0,0)"
       id="rect2835"
       style="fill:#bebebe;fill-opacity:1;stroke:none;display:inline" />
    <rect
       width="2"
       height="10"
       rx="1"
       ry="1"
       x="-980"
       y="-280"
       transform="matrix(0,-1,1,0,0,0)"
       id="rect2837"
       style="fill:#bebebe;fill-opacity:1;stroke:none;display:inline" />
    <rect
       width="2"
       height="10"
       rx="1"
       ry="1"
       x="-268"
       y="970"
       id="rect2843-8"
       style="fill:#bebebe;fill-opacity:1;stroke:none;display:inline" />
    <rect
       width="2"
       height="9.9044342"
       rx="1"
       ry="1"
       x="-260"
       y="970.09558"
       id="rect2833-1"
       style="fill:#bebebe;fill-opacity:1;stroke:none;display:inline" />
    <rect
       width="2"
       height="10"
       rx="1"
       ry="1"
       x="-972"
       y="-268"
       transform="matrix(0,-1,1,0,0,0)"
       id="rect2835-0"
       style="fill:#bebebe;fill-opacity:1;stroke:none;display:inline" />
    <rect
       width="2"
       height="10"
       rx="1"
       ry="1"
       x="-980"
       y="-268"
       transform="matrix(0,-1,1,0,0,0)"
       id="rect2837-2"
       style="fill:#bebebe;fill-opacity:1;stroke:none;display:inline" />
    <rect
       width="2"
       height="10"
       rx="1"
       ry="1"
       x="-280"
       y="982"
       id="rect2843-85"
       style="fill:#bebebe;fill-opacity:1;stroke:none;display:inline" />
    <rect
       width="2"
       height="9.9044342"
       rx="1"
       ry="1"
       x="-272"
       y="982.09558"
       id="rect2833-9"
       style="fill:#bebebe;fill-opacity:1;stroke:none;display:inline" />
    <rect
       width="2"
       height="10"
       rx="1"
       ry="1"
       x="-984"
       y="-280"
       transform="matrix(0,-1,1,0,0,0)"
       id="rect2835-3"
       style="fill:#bebebe;fill-opacity:1;stroke:none;display:inline" />
    <rect
       width="2"
       height="10"
       rx="1"
       ry="1"
       x="-992"
       y="-280"
       transform="matrix(0,-1,1,0,0,0)"
       id="rect2837-5"
       style="fill:#bebebe;fill-opacity:1;stroke:none;display:inline" />
    <rect
       width="2"
       height="10"
       rx="1"
       ry="1"
       x="-268"
       y="982"
       id="rect2843-8-9"
       style="fill:#bebebe;fill-opacity:1;stroke:none;display:inline" />
    <rect
       width="2"
       height="9.9044342"
       rx="1"
       ry="1"
       x="-260"
       y="982.09558"
       id="rect2833-1-5"
       style="fill:#bebebe;fill-opacity:1;stroke:none;display:inline" />
    <rect
       width="2"
       height="10"
       rx="1"
       ry="1"
       x="-984"
       y="-268"
       transform="matrix(0,-1,1,0,0,0)"
       id="rect2835-0-4"
       style="fill:#bebebe;fill-opacity:1;stroke:none;display:inline" />
    <rect
       width="2"
       height="10"
       rx="1"
       ry="1"
       x="-992"
       y="-268"
       transform="matrix(0,-1,1,0,0,0)"
       id="rect2837-2-1"
       style="fill:#bebebe;fill-opacity:1;stroke:none;display:inline" />
    <path
       d="M -266,975.33428 L -265.9654,978 L -259.70663,977.9772 L -259.74123,975.8583 C -259.74123,975.8583 -262.00615,977.04305 -262.04073,976.92914 C -262.07533,976.81522 -264.39209,973.3065 -264.39209,973.3065 L -266,975.33427 L -266,975.33428 z"
       id="path10013-5"
       style="fill:#bebebe;fill-opacity:1;stroke:none;stroke-width:1;marker:none;visibility:visible;display:inline;overflow:visible;enable-background:accumulate" />
  </g>
  <g
     transform="translate(280,-970)"
     id="layer9" />
  <g
     transform="translate(280,-970)"
     id="layer10" />
  <g
     transform="translate(280,-970)"
     id="layer6" />
</svg>
