<?xml version="1.0" encoding="UTF-8" standalone="no"?>
<!-- Created with Inkscape (http://www.inkscape.org/) -->
<svg
   xmlns:svg="http://www.w3.org/2000/svg"
   xmlns="http://www.w3.org/2000/svg"
   version="1.0"
   width="24.09071"
   height="24.090717"
   id="svg7384">
  <title
     id="title9167">Moblin Icon Theme</title>
  <defs
     id="defs7386" />
  <g
     transform="translate(74.0625,-907.72011)"
     id="layer3" />
  <g
     transform="translate(74.0625,-907.72011)"
     id="layer5" />
  <g
     transform="translate(74.0625,-907.72011)"
     id="layer7" />
  <g
     transform="translate(74.0625,-907.72011)"
     id="layer2" />
  <g
     transform="translate(74.0625,-907.72011)"
     id="layer8" />
  <g
     transform="translate(74.0625,-1860.0823)"
     id="layer1" />
  <g
     transform="translate(74.0625,-907.72011)"
     id="layer11" />
  <g
     transform="translate(74.0625,-907.72011)"
     id="layer4" />
  <g
     transform="translate(74.0625,-907.72011)"
     id="layer12">
    <rect
       width="24"
       height="24"
       x="50"
       y="907.78259"
       transform="scale(-1,1)"
       id="rect6526"
       style="opacity:0;fill:#ffffff;fill-opacity:1;stroke:none;display:inline" />
    <path
       d="M -60.416183,912.08139 C -61.840535,911.25904 -63.691909,911.75512 -64.514259,913.17947 L -69.686134,922.13742 C -70.508484,923.56177 -70.0124,925.41313 -68.588058,926.2355 L -59.630108,931.40737 C -58.205756,932.22972 -56.354394,931.73363 -55.532032,930.30929 L -50.360157,921.35134 C -49.537807,919.92699 -50.033889,918.07561 -51.458233,917.25327 L -60.416183,912.08139 z M -61.416183,913.81344 L -52.458233,918.98532 C -51.963498,919.27095 -51.806557,919.85658 -52.092207,920.35134 L -57.264082,929.30929 C -57.549731,929.80403 -58.135348,929.96097 -58.630108,929.67532 L -67.588058,924.50344 C -68.082813,924.21779 -68.239733,923.63218 -67.954083,923.13742 L -62.782208,914.17947 C -62.496558,913.68471 -61.910943,913.52779 -61.416183,913.81344 z"
       id="rect6538"
       style="fill:#bebebe;fill-opacity:1;fill-rule:nonzero;stroke:none;stroke-width:1.9999994;stroke-linecap:round;stroke-linejoin:miter;marker:none;stroke-miterlimit:4;stroke-dasharray:none;stroke-dashoffset:0;stroke-opacity:1;visibility:visible;display:inline;overflow:visible;enable-background:accumulate" />
    <path
       d="M -71.0625,907.71875 C -72.707194,907.71878 -74.0625,909.07405 -74.0625,910.71875 L -74.0625,920.90625 C -74.0625,922.07271 -73.392422,923.10171 -72.40625,923.59375 C -72.086178,923.77339 -71.69342,923.76328 -71.383022,923.56739 C -71.072624,923.37151 -70.894466,923.02133 -70.918878,922.65511 C -70.94329,922.28888 -71.166349,921.96545 -71.5,921.8125 C -71.826208,921.64974 -72.0625,921.31143 -72.0625,920.90625 L -72.0625,910.71875 C -72.0625,910.14745 -71.633806,909.71876 -71.0625,909.71875 L -61,909.71875 C -60.428703,909.71875 -60,910.14748 -60,910.71875 C -60.005095,911.07938 -59.815618,911.41482 -59.504123,911.59663 C -59.192628,911.77843 -58.807372,911.77843 -58.495877,911.59663 C -58.184382,911.41482 -57.994905,911.07938 -58,910.71875 C -58,909.07406 -59.355297,907.71875 -61,907.71875 L -71.0625,907.71875 z"
       id="rect6541"
       style="fill:#bebebe;fill-opacity:1;fill-rule:nonzero;stroke:none;stroke-width:1.99999952;stroke-linecap:round;stroke-linejoin:miter;marker:none;stroke-miterlimit:4;stroke-dasharray:none;stroke-dashoffset:0;stroke-opacity:1;visibility:visible;display:inline;overflow:visible;enable-background:accumulate" />
  </g>
  <g
     transform="translate(74.0625,-907.72011)"
     id="layer9" />
  <g
     transform="translate(74.0625,-907.72011)"
     id="layer10" />
  <g
     transform="translate(74.0625,-907.72011)"
     id="layer6" />
</svg>
