<?xml version="1.0" encoding="UTF-8" standalone="no"?>
<!-- Created with Inkscape (http://www.inkscape.org/) -->
<svg
   xmlns:svg="http://www.w3.org/2000/svg"
   xmlns="http://www.w3.org/2000/svg"
   version="1.0"
   width="24"
   height="24"
   id="svg7384">
  <title
     id="title9167">Moblin Icon Theme</title>
  <defs
     id="defs7386" />
  <g
     transform="translate(100,-907.78261)"
     id="layer3" />
  <g
     transform="translate(100,-907.78261)"
     id="layer5" />
  <g
     transform="translate(100,-907.78261)"
     id="layer7" />
  <g
     transform="translate(100,-907.78261)"
     id="layer2" />
  <g
     transform="translate(100,-907.78261)"
     id="layer8" />
  <g
     transform="translate(100,-1860.1448)"
     id="layer1" />
  <g
     transform="translate(100,-907.78261)"
     id="layer11" />
  <g
     transform="translate(100,-907.78261)"
     id="layer4" />
  <g
     transform="translate(100,-907.78261)"
     id="layer12">
    <rect
       width="24"
       height="24"
       x="76"
       y="907.78259"
       transform="scale(-1,1)"
       id="rect6520"
       style="opacity:0;fill:#ffffff;fill-opacity:1;stroke:none;display:inline" />
    <path
       d="M -95.03125,909.78125 C -96.675953,909.78125 -98.03125,911.13655 -98.03125,912.78125 L -98.03125,924.78125 C -98.03125,926.42595 -96.675953,927.78125 -95.03125,927.78125 L -83.03125,927.78125 C -81.386547,927.78125 -80.03125,926.42595 -80.03125,924.78125 L -80.03125,912.78125 C -80.03125,911.13655 -81.386547,909.78125 -83.03125,909.78125 L -95.03125,909.78125 z M -95.03125,911.78125 L -83.03125,911.78125 C -82.459953,911.78125 -82.03125,912.20995 -82.03125,912.78125 L -82.03125,924.78125 C -82.03125,925.35255 -82.459953,925.78125 -83.03125,925.78125 L -95.03125,925.78125 C -95.602547,925.78125 -96.03125,925.35255 -96.03125,924.78125 L -96.03125,912.78125 C -96.03125,912.20995 -95.602547,911.78125 -95.03125,911.78125 z"
       id="rect6522"
       style="fill:#bebebe;fill-opacity:1;fill-rule:nonzero;stroke:none;stroke-width:1.99999952;stroke-linecap:round;stroke-linejoin:miter;marker:none;stroke-miterlimit:4;stroke-dasharray:none;stroke-dashoffset:0;stroke-opacity:1;visibility:visible;display:inline;overflow:visible;enable-background:accumulate" />
    <path
       d="M -94,913.78125 L -94,914.78125 L -94,922.78125 L -94,923.78125 L -93,923.78125 L -91.0625,923.78125 C -90.701867,923.78635 -90.366427,923.59687 -90.184624,923.28537 C -90.002821,922.97388 -90.002821,922.58862 -90.184624,922.27713 C -90.366427,921.96563 -90.701867,921.77615 -91.0625,921.78125 L -92,921.78125 L -92,915.78125 L -91.125,915.78125 C -90.764367,915.78635 -90.428927,915.59687 -90.247124,915.28537 C -90.065321,914.97388 -90.065321,914.58862 -90.247124,914.27713 C -90.428927,913.96563 -90.764367,913.77615 -91.125,913.78125 L -93,913.78125 L -94,913.78125 z"
       id="path6530"
       style="fill:#bebebe;fill-opacity:1;fill-rule:nonzero;stroke:none;stroke-width:1.99999952;stroke-linecap:round;stroke-linejoin:miter;marker:none;stroke-miterlimit:4;stroke-dasharray:none;stroke-dashoffset:0;stroke-opacity:1;visibility:visible;display:inline;overflow:visible;enable-background:accumulate" />
    <path
       d="M -86.96875,913.78125 C -87.521035,913.80714 -87.947763,914.27584 -87.921875,914.82812 C -87.895987,915.38041 -87.427285,915.80714 -86.875,915.78125 L -86,915.78125 L -86,921.78125 L -86.9375,921.78125 C -87.298133,921.77615 -87.633573,921.96563 -87.815376,922.27713 C -87.997179,922.58862 -87.997179,922.97388 -87.815376,923.28537 C -87.633573,923.59687 -87.298133,923.78635 -86.9375,923.78125 L -85,923.78125 L -84,923.78125 L -84,922.78125 L -84,914.78125 L -84,913.78125 L -85,913.78125 L -86.875,913.78125 C -86.906233,913.77978 -86.937517,913.77978 -86.96875,913.78125 z"
       id="path6532"
       style="fill:#bebebe;fill-opacity:1;fill-rule:nonzero;stroke:none;stroke-width:1.99999952;stroke-linecap:round;stroke-linejoin:miter;marker:none;stroke-miterlimit:4;stroke-dasharray:none;stroke-dashoffset:0;stroke-opacity:1;visibility:visible;display:inline;overflow:visible;enable-background:accumulate" />
    <rect
       width="2.032932"
       height="1.9445436"
       x="-89.98764"
       y="917.80396"
       id="rect6534"
       style="fill:#bebebe;fill-opacity:1;fill-rule:nonzero;stroke:none;stroke-width:1.99999952;marker:none;visibility:visible;display:inline;overflow:visible;enable-background:accumulate" />
  </g>
  <g
     transform="translate(100,-907.78261)"
     id="layer9" />
  <g
     transform="translate(100,-907.78261)"
     id="layer10" />
  <g
     transform="translate(100,-907.78261)"
     id="layer6" />
</svg>
