<?xml version="1.0" encoding="UTF-8" standalone="no"?>
<!-- Created with Inkscape (http://www.inkscape.org/) -->
<svg
   xmlns:svg="http://www.w3.org/2000/svg"
   xmlns="http://www.w3.org/2000/svg"
   version="1.0"
   width="24.025412"
   height="24"
   id="svg7384">
  <title
     id="title9167">Moblin Icon Theme</title>
  <defs
     id="defs7386" />
  <g
     transform="translate(112.02539,-844.99707)"
     id="layer3" />
  <g
     transform="translate(112.02539,-844.99707)"
     id="layer5" />
  <g
     transform="translate(112.02539,-844.99707)"
     id="layer7" />
  <g
     transform="translate(112.02539,-844.99707)"
     id="layer2" />
  <g
     transform="translate(112.02539,-844.99707)"
     id="layer8" />
  <g
     transform="translate(112.02539,-1797.3592)"
     id="layer1" />
  <g
     transform="translate(112.02539,-844.99707)"
     id="layer11" />
  <g
     transform="translate(112.02539,-844.99707)"
     id="layer4" />
  <g
     transform="translate(112.02539,-844.99707)"
     id="layer12">
    <rect
       width="24"
       height="24"
       x="87.999977"
       y="844.99707"
       transform="scale(-1,1)"
       id="rect8918-5"
       style="opacity:0;fill:#ffffff;fill-opacity:1;stroke:none;display:inline" />
    <path
       d="M -99.124938,861.09054 C -96.597421,863.61806 -92.464808,863.61504 -89.933596,861.08383 C -87.402384,858.55262 -87.399366,854.42 -89.926883,851.89249 C -92.4544,849.36497 -96.587014,849.36799 -99.118225,851.8992 C -101.64944,854.43041 -101.65246,858.56302 -99.124938,861.09054 z M -97.711889,859.67749 C -99.474786,857.91459 -99.472713,855.07566 -97.707238,853.31019 C -95.941764,851.54471 -93.102831,851.54264 -91.339933,853.30554 C -89.577035,855.06843 -89.579109,857.90737 -91.344583,859.67284 C -93.110058,861.43831 -95.948991,861.44039 -97.711889,859.67749 z"
       id="path3049-2-2"
       style="fill:#bebebe;fill-opacity:1;stroke:none;stroke-width:8.35672283;stroke-linecap:round;stroke-miterlimit:4;stroke-dasharray:none;stroke-dashoffset:0;stroke-opacity:1;display:inline" />
    <path
       d="M -110.12495,861.09053 C -107.59744,863.61804 -103.46482,863.61503 -100.93361,861.08381 C -98.402404,858.5526 -98.399387,854.41999 -100.9269,851.89247 C -103.45442,849.36495 -107.58703,849.36797 -110.11824,851.89918 C -112.64945,854.43039 -112.65247,858.56301 -110.12495,861.09053 z M -108.7119,859.67748 C -110.4748,857.91458 -110.47273,855.07564 -108.70726,853.31017 C -106.94178,851.54469 -104.10285,851.54262 -102.33995,853.30552 C -100.57706,855.06842 -100.57913,857.90735 -102.3446,859.67283 C -104.11007,861.4383 -106.94901,861.44037 -108.7119,859.67748 z"
       id="path12710"
       style="fill:#bebebe;fill-opacity:1;stroke:none;stroke-width:8.35672092;stroke-linecap:round;stroke-miterlimit:4;stroke-dasharray:none;stroke-dashoffset:0;stroke-opacity:1;display:inline" />
    <path
       d="M -2.8284264,179.43886 A 22.98097,22.98097 0 1 1 -48.790367,179.43886 A 22.98097,22.98097 0 1 1 -2.8284264,179.43886 z"
       transform="matrix(-0.1691071,-0.1691072,0.1693542,-0.1693543,-140.2795,882.51493)"
       id="path5465"
       style="fill:#bebebe;fill-opacity:1;stroke:none;display:inline" />
  </g>
  <g
     transform="translate(112.02539,-844.99707)"
     id="layer9" />
  <g
     transform="translate(112.02539,-844.99707)"
     id="layer10" />
  <g
     transform="translate(112.02539,-844.99707)"
     id="layer6" />
</svg>
