<?xml version="1.0" encoding="UTF-8" standalone="no"?>
<!-- Created with Inkscape (http://www.inkscape.org/) -->
<svg
   xmlns:svg="http://www.w3.org/2000/svg"
   xmlns="http://www.w3.org/2000/svg"
   version="1.0"
   width="24.000441"
   height="24"
   id="svg7384">
  <title
     id="title9167">Moblin Icon Theme</title>
  <defs
     id="defs7386" />
  <g
     transform="translate(196.00044,-845)"
     id="layer3" />
  <g
     transform="translate(196.00044,-845)"
     id="layer5" />
  <g
     transform="translate(196.00044,-845)"
     id="layer7" />
  <g
     transform="translate(196.00044,-845)"
     id="layer2" />
  <g
     transform="translate(196.00044,-845)"
     id="layer8" />
  <g
     transform="translate(196.00044,-1797.3622)"
     id="layer1" />
  <g
     transform="translate(196.00044,-845)"
     id="layer11" />
  <g
     transform="translate(196.00044,-845)"
     id="layer4" />
  <g
     transform="translate(196.00044,-845)"
     id="layer12">
    <rect
       width="24"
       height="24"
       x="172"
       y="845"
       transform="scale(-1,1)"
       id="rect10982"
       style="opacity:0;fill:#f5f5f5;fill-opacity:1;stroke:none;display:inline" />
    <path
       d="M -188.0625,852.96875 C -188.32831,852.98718 -188.57577,853.11091 -188.75,853.3125 L -195.75,861.3125 C -196.00652,861.60756 -196.06757,862.02505 -195.90629,862.38121 C -195.74501,862.73737 -195.39097,862.96689 -195,862.96875 L -195,868 C -194.99994,868.55226 -194.55226,868.99994 -194,869 L -182,869 C -181.44774,868.99994 -181.00006,868.55226 -181,868 L -181,862.90625 C -180.62029,862.88137 -180.2876,862.64316 -180.14171,862.29171 C -179.99583,861.94026 -180.06203,861.53647 -180.3125,861.25 L -187.25,853.3125 C -187.45293,853.0782 -187.75303,852.95123 -188.0625,852.96875 L -188.0625,852.96875 z M -188,855.5 L -182.84375,861.375 C -182.9448,861.53385 -182.99896,861.71799 -183,861.90625 L -183,867 L -193,867 L -193,862.15625 C -192.99593,862.10425 -192.99593,862.052 -193,862 C -193.0042,861.79786 -193.06958,861.60174 -193.1875,861.4375 L -188,855.5 z"
       id="path10994"
       style="fill:#bebebe;fill-opacity:1;stroke:none;stroke-width:2;stroke-linecap:round;stroke-linejoin:round;marker:none;stroke-miterlimit:4;stroke-dasharray:none;stroke-dashoffset:0;stroke-opacity:1;visibility:visible;display:inline;overflow:visible;enable-background:accumulate" />
    <path
       d="M -181.09375,845.03125 C -181.32601,845.07224 -181.53631,845.19399 -181.6875,845.375 L -186.78125,851.1875 C -187.0527,851.44966 -187.15347,851.8423 -187.04181,852.20279 C -186.93015,852.56327 -186.62508,852.8302 -186.25296,852.89302 C -185.88085,852.95584 -185.50506,852.80385 -185.28125,852.5 L -180.9375,847.53125 L -175.78125,853.40625 C -175.8823,853.5651 -175.93646,853.74924 -175.9375,853.9375 L -175.9375,859.03125 L -178.9375,859.03125 C -179.29814,859.02615 -179.63358,859.21563 -179.81539,859.52712 C -179.99719,859.83862 -179.99719,860.22388 -179.81539,860.53538 C -179.63358,860.84687 -179.29814,861.03635 -178.9375,861.03125 L -174.9375,861.03125 C -174.38524,861.03119 -173.93756,860.58351 -173.9375,860.03125 L -173.9375,854.9375 C -173.55779,854.91262 -173.2251,854.67441 -173.07921,854.32296 C -172.93333,853.97151 -172.99953,853.56772 -173.25,853.28125 L -180.1875,845.375 C -180.41017,845.11191 -180.75261,844.98202 -181.09375,845.03125 z"
       id="path11017"
       style="fill:#bebebe;fill-opacity:1;stroke:none;stroke-width:2;stroke-linecap:round;stroke-linejoin:round;marker:none;stroke-miterlimit:4;stroke-dasharray:none;stroke-dashoffset:0;stroke-opacity:1;visibility:visible;display:inline;overflow:visible;enable-background:accumulate" />
  </g>
  <g
     transform="translate(196.00044,-845)"
     id="layer9" />
  <g
     transform="translate(196.00044,-845)"
     id="layer10" />
  <g
     transform="translate(196.00044,-845)"
     id="layer6" />
</svg>
