<?xml version="1.0" encoding="UTF-8" standalone="no"?>
<!-- Created with Inkscape (http://www.inkscape.org/) -->
<svg
   xmlns:svg="http://www.w3.org/2000/svg"
   xmlns="http://www.w3.org/2000/svg"
   version="1.0"
   width="24"
   height="24"
   id="svg7384">
  <title
     id="title9167">Moblin Icon Theme</title>
  <defs
     id="defs7386" />
  <g
     transform="translate(85.999945,-844.99993)"
     id="layer3" />
  <g
     transform="translate(85.999945,-844.99993)"
     id="layer5" />
  <g
     transform="translate(85.999945,-844.99993)"
     id="layer7" />
  <g
     transform="translate(85.999945,-844.99993)"
     id="layer2" />
  <g
     transform="translate(85.999945,-844.99993)"
     id="layer8" />
  <g
     transform="translate(85.999945,-1797.3621)"
     id="layer1" />
  <g
     transform="translate(85.999945,-844.99993)"
     id="layer11" />
  <g
     transform="translate(85.999945,-844.99993)"
     id="layer4" />
  <g
     transform="translate(85.999945,-844.99993)"
     id="layer12">
    <rect
       width="24"
       height="24"
       x="61.999947"
       y="844.99994"
       transform="scale(-1,1)"
       id="rect12767"
       style="opacity:0;fill:#ffffff;fill-opacity:1;stroke:none;display:inline" />
    <path
       d="M -77.672274,850.01448 C -79.463959,849.92861 -81.283419,850.52361 -82.709335,851.8191 C -85.561168,854.41007 -85.776251,858.86291 -83.185278,861.71474 C -80.594305,864.56657 -76.141467,864.78166 -73.289634,862.19068 C -72.878921,861.8183 -72.847846,861.18348 -73.220226,860.77277 C -73.592605,860.36206 -74.227426,860.33098 -74.638138,860.70336 C -76.689039,862.56667 -79.834654,862.41714 -81.697957,860.36624 C -83.56126,858.31533 -83.411731,855.16972 -81.360831,853.30642 C -79.30993,851.44311 -76.164316,851.59264 -74.301012,853.64354 C -73.718979,854.28418 -73.394669,854.86991 -73.170648,855.70596 C -73.106944,856.08019 -72.836856,856.3861 -72.473399,856.49567 C -72.109942,856.60524 -71.715782,856.49959 -71.455852,856.22292 C -71.195922,855.94626 -71.115039,855.54628 -71.247046,855.19036 C -71.542228,854.08872 -72.046769,853.13918 -72.813691,852.29504 C -74.109178,850.86912 -75.880588,850.10035 -77.672274,850.01448 z"
       id="path3538"
       style="fill:#bebebe;fill-opacity:1;stroke:none;stroke-width:3.15163946;stroke-linecap:round;stroke-miterlimit:4;stroke-dasharray:none;stroke-opacity:1;display:inline" />
    <path
       d="M -67.5024,849.99798 C -69.423462,849.99798 -71.002335,851.57685 -71.002334,853.49791 C -71.002334,855.41898 -69.423462,856.99785 -67.5024,856.99785 C -67.124534,857.03301 -66.759321,856.85128 -66.559499,856.52865 C -66.359677,856.20602 -66.359677,855.79809 -66.559499,855.47546 C -66.759321,855.15283 -67.124534,854.97109 -67.5024,855.00625 C -68.341337,855.00625 -68.996096,854.33685 -68.996096,853.49791 C -68.996096,852.65898 -68.341337,852.00422 -67.5024,852.00422 C -66.967613,852.00422 -66.603609,852.17368 -66.286941,852.60463 C -66.092892,852.93043 -65.731263,853.11846 -65.353103,853.09018 C -64.974942,853.06189 -64.645308,852.82216 -64.501885,852.47111 C -64.358462,852.12006 -64.425924,851.71809 -64.676093,851.4331 C -65.334397,850.53722 -66.39066,849.99798 -67.5024,849.99798 z"
       id="path3540"
       style="fill:#bebebe;fill-opacity:1;stroke:none;stroke-width:4.26793575;stroke-linecap:round;stroke-linejoin:miter;stroke-miterlimit:4;stroke-dasharray:none;stroke-opacity:1;display:inline" />
    <path
       d="M -67.686231,855.01104 C -68.247638,855.03924 -68.679289,855.50555 -68.650351,856.05257 C -68.621412,856.59959 -68.142843,857.02018 -67.581436,856.99199 C -66.154462,856.99199 -65.003464,858.09307 -65.003464,859.48348 C -65.003464,860.87389 -66.154462,861.9954 -67.581436,861.9954 C -68.791511,861.9954 -69.741421,861.27588 -70.054612,860.13699 C -70.121029,859.76905 -70.394917,859.46916 -70.762265,859.36216 C -71.129614,859.25515 -71.527484,859.35937 -71.790256,859.63142 C -72.053028,859.90347 -72.135682,860.29675 -72.00381,860.64754 C -71.465009,862.60685 -69.6632,863.95592 -67.581436,863.95592 C -65.058201,863.95592 -62.991388,861.94207 -62.991389,859.48348 C -62.991389,857.0249 -65.058201,855.01104 -67.581436,855.01104 C -67.616344,855.00928 -67.651323,855.00928 -67.686231,855.01104 L -67.686231,855.01104 z"
       id="path3540-3"
       style="fill:#bebebe;fill-opacity:1;stroke:none;stroke-width:3.02094817;stroke-linecap:round;stroke-linejoin:miter;stroke-miterlimit:4;stroke-dasharray:none;stroke-opacity:1;display:inline" />
    <path
       d="M -72.375,854.40625 C -72.65625,854.44972 -72.905659,854.61096 -73.060758,854.84957 C -73.215856,855.08818 -73.261952,855.38157 -73.1875,855.65625 L -71.96875,860.6875 C -71.91059,861.06001 -71.647878,861.36816 -71.289254,861.48451 C -70.93063,861.60086 -70.53705,861.50564 -70.271273,861.23823 C -70.005496,860.97081 -69.912697,860.57665 -70.03125,860.21875 L -71.25,855.1875 C -71.359863,854.67087 -71.852534,854.32873 -72.375,854.40625 z"
       id="path4601"
       style="fill:#bebebe;fill-opacity:1;stroke:none;stroke-width:1.99999988;stroke-linecap:round;stroke-linejoin:miter;marker:none;stroke-miterlimit:4;stroke-dasharray:none;stroke-dashoffset:0;stroke-opacity:1;visibility:visible;display:inline;overflow:visible;enable-background:accumulate" />
  </g>
  <g
     transform="translate(85.999945,-844.99993)"
     id="layer9" />
  <g
     transform="translate(85.999945,-844.99993)"
     id="layer10" />
  <g
     transform="translate(85.999945,-844.99993)"
     id="layer6" />
</svg>
