<?xml version="1.0" encoding="UTF-8" standalone="no"?>
<!-- Created with Inkscape (http://www.inkscape.org/) -->
<svg
   xmlns:svg="http://www.w3.org/2000/svg"
   xmlns="http://www.w3.org/2000/svg"
   version="1.0"
   width="24"
   height="24"
   id="svg7384">
  <title
     id="title9167">Moblin Icon Theme</title>
  <defs
     id="defs7386" />
  <g
     transform="translate(2.9999783,-846)"
     id="layer3" />
  <g
     transform="translate(2.9999783,-846)"
     id="layer5" />
  <g
     transform="translate(2.9999783,-846)"
     id="layer7" />
  <g
     transform="translate(2.9999783,-846)"
     id="layer2" />
  <g
     transform="translate(2.9999783,-846)"
     id="layer8" />
  <g
     transform="translate(2.9999783,-1798.3622)"
     id="layer1" />
  <g
     transform="translate(2.9999783,-846)"
     id="layer11" />
  <g
     transform="translate(2.9999783,-846)"
     id="layer4" />
  <g
     transform="translate(2.9999783,-846)"
     id="layer12">
    <path
       d="M 4.9737,858.66928 L 4.9737,865.34901 L 8.611,861.98627 L 4.9737,858.66928 L 4.9737,858.66928 z"
       id="path13844-5-6"
       style="fill:#bebebe;fill-opacity:1;stroke-width:1px;display:inline" />
    <rect
       width="24"
       height="24"
       x="-21.000021"
       y="846"
       transform="scale(-1,1)"
       id="rect7554-0"
       style="opacity:0;fill:#ffffff;fill-opacity:1;stroke:none;display:inline" />
    <path
       d="M 3.46875,851.96875 C 0.43473653,851.96875 -2.0312499,854.46598 -2.03125,857.5 C -2.03125,860.53403 0.4347404,863.00001 3.46875,863 L 7,863 L 7,861 L 3.46875,861 C 1.5081597,861.00001 -0.03125,859.46061 -0.03125,857.5 C -0.031249967,855.5394 1.5081635,853.96875 3.46875,853.96875 L 14.4375,853.96875 C 16.398219,853.96877 17.9375,855.53935 17.9375,857.5 C 17.9375,859.46066 16.39822,861 14.4375,861 L 11.0625,861 L 11.0625,863 L 14.4375,863 C 17.47158,863 19.9375,860.53402 19.9375,857.5 C 19.9375,854.46599 17.471581,851.96878 14.4375,851.96875 L 3.46875,851.96875 z"
       id="rect8946"
       style="fill:#bebebe;fill-opacity:1;stroke:none;stroke-width:2;stroke-linecap:butt;stroke-linejoin:miter;marker:none;stroke-miterlimit:4;stroke-dasharray:none;stroke-dashoffset:0;stroke-opacity:1;visibility:visible;display:inline;overflow:visible;enable-background:accumulate" />
  </g>
  <g
     transform="translate(2.9999783,-846)"
     id="layer9" />
  <g
     transform="translate(2.9999783,-846)"
     id="layer10" />
  <g
     transform="translate(2.9999783,-846)"
     id="layer6" />
</svg>
