<?xml version="1.0" encoding="UTF-8" standalone="no"?>
<!-- Created with Inkscape (http://www.inkscape.org/) -->
<svg
   xmlns:svg="http://www.w3.org/2000/svg"
   xmlns="http://www.w3.org/2000/svg"
   version="1.0"
   width="24"
   height="24"
   id="svg7384">
  <title
     id="title9167">Moblin Icon Theme</title>
  <defs
     id="defs7386" />
  <g
     transform="translate(125.97313,-907.78261)"
     id="layer3" />
  <g
     transform="translate(125.97313,-907.78261)"
     id="layer5" />
  <g
     transform="translate(125.97313,-907.78261)"
     id="layer7" />
  <g
     transform="translate(125.97313,-907.78261)"
     id="layer2" />
  <g
     transform="translate(125.97313,-907.78261)"
     id="layer8" />
  <g
     transform="translate(125.97313,-1860.1448)"
     id="layer1" />
  <g
     transform="translate(125.97313,-907.78261)"
     id="layer11" />
  <g
     transform="translate(125.97313,-907.78261)"
     id="layer4" />
  <g
     transform="translate(125.97313,-907.78261)"
     id="layer12">
    <rect
       width="24"
       height="24"
       x="101.97313"
       y="907.78259"
       transform="scale(-1,1)"
       id="rect6452"
       style="opacity:0;fill:#ffffff;fill-opacity:1;stroke:none;display:inline" />
    <path
       d="M -119.46775,912.768 C -120.29027,912.768 -120.98802,913.46576 -120.98802,914.28829 C -120.98802,915.11082 -120.29027,915.77322 -119.46775,915.77322 C -118.64522,915.77322 -117.98283,915.11082 -117.98283,914.28829 C -117.98283,913.46576 -118.64522,912.768 -119.46775,912.768 z M -119.46775,913.79331 C -119.18629,913.79331 -118.97277,914.00682 -118.97277,914.28829 C -118.97277,914.56975 -119.18627,914.78327 -119.46775,914.78327 C -119.74921,914.78327 -119.96272,914.56976 -119.96272,914.28829 C -119.96272,914.00683 -119.74922,913.79331 -119.46775,913.79331 z"
       id="path6456"
       style="fill:#bebebe;fill-opacity:1;stroke:none;stroke-width:0.8838827;stroke-linecap:round;stroke-linejoin:miter;marker:none;stroke-miterlimit:4;stroke-dasharray:none;stroke-dashoffset:0;stroke-opacity:1;visibility:visible;display:inline;overflow:visible;enable-background:accumulate" />
    <path
       d="M -115.46774,912.768 C -116.29027,912.768 -116.98802,913.46576 -116.98802,914.28829 C -116.98802,915.11082 -116.29027,915.77322 -115.46774,915.77322 C -114.64521,915.77322 -113.98282,915.11082 -113.98282,914.28829 C -113.98282,913.46576 -114.64521,912.768 -115.46774,912.768 z M -115.46774,913.79331 C -115.18628,913.79331 -114.97277,914.00682 -114.97277,914.28829 C -114.97277,914.56975 -115.18627,914.78327 -115.46774,914.78327 C -115.7492,914.78327 -115.96272,914.56976 -115.96272,914.28829 C -115.96272,914.00683 -115.74921,913.79331 -115.46774,913.79331 z"
       id="path6458"
       style="fill:#bebebe;fill-opacity:1;stroke:none;stroke-width:0.8838827;stroke-linecap:round;stroke-linejoin:miter;marker:none;stroke-miterlimit:4;stroke-dasharray:none;stroke-dashoffset:0;stroke-opacity:1;visibility:visible;display:inline;overflow:visible;enable-background:accumulate" />
    <path
       d="M -119.59375,920.78125 C -119.86989,920.80714 -120.07276,921.05198 -120.04688,921.32812 C -120.02099,921.60427 -119.77614,921.80714 -119.5,921.78125 L -110.46875,921.78125 C -110.28843,921.7838 -110.12071,921.68906 -110.02981,921.53331 C -109.9389,921.37756 -109.9389,921.18494 -110.02981,921.02919 C -110.12071,920.87344 -110.28843,920.7787 -110.46875,920.78125 L -119.5,920.78125 C -119.53118,920.77831 -119.56257,920.77831 -119.59375,920.78125 z"
       id="path6462"
       style="fill:#bebebe;fill-opacity:1;stroke:none;stroke-width:1px;stroke-linecap:round;stroke-linejoin:miter;stroke-opacity:1" />
    <path
       d="M -119.59375,923.78125 C -119.86989,923.80714 -120.07276,924.05198 -120.04688,924.32812 C -120.02099,924.60427 -119.77614,924.80714 -119.5,924.78125 L -110.46875,924.78125 C -110.28843,924.7838 -110.12071,924.68906 -110.02981,924.53331 C -109.9389,924.37756 -109.9389,924.18494 -110.02981,924.02919 C -110.12071,923.87344 -110.28843,923.7787 -110.46875,923.78125 L -119.5,923.78125 C -119.53118,923.77831 -119.56257,923.77831 -119.59375,923.78125 z"
       id="path6464"
       style="fill:#bebebe;fill-opacity:1;stroke:none;stroke-width:1px;stroke-linecap:round;stroke-linejoin:miter;stroke-opacity:1" />
    <path
       d="M -119.5625,917.78125 C -119.83864,917.81577 -120.03452,918.06761 -120,918.34375 C -119.96548,918.61989 -119.71364,918.81577 -119.4375,918.78125 L -110.5625,918.78125 C -110.38218,918.7838 -110.21446,918.68906 -110.12356,918.53331 C -110.03265,918.37756 -110.03265,918.18494 -110.12356,918.02919 C -110.21446,917.87344 -110.38218,917.7787 -110.5625,917.78125 L -119.4375,917.78125 C -119.479,917.77602 -119.521,917.77602 -119.5625,917.78125 L -119.5625,917.78125 z"
       id="path6466"
       style="fill:#bebebe;fill-opacity:1;stroke:none;stroke-width:1px;stroke-linecap:round;stroke-linejoin:miter;stroke-opacity:1" />
    <path
       d="M -120.9375,909.78125 C -122.5822,909.78125 -123.9375,911.13655 -123.9375,912.78125 L -123.9375,926.78125 C -123.9375,928.42595 -122.5822,929.78125 -120.9375,929.78125 L -109,929.78125 C -107.3553,929.78125 -106,928.42595 -106,926.78125 L -106,912.78125 C -106,911.13655 -107.3553,909.78125 -109,909.78125 L -120.9375,909.78125 z M -120.9375,911.78125 L -109,911.78125 C -108.4287,911.78125 -108,912.20995 -108,912.78125 L -108,926.78125 C -108,927.35254 -108.4287,927.78125 -109,927.78125 L -120.9375,927.78125 C -121.5088,927.78125 -121.9375,927.35255 -121.9375,926.78125 L -121.9375,912.78125 C -121.9375,912.20995 -121.5088,911.78125 -120.9375,911.78125 z"
       id="rect6513"
       style="fill:#bebebe;fill-opacity:1;fill-rule:nonzero;stroke:none;stroke-width:1.99999952;stroke-linecap:round;stroke-linejoin:miter;marker:none;stroke-miterlimit:4;stroke-dasharray:none;stroke-dashoffset:0;stroke-opacity:1;visibility:visible;display:inline;overflow:visible;enable-background:accumulate" />
    <path
       d="M -111.49462,912.768 C -112.31714,912.768 -113.01489,913.46576 -113.01489,914.28829 C -113.01489,915.11082 -112.31714,915.77322 -111.49462,915.77322 C -110.67209,915.77322 -110.0097,915.11082 -110.0097,914.28829 C -110.0097,913.46576 -110.67209,912.768 -111.49462,912.768 z M -111.49462,913.79331 C -111.21315,913.79331 -110.99964,914.00682 -110.99964,914.28829 C -110.99964,914.56975 -111.21314,914.78327 -111.49462,914.78327 C -111.77608,914.78327 -111.98959,914.56976 -111.98959,914.28829 C -111.98959,914.00683 -111.77609,913.79331 -111.49462,913.79331 z"
       id="path6516"
       style="fill:#bebebe;fill-opacity:1;stroke:none;stroke-width:0.8838827;stroke-linecap:round;stroke-linejoin:miter;marker:none;stroke-miterlimit:4;stroke-dasharray:none;stroke-dashoffset:0;stroke-opacity:1;visibility:visible;display:inline;overflow:visible;enable-background:accumulate" />
  </g>
  <g
     transform="translate(125.97313,-907.78261)"
     id="layer9" />
  <g
     transform="translate(125.97313,-907.78261)"
     id="layer10" />
  <g
     transform="translate(125.97313,-907.78261)"
     id="layer6" />
</svg>
