<?xml version="1.0" encoding="UTF-8" standalone="no"?>
<!-- Created with Inkscape (http://www.inkscape.org/) -->
<svg
   xmlns:svg="http://www.w3.org/2000/svg"
   xmlns="http://www.w3.org/2000/svg"
   version="1.0"
   width="24"
   height="24"
   id="svg7384">
  <title
     id="title9167">Moblin Icon Theme</title>
  <defs
     id="defs7386" />
  <g
     transform="translate(282,-907.78261)"
     id="layer3" />
  <g
     transform="translate(282,-907.78261)"
     id="layer5" />
  <g
     transform="translate(282,-907.78261)"
     id="layer7" />
  <g
     transform="translate(282,-907.78261)"
     id="layer2" />
  <g
     transform="translate(282,-907.78261)"
     id="layer8" />
  <g
     transform="translate(282,-1860.1448)"
     id="layer1" />
  <g
     transform="translate(282,-907.78261)"
     id="layer11" />
  <g
     transform="translate(282,-907.78261)"
     id="layer4" />
  <g
     transform="translate(282,-907.78261)"
     id="layer12">
    <rect
       width="24"
       height="24"
       x="258"
       y="907.78259"
       transform="scale(-1,1)"
       id="rect5482"
       style="opacity:0;fill:#ffffff;fill-opacity:1;stroke:none;display:inline" />
    <path
       d="M -277.15625,909.78125 C -278.72127,909.78125 -280,911.05998 -280,912.625 L -280,925.03125 C -280,926.59626 -278.72127,927.90629 -277.15625,927.90625 L -264.84375,927.90625 C -263.27873,927.90625 -262,926.59626 -262,925.03125 L -262,919.84375 C -261.9949,919.48312 -262.18438,919.14768 -262.49588,918.96587 C -262.80737,918.78407 -263.19263,918.78407 -263.50412,918.96587 C -263.81562,919.14768 -264.0051,919.48312 -264,919.84375 L -264,925.03125 C -264,925.52287 -264.35215,925.90625 -264.84375,925.90625 L -277.15625,925.90625 C -277.64783,925.90626 -278,925.52286 -278,925.03125 L -278,912.625 C -278,912.13335 -277.64785,911.78125 -277.15625,911.78125 L -270.03125,911.78125 C -269.67062,911.78635 -269.33518,911.59687 -269.15337,911.28537 C -268.97157,910.97388 -268.97157,910.58862 -269.15337,910.27713 C -269.33518,909.96563 -269.67062,909.77615 -270.03125,909.78125 L -277.15625,909.78125 z"
       id="path5486"
       style="fill:#bebebe;fill-opacity:1;stroke:none;stroke-width:1.99999952;stroke-linecap:round;stroke-linejoin:miter;marker:none;stroke-miterlimit:4;stroke-dashoffset:0;stroke-opacity:1;visibility:visible;display:inline;overflow:visible;enable-background:accumulate" />
    <path
       d="M -262.96875,907.78261 C -265.71552,907.78261 -267.9375,910.00459 -267.9375,912.75136 C -267.9375,915.49813 -265.71552,917.72011 -262.96875,917.72011 C -260.22198,917.72011 -258,915.49813 -258,912.75136 C -258,910.00459 -260.22198,907.78261 -262.96875,907.78261 z M -262.96875,908.81386 C -262.24684,908.82186 -262.26699,910.41452 -261.6875,910.84511 C -261.10801,911.2757 -259.55948,910.81241 -259.34375,911.50136 C -259.12802,912.19033 -260.67581,912.66092 -260.90625,913.34511 C -261.13669,914.0293 -260.19267,915.33329 -260.78125,915.75136 C -261.36983,916.16943 -262.30934,914.85284 -263.03125,914.84511 C -263.75316,914.83711 -264.70176,916.11945 -265.28125,915.68886 C -265.86074,915.25827 -264.90927,914.00283 -265.125,913.31386 C -265.34073,912.62489 -266.85544,912.0918 -266.625,911.40761 C -266.39456,910.72342 -264.86983,911.23193 -264.28125,910.81386 C -263.69267,910.39579 -263.69066,908.80613 -262.96875,908.81386 z"
       id="path5985-1"
       style="fill:#bebebe;fill-opacity:1;stroke:none;stroke-width:2;marker:none;visibility:visible;display:inline;overflow:visible;enable-background:accumulate" />
  </g>
  <g
     transform="translate(282,-907.78261)"
     id="layer9" />
  <g
     transform="translate(282,-907.78261)"
     id="layer10" />
  <g
     transform="translate(282,-907.78261)"
     id="layer6" />
</svg>
