<?xml version="1.0" encoding="UTF-8" standalone="no"?>
<!-- Created with Inkscape (http://www.inkscape.org/) -->
<svg
   xmlns:svg="http://www.w3.org/2000/svg"
   xmlns="http://www.w3.org/2000/svg"
   version="1.0"
   width="24"
   height="24"
   id="svg7384">
  <title
     id="title9167">Moblin Icon Theme</title>
  <defs
     id="defs7386" />
  <g
     transform="translate(151.97313,-907.78261)"
     id="layer3" />
  <g
     transform="translate(151.97313,-907.78261)"
     id="layer5" />
  <g
     transform="translate(151.97313,-907.78261)"
     id="layer7" />
  <g
     transform="translate(151.97313,-907.78261)"
     id="layer2" />
  <g
     transform="translate(151.97313,-907.78261)"
     id="layer8" />
  <g
     transform="translate(151.97313,-1860.1448)"
     id="layer1" />
  <g
     transform="translate(151.97313,-907.78261)"
     id="layer11" />
  <g
     transform="translate(151.97313,-907.78261)"
     id="layer4" />
  <g
     transform="translate(151.97313,-907.78261)"
     id="layer12">
    <rect
       width="24"
       height="24"
       x="127.97313"
       y="907.78259"
       transform="scale(-1,1)"
       id="rect6444"
       style="opacity:0;fill:#ffffff;fill-opacity:1;stroke:none;display:inline" />
    <path
       d="M -147,909.78125 C -148.6447,909.78125 -150,911.13655 -150,912.78125 L -150,924.78125 C -150,926.42595 -148.6447,927.78125 -147,927.78125 L -135,927.78125 C -133.3553,927.78125 -132,926.42595 -132,924.78125 L -132,912.78125 C -132,911.13655 -133.3553,909.78125 -135,909.78125 L -147,909.78125 z M -147,911.78125 L -135,911.78125 C -134.4287,911.78125 -134,912.20995 -134,912.78125 L -134,924.78125 C -134,925.35255 -134.4287,925.78125 -135,925.78125 L -147,925.78125 C -147.5713,925.78125 -148,925.35255 -148,924.78125 L -148,912.78125 C -148,912.20995 -147.5713,911.78125 -147,911.78125 z"
       id="rect6468"
       style="fill:#bebebe;fill-opacity:1;fill-rule:nonzero;stroke:none;stroke-width:1.99999952;stroke-linecap:round;stroke-linejoin:miter;marker:none;stroke-miterlimit:4;stroke-dasharray:none;stroke-dashoffset:0;stroke-opacity:1;visibility:visible;display:inline;overflow:visible;enable-background:accumulate" />
  </g>
  <g
     transform="translate(151.97313,-907.78261)"
     id="layer9" />
  <g
     transform="translate(151.97313,-907.78261)"
     id="layer10" />
  <g
     transform="translate(151.97313,-907.78261)"
     id="layer6" />
</svg>
