<?xml version="1.0" encoding="UTF-8" standalone="no"?>
<!-- Created with Inkscape (http://www.inkscape.org/) -->
<svg
   xmlns:svg="http://www.w3.org/2000/svg"
   xmlns="http://www.w3.org/2000/svg"
   version="1.0"
   width="24"
   height="24"
   id="svg7384">
  <title
     id="title9167">Moblin Icon Theme</title>
  <defs
     id="defs7386" />
  <g
     transform="translate(256,-907.78261)"
     id="layer3" />
  <g
     transform="translate(256,-907.78261)"
     id="layer5" />
  <g
     transform="translate(256,-907.78261)"
     id="layer7" />
  <g
     transform="translate(256,-907.78261)"
     id="layer2" />
  <g
     transform="translate(256,-907.78261)"
     id="layer8" />
  <g
     transform="translate(256,-1860.1448)"
     id="layer1" />
  <g
     transform="translate(256,-907.78261)"
     id="layer11" />
  <g
     transform="translate(256,-907.78261)"
     id="layer4" />
  <g
     transform="translate(256,-907.78261)"
     id="layer12">
    <rect
       width="24"
       height="24"
       x="232"
       y="907.78259"
       transform="scale(-1,1)"
       id="rect6505-4"
       style="opacity:0;fill:#ffffff;fill-opacity:1;stroke:none;display:inline" />
    <path
       d="M -251.15625,909.78125 C -252.72127,909.78125 -254,911.05998 -254,912.625 L -254,926.96875 C -254,928.53376 -252.72125,929.81246 -251.15625,929.8125 L -238.84375,929.8125 C -237.27873,929.8125 -236,928.53377 -236,926.96875 L -236,919.84375 C -235.9949,919.48312 -236.18438,919.14768 -236.49588,918.96587 C -236.80737,918.78407 -237.19263,918.78407 -237.50412,918.96587 C -237.81562,919.14768 -238.0051,919.48312 -238,919.84375 L -238,926.96875 C -238,927.46038 -238.35215,927.8125 -238.84375,927.8125 L -251.15625,927.8125 C -251.64788,927.81249 -252,927.46036 -252,926.96875 L -252,912.625 C -252,912.13335 -251.64785,911.78125 -251.15625,911.78125 L -243.9375,911.78125 C -243.57687,911.78635 -243.24143,911.59687 -243.05962,911.28537 C -242.87782,910.97388 -242.87782,910.58862 -243.05962,910.27713 C -243.24143,909.96563 -243.57687,909.77615 -243.9375,909.78125 L -251.15625,909.78125 z"
       id="rect6568-8"
       style="fill:#bebebe;fill-opacity:1;stroke:none;stroke-width:1.99999952;stroke-linecap:round;stroke-linejoin:miter;marker:none;stroke-miterlimit:4;stroke-dashoffset:0;stroke-opacity:1;visibility:visible;display:inline;overflow:visible;enable-background:accumulate" />
    <path
       d="M -249.49462,912.768 C -250.31714,912.768 -251.01489,913.46576 -251.01489,914.28829 C -251.01489,915.11082 -250.31714,915.77322 -249.49462,915.77322 C -248.67209,915.77322 -248.0097,915.11082 -248.0097,914.28829 C -248.0097,913.46576 -248.67209,912.768 -249.49462,912.768 z M -249.49462,913.79331 C -249.21316,913.79331 -248.99964,914.00682 -248.99964,914.28829 C -248.99964,914.56975 -249.21314,914.78327 -249.49462,914.78327 C -249.77608,914.78327 -249.98959,914.56976 -249.98959,914.28829 C -249.98959,914.00683 -249.77609,913.79331 -249.49462,913.79331 z"
       id="path6571-8"
       style="fill:#bebebe;fill-opacity:1;stroke:none;stroke-width:0.8838827;stroke-linecap:round;stroke-linejoin:miter;marker:none;stroke-miterlimit:4;stroke-dasharray:none;stroke-dashoffset:0;stroke-opacity:1;visibility:visible;display:inline;overflow:visible;enable-background:accumulate" />
    <path
       d="M -245.49461,912.768 C -246.31714,912.768 -247.01489,913.46576 -247.01489,914.28829 C -247.01489,915.11082 -246.31714,915.77322 -245.49461,915.77322 C -244.67208,915.77322 -244.00969,915.11082 -244.00969,914.28829 C -244.00969,913.46576 -244.67208,912.768 -245.49461,912.768 z M -245.49461,913.79331 C -245.21315,913.79331 -244.99964,914.00682 -244.99964,914.28829 C -244.99964,914.56975 -245.21314,914.78327 -245.49461,914.78327 C -245.77607,914.78327 -245.98959,914.56976 -245.98959,914.28829 C -245.98959,914.00683 -245.77608,913.79331 -245.49461,913.79331 z"
       id="path6573-0"
       style="fill:#bebebe;fill-opacity:1;stroke:none;stroke-width:0.8838827;stroke-linecap:round;stroke-linejoin:miter;marker:none;stroke-miterlimit:4;stroke-dasharray:none;stroke-dashoffset:0;stroke-opacity:1;visibility:visible;display:inline;overflow:visible;enable-background:accumulate" />
    <path
       d="M -236.96875,907.78261 C -239.71552,907.78261 -241.9375,910.00459 -241.9375,912.75136 C -241.9375,915.49813 -239.71552,917.72011 -236.96875,917.72011 C -234.22198,917.72011 -232,915.49813 -232,912.75136 C -232,910.00459 -234.22198,907.78261 -236.96875,907.78261 z M -236.96875,908.81386 C -236.24684,908.82186 -236.26699,910.41452 -235.6875,910.84511 C -235.10801,911.2757 -233.55948,910.81241 -233.34375,911.50136 C -233.12802,912.19033 -234.67581,912.66092 -234.90625,913.34511 C -235.13669,914.0293 -234.19267,915.33329 -234.78125,915.75136 C -235.36983,916.16943 -236.30934,914.85284 -237.03125,914.84511 C -237.75316,914.83711 -238.70176,916.11945 -239.28125,915.68886 C -239.86074,915.25827 -238.90927,914.00283 -239.125,913.31386 C -239.34073,912.62489 -240.85544,912.0918 -240.625,911.40761 C -240.39456,910.72342 -238.86983,911.23193 -238.28125,910.81386 C -237.69267,910.39579 -237.69066,908.80613 -236.96875,908.81386 z"
       id="path5985-1-5"
       style="fill:#bebebe;fill-opacity:1;stroke:none;stroke-width:2;marker:none;visibility:visible;display:inline;overflow:visible;enable-background:accumulate" />
    <path
       d="M -249.625,920.78125 C -249.90114,920.80714 -250.10401,921.05198 -250.07812,921.32812 C -250.05224,921.60427 -249.80739,921.80714 -249.53125,921.78125 L -240.5,921.78125 C -240.31968,921.7838 -240.15196,921.68906 -240.06106,921.53331 C -239.97015,921.37756 -239.97015,921.18494 -240.06106,921.02919 C -240.15196,920.87344 -240.31968,920.7787 -240.5,920.78125 L -249.53125,920.78125 C -249.56243,920.77831 -249.59382,920.77831 -249.625,920.78125 L -249.625,920.78125 z"
       id="path5587"
       style="fill:#bebebe;fill-opacity:1;stroke:none;stroke-width:1px;stroke-linecap:round;stroke-linejoin:miter;stroke-opacity:1" />
    <path
       d="M -249.625,923.78125 C -249.90114,923.80714 -250.10401,924.05198 -250.07812,924.32812 C -250.05224,924.60427 -249.80739,924.80714 -249.53125,924.78125 L -240.5,924.78125 C -240.31968,924.7838 -240.15196,924.68906 -240.06106,924.53331 C -239.97015,924.37756 -239.97015,924.18494 -240.06106,924.02919 C -240.15196,923.87344 -240.31968,923.7787 -240.5,923.78125 L -249.53125,923.78125 C -249.56243,923.77831 -249.59382,923.77831 -249.625,923.78125 L -249.625,923.78125 z"
       id="path5591"
       style="fill:#bebebe;fill-opacity:1;stroke:none;stroke-width:1px;stroke-linecap:round;stroke-linejoin:miter;stroke-opacity:1" />
    <path
       d="M -249.625,917.78125 C -249.90114,917.80714 -250.10401,918.05198 -250.07812,918.32812 C -250.05224,918.60427 -249.80739,918.80714 -249.53125,918.78125 L -241.46875,918.78125 C -241.28843,918.7838 -241.12071,918.68906 -241.02981,918.53331 C -240.9389,918.37756 -240.9389,918.18494 -241.02981,918.02919 C -241.12071,917.87344 -241.28843,917.7787 -241.46875,917.78125 L -249.53125,917.78125 C -249.56243,917.77831 -249.59382,917.77831 -249.625,917.78125 L -249.625,917.78125 z"
       id="path5595"
       style="fill:#bebebe;fill-opacity:1;stroke:none;stroke-width:1px;stroke-linecap:round;stroke-linejoin:miter;stroke-opacity:1" />
  </g>
  <g
     transform="translate(256,-907.78261)"
     id="layer9" />
  <g
     transform="translate(256,-907.78261)"
     id="layer10" />
  <g
     transform="translate(256,-907.78261)"
     id="layer6" />
</svg>
