<?xml version="1.0" encoding="UTF-8" standalone="no"?>
<!-- Created with Inkscape (http://www.inkscape.org/) -->
<svg
   xmlns:svg="http://www.w3.org/2000/svg"
   xmlns="http://www.w3.org/2000/svg"
   version="1.0"
   width="24"
   height="24"
   id="svg7384">
  <title
     id="title9167">Moblin Icon Theme</title>
  <defs
     id="defs7386" />
  <g
     transform="translate(230,-907.78261)"
     id="layer3" />
  <g
     transform="translate(230,-907.78261)"
     id="layer5" />
  <g
     transform="translate(230,-907.78261)"
     id="layer7" />
  <g
     transform="translate(230,-907.78261)"
     id="layer2" />
  <g
     transform="translate(230,-907.78261)"
     id="layer8" />
  <g
     transform="translate(230,-1860.1448)"
     id="layer1" />
  <g
     transform="translate(230,-907.78261)"
     id="layer11" />
  <g
     transform="translate(230,-907.78261)"
     id="layer4" />
  <g
     transform="translate(230,-907.78261)"
     id="layer12">
    <rect
       width="24"
       height="24"
       x="206"
       y="907.78259"
       transform="scale(-1,1)"
       id="rect5601"
       style="opacity:0;fill:#ffffff;fill-opacity:1;stroke:none;display:inline" />
    <path
       d="M -213.99972,909.7821 C -217.30078,909.7821 -219.99972,912.481 -219.99972,915.7821 C -219.99972,919.0832 -217.30078,921.7821 -213.99972,921.7821 C -210.69866,921.7821 -207.99972,919.0832 -207.99972,915.7821 C -207.99972,912.481 -210.69866,909.7821 -213.99972,909.7821 z M -213.99972,911.7821 C -211.78078,911.7821 -209.99972,913.5632 -209.99972,915.7821 C -209.99972,918.001 -211.78078,919.7821 -213.99972,919.7821 C -216.21866,919.7821 -217.99972,918.001 -217.99972,915.7821 C -217.99972,913.5632 -216.21866,911.7821 -213.99972,911.7821 z"
       id="path5617"
       style="fill:#bebebe;fill-opacity:1;fill-rule:nonzero;stroke:none;stroke-width:1.99999893;stroke-linecap:round;stroke-linejoin:round;marker:none;stroke-miterlimit:4;stroke-dasharray:none;stroke-dashoffset:0;stroke-opacity:1;visibility:visible;display:inline;overflow:visible;enable-background:accumulate" />
    <path
       d="M -220.55,910.33253 C -220.70987,910.34574 -220.86421,910.39722 -221,910.48261 C -222.4065,911.29461 -223.48795,912.37605 -224.3,913.78261 C -226.77853,918.07557 -225.29296,923.60421 -221,926.08261 C -216.70706,928.56117 -211.17854,927.07557 -208.7,922.78261 C -208.42386,922.29936 -208.59175,921.68375 -209.075,921.40761 C -209.55825,921.13147 -210.17386,921.29936 -210.45,921.78261 C -212.38749,925.13845 -216.64421,926.27013 -220,924.33253 C -223.35578,922.39525 -224.48747,918.13845 -222.55,914.78261 C -221.89002,913.63957 -221.14307,912.89253 -220,912.23269 C -219.54999,912.02612 -219.31889,911.52135 -219.45656,911.04571 C -219.59423,910.57008 -220.05923,910.26679 -220.55,910.33253 z"
       id="path5619"
       style="fill:#bebebe;fill-opacity:1;stroke:none;stroke-width:1.25;stroke-linecap:round;stroke-linejoin:round;marker:none;stroke-miterlimit:4;stroke-dasharray:none;stroke-dashoffset:0;stroke-opacity:1;visibility:visible;display:inline;overflow:visible;enable-background:accumulate" />
  </g>
  <g
     transform="translate(230,-907.78261)"
     id="layer9" />
  <g
     transform="translate(230,-907.78261)"
     id="layer10" />
  <g
     transform="translate(230,-907.78261)"
     id="layer6" />
</svg>
