<?xml version="1.0" encoding="UTF-8" standalone="no"?>
<!-- Created with Inkscape (http://www.inkscape.org/) -->
<svg
   xmlns:svg="http://www.w3.org/2000/svg"
   xmlns="http://www.w3.org/2000/svg"
   version="1.0"
   width="24"
   height="24"
   id="svg7384">
  <title
     id="title9167">Moblin Icon Theme</title>
  <defs
     id="defs7386" />
  <g
     transform="translate(178,-907.78261)"
     id="layer3" />
  <g
     transform="translate(178,-907.78261)"
     id="layer5" />
  <g
     transform="translate(178,-907.78261)"
     id="layer7" />
  <g
     transform="translate(178,-907.78261)"
     id="layer2" />
  <g
     transform="translate(178,-907.78261)"
     id="layer8" />
  <g
     transform="translate(178,-1860.1448)"
     id="layer1" />
  <g
     transform="translate(178,-907.78261)"
     id="layer11" />
  <g
     transform="translate(178,-907.78261)"
     id="layer4" />
  <g
     transform="translate(178,-907.78261)"
     id="layer12">
    <rect
       width="24"
       height="24"
       x="154"
       y="907.78259"
       transform="scale(-1,1)"
       id="rect6417"
       style="opacity:0;fill:#ffffff;fill-opacity:1;stroke:none;display:inline" />
    <path
       d="M -173.15625,917.84375 C -173.27754,917.86393 -173.39408,917.90631 -173.5,917.96875 L -175.4375,918.96875 C -175.78435,919.14488 -175.99759,919.50616 -175.98418,919.89493 C -175.97078,920.2837 -175.73315,920.62943 -175.375,920.78125 L -173.34375,921.65625 C -173.22604,921.71159 -173.09866,921.74343 -172.96875,921.75 L -166.96875,921.78125 C -166.4581,921.79902 -166.01617,921.42901 -165.94391,920.92319 C -165.87165,920.41737 -166.1923,919.93842 -166.6875,919.8125 C -166.16323,919.69874 -165.8221,919.1916 -165.91437,918.66312 C -166.00665,918.13465 -166.49945,917.77311 -167.03125,917.84375 L -173.0625,917.84375 C -173.09373,917.84228 -173.12502,917.84228 -173.15625,917.84375 L -173.15625,917.84375 z"
       id="path6419"
       style="fill:#bebebe;fill-opacity:1;stroke:none;stroke-width:1.99999988;stroke-linecap:round;stroke-linejoin:round;marker:none;stroke-miterlimit:4;stroke-dasharray:none;stroke-dashoffset:0;stroke-opacity:1;visibility:visible;display:inline;overflow:visible;enable-background:accumulate" />
    <path
       d="M -160.09375,913.78125 C -160.32871,913.79846 -160.55005,913.89806 -160.71875,914.0625 L -162.4375,915.78125 L -164.59375,915.78125 L -166.34375,914.09375 C -166.6329,913.82011 -167.05681,913.74402 -167.42308,913.90002 C -167.78935,914.05603 -168.02821,914.41441 -168.03125,914.8125 L -168,924.78125 C -168.00969,925.19298 -167.76598,925.56855 -167.38602,925.72744 C -167.00606,925.88633 -166.56755,925.79606 -166.28125,925.5 L -164.5625,923.78125 L -162.4375,923.78125 L -160.71875,925.5 C -160.52645,925.68615 -160.26756,925.78745 -160,925.78125 L -157,925.78125 C -156.44774,925.78119 -156.00006,925.33351 -156,924.78125 L -155.96875,914.78125 C -155.96881,914.22899 -156.41649,913.78131 -156.96875,913.78125 L -160,913.78125 C -160.03123,913.77978 -160.06252,913.77978 -160.09375,913.78125 z M -159.5625,915.78125 L -157.96875,915.78125 L -158,923.78125 L -159.5625,923.78125 L -161.28125,922.0625 C -161.47355,921.87635 -161.73244,921.77505 -162,921.78125 L -165,921.78125 C -165.26756,921.77505 -165.52645,921.87635 -165.71875,922.0625 L -166,922.34375 L -166.03125,917.1875 L -165.6875,917.5 C -165.50294,917.67853 -165.25678,917.77924 -165,917.78125 L -162,917.78125 C -161.73244,917.78745 -161.47355,917.68615 -161.28125,917.5 L -159.5625,915.78125 z"
       id="path6426"
       style="fill:#bebebe;fill-opacity:1;stroke:none;stroke-width:2;stroke-linecap:round;stroke-linejoin:round;marker:none;stroke-miterlimit:4;stroke-dasharray:none;stroke-dashoffset:0;stroke-opacity:1;visibility:visible;display:inline;overflow:visible;enable-background:accumulate" />
    <path
       d="M -170,907.78261 L -162,907.78261 L -166,911.78261 L -170,907.78261 z"
       id="path6428"
       style="fill:#bebebe;fill-opacity:1;stroke:none;stroke-width:2;marker:none;visibility:visible;display:inline;overflow:visible;enable-background:accumulate" />
    <path
       d="M -170,931.78261 L -162,931.78261 L -166,927.78261 L -170,931.78261 z"
       id="path6430"
       style="fill:#bebebe;fill-opacity:1;stroke:none;stroke-width:2;marker:none;visibility:visible;display:inline;overflow:visible;enable-background:accumulate" />
  </g>
  <g
     transform="translate(178,-907.78261)"
     id="layer9" />
  <g
     transform="translate(178,-907.78261)"
     id="layer10" />
  <g
     transform="translate(178,-907.78261)"
     id="layer6" />
</svg>
