<?xml version="1.0" encoding="UTF-8" standalone="no"?>
<!-- Created with Inkscape (http://www.inkscape.org/) -->
<svg
   xmlns:svg="http://www.w3.org/2000/svg"
   xmlns="http://www.w3.org/2000/svg"
   version="1.0"
   width="24"
   height="24"
   id="svg7384">
  <title
     id="title9167">Moblin Icon Theme</title>
  <defs
     id="defs7386" />
  <g
     transform="translate(204,-907.78261)"
     id="layer3" />
  <g
     transform="translate(204,-907.78261)"
     id="layer5" />
  <g
     transform="translate(204,-907.78261)"
     id="layer7" />
  <g
     transform="translate(204,-907.78261)"
     id="layer2" />
  <g
     transform="translate(204,-907.78261)"
     id="layer8" />
  <g
     transform="translate(204,-1860.1448)"
     id="layer1" />
  <g
     transform="translate(204,-907.78261)"
     id="layer11" />
  <g
     transform="translate(204,-907.78261)"
     id="layer4" />
  <g
     transform="translate(204,-907.78261)"
     id="layer12">
    <rect
       width="24"
       height="24"
       x="180"
       y="907.78259"
       transform="scale(-1,1)"
       id="rect6396"
       style="opacity:0;fill:#ffffff;fill-opacity:1;stroke:none;display:inline" />
    <path
       d="M -199.15625,917.84375 C -199.27754,917.86393 -199.39408,917.90631 -199.5,917.96875 L -201.4375,918.96875 C -201.78435,919.14488 -201.99759,919.50616 -201.98418,919.89493 C -201.97078,920.2837 -201.73315,920.62943 -201.375,920.78125 L -199.34375,921.65625 C -199.22604,921.71159 -199.09866,921.74343 -198.96875,921.75 L -192.96875,921.78125 C -192.4581,921.79902 -192.01617,921.42901 -191.94391,920.92319 C -191.87165,920.41737 -192.1923,919.93842 -192.6875,919.8125 C -192.16323,919.69874 -191.8221,919.1916 -191.91437,918.66312 C -192.00665,918.13465 -192.49945,917.77311 -193.03125,917.84375 L -199.0625,917.84375 C -199.09373,917.84228 -199.12502,917.84228 -199.15625,917.84375 L -199.15625,917.84375 z"
       id="path6402"
       style="fill:#bebebe;fill-opacity:1;stroke:none;stroke-width:1.99999988;stroke-linecap:round;stroke-linejoin:round;marker:none;stroke-miterlimit:4;stroke-dasharray:none;stroke-dashoffset:0;stroke-opacity:1;visibility:visible;display:inline;overflow:visible;enable-background:accumulate" />
    <path
       d="M -186.09375,913.78125 C -186.32871,913.79846 -186.55005,913.89806 -186.71875,914.0625 L -188.4375,915.78125 L -190.59375,915.78125 L -192.34375,914.09375 C -192.6329,913.82011 -193.05681,913.74402 -193.42308,913.90002 C -193.78935,914.05603 -194.02821,914.41441 -194.03125,914.8125 L -194,924.78125 C -194.00969,925.19298 -193.76598,925.56855 -193.38602,925.72744 C -193.00606,925.88633 -192.56755,925.79606 -192.28125,925.5 L -190.5625,923.78125 L -188.4375,923.78125 L -186.71875,925.5 C -186.52645,925.68615 -186.26756,925.78745 -186,925.78125 L -183,925.78125 C -182.44774,925.78119 -182.00006,925.33351 -182,924.78125 L -181.96875,914.78125 C -181.96881,914.22899 -182.41649,913.78131 -182.96875,913.78125 L -186,913.78125 C -186.03123,913.77978 -186.06252,913.77978 -186.09375,913.78125 z M -185.5625,915.78125 L -183.96875,915.78125 L -184,923.78125 L -185.5625,923.78125 L -187.28125,922.0625 C -187.47355,921.87635 -187.73244,921.77505 -188,921.78125 L -191,921.78125 C -191.26756,921.77505 -191.52645,921.87635 -191.71875,922.0625 L -192,922.34375 L -192.03125,917.1875 L -191.6875,917.5 C -191.50294,917.67853 -191.25678,917.77924 -191,917.78125 L -188,917.78125 C -187.73244,917.78745 -187.47355,917.68615 -187.28125,917.5 L -185.5625,915.78125 z"
       id="path6404"
       style="fill:#bebebe;fill-opacity:1;stroke:none;stroke-width:2;stroke-linecap:round;stroke-linejoin:round;marker:none;stroke-miterlimit:4;stroke-dasharray:none;stroke-dashoffset:0;stroke-opacity:1;visibility:visible;display:inline;overflow:visible;enable-background:accumulate" />
  </g>
  <g
     transform="translate(204,-907.78261)"
     id="layer9" />
  <g
     transform="translate(204,-907.78261)"
     id="layer10" />
  <g
     transform="translate(204,-907.78261)"
     id="layer6" />
</svg>
