<?xml version="1.0" encoding="UTF-8" standalone="no"?>
<!-- Created with Inkscape (http://www.inkscape.org/) -->
<svg
   xmlns:svg="http://www.w3.org/2000/svg"
   xmlns="http://www.w3.org/2000/svg"
   version="1.0"
   width="24.026243"
   height="24.01672"
   id="svg7384">
  <title
     id="title9167">Moblin Icon Theme</title>
  <defs
     id="defs7386" />
  <g
     transform="translate(252.02624,-845)"
     id="layer3" />
  <g
     transform="translate(252.02624,-845)"
     id="layer5" />
  <g
     transform="translate(252.02624,-845)"
     id="layer7" />
  <g
     transform="translate(252.02624,-845)"
     id="layer2" />
  <g
     transform="translate(252.02624,-845)"
     id="layer8" />
  <g
     transform="translate(252.02624,-1797.3622)"
     id="layer1" />
  <g
     transform="translate(252.02624,-845)"
     id="layer11" />
  <g
     transform="translate(252.02624,-845)"
     id="layer4" />
  <g
     transform="translate(252.02624,-845)"
     id="layer12">
    <rect
       width="24"
       height="24"
       x="228"
       y="845"
       transform="scale(-1,1)"
       id="rect7554-0-0-1"
       style="opacity:0;fill:none;stroke:none;display:inline" />
    <path
       d="M -242.99499,850.98547 C -243.54899,850.98547 -243.99499,851.43147 -243.99499,851.98547 L -243.99499,860.04797 C -244.83575,859.40679 -245.86248,859.01672 -246.99499,859.01672 C -249.74457,859.01672 -251.99499,861.26714 -251.99499,864.01672 C -251.99499,866.7663 -249.74457,869.01672 -246.99499,869.01672 C -244.24541,869.01672 -241.99499,866.7663 -241.99499,864.01672 C -241.99469,864.00672 -241.99499,863.99562 -241.99499,863.98542 L -241.99499,851.98542 C -241.99499,851.43142 -242.44099,850.98542 -242.99499,850.98542 L -242.99499,850.98547 z"
       id="rect3605-24-5"
       style="opacity:0.3;fill:#bebebe;fill-opacity:1;stroke:none;display:inline" />
    <path
       d="M -239.03125,849.96875 C -239.39188,849.96365 -239.72733,850.15313 -239.90913,850.46462 C -240.09094,850.77612 -240.09094,851.16138 -239.90913,851.47288 C -239.72733,851.78437 -239.39188,851.97385 -239.03125,851.96875 L -229.03125,851.96875 C -228.67062,851.97385 -228.33517,851.78437 -228.15337,851.47288 C -227.97156,851.16138 -227.97156,850.77612 -228.15337,850.46462 C -228.33517,850.15313 -228.67062,849.96365 -229.03125,849.96875 L -239.03125,849.96875 z"
       id="path11169-2-5"
       style="fill:#729fcf;fill-opacity:1;stroke:none;stroke-width:1.99999988;stroke-linecap:round;stroke-linejoin:miter;marker:none;stroke-miterlimit:4;stroke-dasharray:none;stroke-dashoffset:0;stroke-opacity:1;visibility:visible;display:inline;overflow:visible;enable-background:accumulate" />
    <path
       d="M -239.03125,853.96875 C -239.39188,853.96365 -239.72733,854.15313 -239.90913,854.46462 C -240.09094,854.77612 -240.09094,855.16138 -239.90913,855.47288 C -239.72733,855.78437 -239.39188,855.97385 -239.03125,855.96875 L -229.03125,855.96875 C -228.67062,855.97385 -228.33517,855.78437 -228.15337,855.47288 C -227.97156,855.16138 -227.97156,854.77612 -228.15337,854.46462 C -228.33517,854.15313 -228.67062,853.96365 -229.03125,853.96875 L -239.03125,853.96875 z"
       id="path11192-4-7"
       style="fill:#729fcf;fill-opacity:1;stroke:none;stroke-width:1.99999988;stroke-linecap:round;stroke-linejoin:miter;marker:none;stroke-miterlimit:4;stroke-dasharray:none;stroke-dashoffset:0;stroke-opacity:1;visibility:visible;display:inline;overflow:visible;enable-background:accumulate" />
    <path
       d="M -239.03125,857.96875 C -239.39188,857.96365 -239.72733,858.15313 -239.90913,858.46462 C -240.09094,858.77612 -240.09094,859.16138 -239.90913,859.47288 C -239.72733,859.78437 -239.39188,859.97385 -239.03125,859.96875 L -229.03125,859.96875 C -228.67062,859.97385 -228.33517,859.78437 -228.15337,859.47288 C -227.97156,859.16138 -227.97156,858.77612 -228.15337,858.46462 C -228.33517,858.15313 -228.67062,857.96365 -229.03125,857.96875 L -239.03125,857.96875 z"
       id="path11194-7-4"
       style="fill:#729fcf;fill-opacity:1;stroke:none;stroke-width:1.99999988;stroke-linecap:round;stroke-linejoin:miter;marker:none;stroke-miterlimit:4;stroke-dasharray:none;stroke-dashoffset:0;stroke-opacity:1;visibility:visible;display:inline;overflow:visible;enable-background:accumulate" />
    <path
       d="M -239.03125,861.96875 C -239.39188,861.96365 -239.72733,862.15313 -239.90913,862.46462 C -240.09094,862.77612 -240.09094,863.16138 -239.90913,863.47288 C -239.72733,863.78437 -239.39188,863.97385 -239.03125,863.96875 L -229.03125,863.96875 C -228.67062,863.97385 -228.33517,863.78437 -228.15337,863.47288 C -227.97156,863.16138 -227.97156,862.77612 -228.15337,862.46462 C -228.33517,862.15313 -228.67062,861.96365 -229.03125,861.96875 L -239.03125,861.96875 z"
       id="path11196-5-0"
       style="fill:#729fcf;fill-opacity:1;stroke:none;stroke-width:1.99999988;stroke-linecap:round;stroke-linejoin:miter;marker:none;stroke-miterlimit:4;stroke-dasharray:none;stroke-dashoffset:0;stroke-opacity:1;visibility:visible;display:inline;overflow:visible;enable-background:accumulate" />
    <path
       d="M 622.9375,955.96503 A 0.9375,0.9375 0 1 1 621.0625,955.96503 A 0.9375,0.9375 0 1 1 622.9375,955.96503 z"
       transform="matrix(1.0666667,0,0,1.0666667,-910.49291,-159.7143)"
       id="path11369"
       style="fill:#bebebe;fill-opacity:1;stroke:none;stroke-width:1.99999988;marker:none;visibility:visible;display:inline;overflow:visible;enable-background:accumulate" />
    <path
       d="M 622.9375,955.96503 A 0.9375,0.9375 0 1 1 621.0625,955.96503 A 0.9375,0.9375 0 1 1 622.9375,955.96503 z"
       transform="matrix(1.0666667,0,0,1.0666667,-910.49293,-151.71431)"
       id="path11371"
       style="fill:#bebebe;fill-opacity:1;stroke:none;stroke-width:1.99999988;marker:none;visibility:visible;display:inline;overflow:visible;enable-background:accumulate" />
    <path
       d="M 622.9375,955.96503 A 0.9375,0.9375 0 1 1 621.0625,955.96503 A 0.9375,0.9375 0 1 1 622.9375,955.96503 z"
       transform="matrix(1.0666667,0,0,1.0666667,-907.49293,-152.71431)"
       id="path11373"
       style="fill:#bebebe;fill-opacity:1;stroke:none;stroke-width:1.99999988;marker:none;visibility:visible;display:inline;overflow:visible;enable-background:accumulate" />
    <path
       d="M 622.9375,955.96503 A 0.9375,0.9375 0 1 1 621.0625,955.96503 A 0.9375,0.9375 0 1 1 622.9375,955.96503 z"
       transform="matrix(1.0666667,0,0,1.0666667,-913.49293,-152.71431)"
       id="path11375"
       style="fill:#bebebe;fill-opacity:1;stroke:none;stroke-width:1.99999988;marker:none;visibility:visible;display:inline;overflow:visible;enable-background:accumulate" />
    <path
       d="M 622.9375,955.96503 A 0.9375,0.9375 0 1 1 621.0625,955.96503 A 0.9375,0.9375 0 1 1 622.9375,955.96503 z"
       transform="matrix(1.0666667,0,0,1.0666667,-914.49293,-155.7143)"
       id="path11377"
       style="fill:#bebebe;fill-opacity:1;stroke:none;stroke-width:1.99999988;marker:none;visibility:visible;display:inline;overflow:visible;enable-background:accumulate" />
    <path
       d="M 622.9375,955.96503 A 0.9375,0.9375 0 1 1 621.0625,955.96503 A 0.9375,0.9375 0 1 1 622.9375,955.96503 z"
       transform="matrix(1.0666667,0,0,1.0666667,-913.49293,-158.7143)"
       id="path11379"
       style="fill:#bebebe;fill-opacity:1;stroke:none;stroke-width:1.99999988;marker:none;visibility:visible;display:inline;overflow:visible;enable-background:accumulate" />
    <path
       d="M 622.9375,955.96503 A 0.9375,0.9375 0 1 1 621.0625,955.96503 A 0.9375,0.9375 0 1 1 622.9375,955.96503 z"
       transform="matrix(1.0666667,0,0,1.0666667,-906.49293,-158.7143)"
       id="path11381"
       style="fill:#bebebe;fill-opacity:1;stroke:none;stroke-width:1.99999988;marker:none;visibility:visible;display:inline;overflow:visible;enable-background:accumulate" />
    <path
       d="M 622.9375,955.96503 A 0.9375,0.9375 0 1 1 621.0625,955.96503 A 0.9375,0.9375 0 1 1 622.9375,955.96503 z"
       transform="matrix(1.0666667,0,0,1.0666667,-906.49293,-155.7143)"
       id="path11388"
       style="fill:#bebebe;fill-opacity:1;stroke:none;stroke-width:1.99999988;marker:none;visibility:visible;display:inline;overflow:visible;enable-background:accumulate" />
    <path
       d="M 622.9375,955.96503 A 0.9375,0.9375 0 1 1 621.0625,955.96503 A 0.9375,0.9375 0 1 1 622.9375,955.96503 z"
       transform="matrix(1.0666667,0,0,1.0666667,-906.49293,-161.7143)"
       id="path11390"
       style="fill:#bebebe;fill-opacity:1;stroke:none;stroke-width:1.99999988;marker:none;visibility:visible;display:inline;overflow:visible;enable-background:accumulate" />
    <path
       d="M 622.9375,955.96503 A 0.9375,0.9375 0 1 1 621.0625,955.96503 A 0.9375,0.9375 0 1 1 622.9375,955.96503 z"
       transform="matrix(1.0666667,0,0,1.0666667,-906.49293,-164.7143)"
       id="path11392"
       style="fill:#bebebe;fill-opacity:1;stroke:none;stroke-width:1.99999988;marker:none;visibility:visible;display:inline;overflow:visible;enable-background:accumulate" />
    <path
       d="M 622.9375,955.96503 A 0.9375,0.9375 0 1 1 621.0625,955.96503 A 0.9375,0.9375 0 1 1 622.9375,955.96503 z"
       transform="matrix(1.0666667,0,0,1.0666667,-906.49293,-167.7143)"
       id="path11394"
       style="fill:#bebebe;fill-opacity:1;stroke:none;stroke-width:1.99999988;marker:none;visibility:visible;display:inline;overflow:visible;enable-background:accumulate" />
  </g>
  <g
     transform="translate(252.02624,-845)"
     id="layer9" />
  <g
     transform="translate(252.02624,-845)"
     id="layer10" />
  <g
     transform="translate(252.02624,-845)"
     id="layer6" />
</svg>
