<?xml version="1.0" encoding="UTF-8" standalone="no"?>
<!-- Created with Inkscape (http://www.inkscape.org/) -->
<svg
   xmlns:svg="http://www.w3.org/2000/svg"
   xmlns="http://www.w3.org/2000/svg"
   version="1.0"
   width="24.000002"
   height="24"
   id="svg7384">
  <title
     id="title9167">Moblin Icon Theme</title>
  <defs
     id="defs7386" />
  <g
     transform="translate(282,-845)"
     id="layer3" />
  <g
     transform="translate(282,-845)"
     id="layer5" />
  <g
     transform="translate(282,-845)"
     id="layer7" />
  <g
     transform="translate(282,-845)"
     id="layer2" />
  <g
     transform="translate(282,-845)"
     id="layer8" />
  <g
     transform="translate(282,-1797.3622)"
     id="layer1" />
  <g
     transform="translate(282,-845)"
     id="layer11" />
  <g
     transform="translate(282,-845)"
     id="layer4" />
  <g
     transform="translate(282,-845)"
     id="layer12">
    <rect
       width="24"
       height="24"
       x="258"
       y="845"
       transform="scale(-1,1)"
       id="rect7554-0-0"
       style="opacity:0;fill:none;stroke:none;display:inline" />
    <path
       d="M -277.01,859.00191 C -279.75907,859.00191 -282.00993,861.25278 -282.00993,864.00184 C -282.00993,866.75091 -279.75907,869.00177 -277.01,869.00177 C -274.26094,869.00177 -272.01007,866.75091 -272.01007,864.00184 C -272.01007,861.25278 -274.26094,859.00191 -277.01,859.00191 z M -277.01,860.99142 C -275.34307,860.99142 -273.99957,862.33491 -273.99957,864.00184 C -273.99957,865.66878 -275.34307,867.01227 -277.01,867.01227 C -278.67694,867.01227 -279.99425,865.66878 -279.99425,864.00184 C -279.99425,862.33491 -278.67694,860.99142 -277.01,860.99142 z"
       id="path3609-3"
       style="fill:#bebebe;fill-opacity:1;stroke:none;stroke-width:2.38753414;stroke-linecap:round;stroke-miterlimit:4;stroke-dasharray:none;stroke-opacity:1;display:inline" />
    <path
       d="M -269.03125,849.96875 C -269.39188,849.96365 -269.72733,850.15313 -269.90913,850.46462 C -270.09094,850.77612 -270.09094,851.16138 -269.90913,851.47288 C -269.72733,851.78437 -269.39188,851.97385 -269.03125,851.96875 L -259.03125,851.96875 C -258.67062,851.97385 -258.33517,851.78437 -258.15337,851.47288 C -257.97156,851.16138 -257.97156,850.77612 -258.15337,850.46462 C -258.33517,850.15313 -258.67062,849.96365 -259.03125,849.96875 L -269.03125,849.96875 z"
       id="path11169-2"
       style="fill:#bebebe;fill-opacity:1;stroke:none;stroke-width:1.99999988;stroke-linecap:round;stroke-linejoin:miter;marker:none;stroke-miterlimit:4;stroke-dasharray:none;stroke-dashoffset:0;stroke-opacity:1;visibility:visible;display:inline;overflow:visible;enable-background:accumulate" />
    <path
       d="M -269.03125,853.96875 C -269.39188,853.96365 -269.72733,854.15313 -269.90913,854.46462 C -270.09094,854.77612 -270.09094,855.16138 -269.90913,855.47288 C -269.72733,855.78437 -269.39188,855.97385 -269.03125,855.96875 L -259.03125,855.96875 C -258.67062,855.97385 -258.33517,855.78437 -258.15337,855.47288 C -257.97156,855.16138 -257.97156,854.77612 -258.15337,854.46462 C -258.33517,854.15313 -258.67062,853.96365 -259.03125,853.96875 L -269.03125,853.96875 z"
       id="path11192-4"
       style="fill:#bebebe;fill-opacity:1;stroke:none;stroke-width:1.99999988;stroke-linecap:round;stroke-linejoin:miter;marker:none;stroke-miterlimit:4;stroke-dasharray:none;stroke-dashoffset:0;stroke-opacity:1;visibility:visible;display:inline;overflow:visible;enable-background:accumulate" />
    <path
       d="M -269.03125,857.96875 C -269.39188,857.96365 -269.72733,858.15313 -269.90913,858.46462 C -270.09094,858.77612 -270.09094,859.16138 -269.90913,859.47288 C -269.72733,859.78437 -269.39188,859.97385 -269.03125,859.96875 L -259.03125,859.96875 C -258.67062,859.97385 -258.33517,859.78437 -258.15337,859.47288 C -257.97156,859.16138 -257.97156,858.77612 -258.15337,858.46462 C -258.33517,858.15313 -258.67062,857.96365 -259.03125,857.96875 L -269.03125,857.96875 z"
       id="path11194-7"
       style="fill:#bebebe;fill-opacity:1;stroke:none;stroke-width:1.99999988;stroke-linecap:round;stroke-linejoin:miter;marker:none;stroke-miterlimit:4;stroke-dasharray:none;stroke-dashoffset:0;stroke-opacity:1;visibility:visible;display:inline;overflow:visible;enable-background:accumulate" />
    <path
       d="M -269.03125,861.96875 C -269.39188,861.96365 -269.72733,862.15313 -269.90913,862.46462 C -270.09094,862.77612 -270.09094,863.16138 -269.90913,863.47288 C -269.72733,863.78437 -269.39188,863.97385 -269.03125,863.96875 L -259.03125,863.96875 C -258.67062,863.97385 -258.33517,863.78437 -258.15337,863.47288 C -257.97156,863.16138 -257.97156,862.77612 -258.15337,862.46462 C -258.33517,862.15313 -258.67062,861.96365 -259.03125,861.96875 L -269.03125,861.96875 z"
       id="path11196-5"
       style="fill:#bebebe;fill-opacity:1;stroke:none;stroke-width:1.99999988;stroke-linecap:round;stroke-linejoin:miter;marker:none;stroke-miterlimit:4;stroke-dasharray:none;stroke-dashoffset:0;stroke-opacity:1;visibility:visible;display:inline;overflow:visible;enable-background:accumulate" />
    <path
       d="M -273.09375,849 C -273.62133,849.04939 -274.01881,849.5017 -274,850.03125 L -274,864.03125 C -274.0051,864.39189 -273.81562,864.72733 -273.50413,864.90914 C -273.19263,865.09094 -272.80737,865.09094 -272.49587,864.90914 C -272.18438,864.72733 -271.9949,864.39189 -272,864.03125 L -272,850.03125 C -271.98975,849.74358 -272.10395,849.46545 -272.31338,849.26798 C -272.52282,849.07052 -272.80718,848.97286 -273.09375,849 z"
       id="path10932"
       style="fill:#bebebe;fill-opacity:1;stroke:none;stroke-width:2;stroke-linecap:round;stroke-linejoin:miter;marker:none;stroke-miterlimit:4;stroke-dasharray:none;stroke-dashoffset:0;stroke-opacity:1;visibility:visible;display:inline;overflow:visible;enable-background:accumulate" />
  </g>
  <g
     transform="translate(282,-845)"
     id="layer9" />
  <g
     transform="translate(282,-845)"
     id="layer10" />
  <g
     transform="translate(282,-845)"
     id="layer6" />
</svg>
