<?xml version="1.0" encoding="UTF-8" standalone="no"?>
<!-- Created with Inkscape (http://www.inkscape.org/) -->
<svg
   xmlns:svg="http://www.w3.org/2000/svg"
   xmlns="http://www.w3.org/2000/svg"
   version="1.0"
   width="24"
   height="24"
   id="svg7384">
  <title
     id="title9167">Moblin Icon Theme</title>
  <defs
     id="defs7386" />
  <g
     transform="translate(254,-970)"
     id="layer3" />
  <g
     transform="translate(254,-970)"
     id="layer5" />
  <g
     transform="translate(254,-970)"
     id="layer7" />
  <g
     transform="translate(254,-970)"
     id="layer2" />
  <g
     transform="translate(254,-970)"
     id="layer8" />
  <g
     transform="translate(254,-1922.3622)"
     id="layer1" />
  <g
     transform="translate(254,-970)"
     id="layer11" />
  <g
     transform="translate(254,-970)"
     id="layer4" />
  <g
     transform="translate(254,-970)"
     id="layer12">
    <g
       transform="translate(236.96747,730.9458)"
       id="use8672">
      <rect
         width="24"
         height="24"
         x="466.96747"
         y="239.0542"
         transform="scale(-1,1)"
         id="rect12875"
         style="opacity:0;fill:#ffffff;fill-opacity:1;stroke:none;display:inline" />
      <rect
         width="2"
         height="10"
         rx="1"
         ry="1"
         x="-490.96747"
         y="239.0542"
         id="rect12877"
         style="fill:#bebebe;fill-opacity:1;stroke:none;display:inline" />
      <rect
         width="2"
         height="9.9044342"
         rx="1"
         ry="1"
         x="-482.96747"
         y="239.14978"
         id="rect12879"
         style="fill:#bebebe;fill-opacity:1;stroke:none;display:inline" />
      <rect
         width="2"
         height="10"
         rx="1"
         ry="1"
         x="-241.0542"
         y="-490.96747"
         transform="matrix(0,-1,1,0,0,0)"
         id="rect12881"
         style="fill:#bebebe;fill-opacity:1;stroke:none;display:inline" />
      <rect
         width="2"
         height="10"
         rx="1"
         ry="1"
         x="-249.0542"
         y="-490.96747"
         transform="matrix(0,-1,1,0,0,0)"
         id="rect12883"
         style="fill:#bebebe;fill-opacity:1;stroke:none;display:inline" />
      <rect
         width="2"
         height="10"
         rx="1"
         ry="1"
         x="-478.96747"
         y="239.0542"
         id="rect12885"
         style="fill:#bebebe;fill-opacity:1;stroke:none;display:inline" />
      <rect
         width="2"
         height="9.9044342"
         rx="1"
         ry="1"
         x="-470.96747"
         y="239.14978"
         id="rect12887"
         style="fill:#bebebe;fill-opacity:1;stroke:none;display:inline" />
      <rect
         width="2"
         height="10"
         rx="1"
         ry="1"
         x="-241.0542"
         y="-478.96747"
         transform="matrix(0,-1,1,0,0,0)"
         id="rect12889"
         style="fill:#bebebe;fill-opacity:1;stroke:none;display:inline" />
      <rect
         width="2"
         height="10"
         rx="1"
         ry="1"
         x="-249.0542"
         y="-478.96747"
         transform="matrix(0,-1,1,0,0,0)"
         id="rect12891"
         style="fill:#bebebe;fill-opacity:1;stroke:none;display:inline" />
      <rect
         width="2"
         height="10"
         rx="1"
         ry="1"
         x="-490.96747"
         y="251.0542"
         id="rect12893"
         style="fill:#bebebe;fill-opacity:1;stroke:none;display:inline" />
      <rect
         width="2"
         height="9.9044342"
         rx="1"
         ry="1"
         x="-482.96747"
         y="251.14978"
         id="rect12895"
         style="fill:#bebebe;fill-opacity:1;stroke:none;display:inline" />
      <rect
         width="2"
         height="10"
         rx="1"
         ry="1"
         x="-253.0542"
         y="-490.96747"
         transform="matrix(0,-1,1,0,0,0)"
         id="rect12897"
         style="fill:#bebebe;fill-opacity:1;stroke:none;display:inline" />
      <rect
         width="2"
         height="10"
         rx="1"
         ry="1"
         x="-261.0542"
         y="-490.96747"
         transform="matrix(0,-1,1,0,0,0)"
         id="rect12899"
         style="fill:#bebebe;fill-opacity:1;stroke:none;display:inline" />
      <rect
         width="2"
         height="10"
         rx="1"
         ry="1"
         x="-478.96747"
         y="251.0542"
         id="rect12901"
         style="fill:#bebebe;fill-opacity:1;stroke:none;display:inline" />
      <rect
         width="2"
         height="9.9044342"
         rx="1"
         ry="1"
         x="-470.96747"
         y="251.14978"
         id="rect12903"
         style="fill:#bebebe;fill-opacity:1;stroke:none;display:inline" />
      <rect
         width="2"
         height="10"
         rx="1"
         ry="1"
         x="-253.0542"
         y="-478.96747"
         transform="matrix(0,-1,1,0,0,0)"
         id="rect12905"
         style="fill:#bebebe;fill-opacity:1;stroke:none;display:inline" />
      <rect
         width="2"
         height="10"
         rx="1"
         ry="1"
         x="-261.0542"
         y="-478.96747"
         transform="matrix(0,-1,1,0,0,0)"
         id="rect12907"
         style="fill:#bebebe;fill-opacity:1;stroke:none;display:inline" />
      <path
         d="M -476.96747,244.38848 L -476.93287,247.0542 L -470.6741,247.0314 L -470.7087,244.9125 C -470.7087,244.9125 -472.97362,246.09725 -473.0082,245.98334 C -473.0428,245.86942 -475.35956,242.3607 -475.35956,242.3607 L -476.96747,244.38847 L -476.96747,244.38848 z"
         id="path12909"
         style="fill:#bebebe;fill-opacity:1;stroke:none;stroke-width:1;marker:none;visibility:visible;display:inline;overflow:visible;enable-background:accumulate" />
    </g>
  </g>
  <g
     transform="translate(254,-970)"
     id="layer9" />
  <g
     transform="translate(254,-970)"
     id="layer10" />
  <g
     transform="translate(254,-970)"
     id="layer6" />
</svg>
