<?xml version="1.0" encoding="UTF-8" standalone="no"?>
<!-- Created with Inkscape (http://www.inkscape.org/) -->
<svg
   xmlns:svg="http://www.w3.org/2000/svg"
   xmlns="http://www.w3.org/2000/svg"
   version="1.0"
   width="24"
   height="24"
   id="svg7384">
  <title
     id="title9167">Moblin Icon Theme</title>
  <defs
     id="defs7386" />
  <g
     transform="translate(202,-970)"
     id="layer3" />
  <g
     transform="translate(202,-970)"
     id="layer5" />
  <g
     transform="translate(202,-970)"
     id="layer7" />
  <g
     transform="translate(202,-970)"
     id="layer2" />
  <g
     transform="translate(202,-970)"
     id="layer8" />
  <g
     transform="translate(202,-1922.3622)"
     id="layer1" />
  <g
     transform="translate(202,-970)"
     id="layer11" />
  <g
     transform="translate(202,-970)"
     id="layer4" />
  <g
     transform="translate(202,-970)"
     id="layer12">
    <rect
       width="24"
       height="24"
       x="178"
       y="970"
       transform="scale(-1,1)"
       id="rect10073"
       style="opacity:0;fill:#ffffff;fill-opacity:1;stroke:none;display:inline" />
    <path
       d="M -189.42188,970.85938 L -193.9063,981.9375 C -193.9729,982.26299 -194,982.59232 -194,982.9375 C -194,985.35374 -192.27841,987.37752 -190,987.84375 L -190,992 L -188,992 L -188,987.84375 C -185.72159,987.37752 -184,985.35374 -184,982.9375 C -184,982.61356 -184.0193,982.29115 -184.14058,981.875 L -188.59708,970.87002 C -188.69078,970.65127 -188.79916,970.42543 -189,970.42193 C -189.20255,970.41793 -189.32813,970.625 -189.42188,970.85938 L -189.42188,970.85938 z"
       id="path10085"
       style="fill:#bebebe;fill-opacity:1;fill-rule:nonzero;stroke:none;stroke-width:1;marker:none;visibility:visible;display:inline;overflow:visible;enable-background:accumulate" />
  </g>
  <g
     transform="translate(202,-970)"
     id="layer9" />
  <g
     transform="translate(202,-970)"
     id="layer10" />
  <g
     transform="translate(202,-970)"
     id="layer6" />
</svg>
