<?xml version="1.0" encoding="UTF-8" standalone="no"?>
<!-- Created with Inkscape (http://www.inkscape.org/) -->
<svg
   xmlns:svg="http://www.w3.org/2000/svg"
   xmlns="http://www.w3.org/2000/svg"
   version="1.0"
   width="24.024282"
   height="24"
   id="svg7384">
  <title
     id="title9167">Moblin Icon Theme</title>
  <defs
     id="defs7386" />
  <g
     transform="translate(176.02428,-970)"
     id="layer3" />
  <g
     transform="translate(176.02428,-970)"
     id="layer5" />
  <g
     transform="translate(176.02428,-970)"
     id="layer7" />
  <g
     transform="translate(176.02428,-970)"
     id="layer2" />
  <g
     transform="translate(176.02428,-970)"
     id="layer8" />
  <g
     transform="translate(176.02428,-1922.3622)"
     id="layer1" />
  <g
     transform="translate(176.02428,-970)"
     id="layer11" />
  <g
     transform="translate(176.02428,-970)"
     id="layer4" />
  <g
     transform="translate(176.02428,-970)"
     id="layer12">
    <rect
       width="24"
       height="24"
       x="152"
       y="970"
       transform="scale(-1,1)"
       id="rect10095"
       style="opacity:0;fill:#ffffff;fill-opacity:1;stroke:none;display:inline" />
    <path
       d="M -173.26619,975.26357 L -175.96788,981.56272 C -176.00798,981.75881 -176.02428,981.95722 -176.02428,982.16518 C -176.02428,983.46528 -175.16571,984.57678 -174.01097,984.99964 L -174.02097,987.99999 L -172.00355,987.99999 C -172.00355,987.99999 -172.01605,985.01186 -172.01605,985.01186 C -170.84359,984.59852 -170,983.478 -170,982.16518 C -170,981.97002 -170.0116,981.77578 -170.0847,981.52506 L -172.76958,975.26998 C -172.82598,975.13819 -172.89132,975.00213 -173.01232,975.00002 C -173.13435,974.99802 -173.21001,975.12237 -173.26649,975.26357 L -173.26653,975.26357 L -173.26619,975.26357 z"
       id="path10097"
       style="fill:#bebebe;fill-opacity:1;fill-rule:nonzero;stroke:none;stroke-width:1;marker:none;visibility:visible;display:inline;overflow:visible;enable-background:accumulate" />
    <path
       d="M -164.96841,974 C -166.6131,974 -167.93716,975.32406 -167.93716,976.96875 L -167.93716,981.0625 C -167.93716,982.37613 -167.08397,983.48173 -165.90591,983.875 L -165.90591,988 L -163.96841,988 L -163.96841,983.84375 C -162.82421,983.43204 -161.99966,982.35198 -161.99966,981.0625 L -161.99966,976.96875 C -161.99966,975.32406 -163.32372,974 -164.96841,974 L -164.96841,974 z"
       id="rect10103"
       style="fill:#bebebe;fill-opacity:1;fill-rule:nonzero;stroke:none;stroke-width:1;marker:none;visibility:visible;display:inline;overflow:visible;enable-background:accumulate" />
    <path
       d="M -156.96841,980.24632 C -158.6131,980.24632 -159.93716,981.57038 -159.93716,983.21507 L -159.93716,983.18377 C -159.93716,984.4974 -159.08397,985.603 -157.90591,985.99627 L -157.90591,987.99995 L -155.96841,987.99995 L -155.96841,985.96502 C -154.82421,985.55331 -153.99966,984.47325 -153.99966,983.18377 L -153.99966,983.21507 C -153.99966,981.57038 -155.32372,980.24632 -156.96841,980.24632 L -156.96841,980.24632 z"
       id="path10108"
       style="fill:#bebebe;fill-opacity:1;fill-rule:nonzero;stroke:none;stroke-width:1;marker:none;visibility:visible;display:inline;overflow:visible;enable-background:accumulate" />
  </g>
  <g
     transform="translate(176.02428,-970)"
     id="layer9" />
  <g
     transform="translate(176.02428,-970)"
     id="layer10" />
  <g
     transform="translate(176.02428,-970)"
     id="layer6" />
</svg>
