<?xml version="1.0" encoding="UTF-8" standalone="no"?>
<!-- Created with Inkscape (http://www.inkscape.org/) -->
<svg
   xmlns:svg="http://www.w3.org/2000/svg"
   xmlns="http://www.w3.org/2000/svg"
   version="1.0"
   width="24"
   height="24.00111"
   id="svg7384">
  <title
     id="title9167">Moblin Icon Theme</title>
  <defs
     id="defs7386" />
  <g
     transform="translate(616,-540)"
     id="layer3" />
  <g
     transform="translate(616,-540)"
     id="layer5" />
  <g
     transform="translate(616,-540)"
     id="layer7" />
  <g
     transform="translate(616,-540)"
     id="layer2" />
  <g
     transform="translate(616,-540)"
     id="layer8" />
  <g
     transform="translate(616,-1492.3622)"
     id="layer1" />
  <g
     transform="translate(616,-540)"
     id="layer4" />
  <g
     transform="translate(616,-540)"
     id="layer9" />
  <g
     transform="translate(616,-540)"
     id="layer10">
    <rect
       width="24"
       height="24"
       x="592"
       y="540"
       transform="scale(-1,1)"
       id="rect11063"
       style="opacity:0;fill:#ffffff;fill-opacity:1;stroke:none;display:inline" />
    <path
       d="M -606.46875,544.59375 L -609.03125,545.34375 C -612.323,546.2824 -614.84468,548.86611 -615.6875,552.125 C -616.99823,557.19312 -613.94311,562.37678 -608.875,563.6875 C -603.8083,564.99785 -598.59289,561.97804 -597.28125,556.90625 L -597.96875,556.71875 L -598.40625,555.65625 L -599.0625,555.75 L -599.09375,555.9375 C -602.02528,557.77403 -605.84953,557.09041 -607.84375,554.21875 C -609.37799,552.00944 -609.39008,549.05321 -607.9375,546.84375 L -606.46875,544.59375 z M -610.6875,548.34375 C -611.2842,550.6981 -610.91424,553.26224 -609.46875,555.34375 C -607.37121,558.36419 -603.67293,559.531 -600.3125,558.625 C -602.03764,561.20416 -605.19164,562.57328 -608.375,561.75 C -612.39667,560.70991 -614.79009,556.64668 -613.75,552.625 C -613.28859,550.84091 -612.18493,549.35833 -610.6875,548.34375 z"
       id="path11614"
       style="fill:#bebebe;fill-opacity:1;stroke:none;stroke-width:2;stroke-linecap:round;stroke-linejoin:miter;marker:none;stroke-miterlimit:2.9000001;stroke-dasharray:none;stroke-dashoffset:0;stroke-opacity:1;visibility:visible;display:inline;overflow:visible;enable-background:accumulate" />
    <path
       d="M -607.36553,549.02806 L -605.89001,549.48765 L -602.57614,550.57615 L -601.48764,553.89002 L -601.02806,555.36554 L -600.56847,553.89002 L -599.47997,550.57615 L -596.1661,549.48765 L -594.69058,549.02806 L -596.1661,548.56848 L -599.47997,547.47998 L -600.56847,544.16611 L -601.02806,542.69059 L -601.48764,544.16611 L -602.57614,547.47998 L -605.89001,548.56848 L -607.36553,549.02806 z M -604.12423,549.02806 L -602.04399,548.35078 L -601.77791,548.27821 L -601.70534,548.01213 L -601.02806,545.93189 L -600.35077,548.01213 L -600.2782,548.27821 L -600.01213,548.35078 L -597.93189,549.02806 L -600.01213,549.70535 L -600.2782,549.77792 L -600.35077,550.044 L -601.02806,552.12423 L -601.70534,550.044 L -601.77791,549.77792 L -602.04399,549.70535 L -604.12423,549.02806 z"
       id="path11616"
       style="fill:#bebebe;fill-opacity:1;stroke:none;stroke-width:0.91352457;stroke-linecap:butt;stroke-linejoin:miter;marker:none;stroke-miterlimit:4;stroke-dasharray:none;stroke-dashoffset:0;stroke-opacity:1;visibility:visible;display:inline;overflow:visible;enable-background:accumulate" />
  </g>
  <g
     transform="translate(616,-540)"
     id="layer6" />
</svg>
