<?xml version="1.0" encoding="UTF-8" standalone="no"?>
<!-- Created with Inkscape (http://www.inkscape.org/) -->
<svg
   xmlns:svg="http://www.w3.org/2000/svg"
   xmlns="http://www.w3.org/2000/svg"
   version="1.0"
   width="24.052891"
   height="24.048252"
   id="svg7384">
  <title
     id="title9167">Moblin Icon Theme</title>
  <defs
     id="defs7386" />
  <g
     transform="translate(500,-660)"
     id="layer3" />
  <g
     transform="translate(500,-660)"
     id="layer5" />
  <g
     transform="translate(500,-660)"
     id="layer7" />
  <g
     transform="translate(500,-660)"
     id="layer2" />
  <g
     transform="translate(500,-660)"
     id="layer8" />
  <g
     transform="translate(500,-1612.3622)"
     id="layer1" />
  <g
     transform="translate(500,-660)"
     id="layer11" />
  <g
     transform="translate(500,-660)"
     id="layer4" />
  <g
     transform="translate(500,-660)"
     id="layer9" />
  <g
     transform="translate(500,-660)"
     id="layer10">
    <rect
       width="24"
       height="24"
       x="-499.9892"
       y="660.04828"
       id="rect7216"
       style="opacity:0;fill:#ffffff;fill-opacity:1;stroke:none;display:inline" />
    <path
       d="M -491.1875,679.0625 C -491.73978,679.11428 -492.14553,679.60397 -492.09375,680.15625 C -492.04197,680.70853 -491.55228,681.11428 -491,681.0625 L -485.09375,681.0625 C -484.73312,681.0676 -484.39768,680.87812 -484.21587,680.56662 C -484.03407,680.25513 -484.03407,679.86987 -484.21587,679.55838 C -484.39768,679.24688 -484.73312,679.0574 -485.09375,679.0625 L -491,679.0625 C -491.06236,679.05663 -491.12514,679.05663 -491.1875,679.0625 L -491.1875,679.0625 z"
       id="path7218"
       style="fill:#bebebe;fill-opacity:1;fill-rule:nonzero;stroke:none;stroke-width:1.99999964;stroke-linecap:round;stroke-linejoin:miter;marker:none;stroke-miterlimit:4;stroke-dasharray:none;stroke-dashoffset:0;stroke-opacity:1;visibility:visible;display:inline;overflow:visible;enable-background:new" />
    <path
       d="M -496.75,660 C -498.539,660 -500,661.46102 -500,663.25 L -500,674.78125 C -500,676.57025 -498.53901,678.03126 -496.75,678.03125 L -495.96875,678.03125 C -495.60811,678.03635 -495.27267,677.84687 -495.09086,677.53538 C -494.90906,677.22388 -494.90906,676.83862 -495.09086,676.52712 C -495.27267,676.21563 -495.60811,676.02615 -495.96875,676.03125 L -496.75,676.03125 C -497.4656,676.03126 -498,675.49685 -498,674.78125 L -498,663.25 C -498,662.53444 -497.4656,662 -496.75,662 L -479.21875,662 C -478.50315,662 -477.9375,662.53442 -477.9375,663.25 L -477.9375,673.09375 C -477.9426,673.45439 -477.75312,673.78983 -477.44163,673.97164 C -477.13013,674.15344 -476.74487,674.15344 -476.43337,673.97164 C -476.12188,673.78983 -475.9324,673.45439 -475.9375,673.09375 L -475.9375,663.25 C -475.9375,661.461 -477.42975,660 -479.21875,660 L -496.75,660 z"
       id="rect7220"
       style="fill:#bebebe;fill-opacity:1;stroke:none;stroke-width:2;stroke-linecap:round;stroke-linejoin:round;marker:none;stroke-miterlimit:4;stroke-dashoffset:0;stroke-opacity:1;visibility:visible;display:inline;overflow:visible;enable-background:accumulate" />
    <path
       d="M -496.59375,663.0625 C -496.82034,663.1209 -496.97613,663.32862 -496.96875,663.5625 L -496.96875,674.5625 C -496.96872,674.83863 -496.74488,675.06247 -496.46875,675.0625 L -495.4375,675.0625 C -495.25718,675.06505 -495.08946,674.97031 -494.99856,674.81456 C -494.90765,674.65881 -494.90765,674.46619 -494.99856,674.31044 C -495.08946,674.15469 -495.25718,674.05995 -495.4375,674.0625 L -495.96875,674.0625 L -495.96875,664.0625 L -480,664.0625 L -480,672 C -480.00255,672.18032 -479.90781,672.34804 -479.75206,672.43894 C -479.59631,672.52985 -479.40369,672.52985 -479.24794,672.43894 C -479.09219,672.34804 -478.99745,672.18032 -479,672 L -479,663.5625 C -479.00003,663.28637 -479.22387,663.06253 -479.5,663.0625 L -496.46875,663.0625 C -496.51025,663.05727 -496.55225,663.05727 -496.59375,663.0625 L -496.59375,663.0625 z"
       id="rect7222"
       style="fill:#bebebe;fill-opacity:1;stroke:none;stroke-width:1;stroke-linecap:round;stroke-linejoin:round;marker:none;stroke-miterlimit:4;stroke-dashoffset:0;stroke-opacity:1;visibility:visible;display:inline;overflow:visible;enable-background:accumulate" />
    <path
       d="M -493.0625,666 C -493.60252,666.01694 -494.03146,666.45971 -494.03125,667 L -494.03125,677 C -494.03119,677.55226 -493.58351,677.99994 -493.03125,678 L -477.0625,678 C -476.61896,677.99743 -476.23011,677.70302 -476.1073,677.27682 C -475.98449,676.85061 -476.15708,676.39443 -476.53125,676.15625 L -492.5,666.15625 C -492.66779,666.04938 -492.86363,665.99498 -493.0625,666 z M -492.03125,668.8125 L -480.53125,676 L -492.03125,676 L -492.03125,668.8125 z"
       id="path9113-4"
       style="fill:#bebebe;fill-opacity:1;fill-rule:nonzero;stroke:none;stroke-width:2;stroke-linecap:round;stroke-linejoin:round;marker:none;stroke-miterlimit:4;stroke-dasharray:none;stroke-dashoffset:0;stroke-opacity:1;visibility:visible;display:inline;overflow:visible;enable-background:accumulate" />
    <path
       d="M -491.0625,670.59375 L -491.0625,671.5 L -491.0625,674.5 L -491.0625,675 L -490.5625,675 L -485.8125,675 L -484.09375,675 L -485.53125,674.0625 L -490.28125,671.0625 L -491.0625,670.59375 z M -490.0625,672.4375 L -487.5625,674 L -490.0625,674 L -490.0625,672.4375 z"
       id="path9136-8"
       style="fill:#bebebe;fill-opacity:1;stroke:none;stroke-width:1px;stroke-linecap:butt;stroke-linejoin:miter;stroke-opacity:1" />
  </g>
  <g
     transform="translate(500,-660)"
     id="layer6" />
</svg>
