<?xml version="1.0" encoding="UTF-8" standalone="no"?>
<!-- Created with Inkscape (http://www.inkscape.org/) -->
<svg
   xmlns:svg="http://www.w3.org/2000/svg"
   xmlns="http://www.w3.org/2000/svg"
   version="1.0"
   width="24"
   height="24"
   id="svg7384">
  <title
     id="title9167">Moblin Icon Theme</title>
  <defs
     id="defs7386" />
  <g
     transform="translate(395.99995,-1074)"
     id="layer3" />
  <g
     transform="translate(395.99995,-1074)"
     id="layer5" />
  <g
     transform="translate(395.99995,-1074)"
     id="layer7" />
  <g
     transform="translate(395.99995,-1074)"
     id="layer2" />
  <g
     transform="translate(395.99995,-1074)"
     id="layer8" />
  <g
     transform="translate(395.99995,-2026.3622)"
     id="layer1" />
  <g
     transform="translate(395.99995,-1074)"
     id="layer11">
    <rect
       width="24"
       height="24"
       x="-1098"
       y="371.99994"
       transform="matrix(0,-1,-1,0,0,0)"
       id="rect9388"
       style="opacity:0;fill:#ffffff;fill-opacity:1;stroke:none;display:inline" />
    <path
       d="M -374.09375,1086 C -374.64603,1086.0259 -375.07276,1086.4946 -375.04687,1087.0469 C -375.02099,1087.5992 -374.55228,1088.0259 -374,1088 L -373,1088 C -372.63936,1088.0051 -372.30392,1087.8156 -372.12211,1087.5041 C -371.94031,1087.1926 -371.94031,1086.8074 -372.12211,1086.4959 C -372.30392,1086.1844 -372.63936,1085.9949 -373,1086 L -374,1086 C -374.03123,1085.9985 -374.06252,1085.9985 -374.09375,1086 z"
       id="path9410"
       style="fill:#bebebe;fill-opacity:1;stroke:none;stroke-width:2;stroke-linecap:round;stroke-linejoin:miter;marker:none;stroke-miterlimit:4;stroke-dasharray:none;stroke-dashoffset:0;stroke-opacity:1;visibility:visible;display:inline;overflow:visible;enable-background:new" />
    <path
       d="M -393,1082 C -394.09072,1082 -395,1082.9093 -395,1084 L -395,1090 C -395,1091.0907 -394.0907,1092 -393,1092 L -392,1092 C -390.90928,1092 -390,1091.0907 -390,1090 L -390,1084 C -390,1082.9093 -390.90928,1082 -392,1082 L -393,1082 z M -393,1084 L -392,1084 L -392,1090 L -393,1090 L -393,1084 z"
       id="rect9421"
       style="fill:#bebebe;fill-opacity:1;stroke:none;stroke-width:2;stroke-linecap:butt;stroke-linejoin:miter;marker:none;stroke-miterlimit:4;stroke-dasharray:none;stroke-dashoffset:0;stroke-opacity:1;visibility:visible;display:inline;overflow:visible;enable-background:accumulate" />
    <path
       d="M -390,1080 C -391.09072,1080 -392,1080.9093 -392,1082 L -392,1092 C -392,1093.0907 -391.09074,1094 -390,1094 L -389,1094 C -387.90928,1094 -387,1093.0907 -387,1092 L -387,1082 C -387,1080.9093 -387.90928,1080 -389,1080 L -390,1080 z M -390,1082 L -389,1082 L -389,1092 L -390,1092 L -390,1082 z"
       id="rect9423"
       style="fill:#bebebe;fill-opacity:1;stroke:none;stroke-width:2;stroke-linecap:butt;stroke-linejoin:miter;marker:none;stroke-miterlimit:4;stroke-dasharray:none;stroke-dashoffset:0;stroke-opacity:1;visibility:visible;display:inline;overflow:visible;enable-background:accumulate" />
    <path
       d="M -375,1082 C -373.90928,1082 -373,1082.9093 -373,1084 L -373,1090 C -373,1091.0907 -373.9093,1092 -375,1092 L -376,1092 C -377.09072,1092 -378,1091.0907 -378,1090 L -378,1084 C -378,1082.9093 -377.09072,1082 -376,1082 L -375,1082 z M -375,1084 L -376,1084 L -376,1090 L -375,1090 L -375,1084 z"
       id="rect9425"
       style="fill:#bebebe;fill-opacity:1;stroke:none;stroke-width:2;stroke-linecap:butt;stroke-linejoin:miter;marker:none;stroke-miterlimit:4;stroke-dasharray:none;stroke-dashoffset:0;stroke-opacity:1;visibility:visible;display:inline;overflow:visible;enable-background:accumulate" />
    <path
       d="M -378,1080 C -376.90928,1080 -376,1080.9093 -376,1082 L -376,1092 C -376,1093.0907 -376.90926,1094 -378,1094 L -379,1094 C -380.09072,1094 -381,1093.0907 -381,1092 L -381,1082 C -381,1080.9093 -380.09072,1080 -379,1080 L -378,1080 z M -378,1082 L -379,1082 L -379,1092 L -378,1092 L -378,1082 z"
       id="rect9427"
       style="fill:#bebebe;fill-opacity:1;stroke:none;stroke-width:2;stroke-linecap:butt;stroke-linejoin:miter;marker:none;stroke-miterlimit:4;stroke-dasharray:none;stroke-dashoffset:0;stroke-opacity:1;visibility:visible;display:inline;overflow:visible;enable-background:accumulate" />
    <path
       d="M -395.09375,1086 C -395.64603,1086.0259 -396.07276,1086.4946 -396.04687,1087.0469 C -396.02099,1087.5992 -395.55228,1088.0259 -395,1088 L -394,1088 C -393.63936,1088.0051 -393.30392,1087.8156 -393.12211,1087.5041 C -392.94031,1087.1926 -392.94031,1086.8074 -393.12211,1086.4959 C -393.30392,1086.1844 -393.63936,1085.9949 -394,1086 L -395,1086 C -395.03123,1085.9985 -395.06252,1085.9985 -395.09375,1086 z"
       id="path9429"
       style="fill:#bebebe;fill-opacity:1;stroke:none;stroke-width:2;stroke-linecap:round;stroke-linejoin:miter;marker:none;stroke-miterlimit:4;stroke-dasharray:none;stroke-dashoffset:0;stroke-opacity:1;visibility:visible;display:inline;overflow:visible;enable-background:new" />
    <path
       d="M -388.09375,1086 C -388.64603,1086.0259 -389.07276,1086.4946 -389.04687,1087.0469 C -389.02099,1087.5992 -388.55228,1088.0259 -388,1088 L -380,1088 C -379.63936,1088.0051 -379.30392,1087.8156 -379.12211,1087.5041 C -378.94031,1087.1926 -378.94031,1086.8074 -379.12211,1086.4959 C -379.30392,1086.1844 -379.63936,1085.9949 -380,1086 L -388,1086 C -388.03123,1085.9985 -388.06252,1085.9985 -388.09375,1086 z"
       id="path9431"
       style="fill:#bebebe;fill-opacity:1;stroke:none;stroke-width:2;stroke-linecap:round;stroke-linejoin:miter;marker:none;stroke-miterlimit:4;stroke-dasharray:none;stroke-dashoffset:0;stroke-opacity:1;visibility:visible;display:inline;overflow:visible;enable-background:new" />
  </g>
  <g
     transform="translate(395.99995,-1074)"
     id="layer4" />
  <g
     transform="translate(395.99995,-1074)"
     id="layer12" />
  <g
     transform="translate(395.99995,-1074)"
     id="layer9" />
  <g
     transform="translate(395.99995,-1074)"
     id="layer10" />
  <g
     transform="translate(395.99995,-1074)"
     id="layer6" />
</svg>
