<?xml version="1.0" encoding="UTF-8" standalone="no"?>
<!-- Created with Inkscape (http://www.inkscape.org/) -->
<svg
   xmlns:svg="http://www.w3.org/2000/svg"
   xmlns="http://www.w3.org/2000/svg"
   version="1.0"
   width="24"
   height="24"
   id="svg7384">
  <title
     id="title9167">Moblin Icon Theme</title>
  <defs
     id="defs7386" />
  <g
     transform="translate(396,-1124)"
     id="layer3" />
  <g
     transform="translate(396,-1124)"
     id="layer5" />
  <g
     transform="translate(396,-1124)"
     id="layer7" />
  <g
     transform="translate(396,-1124)"
     id="layer2" />
  <g
     transform="translate(396,-1124)"
     id="layer8" />
  <g
     transform="translate(396,-2076.3622)"
     id="layer1" />
  <g
     transform="translate(396,-1124)"
     id="layer11">
    <rect
       width="24"
       height="24"
       x="-1148"
       y="372"
       transform="matrix(0,-1,-1,0,0,0)"
       id="rect9388"
       style="opacity:0;fill:#ffffff;fill-opacity:1;stroke:none;display:inline" />
    <path
       d="M -374.09375,1136 C -374.64603,1136.0259 -375.07276,1136.4946 -375.04687,1137.0469 C -375.02099,1137.5992 -374.55228,1138.0259 -374,1138 L -373,1138 C -372.63936,1138.0051 -372.30392,1137.8156 -372.12211,1137.5041 C -371.94031,1137.1926 -371.94031,1136.8074 -372.12211,1136.4959 C -372.30392,1136.1844 -372.63936,1135.9949 -373,1136 L -374,1136 C -374.03123,1135.9985 -374.06252,1135.9985 -374.09375,1136 z"
       id="path9410"
       style="fill:#bebebe;fill-opacity:1;stroke:none;stroke-width:2;stroke-linecap:round;stroke-linejoin:miter;marker:none;stroke-miterlimit:4;stroke-dasharray:none;stroke-dashoffset:0;stroke-opacity:1;visibility:visible;display:inline;overflow:visible;enable-background:new" />
    <path
       d="M -393,1132 C -394.09072,1132 -395,1132.9093 -395,1134 L -395,1140 C -395,1141.0907 -394.0907,1142 -393,1142 L -392,1142 C -390.90928,1142 -390,1141.0907 -390,1140 L -390,1134 C -390,1132.9093 -390.90928,1132 -392,1132 L -393,1132 z M -393,1134 L -392,1134 L -392,1140 L -393,1140 L -393,1134 z"
       id="rect9421"
       style="fill:#bebebe;fill-opacity:1;stroke:none;stroke-width:2;stroke-linecap:butt;stroke-linejoin:miter;marker:none;stroke-miterlimit:4;stroke-dasharray:none;stroke-dashoffset:0;stroke-opacity:1;visibility:visible;display:inline;overflow:visible;enable-background:accumulate" />
    <path
       d="M -390,1130 C -391.09072,1130 -392,1130.9093 -392,1132 L -392,1142 C -392,1143.0907 -391.09074,1144 -390,1144 L -389,1144 C -387.90928,1144 -387,1143.0907 -387,1142 L -387,1132 C -387,1130.9093 -387.90928,1130 -389,1130 L -390,1130 z M -390,1132 L -389,1132 L -389,1142 L -390,1142 L -390,1132 z"
       id="rect9423"
       style="fill:#bebebe;fill-opacity:1;stroke:none;stroke-width:2;stroke-linecap:butt;stroke-linejoin:miter;marker:none;stroke-miterlimit:4;stroke-dasharray:none;stroke-dashoffset:0;stroke-opacity:1;visibility:visible;display:inline;overflow:visible;enable-background:accumulate" />
    <path
       d="M -375,1132 C -373.90928,1132 -373,1132.9093 -373,1134 L -373,1140 C -373,1141.0907 -373.9093,1142 -375,1142 L -376,1142 C -377.09072,1142 -378,1141.0907 -378,1140 L -378,1134 C -378,1132.9093 -377.09072,1132 -376,1132 L -375,1132 z M -375,1134 L -376,1134 L -376,1140 L -375,1140 L -375,1134 z"
       id="rect9425"
       style="fill:#bebebe;fill-opacity:1;stroke:none;stroke-width:2;stroke-linecap:butt;stroke-linejoin:miter;marker:none;stroke-miterlimit:4;stroke-dasharray:none;stroke-dashoffset:0;stroke-opacity:1;visibility:visible;display:inline;overflow:visible;enable-background:accumulate" />
    <path
       d="M -378,1130 C -376.90928,1130 -376,1130.9093 -376,1132 L -376,1142 C -376,1143.0907 -376.90926,1144 -378,1144 L -379,1144 C -380.09072,1144 -381,1143.0907 -381,1142 L -381,1132 C -381,1130.9093 -380.09072,1130 -379,1130 L -378,1130 z M -378,1132 L -379,1132 L -379,1142 L -378,1142 L -378,1132 z"
       id="rect9427"
       style="fill:#bebebe;fill-opacity:1;stroke:none;stroke-width:2;stroke-linecap:butt;stroke-linejoin:miter;marker:none;stroke-miterlimit:4;stroke-dasharray:none;stroke-dashoffset:0;stroke-opacity:1;visibility:visible;display:inline;overflow:visible;enable-background:accumulate" />
    <path
       d="M -395.09375,1136 C -395.64603,1136.0259 -396.07276,1136.4946 -396.04687,1137.0469 C -396.02099,1137.5992 -395.55228,1138.0259 -395,1138 L -394,1138 C -393.63936,1138.0051 -393.30392,1137.8156 -393.12211,1137.5041 C -392.94031,1137.1926 -392.94031,1136.8074 -393.12211,1136.4959 C -393.30392,1136.1844 -393.63936,1135.9949 -394,1136 L -395,1136 C -395.03123,1135.9985 -395.06252,1135.9985 -395.09375,1136 z"
       id="path9429"
       style="fill:#bebebe;fill-opacity:1;stroke:none;stroke-width:2;stroke-linecap:round;stroke-linejoin:miter;marker:none;stroke-miterlimit:4;stroke-dasharray:none;stroke-dashoffset:0;stroke-opacity:1;visibility:visible;display:inline;overflow:visible;enable-background:new" />
    <path
       d="M -388.09375,1136 C -388.64603,1136.0259 -389.07276,1136.4946 -389.04687,1137.0469 C -389.02099,1137.5992 -388.55228,1138.0259 -388,1138 L -380,1138 C -379.63936,1138.0051 -379.30392,1137.8156 -379.12211,1137.5041 C -378.94031,1137.1926 -378.94031,1136.8074 -379.12211,1136.4959 C -379.30392,1136.1844 -379.63936,1135.9949 -380,1136 L -388,1136 C -388.03123,1135.9985 -388.06252,1135.9985 -388.09375,1136 z"
       id="path9431"
       style="fill:#bebebe;fill-opacity:1;stroke:none;stroke-width:2;stroke-linecap:round;stroke-linejoin:miter;marker:none;stroke-miterlimit:4;stroke-dasharray:none;stroke-dashoffset:0;stroke-opacity:1;visibility:visible;display:inline;overflow:visible;enable-background:new" />
  </g>
  <g
     transform="translate(396,-1124)"
     id="layer4" />
  <g
     transform="translate(396,-1124)"
     id="layer9" />
  <g
     transform="translate(396,-1124)"
     id="layer10" />
  <g
     transform="translate(396,-1124)"
     id="layer6" />
</svg>
