<?xml version="1.0" encoding="UTF-8" standalone="no"?>
<!-- Created with Inkscape (http://www.inkscape.org/) -->
<svg
   xmlns:svg="http://www.w3.org/2000/svg"
   xmlns="http://www.w3.org/2000/svg"
   version="1.0"
   width="24.000004"
   height="24.000002"
   id="svg7384">
  <title
     id="title9167">Moblin Icon Theme</title>
  <defs
     id="defs7386" />
  <g
     transform="translate(482,-1316)"
     id="layer3" />
  <g
     transform="translate(482,-1316)"
     id="layer5" />
  <g
     transform="translate(482,-1316)"
     id="layer7" />
  <g
     transform="translate(482,-1316)"
     id="layer2" />
  <g
     transform="translate(482,-1316)"
     id="layer8" />
  <g
     transform="translate(482,-2268.3622)"
     id="layer1" />
  <g
     transform="translate(482,-1316)"
     id="layer11">
    <rect
       width="24"
       height="24"
       x="-482"
       y="1316"
       id="rect8317"
       style="opacity:0;fill:#ffffff;fill-opacity:1;stroke:none;display:inline" />
    <path
       d="M -482,1316 L -482,1317 L -482,1335 L -482,1336 L -481,1336 L -472.3125,1336 L -472.3125,1334 L -480,1334 L -480,1318 L -460,1318 L -460,1334 L -467.78125,1334 L -467.78125,1336 L -459,1336 L -458,1336 L -458,1335 L -458,1317 L -458,1316 L -459,1316 L -481,1316 L -482,1316 z"
       id="path8319"
       style="fill:#bebebe;fill-opacity:1;stroke:none;stroke-width:2;marker:none;stroke-miterlimit:4;stroke-opacity:1;visibility:visible;display:inline;overflow:visible;enable-background:accumulate" />
    <path
       d="M -472.49573,1333.9472 C -472.84533,1334.0214 -473.12877,1334.2765 -473.23923,1334.6164 C -473.34969,1334.9563 -473.27039,1335.3293 -473.03121,1335.5948 C -472.92599,1335.7186 -472.82112,1335.8142 -472.70169,1335.9243 C -471.08629,1337.4135 -468.54772,1337.3338 -467.05857,1335.7184 C -466.68321,1335.3089 -466.71087,1334.6727 -467.12035,1334.2973 C -467.52984,1333.922 -468.16607,1333.9496 -468.54143,1334.3591 C -469.29713,1335.1789 -470.52264,1335.2384 -471.3424,1334.4827 C -471.41139,1334.4191 -471.44641,1334.3482 -471.50716,1334.2767 C -471.74891,1333.9903 -472.1305,1333.8631 -472.49573,1333.9472 L -472.49573,1333.9472 z"
       id="path8321"
       style="fill:#bebebe;fill-opacity:1;stroke:none;stroke-width:1.51733434;stroke-linecap:round;stroke-linejoin:round;marker:none;stroke-miterlimit:4;stroke-dasharray:none;stroke-dashoffset:0;stroke-opacity:1;visibility:visible;display:inline;overflow:visible;enable-background:accumulate" />
    <path
       d="M -461.46875,1316.4688 C -461.72023,1316.5005 -461.90821,1316.7153 -461.90625,1316.9688 L -461.90625,1332.0312 L -468.5,1332.0312 C -468.63061,1332.0364 -468.754,1332.0925 -468.84375,1332.1875 L -470,1333.3438 L -471.15625,1332.1875 C -471.246,1332.0925 -471.36939,1332.0364 -471.5,1332.0312 L -477.90625,1332.0312 L -477.90625,1317.375 C -477.9037,1317.1947 -477.99844,1317.027 -478.15419,1316.9361 C -478.30994,1316.8452 -478.50256,1316.8452 -478.65831,1316.9361 C -478.81406,1317.027 -478.9088,1317.1947 -478.90625,1317.375 L -478.90625,1332.5312 C -478.90622,1332.8073 -478.68238,1333.0312 -478.40625,1333.0312 L -471.6875,1333.0312 L -470.34375,1334.375 C -470.15092,1334.5575 -469.84908,1334.5575 -469.65625,1334.375 L -468.3125,1333.0312 L -461.40625,1333.0312 C -461.13012,1333.0312 -460.90628,1332.8073 -460.90625,1332.5312 L -460.90625,1316.9688 C -460.90514,1316.8246 -460.96631,1316.687 -461.07407,1316.5912 C -461.18183,1316.4954 -461.3257,1316.4508 -461.46875,1316.4688 z"
       id="path8323"
       style="fill:#bebebe;fill-opacity:1;stroke:none;stroke-width:1;stroke-linecap:round;stroke-linejoin:round;marker:none;stroke-miterlimit:4;stroke-dasharray:none;stroke-dashoffset:0;stroke-opacity:1;visibility:visible;display:inline;overflow:visible;enable-background:accumulate" />
    <g
       transform="translate(-531,948.63782)"
       id="g8325" />
    <path
       d="M -472.625,1322.125 C -472.85159,1322.1834 -473.00738,1322.3911 -473,1322.625 L -473,1327.5 C -472.99997,1327.7761 -472.77613,1328 -472.5,1328 L -467.5,1328 C -467.30376,1327.9925 -467.13006,1327.8708 -467.05597,1327.689 C -466.98188,1327.5071 -467.0211,1327.2987 -467.15625,1327.1562 L -472.15625,1322.2812 C -472.27407,1322.1502 -472.45214,1322.0908 -472.625,1322.125 z M -472,1323.7812 L -468.71875,1327 L -472,1327 L -472,1323.7812 z"
       id="path8331"
       style="fill:#bebebe;fill-opacity:1;stroke:none;stroke-width:1;stroke-linecap:round;stroke-linejoin:round;marker:none;stroke-miterlimit:4;stroke-dasharray:none;stroke-dashoffset:0;stroke-opacity:1;visibility:visible;display:inline;overflow:visible;enable-background:accumulate" />
    <g
       transform="translate(-531,948.63782)"
       id="g8360">
      <path
         d="M -474.86607,1322.6115 A 1.5625,1.5625 0 1 1 -472.02266,1322.0151"
         transform="matrix(0.620023,0,0,0.6148878,351.15081,-440.90484)"
         id="path8354"
         style="fill:none;stroke:#bebebe;stroke-width:1.61956406;stroke-linecap:round;stroke-linejoin:round;marker:none;stroke-miterlimit:4;stroke-dasharray:none;stroke-dashoffset:0;stroke-opacity:1;visibility:visible;display:inline;overflow:visible;enable-background:accumulate" />
      <path
         d="M -472.1875,1323.125 L -474.3125,1320.9687"
         transform="translate(531,-948.63782)"
         id="path8356"
         style="fill:none;stroke:#bebebe;stroke-width:1;stroke-linecap:round;stroke-linejoin:round;marker:none;stroke-miterlimit:4;stroke-dasharray:none;stroke-dashoffset:0;stroke-opacity:1;visibility:visible;display:inline;overflow:visible;enable-background:accumulate" />
      <path
         d="M -472.5,1320.5 L -472.5,1323"
         transform="translate(531,-948.63782)"
         id="path8358"
         style="fill:none;stroke:#bebebe;stroke-width:1;stroke-linecap:round;stroke-linejoin:round;marker:none;stroke-miterlimit:4;stroke-dasharray:none;stroke-dashoffset:0;stroke-opacity:1;visibility:visible;display:inline;overflow:visible;enable-background:accumulate" />
    </g>
    <g
       transform="matrix(-0.7071068,0.7071068,-0.7071068,-0.7071068,-161.92891,1550.6521)"
       id="g8365">
      <path
         d="M -474.84492,1322.6426 A 1.5625,1.5625 0 1 1 -472.02266,1322.0151"
         transform="matrix(0.620023,0,0,0.6148878,351.15081,-440.90484)"
         id="path8367"
         style="fill:none;stroke:#bebebe;stroke-width:1.61956406;stroke-linecap:round;stroke-linejoin:round;marker:none;stroke-miterlimit:4;stroke-dasharray:none;stroke-dashoffset:0;stroke-opacity:1;visibility:visible;display:inline;overflow:visible;enable-background:accumulate" />
      <path
         d="M -472.71783,1322.5063 L -474.15468,1321.0511"
         transform="translate(531,-948.63782)"
         id="path8369"
         style="fill:none;stroke:#bebebe;stroke-width:1;stroke-linecap:round;stroke-linejoin:round;marker:none;stroke-miterlimit:4;stroke-dasharray:none;stroke-dashoffset:0;stroke-opacity:1;visibility:visible;display:inline;overflow:visible;enable-background:accumulate" />
      <path
         d="M -472.5,1320.5 L -472.5,1323"
         transform="translate(531,-948.63782)"
         id="path8372"
         style="fill:none;stroke:#bebebe;stroke-width:1;stroke-linecap:round;stroke-linejoin:round;marker:none;stroke-miterlimit:4;stroke-dasharray:none;stroke-dashoffset:0;stroke-opacity:1;visibility:visible;display:inline;overflow:visible;enable-background:accumulate" />
    </g>
    <g
       transform="matrix(0.7071068,0.7071068,0.7071068,-0.7071068,-777.13915,1550.6521)"
       id="g8374">
      <path
         d="M -474.81443,1322.6849 A 1.5625,1.5625 0 1 1 -472.45765,1322.8549"
         transform="matrix(0.6429326,5.8104518e-4,5.762328e-4,0.6376076,361.33836,-470.68139)"
         id="path8376"
         style="fill:none;stroke:#bebebe;stroke-width:1.56185496;stroke-linecap:round;stroke-linejoin:round;marker:none;stroke-miterlimit:4;stroke-dasharray:none;stroke-dashoffset:0;stroke-opacity:1;visibility:visible;display:inline;overflow:visible;enable-background:accumulate" />
      <path
         d="M -472.82831,1322.3958 L -474.19887,1321.0069"
         transform="translate(531,-948.63782)"
         id="path8378"
         style="fill:none;stroke:#bebebe;stroke-width:1;stroke-linecap:round;stroke-linejoin:round;marker:none;stroke-miterlimit:4;stroke-dasharray:none;stroke-dashoffset:0;stroke-opacity:1;visibility:visible;display:inline;overflow:visible;enable-background:accumulate" />
      <path
         d="M -472.65468,1321.0966 L -473.38389,1321.851"
         transform="translate(531,-948.63782)"
         id="path8380"
         style="fill:none;stroke:#bebebe;stroke-width:1;stroke-linecap:round;stroke-linejoin:round;marker:none;stroke-miterlimit:4;stroke-dasharray:none;stroke-dashoffset:0;stroke-opacity:1;visibility:visible;display:inline;overflow:visible;enable-background:accumulate" />
    </g>
  </g>
  <g
     transform="translate(482,-1316)"
     id="layer4" />
  <g
     transform="translate(482,-1316)"
     id="layer12" />
  <g
     transform="translate(482,-1316)"
     id="layer9" />
  <g
     transform="translate(482,-1316)"
     id="layer10" />
  <g
     transform="translate(482,-1316)"
     id="layer6" />
</svg>
