<?xml version="1.0" encoding="UTF-8" standalone="no"?>
<!-- Created with Inkscape (http://www.inkscape.org/) -->
<svg
   xmlns:svg="http://www.w3.org/2000/svg"
   xmlns="http://www.w3.org/2000/svg"
   version="1.0"
   width="24"
   height="24"
   id="svg7384">
  <title
     id="title9167">Moblin Icon Theme</title>
  <defs
     id="defs7386" />
  <g
     transform="translate(565.99995,-900)"
     id="layer3" />
  <g
     transform="translate(565.99995,-900)"
     id="layer5" />
  <g
     transform="translate(565.99995,-900)"
     id="layer7" />
  <g
     transform="translate(565.99995,-900)"
     id="layer2" />
  <g
     transform="translate(565.99995,-900)"
     id="layer8" />
  <g
     transform="translate(565.99995,-1852.3622)"
     id="layer1" />
  <g
     transform="translate(565.99995,-900)"
     id="layer11">
    <rect
       width="24"
       height="24"
       x="541.99994"
       y="900"
       transform="scale(-1,1)"
       id="rect7563"
       style="opacity:0;fill:#ffffff;fill-opacity:1;stroke:none;display:inline" />
    <path
       d="M -544.90625,901.59375 L -545.59375,902.28125 L -553.625,910.15625 L -553.9375,910.46875 L -553.9375,910.875 L -553.9375,912.90625 L -553.9375,913.90625 L -552.9375,913.90625 L -550.9375,913.90625 L -550.53125,913.90625 L -550.21875,913.59375 L -542.28125,905.5625 L -541.59375,904.875 L -542.3125,904.15625 L -544.21875,902.28125 L -544.90625,901.59375 z M -544.90625,904.40625 L -544.40625,904.875 L -551.34375,911.90625 L -551.9375,911.90625 L -551.9375,911.28125 L -544.90625,904.40625 z"
       id="path7565"
       style="fill:#bebebe;fill-opacity:1;stroke:none;stroke-width:1.99999952;stroke-linecap:butt;stroke-linejoin:miter;marker:none;stroke-miterlimit:4;stroke-dasharray:none;stroke-dashoffset:0;stroke-opacity:1;visibility:visible;display:inline;overflow:visible;enable-background:accumulate" />
    <path
       d="M -561.15625,900 C -562.72127,900 -564.00002,901.27874 -564,902.84375 L -564,919.0625 C -564,920.62751 -562.72126,921.90623 -561.15625,921.90625 L -548.84375,921.90625 C -547.27873,921.90625 -546.00002,920.62752 -546,919.0625 L -546,917.78125 C -545.9949,917.42062 -546.18438,917.08518 -546.49588,916.90337 C -546.80737,916.72157 -547.19263,916.72157 -547.50412,916.90337 C -547.81562,917.08518 -548.0051,917.42062 -548,917.78125 L -548,919.0625 C -548.00001,919.55416 -548.35215,919.90625 -548.84375,919.90625 L -561.15625,919.90625 C -561.64786,919.90624 -562,919.55411 -562,919.0625 L -562,902.84375 C -562.00001,902.35218 -561.64785,902 -561.15625,902 L -548.84375,902 C -548.57174,902 -548.34434,902.12763 -548.1875,902.3125 C -547.96369,902.61635 -547.5879,902.76834 -547.21579,902.70552 C -546.84367,902.6427 -546.53861,902.37577 -546.42695,902.01529 C -546.31529,901.6548 -546.41605,901.26216 -546.6875,901 C -547.21056,900.38343 -547.97768,900 -548.84375,900 L -561.15625,900 z"
       id="path7567"
       style="fill:#bebebe;fill-opacity:1;stroke:none;stroke-width:1.99999952;stroke-linecap:round;stroke-linejoin:miter;marker:none;stroke-miterlimit:4;stroke-dashoffset:0;stroke-opacity:1;visibility:visible;display:inline;overflow:visible;enable-background:accumulate" />
    <path
       d="M -562.99995,908 L -562.99995,914 L -554.99995,914 L -554.99995,912 L -559.93745,912 L -559.93745,910.0625 L -554.99995,910.0625 L -554.99995,908 L -562.99995,908 z"
       id="rect7569"
       style="fill:#bebebe;fill-opacity:1;stroke:none;stroke-width:1;marker:none;visibility:visible;display:inline;overflow:visible;enable-background:accumulate" />
    <rect
       width="9.0156116"
       height="1.9445436"
       x="-559.94012"
       y="916"
       id="rect7571"
       style="fill:#bebebe;fill-opacity:1;fill-rule:nonzero;stroke:none;stroke-width:1;marker:none;visibility:visible;display:inline;overflow:visible;enable-background:accumulate" />
    <rect
       width="9.0156116"
       height="1.9445436"
       x="-559.94012"
       y="904"
       id="rect7573"
       style="fill:#bebebe;fill-opacity:1;fill-rule:nonzero;stroke:none;stroke-width:1;marker:none;visibility:visible;display:inline;overflow:visible;enable-background:accumulate" />
  </g>
  <g
     transform="translate(565.99995,-900)"
     id="layer4" />
  <g
     transform="translate(565.99995,-900)"
     id="layer12" />
  <g
     transform="translate(565.99995,-900)"
     id="layer9" />
  <g
     transform="translate(565.99995,-900)"
     id="layer10" />
  <g
     transform="translate(565.99995,-900)"
     id="layer6" />
</svg>
