<?xml version="1.0" encoding="UTF-8" standalone="no"?>
<!-- Created with Inkscape (http://www.inkscape.org/) -->
<svg
   xmlns:svg="http://www.w3.org/2000/svg"
   xmlns="http://www.w3.org/2000/svg"
   version="1.0"
   width="24"
   height="24"
   id="svg7384">
  <title
     id="title9167">Moblin Icon Theme</title>
  <defs
     id="defs7386" />
  <g
     transform="translate(565.99995,-900)"
     id="layer3" />
  <g
     transform="translate(565.99995,-900)"
     id="layer5" />
  <g
     transform="translate(565.99995,-900)"
     id="layer7" />
  <g
     transform="translate(565.99995,-900)"
     id="layer2" />
  <g
     transform="translate(565.99995,-900)"
     id="layer8" />
  <g
     transform="translate(565.99995,-1852.3622)"
     id="layer1" />
  <g
     transform="translate(565.99995,-900)"
     id="layer11">
    <rect
       width="24"
       height="24"
       x="541.99994"
       y="900"
       transform="scale(-1,1)"
       id="rect7563"
       style="opacity:0;fill:#ffffff;fill-opacity:1;stroke:none;display:inline" />
    <path
       d="M -544.90625,903.59375 L -545.59375,904.28125 L -553.625,912.15625 L -553.9375,912.46875 L -553.9375,912.875 L -553.9375,914.90625 L -553.9375,915.90625 L -552.9375,915.90625 L -550.9375,915.90625 L -550.53125,915.90625 L -550.21875,915.59375 L -542.28125,907.5625 L -541.59375,906.875 L -542.3125,906.15625 L -544.21875,904.28125 L -544.90625,903.59375 z M -544.90625,906.40625 L -544.40625,906.875 L -551.34375,913.90625 L -551.9375,913.90625 L -551.9375,913.28125 L -544.90625,906.40625 z"
       id="path7565"
       style="fill:#bebebe;fill-opacity:1;stroke:none;stroke-width:1.99999952;stroke-linecap:butt;stroke-linejoin:miter;marker:none;stroke-miterlimit:4;stroke-dasharray:none;stroke-dashoffset:0;stroke-opacity:1;visibility:visible;display:inline;overflow:visible;enable-background:accumulate" />
    <path
       d="M -561.15625,902 C -562.72127,902 -564.00002,903.27874 -564,904.84375 L -564,921.0625 C -564,922.62751 -562.72126,923.90623 -561.15625,923.90625 L -548.84375,923.90625 C -547.27873,923.90625 -546.00002,922.62752 -546,921.0625 L -546,919.78125 C -545.9949,919.42062 -546.18438,919.08518 -546.49588,918.90337 C -546.80737,918.72157 -547.19263,918.72157 -547.50412,918.90337 C -547.81562,919.08518 -548.0051,919.42062 -548,919.78125 L -548,921.0625 C -548.00001,921.55416 -548.35215,921.90625 -548.84375,921.90625 L -561.15625,921.90625 C -561.64786,921.90624 -562,921.55411 -562,921.0625 L -562,904.84375 C -562.00001,904.35218 -561.64785,904 -561.15625,904 L -548.84375,904 C -548.57174,904 -548.34434,904.12763 -548.1875,904.3125 C -547.96369,904.61635 -547.5879,904.76834 -547.21579,904.70552 C -546.84367,904.6427 -546.53861,904.37577 -546.42695,904.01529 C -546.31529,903.6548 -546.41605,903.26216 -546.6875,903 C -547.21056,902.38343 -547.97768,902 -548.84375,902 L -561.15625,902 z"
       id="path7567"
       style="fill:#bebebe;fill-opacity:1;stroke:none;stroke-width:1.99999952;stroke-linecap:round;stroke-linejoin:miter;marker:none;stroke-miterlimit:4;stroke-dashoffset:0;stroke-opacity:1;visibility:visible;display:inline;overflow:visible;enable-background:accumulate" />
    <path
       d="M -562.99995,910 L -562.99995,916 L -554.99995,916 L -554.99995,914 L -559.93745,914 L -559.93745,912.0625 L -554.99995,912.0625 L -554.99995,910 L -562.99995,910 z"
       id="rect7569"
       style="fill:#bebebe;fill-opacity:1;stroke:none;stroke-width:1;marker:none;visibility:visible;display:inline;overflow:visible;enable-background:accumulate" />
    <rect
       width="9.0156116"
       height="1.9445436"
       x="-559.94012"
       y="918"
       id="rect7571"
       style="fill:#bebebe;fill-opacity:1;fill-rule:nonzero;stroke:none;stroke-width:1;marker:none;visibility:visible;display:inline;overflow:visible;enable-background:accumulate" />
    <rect
       width="9.0156116"
       height="1.9445436"
       x="-559.94012"
       y="906"
       id="rect7573"
       style="fill:#bebebe;fill-opacity:1;fill-rule:nonzero;stroke:none;stroke-width:1;marker:none;visibility:visible;display:inline;overflow:visible;enable-background:accumulate" />
  </g>
  <g
     transform="translate(565.99995,-900)"
     id="layer4" />
  <g
     transform="translate(565.99995,-900)"
     id="layer12" />
  <g
     transform="translate(565.99995,-900)"
     id="layer9" />
  <g
     transform="translate(565.99995,-900)"
     id="layer10" />
  <g
     transform="translate(565.99995,-900)"
     id="layer6" />
</svg>
