<?xml version="1.0" encoding="UTF-8" standalone="no"?>
<!-- Created with Inkscape (http://www.inkscape.org/) -->
<svg
   xmlns:svg="http://www.w3.org/2000/svg"
   xmlns="http://www.w3.org/2000/svg"
   version="1.0"
   width="24"
   height="24"
   id="svg7384">
  <title
     id="title9167">Moblin Icon Theme</title>
  <defs
     id="defs7386" />
  <g
     transform="translate(566,-950)"
     id="layer3" />
  <g
     transform="translate(566,-950)"
     id="layer5" />
  <g
     transform="translate(566,-950)"
     id="layer7" />
  <g
     transform="translate(566,-950)"
     id="layer2" />
  <g
     transform="translate(566,-950)"
     id="layer8" />
  <g
     transform="translate(566,-1902.3622)"
     id="layer1" />
  <g
     transform="translate(566,-950)"
     id="layer11">
    <rect
       width="24"
       height="24"
       x="542"
       y="950"
       transform="scale(-1,1)"
       id="rect7563"
       style="opacity:0;fill:#ffffff;fill-opacity:1;stroke:none;display:inline" />
    <path
       d="M -544.90625,953.59375 L -545.59375,954.28125 L -553.625,962.15625 L -553.9375,962.46875 L -553.9375,962.875 L -553.9375,964.90625 L -553.9375,965.90625 L -552.9375,965.90625 L -550.9375,965.90625 L -550.53125,965.90625 L -550.21875,965.59375 L -542.28125,957.5625 L -541.59375,956.875 L -542.3125,956.15625 L -544.21875,954.28125 L -544.90625,953.59375 z M -544.90625,956.40625 L -544.40625,956.875 L -551.34375,963.90625 L -551.9375,963.90625 L -551.9375,963.28125 L -544.90625,956.40625 z"
       id="path7565"
       style="fill:#bebebe;fill-opacity:1;stroke:none;stroke-width:1.99999952;stroke-linecap:butt;stroke-linejoin:miter;marker:none;stroke-miterlimit:4;stroke-dasharray:none;stroke-dashoffset:0;stroke-opacity:1;visibility:visible;display:inline;overflow:visible;enable-background:accumulate" />
    <path
       d="M -561.15625,952 C -562.72127,952 -564,953.27875 -564,954.84375 L -564,971.0625 C -564,972.62751 -562.72126,973.90623 -561.15625,973.90625 L -548.84375,973.90625 C -547.27873,973.90625 -546,972.62752 -546,971.0625 L -546,969.78125 C -545.9949,969.42062 -546.18438,969.08518 -546.49588,968.90337 C -546.80737,968.72157 -547.19263,968.72157 -547.50412,968.90337 C -547.81562,969.08518 -548.0051,969.42062 -548,969.78125 L -548,971.0625 C -548,971.55416 -548.35215,971.90625 -548.84375,971.90625 L -561.15625,971.90625 C -561.64785,971.90624 -562,971.55411 -562,971.0625 L -562,954.84375 C -562,954.35217 -561.64785,954 -561.15625,954 L -548.84375,954 C -548.57172,954 -548.34434,954.12763 -548.1875,954.3125 C -547.96369,954.61635 -547.5879,954.76834 -547.21579,954.70552 C -546.84367,954.6427 -546.53861,954.37577 -546.42695,954.01529 C -546.31529,953.6548 -546.41605,953.26216 -546.6875,953 C -547.21056,952.38343 -547.97768,952 -548.84375,952 L -561.15625,952 z"
       id="path7567"
       style="fill:#bebebe;fill-opacity:1;stroke:none;stroke-width:1.99999952;stroke-linecap:round;stroke-linejoin:miter;marker:none;stroke-miterlimit:4;stroke-dashoffset:0;stroke-opacity:1;visibility:visible;display:inline;overflow:visible;enable-background:accumulate" />
    <path
       d="M -563,960 L -563,966 L -555,966 L -555,964 L -559.9375,964 L -559.9375,962.0625 L -555,962.0625 L -555,960 L -563,960 z"
       id="rect7569"
       style="fill:#bebebe;fill-opacity:1;stroke:none;stroke-width:1;marker:none;visibility:visible;display:inline;overflow:visible;enable-background:accumulate" />
    <rect
       width="9.0156116"
       height="1.9445436"
       x="-559.94019"
       y="968"
       id="rect7571"
       style="fill:#bebebe;fill-opacity:1;fill-rule:nonzero;stroke:none;stroke-width:1;marker:none;visibility:visible;display:inline;overflow:visible;enable-background:accumulate" />
    <rect
       width="9.0156116"
       height="1.9445436"
       x="-559.94019"
       y="956"
       id="rect7573"
       style="fill:#bebebe;fill-opacity:1;fill-rule:nonzero;stroke:none;stroke-width:1;marker:none;visibility:visible;display:inline;overflow:visible;enable-background:accumulate" />
  </g>
  <g
     transform="translate(566,-950)"
     id="layer4" />
  <g
     transform="translate(566,-950)"
     id="layer9" />
  <g
     transform="translate(566,-950)"
     id="layer10" />
  <g
     transform="translate(566,-950)"
     id="layer6" />
</svg>
