<?xml version="1.0" encoding="UTF-8" standalone="no"?>
<!-- Created with Inkscape (http://www.inkscape.org/) -->
<svg
   xmlns:svg="http://www.w3.org/2000/svg"
   xmlns="http://www.w3.org/2000/svg"
   version="1.0"
   width="24"
   height="24"
   id="svg7384">
  <title
     id="title9167">Moblin Icon Theme</title>
  <defs
     id="defs7386" />
  <g
     transform="translate(407.99998,-1460.1723)"
     id="layer3" />
  <g
     transform="translate(407.99998,-1460.1723)"
     id="layer5" />
  <g
     transform="translate(407.99998,-1460.1723)"
     id="layer7" />
  <g
     transform="translate(407.99998,-1460.1723)"
     id="layer2" />
  <g
     transform="translate(407.99998,-1460.1723)"
     id="layer8" />
  <g
     transform="translate(407.99998,-2412.5345)"
     id="layer1" />
  <g
     transform="translate(407.99998,-1460.1723)"
     id="layer11">
    <rect
       width="24"
       height="24"
       x="383.99997"
       y="1460.1724"
       transform="scale(-1,1)"
       id="rect8059"
       style="opacity:0;fill:#ffffff;fill-opacity:1;stroke:none;display:inline" />
    <path
       d="M -397.125,1460.25 L -397.28125,1460.875 L -397.53125,1460.3438 C -400.28464,1461.5576 -403.55033,1461.9638 -406.9375,1462.3438 L -407.8125,1462.4375 L -407.84375,1463.3438 L -407.9375,1471.2188 C -407.9375,1475.1526 -405.19992,1478.2933 -402.625,1480.4688 C -400.05008,1482.6442 -397.46875,1483.9062 -397.46875,1483.9062 L -397.03125,1483.0312 L -398.03125,1482.9688 C -398.03125,1482.9688 -394.00376,1482.6562 -391.40625,1480.4688 C -388.80874,1478.2813 -386.0625,1475.0987 -386.0625,1471.125 L -386.0625,1463.1562 L -386.0625,1462.2188 L -387.03125,1462.1562 C -390.74654,1461.9737 -394.49494,1461.5915 -396.625,1460.375 L -396.96875,1460.9688 L -397.125,1460.25 z M -397.21875,1462.3125 C -394.69678,1463.6008 -391.36323,1463.8807 -388.0625,1464.0625 L -388.0625,1471.125 C -388.0625,1474.1488 -390.29936,1476.9264 -392.6875,1478.9375 C -394.72042,1480.6495 -396.47014,1481.5827 -397.03125,1481.875 C -397.58084,1481.5869 -399.32322,1480.6446 -401.34375,1478.9375 C -403.71079,1476.9376 -405.9375,1474.1997 -405.9375,1471.2188 L -405.84375,1464.2188 C -402.89854,1463.8779 -399.94416,1463.4184 -397.21875,1462.3125 z"
       id="path8077"
       style="fill:#bebebe;fill-opacity:1;stroke:none;stroke-width:2.00000048;stroke-linecap:round;stroke-linejoin:miter;marker:none;stroke-miterlimit:4;stroke-dasharray:none;stroke-dashoffset:0;stroke-opacity:1;visibility:visible;display:inline;overflow:visible;enable-background:accumulate" />
  </g>
  <g
     transform="translate(407.99998,-1460.1723)"
     id="layer4" />
  <g
     transform="translate(407.99998,-1460.1723)"
     id="layer12" />
  <g
     transform="translate(407.99998,-1460.1723)"
     id="layer9" />
  <g
     transform="translate(407.99998,-1460.1723)"
     id="layer10" />
  <g
     transform="translate(407.99998,-1460.1723)"
     id="layer6" />
</svg>
