<?xml version="1.0" encoding="UTF-8" standalone="no"?>
<!-- Created with Inkscape (http://www.inkscape.org/) -->
<svg
   xmlns:svg="http://www.w3.org/2000/svg"
   xmlns="http://www.w3.org/2000/svg"
   version="1.0"
   width="24"
   height="24"
   id="svg7384">
  <title
     id="title9167">Moblin Icon Theme</title>
  <defs
     id="defs7386" />
  <g
     transform="translate(589.99998,-1490)"
     id="layer3" />
  <g
     transform="translate(589.99998,-1490)"
     id="layer5" />
  <g
     transform="translate(589.99998,-1490)"
     id="layer7" />
  <g
     transform="translate(589.99998,-1490)"
     id="layer2" />
  <g
     transform="translate(589.99998,-1490)"
     id="layer8" />
  <g
     transform="translate(589.99998,-2442.3622)"
     id="layer1" />
  <g
     transform="translate(589.99998,-1490)"
     id="layer11">
    <rect
       width="24"
       height="24"
       x="566"
       y="1490"
       transform="scale(-1,1)"
       id="rect8123"
       style="opacity:0;fill:#ffffff;fill-opacity:1;stroke:none;display:inline" />
    <path
       d="M -579.25,1490 L -579.46875,1490.0938 C -582.23756,1491.3144 -585.53252,1491.7431 -588.9375,1492.125 L -589.8125,1492.2188 L -589.8125,1493.125 L -589.90625,1501.0312 C -589.90626,1504.9834 -587.18166,1508.1573 -584.59375,1510.3438 C -582.00584,1512.5302 -579.40625,1513.8125 -579.40625,1513.8125 L -578.4375,1514.2812 L -578.03125,1513.25 C -578.03125,1513.25 -575.92316,1512.5422 -573.3125,1510.3438 C -570.70184,1508.1453 -567.96875,1504.9297 -567.96875,1500.9375 L -567.96875,1492.9375 L -567.96875,1492 L -568.90625,1491.9375 C -572.64137,1491.7539 -576.41956,1491.3802 -578.5625,1490.1562 L -578.75,1490.0312 L -578.96875,1490.0312 L -579.25,1490 z M -579.09375,1492.0625 C -576.57188,1493.3342 -573.25844,1493.6617 -569.96875,1493.8438 L -569.96875,1500.9375 C -569.96875,1503.9796 -572.22372,1506.7904 -574.625,1508.8125 C -576.67476,1510.5386 -578.41124,1511.4599 -578.96875,1511.75 C -579.52135,1511.4604 -581.28088,1510.529 -583.3125,1508.8125 C -585.69253,1506.8017 -587.90626,1504.0304 -587.90625,1501.0312 L -587.8125,1494 C -584.83637,1493.655 -581.84296,1493.1908 -579.09375,1492.0625 z"
       id="path8126"
       style="fill:#bebebe;fill-opacity:1;stroke:none;stroke-width:2.00000048;stroke-linecap:round;stroke-linejoin:miter;marker:none;stroke-miterlimit:4;stroke-dasharray:none;stroke-dashoffset:0;stroke-opacity:1;visibility:visible;display:inline;overflow:visible;enable-background:accumulate" />
    <path
       d="M -577.09375,1500.7812 C -577.38661,1500.7903 -577.66075,1500.9274 -577.84375,1501.1562 L -581.90625,1506.1562 C -582.26007,1506.5877 -582.19712,1507.2243 -581.76565,1507.5781 C -581.33418,1507.9319 -580.69757,1507.869 -580.34375,1507.4375 L -576.28125,1502.4375 C -576.01609,1502.134 -575.95905,1501.7009 -576.13655,1501.3391 C -576.31406,1500.9772 -576.69142,1500.7573 -577.09375,1500.7812 z"
       id="path8128"
       style="fill:#bebebe;fill-opacity:1;stroke:none;stroke-width:2.00000048;stroke-linecap:round;stroke-linejoin:miter;marker:none;stroke-miterlimit:4;stroke-dasharray:none;stroke-dashoffset:0;stroke-opacity:1;visibility:visible;display:inline;overflow:visible;enable-background:accumulate" />
    <path
       d="M -573.11005,1497.5965 L -575.77646,1498.2982 L -576.53092,1500.8907 L -578.0222,1498.5716 L -580.721,1498.6552 L -578.97625,1496.5203 L -579.88974,1493.9794 L -577.32014,1494.9791 L -575.18592,1493.3251 L -575.34257,1496.0778 L -573.11005,1497.5965 z"
       transform="translate(2.2351,1.3814)"
       id="path8130"
       style="fill:#bebebe;fill-opacity:1;stroke:none;stroke-width:2.00000048;marker:none;visibility:visible;display:inline;overflow:visible;enable-background:accumulate" />
  </g>
  <g
     transform="translate(589.99998,-1490)"
     id="layer4" />
  <g
     transform="translate(589.99998,-1490)"
     id="layer12" />
  <g
     transform="translate(589.99998,-1490)"
     id="layer9" />
  <g
     transform="translate(589.99998,-1490)"
     id="layer10" />
  <g
     transform="translate(589.99998,-1490)"
     id="layer6" />
</svg>
