<?xml version="1.0" encoding="UTF-8" standalone="no"?>
<!-- Created with Inkscape (http://www.inkscape.org/) -->
<svg
   xmlns:svg="http://www.w3.org/2000/svg"
   xmlns="http://www.w3.org/2000/svg"
   version="1.0"
   width="24"
   height="24"
   id="svg7384">
  <title
     id="title9167">Moblin Icon Theme</title>
  <defs
     id="defs7386" />
  <g
     transform="translate(433.99998,-1460.1723)"
     id="layer3" />
  <g
     transform="translate(433.99998,-1460.1723)"
     id="layer5" />
  <g
     transform="translate(433.99998,-1460.1723)"
     id="layer7" />
  <g
     transform="translate(433.99998,-1460.1723)"
     id="layer2" />
  <g
     transform="translate(433.99998,-1460.1723)"
     id="layer8" />
  <g
     transform="translate(433.99998,-2412.5345)"
     id="layer1" />
  <g
     transform="translate(433.99998,-1460.1723)"
     id="layer11">
    <rect
       width="24"
       height="24"
       x="409.99997"
       y="1460.1724"
       transform="scale(-1,1)"
       id="rect7228"
       style="opacity:0;fill:#ffffff;fill-opacity:1;stroke:none;display:inline" />
    <g
       transform="translate(-102.9698,1057.1729)"
       id="g7238">
      <path
         d="M -2.8284264,179.43886 A 22.98097,22.98097 0 1 1 -48.790367,179.43886 A 22.98097,22.98097 0 1 1 -2.8284264,179.43886 z"
         transform="matrix(-0.1225327,-0.1222246,0.1227118,-0.1224034,-350.19714,426.78398)"
         id="path7240"
         style="fill:none;stroke:#bebebe;stroke-width:11.54762077;stroke-linecap:round;stroke-miterlimit:4;stroke-dasharray:none;stroke-dashoffset:0;stroke-opacity:1;display:inline" />
      <path
         d="M -9.5593967,195.68886 A 22.98097,22.98097 0 0 1 -42.059397,195.68886"
         transform="matrix(0.1230056,-0.1230056,-0.1231854,-0.1231854,-300.71813,434.93015)"
         id="path7242"
         style="fill:none;stroke:#bebebe;stroke-width:11.48875713;stroke-linecap:round;stroke-miterlimit:4;stroke-dasharray:none;stroke-dashoffset:0;stroke-opacity:1;display:inline" />
      <rect
         width="1.9999995"
         height="5.0000033"
         rx="0.99999976"
         ry="0.9999997"
         x="329"
         y="-420"
         transform="scale(-1,-1)"
         id="rect7244"
         style="fill:#bebebe;fill-opacity:1;stroke:none;display:inline" />
      <rect
         width="1.9999995"
         height="5"
         rx="0.99999976"
         ry="0.99999988"
         x="411"
         y="-327"
         transform="matrix(0,1,1,0,0,0)"
         id="rect7246"
         style="fill:#bebebe;fill-opacity:1;stroke:none;display:inline" />
      <path
         d="M -9.5593967,195.68886 A 22.98097,22.98097 0 0 1 -19.861483,201.63677"
         transform="matrix(-0.1230056,-0.1230056,0.1231854,-0.1231854,-349.30975,434.93015)"
         id="path7248"
         style="fill:none;stroke:#bebebe;stroke-width:11.48875713;stroke-linecap:round;stroke-miterlimit:4;stroke-dasharray:none;stroke-dashoffset:0;stroke-opacity:1;display:inline" />
    </g>
    <path
       d="M -419.0625,1469.9688 C -419.59006,1470.0182 -419.98753,1470.4705 -419.96875,1471 L -419.96875,1483 C -419.97386,1483.3606 -419.78438,1483.6961 -419.47288,1483.8779 C -419.16138,1484.0597 -418.77612,1484.0597 -418.46462,1483.8779 C -418.15312,1483.6961 -417.96364,1483.3606 -417.96875,1483 L -417.96875,1471 C -417.95852,1470.7123 -418.07272,1470.4342 -418.28215,1470.2368 C -418.49159,1470.0393 -418.77594,1469.9417 -419.0625,1469.9688 L -419.0625,1469.9688 z"
       id="path7250"
       style="fill:#bebebe;fill-opacity:1;stroke:none;stroke-width:2.00000048;stroke-linecap:round;stroke-linejoin:miter;marker:none;stroke-miterlimit:4;stroke-dasharray:none;stroke-dashoffset:0;stroke-opacity:1;visibility:visible;display:inline;overflow:visible;enable-background:accumulate" />
    <path
       d="M -425.0625,1476 C -425.61478,1476.0259 -426.04151,1476.4946 -426.01562,1477.0469 C -425.98974,1477.5992 -425.52103,1478.0259 -424.96875,1478 L -412.9375,1478 C -412.57686,1478.0051 -412.24141,1477.8156 -412.0596,1477.5041 C -411.87779,1477.1926 -411.87779,1476.8074 -412.0596,1476.4959 C -412.24141,1476.1844 -412.57686,1475.9949 -412.9375,1476 L -424.96875,1476 C -424.99998,1475.9985 -425.03127,1475.9985 -425.0625,1476 z"
       id="path7283"
       style="fill:#bebebe;fill-opacity:1;stroke:none;stroke-width:2.00000048;stroke-linecap:round;stroke-linejoin:miter;marker:none;stroke-miterlimit:4;stroke-dasharray:none;stroke-dashoffset:0;stroke-opacity:1;visibility:visible;display:inline;overflow:visible;enable-background:accumulate" />
  </g>
  <g
     transform="translate(433.99998,-1460.1723)"
     id="layer4" />
  <g
     transform="translate(433.99998,-1460.1723)"
     id="layer12" />
  <g
     transform="translate(433.99998,-1460.1723)"
     id="layer9" />
  <g
     transform="translate(433.99998,-1460.1723)"
     id="layer10" />
  <g
     transform="translate(433.99998,-1460.1723)"
     id="layer6" />
</svg>
