<?xml version="1.0" encoding="UTF-8" standalone="no"?>
<!-- Created with Inkscape (http://www.inkscape.org/) -->
<svg
   xmlns:svg="http://www.w3.org/2000/svg"
   xmlns="http://www.w3.org/2000/svg"
   version="1.0"
   width="24"
   height="24"
   id="svg7384">
  <title
     id="title9167">Moblin Icon Theme</title>
  <defs
     id="defs7386" />
  <g
     transform="translate(615.99998,-1490)"
     id="layer3" />
  <g
     transform="translate(615.99998,-1490)"
     id="layer5" />
  <g
     transform="translate(615.99998,-1490)"
     id="layer7" />
  <g
     transform="translate(615.99998,-1490)"
     id="layer2" />
  <g
     transform="translate(615.99998,-1490)"
     id="layer8" />
  <g
     transform="translate(615.99998,-2442.3622)"
     id="layer1" />
  <g
     transform="translate(615.99998,-1490)"
     id="layer11">
    <rect
       width="24"
       height="24"
       x="592"
       y="1490"
       transform="scale(-1,1)"
       id="rect8106"
       style="opacity:0;fill:#ffffff;fill-opacity:1;stroke:none;display:inline" />
    <path
       d="M -605.25,1490 L -605.46875,1490.0938 C -608.23756,1491.3144 -611.53252,1491.7431 -614.9375,1492.125 L -615.8125,1492.2188 L -615.8125,1493.125 L -615.90625,1501.0312 C -615.90626,1504.9834 -613.18166,1508.1573 -610.59375,1510.3438 C -608.00584,1512.5302 -605.40625,1513.8125 -605.40625,1513.8125 L -604.4375,1514.2812 L -604.03125,1513.25 C -604.03125,1513.25 -601.92316,1512.5422 -599.3125,1510.3438 C -596.70184,1508.1453 -593.96875,1504.9297 -593.96875,1500.9375 L -593.96875,1492.9375 L -593.96875,1492 L -594.90625,1491.9375 C -598.64137,1491.7539 -602.41956,1491.3802 -604.5625,1490.1562 L -604.75,1490.0312 L -604.96875,1490.0312 L -605.25,1490 z M -605.09375,1492.0625 C -602.57188,1493.3342 -599.25844,1493.6617 -595.96875,1493.8438 L -595.96875,1500.9375 C -595.96875,1503.9796 -598.22372,1506.7904 -600.625,1508.8125 C -602.67476,1510.5386 -604.41124,1511.4599 -604.96875,1511.75 C -605.52135,1511.4604 -607.28088,1510.529 -609.3125,1508.8125 C -611.69253,1506.8017 -613.90626,1504.0304 -613.90625,1501.0312 L -613.8125,1494 C -610.83637,1493.655 -607.84296,1493.1908 -605.09375,1492.0625 z"
       id="path8108"
       style="fill:#bebebe;fill-opacity:1;stroke:none;stroke-width:2.00000048;stroke-linecap:round;stroke-linejoin:miter;marker:none;stroke-miterlimit:4;stroke-dasharray:none;stroke-dashoffset:0;stroke-opacity:1;visibility:visible;display:inline;overflow:visible;enable-background:accumulate" />
    <path
       d="M -607.5,1496.8438 C -609.4217,1496.8438 -611,1498.422 -611,1500.3438 C -611,1502.2655 -609.4217,1503.8438 -607.5,1503.8438 L -602.5,1503.8438 C -600.5783,1503.8438 -599,1502.2655 -599,1500.3438 C -599,1498.422 -600.5783,1496.8438 -602.5,1496.8438 L -607.5,1496.8438 z M -607.5,1498.8438 L -602.5,1498.8438 C -601.6517,1498.8438 -601,1499.4955 -601,1500.3438 C -601,1501.192 -601.6517,1501.8438 -602.5,1501.8438 L -607.5,1501.8438 C -608.3483,1501.8438 -609,1501.192 -609,1500.3438 C -609,1499.4955 -608.3483,1498.8438 -607.5,1498.8438 z"
       id="rect11931-9"
       style="fill:#bebebe;fill-opacity:1;stroke:none;stroke-width:1.99999988;stroke-linecap:round;stroke-linejoin:miter;marker:none;stroke-miterlimit:4;stroke-dasharray:none;stroke-dashoffset:0;stroke-opacity:1;visibility:visible;display:inline;overflow:visible;enable-background:accumulate" />
    <path
       d="M -605.0625,1493.875 C -606.69423,1493.875 -607.93753,1495.3042 -607.9375,1496.9375 L -605.9375,1496.9375 C -605.93751,1496.2856 -605.52017,1495.875 -605.0625,1495.875 L -604.875,1495.875 C -604.41735,1495.875 -604,1496.2856 -604,1496.9375 L -602,1496.9375 C -602,1495.3042 -603.24329,1493.875 -604.875,1493.875 L -605.0625,1493.875 z M -604,1503.8438 L -604,1506.8438 C -604,1507.4956 -604.41733,1507.9062 -604.875,1507.9062 L -605.0625,1507.9062 C -605.5202,1507.9062 -605.9375,1507.4957 -605.9375,1506.8438 L -605.9375,1503.9062 L -607.9375,1503.9062 L -607.9375,1506.8438 C -607.9375,1508.477 -606.6942,1509.9062 -605.0625,1509.9062 L -604.875,1509.9062 C -603.24327,1509.9062 -602,1508.477 -602,1506.8438 L -602,1503.8438 L -604,1503.8438 z"
       id="path12145-8"
       style="fill:#bebebe;fill-opacity:1;stroke:none;stroke-width:1.99999964;stroke-linecap:butt;stroke-linejoin:miter;marker:none;stroke-miterlimit:4;stroke-dashoffset:0;stroke-opacity:1;visibility:visible;display:inline;overflow:visible;enable-background:accumulate" />
  </g>
  <g
     transform="translate(615.99998,-1490)"
     id="layer4" />
  <g
     transform="translate(615.99998,-1490)"
     id="layer12" />
  <g
     transform="translate(615.99998,-1490)"
     id="layer9" />
  <g
     transform="translate(615.99998,-1490)"
     id="layer10" />
  <g
     transform="translate(615.99998,-1490)"
     id="layer6" />
</svg>
