<?xml version="1.0" encoding="UTF-8" standalone="no"?>
<!-- Created with Inkscape (http://www.inkscape.org/) -->
<svg
   xmlns:svg="http://www.w3.org/2000/svg"
   xmlns="http://www.w3.org/2000/svg"
   version="1.0"
   width="24"
   height="24"
   id="svg7384">
  <title
     id="title9167">Moblin Icon Theme</title>
  <defs
     id="defs7386" />
  <g
     transform="translate(538,-1490)"
     id="layer3" />
  <g
     transform="translate(538,-1490)"
     id="layer5" />
  <g
     transform="translate(538,-1490)"
     id="layer7" />
  <g
     transform="translate(538,-1490)"
     id="layer2" />
  <g
     transform="translate(538,-1490)"
     id="layer8" />
  <g
     transform="translate(538,-2442.3622)"
     id="layer1" />
  <g
     transform="translate(538,-1490)"
     id="layer11">
    <g
       transform="translate(-332,1316)"
       id="use8187">
      <title
         id="title12202">office</title>
      <rect
         width="24"
         height="24"
         x="182"
         y="174"
         transform="scale(-1,1)"
         id="rect12204"
         style="opacity:0;fill:#ffffff;fill-opacity:1;stroke:none;display:inline" />
      <path
         d="M -184.90625,179 L -183,180.875 L -190.9375,188.90625 L -192.9375,188.90625 L -192.9375,186.875 L -184.90625,179 z"
         id="path12206"
         style="fill:none;stroke:#bebebe;stroke-width:1.99999952;stroke-linecap:butt;stroke-linejoin:miter;marker:none;stroke-miterlimit:4;stroke-dasharray:none;stroke-dashoffset:0;stroke-opacity:1;visibility:visible;display:inline;overflow:visible;enable-background:accumulate" />
      <path
         d="M -187,189.97934 L -187,191.25475 C -187,192.28306 -187.82784,193.11091 -188.85615,193.11091 L -201.14385,193.11091 C -202.17216,193.11091 -203,192.28306 -203,191.25475 L -203,178.85616 C -203,177.82785 -202.17216,177 -201.14385,177 L -188.85615,177 C -188.28709,177 -187.77942,177.25353 -187.43947,177.65425"
         id="path12208"
         style="fill:none;stroke:#bebebe;stroke-width:1.99999952;stroke-linecap:round;stroke-linejoin:miter;marker:none;stroke-miterlimit:4;stroke-dashoffset:0;stroke-opacity:1;visibility:visible;display:inline;overflow:visible;enable-background:accumulate" />
    </g>
  </g>
  <g
     transform="translate(538,-1490)"
     id="layer4" />
  <g
     transform="translate(538,-1490)"
     id="layer12" />
  <g
     transform="translate(538,-1490)"
     id="layer9" />
  <g
     transform="translate(538,-1490)"
     id="layer10" />
  <g
     transform="translate(538,-1490)"
     id="layer6" />
</svg>
