<?xml version="1.0" encoding="UTF-8" standalone="no"?>
<!-- Created with Inkscape (http://www.inkscape.org/) -->
<svg
   xmlns:svg="http://www.w3.org/2000/svg"
   xmlns="http://www.w3.org/2000/svg"
   version="1.0"
   width="24"
   height="24"
   id="svg7384">
  <title
     id="title9167">Moblin Icon Theme</title>
  <defs
     id="defs7386" />
  <g
     transform="translate(-51.999955,-661.99993)"
     id="layer3" />
  <g
     transform="translate(-51.999955,-661.99993)"
     id="layer5" />
  <g
     transform="translate(-51.999955,-661.99993)"
     id="layer7" />
  <g
     transform="translate(-51.999955,-661.99993)"
     id="layer2" />
  <g
     transform="translate(-51.999955,-661.99993)"
     id="layer8" />
  <g
     transform="translate(-51.999955,-1614.3621)"
     id="layer1" />
  <g
     transform="translate(-51.999955,-661.99993)"
     id="layer11">
    <rect
       width="24"
       height="24"
       x="-75.999954"
       y="661.99994"
       transform="scale(-1,1)"
       id="rect6260"
       style="opacity:0;fill:#ffffff;fill-opacity:1;stroke:none;display:inline" />
    <path
       d="M 63.90625,669 C 63.353965,669.02589 62.927237,669.49459 62.953125,670.04688 C 62.979013,670.59916 63.447715,671.02589 64,671 C 67.322937,671 70,673.67706 70,677 C 70,680.32294 67.322937,683 64,683 C 60.677063,683 58,680.32294 58,677 C 58,675.8655 58.2459,674.98288 58.8125,674 C 59.088642,673.51675 58.920749,672.90114 58.4375,672.625 C 57.954251,672.34886 57.338642,672.51675 57.0625,673 C 56.344195,674.24604 56,675.56174 56,677 C 56,681.40506 59.594937,685 64,685 C 68.405063,685 72,681.40506 72,677 C 72,672.59494 68.405063,669 64,669 C 63.968767,668.99853 63.937483,668.99853 63.90625,669 L 63.90625,669 z"
       id="path6270"
       style="fill:#bebebe;fill-opacity:1;stroke:none;stroke-width:2;stroke-linecap:round;stroke-linejoin:round;marker:none;stroke-miterlimit:4;stroke-dasharray:none;stroke-dashoffset:0;stroke-opacity:1;visibility:visible;display:inline;overflow:visible;enable-background:accumulate" />
    <path
       d="M 63.999944,672.9955 C 61.802857,672.9955 59.995422,674.80294 59.995422,677.00003 C 59.995422,679.19711 61.802857,681.00455 63.999944,681.00455 C 66.197031,681.00455 68.004466,679.19711 68.004466,677.00003 C 68.004466,674.80294 66.197031,672.9955 63.999944,672.9955 z M 63.999944,675.00446 C 65.114905,675.00446 65.995508,675.88506 65.995508,677.00003 C 65.995508,678.11499 65.114905,678.99559 63.999944,678.99559 C 62.884983,678.99559 62.00438,678.11499 62.00438,677.00003 C 62.00438,675.88506 62.884983,675.00446 63.999944,675.00446 z"
       id="path6272"
       style="fill:#bebebe;fill-opacity:1;stroke:none;stroke-width:4.66659975;stroke-linecap:round;stroke-linejoin:round;marker:none;stroke-miterlimit:4;stroke-dasharray:none;stroke-dashoffset:0;stroke-opacity:1;visibility:visible;display:inline;overflow:visible;enable-background:accumulate" />
    <path
       d="M 60.875,662 C 60.651058,662.02421 60.441847,662.12331 60.28125,662.28125 L 56.28125,666.28125 C 55.884295,666.6782 55.884295,667.3218 56.28125,667.71875 C 56.678205,668.1157 57.321795,668.1157 57.71875,667.71875 L 60,665.4375 L 60,677 C 59.9949,677.36064 60.184375,677.69608 60.495873,677.87789 C 60.80737,678.05969 61.19263,678.05969 61.504127,677.87789 C 61.815625,677.69608 62.0051,677.36064 62,677 L 62,663 C 62.00223,662.71164 61.879886,662.43636 61.66436,662.24478 C 61.448834,662.0532 61.161105,661.96398 60.875,662 L 60.875,662 z"
       id="path6274"
       style="fill:#bebebe;fill-opacity:1;stroke:none;stroke-width:2;stroke-linecap:round;stroke-linejoin:round;marker:none;stroke-opacity:1;visibility:visible;display:inline;overflow:visible;enable-background:accumulate" />
  </g>
  <g
     transform="translate(-51.999955,-661.99993)"
     id="layer4" />
  <g
     transform="translate(-51.999955,-661.99993)"
     id="layer9" />
  <g
     transform="translate(-51.999955,-661.99993)"
     id="layer10" />
  <g
     transform="translate(-51.999955,-661.99993)"
     id="layer6" />
</svg>
