<?xml version="1.0" encoding="UTF-8" standalone="no"?>
<!-- Created with Inkscape (http://www.inkscape.org/) -->
<svg
   xmlns:svg="http://www.w3.org/2000/svg"
   xmlns="http://www.w3.org/2000/svg"
   version="1.0"
   width="24.000004"
   height="24"
   id="svg7384">
  <title
     id="title9167">Moblin Icon Theme</title>
  <defs
     id="defs7386" />
  <g
     transform="translate(510,-1094)"
     id="layer3" />
  <g
     transform="translate(510,-1094)"
     id="layer5" />
  <g
     transform="translate(510,-1094)"
     id="layer7" />
  <g
     transform="translate(510,-1094)"
     id="layer2" />
  <g
     transform="translate(510,-1094)"
     id="layer8" />
  <g
     transform="translate(510,-2046.3622)"
     id="layer1" />
  <g
     transform="translate(510,-1094)"
     id="layer11">
    <rect
       width="24"
       height="24"
       x="-510"
       y="1094"
       id="rect10459-3"
       style="opacity:0;fill:#ffffff;fill-opacity:1;stroke:none;display:inline" />
    <path
       d="M -504.9375,1096 C -506.65142,1096 -508.06248,1097.411 -508.0625,1099.125 L -508.0625,1112.875 C -508.0625,1114.5889 -506.65146,1116 -504.9375,1116 L -491.1875,1116 C -489.47352,1116 -488.06248,1114.5889 -488.0625,1112.875 L -488.0625,1109.0312 C -488.0574,1108.6706 -488.24688,1108.3351 -488.55837,1108.1533 C -488.86987,1107.9715 -489.25513,1107.9715 -489.56663,1108.1533 C -489.87812,1108.3351 -490.0676,1108.6706 -490.0625,1109.0312 L -490.0625,1112.875 C -490.06249,1113.5154 -490.54698,1114 -491.1875,1114 L -504.9375,1114 C -505.57801,1114 -506.0625,1113.5155 -506.0625,1112.875 L -506.0625,1099.125 C -506.06249,1098.4843 -505.57808,1098 -504.9375,1098 C -503.49508,1098.1912 -502.03077,1098.0095 -500.875,1098 C -500.32272,1097.9914 -499.882,1097.5367 -499.89062,1096.9844 C -499.89925,1096.4321 -500.35397,1095.9914 -500.90625,1096 C -502.28805,1096.0113 -503.69641,1096.1668 -504.78125,1096 L -504.875,1096 L -504.9375,1096 z"
       id="rect10461-3"
       style="fill:#bebebe;fill-opacity:1;stroke:none;stroke-width:2;stroke-linecap:round;marker:none;stroke-miterlimit:4;stroke-opacity:1;visibility:visible;display:inline;overflow:visible;enable-background:new" />
    <path
       d="M -503.6875,1109 C -503.91409,1109.0584 -504.06988,1109.2661 -504.0625,1109.5 L -504.0625,1112.3438 C -504.06505,1112.5241 -503.97031,1112.6918 -503.81456,1112.7827 C -503.65881,1112.8736 -503.46619,1112.8736 -503.31044,1112.7827 C -503.15469,1112.6918 -503.05995,1112.5241 -503.0625,1112.3438 L -503.0625,1109.5 C -503.0575,1109.3426 -503.12694,1109.192 -503.24992,1109.0936 C -503.37289,1108.9953 -503.53503,1108.9606 -503.6875,1109 L -503.6875,1109 z"
       id="path10463-0"
       style="fill:#bebebe;fill-opacity:1;fill-rule:nonzero;stroke:none;stroke-width:1;stroke-linecap:round;stroke-linejoin:miter;marker:none;stroke-miterlimit:4;stroke-dasharray:none;stroke-dashoffset:0;stroke-opacity:1;visibility:visible;display:inline;overflow:visible;enable-background:new" />
    <path
       d="M -501.6875,1109 C -501.91409,1109.0584 -502.06988,1109.2661 -502.0625,1109.5 L -502.0625,1112.3438 C -502.06505,1112.5241 -501.97031,1112.6918 -501.81456,1112.7827 C -501.65881,1112.8736 -501.46619,1112.8736 -501.31044,1112.7827 C -501.15469,1112.6918 -501.05995,1112.5241 -501.0625,1112.3438 L -501.0625,1109.5 C -501.0575,1109.3426 -501.12694,1109.192 -501.24992,1109.0936 C -501.37289,1108.9953 -501.53503,1108.9606 -501.6875,1109 z"
       id="path10467-1"
       style="fill:#bebebe;fill-opacity:1;fill-rule:nonzero;stroke:none;stroke-width:1;stroke-linecap:round;stroke-linejoin:miter;marker:none;stroke-miterlimit:4;stroke-dasharray:none;stroke-dashoffset:0;stroke-opacity:1;visibility:visible;display:inline;overflow:visible;enable-background:new" />
    <path
       d="M -499.6875,1109 C -499.91409,1109.0584 -500.06988,1109.2661 -500.0625,1109.5 L -500.0625,1112.3438 C -500.06505,1112.5241 -499.97031,1112.6918 -499.81456,1112.7827 C -499.65881,1112.8736 -499.46619,1112.8736 -499.31044,1112.7827 C -499.15469,1112.6918 -499.05995,1112.5241 -499.0625,1112.3438 L -499.0625,1109.5 C -499.0575,1109.3426 -499.12694,1109.192 -499.24992,1109.0936 C -499.37289,1108.9953 -499.53503,1108.9606 -499.6875,1109 L -499.6875,1109 z"
       id="path10469-5"
       style="fill:#bebebe;fill-opacity:1;fill-rule:nonzero;stroke:none;stroke-width:1;stroke-linecap:round;stroke-linejoin:miter;marker:none;stroke-miterlimit:4;stroke-dasharray:none;stroke-dashoffset:0;stroke-opacity:1;visibility:visible;display:inline;overflow:visible;enable-background:new" />
    <path
       d="M -497.6875,1109 C -497.91409,1109.0584 -498.06988,1109.2661 -498.0625,1109.5 L -498.0625,1112.3438 C -498.06505,1112.5241 -497.97031,1112.6918 -497.81456,1112.7827 C -497.65881,1112.8736 -497.46619,1112.8736 -497.31044,1112.7827 C -497.15469,1112.6918 -497.05995,1112.5241 -497.0625,1112.3438 L -497.0625,1109.5 C -497.0575,1109.3426 -497.12694,1109.192 -497.24992,1109.0936 C -497.37289,1108.9953 -497.53503,1108.9606 -497.6875,1109 L -497.6875,1109 z"
       id="path10471-9"
       style="fill:#bebebe;fill-opacity:1;fill-rule:nonzero;stroke:none;stroke-width:1;stroke-linecap:round;stroke-linejoin:miter;marker:none;stroke-miterlimit:4;stroke-dasharray:none;stroke-dashoffset:0;stroke-opacity:1;visibility:visible;display:inline;overflow:visible;enable-background:new" />
    <path
       d="M -492.94301,1094.1148 C -496.76569,1094.1148 -499.89314,1097.2236 -499.89314,1101.0462 C -499.89314,1104.8689 -496.76567,1107.9963 -492.94301,1107.9963 C -489.12034,1107.9963 -485.99289,1104.8689 -485.99289,1101.0462 C -485.99831,1100.4943 -486.44984,1100.0511 -487.00178,1100.056 L -491.95281,1100.056 L -491.95281,1095.105 L -492.94301,1095.105 C -492.76816,1094.7981 -492.76816,1094.4217 -492.94301,1094.1148 z M -493.9519,1096.3194 L -493.9519,1101.0462 C -493.95427,1101.3145 -493.84874,1101.5725 -493.65902,1101.7622 C -493.4693,1101.9519 -493.21131,1102.0575 -492.94301,1102.0551 L -488.1975,1102.0551 C -488.67118,1104.2942 -490.55834,1105.9973 -492.94301,1105.9973 C -495.68356,1105.9972 -497.89405,1103.7868 -497.89405,1101.0462 C -497.89405,1098.6649 -496.18624,1096.7966 -493.9519,1096.3194 z"
       id="path16046-2"
       style="fill:#bebebe;fill-opacity:1;stroke:none;stroke-width:3.34526253;stroke-linecap:round;stroke-linejoin:round;marker:none;stroke-miterlimit:4;stroke-dasharray:none;stroke-dashoffset:0;stroke-opacity:1;visibility:visible;display:inline;overflow:visible;enable-background:accumulate" />
  </g>
  <g
     transform="translate(510,-1094)"
     id="layer4" />
  <g
     transform="translate(510,-1094)"
     id="layer9" />
  <g
     transform="translate(510,-1094)"
     id="layer10" />
  <g
     transform="translate(510,-1094)"
     id="layer6" />
</svg>
