<?xml version="1.0" encoding="UTF-8" standalone="no"?>
<!-- Created with Inkscape (http://www.inkscape.org/) -->
<svg
   xmlns:svg="http://www.w3.org/2000/svg"
   xmlns="http://www.w3.org/2000/svg"
   version="1.0"
   width="24.000004"
   height="24"
   id="svg7384">
  <title
     id="title9167">Moblin Icon Theme</title>
  <defs
     id="defs7386" />
  <g
     transform="translate(509.99995,-1044)"
     id="layer3" />
  <g
     transform="translate(509.99995,-1044)"
     id="layer5" />
  <g
     transform="translate(509.99995,-1044)"
     id="layer7" />
  <g
     transform="translate(509.99995,-1044)"
     id="layer2" />
  <g
     transform="translate(509.99995,-1044)"
     id="layer8" />
  <g
     transform="translate(509.99995,-1996.3622)"
     id="layer1" />
  <g
     transform="translate(509.99995,-1044)"
     id="layer11">
    <rect
       width="24"
       height="24"
       x="-509.99994"
       y="1044"
       id="rect10459-3"
       style="opacity:0;fill:#ffffff;fill-opacity:1;stroke:none;display:inline" />
    <path
       d="M -504.9375,1046 C -506.65142,1046 -508.0625,1047.411 -508.0625,1049.125 L -508.0625,1062.875 C -508.0625,1064.5889 -506.65147,1066 -504.9375,1066 L -491.1875,1066 C -489.47352,1066 -488.0625,1064.5889 -488.0625,1062.875 L -488.0625,1059.0312 C -488.0574,1058.6706 -488.24688,1058.3351 -488.55837,1058.1533 C -488.86987,1057.9715 -489.25513,1057.9715 -489.56663,1058.1533 C -489.87812,1058.3351 -490.0676,1058.6706 -490.0625,1059.0312 L -490.0625,1062.875 C -490.0625,1063.5154 -490.54698,1064 -491.1875,1064 L -504.9375,1064 C -505.57802,1064 -506.0625,1063.5155 -506.0625,1062.875 L -506.0625,1049.125 C -506.0625,1048.4843 -505.57808,1048 -504.9375,1048 C -503.49509,1048.1912 -502.03077,1048.0095 -500.875,1048 C -500.32272,1047.9914 -499.882,1047.5367 -499.89062,1046.9844 C -499.89925,1046.4321 -500.35397,1045.9914 -500.90625,1046 C -502.28805,1046.0113 -503.69643,1046.1668 -504.78125,1046 L -504.875,1046 L -504.9375,1046 z"
       id="rect10461-3"
       style="fill:#bebebe;fill-opacity:1;stroke:none;stroke-width:2;stroke-linecap:round;marker:none;stroke-miterlimit:4;stroke-opacity:1;visibility:visible;display:inline;overflow:visible;enable-background:new" />
    <path
       d="M -503.6875,1059 C -503.91409,1059.0584 -504.06988,1059.2661 -504.0625,1059.5 L -504.0625,1062.3438 C -504.06505,1062.5241 -503.97031,1062.6918 -503.81456,1062.7827 C -503.65881,1062.8736 -503.46619,1062.8736 -503.31044,1062.7827 C -503.15469,1062.6918 -503.05995,1062.5241 -503.0625,1062.3438 L -503.0625,1059.5 C -503.0575,1059.3426 -503.12694,1059.192 -503.24992,1059.0936 C -503.37289,1058.9953 -503.53503,1058.9606 -503.6875,1059 z"
       id="path10463-0"
       style="fill:#bebebe;fill-opacity:1;fill-rule:nonzero;stroke:none;stroke-width:1;stroke-linecap:round;stroke-linejoin:miter;marker:none;stroke-miterlimit:4;stroke-dasharray:none;stroke-dashoffset:0;stroke-opacity:1;visibility:visible;display:inline;overflow:visible;enable-background:new" />
    <path
       d="M -501.6875,1059 C -501.91409,1059.0584 -502.06988,1059.2661 -502.0625,1059.5 L -502.0625,1062.3438 C -502.06505,1062.5241 -501.97031,1062.6918 -501.81456,1062.7827 C -501.65881,1062.8736 -501.46619,1062.8736 -501.31044,1062.7827 C -501.15469,1062.6918 -501.05995,1062.5241 -501.0625,1062.3438 L -501.0625,1059.5 C -501.0575,1059.3426 -501.12694,1059.192 -501.24992,1059.0936 C -501.37289,1058.9953 -501.53503,1058.9606 -501.6875,1059 L -501.6875,1059 z"
       id="path10467-1"
       style="fill:#bebebe;fill-opacity:1;fill-rule:nonzero;stroke:none;stroke-width:1;stroke-linecap:round;stroke-linejoin:miter;marker:none;stroke-miterlimit:4;stroke-dasharray:none;stroke-dashoffset:0;stroke-opacity:1;visibility:visible;display:inline;overflow:visible;enable-background:new" />
    <path
       d="M -499.6875,1059 C -499.91409,1059.0584 -500.06988,1059.2661 -500.0625,1059.5 L -500.0625,1062.3438 C -500.06505,1062.5241 -499.97031,1062.6918 -499.81456,1062.7827 C -499.65881,1062.8736 -499.46619,1062.8736 -499.31044,1062.7827 C -499.15469,1062.6918 -499.05995,1062.5241 -499.0625,1062.3438 L -499.0625,1059.5 C -499.0575,1059.3426 -499.12694,1059.192 -499.24992,1059.0936 C -499.37289,1058.9953 -499.53503,1058.9606 -499.6875,1059 z"
       id="path10469-5"
       style="fill:#bebebe;fill-opacity:1;fill-rule:nonzero;stroke:none;stroke-width:1;stroke-linecap:round;stroke-linejoin:miter;marker:none;stroke-miterlimit:4;stroke-dasharray:none;stroke-dashoffset:0;stroke-opacity:1;visibility:visible;display:inline;overflow:visible;enable-background:new" />
    <path
       d="M -497.6875,1059 C -497.91409,1059.0584 -498.06988,1059.2661 -498.0625,1059.5 L -498.0625,1062.3438 C -498.06505,1062.5241 -497.97031,1062.6918 -497.81456,1062.7827 C -497.65881,1062.8736 -497.46619,1062.8736 -497.31044,1062.7827 C -497.15469,1062.6918 -497.05995,1062.5241 -497.0625,1062.3438 L -497.0625,1059.5 C -497.0575,1059.3426 -497.12694,1059.192 -497.24992,1059.0936 C -497.37289,1058.9953 -497.53503,1058.9606 -497.6875,1059 z"
       id="path10471-9"
       style="fill:#bebebe;fill-opacity:1;fill-rule:nonzero;stroke:none;stroke-width:1;stroke-linecap:round;stroke-linejoin:miter;marker:none;stroke-miterlimit:4;stroke-dasharray:none;stroke-dashoffset:0;stroke-opacity:1;visibility:visible;display:inline;overflow:visible;enable-background:new" />
    <path
       d="M -492.94296,1044.1148 C -496.76564,1044.1148 -499.89309,1047.2236 -499.89309,1051.0462 C -499.89309,1054.8689 -496.76562,1057.9963 -492.94296,1057.9963 C -489.12029,1057.9963 -485.99284,1054.8689 -485.99284,1051.0462 C -485.99826,1050.4943 -486.44979,1050.0511 -487.00173,1050.056 L -491.95276,1050.056 L -491.95276,1045.105 L -492.94296,1045.105 C -492.76811,1044.7981 -492.76811,1044.4217 -492.94296,1044.1148 z M -493.95185,1046.3194 L -493.95185,1051.0462 C -493.95422,1051.3145 -493.84869,1051.5725 -493.65897,1051.7622 C -493.46925,1051.9519 -493.21126,1052.0575 -492.94296,1052.0551 L -488.19745,1052.0551 C -488.67113,1054.2942 -490.55829,1055.9973 -492.94296,1055.9973 C -495.68351,1055.9972 -497.894,1053.7868 -497.894,1051.0462 C -497.894,1048.6649 -496.18619,1046.7966 -493.95185,1046.3194 z"
       id="path16046-2"
       style="fill:#bebebe;fill-opacity:1;stroke:none;stroke-width:3.34526253;stroke-linecap:round;stroke-linejoin:round;marker:none;stroke-miterlimit:4;stroke-dasharray:none;stroke-dashoffset:0;stroke-opacity:1;visibility:visible;display:inline;overflow:visible;enable-background:accumulate" />
  </g>
  <g
     transform="translate(509.99995,-1044)"
     id="layer4" />
  <g
     transform="translate(509.99995,-1044)"
     id="layer12" />
  <g
     transform="translate(509.99995,-1044)"
     id="layer9" />
  <g
     transform="translate(509.99995,-1044)"
     id="layer10" />
  <g
     transform="translate(509.99995,-1044)"
     id="layer6" />
</svg>
