<?xml version="1.0" encoding="UTF-8" standalone="no"?>
<!-- Created with Inkscape (http://www.inkscape.org/) -->
<svg
   xmlns:svg="http://www.w3.org/2000/svg"
   xmlns="http://www.w3.org/2000/svg"
   version="1.0"
   width="24"
   height="24"
   id="svg7384">
  <title
     id="title9167">Moblin Icon Theme</title>
  <defs
     id="defs7386" />
  <g
     transform="translate(426,-1284)"
     id="layer3" />
  <g
     transform="translate(426,-1284)"
     id="layer5" />
  <g
     transform="translate(426,-1284)"
     id="layer7" />
  <g
     transform="translate(426,-1284)"
     id="layer2" />
  <g
     transform="translate(426,-1284)"
     id="layer8" />
  <g
     transform="translate(426,-2236.3622)"
     id="layer1" />
  <g
     transform="translate(426,-1284)"
     id="layer11">
    <rect
       width="24"
       height="24"
       x="402"
       y="1284"
       transform="scale(-1,1)"
       id="rect13190"
       style="opacity:0;fill:#ffffff;fill-opacity:1;stroke:none;display:inline" />
    <path
       d="M -414.05132,1289.9982 C -417.37343,1289.9982 -420.08256,1292.7074 -420.08257,1296.0295 C -420.08257,1299.3516 -417.37346,1302.0608 -414.05132,1302.0608 C -410.72921,1302.0608 -407.98883,1299.3516 -407.98882,1296.0295 C -407.98882,1292.7074 -410.72918,1289.9982 -414.05132,1289.9982 z M -414.05132,1291.9982 C -411.81135,1291.9982 -409.98882,1293.7895 -409.98882,1296.0295 C -409.98883,1298.2695 -411.81133,1300.0608 -414.05132,1300.0608 C -416.29129,1300.0608 -418.08257,1298.2695 -418.08257,1296.0295 C -418.08256,1293.7895 -416.29131,1291.9982 -414.05132,1291.9982 z"
       id="path13212"
       style="fill:#bebebe;fill-opacity:1;stroke:none;stroke-width:2;stroke-linecap:round;stroke-linejoin:miter;marker:none;stroke-miterlimit:4;stroke-dasharray:none;stroke-dashoffset:0;stroke-opacity:1;visibility:visible;display:inline;overflow:visible;enable-background:accumulate" />
    <path
       d="M -416.11831,1303.7492 C -416.67091,1303.7032 -417.15621,1304.1138 -417.20226,1304.6664 C -417.24831,1305.219 -416.83767,1305.7043 -416.28507,1305.7504 C -414.71994,1306.1115 -413.2313,1306.0773 -411.67131,1305.6949 C -411.30288,1305.636 -410.99788,1305.3769 -410.88018,1305.0228 C -410.76247,1304.6688 -410.85164,1304.2786 -411.11147,1304.0109 C -411.3713,1303.7431 -411.75857,1303.6422 -412.11601,1303.7492 C -413.41402,1304.0676 -414.53813,1304.1054 -415.84037,1303.8049 C -415.9299,1303.7733 -416.02349,1303.7545 -416.11831,1303.7492 z"
       id="path13222"
       style="fill:#bebebe;fill-opacity:1;stroke:none;stroke-width:1.12435389;stroke-linecap:round;stroke-linejoin:miter;marker:none;stroke-miterlimit:4;stroke-dasharray:none;stroke-dashoffset:0;stroke-opacity:1;visibility:visible;display:inline;overflow:visible;enable-background:accumulate" />
    <path
       d="M -407.00522,1285.9945 C -408.65028,1285.9945 -409.99489,1287.3516 -409.99489,1288.9966 C -409.99489,1290.6416 -408.6503,1291.9987 -407.00522,1291.9987 C -405.36017,1291.9987 -404.00316,1290.6416 -404.00315,1288.9966 C -404.00315,1287.3516 -405.36015,1285.9945 -407.00522,1285.9945 z M -407.00522,1288.0042 C -406.44232,1288.0042 -406.0004,1288.4337 -406.0004,1288.9966 C -406.0004,1289.5595 -406.4423,1290.0015 -407.00522,1290.0015 C -407.56813,1290.0015 -407.99765,1289.5595 -407.99765,1288.9966 C -407.99764,1288.4337 -407.56815,1288.0042 -407.00522,1288.0042 z"
       id="path13224"
       style="fill:#bebebe;fill-opacity:1;stroke:none;stroke-width:5.03818083;stroke-linecap:round;stroke-linejoin:miter;marker:none;stroke-miterlimit:4;stroke-dasharray:none;stroke-dashoffset:0;stroke-opacity:1;visibility:visible;display:inline;overflow:visible;enable-background:accumulate" />
    <path
       d="M -421.00522,1299.9945 C -422.65028,1299.9945 -423.99489,1301.3516 -423.99489,1302.9966 C -423.99489,1304.6416 -422.6503,1305.9987 -421.00522,1305.9987 C -419.36017,1305.9987 -418.00316,1304.6416 -418.00315,1302.9966 C -418.00315,1301.3516 -419.36015,1299.9945 -421.00522,1299.9945 z M -421.00522,1302.0042 C -420.44232,1302.0042 -420.0004,1302.4337 -420.0004,1302.9966 C -420.0004,1303.5595 -420.4423,1304.0015 -421.00522,1304.0015 C -421.56813,1304.0015 -421.99765,1303.5595 -421.99765,1302.9966 C -421.99764,1302.4337 -421.56815,1302.0042 -421.00522,1302.0042 z"
       id="path13226"
       style="fill:#bebebe;fill-opacity:1;stroke:none;stroke-width:5.03818083;stroke-linecap:round;stroke-linejoin:miter;marker:none;stroke-miterlimit:4;stroke-dasharray:none;stroke-dashoffset:0;stroke-opacity:1;visibility:visible;display:inline;overflow:visible;enable-background:accumulate" />
    <path
       d="M -422.63074,1299.0345 C -422.35171,1298.9953 -422.10213,1298.8403 -421.94339,1298.6075 C -421.78465,1298.3747 -421.73147,1298.0858 -421.79693,1297.8117 C -422.09463,1296.5498 -422.08162,1295.4632 -421.79693,1294.1984 C -421.68965,1293.8409 -421.79039,1293.4534 -422.05821,1293.1934 C -422.32603,1292.9334 -422.71635,1292.8442 -423.07053,1292.962 C -423.4247,1293.0799 -423.68379,1293.3851 -423.74249,1293.7537 C -424.08457,1295.2734 -424.10017,1296.7402 -423.74249,1298.2564 C -423.63144,1298.766 -423.1475,1299.1046 -422.63074,1299.0345 z"
       id="path13228"
       style="fill:#bebebe;fill-opacity:1;stroke:none;stroke-width:1.12435389;stroke-linecap:round;stroke-linejoin:miter;marker:none;stroke-miterlimit:4;stroke-dasharray:none;stroke-dashoffset:0;stroke-opacity:1;visibility:visible;display:inline;overflow:visible;enable-background:accumulate" />
    <path
       d="M -420.99474,1285.9945 C -419.34968,1285.9945 -418.00507,1287.3516 -418.00507,1288.9966 C -418.00507,1290.6416 -419.34966,1291.9987 -420.99474,1291.9987 C -422.63979,1291.9987 -423.9968,1290.6416 -423.99681,1288.9966 C -423.99681,1287.3516 -422.63981,1285.9945 -420.99474,1285.9945 z M -420.99474,1288.0042 C -421.55764,1288.0042 -421.99956,1288.4337 -421.99956,1288.9966 C -421.99956,1289.5595 -421.55766,1290.0015 -420.99474,1290.0015 C -420.43183,1290.0015 -420.00231,1289.5595 -420.00231,1288.9966 C -420.00232,1288.4337 -420.43181,1288.0042 -420.99474,1288.0042 z"
       id="path13230"
       style="fill:#bebebe;fill-opacity:1;stroke:none;stroke-width:5.03818083;stroke-linecap:round;stroke-linejoin:miter;marker:none;stroke-miterlimit:4;stroke-dasharray:none;stroke-dashoffset:0;stroke-opacity:1;visibility:visible;display:inline;overflow:visible;enable-background:accumulate" />
    <path
       d="M -406.99474,1299.9945 C -405.34968,1299.9945 -404.00507,1301.3516 -404.00507,1302.9966 C -404.00507,1304.6416 -405.34966,1305.9987 -406.99474,1305.9987 C -408.63979,1305.9987 -409.9968,1304.6416 -409.99681,1302.9966 C -409.99681,1301.3516 -408.63981,1299.9945 -406.99474,1299.9945 z M -406.99474,1302.0042 C -407.55764,1302.0042 -407.99956,1302.4337 -407.99956,1302.9966 C -407.99956,1303.5595 -407.55766,1304.0015 -406.99474,1304.0015 C -406.43183,1304.0015 -406.00231,1303.5595 -406.00231,1302.9966 C -406.00232,1302.4337 -406.43181,1302.0042 -406.99474,1302.0042 z"
       id="path13232"
       style="fill:#bebebe;fill-opacity:1;stroke:none;stroke-width:5.03818083;stroke-linecap:round;stroke-linejoin:miter;marker:none;stroke-miterlimit:4;stroke-dasharray:none;stroke-dashoffset:0;stroke-opacity:1;visibility:visible;display:inline;overflow:visible;enable-background:accumulate" />
    <path
       d="M -411.84784,1288.2444 C -411.29524,1288.2904 -410.80994,1287.8798 -410.76389,1287.3272 C -410.71784,1286.7746 -411.12848,1286.2893 -411.68108,1286.2432 C -413.24621,1285.8821 -414.73485,1285.9163 -416.29484,1286.2987 C -416.66327,1286.3576 -416.96827,1286.6167 -417.08597,1286.9708 C -417.20368,1287.3248 -417.11451,1287.715 -416.85468,1287.9827 C -416.59485,1288.2505 -416.20758,1288.3514 -415.85014,1288.2444 C -414.55213,1287.926 -413.42802,1287.8882 -412.12578,1288.1887 C -412.03625,1288.2203 -411.94266,1288.2391 -411.84784,1288.2444 z"
       id="path13234"
       style="fill:#bebebe;fill-opacity:1;stroke:none;stroke-width:1.12435389;stroke-linecap:round;stroke-linejoin:miter;marker:none;stroke-miterlimit:4;stroke-dasharray:none;stroke-dashoffset:0;stroke-opacity:1;visibility:visible;display:inline;overflow:visible;enable-background:accumulate" />
    <path
       d="M -405.33538,1292.9591 C -405.61441,1292.9983 -405.86399,1293.1533 -406.02273,1293.3861 C -406.18147,1293.6189 -406.23465,1293.9078 -406.16919,1294.1819 C -405.87149,1295.4438 -405.8845,1296.5304 -406.16919,1297.7952 C -406.27647,1298.1527 -406.17573,1298.5402 -405.90791,1298.8002 C -405.64009,1299.0602 -405.24977,1299.1494 -404.89559,1299.0316 C -404.54142,1298.9137 -404.28233,1298.6085 -404.22363,1298.2399 C -403.88155,1296.7202 -403.86595,1295.2534 -404.22363,1293.7372 C -404.33468,1293.2276 -404.81862,1292.889 -405.33538,1292.9591 z"
       id="path13236"
       style="fill:#bebebe;fill-opacity:1;stroke:none;stroke-width:1.12435389;stroke-linecap:round;stroke-linejoin:miter;marker:none;stroke-miterlimit:4;stroke-dasharray:none;stroke-dashoffset:0;stroke-opacity:1;visibility:visible;display:inline;overflow:visible;enable-background:accumulate" />
  </g>
  <g
     transform="translate(426,-1284)"
     id="layer4" />
  <g
     transform="translate(426,-1284)"
     id="layer12" />
  <g
     transform="translate(426,-1284)"
     id="layer9" />
  <g
     transform="translate(426,-1284)"
     id="layer10" />
  <g
     transform="translate(426,-1284)"
     id="layer6" />
</svg>
