<?xml version="1.0" encoding="UTF-8" standalone="no"?>
<!-- Created with Inkscape (http://www.inkscape.org/) -->
<svg
   xmlns:svg="http://www.w3.org/2000/svg"
   xmlns="http://www.w3.org/2000/svg"
   version="1.0"
   width="24"
   height="24"
   id="svg7384">
  <title
     id="title9167">Moblin Icon Theme</title>
  <defs
     id="defs7386" />
  <g
     transform="translate(510,-956.02508)"
     id="layer3" />
  <g
     transform="translate(510,-956.02508)"
     id="layer5" />
  <g
     transform="translate(510,-956.02508)"
     id="layer7" />
  <g
     transform="translate(510,-956.02508)"
     id="layer2" />
  <g
     transform="translate(510,-956.02508)"
     id="layer8" />
  <g
     transform="translate(510,-1908.3873)"
     id="layer1" />
  <g
     transform="translate(510,-956.02508)"
     id="layer11">
    <rect
       width="24"
       height="24"
       x="-510"
       y="956.02509"
       id="rect15087"
       style="opacity:0;fill:#ffffff;fill-opacity:1;stroke:none;display:inline" />
    <path
       d="M -499.21875,957.78125 C -499.41342,957.80064 -499.59812,957.87669 -499.75,958 C -500.66222,958.22523 -501.47353,958.7736 -501.75,959.71875 C -502.09698,960.90503 -501.58339,962.11504 -500.5625,962.75 L -499.53125,963.4375 C -499.87625,963.65157 -500.25231,963.81018 -500.5625,964.0625 L -505.875,964 C -505.9375,964 -506.00005,964 -506.0625,964 C -506.07292,963.99984 -506.08333,963.99984 -506.09375,964 C -507.74694,964.06472 -509.03334,965.47164 -508.96875,967.125 C -508.90461,968.76792 -507.5459,970.04723 -505.90625,970 C -505.89578,969.9997 -505.88549,970.00041 -505.875,970 L -503.875,970.03125 C -503.91192,970.35594 -504,970.6647 -504,971 C -504,971.70288 -503.81126,972.3294 -503.65625,972.96875 L -506.28125,974.28125 C -507.82662,974.9897 -508.45837,976.8598 -507.6875,978.375 C -506.91658,979.89011 -505.01375,980.45706 -503.53125,979.625 L -500.4375,978.0625 C -498.91598,979.23285 -497.05979,980 -495,980 C -490.04163,979.99998 -486,975.95837 -486,971 C -486,968.75332 -486.8123,966.67698 -488.1875,965.09375 C -488.19587,965.08329 -488.2103,965.0728 -488.21875,965.0625 C -488.52391,964.69054 -488.88149,964.4093 -489.40625,964 C -489.41644,963.98935 -489.42685,963.97894 -489.4375,963.96875 C -489.4375,963.96875 -497.625,958.28125 -497.625,958.28125 C -498.04622,957.98042 -498.55139,957.79238 -499.09375,957.78125 C -499.10411,957.78104 -499.11461,957.78134 -499.125,957.78125 C -499.15623,957.77978 -499.18752,957.77978 -499.21875,957.78125 z M -499.15625,959.78125 C -499.14583,959.78141 -499.13542,959.78141 -499.125,959.78125 C -499.00043,959.78231 -498.90542,959.81757 -498.78125,959.90625 C -498.77083,959.90641 -498.76042,959.90641 -498.75,959.90625 C -498.75,959.90625 -490.69576,965.54433 -490.625,965.59375 C -490.6058,965.60873 -490.61261,965.6101 -490.59375,965.625 C -490.11941,965.99989 -489.7441,966.35112 -489.75,966.34375 C -489.73981,966.3544 -489.7294,966.36481 -489.71875,966.375 C -488.64141,967.60319 -488,969.22254 -488,971 C -488,974.87723 -491.12275,977.99999 -495,978 C -496.8301,978 -498.4741,977.2969 -499.71875,976.15625 C -500.03071,975.86145 -500.49599,975.79857 -500.875,976 L -504.5,977.84375 C -504.51065,977.85394 -504.52106,977.86435 -504.53125,977.875 C -504.92277,978.09474 -505.70267,977.86884 -505.90625,977.46875 C -506.10986,977.06855 -505.84567,976.28087 -505.4375,976.09375 C -505.42708,976.09391 -505.41667,976.09391 -505.40625,976.09375 L -502.125,974.4375 C -501.67653,974.21389 -501.46279,973.69289 -501.625,973.21875 C -501.86479,972.50144 -502,971.75848 -502,971 C -502,970.41152 -501.92153,969.83657 -501.78125,969.28125 C -501.70395,968.9817 -501.76962,968.66324 -501.95913,968.41872 C -502.14864,968.17419 -502.44064,968.03113 -502.75,968.03125 L -505.90625,968 C -505.91667,967.99984 -505.92708,967.99984 -505.9375,968 C -506.37856,968.01727 -506.98278,967.47239 -507,967.03125 C -507.01723,966.59021 -506.47252,966.01728 -506.03125,966 C -505.9688,966 -505.9375,966 -505.875,966 L -500.3125,966.0625 C -500.07072,966.06123 -499.83759,965.97242 -499.65625,965.8125 C -498.97402,965.20299 -498.18653,964.70659 -497.34375,964.40625 C -496.98387,964.28091 -496.72651,963.96194 -496.68005,963.5837 C -496.6336,963.20546 -496.80615,962.8337 -497.125,962.625 L -499.46875,961.0625 C -499.47917,961.06234 -499.48958,961.06234 -499.5,961.0625 C -499.71583,960.92826 -499.8763,960.49937 -499.8125,960.28125 C -499.74678,960.05658 -499.38605,959.77714 -499.15625,959.78125 z"
       id="path15107"
       style="fill:#bebebe;fill-opacity:1;stroke:none;stroke-width:2;stroke-linecap:round;stroke-linejoin:round;marker:none;stroke-miterlimit:4;stroke-dasharray:none;stroke-dashoffset:0;stroke-opacity:1;visibility:visible;display:inline;overflow:visible;enable-background:accumulate" />
    <path
       d="M -495.00105,965.9782 C -497.7845,965.9782 -500.06511,967.99752 -500.06511,970.46207 C -500.06511,972.92659 -497.78452,974.94595 -495.00105,974.94595 C -492.21759,974.94595 -489.93698,972.92659 -489.93698,970.46207 C -489.93698,967.99752 -492.21759,965.9782 -495.00105,965.9782 z M -495.00105,967.86032 C -493.3676,967.86032 -492.06264,969.01577 -492.06264,970.46207 C -492.06264,971.90834 -493.3676,973.06383 -495.00105,973.06383 C -496.63447,973.06383 -497.93945,971.90834 -497.93945,970.46207 C -497.93945,969.01577 -496.63449,967.86032 -495.00105,967.86032 z"
       id="path15109"
       style="fill:#bebebe;fill-opacity:1;stroke:none;stroke-width:4.24960661;stroke-linecap:round;stroke-linejoin:miter;marker:none;stroke-miterlimit:4;stroke-dasharray:none;stroke-dashoffset:0;stroke-opacity:1;visibility:visible;display:inline;overflow:visible;enable-background:accumulate" />
  </g>
  <g
     transform="translate(510,-956.02508)"
     id="layer4" />
  <g
     transform="translate(510,-956.02508)"
     id="layer12" />
  <g
     transform="translate(510,-956.02508)"
     id="layer9" />
  <g
     transform="translate(510,-956.02508)"
     id="layer10" />
  <g
     transform="translate(510,-956.02508)"
     id="layer6" />
</svg>
