<?xml version="1.0" encoding="UTF-8" standalone="no"?>
<!-- Created with Inkscape (http://www.inkscape.org/) -->
<svg
   xmlns:svg="http://www.w3.org/2000/svg"
   xmlns="http://www.w3.org/2000/svg"
   version="1.0"
   width="24"
   height="24"
   id="svg7384">
  <title
     id="title9167">Moblin Icon Theme</title>
  <defs
     id="defs7386" />
  <g
     transform="translate(510,-956.02508)"
     id="layer3" />
  <g
     transform="translate(510,-956.02508)"
     id="layer5" />
  <g
     transform="translate(510,-956.02508)"
     id="layer7" />
  <g
     transform="translate(510,-956.02508)"
     id="layer2" />
  <g
     transform="translate(510,-956.02508)"
     id="layer8" />
  <g
     transform="translate(510,-1908.3873)"
     id="layer1" />
  <g
     transform="translate(510,-956.02508)"
     id="layer11">
    <rect
       width="24"
       height="24"
       x="-510"
       y="956.02509"
       id="rect15087"
       style="opacity:0;fill:#ffffff;fill-opacity:1;stroke:none;display:inline" />
    <path
       d="M -498.84375,956.03125 C -498.87853,956.03063 -498.90299,956.06184 -498.9375,956.0625 C -499.10436,956.07456 -499.26553,956.12828 -499.40625,956.21875 C -500.36323,956.41765 -501.18248,957.02134 -501.46875,958 C -501.81574,959.18628 -501.30216,960.39628 -500.28125,961.03125 L -499.5625,961.46875 C -499.89403,961.67668 -500.26335,961.81916 -500.5625,962.0625 L -505.875,962 C -505.9375,962 -506.00005,962 -506.0625,962 C -506.07292,961.99984 -506.08333,961.99984 -506.09375,962 C -507.74694,962.06472 -509.03334,963.47164 -508.96875,965.125 C -508.90461,966.76792 -507.5459,968.04723 -505.90625,968 C -505.89578,967.9997 -505.88549,968.00041 -505.875,968 L -503.875,968.03125 C -503.91192,968.35594 -504,968.6647 -504,969 C -504,969.70288 -503.81126,970.3294 -503.65625,970.96875 L -506.28125,972.28125 C -507.82662,972.9897 -508.45837,974.8598 -507.6875,976.375 C -506.91658,977.89011 -505.01375,978.45706 -503.53125,977.625 L -500.4375,976.0625 C -498.91598,977.23285 -497.05979,978 -495,978 C -490.04163,977.99998 -486,973.95837 -486,969 C -486,966.75332 -486.8123,964.67698 -488.1875,963.09375 C -488.19394,963.0857 -488.2121,963.07066 -488.21875,963.0625 C -488.46568,962.75966 -488.83305,962.38476 -489.4375,961.96875 C -489.4375,961.96875 -497.34375,956.53125 -497.34375,956.53125 C -497.77296,956.22477 -498.28959,956.03599 -498.84375,956.03125 z M -498.875,958.03125 C -498.7505,958.03231 -498.62423,958.09879 -498.5,958.1875 C -498.5,958.1875 -490.59375,963.625 -490.59375,963.625 C -490.12637,963.94668 -489.80885,964.27018 -489.75,964.34375 C -489.73981,964.3544 -489.7294,964.36481 -489.71875,964.375 C -488.64141,965.60319 -488,967.22254 -488,969 C -488,972.87723 -491.12275,975.99999 -495,976 C -496.8301,976 -498.4741,975.2969 -499.71875,974.15625 C -500.03071,973.86145 -500.49599,973.79857 -500.875,974 L -504.5,975.84375 C -504.51065,975.85394 -504.52106,975.86435 -504.53125,975.875 C -504.92277,976.09474 -505.70267,975.86884 -505.90625,975.46875 C -506.10986,975.06855 -505.84567,974.28087 -505.4375,974.09375 C -505.42708,974.09391 -505.41667,974.09391 -505.40625,974.09375 L -502.125,972.4375 C -501.67653,972.21389 -501.46279,971.69289 -501.625,971.21875 C -501.86479,970.50144 -502,969.75848 -502,969 C -502,968.41152 -501.92153,967.83657 -501.78125,967.28125 C -501.70395,966.9817 -501.76962,966.66324 -501.95913,966.41872 C -502.14864,966.17419 -502.44064,966.03113 -502.75,966.03125 L -505.90625,966 C -505.91667,965.99984 -505.92708,965.99984 -505.9375,966 C -506.37856,966.01727 -506.98278,965.47239 -507,965.03125 C -507.01723,964.59021 -506.47252,964.01728 -506.03125,964 C -505.9688,964 -505.9375,964 -505.875,964 L -500.3125,964.0625 C -500.07072,964.06123 -499.83759,963.97242 -499.65625,963.8125 C -498.97402,963.20299 -498.18653,962.70659 -497.34375,962.40625 C -496.98797,962.27377 -496.73789,961.95127 -496.69814,961.57372 C -496.6584,961.19616 -496.83586,960.82866 -497.15625,960.625 L -499.25,959.3125 C -499.46581,959.17827 -499.62628,958.74931 -499.5625,958.53125 C -499.49678,958.30658 -499.10477,958.02714 -498.875,958.03125 z"
       id="path15107"
       style="fill:#bebebe;fill-opacity:1;stroke:none;stroke-width:2;stroke-linecap:round;stroke-linejoin:round;marker:none;stroke-miterlimit:4;stroke-dasharray:none;stroke-dashoffset:0;stroke-opacity:1;visibility:visible;display:inline;overflow:visible;enable-background:accumulate" />
    <path
       d="M -495.00105,963.9782 C -497.7845,963.9782 -500.06511,965.99752 -500.06511,968.46207 C -500.06511,970.92659 -497.78452,972.94595 -495.00105,972.94595 C -492.21759,972.94595 -489.93698,970.92659 -489.93698,968.46207 C -489.93698,965.99752 -492.21759,963.9782 -495.00105,963.9782 z M -495.00105,965.86032 C -493.3676,965.86032 -492.06264,967.01577 -492.06264,968.46207 C -492.06264,969.90834 -493.3676,971.06383 -495.00105,971.06383 C -496.63447,971.06383 -497.93945,969.90834 -497.93945,968.46207 C -497.93945,967.01577 -496.63449,965.86032 -495.00105,965.86032 z"
       id="path15109"
       style="fill:#bebebe;fill-opacity:1;stroke:none;stroke-width:4.24960661;stroke-linecap:round;stroke-linejoin:miter;marker:none;stroke-miterlimit:4;stroke-dasharray:none;stroke-dashoffset:0;stroke-opacity:1;visibility:visible;display:inline;overflow:visible;enable-background:accumulate" />
  </g>
  <g
     transform="translate(510,-956.02508)"
     id="layer4" />
  <g
     transform="translate(510,-956.02508)"
     id="layer12" />
  <g
     transform="translate(510,-956.02508)"
     id="layer9" />
  <g
     transform="translate(510,-956.02508)"
     id="layer10" />
  <g
     transform="translate(510,-956.02508)"
     id="layer6" />
</svg>
