<?xml version="1.0" encoding="UTF-8" standalone="no"?>
<!-- Created with Inkscape (http://www.inkscape.org/) -->
<svg
   xmlns:svg="http://www.w3.org/2000/svg"
   xmlns="http://www.w3.org/2000/svg"
   version="1.0"
   width="24"
   height="24"
   id="svg7384">
  <title
     id="title9167">Moblin Icon Theme</title>
  <defs
     id="defs7386" />
  <g
     transform="translate(510,-1006.0251)"
     id="layer3" />
  <g
     transform="translate(510,-1006.0251)"
     id="layer5" />
  <g
     transform="translate(510,-1006.0251)"
     id="layer7" />
  <g
     transform="translate(510,-1006.0251)"
     id="layer2" />
  <g
     transform="translate(510,-1006.0251)"
     id="layer8" />
  <g
     transform="translate(510,-1958.3873)"
     id="layer1" />
  <g
     transform="translate(510,-1006.0251)"
     id="layer11">
    <rect
       width="24"
       height="24"
       x="-510"
       y="1006.0251"
       id="rect15087"
       style="opacity:0;fill:#ffffff;fill-opacity:1;stroke:none;display:inline" />
    <path
       d="M -499.21875,1007.7812 C -499.41342,1007.8006 -499.59813,1007.8767 -499.75,1008 C -500.66222,1008.2252 -501.47353,1008.7736 -501.75,1009.7188 C -502.09698,1010.905 -501.58339,1012.115 -500.5625,1012.75 L -499.53125,1013.4375 C -499.87625,1013.6516 -500.25231,1013.8102 -500.5625,1014.0625 L -505.875,1014 C -505.9375,1014 -506.00005,1014 -506.0625,1014 C -506.07292,1013.9998 -506.08333,1013.9998 -506.09375,1014 C -507.74694,1014.0647 -509.03334,1015.4716 -508.96875,1017.125 C -508.90461,1018.7679 -507.5459,1020.0472 -505.90625,1020 C -505.89578,1019.9997 -505.88549,1020.0004 -505.875,1020 L -503.875,1020.0312 C -503.91192,1020.3559 -504,1020.6647 -504,1021 C -504,1021.7029 -503.81126,1022.3294 -503.65625,1022.9688 L -506.28125,1024.2812 C -507.82657,1024.9898 -508.45837,1026.8598 -507.6875,1028.375 C -506.91658,1029.8901 -505.01375,1030.4571 -503.53125,1029.625 L -500.4375,1028.0625 C -498.91598,1029.2329 -497.05979,1030 -495,1030 C -490.04161,1030 -486,1025.9584 -486,1021 C -486,1018.7533 -486.8123,1016.677 -488.1875,1015.0938 C -488.19587,1015.0833 -488.2103,1015.0728 -488.21875,1015.0625 C -488.52391,1014.6905 -488.88149,1014.4093 -489.40625,1014 C -489.41644,1013.9894 -489.42685,1013.979 -489.4375,1013.9688 C -489.4375,1013.9688 -497.625,1008.2812 -497.625,1008.2812 C -498.04622,1007.9804 -498.55139,1007.7924 -499.09375,1007.7812 C -499.10411,1007.781 -499.11461,1007.7813 -499.125,1007.7812 C -499.15623,1007.7797 -499.18752,1007.7797 -499.21875,1007.7812 z M -499.15625,1009.7812 C -499.14583,1009.7814 -499.13542,1009.7814 -499.125,1009.7812 C -499.00043,1009.7823 -498.90542,1009.8176 -498.78125,1009.9062 C -498.77083,1009.9064 -498.76042,1009.9064 -498.75,1009.9062 C -498.75,1009.9062 -490.69576,1015.5443 -490.625,1015.5938 C -490.6058,1015.6087 -490.61261,1015.6101 -490.59375,1015.625 C -490.11941,1015.9999 -489.7441,1016.3511 -489.75,1016.3438 C -489.73981,1016.3544 -489.7294,1016.3648 -489.71875,1016.375 C -488.64141,1017.6032 -488,1019.2225 -488,1021 C -488,1024.8772 -491.12277,1028 -495,1028 C -496.8301,1028 -498.4741,1027.2969 -499.71875,1026.1562 C -500.03072,1025.8614 -500.496,1025.7986 -500.875,1026 L -504.5,1027.8438 C -504.51065,1027.854 -504.52106,1027.8644 -504.53125,1027.875 C -504.92277,1028.0947 -505.70267,1027.8688 -505.90625,1027.4688 C -506.10986,1027.0686 -505.84572,1026.2809 -505.4375,1026.0938 C -505.42708,1026.094 -505.41667,1026.094 -505.40625,1026.0938 L -502.125,1024.4375 C -501.67655,1024.2139 -501.46282,1023.6929 -501.625,1023.2188 C -501.86479,1022.5014 -502,1021.7585 -502,1021 C -502,1020.4115 -501.92153,1019.8366 -501.78125,1019.2812 C -501.70395,1018.9817 -501.76962,1018.6632 -501.95913,1018.4187 C -502.14864,1018.1741 -502.44064,1018.0311 -502.75,1018.0312 L -505.90625,1018 C -505.91667,1017.9998 -505.92708,1017.9998 -505.9375,1018 C -506.37856,1018.0173 -506.98278,1017.4724 -507,1017.0312 C -507.01723,1016.5902 -506.47252,1016.0173 -506.03125,1016 C -505.9688,1016 -505.9375,1016 -505.875,1016 L -500.3125,1016.0625 C -500.07072,1016.0612 -499.83759,1015.9724 -499.65625,1015.8125 C -498.97402,1015.203 -498.18653,1014.7066 -497.34375,1014.4062 C -496.9839,1014.2808 -496.72655,1013.9619 -496.68011,1013.5837 C -496.63366,1013.2055 -496.80618,1012.8337 -497.125,1012.625 L -499.46875,1011.0625 C -499.47917,1011.0623 -499.48958,1011.0623 -499.5,1011.0625 C -499.71583,1010.9283 -499.8763,1010.4994 -499.8125,1010.2812 C -499.74678,1010.0566 -499.38605,1009.7771 -499.15625,1009.7812 z"
       id="path15107"
       style="fill:#bebebe;fill-opacity:1;stroke:none;stroke-width:2;stroke-linecap:round;stroke-linejoin:round;marker:none;stroke-miterlimit:4;stroke-dasharray:none;stroke-dashoffset:0;stroke-opacity:1;visibility:visible;display:inline;overflow:visible;enable-background:accumulate" />
    <path
       d="M -495.00105,1015.9782 C -497.7845,1015.9782 -500.06511,1017.9975 -500.06511,1020.4621 C -500.06511,1022.9266 -497.78452,1024.9459 -495.00105,1024.9459 C -492.21759,1024.9459 -489.93698,1022.9266 -489.93698,1020.4621 C -489.93698,1017.9975 -492.21759,1015.9782 -495.00105,1015.9782 z M -495.00105,1017.8603 C -493.3676,1017.8603 -492.06264,1019.0158 -492.06264,1020.4621 C -492.06264,1021.9083 -493.3676,1023.0638 -495.00105,1023.0638 C -496.63447,1023.0638 -497.93945,1021.9083 -497.93945,1020.4621 C -497.93945,1019.0158 -496.63449,1017.8603 -495.00105,1017.8603 z"
       id="path15109"
       style="fill:#bebebe;fill-opacity:1;stroke:none;stroke-width:4.24960661;stroke-linecap:round;stroke-linejoin:miter;marker:none;stroke-miterlimit:4;stroke-dasharray:none;stroke-dashoffset:0;stroke-opacity:1;visibility:visible;display:inline;overflow:visible;enable-background:accumulate" />
  </g>
  <g
     transform="translate(510,-1006.0251)"
     id="layer4" />
  <g
     transform="translate(510,-1006.0251)"
     id="layer9" />
  <g
     transform="translate(510,-1006.0251)"
     id="layer10" />
  <g
     transform="translate(510,-1006.0251)"
     id="layer6" />
</svg>
