<?xml version="1.0" encoding="UTF-8" standalone="no"?>
<!-- Created with Inkscape (http://www.inkscape.org/) -->
<svg
   xmlns:svg="http://www.w3.org/2000/svg"
   xmlns="http://www.w3.org/2000/svg"
   version="1.0"
   width="24.019951"
   height="24"
   id="svg7384">
  <title
     id="title9167">Moblin Icon Theme</title>
  <defs
     id="defs7386" />
  <g
     transform="translate(566.0199,-1044)"
     id="layer3" />
  <g
     transform="translate(566.0199,-1044)"
     id="layer5" />
  <g
     transform="translate(566.0199,-1044)"
     id="layer7" />
  <g
     transform="translate(566.0199,-1044)"
     id="layer2" />
  <g
     transform="translate(566.0199,-1044)"
     id="layer8" />
  <g
     transform="translate(566.0199,-1996.3622)"
     id="layer1" />
  <g
     transform="translate(566.0199,-1044)"
     id="layer11">
    <rect
       width="24"
       height="24"
       x="-565.99994"
       y="1044"
       id="rect7826-9"
       style="opacity:0;fill:#ffffff;fill-opacity:1;stroke:none;display:inline" />
    <path
       d="M -561.125,1046 C -561.64036,1046.0486 -562.03348,1046.4824 -562.03125,1047 L -562.03125,1053.8125 L -564.4375,1052.125 C -564.726,1051.8846 -565.12487,1051.826 -565.47028,1051.9734 C -565.81569,1052.1208 -566.04942,1052.4493 -566.07545,1052.824 C -566.10149,1053.1986 -565.91545,1053.5562 -565.59375,1053.75 L -562.96875,1055.625 L -565.53125,1057.1562 C -565.89371,1057.3088 -566.13307,1057.6597 -566.14293,1058.0529 C -566.15279,1058.446 -565.93131,1058.8084 -565.57696,1058.979 C -565.22261,1059.1496 -564.80117,1059.0967 -564.5,1058.8438 L -562.03125,1057.375 L -562.03125,1064.9375 C -562.0419,1065.3341 -561.81706,1065.6996 -561.45819,1065.8689 C -561.09933,1066.0381 -560.67433,1065.9793 -560.375,1065.7188 L -554.375,1060.7812 C -554.13281,1060.5825 -553.99771,1060.2818 -554.00999,1059.9688 C -554.02226,1059.6558 -554.1805,1059.3666 -554.4375,1059.1875 L -559.3125,1055.75 L -554.5,1052.8438 C -554.22268,1052.677 -554.04323,1052.3862 -554.01841,1052.0635 C -553.99359,1051.7408 -554.12646,1051.4261 -554.375,1051.2188 L -560.375,1046.2188 C -560.58499,1046.0472 -560.85567,1045.9682 -561.125,1046 z M -560.03125,1049.125 L -556.75,1051.875 L -560.03125,1053.8438 L -560.03125,1049.125 z M -560.03125,1057.6875 L -556.65625,1060.0938 L -560.03125,1062.8438 L -560.03125,1057.6875 z"
       id="path7887-7"
       style="fill:#bebebe;fill-opacity:1;stroke:none;stroke-width:2;stroke-linecap:round;stroke-linejoin:round;marker:none;stroke-miterlimit:4;stroke-dasharray:none;stroke-dashoffset:0;stroke-opacity:1;visibility:visible;display:inline;overflow:visible;enable-background:accumulate" />
    <path
       d="M -550.36227,1049.6562 C -550.72541,1049.6576 -551.0593,1049.8556 -551.23455,1050.1737 C -551.40981,1050.4917 -551.39889,1050.8798 -551.20602,1051.1875 C -549.54876,1054.058 -549.54874,1057.192 -551.20602,1060.0625 C -551.48216,1060.5457 -551.31427,1061.1614 -550.83102,1061.4375 C -550.34777,1061.7136 -549.73216,1061.5457 -549.45602,1061.0625 C -547.47029,1057.6231 -547.47032,1053.6269 -549.45602,1050.1875 C -549.63329,1049.8532 -549.98402,1049.6477 -550.36227,1049.6562 z"
       id="path7207"
       style="fill:#bebebe;fill-opacity:1;stroke:none;stroke-width:2;stroke-linecap:round;stroke-linejoin:round;marker:none;stroke-miterlimit:4;stroke-dasharray:none;stroke-dashoffset:0;stroke-opacity:1;visibility:visible;display:inline;overflow:visible;enable-background:accumulate" />
    <path
       d="M -546.36227,1049.6562 C -546.72541,1049.6576 -547.0593,1049.8556 -547.23455,1050.1737 C -547.40981,1050.4917 -547.39889,1050.8798 -547.20602,1051.1875 C -545.54876,1054.058 -545.54874,1057.192 -547.20602,1060.0625 C -547.48216,1060.5457 -547.31427,1061.1614 -546.83102,1061.4375 C -546.34777,1061.7136 -545.73216,1061.5457 -545.45602,1061.0625 C -543.47029,1057.6231 -543.47032,1053.6269 -545.45602,1050.1875 C -545.63329,1049.8532 -545.98402,1049.6477 -546.36227,1049.6562 z"
       id="path7209"
       style="fill:#bebebe;fill-opacity:1;stroke:none;stroke-width:2;stroke-linecap:round;stroke-linejoin:round;marker:none;stroke-miterlimit:4;stroke-dasharray:none;stroke-dashoffset:0;stroke-opacity:1;visibility:visible;display:inline;overflow:visible;enable-background:accumulate" />
  </g>
  <g
     transform="translate(566.0199,-1044)"
     id="layer4" />
  <g
     transform="translate(566.0199,-1044)"
     id="layer12" />
  <g
     transform="translate(566.0199,-1044)"
     id="layer9" />
  <g
     transform="translate(566.0199,-1044)"
     id="layer10" />
  <g
     transform="translate(566.0199,-1044)"
     id="layer6" />
</svg>
