<?xml version="1.0" encoding="UTF-8" standalone="no"?>
<!-- Created with Inkscape (http://www.inkscape.org/) -->
<svg
   xmlns:svg="http://www.w3.org/2000/svg"
   xmlns="http://www.w3.org/2000/svg"
   version="1.0"
   width="24.019951"
   height="24"
   id="svg7384">
  <title
     id="title9167">Moblin Icon Theme</title>
  <defs
     id="defs7386" />
  <g
     transform="translate(566.01995,-1094)"
     id="layer3" />
  <g
     transform="translate(566.01995,-1094)"
     id="layer5" />
  <g
     transform="translate(566.01995,-1094)"
     id="layer7" />
  <g
     transform="translate(566.01995,-1094)"
     id="layer2" />
  <g
     transform="translate(566.01995,-1094)"
     id="layer8" />
  <g
     transform="translate(566.01995,-2046.3622)"
     id="layer1" />
  <g
     transform="translate(566.01995,-1094)"
     id="layer11">
    <rect
       width="24"
       height="24"
       x="-566"
       y="1094"
       id="rect7826-9"
       style="opacity:0;fill:#ffffff;fill-opacity:1;stroke:none;display:inline" />
    <path
       d="M -561.125,1096 C -561.64036,1096.0486 -562.03348,1096.4824 -562.03125,1097 L -562.03125,1103.8125 L -564.4375,1102.125 C -564.726,1101.8846 -565.12487,1101.826 -565.47028,1101.9734 C -565.81569,1102.1208 -566.04942,1102.4493 -566.07545,1102.824 C -566.10149,1103.1986 -565.91545,1103.5562 -565.59375,1103.75 L -562.96875,1105.625 L -565.53125,1107.1562 C -565.89371,1107.3088 -566.13307,1107.6597 -566.14293,1108.0529 C -566.15279,1108.446 -565.93131,1108.8084 -565.57696,1108.979 C -565.22261,1109.1496 -564.80117,1109.0967 -564.5,1108.8438 L -562.03125,1107.375 L -562.03125,1114.9375 C -562.0419,1115.3341 -561.81706,1115.6996 -561.45819,1115.8689 C -561.09933,1116.0381 -560.67433,1115.9793 -560.375,1115.7188 L -554.375,1110.7812 C -554.13281,1110.5825 -553.99771,1110.2818 -554.00999,1109.9688 C -554.02226,1109.6558 -554.1805,1109.3666 -554.4375,1109.1875 L -559.3125,1105.75 L -554.5,1102.8438 C -554.22268,1102.677 -554.04323,1102.3862 -554.01841,1102.0635 C -553.99359,1101.7408 -554.12646,1101.4261 -554.375,1101.2188 L -560.375,1096.2188 C -560.58499,1096.0472 -560.85567,1095.9682 -561.125,1096 z M -560.03125,1099.125 L -556.75,1101.875 L -560.03125,1103.8438 L -560.03125,1099.125 z M -560.03125,1107.6875 L -556.65625,1110.0938 L -560.03125,1112.8438 L -560.03125,1107.6875 z"
       id="path7887-7"
       style="fill:#bebebe;fill-opacity:1;stroke:none;stroke-width:2;stroke-linecap:round;stroke-linejoin:round;marker:none;stroke-miterlimit:4;stroke-dasharray:none;stroke-dashoffset:0;stroke-opacity:1;visibility:visible;display:inline;overflow:visible;enable-background:accumulate" />
    <path
       d="M -550.36232,1099.6562 C -550.72546,1099.6576 -551.05935,1099.8556 -551.2346,1100.1737 C -551.40986,1100.4917 -551.39894,1100.8798 -551.20607,1101.1875 C -549.54881,1104.058 -549.54879,1107.192 -551.20607,1110.0625 C -551.48221,1110.5457 -551.31432,1111.1614 -550.83107,1111.4375 C -550.34782,1111.7136 -549.73221,1111.5457 -549.45607,1111.0625 C -547.47034,1107.6231 -547.47037,1103.6269 -549.45607,1100.1875 C -549.63334,1099.8532 -549.98407,1099.6477 -550.36232,1099.6562 z"
       id="path7207"
       style="fill:#bebebe;fill-opacity:1;stroke:none;stroke-width:2;stroke-linecap:round;stroke-linejoin:round;marker:none;stroke-miterlimit:4;stroke-dasharray:none;stroke-dashoffset:0;stroke-opacity:1;visibility:visible;display:inline;overflow:visible;enable-background:accumulate" />
    <path
       d="M -546.36232,1099.6562 C -546.72546,1099.6576 -547.05935,1099.8556 -547.2346,1100.1737 C -547.40986,1100.4917 -547.39894,1100.8798 -547.20607,1101.1875 C -545.54881,1104.058 -545.54879,1107.192 -547.20607,1110.0625 C -547.48221,1110.5457 -547.31432,1111.1614 -546.83107,1111.4375 C -546.34782,1111.7136 -545.73221,1111.5457 -545.45607,1111.0625 C -543.47034,1107.6231 -543.47037,1103.6269 -545.45607,1100.1875 C -545.63334,1099.8532 -545.98407,1099.6477 -546.36232,1099.6562 z"
       id="path7209"
       style="fill:#bebebe;fill-opacity:1;stroke:none;stroke-width:2;stroke-linecap:round;stroke-linejoin:round;marker:none;stroke-miterlimit:4;stroke-dasharray:none;stroke-dashoffset:0;stroke-opacity:1;visibility:visible;display:inline;overflow:visible;enable-background:accumulate" />
  </g>
  <g
     transform="translate(566.01995,-1094)"
     id="layer4" />
  <g
     transform="translate(566.01995,-1094)"
     id="layer9" />
  <g
     transform="translate(566.01995,-1094)"
     id="layer10" />
  <g
     transform="translate(566.01995,-1094)"
     id="layer6" />
</svg>
