<?xml version="1.0" encoding="UTF-8" standalone="no"?>
<!-- Created with Inkscape (http://www.inkscape.org/) -->
<svg
   xmlns:svg="http://www.w3.org/2000/svg"
   xmlns="http://www.w3.org/2000/svg"
   xmlns:xlink="http://www.w3.org/1999/xlink"
   version="1.0"
   width="24.071299"
   height="24.000046"
   id="svg7384">
  <title
     id="title9167">Moblin Icon Theme</title>
  <defs
     id="defs7386">
    <linearGradient
       x1="255.3222"
       y1="236.61824"
       x2="255.84023"
       y2="232.2758"
       id="linearGradient10940-0"
       xlink:href="#linearGradient10844-6-7"
       gradientUnits="userSpaceOnUse" />
    <linearGradient
       id="linearGradient10844-6-7">
      <stop
         id="stop10846-0-3"
         style="stop-color:#bebebe;stop-opacity:1"
         offset="0" />
      <stop
         id="stop10848-7-9"
         style="stop-color:#bebebe;stop-opacity:0"
         offset="1" />
    </linearGradient>
  </defs>
  <g
     transform="translate(538.07125,-984.00082)"
     id="layer3" />
  <g
     transform="translate(538.07125,-984.00082)"
     id="layer5" />
  <g
     transform="translate(538.07125,-984.00082)"
     id="layer7" />
  <g
     transform="translate(538.07125,-984.00082)"
     id="layer2" />
  <g
     transform="translate(538.07125,-984.00082)"
     id="layer8" />
  <g
     transform="translate(538.07125,-1936.363)"
     id="layer1" />
  <g
     transform="translate(538.07125,-984.00082)"
     id="layer11">
    <rect
       width="24"
       height="24"
       x="-537.99994"
       y="984.00079"
       id="rect15812"
       style="opacity:0;fill:#ffffff;fill-opacity:1;stroke:none;display:inline" />
    <path
       d="M -533.0782,1002.5071 C -533.26747,1002.497 -533.44997,1002.4333 -533.60445,1002.3235 C -534.74183,1001.5672 -535.63713,1000.6819 -536.39479,999.54538 C -539.45064,994.96156 -538.20051,988.73518 -533.61669,985.67934 C -529.03287,982.62349 -522.80649,983.87362 -519.75064,988.45744 C -516.69479,993.04126 -517.94492,999.26764 -522.52874,1002.3235 C -522.82561,1002.5494 -523.22352,1002.5913 -523.56092,1002.4322 C -523.89832,1002.2731 -524.11913,1001.9394 -524.13369,1001.5666 C -524.14826,1001.1939 -523.95415,1000.844 -523.63019,1000.6591 C -519.94676,998.20348 -518.95946,993.24233 -521.41505,989.55889 C -523.87065,985.87546 -528.81956,984.88816 -532.503,987.34375 C -536.18643,989.79935 -537.18597,994.7605 -534.73038,998.44393 C -534.09872,999.39143 -533.45123,1000.0285 -532.503,1000.6591 C -532.11665,1000.8996 -531.94145,1001.3707 -532.0767,1001.8053 C -532.21196,1002.2398 -532.62357,1002.5283 -533.0782,1002.5071 z"
       id="path15816"
       style="fill:#bebebe;fill-opacity:1;stroke:none;stroke-width:5.10689878;stroke-linecap:round;stroke-miterlimit:4;stroke-dasharray:none;stroke-dashoffset:0;stroke-opacity:1;display:inline" />
    <path
       d="M -528.07153,988 C -529.72839,988 -531.07153,989.34314 -531.07153,991 C -531.07153,992.65686 -529.72839,994 -528.07153,994 C -526.41467,994 -525.07153,992.65686 -525.07153,991 C -525.07153,989.34314 -526.41467,988 -528.07153,988 z M -528.54028,988.96875 C -527.70323,988.96875 -527.04028,989.66295 -527.04028,990.5 C -527.04028,991.33705 -527.70323,992 -528.54028,992 C -529.37733,992 -530.07153,991.33705 -530.07153,990.5 C -530.07153,989.66295 -529.37733,988.96875 -528.54028,988.96875 z"
       id="path15818"
       style="fill:#bebebe;fill-opacity:1;stroke:none;display:inline" />
    <path
       d="M -524.0625,1001.7188 L -524.0625,1003.3125 C -524.0625,1003.7107 -524.35182,1004 -524.75,1004 L -531.375,1004 C -531.77319,1004 -532.0625,1003.7107 -532.0625,1003.3125 L -532.0625,1001.75 L -534.0625,1001.75 L -534.0625,1003.3125 C -534.0625,1004.7841 -532.84655,1006 -531.375,1006 L -524.75,1006 C -523.27844,1006 -522.06249,1004.7841 -522.0625,1003.3125 L -522.0625,1001.7188 L -524.0625,1001.7188 z"
       id="path15820"
       style="fill:#bebebe;fill-opacity:1;stroke:none;stroke-width:1.99999976;marker:none;stroke-miterlimit:4;stroke-opacity:1;visibility:visible;display:inline;overflow:visible;enable-background:accumulate" />
    <g
       transform="matrix(1,0,0,-1,-586.99995,1392.4119)"
       id="g15822">
      <path
         d="M 251.0625,234.875 A 3.1875,3.1875 0 0 1 254.23694,231.68753"
         transform="matrix(0,-0.6300326,-0.6751575,0,223.85399,548.03982)"
         id="path15824"
         style="fill:none;stroke:#bebebe;stroke-width:1.53326046;stroke-linecap:round;stroke-linejoin:miter;marker:none;stroke-miterlimit:4;stroke-dasharray:none;stroke-dashoffset:0;stroke-opacity:1;visibility:visible;display:inline;overflow:visible;enable-background:accumulate" />
      <path
         d="M 253.89405,231.70744 A 3.1875,3.1875 0 1 1 254.35059,238.06091"
         transform="matrix(0,-0.6673352,-0.6997172,0,234.00484,556.70834)"
         id="path15826"
         style="fill:none;stroke:url(#linearGradient10940-0);stroke-width:1.4634124;stroke-linecap:round;stroke-linejoin:miter;marker:none;stroke-miterlimit:4;stroke-dasharray:none;stroke-dashoffset:0;stroke-opacity:1;visibility:visible;display:inline;overflow:visible;enable-background:accumulate" />
      <path
         d="M 284.4375,252.53125 L 282.46875,252.53125"
         transform="translate(-219.07158,137.36225)"
         id="path15828"
         style="fill:none;stroke:#bebebe;stroke-width:1px;stroke-linecap:butt;stroke-linejoin:miter;stroke-opacity:1" />
    </g>
    <path
       d="M -520.0625,1004.5 L -520.0625,1005.5 L -519.0625,1005.5 L -519.0625,1004.5 L -520.0625,1004.5 z"
       id="path15830"
       style="fill:#bebebe;fill-opacity:1;stroke:none;stroke-width:1px;stroke-linecap:butt;stroke-linejoin:miter;stroke-opacity:1" />
    <path
       d="M -528.07269,1003.0054 C -533.03521,1003.0054 -537.07673,998.9639 -537.07673,994.00138 C -537.07673,989.03886 -533.03521,984.99735 -528.07269,984.99735 C -523.11016,984.99735 -519.06864,989.03886 -519.06864,994.00138 C -519.06864,998.9639 -523.11016,1003.0054 -528.07269,1003.0054 z M -528.07269,1001.9998 C -523.65122,1001.9998 -520.07422,998.42284 -520.07422,994.00138 C -520.07422,989.57992 -523.65122,986.00293 -528.07269,986.00293 C -532.49415,986.00293 -536.07115,989.57992 -536.07115,994.00138 C -536.07115,998.42284 -532.49415,1001.9998 -528.07269,1001.9998 z"
       id="path15832"
       style="fill:#bebebe;fill-opacity:1;stroke:none;stroke-width:2.70364738;stroke-linecap:round;stroke-miterlimit:4;stroke-dasharray:none;stroke-dashoffset:0;stroke-opacity:1;display:inline" />
    <path
       d="M -522.5982,993.50157 C -522.83278,993.55352 -522.99726,993.76496 -522.98991,994.00511 C -522.98991,996.7706 -525.23269,999.0134 -527.99816,999.0134 C -530.66784,999.0134 -532.82941,996.95047 -532.97843,994.28499 C -532.99385,994.00684 -533.23184,993.79387 -533.50998,993.8093 C -533.78813,993.82473 -534.0011,994.06271 -533.98567,994.34086 C -533.80781,997.52232 -531.18459,999.99271 -527.99816,999.99271 C -524.69162,999.99271 -522.01066,997.31165 -522.01064,994.00511 C -522.00727,993.85523 -522.07133,993.71175 -522.18517,993.61419 C -522.299,993.51664 -522.4506,993.4753 -522.5982,993.50157 z"
       id="path15903"
       style="fill:#bebebe;fill-opacity:1;stroke:none;stroke-width:1.11690712;stroke-linecap:round;stroke-linejoin:round;marker:none;stroke-miterlimit:4;stroke-dasharray:none;stroke-dashoffset:0;stroke-opacity:1;visibility:visible;display:inline;overflow:visible;enable-background:accumulate" />
    <path
       d="M -522.54421,993.5283 C -522.65714,993.53571 -522.76416,993.5829 -522.84728,993.66194 C -525.8163,996.24508 -529.98312,996.33607 -533.02182,993.84023 C -533.22526,993.74346 -533.46652,993.80019 -533.60898,993.97829 C -533.75144,994.1564 -533.75924,994.41102 -533.62796,994.59801 C -530.23686,997.38325 -525.51118,997.34702 -522.19784,994.46423 C -521.98879,994.33948 -521.89842,994.0771 -521.98445,993.84465 C -522.07048,993.61219 -522.30752,993.47823 -522.54421,993.5283 z"
       id="path15905"
       style="fill:#bebebe;fill-opacity:1;stroke:none;stroke-width:0.71137643;stroke-linecap:round;stroke-linejoin:round;marker:none;stroke-miterlimit:4;stroke-dasharray:none;stroke-dashoffset:0;stroke-opacity:1;visibility:visible;display:inline;overflow:visible;enable-background:accumulate" />
  </g>
  <g
     transform="translate(538.07125,-984.00082)"
     id="layer4" />
  <g
     transform="translate(538.07125,-984.00082)"
     id="layer12" />
  <g
     transform="translate(538.07125,-984.00082)"
     id="layer9" />
  <g
     transform="translate(538.07125,-984.00082)"
     id="layer10" />
  <g
     transform="translate(538.07125,-984.00082)"
     id="layer6" />
</svg>
