<?xml version="1.0" encoding="UTF-8" standalone="no"?>
<!-- Created with Inkscape (http://www.inkscape.org/) -->
<svg
   xmlns:svg="http://www.w3.org/2000/svg"
   xmlns="http://www.w3.org/2000/svg"
   version="1.0"
   width="24.076376"
   height="24.034685"
   id="svg7384">
  <title
     id="title9167">Moblin Icon Theme</title>
  <defs
     id="defs7386" />
  <g
     transform="translate(592.07638,-1344)"
     id="layer3" />
  <g
     transform="translate(592.07638,-1344)"
     id="layer5" />
  <g
     transform="translate(592.07638,-1344)"
     id="layer7" />
  <g
     transform="translate(592.07638,-1344)"
     id="layer2" />
  <g
     transform="translate(592.07638,-1344)"
     id="layer8" />
  <g
     transform="translate(592.07638,-2296.3622)"
     id="layer1" />
  <g
     transform="translate(592.07638,-1344)"
     id="layer11">
    <path
       d="M -581.6875,1359.5625 L -584.75,1362.25 L -581,1368 C -574.04683,1368.5248 -567.01193,1363.0589 -568.125,1354 L -571.5625,1356.5625 L -575.1875,1354.1875 C -574.39913,1357.557 -577.83479,1361.1246 -581.6875,1359.5625 z"
       id="path8461"
       style="fill:#bebebe;fill-opacity:1;fill-rule:nonzero;stroke:none;stroke-width:2;marker:none;visibility:visible;display:inline;overflow:visible;enable-background:accumulate" />
    <path
       d="M -583.25,1358.625 L -587.1875,1361.875 L -584.25,1367.25 C -591.51066,1365.1008 -596.82194,1352.3791 -585.625,1345.25 L -583.1875,1351.125 C -585.40674,1352.9259 -585.74822,1356.9078 -583.25,1358.625 z"
       id="path8463"
       style="fill:#bebebe;fill-opacity:1;fill-rule:nonzero;stroke:none;stroke-width:2;marker:none;visibility:visible;display:inline;overflow:visible;enable-background:accumulate" />
    <path
       d="M -583.75,1344.5625 L -581.6875,1350.25 C -580.13299,1349.9047 -578.67166,1349.7946 -577.0625,1351 L -571.5625,1353.875 L -568.875,1351.6875 C -571.31372,1345.1274 -578.20087,1342.8374 -583.75,1344.5625 z"
       id="path8465"
       style="fill:#bebebe;fill-opacity:1;fill-rule:nonzero;stroke:none;stroke-width:2;marker:none;visibility:visible;display:inline;overflow:visible;enable-background:accumulate" />
    <rect
       width="24"
       height="24"
       x="-592"
       y="1344"
       id="rect8352-1"
       style="opacity:0;fill:#ffffff;fill-opacity:1;stroke:none;display:inline" />
  </g>
  <g
     transform="translate(592.07638,-1344)"
     id="layer4" />
  <g
     transform="translate(592.07638,-1344)"
     id="layer12" />
  <g
     transform="translate(592.07638,-1344)"
     id="layer9" />
  <g
     transform="translate(592.07638,-1344)"
     id="layer10" />
  <g
     transform="translate(592.07638,-1344)"
     id="layer6" />
</svg>
