<?xml version="1.0" encoding="UTF-8" standalone="no"?>
<!-- Created with Inkscape (http://www.inkscape.org/) -->
<svg
   xmlns:svg="http://www.w3.org/2000/svg"
   xmlns="http://www.w3.org/2000/svg"
   version="1.0"
   width="24"
   height="24.000061"
   id="svg7384">
  <title
     id="title9167">Moblin Icon Theme</title>
  <defs
     id="defs7386" />
  <g
     transform="translate(617.99995,-1164)"
     id="layer3" />
  <g
     transform="translate(617.99995,-1164)"
     id="layer5" />
  <g
     transform="translate(617.99995,-1164)"
     id="layer7" />
  <g
     transform="translate(617.99995,-1164)"
     id="layer2" />
  <g
     transform="translate(617.99995,-1164)"
     id="layer8" />
  <g
     transform="translate(617.99995,-2116.3622)"
     id="layer1" />
  <g
     transform="translate(617.99995,-1164)"
     id="layer11">
    <g
       transform="translate(-223.03248,857)"
       id="use10124">
      <rect
         width="24"
         height="24"
         x="370.96747"
         y="307.00006"
         transform="scale(-1,1)"
         id="rect12469"
         style="opacity:0;fill:#ffffff;fill-opacity:1;stroke:none;display:inline" />
      <g
         transform="translate(1.9929617,0)"
         id="g12471">
        <path
           d="M -389.96747,308 L -389.96747,315 L -393.96747,315 L -393.96747,325 L -391.96747,325 L -391.96747,328 L -377.96043,328 L -377.96043,325 L -375.96043,325 L -375.96043,315 L -379.90497,315 L -379.90497,313 L -384.90497,308 L -389.96747,308 z"
           id="path12473"
           style="fill:none;stroke:#bebebe;stroke-width:2;stroke-linecap:round;stroke-linejoin:round;marker:none;stroke-miterlimit:4;stroke-dasharray:none;stroke-dashoffset:0;stroke-opacity:1;visibility:visible;display:inline;overflow:visible;enable-background:accumulate" />
        <path
           d="M -389.96747,315 L -389.96747,318 L -379.96747,318 L -379.96747,315"
           id="path12475"
           style="fill:none;stroke:#bebebe;stroke-width:2;stroke-linecap:round;stroke-linejoin:round;marker:none;stroke-miterlimit:4;stroke-dasharray:none;stroke-dashoffset:0;stroke-opacity:1;visibility:visible;display:inline;overflow:visible;enable-background:accumulate" />
      </g>
    </g>
  </g>
  <g
     transform="translate(617.99995,-1164)"
     id="layer4" />
  <g
     transform="translate(617.99995,-1164)"
     id="layer12" />
  <g
     transform="translate(617.99995,-1164)"
     id="layer9" />
  <g
     transform="translate(617.99995,-1164)"
     id="layer10" />
  <g
     transform="translate(617.99995,-1164)"
     id="layer6" />
</svg>
