<?xml version="1.0" encoding="UTF-8" standalone="no"?>
<!-- Created with Inkscape (http://www.inkscape.org/) -->
<svg
   xmlns:svg="http://www.w3.org/2000/svg"
   xmlns="http://www.w3.org/2000/svg"
   version="1.0"
   width="24.000002"
   height="24.000061"
   id="svg7384">
  <title
     id="title9167">Moblin Icon Theme</title>
  <defs
     id="defs7386" />
  <g
     transform="translate(618,-1214)"
     id="layer3" />
  <g
     transform="translate(618,-1214)"
     id="layer5" />
  <g
     transform="translate(618,-1214)"
     id="layer7" />
  <g
     transform="translate(618,-1214)"
     id="layer2" />
  <g
     transform="translate(618,-1214)"
     id="layer8" />
  <g
     transform="translate(618,-2166.3622)"
     id="layer1" />
  <g
     transform="translate(618,-1214)"
     id="layer11">
    <g
       transform="translate(-223.03253,907)"
       id="use10124">
      <rect
         width="24"
         height="24"
         x="370.96747"
         y="307.00006"
         transform="scale(-1,1)"
         id="rect11205"
         style="opacity:0;fill:#ffffff;fill-opacity:1;stroke:none;display:inline" />
      <g
         id="g11207">
        <path
           d="M -389.96747,308 L -389.96747,315 L -393.96747,315 L -393.96747,325 L -391.96747,325 L -391.96747,328 L -375.96747,328 L -375.96747,325 L -373.96747,325 L -373.96747,315 L -377.96747,315 L -377.96747,313 L -382.96747,308 L -389.96747,308 z"
           id="path11209"
           style="fill:none;stroke:#bebebe;stroke-width:2;stroke-linecap:round;stroke-linejoin:round;marker:none;stroke-miterlimit:4;stroke-dasharray:none;stroke-dashoffset:0;stroke-opacity:1;visibility:visible;display:inline;overflow:visible;enable-background:accumulate" />
        <path
           d="M -389.46747,315 L -389.46747,317.5 L -378.46747,317.5 L -378.46747,315"
           id="path11211"
           style="fill:none;stroke:#bebebe;stroke-width:1;stroke-linecap:round;stroke-linejoin:round;marker:none;stroke-miterlimit:4;stroke-dasharray:none;stroke-dashoffset:0;stroke-opacity:1;visibility:visible;display:inline;overflow:visible;enable-background:accumulate" />
      </g>
    </g>
  </g>
  <g
     transform="translate(618,-1214)"
     id="layer4" />
  <g
     transform="translate(618,-1214)"
     id="layer9" />
  <g
     transform="translate(618,-1214)"
     id="layer10" />
  <g
     transform="translate(618,-1214)"
     id="layer6" />
</svg>
