<?xml version="1.0" encoding="UTF-8" standalone="no"?>
<!-- Created with Inkscape (http://www.inkscape.org/) -->
<svg
   xmlns:svg="http://www.w3.org/2000/svg"
   xmlns="http://www.w3.org/2000/svg"
   version="1.0"
   width="24.185474"
   height="24.100401"
   id="svg7384">
  <title
     id="title9167">Moblin Icon Theme</title>
  <defs
     id="defs7386" />
  <g
     transform="translate(618.12744,-1154)"
     id="layer3" />
  <g
     transform="translate(618.12744,-1154)"
     id="layer5" />
  <g
     transform="translate(618.12744,-1154)"
     id="layer7" />
  <g
     transform="translate(618.12744,-1154)"
     id="layer2" />
  <g
     transform="translate(618.12744,-1154)"
     id="layer8" />
  <g
     transform="translate(618.12744,-2106.3622)"
     id="layer1" />
  <g
     transform="translate(618.12744,-1154)"
     id="layer11">
    <rect
       width="24"
       height="24"
       x="-618"
       y="1154.0818"
       id="rect9435"
       style="opacity:0;fill:#ffffff;fill-opacity:1;stroke:none;display:inline" />
    <path
       d="M -618.125,1154 L -618.125,1155 L -618.125,1177.0938 L -618.125,1178.0938 L -617.125,1178.0938 L -594.9375,1178.0938 L -593.9375,1178.0938 L -593.9375,1177.0938 L -593.9375,1155 L -593.9375,1154 L -594.9375,1154 L -617.125,1154 L -618.125,1154 z M -616.125,1156 L -595.9375,1156 L -595.9375,1176.0938 L -616.125,1176.0938 L -616.125,1156 z"
       id="rect9443"
       style="fill:#bebebe;fill-opacity:1;stroke:none;stroke-width:2;stroke-linecap:butt;stroke-linejoin:miter;marker:none;stroke-miterlimit:4;stroke-dasharray:none;stroke-dashoffset:0;stroke-opacity:1;visibility:visible;display:inline;overflow:visible;enable-background:accumulate" />
    <path
       d="M -609,1154 L -609,1155 L -609,1168 L -609,1169 L -608,1169 L -594.9375,1169 L -593.9375,1169 L -593.9375,1168 L -593.9375,1155 L -593.9375,1154 L -594.9375,1154 L -608,1154 L -609,1154 z M -607,1156 L -595.9375,1156 L -595.9375,1167 L -607,1167 L -607,1156 z"
       id="rect9445"
       style="fill:#bebebe;fill-opacity:1;stroke:none;stroke-width:2;stroke-linecap:butt;stroke-linejoin:miter;marker:none;stroke-miterlimit:4;stroke-dasharray:none;stroke-dashoffset:0;stroke-opacity:1;visibility:visible;display:inline;overflow:visible;enable-background:accumulate" />
    <path
       d="M -604,1178 L -604,1177 L -604,1168 L -604,1167 L -603,1167 L -594.9375,1167 L -593.9375,1167 L -593.9375,1168 L -593.9375,1177 L -593.9375,1178 L -594.9375,1178 L -603,1178 L -604,1178 z M -602,1176 L -595.9375,1176 L -595.9375,1169 L -602,1169 L -602,1176 z"
       id="rect9447"
       style="fill:#bebebe;fill-opacity:1;stroke:none;stroke-width:2;stroke-linecap:butt;stroke-linejoin:miter;marker:none;stroke-miterlimit:4;stroke-dasharray:none;stroke-dashoffset:0;stroke-opacity:1;visibility:visible;display:inline;overflow:visible;enable-background:accumulate" />
  </g>
  <g
     transform="translate(618.12744,-1154)"
     id="layer4" />
  <g
     transform="translate(618.12744,-1154)"
     id="layer9" />
  <g
     transform="translate(618.12744,-1154)"
     id="layer10" />
  <g
     transform="translate(618.12744,-1154)"
     id="layer6" />
</svg>
