<?xml version="1.0" encoding="UTF-8" standalone="no"?>
<!-- Created with Inkscape (http://www.inkscape.org/) -->
<svg
   xmlns:svg="http://www.w3.org/2000/svg"
   xmlns="http://www.w3.org/2000/svg"
   version="1.0"
   width="24.185474"
   height="24.100401"
   id="svg7384">
  <title
     id="title9167">Moblin Icon Theme</title>
  <defs
     id="defs7386" />
  <g
     transform="translate(618.12744,-1104)"
     id="layer3" />
  <g
     transform="translate(618.12744,-1104)"
     id="layer5" />
  <g
     transform="translate(618.12744,-1104)"
     id="layer7" />
  <g
     transform="translate(618.12744,-1104)"
     id="layer2" />
  <g
     transform="translate(618.12744,-1104)"
     id="layer8" />
  <g
     transform="translate(618.12744,-2056.3622)"
     id="layer1" />
  <g
     transform="translate(618.12744,-1104)"
     id="layer11">
    <rect
       width="24"
       height="24"
       x="-618"
       y="1104.0818"
       id="rect9435"
       style="opacity:0;fill:#ffffff;fill-opacity:1;stroke:none;display:inline" />
    <path
       d="M -618.125,1104 L -618.125,1105 L -618.125,1127.0938 L -618.125,1128.0938 L -617.125,1128.0938 L -594.9375,1128.0938 L -593.9375,1128.0938 L -593.9375,1127.0938 L -593.9375,1105 L -593.9375,1104 L -594.9375,1104 L -617.125,1104 L -618.125,1104 z M -616.125,1106 L -595.9375,1106 L -595.9375,1126.0938 L -616.125,1126.0938 L -616.125,1106 z"
       id="rect9443"
       style="fill:#bebebe;fill-opacity:1;stroke:none;stroke-width:2;stroke-linecap:butt;stroke-linejoin:miter;marker:none;stroke-miterlimit:4;stroke-dasharray:none;stroke-dashoffset:0;stroke-opacity:1;visibility:visible;display:inline;overflow:visible;enable-background:accumulate" />
    <path
       d="M -609,1104 L -609,1105 L -609,1118 L -609,1119 L -608,1119 L -594.9375,1119 L -593.9375,1119 L -593.9375,1118 L -593.9375,1105 L -593.9375,1104 L -594.9375,1104 L -608,1104 L -609,1104 z M -607,1106 L -595.9375,1106 L -595.9375,1117 L -607,1117 L -607,1106 z"
       id="rect9445"
       style="fill:#bebebe;fill-opacity:1;stroke:none;stroke-width:2;stroke-linecap:butt;stroke-linejoin:miter;marker:none;stroke-miterlimit:4;stroke-dasharray:none;stroke-dashoffset:0;stroke-opacity:1;visibility:visible;display:inline;overflow:visible;enable-background:accumulate" />
    <path
       d="M -604,1128 L -604,1127 L -604,1118 L -604,1117 L -603,1117 L -594.9375,1117 L -593.9375,1117 L -593.9375,1118 L -593.9375,1127 L -593.9375,1128 L -594.9375,1128 L -603,1128 L -604,1128 z M -602,1126 L -595.9375,1126 L -595.9375,1119 L -602,1119 L -602,1126 z"
       id="rect9447"
       style="fill:#bebebe;fill-opacity:1;stroke:none;stroke-width:2;stroke-linecap:butt;stroke-linejoin:miter;marker:none;stroke-miterlimit:4;stroke-dasharray:none;stroke-dashoffset:0;stroke-opacity:1;visibility:visible;display:inline;overflow:visible;enable-background:accumulate" />
  </g>
  <g
     transform="translate(618.12744,-1104)"
     id="layer4" />
  <g
     transform="translate(618.12744,-1104)"
     id="layer12" />
  <g
     transform="translate(618.12744,-1104)"
     id="layer9" />
  <g
     transform="translate(618.12744,-1104)"
     id="layer10" />
  <g
     transform="translate(618.12744,-1104)"
     id="layer6" />
</svg>
