<?xml version="1.0" encoding="UTF-8" standalone="no"?>
<!-- Created with Inkscape (http://www.inkscape.org/) -->
<svg
   xmlns:svg="http://www.w3.org/2000/svg"
   xmlns="http://www.w3.org/2000/svg"
   version="1.0"
   width="24"
   height="24"
   id="svg7384">
  <title
     id="title9167">Moblin Icon Theme</title>
  <defs
     id="defs7386" />
  <g
     transform="translate(592,-1214)"
     id="layer3" />
  <g
     transform="translate(592,-1214)"
     id="layer5" />
  <g
     transform="translate(592,-1214)"
     id="layer7" />
  <g
     transform="translate(592,-1214)"
     id="layer2" />
  <g
     transform="translate(592,-1214)"
     id="layer8" />
  <g
     transform="translate(592,-2166.3622)"
     id="layer1" />
  <g
     transform="translate(592,-1214)"
     id="layer11">
    <rect
       width="24"
       height="24"
       x="-592"
       y="1214"
       id="rect10155"
       style="opacity:0;fill:#ffffff;fill-opacity:1;stroke:none;display:inline" />
    <path
       d="M -588.69842,1218.383 L -583.05207,1224.8204 L -589.76222,1234.1472 C -590.19189,1234.6632 -590.01845,1235.4939 -589.40949,1235.8366 C -588.80052,1236.1794 -587.88765,1235.9602 -587.55279,1235.3908 L -579.24692,1223.9426 L -586.20257,1216.4445 C -587.58097,1215.1652 -589.93,1216.9079 -588.69842,1218.383 z"
       id="path10175"
       style="font-size:medium;font-style:normal;font-variant:normal;font-weight:normal;font-stretch:normal;text-indent:0;text-align:start;text-decoration:none;line-height:normal;letter-spacing:normal;word-spacing:normal;text-transform:none;direction:ltr;block-progression:tb;writing-mode:lr-tb;text-anchor:start;fill:#bebebe;fill-opacity:1;stroke:none;stroke-width:2;marker:none;visibility:visible;display:inline;overflow:visible;enable-background:accumulate;font-family:Bitstream Vera Sans;-inkscape-font-specification:Bitstream Vera Sans" />
    <path
       d="M -571.30158,1233.617 L -576.94793,1227.1796 L -570.23778,1217.8528 C -569.80811,1217.3368 -569.98155,1216.5061 -570.59052,1216.1634 C -571.19948,1215.8206 -572.11235,1216.0398 -572.44721,1216.6092 L -580.75308,1228.0574 L -573.79744,1235.5555 C -572.41904,1236.8348 -570.07,1235.0921 -571.30158,1233.617 L -571.30158,1233.617 z"
       id="path10206"
       style="font-size:medium;font-style:normal;font-variant:normal;font-weight:normal;font-stretch:normal;text-indent:0;text-align:start;text-decoration:none;line-height:normal;letter-spacing:normal;word-spacing:normal;text-transform:none;direction:ltr;block-progression:tb;writing-mode:lr-tb;text-anchor:start;fill:#bebebe;fill-opacity:1;stroke:none;stroke-width:2;marker:none;visibility:visible;display:inline;overflow:visible;enable-background:accumulate;font-family:Bitstream Vera Sans;-inkscape-font-specification:Bitstream Vera Sans" />
  </g>
  <g
     transform="translate(592,-1214)"
     id="layer4" />
  <g
     transform="translate(592,-1214)"
     id="layer9" />
  <g
     transform="translate(592,-1214)"
     id="layer10" />
  <g
     transform="translate(592,-1214)"
     id="layer6" />
</svg>
