<?xml version="1.0" encoding="UTF-8" standalone="no"?>
<!-- Created with Inkscape (http://www.inkscape.org/) -->
<svg
   xmlns:svg="http://www.w3.org/2000/svg"
   xmlns="http://www.w3.org/2000/svg"
   version="1.0"
   width="24"
   height="24"
   id="svg7384">
  <title
     id="title9167">Moblin Icon Theme</title>
  <defs
     id="defs7386" />
  <g
     transform="translate(592,-1164)"
     id="layer3" />
  <g
     transform="translate(592,-1164)"
     id="layer5" />
  <g
     transform="translate(592,-1164)"
     id="layer7" />
  <g
     transform="translate(592,-1164)"
     id="layer2" />
  <g
     transform="translate(592,-1164)"
     id="layer8" />
  <g
     transform="translate(592,-2116.3622)"
     id="layer1" />
  <g
     transform="translate(592,-1164)"
     id="layer11">
    <rect
       width="24"
       height="24"
       x="-592"
       y="1164"
       id="rect10155"
       style="opacity:0;fill:#ffffff;fill-opacity:1;stroke:none;display:inline" />
    <path
       d="M -588.69842,1168.383 L -583.05207,1174.8204 L -589.76222,1184.1472 C -590.19189,1184.6632 -590.01845,1185.4939 -589.40949,1185.8366 C -588.80052,1186.1794 -587.88765,1185.9602 -587.55279,1185.3908 L -579.24692,1173.9426 L -586.20257,1166.4445 C -587.58097,1165.1652 -589.93,1166.9079 -588.69842,1168.383 z"
       id="path10175"
       style="font-size:medium;font-style:normal;font-variant:normal;font-weight:normal;font-stretch:normal;text-indent:0;text-align:start;text-decoration:none;line-height:normal;letter-spacing:normal;word-spacing:normal;text-transform:none;direction:ltr;block-progression:tb;writing-mode:lr-tb;text-anchor:start;fill:#bebebe;fill-opacity:1;stroke:none;stroke-width:2;marker:none;visibility:visible;display:inline;overflow:visible;enable-background:accumulate;font-family:Bitstream Vera Sans;-inkscape-font-specification:Bitstream Vera Sans" />
    <path
       d="M -571.30158,1183.617 L -576.94793,1177.1796 L -570.23778,1167.8528 C -569.80811,1167.3368 -569.98155,1166.5061 -570.59052,1166.1634 C -571.19948,1165.8206 -572.11235,1166.0398 -572.44721,1166.6092 L -580.75308,1178.0574 L -573.79744,1185.5555 C -572.41904,1186.8348 -570.07,1185.0921 -571.30158,1183.617 L -571.30158,1183.617 z"
       id="path10206"
       style="font-size:medium;font-style:normal;font-variant:normal;font-weight:normal;font-stretch:normal;text-indent:0;text-align:start;text-decoration:none;line-height:normal;letter-spacing:normal;word-spacing:normal;text-transform:none;direction:ltr;block-progression:tb;writing-mode:lr-tb;text-anchor:start;fill:#bebebe;fill-opacity:1;stroke:none;stroke-width:2;marker:none;visibility:visible;display:inline;overflow:visible;enable-background:accumulate;font-family:Bitstream Vera Sans;-inkscape-font-specification:Bitstream Vera Sans" />
  </g>
  <g
     transform="translate(592,-1164)"
     id="layer4" />
  <g
     transform="translate(592,-1164)"
     id="layer12" />
  <g
     transform="translate(592,-1164)"
     id="layer9" />
  <g
     transform="translate(592,-1164)"
     id="layer10" />
  <g
     transform="translate(592,-1164)"
     id="layer6" />
</svg>
