<?xml version="1.0" encoding="UTF-8" standalone="no"?>
<!-- Created with Inkscape (http://www.inkscape.org/) -->
<svg
   xmlns:svg="http://www.w3.org/2000/svg"
   xmlns="http://www.w3.org/2000/svg"
   version="1.0"
   width="24.000004"
   height="24.000002"
   id="svg7384">
  <title
     id="title9167">Moblin Icon Theme</title>
  <defs
     id="defs7386" />
  <g
     transform="translate(566,-1244)"
     id="layer3" />
  <g
     transform="translate(566,-1244)"
     id="layer5" />
  <g
     transform="translate(566,-1244)"
     id="layer7" />
  <g
     transform="translate(566,-1244)"
     id="layer2" />
  <g
     transform="translate(566,-1244)"
     id="layer8" />
  <g
     transform="translate(566,-2196.3622)"
     id="layer1" />
  <g
     transform="translate(566,-1244)"
     id="layer11">
    <rect
       width="24"
       height="24"
       x="-566"
       y="1244"
       id="rect6488-4"
       style="opacity:0;fill:#ffffff;fill-opacity:1;stroke:none;display:inline" />
    <path
       d="M -566,1244 L -566,1245 L -566,1263 L -566,1264 L -565,1264 L -556.3125,1264 L -556.3125,1262 L -564,1262 L -564,1246 L -544,1246 L -544,1262 L -551.78125,1262 L -551.78125,1264 L -543,1264 L -542,1264 L -542,1263 L -542,1245 L -542,1244 L -543,1244 L -565,1244 L -566,1244 z"
       id="rect6492-6"
       style="fill:#bebebe;fill-opacity:1;stroke:none;stroke-width:2;marker:none;stroke-miterlimit:4;stroke-opacity:1;visibility:visible;display:inline;overflow:visible;enable-background:accumulate" />
    <path
       d="M -556.49573,1261.9472 C -556.84533,1262.0214 -557.12877,1262.2765 -557.23923,1262.6164 C -557.34969,1262.9563 -557.27039,1263.3293 -557.03121,1263.5948 C -556.92599,1263.7186 -556.82112,1263.8143 -556.70169,1263.9244 C -555.08629,1265.4135 -552.54772,1265.3338 -551.05857,1263.7184 C -550.68321,1263.3089 -550.71087,1262.6727 -551.12035,1262.2973 C -551.52984,1261.922 -552.16607,1261.9496 -552.54143,1262.3591 C -553.29713,1263.1789 -554.52264,1263.2384 -555.3424,1262.4827 C -555.41139,1262.4191 -555.44641,1262.3482 -555.50716,1262.2767 C -555.74891,1261.9903 -556.1305,1261.8632 -556.49573,1261.9472 L -556.49573,1261.9472 z"
       id="path6501-0"
       style="fill:#bebebe;fill-opacity:1;stroke:none;stroke-width:1.51733434;stroke-linecap:round;stroke-linejoin:round;marker:none;stroke-miterlimit:4;stroke-dasharray:none;stroke-dashoffset:0;stroke-opacity:1;visibility:visible;display:inline;overflow:visible;enable-background:accumulate" />
    <path
       d="M -545.46875,1244.4688 C -545.72023,1244.5005 -545.90821,1244.7153 -545.90625,1244.9688 L -545.90625,1258 L -552.5,1258 C -552.63059,1258.0051 -552.75398,1258.0612 -552.84375,1258.1562 L -554,1259.3125 L -555.15625,1258.1562 C -555.24602,1258.0612 -555.36941,1258.0051 -555.5,1258 L -561.90625,1258 L -561.90625,1245.375 C -561.9037,1245.1947 -561.99844,1245.027 -562.15419,1244.9361 C -562.30994,1244.8452 -562.50256,1244.8452 -562.65831,1244.9361 C -562.81406,1245.027 -562.9088,1245.1947 -562.90625,1245.375 L -562.90625,1258.5 C -562.90622,1258.7761 -562.68238,1259 -562.40625,1259 L -555.6875,1259 L -554.34375,1260.3438 C -554.15092,1260.5263 -553.84908,1260.5263 -553.65625,1260.3438 L -552.3125,1259 L -545.40625,1259 C -545.13012,1259 -544.90628,1258.7761 -544.90625,1258.5 L -544.90625,1244.9688 C -544.90514,1244.8246 -544.96631,1244.687 -545.07407,1244.5912 C -545.18183,1244.4954 -545.3257,1244.4508 -545.46875,1244.4688 z"
       id="path6510-6"
       style="fill:#bebebe;fill-opacity:1;stroke:none;stroke-width:1;stroke-linecap:round;stroke-linejoin:round;marker:none;stroke-miterlimit:4;stroke-dasharray:none;stroke-dashoffset:0;stroke-opacity:1;visibility:visible;display:inline;overflow:visible;enable-background:accumulate" />
    <g
       transform="translate(-615,876.63782)"
       id="g10710">
      <path
         d="M -550.17328,1249.1369 A 2.9610097,2.9610097 0 0 1 -550.17328,1255.0589"
         transform="matrix(1.0131698,0,0,1.0131698,621.41894,-893.22553)"
         id="path10706"
         style="fill:none;stroke:#bebebe;stroke-width:1.97400284;stroke-linecap:butt;stroke-linejoin:miter;marker:none;stroke-miterlimit:4;stroke-dasharray:none;stroke-dashoffset:0;stroke-opacity:1;visibility:visible;display:inline;overflow:visible;enable-background:accumulate" />
      <path
         d="M 63,372.36218 L 63,378.37268"
         id="path10708"
         style="fill:none;stroke:#bebebe;stroke-width:2;stroke-linecap:square;stroke-linejoin:miter;marker:none;stroke-miterlimit:4;stroke-dasharray:none;stroke-dashoffset:0;stroke-opacity:1;visibility:visible;display:inline;overflow:visible;enable-background:accumulate" />
    </g>
  </g>
  <g
     transform="translate(566,-1244)"
     id="layer4" />
  <g
     transform="translate(566,-1244)"
     id="layer9" />
  <g
     transform="translate(566,-1244)"
     id="layer10" />
  <g
     transform="translate(566,-1244)"
     id="layer6" />
</svg>
