<?xml version="1.0" encoding="UTF-8" standalone="no"?>
<!-- Created with Inkscape (http://www.inkscape.org/) -->
<svg
   xmlns:svg="http://www.w3.org/2000/svg"
   xmlns="http://www.w3.org/2000/svg"
   version="1.0"
   width="24.000004"
   height="24.000002"
   id="svg7384">
  <title
     id="title9167">Moblin Icon Theme</title>
  <defs
     id="defs7386" />
  <g
     transform="translate(565.99995,-1194)"
     id="layer3" />
  <g
     transform="translate(565.99995,-1194)"
     id="layer5" />
  <g
     transform="translate(565.99995,-1194)"
     id="layer7" />
  <g
     transform="translate(565.99995,-1194)"
     id="layer2" />
  <g
     transform="translate(565.99995,-1194)"
     id="layer8" />
  <g
     transform="translate(565.99995,-2146.3622)"
     id="layer1" />
  <g
     transform="translate(565.99995,-1194)"
     id="layer11">
    <rect
       width="24"
       height="24"
       x="-565.99994"
       y="1194"
       id="rect6488-4"
       style="opacity:0;fill:#ffffff;fill-opacity:1;stroke:none;display:inline" />
    <path
       d="M -566,1194 L -566,1195 L -566,1213 L -566,1214 L -565,1214 L -556.3125,1214 L -556.3125,1212 L -564,1212 L -564,1196 L -544,1196 L -544,1212 L -551.78125,1212 L -551.78125,1214 L -543,1214 L -542,1214 L -542,1213 L -542,1195 L -542,1194 L -543,1194 L -565,1194 L -566,1194 z"
       id="rect6492-6"
       style="fill:#bebebe;fill-opacity:1;stroke:none;stroke-width:2;marker:none;stroke-miterlimit:4;stroke-opacity:1;visibility:visible;display:inline;overflow:visible;enable-background:accumulate" />
    <path
       d="M -556.49568,1211.9472 C -556.84528,1212.0214 -557.12872,1212.2765 -557.23918,1212.6164 C -557.34964,1212.9563 -557.27034,1213.3293 -557.03116,1213.5948 C -556.92594,1213.7186 -556.82107,1213.8143 -556.70164,1213.9244 C -555.08624,1215.4135 -552.54767,1215.3338 -551.05852,1213.7184 C -550.68316,1213.3089 -550.71082,1212.6727 -551.1203,1212.2973 C -551.52979,1211.922 -552.16602,1211.9496 -552.54138,1212.3591 C -553.29708,1213.1789 -554.52259,1213.2384 -555.34235,1212.4827 C -555.41134,1212.4191 -555.44636,1212.3482 -555.50711,1212.2767 C -555.74886,1211.9903 -556.13045,1211.8632 -556.49568,1211.9472 L -556.49568,1211.9472 z"
       id="path6501-0"
       style="fill:#bebebe;fill-opacity:1;stroke:none;stroke-width:1.51733434;stroke-linecap:round;stroke-linejoin:round;marker:none;stroke-miterlimit:4;stroke-dasharray:none;stroke-dashoffset:0;stroke-opacity:1;visibility:visible;display:inline;overflow:visible;enable-background:accumulate" />
    <path
       d="M -545.46875,1194.4688 C -545.72023,1194.5005 -545.90821,1194.7153 -545.90625,1194.9688 L -545.90625,1208 L -552.5,1208 C -552.63059,1208.0051 -552.75398,1208.0612 -552.84375,1208.1562 L -554,1209.3125 L -555.15625,1208.1562 C -555.24602,1208.0612 -555.36941,1208.0051 -555.5,1208 L -561.90625,1208 L -561.90625,1195.375 C -561.9037,1195.1947 -561.99844,1195.027 -562.15419,1194.9361 C -562.30994,1194.8452 -562.50256,1194.8452 -562.65831,1194.9361 C -562.81406,1195.027 -562.9088,1195.1947 -562.90625,1195.375 L -562.90625,1208.5 C -562.90622,1208.7761 -562.68238,1209 -562.40625,1209 L -555.6875,1209 L -554.34375,1210.3438 C -554.15092,1210.5263 -553.84908,1210.5263 -553.65625,1210.3438 L -552.3125,1209 L -545.40625,1209 C -545.13012,1209 -544.90628,1208.7761 -544.90625,1208.5 L -544.90625,1194.9688 C -544.90514,1194.8246 -544.96631,1194.687 -545.07407,1194.5912 C -545.18183,1194.4954 -545.3257,1194.4508 -545.46875,1194.4688 L -545.46875,1194.4688 z"
       id="path6510-6"
       style="fill:#bebebe;fill-opacity:1;stroke:none;stroke-width:1;stroke-linecap:round;stroke-linejoin:round;marker:none;stroke-miterlimit:4;stroke-dasharray:none;stroke-dashoffset:0;stroke-opacity:1;visibility:visible;display:inline;overflow:visible;enable-background:accumulate" />
    <g
       transform="translate(-614.99995,826.63782)"
       id="g10710">
      <path
         d="M -550.17328,1249.1369 A 2.9610097,2.9610097 0 0 1 -550.17328,1255.0589"
         transform="matrix(1.0131698,0,0,1.0131698,621.41894,-893.22553)"
         id="path10706"
         style="fill:none;stroke:#bebebe;stroke-width:1.97400284;stroke-linecap:butt;stroke-linejoin:miter;marker:none;stroke-miterlimit:4;stroke-dasharray:none;stroke-dashoffset:0;stroke-opacity:1;visibility:visible;display:inline;overflow:visible;enable-background:accumulate" />
      <path
         d="M 63,372.36218 L 63,378.37268"
         id="path10708"
         style="fill:none;stroke:#bebebe;stroke-width:2;stroke-linecap:square;stroke-linejoin:miter;marker:none;stroke-miterlimit:4;stroke-dasharray:none;stroke-dashoffset:0;stroke-opacity:1;visibility:visible;display:inline;overflow:visible;enable-background:accumulate" />
    </g>
  </g>
  <g
     transform="translate(565.99995,-1194)"
     id="layer4" />
  <g
     transform="translate(565.99995,-1194)"
     id="layer12" />
  <g
     transform="translate(565.99995,-1194)"
     id="layer9" />
  <g
     transform="translate(565.99995,-1194)"
     id="layer10" />
  <g
     transform="translate(565.99995,-1194)"
     id="layer6" />
</svg>
