<?xml version="1.0" encoding="UTF-8" standalone="no"?>
<!-- Created with Inkscape (http://www.inkscape.org/) -->
<svg
   xmlns:svg="http://www.w3.org/2000/svg"
   xmlns="http://www.w3.org/2000/svg"
   version="1.0"
   width="24"
   height="24"
   id="svg7384">
  <title
     id="title9167">Moblin Icon Theme</title>
  <defs
     id="defs7386" />
  <g
     transform="translate(454,-1184)"
     id="layer3" />
  <g
     transform="translate(454,-1184)"
     id="layer5" />
  <g
     transform="translate(454,-1184)"
     id="layer7" />
  <g
     transform="translate(454,-1184)"
     id="layer2" />
  <g
     transform="translate(454,-1184)"
     id="layer8" />
  <g
     transform="translate(454,-2136.3622)"
     id="layer1" />
  <g
     transform="translate(454,-1184)"
     id="layer11">
    <rect
       width="24"
       height="24"
       x="-454"
       y="1184"
       id="rect9927"
       style="opacity:0;fill:#ffffff;fill-opacity:1;stroke:none;display:inline" />
    <g
       transform="translate(19.918502,822.99983)"
       id="g9929" />
    <path
       d="M -449.9375,1184.0625 L -449.9375,1185.0625 L -449.9375,1195 L -449.9375,1196 L -448.9375,1196 L -435,1196 L -434,1196 L -434,1195 L -434,1185.0625 L -434,1184.0625 L -435,1184.0625 L -448.9375,1184.0625 L -449.9375,1184.0625 z M -447.9375,1186.0625 L -436,1186.0625 L -436,1194 L -447.9375,1194 L -447.9375,1186.0625 z"
       id="rect9941"
       style="fill:#bebebe;fill-opacity:1;fill-rule:nonzero;stroke:none;stroke-width:2;stroke-linecap:butt;stroke-linejoin:miter;marker:none;stroke-miterlimit:4;stroke-dasharray:none;stroke-dashoffset:0;stroke-opacity:1;visibility:visible;display:inline;overflow:visible;enable-background:accumulate" />
    <path
       d="M -448.625,1200 L -448.90625,1200.4688 L -450.90625,1203.5938 L -451.25,1204.1562 L -450.875,1204.6875 L -448.875,1207.5625 L -448.59375,1208 L -448.0625,1208 L -436,1208 L -435.46875,1208 L -435.15625,1207.5312 L -433.15625,1204.4688 L -432.8125,1203.9375 L -433.1875,1203.375 L -435.1875,1200.4375 L -435.46875,1200 L -436,1200 L -448.0625,1200 L -448.625,1200 z M -447.53125,1202 L -436.5,1202 L -435.1875,1203.9375 L -436.53125,1206 L -447.5625,1206 L -448.875,1204.125 L -447.53125,1202 z"
       id="rect9943"
       style="fill:#bebebe;fill-opacity:1;fill-rule:nonzero;stroke:none;stroke-width:2;stroke-linecap:butt;stroke-linejoin:miter;marker:none;stroke-miterlimit:4;stroke-dasharray:none;stroke-dashoffset:0;stroke-opacity:1;visibility:visible;display:inline;overflow:visible;enable-background:accumulate" />
    <path
       d="M -442.125,1193.9688 C -442.6401,1194.0333 -443.02017,1194.4813 -443,1195 L -443,1201 C -443.0051,1201.3606 -442.81562,1201.6961 -442.50413,1201.8779 C -442.19263,1202.0597 -441.80737,1202.0597 -441.49587,1201.8779 C -441.18438,1201.6961 -440.9949,1201.3606 -441,1201 L -441,1195 C -440.98853,1194.7063 -441.10687,1194.4224 -441.32356,1194.2237 C -441.54026,1194.0251 -441.83337,1193.9319 -442.125,1193.9688 z"
       id="path9946"
       style="fill:#bebebe;fill-opacity:1;stroke:none;stroke-width:1.99999988;stroke-linecap:round;stroke-linejoin:round;marker:none;stroke-miterlimit:4;stroke-dasharray:none;stroke-dashoffset:0;stroke-opacity:1;visibility:visible;display:inline;overflow:visible;enable-background:accumulate" />
  </g>
  <g
     transform="translate(454,-1184)"
     id="layer4" />
  <g
     transform="translate(454,-1184)"
     id="layer9" />
  <g
     transform="translate(454,-1184)"
     id="layer10" />
  <g
     transform="translate(454,-1184)"
     id="layer6" />
</svg>
