<?xml version="1.0" encoding="UTF-8" standalone="no"?>
<!-- Created with Inkscape (http://www.inkscape.org/) -->
<svg
   xmlns:svg="http://www.w3.org/2000/svg"
   xmlns="http://www.w3.org/2000/svg"
   version="1.0"
   width="24"
   height="24"
   id="svg7384">
  <title
     id="title9167">Moblin Icon Theme</title>
  <defs
     id="defs7386" />
  <g
     transform="translate(453.99995,-1134)"
     id="layer3" />
  <g
     transform="translate(453.99995,-1134)"
     id="layer5" />
  <g
     transform="translate(453.99995,-1134)"
     id="layer7" />
  <g
     transform="translate(453.99995,-1134)"
     id="layer2" />
  <g
     transform="translate(453.99995,-1134)"
     id="layer8" />
  <g
     transform="translate(453.99995,-2086.3622)"
     id="layer1" />
  <g
     transform="translate(453.99995,-1134)"
     id="layer11">
    <rect
       width="24"
       height="24"
       x="-453.99994"
       y="1134"
       id="rect9927"
       style="opacity:0;fill:#ffffff;fill-opacity:1;stroke:none;display:inline" />
    <g
       transform="translate(19.918548,772.99983)"
       id="g9929" />
    <path
       d="M -449.9375,1134.0625 L -449.9375,1135.0625 L -449.9375,1145 L -449.9375,1146 L -448.9375,1146 L -435,1146 L -434,1146 L -434,1145 L -434,1135.0625 L -434,1134.0625 L -435,1134.0625 L -448.9375,1134.0625 L -449.9375,1134.0625 z M -447.9375,1136.0625 L -436,1136.0625 L -436,1144 L -447.9375,1144 L -447.9375,1136.0625 z"
       id="rect9941"
       style="fill:#bebebe;fill-opacity:1;stroke:none;stroke-width:2;stroke-linecap:butt;stroke-linejoin:miter;marker:none;stroke-miterlimit:4;stroke-dasharray:none;stroke-dashoffset:0;stroke-opacity:1;visibility:visible;display:inline;overflow:visible;enable-background:accumulate" />
    <path
       d="M -448.625,1150 L -448.90625,1150.4688 L -450.90625,1153.5938 L -451.25,1154.1562 L -450.875,1154.6875 L -448.875,1157.5625 L -448.59375,1158 L -448.0625,1158 L -436,1158 L -435.46875,1158 L -435.15625,1157.5312 L -433.15625,1154.4688 L -432.8125,1153.9375 L -433.1875,1153.375 L -435.1875,1150.4375 L -435.46875,1150 L -436,1150 L -448.0625,1150 L -448.625,1150 z M -447.53125,1152 L -436.5,1152 L -435.1875,1153.9375 L -436.53125,1156 L -447.5625,1156 L -448.875,1154.125 L -447.53125,1152 z"
       id="rect9943"
       style="fill:#bebebe;fill-opacity:1;stroke:none;stroke-width:2;stroke-linecap:butt;stroke-linejoin:miter;marker:none;stroke-miterlimit:4;stroke-dasharray:none;stroke-dashoffset:0;stroke-opacity:1;visibility:visible;display:inline;overflow:visible;enable-background:accumulate" />
    <path
       d="M -442.125,1143.9688 C -442.6401,1144.0333 -443.02017,1144.4813 -443,1145 L -443,1151 C -443.0051,1151.3606 -442.81562,1151.6961 -442.50413,1151.8779 C -442.19263,1152.0597 -441.80737,1152.0597 -441.49587,1151.8779 C -441.18438,1151.6961 -440.9949,1151.3606 -441,1151 L -441,1145 C -440.98853,1144.7063 -441.10687,1144.4224 -441.32356,1144.2237 C -441.54026,1144.0251 -441.83337,1143.9319 -442.125,1143.9688 z"
       id="path9946"
       style="fill:#bebebe;fill-opacity:1;stroke:none;stroke-width:1.99999988;stroke-linecap:round;stroke-linejoin:round;marker:none;stroke-miterlimit:4;stroke-dasharray:none;stroke-dashoffset:0;stroke-opacity:1;visibility:visible;display:inline;overflow:visible;enable-background:accumulate" />
  </g>
  <g
     transform="translate(453.99995,-1134)"
     id="layer4" />
  <g
     transform="translate(453.99995,-1134)"
     id="layer12" />
  <g
     transform="translate(453.99995,-1134)"
     id="layer9" />
  <g
     transform="translate(453.99995,-1134)"
     id="layer10" />
  <g
     transform="translate(453.99995,-1134)"
     id="layer6" />
</svg>
