<?xml version="1.0" encoding="UTF-8" standalone="no"?>
<!-- Created with Inkscape (http://www.inkscape.org/) -->
<svg
   xmlns:svg="http://www.w3.org/2000/svg"
   xmlns="http://www.w3.org/2000/svg"
   version="1.0"
   width="24"
   height="24"
   id="svg7384">
  <title
     id="title9167">Moblin Icon Theme</title>
  <defs
     id="defs7386" />
  <g
     transform="translate(592,-1133.9814)"
     id="layer3" />
  <g
     transform="translate(592,-1133.9814)"
     id="layer5" />
  <g
     transform="translate(592,-1133.9814)"
     id="layer7" />
  <g
     transform="translate(592,-1133.9814)"
     id="layer2" />
  <g
     transform="translate(592,-1133.9814)"
     id="layer8" />
  <g
     transform="translate(592,-2086.3436)"
     id="layer1" />
  <g
     transform="translate(592,-1133.9814)"
     id="layer11">
    <rect
       width="24"
       height="24"
       x="-592"
       y="1133.9814"
       id="rect9795"
       style="opacity:0;fill:#ffffff;fill-opacity:1;stroke:none;display:inline" />
    <path
       d="M -580.125,1136 C -580.21068,1136.01 -580.29471,1136.031 -580.375,1136.0625 L -588.9375,1138.875 L -588.96875,1138.875 C -589.23933,1138.8666 -589.50177,1138.9682 -589.69612,1139.1566 C -589.89046,1139.3451 -590.0001,1139.6043 -590,1139.875 L -590,1152 C -589.99465,1152.4273 -589.71842,1152.804 -589.3125,1152.9375 L -580.3125,1155.9375 C -580.10952,1156.0043 -579.89048,1156.0043 -579.6875,1155.9375 L -570.6875,1152.9375 C -570.28158,1152.804 -570.00535,1152.4273 -570,1152 L -570,1139.9375 C -570.00535,1139.5102 -570.28158,1139.1335 -570.6875,1139 L -579.75,1136.0625 C -579.86985,1136.0179 -579.99715,1135.9967 -580.125,1136 z M -580.03125,1138.0312 L -572,1140.6562 L -572,1151.2812 L -580,1153.9688 L -588,1151.2812 L -588,1140.6562 L -580.03125,1138.0312 z"
       id="rect9809"
       style="fill:#bebebe;fill-opacity:1;stroke:none;stroke-width:2.00000024;stroke-linecap:round;stroke-linejoin:round;marker:none;stroke-miterlimit:4;stroke-dashoffset:0;stroke-opacity:1;visibility:visible;display:inline;overflow:visible;enable-background:accumulate" />
    <path
       d="M -576,1195 A 0.9375,0.9375 0 1 1 -577.875,1195 A 0.9375,0.9375 0 1 1 -576,1195 z"
       transform="translate(0,-50)"
       id="path9822"
       style="fill:#bebebe;fill-opacity:1;stroke:none;stroke-width:2;marker:none;visibility:visible;display:inline;overflow:visible;enable-background:accumulate" />
    <path
       d="M -576,1195 A 0.9375,0.9375 0 1 1 -577.875,1195 A 0.9375,0.9375 0 1 1 -576,1195 z"
       transform="translate(2.875,-45.0625)"
       id="path9824"
       style="fill:#bebebe;fill-opacity:1;stroke:none;stroke-width:2;marker:none;visibility:visible;display:inline;overflow:visible;enable-background:accumulate" />
    <path
       d="M -576,1195 A 0.9375,0.9375 0 1 1 -577.875,1195 A 0.9375,0.9375 0 1 1 -576,1195 z"
       transform="translate(-3,-55.0625)"
       id="path9826"
       style="fill:#bebebe;fill-opacity:1;stroke:none;stroke-width:2;marker:none;visibility:visible;display:inline;overflow:visible;enable-background:accumulate" />
    <path
       d="M -576,1195 A 0.9375,0.9375 0 1 1 -577.875,1195 A 0.9375,0.9375 0 1 1 -576,1195 z"
       transform="translate(-0.125,-44.0625)"
       id="path9828"
       style="fill:#bebebe;fill-opacity:1;stroke:none;stroke-width:2;marker:none;visibility:visible;display:inline;overflow:visible;enable-background:accumulate" />
    <path
       d="M -576,1195 A 0.9375,0.9375 0 1 1 -577.875,1195 A 0.9375,0.9375 0 1 1 -576,1195 z"
       transform="translate(3,-51.0625)"
       id="path9830"
       style="fill:#bebebe;fill-opacity:1;stroke:none;stroke-width:2;marker:none;visibility:visible;display:inline;overflow:visible;enable-background:accumulate" />
    <path
       d="M -576,1195 A 0.9375,0.9375 0 1 1 -577.875,1195 A 0.9375,0.9375 0 1 1 -576,1195 z"
       transform="translate(-8.125,-50.0625)"
       id="path9832"
       style="fill:#bebebe;fill-opacity:1;stroke:none;stroke-width:2;marker:none;visibility:visible;display:inline;overflow:visible;enable-background:accumulate" />
    <path
       d="M -576,1195 A 0.9375,0.9375 0 1 1 -577.875,1195 A 0.9375,0.9375 0 1 1 -576,1195 z"
       transform="translate(-6.125,-44.0625)"
       id="path9834"
       style="fill:#bebebe;fill-opacity:1;stroke:none;stroke-width:2;marker:none;visibility:visible;display:inline;overflow:visible;enable-background:accumulate" />
  </g>
  <g
     transform="translate(592,-1133.9814)"
     id="layer4" />
  <g
     transform="translate(592,-1133.9814)"
     id="layer12" />
  <g
     transform="translate(592,-1133.9814)"
     id="layer9" />
  <g
     transform="translate(592,-1133.9814)"
     id="layer10" />
  <g
     transform="translate(592,-1133.9814)"
     id="layer6" />
</svg>
