<?xml version="1.0" encoding="UTF-8" standalone="no"?>
<!-- Created with Inkscape (http://www.inkscape.org/) -->
<svg
   xmlns:svg="http://www.w3.org/2000/svg"
   xmlns="http://www.w3.org/2000/svg"
   version="1.0"
   width="24"
   height="24"
   id="svg7384">
  <title
     id="title9167">Moblin Icon Theme</title>
  <defs
     id="defs7386" />
  <g
     transform="translate(592,-1183.9814)"
     id="layer3" />
  <g
     transform="translate(592,-1183.9814)"
     id="layer5" />
  <g
     transform="translate(592,-1183.9814)"
     id="layer7" />
  <g
     transform="translate(592,-1183.9814)"
     id="layer2" />
  <g
     transform="translate(592,-1183.9814)"
     id="layer8" />
  <g
     transform="translate(592,-2136.3436)"
     id="layer1" />
  <g
     transform="translate(592,-1183.9814)"
     id="layer11">
    <rect
       width="24"
       height="24"
       x="-592"
       y="1183.9814"
       id="rect9795"
       style="opacity:0;fill:#ffffff;fill-opacity:1;stroke:none;display:inline" />
    <path
       d="M -579.43802,1186.7737 C -579.78678,1186.6747 -580.30637,1186.6834 -580.62378,1186.7934 L -589.63627,1189.7976 C -589.96021,1189.9127 -589.94703,1190.0931 -589.60667,1190.2028 L -580.59418,1193.2069 C -580.26087,1193.3113 -579.74164,1193.3113 -579.40833,1193.2069 L -570.39583,1190.2028 C -570.05548,1190.0931 -570.0423,1189.9127 -570.36624,1189.7976 L -579.37873,1186.7934 C -579.39752,1186.7865 -579.41731,1186.7799 -579.43802,1186.7737 L -579.43802,1186.7737 z M -580.00125,1187.416 L -572.23381,1190.0051 L -580.00125,1192.5943 L -587.76869,1190.0051 L -580.00125,1187.416 z"
       id="rect9807"
       style="fill:#bebebe;fill-opacity:1;stroke:none;stroke-width:1.29099429;stroke-linecap:round;stroke-linejoin:round;marker:none;stroke-miterlimit:4;stroke-dasharray:none;stroke-dashoffset:0;stroke-opacity:1;visibility:visible;display:inline;overflow:visible;enable-background:accumulate" />
    <path
       d="M -580.125,1186 C -580.21068,1186.01 -580.29471,1186.031 -580.375,1186.0625 L -588.9375,1188.875 L -588.96875,1188.875 C -589.23933,1188.8666 -589.50177,1188.9682 -589.69612,1189.1566 C -589.89046,1189.3451 -590.0001,1189.6043 -590,1189.875 L -590,1202 C -589.99465,1202.4273 -589.71842,1202.804 -589.3125,1202.9375 L -580.3125,1205.9375 C -580.10952,1206.0043 -579.89048,1206.0043 -579.6875,1205.9375 L -570.6875,1202.9375 C -570.28158,1202.804 -570.00535,1202.4273 -570,1202 L -570,1189.9375 C -570.00535,1189.5102 -570.28158,1189.1335 -570.6875,1189 L -579.75,1186.0625 C -579.86985,1186.0179 -579.99715,1185.9967 -580.125,1186 L -580.125,1186 z M -580.03125,1188.0312 L -572,1190.6562 L -572,1201.2812 L -580,1203.9688 L -588,1201.2812 L -588,1190.6562 L -580.03125,1188.0312 z"
       id="rect9809"
       style="fill:#bebebe;fill-opacity:1;stroke:none;stroke-width:2.00000024;stroke-linecap:round;stroke-linejoin:round;marker:none;stroke-miterlimit:4;stroke-dashoffset:0;stroke-opacity:1;visibility:visible;display:inline;overflow:visible;enable-background:accumulate" />
    <path
       d="M -576,1195 A 0.9375,0.9375 0 1 1 -577.875,1195 A 0.9375,0.9375 0 1 1 -576,1195 z"
       id="path9822"
       style="fill:#bebebe;fill-opacity:1;stroke:none;stroke-width:2;stroke-linecap:round;stroke-linejoin:round;marker:none;stroke-miterlimit:4;stroke-dasharray:none;stroke-dashoffset:0;stroke-opacity:1;visibility:visible;display:inline;overflow:visible;enable-background:accumulate" />
    <path
       d="M -576,1195 A 0.9375,0.9375 0 1 1 -577.875,1195 A 0.9375,0.9375 0 1 1 -576,1195 z"
       transform="translate(2.875,4.9375)"
       id="path9824"
       style="fill:#bebebe;fill-opacity:1;stroke:none;stroke-width:2;marker:none;visibility:visible;display:inline;overflow:visible;enable-background:accumulate" />
    <path
       d="M -576,1195 A 0.9375,0.9375 0 1 1 -577.875,1195 A 0.9375,0.9375 0 1 1 -576,1195 z"
       transform="translate(-3,-5.0625)"
       id="path9826"
       style="fill:#bebebe;fill-opacity:1;stroke:none;stroke-width:2;marker:none;visibility:visible;display:inline;overflow:visible;enable-background:accumulate" />
    <path
       d="M -576,1195 A 0.9375,0.9375 0 1 1 -577.875,1195 A 0.9375,0.9375 0 1 1 -576,1195 z"
       transform="translate(-0.125,5.9375)"
       id="path9828"
       style="fill:#bebebe;fill-opacity:1;stroke:none;stroke-width:2;marker:none;visibility:visible;display:inline;overflow:visible;enable-background:accumulate" />
    <path
       d="M -576,1195 A 0.9375,0.9375 0 1 1 -577.875,1195 A 0.9375,0.9375 0 1 1 -576,1195 z"
       transform="translate(3,-1.0625)"
       id="path9830"
       style="fill:#bebebe;fill-opacity:1;stroke:none;stroke-width:2;marker:none;visibility:visible;display:inline;overflow:visible;enable-background:accumulate" />
    <path
       d="M -576,1195 A 0.9375,0.9375 0 1 1 -577.875,1195 A 0.9375,0.9375 0 1 1 -576,1195 z"
       transform="translate(-8.125,-6.25e-2)"
       id="path9832"
       style="fill:#bebebe;fill-opacity:1;stroke:none;stroke-width:2;marker:none;visibility:visible;display:inline;overflow:visible;enable-background:accumulate" />
    <path
       d="M -576,1195 A 0.9375,0.9375 0 1 1 -577.875,1195 A 0.9375,0.9375 0 1 1 -576,1195 z"
       transform="translate(-6.125,5.9375)"
       id="path9834"
       style="fill:#bebebe;fill-opacity:1;stroke:none;stroke-width:2;marker:none;visibility:visible;display:inline;overflow:visible;enable-background:accumulate" />
  </g>
  <g
     transform="translate(592,-1183.9814)"
     id="layer4" />
  <g
     transform="translate(592,-1183.9814)"
     id="layer9" />
  <g
     transform="translate(592,-1183.9814)"
     id="layer10" />
  <g
     transform="translate(592,-1183.9814)"
     id="layer6" />
</svg>
