<?xml version="1.0" encoding="UTF-8" standalone="no"?>
<!-- Created with Inkscape (http://www.inkscape.org/) -->
<svg
   xmlns:svg="http://www.w3.org/2000/svg"
   xmlns="http://www.w3.org/2000/svg"
   version="1.0"
   width="24"
   height="24"
   id="svg7384">
  <title
     id="title9167">Moblin Icon Theme</title>
  <defs
     id="defs7386" />
  <g
     transform="translate(454,-1244)"
     id="layer3" />
  <g
     transform="translate(454,-1244)"
     id="layer5" />
  <g
     transform="translate(454,-1244)"
     id="layer7" />
  <g
     transform="translate(454,-1244)"
     id="layer2" />
  <g
     transform="translate(454,-1244)"
     id="layer8" />
  <g
     transform="translate(454,-2196.3622)"
     id="layer1" />
  <g
     transform="translate(454,-1244)"
     id="layer11">
    <rect
       width="24"
       height="24"
       x="-454"
       y="1244"
       id="rect10892"
       style="opacity:0;fill:#ffffff;fill-opacity:1;stroke:none;display:inline" />
    <path
       d="M -441.5569,1250.7605 C -441.897,1250.682 -442.35651,1250.6944 -442.65417,1250.7901 L -449.71196,1253.1361 C -449.88051,1253.1904 -449.97565,1253.2651 -449.97565,1253.3431 C -449.97565,1253.4212 -449.88051,1253.4958 -449.71196,1253.5502 L -442.65417,1255.8962 C -442.30867,1256.0038 -441.76757,1255.9994 -441.43828,1255.8863 L -434.38049,1253.5403 C -434.06785,1253.4294 -434.06785,1253.2569 -434.38049,1253.146 L -441.43828,1250.7999 C -441.4739,1250.7855 -441.51362,1250.7723 -441.5569,1250.7605 z M -442.03128,1251.4111 L -436.21898,1253.3431 L -442.03128,1255.2752 L -447.84358,1253.3431 L -442.03128,1251.4111 z"
       id="rect10894"
       style="fill:#bebebe;fill-opacity:1;stroke:none;stroke-width:1.29243505;stroke-linecap:round;stroke-linejoin:round;marker:none;stroke-miterlimit:4;stroke-dasharray:none;stroke-dashoffset:0;stroke-opacity:1;visibility:visible;display:inline;overflow:visible;enable-background:accumulate" />
    <path
       d="M -442.125,1250 C -442.20006,1250.0124 -442.27345,1250.0334 -442.34375,1250.0625 L -448.9375,1252.25 L -448.96875,1252.25 C -449.23933,1252.2416 -449.50177,1252.3432 -449.69612,1252.5316 C -449.89046,1252.7201 -450.0001,1252.9793 -450,1253.25 L -450,1262.7188 C -449.99461,1263.146 -449.71838,1263.5227 -449.3125,1263.6562 L -442.3125,1266 C -442.10952,1266.0668 -441.89048,1266.0668 -441.6875,1266 L -434.6875,1263.6562 C -434.28162,1263.5227 -434.00539,1263.146 -434,1262.7188 L -434,1253.2812 C -434.00539,1252.854 -434.28162,1252.4773 -434.6875,1252.3438 L -434.71875,1252.3438 C -434.78905,1252.3147 -434.86244,1252.2937 -434.9375,1252.2812 L -441.71875,1250.0625 C -441.84838,1250.0138 -441.98672,1249.9925 -442.125,1250 z M -442.03125,1252.0312 L -436,1254.0312 L -436,1262 L -442,1264 L -448,1262 L -448,1254 L -442.03125,1252.0312 z"
       id="path10896"
       style="fill:#bebebe;fill-opacity:1;stroke:none;stroke-width:1.99999988;stroke-linecap:round;stroke-linejoin:round;marker:none;stroke-miterlimit:4;stroke-dashoffset:0;stroke-opacity:1;visibility:visible;display:inline;overflow:visible;enable-background:accumulate" />
    <path
       d="M -442.09709,1255.8228 L -440.4067,1260.037 L -432.6942,1257.5085 L -434.43744,1253.2942 L -442.09709,1255.8228 L -442.09709,1255.8228 z"
       id="path10912"
       style="fill:#bebebe;fill-opacity:1;fill-rule:nonzero;stroke:none;stroke-width:2;marker:none;visibility:visible;display:inline;overflow:visible;enable-background:accumulate" />
    <path
       d="M -442.04816,1255.8228 L -443.73858,1260.037 L -451.45107,1257.5085 L -449.70785,1253.2942 L -442.04816,1255.8228 L -442.04816,1255.8228 z"
       id="path10914"
       style="fill:#bebebe;fill-opacity:1;fill-rule:nonzero;stroke:none;stroke-width:2;marker:none;visibility:visible;display:inline;overflow:visible;enable-background:accumulate" />
    <path
       d="M -439.71875,1247.5938 C -440.00169,1247.5871 -440.27422,1247.7006 -440.46875,1247.9062 L -442.78125,1250.3125 C -443.01094,1250.5603 -443.10001,1250.9072 -443.01807,1251.235 C -442.93613,1251.5627 -442.69426,1251.827 -442.375,1251.9375 L -435.21875,1254.2812 C -434.85548,1254.4021 -434.45506,1254.3051 -434.1875,1254.0312 L -431.9375,1251.625 C -431.70781,1251.3772 -431.61874,1251.0303 -431.70068,1250.7025 C -431.78262,1250.3748 -432.02449,1250.1105 -432.34375,1250 L -439.4375,1247.6562 C -439.52775,1247.6219 -439.62248,1247.6009 -439.71875,1247.5938 z M -439.46875,1249.75 L -434.4375,1251.4062 L -435.1875,1252.2188 L -440.21875,1250.5625 L -439.46875,1249.75 z"
       id="path10916"
       style="fill:#bebebe;fill-opacity:1;stroke:none;stroke-width:2;stroke-linejoin:round;marker:none;stroke-opacity:1;visibility:visible;display:inline;overflow:visible;enable-background:accumulate" />
    <path
       d="M -444.34375,1247.5938 C -444.45058,1247.5978 -444.55609,1247.6188 -444.65625,1247.6562 L -451.75,1250 C -452.07439,1250.1032 -452.324,1250.3643 -452.4125,1250.693 C -452.501,1251.0217 -452.41622,1251.3729 -452.1875,1251.625 L -449.9375,1254.0312 C -449.66404,1254.3175 -449.24743,1254.4155 -448.875,1254.2812 L -441.75,1251.9375 C -441.42561,1251.8343 -441.176,1251.5732 -441.0875,1251.2445 C -440.999,1250.9158 -441.08378,1250.5646 -441.3125,1250.3125 L -443.625,1247.9062 C -443.81211,1247.7086 -444.07164,1247.5958 -444.34375,1247.5938 z M -444.625,1249.75 L -443.875,1250.5625 L -448.90625,1252.2188 L -449.65625,1251.4062 L -444.625,1249.75 z"
       id="path10918"
       style="fill:#bebebe;fill-opacity:1;stroke:none;stroke-width:2;stroke-linecap:butt;stroke-linejoin:round;marker:none;stroke-miterlimit:4;stroke-dasharray:none;stroke-dashoffset:0;stroke-opacity:1;visibility:visible;display:inline;overflow:visible;enable-background:accumulate" />
  </g>
  <g
     transform="translate(454,-1244)"
     id="layer4" />
  <g
     transform="translate(454,-1244)"
     id="layer9" />
  <g
     transform="translate(454,-1244)"
     id="layer10" />
  <g
     transform="translate(454,-1244)"
     id="layer6" />
</svg>
