<?xml version="1.0" encoding="UTF-8" standalone="no"?>
<!-- Created with Inkscape (http://www.inkscape.org/) -->
<svg
   xmlns:svg="http://www.w3.org/2000/svg"
   xmlns="http://www.w3.org/2000/svg"
   version="1.0"
   width="24"
   height="24"
   id="svg7384">
  <title
     id="title9167">Moblin Icon Theme</title>
  <defs
     id="defs7386" />
  <g
     transform="translate(454,-1194)"
     id="layer3" />
  <g
     transform="translate(454,-1194)"
     id="layer5" />
  <g
     transform="translate(454,-1194)"
     id="layer7" />
  <g
     transform="translate(454,-1194)"
     id="layer2" />
  <g
     transform="translate(454,-1194)"
     id="layer8" />
  <g
     transform="translate(454,-2146.3622)"
     id="layer1" />
  <g
     transform="translate(454,-1194)"
     id="layer11">
    <rect
       width="24"
       height="24"
       x="-454"
       y="1194"
       id="rect10892"
       style="opacity:0;fill:#ffffff;fill-opacity:1;stroke:none;display:inline" />
    <path
       d="M -441.5569,1200.764 C -441.897,1200.6855 -442.35651,1200.6979 -442.65417,1200.7936 L -449.71196,1203.1396 C -449.88051,1203.1939 -449.97565,1203.2686 -449.97565,1203.3466 C -449.97565,1203.4246 -449.88051,1203.4993 -449.71196,1203.5536 L -442.68378,1205.8899 C -442.5204,1205.9459 -442.29571,1205.9775 -442.06101,1205.9775 C -441.82631,1205.9775 -441.60163,1205.9458 -441.43828,1205.8898 L -434.38049,1203.5438 C -434.05698,1203.4289 -434.07016,1203.2491 -434.4101,1203.1396 L -441.43828,1200.8034 C -441.4739,1200.789 -441.51362,1200.7758 -441.5569,1200.764 L -441.5569,1200.764 z M -442.06098,1201.4047 L -436.21898,1203.3466 L -442.03128,1205.2787 L -447.87328,1203.3367 L -442.06098,1201.4047 z"
       id="rect10894"
       style="fill:#bebebe;fill-opacity:1;stroke:none;stroke-width:1.29243505;stroke-linecap:round;stroke-linejoin:round;marker:none;stroke-miterlimit:4;stroke-dasharray:none;stroke-dashoffset:0;stroke-opacity:1;visibility:visible;display:inline;overflow:visible;enable-background:accumulate" />
    <path
       d="M -442.125,1200 C -442.20006,1200.0124 -442.27345,1200.0334 -442.34375,1200.0625 L -448.9375,1202.25 L -448.96875,1202.25 C -449.23933,1202.2416 -449.50177,1202.3432 -449.69612,1202.5316 C -449.89046,1202.7201 -450.0001,1202.9793 -450,1203.25 L -450,1212.7188 C -449.99461,1213.146 -449.71838,1213.5227 -449.3125,1213.6562 L -442.3125,1216 C -442.10952,1216.0668 -441.89048,1216.0668 -441.6875,1216 L -434.6875,1213.6562 C -434.28162,1213.5227 -434.00539,1213.146 -434,1212.7188 L -434,1203.2812 C -433.99984,1202.9774 -434.13782,1202.6899 -434.375,1202.5 C -434.4692,1202.43 -434.57498,1202.3771 -434.6875,1202.3438 L -441.71875,1200.0625 C -441.84838,1200.0138 -441.98672,1199.9925 -442.125,1200 z M -442.03125,1202.0312 L -436,1204.0312 L -436,1212 L -442,1214 L -448,1212 L -448,1204 L -442.03125,1202.0312 z"
       id="path10896"
       style="fill:#bebebe;fill-opacity:1;stroke:none;stroke-width:1.99999988;stroke-linecap:round;stroke-linejoin:round;marker:none;stroke-miterlimit:4;stroke-dashoffset:0;stroke-opacity:1;visibility:visible;display:inline;overflow:visible;enable-background:accumulate" />
    <path
       d="M -442.09709,1205.8228 L -440.4067,1210.037 L -432.6942,1207.5085 L -434.43744,1203.2942 L -442.09709,1205.8228 L -442.09709,1205.8228 z"
       id="path10912"
       style="fill:#bebebe;fill-opacity:1;fill-rule:nonzero;stroke:none;stroke-width:2;marker:none;visibility:visible;display:inline;overflow:visible;enable-background:accumulate" />
    <path
       d="M -442.04816,1205.8228 L -443.73858,1210.037 L -451.45107,1207.5085 L -449.70785,1203.2942 L -442.04816,1205.8228 L -442.04816,1205.8228 z"
       id="path10914"
       style="fill:#bebebe;fill-opacity:1;fill-rule:nonzero;stroke:none;stroke-width:2;marker:none;visibility:visible;display:inline;overflow:visible;enable-background:accumulate" />
    <path
       d="M -439.71875,1197.5938 C -440.00169,1197.5871 -440.27422,1197.7006 -440.46875,1197.9062 L -442.78125,1200.3125 C -443.01094,1200.5603 -443.10001,1200.9072 -443.01807,1201.235 C -442.93613,1201.5627 -442.69426,1201.827 -442.375,1201.9375 L -435.21875,1204.2812 C -434.85548,1204.4021 -434.45506,1204.3051 -434.1875,1204.0312 L -431.9375,1201.625 C -431.70781,1201.3772 -431.61874,1201.0303 -431.70068,1200.7025 C -431.78262,1200.3748 -432.02449,1200.1105 -432.34375,1200 L -439.4375,1197.6562 C -439.52775,1197.6219 -439.62248,1197.6009 -439.71875,1197.5938 z M -439.46875,1199.75 L -434.4375,1201.4062 L -435.1875,1202.2188 L -440.21875,1200.5625 L -439.46875,1199.75 z"
       id="path10916"
       style="fill:#bebebe;fill-opacity:1;stroke:none;stroke-width:2;stroke-linejoin:round;marker:none;stroke-opacity:1;visibility:visible;display:inline;overflow:visible;enable-background:accumulate" />
    <path
       d="M -444.34375,1197.5938 C -444.45058,1197.5978 -444.55609,1197.6188 -444.65625,1197.6562 L -451.75,1200 C -452.07439,1200.1032 -452.324,1200.3643 -452.4125,1200.693 C -452.501,1201.0217 -452.41622,1201.3729 -452.1875,1201.625 L -449.9375,1204.0312 C -449.66404,1204.3175 -449.24743,1204.4155 -448.875,1204.2812 L -441.75,1201.9375 C -441.42561,1201.8343 -441.176,1201.5732 -441.0875,1201.2445 C -440.999,1200.9158 -441.08378,1200.5646 -441.3125,1200.3125 L -443.625,1197.9062 C -443.81211,1197.7086 -444.07164,1197.5958 -444.34375,1197.5938 L -444.34375,1197.5938 z M -444.625,1199.75 L -443.875,1200.5625 L -448.90625,1202.2188 L -449.65625,1201.4062 L -444.625,1199.75 z"
       id="path10918"
       style="fill:#bebebe;fill-opacity:1;stroke:none;stroke-width:2;stroke-linecap:butt;stroke-linejoin:round;marker:none;stroke-miterlimit:4;stroke-dasharray:none;stroke-dashoffset:0;stroke-opacity:1;visibility:visible;display:inline;overflow:visible;enable-background:accumulate" />
  </g>
  <g
     transform="translate(454,-1194)"
     id="layer4" />
  <g
     transform="translate(454,-1194)"
     id="layer12" />
  <g
     transform="translate(454,-1194)"
     id="layer9" />
  <g
     transform="translate(454,-1194)"
     id="layer10" />
  <g
     transform="translate(454,-1194)"
     id="layer6" />
</svg>
