<?xml version="1.0" encoding="UTF-8" standalone="no"?>
<!-- Created with Inkscape (http://www.inkscape.org/) -->
<svg
   xmlns:svg="http://www.w3.org/2000/svg"
   xmlns="http://www.w3.org/2000/svg"
   version="1.0"
   width="24.062489"
   height="24.0625"
   id="svg7384">
  <title
     id="title9167">Moblin Icon Theme</title>
  <defs
     id="defs7386" />
  <g
     transform="translate(482.06244,-1193.9375)"
     id="layer3" />
  <g
     transform="translate(482.06244,-1193.9375)"
     id="layer5" />
  <g
     transform="translate(482.06244,-1193.9375)"
     id="layer7" />
  <g
     transform="translate(482.06244,-1193.9375)"
     id="layer2" />
  <g
     transform="translate(482.06244,-1193.9375)"
     id="layer8" />
  <g
     transform="translate(482.06244,-2146.2997)"
     id="layer1" />
  <g
     transform="translate(482.06244,-1193.9375)"
     id="layer11">
    <rect
       width="24"
       height="24"
       x="-481.99994"
       y="1194"
       id="rect6820-1"
       style="opacity:0.01000001;fill:#f0f0f0;fill-opacity:1;stroke:none;display:inline" />
    <path
       d="M -470.06245,1193.9375 C -476.68987,1193.9375 -482.06245,1199.3101 -482.06245,1205.9375 C -482.06245,1212.5649 -476.68987,1217.9375 -470.06245,1217.9375 C -463.43503,1217.9375 -458.06245,1212.5649 -458.06245,1205.9375 C -458.06245,1199.3101 -463.43503,1193.9375 -470.06245,1193.9375 z M -473.7187,1198.0312 C -472.99799,1198.0312 -472.26392,1198.2986 -471.7187,1198.8438 C -471.69567,1198.8736 -471.67479,1198.905 -471.6562,1198.9378 C -471.64548,1198.9478 -471.63505,1198.9582 -471.6249,1198.9688 C -471.6199,1198.9688 -471.5986,1198.9588 -471.5936,1198.9688 L -470.6561,1199.9062 C -470.62085,1199.9447 -470.58947,1199.9866 -470.5624,1200.0312 C -470.4927,1200.1122 -470.45055,1200.1925 -470.40615,1200.2812 C -469.93982,1201.2021 -470.10722,1202.3573 -470.84365,1203.0938 C -470.87339,1203.1166 -470.9047,1203.1374 -470.93735,1203.1558 C -470.94535,1203.1658 -470.96065,1203.1778 -470.96865,1203.1868 C -470.9788,1203.1974 -470.98923,1203.2078 -470.99995,1203.2178 C -471.01305,1203.2318 -471.01715,1203.2348 -471.03125,1203.2488 L -471.28125,1203.53 C -471.29455,1203.544 -471.33005,1203.549 -471.34375,1203.561 C -471.37082,1203.6056 -471.4022,1203.6475 -471.43745,1203.686 C -471.76119,1204.0097 -471.76119,1204.5185 -471.43745,1204.8423 C -471.39128,1204.8792 -471.34936,1204.9211 -471.31245,1204.9673 C -471.30745,1204.9673 -471.28615,1204.9573 -471.28115,1204.9673 L -468.99995,1207.25 C -468.97335,1207.277 -468.96115,1207.316 -468.93745,1207.344 C -468.88033,1207.3789 -468.82783,1207.4209 -468.7812,1207.469 C -468.45746,1207.7927 -467.94869,1207.7927 -467.62495,1207.469 C -467.6053,1207.4469 -467.58444,1207.4258 -467.56245,1207.406 C -467.54185,1207.382 -467.52275,1207.335 -467.49995,1207.312 L -467.2187,1207.062 C -467.1871,1207.03 -467.1585,1206.996 -467.125,1206.968 C -467.09643,1206.9341 -467.06509,1206.9027 -467.0313,1206.874 C -466.26371,1206.1064 -465.06516,1205.925 -464.12505,1206.4678 C -464.00906,1206.5363 -463.9123,1206.633 -463.8438,1206.749 C -463.8388,1206.759 -463.8175,1206.739 -463.8125,1206.749 L -462.9375,1207.624 C -462.9325,1207.624 -462.9425,1207.65 -462.9375,1207.655 C -462.91622,1207.6644 -462.89537,1207.6748 -462.875,1207.686 C -462.8555,1207.709 -462.83,1207.756 -462.8125,1207.78 C -461.72209,1208.8704 -461.72209,1210.6271 -462.8125,1211.7176 C -462.84941,1211.7638 -462.89133,1211.8057 -462.9375,1211.8426 L -463.5625,1212.4676 C -463.58957,1212.5122 -463.62095,1212.5541 -463.6562,1212.5926 L -463.7187,1212.6546 C -463.773,1212.7086 -463.8152,1212.7376 -463.87495,1212.7796 C -465.76331,1214.4478 -468.69501,1214.3971 -470.49995,1212.5922 C -470.56135,1212.5381 -470.61405,1212.4748 -470.6562,1212.4046 C -470.6853,1212.3796 -470.7219,1212.3706 -470.7499,1212.3426 L -476.40615,1206.6863 C -476.42005,1206.6723 -476.42425,1206.6383 -476.43745,1206.6233 C -476.4821,1206.5961 -476.52396,1206.5647 -476.56245,1206.5293 C -478.38647,1204.7054 -478.41027,1201.7595 -476.68745,1199.8731 C -476.64945,1199.8211 -476.60995,1199.7643 -476.56245,1199.7169 L -476.49995,1199.6539 C -476.47958,1199.6427 -476.45873,1199.6323 -476.43745,1199.6229 L -475.81245,1198.9354 C -475.79055,1198.9134 -475.74155,1198.9244 -475.71875,1198.9044 C -475.70922,1198.8833 -475.69878,1198.8626 -475.68745,1198.8424 C -475.14223,1198.2972 -474.43941,1198.0298 -473.7187,1198.0298 L -473.7187,1198.0312 z M -473.7187,1199.625 C -474.02792,1199.625 -474.35326,1199.7595 -474.5937,1200 C -474.6166,1200.027 -474.6306,1200.037 -474.6562,1200.063 C -474.66635,1200.0736 -474.67678,1200.084 -474.6875,1200.094 L -475.34375,1200.719 C -475.37082,1200.7636 -475.4022,1200.8055 -475.43745,1200.844 L -475.46875,1200.875 C -476.70989,1202.1431 -476.69551,1204.1482 -475.43745,1205.4062 C -475.37837,1205.4508 -475.32578,1205.5034 -475.2812,1205.5625 C -475.2762,1205.5725 -475.2549,1205.5525 -475.2499,1205.5625 L -469.59365,1211.2188 C -469.56175,1211.2508 -469.55935,1211.2788 -469.53115,1211.3128 C -469.461,1211.355 -469.39776,1211.4077 -469.34365,1211.4691 C -468.1064,1212.7062 -466.14592,1212.7116 -464.8749,1211.5311 C -464.8669,1211.5211 -464.8839,1211.5091 -464.8749,1211.5001 L -464.0624,1210.7501 C -464.0454,1210.7331 -464.0176,1210.7031 -463.9999,1210.6871 C -463.98025,1210.665 -463.95939,1210.6439 -463.9374,1210.6241 C -463.45653,1210.1433 -463.45653,1209.3863 -463.9374,1208.9053 C -463.98357,1208.8684 -464.02549,1208.8265 -464.0624,1208.7803 L -464.9374,1207.9053 C -464.9507,1207.8923 -464.956,1207.8563 -464.9687,1207.8433 C -465.28125,1207.6878 -465.6561,1207.7493 -465.9062,1207.9995 C -465.92657,1208.0107 -465.94742,1208.0211 -465.9687,1208.0305 C -465.9787,1208.0445 -465.9895,1208.0485 -466,1208.0615 C -466.01015,1208.0721 -466.02058,1208.0825 -466.0313,1208.0925 C -466.056,1208.1215 -466.0658,1208.1585 -466.0938,1208.1865 L -466.3438,1208.4365 C -466.3488,1208.4465 -466.3701,1208.4265 -466.3751,1208.4365 C -466.41004,1208.4936 -466.45204,1208.5462 -466.5001,1208.5928 C -467.43339,1209.526 -468.97306,1209.526 -469.90635,1208.5928 C -469.93903,1208.574 -469.97034,1208.553 -470.00005,1208.5298 C -470.05175,1208.4918 -470.1088,1208.4528 -470.1563,1208.4048 L -472.4063,1206.1236 C -472.4453,1206.0846 -472.4674,1206.0406 -472.5,1205.9986 C -472.52199,1205.9788 -472.54285,1205.9577 -472.5625,1205.9356 C -473.49579,1205.0023 -473.49579,1203.4939 -472.5625,1202.5606 C -472.54391,1202.5278 -472.52303,1202.4964 -472.5,1202.4666 C -472.4771,1202.4396 -472.4318,1202.3986 -472.4063,1202.3726 L -472.1563,1202.1226 C -472.1259,1202.0926 -472.0949,1202.0866 -472.0626,1202.0596 C -472.03553,1202.015 -472.00415,1201.9731 -471.9689,1201.9346 C -471.72556,1201.6914 -471.67269,1201.3354 -471.81265,1201.0283 L -472.75015,1200.1221 C -472.78175,1200.0901 -472.78525,1200.0621 -472.81265,1200.0281 C -472.83381,1200.0196 -472.85459,1200.0103 -472.87495,1200 C -473.11539,1199.7595 -473.40948,1199.625 -473.7187,1199.625 L -473.7187,1199.625 z"
       id="path10887"
       style="fill:#bebebe;fill-opacity:1;stroke:none;stroke-width:2;marker:none;visibility:visible;display:inline;overflow:visible;enable-background:accumulate" />
  </g>
  <g
     transform="translate(482.06244,-1193.9375)"
     id="layer4" />
  <g
     transform="translate(482.06244,-1193.9375)"
     id="layer12" />
  <g
     transform="translate(482.06244,-1193.9375)"
     id="layer9" />
  <g
     transform="translate(482.06244,-1193.9375)"
     id="layer10" />
  <g
     transform="translate(482.06244,-1193.9375)"
     id="layer6" />
</svg>
