<?xml version="1.0" encoding="UTF-8" standalone="no"?>
<!-- Created with Inkscape (http://www.inkscape.org/) -->
<svg
   xmlns:svg="http://www.w3.org/2000/svg"
   xmlns="http://www.w3.org/2000/svg"
   version="1.0"
   width="24.0625"
   height="24.0625"
   id="svg7384">
  <title
     id="title9167">Moblin Icon Theme</title>
  <defs
     id="defs7386" />
  <g
     transform="translate(482.0625,-1243.9375)"
     id="layer3" />
  <g
     transform="translate(482.0625,-1243.9375)"
     id="layer5" />
  <g
     transform="translate(482.0625,-1243.9375)"
     id="layer7" />
  <g
     transform="translate(482.0625,-1243.9375)"
     id="layer2" />
  <g
     transform="translate(482.0625,-1243.9375)"
     id="layer8" />
  <g
     transform="translate(482.0625,-2196.2997)"
     id="layer1" />
  <g
     transform="translate(482.0625,-1243.9375)"
     id="layer11">
    <rect
       width="24"
       height="24"
       x="-482"
       y="1244"
       id="rect6820-1"
       style="opacity:0.01000001;fill:#f0f0f0;fill-opacity:1;stroke:none;display:inline" />
    <path
       d="M -470.0625,1243.9375 C -476.68992,1243.9375 -482.0625,1249.3101 -482.0625,1255.9375 C -482.0625,1262.5649 -476.68992,1267.9375 -470.0625,1267.9375 C -463.43508,1267.9375 -458.0625,1262.5649 -458.0625,1255.9375 C -458.0625,1249.3101 -463.43508,1243.9375 -470.0625,1243.9375 z M -473.71875,1248.0312 C -472.99804,1248.0312 -472.26397,1248.2986 -471.71875,1248.8438 C -471.69573,1248.8735 -471.67485,1248.9048 -471.65625,1248.9375 C -471.64555,1248.9476 -471.63513,1248.9581 -471.625,1248.9688 C -471.6198,1248.9738 -471.59875,1248.9637 -471.59375,1248.9688 L -470.65625,1249.9062 C -470.62098,1249.9447 -470.58958,1249.9866 -470.5625,1250.0312 C -470.49275,1250.112 -470.45065,1250.1925 -470.40625,1250.2812 C -469.93992,1251.2021 -470.10732,1252.3573 -470.84375,1253.0938 C -470.87349,1253.1168 -470.90482,1253.1376 -470.9375,1253.1562 C -470.9451,1253.1656 -470.96075,1253.1785 -470.96875,1253.1875 C -470.97888,1253.1982 -470.9893,1253.2087 -471,1253.2188 C -471.0131,1253.2331 -471.01725,1253.236 -471.03125,1253.25 L -471.28125,1253.5312 C -471.29455,1253.5447 -471.33005,1253.5499 -471.34375,1253.5625 C -471.37083,1253.6071 -471.40223,1253.649 -471.4375,1253.6875 C -471.76124,1254.0112 -471.76124,1254.52 -471.4375,1254.8438 C -471.39133,1254.8807 -471.34941,1254.9226 -471.3125,1254.9688 C -471.3077,1254.9737 -471.28625,1254.9638 -471.28125,1254.9688 L -469,1257.25 C -468.9734,1257.2766 -468.9612,1257.3157 -468.9375,1257.3438 C -468.88038,1257.3787 -468.82788,1257.4207 -468.78125,1257.4688 C -468.45751,1257.7925 -467.94874,1257.7925 -467.625,1257.4688 C -467.60534,1257.4468 -467.58448,1257.4259 -467.5625,1257.4062 C -467.5419,1257.3825 -467.5228,1257.3353 -467.5,1257.3125 L -467.21875,1257.0625 C -467.18715,1257.0309 -467.1585,1256.9961 -467.125,1256.9688 C -467.09641,1256.935 -467.06505,1256.9036 -467.03125,1256.875 C -466.26366,1256.1074 -465.06511,1255.926 -464.125,1256.4688 C -464.00901,1256.5373 -463.91225,1256.634 -463.84375,1256.75 C -463.83855,1256.755 -463.8175,1256.745 -463.8125,1256.75 L -462.9375,1257.625 C -462.9325,1257.6299 -462.9425,1257.6512 -462.9375,1257.6562 C -462.91622,1257.6657 -462.89537,1257.6762 -462.875,1257.6875 C -462.8555,1257.7105 -462.83,1257.7574 -462.8125,1257.7812 C -461.72209,1258.8716 -461.72209,1260.6283 -462.8125,1261.7188 C -462.84941,1261.765 -462.89133,1261.8069 -462.9375,1261.8438 L -463.5625,1262.4688 C -463.58958,1262.5134 -463.62098,1262.5553 -463.65625,1262.5938 L -463.71875,1262.6562 C -463.77306,1262.7105 -463.8153,1262.7394 -463.875,1262.7812 C -465.76336,1264.4494 -468.69506,1264.3987 -470.5,1262.5938 C -470.5614,1262.5397 -470.6141,1262.4764 -470.65625,1262.4062 C -470.68535,1262.3811 -470.722,1262.3717 -470.75,1262.3438 L -476.40625,1256.6875 C -476.42015,1256.6736 -476.4243,1256.6393 -476.4375,1256.625 C -476.48214,1256.5979 -476.524,1256.5665 -476.5625,1256.5312 C -478.38652,1254.7073 -478.41032,1251.7614 -476.6875,1249.875 C -476.64948,1249.8233 -476.61,1249.7662 -476.5625,1249.7188 L -476.5,1249.6562 C -476.47963,1249.6449 -476.45878,1249.6345 -476.4375,1249.625 L -475.8125,1248.9375 C -475.7906,1248.9156 -475.74165,1248.9262 -475.71875,1248.9062 C -475.70925,1248.885 -475.69882,1248.8641 -475.6875,1248.8438 C -475.14228,1248.2986 -474.43946,1248.0312 -473.71875,1248.0312 z M -473.71875,1249.625 C -474.02797,1249.625 -474.35331,1249.7595 -474.59375,1250 C -474.61665,1250.0269 -474.63065,1250.0369 -474.65625,1250.0625 C -474.66638,1250.0732 -474.6768,1250.0837 -474.6875,1250.0938 L -475.34375,1250.7188 C -475.37083,1250.7634 -475.40223,1250.8053 -475.4375,1250.8438 L -475.46875,1250.875 C -476.70989,1252.1431 -476.69551,1254.1482 -475.4375,1255.4062 C -475.37842,1255.4508 -475.32583,1255.5034 -475.28125,1255.5625 C -475.27645,1255.5675 -475.255,1255.5575 -475.25,1255.5625 L -469.59375,1261.2188 C -469.56185,1261.2507 -469.55945,1261.2792 -469.53125,1261.3125 C -469.4611,1261.3547 -469.39786,1261.4074 -469.34375,1261.4688 C -468.1065,1262.7059 -466.14602,1262.7113 -464.875,1261.5312 C -464.8666,1261.5222 -464.884,1261.509 -464.875,1261.5 L -464.0625,1260.75 C -464.0455,1260.7329 -464.0177,1260.7034 -464,1260.6875 C -463.98034,1260.6655 -463.95947,1260.6447 -463.9375,1260.625 C -463.45663,1260.1442 -463.45663,1259.3872 -463.9375,1258.9062 C -463.98367,1258.8693 -464.02559,1258.8274 -464.0625,1258.7812 L -464.9375,1257.9062 C -464.9508,1257.8929 -464.95615,1257.8574 -464.96875,1257.8438 C -465.2813,1257.6883 -465.65615,1257.7499 -465.90625,1258 C -465.92662,1258.0113 -465.94747,1258.0217 -465.96875,1258.0312 C -465.97855,1258.0447 -465.9895,1258.0492 -466,1258.0625 C -466.01013,1258.0732 -466.02055,1258.0837 -466.03125,1258.0938 C -466.05595,1258.1232 -466.06575,1258.1595 -466.09375,1258.1875 L -466.34375,1258.4375 C -466.34855,1258.4425 -466.37,1258.4325 -466.375,1258.4375 C -466.40994,1258.4946 -466.45194,1258.5472 -466.5,1258.5938 C -467.43329,1259.527 -468.97296,1259.527 -469.90625,1258.5938 C -469.93894,1258.5752 -469.97027,1258.5543 -470,1258.5312 C -470.05173,1258.4933 -470.10875,1258.4537 -470.15625,1258.4062 L -472.40625,1256.125 C -472.44525,1256.086 -472.4674,1256.0419 -472.5,1256 C -472.52197,1255.9803 -472.54284,1255.9595 -472.5625,1255.9375 C -473.49579,1255.0042 -473.49579,1253.4958 -472.5625,1252.5625 C -472.5439,1252.5298 -472.52302,1252.4985 -472.5,1252.4688 C -472.4771,1252.4418 -472.43185,1252.4006 -472.40625,1252.375 L -472.15625,1252.125 C -472.12585,1252.0946 -472.0948,1252.0891 -472.0625,1252.0625 C -472.03542,1252.0179 -472.00402,1251.976 -471.96875,1251.9375 C -471.72541,1251.6943 -471.67254,1251.3383 -471.8125,1251.0312 L -472.75,1250.125 C -472.7816,1250.0934 -472.7851,1250.0648 -472.8125,1250.0312 C -472.83378,1250.0217 -472.85463,1250.0113 -472.875,1250 C -473.11544,1249.7595 -473.40953,1249.625 -473.71875,1249.625 z"
       id="path10887"
       style="fill:#bebebe;fill-opacity:1;stroke:none;stroke-width:2;stroke-linecap:square;stroke-linejoin:miter;marker:none;stroke-miterlimit:4;stroke-dasharray:none;stroke-dashoffset:0;stroke-opacity:1;visibility:visible;display:inline;overflow:visible;enable-background:accumulate" />
  </g>
  <g
     transform="translate(482.0625,-1243.9375)"
     id="layer4" />
  <g
     transform="translate(482.0625,-1243.9375)"
     id="layer9" />
  <g
     transform="translate(482.0625,-1243.9375)"
     id="layer10" />
  <g
     transform="translate(482.0625,-1243.9375)"
     id="layer6" />
</svg>
