<?xml version="1.0" encoding="UTF-8" standalone="no"?>
<!-- Created with Inkscape (http://www.inkscape.org/) -->
<svg
   xmlns:svg="http://www.w3.org/2000/svg"
   xmlns="http://www.w3.org/2000/svg"
   version="1.0"
   width="24"
   height="24"
   id="svg7384">
  <title
     id="title9167">Moblin Icon Theme</title>
  <defs
     id="defs7386" />
  <g
     transform="translate(591.99995,-1194)"
     id="layer3" />
  <g
     transform="translate(591.99995,-1194)"
     id="layer5" />
  <g
     transform="translate(591.99995,-1194)"
     id="layer7" />
  <g
     transform="translate(591.99995,-1194)"
     id="layer2" />
  <g
     transform="translate(591.99995,-1194)"
     id="layer8" />
  <g
     transform="translate(591.99995,-2146.3622)"
     id="layer1" />
  <g
     transform="translate(591.99995,-1194)"
     id="layer11">
    <rect
       width="24"
       height="24"
       x="567.99994"
       y="1194"
       transform="scale(-1,1)"
       id="rect6505-6"
       style="opacity:0;fill:#ffffff;fill-opacity:1;stroke:none;display:inline" />
    <path
       d="M -585.49457,1198.9854 C -586.3171,1198.9854 -587.01485,1199.6831 -587.01485,1200.5057 C -587.01485,1201.3282 -586.3171,1201.9906 -585.49457,1201.9906 C -584.67204,1201.9906 -584.00965,1201.3282 -584.00965,1200.5057 C -584.00965,1199.6831 -584.67204,1198.9854 -585.49457,1198.9854 z M -585.49457,1200.0107 C -585.21311,1200.0107 -584.9996,1200.2242 -584.9996,1200.5057 C -584.9996,1200.7871 -585.2131,1201.0007 -585.49457,1201.0007 C -585.77603,1201.0007 -585.98955,1200.7872 -585.98955,1200.5057 C -585.98955,1200.2242 -585.77604,1200.0107 -585.49457,1200.0107 z"
       id="path6571-83"
       style="fill:#bebebe;fill-opacity:1;stroke:none;stroke-width:0.8838827;stroke-linecap:round;stroke-linejoin:miter;marker:none;stroke-miterlimit:4;stroke-dasharray:none;stroke-dashoffset:0;stroke-opacity:1;visibility:visible;display:inline;overflow:visible;enable-background:accumulate" />
    <path
       d="M -580.49461,1198.9854 C -581.31714,1198.9854 -582.01489,1199.6831 -582.01489,1200.5057 C -582.01489,1201.3282 -581.31714,1201.9906 -580.49461,1201.9906 C -579.67208,1201.9906 -579.00969,1201.3282 -579.00969,1200.5057 C -579.00969,1199.6831 -579.67208,1198.9854 -580.49461,1198.9854 z M -580.49461,1200.0107 C -580.21315,1200.0107 -579.99964,1200.2242 -579.99964,1200.5057 C -579.99964,1200.7871 -580.21314,1201.0007 -580.49461,1201.0007 C -580.77607,1201.0007 -580.98959,1200.7872 -580.98959,1200.5057 C -580.98959,1200.2242 -580.77608,1200.0107 -580.49461,1200.0107 z"
       id="path6573-4"
       style="fill:#bebebe;fill-opacity:1;stroke:none;stroke-width:0.8838827;stroke-linecap:round;stroke-linejoin:miter;marker:none;stroke-miterlimit:4;stroke-dasharray:none;stroke-dashoffset:0;stroke-opacity:1;visibility:visible;display:inline;overflow:visible;enable-background:accumulate" />
    <path
       d="M -575.49461,1198.9854 C -576.31714,1198.9854 -577.01489,1199.6831 -577.01489,1200.5057 C -577.01489,1201.3282 -576.31714,1201.9906 -575.49461,1201.9906 C -574.67208,1201.9906 -574.00969,1201.3282 -574.00969,1200.5057 C -574.00969,1199.6831 -574.67208,1198.9854 -575.49461,1198.9854 z M -575.49461,1200.0107 C -575.21315,1200.0107 -574.99964,1200.2242 -574.99964,1200.5057 C -574.99964,1200.7871 -575.21314,1201.0007 -575.49461,1201.0007 C -575.77607,1201.0007 -575.98959,1200.7872 -575.98959,1200.5057 C -575.98959,1200.2242 -575.77608,1200.0107 -575.49461,1200.0107 z"
       id="path6576-6"
       style="fill:#bebebe;fill-opacity:1;stroke:none;stroke-width:0.8838827;stroke-linecap:round;stroke-linejoin:miter;marker:none;stroke-miterlimit:4;stroke-dasharray:none;stroke-dashoffset:0;stroke-opacity:1;visibility:visible;display:inline;overflow:visible;enable-background:accumulate" />
    <path
       d="M -581.75,1206 C -582.48465,1206.0802 -582.99537,1206.589 -583.28125,1207.1562 C -583.56713,1207.7235 -583.68202,1208.3877 -583.8125,1209 C -583.94298,1209.6123 -584.07675,1210.1741 -584.25,1210.5312 C -584.42325,1210.8884 -584.53562,1211.0027 -584.84375,1211 L -586,1211 L -586,1212 L -584.84375,1212 C -584.14273,1212.0062 -583.60536,1211.5081 -583.34375,1210.9688 C -583.08214,1210.4294 -582.97325,1209.8265 -582.84375,1209.2188 C -582.71425,1208.611 -582.57364,1208.0192 -582.375,1207.625 C -582.17636,1207.2308 -581.99884,1207.0408 -581.625,1207 C -581.02545,1206.9345 -580.1875,1207.6562 -580.1875,1207.6562 L -579.84375,1207.2812 L -580.34375,1207.1875 C -580.34375,1207.1875 -579.32065,1207.4587 -579.03125,1207.2812 C -578.74185,1207.1038 -578.36463,1206.9689 -578.0625,1207 C -577.69667,1207.0376 -577.49842,1207.2294 -577.28125,1207.625 C -577.06408,1208.0206 -576.88978,1208.5866 -576.75,1209.1875 C -576.61022,1209.7884 -576.49598,1210.4145 -576.28125,1210.9375 C -576.17388,1211.199 -576.0523,1211.4533 -575.84375,1211.6562 C -575.6352,1211.8592 -575.32248,1212.0019 -575,1212 L -574,1212 L -574.03125,1211 L -575,1211 C -575.06846,1211.0004 -575.06625,1210.9947 -575.125,1210.9375 C -575.18375,1210.8803 -575.29778,1210.7506 -575.375,1210.5625 C -575.52943,1210.1864 -575.63727,1209.5877 -575.78125,1208.9688 C -575.92523,1208.3498 -576.09777,1207.7182 -576.40625,1207.1562 C -576.71473,1206.5943 -577.23974,1206.075 -577.96875,1206 C -578.61017,1205.934 -579.13944,1206.1972 -579.53125,1206.4375 C -579.71226,1206.5485 -579.73111,1206.5642 -579.84375,1206.6562 C -580.19224,1206.354 -580.82116,1205.8986 -581.75,1206 z"
       id="path10657"
       style="fill:#bebebe;fill-opacity:1;stroke:none;stroke-width:1;stroke-linecap:butt;stroke-linejoin:miter;marker:none;stroke-miterlimit:4;stroke-dasharray:none;stroke-dashoffset:0;stroke-opacity:1;visibility:visible;display:inline;overflow:visible;enable-background:accumulate" />
    <path
       d="M -586.78125,1195.9375 C -588.54213,1195.9375 -590,1197.3641 -590,1199.125 L -590,1214.7812 C -590,1216.5421 -588.54211,1217.9999 -586.78125,1218 L -573.25,1218 C -571.48912,1218 -570.03124,1216.5421 -570.03125,1214.7812 L -570.03125,1199.125 C -570.03125,1197.3641 -571.48911,1195.9375 -573.25,1195.9375 L -586.78125,1195.9375 z M -586.78125,1197.9375 L -573.25,1197.9375 C -572.5625,1197.9375 -572.03125,1198.4375 -572.03125,1199.125 L -572.03125,1214.7812 C -572.03124,1215.4687 -572.56252,1216 -573.25,1216 L -586.78125,1216 C -587.46876,1216 -588,1215.4687 -588,1214.7812 L -588,1199.125 C -588,1198.4375 -587.46873,1197.9375 -586.78125,1197.9375 z"
       id="rect10659"
       style="fill:#bebebe;fill-opacity:1;stroke:none;stroke-width:2;stroke-linecap:butt;stroke-linejoin:miter;marker:none;stroke-miterlimit:4;stroke-dasharray:none;stroke-dashoffset:0;stroke-opacity:1;visibility:visible;display:inline;overflow:visible;enable-background:accumulate" />
  </g>
  <g
     transform="translate(591.99995,-1194)"
     id="layer4" />
  <g
     transform="translate(591.99995,-1194)"
     id="layer12" />
  <g
     transform="translate(591.99995,-1194)"
     id="layer9" />
  <g
     transform="translate(591.99995,-1194)"
     id="layer10" />
  <g
     transform="translate(591.99995,-1194)"
     id="layer6" />
</svg>
