<?xml version="1.0" encoding="UTF-8" standalone="no"?>
<!-- Created with Inkscape (http://www.inkscape.org/) -->
<svg
   xmlns:svg="http://www.w3.org/2000/svg"
   xmlns="http://www.w3.org/2000/svg"
   version="1.0"
   width="24"
   height="24"
   id="svg7384">
  <title
     id="title9167">Moblin Icon Theme</title>
  <defs
     id="defs7386" />
  <g
     transform="translate(591.99995,-1194)"
     id="layer3" />
  <g
     transform="translate(591.99995,-1194)"
     id="layer5" />
  <g
     transform="translate(591.99995,-1194)"
     id="layer7" />
  <g
     transform="translate(591.99995,-1194)"
     id="layer2" />
  <g
     transform="translate(591.99995,-1194)"
     id="layer8" />
  <g
     transform="translate(591.99995,-2146.3622)"
     id="layer1" />
  <g
     transform="translate(591.99995,-1194)"
     id="layer11">
    <rect
       width="24"
       height="24"
       x="567.99994"
       y="1194"
       transform="scale(-1,1)"
       id="rect6505-6"
       style="opacity:0;fill:#ffffff;fill-opacity:1;stroke:none;display:inline" />
    <path
       d="M -585.49457,1198.9854 C -586.3171,1198.9854 -587.01485,1199.6831 -587.01485,1200.5057 C -587.01485,1201.3282 -586.3171,1201.9906 -585.49457,1201.9906 C -584.67204,1201.9906 -584.00965,1201.3282 -584.00965,1200.5057 C -584.00965,1199.6831 -584.67204,1198.9854 -585.49457,1198.9854 z M -585.49457,1200.0107 C -585.21311,1200.0107 -584.9996,1200.2242 -584.9996,1200.5057 C -584.9996,1200.7871 -585.2131,1201.0007 -585.49457,1201.0007 C -585.77603,1201.0007 -585.98955,1200.7872 -585.98955,1200.5057 C -585.98955,1200.2242 -585.77604,1200.0107 -585.49457,1200.0107 z"
       id="path6571-83"
       style="fill:#bebebe;fill-opacity:1;stroke:none;stroke-width:0.8838827;stroke-linecap:round;stroke-linejoin:miter;marker:none;stroke-miterlimit:4;stroke-dasharray:none;stroke-dashoffset:0;stroke-opacity:1;visibility:visible;display:inline;overflow:visible;enable-background:accumulate" />
    <path
       d="M -581.49456,1198.9854 C -582.31709,1198.9854 -583.01484,1199.6831 -583.01484,1200.5057 C -583.01484,1201.3282 -582.31709,1201.9906 -581.49456,1201.9906 C -580.67203,1201.9906 -580.00964,1201.3282 -580.00964,1200.5057 C -580.00964,1199.6831 -580.67203,1198.9854 -581.49456,1198.9854 z M -581.49456,1200.0107 C -581.2131,1200.0107 -580.99959,1200.2242 -580.99959,1200.5057 C -580.99959,1200.7871 -581.21309,1201.0007 -581.49456,1201.0007 C -581.77602,1201.0007 -581.98954,1200.7872 -581.98954,1200.5057 C -581.98954,1200.2242 -581.77603,1200.0107 -581.49456,1200.0107 z"
       id="path6573-4"
       style="fill:#bebebe;fill-opacity:1;stroke:none;stroke-width:0.8838827;stroke-linecap:round;stroke-linejoin:miter;marker:none;stroke-miterlimit:4;stroke-dasharray:none;stroke-dashoffset:0;stroke-opacity:1;visibility:visible;display:inline;overflow:visible;enable-background:accumulate" />
    <path
       d="M -577.49456,1198.9854 C -578.31709,1198.9854 -579.01484,1199.6831 -579.01484,1200.5057 C -579.01484,1201.3282 -578.31709,1201.9906 -577.49456,1201.9906 C -576.67203,1201.9906 -576.00964,1201.3282 -576.00964,1200.5057 C -576.00964,1199.6831 -576.67203,1198.9854 -577.49456,1198.9854 z M -577.49456,1200.0107 C -577.2131,1200.0107 -576.99959,1200.2242 -576.99959,1200.5057 C -576.99959,1200.7871 -577.21309,1201.0007 -577.49456,1201.0007 C -577.77602,1201.0007 -577.98954,1200.7872 -577.98954,1200.5057 C -577.98954,1200.2242 -577.77603,1200.0107 -577.49456,1200.0107 z"
       id="path6576-6"
       style="fill:#bebebe;fill-opacity:1;stroke:none;stroke-width:0.8838827;stroke-linecap:round;stroke-linejoin:miter;marker:none;stroke-miterlimit:4;stroke-dasharray:none;stroke-dashoffset:0;stroke-opacity:1;visibility:visible;display:inline;overflow:visible;enable-background:accumulate" />
    <path
       d="M -582.71875,1206 C -583.4534,1206.0802 -583.96412,1206.589 -584.25,1207.1562 C -584.53588,1207.7235 -584.68202,1208.3877 -584.8125,1209 C -584.94298,1209.6123 -585.07675,1210.1741 -585.25,1210.5312 C -585.42325,1210.8884 -585.50437,1211.0027 -585.8125,1211 L -586.96875,1211 L -587,1212 L -585.8125,1212 C -585.11148,1212.0062 -584.60535,1211.5081 -584.34375,1210.9688 C -584.08215,1210.4294 -583.97325,1209.8265 -583.84375,1209.2188 C -583.71425,1208.611 -583.57364,1208.0192 -583.375,1207.625 C -583.17636,1207.2308 -582.99884,1207.0408 -582.625,1207 C -582.0254,1206.9345 -581.1875,1207.6562 -581.1875,1207.6562 L -581.09375,1207.5625 C -580.93851,1207.5377 -580.25976,1207.4405 -580,1207.2812 C -579.7106,1207.1038 -579.36463,1206.9689 -579.0625,1207 C -578.69668,1207.0376 -578.46717,1207.2294 -578.25,1207.625 C -578.03283,1208.0206 -577.88978,1208.5866 -577.75,1209.1875 C -577.61022,1209.7884 -577.49598,1210.4145 -577.28125,1210.9375 C -577.17388,1211.199 -577.02105,1211.4533 -576.8125,1211.6562 C -576.60395,1211.8592 -576.29123,1212.0019 -575.96875,1212 L -575,1212 L -575,1211 L -576,1211 C -576.06846,1211.0004 -576.06625,1210.9947 -576.125,1210.9375 C -576.18375,1210.8803 -576.26653,1210.7506 -576.34375,1210.5625 C -576.49818,1210.1864 -576.63727,1209.5877 -576.78125,1208.9688 C -576.92523,1208.3498 -577.06652,1207.7182 -577.375,1207.1562 C -577.68348,1206.5943 -578.20849,1206.075 -578.9375,1206 C -579.57892,1205.934 -580.13944,1206.1972 -580.53125,1206.4375 C -580.70045,1206.5413 -580.70229,1206.5675 -580.8125,1206.6562 C -581.15538,1206.356 -581.77906,1205.8974 -582.71875,1206 z"
       id="path10657"
       style="fill:#bebebe;fill-opacity:1;stroke:none;stroke-width:1;stroke-linecap:butt;stroke-linejoin:miter;marker:none;stroke-miterlimit:4;stroke-dasharray:none;stroke-dashoffset:0;stroke-opacity:1;visibility:visible;display:inline;overflow:visible;enable-background:accumulate" />
    <path
       d="M -586.78125,1195.9375 C -588.54213,1195.9375 -590,1197.3641 -590,1199.125 L -590,1214.7812 C -590,1216.5421 -588.54211,1217.9999 -586.78125,1218 L -575.1875,1218 C -573.42662,1218 -571.96874,1216.5421 -571.96875,1214.7812 L -571.96875,1199.125 C -571.96875,1197.3641 -573.42661,1195.9375 -575.1875,1195.9375 L -586.78125,1195.9375 z M -586.78125,1197.9375 L -575.1875,1197.9375 C -574.5,1197.9375 -573.96875,1198.4375 -573.96875,1199.125 L -573.96875,1214.7812 C -573.96874,1215.4687 -574.50002,1216 -575.1875,1216 L -586.78125,1216 C -587.46876,1216 -588,1215.4687 -588,1214.7812 L -588,1199.125 C -588,1198.4375 -587.46873,1197.9375 -586.78125,1197.9375 z"
       id="rect10659"
       style="fill:#bebebe;fill-opacity:1;stroke:none;stroke-width:2;stroke-linecap:butt;stroke-linejoin:miter;marker:none;stroke-miterlimit:4;stroke-dasharray:none;stroke-dashoffset:0;stroke-opacity:1;visibility:visible;display:inline;overflow:visible;enable-background:accumulate" />
  </g>
  <g
     transform="translate(591.99995,-1194)"
     id="layer4" />
  <g
     transform="translate(591.99995,-1194)"
     id="layer12" />
  <g
     transform="translate(591.99995,-1194)"
     id="layer9" />
  <g
     transform="translate(591.99995,-1194)"
     id="layer10" />
  <g
     transform="translate(591.99995,-1194)"
     id="layer6" />
</svg>
