<?xml version="1.0" encoding="UTF-8" standalone="no"?>
<!-- Created with Inkscape (http://www.inkscape.org/) -->
<svg
   xmlns:svg="http://www.w3.org/2000/svg"
   xmlns="http://www.w3.org/2000/svg"
   version="1.0"
   width="24"
   height="24"
   id="svg7384">
  <title
     id="title9167">Moblin Icon Theme</title>
  <defs
     id="defs7386" />
  <g
     transform="translate(592,-1244)"
     id="layer3" />
  <g
     transform="translate(592,-1244)"
     id="layer5" />
  <g
     transform="translate(592,-1244)"
     id="layer7" />
  <g
     transform="translate(592,-1244)"
     id="layer2" />
  <g
     transform="translate(592,-1244)"
     id="layer8" />
  <g
     transform="translate(592,-2196.3622)"
     id="layer1" />
  <g
     transform="translate(592,-1244)"
     id="layer11">
    <rect
       width="24"
       height="24"
       x="568"
       y="1244"
       transform="scale(-1,1)"
       id="rect6505-6"
       style="opacity:0;fill:#ffffff;fill-opacity:1;stroke:none;display:inline" />
    <path
       d="M -585.49462,1248.9854 C -586.31715,1248.9854 -587.0149,1249.6832 -587.0149,1250.5057 C -587.0149,1251.3282 -586.31715,1251.9906 -585.49462,1251.9906 C -584.67209,1251.9906 -584.0097,1251.3282 -584.0097,1250.5057 C -584.0097,1249.6832 -584.67209,1248.9854 -585.49462,1248.9854 z M -585.49462,1250.0107 C -585.21316,1250.0107 -584.99965,1250.2242 -584.99965,1250.5057 C -584.99965,1250.7872 -585.21315,1251.0007 -585.49462,1251.0007 C -585.77608,1251.0007 -585.9896,1250.7872 -585.9896,1250.5057 C -585.9896,1250.2242 -585.77609,1250.0107 -585.49462,1250.0107 z"
       id="path6571-83"
       style="fill:#bebebe;fill-opacity:1;stroke:none;stroke-width:0.8838827;stroke-linecap:round;stroke-linejoin:miter;marker:none;stroke-miterlimit:4;stroke-dasharray:none;stroke-dashoffset:0;stroke-opacity:1;visibility:visible;display:inline;overflow:visible;enable-background:accumulate" />
    <path
       d="M -581.49461,1248.9854 C -582.31714,1248.9854 -583.01489,1249.6832 -583.01489,1250.5057 C -583.01489,1251.3282 -582.31714,1251.9906 -581.49461,1251.9906 C -580.67208,1251.9906 -580.00969,1251.3282 -580.00969,1250.5057 C -580.00969,1249.6832 -580.67208,1248.9854 -581.49461,1248.9854 z M -581.49461,1250.0107 C -581.21315,1250.0107 -580.99964,1250.2242 -580.99964,1250.5057 C -580.99964,1250.7872 -581.21314,1251.0007 -581.49461,1251.0007 C -581.77607,1251.0007 -581.98959,1250.7872 -581.98959,1250.5057 C -581.98959,1250.2242 -581.77608,1250.0107 -581.49461,1250.0107 z"
       id="path6573-4"
       style="fill:#bebebe;fill-opacity:1;stroke:none;stroke-width:0.8838827;stroke-linecap:round;stroke-linejoin:miter;marker:none;stroke-miterlimit:4;stroke-dasharray:none;stroke-dashoffset:0;stroke-opacity:1;visibility:visible;display:inline;overflow:visible;enable-background:accumulate" />
    <path
       d="M -577.49461,1248.9854 C -578.31714,1248.9854 -579.01489,1249.6832 -579.01489,1250.5057 C -579.01489,1251.3282 -578.31714,1251.9906 -577.49461,1251.9906 C -576.67208,1251.9906 -576.00969,1251.3282 -576.00969,1250.5057 C -576.00969,1249.6832 -576.67208,1248.9854 -577.49461,1248.9854 z M -577.49461,1250.0107 C -577.21315,1250.0107 -576.99964,1250.2242 -576.99964,1250.5057 C -576.99964,1250.7872 -577.21314,1251.0007 -577.49461,1251.0007 C -577.77607,1251.0007 -577.98959,1250.7872 -577.98959,1250.5057 C -577.98959,1250.2242 -577.77608,1250.0107 -577.49461,1250.0107 z"
       id="path6576-6"
       style="fill:#bebebe;fill-opacity:1;stroke:none;stroke-width:0.8838827;stroke-linecap:round;stroke-linejoin:miter;marker:none;stroke-miterlimit:4;stroke-dasharray:none;stroke-dashoffset:0;stroke-opacity:1;visibility:visible;display:inline;overflow:visible;enable-background:accumulate" />
    <path
       d="M -582.71875,1256 C -583.4534,1256.0802 -583.96412,1256.589 -584.25,1257.1562 C -584.53588,1257.7235 -584.68202,1258.3877 -584.8125,1259 C -584.94298,1259.6123 -585.07675,1260.1741 -585.25,1260.5312 C -585.42325,1260.8884 -585.50437,1261.0027 -585.8125,1261 L -586.96875,1261 L -587,1262 L -585.8125,1262 C -585.11148,1262.0062 -584.60535,1261.5081 -584.34375,1260.9688 C -584.08215,1260.4294 -583.97325,1259.8265 -583.84375,1259.2188 C -583.71425,1258.611 -583.57364,1258.0192 -583.375,1257.625 C -583.17636,1257.2308 -582.99884,1257.0408 -582.625,1257 C -582.02538,1256.9345 -581.1875,1257.6562 -581.1875,1257.6562 L -580.84375,1257.2812 L -581.25,1257.0312 C -581.25,1257.0312 -580.2894,1257.4587 -580,1257.2812 C -579.7106,1257.1038 -579.36463,1256.9689 -579.0625,1257 C -578.69667,1257.0376 -578.46717,1257.2294 -578.25,1257.625 C -578.03283,1258.0206 -577.88978,1258.5866 -577.75,1259.1875 C -577.61022,1259.7884 -577.49598,1260.4145 -577.28125,1260.9375 C -577.17388,1261.199 -577.02105,1261.4533 -576.8125,1261.6562 C -576.60395,1261.8592 -576.29123,1262.0019 -575.96875,1262 L -575,1262 L -575,1261 L -576,1261 C -576.06846,1261.0004 -576.06625,1260.9947 -576.125,1260.9375 C -576.18375,1260.8803 -576.26653,1260.7506 -576.34375,1260.5625 C -576.49818,1260.1864 -576.63727,1259.5877 -576.78125,1258.9688 C -576.92523,1258.3498 -577.06652,1257.7182 -577.375,1257.1562 C -577.68348,1256.5943 -578.20849,1256.075 -578.9375,1256 C -579.57892,1255.934 -580.13943,1256.1972 -580.53125,1256.4375 C -580.70046,1256.5413 -580.7023,1256.5675 -580.8125,1256.6562 C -581.15538,1256.356 -581.77905,1255.8974 -582.71875,1256 z"
       id="path10657"
       style="fill:#bebebe;fill-opacity:1;stroke:none;stroke-width:1;stroke-linecap:butt;stroke-linejoin:miter;marker:none;stroke-miterlimit:4;stroke-dasharray:none;stroke-dashoffset:0;stroke-opacity:1;visibility:visible;display:inline;overflow:visible;enable-background:accumulate" />
    <path
       d="M -586.78125,1245.9375 C -588.54213,1245.9375 -590,1247.3641 -590,1249.125 L -590,1264.7812 C -590,1266.5421 -588.54211,1267.9999 -586.78125,1268 L -575.1875,1268 C -573.42662,1268 -571.96874,1266.5421 -571.96875,1264.7812 L -571.96875,1249.125 C -571.96875,1247.3641 -573.42661,1245.9375 -575.1875,1245.9375 L -586.78125,1245.9375 z M -586.78125,1247.9375 L -575.1875,1247.9375 C -574.5,1247.9375 -573.96875,1248.4375 -573.96875,1249.125 L -573.96875,1264.7812 C -573.96874,1265.4687 -574.50002,1266 -575.1875,1266 L -586.78125,1266 C -587.46876,1266 -588,1265.4687 -588,1264.7812 L -588,1249.125 C -588,1248.4375 -587.46873,1247.9375 -586.78125,1247.9375 z"
       id="rect10659"
       style="fill:#bebebe;fill-opacity:1;stroke:none;stroke-width:2;stroke-linecap:butt;stroke-linejoin:miter;marker:none;stroke-miterlimit:4;stroke-dasharray:none;stroke-dashoffset:0;stroke-opacity:1;visibility:visible;display:inline;overflow:visible;enable-background:accumulate" />
  </g>
  <g
     transform="translate(592,-1244)"
     id="layer4" />
  <g
     transform="translate(592,-1244)"
     id="layer9" />
  <g
     transform="translate(592,-1244)"
     id="layer10" />
  <g
     transform="translate(592,-1244)"
     id="layer6" />
</svg>
