<?xml version="1.0" encoding="UTF-8" standalone="no"?>
<!-- Created with Inkscape (http://www.inkscape.org/) -->
<svg
   xmlns:svg="http://www.w3.org/2000/svg"
   xmlns="http://www.w3.org/2000/svg"
   version="1.0"
   width="24"
   height="24"
   id="svg7384">
  <title
     id="title9167">Moblin Icon Theme</title>
  <defs
     id="defs7386" />
  <g
     transform="translate(618,-1006)"
     id="layer3" />
  <g
     transform="translate(618,-1006)"
     id="layer5" />
  <g
     transform="translate(618,-1006)"
     id="layer7" />
  <g
     transform="translate(618,-1006)"
     id="layer2" />
  <g
     transform="translate(618,-1006)"
     id="layer8" />
  <g
     transform="translate(618,-1958.3622)"
     id="layer1" />
  <g
     transform="translate(618,-1006)"
     id="layer11">
    <rect
       width="24"
       height="24"
       x="-618"
       y="1006"
       id="rect14863"
       style="opacity:0;fill:#ffffff;fill-opacity:1;stroke:none;display:inline" />
    <g
       transform="matrix(0.6078907,0,0,0.6078907,-473.53606,906.68966)"
       id="g14875" />
    <path
       d="M -611.90625,1007.9062 C -614.15686,1007.9063 -616,1009.7494 -616,1012 L -616,1019.9375 C -616,1021.9461 -614.50924,1023.5673 -612.59375,1023.9062 L -613.875,1026.6875 C -614.05368,1027.0823 -613.95777,1027.5473 -613.63744,1027.8391 C -613.31712,1028.131 -612.84527,1028.1833 -612.46875,1027.9688 L -605.78125,1024.0312 L -600.0625,1024.0312 C -597.81192,1024.0313 -595.96875,1022.1881 -595.96875,1019.9375 L -595.96875,1012 C -595.96875,1009.7494 -597.81189,1007.9062 -600.0625,1007.9062 L -611.90625,1007.9062 z M -611.90625,1009.9062 L -600.0625,1009.9062 C -598.88541,1009.9062 -597.96875,1010.8228 -597.96875,1012 L -597.96875,1019.9375 C -597.96875,1021.1147 -598.88538,1022.0313 -600.0625,1022.0312 L -606.0625,1022.0312 C -606.23723,1022.0285 -606.40962,1022.0716 -606.5625,1022.1562 L -610.75,1024.625 L -610.21875,1023.4375 C -610.08178,1023.1294 -610.10931,1022.773 -610.29197,1022.4895 C -610.47462,1022.2061 -610.78781,1022.0338 -611.125,1022.0312 L -611.90625,1022.0312 C -613.08337,1022.0312 -614,1021.1147 -614,1019.9375 L -614,1012 C -614,1010.8228 -613.08334,1009.9063 -611.90625,1009.9062 z"
       id="rect14883"
       style="fill:#bebebe;fill-opacity:1;stroke:none;stroke-width:2;stroke-linecap:round;stroke-linejoin:round;marker:none;stroke-miterlimit:4;stroke-dasharray:none;stroke-dashoffset:0;stroke-opacity:1;visibility:visible;display:inline;overflow:visible;enable-background:accumulate" />
  </g>
  <g
     transform="translate(618,-1006)"
     id="layer4" />
  <g
     transform="translate(618,-1006)"
     id="layer9" />
  <g
     transform="translate(618,-1006)"
     id="layer10" />
  <g
     transform="translate(618,-1006)"
     id="layer6" />
</svg>
