<?xml version="1.0" encoding="UTF-8" standalone="no"?>
<!-- Created with Inkscape (http://www.inkscape.org/) -->
<svg
   xmlns:svg="http://www.w3.org/2000/svg"
   xmlns="http://www.w3.org/2000/svg"
   version="1.0"
   width="24"
   height="24"
   id="svg7384">
  <title
     id="title9167">Moblin Icon Theme</title>
  <defs
     id="defs7386" />
  <g
     transform="translate(618,-956)"
     id="layer3" />
  <g
     transform="translate(618,-956)"
     id="layer5" />
  <g
     transform="translate(618,-956)"
     id="layer7" />
  <g
     transform="translate(618,-956)"
     id="layer2" />
  <g
     transform="translate(618,-956)"
     id="layer8" />
  <g
     transform="translate(618,-1908.3622)"
     id="layer1" />
  <g
     transform="translate(618,-956)"
     id="layer11">
    <rect
       width="24"
       height="24"
       x="-618"
       y="956"
       id="rect14863"
       style="opacity:0;fill:#ffffff;fill-opacity:1;stroke:none;display:inline" />
    <g
       transform="matrix(0.6078907,0,0,0.6078907,-473.53606,856.68966)"
       id="g14875" />
    <path
       d="M -611.90625,957.90625 C -614.15686,957.90626 -616,959.74935 -616,962 L -616,969.9375 C -616,971.94609 -614.50924,973.56726 -612.59375,973.90625 L -613.875,976.6875 C -614.05364,977.08229 -613.95771,977.54722 -613.6374,977.83906 C -613.31708,978.13091 -612.84526,978.18327 -612.46875,977.96875 L -605.78125,974.03125 L -600.0625,974.03125 C -597.81192,974.03126 -595.96875,972.18815 -595.96875,969.9375 L -595.96875,962 C -595.96875,959.74935 -597.81189,957.90625 -600.0625,957.90625 L -611.90625,957.90625 z M -611.90625,959.90625 L -600.0625,959.90625 C -598.88541,959.90625 -597.96875,960.82285 -597.96875,962 L -597.96875,969.9375 C -597.96875,971.11465 -598.88538,972.03126 -600.0625,972.03125 L -606.0625,972.03125 C -606.23723,972.02852 -606.40962,972.07162 -606.5625,972.15625 L -610.75,974.625 L -610.21875,973.4375 C -610.08181,973.12938 -610.10934,972.77299 -610.292,972.48957 C -610.47465,972.20614 -610.78783,972.03383 -611.125,972.03125 L -611.90625,972.03125 C -613.08337,972.03125 -614,971.11465 -614,969.9375 L -614,962 C -614,960.82285 -613.08334,959.90626 -611.90625,959.90625 z"
       id="rect14883"
       style="fill:#bebebe;fill-opacity:1;stroke:none;stroke-width:2;stroke-linecap:round;stroke-linejoin:round;marker:none;stroke-miterlimit:4;stroke-dasharray:none;stroke-dashoffset:0;stroke-opacity:1;visibility:visible;display:inline;overflow:visible;enable-background:accumulate" />
  </g>
  <g
     transform="translate(618,-956)"
     id="layer4" />
  <g
     transform="translate(618,-956)"
     id="layer12" />
  <g
     transform="translate(618,-956)"
     id="layer9" />
  <g
     transform="translate(618,-956)"
     id="layer10" />
  <g
     transform="translate(618,-956)"
     id="layer6" />
</svg>
