<?xml version="1.0" encoding="UTF-8" standalone="no"?>
<!-- Created with Inkscape (http://www.inkscape.org/) -->
<svg
   xmlns:svg="http://www.w3.org/2000/svg"
   xmlns="http://www.w3.org/2000/svg"
   version="1.0"
   width="24"
   height="24"
   id="svg7384">
  <title
     id="title9167">Moblin Icon Theme</title>
  <defs
     id="defs7386" />
  <g
     transform="translate(482,-956)"
     id="layer3" />
  <g
     transform="translate(482,-956)"
     id="layer5" />
  <g
     transform="translate(482,-956)"
     id="layer7" />
  <g
     transform="translate(482,-956)"
     id="layer2" />
  <g
     transform="translate(482,-956)"
     id="layer8" />
  <g
     transform="translate(482,-1908.3622)"
     id="layer1" />
  <g
     transform="translate(482,-956)"
     id="layer11">
    <rect
       width="24"
       height="24"
       x="-482"
       y="956"
       id="rect7735-9"
       style="opacity:0;fill:#ffffff;fill-opacity:1;stroke:none;display:inline" />
    <path
       d="M -480.0625,958 L -480.0625,959 L -480.0625,977.09375 L -480.0625,978.09375 L -479.0625,978.09375 L -465.90625,978.09375 C -465.54561,978.09885 -465.21017,977.90937 -465.02836,977.59788 C -464.84656,977.28638 -464.84656,976.90112 -465.02836,976.58962 C -465.21017,976.27813 -465.54561,976.08865 -465.90625,976.09375 L -478.0625,976.09375 L -478.0625,960 L -462,960 L -462,972.15625 C -462.0051,972.51689 -461.81562,972.85233 -461.50413,973.03414 C -461.19263,973.21594 -460.80737,973.21594 -460.49587,973.03414 C -460.18438,972.85233 -459.9949,972.51689 -460,972.15625 L -460,959 L -460,958 L -461,958 L -479.0625,958 L -480.0625,958 z"
       id="path15241"
       style="fill:#bebebe;fill-opacity:1;stroke:none;stroke-width:2;stroke-linecap:round;stroke-linejoin:miter;marker:none;stroke-miterlimit:4;stroke-dasharray:none;stroke-dashoffset:0;stroke-opacity:1;visibility:visible;display:inline;overflow:visible;enable-background:accumulate" />
    <path
       d="M -475.1875,962 C -475.63217,962 -476,962.36784 -476,962.8125 L -476,971.25 C -476,971.69466 -475.63217,972.0625 -475.1875,972.0625 L -473.59375,972.0625 C -473.41343,972.06505 -473.24571,971.97031 -473.15481,971.81456 C -473.06391,971.65881 -473.06391,971.46619 -473.15481,971.31044 C -473.24571,971.15469 -473.41343,971.05995 -473.59375,971.0625 L -475,971.0625 L -475,963 L -465,963 L -465,964.46875 C -465.00255,964.64907 -464.90781,964.81679 -464.75206,964.90769 C -464.59631,964.99859 -464.40369,964.99859 -464.24794,964.90769 C -464.09219,964.81679 -463.99745,964.64907 -464,964.46875 L -464,962.8125 C -464,962.36784 -464.3678,961.99995 -464.8125,962 L -475.1875,962 z"
       id="rect15243"
       style="fill:#bebebe;fill-opacity:1;stroke:none;stroke-width:0.99999988;stroke-linecap:round;stroke-linejoin:miter;marker:none;stroke-miterlimit:4;stroke-dashoffset:0;stroke-opacity:1;visibility:visible;display:inline;overflow:visible;enable-background:accumulate" />
    <path
       d="M -467.49685,965.99067 C -469.96991,965.99067 -471.9846,968.03836 -471.98462,970.51139 C -471.98462,972.98452 -469.9699,974.99916 -467.49685,974.99916 C -465.02378,974.99916 -463.0091,972.98452 -463.00907,970.51139 C -463.00907,968.03836 -465.02379,965.99067 -467.49685,965.99067 z M -467.49685,968.00352 C -466.1059,968.00362 -464.98897,969.1205 -464.98897,970.51139 C -464.98898,971.90239 -466.10591,972.98632 -467.49685,972.98632 C -468.88779,972.98632 -470.00472,971.90239 -470.00472,970.51139 C -470.00471,969.1205 -468.88778,968.00352 -467.49685,968.00352 z"
       id="path15245"
       style="fill:#bebebe;fill-opacity:1;stroke:none;stroke-width:1.89403605;stroke-linecap:round;stroke-linejoin:miter;marker:none;stroke-miterlimit:4;stroke-dasharray:none;stroke-dashoffset:0;stroke-opacity:1;visibility:visible;display:inline;overflow:visible;enable-background:accumulate" />
    <path
       d="M -465.21875,972 C -465.5784,972.07555 -465.86765,972.34226 -465.97205,972.69462 C -466.07646,973.04698 -465.9792,973.42822 -465.71875,973.6875 L -461.6875,977.71875 C -461.44722,978.01692 -461.05777,978.15172 -460.68458,978.06587 C -460.31138,977.98002 -460.01998,977.68862 -459.93413,977.31542 C -459.84828,976.94223 -459.98308,976.55278 -460.28125,976.3125 L -464.3125,972.28125 C -464.54805,972.04104 -464.88859,971.93535 -465.21875,972 z"
       id="path15247"
       style="fill:#bebebe;fill-opacity:1;stroke:none;stroke-width:2;stroke-linecap:round;stroke-linejoin:miter;marker:none;stroke-miterlimit:4;stroke-dasharray:none;stroke-dashoffset:0;stroke-opacity:1;visibility:visible;display:inline;overflow:visible;enable-background:accumulate" />
  </g>
  <g
     transform="translate(482,-956)"
     id="layer4" />
  <g
     transform="translate(482,-956)"
     id="layer12" />
  <g
     transform="translate(482,-956)"
     id="layer9" />
  <g
     transform="translate(482,-956)"
     id="layer10" />
  <g
     transform="translate(482,-956)"
     id="layer6" />
</svg>
