<?xml version="1.0" encoding="UTF-8" standalone="no"?>
<!-- Created with Inkscape (http://www.inkscape.org/) -->
<svg
   xmlns:svg="http://www.w3.org/2000/svg"
   xmlns="http://www.w3.org/2000/svg"
   version="1.0"
   width="24"
   height="24"
   id="svg7384">
  <title
     id="title9167">Moblin Icon Theme</title>
  <defs
     id="defs7386" />
  <g
     transform="translate(482,-1006)"
     id="layer3" />
  <g
     transform="translate(482,-1006)"
     id="layer5" />
  <g
     transform="translate(482,-1006)"
     id="layer7" />
  <g
     transform="translate(482,-1006)"
     id="layer2" />
  <g
     transform="translate(482,-1006)"
     id="layer8" />
  <g
     transform="translate(482,-1958.3622)"
     id="layer1" />
  <g
     transform="translate(482,-1006)"
     id="layer11">
    <rect
       width="24"
       height="24"
       x="-482"
       y="1006"
       id="rect7735-9"
       style="opacity:0;fill:#ffffff;fill-opacity:1;stroke:none;display:inline" />
    <path
       d="M -480.0625,1008 L -480.0625,1009 L -480.0625,1027.0938 L -480.0625,1028.0938 L -479.0625,1028.0938 L -465.90625,1028.0938 C -465.54561,1028.0989 -465.21017,1027.9094 -465.02836,1027.5979 C -464.84656,1027.2864 -464.84656,1026.9012 -465.02836,1026.5897 C -465.21017,1026.2782 -465.54561,1026.0887 -465.90625,1026.0938 L -478.0625,1026.0938 L -478.0625,1010 L -462,1010 L -462,1022.1562 C -462.0051,1022.5168 -461.81562,1022.8523 -461.50413,1023.0341 C -461.19263,1023.2159 -460.80737,1023.2159 -460.49587,1023.0341 C -460.18438,1022.8523 -459.9949,1022.5168 -460,1022.1562 L -460,1009 L -460,1008 L -461,1008 L -479.0625,1008 L -480.0625,1008 z"
       id="path15241"
       style="fill:#bebebe;fill-opacity:1;stroke:none;stroke-width:2;stroke-linecap:round;stroke-linejoin:miter;marker:none;stroke-miterlimit:4;stroke-dasharray:none;stroke-dashoffset:0;stroke-opacity:1;visibility:visible;display:inline;overflow:visible;enable-background:accumulate" />
    <path
       d="M -475.1875,1012 C -475.63209,1012 -476,1012.3678 -476,1012.8125 L -476,1021.25 C -476,1021.6947 -475.63227,1022.0625 -475.1875,1022.0625 L -473.59375,1022.0625 C -473.41343,1022.065 -473.24571,1021.9703 -473.15481,1021.8146 C -473.06391,1021.6588 -473.06391,1021.4662 -473.15481,1021.3104 C -473.24571,1021.1547 -473.41343,1021.06 -473.59375,1021.0625 L -475,1021.0625 L -475,1013 L -465,1013 L -465,1014.4688 C -465.00255,1014.6491 -464.90781,1014.8168 -464.75206,1014.9077 C -464.59631,1014.9986 -464.40369,1014.9986 -464.24794,1014.9077 C -464.09219,1014.8168 -463.99745,1014.6491 -464,1014.4688 L -464,1012.8125 C -464,1012.3678 -464.36791,1012 -464.8125,1012 L -475.1875,1012 z"
       id="rect15243"
       style="fill:#bebebe;fill-opacity:1;stroke:none;stroke-width:0.99999988;stroke-linecap:round;stroke-linejoin:miter;marker:none;stroke-miterlimit:4;stroke-dashoffset:0;stroke-opacity:1;visibility:visible;display:inline;overflow:visible;enable-background:accumulate" />
    <path
       d="M -467.49685,1015.9907 C -469.96991,1015.9907 -471.9846,1018.0384 -471.98462,1020.5114 C -471.98462,1022.9845 -469.9699,1024.9992 -467.49685,1024.9992 C -465.02378,1024.9992 -463.0091,1022.9845 -463.00907,1020.5114 C -463.00907,1018.0384 -465.02379,1015.9907 -467.49685,1015.9907 z M -467.49685,1018.0035 C -466.1059,1018.0036 -464.98897,1019.1205 -464.98897,1020.5114 C -464.98898,1021.9024 -466.10591,1022.9863 -467.49685,1022.9863 C -468.88779,1022.9863 -470.00472,1021.9024 -470.00472,1020.5114 C -470.00471,1019.1205 -468.88778,1018.0035 -467.49685,1018.0035 z"
       id="path15245"
       style="fill:#bebebe;fill-opacity:1;stroke:none;stroke-width:1.89403605;stroke-linecap:round;stroke-linejoin:miter;marker:none;stroke-miterlimit:4;stroke-dasharray:none;stroke-dashoffset:0;stroke-opacity:1;visibility:visible;display:inline;overflow:visible;enable-background:accumulate" />
    <path
       d="M -465.21875,1022 C -465.5784,1022.0755 -465.86765,1022.3423 -465.97205,1022.6946 C -466.07646,1023.047 -465.9792,1023.4282 -465.71875,1023.6875 L -461.6875,1027.7188 C -461.44719,1028.0169 -461.05777,1028.1516 -460.68462,1028.0658 C -460.31147,1027.9799 -460.0201,1027.6885 -459.93425,1027.3154 C -459.8484,1026.9422 -459.98314,1026.5528 -460.28125,1026.3125 L -464.3125,1022.2812 C -464.54806,1022.041 -464.8886,1021.9353 -465.21875,1022 z"
       id="path15247"
       style="fill:#bebebe;fill-opacity:1;stroke:none;stroke-width:2;stroke-linecap:round;stroke-linejoin:miter;marker:none;stroke-miterlimit:4;stroke-dasharray:none;stroke-dashoffset:0;stroke-opacity:1;visibility:visible;display:inline;overflow:visible;enable-background:accumulate" />
  </g>
  <g
     transform="translate(482,-1006)"
     id="layer4" />
  <g
     transform="translate(482,-1006)"
     id="layer9" />
  <g
     transform="translate(482,-1006)"
     id="layer10" />
  <g
     transform="translate(482,-1006)"
     id="layer6" />
</svg>
