<?xml version="1.0" encoding="UTF-8" standalone="no"?>
<!-- Created with Inkscape (http://www.inkscape.org/) -->
<svg
   xmlns:svg="http://www.w3.org/2000/svg"
   xmlns="http://www.w3.org/2000/svg"
   version="1.0"
   width="24"
   height="24"
   id="svg7384">
  <title
     id="title9167">Moblin Icon Theme</title>
  <defs
     id="defs7386" />
  <g
     transform="translate(426,-920)"
     id="layer3" />
  <g
     transform="translate(426,-920)"
     id="layer5" />
  <g
     transform="translate(426,-920)"
     id="layer7" />
  <g
     transform="translate(426,-920)"
     id="layer2" />
  <g
     transform="translate(426,-920)"
     id="layer8" />
  <g
     transform="translate(426,-1872.3622)"
     id="layer1" />
  <g
     transform="translate(426,-920)"
     id="layer11">
    <rect
       width="24"
       height="24"
       x="-426"
       y="920"
       id="rect7183-0"
       style="opacity:0;fill:#3e42ac;fill-opacity:0.9995338;stroke:none;display:inline" />
    <path
       d="M -426,922 L -426,923 L -426,939 L -426,940 L -425,940 L -417,940 C -416.63936,940.00511 -416.30391,939.81563 -416.1221,939.50413 C -415.94029,939.19263 -415.94029,938.80737 -416.1221,938.49587 C -416.30391,938.18437 -416.63936,937.99489 -417,938 L -424,938 L -424,924 L -406,924 C -406,925.46939 -406,930 -406,930 C -406.00511,930.36064 -405.81563,930.69609 -405.50413,930.8779 C -405.19263,931.05971 -404.80737,931.05971 -404.49587,930.8779 C -404.18437,930.69609 -403.99489,930.36064 -404,930 C -404,930 -404,923 -404,923 L -404,922 L -405,922 L -425,922 L -426,922 z"
       id="path5334"
       style="fill:#bebebe;fill-opacity:1;stroke:none;stroke-width:2.00000048;stroke-linecap:round;stroke-linejoin:miter;marker:none;stroke-miterlimit:4;stroke-dasharray:none;stroke-dashoffset:0;stroke-opacity:1;visibility:visible;display:inline;overflow:visible;enable-background:accumulate" />
    <path
       d="M -422.21875,925 C -422.59186,925.06769 -422.89459,925.34057 -423.00052,925.70468 C -423.10644,926.06879 -422.99733,926.46148 -422.71875,926.71875 L -415.71875,933.71875 L -415,934.40625 L -414.28125,933.71875 L -407.28125,926.71875 C -406.8843,926.3218 -406.8843,925.6782 -407.28125,925.28125 C -407.6782,924.8843 -408.3218,924.8843 -408.71875,925.28125 L -415,931.5625 L -421.28125,925.28125 C -421.52339,925.03054 -421.87859,924.92398 -422.21875,925 z"
       id="path5336"
       style="fill:#bebebe;fill-opacity:1;stroke:none;stroke-width:2.00000048;stroke-linecap:round;stroke-linejoin:miter;marker:none;stroke-miterlimit:4;stroke-dasharray:none;stroke-dashoffset:0;stroke-opacity:1;visibility:visible;display:inline;overflow:visible;enable-background:accumulate" />
    <path
       d="M -408,932 C -411.30106,932 -414,934.69894 -414,938 C -414,941.30106 -411.30106,944 -408,944 C -404.69894,944 -402,941.30106 -402,938 C -402,934.69894 -404.69894,932 -408,932 z M -408,934 C -405.78106,934 -404,935.78106 -404,938 C -404,940.21894 -405.78106,942 -408,942 C -410.21894,942 -412,940.21894 -412,938 C -412,935.78106 -410.21894,934 -408,934 z"
       id="path5338"
       style="fill:#bebebe;fill-opacity:1;stroke:none;stroke-width:2.00000048;stroke-linecap:round;stroke-linejoin:miter;marker:none;stroke-miterlimit:4;stroke-dasharray:none;stroke-dashoffset:0;stroke-opacity:1;visibility:visible;display:inline;overflow:visible;enable-background:accumulate" />
    <path
       d="M -408.21875,935 C -408.68438,935.10428 -409.01149,935.52298 -409,936 L -409,938 L -409,938.40625 L -408.71875,938.71875 L -407.71875,939.71875 C -407.3218,940.1157 -406.6782,940.1157 -406.28125,939.71875 C -405.8843,939.3218 -405.8843,938.6782 -406.28125,938.28125 L -407,937.5625 L -407,936 C -406.99256,935.69214 -407.12736,935.39803 -407.36543,935.20269 C -407.60349,935.00735 -407.91827,934.93258 -408.21875,935 z"
       id="path5340"
       style="fill:#bebebe;fill-opacity:1;stroke:none;stroke-width:2.00000048;stroke-linecap:round;stroke-linejoin:miter;marker:none;stroke-miterlimit:4;stroke-dasharray:none;stroke-dashoffset:0;stroke-opacity:1;visibility:visible;display:inline;overflow:visible;enable-background:accumulate" />
  </g>
  <g
     transform="translate(426,-920)"
     id="layer4" />
  <g
     transform="translate(426,-920)"
     id="layer9" />
  <g
     transform="translate(426,-920)"
     id="layer10" />
  <g
     transform="translate(426,-920)"
     id="layer6" />
</svg>
