<?xml version="1.0" encoding="UTF-8" standalone="no"?>
<!-- Created with Inkscape (http://www.inkscape.org/) -->
<svg
   xmlns:svg="http://www.w3.org/2000/svg"
   xmlns="http://www.w3.org/2000/svg"
   version="1.0"
   width="24"
   height="24"
   id="svg7384">
  <title
     id="title9167">Moblin Icon Theme</title>
  <defs
     id="defs7386" />
  <g
     transform="translate(425.99995,-870)"
     id="layer3" />
  <g
     transform="translate(425.99995,-870)"
     id="layer5" />
  <g
     transform="translate(425.99995,-870)"
     id="layer7" />
  <g
     transform="translate(425.99995,-870)"
     id="layer2" />
  <g
     transform="translate(425.99995,-870)"
     id="layer8" />
  <g
     transform="translate(425.99995,-1822.3622)"
     id="layer1" />
  <g
     transform="translate(425.99995,-870)"
     id="layer11">
    <rect
       width="24"
       height="24"
       x="-425.99994"
       y="870"
       id="rect7183-0"
       style="opacity:0;fill:#3e42ac;fill-opacity:0.9995338;stroke:none;display:inline" />
    <path
       d="M -426,872 L -426,873 L -426,889 L -426,890 L -425,890 L -417,890 C -416.63936,890.00511 -416.30391,889.81563 -416.1221,889.50413 C -415.94029,889.19263 -415.94029,888.80737 -416.1221,888.49587 C -416.30391,888.18437 -416.63936,887.99489 -417,888 L -424,888 L -424,874 L -406,874 C -406,875.46939 -406,880 -406,880 C -406.00511,880.36064 -405.81563,880.69609 -405.50413,880.8779 C -405.19263,881.05971 -404.80737,881.05971 -404.49587,880.8779 C -404.18437,880.69609 -403.99489,880.36064 -404,880 C -404,880 -404,873 -404,873 L -404,872 L -405,872 L -425,872 L -426,872 z"
       id="path5334"
       style="fill:#bebebe;fill-opacity:1;stroke:none;stroke-width:2.00000048;stroke-linecap:round;stroke-linejoin:miter;marker:none;stroke-miterlimit:4;stroke-dasharray:none;stroke-dashoffset:0;stroke-opacity:1;visibility:visible;display:inline;overflow:visible;enable-background:accumulate" />
    <path
       d="M -422.21875,875 C -422.59186,875.06769 -422.89459,875.34057 -423.00052,875.70468 C -423.10644,876.06879 -422.99733,876.46148 -422.71875,876.71875 L -415.71875,883.71875 L -415,884.40625 L -414.28125,883.71875 L -407.28125,876.71875 C -406.8843,876.3218 -406.8843,875.6782 -407.28125,875.28125 C -407.6782,874.8843 -408.3218,874.8843 -408.71875,875.28125 L -415,881.5625 L -421.28125,875.28125 C -421.52339,875.03054 -421.87859,874.92398 -422.21875,875 z"
       id="path5336"
       style="fill:#bebebe;fill-opacity:1;stroke:none;stroke-width:2.00000048;stroke-linecap:round;stroke-linejoin:miter;marker:none;stroke-miterlimit:4;stroke-dasharray:none;stroke-dashoffset:0;stroke-opacity:1;visibility:visible;display:inline;overflow:visible;enable-background:accumulate" />
    <path
       d="M -407.99995,882 C -411.30101,882 -413.99995,884.69894 -413.99995,888 C -413.99995,891.30106 -411.30101,894 -407.99995,894 C -404.69889,894 -401.99995,891.30106 -401.99995,888 C -401.99995,884.69894 -404.69889,882 -407.99995,882 z M -407.99995,884 C -405.78101,884 -403.99995,885.78106 -403.99995,888 C -403.99995,890.21894 -405.78101,892 -407.99995,892 C -410.21889,892 -411.99995,890.21894 -411.99995,888 C -411.99995,885.78106 -410.21889,884 -407.99995,884 z"
       id="path5338"
       style="fill:#bebebe;fill-opacity:1;stroke:none;stroke-width:2.00000048;stroke-linecap:round;stroke-linejoin:miter;marker:none;stroke-miterlimit:4;stroke-dasharray:none;stroke-dashoffset:0;stroke-opacity:1;visibility:visible;display:inline;overflow:visible;enable-background:accumulate" />
    <path
       d="M -408.21875,885 C -408.68438,885.10428 -409.01149,885.52298 -409,886 L -409,888 L -409,888.40625 L -408.71875,888.71875 L -407.71875,889.71875 C -407.3218,890.1157 -406.6782,890.1157 -406.28125,889.71875 C -405.8843,889.3218 -405.8843,888.6782 -406.28125,888.28125 L -407,887.5625 L -407,886 C -406.99256,885.69214 -407.12736,885.39803 -407.36543,885.20269 C -407.60349,885.00735 -407.91827,884.93258 -408.21875,885 z"
       id="path5340"
       style="fill:#bebebe;fill-opacity:1;stroke:none;stroke-width:2.00000048;stroke-linecap:round;stroke-linejoin:miter;marker:none;stroke-miterlimit:4;stroke-dasharray:none;stroke-dashoffset:0;stroke-opacity:1;visibility:visible;display:inline;overflow:visible;enable-background:accumulate" />
  </g>
  <g
     transform="translate(425.99995,-870)"
     id="layer4" />
  <g
     transform="translate(425.99995,-870)"
     id="layer12" />
  <g
     transform="translate(425.99995,-870)"
     id="layer9" />
  <g
     transform="translate(425.99995,-870)"
     id="layer10" />
  <g
     transform="translate(425.99995,-870)"
     id="layer6" />
</svg>
