<?xml version="1.0" encoding="UTF-8" standalone="no"?>
<!-- Created with Inkscape (http://www.inkscape.org/) -->
<svg
   xmlns:svg="http://www.w3.org/2000/svg"
   xmlns="http://www.w3.org/2000/svg"
   version="1.0"
   width="24.000046"
   height="24"
   id="svg7384">
  <title
     id="title9167">Moblin Icon Theme</title>
  <defs
     id="defs7386" />
  <g
     transform="translate(537.85875,-870)"
     id="layer3" />
  <g
     transform="translate(537.85875,-870)"
     id="layer5" />
  <g
     transform="translate(537.85875,-870)"
     id="layer7" />
  <g
     transform="translate(537.85875,-870)"
     id="layer2" />
  <g
     transform="translate(537.85875,-870)"
     id="layer8" />
  <g
     transform="translate(537.85875,-1822.3622)"
     id="layer1" />
  <g
     transform="translate(537.85875,-870)"
     id="layer11">
    <rect
       width="24"
       height="24"
       x="513.85876"
       y="870"
       transform="scale(-1,1)"
       id="rect5129"
       style="opacity:0;fill:#ffffff;fill-opacity:1;stroke:none;display:inline" />
    <path
       d="M -524.38419,878.0177 L -527.26885,877.99164 C -527.40822,877.99079 -527.54163,878.04815 -527.63689,878.14989 L -529.70187,880.19678 C -529.78722,880.28547 -529.83685,880.40253 -529.84127,880.52555 L -529.86733,883.4102 C -529.86818,883.54958 -529.81081,883.68298 -529.70907,883.77825 L -527.66219,885.84322 C -527.57349,885.92857 -527.45643,885.97821 -527.33342,885.98263 L -524.44876,886.00869 C -524.30938,886.00953 -524.17598,885.95217 -524.08071,885.85043 L -522.01573,883.80354 C -521.93039,883.71485 -521.88075,883.59779 -521.87633,883.47477 L -521.85027,880.59012 C -521.84943,880.45074 -521.90679,880.31734 -522.00853,880.22207 L -524.05542,878.1571 C -524.14411,878.07175 -524.26117,878.02211 -524.38419,878.0177 z M -524.6035,879.00809 L -522.84951,880.80174 L -522.86672,883.25546 L -524.66038,885.00945 L -527.1141,884.99223 L -528.86809,883.19858 L -528.85088,880.74486 L -527.05722,878.99087 L -524.6035,879.00809 z"
       id="path6020"
       style="fill:#bebebe;fill-opacity:1;stroke:none;stroke-width:0.94250929;stroke-linecap:round;stroke-linejoin:round;marker:none;stroke-miterlimit:4;stroke-dasharray:none;stroke-dashoffset:0;stroke-opacity:1;visibility:visible;display:inline;overflow:visible;enable-background:accumulate" />
    <path
       d="M -521.27249,869.9752 L -530.35463,870.03115 C -530.63086,870.02568 -530.89709,870.13417 -531.09036,870.33096 L -537.56457,876.67325 C -537.66806,876.79192 -537.74197,876.93328 -537.78028,877.08581 C -537.83378,877.18249 -537.87082,877.28734 -537.8899,877.3961 L -537.83376,886.44887 C -537.83925,886.72421 -537.73041,886.98957 -537.53298,887.18222 L -531.17011,893.63548 C -531.05106,893.73864 -530.90924,893.81231 -530.75621,893.8505 C -530.65922,893.90383 -530.55402,893.94075 -530.44491,893.95976 L -521.36276,893.9038 C -521.08654,893.90927 -520.82031,893.80079 -520.62704,893.60399 L -514.15283,887.26171 C -514.04934,887.14304 -513.97543,887.00168 -513.93711,886.84915 C -513.88362,886.75247 -513.84658,886.64761 -513.8275,886.53885 L -513.88364,877.48609 C -513.87815,877.21075 -513.98699,876.94538 -514.18442,876.75274 L -520.54729,870.29948 C -520.66634,870.19632 -520.80816,870.12264 -520.96119,870.08445 C -521.05818,870.03113 -521.16338,869.99421 -521.27249,869.9752 z M -521.72497,872.0485 L -515.87335,877.86893 L -515.90753,886.08784 L -521.74685,891.92053 L -529.99243,891.88646 L -535.84405,886.06602 L -535.80987,877.84712 L -529.97054,872.01442 L -521.72497,872.0485 z"
       id="path6022"
       style="fill:#bebebe;fill-opacity:1;stroke:none;stroke-width:0.59981972;stroke-linecap:round;stroke-linejoin:round;marker:none;stroke-miterlimit:4;stroke-dasharray:none;stroke-dashoffset:0;stroke-opacity:1;visibility:visible;display:inline;overflow:visible;enable-background:accumulate" />
    <path
       d="M -525.59375,886.125 C -525.67614,886.14731 -525.75145,886.19035 -525.8125,886.25 L -527.0625,887.3125 C -527.17011,887.40743 -527.23176,887.54401 -527.23176,887.6875 C -527.23176,887.83099 -527.17011,887.96757 -527.0625,888.0625 L -522.625,891.9375 C -522.49392,892.07323 -522.2976,892.12361 -522.11736,892.06778 C -521.93712,892.01195 -521.80365,891.85941 -521.77224,891.67336 C -521.74083,891.4873 -521.81683,891.29941 -521.96875,891.1875 L -525.96875,887.6875 L -525.15625,887 C -524.97159,886.85282 -524.91506,886.59653 -525.02066,886.38533 C -525.12626,886.17413 -525.36521,886.06558 -525.59375,886.125 z"
       id="path6024"
       style="fill:#bebebe;fill-opacity:1;stroke:none;stroke-width:1;stroke-linecap:round;stroke-linejoin:round;marker:none;stroke-miterlimit:4;stroke-dasharray:none;stroke-dashoffset:0;stroke-opacity:1;visibility:visible;display:inline;overflow:visible;enable-background:accumulate" />
    <path
       d="M -530.59375,884.90625 C -530.85763,884.93886 -531.04985,885.17227 -531.03125,885.4375 L -530.625,891.3125 C -530.60774,891.58864 -530.36989,891.79851 -530.09375,891.78125 C -529.81761,891.76399 -529.60774,891.52614 -529.625,891.25 L -530,885.96875 L -528.9375,886.0625 C -528.66136,886.08839 -528.41651,885.88552 -528.39062,885.60937 C -528.36474,885.33323 -528.56761,885.08839 -528.84375,885.0625 L -530.5,884.90625 C -530.53118,884.90331 -530.56257,884.90331 -530.59375,884.90625 L -530.59375,884.90625 z"
       id="path6026"
       style="fill:#bebebe;fill-opacity:1;stroke:none;stroke-width:1;stroke-linecap:round;stroke-linejoin:round;marker:none;stroke-miterlimit:4;stroke-dasharray:none;stroke-dashoffset:0;stroke-opacity:1;visibility:visible;display:inline;overflow:visible;enable-background:accumulate" />
    <path
       d="M -531.71875,880.625 C -531.82715,880.64468 -531.92602,880.69961 -532,880.78125 L -535.875,885.21875 C -536.06485,885.43449 -536.04386,885.76328 -535.82813,885.95313 C -535.61239,886.14297 -535.2836,886.12199 -535.09375,885.90625 L -531.59375,881.90625 L -530.9375,882.6875 C -530.76491,882.90324 -530.45011,882.93821 -530.23437,882.76563 C -530.01864,882.59304 -529.98366,882.27824 -530.15625,882.0625 L -531.21875,880.8125 C -531.3353,880.65879 -531.52987,880.58583 -531.71875,880.625 z"
       id="path6028"
       style="fill:#bebebe;fill-opacity:1;stroke:none;stroke-width:1;stroke-linecap:round;stroke-linejoin:round;marker:none;stroke-miterlimit:4;stroke-dasharray:none;stroke-dashoffset:0;stroke-opacity:1;visibility:visible;display:inline;overflow:visible;enable-background:accumulate" />
    <path
       d="M -529.375,876.84375 L -535.25,877.21875 C -535.52614,877.23601 -535.73601,877.47386 -535.71875,877.75 C -535.70149,878.02614 -535.46364,878.23601 -535.1875,878.21875 L -529.875,877.84375 L -529.96875,878.9375 C -529.98601,879.21364 -529.77614,879.45149 -529.5,879.46875 C -529.22386,879.48601 -528.98601,879.27614 -528.96875,879 L -528.84375,877.375 C -528.83448,877.23146 -528.88746,877.09088 -528.98917,876.98917 C -529.09088,876.88746 -529.23146,876.83448 -529.375,876.84375 z"
       id="path6030"
       style="fill:#bebebe;fill-opacity:1;stroke:none;stroke-width:1;stroke-linecap:round;stroke-linejoin:round;marker:none;stroke-miterlimit:4;stroke-dasharray:none;stroke-dashoffset:0;stroke-opacity:1;visibility:visible;display:inline;overflow:visible;enable-background:accumulate" />
    <path
       d="M -529.625,871.875 C -529.80857,871.92222 -529.94966,872.06917 -529.98937,872.25451 C -530.02909,872.43985 -529.9606,872.63171 -529.8125,872.75 L -525.8125,876.25 L -526.625,876.9375 C -526.77692,877.04941 -526.85292,877.2373 -526.82151,877.42336 C -526.7901,877.60941 -526.65663,877.76195 -526.47639,877.81778 C -526.29615,877.87361 -526.09983,877.82323 -525.96875,877.6875 L -524.71875,876.625 C -524.61114,876.53007 -524.54949,876.39349 -524.54949,876.25 C -524.54949,876.10651 -524.61114,875.96993 -524.71875,875.875 L -529.15625,872 C -529.28047,871.88025 -529.45765,871.83301 -529.625,871.875 z"
       id="path6032"
       style="fill:#bebebe;fill-opacity:1;stroke:none;stroke-width:1;stroke-linecap:round;stroke-linejoin:round;marker:none;stroke-miterlimit:4;stroke-dasharray:none;stroke-dashoffset:0;stroke-opacity:1;visibility:visible;display:inline;overflow:visible;enable-background:accumulate" />
    <path
       d="M -521.6875,872.125 C -521.82617,872.13258 -521.95545,872.19749 -522.04436,872.30418 C -522.13327,872.41087 -522.1738,872.54973 -522.15625,872.6875 L -521.78125,878 L -522.84375,877.90625 C -523.0393,877.83958 -523.25571,877.90002 -523.38841,878.05838 C -523.5211,878.21674 -523.54274,878.44039 -523.44288,878.62125 C -523.34301,878.80212 -523.1422,878.90294 -522.9375,878.875 L -521.28125,879.03125 C -521.13771,879.04052 -520.99713,878.98754 -520.89542,878.88583 C -520.79371,878.78412 -520.74073,878.64354 -520.75,878.5 L -521.15625,872.625 C -521.15599,872.4868 -521.21295,872.35466 -521.31358,872.25994 C -521.41422,872.16522 -521.54957,872.11638 -521.6875,872.125 z"
       id="path6034"
       style="fill:#bebebe;fill-opacity:1;stroke:none;stroke-width:1;stroke-linecap:round;stroke-linejoin:round;marker:none;stroke-miterlimit:4;stroke-dasharray:none;stroke-dashoffset:0;stroke-opacity:1;visibility:visible;display:inline;overflow:visible;enable-background:accumulate" />
    <path
       d="M -516.375,877.875 C -516.49457,877.88781 -516.60551,877.94329 -516.6875,878.03125 L -520.1875,882.03125 L -520.84375,881.25 C -521.01634,881.03426 -521.33114,880.99929 -521.54688,881.17188 C -521.76261,881.34446 -521.79759,881.65926 -521.625,881.875 L -520.5625,883.125 C -520.47245,883.24766 -520.33145,883.32264 -520.1794,883.32873 C -520.02735,883.33481 -519.88081,883.27133 -519.78125,883.15625 L -515.90625,878.71875 C -515.7445,878.56127 -515.70831,878.31495 -515.81795,878.11761 C -515.92758,877.92027 -516.15584,877.82086 -516.375,877.875 z"
       id="path6036"
       style="fill:#bebebe;fill-opacity:1;stroke:none;stroke-width:1;stroke-linecap:round;stroke-linejoin:round;marker:none;stroke-miterlimit:4;stroke-dasharray:none;stroke-dashoffset:0;stroke-opacity:1;visibility:visible;display:inline;overflow:visible;enable-background:accumulate" />
    <path
       d="M -522.4375,884.46875 C -522.65281,884.52425 -522.80562,884.71525 -522.8125,884.9375 L -522.9375,886.5625 C -522.94677,886.70604 -522.89379,886.84662 -522.79208,886.94833 C -522.69037,887.05004 -522.54979,887.10302 -522.40625,887.09375 L -516.53125,886.71875 C -516.25511,886.70149 -516.04524,886.46364 -516.0625,886.1875 C -516.07976,885.91136 -516.31761,885.70149 -516.59375,885.71875 L -521.90625,886.09375 L -521.8125,885 C -521.79692,884.83727 -521.86186,884.67721 -521.98642,884.57134 C -522.11097,884.46547 -522.27941,884.42716 -522.4375,884.46875 z"
       id="path6038"
       style="fill:#bebebe;fill-opacity:1;stroke:none;stroke-width:1;stroke-linecap:round;stroke-linejoin:round;marker:none;stroke-miterlimit:4;stroke-dasharray:none;stroke-dashoffset:0;stroke-opacity:1;visibility:visible;display:inline;overflow:visible;enable-background:accumulate" />
  </g>
  <g
     transform="translate(537.85875,-870)"
     id="layer4" />
  <g
     transform="translate(537.85875,-870)"
     id="layer12" />
  <g
     transform="translate(537.85875,-870)"
     id="layer9" />
  <g
     transform="translate(537.85875,-870)"
     id="layer10" />
  <g
     transform="translate(537.85875,-870)"
     id="layer6" />
</svg>
