<?xml version="1.0" encoding="UTF-8" standalone="no"?>
<!-- Created with Inkscape (http://www.inkscape.org/) -->
<svg
   xmlns:svg="http://www.w3.org/2000/svg"
   xmlns="http://www.w3.org/2000/svg"
   version="1.0"
   width="24.000046"
   height="24"
   id="svg7384">
  <title
     id="title9167">Moblin Icon Theme</title>
  <defs
     id="defs7386" />
  <g
     transform="translate(-131.99995,-661.99993)"
     id="layer3" />
  <g
     transform="translate(-131.99995,-661.99993)"
     id="layer5" />
  <g
     transform="translate(-131.99995,-661.99993)"
     id="layer7" />
  <g
     transform="translate(-131.99995,-661.99993)"
     id="layer2" />
  <g
     transform="translate(-131.99995,-661.99993)"
     id="layer8" />
  <g
     transform="translate(-131.99995,-1614.3621)"
     id="layer1" />
  <g
     transform="translate(-131.99995,-661.99993)"
     id="layer11">
    <rect
       width="24"
       height="24"
       x="-155.99995"
       y="661.99994"
       transform="scale(-1,1)"
       id="rect5129"
       style="opacity:0;fill:#ffffff;fill-opacity:1;stroke:none;display:inline" />
    <path
       d="M 145.47451,670.01763 L 142.58985,669.99157 C 142.45048,669.99072 142.31707,670.04808 142.22181,670.14982 L 140.15683,672.19671 C 140.07148,672.2854 140.02185,672.40246 140.01743,672.52548 L 139.99137,675.41013 C 139.99052,675.54951 140.04789,675.68291 140.14963,675.77818 L 142.19651,677.84315 C 142.28521,677.9285 142.40227,677.97814 142.52528,677.98256 L 145.40994,678.00862 C 145.54932,678.00946 145.68272,677.9521 145.77799,677.85036 L 147.84297,675.80347 C 147.92831,675.71478 147.97795,675.59772 147.98237,675.4747 L 148.00843,672.59005 C 148.00927,672.45067 147.95191,672.31727 147.85017,672.222 L 145.80328,670.15703 C 145.71459,670.07168 145.59753,670.02204 145.47451,670.01763 z M 145.2552,671.00802 L 147.00919,672.80167 L 146.99198,675.25539 L 145.19832,677.00938 L 142.7446,676.99216 L 140.99061,675.19851 L 141.00782,672.74479 L 142.80148,670.9908 L 145.2552,671.00802 z"
       id="path6020"
       style="fill:#bebebe;fill-opacity:1;stroke:none;stroke-width:0.94250929;stroke-linecap:round;stroke-linejoin:round;marker:none;stroke-miterlimit:4;stroke-dasharray:none;stroke-dashoffset:0;stroke-opacity:1;visibility:visible;display:inline;overflow:visible;enable-background:accumulate" />
    <path
       d="M 148.58621,661.9751 L 139.50407,662.03105 C 139.22784,662.02558 138.96161,662.13407 138.76834,662.33086 L 132.29413,668.67315 C 132.19064,668.79182 132.11673,668.93318 132.07842,669.08571 C 132.02492,669.18239 131.98788,669.28724 131.9688,669.396 L 132.02494,678.44877 C 132.01945,678.72411 132.12829,678.98947 132.32572,679.18212 L 138.68859,685.63538 C 138.80764,685.73854 138.94946,685.81221 139.10249,685.8504 C 139.19948,685.90373 139.30468,685.94065 139.41379,685.95966 L 148.49594,685.9037 C 148.77216,685.90917 149.03839,685.80069 149.23166,685.60389 L 155.70587,679.26161 C 155.80936,679.14294 155.88327,679.00158 155.92159,678.84905 C 155.97508,678.75237 156.01212,678.64751 156.0312,678.53875 L 155.97506,669.48599 C 155.98055,669.21065 155.87171,668.94528 155.67428,668.75264 L 149.31141,662.29938 C 149.19236,662.19622 149.05054,662.12254 148.89751,662.08435 C 148.80052,662.03103 148.69532,661.99411 148.58621,661.9751 z M 148.13373,664.0484 L 153.98535,669.86883 L 153.95117,678.08774 L 148.11185,683.92043 L 139.86627,683.88636 L 134.01465,678.06592 L 134.04883,669.84702 L 139.88816,664.01432 L 148.13373,664.0484 z"
       id="path6022"
       style="fill:#bebebe;fill-opacity:1;stroke:none;stroke-width:0.59981972;stroke-linecap:round;stroke-linejoin:round;marker:none;stroke-miterlimit:4;stroke-dasharray:none;stroke-dashoffset:0;stroke-opacity:1;visibility:visible;display:inline;overflow:visible;enable-background:accumulate" />
    <path
       d="M 144.25,678.125 C 144.1788,678.15186 144.11468,678.19461 144.0625,678.25 L 142.8125,679.3125 C 142.70081,679.40286 142.63338,679.5369 142.6274,679.68044 C 142.62142,679.82398 142.67746,679.96316 142.78125,680.0625 L 147.21875,683.9375 C 147.42586,684.12735 147.74765,684.11336 147.9375,683.90625 C 148.12735,683.69914 148.11336,683.37735 147.90625,683.1875 L 143.875,679.6875 L 144.6875,679 C 144.87216,678.85282 144.92869,678.59653 144.82309,678.38533 C 144.71749,678.17413 144.47854,678.06558 144.25,678.125 z"
       id="path6024"
       style="fill:#bebebe;fill-opacity:1;stroke:none;stroke-width:1;stroke-linecap:round;stroke-linejoin:round;marker:none;stroke-miterlimit:4;stroke-dasharray:none;stroke-dashoffset:0;stroke-opacity:1;visibility:visible;display:inline;overflow:visible;enable-background:accumulate" />
    <path
       d="M 139.28125,676.90625 C 139.01737,676.93886 138.82515,677.17227 138.84375,677.4375 L 139.21875,683.3125 C 139.23601,683.58864 139.47386,683.79851 139.75,683.78125 C 140.02614,683.76399 140.23601,683.52614 140.21875,683.25 L 139.84375,677.9375 L 140.9375,678.03125 C 141.13567,678.09412 141.35206,678.02782 141.481,677.86473 C 141.60993,677.70164 141.62451,677.47578 141.5176,677.29748 C 141.41069,677.11917 141.2046,677.02561 141,677.0625 L 139.375,676.90625 C 139.34382,676.90331 139.31243,676.90331 139.28125,676.90625 L 139.28125,676.90625 z"
       id="path6026"
       style="fill:#bebebe;fill-opacity:1;stroke:none;stroke-width:1;stroke-linecap:round;stroke-linejoin:round;marker:none;stroke-miterlimit:4;stroke-dasharray:none;stroke-dashoffset:0;stroke-opacity:1;visibility:visible;display:inline;overflow:visible;enable-background:accumulate" />
    <path
       d="M 138.125,672.625 C 138.02786,672.65078 137.94074,672.70523 137.875,672.78125 L 134,677.21875 C 133.81015,677.42586 133.82414,677.74765 134.03125,677.9375 C 134.23836,678.12735 134.56015,678.11336 134.75,677.90625 L 138.25,673.875 L 138.9375,674.6875 C 139.03143,674.86967 139.22702,674.97608 139.431,674.95598 C 139.63497,674.93587 139.80603,674.79333 139.86259,674.59632 C 139.91914,674.39931 139.84975,674.18774 139.6875,674.0625 L 138.625,672.8125 C 138.50845,672.65879 138.31388,672.58583 138.125,672.625 z"
       id="path6028"
       style="fill:#bebebe;fill-opacity:1;stroke:none;stroke-width:1;stroke-linecap:round;stroke-linejoin:round;marker:none;stroke-miterlimit:4;stroke-dasharray:none;stroke-dashoffset:0;stroke-opacity:1;visibility:visible;display:inline;overflow:visible;enable-background:accumulate" />
    <path
       d="M 140.5,668.84375 L 134.625,669.21875 C 134.34886,669.23601 134.13899,669.47386 134.15625,669.75 C 134.17351,670.02614 134.41136,670.23601 134.6875,670.21875 L 140,669.84375 L 139.90625,670.9375 C 139.84338,671.13567 139.90968,671.35206 140.07277,671.481 C 140.23586,671.60993 140.46172,671.62451 140.64002,671.5176 C 140.81833,671.41069 140.91189,671.2046 140.875,671 L 141.03125,669.375 C 141.04052,669.23146 140.98754,669.09088 140.88583,668.98917 C 140.78412,668.88746 140.64354,668.83448 140.5,668.84375 z"
       id="path6030"
       style="fill:#bebebe;fill-opacity:1;stroke:none;stroke-width:1;stroke-linecap:round;stroke-linejoin:round;marker:none;stroke-miterlimit:4;stroke-dasharray:none;stroke-dashoffset:0;stroke-opacity:1;visibility:visible;display:inline;overflow:visible;enable-background:accumulate" />
    <path
       d="M 140.25,663.875 C 140.06146,663.91357 139.91179,664.05692 139.86511,664.24362 C 139.81844,664.43032 139.88304,664.62724 140.03125,664.75 L 144.0625,668.25 L 143.25,668.9375 C 143.06783,669.03143 142.96142,669.22702 142.98152,669.431 C 143.00163,669.63497 143.14417,669.80603 143.34118,669.86259 C 143.53819,669.91914 143.74976,669.84975 143.875,669.6875 L 145.125,668.625 C 145.23669,668.53464 145.30412,668.4006 145.3101,668.25706 C 145.31608,668.11352 145.26004,667.97434 145.15625,667.875 L 140.71875,664 C 140.59453,663.88025 140.41735,663.83301 140.25,663.875 L 140.25,663.875 z"
       id="path6032"
       style="fill:#bebebe;fill-opacity:1;stroke:none;stroke-width:1;stroke-linecap:round;stroke-linejoin:round;marker:none;stroke-miterlimit:4;stroke-dasharray:none;stroke-dashoffset:0;stroke-opacity:1;visibility:visible;display:inline;overflow:visible;enable-background:accumulate" />
    <path
       d="M 148.15625,664.125 C 148.0232,664.14059 147.90197,664.20891 147.81973,664.31465 C 147.73749,664.42039 147.70111,664.55471 147.71875,664.6875 L 148.09375,669.96875 L 147,669.875 C 146.72386,669.85774 146.48601,670.06761 146.46875,670.34375 C 146.45149,670.61989 146.66136,670.85774 146.9375,670.875 L 148.5625,671.03125 C 148.70604,671.04052 148.84662,670.98754 148.94833,670.88583 C 149.05004,670.78412 149.10302,670.64354 149.09375,670.5 L 148.71875,664.625 C 148.71986,664.48082 148.65869,664.34318 148.55093,664.24739 C 148.44317,664.1516 148.2993,664.10699 148.15625,664.125 z"
       id="path6034"
       style="fill:#bebebe;fill-opacity:1;stroke:none;stroke-width:1;stroke-linecap:round;stroke-linejoin:round;marker:none;stroke-miterlimit:4;stroke-dasharray:none;stroke-dashoffset:0;stroke-opacity:1;visibility:visible;display:inline;overflow:visible;enable-background:accumulate" />
    <path
       d="M 153.46875,669.875 C 153.36035,669.89468 153.26148,669.94961 153.1875,670.03125 L 149.6875,674.0625 L 149,673.25 C 148.90607,673.06783 148.71048,672.96142 148.5065,672.98152 C 148.30253,673.00163 148.13147,673.14417 148.07491,673.34118 C 148.01836,673.53819 148.08775,673.74976 148.25,673.875 L 149.3125,675.125 C 149.40286,675.23669 149.5369,675.30412 149.68044,675.3101 C 149.82398,675.31608 149.96316,675.26004 150.0625,675.15625 L 153.9375,670.71875 C 154.09925,670.56127 154.13544,670.31495 154.0258,670.11761 C 153.91617,669.92027 153.68791,669.82086 153.46875,669.875 z"
       id="path6036"
       style="fill:#bebebe;fill-opacity:1;stroke:none;stroke-width:1;stroke-linecap:round;stroke-linejoin:round;marker:none;stroke-miterlimit:4;stroke-dasharray:none;stroke-dashoffset:0;stroke-opacity:1;visibility:visible;display:inline;overflow:visible;enable-background:accumulate" />
    <path
       d="M 147.4375,676.46875 C 147.22219,676.52425 147.06938,676.71525 147.0625,676.9375 L 146.90625,678.5625 C 146.89698,678.70604 146.94996,678.84662 147.05167,678.94833 C 147.15338,679.05004 147.29396,679.10302 147.4375,679.09375 L 153.3125,678.71875 C 153.58864,678.70149 153.79851,678.46364 153.78125,678.1875 C 153.76399,677.91136 153.52614,677.70149 153.25,677.71875 L 147.9375,678.09375 L 148.03125,677 C 148.04388,676.8441 147.98283,676.69127 147.86626,676.58697 C 147.7497,676.48267 147.59104,676.43893 147.4375,676.46875 L 147.4375,676.46875 z"
       id="path6038"
       style="fill:#bebebe;fill-opacity:1;stroke:none;stroke-width:1;stroke-linecap:round;stroke-linejoin:round;marker:none;stroke-miterlimit:4;stroke-dasharray:none;stroke-dashoffset:0;stroke-opacity:1;visibility:visible;display:inline;overflow:visible;enable-background:accumulate" />
  </g>
  <g
     transform="translate(-131.99995,-661.99993)"
     id="layer4" />
  <g
     transform="translate(-131.99995,-661.99993)"
     id="layer9" />
  <g
     transform="translate(-131.99995,-661.99993)"
     id="layer10" />
  <g
     transform="translate(-131.99995,-661.99993)"
     id="layer6" />
</svg>
