<?xml version="1.0" encoding="UTF-8" standalone="no"?>
<!-- Created with Inkscape (http://www.inkscape.org/) -->
<svg
   xmlns:svg="http://www.w3.org/2000/svg"
   xmlns="http://www.w3.org/2000/svg"
   version="1.0"
   width="24"
   height="24.025118"
   id="svg7384">
  <title
     id="title9167">Moblin Icon Theme</title>
  <defs
     id="defs7386" />
  <g
     transform="translate(538,-1006)"
     id="layer3" />
  <g
     transform="translate(538,-1006)"
     id="layer5" />
  <g
     transform="translate(538,-1006)"
     id="layer7" />
  <g
     transform="translate(538,-1006)"
     id="layer2" />
  <g
     transform="translate(538,-1006)"
     id="layer8" />
  <g
     transform="translate(538,-1958.3621)"
     id="layer1" />
  <g
     transform="translate(538,-1006)"
     id="layer11">
    <rect
       width="24"
       height="24"
       x="-538"
       y="1006.0251"
       id="rect8091-2"
       style="opacity:0;fill:#ffffff;fill-opacity:1;stroke:none;display:inline" />
    <g
       transform="matrix(1.1145298,0,0,1,-1494.6231,831.00576)"
       id="use8126-3">
      <path
         d="M 861.0615,175.99424 L 865.58089,176.05104 L 869.00472,179.9942 L 870.87061,180.0857 L 874.1223,176.08266 L 877.05979,176.00466 L 877.01559,196.01422 L 861.0173,196.01422 L 861.0615,175.99426 L 861.0615,175.99426 L 861.0615,175.9942 L 861.0615,175.99424 L 861.0615,175.99424 z"
         id="path15075"
         style="fill:none;stroke:#bebebe;stroke-width:1.89445448;stroke-linecap:butt;stroke-linejoin:round;stroke-miterlimit:4;stroke-dasharray:none;stroke-opacity:1" />
      <path
         d="M 874.47024,175.18968 L 874.47024,180.95626 L 869.89163,180.99426 L 874.47024,175.18968 L 874.47024,175.18968 z"
         id="path15077"
         style="fill:#bebebe;fill-opacity:1;stroke:none" />
      <path
         d="M 865.40543,175.18968 L 865.40543,180.95626 L 869.98404,180.99426 L 865.40543,175.18968 L 865.40543,175.18968 z"
         id="path15083"
         style="fill:#bebebe;fill-opacity:1;stroke:none" />
    </g>
    <path
       d="M -526.59375,1024 C -526.86989,1024.0259 -527.07276,1024.2707 -527.04687,1024.5469 C -527.02099,1024.823 -526.77614,1025.0259 -526.5,1025 L -522.5,1025 C -522.31968,1025.0025 -522.15196,1024.9078 -522.06106,1024.7521 C -521.97016,1024.5963 -521.97016,1024.4037 -522.06106,1024.2479 C -522.15196,1024.0922 -522.31968,1023.9975 -522.5,1024 L -526.5,1024 C -526.53118,1023.9971 -526.56257,1023.9971 -526.59375,1024 z"
       id="path8100-5-5"
       style="fill:#bebebe;fill-opacity:1;stroke:none;stroke-width:0.99999994px;stroke-linecap:round;stroke-linejoin:miter;stroke-opacity:1" />
    <path
       d="M -526.71875,1011.9688 C -527.43176,1011.9688 -528.03125,1012.5682 -528.03125,1013.2812 L -528.03125,1017.6875 C -528.03125,1018.4005 -527.43174,1019 -526.71875,1019 L -523.3125,1019 C -522.59949,1019 -522.00003,1018.4005 -522,1017.6875 L -522,1013.2812 C -522,1012.5682 -522.59947,1011.9688 -523.3125,1011.9688 L -526.71875,1011.9688 z M -526.03125,1013.9688 L -524,1013.9688 L -524,1017 L -526.03125,1017 L -526.03125,1013.9688 z"
       id="rect15063"
       style="fill:#bebebe;fill-opacity:1;stroke:none;stroke-width:2;stroke-linecap:round;stroke-linejoin:round;marker:none;stroke-miterlimit:4;stroke-dasharray:none;stroke-dashoffset:0;stroke-opacity:1;visibility:visible;display:inline;overflow:visible;enable-background:accumulate" />
    <path
       d="M -527.03125,1013 C -527.58353,1013.0259 -528.01026,1013.4946 -527.98437,1014.0469 C -527.95849,1014.5992 -527.48978,1015.0259 -526.9375,1015 L -523,1015 C -522.63936,1015.0051 -522.30392,1014.8156 -522.12211,1014.5041 C -521.94031,1014.1926 -521.94031,1013.8074 -522.12211,1013.4959 C -522.30392,1013.1844 -522.63936,1012.9949 -523,1013 L -526.9375,1013 C -526.96873,1012.9985 -527.00002,1012.9985 -527.03125,1013 z"
       id="path15065"
       style="fill:#bebebe;fill-opacity:1;stroke:none;stroke-width:2;stroke-linecap:round;stroke-linejoin:round;marker:none;stroke-miterlimit:4;stroke-dasharray:none;stroke-dashoffset:0;stroke-opacity:1;visibility:visible;display:inline;overflow:visible;enable-background:accumulate" />
    <path
       d="M -527.59375,1022 C -527.86989,1022.0259 -528.07276,1022.2707 -528.04687,1022.5469 C -528.02099,1022.823 -527.77614,1023.0259 -527.5,1023 L -523.5,1023 C -523.31968,1023.0026 -523.15196,1022.9078 -523.06106,1022.7521 C -522.97015,1022.5963 -522.97015,1022.4037 -523.06106,1022.2479 C -523.15196,1022.0922 -523.31968,1021.9974 -523.5,1022 L -527.5,1022 C -527.53118,1021.9971 -527.56257,1021.9971 -527.59375,1022 z"
       id="path15067"
       style="fill:#bebebe;fill-opacity:1;stroke:none;stroke-width:1px;stroke-linecap:round;stroke-linejoin:miter;stroke-opacity:1" />
    <path
       d="M -526.59375,1020 C -526.86989,1020.0259 -527.07276,1020.2707 -527.04687,1020.5469 C -527.02099,1020.823 -526.77614,1021.0259 -526.5,1021 L -522.5,1021 C -522.31968,1021.0025 -522.15196,1020.9078 -522.06106,1020.7521 C -521.97016,1020.5963 -521.97016,1020.4037 -522.06106,1020.2479 C -522.15196,1020.0922 -522.31968,1019.9975 -522.5,1020 L -526.5,1020 C -526.53118,1019.9971 -526.56257,1019.9971 -526.59375,1020 L -526.59375,1020 z"
       id="path15069"
       style="fill:#bebebe;fill-opacity:1;stroke:none;stroke-width:0.99999994px;stroke-linecap:round;stroke-linejoin:miter;stroke-opacity:1" />
  </g>
  <g
     transform="translate(538,-1006)"
     id="layer4" />
  <g
     transform="translate(538,-1006)"
     id="layer9" />
  <g
     transform="translate(538,-1006)"
     id="layer10" />
  <g
     transform="translate(538,-1006)"
     id="layer6" />
</svg>
