<?xml version="1.0" encoding="UTF-8" standalone="no"?>
<!-- Created with Inkscape (http://www.inkscape.org/) -->
<svg
   xmlns:svg="http://www.w3.org/2000/svg"
   xmlns="http://www.w3.org/2000/svg"
   version="1.0"
   width="24"
   height="24.025167"
   id="svg7384">
  <title
     id="title9167">Moblin Icon Theme</title>
  <defs
     id="defs7386" />
  <g
     transform="translate(538,-955.99991)"
     id="layer3" />
  <g
     transform="translate(538,-955.99991)"
     id="layer5" />
  <g
     transform="translate(538,-955.99991)"
     id="layer7" />
  <g
     transform="translate(538,-955.99991)"
     id="layer2" />
  <g
     transform="translate(538,-955.99991)"
     id="layer8" />
  <g
     transform="translate(538,-1908.3621)"
     id="layer1" />
  <g
     transform="translate(538,-955.99991)"
     id="layer11">
    <rect
       width="24"
       height="24"
       x="-538"
       y="956.02509"
       id="rect8091-2"
       style="opacity:0;fill:#ffffff;fill-opacity:1;stroke:none;display:inline" />
    <g
       transform="matrix(1.1145298,0,0,1,-1494.6231,781.00576)"
       id="use8126-3">
      <path
         d="M 861.0615,175.99424 L 865.58089,176.05104 L 869.0608,179.0567 L 870.89865,178.9919 L 874.1223,176.08261 L 877.05979,176.00461 L 877.01559,196.01417 L 861.0173,196.01417 L 861.0615,175.99421 L 861.0615,175.99421 L 861.0615,175.99415 L 861.0615,175.99419 L 861.0615,175.99424 z"
         id="path15075"
         style="fill:none;stroke:#bebebe;stroke-width:1.89445448;stroke-linecap:butt;stroke-linejoin:round;stroke-miterlimit:4;stroke-dasharray:none;stroke-opacity:1" />
      <path
         d="M 865.40543,175.18968 L 865.40543,180.95626 L 866.45116,181.02556 C 866.96889,180.23758 867.91385,179.97866 869.10335,180.02258 L 865.40543,175.18973 L 865.40543,175.18968 z"
         id="path15083"
         style="fill:#bebebe;fill-opacity:1;stroke:none" />
      <path
         d="M 874.47024,175.18968 L 874.47024,180.95626 L 873.42451,181.02556 C 872.90678,180.23758 871.96182,179.97866 870.77232,180.02258 L 874.47024,175.18973 L 874.47024,175.18968 z"
         id="path15629"
         style="fill:#bebebe;fill-opacity:1;stroke:none" />
    </g>
    <path
       d="M -526.59375,974 C -526.86989,974.02589 -527.07276,974.27073 -527.04688,974.54688 C -527.02099,974.82302 -526.77614,975.02589 -526.5,975 L -522.5,975 C -522.31968,975.00255 -522.15196,974.90781 -522.06106,974.75206 C -521.97016,974.59631 -521.97016,974.40369 -522.06106,974.24794 C -522.15196,974.09219 -522.31968,973.99745 -522.5,974 L -526.5,974 C -526.53118,973.99706 -526.56257,973.99706 -526.59375,974 z"
       id="path8100-5-5"
       style="fill:#bebebe;fill-opacity:1;stroke:none;stroke-width:0.99999994px;stroke-linecap:round;stroke-linejoin:miter;stroke-opacity:1" />
    <path
       d="M -526.71875,961.96875 C -527.43176,961.96875 -528.03125,962.56823 -528.03125,963.28125 L -528.03125,967.6875 C -528.03125,968.40051 -527.43174,968.99996 -526.71875,969 L -523.3125,969 C -522.59949,969 -522.00003,968.40052 -522,967.6875 L -522,963.28125 C -522,962.56824 -522.59947,961.96875 -523.3125,961.96875 L -526.71875,961.96875 z M -526.03125,963.96875 L -524,963.96875 L -524,967 L -526.03125,967 L -526.03125,963.96875 z"
       id="rect15063"
       style="fill:#bebebe;fill-opacity:1;stroke:none;stroke-width:2;stroke-linecap:round;stroke-linejoin:round;marker:none;stroke-miterlimit:4;stroke-dasharray:none;stroke-dashoffset:0;stroke-opacity:1;visibility:visible;display:inline;overflow:visible;enable-background:accumulate" />
    <path
       d="M -527.59375,972 C -527.86989,972.02589 -528.07276,972.27073 -528.04687,972.54687 C -528.02099,972.82302 -527.77614,973.02589 -527.5,973 L -523.5,973 C -523.31968,973.00255 -523.15196,972.90781 -523.06106,972.75206 C -522.97015,972.59631 -522.97015,972.40369 -523.06106,972.24794 C -523.15196,972.09219 -523.31968,971.99745 -523.5,972 L -527.5,972 C -527.53118,971.99706 -527.56257,971.99706 -527.59375,972 L -527.59375,972 z"
       id="path15067"
       style="fill:#bebebe;fill-opacity:1;stroke:none;stroke-width:1px;stroke-linecap:round;stroke-linejoin:miter;stroke-opacity:1" />
    <path
       d="M -526.59375,970 C -526.86989,970.02589 -527.07276,970.27073 -527.04687,970.54687 C -527.02099,970.82302 -526.77614,971.02589 -526.5,971 L -522.5,971 C -522.31968,971.00255 -522.15196,970.90781 -522.06106,970.75206 C -521.97016,970.59631 -521.97016,970.40369 -522.06106,970.24794 C -522.15196,970.09219 -522.31968,969.99745 -522.5,970 L -526.5,970 C -526.53118,969.99706 -526.56257,969.99706 -526.59375,970 z"
       id="path15069"
       style="fill:#bebebe;fill-opacity:1;stroke:none;stroke-width:0.99999994px;stroke-linecap:round;stroke-linejoin:miter;stroke-opacity:1" />
    <rect
       width="3.96875"
       height="3.0625"
       x="-526.96875"
       y="963"
       id="rect15605"
       style="fill:#bebebe;fill-opacity:1;fill-rule:nonzero;stroke:none;stroke-width:2;marker:none;visibility:visible;display:inline;overflow:visible;enable-background:accumulate" />
  </g>
  <g
     transform="translate(538,-955.99991)"
     id="layer4" />
  <g
     transform="translate(538,-955.99991)"
     id="layer12" />
  <g
     transform="translate(538,-955.99991)"
     id="layer9" />
  <g
     transform="translate(538,-955.99991)"
     id="layer10" />
  <g
     transform="translate(538,-955.99991)"
     id="layer6" />
</svg>
