<?xml version="1.0" encoding="UTF-8" standalone="no"?>
<!-- Created with Inkscape (http://www.inkscape.org/) -->
<svg
   xmlns:svg="http://www.w3.org/2000/svg"
   xmlns="http://www.w3.org/2000/svg"
   version="1.0"
   width="24.09071"
   height="24.090717"
   id="svg7384">
  <title
     id="title9167">Moblin Icon Theme</title>
  <defs
     id="defs7386" />
  <g
     transform="translate(410.0625,-1027.9375)"
     id="layer3" />
  <g
     transform="translate(410.0625,-1027.9375)"
     id="layer5" />
  <g
     transform="translate(410.0625,-1027.9375)"
     id="layer7" />
  <g
     transform="translate(410.0625,-1027.9375)"
     id="layer2" />
  <g
     transform="translate(410.0625,-1027.9375)"
     id="layer8" />
  <g
     transform="translate(410.0625,-1980.2997)"
     id="layer1" />
  <g
     transform="translate(410.0625,-1027.9375)"
     id="layer11">
    <rect
       width="24"
       height="24"
       x="386"
       y="1028"
       transform="scale(-1,1)"
       id="rect6526"
       style="opacity:0;fill:#ffffff;fill-opacity:1;stroke:none;display:inline" />
    <path
       d="M -396.42232,1032.3111 C -397.84667,1031.4887 -399.698,1031.9847 -400.5204,1033.4092 L -405.69225,1042.3671 C -406.5146,1043.7914 -406.01852,1045.6428 -404.59417,1046.4652 L -395.63622,1051.637 C -394.21187,1052.4594 -392.3605,1051.9633 -391.53815,1050.539 L -386.3663,1041.581 C -385.5439,1040.1566 -386.04002,1038.3053 -387.46437,1037.483 L -396.42232,1032.3111 z M -397.42232,1034.0431 L -388.46437,1039.215 C -387.96961,1039.5007 -387.8127,1040.0863 -388.09835,1040.581 L -393.2702,1049.539 C -393.55585,1050.0337 -394.14146,1050.1906 -394.63622,1049.905 L -403.59417,1044.7331 C -404.08893,1044.4475 -404.24585,1043.8618 -403.9602,1043.3671 L -398.78835,1034.4092 C -398.5027,1033.9144 -397.91708,1033.7575 -397.42232,1034.0431 z"
       id="rect6538"
       style="fill:#bebebe;fill-opacity:1;fill-rule:nonzero;stroke:none;stroke-width:1.9999994;stroke-linecap:round;stroke-linejoin:miter;marker:none;stroke-miterlimit:4;stroke-dasharray:none;stroke-dashoffset:0;stroke-opacity:1;visibility:visible;display:inline;overflow:visible;enable-background:accumulate" />
    <path
       d="M -407.0625,1027.9375 C -408.7072,1027.9375 -410.0625,1029.2928 -410.0625,1030.9375 L -410.0625,1041.125 C -410.0625,1042.2914 -409.39242,1043.3205 -408.40625,1043.8125 C -408.08619,1043.9919 -407.6936,1043.9816 -407.38335,1043.7858 C -407.0731,1043.5899 -406.89502,1043.2399 -406.91936,1042.8738 C -406.9437,1042.5077 -407.16655,1042.1843 -407.5,1042.0312 C -407.82621,1041.8685 -408.0625,1041.5302 -408.0625,1041.125 L -408.0625,1030.9375 C -408.0625,1030.3662 -407.6338,1029.9375 -407.0625,1029.9375 L -397,1029.9375 C -396.4287,1029.9375 -396,1030.3662 -396,1030.9375 C -396.0051,1031.2981 -395.81562,1031.6336 -395.50412,1031.8154 C -395.19263,1031.9972 -394.80737,1031.9972 -394.49588,1031.8154 C -394.18438,1031.6336 -393.9949,1031.2981 -394,1030.9375 C -394,1029.2928 -395.3553,1027.9375 -397,1027.9375 L -407.0625,1027.9375 z"
       id="rect6541"
       style="fill:#bebebe;fill-opacity:1;fill-rule:nonzero;stroke:none;stroke-width:1.99999952;stroke-linecap:round;stroke-linejoin:miter;marker:none;stroke-miterlimit:4;stroke-dasharray:none;stroke-dashoffset:0;stroke-opacity:1;visibility:visible;display:inline;overflow:visible;enable-background:accumulate" />
  </g>
  <g
     transform="translate(410.0625,-1027.9375)"
     id="layer4" />
  <g
     transform="translate(410.0625,-1027.9375)"
     id="layer9" />
  <g
     transform="translate(410.0625,-1027.9375)"
     id="layer10" />
  <g
     transform="translate(410.0625,-1027.9375)"
     id="layer6" />
</svg>
