<?xml version="1.0" encoding="UTF-8" standalone="no"?>
<!-- Created with Inkscape (http://www.inkscape.org/) -->
<svg
   xmlns:svg="http://www.w3.org/2000/svg"
   xmlns="http://www.w3.org/2000/svg"
   version="1.0"
   width="24"
   height="24"
   id="svg7384">
  <title
     id="title9167">Moblin Icon Theme</title>
  <defs
     id="defs7386" />
  <g
     transform="translate(436,-1028)"
     id="layer3" />
  <g
     transform="translate(436,-1028)"
     id="layer5" />
  <g
     transform="translate(436,-1028)"
     id="layer7" />
  <g
     transform="translate(436,-1028)"
     id="layer2" />
  <g
     transform="translate(436,-1028)"
     id="layer8" />
  <g
     transform="translate(436,-1980.3622)"
     id="layer1" />
  <g
     transform="translate(436,-1028)"
     id="layer11">
    <rect
       width="24"
       height="24"
       x="412"
       y="1028"
       transform="scale(-1,1)"
       id="rect6520"
       style="opacity:0;fill:#ffffff;fill-opacity:1;stroke:none;display:inline" />
    <path
       d="M -431.03125,1030 C -432.67595,1030 -434.03125,1031.3553 -434.03125,1033 L -434.03125,1045 C -434.03125,1046.6447 -432.67595,1048 -431.03125,1048 L -419.03125,1048 C -417.38655,1048 -416.03125,1046.6447 -416.03125,1045 L -416.03125,1033 C -416.03125,1031.3553 -417.38655,1030 -419.03125,1030 L -431.03125,1030 z M -431.03125,1032 L -419.03125,1032 C -418.45995,1032 -418.03125,1032.4287 -418.03125,1033 L -418.03125,1045 C -418.03125,1045.5713 -418.45995,1046 -419.03125,1046 L -431.03125,1046 C -431.60255,1046 -432.03125,1045.5713 -432.03125,1045 L -432.03125,1033 C -432.03125,1032.4287 -431.60255,1032 -431.03125,1032 z"
       id="rect6522"
       style="fill:#bebebe;fill-opacity:1;fill-rule:nonzero;stroke:none;stroke-width:1.99999952;stroke-linecap:round;stroke-linejoin:miter;marker:none;stroke-miterlimit:4;stroke-dasharray:none;stroke-dashoffset:0;stroke-opacity:1;visibility:visible;display:inline;overflow:visible;enable-background:accumulate" />
  </g>
  <g
     transform="translate(436,-1028)"
     id="layer4" />
  <g
     transform="translate(436,-1028)"
     id="layer9" />
  <g
     transform="translate(436,-1028)"
     id="layer10" />
  <g
     transform="translate(436,-1028)"
     id="layer6" />
</svg>
