<?xml version="1.0" encoding="UTF-8" standalone="no"?>
<!-- Created with Inkscape (http://www.inkscape.org/) -->
<svg
   xmlns:svg="http://www.w3.org/2000/svg"
   xmlns="http://www.w3.org/2000/svg"
   version="1.0"
   width="24"
   height="24"
   id="svg7384">
  <title
     id="title9167">Moblin Icon Theme</title>
  <defs
     id="defs7386" />
  <g
     transform="translate(509.85875,-870)"
     id="layer3" />
  <g
     transform="translate(509.85875,-870)"
     id="layer5" />
  <g
     transform="translate(509.85875,-870)"
     id="layer7" />
  <g
     transform="translate(509.85875,-870)"
     id="layer2" />
  <g
     transform="translate(509.85875,-870)"
     id="layer8" />
  <g
     transform="translate(509.85875,-1822.3622)"
     id="layer1" />
  <g
     transform="translate(509.85875,-870)"
     id="layer11">
    <rect
       width="24"
       height="24"
       x="485.85873"
       y="870"
       transform="scale(-1,1)"
       id="rect6043"
       style="opacity:0;fill:#ffffff;fill-opacity:1;stroke:none;display:inline" />
    <path
       d="M -495.8586,872.28196 C -496.34151,872.34193 -496.71117,872.74079 -496.73431,873.22687 C -496.75746,873.71294 -496.42738,874.14512 -495.95235,874.25071 C -491.66829,875.36636 -489.11796,879.74791 -490.2336,884.03196 C -491.34924,888.31599 -495.7308,890.86635 -500.01485,889.75071 C -503.75039,888.7779 -506.16721,885.48146 -505.9836,881.62571 C -505.95771,881.07343 -506.38444,880.60472 -506.93672,880.57883 C -507.48901,880.55295 -507.95771,880.97968 -507.9836,881.53196 C -508.21027,886.29197 -505.12645,890.48726 -500.51485,891.68821 C -495.18359,893.07656 -489.68445,889.86319 -488.2961,884.53196 C -486.90775,879.20071 -490.12109,873.70157 -495.45235,872.31321 C -495.58419,872.27503 -495.72247,872.26439 -495.8586,872.28196 z"
       id="path6066"
       style="fill:#bebebe;fill-opacity:1;stroke:none;stroke-width:2.00000191;stroke-linecap:round;stroke-linejoin:round;marker:none;stroke-miterlimit:4;stroke-dasharray:none;stroke-dashoffset:0;stroke-opacity:1;visibility:visible;display:inline;overflow:visible;enable-background:accumulate" />
    <path
       d="M -507.03125,871.9375 C -507.53421,872.0009 -507.91018,872.43058 -507.90625,872.9375 L -507.96875,881.34375 C -507.97385,881.70439 -507.78437,882.03983 -507.47288,882.22164 C -507.16138,882.40344 -506.77612,882.40344 -506.46462,882.22164 C -506.15313,882.03983 -505.96365,881.70439 -505.96875,881.34375 L -505.90625,874.5625 L -503.3125,875.9375 C -503.03277,876.09214 -502.69597,876.10375 -502.40625,875.96875 L -499.90625,874.6875 L -499.90625,876.0625 C -499.91127,876.26137 -499.85687,876.45721 -499.75,876.625 L -498.3125,878.71875 C -499.75857,879.75808 -500.8693,880.14508 -501.75,880.0625 C -502.30228,880.01072 -502.79197,880.41647 -502.84375,880.96875 C -502.89553,881.52103 -502.48978,882.01072 -501.9375,882.0625 C -500.27843,882.21807 -498.42021,881.55703 -496.28125,879.75 C -495.89607,879.42274 -495.81561,878.85952 -496.09375,878.4375 L -497.90625,875.78125 L -497.90625,873.0625 C -497.89812,872.70756 -498.07878,872.37492 -498.38093,872.18849 C -498.68307,872.00206 -499.06141,871.98979 -499.375,872.15625 L -502.875,873.9375 L -506.46875,872.0625 C -506.63993,871.96655 -506.83555,871.92308 -507.03125,871.9375 L -507.03125,871.9375 z"
       id="path6068"
       style="fill:#bebebe;fill-opacity:1;stroke:none;stroke-width:2;stroke-linecap:round;stroke-linejoin:round;marker:none;stroke-miterlimit:4;stroke-dasharray:none;stroke-dashoffset:0;stroke-opacity:1;visibility:visible;display:inline;overflow:visible;enable-background:accumulate" />
    <path
       d="M -502.09615,880.08144 C -502.49424,880.1342 -502.82226,880.4185 -502.92965,880.80384 C -503.06129,881.25282 -503.13179,881.70426 -503.14574,882.17177 C -503.23473,885.15384 -500.84619,887.66246 -497.85149,887.75108 C -497.2974,887.76382 -496.83784,887.32685 -496.82506,886.77509 C -496.81227,886.22333 -497.25109,885.76571 -497.80519,885.75298 C -499.71596,885.69644 -501.19596,884.12058 -501.13918,882.21788 C -501.12952,881.89443 -501.09133,881.66777 -501.00026,881.35716 C -500.90222,881.03198 -500.97693,880.67947 -501.19857,880.42147 C -501.4202,880.16347 -501.75835,880.03537 -502.09615,880.08144 z"
       id="path6070"
       style="fill:#bebebe;fill-opacity:1;stroke:none;stroke-width:4.0577774;stroke-linecap:round;stroke-linejoin:round;marker:none;stroke-miterlimit:4;stroke-dasharray:none;stroke-dashoffset:0;stroke-opacity:1;visibility:visible;display:inline;overflow:visible;enable-background:accumulate" />
  </g>
  <g
     transform="translate(509.85875,-870)"
     id="layer4" />
  <g
     transform="translate(509.85875,-870)"
     id="layer12" />
  <g
     transform="translate(509.85875,-870)"
     id="layer9" />
  <g
     transform="translate(509.85875,-870)"
     id="layer10" />
  <g
     transform="translate(509.85875,-870)"
     id="layer6" />
</svg>
