<?xml version="1.0" encoding="UTF-8" standalone="no"?>
<!-- Created with Inkscape (http://www.inkscape.org/) -->
<svg
   xmlns:svg="http://www.w3.org/2000/svg"
   xmlns="http://www.w3.org/2000/svg"
   version="1.0"
   width="24"
   height="24"
   id="svg7384">
  <title
     id="title9167">Moblin Icon Theme</title>
  <defs
     id="defs7386" />
  <g
     transform="translate(-159.99995,-661.99993)"
     id="layer3" />
  <g
     transform="translate(-159.99995,-661.99993)"
     id="layer5" />
  <g
     transform="translate(-159.99995,-661.99993)"
     id="layer7" />
  <g
     transform="translate(-159.99995,-661.99993)"
     id="layer2" />
  <g
     transform="translate(-159.99995,-661.99993)"
     id="layer8" />
  <g
     transform="translate(-159.99995,-1614.3621)"
     id="layer1" />
  <g
     transform="translate(-159.99995,-661.99993)"
     id="layer11">
    <rect
       width="24"
       height="24"
       x="-183.99995"
       y="661.99994"
       transform="scale(-1,1)"
       id="rect6043"
       style="opacity:0;fill:#ffffff;fill-opacity:1;stroke:none;display:inline" />
    <path
       d="M 174.0627,664.28189 C 173.57979,664.34186 173.21013,664.74072 173.18699,665.2268 C 173.16384,665.71287 173.49392,666.14505 173.96895,666.25064 C 178.25301,667.36629 180.80334,671.74784 179.6877,676.03189 C 178.57206,680.31592 174.1905,682.86628 169.90645,681.75064 C 166.17091,680.77783 163.75409,677.48139 163.9377,673.62564 C 163.96359,673.07336 163.53686,672.60465 162.98458,672.57876 C 162.43229,672.55288 161.96359,672.97961 161.9377,673.53189 C 161.71103,678.2919 164.79485,682.48719 169.40645,683.68814 C 174.73771,685.07649 180.23685,681.86312 181.6252,676.53189 C 183.01355,671.20064 179.80021,665.7015 174.46895,664.31314 C 174.33711,664.27496 174.19883,664.26432 174.0627,664.28189 z"
       id="path6066"
       style="fill:#bebebe;fill-opacity:1;stroke:none;stroke-width:2.00000191;stroke-linecap:round;stroke-linejoin:round;marker:none;stroke-miterlimit:4;stroke-dasharray:none;stroke-dashoffset:0;stroke-opacity:1;visibility:visible;display:inline;overflow:visible;enable-background:accumulate" />
    <path
       d="M 162.875,663.9375 C 162.37204,664.0009 161.99607,664.43058 162,664.9375 L 162.0625,673.125 C 162.0574,673.48564 162.24688,673.82108 162.55837,674.00289 C 162.86987,674.18469 163.25513,674.18469 163.56663,674.00289 C 163.87812,673.82108 164.0676,673.48564 164.0625,673.125 L 164,666.59375 L 166.53125,667.9375 C 166.81098,668.09214 167.14778,668.10375 167.4375,667.96875 L 169.9375,666.6875 L 169.9375,668.0625 C 169.9417,668.26464 170.00708,668.46076 170.125,668.625 L 171.5625,670.71875 C 170.10789,671.76821 168.97778,672.14539 168.09375,672.0625 C 167.54147,672.01072 167.05178,672.41647 167,672.96875 C 166.94822,673.52103 167.35397,674.01072 167.90625,674.0625 C 169.56532,674.21807 171.45479,673.55702 173.59375,671.75 C 173.96872,671.41417 174.03564,670.85198 173.75,670.4375 L 171.9375,667.78125 L 171.9375,665.0625 C 171.93988,664.71662 171.76337,664.39407 171.47078,664.20961 C 171.17818,664.02515 170.81105,664.00497 170.5,664.15625 L 167,665.9375 L 163.46875,664.0625 C 163.28855,663.96035 163.08109,663.91667 162.875,663.9375 z"
       id="path6068"
       style="fill:#bebebe;fill-opacity:1;stroke:none;stroke-width:2;stroke-linecap:round;stroke-linejoin:round;marker:none;stroke-miterlimit:4;stroke-dasharray:none;stroke-dashoffset:0;stroke-opacity:1;visibility:visible;display:inline;overflow:visible;enable-background:accumulate" />
    <path
       d="M 167.69823,672.32322 C 167.47376,672.32558 167.27826,672.47629 167.21974,672.6921 C 167.09824,673.10649 167.04739,673.49021 167.03452,673.9217 C 166.95358,676.63392 169.09569,678.9132 171.81941,678.9938 C 172.09646,679.00229 172.32796,678.78553 172.33648,678.50965 C 172.34501,678.23377 172.12733,678.00324 171.85028,677.99475 C 169.66853,677.93019 167.97297,676.12498 168.0378,673.95244 C 168.04853,673.59298 168.09094,673.31396 168.19215,672.96876 C 168.2397,672.81489 168.20979,672.64763 168.11181,672.51957 C 168.01383,672.39152 167.85983,672.3184 167.69823,672.32322 z"
       id="path6070"
       style="fill:#bebebe;fill-opacity:1;stroke:none;stroke-width:2.0288868;stroke-linecap:round;stroke-linejoin:round;marker:none;stroke-miterlimit:4;stroke-dasharray:none;stroke-dashoffset:0;stroke-opacity:1;visibility:visible;display:inline;overflow:visible;enable-background:accumulate" />
    <path
       d="M 178.00179,670.68316 C 178.18549,670.69267 178.34926,670.80074 178.42878,670.96493 C 178.79631,671.70389 178.97337,672.44863 178.99809,673.27192 C 179.09018,676.33939 176.63514,678.90421 173.53625,678.99536 C 173.34298,679.02427 173.1503,678.93962 173.04229,678.77836 C 172.93427,678.6171 172.9305,678.40847 173.03264,678.24349 C 173.13477,678.07852 173.32427,677.98712 173.51846,678.00917 C 176.07377,677.93401 178.07773,675.81892 178.00179,673.28953 C 177.98075,672.58861 177.83434,672.03432 177.52144,671.4052 C 177.43956,671.24587 177.45034,671.05531 177.54966,670.90601 C 177.64898,670.75672 177.82158,670.67165 178.00179,670.68316 z"
       id="path6072"
       style="fill:#bebebe;fill-opacity:1;stroke:none;stroke-width:1.7654804;stroke-linecap:round;stroke-linejoin:round;marker:none;stroke-miterlimit:4;stroke-dasharray:none;stroke-dashoffset:0;stroke-opacity:1;visibility:visible;display:inline;overflow:visible;enable-background:accumulate" />
    <path
       d="M 171.84375,678 C 171.56761,678.02589 171.36474,678.27073 171.39062,678.54688 C 171.41651,678.82302 171.66136,679.02589 171.9375,679 L 173.4375,679 C 173.61782,679.00255 173.78554,678.90781 173.87644,678.75206 C 173.96735,678.59631 173.96735,678.40369 173.87644,678.24794 C 173.78554,678.09219 173.61782,677.99745 173.4375,678 L 171.9375,678 C 171.90632,677.99706 171.87493,677.99706 171.84375,678 z"
       id="path6074"
       style="fill:#bebebe;fill-opacity:1;stroke:none;stroke-width:1;stroke-linecap:round;stroke-linejoin:round;marker:none;stroke-miterlimit:4;stroke-dasharray:none;stroke-dashoffset:0;stroke-opacity:1;visibility:visible;display:inline;overflow:visible;enable-background:accumulate" />
    <path
       d="M 177.55603,669.43582 C 177.57604,669.47363 177.59092,669.51356 177.6003,669.55463 C 177.91268,670.05444 178.1782,670.49267 178.42391,671.02324 C 178.53883,671.28046 178.41479,671.57023 178.14685,671.67046 C 177.87891,671.77068 177.56854,671.64341 177.45361,671.38619 C 177.22257,670.88731 177.03001,670.48735 176.7363,670.01741 C 176.55897,669.79755 176.59872,669.48912 176.82509,669.32852 C 177.05145,669.16792 177.3787,669.21596 177.55603,669.43582 z"
       id="path6076"
       style="fill:#bebebe;fill-opacity:1;stroke:none;stroke-width:0.68981391;stroke-linecap:round;stroke-linejoin:round;marker:none;stroke-miterlimit:4;stroke-dasharray:none;stroke-dashoffset:0;stroke-opacity:1;visibility:visible;display:inline;overflow:visible;enable-background:accumulate" />
  </g>
  <g
     transform="translate(-159.99995,-661.99993)"
     id="layer4" />
  <g
     transform="translate(-159.99995,-661.99993)"
     id="layer9" />
  <g
     transform="translate(-159.99995,-661.99993)"
     id="layer10" />
  <g
     transform="translate(-159.99995,-661.99993)"
     id="layer6" />
</svg>
