<?xml version="1.0" encoding="UTF-8" standalone="no"?>
<!-- Created with Inkscape (http://www.inkscape.org/) -->
<svg
   xmlns:svg="http://www.w3.org/2000/svg"
   xmlns="http://www.w3.org/2000/svg"
   version="1.0"
   width="24.025412"
   height="24"
   id="svg7384">
  <title
     id="title9167">Moblin Icon Theme</title>
  <defs
     id="defs7386" />
  <g
     transform="translate(26.02539,-561.99707)"
     id="layer3" />
  <g
     transform="translate(26.02539,-561.99707)"
     id="layer5" />
  <g
     transform="translate(26.02539,-561.99707)"
     id="layer7" />
  <g
     transform="translate(26.02539,-561.99707)"
     id="layer2" />
  <g
     transform="translate(26.02539,-561.99707)"
     id="layer8" />
  <g
     transform="translate(26.02539,-1514.3592)"
     id="layer1" />
  <g
     transform="translate(26.02539,-561.99707)"
     id="layer11">
    <rect
       width="24"
       height="24"
       x="1.9999783"
       y="561.99707"
       transform="scale(-1,1)"
       id="rect8918-5"
       style="opacity:0;fill:#ffffff;fill-opacity:1;stroke:none;display:inline" />
    <path
       d="M -13.124938,578.09054 C -10.597421,580.61806 -6.4648078,580.61504 -3.9335961,578.08383 C -1.4023844,575.55262 -1.3993659,571.42 -3.9268831,568.89249 C -6.4544004,566.36497 -10.587014,566.36799 -13.118225,568.8992 C -15.649437,571.43041 -15.652456,575.56302 -13.124938,578.09054 z M -11.711889,576.67749 C -13.474786,574.91459 -13.472713,572.07566 -11.707238,570.31019 C -9.9417635,568.54471 -7.1028306,568.54264 -5.339933,570.30554 C -3.5770355,572.06843 -3.5791089,574.90737 -5.3445835,576.67284 C -7.110058,578.43831 -9.948991,578.44039 -11.711889,576.67749 z"
       id="path3049-2-2"
       style="fill:#bebebe;fill-opacity:1;stroke:none;stroke-width:8.35672283;stroke-linecap:round;stroke-miterlimit:4;stroke-dasharray:none;stroke-dashoffset:0;stroke-opacity:1;display:inline" />
    <path
       d="M -24.124954,578.09053 C -21.597437,580.61804 -17.464824,580.61503 -14.933614,578.08381 C -12.402404,575.5526 -12.399387,571.41999 -14.926904,568.89247 C -17.454421,566.36495 -21.587033,566.36797 -24.118243,568.89918 C -26.649454,571.43039 -26.652471,575.56301 -24.124954,578.09053 z M -22.711905,576.67748 C -24.474802,574.91458 -24.47273,572.07564 -22.707256,570.31017 C -20.941783,568.54469 -18.10285,568.54262 -16.339953,570.30552 C -14.577055,572.06842 -14.579128,574.90735 -16.344601,576.67283 C -18.110075,578.4383 -20.949007,578.44037 -22.711905,576.67748 z"
       id="path12710"
       style="fill:#bebebe;fill-opacity:1;stroke:none;stroke-width:8.35672092;stroke-linecap:round;stroke-miterlimit:4;stroke-dasharray:none;stroke-dashoffset:0;stroke-opacity:1;display:inline" />
    <path
       d="M -2.8284264,179.43886 A 22.98097,22.98097 0 1 1 -48.790367,179.43886 A 22.98097,22.98097 0 1 1 -2.8284264,179.43886 z"
       transform="matrix(-0.1691071,-0.1691072,0.1693542,-0.1693543,-54.2795,599.51493)"
       id="path5465"
       style="fill:#bebebe;fill-opacity:1;stroke:none;display:inline" />
  </g>
  <g
     transform="translate(26.02539,-561.99707)"
     id="layer4" />
  <g
     transform="translate(26.02539,-561.99707)"
     id="layer9" />
  <g
     transform="translate(26.02539,-561.99707)"
     id="layer10" />
  <g
     transform="translate(26.02539,-561.99707)"
     id="layer6" />
</svg>
