<?xml version="1.0" encoding="UTF-8" standalone="no"?>
<!-- Created with Inkscape (http://www.inkscape.org/) -->
<svg
   xmlns:svg="http://www.w3.org/2000/svg"
   xmlns="http://www.w3.org/2000/svg"
   version="1.0"
   width="24"
   height="24"
   id="svg7384">
  <title
     id="title9167">Moblin Icon Theme</title>
  <defs
     id="defs7386" />
  <g
     transform="translate(618,-1133.9814)"
     id="layer3" />
  <g
     transform="translate(618,-1133.9814)"
     id="layer5" />
  <g
     transform="translate(618,-1133.9814)"
     id="layer7" />
  <g
     transform="translate(618,-1133.9814)"
     id="layer2" />
  <g
     transform="translate(618,-1133.9814)"
     id="layer8" />
  <g
     transform="translate(618,-2086.3436)"
     id="layer1" />
  <g
     transform="translate(618,-1133.9814)"
     id="layer11">
    <rect
       width="24"
       height="24"
       x="-618"
       y="1133.9814"
       id="rect9748"
       style="opacity:0;fill:#ffffff;fill-opacity:1;stroke:none;display:inline" />
    <path
       d="M -607.84375,1138.125 C -610.06808,1138.125 -611.87503,1139.9319 -611.875,1142.1562 C -611.8801,1142.5168 -611.69062,1142.8523 -611.37913,1143.0341 C -611.06763,1143.2159 -610.68237,1143.2159 -610.37087,1143.0341 C -610.05938,1142.8523 -609.8699,1142.5168 -609.875,1142.1562 C -609.87501,1141.0141 -608.98595,1140.125 -607.84375,1140.125 C -607.23812,1140.125 -606.80318,1140.2906 -606.375,1140.7188 C -606.13469,1141.0169 -605.74527,1141.1516 -605.37212,1141.0658 C -604.99897,1140.9799 -604.7076,1140.6885 -604.62175,1140.3154 C -604.5359,1139.9422 -604.67064,1139.5528 -604.96875,1139.3125 C -605.73082,1138.5504 -606.76611,1138.1251 -607.84375,1138.125 z"
       id="path9756"
       style="fill:#bebebe;fill-opacity:1;stroke:none;stroke-width:2;stroke-linecap:round;stroke-linejoin:miter;marker:none;stroke-miterlimit:4;stroke-dasharray:none;stroke-dashoffset:0;stroke-opacity:1;visibility:visible;display:inline;overflow:visible;enable-background:accumulate" />
    <path
       d="M -611.96875,1142.0312 L -611.96875,1153.9688 L -609.96875,1153.9688 L -609.96875,1142.0312 L -611.96875,1142.0312 z"
       id="path9779"
       style="fill:#bebebe;fill-opacity:1;stroke:none;stroke-width:2;stroke-linecap:butt;stroke-linejoin:miter;marker:none;stroke-miterlimit:4;stroke-dasharray:none;stroke-dashoffset:0;stroke-opacity:1;visibility:visible;display:inline;overflow:visible;enable-background:accumulate" />
    <path
       d="M -610.09375,1148 C -610.64603,1148.0259 -611.07276,1148.4946 -611.04687,1149.0469 C -611.02099,1149.5992 -610.55228,1150.0259 -610,1150 L -601.78125,1150 C -601.42061,1150.0051 -601.08517,1149.8156 -600.90336,1149.5041 C -600.72156,1149.1926 -600.72156,1148.8074 -600.90336,1148.4959 C -601.08517,1148.1844 -601.42061,1147.9949 -601.78125,1148 L -610,1148 C -610.03123,1147.9985 -610.06252,1147.9985 -610.09375,1148 z"
       id="path9783"
       style="fill:#bebebe;fill-opacity:1;stroke:none;stroke-width:2;stroke-linecap:round;stroke-linejoin:miter;marker:none;stroke-miterlimit:4;stroke-dasharray:none;stroke-dashoffset:0;stroke-opacity:1;visibility:visible;display:inline;overflow:visible;enable-background:accumulate" />
    <path
       d="M -601.95895,1142.9543 C -604.18328,1142.9543 -605.99023,1144.7612 -605.9902,1146.9855 C -605.9953,1147.3461 -605.80582,1147.6816 -605.49433,1147.8634 C -605.18283,1148.0452 -604.79757,1148.0452 -604.48607,1147.8634 C -604.17458,1147.6816 -603.9851,1147.3461 -603.9902,1146.9855 C -603.99021,1145.8434 -603.10115,1144.9543 -601.95895,1144.9543 C -601.54985,1144.9543 -601.28187,1145.0311 -600.9277,1145.2355 C -600.44445,1145.5116 -599.82884,1145.3437 -599.5527,1144.8605 C -599.27656,1144.3773 -599.44445,1143.7616 -599.9277,1143.4855 C -600.54536,1143.1289 -601.24587,1142.9544 -601.95895,1142.9543 z"
       id="path9785"
       style="fill:#bebebe;fill-opacity:1;stroke:none;stroke-width:2;stroke-linecap:round;stroke-linejoin:miter;marker:none;stroke-miterlimit:4;stroke-dasharray:none;stroke-dashoffset:0;stroke-opacity:1;visibility:visible;display:inline;overflow:visible;enable-background:accumulate" />
    <path
       d="M -606,1146.875 L -606,1154.2188 L -604,1154.2188 L -604,1146.875 L -606,1146.875 z"
       id="path9787"
       style="fill:#bebebe;fill-opacity:1;stroke:none;stroke-width:2;stroke-linecap:butt;stroke-linejoin:miter;marker:none;stroke-miterlimit:4;stroke-dasharray:none;stroke-dashoffset:0;stroke-opacity:1;visibility:visible;display:inline;overflow:visible;enable-background:accumulate" />
  </g>
  <g
     transform="translate(618,-1133.9814)"
     id="layer4" />
  <g
     transform="translate(618,-1133.9814)"
     id="layer12" />
  <g
     transform="translate(618,-1133.9814)"
     id="layer9" />
  <g
     transform="translate(618,-1133.9814)"
     id="layer10" />
  <g
     transform="translate(618,-1133.9814)"
     id="layer6" />
</svg>
