<?xml version="1.0" encoding="UTF-8" standalone="no"?>
<!-- Created with Inkscape (http://www.inkscape.org/) -->
<svg
   xmlns:svg="http://www.w3.org/2000/svg"
   xmlns="http://www.w3.org/2000/svg"
   version="1.0"
   width="24"
   height="24"
   id="svg7384">
  <title
     id="title9167">Moblin Icon Theme</title>
  <defs
     id="defs7386" />
  <g
     transform="translate(618,-1183.9814)"
     id="layer3" />
  <g
     transform="translate(618,-1183.9814)"
     id="layer5" />
  <g
     transform="translate(618,-1183.9814)"
     id="layer7" />
  <g
     transform="translate(618,-1183.9814)"
     id="layer2" />
  <g
     transform="translate(618,-1183.9814)"
     id="layer8" />
  <g
     transform="translate(618,-2136.3436)"
     id="layer1" />
  <g
     transform="translate(618,-1183.9814)"
     id="layer11">
    <rect
       width="24"
       height="24"
       x="-618"
       y="1183.9814"
       id="rect9748"
       style="opacity:0;fill:#ffffff;fill-opacity:1;stroke:none;display:inline" />
    <path
       d="M -609.84375,1188.125 C -612.06808,1188.125 -613.87503,1189.9319 -613.875,1192.1562 C -613.8801,1192.5168 -613.69062,1192.8523 -613.37913,1193.0341 C -613.06763,1193.2159 -612.68237,1193.2159 -612.37087,1193.0341 C -612.05938,1192.8523 -611.8699,1192.5168 -611.875,1192.1562 C -611.87501,1191.0141 -610.98595,1190.125 -609.84375,1190.125 C -609.23812,1190.125 -608.80318,1190.2906 -608.375,1190.7188 C -608.13469,1191.0169 -607.74527,1191.1516 -607.37212,1191.0658 C -606.99897,1190.9799 -606.7076,1190.6885 -606.62175,1190.3154 C -606.5359,1189.9422 -606.67064,1189.5528 -606.96875,1189.3125 C -607.73082,1188.5504 -608.76611,1188.1251 -609.84375,1188.125 z"
       id="path9756"
       style="fill:#bebebe;fill-opacity:1;stroke:none;stroke-width:2;stroke-linecap:round;stroke-linejoin:miter;marker:none;stroke-miterlimit:4;stroke-dasharray:none;stroke-dashoffset:0;stroke-opacity:1;visibility:visible;display:inline;overflow:visible;enable-background:accumulate" />
    <path
       d="M -613.96875,1192.0312 L -613.96875,1203.9688 L -611.96875,1203.9688 L -611.96875,1192.0312 L -613.96875,1192.0312 z"
       id="path9779"
       style="fill:#bebebe;fill-opacity:1;stroke:none;stroke-width:2;stroke-linecap:butt;stroke-linejoin:miter;marker:none;stroke-miterlimit:4;stroke-dasharray:none;stroke-dashoffset:0;stroke-opacity:1;visibility:visible;display:inline;overflow:visible;enable-background:accumulate" />
    <path
       d="M -612.09375,1198 C -612.64603,1198.0259 -613.07276,1198.4946 -613.04687,1199.0469 C -613.02099,1199.5992 -612.55228,1200.0259 -612,1200 L -603.78125,1200 C -603.42061,1200.0051 -603.08517,1199.8156 -602.90336,1199.5041 C -602.72156,1199.1926 -602.72156,1198.8074 -602.90336,1198.4959 C -603.08517,1198.1844 -603.42061,1197.9949 -603.78125,1198 L -612,1198 C -612.03123,1197.9985 -612.06252,1197.9985 -612.09375,1198 z"
       id="path9783"
       style="fill:#bebebe;fill-opacity:1;stroke:none;stroke-width:2;stroke-linecap:round;stroke-linejoin:miter;marker:none;stroke-miterlimit:4;stroke-dasharray:none;stroke-dashoffset:0;stroke-opacity:1;visibility:visible;display:inline;overflow:visible;enable-background:accumulate" />
    <path
       d="M -603.95895,1192.9543 C -606.18328,1192.9543 -607.99023,1194.7612 -607.9902,1196.9855 C -607.9953,1197.3461 -607.80582,1197.6816 -607.49433,1197.8634 C -607.18283,1198.0452 -606.79757,1198.0452 -606.48607,1197.8634 C -606.17458,1197.6816 -605.9851,1197.3461 -605.9902,1196.9855 C -605.99021,1195.8434 -605.10115,1194.9543 -603.95895,1194.9543 C -603.54985,1194.9543 -603.28187,1195.0311 -602.9277,1195.2355 C -602.44445,1195.5116 -601.82884,1195.3437 -601.5527,1194.8605 C -601.27656,1194.3773 -601.44445,1193.7616 -601.9277,1193.4855 C -602.54536,1193.1289 -603.24587,1192.9544 -603.95895,1192.9543 z"
       id="path9785"
       style="fill:#bebebe;fill-opacity:1;stroke:none;stroke-width:2;stroke-linecap:round;stroke-linejoin:miter;marker:none;stroke-miterlimit:4;stroke-dasharray:none;stroke-dashoffset:0;stroke-opacity:1;visibility:visible;display:inline;overflow:visible;enable-background:accumulate" />
    <path
       d="M -608,1196.875 L -608,1204.2188 L -606,1204.2188 L -606,1196.875 L -608,1196.875 z"
       id="path9787"
       style="fill:#bebebe;fill-opacity:1;stroke:none;stroke-width:2;stroke-linecap:butt;stroke-linejoin:miter;marker:none;stroke-miterlimit:4;stroke-dasharray:none;stroke-dashoffset:0;stroke-opacity:1;visibility:visible;display:inline;overflow:visible;enable-background:accumulate" />
  </g>
  <g
     transform="translate(618,-1183.9814)"
     id="layer4" />
  <g
     transform="translate(618,-1183.9814)"
     id="layer9" />
  <g
     transform="translate(618,-1183.9814)"
     id="layer10" />
  <g
     transform="translate(618,-1183.9814)"
     id="layer6" />
</svg>
