<?xml version="1.0" encoding="UTF-8" standalone="no"?>
<!-- Created with Inkscape (http://www.inkscape.org/) -->
<svg
   xmlns:svg="http://www.w3.org/2000/svg"
   xmlns="http://www.w3.org/2000/svg"
   version="1.0"
   width="24"
   height="24"
   id="svg7384">
  <title
     id="title9167">Moblin Icon Theme</title>
  <defs
     id="defs7386" />
  <g
     transform="translate(618,-1133.9814)"
     id="layer3" />
  <g
     transform="translate(618,-1133.9814)"
     id="layer5" />
  <g
     transform="translate(618,-1133.9814)"
     id="layer7" />
  <g
     transform="translate(618,-1133.9814)"
     id="layer2" />
  <g
     transform="translate(618,-1133.9814)"
     id="layer8" />
  <g
     transform="translate(618,-2086.3436)"
     id="layer1" />
  <g
     transform="translate(618,-1133.9814)"
     id="layer11">
    <rect
       width="24"
       height="24"
       x="-618"
       y="1133.9814"
       id="rect9748"
       style="opacity:0;fill:#ffffff;fill-opacity:1;stroke:none;display:inline" />
    <path
       d="M -609.84375,1138.125 C -612.06808,1138.125 -613.87503,1139.9319 -613.875,1142.1562 C -613.8801,1142.5168 -613.69062,1142.8523 -613.37913,1143.0341 C -613.06763,1143.2159 -612.68237,1143.2159 -612.37087,1143.0341 C -612.05938,1142.8523 -611.8699,1142.5168 -611.875,1142.1562 C -611.87501,1141.0141 -610.98595,1140.125 -609.84375,1140.125 C -609.23812,1140.125 -608.80318,1140.2906 -608.375,1140.7188 C -608.13469,1141.0169 -607.74527,1141.1516 -607.37212,1141.0658 C -606.99897,1140.9799 -606.7076,1140.6885 -606.62175,1140.3154 C -606.5359,1139.9422 -606.67064,1139.5528 -606.96875,1139.3125 C -607.73082,1138.5504 -608.76611,1138.1251 -609.84375,1138.125 z"
       id="path9756"
       style="fill:#bebebe;fill-opacity:1;stroke:none;stroke-width:2;stroke-linecap:round;stroke-linejoin:miter;marker:none;stroke-miterlimit:4;stroke-dasharray:none;stroke-dashoffset:0;stroke-opacity:1;visibility:visible;display:inline;overflow:visible;enable-background:accumulate" />
    <path
       d="M -613.96875,1142.0312 L -613.96875,1153.9688 L -611.96875,1153.9688 L -611.96875,1142.0312 L -613.96875,1142.0312 z"
       id="path9779"
       style="fill:#bebebe;fill-opacity:1;stroke:none;stroke-width:2;stroke-linecap:butt;stroke-linejoin:miter;marker:none;stroke-miterlimit:4;stroke-dasharray:none;stroke-dashoffset:0;stroke-opacity:1;visibility:visible;display:inline;overflow:visible;enable-background:accumulate" />
    <path
       d="M -612.09375,1148 C -612.64603,1148.0259 -613.07276,1148.4946 -613.04687,1149.0469 C -613.02099,1149.5992 -612.55228,1150.0259 -612,1150 L -603.78125,1150 C -603.42061,1150.0051 -603.08517,1149.8156 -602.90336,1149.5041 C -602.72156,1149.1926 -602.72156,1148.8074 -602.90336,1148.4959 C -603.08517,1148.1844 -603.42061,1147.9949 -603.78125,1148 L -612,1148 C -612.03123,1147.9985 -612.06252,1147.9985 -612.09375,1148 z"
       id="path9783"
       style="fill:#bebebe;fill-opacity:1;stroke:none;stroke-width:2;stroke-linecap:round;stroke-linejoin:miter;marker:none;stroke-miterlimit:4;stroke-dasharray:none;stroke-dashoffset:0;stroke-opacity:1;visibility:visible;display:inline;overflow:visible;enable-background:accumulate" />
    <path
       d="M -603.95895,1142.9543 C -606.18328,1142.9543 -607.99023,1144.7612 -607.9902,1146.9855 C -607.9953,1147.3461 -607.80582,1147.6816 -607.49433,1147.8634 C -607.18283,1148.0452 -606.79757,1148.0452 -606.48607,1147.8634 C -606.17458,1147.6816 -605.9851,1147.3461 -605.9902,1146.9855 C -605.99021,1145.8434 -605.10115,1144.9543 -603.95895,1144.9543 C -603.54985,1144.9543 -603.28187,1145.0311 -602.9277,1145.2355 C -602.44445,1145.5116 -601.82884,1145.3437 -601.5527,1144.8605 C -601.27656,1144.3773 -601.44445,1143.7616 -601.9277,1143.4855 C -602.54536,1143.1289 -603.24587,1142.9544 -603.95895,1142.9543 z"
       id="path9785"
       style="fill:#bebebe;fill-opacity:1;stroke:none;stroke-width:2;stroke-linecap:round;stroke-linejoin:miter;marker:none;stroke-miterlimit:4;stroke-dasharray:none;stroke-dashoffset:0;stroke-opacity:1;visibility:visible;display:inline;overflow:visible;enable-background:accumulate" />
    <path
       d="M -608,1146.875 L -608,1154.2188 L -606,1154.2188 L -606,1146.875 L -608,1146.875 z"
       id="path9787"
       style="fill:#bebebe;fill-opacity:1;stroke:none;stroke-width:2;stroke-linecap:butt;stroke-linejoin:miter;marker:none;stroke-miterlimit:4;stroke-dasharray:none;stroke-dashoffset:0;stroke-opacity:1;visibility:visible;display:inline;overflow:visible;enable-background:accumulate" />
  </g>
  <g
     transform="translate(618,-1133.9814)"
     id="layer4" />
  <g
     transform="translate(618,-1133.9814)"
     id="layer12" />
  <g
     transform="translate(618,-1133.9814)"
     id="layer9" />
  <g
     transform="translate(618,-1133.9814)"
     id="layer10" />
  <g
     transform="translate(618,-1133.9814)"
     id="layer6" />
</svg>
