<?xml version="1.0" encoding="UTF-8" standalone="no"?>
<!-- Created with Inkscape (http://www.inkscape.org/) -->
<svg
   xmlns:svg="http://www.w3.org/2000/svg"
   xmlns="http://www.w3.org/2000/svg"
   version="1.0"
   width="24.000141"
   height="24"
   id="svg7384">
  <title
     id="title9167">Moblin Icon Theme</title>
  <defs
     id="defs7386" />
  <g
     transform="translate(538.0001,-1284)"
     id="layer3" />
  <g
     transform="translate(538.0001,-1284)"
     id="layer5" />
  <g
     transform="translate(538.0001,-1284)"
     id="layer7" />
  <g
     transform="translate(538.0001,-1284)"
     id="layer2" />
  <g
     transform="translate(538.0001,-1284)"
     id="layer8" />
  <g
     transform="translate(538.0001,-2236.3622)"
     id="layer1" />
  <g
     transform="translate(538.0001,-1284)"
     id="layer11">
    <rect
       width="24"
       height="24"
       x="-538.00012"
       y="1284"
       id="rect8035"
       style="opacity:0;fill:#ffffff;fill-opacity:1;stroke:none;display:inline" />
    <path
       d="M -518.99993,1293.9846 C -521.74898,1293.9846 -523.98452,1291.7491 -523.98452,1288.9999 C -523.98452,1286.2509 -521.74898,1284.0154 -518.99993,1284.0154 C -516.25089,1284.0154 -514.01535,1286.2509 -514.01535,1288.9999 C -514.01535,1291.7491 -516.25089,1293.9846 -518.99993,1293.9846 z M -518.99993,1292.0154 C -517.33301,1292.0154 -515.98457,1290.6669 -515.98457,1288.9999 C -515.98457,1287.3332 -517.33301,1285.9846 -518.99993,1285.9846 C -520.66686,1285.9846 -522.0153,1287.3332 -522.0153,1288.9999 C -522.0153,1290.6669 -520.66686,1292.0154 -518.99993,1292.0154 z"
       id="path8037"
       style="fill:#bebebe;fill-opacity:1;stroke:none;stroke-width:1.01563144;stroke-linecap:round;stroke-linejoin:miter;marker:none;stroke-miterlimit:4.30000019;stroke-dasharray:none;stroke-dashoffset:0;stroke-opacity:1;visibility:visible;display:inline;overflow:visible;enable-background:accumulate" />
    <path
       d="M -533.73469,1301.3501 L -529.49205,1305.5927 L -525.95651,1297.8145 L -533.73469,1301.3501 z"
       id="path8041"
       style="fill:#bebebe;fill-opacity:1;fill-rule:nonzero;stroke:none;stroke-width:2;marker:none;visibility:visible;display:inline;overflow:visible;enable-background:accumulate" />
    <path
       d="M -587,1276.9688 A 2.03125,2.03125 0 1 1 -591.0625,1276.9688 A 2.03125,2.03125 0 1 1 -587,1276.9688 z"
       transform="matrix(2.4615214,0,0,-2.4615214,920.913,4432.286)"
       id="path8043"
       style="fill:#bebebe;fill-opacity:1;stroke:none;stroke-width:1.01563144;marker:none;visibility:visible;display:inline;overflow:visible;enable-background:accumulate" />
  </g>
  <g
     transform="translate(538.0001,-1284)"
     id="layer4" />
  <g
     transform="translate(538.0001,-1284)"
     id="layer12" />
  <g
     transform="translate(538.0001,-1284)"
     id="layer9" />
  <g
     transform="translate(538.0001,-1284)"
     id="layer10" />
  <g
     transform="translate(538.0001,-1284)"
     id="layer6" />
</svg>
