<?xml version="1.0" encoding="UTF-8" standalone="no"?>
<!-- Created with Inkscape (http://www.inkscape.org/) -->
<svg
   xmlns:svg="http://www.w3.org/2000/svg"
   xmlns="http://www.w3.org/2000/svg"
   version="1.0"
   width="24"
   height="24"
   id="svg7384">
  <title
     id="title9167">Moblin Icon Theme</title>
  <defs
     id="defs7386" />
  <g
     transform="translate(538.0001,-1284)"
     id="layer3" />
  <g
     transform="translate(538.0001,-1284)"
     id="layer5" />
  <g
     transform="translate(538.0001,-1284)"
     id="layer7" />
  <g
     transform="translate(538.0001,-1284)"
     id="layer2" />
  <g
     transform="translate(538.0001,-1284)"
     id="layer8" />
  <g
     transform="translate(538.0001,-2236.3622)"
     id="layer1" />
  <g
     transform="translate(538.0001,-1284)"
     id="layer11">
    <rect
       width="24"
       height="24"
       x="-538.00012"
       y="1284"
       id="rect8035"
       style="opacity:0;fill:#ffffff;fill-opacity:1;stroke:none;display:inline" />
    <path
       d="M -520.99993,1295.9846 C -523.74898,1295.9846 -525.98452,1293.7491 -525.98452,1290.9999 C -525.98452,1288.2509 -523.74898,1286.0154 -520.99993,1286.0154 C -518.25089,1286.0154 -516.01535,1288.2509 -516.01535,1290.9999 C -516.01535,1293.7491 -518.25089,1295.9846 -520.99993,1295.9846 z M -520.99993,1294.0154 C -519.33301,1294.0154 -517.98457,1292.6669 -517.98457,1290.9999 C -517.98457,1289.3332 -519.33301,1287.9846 -520.99993,1287.9846 C -522.66686,1287.9846 -524.0153,1289.3332 -524.0153,1290.9999 C -524.0153,1292.6669 -522.66686,1294.0154 -520.99993,1294.0154 z"
       id="path8037"
       style="fill:#bebebe;fill-opacity:1;stroke:none;stroke-width:1.01563144;stroke-linecap:round;stroke-linejoin:miter;marker:none;stroke-miterlimit:4.30000019;stroke-dasharray:none;stroke-dashoffset:0;stroke-opacity:1;visibility:visible;display:inline;overflow:visible;enable-background:accumulate" />
    <path
       d="M -523.96875,1297.9688 L -531.53125,1301.4375 C -532.40712,1301.9614 -533,1302.9052 -533,1304 C -533,1305.6569 -531.65685,1307 -530,1307 C -528.91518,1307 -527.9644,1306.4251 -527.4375,1305.5625 L -523.96875,1297.9688 z"
       id="path8041"
       style="fill:#bebebe;fill-opacity:1;fill-rule:nonzero;stroke:none;stroke-width:2;marker:none;visibility:visible;display:inline;overflow:visible;enable-background:accumulate" />
    <path
       d="M -587,1276.9688 A 2.03125,2.03125 0 1 1 -591.0625,1276.9688 A 2.03125,2.03125 0 1 1 -587,1276.9688 z"
       transform="matrix(2.4615214,0,0,-2.4615214,918.913,4434.286)"
       id="path8043"
       style="fill:#bebebe;fill-opacity:1;stroke:none;stroke-width:1.01563144;marker:none;visibility:visible;display:inline;overflow:visible;enable-background:accumulate" />
  </g>
  <g
     transform="translate(538.0001,-1284)"
     id="layer4" />
  <g
     transform="translate(538.0001,-1284)"
     id="layer12" />
  <g
     transform="translate(538.0001,-1284)"
     id="layer9" />
  <g
     transform="translate(538.0001,-1284)"
     id="layer10" />
  <g
     transform="translate(538.0001,-1284)"
     id="layer6" />
</svg>
