<?xml version="1.0" encoding="UTF-8" standalone="no"?>
<!-- Created with Inkscape (http://www.inkscape.org/) -->
<svg
   xmlns:svg="http://www.w3.org/2000/svg"
   xmlns="http://www.w3.org/2000/svg"
   version="1.0"
   width="24"
   height="24.000002"
   id="svg7384">
  <title
     id="title9167">Moblin Icon Theme</title>
  <defs
     id="defs7386" />
  <g
     transform="translate(453.99995,-1044)"
     id="layer3" />
  <g
     transform="translate(453.99995,-1044)"
     id="layer5" />
  <g
     transform="translate(453.99995,-1044)"
     id="layer7" />
  <g
     transform="translate(453.99995,-1044)"
     id="layer2" />
  <g
     transform="translate(453.99995,-1044)"
     id="layer8" />
  <g
     transform="translate(453.99995,-1996.3622)"
     id="layer1" />
  <g
     transform="translate(453.99995,-1044)"
     id="layer11">
    <rect
       width="24"
       height="24"
       x="-453.99994"
       y="1044"
       id="rect7452"
       style="opacity:0;fill:#ffffff;fill-opacity:1;stroke:none;display:inline" />
    <path
       d="M -450.9375,1044 C -452.61683,1044 -454,1045.3832 -454,1047.0625 L -454,1064.9375 C -454,1066.6168 -452.61683,1068 -450.9375,1068 L -433.0625,1068 C -431.38317,1068 -430,1066.6168 -430,1064.9375 L -430,1047.0625 C -430,1045.3832 -431.38317,1044 -433.0625,1044 L -450.9375,1044 z M -450.9375,1046 L -433.0625,1046 C -432.45658,1046 -432,1046.4566 -432,1047.0625 L -432,1064.9375 C -432,1065.5434 -432.45658,1066 -433.0625,1066 L -450.9375,1066 C -451.54342,1066 -452,1065.5434 -452,1064.9375 L -452,1047.0625 C -452,1046.4566 -451.54342,1046 -450.9375,1046 z"
       id="rect7454"
       style="fill:#bebebe;fill-opacity:1;stroke:none;stroke-width:2;stroke-linecap:round;stroke-linejoin:round;marker:none;stroke-miterlimit:4;stroke-dasharray:none;stroke-dashoffset:0;stroke-opacity:1;visibility:visible;display:inline;overflow:visible;enable-background:accumulate" />
    <path
       d="M -447.00258,1047.0123 C -449.19964,1047.0123 -451.01954,1048.7871 -451.01953,1050.9841 C -451.01953,1053.1811 -449.19961,1055.0011 -447.00258,1055.0011 C -444.80552,1055.0011 -442.98562,1053.1811 -442.98563,1050.9841 C -442.98563,1048.7872 -444.80555,1047.0125 -447.00258,1047.0123 z M -447.00258,1048.9982 C -445.88763,1048.9983 -445.01667,1049.8693 -445.01667,1050.9841 C -445.01666,1052.0991 -445.88766,1053.0152 -447.00258,1053.0152 C -448.11753,1053.0152 -448.98849,1052.0991 -448.98849,1050.9841 C -448.9885,1049.8693 -448.1175,1048.9982 -447.00258,1048.9982 z"
       id="path7458"
       style="fill:#bebebe;fill-opacity:1;stroke:none;stroke-width:1.38476419;stroke-linecap:round;stroke-linejoin:round;marker:none;stroke-miterlimit:4.30000019;stroke-dasharray:none;stroke-dashoffset:0;stroke-opacity:1;visibility:visible;display:inline;overflow:visible;enable-background:accumulate" />
    <path
       d="M -437.00171,1048.0106 C -438.64678,1048.0106 -440.01068,1049.3443 -440.01067,1050.9894 C -440.01067,1052.6345 -438.64675,1053.9983 -437.00171,1053.9983 C -435.35665,1053.9983 -433.99275,1052.6345 -433.99276,1050.9894 C -433.99276,1049.3443 -435.35667,1048.0106 -437.00171,1048.0106 z M -437.00171,1049.9965 C -436.43875,1049.9965 -436.00876,1050.4265 -436.00876,1050.9894 C -436.00876,1051.5523 -436.43878,1052.0125 -437.00171,1052.0125 C -437.56467,1052.0124 -437.99467,1051.5523 -437.99467,1050.9894 C -437.99467,1050.4265 -437.56464,1049.9965 -437.00171,1049.9965 z"
       id="path7460"
       style="fill:#bebebe;fill-opacity:1;stroke:none;stroke-width:2.07714152;stroke-linecap:round;stroke-linejoin:round;marker:none;stroke-miterlimit:4.30000019;stroke-dasharray:none;stroke-dashoffset:0;stroke-opacity:1;visibility:visible;display:inline;overflow:visible;enable-background:accumulate" />
    <path
       d="M -445.03528,1049.0093 L -443.00235,1049.0093 L -444.06301,1051.0201 L -445.03528,1049.0093 L -445.03528,1049.0093 z"
       id="path7462"
       style="fill:#bebebe;fill-opacity:1;stroke:none;stroke-width:1;marker:none;visibility:visible;display:inline;overflow:visible;enable-background:accumulate" />
    <path
       d="M -438.01436,1048.2263 L -436.99038,1046.7127 L -435.9062,1048.3788 L -438.01436,1048.2263 L -438.01436,1048.2263 z"
       id="path7464"
       style="fill:#bebebe;fill-opacity:1;stroke:none;stroke-width:1;marker:none;visibility:visible;display:inline;overflow:visible;enable-background:accumulate" />
    <rect
       width="1"
       height="1.9999974"
       x="-448.96869"
       y="1055"
       id="rect7467"
       style="fill:#bebebe;fill-opacity:1;fill-rule:nonzero;stroke:none;stroke-width:1;marker:none;visibility:visible;display:inline;overflow:visible;enable-background:accumulate" />
    <rect
       width="1"
       height="1.0000026"
       x="-446.99994"
       y="1055"
       id="rect7469"
       style="fill:#bebebe;fill-opacity:1;fill-rule:nonzero;stroke:none;stroke-width:1;marker:none;visibility:visible;display:inline;overflow:visible;enable-background:accumulate" />
    <rect
       width="1"
       height="1.0000026"
       x="-444.99994"
       y="1055"
       id="rect7471"
       style="fill:#bebebe;fill-opacity:1;fill-rule:nonzero;stroke:none;stroke-width:1;marker:none;visibility:visible;display:inline;overflow:visible;enable-background:accumulate" />
    <rect
       width="1"
       height="1.0000026"
       x="-442.99994"
       y="1055"
       id="rect7473"
       style="fill:#bebebe;fill-opacity:1;fill-rule:nonzero;stroke:none;stroke-width:1;marker:none;visibility:visible;display:inline;overflow:visible;enable-background:accumulate" />
    <rect
       width="1"
       height="1.0000026"
       x="-440.99994"
       y="1055"
       id="rect7475"
       style="fill:#bebebe;fill-opacity:1;fill-rule:nonzero;stroke:none;stroke-width:1;marker:none;visibility:visible;display:inline;overflow:visible;enable-background:accumulate" />
    <rect
       width="1"
       height="1.0000026"
       x="-438.99994"
       y="1055"
       id="rect7477"
       style="fill:#bebebe;fill-opacity:1;fill-rule:nonzero;stroke:none;stroke-width:1;marker:none;visibility:visible;display:inline;overflow:visible;enable-background:accumulate" />
    <rect
       width="1"
       height="1.0000026"
       x="-436.99994"
       y="1055"
       id="rect7479"
       style="fill:#bebebe;fill-opacity:1;fill-rule:nonzero;stroke:none;stroke-width:1;marker:none;visibility:visible;display:inline;overflow:visible;enable-background:accumulate" />
    <path
       d="M -448.75,1060 C -449.45113,1060 -450.03127,1060.5801 -450.03125,1061.2812 L -450.03125,1062.7188 C -450.03125,1063.4199 -449.45114,1064 -448.75,1064 L -435.28125,1064 C -434.58012,1064 -434.00002,1063.4199 -434,1062.7188 L -434,1061.2812 C -434,1060.5801 -434.58012,1060 -435.28125,1060 L -440.5,1060 C -440.68032,1059.9974 -440.84804,1060.0922 -440.93894,1060.2479 C -441.02985,1060.4037 -441.02985,1060.5963 -440.93894,1060.7521 C -440.84804,1060.9078 -440.68032,1061.0026 -440.5,1061 L -435.28125,1061 C -435.11678,1061 -435,1061.1168 -435,1061.2812 L -435,1062.7188 C -435,1062.8833 -435.11676,1063 -435.28125,1063 L -448.75,1063 C -448.9145,1063 -449.03125,1062.8832 -449.03125,1062.7188 L -449.03125,1061.2812 C -449.03125,1061.1167 -448.91449,1061 -448.75,1061 L -448.4375,1061 C -448.25718,1061.0026 -448.08946,1060.9078 -447.99856,1060.7521 C -447.90765,1060.5963 -447.90765,1060.4037 -447.99856,1060.2479 C -448.08946,1060.0922 -448.25718,1059.9974 -448.4375,1060 L -448.75,1060 z"
       id="rect7484"
       style="fill:#bebebe;fill-opacity:1;stroke:none;stroke-width:1;stroke-linecap:round;marker:none;stroke-opacity:1;visibility:visible;display:inline;overflow:visible;enable-background:accumulate" />
    <path
       d="M -444.65625,1056 C -444.88851,1056.041 -445.09881,1056.1628 -445.25,1056.3438 L -446.75,1058.0312 C -446.90993,1058.2126 -446.99874,1058.4457 -447,1058.6875 L -447,1063 C -446.99994,1063.5523 -446.55226,1063.9999 -446,1064 L -443,1064 C -442.44774,1063.9999 -442.00006,1063.5523 -442,1063 L -442,1058.7188 C -442.00126,1058.477 -442.09007,1058.2439 -442.25,1058.0625 L -443.75,1056.3438 C -443.97266,1056.0807 -444.31511,1055.9508 -444.65625,1056 L -444.65625,1056 z M -444.5,1058.5 L -444,1059.0938 L -444,1062 L -445,1062 L -445,1059.0625 L -444.5,1058.5 z"
       id="path7486"
       style="fill:#bebebe;fill-opacity:1;stroke:none;stroke-width:2;stroke-linecap:round;stroke-linejoin:round;marker:none;stroke-miterlimit:4.30000019;stroke-dasharray:none;stroke-dashoffset:0;stroke-opacity:1;visibility:visible;display:inline;overflow:visible;enable-background:accumulate" />
    <rect
       width="1"
       height="1.9999974"
       x="-434.99994"
       y="1055"
       id="rect7489"
       style="fill:#bebebe;fill-opacity:1;fill-rule:nonzero;stroke:none;stroke-width:1;marker:none;visibility:visible;display:inline;overflow:visible;enable-background:accumulate" />
  </g>
  <g
     transform="translate(453.99995,-1044)"
     id="layer4" />
  <g
     transform="translate(453.99995,-1044)"
     id="layer12" />
  <g
     transform="translate(453.99995,-1044)"
     id="layer9" />
  <g
     transform="translate(453.99995,-1044)"
     id="layer10" />
  <g
     transform="translate(453.99995,-1044)"
     id="layer6" />
</svg>
