<?xml version="1.0" encoding="UTF-8" standalone="no"?>
<!-- Created with Inkscape (http://www.inkscape.org/) -->
<svg
   xmlns:svg="http://www.w3.org/2000/svg"
   xmlns="http://www.w3.org/2000/svg"
   version="1.0"
   width="24"
   height="24.000002"
   id="svg7384">
  <title
     id="title9167">Moblin Icon Theme</title>
  <defs
     id="defs7386" />
  <g
     transform="translate(454,-1094)"
     id="layer3" />
  <g
     transform="translate(454,-1094)"
     id="layer5" />
  <g
     transform="translate(454,-1094)"
     id="layer7" />
  <g
     transform="translate(454,-1094)"
     id="layer2" />
  <g
     transform="translate(454,-1094)"
     id="layer8" />
  <g
     transform="translate(454,-2046.3622)"
     id="layer1" />
  <g
     transform="translate(454,-1094)"
     id="layer11">
    <rect
       width="24"
       height="24"
       x="-454"
       y="1094"
       id="rect7452"
       style="opacity:0;fill:#ffffff;fill-opacity:1;stroke:none;display:inline" />
    <path
       d="M -450.9375,1094 C -452.61683,1094 -454,1095.3832 -454,1097.0625 L -454,1114.9375 C -454,1116.6168 -452.61683,1118 -450.9375,1118 L -433.0625,1118 C -431.38317,1118 -430,1116.6168 -430,1114.9375 L -430,1097.0625 C -430,1095.3832 -431.38317,1094 -433.0625,1094 L -450.9375,1094 z M -450.9375,1096 L -433.0625,1096 C -432.45658,1096 -432,1096.4566 -432,1097.0625 L -432,1114.9375 C -432,1115.5434 -432.45658,1116 -433.0625,1116 L -450.9375,1116 C -451.54342,1116 -452,1115.5434 -452,1114.9375 L -452,1097.0625 C -452,1096.4566 -451.54342,1096 -450.9375,1096 z"
       id="rect7454"
       style="fill:#bebebe;fill-opacity:1;stroke:none;stroke-width:2;stroke-linecap:round;stroke-linejoin:round;marker:none;stroke-miterlimit:4;stroke-dasharray:none;stroke-dashoffset:0;stroke-opacity:1;visibility:visible;display:inline;overflow:visible;enable-background:accumulate" />
    <path
       d="M -447.00263,1097.0123 C -449.19969,1097.0123 -451.01959,1098.7871 -451.01958,1100.9841 C -451.01958,1103.1811 -449.19966,1105.0011 -447.00263,1105.0011 C -444.80557,1105.0011 -442.98567,1103.1811 -442.98568,1100.9841 C -442.98568,1098.7872 -444.8056,1097.0125 -447.00263,1097.0123 z M -447.00263,1098.9982 C -445.88768,1098.9983 -445.01672,1099.8693 -445.01672,1100.9841 C -445.01671,1102.0991 -445.88771,1103.0152 -447.00263,1103.0152 C -448.11758,1103.0152 -448.98854,1102.0991 -448.98854,1100.9841 C -448.98855,1099.8693 -448.11755,1098.9982 -447.00263,1098.9982 z"
       id="path7458"
       style="fill:#bebebe;fill-opacity:1;stroke:none;stroke-width:1.38476419;stroke-linecap:round;stroke-linejoin:round;marker:none;stroke-miterlimit:4.30000019;stroke-dasharray:none;stroke-dashoffset:0;stroke-opacity:1;visibility:visible;display:inline;overflow:visible;enable-background:accumulate" />
    <path
       d="M -437.00176,1098.0106 C -438.64683,1098.0106 -440.01073,1099.3443 -440.01072,1100.9894 C -440.01072,1102.6345 -438.6468,1103.9983 -437.00176,1103.9983 C -435.3567,1103.9983 -433.9928,1102.6345 -433.99281,1100.9894 C -433.99281,1099.3443 -435.35672,1098.0106 -437.00176,1098.0106 z M -437.00176,1099.9965 C -436.4388,1099.9965 -436.00881,1100.4265 -436.00881,1100.9894 C -436.00881,1101.5523 -436.43883,1102.0125 -437.00176,1102.0125 C -437.56472,1102.0124 -437.99472,1101.5523 -437.99472,1100.9894 C -437.99472,1100.4265 -437.56469,1099.9965 -437.00176,1099.9965 z"
       id="path7460"
       style="fill:#bebebe;fill-opacity:1;stroke:none;stroke-width:2.07714152;stroke-linecap:round;stroke-linejoin:round;marker:none;stroke-miterlimit:4.30000019;stroke-dasharray:none;stroke-dashoffset:0;stroke-opacity:1;visibility:visible;display:inline;overflow:visible;enable-background:accumulate" />
    <path
       d="M -445.03533,1099.0093 L -443.0024,1099.0093 L -444.06306,1101.0201 L -445.03533,1099.0093 L -445.03533,1099.0093 z"
       id="path7462"
       style="fill:#bebebe;fill-opacity:1;stroke:none;stroke-width:1;stroke-linecap:round;stroke-linejoin:round;marker:none;stroke-miterlimit:4.30000019;stroke-dasharray:none;stroke-dashoffset:0;stroke-opacity:1;visibility:visible;display:inline;overflow:visible;enable-background:accumulate" />
    <path
       d="M -438.01441,1098.2263 L -436.99043,1096.7127 L -435.90625,1098.3788 L -438.01441,1098.2263 L -438.01441,1098.2263 z"
       id="path7464"
       style="fill:#bebebe;fill-opacity:1;stroke:none;stroke-width:1;marker:none;visibility:visible;display:inline;overflow:visible;enable-background:accumulate" />
    <rect
       width="1"
       height="1.9999974"
       x="-448.96875"
       y="1105"
       id="rect7467"
       style="fill:#bebebe;fill-opacity:1;fill-rule:nonzero;stroke:none;stroke-width:1;marker:none;visibility:visible;display:inline;overflow:visible;enable-background:accumulate" />
    <rect
       width="1"
       height="1.0000026"
       x="-447"
       y="1105"
       id="rect7469"
       style="fill:#bebebe;fill-opacity:1;fill-rule:nonzero;stroke:none;stroke-width:1;marker:none;visibility:visible;display:inline;overflow:visible;enable-background:accumulate" />
    <rect
       width="1"
       height="1.0000026"
       x="-445"
       y="1105"
       id="rect7471"
       style="fill:#bebebe;fill-opacity:1;fill-rule:nonzero;stroke:none;stroke-width:1;marker:none;visibility:visible;display:inline;overflow:visible;enable-background:accumulate" />
    <rect
       width="1"
       height="1.0000026"
       x="-443"
       y="1105"
       id="rect7473"
       style="fill:#bebebe;fill-opacity:1;fill-rule:nonzero;stroke:none;stroke-width:1;marker:none;visibility:visible;display:inline;overflow:visible;enable-background:accumulate" />
    <rect
       width="1"
       height="1.0000026"
       x="-441"
       y="1105"
       id="rect7475"
       style="fill:#bebebe;fill-opacity:1;fill-rule:nonzero;stroke:none;stroke-width:1;marker:none;visibility:visible;display:inline;overflow:visible;enable-background:accumulate" />
    <rect
       width="1"
       height="1.0000026"
       x="-439"
       y="1105"
       id="rect7477"
       style="fill:#bebebe;fill-opacity:1;fill-rule:nonzero;stroke:none;stroke-width:1;marker:none;visibility:visible;display:inline;overflow:visible;enable-background:accumulate" />
    <rect
       width="1"
       height="1.0000026"
       x="-437"
       y="1105"
       id="rect7479"
       style="fill:#bebebe;fill-opacity:1;fill-rule:nonzero;stroke:none;stroke-width:1;marker:none;visibility:visible;display:inline;overflow:visible;enable-background:accumulate" />
    <path
       d="M -448.75,1110 C -449.45113,1110 -450.03125,1110.5801 -450.03125,1111.2812 L -450.03125,1112.7188 C -450.03125,1113.4199 -449.45113,1114 -448.75,1114 L -435.28125,1114 C -434.58012,1114 -434,1113.4199 -434,1112.7188 L -434,1111.2812 C -434,1110.5801 -434.58012,1110 -435.28125,1110 L -440.5,1110 C -440.68032,1109.9974 -440.84804,1110.0922 -440.93894,1110.2479 C -441.02985,1110.4037 -441.02985,1110.5963 -440.93894,1110.7521 C -440.84804,1110.9078 -440.68032,1111.0026 -440.5,1111 L -435.28125,1111 C -435.11676,1111 -435,1111.1168 -435,1111.2812 L -435,1112.7188 C -435,1112.8833 -435.11676,1113 -435.28125,1113 L -448.75,1113 C -448.91449,1113 -449.03125,1112.8832 -449.03125,1112.7188 L -449.03125,1111.2812 C -449.03125,1111.1167 -448.91449,1111 -448.75,1111 L -448.4375,1111 C -448.25718,1111.0026 -448.08946,1110.9078 -447.99856,1110.7521 C -447.90765,1110.5963 -447.90765,1110.4037 -447.99856,1110.2479 C -448.08946,1110.0922 -448.25718,1109.9974 -448.4375,1110 L -448.75,1110 z"
       id="rect7484"
       style="fill:#bebebe;fill-opacity:1;stroke:none;stroke-width:1;stroke-linecap:round;marker:none;stroke-opacity:1;visibility:visible;display:inline;overflow:visible;enable-background:accumulate" />
    <path
       d="M -444.65625,1106 C -444.88851,1106.041 -445.09881,1106.1628 -445.25,1106.3438 L -446.75,1108.0312 C -446.90993,1108.2126 -446.99874,1108.4457 -447,1108.6875 L -447,1113 C -446.99994,1113.5523 -446.55226,1113.9999 -446,1114 L -443,1114 C -442.44774,1113.9999 -442.00006,1113.5523 -442,1113 L -442,1108.7188 C -442.00126,1108.477 -442.09007,1108.2439 -442.25,1108.0625 L -443.75,1106.3438 C -443.97266,1106.0807 -444.31511,1105.9508 -444.65625,1106 L -444.65625,1106 z M -444.5,1108.5 L -444,1109.0938 L -444,1112 L -445,1112 L -445,1109.0625 L -444.5,1108.5 z"
       id="path7486"
       style="fill:#bebebe;fill-opacity:1;stroke:none;stroke-width:2;stroke-linecap:round;stroke-linejoin:round;marker:none;stroke-miterlimit:4.30000019;stroke-dasharray:none;stroke-dashoffset:0;stroke-opacity:1;visibility:visible;display:inline;overflow:visible;enable-background:accumulate" />
    <rect
       width="1"
       height="1.9999974"
       x="-435"
       y="1105"
       id="rect7489"
       style="fill:#bebebe;fill-opacity:1;fill-rule:nonzero;stroke:none;stroke-width:1;marker:none;visibility:visible;display:inline;overflow:visible;enable-background:accumulate" />
  </g>
  <g
     transform="translate(454,-1094)"
     id="layer4" />
  <g
     transform="translate(454,-1094)"
     id="layer9" />
  <g
     transform="translate(454,-1094)"
     id="layer10" />
  <g
     transform="translate(454,-1094)"
     id="layer6" />
</svg>
