<?xml version="1.0" encoding="UTF-8" standalone="no"?>
<!-- Created with Inkscape (http://www.inkscape.org/) -->
<svg
   xmlns:svg="http://www.w3.org/2000/svg"
   xmlns="http://www.w3.org/2000/svg"
   version="1.0"
   width="24"
   height="24.000002"
   id="svg7384">
  <title
     id="title9167">Moblin Icon Theme</title>
  <defs
     id="defs7386" />
  <g
     transform="translate(454,-1094)"
     id="layer3" />
  <g
     transform="translate(454,-1094)"
     id="layer5" />
  <g
     transform="translate(454,-1094)"
     id="layer7" />
  <g
     transform="translate(454,-1094)"
     id="layer2" />
  <g
     transform="translate(454,-1094)"
     id="layer8" />
  <g
     transform="translate(454,-2046.3622)"
     id="layer1" />
  <g
     transform="translate(454,-1094)"
     id="layer11">
    <rect
       width="24"
       height="24"
       x="-454"
       y="1094"
       id="rect7452"
       style="opacity:0;fill:#ffffff;fill-opacity:1;stroke:none;display:inline" />
    <path
       d="M -450.9375,1094 C -452.61683,1094 -454,1095.3832 -454,1097.0625 L -454,1114.9375 C -454,1116.6168 -452.61683,1118 -450.9375,1118 L -433.0625,1118 C -431.38317,1118 -430,1116.6168 -430,1114.9375 L -430,1097.0625 C -430,1095.3832 -431.38317,1094 -433.0625,1094 L -450.9375,1094 z M -450.9375,1096 L -433.0625,1096 C -432.45658,1096 -432,1096.4566 -432,1097.0625 L -432,1114.9375 C -432,1115.5434 -432.45658,1116 -433.0625,1116 L -450.9375,1116 C -451.54342,1116 -452,1115.5434 -452,1114.9375 L -452,1097.0625 C -452,1096.4566 -451.54342,1096 -450.9375,1096 z"
       id="rect7454"
       style="fill:#bebebe;fill-opacity:1;stroke:none;stroke-width:2;stroke-linecap:round;stroke-linejoin:round;marker:none;stroke-miterlimit:4;stroke-dasharray:none;stroke-dashoffset:0;stroke-opacity:1;visibility:visible;display:inline;overflow:visible;enable-background:accumulate" />
    <path
       d="M -447.00219,1098.0154 C -448.65272,1098.0154 -450.01118,1099.3363 -450.01117,1100.9867 C -450.01117,1102.6373 -448.65272,1103.9957 -447.00219,1103.9957 C -445.35166,1103.9957 -443.9932,1102.6373 -443.99321,1100.9867 C -443.99321,1099.3363 -445.35166,1098.0154 -447.00219,1098.0154 z M -447.00219,1098.9934 C -445.89271,1098.9934 -445.00874,1099.8773 -445.00874,1100.9867 C -445.00873,1102.0963 -445.89272,1103.0179 -447.00219,1103.0179 C -448.11167,1103.0178 -448.99564,1102.0963 -448.99564,1100.9867 C -448.99565,1099.8774 -448.11166,1098.9934 -447.00219,1098.9934 z"
       id="path7458"
       style="fill:#bebebe;fill-opacity:1;stroke:none;stroke-width:0.83085102;stroke-linecap:round;stroke-linejoin:round;marker:none;stroke-miterlimit:4.30000019;stroke-dasharray:none;stroke-dashoffset:0;stroke-opacity:1;visibility:visible;display:inline;overflow:visible;enable-background:accumulate" />
    <path
       d="M -437.00221,1098.0154 C -438.65274,1098.0154 -440.0112,1099.3363 -440.01119,1100.9867 C -440.01119,1102.6373 -438.65274,1103.9957 -437.00221,1103.9957 C -435.35168,1103.9957 -433.99322,1102.6373 -433.99323,1100.9867 C -433.99323,1099.3363 -435.35168,1098.0154 -437.00221,1098.0154 z M -437.00221,1098.9934 C -435.89273,1098.9934 -435.00876,1099.8773 -435.00876,1100.9867 C -435.00875,1102.0963 -435.89274,1103.0179 -437.00221,1103.0179 C -438.11169,1103.0178 -438.99566,1102.0963 -438.99566,1100.9867 C -438.99567,1099.8774 -438.11168,1098.9934 -437.00221,1098.9934 z"
       id="path7460"
       style="fill:#bebebe;fill-opacity:1;stroke:none;stroke-width:0.83085102;stroke-linecap:round;stroke-linejoin:round;marker:none;stroke-miterlimit:4.30000019;stroke-dasharray:none;stroke-dashoffset:0;stroke-opacity:1;visibility:visible;display:inline;overflow:visible;enable-background:accumulate" />
    <path
       d="M -445.03533,1099.0093 L -443.0024,1099.0093 L -444.06306,1101.0201 L -445.03533,1099.0093 L -445.03533,1099.0093 z"
       id="path7462"
       style="fill:#bebebe;fill-opacity:1;stroke:none;stroke-width:1;stroke-linecap:round;stroke-linejoin:round;marker:none;stroke-miterlimit:4.30000019;stroke-dasharray:none;stroke-dashoffset:0;stroke-opacity:1;visibility:visible;display:inline;overflow:visible;enable-background:accumulate" />
    <path
       d="M -438.01441,1098.2263 L -436.99043,1096.7127 L -435.90625,1098.3788 L -438.01441,1098.2263 L -438.01441,1098.2263 z"
       id="path7464"
       style="fill:#bebebe;fill-opacity:1;stroke:none;stroke-width:1;marker:none;visibility:visible;display:inline;overflow:visible;enable-background:accumulate" />
    <rect
       width="1"
       height="1.9999974"
       x="-448.96875"
       y="1105"
       id="rect7467"
       style="fill:#bebebe;fill-opacity:1;fill-rule:nonzero;stroke:none;stroke-width:1;marker:none;visibility:visible;display:inline;overflow:visible;enable-background:accumulate" />
    <rect
       width="1"
       height="1.0000026"
       x="-447"
       y="1105"
       id="rect7469"
       style="fill:#bebebe;fill-opacity:1;fill-rule:nonzero;stroke:none;stroke-width:1;marker:none;visibility:visible;display:inline;overflow:visible;enable-background:accumulate" />
    <rect
       width="1"
       height="1.0000026"
       x="-445"
       y="1105"
       id="rect7471"
       style="fill:#bebebe;fill-opacity:1;fill-rule:nonzero;stroke:none;stroke-width:1;marker:none;visibility:visible;display:inline;overflow:visible;enable-background:accumulate" />
    <rect
       width="1"
       height="1.0000026"
       x="-443"
       y="1105"
       id="rect7473"
       style="fill:#bebebe;fill-opacity:1;fill-rule:nonzero;stroke:none;stroke-width:1;marker:none;visibility:visible;display:inline;overflow:visible;enable-background:accumulate" />
    <rect
       width="1"
       height="1.0000026"
       x="-441"
       y="1105"
       id="rect7475"
       style="fill:#bebebe;fill-opacity:1;fill-rule:nonzero;stroke:none;stroke-width:1;marker:none;visibility:visible;display:inline;overflow:visible;enable-background:accumulate" />
    <rect
       width="1"
       height="1.0000026"
       x="-439"
       y="1105"
       id="rect7477"
       style="fill:#bebebe;fill-opacity:1;fill-rule:nonzero;stroke:none;stroke-width:1;marker:none;visibility:visible;display:inline;overflow:visible;enable-background:accumulate" />
    <rect
       width="1"
       height="1.0000026"
       x="-437"
       y="1105"
       id="rect7479"
       style="fill:#bebebe;fill-opacity:1;fill-rule:nonzero;stroke:none;stroke-width:1;marker:none;visibility:visible;display:inline;overflow:visible;enable-background:accumulate" />
    <path
       d="M -448.75,1110 C -449.45113,1110 -450.03125,1110.5801 -450.03125,1111.2812 L -450.03125,1112.7188 C -450.03125,1113.4199 -449.45113,1114 -448.75,1114 L -435.28125,1114 C -434.58012,1114 -434,1113.4199 -434,1112.7188 L -434,1111.2812 C -434,1110.5801 -434.58012,1110 -435.28125,1110 L -440.5,1110 C -440.68032,1109.9974 -440.84804,1110.0922 -440.93894,1110.2479 C -441.02985,1110.4037 -441.02985,1110.5963 -440.93894,1110.7521 C -440.84804,1110.9078 -440.68032,1111.0026 -440.5,1111 L -435.28125,1111 C -435.11676,1111 -435,1111.1168 -435,1111.2812 L -435,1112.7188 C -435,1112.8833 -435.11676,1113 -435.28125,1113 L -448.75,1113 C -448.91449,1113 -449.03125,1112.8832 -449.03125,1112.7188 L -449.03125,1111.2812 C -449.03125,1111.1167 -448.91449,1111 -448.75,1111 L -448.4375,1111 C -448.25718,1111.0026 -448.08946,1110.9078 -447.99856,1110.7521 C -447.90765,1110.5963 -447.90765,1110.4037 -447.99856,1110.2479 C -448.08946,1110.0922 -448.25718,1109.9974 -448.4375,1110 L -448.75,1110 z"
       id="rect7484"
       style="fill:#bebebe;fill-opacity:1;stroke:none;stroke-width:1;stroke-linecap:round;marker:none;stroke-opacity:1;visibility:visible;display:inline;overflow:visible;enable-background:accumulate" />
    <path
       d="M -444.625,1106 C -444.72214,1106.0258 -444.80926,1106.0802 -444.875,1106.1562 L -446.875,1108.1562 C -446.95859,1108.2509 -447.00325,1108.3737 -447,1108.5 L -447,1113.5625 C -446.99997,1113.8386 -446.77613,1114.0625 -446.5,1114.0625 L -442.5,1114.0625 C -442.22387,1114.0625 -442.00003,1113.8386 -442,1113.5625 L -442,1108.5 C -442.00514,1108.3694 -442.06123,1108.246 -442.15625,1108.1562 L -444.15625,1106.1562 C -444.27407,1106.0252 -444.45214,1105.9658 -444.625,1106 z M -444.5,1107.1875 L -443,1108.7188 L -443,1113.0625 L -446,1113.0625 L -446,1108.6875 L -444.5,1107.1875 z"
       id="path7486"
       style="fill:#bebebe;fill-opacity:1;stroke:none;stroke-width:1;stroke-linecap:round;stroke-linejoin:round;marker:none;stroke-miterlimit:4.30000019;stroke-dasharray:none;stroke-dashoffset:0;stroke-opacity:1;visibility:visible;display:inline;overflow:visible;enable-background:accumulate" />
    <rect
       width="1"
       height="1.9999974"
       x="-435"
       y="1105"
       id="rect7489"
       style="fill:#bebebe;fill-opacity:1;fill-rule:nonzero;stroke:none;stroke-width:1;marker:none;visibility:visible;display:inline;overflow:visible;enable-background:accumulate" />
  </g>
  <g
     transform="translate(454,-1094)"
     id="layer4" />
  <g
     transform="translate(454,-1094)"
     id="layer9" />
  <g
     transform="translate(454,-1094)"
     id="layer10" />
  <g
     transform="translate(454,-1094)"
     id="layer6" />
</svg>
