<?xml version="1.0" encoding="UTF-8" standalone="no"?>
<!-- Created with Inkscape (http://www.inkscape.org/) -->
<svg
   xmlns:svg="http://www.w3.org/2000/svg"
   xmlns="http://www.w3.org/2000/svg"
   xmlns:xlink="http://www.w3.org/1999/xlink"
   version="1.0"
   width="24.008057"
   height="24"
   id="svg7384">
  <title
     id="title9167">Moblin Icon Theme</title>
  <defs
     id="defs7386">
    <linearGradient
       id="linearGradient7487-6-9">
      <stop
         id="stop7489-8-84"
         style="stop-color:#bebebe;stop-opacity:1"
         offset="0" />
      <stop
         id="stop7491-2-6"
         style="stop-color:#bebebe;stop-opacity:0"
         offset="1" />
    </linearGradient>
    <linearGradient
       x1="105.91268"
       y1="121.73069"
       x2="105.91268"
       y2="115.05012"
       id="linearGradient12298"
       xlink:href="#linearGradient7487-6-9"
       gradientUnits="userSpaceOnUse"
       gradientTransform="matrix(1,0,0,1.273349,-1292.9099,339.56603)" />
    <linearGradient
       x1="105.91268"
       y1="121.0463"
       x2="105.91268"
       y2="115.05012"
       id="linearGradient12302"
       xlink:href="#linearGradient7487-6-9"
       gradientUnits="userSpaceOnUse"
       gradientTransform="matrix(1,0,0,1.091442,-1292.9099,-635.52971)" />
  </defs>
  <g
     transform="translate(510.00801,-1164)"
     id="layer3" />
  <g
     transform="translate(510.00801,-1164)"
     id="layer5" />
  <g
     transform="translate(510.00801,-1164)"
     id="layer7" />
  <g
     transform="translate(510.00801,-1164)"
     id="layer2" />
  <g
     transform="translate(510.00801,-1164)"
     id="layer8" />
  <g
     transform="translate(510.00801,-2116.3622)"
     id="layer1" />
  <g
     transform="translate(510.00801,-1164)"
     id="layer11">
    <rect
       width="24"
       height="24"
       x="485.99994"
       y="1164"
       transform="scale(-1,1)"
       id="rect10381-5"
       style="opacity:0;fill:#ffffff;fill-opacity:1;stroke:none;display:inline" />
    <path
       d="M -505.15625,1164 C -506.72126,1164 -508,1165.2787 -508,1166.8438 L -508,1181.1562 C -508,1182.7213 -506.72126,1184 -505.15625,1184 L -492.84375,1184 C -491.27874,1184 -490,1182.7213 -490,1181.1562 L -490,1166.8438 C -490,1165.2787 -491.27874,1164 -492.84375,1164 L -505.15625,1164 z M -505.15625,1166 L -492.84375,1166 C -492.35216,1166 -492,1166.3521 -492,1166.8438 L -492,1181.1562 C -492,1181.6479 -492.35214,1182 -492.84375,1182 L -505.15625,1182 C -505.64784,1182 -506,1181.6479 -506,1181.1562 L -506,1166.8438 C -506,1166.3521 -505.64786,1166 -505.15625,1166 z"
       id="rect10405-7"
       style="fill:#bebebe;fill-opacity:1;stroke:none;stroke-width:1.9999994;marker:none;stroke-miterlimit:4;stroke-dasharray:none;stroke-opacity:1;visibility:visible;display:inline;overflow:visible;enable-background:accumulate" />
    <path
       d="M -503.78125,1168 C -504.44134,1168 -505,1168.5586 -505,1169.2188 L -505,1171.7812 C -505,1172.4413 -504.44133,1173 -503.78125,1173 L -494.21875,1173 C -493.55866,1173 -493,1172.4414 -493,1171.7812 L -493,1169.2188 C -493,1168.5587 -493.55866,1168 -494.21875,1168 L -503.78125,1168 z M -503.78125,1169 L -494.21875,1169 C -494.09534,1169 -494,1169.0954 -494,1169.2188 L -494,1171.7812 C -494,1171.9047 -494.09536,1172 -494.21875,1172 L -503.78125,1172 C -503.90461,1172 -504,1171.9046 -504,1171.7812 L -504,1169.2188 C -504,1169.0953 -503.90464,1169 -503.78125,1169 z"
       id="rect10452-3"
       style="fill:#bebebe;fill-opacity:1;stroke:none;stroke-width:1;marker:none;stroke-miterlimit:4;stroke-dasharray:none;stroke-opacity:1;visibility:visible;display:inline;overflow:visible;enable-background:accumulate" />
    <path
       d="M -503.78125,1175 C -504.44134,1175 -505,1175.5586 -505,1176.2188 L -505,1178.7812 C -505,1179.4413 -504.44133,1180 -503.78125,1180 L -494.21875,1180 C -493.55866,1180 -493,1179.4414 -493,1178.7812 L -493,1176.2188 C -493,1175.5587 -493.55867,1175 -494.21875,1175 L -503.78125,1175 z M -503.78125,1176 L -494.21875,1176 C -494.09538,1176 -494,1176.0954 -494,1176.2188 L -494,1178.7812 C -494,1178.9047 -494.09536,1179 -494.21875,1179 L -503.78125,1179 C -503.90461,1179 -504,1178.9046 -504,1178.7812 L -504,1176.2188 C -504,1176.0953 -503.90464,1176 -503.78125,1176 z"
       id="rect10456-3"
       style="fill:#bebebe;fill-opacity:1;stroke:none;stroke-width:0.99999988;marker:none;stroke-miterlimit:4;stroke-dasharray:none;stroke-opacity:1;visibility:visible;display:inline;overflow:visible;enable-background:accumulate" />
    <rect
       width="2.0000005"
       height="12"
       rx="1.0000002"
       ry="1.0000002"
       x="-1188"
       y="-510.008"
       transform="matrix(0,-1,1,0,0,0)"
       id="rect7483-1"
       style="fill:url(#linearGradient12302);fill-opacity:1;stroke:none;display:inline" />
    <rect
       width="2.0000005"
       height="5"
       rx="1.0000002"
       ry="1.0000002"
       x="497.99994"
       y="-1187"
       transform="scale(-1,-1)"
       id="rect7485-8"
       style="fill:#bebebe;fill-opacity:1;stroke:none;display:inline" />
    <rect
       width="2.0000005"
       height="14"
       rx="1.0000002"
       ry="1.0000002"
       x="-1188"
       y="486.008"
       transform="matrix(0,-1,-1,0,0,0)"
       id="rect7495-0"
       style="fill:url(#linearGradient12298);fill-opacity:1;stroke:none;display:inline" />
    <path
       d="M -500.59375,1170 C -500.86989,1170.0259 -501.07276,1170.2707 -501.04688,1170.5469 C -501.02099,1170.823 -500.77614,1171.0259 -500.5,1171 L -497.5,1171 C -497.31968,1171.0026 -497.15196,1170.9078 -497.06106,1170.7521 C -496.97015,1170.5963 -496.97015,1170.4037 -497.06106,1170.2479 C -497.15196,1170.0922 -497.31968,1169.9974 -497.5,1170 L -500.5,1170 C -500.53118,1169.9971 -500.56257,1169.9971 -500.59375,1170 z"
       id="path10375"
       style="fill:#bebebe;fill-opacity:1;stroke:none;stroke-width:1;stroke-linecap:round;stroke-linejoin:miter;marker:none;stroke-miterlimit:4;stroke-dasharray:none;stroke-dashoffset:0;stroke-opacity:1;visibility:visible;display:inline;overflow:visible;enable-background:accumulate" />
    <path
       d="M -500.59375,1177 C -500.86989,1177.0259 -501.07276,1177.2707 -501.04688,1177.5469 C -501.02099,1177.823 -500.77614,1178.0259 -500.5,1178 L -497.5,1178 C -497.31968,1178.0026 -497.15196,1177.9078 -497.06106,1177.7521 C -496.97015,1177.5963 -496.97015,1177.4037 -497.06106,1177.2479 C -497.15196,1177.0922 -497.31968,1176.9974 -497.5,1177 L -500.5,1177 C -500.53118,1176.9971 -500.56257,1176.9971 -500.59375,1177 z"
       id="path10398"
       style="fill:#bebebe;fill-opacity:1;stroke:none;stroke-width:1;stroke-linecap:round;stroke-linejoin:miter;marker:none;stroke-miterlimit:4;stroke-dasharray:none;stroke-dashoffset:0;stroke-opacity:1;visibility:visible;display:inline;overflow:visible;enable-background:accumulate" />
  </g>
  <g
     transform="translate(510.00801,-1164)"
     id="layer4" />
  <g
     transform="translate(510.00801,-1164)"
     id="layer12" />
  <g
     transform="translate(510.00801,-1164)"
     id="layer9" />
  <g
     transform="translate(510.00801,-1164)"
     id="layer10" />
  <g
     transform="translate(510.00801,-1164)"
     id="layer6" />
</svg>
