<?xml version="1.0" encoding="UTF-8" standalone="no"?>
<!-- Created with Inkscape (http://www.inkscape.org/) -->
<svg
   xmlns:svg="http://www.w3.org/2000/svg"
   xmlns="http://www.w3.org/2000/svg"
   version="1.0"
   width="24.063559"
   height="24.000002"
   id="svg7384">
  <title
     id="title9167">Moblin Icon Theme</title>
  <defs
     id="defs7386" />
  <g
     transform="translate(454.06356,-1006)"
     id="layer3" />
  <g
     transform="translate(454.06356,-1006)"
     id="layer5" />
  <g
     transform="translate(454.06356,-1006)"
     id="layer7" />
  <g
     transform="translate(454.06356,-1006)"
     id="layer2" />
  <g
     transform="translate(454.06356,-1006)"
     id="layer8" />
  <g
     transform="translate(454.06356,-1958.3622)"
     id="layer1" />
  <g
     transform="translate(454.06356,-1006)"
     id="layer11">
    <rect
       width="24"
       height="24"
       x="-454"
       y="1006"
       id="rect15633"
       style="opacity:0;fill:#ffffff;fill-opacity:1;stroke:none;display:inline" />
    <path
       d="M -450.74275,1005.9927 L -451.02758,1006.5041 L -453.9138,1011.5039 L -454.21762,1011.9962 L -453.9138,1012.5076 L -451.02758,1017.5074 L -450.74275,1017.9998 L -450.15411,1017.9998 L -444.36267,1017.9998 L -443.79302,1017.9998 L -443.5082,1017.5074 L -440.60298,1012.5076 L -440.31816,1011.9962 L -440.60298,1011.5039 L -443.5082,1006.5041 L -443.79302,1005.9927 L -444.36267,1005.9927 L -450.15411,1005.9927 L -450.74275,1005.9927 z M -449.58446,1008.0002 L -444.95131,1008.0002 L -442.63473,1012.0152 L -444.93232,1015.9923 L -449.60345,1015.9923 L -451.90104,1012.0152 L -449.58446,1008.0002 z"
       id="path15643"
       style="fill:#bebebe;fill-opacity:1;stroke:none;stroke-width:3.29581547;stroke-linecap:round;stroke-linejoin:miter;marker:none;stroke-miterlimit:4;stroke-dasharray:none;stroke-dashoffset:0;stroke-opacity:1;visibility:visible;display:inline;overflow:visible;enable-background:accumulate" />
    <path
       d="M -451.75,1018.5312 C -452.04212,1018.5873 -452.2941,1018.7706 -452.4375,1019.0312 L -453.90625,1021.4688 L -454.21875,1022 L -453.9375,1022.5 L -451.03125,1027.5 L -450.75,1028 L -450.15625,1028 L -444.375,1028 L -443.8125,1028 L -443.5,1027.5 L -441.75,1024.4375 C -441.52263,1024.129 -441.49151,1023.7178 -441.66989,1023.3786 C -441.84826,1023.0394 -442.20476,1022.832 -442.58777,1022.8445 C -442.97078,1022.8571 -443.31295,1023.0874 -443.46875,1023.4375 L -444.96875,1026 L -449.59375,1026 L -451.90625,1022 L -450.71875,1020.0625 C -450.49648,1019.7255 -450.49858,1019.288 -450.72406,1018.9532 C -450.94954,1018.6184 -451.3542,1018.4519 -451.75,1018.5312 L -451.75,1018.5312 z"
       id="path15674"
       style="fill:#bebebe;fill-opacity:1;stroke:none;stroke-width:2;stroke-linecap:round;stroke-linejoin:miter;marker:none;stroke-miterlimit:4;stroke-dashoffset:0;stroke-opacity:1;visibility:visible;display:inline;overflow:visible;enable-background:accumulate" />
    <path
       d="M -438.0625,1011 C -438.61478,1011.0259 -439.04151,1011.4946 -439.01562,1012.0469 C -438.98974,1012.5992 -438.52103,1013.0259 -437.96875,1013 L -435.46875,1013 L -433.15625,1017 L -435.46875,1021 L -439.0625,1021 C -439.42314,1020.9949 -439.75858,1021.1844 -439.94039,1021.4959 C -440.12219,1021.8074 -440.12219,1022.1926 -439.94039,1022.5041 C -439.75858,1022.8156 -439.42314,1023.0051 -439.0625,1023 L -434.90625,1023 L -434.3125,1023 L -434.03125,1022.5 L -431.125,1017.5 L -430.84375,1017 L -431.125,1016.5 L -434.03125,1011.5 L -434.3125,1011 L -434.90625,1011 L -437.96875,1011 C -437.99998,1010.9985 -438.03127,1010.9985 -438.0625,1011 z"
       id="path15676"
       style="fill:#bebebe;fill-opacity:1;stroke:none;stroke-width:2;stroke-linecap:round;stroke-linejoin:miter;marker:none;stroke-miterlimit:4;stroke-dashoffset:0;stroke-opacity:1;visibility:visible;display:inline;overflow:visible;enable-background:accumulate" />
  </g>
  <g
     transform="translate(454.06356,-1006)"
     id="layer4" />
  <g
     transform="translate(454.06356,-1006)"
     id="layer9" />
  <g
     transform="translate(454.06356,-1006)"
     id="layer10" />
  <g
     transform="translate(454.06356,-1006)"
     id="layer6" />
</svg>
