<?xml version="1.0" encoding="UTF-8" standalone="no"?>
<!-- Created with Inkscape (http://www.inkscape.org/) -->
<svg
   xmlns:svg="http://www.w3.org/2000/svg"
   xmlns="http://www.w3.org/2000/svg"
   version="1.0"
   width="24.063559"
   height="24.000002"
   id="svg7384">
  <title
     id="title9167">Moblin Icon Theme</title>
  <defs
     id="defs7386" />
  <g
     transform="translate(454.06356,-956)"
     id="layer3" />
  <g
     transform="translate(454.06356,-956)"
     id="layer5" />
  <g
     transform="translate(454.06356,-956)"
     id="layer7" />
  <g
     transform="translate(454.06356,-956)"
     id="layer2" />
  <g
     transform="translate(454.06356,-956)"
     id="layer8" />
  <g
     transform="translate(454.06356,-1908.3622)"
     id="layer1" />
  <g
     transform="translate(454.06356,-956)"
     id="layer11">
    <rect
       width="24"
       height="24"
       x="-454"
       y="956"
       id="rect15633"
       style="opacity:0;fill:#ffffff;fill-opacity:1;stroke:none;display:inline" />
    <path
       d="M -450.74275,955.99274 L -451.02758,956.50412 L -453.9138,961.5039 L -454.21762,961.99624 L -453.9138,962.50762 L -451.02758,967.5074 L -450.74275,967.9998 L -450.15411,967.9998 L -444.36267,967.9998 L -443.79302,967.9998 L -443.5082,967.5074 L -440.60298,962.50762 L -440.31816,961.99624 L -440.60298,961.5039 L -443.5082,956.50412 L -443.79302,955.99274 L -444.36267,955.99274 L -450.15411,955.99274 L -450.74275,955.99274 z M -449.58446,958.00023 L -444.95131,958.00023 L -442.63473,962.01521 L -444.93232,965.99231 L -449.60345,965.99231 L -451.90104,962.01521 L -449.58446,958.00023 z"
       id="path15643"
       style="fill:#bebebe;fill-opacity:1;stroke:none;stroke-width:3.29581547;stroke-linecap:round;stroke-linejoin:miter;marker:none;stroke-miterlimit:4;stroke-dasharray:none;stroke-dashoffset:0;stroke-opacity:1;visibility:visible;display:inline;overflow:visible;enable-background:accumulate" />
    <path
       d="M -451.75,968.53125 C -452.04212,968.58738 -452.2941,968.77063 -452.4375,969.03125 L -453.90625,971.46875 L -454.21875,972 L -453.9375,972.5 L -451.03125,977.5 L -450.75,978 L -450.15625,978 L -444.375,978 L -443.8125,978 L -443.5,977.5 L -441.75,974.4375 C -441.52263,974.12903 -441.49151,973.71775 -441.66989,973.37859 C -441.84826,973.03942 -442.20476,972.832 -442.58777,972.84454 C -442.97078,972.85709 -443.31295,973.08739 -443.46875,973.4375 L -444.96875,976 L -449.59375,976 L -451.90625,972 L -450.71875,970.0625 C -450.49652,969.72554 -450.49863,969.28802 -450.72411,968.95322 C -450.94958,968.61843 -451.35421,968.45199 -451.75,968.53125 L -451.75,968.53125 z"
       id="path15674"
       style="fill:#bebebe;fill-opacity:1;stroke:none;stroke-width:2;stroke-linecap:round;stroke-linejoin:miter;marker:none;stroke-miterlimit:4;stroke-dashoffset:0;stroke-opacity:1;visibility:visible;display:inline;overflow:visible;enable-background:accumulate" />
    <path
       d="M -438.0625,961 C -438.61478,961.02589 -439.04151,961.49459 -439.01562,962.04687 C -438.98974,962.59916 -438.52103,963.02589 -437.96875,963 L -435.46875,963 L -433.15625,967 L -435.46875,971 L -440.28125,971 L -441.15625,969.46875 C -441.43239,968.9855 -442.048,968.81761 -442.53125,969.09375 C -443.0145,969.36989 -443.18239,969.9855 -442.90625,970.46875 L -441.75,972.5 L -441.4375,973 L -440.875,973 L -434.90625,973 L -434.3125,973 L -434.03125,972.5 L -431.125,967.5 L -430.84375,967 L -431.125,966.5 L -434.03125,961.5 L -434.3125,961 L -434.90625,961 L -437.96875,961 C -437.99998,960.99853 -438.03127,960.99853 -438.0625,961 L -438.0625,961 z"
       id="path15676"
       style="fill:#bebebe;fill-opacity:1;stroke:none;stroke-width:2;stroke-linecap:round;stroke-linejoin:miter;marker:none;stroke-miterlimit:4;stroke-dasharray:none;stroke-dashoffset:0;stroke-opacity:1;visibility:visible;display:inline;overflow:visible;enable-background:accumulate" />
  </g>
  <g
     transform="translate(454.06356,-956)"
     id="layer4" />
  <g
     transform="translate(454.06356,-956)"
     id="layer12" />
  <g
     transform="translate(454.06356,-956)"
     id="layer9" />
  <g
     transform="translate(454.06356,-956)"
     id="layer10" />
  <g
     transform="translate(454.06356,-956)"
     id="layer6" />
</svg>
