<?xml version="1.0" encoding="UTF-8" standalone="no"?>
<!-- Created with Inkscape (http://www.inkscape.org/) -->
<svg
   xmlns:svg="http://www.w3.org/2000/svg"
   xmlns="http://www.w3.org/2000/svg"
   version="1.0"
   width="24.000061"
   height="24"
   id="svg7384">
  <title
     id="title9167">Moblin Icon Theme</title>
  <defs
     id="defs7386" />
  <g
     transform="translate(-103.99995,-661.99993)"
     id="layer3" />
  <g
     transform="translate(-103.99995,-661.99993)"
     id="layer5" />
  <g
     transform="translate(-103.99995,-661.99993)"
     id="layer7" />
  <g
     transform="translate(-103.99995,-661.99993)"
     id="layer2" />
  <g
     transform="translate(-103.99995,-661.99993)"
     id="layer8" />
  <g
     transform="translate(-103.99995,-1614.3621)"
     id="layer1" />
  <g
     transform="translate(-103.99995,-661.99993)"
     id="layer11">
    <rect
       width="24"
       height="24"
       x="-127.99995"
       y="661.99994"
       transform="scale(-1,1)"
       id="rect6648"
       style="opacity:0;fill:#ffffff;fill-opacity:1;stroke:none;display:inline" />
    <rect
       width="4.9581175"
       height="6.0000024"
       rx="2.4790587"
       ry="2.4790587"
       x="104.99995"
       y="670"
       id="rect6666"
       style="fill:#bebebe;fill-opacity:1;stroke:none;stroke-width:1;marker:none;visibility:visible;display:inline;overflow:visible;enable-background:accumulate" />
    <path
       d="M 126.89121,672.89009 C 126.36927,672.94614 125.9797,673.39793 125.99964,673.92403 C 125.99964,678.39956 122.40991,681.99999 117.94769,681.99999 C 113.75437,681.99998 110.3327,678.89224 109.92361,674.70648 C 109.86975,674.15088 109.37703,673.74427 108.82308,673.79828 C 108.26914,673.8523 107.86373,674.34649 107.91759,674.90209 C 108.42384,680.08201 112.75843,684.01198 117.94769,684.01199 C 123.49043,684.01199 128.00566,679.4833 128.00566,673.92403 C 128.01709,673.6314 127.90026,673.34842 127.68592,673.14956 C 127.47157,672.9507 127.18119,672.85589 126.89121,672.89009 z"
       id="path6668"
       style="fill:#bebebe;fill-opacity:1;stroke:none;stroke-width:2.23990917;stroke-linecap:round;stroke-linejoin:round;marker:none;stroke-miterlimit:4;stroke-dasharray:none;stroke-dashoffset:0;stroke-opacity:1;visibility:visible;display:inline;overflow:visible;enable-background:accumulate" />
    <path
       d="M 109.40625,674 C 109.13011,674.02589 108.92724,674.27073 108.95313,674.54688 C 108.97901,674.82302 109.22386,675.02589 109.5,675 L 110.84375,675 C 111.02407,675.00255 111.19179,674.90781 111.28269,674.75206 C 111.3736,674.59631 111.3736,674.40369 111.28269,674.24794 C 111.19179,674.09219 111.02407,673.99745 110.84375,674 L 109.5,674 C 109.46882,673.99706 109.43743,673.99706 109.40625,674 z"
       id="path6670"
       style="fill:#bebebe;fill-opacity:1;stroke:none;stroke-width:1;stroke-linecap:round;stroke-linejoin:round;marker:none;stroke-miterlimit:4;stroke-dasharray:none;stroke-dashoffset:0;stroke-opacity:1;visibility:visible;display:inline;overflow:visible;enable-background:accumulate" />
    <path
       d="M 126.96875,664.3125 C 126.86015,664.32643 126.75458,664.35811 126.65625,664.40625 L 118.90625,667.375 L 115.65625,665.15625 C 115.35204,664.94931 114.95877,664.92612 114.63235,665.09586 C 114.30592,665.2656 114.09905,665.60087 114.09375,665.96875 L 114.0625,669.0625 C 114.05387,669.61478 114.49459,670.0695 115.04687,670.07812 C 115.59916,670.08675 116.05387,669.64603 116.0625,669.09375 L 116.0625,667.875 L 118.1875,669.3125 C 118.45931,669.50864 118.8113,669.55557 119.125,669.4375 L 126,666.78125 L 126,674.78125 C 125.9949,675.14189 126.18438,675.47733 126.49587,675.65914 C 126.80737,675.84094 127.19263,675.84094 127.50413,675.65914 C 127.81562,675.47733 128.0051,675.14189 128,674.78125 L 128,665.3125 C 128.0001,665.04179 127.89046,664.7826 127.69612,664.59414 C 127.50177,664.40569 127.23933,664.30407 126.96875,664.3125 z"
       id="path6672"
       style="fill:#bebebe;fill-opacity:1;stroke:none;stroke-width:2;stroke-linecap:round;stroke-linejoin:round;marker:none;stroke-miterlimit:4;stroke-dasharray:none;stroke-dashoffset:0;stroke-opacity:1;visibility:visible;display:inline;overflow:visible;enable-background:accumulate" />
    <path
       d="M 112.99998,670.00918 C 111.3494,670.00918 110.00756,671.35056 110.00756,673.00056 C 110.00756,674.65057 111.3494,675.99195 112.99998,675.99195 C 114.65056,675.99195 115.9924,674.65057 115.9924,673.00056 C 115.9924,671.35056 114.65056,670.00918 112.99998,670.00918 z M 112.99998,670.99369 C 114.1094,670.99369 115.00755,671.89153 115.00755,673.00056 C 115.00755,674.10959 114.1094,675.00744 112.99998,675.00744 C 111.89056,675.00744 110.9924,674.10959 110.9924,673.00056 C 110.9924,671.89153 111.89056,670.99369 112.99998,670.99369 z"
       id="path6674"
       style="fill:#bebebe;fill-opacity:1;stroke:none;stroke-width:0.82514381;stroke-linecap:round;stroke-linejoin:round;marker:none;stroke-miterlimit:4;stroke-dasharray:none;stroke-dashoffset:0;stroke-opacity:1;visibility:visible;display:inline;overflow:visible;enable-background:accumulate" />
    <path
       d="M 120.00001,670.02434 C 117.79744,670.02434 116.02275,671.79844 116.02275,674.00028 C 116.02275,676.20213 117.79744,677.97623 120.00001,677.97623 C 122.20258,677.97623 123.97727,676.20213 123.97727,674.00028 C 123.97727,671.79844 122.20258,670.02434 120.00001,670.02434 z M 120.00001,670.97857 C 121.66142,670.97857 123.02272,672.33942 123.02272,674.00028 C 123.02272,675.66115 121.66142,677.022 120.00001,677.022 C 118.33859,677.022 116.97729,675.66115 116.97729,674.00028 C 116.97729,672.33942 118.33859,670.97857 120.00001,670.97857 z"
       id="path6676"
       style="fill:#bebebe;fill-opacity:1;stroke:none;stroke-width:0.58938521;stroke-linecap:round;stroke-linejoin:round;marker:none;stroke-miterlimit:4;stroke-dasharray:none;stroke-dashoffset:0;stroke-opacity:1;visibility:visible;display:inline;overflow:visible;enable-background:accumulate" />
    <path
       d="M 99,682.875 A 2.0625,2.0625 0 1 1 94.875,682.875 A 2.0625,2.0625 0 1 1 99,682.875 z"
       transform="matrix(0.6060648,0,0,0.6058451,54.8433,259.34646)"
       id="path6678"
       style="fill:#bebebe;fill-opacity:1;stroke:none;stroke-width:2.0629034;marker:none;visibility:visible;display:inline;overflow:visible;enable-background:accumulate" />
    <path
       d="M 121.33184,678.89051 C 121.30203,678.91418 121.27502,678.94118 121.25134,678.97098 C 121.22455,678.96882 121.19763,678.96882 121.17084,678.97098 C 120.05197,679.82623 118.85645,680.17213 117.46783,679.93668 C 117.44104,679.93452 117.41411,679.93452 117.38732,679.93668 C 117.36053,679.93452 117.33361,679.93452 117.30682,679.93668 C 117.22073,679.94223 117.13753,679.96995 117.06532,680.01715 C 117.03551,680.04083 117.00851,680.06783 116.98482,680.09763 C 116.93761,680.16981 116.90988,680.25298 116.90432,680.33905 C 116.90216,680.36583 116.90216,680.39274 116.90432,680.41953 C 116.89563,680.47282 116.89563,680.52718 116.90432,680.58048 C 116.9212,680.63855 116.94847,680.69308 116.98482,680.74142 C 117.00851,680.77123 117.03551,680.79822 117.06532,680.8219 C 117.11368,680.85824 117.16823,680.8855 117.22632,680.90237 C 117.25311,680.90454 117.28003,680.90454 117.30682,680.90237 C 118.94003,681.17928 120.49891,680.7816 121.81484,679.77573 C 121.8912,679.71293 121.94722,679.62892 121.97584,679.5343 C 121.978,679.50752 121.978,679.48061 121.97584,679.45383 C 121.98453,679.40053 121.98453,679.34618 121.97584,679.29288 C 121.978,679.2661 121.978,679.23919 121.97584,679.21241 C 121.95216,679.18261 121.92515,679.15561 121.89534,679.13193 C 121.85476,679.06662 121.79967,679.01154 121.73434,678.97098 C 121.68598,678.93464 121.63143,678.90738 121.57334,678.89051 C 121.54655,678.88834 121.51963,678.88834 121.49284,678.89051 C 121.43952,678.88181 121.38515,678.88181 121.33184,678.89051 L 121.33184,678.89051 z"
       id="path6680"
       style="fill:#bebebe;fill-opacity:1;stroke:none;stroke-width:0.38825926;stroke-linecap:round;stroke-linejoin:round;marker:none;stroke-miterlimit:4;stroke-dasharray:none;stroke-dashoffset:0;stroke-opacity:1;visibility:visible;display:inline;overflow:visible;enable-background:accumulate" />
    <path
       d="M 99,682.875 A 2.0625,2.0625 0 1 1 94.875,682.875 A 2.0625,2.0625 0 1 1 99,682.875 z"
       transform="matrix(0.7275355,0,0,0.7272717,49.974,176.86431)"
       id="path6682"
       style="fill:#bebebe;fill-opacity:1;stroke:none;stroke-width:2.0629034;marker:none;visibility:visible;display:inline;overflow:visible;enable-background:accumulate" />
  </g>
  <g
     transform="translate(-103.99995,-661.99993)"
     id="layer4" />
  <g
     transform="translate(-103.99995,-661.99993)"
     id="layer9" />
  <g
     transform="translate(-103.99995,-661.99993)"
     id="layer10" />
  <g
     transform="translate(-103.99995,-661.99993)"
     id="layer6" />
</svg>
