<?xml version="1.0" encoding="UTF-8" standalone="no"?>
<!-- Created with Inkscape (http://www.inkscape.org/) -->
<svg
   xmlns:svg="http://www.w3.org/2000/svg"
   xmlns="http://www.w3.org/2000/svg"
   version="1.0"
   width="24.000061"
   height="24"
   id="svg7384">
  <title
     id="title9167">Moblin Icon Theme</title>
  <defs
     id="defs7386" />
  <g
     transform="translate(565.85875,-870)"
     id="layer3" />
  <g
     transform="translate(565.85875,-870)"
     id="layer5" />
  <g
     transform="translate(565.85875,-870)"
     id="layer7" />
  <g
     transform="translate(565.85875,-870)"
     id="layer2" />
  <g
     transform="translate(565.85875,-870)"
     id="layer8" />
  <g
     transform="translate(565.85875,-1822.3622)"
     id="layer1" />
  <g
     transform="translate(565.85875,-870)"
     id="layer11">
    <rect
       width="24"
       height="24"
       x="541.85876"
       y="870"
       transform="scale(-1,1)"
       id="rect6648"
       style="opacity:0;fill:#ffffff;fill-opacity:1;stroke:none;display:inline" />
    <rect
       width="4.9581175"
       height="6.0000024"
       rx="2.4790587"
       ry="2.4790587"
       x="-564.85876"
       y="878.00006"
       id="rect6666"
       style="fill:#bebebe;fill-opacity:1;stroke:none;stroke-width:1;marker:none;visibility:visible;display:inline;overflow:visible;enable-background:accumulate" />
    <path
       d="M -542.96749,880.89016 C -543.48943,880.94621 -543.879,881.398 -543.85906,881.9241 C -543.85906,886.39963 -547.44879,890.00006 -551.91101,890.00006 C -556.10433,890.00005 -559.526,886.89231 -559.93509,882.70655 C -559.98895,882.15095 -560.48167,881.74434 -561.03562,881.79835 C -561.58956,881.85237 -561.99497,882.34656 -561.94111,882.90216 C -561.43486,888.08208 -557.10027,892.01205 -551.91101,892.01206 C -546.36827,892.01206 -541.85304,887.48337 -541.85304,881.9241 C -541.84161,881.63147 -541.95844,881.34849 -542.17278,881.14963 C -542.38713,880.95077 -542.67751,880.85596 -542.96749,880.89016 z"
       id="path6668"
       style="fill:#bebebe;fill-opacity:1;stroke:none;stroke-width:2.23990917;stroke-linecap:round;stroke-linejoin:round;marker:none;stroke-miterlimit:4;stroke-dasharray:none;stroke-dashoffset:0;stroke-opacity:1;visibility:visible;display:inline;overflow:visible;enable-background:accumulate" />
    <path
       d="M -542.96875,872.3125 C -543.08802,872.32292 -543.20445,872.35468 -543.3125,872.40625 L -551,875.375 L -554.46875,873.15625 C -554.77296,872.94931 -555.16623,872.92612 -555.49265,873.09586 C -555.81908,873.2656 -556.02595,873.60087 -556.03125,873.96875 L -556.0625,877.0625 C -556.07113,877.61478 -555.63041,878.0695 -555.07812,878.07812 C -554.52584,878.08675 -554.07113,877.64603 -554.0625,877.09375 L -554.0625,875.8125 L -551.625,877.34375 C -551.36349,877.50854 -551.04048,877.54315 -550.75,877.4375 L -543.9375,874.78125 L -543.9375,882.78125 C -543.9426,883.14189 -543.75312,883.47733 -543.44163,883.65914 C -543.13013,883.84094 -542.74487,883.84094 -542.43337,883.65914 C -542.12188,883.47733 -541.9324,883.14189 -541.9375,882.78125 L -541.9375,873.3125 C -541.9374,873.04179 -542.04704,872.7826 -542.24138,872.59414 C -542.43573,872.40569 -542.69817,872.30407 -542.96875,872.3125 z"
       id="path6672"
       style="fill:#bebebe;fill-opacity:1;stroke:none;stroke-width:2;stroke-linecap:round;stroke-linejoin:round;marker:none;stroke-miterlimit:4;stroke-dasharray:none;stroke-dashoffset:0;stroke-opacity:1;visibility:visible;display:inline;overflow:visible;enable-background:accumulate" />
    <path
       d="M 99,682.875 A 2.0625,2.0625 0 1 1 94.875,682.875 A 2.0625,2.0625 0 1 1 99,682.875 z"
       transform="matrix(0.6060648,0,0,0.6058451,-615.0154,467.34653)"
       id="path6678"
       style="fill:#bebebe;fill-opacity:1;stroke:none;stroke-width:2.0629034;marker:none;visibility:visible;display:inline;overflow:visible;enable-background:accumulate" />
    <path
       d="M 99,682.875 A 2.0625,2.0625 0 1 1 94.875,682.875 A 2.0625,2.0625 0 1 1 99,682.875 z"
       transform="matrix(0.7275355,0,0,0.7272717,-619.8847,384.86438)"
       id="path6682"
       style="fill:#bebebe;fill-opacity:1;stroke:none;stroke-width:2.0629034;marker:none;visibility:visible;display:inline;overflow:visible;enable-background:accumulate" />
  </g>
  <g
     transform="translate(565.85875,-870)"
     id="layer4" />
  <g
     transform="translate(565.85875,-870)"
     id="layer12" />
  <g
     transform="translate(565.85875,-870)"
     id="layer9" />
  <g
     transform="translate(565.85875,-870)"
     id="layer10" />
  <g
     transform="translate(565.85875,-870)"
     id="layer6" />
</svg>
