<?xml version="1.0" encoding="UTF-8" standalone="no"?>
<!-- Created with Inkscape (http://www.inkscape.org/) -->
<svg
   xmlns:svg="http://www.w3.org/2000/svg"
   xmlns="http://www.w3.org/2000/svg"
   version="1.0"
   width="24"
   height="24"
   id="svg7384">
  <title
     id="title9167">Moblin Icon Theme</title>
  <defs
     id="defs7386" />
  <g
     transform="translate(481.99995,-1134)"
     id="layer3" />
  <g
     transform="translate(481.99995,-1134)"
     id="layer5" />
  <g
     transform="translate(481.99995,-1134)"
     id="layer7" />
  <g
     transform="translate(481.99995,-1134)"
     id="layer2" />
  <g
     transform="translate(481.99995,-1134)"
     id="layer8" />
  <g
     transform="translate(481.99995,-2086.3622)"
     id="layer1" />
  <g
     transform="translate(481.99995,-1134)"
     id="layer11">
    <rect
       width="24"
       height="24"
       x="-481.99997"
       y="1134"
       id="rect9901"
       style="opacity:0;fill:#ffffff;fill-opacity:1;stroke:none;display:inline" />
    <g
       transform="translate(-8.0814524,772.99983)"
       id="g9903" />
    <g
       transform="translate(8.9186255,763.00467)"
       id="g9905">
      <path
         d="M -483.88026,378.00745 L -483.88026,387.99533 L -467.91858,387.99533 L -483.88026,378.00745 z"
         id="path9907"
         style="fill:#000000;fill-opacity:0;fill-rule:nonzero;stroke:#bebebe;stroke-width:2;stroke-linecap:round;stroke-linejoin:round;marker:none;stroke-miterlimit:4;stroke-dasharray:none;stroke-dashoffset:0;stroke-opacity:1;visibility:visible;display:inline;overflow:visible;enable-background:accumulate" />
      <path
         d="M -481.41858,382.5 L -481.41858,385.5 L -476.66858,385.5 L -481.41858,382.5 z"
         id="path9909"
         style="fill:none;stroke:#bebebe;stroke-width:1px;stroke-linecap:butt;stroke-linejoin:miter;stroke-opacity:1" />
    </g>
    <path
       d="M -479.625,1134.1562 C -480.87098,1134.1562 -481.90627,1135.1915 -481.90625,1136.4375 L -481.90625,1153.75 C -481.90625,1154.996 -480.90219,1156.0312 -479.65625,1156.0312 L -464.25,1156.0312 C -463.0871,1156.0312 -461.96873,1155.0898 -461.96875,1153.8438 C -461.96365,1153.4832 -462.15313,1153.1477 -462.46462,1152.9659 C -462.77612,1152.7841 -463.16138,1152.7841 -463.47288,1152.9659 C -463.78437,1153.1477 -463.97385,1153.4832 -463.96875,1153.8438 C -463.96875,1154.0165 -463.99428,1154.0312 -464.25,1154.0312 L -479.65625,1154.0312 C -479.82888,1154.0312 -479.90625,1153.9228 -479.90625,1153.75 L -479.90625,1136.4375 C -479.90625,1136.265 -479.79762,1136.1562 -479.625,1136.1562 L -464.25,1136.1562 C -464.07734,1136.1563 -463.96875,1136.2649 -463.96875,1136.4375 L -463.96875,1144.9688 C -463.97385,1145.3294 -463.78437,1145.6649 -463.47288,1145.8467 C -463.16138,1146.0285 -462.77612,1146.0285 -462.46462,1145.8467 C -462.15313,1145.6649 -461.96365,1145.3294 -461.96875,1144.9688 L -461.96875,1136.4375 C -461.96875,1135.1915 -463.00402,1134.1563 -464.25,1134.1562 L -479.625,1134.1562 z"
       id="rect9915"
       style="fill:#bebebe;fill-opacity:1;stroke:none;stroke-width:2;stroke-linecap:round;stroke-linejoin:round;marker:none;stroke-miterlimit:4;stroke-dashoffset:0;stroke-opacity:1;visibility:visible;display:inline;overflow:visible;enable-background:accumulate" />
    <rect
       width="17.942835"
       height="2.8284271"
       x="-480.94281"
       y="1135.1716"
       id="rect9918"
       style="fill:#bebebe;fill-opacity:1;stroke:none;stroke-width:2;marker:none;visibility:visible;display:inline;overflow:visible;enable-background:accumulate" />
  </g>
  <g
     transform="translate(481.99995,-1134)"
     id="layer4" />
  <g
     transform="translate(481.99995,-1134)"
     id="layer12" />
  <g
     transform="translate(481.99995,-1134)"
     id="layer9" />
  <g
     transform="translate(481.99995,-1134)"
     id="layer10" />
  <g
     transform="translate(481.99995,-1134)"
     id="layer6" />
</svg>
