<?xml version="1.0" encoding="UTF-8" standalone="no"?>
<!-- Created with Inkscape (http://www.inkscape.org/) -->
<svg
   xmlns:svg="http://www.w3.org/2000/svg"
   xmlns="http://www.w3.org/2000/svg"
   version="1.0"
   width="24"
   height="24"
   id="svg7384">
  <title
     id="title9167">Moblin Icon Theme</title>
  <defs
     id="defs7386" />
  <g
     transform="translate(482,-1184)"
     id="layer3" />
  <g
     transform="translate(482,-1184)"
     id="layer5" />
  <g
     transform="translate(482,-1184)"
     id="layer7" />
  <g
     transform="translate(482,-1184)"
     id="layer2" />
  <g
     transform="translate(482,-1184)"
     id="layer8" />
  <g
     transform="translate(482,-2136.3622)"
     id="layer1" />
  <g
     transform="translate(482,-1184)"
     id="layer11">
    <rect
       width="24"
       height="24"
       x="-482"
       y="1184"
       id="rect9901"
       style="opacity:0;fill:#ffffff;fill-opacity:1;stroke:none;display:inline" />
    <g
       transform="translate(-8.0814979,822.99983)"
       id="g9903" />
    <g
       transform="translate(8.91858,813.00467)"
       id="g9905">
      <path
         d="M -483.88026,378.00745 L -483.88026,387.99533 L -467.91858,387.99533 L -483.88026,378.00745 z"
         id="path9907"
         style="fill:#000000;fill-opacity:0;fill-rule:nonzero;stroke:#bebebe;stroke-width:2;stroke-linecap:round;stroke-linejoin:round;marker:none;stroke-miterlimit:4;stroke-dasharray:none;stroke-dashoffset:0;stroke-opacity:1;visibility:visible;display:inline;overflow:visible;enable-background:accumulate" />
      <path
         d="M -481.41858,382.5 L -481.41858,385.5 L -476.66858,385.5 L -481.41858,382.5 z"
         id="path9909"
         style="fill:none;stroke:#bebebe;stroke-width:1px;stroke-linecap:butt;stroke-linejoin:miter;stroke-opacity:1" />
    </g>
    <path
       d="M -479.65625,1184.1562 C -480.90223,1184.1562 -481.90625,1185.1915 -481.90625,1186.4375 L -481.90625,1203.75 C -481.90625,1204.996 -480.90219,1206.0312 -479.65625,1206.0312 L -464.25,1206.0312 C -463.0871,1206.0312 -461.96877,1205.0898 -461.96875,1203.8438 C -461.96365,1203.4832 -462.15313,1203.1477 -462.46462,1202.9659 C -462.77612,1202.7841 -463.16138,1202.7841 -463.47288,1202.9659 C -463.78437,1203.1477 -463.97385,1203.4832 -463.96875,1203.8438 C -463.96875,1204.0165 -463.99428,1204.0312 -464.25,1204.0312 L -479.65625,1204.0312 C -479.82892,1204.0312 -479.90625,1203.9228 -479.90625,1203.75 L -479.90625,1186.4375 C -479.90625,1186.265 -479.82887,1186.1562 -479.65625,1186.1562 L -464.25,1186.1562 C -464.07737,1186.1563 -463.96875,1186.2649 -463.96875,1186.4375 L -463.96875,1194.9688 C -463.97385,1195.3294 -463.78437,1195.6649 -463.47288,1195.8467 C -463.16138,1196.0285 -462.77612,1196.0285 -462.46462,1195.8467 C -462.15313,1195.6649 -461.96365,1195.3294 -461.96875,1194.9688 L -461.96875,1186.4375 C -461.96875,1185.1915 -463.00402,1184.1563 -464.25,1184.1562 L -479.65625,1184.1562 z"
       id="rect9915"
       style="fill:#bebebe;fill-opacity:1;stroke:none;stroke-width:2;stroke-linecap:round;stroke-linejoin:round;marker:none;stroke-miterlimit:4;stroke-dashoffset:0;stroke-opacity:1;visibility:visible;display:inline;overflow:visible;enable-background:accumulate" />
    <rect
       width="17.942835"
       height="2.8284271"
       x="-480.94284"
       y="1185.1716"
       id="rect9918"
       style="fill:#bebebe;fill-opacity:1;stroke:none;stroke-width:2;marker:none;visibility:visible;display:inline;overflow:visible;enable-background:accumulate" />
  </g>
  <g
     transform="translate(482,-1184)"
     id="layer4" />
  <g
     transform="translate(482,-1184)"
     id="layer9" />
  <g
     transform="translate(482,-1184)"
     id="layer10" />
  <g
     transform="translate(482,-1184)"
     id="layer6" />
</svg>
