<?xml version="1.0" encoding="UTF-8" standalone="no"?>
<!-- Created with Inkscape (http://www.inkscape.org/) -->
<svg
   xmlns:svg="http://www.w3.org/2000/svg"
   xmlns="http://www.w3.org/2000/svg"
   version="1.0"
   width="24.000095"
   height="24.000042"
   id="svg7384">
  <title
     id="title9167">Moblin Icon Theme</title>
  <defs
     id="defs7386" />
  <g
     transform="translate(566.0001,-1274)"
     id="layer3" />
  <g
     transform="translate(566.0001,-1274)"
     id="layer5" />
  <g
     transform="translate(566.0001,-1274)"
     id="layer7" />
  <g
     transform="translate(566.0001,-1274)"
     id="layer2" />
  <g
     transform="translate(566.0001,-1274)"
     id="layer8" />
  <g
     transform="translate(566.0001,-2226.3622)"
     id="layer1" />
  <g
     transform="translate(566.0001,-1274)"
     id="layer11">
    <rect
       width="24"
       height="24"
       x="-566"
       y="1274"
       id="rect11163"
       style="opacity:0;fill:#ffffff;fill-opacity:1;stroke:none;display:inline" />
    <path
       d="M -587,1276.9688 A 2.03125,2.03125 0 1 1 -591.0625,1276.9688 A 2.03125,2.03125 0 1 1 -587,1276.9688 z"
       transform="matrix(1.9692443,0,0,1.9692443,597.9464,-1236.6633)"
       id="path11165"
       style="fill:#bebebe;fill-opacity:1;fill-rule:nonzero;stroke:none;stroke-width:2;marker:none;visibility:visible;display:inline;overflow:visible;enable-background:accumulate" />
    <path
       d="M -562.0001,1281.9847 C -564.19717,1281.9847 -566.01548,1283.8031 -566.01548,1286.0001 C -566.01548,1288.197 -564.19717,1290.0154 -562.0001,1290.0154 C -559.80303,1290.0154 -557.98472,1288.197 -557.98472,1286.0001 C -557.98472,1283.8031 -559.80303,1281.9847 -562.0001,1281.9847 z M -562.0001,1284.0154 C -560.88517,1284.0154 -560.01549,1284.885 -560.01549,1286.0001 C -560.01549,1287.115 -560.88517,1287.9847 -562.0001,1287.9847 C -563.11503,1287.9847 -563.98471,1287.115 -563.98471,1286.0001 C -563.98471,1284.885 -563.11503,1284.0154 -562.0001,1284.0154 z"
       id="path11167"
       style="fill:#bebebe;fill-opacity:1;stroke:none;stroke-width:1.35416842;stroke-linecap:round;stroke-linejoin:miter;marker:none;stroke-miterlimit:4.30000019;stroke-dasharray:none;stroke-dashoffset:0;stroke-opacity:1;visibility:visible;display:inline;overflow:visible;enable-background:accumulate" />
    <path
       d="M -562.0001,1289.9847 C -564.19717,1289.9847 -566.01548,1291.8031 -566.01548,1294.0001 C -566.01548,1296.197 -564.19717,1298.0154 -562.0001,1298.0154 C -559.80303,1298.0154 -557.98472,1296.197 -557.98472,1294.0001 C -557.98472,1291.8031 -559.80303,1289.9847 -562.0001,1289.9847 z M -562.0001,1292.0154 C -560.88517,1292.0154 -560.01549,1292.885 -560.01549,1294.0001 C -560.01549,1295.115 -560.88517,1295.9847 -562.0001,1295.9847 C -563.11503,1295.9847 -563.98471,1295.115 -563.98471,1294.0001 C -563.98471,1292.885 -563.11503,1292.0154 -562.0001,1292.0154 z"
       id="path11181"
       style="fill:#bebebe;fill-opacity:1;stroke:none;stroke-width:1.35416842;stroke-linecap:round;stroke-linejoin:miter;marker:none;stroke-miterlimit:4.30000019;stroke-dasharray:none;stroke-dashoffset:0;stroke-opacity:1;visibility:visible;display:inline;overflow:visible;enable-background:accumulate" />
    <path
       d="M -554,1281.9847 C -556.19707,1281.9847 -558.01538,1283.8031 -558.01538,1286.0001 C -558.01538,1288.197 -556.19707,1290.0154 -554,1290.0154 C -551.80293,1290.0154 -549.98462,1288.197 -549.98462,1286.0001 C -549.98462,1283.8031 -551.80293,1281.9847 -554,1281.9847 z M -554,1284.0154 C -552.88507,1284.0154 -552.01539,1284.885 -552.01539,1286.0001 C -552.01539,1287.115 -552.88507,1287.9847 -554,1287.9847 C -555.11493,1287.9847 -555.98461,1287.115 -555.98461,1286.0001 C -555.98461,1284.885 -555.11493,1284.0154 -554,1284.0154 z"
       id="path11183"
       style="fill:#bebebe;fill-opacity:1;stroke:none;stroke-width:1.35416842;stroke-linecap:round;stroke-linejoin:miter;marker:none;stroke-miterlimit:4.30000019;stroke-dasharray:none;stroke-dashoffset:0;stroke-opacity:1;visibility:visible;display:inline;overflow:visible;enable-background:accumulate" />
    <path
       d="M -547,1273.9847 C -549.19707,1273.9847 -551.01538,1275.8031 -551.01538,1278.0001 C -551.01538,1280.197 -549.19707,1282.0154 -547,1282.0154 C -544.80293,1282.0154 -542.98462,1280.197 -542.98462,1278.0001 C -542.98462,1275.8031 -544.80293,1273.9847 -547,1273.9847 z M -547,1276.0154 C -545.88507,1276.0154 -545.01539,1276.885 -545.01539,1278.0001 C -545.01539,1279.115 -545.88507,1279.9847 -547,1279.9847 C -548.11493,1279.9847 -548.98461,1279.115 -548.98461,1278.0001 C -548.98461,1276.885 -548.11493,1276.0154 -547,1276.0154 z"
       id="path11185"
       style="fill:#bebebe;fill-opacity:1;stroke:none;stroke-width:1.35416842;stroke-linecap:round;stroke-linejoin:miter;marker:none;stroke-miterlimit:4.30000019;stroke-dasharray:none;stroke-dashoffset:0;stroke-opacity:1;visibility:visible;display:inline;overflow:visible;enable-background:accumulate" />
    <path
       d="M -587,1276.9688 A 2.03125,2.03125 0 1 1 -591.0625,1276.9688 A 2.03125,2.03125 0 1 1 -587,1276.9688 z"
       transform="matrix(1.9692443,0,0,1.9692443,605.9464,-1220.6634)"
       id="path11187"
       style="fill:#bebebe;fill-opacity:1;fill-rule:nonzero;stroke:none;stroke-width:2;marker:none;visibility:visible;display:inline;overflow:visible;enable-background:accumulate" />
    <path
       d="M -587,1276.9688 A 2.03125,2.03125 0 1 1 -591.0625,1276.9688 A 2.03125,2.03125 0 1 1 -587,1276.9688 z"
       transform="matrix(1.9692443,0,0,1.9692443,613.9464,-1220.6634)"
       id="path11189"
       style="fill:#bebebe;fill-opacity:1;fill-rule:nonzero;stroke:none;stroke-width:2;marker:none;visibility:visible;display:inline;overflow:visible;enable-background:accumulate" />
  </g>
  <g
     transform="translate(566.0001,-1274)"
     id="layer4" />
  <g
     transform="translate(566.0001,-1274)"
     id="layer9" />
  <g
     transform="translate(566.0001,-1274)"
     id="layer10" />
  <g
     transform="translate(566.0001,-1274)"
     id="layer6" />
</svg>
