<?xml version="1.0" encoding="UTF-8" standalone="no"?>
<!-- Created with Inkscape (http://www.inkscape.org/) -->
<svg
   xmlns:svg="http://www.w3.org/2000/svg"
   xmlns="http://www.w3.org/2000/svg"
   version="1.0"
   width="24"
   height="24.004457"
   id="svg7384">
  <title
     id="title9167">Moblin Icon Theme</title>
  <defs
     id="defs7386" />
  <g
     transform="translate(538,-1303.9976)"
     id="layer3" />
  <g
     transform="translate(538,-1303.9976)"
     id="layer5" />
  <g
     transform="translate(538,-1303.9976)"
     id="layer7" />
  <g
     transform="translate(538,-1303.9976)"
     id="layer2" />
  <g
     transform="translate(538,-1303.9976)"
     id="layer8" />
  <g
     transform="translate(538,-2256.3598)"
     id="layer1" />
  <g
     transform="translate(538,-1303.9976)"
     id="layer11">
    <rect
       width="24"
       height="24"
       x="-538"
       y="1304"
       id="rect11466"
       style="opacity:0;fill:#ffffff;fill-opacity:1;stroke:none;display:inline" />
    <path
       d="M -522.61533,1327.5072 C -528.95507,1329.389 -535.62618,1325.7239 -537.50753,1319.3842 C -537.5267,1319.2723 -537.5267,1319.1581 -537.50753,1319.0463 C -537.51233,1318.9899 -537.51233,1318.9332 -537.50753,1318.8768 C -537.51233,1318.8204 -537.51233,1318.7636 -537.50753,1318.7073 C -537.45808,1318.6444 -537.40126,1318.5876 -537.3383,1318.5383 C -537.28885,1318.4754 -537.23203,1318.4187 -537.16907,1318.3693 C -537.06807,1318.2918 -536.95319,1318.2343 -536.83061,1318.1998 C -536.7743,1318.1951 -536.71769,1318.1951 -536.66138,1318.1998 C -536.60507,1318.1951 -536.54846,1318.1951 -536.49215,1318.1998 C -536.38015,1318.1806 -536.26569,1318.1806 -536.15369,1318.1998 C -536.03111,1318.2343 -535.91623,1318.2918 -535.81523,1318.3693 C -535.73786,1318.4702 -535.68043,1318.5849 -535.646,1318.7073 C -535.64121,1318.7636 -535.64121,1318.8204 -535.646,1318.8768 C -534.07252,1324.1789 -528.4254,1327.2196 -523.12302,1325.6459 C -519.64977,1324.6154 -517.29469,1322.0371 -516.35383,1318.5383 C -516.31947,1318.4157 -516.26204,1318.3009 -516.1846,1318.1998 C -516.13519,1318.1368 -516.07837,1318.0799 -516.01537,1318.0303 C -515.91433,1317.953 -515.79945,1317.8956 -515.67691,1317.8614 C -515.56491,1317.8421 -515.45046,1317.8421 -515.33845,1317.8614 C -515.28215,1317.8566 -515.22553,1317.8566 -515.16923,1317.8614 C -515.04668,1317.8956 -514.93181,1317.953 -514.83077,1318.0303 C -514.76777,1318.0799 -514.71095,1318.1368 -514.66154,1318.1998 C -514.5841,1318.3009 -514.52666,1318.4157 -514.49231,1318.5383 C -514.42934,1318.5876 -514.37253,1318.6444 -514.32308,1318.7073 C -514.31828,1318.7636 -514.31828,1318.8204 -514.32308,1318.8768 C -514.37249,1318.9398 -514.42931,1318.9967 -514.49231,1319.0463 C -515.59845,1323.1597 -518.53161,1326.2958 -522.61533,1327.5072 z"
       id="path11472"
       style="fill:#bebebe;fill-opacity:1;stroke:none;stroke-width:0.36932078;stroke-linecap:round;marker:none;stroke-miterlimit:4.30000019;stroke-dasharray:none;stroke-opacity:1;visibility:visible;display:inline;overflow:visible;enable-background:accumulate" />
    <path
       d="M -536,1312 L -536,1313 L -536,1319 L -536,1320 L -535,1320 L -517,1320 L -516,1320 L -516,1319 L -516,1313 L -516,1312 L -517,1312 L -535,1312 L -536,1312 z M -534,1314 L -518,1314 L -518,1318 L -534,1318 L -534,1314 z"
       id="rect11476"
       style="fill:#bebebe;fill-opacity:1;stroke:none;stroke-width:2.00000048;stroke-linecap:butt;stroke-linejoin:miter;marker:none;stroke-miterlimit:4.30000019;stroke-dasharray:none;stroke-dashoffset:0;stroke-opacity:1;visibility:visible;display:inline;overflow:visible;enable-background:accumulate" />
    <path
       d="M -536.83061,1314.1383 C -536.89361,1314.0888 -536.95042,1314.0319 -536.99984,1313.9688 C -537.22603,1313.8683 -537.40692,1313.6875 -537.50753,1313.4614 C -537.51233,1313.405 -537.51233,1313.3483 -537.50753,1313.2919 C -537.57049,1313.2426 -537.62731,1313.1858 -537.67676,1313.1229 C -537.6424,1313.0004 -537.58496,1312.8855 -537.50753,1312.7845 C -536.36143,1308.6472 -533.3493,1305.6503 -529.21528,1304.492 C -522.84721,1302.7092 -516.27553,1306.4166 -514.49231,1312.7845 C -514.44869,1312.9508 -514.44869,1313.1256 -514.49231,1313.2919 C -514.48751,1313.3483 -514.48751,1313.405 -514.49231,1313.4614 C -514.54172,1313.5245 -514.59854,1313.5814 -514.66154,1313.6309 C -514.74537,1313.7693 -514.86151,1313.8852 -515,1313.9688 C -515.0563,1313.9736 -515.11292,1313.9736 -515.16923,1313.9688 C -515.28123,1313.9881 -515.39568,1313.9881 -515.50768,1313.9688 C -515.56399,1313.9736 -515.62061,1313.9736 -515.67691,1313.9688 C -515.73322,1313.9736 -515.78983,1313.9736 -515.84614,1313.9688 C -515.90911,1313.9195 -515.96592,1313.8627 -516.01537,1313.7999 C -516.07834,1313.7505 -516.13515,1313.6938 -516.1846,1313.6309 C -516.2621,1313.5297 -516.31954,1313.4147 -516.35383,1313.2919 C -517.84522,1307.9659 -523.3816,1304.8624 -528.70759,1306.3538 C -532.22323,1307.3383 -534.6714,1309.7741 -535.646,1313.2919 C -535.64121,1313.3483 -535.64121,1313.405 -535.646,1313.4614 C -535.69542,1313.5245 -535.75224,1313.5814 -535.81523,1313.6309 C -535.89906,1313.7693 -536.0152,1313.8852 -536.15369,1313.9688 C -536.30438,1314.0704 -536.4799,1314.129 -536.66138,1314.1383 C -536.71769,1314.1431 -536.7743,1314.1431 -536.83061,1314.1383 z"
       id="path11478"
       style="fill:#bebebe;fill-opacity:1;stroke:none;stroke-width:0.36932078;stroke-linecap:round;marker:none;stroke-miterlimit:4.30000019;stroke-dasharray:none;stroke-opacity:1;visibility:visible;display:inline;overflow:visible;enable-background:accumulate" />
    <path
       d="M -529.9375,1315.9375 A 1,1 0 1 1 -531.9375,1315.9375 A 1,1 0 1 1 -529.9375,1315.9375 z"
       id="path11480"
       style="fill:#bebebe;fill-opacity:1;stroke:none;stroke-width:2;stroke-linecap:round;stroke-linejoin:miter;marker:none;stroke-miterlimit:4.30000019;stroke-dasharray:none;stroke-dashoffset:0;stroke-opacity:1;visibility:visible;display:inline;overflow:visible;enable-background:accumulate" />
    <path
       d="M -529.9375,1315.9375 A 1,1 0 1 1 -531.9375,1315.9375 A 1,1 0 1 1 -529.9375,1315.9375 z"
       transform="translate(4.9375,0)"
       id="path11482"
       style="fill:#bebebe;fill-opacity:1;stroke:none;stroke-width:2;marker:none;visibility:visible;display:inline;overflow:visible;enable-background:accumulate" />
    <path
       d="M -529.9375,1315.9375 A 1,1 0 1 1 -531.9375,1315.9375 A 1,1 0 1 1 -529.9375,1315.9375 z"
       transform="translate(9.9375,0)"
       id="path11484"
       style="fill:#bebebe;fill-opacity:1;stroke:none;stroke-width:2;marker:none;visibility:visible;display:inline;overflow:visible;enable-background:accumulate" />
  </g>
  <g
     transform="translate(538,-1303.9976)"
     id="layer4" />
  <g
     transform="translate(538,-1303.9976)"
     id="layer9" />
  <g
     transform="translate(538,-1303.9976)"
     id="layer10" />
  <g
     transform="translate(538,-1303.9976)"
     id="layer6" />
</svg>
