<?xml version="1.0" encoding="UTF-8" standalone="no"?>
<!-- Created with Inkscape (http://www.inkscape.org/) -->
<svg
   xmlns:svg="http://www.w3.org/2000/svg"
   xmlns="http://www.w3.org/2000/svg"
   version="1.0"
   width="24"
   height="24"
   id="svg7384">
  <title
     id="title9167">Moblin Icon Theme</title>
  <defs
     id="defs7386" />
  <g
     transform="translate(592,-1094)"
     id="layer3" />
  <g
     transform="translate(592,-1094)"
     id="layer5" />
  <g
     transform="translate(592,-1094)"
     id="layer7" />
  <g
     transform="translate(592,-1094)"
     id="layer2" />
  <g
     transform="translate(592,-1094)"
     id="layer8" />
  <g
     transform="translate(592,-2046.3622)"
     id="layer1" />
  <g
     transform="translate(592,-1094)"
     id="layer11">
    <rect
       width="24"
       height="24"
       x="-592"
       y="1094"
       id="rect6514-4"
       style="opacity:0;fill:#ffffff;fill-opacity:1;stroke:none;display:inline" />
    <path
       d="M -571,1095.8438 C -571.1299,1095.8504 -571.25728,1095.8822 -571.375,1095.9375 L -589.40625,1104.1562 C -589.87334,1104.3266 -590.1443,1104.8143 -590.04227,1105.3009 C -589.94024,1105.7876 -589.49621,1106.1253 -589,1106.0938 L -581.90625,1106.0938 C -581.54561,1106.0989 -581.21017,1105.9094 -581.02836,1105.5979 C -580.84656,1105.2864 -580.84656,1104.9012 -581.02836,1104.5897 C -581.21017,1104.2782 -581.54561,1104.0887 -581.90625,1104.0938 L -584.375,1104.0938 L -571.96875,1098.4375 L -571.96875,1104.0938 L -572.28125,1104.0938 C -572.64189,1104.0887 -572.97733,1104.2782 -573.15914,1104.5897 C -573.34094,1104.9012 -573.34094,1105.2864 -573.15914,1105.5979 C -572.97733,1105.9094 -572.64189,1106.0989 -572.28125,1106.0938 L -570.96875,1106.0938 C -570.41649,1106.0937 -569.96881,1105.6461 -569.96875,1105.0938 L -569.96875,1096.8438 C -569.96865,1096.5731 -570.07829,1096.3139 -570.27263,1096.1254 C -570.46698,1095.937 -570.72942,1095.8354 -571,1095.8438 z"
       id="path6528-1"
       style="fill:#bebebe;fill-opacity:1;stroke:none;stroke-width:2;stroke-linecap:round;stroke-linejoin:round;marker:none;stroke-miterlimit:4;stroke-dasharray:none;stroke-dashoffset:0;stroke-opacity:1;visibility:visible;display:inline;overflow:visible;enable-background:accumulate" />
    <path
       d="M -588.78125,1108 C -589.44137,1108 -590,1108.5587 -590,1109.2188 L -590,1109.7812 C -590,1110.4413 -589.44136,1111 -588.78125,1111 L -581.5,1111 C -581.31968,1111.0026 -581.15196,1110.9078 -581.06106,1110.7521 C -580.97015,1110.5963 -580.97015,1110.4037 -581.06106,1110.2479 C -581.15196,1110.0922 -581.31968,1109.9974 -581.5,1110 L -588.78125,1110 C -588.90458,1110 -589,1109.9046 -589,1109.7812 L -589,1109.2188 C -589,1109.0953 -588.90461,1109 -588.78125,1109 L -581.5,1109 C -581.31968,1109.0026 -581.15196,1108.9078 -581.06106,1108.7521 C -580.97015,1108.5963 -580.97015,1108.4037 -581.06106,1108.2479 C -581.15196,1108.0922 -581.31968,1107.9974 -581.5,1108 L -588.78125,1108 z M -572.5625,1108 C -572.83864,1108.0345 -573.03452,1108.2864 -573,1108.5625 C -572.96548,1108.8386 -572.71364,1109.0345 -572.4375,1109 L -571.21875,1109 C -571.09542,1109 -571,1109.0954 -571,1109.2188 L -571,1109.7812 C -571,1109.9047 -571.09539,1110 -571.21875,1110 L -572.4375,1110 C -572.61782,1109.9974 -572.78554,1110.0922 -572.87644,1110.2479 C -572.96735,1110.4037 -572.96735,1110.5963 -572.87644,1110.7521 C -572.78554,1110.9078 -572.61782,1111.0026 -572.4375,1111 L -571.21875,1111 C -570.55863,1111 -570,1110.4413 -570,1109.7812 L -570,1109.2188 C -570,1108.5587 -570.55864,1108 -571.21875,1108 L -572.4375,1108 C -572.479,1107.9948 -572.521,1107.9948 -572.5625,1108 L -572.5625,1108 z"
       id="rect7153"
       style="fill:#bebebe;fill-opacity:1;stroke:none;stroke-width:1;stroke-linecap:round;marker:none;stroke-opacity:1;visibility:visible;display:inline;overflow:visible;enable-background:accumulate" />
    <path
       d="M -578.28125,1104 C -579.20969,1104 -580,1104.7903 -580,1105.7188 L -580,1112.2812 C -580,1113.2097 -579.20973,1114.0001 -578.28125,1114 L -575.71875,1114 C -574.79031,1114 -574,1113.2097 -574,1112.2812 L -574,1105.7188 C -574,1104.7903 -574.7903,1104 -575.71875,1104 L -578.28125,1104 z M -578,1106 L -576,1106 L -576,1112 L -578,1112 L -578,1106 z"
       id="rect7155"
       style="fill:#bebebe;fill-opacity:1;stroke:none;stroke-width:1.99999988;stroke-linecap:round;stroke-linejoin:round;marker:none;stroke-miterlimit:4;stroke-dasharray:none;stroke-dashoffset:0;stroke-opacity:1;visibility:visible;display:inline;overflow:visible;enable-background:accumulate" />
  </g>
  <g
     transform="translate(592,-1094)"
     id="layer4" />
  <g
     transform="translate(592,-1094)"
     id="layer9" />
  <g
     transform="translate(592,-1094)"
     id="layer10" />
  <g
     transform="translate(592,-1094)"
     id="layer6" />
</svg>
