<?xml version="1.0" encoding="UTF-8" standalone="no"?>
<!-- Created with Inkscape (http://www.inkscape.org/) -->
<svg
   xmlns:svg="http://www.w3.org/2000/svg"
   xmlns="http://www.w3.org/2000/svg"
   version="1.0"
   width="24.000093"
   height="24.000084"
   id="svg7384">
  <title
     id="title9167">Moblin Icon Theme</title>
  <defs
     id="defs7386" />
  <g
     transform="translate(592.00005,-1274)"
     id="layer3" />
  <g
     transform="translate(592.00005,-1274)"
     id="layer5" />
  <g
     transform="translate(592.00005,-1274)"
     id="layer7" />
  <g
     transform="translate(592.00005,-1274)"
     id="layer2" />
  <g
     transform="translate(592.00005,-1274)"
     id="layer8" />
  <g
     transform="translate(592.00005,-2226.3622)"
     id="layer1" />
  <g
     transform="translate(592.00005,-1274)"
     id="layer11">
    <rect
       width="24"
       height="24"
       x="-592"
       y="1274"
       id="rect11112"
       style="opacity:0;fill:#ffffff;fill-opacity:1;stroke:none;display:inline" />
    <path
       d="M -587,1276.9688 A 2.03125,2.03125 0 1 1 -591.0625,1276.9688 A 2.03125,2.03125 0 1 1 -587,1276.9688 z"
       transform="matrix(1.4769214,0,0,1.4769214,280.9528,-608.9824)"
       id="path11124"
       style="fill:#bebebe;fill-opacity:1;fill-rule:nonzero;stroke:none;stroke-width:2;marker:none;visibility:visible;display:inline;overflow:visible;enable-background:accumulate" />
    <path
       d="M -589.00001,1280.0154 C -590.64511,1280.0154 -591.98469,1281.355 -591.98469,1283.0001 C -591.98469,1284.6452 -590.64511,1285.9848 -589.00001,1285.9848 C -587.35492,1285.9848 -586.01534,1284.6452 -586.01534,1283.0001 C -586.01534,1281.355 -587.35492,1280.0154 -589.00001,1280.0154 z M -589.00001,1281.9847 C -588.43706,1281.9847 -587.98461,1282.4371 -587.98461,1283.0001 C -587.98461,1283.563 -588.43706,1284.0155 -589.00001,1284.0155 C -589.56297,1284.0155 -590.01542,1283.563 -590.01542,1283.0001 C -590.01542,1282.4371 -589.56297,1281.9847 -589.00001,1281.9847 z"
       id="path11139"
       style="fill:#bebebe;fill-opacity:1;stroke:none;stroke-width:2.0312078;stroke-linecap:round;stroke-linejoin:miter;marker:none;stroke-miterlimit:4.30000019;stroke-dasharray:none;stroke-dashoffset:0;stroke-opacity:1;visibility:visible;display:inline;overflow:visible;enable-background:accumulate" />
    <path
       d="M -587,1276.9688 A 2.03125,2.03125 0 1 1 -591.0625,1276.9688 A 2.03125,2.03125 0 1 1 -587,1276.9688 z"
       transform="matrix(1.4769214,0,0,1.4769214,280.9528,-596.9824)"
       id="path11149"
       style="fill:#bebebe;fill-opacity:1;fill-rule:nonzero;stroke:none;stroke-width:2;marker:none;visibility:visible;display:inline;overflow:visible;enable-background:accumulate" />
    <path
       d="M -589.00001,1292.0154 C -590.64511,1292.0154 -591.98469,1293.355 -591.98469,1295.0001 C -591.98469,1296.6452 -590.64511,1297.9848 -589.00001,1297.9848 C -587.35492,1297.9848 -586.01534,1296.6452 -586.01534,1295.0001 C -586.01534,1293.355 -587.35492,1292.0154 -589.00001,1292.0154 z M -589.00001,1293.9847 C -588.43706,1293.9847 -587.98461,1294.4371 -587.98461,1295.0001 C -587.98461,1295.563 -588.43706,1296.0155 -589.00001,1296.0155 C -589.56297,1296.0155 -590.01542,1295.563 -590.01542,1295.0001 C -590.01542,1294.4371 -589.56297,1293.9847 -589.00001,1293.9847 z"
       id="path11151"
       style="fill:#bebebe;fill-opacity:1;stroke:none;stroke-width:2.0312078;stroke-linecap:round;stroke-linejoin:miter;marker:none;stroke-miterlimit:4.30000019;stroke-dasharray:none;stroke-dashoffset:0;stroke-opacity:1;visibility:visible;display:inline;overflow:visible;enable-background:accumulate" />
    <path
       d="M -571.00001,1286.0153 C -572.64511,1286.0153 -573.98469,1287.3549 -573.98469,1289 C -573.98469,1290.6451 -572.64511,1291.9847 -571.00001,1291.9847 C -569.35492,1291.9847 -568.01534,1290.6451 -568.01534,1289 C -568.01534,1287.3549 -569.35492,1286.0153 -571.00001,1286.0153 z M -571.00001,1287.9846 C -570.43706,1287.9846 -569.98461,1288.437 -569.98461,1289 C -569.98461,1289.5629 -570.43706,1290.0154 -571.00001,1290.0154 C -571.56297,1290.0154 -572.01542,1289.5629 -572.01542,1289 C -572.01542,1288.437 -571.56297,1287.9846 -571.00001,1287.9846 z"
       id="path11153"
       style="fill:#bebebe;fill-opacity:1;stroke:none;stroke-width:2.0312078;stroke-linecap:round;stroke-linejoin:miter;marker:none;stroke-miterlimit:4.30000019;stroke-dasharray:none;stroke-dashoffset:0;stroke-opacity:1;visibility:visible;display:inline;overflow:visible;enable-background:accumulate" />
    <path
       d="M -587,1276.9688 A 2.03125,2.03125 0 1 1 -591.0625,1276.9688 A 2.03125,2.03125 0 1 1 -587,1276.9688 z"
       transform="matrix(1.4769214,0,0,1.4769214,292.9529,-596.9825)"
       id="path11155"
       style="fill:#bebebe;fill-opacity:1;fill-rule:nonzero;stroke:none;stroke-width:2;marker:none;visibility:visible;display:inline;overflow:visible;enable-background:accumulate" />
    <path
       d="M -587,1276.9688 A 2.03125,2.03125 0 1 1 -591.0625,1276.9688 A 2.03125,2.03125 0 1 1 -587,1276.9688 z"
       transform="matrix(1.4769214,0,0,1.4769214,298.9529,-590.9825)"
       id="path11157"
       style="fill:#bebebe;fill-opacity:1;fill-rule:nonzero;stroke:none;stroke-width:2;marker:none;visibility:visible;display:inline;overflow:visible;enable-background:accumulate" />
    <path
       d="M -577.00001,1274.0154 C -578.64511,1274.0154 -579.98469,1275.355 -579.98469,1277.0001 C -579.98469,1278.6452 -578.64511,1279.9848 -577.00001,1279.9848 C -575.35492,1279.9848 -574.01534,1278.6452 -574.01534,1277.0001 C -574.01534,1275.355 -575.35492,1274.0154 -577.00001,1274.0154 z M -577.00001,1275.9847 C -576.43706,1275.9847 -575.98461,1276.4371 -575.98461,1277.0001 C -575.98461,1277.563 -576.43706,1278.0155 -577.00001,1278.0155 C -577.56297,1278.0155 -578.01542,1277.563 -578.01542,1277.0001 C -578.01542,1276.4371 -577.56297,1275.9847 -577.00001,1275.9847 z"
       id="path11159"
       style="fill:#bebebe;fill-opacity:1;stroke:none;stroke-width:2.0312078;stroke-linecap:round;stroke-linejoin:miter;marker:none;stroke-miterlimit:4.30000019;stroke-dasharray:none;stroke-dashoffset:0;stroke-opacity:1;visibility:visible;display:inline;overflow:visible;enable-background:accumulate" />
  </g>
  <g
     transform="translate(592.00005,-1274)"
     id="layer4" />
  <g
     transform="translate(592.00005,-1274)"
     id="layer9" />
  <g
     transform="translate(592.00005,-1274)"
     id="layer10" />
  <g
     transform="translate(592.00005,-1274)"
     id="layer6" />
</svg>
