<?xml version="1.0" encoding="UTF-8" standalone="no"?>
<!-- Created with Inkscape (http://www.inkscape.org/) -->
<svg
   xmlns:svg="http://www.w3.org/2000/svg"
   xmlns="http://www.w3.org/2000/svg"
   version="1.0"
   width="24"
   height="24"
   id="svg7384">
  <title
     id="title9167">Moblin Icon Theme</title>
  <defs
     id="defs7386" />
  <g
     transform="translate(591.99995,-1044)"
     id="layer3" />
  <g
     transform="translate(591.99995,-1044)"
     id="layer5" />
  <g
     transform="translate(591.99995,-1044)"
     id="layer7" />
  <g
     transform="translate(591.99995,-1044)"
     id="layer2" />
  <g
     transform="translate(591.99995,-1044)"
     id="layer8" />
  <g
     transform="translate(591.99995,-1996.3622)"
     id="layer1" />
  <g
     transform="translate(591.99995,-1044)"
     id="layer11">
    <rect
       width="24"
       height="24"
       x="-591.99994"
       y="1044"
       id="rect6514-4"
       style="opacity:0;fill:#ffffff;fill-opacity:1;stroke:none;display:inline" />
    <path
       d="M -571,1045.8438 C -571.1299,1045.8504 -571.25728,1045.8822 -571.375,1045.9375 L -589.40625,1054.1562 C -589.87334,1054.3266 -590.1443,1054.8143 -590.04227,1055.3009 C -589.94024,1055.7876 -589.49621,1056.1253 -589,1056.0938 L -581.90625,1056.0938 C -581.54561,1056.0989 -581.21017,1055.9094 -581.02836,1055.5979 C -580.84656,1055.2864 -580.84656,1054.9012 -581.02836,1054.5897 C -581.21017,1054.2782 -581.54561,1054.0887 -581.90625,1054.0938 L -584.375,1054.0938 L -571.96875,1048.4375 L -571.96875,1054.0938 L -572.28125,1054.0938 C -572.64189,1054.0887 -572.97733,1054.2782 -573.15914,1054.5897 C -573.34094,1054.9012 -573.34094,1055.2864 -573.15914,1055.5979 C -572.97733,1055.9094 -572.64189,1056.0989 -572.28125,1056.0938 L -570.96875,1056.0938 C -570.41649,1056.0937 -569.96881,1055.6461 -569.96875,1055.0938 L -569.96875,1046.8438 C -569.96865,1046.5731 -570.07829,1046.3139 -570.27263,1046.1254 C -570.46698,1045.937 -570.72942,1045.8354 -571,1045.8438 z"
       id="path6528-1"
       style="fill:#bebebe;fill-opacity:1;stroke:none;stroke-width:2;stroke-linecap:round;stroke-linejoin:round;marker:none;stroke-miterlimit:4;stroke-dasharray:none;stroke-dashoffset:0;stroke-opacity:1;visibility:visible;display:inline;overflow:visible;enable-background:accumulate" />
    <path
       d="M -588.78125,1058 C -589.44137,1058 -590.00002,1058.5586 -590,1059.2188 L -590,1059.7812 C -590,1060.4413 -589.44136,1061 -588.78125,1061 L -581.5,1061 C -581.31968,1061.0026 -581.15196,1060.9078 -581.06106,1060.7521 C -580.97015,1060.5963 -580.97015,1060.4037 -581.06106,1060.2479 C -581.15196,1060.0922 -581.31968,1059.9974 -581.5,1060 L -588.78125,1060 C -588.9046,1060 -589,1059.9046 -589,1059.7812 L -589,1059.2188 C -589,1059.0953 -588.90461,1059 -588.78125,1059 L -581.5,1059 C -581.31968,1059.0026 -581.15196,1058.9078 -581.06106,1058.7521 C -580.97015,1058.5963 -580.97015,1058.4037 -581.06106,1058.2479 C -581.15196,1058.0922 -581.31968,1057.9974 -581.5,1058 L -588.78125,1058 z M -572.5625,1058 C -572.83864,1058.0345 -573.03452,1058.2864 -573,1058.5625 C -572.96548,1058.8386 -572.71364,1059.0345 -572.4375,1059 L -571.21875,1059 C -571.09543,1059 -571,1059.0954 -571,1059.2188 L -571,1059.7812 C -571,1059.9047 -571.09539,1060 -571.21875,1060 L -572.4375,1060 C -572.61782,1059.9974 -572.78554,1060.0922 -572.87644,1060.2479 C -572.96735,1060.4037 -572.96735,1060.5963 -572.87644,1060.7521 C -572.78554,1060.9078 -572.61782,1061.0026 -572.4375,1061 L -571.21875,1061 C -570.55863,1061 -570.00002,1060.4413 -570,1059.7812 L -570,1059.2188 C -570,1058.5587 -570.55864,1058 -571.21875,1058 L -572.4375,1058 C -572.479,1057.9948 -572.521,1057.9948 -572.5625,1058 L -572.5625,1058 z"
       id="rect7153"
       style="fill:#bebebe;fill-opacity:1;stroke:none;stroke-width:1;stroke-linecap:round;marker:none;stroke-opacity:1;visibility:visible;display:inline;overflow:visible;enable-background:accumulate" />
    <path
       d="M -578.28125,1054 C -579.20969,1054 -580,1054.7903 -580,1055.7188 L -580,1062.2812 C -580,1063.2097 -579.20973,1064.0001 -578.28125,1064 L -575.71875,1064 C -574.79031,1064 -574,1063.2097 -574,1062.2812 L -574,1055.7188 C -574,1054.7903 -574.7903,1054 -575.71875,1054 L -578.28125,1054 z M -578,1056 L -576,1056 L -576,1062 L -578,1062 L -578,1056 z"
       id="rect7155"
       style="fill:#bebebe;fill-opacity:1;stroke:none;stroke-width:1.99999988;stroke-linecap:round;stroke-linejoin:round;marker:none;stroke-miterlimit:4;stroke-dasharray:none;stroke-dashoffset:0;stroke-opacity:1;visibility:visible;display:inline;overflow:visible;enable-background:accumulate" />
  </g>
  <g
     transform="translate(591.99995,-1044)"
     id="layer4" />
  <g
     transform="translate(591.99995,-1044)"
     id="layer12" />
  <g
     transform="translate(591.99995,-1044)"
     id="layer9" />
  <g
     transform="translate(591.99995,-1044)"
     id="layer10" />
  <g
     transform="translate(591.99995,-1044)"
     id="layer6" />
</svg>
