<?xml version="1.0" encoding="UTF-8" standalone="no"?>
<!-- Created with Inkscape (http://www.inkscape.org/) -->
<svg
   xmlns:svg="http://www.w3.org/2000/svg"
   xmlns="http://www.w3.org/2000/svg"
   version="1.0"
   width="24.000111"
   height="24.000006"
   id="svg7384">
  <title
     id="title9167">Moblin Icon Theme</title>
  <defs
     id="defs7386" />
  <g
     transform="translate(592.00001,-1304)"
     id="layer3" />
  <g
     transform="translate(592.00001,-1304)"
     id="layer5" />
  <g
     transform="translate(592.00001,-1304)"
     id="layer7" />
  <g
     transform="translate(592.00001,-1304)"
     id="layer2" />
  <g
     transform="translate(592.00001,-1304)"
     id="layer8" />
  <g
     transform="translate(592.00001,-2256.3622)"
     id="layer1" />
  <g
     transform="translate(592.00001,-1304)"
     id="layer11">
    <rect
       width="24"
       height="24"
       x="-591.99988"
       y="1304"
       id="rect11432"
       style="opacity:0;fill:#ffffff;fill-opacity:1;stroke:none;display:inline" />
    <path
       d="M -587,1276.9688 A 2.03125,2.03125 0 1 1 -591.0625,1276.9688 A 2.03125,2.03125 0 1 1 -587,1276.9688 z"
       transform="matrix(2.4615127,0,0,2.4615127,862.9079,-1822.2747)"
       id="path11434"
       style="fill:#bebebe;fill-opacity:1;fill-rule:nonzero;stroke:none;stroke-width:2;marker:none;visibility:visible;display:inline;overflow:visible;enable-background:accumulate" />
    <path
       d="M -587.00003,1304.0154 C -589.74908,1304.0154 -591.98462,1306.2509 -591.98462,1309.0001 C -591.98462,1311.7491 -589.74908,1313.9846 -587.00003,1313.9846 C -584.25099,1313.9846 -582.01545,1311.7491 -582.01545,1309.0001 C -582.01545,1306.2509 -584.25099,1304.0154 -587.00003,1304.0154 z M -587.00003,1305.9846 C -585.33311,1305.9846 -583.98467,1307.3331 -583.98467,1309.0001 C -583.98467,1310.6668 -585.33311,1312.0154 -587.00003,1312.0154 C -588.66696,1312.0154 -590.0154,1310.6668 -590.0154,1309.0001 C -590.0154,1307.3331 -588.66696,1305.9846 -587.00003,1305.9846 z"
       id="path11436"
       style="fill:#bebebe;fill-opacity:1;stroke:none;stroke-width:1.01563144;stroke-linecap:round;stroke-linejoin:miter;marker:none;stroke-miterlimit:4.30000019;stroke-dasharray:none;stroke-dashoffset:0;stroke-opacity:1;visibility:visible;display:inline;overflow:visible;enable-background:accumulate" />
    <path
       d="M -587,1276.9688 A 2.03125,2.03125 0 1 1 -591.0625,1276.9688 A 2.03125,2.03125 0 1 1 -587,1276.9688 z"
       transform="matrix(2.4615127,0,0,-2.4615127,874.908,4464.2748)"
       id="path11438"
       style="fill:#bebebe;fill-opacity:1;fill-rule:nonzero;stroke:none;stroke-width:2;marker:none;visibility:visible;display:inline;overflow:visible;enable-background:accumulate" />
    <path
       d="M -587,1276.9688 A 2.03125,2.03125 0 1 1 -591.0625,1276.9688 A 2.03125,2.03125 0 1 1 -587,1276.9688 z"
       transform="matrix(2.4615127,0,0,-2.4615127,874.908,4452.2748)"
       id="path11442"
       style="fill:#bebebe;fill-opacity:1;fill-rule:nonzero;stroke:none;stroke-width:2;marker:none;visibility:visible;display:inline;overflow:visible;enable-background:accumulate" />
  </g>
  <g
     transform="translate(592.00001,-1304)"
     id="layer4" />
  <g
     transform="translate(592.00001,-1304)"
     id="layer9" />
  <g
     transform="translate(592.00001,-1304)"
     id="layer10" />
  <g
     transform="translate(592.00001,-1304)"
     id="layer6" />
</svg>
