<?xml version="1.0" encoding="UTF-8" standalone="no"?>
<!-- Created with Inkscape (http://www.inkscape.org/) -->
<svg
   xmlns:svg="http://www.w3.org/2000/svg"
   xmlns="http://www.w3.org/2000/svg"
   version="1.0"
   width="24.000111"
   height="24"
   id="svg7384">
  <title
     id="title9167">Moblin Icon Theme</title>
  <defs
     id="defs7386" />
  <g
     transform="translate(538.00001,-1274)"
     id="layer3" />
  <g
     transform="translate(538.00001,-1274)"
     id="layer5" />
  <g
     transform="translate(538.00001,-1274)"
     id="layer7" />
  <g
     transform="translate(538.00001,-1274)"
     id="layer2" />
  <g
     transform="translate(538.00001,-1274)"
     id="layer8" />
  <g
     transform="translate(538.00001,-2226.3622)"
     id="layer1" />
  <g
     transform="translate(538.00001,-1274)"
     id="layer11">
    <rect
       width="24"
       height="24"
       x="-537.99988"
       y="1274"
       id="rect11193"
       style="opacity:0;fill:#ffffff;fill-opacity:1;stroke:none;display:inline" />
    <path
       d="M -587,1276.9688 A 2.03125,2.03125 0 1 1 -591.0625,1276.9688 A 2.03125,2.03125 0 1 1 -587,1276.9688 z"
       transform="matrix(2.4615127,0,0,2.4615127,916.9079,-1864.2747)"
       id="path11195"
       style="fill:#bebebe;fill-opacity:1;fill-rule:nonzero;stroke:none;stroke-width:2;marker:none;visibility:visible;display:inline;overflow:visible;enable-background:accumulate" />
    <path
       d="M -533.00003,1286.0154 C -535.74908,1286.0154 -537.98462,1288.2509 -537.98462,1291.0001 C -537.98462,1293.7491 -535.74908,1295.9846 -533.00003,1295.9846 C -530.25099,1295.9846 -528.01545,1293.7491 -528.01545,1291.0001 C -528.01545,1288.2509 -530.25099,1286.0154 -533.00003,1286.0154 z M -533.00003,1287.9846 C -531.33311,1287.9846 -529.98467,1289.3331 -529.98467,1291.0001 C -529.98467,1292.6668 -531.33311,1294.0154 -533.00003,1294.0154 C -534.66696,1294.0154 -536.0154,1292.6668 -536.0154,1291.0001 C -536.0154,1289.3331 -534.66696,1287.9846 -533.00003,1287.9846 z"
       id="path11197"
       style="fill:#bebebe;fill-opacity:1;stroke:none;stroke-width:1.01563144;stroke-linecap:round;stroke-linejoin:miter;marker:none;stroke-miterlimit:4.30000019;stroke-dasharray:none;stroke-dashoffset:0;stroke-opacity:1;visibility:visible;display:inline;overflow:visible;enable-background:accumulate" />
    <path
       d="M -587,1276.9688 A 2.03125,2.03125 0 1 1 -591.0625,1276.9688 A 2.03125,2.03125 0 1 1 -587,1276.9688 z"
       transform="matrix(2.4615127,0,0,-2.4615127,928.908,4434.2748)"
       id="path11209"
       style="fill:#bebebe;fill-opacity:1;fill-rule:nonzero;stroke:none;stroke-width:2;marker:none;visibility:visible;display:inline;overflow:visible;enable-background:accumulate" />
    <path
       d="M -520.99993,1283.9847 C -523.74898,1283.9847 -525.98452,1281.7492 -525.98452,1279 C -525.98452,1276.251 -523.74898,1274.0155 -520.99993,1274.0155 C -518.25089,1274.0155 -516.01535,1276.251 -516.01535,1279 C -516.01535,1281.7492 -518.25089,1283.9847 -520.99993,1283.9847 z M -520.99993,1282.0155 C -519.33301,1282.0155 -517.98457,1280.667 -517.98457,1279 C -517.98457,1277.3333 -519.33301,1275.9847 -520.99993,1275.9847 C -522.66686,1275.9847 -524.0153,1277.3333 -524.0153,1279 C -524.0153,1280.667 -522.66686,1282.0155 -520.99993,1282.0155 z"
       id="path11211"
       style="fill:#bebebe;fill-opacity:1;stroke:none;stroke-width:1.01563144;stroke-linecap:round;stroke-linejoin:miter;marker:none;stroke-miterlimit:4.30000019;stroke-dasharray:none;stroke-dashoffset:0;stroke-opacity:1;visibility:visible;display:inline;overflow:visible;enable-background:accumulate" />
  </g>
  <g
     transform="translate(538.00001,-1274)"
     id="layer4" />
  <g
     transform="translate(538.00001,-1274)"
     id="layer9" />
  <g
     transform="translate(538.00001,-1274)"
     id="layer10" />
  <g
     transform="translate(538.00001,-1274)"
     id="layer6" />
</svg>
