<?xml version="1.0" encoding="UTF-8" standalone="no"?>
<!-- Created with Inkscape (http://www.inkscape.org/) -->
<svg
   xmlns:svg="http://www.w3.org/2000/svg"
   xmlns="http://www.w3.org/2000/svg"
   version="1.0"
   width="24.000093"
   height="24.000084"
   id="svg7384">
  <title
     id="title9167">Moblin Icon Theme</title>
  <defs
     id="defs7386" />
  <g
     transform="translate(592.00005,-1224)"
     id="layer3" />
  <g
     transform="translate(592.00005,-1224)"
     id="layer5" />
  <g
     transform="translate(592.00005,-1224)"
     id="layer7" />
  <g
     transform="translate(592.00005,-1224)"
     id="layer2" />
  <g
     transform="translate(592.00005,-1224)"
     id="layer8" />
  <g
     transform="translate(592.00005,-2176.3622)"
     id="layer1" />
  <g
     transform="translate(592.00005,-1224)"
     id="layer11">
    <rect
       width="24"
       height="24"
       x="-592"
       y="1224"
       id="rect11112"
       style="opacity:0;fill:#ffffff;fill-opacity:1;stroke:none;display:inline" />
    <path
       d="M -587,1276.9688 A 2.03125,2.03125 0 1 1 -591.0625,1276.9688 A 2.03125,2.03125 0 1 1 -587,1276.9688 z"
       transform="matrix(1.4769214,0,0,1.4769214,280.9528,-658.9824)"
       id="path11124"
       style="fill:#bebebe;fill-opacity:1;fill-rule:nonzero;stroke:none;stroke-width:2;marker:none;visibility:visible;display:inline;overflow:visible;enable-background:accumulate" />
    <path
       d="M -589.00001,1230.0154 C -590.64511,1230.0154 -591.98469,1231.355 -591.98469,1233.0001 C -591.98469,1234.6452 -590.64511,1235.9848 -589.00001,1235.9848 C -587.35492,1235.9848 -586.01534,1234.6452 -586.01534,1233.0001 C -586.01534,1231.355 -587.35492,1230.0154 -589.00001,1230.0154 z M -589.00001,1231.9847 C -588.43706,1231.9847 -587.98461,1232.4371 -587.98461,1233.0001 C -587.98461,1233.563 -588.43706,1234.0155 -589.00001,1234.0155 C -589.56297,1234.0155 -590.01542,1233.563 -590.01542,1233.0001 C -590.01542,1232.4371 -589.56297,1231.9847 -589.00001,1231.9847 z"
       id="path11139"
       style="fill:#bebebe;fill-opacity:1;stroke:none;stroke-width:2.0312078;stroke-linecap:round;stroke-linejoin:miter;marker:none;stroke-miterlimit:4.30000019;stroke-dasharray:none;stroke-dashoffset:0;stroke-opacity:1;visibility:visible;display:inline;overflow:visible;enable-background:accumulate" />
    <path
       d="M -587,1276.9688 A 2.03125,2.03125 0 1 1 -591.0625,1276.9688 A 2.03125,2.03125 0 1 1 -587,1276.9688 z"
       transform="matrix(1.4769214,0,0,1.4769214,280.9528,-646.9824)"
       id="path11149"
       style="fill:#bebebe;fill-opacity:1;fill-rule:nonzero;stroke:none;stroke-width:2;marker:none;visibility:visible;display:inline;overflow:visible;enable-background:accumulate" />
    <path
       d="M -589.00001,1242.0154 C -590.64511,1242.0154 -591.98469,1243.355 -591.98469,1245.0001 C -591.98469,1246.6452 -590.64511,1247.9848 -589.00001,1247.9848 C -587.35492,1247.9848 -586.01534,1246.6452 -586.01534,1245.0001 C -586.01534,1243.355 -587.35492,1242.0154 -589.00001,1242.0154 z M -589.00001,1243.9847 C -588.43706,1243.9847 -587.98461,1244.4371 -587.98461,1245.0001 C -587.98461,1245.563 -588.43706,1246.0155 -589.00001,1246.0155 C -589.56297,1246.0155 -590.01542,1245.563 -590.01542,1245.0001 C -590.01542,1244.4371 -589.56297,1243.9847 -589.00001,1243.9847 z"
       id="path11151"
       style="fill:#bebebe;fill-opacity:1;stroke:none;stroke-width:2.0312078;stroke-linecap:round;stroke-linejoin:miter;marker:none;stroke-miterlimit:4.30000019;stroke-dasharray:none;stroke-dashoffset:0;stroke-opacity:1;visibility:visible;display:inline;overflow:visible;enable-background:accumulate" />
    <path
       d="M -571.00001,1236.0153 C -572.64511,1236.0153 -573.98469,1237.3549 -573.98469,1239 C -573.98469,1240.6451 -572.64511,1241.9847 -571.00001,1241.9847 C -569.35492,1241.9847 -568.01534,1240.6451 -568.01534,1239 C -568.01534,1237.3549 -569.35492,1236.0153 -571.00001,1236.0153 z M -571.00001,1237.9846 C -570.43706,1237.9846 -569.98461,1238.437 -569.98461,1239 C -569.98461,1239.5629 -570.43706,1240.0154 -571.00001,1240.0154 C -571.56297,1240.0154 -572.01542,1239.5629 -572.01542,1239 C -572.01542,1238.437 -571.56297,1237.9846 -571.00001,1237.9846 z"
       id="path11153"
       style="fill:#bebebe;fill-opacity:1;stroke:none;stroke-width:2.0312078;stroke-linecap:round;stroke-linejoin:miter;marker:none;stroke-miterlimit:4.30000019;stroke-dasharray:none;stroke-dashoffset:0;stroke-opacity:1;visibility:visible;display:inline;overflow:visible;enable-background:accumulate" />
    <path
       d="M -587,1276.9688 A 2.03125,2.03125 0 1 1 -591.0625,1276.9688 A 2.03125,2.03125 0 1 1 -587,1276.9688 z"
       transform="matrix(1.4769214,0,0,1.4769214,292.9529,-646.9825)"
       id="path11155"
       style="fill:#bebebe;fill-opacity:1;fill-rule:nonzero;stroke:none;stroke-width:2;marker:none;visibility:visible;display:inline;overflow:visible;enable-background:accumulate" />
    <path
       d="M -587,1276.9688 A 2.03125,2.03125 0 1 1 -591.0625,1276.9688 A 2.03125,2.03125 0 1 1 -587,1276.9688 z"
       transform="matrix(1.4769214,0,0,1.4769214,298.9529,-640.9825)"
       id="path11157"
       style="fill:#bebebe;fill-opacity:1;fill-rule:nonzero;stroke:none;stroke-width:2;marker:none;visibility:visible;display:inline;overflow:visible;enable-background:accumulate" />
    <path
       d="M -577.00001,1224.0154 C -578.64511,1224.0154 -579.98469,1225.355 -579.98469,1227.0001 C -579.98469,1228.6452 -578.64511,1229.9848 -577.00001,1229.9848 C -575.35492,1229.9848 -574.01534,1228.6452 -574.01534,1227.0001 C -574.01534,1225.355 -575.35492,1224.0154 -577.00001,1224.0154 z M -577.00001,1225.9847 C -576.43706,1225.9847 -575.98461,1226.4371 -575.98461,1227.0001 C -575.98461,1227.563 -576.43706,1228.0155 -577.00001,1228.0155 C -577.56297,1228.0155 -578.01542,1227.563 -578.01542,1227.0001 C -578.01542,1226.4371 -577.56297,1225.9847 -577.00001,1225.9847 z"
       id="path11159"
       style="fill:#bebebe;fill-opacity:1;stroke:none;stroke-width:2.0312078;stroke-linecap:round;stroke-linejoin:miter;marker:none;stroke-miterlimit:4.30000019;stroke-dasharray:none;stroke-dashoffset:0;stroke-opacity:1;visibility:visible;display:inline;overflow:visible;enable-background:accumulate" />
  </g>
  <g
     transform="translate(592.00005,-1224)"
     id="layer4" />
  <g
     transform="translate(592.00005,-1224)"
     id="layer12" />
  <g
     transform="translate(592.00005,-1224)"
     id="layer9" />
  <g
     transform="translate(592.00005,-1224)"
     id="layer10" />
  <g
     transform="translate(592.00005,-1224)"
     id="layer6" />
</svg>
