<?xml version="1.0" encoding="UTF-8" standalone="no"?>
<!-- Created with Inkscape (http://www.inkscape.org/) -->
<svg
   xmlns:svg="http://www.w3.org/2000/svg"
   xmlns="http://www.w3.org/2000/svg"
   version="1.0"
   width="24.007629"
   height="24"
   id="svg7384">
  <title
     id="title9167">Moblin Icon Theme</title>
  <defs
     id="defs7386" />
  <g
     transform="translate(396.00753,-1274)"
     id="layer3" />
  <g
     transform="translate(396.00753,-1274)"
     id="layer5" />
  <g
     transform="translate(396.00753,-1274)"
     id="layer7" />
  <g
     transform="translate(396.00753,-1274)"
     id="layer2" />
  <g
     transform="translate(396.00753,-1274)"
     id="layer8" />
  <g
     transform="translate(396.00753,-2226.3622)"
     id="layer1" />
  <g
     transform="translate(396.00753,-1274)"
     id="layer11">
    <rect
       width="24"
       height="24"
       x="-395.99991"
       y="1274"
       id="rect11329"
       style="opacity:0;fill:#ffffff;fill-opacity:1;stroke:none;display:inline" />
    <path
       d="M -396,1282.9375 L -396,1283.9688 L -396,1297 L -396,1298 L -395,1298 L -374,1298 L -373,1298 L -373,1297 L -373,1284 L -373,1283 L -374,1283 L -376,1283 C -376.36064,1282.9949 -376.69608,1283.1844 -376.87789,1283.4959 C -377.05969,1283.8074 -377.05969,1284.1926 -376.87789,1284.5041 C -376.69608,1284.8156 -376.36064,1285.0051 -376,1285 L -375,1285 L -375,1296 L -394,1296 L -394,1285 L -393.03125,1285 C -392.47897,1285.0173 -392.01726,1284.5835 -392,1284.0313 C -391.98274,1283.479 -392.41647,1283.0173 -392.96875,1283 L -395,1282.9688 L -396,1282.9375 z"
       id="path11347"
       style="fill:#bebebe;fill-opacity:1;fill-rule:nonzero;stroke:none;stroke-width:2;stroke-linecap:round;stroke-linejoin:miter;marker:none;stroke-miterlimit:4.30000019;stroke-dasharray:none;stroke-dashoffset:0;stroke-opacity:1;visibility:visible;display:inline;overflow:visible;enable-background:accumulate" />
    <path
       d="M -392,1276 L -392,1277 L -392,1291 L -392,1292 L -391,1292 L -378,1292 L -377,1292 L -377,1291 L -377,1277 L -377,1276 L -378,1276 L -391,1276 L -392,1276 z M -390,1278 L -379,1278 L -379,1290 L -390,1290 L -390,1278 z"
       id="rect11370"
       style="fill:#bebebe;fill-opacity:1;stroke:none;stroke-width:2;stroke-linecap:round;stroke-linejoin:miter;marker:none;stroke-miterlimit:4.30000019;stroke-dasharray:none;stroke-dashoffset:0;stroke-opacity:1;visibility:visible;display:inline;overflow:visible;enable-background:accumulate" />
    <path
       d="M -384.625,1277.0625 C -384.86404,1277.1081 -385.03554,1277.3192 -385.03125,1277.5625 L -385.03125,1290.2188 C -385.0338,1290.3991 -384.93906,1290.5668 -384.78331,1290.6577 C -384.62756,1290.7486 -384.43494,1290.7486 -384.27919,1290.6577 C -384.12344,1290.5668 -384.0287,1290.3991 -384.03125,1290.2188 L -384.03125,1277.5625 C -384.02859,1277.4119 -384.09393,1277.2682 -384.20912,1277.1712 C -384.32431,1277.0742 -384.47708,1277.0343 -384.625,1277.0625 L -384.625,1277.0625 z"
       id="path11372"
       style="fill:#bebebe;fill-opacity:1;stroke:none;stroke-width:1;stroke-linecap:round;stroke-linejoin:miter;marker:none;stroke-miterlimit:4.30000019;stroke-dasharray:none;stroke-dashoffset:0;stroke-opacity:1;visibility:visible;display:inline;overflow:visible;enable-background:accumulate" />
    <path
       d="M -381.53125,1290.5 C -381.77029,1290.5456 -381.94179,1290.7567 -381.9375,1291 L -381.9375,1296.5625 C -381.94005,1296.7428 -381.84531,1296.9105 -381.68956,1297.0014 C -381.53381,1297.0923 -381.34119,1297.0923 -381.18544,1297.0014 C -381.02969,1296.9105 -380.93495,1296.7428 -380.9375,1296.5625 L -380.9375,1291 C -380.93484,1290.8494 -381.00018,1290.7057 -381.11537,1290.6087 C -381.23056,1290.5117 -381.38333,1290.4718 -381.53125,1290.5 L -381.53125,1290.5 z"
       id="path11374"
       style="fill:#bebebe;fill-opacity:1;stroke:none;stroke-width:1;stroke-linecap:round;stroke-linejoin:miter;marker:none;stroke-miterlimit:4.30000019;stroke-dasharray:none;stroke-dashoffset:0;stroke-opacity:1;visibility:visible;display:inline;overflow:visible;enable-background:accumulate" />
    <path
       d="M -387.59375,1290.5 C -387.83279,1290.5456 -388.00429,1290.7567 -388,1291 L -388,1296.5625 C -388.00255,1296.7428 -387.90781,1296.9105 -387.75206,1297.0014 C -387.59631,1297.0923 -387.40369,1297.0923 -387.24794,1297.0014 C -387.09219,1296.9105 -386.99745,1296.7428 -387,1296.5625 L -387,1291 C -386.99734,1290.8494 -387.06268,1290.7057 -387.17787,1290.6087 C -387.29306,1290.5117 -387.44583,1290.4718 -387.59375,1290.5 L -387.59375,1290.5 z"
       id="path11376"
       style="fill:#bebebe;fill-opacity:1;stroke:none;stroke-width:1;stroke-linecap:round;stroke-linejoin:miter;marker:none;stroke-miterlimit:4.30000019;stroke-dasharray:none;stroke-dashoffset:0;stroke-opacity:1;visibility:visible;display:inline;overflow:visible;enable-background:accumulate" />
    <path
       d="M -381.48503,1282.9926 C -382.30757,1282.9926 -383.00746,1283.6626 -383.00746,1284.4851 C -383.00746,1285.3076 -382.30757,1286.0074 -381.48503,1286.0074 C -380.66248,1286.0074 -379.99246,1285.3076 -379.99246,1284.4851 C -379.99246,1283.6626 -380.66248,1282.9926 -381.48503,1282.9926 z M -381.48503,1284.0075 C -381.20355,1284.0075 -381.00741,1284.2036 -381.00741,1284.4851 C -381.00741,1284.7666 -381.20355,1284.9926 -381.48503,1284.9926 C -381.76651,1284.9926 -381.99251,1284.7666 -381.99251,1284.4851 C -381.99251,1284.2036 -381.76651,1284.0075 -381.48503,1284.0075 z"
       id="path11378"
       style="fill:#bebebe;fill-opacity:1;stroke:none;stroke-width:1.04686189;stroke-linecap:round;stroke-linejoin:miter;marker:none;stroke-miterlimit:4.30000019;stroke-dasharray:none;stroke-dashoffset:0;stroke-opacity:1;visibility:visible;display:inline;overflow:visible;enable-background:accumulate" />
    <path
       d="M -387.48503,1284.9926 C -388.30757,1284.9926 -389.00746,1285.6626 -389.00746,1286.4851 C -389.00746,1287.3076 -388.30757,1288.0074 -387.48503,1288.0074 C -386.66248,1288.0074 -385.99246,1287.3076 -385.99246,1286.4851 C -385.99246,1285.6626 -386.66248,1284.9926 -387.48503,1284.9926 z M -387.48503,1286.0075 C -387.20355,1286.0075 -387.00741,1286.2036 -387.00741,1286.4851 C -387.00741,1286.7666 -387.20355,1286.9926 -387.48503,1286.9926 C -387.76651,1286.9926 -387.99251,1286.7666 -387.99251,1286.4851 C -387.99251,1286.2036 -387.76651,1286.0075 -387.48503,1286.0075 z"
       id="path11380"
       style="fill:#bebebe;fill-opacity:1;stroke:none;stroke-width:1.04686189;stroke-linecap:round;stroke-linejoin:miter;marker:none;stroke-miterlimit:4.30000019;stroke-dasharray:none;stroke-dashoffset:0;stroke-opacity:1;visibility:visible;display:inline;overflow:visible;enable-background:accumulate" />
    <path
       d="M -387.48513,1279.9926 C -388.30767,1279.9926 -389.00756,1280.6626 -389.00756,1281.4851 C -389.00756,1282.3076 -388.30767,1283.0074 -387.48513,1283.0074 C -386.66258,1283.0074 -385.99256,1282.3076 -385.99256,1281.4851 C -385.99256,1280.6626 -386.66258,1279.9926 -387.48513,1279.9926 z M -387.48513,1281.0075 C -387.20365,1281.0075 -387.00751,1281.2036 -387.00751,1281.4851 C -387.00751,1281.7666 -387.20365,1281.9926 -387.48513,1281.9926 C -387.76661,1281.9926 -387.99261,1281.7666 -387.99261,1281.4851 C -387.99261,1281.2036 -387.76661,1281.0075 -387.48513,1281.0075 z"
       id="path11382"
       style="fill:#bebebe;fill-opacity:1;stroke:none;stroke-width:1.04686189;stroke-linecap:round;stroke-linejoin:miter;marker:none;stroke-miterlimit:4.30000019;stroke-dasharray:none;stroke-dashoffset:0;stroke-opacity:1;visibility:visible;display:inline;overflow:visible;enable-background:accumulate" />
  </g>
  <g
     transform="translate(396.00753,-1274)"
     id="layer4" />
  <g
     transform="translate(396.00753,-1274)"
     id="layer9" />
  <g
     transform="translate(396.00753,-1274)"
     id="layer10" />
  <g
     transform="translate(396.00753,-1274)"
     id="layer6" />
</svg>
