<?xml version="1.0" encoding="UTF-8" standalone="no"?>
<!-- Created with Inkscape (http://www.inkscape.org/) -->
<svg
   xmlns:svg="http://www.w3.org/2000/svg"
   xmlns="http://www.w3.org/2000/svg"
   version="1.0"
   width="24.000011"
   height="24"
   id="svg7384">
  <title
     id="title9167">Moblin Icon Theme</title>
  <defs
     id="defs7386" />
  <g
     transform="translate(425.99995,-1014)"
     id="layer3" />
  <g
     transform="translate(425.99995,-1014)"
     id="layer5" />
  <g
     transform="translate(425.99995,-1014)"
     id="layer7" />
  <g
     transform="translate(425.99995,-1014)"
     id="layer2" />
  <g
     transform="translate(425.99995,-1014)"
     id="layer8" />
  <g
     transform="translate(425.99995,-1966.3622)"
     id="layer1" />
  <g
     transform="translate(425.99995,-1014)"
     id="layer11">
    <rect
       width="24"
       height="24"
       x="-425.99994"
       y="1014"
       id="rect6906"
       style="opacity:0;fill:#ffffff;fill-opacity:1;stroke:none;display:inline" />
    <g
       transform="translate(47.918548,652.99983)"
       id="g6908" />
    <path
       d="M -414.28125,1017 C -415.20969,1017 -416,1017.7903 -416,1018.7188 L -416,1033.2812 C -416,1034.2097 -415.2097,1035 -414.28125,1035 L -403.71875,1035 C -402.79031,1035 -401.99997,1034.2097 -402,1033.2812 L -402,1018.7188 C -402,1017.7903 -402.79031,1017 -403.71875,1017 L -414.28125,1017 z M -414,1019 L -404,1019 L -404,1033 L -414,1033 L -414,1019 z"
       id="rect6938"
       style="fill:#bebebe;fill-opacity:1;fill-rule:nonzero;stroke:none;stroke-width:2;stroke-linecap:round;stroke-linejoin:round;marker:none;stroke-miterlimit:4;stroke-dasharray:none;stroke-dashoffset:0;stroke-opacity:1;visibility:visible;display:inline;overflow:visible;enable-background:accumulate" />
    <path
       d="M -408.9612,1023.5971 C -409.299,1023.1984 -410.40371,1022.5478 -411.38427,1023.4708 C -412.36481,1024.3938 -411.95495,1025.6419 -411.64312,1025.9873 L -408.95358,1029 L -406.342,1026.1533 C -405.79629,1025.4091 -405.88476,1024.0823 -406.50899,1023.5052 C -407.13322,1022.9282 -408.31155,1022.7732 -408.9612,1023.5966 L -408.9612,1023.5971 z"
       id="path6972"
       style="fill:#bebebe;fill-opacity:1;fill-rule:nonzero;stroke:none;stroke-width:1;marker:none;visibility:visible;display:inline;overflow:visible;enable-background:accumulate" />
    <path
       d="M -418.28125,1017 C -419.20974,1017 -420.00003,1017.7903 -420,1018.7188 L -420,1033.2812 C -420,1034.2097 -419.20976,1035 -418.28125,1035 L -417.15625,1035 C -416.79561,1035.0051 -416.46017,1034.8156 -416.27836,1034.5041 C -416.09656,1034.1926 -416.09656,1033.8074 -416.27836,1033.4959 C -416.46017,1033.1844 -416.79561,1032.9949 -417.15625,1033 L -418,1033 L -418,1019 L -417.15625,1019 C -416.79561,1019.0051 -416.46017,1018.8156 -416.27836,1018.5041 C -416.09656,1018.1926 -416.09656,1017.8074 -416.27836,1017.4959 C -416.46017,1017.1844 -416.79561,1016.9949 -417.15625,1017 L -418.28125,1017 z"
       id="rect6975"
       style="fill:#bebebe;fill-opacity:1;fill-rule:nonzero;stroke:none;stroke-width:2;stroke-linecap:round;stroke-linejoin:round;marker:none;stroke-miterlimit:4;stroke-dashoffset:0;stroke-opacity:1;visibility:visible;display:inline;overflow:visible;enable-background:accumulate" />
    <path
       d="M -422.28125,1017 C -423.20974,1017 -424.00003,1017.7903 -424,1018.7188 L -424,1033.2812 C -424,1034.2097 -423.20976,1035 -422.28125,1035 L -421.15625,1035 C -420.79561,1035.0051 -420.46017,1034.8156 -420.27836,1034.5041 C -420.09656,1034.1926 -420.09656,1033.8074 -420.27836,1033.4959 C -420.46017,1033.1844 -420.79561,1032.9949 -421.15625,1033 L -422,1033 L -422,1019 L -421.15625,1019 C -420.79561,1019.0051 -420.46017,1018.8156 -420.27836,1018.5041 C -420.09656,1018.1926 -420.09656,1017.8074 -420.27836,1017.4959 C -420.46017,1017.1844 -420.79561,1016.9949 -421.15625,1017 L -422.28125,1017 z"
       id="path6978"
       style="fill:#bebebe;fill-opacity:1;fill-rule:nonzero;stroke:none;stroke-width:2;stroke-linecap:round;stroke-linejoin:round;marker:none;stroke-miterlimit:4;stroke-dashoffset:0;stroke-opacity:1;visibility:visible;display:inline;overflow:visible;enable-background:accumulate" />
  </g>
  <g
     transform="translate(425.99995,-1014)"
     id="layer4" />
  <g
     transform="translate(425.99995,-1014)"
     id="layer12" />
  <g
     transform="translate(425.99995,-1014)"
     id="layer9" />
  <g
     transform="translate(425.99995,-1014)"
     id="layer10" />
  <g
     transform="translate(425.99995,-1014)"
     id="layer6" />
</svg>
