<?xml version="1.0" encoding="UTF-8" standalone="no"?>
<!-- Created with Inkscape (http://www.inkscape.org/) -->
<svg
   xmlns:svg="http://www.w3.org/2000/svg"
   xmlns="http://www.w3.org/2000/svg"
   version="1.0"
   width="24"
   height="24"
   id="svg7384">
  <title
     id="title9167">Moblin Icon Theme</title>
  <defs
     id="defs7386" />
  <g
     transform="translate(395.99995,-1014)"
     id="layer3" />
  <g
     transform="translate(395.99995,-1014)"
     id="layer5" />
  <g
     transform="translate(395.99995,-1014)"
     id="layer7" />
  <g
     transform="translate(395.99995,-1014)"
     id="layer2" />
  <g
     transform="translate(395.99995,-1014)"
     id="layer8" />
  <g
     transform="translate(395.99995,-1966.3622)"
     id="layer1" />
  <g
     transform="translate(395.99995,-1014)"
     id="layer11">
    <rect
       width="24"
       height="24"
       x="-395.99994"
       y="1014"
       id="rect6923"
       style="opacity:0;fill:#ffffff;fill-opacity:1;stroke:none;display:inline" />
    <path
       d="M -394.28125,1014 C -395.20974,1014 -396.00003,1014.7903 -396,1015.7188 L -396,1030.2812 C -396,1031.2097 -395.20976,1032 -394.28125,1032 L -389.96875,1032 C -389.60811,1032.0051 -389.27267,1031.8156 -389.09086,1031.5041 C -388.90906,1031.1926 -388.90906,1030.8074 -389.09086,1030.4959 C -389.27267,1030.1844 -389.60811,1029.9949 -389.96875,1030 L -394,1030 L -394,1016 L -384,1016 L -384,1016.9375 C -384.0051,1017.2981 -383.81562,1017.6336 -383.50413,1017.8154 C -383.19263,1017.9972 -382.80737,1017.9972 -382.49587,1017.8154 C -382.18438,1017.6336 -381.9949,1017.2981 -382,1016.9375 L -382,1015.7188 C -382,1014.7903 -382.79025,1014 -383.71875,1014 L -394.28125,1014 z"
       id="rect6938-3"
       style="fill:#bebebe;fill-opacity:1;fill-rule:nonzero;stroke:none;stroke-width:2;stroke-linecap:round;stroke-linejoin:round;marker:none;stroke-miterlimit:4;stroke-dashoffset:0;stroke-opacity:1;visibility:visible;display:inline;overflow:visible;enable-background:accumulate" />
    <path
       d="M -386.3125,1018 C -387.24094,1018 -388.03125,1018.7903 -388.03125,1019.7188 L -388.03125,1034.2812 C -388.03125,1035.2097 -387.24095,1036 -386.3125,1036 L -375.71875,1036 C -374.79031,1036 -374.03122,1035.2097 -374.03125,1034.2812 L -374.03125,1019.7188 C -374.03125,1018.7903 -374.79031,1018 -375.71875,1018 L -386.3125,1018 z M -386.03125,1020 L -376.03125,1020 L -376.03125,1034 L -386.03125,1034 L -386.03125,1020 z"
       id="rect7005"
       style="fill:#bebebe;fill-opacity:1;fill-rule:nonzero;stroke:none;stroke-width:2;stroke-linecap:round;stroke-linejoin:round;marker:none;stroke-miterlimit:4;stroke-dasharray:none;stroke-dashoffset:0;stroke-opacity:1;visibility:visible;display:inline;overflow:visible;enable-background:accumulate" />
    <path
       d="M -380.9687,1023 L -383.6562,1026 C -383.96803,1026.3454 -384.38675,1027.6082 -383.4062,1028.5312 C -382.8046,1029.0976 -382.14548,1029.0718 -381.6562,1028.875 L -381.93745,1031 L -379.99995,1031 L -380.31245,1028.875 C -379.69694,1029.0931 -378.97574,1028.9109 -378.5312,1028.5 C -377.90697,1027.9229 -377.82925,1026.5879 -378.37495,1025.8438 L -380.9687,1023 z"
       id="path7008"
       style="fill:#bebebe;fill-opacity:1;fill-rule:nonzero;stroke:none;stroke-width:1;marker:none;visibility:visible;display:inline;overflow:visible;enable-background:accumulate" />
    <path
       d="M -389.06245,1019.9375 L -390.99995,1023 L -389.06245,1026.0625 L -389.06245,1023 L -389.06245,1019.9375 z"
       id="path7011"
       style="fill:#bebebe;fill-opacity:1;fill-rule:nonzero;stroke:none;stroke-width:1;marker:none;visibility:visible;display:inline;overflow:visible;enable-background:accumulate" />
  </g>
  <g
     transform="translate(395.99995,-1014)"
     id="layer4" />
  <g
     transform="translate(395.99995,-1014)"
     id="layer12" />
  <g
     transform="translate(395.99995,-1014)"
     id="layer9" />
  <g
     transform="translate(395.99995,-1014)"
     id="layer10" />
  <g
     transform="translate(395.99995,-1014)"
     id="layer6" />
</svg>
