<?xml version="1.0" encoding="UTF-8" standalone="no"?>
<!-- Created with Inkscape (http://www.inkscape.org/) -->
<svg
   xmlns:svg="http://www.w3.org/2000/svg"
   xmlns="http://www.w3.org/2000/svg"
   version="1.0"
   width="25.000046"
   height="24"
   id="svg7384">
  <title
     id="title9167">Moblin Icon Theme</title>
  <defs
     id="defs7386" />
  <g
     transform="translate(483.00005,-1254)"
     id="layer3" />
  <g
     transform="translate(483.00005,-1254)"
     id="layer5" />
  <g
     transform="translate(483.00005,-1254)"
     id="layer7" />
  <g
     transform="translate(483.00005,-1254)"
     id="layer2" />
  <g
     transform="translate(483.00005,-1254)"
     id="layer8" />
  <g
     transform="translate(483.00005,-2206.3622)"
     id="layer1" />
  <g
     transform="translate(483.00005,-1254)"
     id="layer11">
    <rect
       width="24"
       height="24"
       x="-482"
       y="1254"
       id="rect11543"
       style="opacity:0;fill:#ffffff;fill-opacity:1;stroke:none;display:inline" />
    <path
       d="M -476.5,1257 C -478.47051,1257 -480,1258.7159 -480,1260.7188 C -480.0051,1261.0794 -479.81562,1261.4149 -479.50413,1261.5967 C -479.19263,1261.7785 -478.80737,1261.7785 -478.49587,1261.5967 C -478.18438,1261.4149 -477.9949,1261.0794 -478,1260.7188 C -478,1259.6998 -477.29949,1259 -476.5,1259 C -475.70051,1259 -475,1259.6998 -475,1260.7188 C -475.0051,1261.0794 -474.81562,1261.4149 -474.50413,1261.5967 C -474.19263,1261.7785 -473.80737,1261.7785 -473.49587,1261.5967 C -473.18438,1261.4149 -472.9949,1261.0794 -473,1260.7188 C -473,1258.7159 -474.52949,1257 -476.5,1257 z M -479.21875,1265.1875 C -479.68438,1265.2918 -480.01149,1265.7105 -480,1266.1875 L -480,1270.0938 C -480.0051,1270.4544 -479.81562,1270.7899 -479.50413,1270.9717 C -479.19263,1271.1535 -478.80737,1271.1535 -478.49587,1270.9717 C -478.18438,1270.7899 -477.9949,1270.4544 -478,1270.0938 L -478,1266.1875 C -477.99256,1265.8796 -478.12736,1265.5855 -478.36543,1265.3902 C -478.60349,1265.1949 -478.91827,1265.1201 -479.21875,1265.1875 z M -474.21875,1265.25 C -474.68438,1265.3543 -475.01149,1265.773 -475,1266.25 L -475,1270.0938 C -475.0051,1270.4544 -474.81562,1270.7899 -474.50413,1270.9717 C -474.19263,1271.1535 -473.80737,1271.1535 -473.49587,1270.9717 C -473.18438,1270.7899 -472.9949,1270.4544 -473,1270.0938 L -473,1266.25 C -472.99256,1265.9421 -473.12736,1265.648 -473.36543,1265.4527 C -473.60349,1265.2574 -473.91827,1265.1826 -474.21875,1265.25 z"
       id="rect11555"
       style="fill:#bebebe;fill-opacity:1;stroke:none;stroke-width:2;stroke-linecap:round;stroke-linejoin:bevel;marker:none;stroke-miterlimit:4.30000019;stroke-dashoffset:0;stroke-opacity:1;visibility:visible;display:inline;overflow:visible;enable-background:accumulate" />
    <path
       d="M -473.99994,1268.9598 C -474.26397,1268.9577 -474.5178,1269.0647 -474.70451,1269.257 C -474.89123,1269.4492 -474.99522,1269.7106 -474.99317,1269.9825 C -475.0225,1272.1262 -473.71924,1274.0248 -471.75333,1274.731 C -469.25315,1275.6291 -466.50053,1274.2616 -465.62838,1271.6871 C -465.45304,1271.3341 -465.49342,1270.9083 -465.73177,1270.5969 C -465.97011,1270.2854 -466.36277,1270.1455 -466.73709,1270.2385 C -467.1114,1270.3315 -467.39882,1270.6405 -467.47296,1271.0296 C -467.99387,1272.5673 -469.62154,1273.368 -471.11483,1272.8316 C -472.3249,1272.3969 -473.02475,1271.3264 -473.0067,1270.0069 C -472.99818,1269.7308 -473.0993,1269.4631 -473.28673,1269.2655 C -473.47416,1269.0679 -473.73171,1268.9575 -473.99994,1268.9598 z"
       id="path11557"
       style="fill:#bebebe;fill-opacity:1;stroke:none;stroke-width:2.60446477;stroke-linecap:round;stroke-linejoin:bevel;marker:none;stroke-miterlimit:4.30000019;stroke-dasharray:none;stroke-dashoffset:0;stroke-opacity:1;visibility:visible;display:inline;overflow:visible;enable-background:accumulate" />
    <path
       d="M -464.07509,1267.5955 C -465.6049,1267.3775 -467.03837,1268.45 -467.2569,1269.9761 C -467.33535,1270.5239 -466.95378,1271.0315 -466.40463,1271.1097 C -465.85549,1271.188 -465.34672,1270.8073 -465.26827,1270.2595 C -465.20295,1269.8033 -464.81646,1269.5141 -464.35918,1269.5793 C -463.91873,1269.6421 -463.62279,1269.9864 -463.64895,1270.4296 C -463.71015,1270.8063 -463.55084,1271.1849 -463.23842,1271.4051 C -462.92601,1271.6254 -462.5151,1271.6488 -462.17957,1271.4655 C -461.84404,1271.2821 -461.64253,1270.9241 -461.66031,1270.5429 C -461.57469,1269.0928 -462.6335,1267.8009 -464.07509,1267.5955 z"
       id="path11561"
       style="fill:#bebebe;fill-opacity:1;stroke:none;stroke-width:2.20265627;stroke-linecap:round;stroke-linejoin:bevel;marker:none;stroke-miterlimit:4.30000019;stroke-dasharray:none;stroke-dashoffset:0;stroke-opacity:1;visibility:visible;display:inline;overflow:visible;enable-background:accumulate" />
    <path
       d="M -461.19766,1274.9634 C -459.66785,1275.1814 -458.23438,1274.1089 -458.01585,1272.5828 C -457.9374,1272.035 -458.31897,1271.5274 -458.86812,1271.4492 C -459.41726,1271.3709 -459.92603,1271.7516 -460.00448,1272.2994 C -460.0698,1272.7556 -460.45629,1273.0448 -460.91357,1272.9796 C -461.35402,1272.9168 -461.64996,1272.5725 -461.6238,1272.1293 C -461.5626,1271.7526 -461.72191,1271.374 -462.03433,1271.1538 C -462.34674,1270.9335 -462.75765,1270.9101 -463.09318,1271.0934 C -463.42871,1271.2768 -463.63022,1271.6348 -463.61244,1272.016 C -463.69806,1273.4661 -462.63925,1274.758 -461.19766,1274.9634 z"
       id="path11563"
       style="fill:#bebebe;fill-opacity:1;stroke:none;stroke-width:2.20265627;stroke-linecap:round;stroke-linejoin:bevel;marker:none;stroke-miterlimit:4.30000019;stroke-dasharray:none;stroke-dashoffset:0;stroke-opacity:1;visibility:visible;display:inline;overflow:visible;enable-background:accumulate" />
    <path
       d="M -479.24756,1269.2276 C -479.86722,1269.293 -480.31879,1269.6109 -480.32007,1269.9825 C -480.32061,1270.0051 -480.32007,1270.033 -480.32007,1270.0556 C -480.32007,1272.6489 -476.7105,1274.7797 -472.31753,1274.7797 C -471.58851,1274.7797 -470.99753,1274.4308 -470.99753,1274.0005 C -470.99753,1273.5701 -471.58851,1273.2212 -472.31753,1273.2212 C -475.30208,1273.2212 -477.68005,1271.8174 -477.68005,1270.0556 C -477.68005,1270.0391 -477.68045,1270.0233 -477.68005,1270.0069 C -477.66593,1269.7708 -477.83644,1269.5441 -478.14246,1269.392 C -478.44847,1269.2398 -478.85598,1269.1792 -479.24756,1269.2276 z"
       id="path11565"
       style="fill:#bebebe;fill-opacity:1;stroke:none;stroke-width:1.97200048;stroke-linecap:round;stroke-linejoin:bevel;marker:none;stroke-miterlimit:4.30000019;stroke-dasharray:none;stroke-dashoffset:0;stroke-opacity:1;visibility:visible;display:inline;overflow:visible;enable-background:accumulate" />
    <path
       d="M -466.40625,1269.0938 C -466.8453,1269.1417 -467.20096,1269.4719 -467.28125,1269.9062 L -467.53125,1271.1562 C -467.6348,1271.6999 -467.27803,1272.2245 -466.73438,1272.3281 C -466.19072,1272.4316 -465.66605,1272.0749 -465.5625,1271.5312 L -465.3125,1270.3125 C -465.23891,1269.9949 -465.32473,1269.6614 -465.54248,1269.4187 C -465.76023,1269.1761 -466.08257,1269.0549 -466.40625,1269.0938 L -466.40625,1269.0938 z"
       id="path11568"
       style="fill:#bebebe;fill-opacity:1;stroke:none;stroke-width:2;stroke-linecap:round;stroke-linejoin:bevel;marker:none;stroke-miterlimit:4.30000019;stroke-dasharray:none;stroke-dashoffset:0;stroke-opacity:1;visibility:visible;display:inline;overflow:visible;enable-background:accumulate" />
    <path
       d="M -462.71875,1269.375 C -462.98415,1269.3911 -463.23221,1269.5122 -463.40813,1269.7116 C -463.58404,1269.9109 -463.67333,1270.1722 -463.65625,1270.4375 L -463.625,1272.125 C -463.60774,1272.6773 -463.14603,1273.111 -462.59375,1273.0938 C -462.04147,1273.0765 -461.60774,1272.6148 -461.625,1272.0625 L -461.65625,1270.375 C -461.65574,1270.0986 -461.76964,1269.8343 -461.97092,1269.6449 C -462.17219,1269.4554 -462.44289,1269.3578 -462.71875,1269.375 z"
       id="path11570"
       style="fill:#bebebe;fill-opacity:1;stroke:none;stroke-width:2;stroke-linecap:round;stroke-linejoin:bevel;marker:none;stroke-miterlimit:4.30000019;stroke-dasharray:none;stroke-dashoffset:0;stroke-opacity:1;visibility:visible;display:inline;overflow:visible;enable-background:accumulate" />
    <path
       d="M -473.50003,1259.9926 C -475.4211,1259.9926 -477.00752,1261.579 -477.00752,1263.5 C -477.00752,1265.4211 -475.4211,1267.0076 -473.50003,1267.0076 C -471.57895,1267.0076 -469.99254,1265.4211 -469.99254,1263.5 C -469.99254,1261.579 -471.57895,1259.9926 -473.50003,1259.9926 z M -473.50003,1262.0075 C -472.66108,1262.0075 -472.00748,1262.6611 -472.00748,1263.5 C -472.00748,1264.3391 -472.66108,1264.9926 -473.50003,1264.9926 C -474.33897,1264.9926 -474.99258,1264.3391 -474.99258,1263.5 C -474.99258,1262.6611 -474.33897,1262.0075 -473.50003,1262.0075 z"
       id="path11574"
       style="fill:#bebebe;fill-opacity:1;stroke:none;stroke-width:1.67498636;stroke-linecap:round;stroke-linejoin:bevel;marker:none;stroke-miterlimit:4.30000019;stroke-dasharray:none;stroke-dashoffset:0;stroke-opacity:1;visibility:visible;display:inline;overflow:visible;enable-background:accumulate" />
    <path
       d="M -479.50003,1259.9926 C -481.4211,1259.9926 -483.00752,1261.579 -483.00752,1263.5 C -483.00752,1265.4211 -481.4211,1267.0076 -479.50003,1267.0076 C -477.57895,1267.0076 -475.99254,1265.4211 -475.99254,1263.5 C -475.99254,1261.579 -477.57895,1259.9926 -479.50003,1259.9926 z M -479.50003,1262.0075 C -478.66108,1262.0075 -478.00748,1262.6611 -478.00748,1263.5 C -478.00748,1264.3391 -478.66108,1264.9926 -479.50003,1264.9926 C -480.33897,1264.9926 -480.99258,1264.3391 -480.99258,1263.5 C -480.99258,1262.6611 -480.33897,1262.0075 -479.50003,1262.0075 z"
       id="path11576"
       style="fill:#bebebe;fill-opacity:1;stroke:none;stroke-width:1.67498636;stroke-linecap:round;stroke-linejoin:bevel;marker:none;stroke-miterlimit:4.30000019;stroke-dasharray:none;stroke-dashoffset:0;stroke-opacity:1;visibility:visible;display:inline;overflow:visible;enable-background:accumulate" />
    <path
       d="M -477.63748,1268.0151 C -477.83023,1268.0895 -477.95733,1268.2749 -477.95733,1268.4815 C -477.95733,1268.6881 -477.83023,1268.8735 -477.63748,1268.948 C -476.89032,1269.2876 -476.08893,1269.32 -475.32403,1269.0226 C -475.06645,1268.9196 -474.94117,1268.6272 -475.04421,1268.3696 C -475.14724,1268.1121 -475.43958,1267.9868 -475.69717,1268.0898 C -476.23827,1268.3002 -476.69849,1268.2927 -477.22703,1268.0524 C -477.35211,1267.9816 -477.50165,1267.9679 -477.63748,1268.0151 L -477.63748,1268.0151 z"
       id="path11578"
       style="fill:#bebebe;fill-opacity:1;stroke:none;stroke-width:0.83749324;stroke-linecap:round;stroke-linejoin:bevel;marker:none;stroke-miterlimit:4.30000019;stroke-dasharray:none;stroke-dashoffset:0;stroke-opacity:1;visibility:visible;display:inline;overflow:visible;enable-background:accumulate" />
    <rect
       width="2"
       height="2.0312524"
       rx="1"
       ry="1"
       x="-475"
       y="1263"
       id="rect11580"
       style="fill:#bebebe;fill-opacity:1;stroke:none;stroke-width:1;marker:none;visibility:visible;display:inline;overflow:visible;enable-background:accumulate" />
    <rect
       width="2"
       height="2.0312524"
       rx="1"
       ry="1"
       x="-481"
       y="1263"
       id="rect11582"
       style="fill:#bebebe;fill-opacity:1;stroke:none;stroke-width:1;marker:none;visibility:visible;display:inline;overflow:visible;enable-background:accumulate" />
    <path
       d="M -472.5625,1273 C -473.04231,1273.12 -473.36235,1273.5727 -473.31546,1274.065 C -473.26857,1274.5574 -472.86883,1274.9415 -472.375,1274.9688 L -470,1275 C -469.44772,1275.0086 -468.993,1274.5679 -468.98438,1274.0156 C -468.97575,1273.4633 -469.41647,1273.0086 -469.96875,1273 L -472.34375,1273 C -472.41645,1272.992 -472.4898,1272.992 -472.5625,1273 L -472.5625,1273 z"
       id="path11584"
       style="fill:#bebebe;fill-opacity:1;stroke:none;stroke-width:2.00000024;stroke-linecap:round;stroke-linejoin:bevel;marker:none;stroke-miterlimit:4.30000019;stroke-dasharray:none;stroke-dashoffset:0;stroke-opacity:1;visibility:visible;display:inline;overflow:visible;enable-background:accumulate" />
  </g>
  <g
     transform="translate(483.00005,-1254)"
     id="layer4" />
  <g
     transform="translate(483.00005,-1254)"
     id="layer12" />
  <g
     transform="translate(483.00005,-1254)"
     id="layer9" />
  <g
     transform="translate(483.00005,-1254)"
     id="layer10" />
  <g
     transform="translate(483.00005,-1254)"
     id="layer6" />
</svg>
