<?xml version="1.0" encoding="UTF-8" standalone="no"?>
<!-- Created with Inkscape (http://www.inkscape.org/) -->
<svg
   xmlns:svg="http://www.w3.org/2000/svg"
   xmlns="http://www.w3.org/2000/svg"
   version="1.0"
   width="24.000122"
   height="24.053772"
   id="svg7384">
  <title
     id="title9167">Moblin Icon Theme</title>
  <defs
     id="defs7386" />
  <g
     transform="translate(454.00002,-1273.9896)"
     id="layer3" />
  <g
     transform="translate(454.00002,-1273.9896)"
     id="layer5" />
  <g
     transform="translate(454.00002,-1273.9896)"
     id="layer7" />
  <g
     transform="translate(454.00002,-1273.9896)"
     id="layer2" />
  <g
     transform="translate(454.00002,-1273.9896)"
     id="layer8" />
  <g
     transform="translate(454.00002,-2226.3518)"
     id="layer1" />
  <g
     transform="translate(454.00002,-1273.9896)"
     id="layer11">
    <rect
       width="24"
       height="24"
       x="-453.99991"
       y="1274"
       id="rect11243"
       style="opacity:0;fill:#ffffff;fill-opacity:1;stroke:none;display:inline" />
    <path
       d="M -454,1290.0312 L -454,1291.0312 L -454,1297.0312 L -454,1298.0312 L -453,1298.0312 L -447.0625,1298.0312 L -446.0625,1298.0312 L -446.0625,1297.0312 L -446.0625,1291.0312 L -446.0625,1290.0312 L -447.0625,1290.0312 L -453,1290.0312 L -454,1290.0312 z M -452,1292.0312 L -448.0625,1292.0312 L -448.0625,1296.0312 L -452,1296.0312 L -452,1292.0312 z"
       id="rect11253"
       style="fill:#bebebe;fill-opacity:1;stroke:none;stroke-width:2;stroke-linecap:round;stroke-linejoin:miter;marker:none;stroke-miterlimit:4.30000019;stroke-dasharray:none;stroke-dashoffset:0;stroke-opacity:1;visibility:visible;display:inline;overflow:visible;enable-background:accumulate" />
    <path
       d="M -447.9375,1290.0312 L -447.9375,1291.0312 L -447.9375,1297.0312 L -447.9375,1298.0312 L -446.9375,1298.0312 L -441,1298.0312 L -440,1298.0312 L -440,1297.0312 L -440,1291.0312 L -440,1290.0312 L -441,1290.0312 L -446.9375,1290.0312 L -447.9375,1290.0312 z M -445.9375,1292.0312 L -442,1292.0312 L -442,1296.0312 L -445.9375,1296.0312 L -445.9375,1292.0312 z"
       id="rect11263"
       style="fill:#bebebe;fill-opacity:1;stroke:none;stroke-width:2;stroke-linecap:round;stroke-linejoin:miter;marker:none;stroke-miterlimit:4.30000019;stroke-dasharray:none;stroke-dashoffset:0;stroke-opacity:1;visibility:visible;display:inline;overflow:visible;enable-background:accumulate" />
    <path
       d="M -447.9375,1284 L -447.9375,1285 L -447.9375,1291 L -447.9375,1292 L -446.9375,1292 L -441,1292 L -440,1292 L -440,1291 L -440,1285 L -440,1284 L -441,1284 L -446.9375,1284 L -447.9375,1284 z M -445.9375,1286 L -442,1286 L -442,1290 L -445.9375,1290 L -445.9375,1286 z"
       id="rect11265"
       style="fill:#bebebe;fill-opacity:1;stroke:none;stroke-width:2;stroke-linecap:round;stroke-linejoin:miter;marker:none;stroke-miterlimit:4.30000019;stroke-dasharray:none;stroke-dashoffset:0;stroke-opacity:1;visibility:visible;display:inline;overflow:visible;enable-background:accumulate" />
    <path
       d="M -441.9375,1290 L -441.9375,1291 L -441.9375,1297 L -441.9375,1298 L -440.9375,1298 L -435,1298 L -434,1298 L -434,1297 L -434,1291 L -434,1290 L -435,1290 L -440.9375,1290 L -441.9375,1290 z M -439.9375,1292 L -436,1292 L -436,1296 L -439.9375,1296 L -439.9375,1292 z"
       id="rect11267"
       style="fill:#bebebe;fill-opacity:1;stroke:none;stroke-width:2;stroke-linecap:round;stroke-linejoin:miter;marker:none;stroke-miterlimit:4.30000019;stroke-dasharray:none;stroke-dashoffset:0;stroke-opacity:1;visibility:visible;display:inline;overflow:visible;enable-background:accumulate" />
    <path
       d="M -437.9375,1280 L -437.9375,1281 L -437.9375,1287 L -437.9375,1288 L -436.9375,1288 L -431,1288 L -430,1288 L -430,1287 L -430,1281 L -430,1280 L -431,1280 L -436.9375,1280 L -437.9375,1280 z M -435.9375,1282 L -432,1282 L -432,1286 L -435.9375,1286 L -435.9375,1282 z"
       id="rect11269"
       style="fill:#bebebe;fill-opacity:1;stroke:none;stroke-width:2;stroke-linecap:round;stroke-linejoin:miter;marker:none;stroke-miterlimit:4.30000019;stroke-dasharray:none;stroke-dashoffset:0;stroke-opacity:1;visibility:visible;display:inline;overflow:visible;enable-background:accumulate" />
    <path
       d="M -437.9375,1274 L -437.9375,1275 L -437.9375,1281 L -437.9375,1282 L -436.9375,1282 L -431,1282 L -430,1282 L -430,1281 L -430,1275 L -430,1274 L -431,1274 L -436.9375,1274 L -437.9375,1274 z M -435.9375,1276 L -432,1276 L -432,1280 L -435.9375,1280 L -435.9375,1276 z"
       id="rect11271"
       style="fill:#bebebe;fill-opacity:1;stroke:none;stroke-width:2;stroke-linecap:round;stroke-linejoin:miter;marker:none;stroke-miterlimit:4.30000019;stroke-dasharray:none;stroke-dashoffset:0;stroke-opacity:1;visibility:visible;display:inline;overflow:visible;enable-background:accumulate" />
    <path
       d="M -444,1274 L -444,1275 L -444,1281 L -444,1282 L -443,1282 L -437,1282 L -436,1282 L -436,1281 L -436,1275 L -436,1274 L -437,1274 L -443,1274 L -444,1274 z M -442,1276 L -438,1276 L -438,1280 L -442,1280 L -442,1276 z"
       id="rect11273"
       style="fill:#bebebe;fill-opacity:1;stroke:none;stroke-width:2;stroke-linecap:round;stroke-linejoin:miter;marker:none;stroke-miterlimit:4.30000019;stroke-dasharray:none;stroke-dashoffset:0;stroke-opacity:1;visibility:visible;display:inline;overflow:visible;enable-background:accumulate" />
    <path
       d="M -449.9375,1274 L -449.9375,1275 L -449.9375,1281 L -449.9375,1282 L -448.9375,1282 L -443,1282 L -442,1282 L -442,1281 L -442,1275 L -442,1274 L -443,1274 L -448.9375,1274 L -449.9375,1274 z M -447.9375,1276 L -444,1276 L -444,1280 L -447.9375,1280 L -447.9375,1276 z"
       id="rect11275"
       style="fill:#bebebe;fill-opacity:1;stroke:none;stroke-width:2;stroke-linecap:round;stroke-linejoin:miter;marker:none;stroke-miterlimit:4.30000019;stroke-dasharray:none;stroke-dashoffset:0;stroke-opacity:1;visibility:visible;display:inline;overflow:visible;enable-background:accumulate" />
    <path
       d="M -449.01281,1274.9905 L -448.99981,1281 L -436.99981,1281 L -436.99981,1287 L -430.99981,1287 L -430.99981,1275 L -449.01261,1274.99 L -449.01281,1274.9905 z"
       id="path11277"
       style="opacity:0.5;fill:#bebebe;fill-opacity:1;stroke:none;stroke-width:2;stroke-linecap:round;stroke-linejoin:miter;marker:none;stroke-miterlimit:4.30000019;stroke-dasharray:none;stroke-dashoffset:0;stroke-opacity:1;visibility:visible;display:inline;overflow:visible;enable-background:accumulate" />
  </g>
  <g
     transform="translate(454.00002,-1273.9896)"
     id="layer4" />
  <g
     transform="translate(454.00002,-1273.9896)"
     id="layer9" />
  <g
     transform="translate(454.00002,-1273.9896)"
     id="layer10" />
  <g
     transform="translate(454.00002,-1273.9896)"
     id="layer6" />
</svg>
