<?xml version="1.0" encoding="UTF-8" standalone="no"?>
<!-- Created with Inkscape (http://www.inkscape.org/) -->
<svg
   xmlns:svg="http://www.w3.org/2000/svg"
   xmlns="http://www.w3.org/2000/svg"
   version="1.0"
   width="24"
   height="24"
   id="svg7384">
  <title
     id="title9167">Moblin Icon Theme</title>
  <defs
     id="defs7386" />
  <g
     transform="translate(396,-1064)"
     id="layer3" />
  <g
     transform="translate(396,-1064)"
     id="layer5" />
  <g
     transform="translate(396,-1064)"
     id="layer7" />
  <g
     transform="translate(396,-1064)"
     id="layer2" />
  <g
     transform="translate(396,-1064)"
     id="layer8" />
  <g
     transform="translate(396,-2016.3622)"
     id="layer1" />
  <g
     transform="translate(396,-1064)"
     id="layer11">
    <rect
       width="24"
       height="24"
       x="-396"
       y="1064"
       id="rect6923"
       style="opacity:0;fill:#ffffff;fill-opacity:1;stroke:none;display:inline" />
    <path
       d="M -394.28125,1064 C -395.20974,1064 -396,1064.7903 -396,1065.7188 L -396,1080.2812 C -396,1081.2097 -395.20975,1082 -394.28125,1082 L -389.96875,1082 C -389.60811,1082.0051 -389.27267,1081.8156 -389.09086,1081.5041 C -388.90906,1081.1926 -388.90906,1080.8074 -389.09086,1080.4959 C -389.27267,1080.1844 -389.60811,1079.9949 -389.96875,1080 L -394,1080 L -394,1066 L -384,1066 L -384,1066.9375 C -384.0051,1067.2981 -383.81562,1067.6336 -383.50413,1067.8154 C -383.19263,1067.9972 -382.80737,1067.9972 -382.49587,1067.8154 C -382.18438,1067.6336 -381.9949,1067.2981 -382,1066.9375 L -382,1065.7188 C -382,1064.7903 -382.79026,1064 -383.71875,1064 L -394.28125,1064 z"
       id="rect6938-3"
       style="fill:#bebebe;fill-opacity:1;fill-rule:nonzero;stroke:none;stroke-width:2;stroke-linecap:round;stroke-linejoin:round;marker:none;stroke-miterlimit:4;stroke-dashoffset:0;stroke-opacity:1;visibility:visible;display:inline;overflow:visible;enable-background:accumulate" />
    <path
       d="M -386.3125,1068 C -387.24094,1068 -388.03125,1068.7903 -388.03125,1069.7188 L -388.03125,1084.2812 C -388.03125,1085.2097 -387.24095,1086 -386.3125,1086 L -375.71875,1086 C -374.79031,1086 -374.03122,1085.2097 -374.03125,1084.2812 L -374.03125,1069.7188 C -374.03125,1068.7903 -374.79031,1068 -375.71875,1068 L -386.3125,1068 z M -386.03125,1070 L -376.03125,1070 L -376.03125,1084 L -386.03125,1084 L -386.03125,1070 z"
       id="rect7005"
       style="fill:#bebebe;fill-opacity:1;fill-rule:nonzero;stroke:none;stroke-width:2;stroke-linecap:round;stroke-linejoin:round;marker:none;stroke-miterlimit:4;stroke-dasharray:none;stroke-dashoffset:0;stroke-opacity:1;visibility:visible;display:inline;overflow:visible;enable-background:accumulate" />
    <path
       d="M -380.96875,1073 L -383.65625,1076 C -383.96808,1076.3454 -384.3868,1077.6082 -383.40625,1078.5312 C -382.80465,1079.0976 -382.14553,1079.0718 -381.65625,1078.875 L -381.9375,1081 L -380,1081 L -380.3125,1078.875 C -379.69699,1079.0931 -378.97579,1078.9109 -378.53125,1078.5 C -377.90702,1077.9229 -377.82929,1076.5879 -378.375,1075.8438 L -380.96875,1073 z"
       id="path7008"
       style="fill:#bebebe;fill-opacity:1;fill-rule:nonzero;stroke:none;stroke-width:1;marker:none;visibility:visible;display:inline;overflow:visible;enable-background:accumulate" />
    <path
       d="M -389.0625,1069.9375 L -391,1073 L -389.0625,1076.0625 L -389.0625,1073 L -389.0625,1069.9375 z"
       id="path7011"
       style="fill:#bebebe;fill-opacity:1;fill-rule:nonzero;stroke:none;stroke-width:1;marker:none;visibility:visible;display:inline;overflow:visible;enable-background:accumulate" />
  </g>
  <g
     transform="translate(396,-1064)"
     id="layer4" />
  <g
     transform="translate(396,-1064)"
     id="layer9" />
  <g
     transform="translate(396,-1064)"
     id="layer10" />
  <g
     transform="translate(396,-1064)"
     id="layer6" />
</svg>
