<?xml version="1.0" encoding="UTF-8" standalone="no"?>
<!-- Created with Inkscape (http://www.inkscape.org/) -->
<svg
   xmlns:svg="http://www.w3.org/2000/svg"
   xmlns="http://www.w3.org/2000/svg"
   version="1.0"
   width="24.000183"
   height="24.076517"
   id="svg7384">
  <title
     id="title9167">Moblin Icon Theme</title>
  <defs
     id="defs7386" />
  <g
     transform="translate(426.00008,-1273.9669)"
     id="layer3" />
  <g
     transform="translate(426.00008,-1273.9669)"
     id="layer5" />
  <g
     transform="translate(426.00008,-1273.9669)"
     id="layer7" />
  <g
     transform="translate(426.00008,-1273.9669)"
     id="layer2" />
  <g
     transform="translate(426.00008,-1273.9669)"
     id="layer8" />
  <g
     transform="translate(426.00008,-2226.329)"
     id="layer1" />
  <g
     transform="translate(426.00008,-1273.9669)"
     id="layer11">
    <rect
       width="24"
       height="24"
       x="-425.99991"
       y="1274"
       id="rect11303"
       style="opacity:0;fill:#ffffff;fill-opacity:1;stroke:none;display:inline" />
    <path
       d="M -426,1285 L -426,1286 L -426,1297.0312 L -426,1298.0312 L -425,1298.0312 L -414,1298.0312 L -413,1298.0312 L -413,1297.0312 L -413,1286 L -413,1285 L -414,1285 L -425,1285 L -426,1285 z M -424,1287 L -415,1287 L -415,1296.0312 L -424,1296.0312 L -424,1287 z"
       id="rect11305"
       style="fill:#bebebe;fill-opacity:1;stroke:none;stroke-width:2;stroke-linecap:round;stroke-linejoin:miter;marker:none;stroke-miterlimit:4.30000019;stroke-dasharray:none;stroke-dashoffset:0;stroke-opacity:1;visibility:visible;display:inline;overflow:visible;enable-background:accumulate" />
    <path
       d="M -415,1273.9688 L -415,1274.9688 L -415,1286.125 L -415,1287.125 L -414,1287.125 L -403,1287.125 L -402,1287.125 L -402,1286.125 L -402,1274.9688 L -402,1273.9688 L -403,1273.9688 L -414,1273.9688 L -415,1273.9688 z M -413,1275.9688 L -404,1275.9688 L -404,1285.125 L -413,1285.125 L -413,1275.9688 z"
       id="rect11309"
       style="fill:#bebebe;fill-opacity:1;stroke:none;stroke-width:2;stroke-linecap:round;stroke-linejoin:miter;marker:none;stroke-miterlimit:4.30000019;stroke-dasharray:none;stroke-dashoffset:0;stroke-opacity:1;visibility:visible;display:inline;overflow:visible;enable-background:accumulate" />
    <path
       d="M -423.9375,1276 L -423.9375,1277 L -423.9375,1281 L -423.9375,1282 L -422.9375,1282 L -419,1282 L -418,1282 L -418,1281 L -418,1277 L -418,1276 L -419,1276 L -422.9375,1276 L -423.9375,1276 z M -421.9375,1278 L -420,1278 L -420,1280 L -421.9375,1280 L -421.9375,1278 z"
       id="rect11323"
       style="fill:#bebebe;fill-opacity:1;stroke:none;stroke-width:2;stroke-linecap:round;stroke-linejoin:miter;marker:none;stroke-miterlimit:4.30000019;stroke-dasharray:none;stroke-dashoffset:0;stroke-opacity:1;visibility:visible;display:inline;overflow:visible;enable-background:accumulate" />
    <path
       d="M -409.9375,1290 L -409.9375,1291 L -409.9375,1295 L -409.9375,1296 L -408.9375,1296 L -405,1296 L -404,1296 L -404,1295 L -404,1291 L -404,1290 L -405,1290 L -408.9375,1290 L -409.9375,1290 z M -407.9375,1292 L -406,1292 L -406,1294 L -407.9375,1294 L -407.9375,1292 z"
       id="rect11325"
       style="fill:#bebebe;fill-opacity:1;stroke:none;stroke-width:2;stroke-linecap:round;stroke-linejoin:miter;marker:none;stroke-miterlimit:4.30000019;stroke-dasharray:none;stroke-dashoffset:0;stroke-opacity:1;visibility:visible;display:inline;overflow:visible;enable-background:accumulate" />
  </g>
  <g
     transform="translate(426.00008,-1273.9669)"
     id="layer4" />
  <g
     transform="translate(426.00008,-1273.9669)"
     id="layer9" />
  <g
     transform="translate(426.00008,-1273.9669)"
     id="layer10" />
  <g
     transform="translate(426.00008,-1273.9669)"
     id="layer6" />
</svg>
