<?xml version="1.0" encoding="UTF-8" standalone="no"?>
<!-- Created with Inkscape (http://www.inkscape.org/) -->
<svg
   xmlns:svg="http://www.w3.org/2000/svg"
   xmlns="http://www.w3.org/2000/svg"
   version="1.0"
   width="24.000122"
   height="24.053772"
   id="svg7384">
  <title
     id="title9167">Moblin Icon Theme</title>
  <defs
     id="defs7386" />
  <g
     transform="translate(454.00002,-1223.9896)"
     id="layer3" />
  <g
     transform="translate(454.00002,-1223.9896)"
     id="layer5" />
  <g
     transform="translate(454.00002,-1223.9896)"
     id="layer7" />
  <g
     transform="translate(454.00002,-1223.9896)"
     id="layer2" />
  <g
     transform="translate(454.00002,-1223.9896)"
     id="layer8" />
  <g
     transform="translate(454.00002,-2176.3518)"
     id="layer1" />
  <g
     transform="translate(454.00002,-1223.9896)"
     id="layer11">
    <rect
       width="24"
       height="24"
       x="-453.99991"
       y="1224"
       id="rect11243"
       style="opacity:0;fill:#ffffff;fill-opacity:1;stroke:none;display:inline" />
    <path
       d="M -454,1240.0312 L -454,1241.0312 L -454,1247.0312 L -454,1248.0312 L -453,1248.0312 L -447.0625,1248.0312 L -446.0625,1248.0312 L -446.0625,1247.0312 L -446.0625,1241.0312 L -446.0625,1240.0312 L -447.0625,1240.0312 L -453,1240.0312 L -454,1240.0312 z M -452,1242.0312 L -448.0625,1242.0312 L -448.0625,1246.0312 L -452,1246.0312 L -452,1242.0312 z"
       id="rect11253"
       style="fill:#bebebe;fill-opacity:1;stroke:none;stroke-width:2;stroke-linecap:round;stroke-linejoin:miter;marker:none;stroke-miterlimit:4.30000019;stroke-dasharray:none;stroke-dashoffset:0;stroke-opacity:1;visibility:visible;display:inline;overflow:visible;enable-background:accumulate" />
    <path
       d="M -447.9375,1240.0312 L -447.9375,1241.0312 L -447.9375,1247.0312 L -447.9375,1248.0312 L -446.9375,1248.0312 L -441,1248.0312 L -440,1248.0312 L -440,1247.0312 L -440,1241.0312 L -440,1240.0312 L -441,1240.0312 L -446.9375,1240.0312 L -447.9375,1240.0312 z M -445.9375,1242.0312 L -442,1242.0312 L -442,1246.0312 L -445.9375,1246.0312 L -445.9375,1242.0312 z"
       id="rect11263"
       style="fill:#bebebe;fill-opacity:1;stroke:none;stroke-width:2;stroke-linecap:round;stroke-linejoin:miter;marker:none;stroke-miterlimit:4.30000019;stroke-dasharray:none;stroke-dashoffset:0;stroke-opacity:1;visibility:visible;display:inline;overflow:visible;enable-background:accumulate" />
    <path
       d="M -447.9375,1234 L -447.9375,1235 L -447.9375,1241 L -447.9375,1242 L -446.9375,1242 L -441,1242 L -440,1242 L -440,1241 L -440,1235 L -440,1234 L -441,1234 L -446.9375,1234 L -447.9375,1234 z M -445.9375,1236 L -442,1236 L -442,1240 L -445.9375,1240 L -445.9375,1236 z"
       id="rect11265"
       style="fill:#bebebe;fill-opacity:1;stroke:none;stroke-width:2;stroke-linecap:round;stroke-linejoin:miter;marker:none;stroke-miterlimit:4.30000019;stroke-dasharray:none;stroke-dashoffset:0;stroke-opacity:1;visibility:visible;display:inline;overflow:visible;enable-background:accumulate" />
    <path
       d="M -441.9375,1240 L -441.9375,1241 L -441.9375,1247 L -441.9375,1248 L -440.9375,1248 L -435,1248 L -434,1248 L -434,1247 L -434,1241 L -434,1240 L -435,1240 L -440.9375,1240 L -441.9375,1240 z M -439.9375,1242 L -436,1242 L -436,1246 L -439.9375,1246 L -439.9375,1242 z"
       id="rect11267"
       style="fill:#bebebe;fill-opacity:1;stroke:none;stroke-width:2;stroke-linecap:round;stroke-linejoin:miter;marker:none;stroke-miterlimit:4.30000019;stroke-dasharray:none;stroke-dashoffset:0;stroke-opacity:1;visibility:visible;display:inline;overflow:visible;enable-background:accumulate" />
    <path
       d="M -437.9375,1230 L -437.9375,1231 L -437.9375,1237 L -437.9375,1238 L -436.9375,1238 L -431,1238 L -430,1238 L -430,1237 L -430,1231 L -430,1230 L -431,1230 L -436.9375,1230 L -437.9375,1230 z M -435.9375,1232 L -432,1232 L -432,1236 L -435.9375,1236 L -435.9375,1232 z"
       id="rect11269"
       style="fill:#bebebe;fill-opacity:1;stroke:none;stroke-width:2;stroke-linecap:round;stroke-linejoin:miter;marker:none;stroke-miterlimit:4.30000019;stroke-dasharray:none;stroke-dashoffset:0;stroke-opacity:1;visibility:visible;display:inline;overflow:visible;enable-background:accumulate" />
    <path
       d="M -437.9375,1224 L -437.9375,1225 L -437.9375,1231 L -437.9375,1232 L -436.9375,1232 L -431,1232 L -430,1232 L -430,1231 L -430,1225 L -430,1224 L -431,1224 L -436.9375,1224 L -437.9375,1224 z M -435.9375,1226 L -432,1226 L -432,1230 L -435.9375,1230 L -435.9375,1226 z"
       id="rect11271"
       style="fill:#bebebe;fill-opacity:1;stroke:none;stroke-width:2;stroke-linecap:round;stroke-linejoin:miter;marker:none;stroke-miterlimit:4.30000019;stroke-dasharray:none;stroke-dashoffset:0;stroke-opacity:1;visibility:visible;display:inline;overflow:visible;enable-background:accumulate" />
    <path
       d="M -444,1224 L -444,1225 L -444,1231 L -444,1232 L -443,1232 L -437,1232 L -436,1232 L -436,1231 L -436,1225 L -436,1224 L -437,1224 L -443,1224 L -444,1224 z M -442,1226 L -438,1226 L -438,1230 L -442,1230 L -442,1226 z"
       id="rect11273"
       style="fill:#bebebe;fill-opacity:1;stroke:none;stroke-width:2;stroke-linecap:round;stroke-linejoin:miter;marker:none;stroke-miterlimit:4.30000019;stroke-dasharray:none;stroke-dashoffset:0;stroke-opacity:1;visibility:visible;display:inline;overflow:visible;enable-background:accumulate" />
    <path
       d="M -449.9375,1224 L -449.9375,1225 L -449.9375,1231 L -449.9375,1232 L -448.9375,1232 L -443,1232 L -442,1232 L -442,1231 L -442,1225 L -442,1224 L -443,1224 L -448.9375,1224 L -449.9375,1224 z M -447.9375,1226 L -444,1226 L -444,1230 L -447.9375,1230 L -447.9375,1226 z"
       id="rect11275"
       style="fill:#bebebe;fill-opacity:1;stroke:none;stroke-width:2;stroke-linecap:round;stroke-linejoin:miter;marker:none;stroke-miterlimit:4.30000019;stroke-dasharray:none;stroke-dashoffset:0;stroke-opacity:1;visibility:visible;display:inline;overflow:visible;enable-background:accumulate" />
    <path
       d="M -449.01281,1224.9905 L -448.99981,1231 L -436.99981,1231 L -436.99981,1237 L -430.99981,1237 L -430.99981,1225 L -449.01261,1224.99 L -449.01281,1224.9905 z"
       id="path11277"
       style="opacity:0.5;fill:#bebebe;fill-opacity:1;stroke:none;stroke-width:2;marker:none;visibility:visible;display:inline;overflow:visible;enable-background:accumulate" />
  </g>
  <g
     transform="translate(454.00002,-1223.9896)"
     id="layer4" />
  <g
     transform="translate(454.00002,-1223.9896)"
     id="layer12" />
  <g
     transform="translate(454.00002,-1223.9896)"
     id="layer9" />
  <g
     transform="translate(454.00002,-1223.9896)"
     id="layer10" />
  <g
     transform="translate(454.00002,-1223.9896)"
     id="layer6" />
</svg>
