<?xml version="1.0" encoding="UTF-8" standalone="no"?>
<!-- Created with Inkscape (http://www.inkscape.org/) -->
<svg
   xmlns:svg="http://www.w3.org/2000/svg"
   xmlns="http://www.w3.org/2000/svg"
   version="1.0"
   width="24.000011"
   height="24"
   id="svg7384">
  <title
     id="title9167">Moblin Icon Theme</title>
  <defs
     id="defs7386" />
  <g
     transform="translate(509.99995,-1224)"
     id="layer3" />
  <g
     transform="translate(509.99995,-1224)"
     id="layer5" />
  <g
     transform="translate(509.99995,-1224)"
     id="layer7" />
  <g
     transform="translate(509.99995,-1224)"
     id="layer2" />
  <g
     transform="translate(509.99995,-1224)"
     id="layer8" />
  <g
     transform="translate(509.99995,-2176.3622)"
     id="layer1" />
  <g
     transform="translate(509.99995,-1224)"
     id="layer11">
    <rect
       width="24"
       height="24"
       x="-509.99994"
       y="1224"
       id="rect11215"
       style="opacity:0;fill:#ffffff;fill-opacity:1;stroke:none;display:inline" />
    <path
       d="M -502.28125,1227 C -503.20974,1227 -504.00003,1227.7903 -504,1228.7188 L -504,1243.2812 C -504,1244.2097 -503.20976,1245 -502.28125,1245 C -501.77052,1245.0179 -501.32846,1244.6479 -501.25619,1244.1419 C -501.18392,1243.636 -501.50469,1243.157 -502,1243.0312 L -502,1229 L -491.96875,1229 C -491.84283,1229.4952 -491.3639,1229.8158 -490.85809,1229.7436 C -490.35228,1229.6713 -489.98226,1229.2294 -490,1228.7188 C -490,1227.7903 -490.79025,1227 -491.71875,1227 L -502.28125,1227 z"
       id="path11217"
       style="fill:#bebebe;fill-opacity:1;fill-rule:nonzero;stroke:none;stroke-width:2;stroke-linecap:round;stroke-linejoin:round;marker:none;stroke-miterlimit:4;stroke-dashoffset:0;stroke-opacity:1;visibility:visible;display:inline;overflow:visible;enable-background:accumulate" />
    <path
       d="M -498.28125,1230 C -499.20969,1230 -500,1230.7903 -500,1231.7188 L -500,1246.2812 C -500,1247.2097 -499.2097,1248 -498.28125,1248 L -487.71875,1248 C -486.79031,1248 -485.99997,1247.2097 -486,1246.2812 L -486,1231.7188 C -486,1230.7903 -486.79031,1230 -487.71875,1230 L -498.28125,1230 z M -498,1232 L -488,1232 L -488,1246 L -498,1246 L -498,1232 z"
       id="rect11219"
       style="fill:#bebebe;fill-opacity:1;fill-rule:nonzero;stroke:none;stroke-width:2;stroke-linecap:round;stroke-linejoin:round;marker:none;stroke-miterlimit:4;stroke-dasharray:none;stroke-dashoffset:0;stroke-opacity:1;visibility:visible;display:inline;overflow:visible;enable-background:accumulate" />
    <path
       d="M -494.49995,1236.9688 C -495.32838,1236.9688 -495.99995,1237.6404 -495.99995,1238.4688 C -495.99995,1238.7691 -495.90195,1239.0467 -495.74995,1239.2813 C -495.74496,1239.2893 -495.75495,1239.3046 -495.74995,1239.3126 L -495.71866,1239.4376 L -492.9374,1242 L -490.2499,1239.3126 C -490.08816,1239.0731 -489.9999,1238.7795 -489.9999,1238.4688 C -489.9999,1237.6404 -490.67147,1236.9688 -491.4999,1236.9688 C -492.30782,1236.9688 -492.96778,1237.6063 -492.9999,1238.4063 C -493.032,1237.6063 -493.69198,1236.9688 -494.4999,1236.9688 L -494.49995,1236.9688 z"
       id="path11225"
       style="fill:#bebebe;fill-opacity:1;stroke:none;stroke-width:2;marker:none;visibility:visible;display:inline;overflow:visible;enable-background:accumulate" />
    <path
       d="M -506.28125,1224 C -507.20974,1224 -508.00003,1224.7903 -508,1225.7188 L -508,1240.2812 C -508,1241.2097 -507.20976,1242 -506.28125,1242 C -505.77052,1242.0179 -505.32846,1241.6479 -505.25619,1241.1419 C -505.18392,1240.636 -505.50469,1240.157 -506,1240.0312 L -506,1226 L -495.96875,1226 C -495.84283,1226.4952 -495.3639,1226.8158 -494.85809,1226.7436 C -494.35228,1226.6713 -493.98226,1226.2294 -494,1225.7188 C -494,1224.7903 -494.79025,1224 -495.71875,1224 L -506.28125,1224 z"
       id="path11232"
       style="fill:#bebebe;fill-opacity:1;fill-rule:nonzero;stroke:none;stroke-width:2;stroke-linecap:round;stroke-linejoin:round;marker:none;stroke-miterlimit:4;stroke-dashoffset:0;stroke-opacity:1;visibility:visible;display:inline;overflow:visible;enable-background:accumulate" />
  </g>
  <g
     transform="translate(509.99995,-1224)"
     id="layer4" />
  <g
     transform="translate(509.99995,-1224)"
     id="layer12" />
  <g
     transform="translate(509.99995,-1224)"
     id="layer9" />
  <g
     transform="translate(509.99995,-1224)"
     id="layer10" />
  <g
     transform="translate(509.99995,-1224)"
     id="layer6" />
</svg>
