<?xml version="1.0" encoding="UTF-8" standalone="no"?>
<!-- Created with Inkscape (http://www.inkscape.org/) -->
<svg
   xmlns:svg="http://www.w3.org/2000/svg"
   xmlns="http://www.w3.org/2000/svg"
   version="1.0"
   width="24.000031"
   height="24.062527"
   id="svg7384">
  <title
     id="title9167">Moblin Icon Theme</title>
  <defs
     id="defs7386" />
  <g
     transform="translate(618.00003,-1304)"
     id="layer3" />
  <g
     transform="translate(618.00003,-1304)"
     id="layer5" />
  <g
     transform="translate(618.00003,-1304)"
     id="layer7" />
  <g
     transform="translate(618.00003,-1304)"
     id="layer2" />
  <g
     transform="translate(618.00003,-1304)"
     id="layer8" />
  <g
     transform="translate(618.00003,-2256.3622)"
     id="layer1" />
  <g
     transform="translate(618.00003,-1304)"
     id="layer11">
    <rect
       width="24"
       height="24"
       x="-618"
       y="1304.0625"
       id="rect11399"
       style="opacity:0;fill:#ffffff;fill-opacity:1;stroke:none;display:inline" />
    <path
       d="M -609.78125,1303.8125 L -610.53125,1304.125 C -611.57921,1304.5574 -612.54856,1305.165 -613.40625,1305.8438 L -614.03125,1306.3438 L -613.6875,1307.0625 L -612.375,1309.75 C -613.05807,1310.5406 -613.60895,1311.4294 -613.96875,1312.4375 L -616.9375,1312.625 L -617.71875,1312.6875 L -617.84375,1313.5 C -617.92367,1314.0433 -618,1314.6148 -618,1315.25 C -618.00004,1315.8535 -617.8995,1316.38 -617.84375,1316.8125 L -617.75,1317.625 L -616.9375,1317.6875 L -614.0625,1317.875 C -613.70383,1318.9476 -613.17596,1319.8955 -612.46875,1320.7188 L -613.75,1323.4062 L -614.09375,1324.125 L -613.46875,1324.625 C -612.62691,1325.2998 -611.68529,1325.9069 -610.65625,1326.3438 L -609.875,1326.6562 L -609.4375,1325.9688 L -607.8125,1323.5625 C -607.2349,1323.706 -606.65886,1323.875 -606,1323.875 C -605.40497,1323.875 -604.89998,1323.7125 -604.375,1323.5938 L -602.71875,1326.0312 L -602.25,1326.6875 L -601.53125,1326.375 C -600.50039,1325.955 -599.53146,1325.3733 -598.6875,1324.7188 L -598.0625,1324.25 L -598.40625,1323.5 L -599.65625,1320.875 C -598.88777,1320.0079 -598.30944,1319.0104 -597.9375,1317.875 L -595.0625,1317.6875 L -594.25,1317.625 L -594.15625,1316.8125 C -594.09956,1316.3779 -594,1315.8525 -594,1315.25 C -594.00002,1314.615 -594.07607,1314.0438 -594.15625,1313.5 L -594.28125,1312.6875 L -595.0625,1312.625 L -598.03125,1312.4375 C -598.41153,1311.3714 -599.00939,1310.4158 -599.75,1309.5938 L -598.46875,1306.9688 L -598.09375,1306.2188 L -598.75,1305.7188 C -599.29032,1305.3052 -599.94251,1305.019 -600.5625,1304.6875 L -600.09375,1304 L -602,1304 L -602.15625,1304.875 L -602.8125,1304.4375 L -604.46875,1306.875 C -604.96529,1306.7756 -605.45579,1306.6562 -606,1306.6562 C -606.60539,1306.6563 -607.14192,1306.7844 -607.6875,1306.9062 L -609.34375,1304.5 L -609.78125,1303.8125 z M -601.6875,1306.3125 C -601.32895,1306.4917 -600.99432,1306.6839 -600.65625,1306.9062 L -601.8125,1309.2812 L -602.15625,1309.9375 L -601.59375,1310.4375 C -600.67473,1311.2873 -600.00693,1312.3766 -599.6875,1313.625 L -599.5,1314.3438 L -598.78125,1314.375 L -596.0625,1314.5625 C -596.04076,1314.7912 -596.00001,1315.0299 -596,1315.25 C -596,1315.3903 -596.04572,1315.5918 -596.0625,1315.75 L -598.6875,1315.9375 L -599.4375,1315.9688 L -599.59375,1316.7188 C -599.88281,1318.0014 -600.56722,1319.1442 -601.5,1320.0312 L -602.03125,1320.5312 L -601.71875,1321.1875 L -600.59375,1323.5625 C -600.91361,1323.7762 -601.25507,1323.95 -601.59375,1324.125 L -603.0625,1321.9688 L -603.46875,1321.3438 L -604.1875,1321.5625 C -604.81161,1321.7454 -605.39507,1321.875 -606,1321.875 C -606.65054,1321.875 -607.27541,1321.7089 -607.9375,1321.5 L -608.65625,1321.2812 L -609.0625,1321.9062 L -610.5625,1324.0625 C -610.90606,1323.8784 -611.23999,1323.692 -611.5625,1323.4688 L -610.375,1321.0312 L -610.0625,1320.4062 L -610.5625,1319.9062 C -611.45369,1319.0206 -612.13122,1317.939 -612.40625,1316.7188 L -612.5625,1315.9688 L -613.3125,1315.9375 L -615.9375,1315.75 C -615.95438,1315.5918 -616.00001,1315.3898 -616,1315.25 C -616,1315.03 -615.95927,1314.7912 -615.9375,1314.5625 L -613.21875,1314.375 L -612.5,1314.3438 L -612.3125,1313.625 C -612.00877,1312.438 -611.3862,1311.3971 -610.53125,1310.5625 L -610.03125,1310.0625 L -610.34375,1309.4375 L -611.5,1307 C -611.16553,1306.7727 -610.82529,1306.5604 -610.46875,1306.375 L -608.96875,1308.5625 L -608.5625,1309.1562 L -607.875,1308.9375 C -607.25257,1308.751 -606.63124,1308.6563 -606,1308.6562 C -605.41119,1308.6562 -604.82992,1308.7453 -604.25,1308.9062 L -603.5625,1309.0938 L -603.15625,1308.5 L -601.6875,1306.3125 z"
       id="path11062-5"
       style="fill:#bebebe;fill-opacity:1;stroke:none;stroke-width:1.99999988;stroke-linecap:round;stroke-linejoin:miter;marker:none;stroke-miterlimit:4.30000019;stroke-dasharray:none;stroke-dashoffset:0;stroke-opacity:1;visibility:visible;display:inline;overflow:visible;enable-background:accumulate" />
  </g>
  <g
     transform="translate(618.00003,-1304)"
     id="layer4" />
  <g
     transform="translate(618.00003,-1304)"
     id="layer9" />
  <g
     transform="translate(618.00003,-1304)"
     id="layer10" />
  <g
     transform="translate(618.00003,-1304)"
     id="layer6" />
</svg>
