<?xml version="1.0" encoding="UTF-8" standalone="no"?>
<!-- Created with Inkscape (http://www.inkscape.org/) -->
<svg
   xmlns:svg="http://www.w3.org/2000/svg"
   xmlns="http://www.w3.org/2000/svg"
   version="1.0"
   width="24.000183"
   height="24.076517"
   id="svg7384">
  <title
     id="title9167">Moblin Icon Theme</title>
  <defs
     id="defs7386" />
  <g
     transform="translate(426.00008,-1223.9669)"
     id="layer3" />
  <g
     transform="translate(426.00008,-1223.9669)"
     id="layer5" />
  <g
     transform="translate(426.00008,-1223.9669)"
     id="layer7" />
  <g
     transform="translate(426.00008,-1223.9669)"
     id="layer2" />
  <g
     transform="translate(426.00008,-1223.9669)"
     id="layer8" />
  <g
     transform="translate(426.00008,-2176.329)"
     id="layer1" />
  <g
     transform="translate(426.00008,-1223.9669)"
     id="layer11">
    <rect
       width="24"
       height="24"
       x="-425.99991"
       y="1224"
       id="rect11303"
       style="opacity:0;fill:#ffffff;fill-opacity:1;stroke:none;display:inline" />
    <path
       d="M -426,1235 L -426,1236 L -426,1247.0312 L -426,1248.0312 L -425,1248.0312 L -414,1248.0312 L -413,1248.0312 L -413,1247.0312 L -413,1236 L -413,1235 L -414,1235 L -425,1235 L -426,1235 z M -424,1237 L -415,1237 L -415,1246.0312 L -424,1246.0312 L -424,1237 z"
       id="rect11305"
       style="fill:#bebebe;fill-opacity:1;stroke:none;stroke-width:2;stroke-linecap:round;stroke-linejoin:miter;marker:none;stroke-miterlimit:4.30000019;stroke-dasharray:none;stroke-dashoffset:0;stroke-opacity:1;visibility:visible;display:inline;overflow:visible;enable-background:accumulate" />
    <path
       d="M -415,1223.9688 L -415,1224.9688 L -415,1236.125 L -415,1237.125 L -414,1237.125 L -403,1237.125 L -402,1237.125 L -402,1236.125 L -402,1224.9688 L -402,1223.9688 L -403,1223.9688 L -414,1223.9688 L -415,1223.9688 z M -413,1225.9688 L -404,1225.9688 L -404,1235.125 L -413,1235.125 L -413,1225.9688 z"
       id="rect11309"
       style="fill:#bebebe;fill-opacity:1;stroke:none;stroke-width:2;stroke-linecap:round;stroke-linejoin:miter;marker:none;stroke-miterlimit:4.30000019;stroke-dasharray:none;stroke-dashoffset:0;stroke-opacity:1;visibility:visible;display:inline;overflow:visible;enable-background:accumulate" />
    <path
       d="M -423.9375,1226 L -423.9375,1227 L -423.9375,1231 L -423.9375,1232 L -422.9375,1232 L -419,1232 L -418,1232 L -418,1231 L -418,1227 L -418,1226 L -419,1226 L -422.9375,1226 L -423.9375,1226 z M -421.9375,1228 L -420,1228 L -420,1230 L -421.9375,1230 L -421.9375,1228 z"
       id="rect11323"
       style="fill:#bebebe;fill-opacity:1;stroke:none;stroke-width:2;stroke-linecap:round;stroke-linejoin:miter;marker:none;stroke-miterlimit:4.30000019;stroke-dasharray:none;stroke-dashoffset:0;stroke-opacity:1;visibility:visible;display:inline;overflow:visible;enable-background:accumulate" />
    <path
       d="M -409.9375,1240 L -409.9375,1241 L -409.9375,1245 L -409.9375,1246 L -408.9375,1246 L -405,1246 L -404,1246 L -404,1245 L -404,1241 L -404,1240 L -405,1240 L -408.9375,1240 L -409.9375,1240 z M -407.9375,1242 L -406,1242 L -406,1244 L -407.9375,1244 L -407.9375,1242 z"
       id="rect11325"
       style="fill:#bebebe;fill-opacity:1;stroke:none;stroke-width:2;stroke-linecap:round;stroke-linejoin:miter;marker:none;stroke-miterlimit:4.30000019;stroke-dasharray:none;stroke-dashoffset:0;stroke-opacity:1;visibility:visible;display:inline;overflow:visible;enable-background:accumulate" />
  </g>
  <g
     transform="translate(426.00008,-1223.9669)"
     id="layer4" />
  <g
     transform="translate(426.00008,-1223.9669)"
     id="layer12" />
  <g
     transform="translate(426.00008,-1223.9669)"
     id="layer9" />
  <g
     transform="translate(426.00008,-1223.9669)"
     id="layer10" />
  <g
     transform="translate(426.00008,-1223.9669)"
     id="layer6" />
</svg>
