<?xml version="1.0" encoding="UTF-8" standalone="no"?>
<!-- Created with Inkscape (http://www.inkscape.org/) -->
<svg
   xmlns:svg="http://www.w3.org/2000/svg"
   xmlns="http://www.w3.org/2000/svg"
   version="1.0"
   width="24.000011"
   height="24"
   id="svg7384">
  <title
     id="title9167">Moblin Icon Theme</title>
  <defs
     id="defs7386" />
  <g
     transform="translate(426,-1064)"
     id="layer3" />
  <g
     transform="translate(426,-1064)"
     id="layer5" />
  <g
     transform="translate(426,-1064)"
     id="layer7" />
  <g
     transform="translate(426,-1064)"
     id="layer2" />
  <g
     transform="translate(426,-1064)"
     id="layer8" />
  <g
     transform="translate(426,-2016.3622)"
     id="layer1" />
  <g
     transform="translate(426,-1064)"
     id="layer11">
    <rect
       width="24"
       height="24"
       x="-426"
       y="1064"
       id="rect6906"
       style="opacity:0;fill:#ffffff;fill-opacity:1;stroke:none;display:inline" />
    <g
       transform="translate(47.918502,702.99983)"
       id="g6908" />
    <path
       d="M -414.28125,1067 C -415.20969,1067 -416,1067.7903 -416,1068.7188 L -416,1083.2812 C -416,1084.2097 -415.2097,1085 -414.28125,1085 L -403.71875,1085 C -402.79031,1085 -401.99997,1084.2097 -402,1083.2812 L -402,1068.7188 C -402,1067.7903 -402.79031,1067 -403.71875,1067 L -414.28125,1067 z M -414,1069 L -404,1069 L -404,1083 L -414,1083 L -414,1069 z"
       id="rect6938"
       style="fill:#bebebe;fill-opacity:1;fill-rule:nonzero;stroke:none;stroke-width:2;stroke-linecap:round;stroke-linejoin:round;marker:none;stroke-miterlimit:4;stroke-dasharray:none;stroke-dashoffset:0;stroke-opacity:1;visibility:visible;display:inline;overflow:visible;enable-background:accumulate" />
    <path
       d="M -408.96124,1073.5971 C -409.29905,1073.1984 -410.40376,1072.5478 -411.38431,1073.4708 C -412.36486,1074.3938 -411.955,1075.6419 -411.64317,1075.9873 L -408.95363,1079 L -406.34205,1076.1533 C -405.79634,1075.4091 -405.88481,1074.0823 -406.50904,1073.5052 C -407.13326,1072.9282 -408.3116,1072.7732 -408.96124,1073.5966 L -408.96124,1073.5971 z"
       id="path6972"
       style="fill:#bebebe;fill-opacity:1;fill-rule:nonzero;stroke:none;stroke-width:1;marker:none;visibility:visible;display:inline;overflow:visible;enable-background:accumulate" />
    <path
       d="M -418.28125,1067 C -419.20974,1067 -420,1067.7903 -420,1068.7188 L -420,1083.2812 C -420,1084.2097 -419.20975,1085 -418.28125,1085 L -417.15625,1085 C -416.79561,1085.0051 -416.46017,1084.8156 -416.27836,1084.5041 C -416.09656,1084.1926 -416.09656,1083.8074 -416.27836,1083.4959 C -416.46017,1083.1844 -416.79561,1082.9949 -417.15625,1083 L -418,1083 L -418,1069 L -417.15625,1069 C -416.79561,1069.0051 -416.46017,1068.8156 -416.27836,1068.5041 C -416.09656,1068.1926 -416.09656,1067.8074 -416.27836,1067.4959 C -416.46017,1067.1844 -416.79561,1066.9949 -417.15625,1067 L -418.28125,1067 z"
       id="rect6975"
       style="fill:#bebebe;fill-opacity:1;fill-rule:nonzero;stroke:none;stroke-width:2;stroke-linecap:round;stroke-linejoin:round;marker:none;stroke-miterlimit:4;stroke-dashoffset:0;stroke-opacity:1;visibility:visible;display:inline;overflow:visible;enable-background:accumulate" />
    <path
       d="M -422.28125,1067 C -423.20974,1067 -424,1067.7903 -424,1068.7188 L -424,1083.2812 C -424,1084.2097 -423.20975,1085 -422.28125,1085 L -421.15625,1085 C -420.79561,1085.0051 -420.46017,1084.8156 -420.27836,1084.5041 C -420.09656,1084.1926 -420.09656,1083.8074 -420.27836,1083.4959 C -420.46017,1083.1844 -420.79561,1082.9949 -421.15625,1083 L -422,1083 L -422,1069 L -421.15625,1069 C -420.79561,1069.0051 -420.46017,1068.8156 -420.27836,1068.5041 C -420.09656,1068.1926 -420.09656,1067.8074 -420.27836,1067.4959 C -420.46017,1067.1844 -420.79561,1066.9949 -421.15625,1067 L -422.28125,1067 z"
       id="path6978"
       style="fill:#bebebe;fill-opacity:1;fill-rule:nonzero;stroke:none;stroke-width:2;stroke-linecap:round;stroke-linejoin:round;marker:none;stroke-miterlimit:4;stroke-dashoffset:0;stroke-opacity:1;visibility:visible;display:inline;overflow:visible;enable-background:accumulate" />
  </g>
  <g
     transform="translate(426,-1064)"
     id="layer4" />
  <g
     transform="translate(426,-1064)"
     id="layer9" />
  <g
     transform="translate(426,-1064)"
     id="layer10" />
  <g
     transform="translate(426,-1064)"
     id="layer6" />
</svg>
