<?xml version="1.0" encoding="UTF-8" standalone="no"?>
<!-- Created with Inkscape (http://www.inkscape.org/) -->
<svg
   xmlns:svg="http://www.w3.org/2000/svg"
   xmlns="http://www.w3.org/2000/svg"
   version="1.0"
   width="24.007629"
   height="24"
   id="svg7384">
  <title
     id="title9167">Moblin Icon Theme</title>
  <defs
     id="defs7386" />
  <g
     transform="translate(396.00753,-1224)"
     id="layer3" />
  <g
     transform="translate(396.00753,-1224)"
     id="layer5" />
  <g
     transform="translate(396.00753,-1224)"
     id="layer7" />
  <g
     transform="translate(396.00753,-1224)"
     id="layer2" />
  <g
     transform="translate(396.00753,-1224)"
     id="layer8" />
  <g
     transform="translate(396.00753,-2176.3622)"
     id="layer1" />
  <g
     transform="translate(396.00753,-1224)"
     id="layer11">
    <rect
       width="24"
       height="24"
       x="-395.99991"
       y="1224"
       id="rect11329"
       style="opacity:0;fill:#ffffff;fill-opacity:1;stroke:none;display:inline" />
    <path
       d="M -396,1232.9375 L -396,1233.9688 L -396,1247 L -396,1248 L -395,1248 L -374,1248 L -373,1248 L -373,1247 L -373,1234 L -373,1233 L -374,1233 L -376,1233 C -376.36064,1232.9949 -376.69608,1233.1844 -376.87789,1233.4959 C -377.05969,1233.8074 -377.05969,1234.1926 -376.87789,1234.5041 C -376.69608,1234.8156 -376.36064,1235.0051 -376,1235 L -375,1235 L -375,1246 L -394,1246 L -394,1235 L -393.03125,1235 C -392.47897,1235.0173 -392.01726,1234.5835 -392,1234.0312 C -391.98274,1233.479 -392.41647,1233.0173 -392.96875,1233 L -395,1232.9688 L -396,1232.9375 z"
       id="path11347"
       style="fill:#bebebe;fill-opacity:1;stroke:none;stroke-width:2;stroke-linecap:round;stroke-linejoin:miter;marker:none;stroke-miterlimit:4.30000019;stroke-dasharray:none;stroke-dashoffset:0;stroke-opacity:1;visibility:visible;display:inline;overflow:visible;enable-background:accumulate" />
    <path
       d="M -392,1226 L -392,1227 L -392,1241 L -392,1242 L -391,1242 L -378,1242 L -377,1242 L -377,1241 L -377,1227 L -377,1226 L -378,1226 L -391,1226 L -392,1226 z M -390,1228 L -379,1228 L -379,1240 L -390,1240 L -390,1228 z"
       id="rect11370"
       style="fill:#bebebe;fill-opacity:1;stroke:none;stroke-width:2;stroke-linecap:round;stroke-linejoin:miter;marker:none;stroke-miterlimit:4.30000019;stroke-dasharray:none;stroke-dashoffset:0;stroke-opacity:1;visibility:visible;display:inline;overflow:visible;enable-background:accumulate" />
    <path
       d="M -384.625,1227.0625 C -384.86404,1227.1081 -385.03554,1227.3192 -385.03125,1227.5625 L -385.03125,1240.2188 C -385.0338,1240.3991 -384.93906,1240.5668 -384.78331,1240.6577 C -384.62756,1240.7486 -384.43494,1240.7486 -384.27919,1240.6577 C -384.12344,1240.5668 -384.0287,1240.3991 -384.03125,1240.2188 L -384.03125,1227.5625 C -384.02859,1227.4119 -384.09393,1227.2682 -384.20912,1227.1712 C -384.32431,1227.0742 -384.47708,1227.0343 -384.625,1227.0625 L -384.625,1227.0625 z"
       id="path11372"
       style="fill:#bebebe;fill-opacity:1;stroke:none;stroke-width:1;stroke-linecap:round;stroke-linejoin:miter;marker:none;stroke-miterlimit:4.30000019;stroke-dasharray:none;stroke-dashoffset:0;stroke-opacity:1;visibility:visible;display:inline;overflow:visible;enable-background:accumulate" />
    <path
       d="M -381.53125,1240.5 C -381.77029,1240.5456 -381.94179,1240.7567 -381.9375,1241 L -381.9375,1246.5625 C -381.94005,1246.7428 -381.84531,1246.9105 -381.68956,1247.0014 C -381.53381,1247.0923 -381.34119,1247.0923 -381.18544,1247.0014 C -381.02969,1246.9105 -380.93495,1246.7428 -380.9375,1246.5625 L -380.9375,1241 C -380.93484,1240.8494 -381.00018,1240.7057 -381.11537,1240.6087 C -381.23056,1240.5117 -381.38333,1240.4718 -381.53125,1240.5 L -381.53125,1240.5 z"
       id="path11374"
       style="fill:#bebebe;fill-opacity:1;stroke:none;stroke-width:1;stroke-linecap:round;stroke-linejoin:miter;marker:none;stroke-miterlimit:4.30000019;stroke-dasharray:none;stroke-dashoffset:0;stroke-opacity:1;visibility:visible;display:inline;overflow:visible;enable-background:accumulate" />
    <path
       d="M -387.59375,1240.5 C -387.83279,1240.5456 -388.00429,1240.7567 -388,1241 L -388,1246.5625 C -388.00255,1246.7428 -387.90781,1246.9105 -387.75206,1247.0014 C -387.59631,1247.0923 -387.40369,1247.0923 -387.24794,1247.0014 C -387.09219,1246.9105 -386.99745,1246.7428 -387,1246.5625 L -387,1241 C -386.99734,1240.8494 -387.06268,1240.7057 -387.17787,1240.6087 C -387.29306,1240.5117 -387.44583,1240.4718 -387.59375,1240.5 L -387.59375,1240.5 z"
       id="path11376"
       style="fill:#bebebe;fill-opacity:1;stroke:none;stroke-width:1;stroke-linecap:round;stroke-linejoin:miter;marker:none;stroke-miterlimit:4.30000019;stroke-dasharray:none;stroke-dashoffset:0;stroke-opacity:1;visibility:visible;display:inline;overflow:visible;enable-background:accumulate" />
    <path
       d="M -381.48503,1232.9926 C -382.30757,1232.9926 -383.00746,1233.6626 -383.00746,1234.4851 C -383.00746,1235.3076 -382.30757,1236.0074 -381.48503,1236.0074 C -380.66248,1236.0074 -379.99246,1235.3076 -379.99246,1234.4851 C -379.99246,1233.6626 -380.66248,1232.9926 -381.48503,1232.9926 z M -381.48503,1234.0075 C -381.20355,1234.0075 -381.00741,1234.2036 -381.00741,1234.4851 C -381.00741,1234.7666 -381.20355,1234.9926 -381.48503,1234.9926 C -381.76651,1234.9926 -381.99251,1234.7666 -381.99251,1234.4851 C -381.99251,1234.2036 -381.76651,1234.0075 -381.48503,1234.0075 z"
       id="path11378"
       style="fill:#bebebe;fill-opacity:1;stroke:none;stroke-width:1.04686189;stroke-linecap:round;stroke-linejoin:miter;marker:none;stroke-miterlimit:4.30000019;stroke-dasharray:none;stroke-dashoffset:0;stroke-opacity:1;visibility:visible;display:inline;overflow:visible;enable-background:accumulate" />
    <path
       d="M -387.48503,1234.9926 C -388.30757,1234.9926 -389.00746,1235.6626 -389.00746,1236.4851 C -389.00746,1237.3076 -388.30757,1238.0074 -387.48503,1238.0074 C -386.66248,1238.0074 -385.99246,1237.3076 -385.99246,1236.4851 C -385.99246,1235.6626 -386.66248,1234.9926 -387.48503,1234.9926 z M -387.48503,1236.0075 C -387.20355,1236.0075 -387.00741,1236.2036 -387.00741,1236.4851 C -387.00741,1236.7666 -387.20355,1236.9926 -387.48503,1236.9926 C -387.76651,1236.9926 -387.99251,1236.7666 -387.99251,1236.4851 C -387.99251,1236.2036 -387.76651,1236.0075 -387.48503,1236.0075 z"
       id="path11380"
       style="fill:#bebebe;fill-opacity:1;stroke:none;stroke-width:1.04686189;stroke-linecap:round;stroke-linejoin:miter;marker:none;stroke-miterlimit:4.30000019;stroke-dasharray:none;stroke-dashoffset:0;stroke-opacity:1;visibility:visible;display:inline;overflow:visible;enable-background:accumulate" />
    <path
       d="M -387.48513,1229.9926 C -388.30767,1229.9926 -389.00756,1230.6626 -389.00756,1231.4851 C -389.00756,1232.3076 -388.30767,1233.0074 -387.48513,1233.0074 C -386.66258,1233.0074 -385.99256,1232.3076 -385.99256,1231.4851 C -385.99256,1230.6626 -386.66258,1229.9926 -387.48513,1229.9926 z M -387.48513,1231.0075 C -387.20365,1231.0075 -387.00751,1231.2036 -387.00751,1231.4851 C -387.00751,1231.7666 -387.20365,1231.9926 -387.48513,1231.9926 C -387.76661,1231.9926 -387.99261,1231.7666 -387.99261,1231.4851 C -387.99261,1231.2036 -387.76661,1231.0075 -387.48513,1231.0075 z"
       id="path11382"
       style="fill:#bebebe;fill-opacity:1;stroke:none;stroke-width:1.04686189;stroke-linecap:round;stroke-linejoin:miter;marker:none;stroke-miterlimit:4.30000019;stroke-dasharray:none;stroke-dashoffset:0;stroke-opacity:1;visibility:visible;display:inline;overflow:visible;enable-background:accumulate" />
  </g>
  <g
     transform="translate(396.00753,-1224)"
     id="layer4" />
  <g
     transform="translate(396.00753,-1224)"
     id="layer12" />
  <g
     transform="translate(396.00753,-1224)"
     id="layer9" />
  <g
     transform="translate(396.00753,-1224)"
     id="layer10" />
  <g
     transform="translate(396.00753,-1224)"
     id="layer6" />
</svg>
