<?xml version="1.0" encoding="UTF-8" standalone="no"?>
<!-- Created with Inkscape (http://www.inkscape.org/) -->
<svg
   xmlns:svg="http://www.w3.org/2000/svg"
   xmlns="http://www.w3.org/2000/svg"
   version="1.0"
   width="24.9758"
   height="24.975683"
   id="svg7384">
  <title
     id="title9167">Moblin Icon Theme</title>
  <defs
     id="defs7386" />
  <g
     transform="translate(566.9757,-1304)"
     id="layer3" />
  <g
     transform="translate(566.9757,-1304)"
     id="layer5" />
  <g
     transform="translate(566.9757,-1304)"
     id="layer7" />
  <g
     transform="translate(566.9757,-1304)"
     id="layer2" />
  <g
     transform="translate(566.9757,-1304)"
     id="layer8" />
  <g
     transform="translate(566.9757,-2256.3622)"
     id="layer1" />
  <g
     transform="translate(566.9757,-1304)"
     id="layer11">
    <rect
       width="24"
       height="24"
       x="-565.99988"
       y="1304"
       id="rect11446"
       style="opacity:0;fill:#ffffff;fill-opacity:1;stroke:none;display:inline" />
    <path
       d="M -556,1310 L -554,1310 L -554,1308 L -556,1308 L -556,1310 z M -556,1314 L -554,1314 L -554,1312 L -556,1312 L -556,1314 z M -556,1318 L -554,1318 L -554,1316 L -556,1316 L -556,1318 z M -556,1322 L -554,1322 L -554,1320 L -556,1320 L -556,1322 z M -556,1326 L -554,1326 L -554,1324 L -556,1324 L -556,1326 z"
       id="path11456"
       style="fill:#bebebe;fill-opacity:1;stroke:none;stroke-width:1.99999988;stroke-linecap:butt;stroke-linejoin:miter;marker:none;stroke-miterlimit:4.30000019;stroke-dasharray:1.99999988, 1.99999988;stroke-dashoffset:0;stroke-opacity:1;visibility:visible;display:inline;overflow:visible;enable-background:accumulate" />
    <path
       d="M -564,1317.9375 L -562,1317.9375 L -562,1315.9375 L -564,1315.9375 L -564,1317.9375 z M -560,1317.9375 L -558,1317.9375 L -558,1315.9375 L -560,1315.9375 L -560,1317.9375 z M -556,1317.9375 L -554,1317.9375 L -554,1315.9375 L -556,1315.9375 L -556,1317.9375 z M -552,1317.9375 L -550,1317.9375 L -550,1315.9375 L -552,1315.9375 L -552,1317.9375 z M -548,1317.9375 L -546,1317.9375 L -546,1315.9375 L -548,1315.9375 L -548,1317.9375 z"
       id="path11458"
       style="fill:#bebebe;fill-opacity:1;stroke:none;stroke-width:1.99999988;stroke-linecap:butt;stroke-linejoin:miter;marker:none;stroke-miterlimit:4.30000019;stroke-dasharray:1.99999988, 1.99999988;stroke-dashoffset:0;stroke-opacity:1;visibility:visible;display:inline;overflow:visible;enable-background:accumulate" />
    <path
       d="M -547.95915,1304.0938 C -550.13469,1304.0938 -551.92791,1305.887 -551.9279,1308.0625 C -551.9279,1310.238 -550.13465,1311.9999 -547.95915,1312 C -545.78361,1312 -543.99039,1310.238 -543.9904,1308.0625 C -543.9904,1305.887 -545.78365,1304.0938 -547.95915,1304.0938 z M -547.95915,1306.0938 C -546.8657,1306.0938 -545.9904,1306.9691 -545.9904,1308.0625 C -545.99039,1309.1559 -546.86574,1310 -547.95915,1310 C -549.0526,1310 -549.9279,1309.1559 -549.9279,1308.0625 C -549.92791,1306.9691 -549.05256,1306.0938 -547.95915,1306.0938 z"
       id="path11460"
       style="fill:#bebebe;fill-opacity:1;stroke:none;stroke-width:1.99999988;stroke-linecap:butt;stroke-linejoin:miter;marker:none;stroke-miterlimit:4.30000019;stroke-dasharray:none;stroke-dashoffset:0;stroke-opacity:1;visibility:visible;display:inline;overflow:visible;enable-background:accumulate" />
    <path
       d="M -546.6875,1309.4375 L -549.6875,1313.4062 L -548.09375,1314.625 L -545.09375,1310.625 L -546.6875,1309.4375 z"
       id="path11462"
       style="fill:#bebebe;fill-opacity:1;stroke:none;stroke-width:1.99999988;stroke-linecap:butt;stroke-linejoin:miter;marker:none;stroke-miterlimit:4.30000019;stroke-dasharray:none;stroke-dashoffset:0;stroke-opacity:1;visibility:visible;display:inline;overflow:visible;enable-background:accumulate" />
  </g>
  <g
     transform="translate(566.9757,-1304)"
     id="layer4" />
  <g
     transform="translate(566.9757,-1304)"
     id="layer9" />
  <g
     transform="translate(566.9757,-1304)"
     id="layer10" />
  <g
     transform="translate(566.9757,-1304)"
     id="layer6" />
</svg>
