<?xml version="1.0" encoding="UTF-8" standalone="no"?>
<!-- Created with Inkscape (http://www.inkscape.org/) -->
<svg
   xmlns:svg="http://www.w3.org/2000/svg"
   xmlns="http://www.w3.org/2000/svg"
   version="1.0"
   width="24"
   height="24"
   id="svg7384">
  <title
     id="title9167">Moblin Icon Theme</title>
  <defs
     id="defs7386" />
  <g
     transform="translate(592,-1006)"
     id="layer3" />
  <g
     transform="translate(592,-1006)"
     id="layer5" />
  <g
     transform="translate(592,-1006)"
     id="layer7" />
  <g
     transform="translate(592,-1006)"
     id="layer2" />
  <g
     transform="translate(592,-1006)"
     id="layer8" />
  <g
     transform="translate(592,-1958.3622)"
     id="layer1" />
  <g
     transform="translate(592,-1006)"
     id="layer11">
    <rect
       width="24"
       height="24"
       x="-592"
       y="1006"
       id="rect14950"
       style="opacity:0;fill:#ffffff;fill-opacity:1;stroke:none;display:inline" />
    <g
       transform="matrix(0.6078907,0,0,0.6078907,-447.53606,906.68966)"
       id="g14952" />
    <path
       d="M -586.71875,1010 C -588.48455,1010 -589.9375,1011.453 -589.9375,1013.2188 L -589.9375,1022.8438 C -589.9375,1024.6096 -588.48454,1026.0625 -586.71875,1026.0625 L -573.21875,1026.0625 C -571.45295,1026.0625 -570,1024.6095 -570,1022.8438 L -570,1013.2188 C -570,1011.4529 -571.45296,1010 -573.21875,1010 L -586.71875,1010 z M -586.71875,1012 L -573.21875,1012 C -572.52639,1012 -572,1012.5264 -572,1013.2188 L -572,1022.8438 C -572,1023.5361 -572.52635,1024.0625 -573.21875,1024.0625 L -586.71875,1024.0625 C -587.41111,1024.0625 -587.9375,1023.5361 -587.9375,1022.8438 L -587.9375,1013.2188 C -587.9375,1012.5264 -587.41115,1012 -586.71875,1012 z"
       id="rect14956"
       style="fill:#bebebe;fill-opacity:1;stroke:none;stroke-width:2;stroke-linecap:round;stroke-linejoin:round;marker:none;stroke-miterlimit:4;stroke-dasharray:none;stroke-dashoffset:0;stroke-opacity:1;visibility:visible;display:inline;overflow:visible;enable-background:accumulate" />
    <path
       d="M -580,1012.875 C -580.2576,1012.875 -580.44944,1012.9252 -580.5625,1012.9375 C -580.79188,1012.9648 -580.97272,1013.1456 -581,1013.375 C -581.0303,1013.634 -581.06404,1013.8619 -581.09375,1014.0938 C -581.44224,1014.1864 -581.75581,1014.325 -582.0625,1014.5 C -582.24233,1014.3563 -582.40862,1014.2023 -582.625,1014.0312 C -582.81493,1013.8939 -583.07474,1013.9069 -583.25,1014.0625 C -583.54249,1014.3039 -583.80952,1014.5617 -584.03125,1014.8438 C -584.17748,1015.0265 -584.17748,1015.2861 -584.03125,1015.4688 C -583.86908,1015.6739 -583.73537,1015.8521 -583.59375,1016.0312 C -583.75509,1016.3335 -583.88587,1016.6366 -583.96875,1016.9688 C -584.19069,1016.9984 -584.40843,1017.0335 -584.65625,1017.0625 C -584.88563,1017.0898 -585.06647,1017.2706 -585.09375,1017.5 C -585.1066,1017.636 -585.125,1017.812 -585.125,1018 C -585.125,1018.261 -585.08147,1018.4696 -585.0625,1018.625 C -585.03522,1018.8544 -584.85438,1019.0352 -584.625,1019.0625 C -584.39342,1019.0896 -584.18211,1019.1266 -583.96875,1019.1562 C -583.87329,1019.4703 -583.72455,1019.7534 -583.5625,1020.0312 C -583.70386,1020.2188 -583.84596,1020.3988 -584,1020.5938 C -584.13734,1020.7837 -584.12435,1021.0435 -583.96875,1021.2188 C -583.71749,1021.5294 -583.4485,1021.8017 -583.15625,1022.0312 C -582.97358,1022.1774 -582.71392,1022.1774 -582.53125,1022.0312 C -582.32657,1021.8695 -582.12964,1021.7383 -581.9375,1021.5938 C -581.67611,1021.7241 -581.40735,1021.8332 -581.125,1021.9062 C -581.09549,1022.1375 -581.0621,1022.3624 -581.03125,1022.625 C -581.00397,1022.8544 -580.82313,1023.0352 -580.59375,1023.0625 C -580.45899,1023.0781 -580.25886,1023.125 -580,1023.125 C -579.74114,1023.125 -579.54101,1023.0781 -579.40625,1023.0625 C -579.17687,1023.0352 -578.99603,1022.8544 -578.96875,1022.625 C -578.9379,1022.3624 -578.90451,1022.1375 -578.875,1021.9062 C -578.59495,1021.8151 -578.34006,1021.6729 -578.09375,1021.5312 C -577.89198,1021.6869 -577.69797,1021.8502 -577.46875,1022.0312 C -577.28608,1022.1774 -577.02642,1022.1774 -576.84375,1022.0312 C -576.55149,1021.8017 -576.2825,1021.5294 -576.03125,1021.2188 C -575.87565,1021.0435 -575.86266,1020.7837 -576,1020.5938 C -576.18412,1020.3608 -576.33665,1020.1482 -576.5,1019.9375 C -576.3691,1019.7006 -576.2408,1019.4525 -576.15625,1019.1875 C -575.89931,1019.1477 -575.64403,1019.094 -575.375,1019.0625 C -575.14562,1019.0352 -574.96478,1018.8544 -574.9375,1018.625 C -574.91853,1018.4696 -574.875,1018.261 -574.875,1018 C -574.875,1017.812 -574.8934,1017.636 -574.90625,1017.5 C -574.93353,1017.2706 -575.11437,1017.0898 -575.34375,1017.0625 C -575.62972,1017.029 -575.89105,1016.9772 -576.15625,1016.9375 C -576.2293,1016.6552 -576.33844,1016.3864 -576.46875,1016.125 C -576.30603,1015.9146 -576.15297,1015.7019 -575.96875,1015.4688 C -575.82252,1015.2861 -575.82252,1015.0265 -575.96875,1014.8438 C -576.19048,1014.5617 -576.4575,1014.3039 -576.75,1014.0625 C -576.92526,1013.9069 -577.18507,1013.8939 -577.375,1014.0312 C -577.59864,1014.208 -577.80248,1014.3476 -578,1014.5 C -578.28081,1014.3333 -578.58596,1014.1921 -578.90625,1014.0938 C -578.93596,1013.8619 -578.9697,1013.634 -579,1013.375 C -579.02728,1013.1456 -579.20812,1012.9648 -579.4375,1012.9375 C -579.55056,1012.9252 -579.7424,1012.875 -580,1012.875 z M -580.0625,1013.875 C -580.04838,1013.8737 -580.01173,1013.875 -580,1013.875 C -579.98827,1013.875 -579.95162,1013.8737 -579.9375,1013.875 C -579.91139,1014.0836 -579.9008,1014.2964 -579.875,1014.5 C -579.85105,1014.7195 -579.68592,1014.8974 -579.46875,1014.9375 C -579.01227,1015.0268 -578.58592,1015.2279 -578.21875,1015.5 C -578.03608,1015.6462 -577.77642,1015.6462 -577.59375,1015.5 C -577.43073,1015.375 -577.25784,1015.2529 -577.09375,1015.125 C -577.0734,1015.1463 -577.05129,1015.1657 -577.03125,1015.1875 C -577.16349,1015.3579 -577.31049,1015.5242 -577.4375,1015.6875 C -577.56769,1015.864 -577.56769,1016.1047 -577.4375,1016.2812 C -577.21289,1016.622 -577.07527,1017.0541 -577,1017.5 C -576.95986,1017.7171 -576.78203,1017.8823 -576.5625,1017.9062 C -576.35083,1017.9342 -576.10919,1017.9653 -575.875,1018 C -575.875,1018.0302 -575.87164,1018.0897 -575.875,1018.125 C -576.1117,1018.1611 -576.35488,1018.1911 -576.5625,1018.2188 C -576.78203,1018.2427 -576.95986,1018.4079 -577,1018.625 C -577.08132,1019.0223 -577.24203,1019.4144 -577.46875,1019.75 C -577.51716,1019.8143 -577.54932,1019.8894 -577.5625,1019.9688 C -577.56399,1019.9775 -577.5611,1019.9751 -577.5625,1020 C -577.56389,1020.0111 -577.56148,1020.0127 -577.5625,1020.0312 C -577.56544,1020.0624 -577.56544,1020.0938 -577.5625,1020.125 C -577.56162,1020.1345 -577.56255,1020.156 -577.5625,1020.1562 C -577.55255,1020.1671 -577.54212,1020.1775 -577.53125,1020.1875 C -577.52782,1020.1951 -577.53623,1020.2078 -577.53125,1020.2188 C -577.5223,1020.2403 -577.51186,1020.2612 -577.5,1020.2812 C -577.48583,1020.3124 -577.47506,1020.33 -577.46875,1020.3438 C -577.46615,1020.3494 -577.46882,1020.3749 -577.46875,1020.375 C -577.34688,1020.5303 -577.22131,1020.7102 -577.09375,1020.875 C -577.12526,1020.9054 -577.1546,1020.9389 -577.1875,1020.9688 C -577.35799,1020.8358 -577.52239,1020.6891 -577.6875,1020.5625 C -577.864,1020.4323 -578.10475,1020.4323 -578.28125,1020.5625 C -578.62891,1020.8035 -579.03147,1020.9794 -579.4375,1021.0625 C -579.65467,1021.1026 -579.8198,1021.2805 -579.84375,1021.5 C -579.86853,1021.7012 -579.87992,1021.9165 -579.90625,1022.125 C -579.93056,1022.1273 -579.97963,1022.125 -580,1022.125 C -580.02037,1022.125 -580.06944,1022.1273 -580.09375,1022.125 C -580.12008,1021.9165 -580.13147,1021.7012 -580.15625,1021.5 C -580.1802,1021.2805 -580.34533,1021.1026 -580.5625,1021.0625 C -581.00863,1020.9872 -581.44053,1020.8497 -581.78125,1020.625 C -581.95775,1020.4948 -582.1985,1020.4948 -582.375,1020.625 C -582.5143,1020.7324 -582.66424,1020.8574 -582.8125,1020.9688 C -582.8454,1020.9389 -582.87474,1020.9054 -582.90625,1020.875 C -582.7998,1020.7323 -582.69652,1020.568 -582.59375,1020.4375 C -582.46356,1020.261 -582.46356,1020.0203 -582.59375,1019.8438 C -582.85141,1019.4869 -583.03759,1019.0406 -583.125,1018.5938 C -583.1651,1018.3766 -583.34294,1018.2115 -583.5625,1018.1875 C -583.74241,1018.1642 -583.93698,1018.1507 -584.125,1018.125 C -584.12836,1018.0897 -584.125,1018.0302 -584.125,1018 C -583.93879,1017.9756 -583.74581,1017.961 -583.5625,1017.9375 C -583.34294,1017.9135 -583.1651,1017.7484 -583.125,1017.5312 C -583.04653,1017.0404 -582.88169,1016.5523 -582.625,1016.1875 C -582.49481,1016.011 -582.49481,1015.7703 -582.625,1015.5938 C -582.7349,1015.4532 -582.85994,1015.3244 -582.96875,1015.1875 C -582.94871,1015.1657 -582.9266,1015.1463 -582.90625,1015.125 C -582.76442,1015.2401 -582.62139,1015.3514 -582.46875,1015.4688 C -582.29225,1015.599 -582.0515,1015.599 -581.875,1015.4688 C -581.4941,1015.1975 -581.0152,1015.0148 -580.53125,1014.9375 C -580.31408,1014.8974 -580.14895,1014.7195 -580.125,1014.5 C -580.0992,1014.2964 -580.08861,1014.0836 -580.0625,1013.875 z M -580,1015.875 C -581.16767,1015.875 -582.125,1016.8323 -582.125,1018 C -582.125,1019.1677 -581.16767,1020.125 -580,1020.125 C -578.83233,1020.125 -577.875,1019.1677 -577.875,1018 C -577.875,1016.8323 -578.83233,1015.875 -580,1015.875 z M -580,1016.875 C -579.37275,1016.875 -578.875,1017.3727 -578.875,1018 C -578.875,1018.6273 -579.37275,1019.125 -580,1019.125 C -580.62725,1019.125 -581.125,1018.6273 -581.125,1018 C -581.125,1017.3727 -580.62725,1016.875 -580,1016.875 z"
       id="path14958"
       style="fill:#bebebe;fill-opacity:1;stroke:none;stroke-width:1;stroke-linecap:round;stroke-linejoin:round;marker:none;stroke-miterlimit:4;stroke-dasharray:none;stroke-dashoffset:0;stroke-opacity:1;visibility:visible;display:inline;overflow:visible;enable-background:accumulate" />
  </g>
  <g
     transform="translate(592,-1006)"
     id="layer4" />
  <g
     transform="translate(592,-1006)"
     id="layer9" />
  <g
     transform="translate(592,-1006)"
     id="layer10" />
  <g
     transform="translate(592,-1006)"
     id="layer6" />
</svg>
