<?xml version="1.0" encoding="UTF-8" standalone="no"?>
<!-- Created with Inkscape (http://www.inkscape.org/) -->
<svg
   xmlns:svg="http://www.w3.org/2000/svg"
   xmlns="http://www.w3.org/2000/svg"
   version="1.0"
   width="24"
   height="24"
   id="svg7384">
  <title
     id="title9167">Moblin Icon Theme</title>
  <defs
     id="defs7386" />
  <g
     transform="translate(592,-956)"
     id="layer3" />
  <g
     transform="translate(592,-956)"
     id="layer5" />
  <g
     transform="translate(592,-956)"
     id="layer7" />
  <g
     transform="translate(592,-956)"
     id="layer2" />
  <g
     transform="translate(592,-956)"
     id="layer8" />
  <g
     transform="translate(592,-1908.3622)"
     id="layer1" />
  <g
     transform="translate(592,-956)"
     id="layer11">
    <rect
       width="24"
       height="24"
       x="-592"
       y="956"
       id="rect14950"
       style="opacity:0;fill:#ffffff;fill-opacity:1;stroke:none;display:inline" />
    <g
       transform="matrix(0.6078907,0,0,0.6078907,-447.53606,856.68966)"
       id="g14952" />
    <path
       d="M -586.71875,960 C -588.48455,960 -589.9375,961.45296 -589.9375,963.21875 L -589.9375,972.84375 C -589.9375,974.60955 -588.48454,976.0625 -586.71875,976.0625 L -573.21875,976.0625 C -571.45295,976.0625 -570,974.60954 -570,972.84375 L -570,963.21875 C -570,961.45295 -571.45296,960 -573.21875,960 L -586.71875,960 z M -586.71875,962 L -573.21875,962 C -572.52639,962 -572,962.52635 -572,963.21875 L -572,972.84375 C -572,973.53611 -572.52635,974.0625 -573.21875,974.0625 L -586.71875,974.0625 C -587.41111,974.0625 -587.9375,973.53615 -587.9375,972.84375 L -587.9375,963.21875 C -587.9375,962.52639 -587.41115,962 -586.71875,962 z"
       id="rect14956"
       style="fill:#bebebe;fill-opacity:1;stroke:none;stroke-width:2;stroke-linecap:round;stroke-linejoin:round;marker:none;stroke-miterlimit:4;stroke-dasharray:none;stroke-dashoffset:0;stroke-opacity:1;visibility:visible;display:inline;overflow:visible;enable-background:accumulate" />
    <path
       d="M -580,962.875 C -580.25663,962.875 -580.44641,962.92421 -580.5625,962.9375 C -580.79188,962.96478 -580.97272,963.14562 -581,963.375 C -581.03027,963.63399 -581.06403,963.86187 -581.09375,964.09375 C -581.44211,964.1864 -581.75578,964.32509 -582.0625,964.5 C -582.24233,964.35627 -582.40861,964.20231 -582.625,964.03125 C -582.81491,963.89391 -583.07473,963.9069 -583.25,964.0625 C -583.54248,964.30388 -583.80951,964.56171 -584.03125,964.84375 C -584.17748,965.02642 -584.17748,965.28608 -584.03125,965.46875 C -583.86907,965.67396 -583.73537,965.85208 -583.59375,966.03125 C -583.75509,966.33348 -583.88587,966.63657 -583.96875,966.96875 C -584.19082,966.99829 -584.40819,967.03325 -584.65625,967.0625 C -584.89625,967.09239 -585.08047,967.28976 -585.09375,967.53125 C -585.10659,967.66717 -585.125,967.81192 -585.125,968 C -585.12498,968.26094 -585.08151,968.46945 -585.0625,968.625 C -585.03522,968.85438 -584.85438,969.03522 -584.625,969.0625 C -584.3934,969.08965 -584.1821,969.12662 -583.96875,969.15625 C -583.87329,969.47031 -583.72454,969.75336 -583.5625,970.03125 C -583.70385,970.21883 -583.84595,970.3988 -584,970.59375 C -584.13734,970.78366 -584.12435,971.04348 -583.96875,971.21875 C -583.71748,971.52939 -583.4485,971.80169 -583.15625,972.03125 C -582.97358,972.17748 -582.71392,972.17748 -582.53125,972.03125 C -582.32655,971.86952 -582.12964,971.73828 -581.9375,971.59375 C -581.6761,971.72411 -581.40734,971.83322 -581.125,971.90625 C -581.0955,972.1375 -581.06212,972.36234 -581.03125,972.625 C -581.00397,972.85438 -580.82313,973.03522 -580.59375,973.0625 C -580.461,973.07761 -580.26031,973.125 -580,973.125 C -579.74142,973.12503 -579.54268,973.0788 -579.40625,973.0625 C -579.17687,973.03522 -578.99603,972.85438 -578.96875,972.625 C -578.93787,972.36234 -578.9045,972.13751 -578.875,971.90625 C -578.59506,971.81512 -578.34008,971.67287 -578.09375,971.53125 C -577.89198,971.68688 -577.69797,971.85017 -577.46875,972.03125 C -577.28608,972.17748 -577.02642,972.17748 -576.84375,972.03125 C -576.55146,971.80168 -576.28249,971.52935 -576.03125,971.21875 C -575.87565,971.04348 -575.86266,970.78366 -576,970.59375 C -576.18411,970.36081 -576.33665,970.14819 -576.5,969.9375 C -576.36909,969.70059 -576.2408,969.4525 -576.15625,969.1875 C -575.89897,969.14768 -575.64378,969.09399 -575.375,969.0625 C -575.14562,969.03522 -574.96478,968.85438 -574.9375,968.625 C -574.91847,968.46943 -574.875,968.26095 -574.875,968 C -574.87499,967.81188 -574.89341,967.66714 -574.90625,967.53125 C -574.91953,967.28976 -575.10375,967.09239 -575.34375,967.0625 C -575.62947,967.02917 -575.89102,966.9773 -576.15625,966.9375 C -576.2293,966.65517 -576.33844,966.38636 -576.46875,966.125 C -576.30601,965.91463 -576.15296,965.70188 -575.96875,965.46875 C -575.82252,965.28608 -575.82252,965.02642 -575.96875,964.84375 C -576.19047,964.56172 -576.45751,964.30388 -576.75,964.0625 C -576.92527,963.9069 -577.18509,963.89391 -577.375,964.03125 C -577.5986,964.20803 -577.80247,964.34759 -578,964.5 C -578.2808,964.33325 -578.58596,964.19208 -578.90625,964.09375 C -578.93597,963.86185 -578.96973,963.63397 -579,963.375 C -579.02728,963.14562 -579.20812,962.96478 -579.4375,962.9375 C -579.51196,962.92942 -579.6739,962.92309 -579.8125,962.90625 C -579.82394,962.90486 -579.83186,962.90749 -579.84375,962.90625 C -579.8537,962.89538 -579.86413,962.88495 -579.875,962.875 C -579.92455,962.87083 -579.94324,962.875 -580,962.875 z M -580.0625,963.875 C -580.06234,963.87371 -580.03141,963.87629 -580.03125,963.875 C -580.02474,963.87467 -580.00594,963.875 -580,963.875 C -579.9884,963.875 -579.95152,963.87371 -579.9375,963.875 C -579.91137,964.08364 -579.90075,964.29649 -579.875,964.5 C -579.85105,964.71954 -579.68592,964.89738 -579.46875,964.9375 C -579.01227,965.02679 -578.58589,965.22793 -578.21875,965.5 C -578.03608,965.64623 -577.77642,965.64623 -577.59375,965.5 C -577.43073,965.37503 -577.25785,965.25288 -577.09375,965.125 C -577.0734,965.14626 -577.05129,965.16565 -577.03125,965.1875 C -577.16348,965.35786 -577.31049,965.5242 -577.4375,965.6875 C -577.56772,965.864 -577.56772,966.10475 -577.4375,966.28125 C -577.2129,966.62204 -577.07529,967.05407 -577,967.5 C -576.95988,967.71717 -576.78204,967.8823 -576.5625,967.90625 C -576.35095,967.9342 -576.10929,967.9653 -575.875,968 C -575.875,968.03019 -575.87165,968.0897 -575.875,968.125 C -576.11169,968.16114 -576.35538,968.19145 -576.5625,968.21875 C -576.78204,968.2427 -576.95988,968.40783 -577,968.625 C -577.08132,969.02235 -577.24204,969.41446 -577.46875,969.75 C -577.5129,969.80517 -577.54485,969.86908 -577.5625,969.9375 C -577.56125,969.93173 -577.55869,969.94098 -577.5625,970 C -577.56283,970.01041 -577.56283,970.02084 -577.5625,970.03125 C -577.57089,970.06235 -577.54483,970.11426 -577.53125,970.1875 C -577.52676,970.19669 -577.53655,970.20787 -577.53125,970.21875 C -577.5223,970.24029 -577.51186,970.26117 -577.5,970.28125 C -577.4927,970.31346 -577.48224,970.34486 -577.46875,970.375 C -577.34688,970.53031 -577.22153,970.70988 -577.09375,970.875 C -577.12526,970.90543 -577.1546,970.93892 -577.1875,970.96875 C -577.35799,970.83584 -577.52239,970.68909 -577.6875,970.5625 C -577.864,970.43228 -578.10475,970.43228 -578.28125,970.5625 C -578.62878,970.80343 -579.03107,970.97906 -579.4375,971.0625 C -579.65467,971.10262 -579.8198,971.28046 -579.84375,971.5 C -579.86857,971.70125 -579.87994,971.91649 -579.90625,972.125 C -579.93055,972.12729 -579.97958,972.125 -580,972.125 C -580.02008,972.125 -580.06959,972.12735 -580.09375,972.125 C -580.12006,971.91649 -580.13142,971.70127 -580.15625,971.5 C -580.1802,971.28046 -580.34533,971.10262 -580.5625,971.0625 C -581.00863,970.98717 -581.44052,970.84969 -581.78125,970.625 C -581.95775,970.49478 -582.1985,970.49478 -582.375,970.625 C -582.51431,970.73245 -582.66425,970.85737 -582.8125,970.96875 C -582.8454,970.93892 -582.87474,970.90543 -582.90625,970.875 C -582.7998,970.73234 -582.69652,970.56806 -582.59375,970.4375 C -582.46353,970.261 -582.46353,970.02025 -582.59375,969.84375 C -582.85141,969.48695 -583.03758,969.04063 -583.125,968.59375 C -583.16512,968.37658 -583.34296,968.21145 -583.5625,968.1875 C -583.74242,968.1642 -583.93699,968.15069 -584.125,968.125 C -584.12836,968.0897 -584.125,968.0302 -584.125,968 C -583.93894,967.97557 -583.74578,967.9609 -583.5625,967.9375 C -583.34296,967.91355 -583.16512,967.74842 -583.125,967.53125 C -583.04653,967.04037 -582.8817,966.55234 -582.625,966.1875 C -582.49478,966.011 -582.49478,965.77025 -582.625,965.59375 C -582.7349,965.45318 -582.85994,965.32437 -582.96875,965.1875 C -582.94871,965.16565 -582.9266,965.14626 -582.90625,965.125 C -582.76442,965.24011 -582.6214,965.35138 -582.46875,965.46875 C -582.29225,965.59897 -582.0515,965.59897 -581.875,965.46875 C -581.49422,965.19764 -581.01556,965.01518 -580.53125,964.9375 C -580.31408,964.89738 -580.14895,964.71954 -580.125,964.5 C -580.09923,964.29646 -580.08862,964.08364 -580.0625,963.875 z M -580,965.875 C -581.16767,965.875 -582.125,966.83229 -582.125,968 C -582.125,969.16771 -581.16767,970.125 -580,970.125 C -578.83233,970.125 -577.875,969.16771 -577.875,968 C -577.875,966.83229 -578.83233,965.875 -580,965.875 z M -580,966.875 C -579.37275,966.875 -578.875,967.37271 -578.875,968 C -578.875,968.62729 -579.37275,969.125 -580,969.125 C -580.62725,969.125 -581.125,968.62729 -581.125,968 C -581.125,967.37271 -580.62725,966.875 -580,966.875 z"
       id="path14958"
       style="fill:#bebebe;fill-opacity:1;stroke:none;stroke-width:1;stroke-linecap:round;stroke-linejoin:round;marker:none;stroke-miterlimit:4;stroke-dasharray:none;stroke-dashoffset:0;stroke-opacity:1;visibility:visible;display:inline;overflow:visible;enable-background:accumulate" />
  </g>
  <g
     transform="translate(592,-956)"
     id="layer4" />
  <g
     transform="translate(592,-956)"
     id="layer12" />
  <g
     transform="translate(592,-956)"
     id="layer9" />
  <g
     transform="translate(592,-956)"
     id="layer10" />
  <g
     transform="translate(592,-956)"
     id="layer6" />
</svg>
