<?xml version="1.0" encoding="UTF-8" standalone="no"?>
<!-- Created with Inkscape (http://www.inkscape.org/) -->
<svg
   xmlns:svg="http://www.w3.org/2000/svg"
   xmlns="http://www.w3.org/2000/svg"
   version="1.0"
   width="24.000183"
   height="24.076517"
   id="svg7384">
  <title
     id="title9167">Moblin Icon Theme</title>
  <defs
     id="defs7386" />
  <g
     transform="translate(537.99998,-1344)"
     id="layer3" />
  <g
     transform="translate(537.99998,-1344)"
     id="layer5" />
  <g
     transform="translate(537.99998,-1344)"
     id="layer7" />
  <g
     transform="translate(537.99998,-1344)"
     id="layer2" />
  <g
     transform="translate(537.99998,-1344)"
     id="layer8" />
  <g
     transform="translate(537.99998,-2296.3621)"
     id="layer1" />
  <g
     transform="translate(537.99998,-1344)"
     id="layer11">
    <rect
       width="24"
       height="24"
       x="-537.99982"
       y="1344.0331"
       id="rect8874"
       style="opacity:0;fill:#ffffff;fill-opacity:1;stroke:none;display:inline" />
    <path
       d="M -538,1355.0312 L -538,1356.0312 L -538,1367.0625 L -538,1368.0625 L -537,1368.0625 L -525,1368.0625 L -524,1368.0625 L -524,1367.0625 L -524,1356.0312 L -524,1355.0312 L -525,1355.0312 L -537,1355.0312 L -538,1355.0312 z M -536,1357.0312 L -526,1357.0312 L -526,1366.0625 L -536,1366.0625 L -536,1357.0312 z"
       id="rect8876"
       style="fill:#bebebe;fill-opacity:1;stroke:none;stroke-width:2;stroke-linecap:round;stroke-linejoin:miter;marker:none;stroke-miterlimit:4.30000019;stroke-dasharray:none;stroke-dashoffset:0;stroke-opacity:1;visibility:visible;display:inline;overflow:visible;enable-background:accumulate" />
    <path
       d="M -528,1344 L -528,1345 L -528,1356 L -528,1357 L -527,1357 L -515,1357 L -514,1357 L -514,1356 L -514,1345 L -514,1344 L -515,1344 L -527,1344 L -528,1344 z M -526,1346 L -516,1346 L -516,1355 L -526,1355 L -526,1346 z"
       id="rect8878"
       style="fill:#bebebe;fill-opacity:1;stroke:none;stroke-width:2;stroke-linecap:round;stroke-linejoin:miter;marker:none;stroke-miterlimit:4.30000019;stroke-dasharray:none;stroke-dashoffset:0;stroke-opacity:1;visibility:visible;display:inline;overflow:visible;enable-background:accumulate" />
    <rect
       width="11.999983"
       height="11.999994"
       x="-538"
       y="1344"
       id="rect8880"
       style="fill:#bebebe;fill-opacity:1;stroke:none;stroke-width:2;marker:none;visibility:visible;display:inline;overflow:visible;enable-background:accumulate" />
    <rect
       width="11.999983"
       height="11.999994"
       x="-526"
       y="1356"
       id="rect8884"
       style="fill:#bebebe;fill-opacity:1;stroke:none;stroke-width:2;marker:none;visibility:visible;display:inline;overflow:visible;enable-background:accumulate" />
  </g>
  <g
     transform="translate(537.99998,-1344)"
     id="layer4" />
  <g
     transform="translate(537.99998,-1344)"
     id="layer12" />
  <g
     transform="translate(537.99998,-1344)"
     id="layer9" />
  <g
     transform="translate(537.99998,-1344)"
     id="layer10" />
  <g
     transform="translate(537.99998,-1344)"
     id="layer6" />
</svg>
