<?xml version="1.0" encoding="UTF-8" standalone="no"?>
<!-- Created with Inkscape (http://www.inkscape.org/) -->
<svg
   xmlns:svg="http://www.w3.org/2000/svg"
   xmlns="http://www.w3.org/2000/svg"
   version="1.0"
   width="24"
   height="24.000017"
   id="svg7384">
  <title
     id="title9167">Moblin Icon Theme</title>
  <defs
     id="defs7386" />
  <g
     transform="translate(510,-1254)"
     id="layer3" />
  <g
     transform="translate(510,-1254)"
     id="layer5" />
  <g
     transform="translate(510,-1254)"
     id="layer7" />
  <g
     transform="translate(510,-1254)"
     id="layer2" />
  <g
     transform="translate(510,-1254)"
     id="layer8" />
  <g
     transform="translate(510,-2206.3622)"
     id="layer1" />
  <g
     transform="translate(510,-1254)"
     id="layer11">
    <rect
       width="24"
       height="24"
       x="-510"
       y="1254"
       id="rect11488"
       style="opacity:0;fill:#ffffff;fill-opacity:1;stroke:none;display:inline" />
    <path
       d="M -508.28125,1256.2812 L -510,1257 L -510,1277 L -508.28125,1277.7188 L -498.28125,1267.7188 L -498.28125,1266.2812 L -508.28125,1256.2812 z M -508,1259.4375 L -500.4375,1267 L -508,1274.5625 L -508,1259.4375 z"
       id="path11502"
       style="fill:#bebebe;fill-opacity:1;stroke:none;stroke-width:1.99999988;stroke-linecap:round;stroke-linejoin:bevel;marker:none;stroke-miterlimit:4.30000019;stroke-dasharray:none;stroke-dashoffset:0;stroke-opacity:1;visibility:visible;display:inline;overflow:visible;enable-background:accumulate" />
    <path
       d="M -487.71875,1256.2812 L -497.71875,1266.2812 L -497.71875,1267.7188 L -487.71875,1277.7188 L -486,1277 L -486,1257 L -487.71875,1256.2812 z M -488,1259.4375 L -488,1274.5625 L -495.5625,1267 L -488,1259.4375 z"
       id="path11512"
       style="fill:#bebebe;fill-opacity:1;stroke:none;stroke-width:1.99999988;stroke-linecap:round;stroke-linejoin:bevel;marker:none;stroke-miterlimit:4.30000019;stroke-dasharray:none;stroke-dashoffset:0;stroke-opacity:1;visibility:visible;display:inline;overflow:visible;enable-background:accumulate" />
    <path
       d="M -497.94704,1262.9475 C -496.33189,1262.9475 -494.98987,1261.6054 -494.98989,1259.9903 C -494.98989,1258.3752 -496.33193,1257.0537 -497.94704,1257.0537 C -499.56219,1257.0537 -500.88367,1258.3752 -500.88366,1259.9903 C -500.88366,1261.6054 -499.56215,1262.9474 -497.94704,1262.9475 z M -497.94704,1260.9555 C -498.48011,1260.9555 -498.89169,1260.5233 -498.89169,1259.9903 C -498.8917,1259.4573 -498.48007,1259.0457 -497.94704,1259.0457 C -497.41398,1259.0457 -497.0024,1259.4573 -497.0024,1259.9903 C -497.00239,1260.5233 -497.41402,1260.9555 -497.94704,1260.9555 z"
       id="path11460-4"
       style="fill:#bebebe;fill-opacity:1;stroke:none;stroke-width:3.04346561;stroke-linecap:butt;stroke-linejoin:miter;marker:none;stroke-miterlimit:4.30000019;stroke-dasharray:none;stroke-dashoffset:0;stroke-opacity:1;visibility:visible;display:inline;overflow:visible;enable-background:accumulate" />
    <path
       d="M -497.84375,1254.4688 L -500.25,1258.1562 L -498.5625,1259.25 L -496.15625,1255.5312 L -497.84375,1254.4688 z"
       id="path11462-7"
       style="fill:#bebebe;fill-opacity:1;stroke:none;stroke-width:1.99999988;stroke-linecap:butt;stroke-linejoin:miter;marker:none;stroke-miterlimit:4.30000019;stroke-dasharray:none;stroke-dashoffset:0;stroke-opacity:1;visibility:visible;display:inline;overflow:visible;enable-background:accumulate" />
    <path
       d="M -500.09375,1271 C -500.64603,1271.0259 -501.07276,1271.4946 -501.04687,1272.0469 C -501.02099,1272.5992 -500.55228,1273.0259 -500,1273 L -498.3125,1273 C -499.13276,1274.0401 -500.04345,1275.4236 -500,1277.0312 C -499.98277,1277.5835 -499.52108,1278.0172 -498.9688,1278 C -498.41652,1277.9828 -497.98277,1277.5211 -498,1276.9688 C -498.01905,1276.2639 -497.44536,1275.1317 -496.75,1274.25 C -496.05464,1273.3683 -495.34375,1272.75 -495.34375,1272.75 C -495.03264,1272.4755 -494.92333,1272.0374 -495.06901,1271.6489 C -495.21469,1271.2604 -495.58511,1271.0023 -496,1271 L -500,1271 C -500.03123,1270.9985 -500.06252,1270.9985 -500.09375,1271 L -500.09375,1271 z"
       id="path11539"
       style="fill:#bebebe;fill-opacity:1;stroke:none;stroke-width:2;stroke-linecap:round;stroke-linejoin:round;marker:none;stroke-miterlimit:4.30000019;stroke-dasharray:none;stroke-dashoffset:0;stroke-opacity:1;visibility:visible;display:inline;overflow:visible;enable-background:accumulate" />
  </g>
  <g
     transform="translate(510,-1254)"
     id="layer4" />
  <g
     transform="translate(510,-1254)"
     id="layer12" />
  <g
     transform="translate(510,-1254)"
     id="layer9" />
  <g
     transform="translate(510,-1254)"
     id="layer10" />
  <g
     transform="translate(510,-1254)"
     id="layer6" />
</svg>
