<?xml version="1.0" encoding="UTF-8" standalone="no"?>
<!-- Created with Inkscape (http://www.inkscape.org/) -->
<svg
   xmlns:svg="http://www.w3.org/2000/svg"
   xmlns="http://www.w3.org/2000/svg"
   version="1.0"
   width="24.052891"
   height="24.048252"
   id="svg7384">
  <title
     id="title9167">Moblin Icon Theme</title>
  <defs
     id="defs7386" />
  <g
     transform="translate(454,-1344)"
     id="layer3" />
  <g
     transform="translate(454,-1344)"
     id="layer5" />
  <g
     transform="translate(454,-1344)"
     id="layer7" />
  <g
     transform="translate(454,-1344)"
     id="layer2" />
  <g
     transform="translate(454,-1344)"
     id="layer8" />
  <g
     transform="translate(454,-2296.3622)"
     id="layer1" />
  <g
     transform="translate(454,-1344)"
     id="layer11">
    <rect
       width="24"
       height="24"
       x="-453.9892"
       y="1344.0482"
       id="rect7216"
       style="opacity:0;fill:#ffffff;fill-opacity:1;stroke:none;display:inline" />
    <path
       d="M -445.1875,1363.0625 C -445.73978,1363.1143 -446.14553,1363.604 -446.09375,1364.1562 C -446.04197,1364.7085 -445.55228,1365.1143 -445,1365.0625 L -439.09375,1365.0625 C -438.73312,1365.0676 -438.39768,1364.8781 -438.21587,1364.5666 C -438.03407,1364.2551 -438.03407,1363.8699 -438.21587,1363.5584 C -438.39768,1363.2469 -438.73312,1363.0574 -439.09375,1363.0625 L -445,1363.0625 C -445.06236,1363.0566 -445.12514,1363.0566 -445.1875,1363.0625 z"
       id="path7218"
       style="fill:#bebebe;fill-opacity:1;fill-rule:nonzero;stroke:none;stroke-width:1.99999964;stroke-linecap:round;stroke-linejoin:miter;marker:none;stroke-miterlimit:4;stroke-dasharray:none;stroke-dashoffset:0;stroke-opacity:1;visibility:visible;display:inline;overflow:visible;enable-background:new" />
    <path
       d="M -450.75,1344 C -452.53902,1344 -454,1345.461 -454,1347.25 L -454,1358.7812 C -454,1360.5702 -452.53898,1362.0313 -450.75,1362.0312 L -449.96875,1362.0312 C -449.60811,1362.0363 -449.27267,1361.8468 -449.09086,1361.5353 C -448.90906,1361.2238 -448.90906,1360.8386 -449.09086,1360.5271 C -449.27267,1360.2156 -449.60811,1360.0261 -449.96875,1360.0312 L -450.75,1360.0312 C -451.46564,1360.0313 -452,1359.4969 -452,1358.7812 L -452,1347.25 C -452,1346.5344 -451.46558,1346 -450.75,1346 L -433.21875,1346 C -432.50317,1346 -431.9375,1346.5344 -431.9375,1347.25 L -431.9375,1357.0938 C -431.9426,1357.4544 -431.75312,1357.7899 -431.44163,1357.9717 C -431.13013,1358.1535 -430.74487,1358.1535 -430.43337,1357.9717 C -430.12188,1357.7899 -429.9324,1357.4544 -429.9375,1357.0938 L -429.9375,1347.25 C -429.9375,1345.461 -431.42973,1344 -433.21875,1344 L -450.75,1344 z"
       id="rect7220"
       style="fill:#bebebe;fill-opacity:1;stroke:none;stroke-width:2;stroke-linecap:round;stroke-linejoin:round;marker:none;stroke-miterlimit:4;stroke-dashoffset:0;stroke-opacity:1;visibility:visible;display:inline;overflow:visible;enable-background:accumulate" />
    <path
       d="M -450.59375,1347.0625 C -450.82034,1347.1209 -450.97613,1347.3286 -450.96875,1347.5625 L -450.96875,1358.5625 C -450.96872,1358.8386 -450.74488,1359.0625 -450.46875,1359.0625 L -449.4375,1359.0625 C -449.25718,1359.0651 -449.08946,1358.9703 -448.99856,1358.8146 C -448.90765,1358.6588 -448.90765,1358.4662 -448.99856,1358.3104 C -449.08946,1358.1547 -449.25718,1358.0599 -449.4375,1358.0625 L -449.96875,1358.0625 L -449.96875,1348.0625 L -434,1348.0625 L -434,1356 C -434.00255,1356.1803 -433.90781,1356.348 -433.75206,1356.4389 C -433.59631,1356.5298 -433.40369,1356.5298 -433.24794,1356.4389 C -433.09219,1356.348 -432.99745,1356.1803 -433,1356 L -433,1347.5625 C -433.00003,1347.2864 -433.22387,1347.0625 -433.5,1347.0625 L -450.46875,1347.0625 C -450.51025,1347.0573 -450.55225,1347.0573 -450.59375,1347.0625 L -450.59375,1347.0625 z"
       id="rect7222"
       style="fill:#bebebe;fill-opacity:1;stroke:none;stroke-width:1;stroke-linecap:round;stroke-linejoin:round;marker:none;stroke-miterlimit:4;stroke-dashoffset:0;stroke-opacity:1;visibility:visible;display:inline;overflow:visible;enable-background:accumulate" />
    <path
       d="M -447.0625,1350 C -447.60252,1350.0169 -448.03146,1350.4597 -448.03125,1351 L -448.03125,1361 C -448.03119,1361.5523 -447.58351,1361.9999 -447.03125,1362 L -431.0625,1362 C -430.61893,1361.9975 -430.23003,1361.703 -430.10722,1361.2768 C -429.98441,1360.8506 -430.15703,1360.3944 -430.53125,1360.1562 L -446.5,1350.1562 C -446.66779,1350.0493 -446.86364,1349.995 -447.0625,1350 z M -446.03125,1352.8125 L -434.53125,1360 L -446.03125,1360 L -446.03125,1352.8125 z"
       id="path9113-4"
       style="fill:#bebebe;fill-opacity:1;fill-rule:nonzero;stroke:none;stroke-width:2;stroke-linecap:round;stroke-linejoin:round;marker:none;stroke-miterlimit:4;stroke-dasharray:none;stroke-dashoffset:0;stroke-opacity:1;visibility:visible;display:inline;overflow:visible;enable-background:accumulate" />
    <path
       d="M -445.0625,1354.5938 L -445.0625,1355.5 L -445.0625,1358.5 L -445.0625,1359 L -444.5625,1359 L -439.8125,1359 L -438.09375,1359 L -439.53125,1358.0625 L -444.28125,1355.0625 L -445.0625,1354.5938 z M -444.0625,1356.4375 L -441.5625,1358 L -444.0625,1358 L -444.0625,1356.4375 z"
       id="path9136-8"
       style="fill:#bebebe;fill-opacity:1;stroke:none;stroke-width:1px;stroke-linecap:butt;stroke-linejoin:miter;stroke-opacity:1" />
  </g>
  <g
     transform="translate(454,-1344)"
     id="layer4" />
  <g
     transform="translate(454,-1344)"
     id="layer12" />
  <g
     transform="translate(454,-1344)"
     id="layer9" />
  <g
     transform="translate(454,-1344)"
     id="layer10" />
  <g
     transform="translate(454,-1344)"
     id="layer6" />
</svg>
