<?xml version="1.0" encoding="UTF-8" standalone="no"?>
<!-- Created with Inkscape (http://www.inkscape.org/) -->
<svg
   xmlns:svg="http://www.w3.org/2000/svg"
   xmlns="http://www.w3.org/2000/svg"
   version="1.0"
   width="25.000046"
   height="24"
   id="svg7384">
  <title
     id="title9167">Moblin Icon Theme</title>
  <defs
     id="defs7386" />
  <g
     transform="translate(483.00005,-1304)"
     id="layer3" />
  <g
     transform="translate(483.00005,-1304)"
     id="layer5" />
  <g
     transform="translate(483.00005,-1304)"
     id="layer7" />
  <g
     transform="translate(483.00005,-1304)"
     id="layer2" />
  <g
     transform="translate(483.00005,-1304)"
     id="layer8" />
  <g
     transform="translate(483.00005,-2256.3622)"
     id="layer1" />
  <g
     transform="translate(483.00005,-1304)"
     id="layer11">
    <rect
       width="24"
       height="24"
       x="-482"
       y="1304"
       id="rect11543"
       style="opacity:0;fill:#ffffff;fill-opacity:1;stroke:none;display:inline" />
    <path
       d="M -476.5,1307 C -478.47051,1307 -480,1308.7159 -480,1310.7188 C -480.0051,1311.0794 -479.81562,1311.4149 -479.50413,1311.5967 C -479.19263,1311.7785 -478.80737,1311.7785 -478.49587,1311.5967 C -478.18438,1311.4149 -477.9949,1311.0794 -478,1310.7188 C -478,1309.6998 -477.29949,1309 -476.5,1309 C -475.70051,1309 -475,1309.6998 -475,1310.7188 C -475.0051,1311.0794 -474.81562,1311.4149 -474.50413,1311.5967 C -474.19263,1311.7785 -473.80737,1311.7785 -473.49587,1311.5967 C -473.18438,1311.4149 -472.9949,1311.0794 -473,1310.7188 C -473,1308.7159 -474.52949,1307 -476.5,1307 z M -479.21875,1315.1875 C -479.68438,1315.2918 -480.01149,1315.7105 -480,1316.1875 L -480,1320.0938 C -480.0051,1320.4544 -479.81562,1320.7899 -479.50413,1320.9717 C -479.19263,1321.1535 -478.80737,1321.1535 -478.49587,1320.9717 C -478.18438,1320.7899 -477.9949,1320.4544 -478,1320.0938 L -478,1316.1875 C -477.99256,1315.8796 -478.12736,1315.5855 -478.36543,1315.3902 C -478.60349,1315.1949 -478.91827,1315.1201 -479.21875,1315.1875 z M -474.21875,1315.25 C -474.68438,1315.3543 -475.01149,1315.773 -475,1316.25 L -475,1320.0938 C -475.0051,1320.4544 -474.81562,1320.7899 -474.50413,1320.9717 C -474.19263,1321.1535 -473.80737,1321.1535 -473.49587,1320.9717 C -473.18438,1320.7899 -472.9949,1320.4544 -473,1320.0938 L -473,1316.25 C -472.99256,1315.9421 -473.12736,1315.648 -473.36543,1315.4527 C -473.60349,1315.2574 -473.91827,1315.1826 -474.21875,1315.25 L -474.21875,1315.25 z"
       id="rect11555"
       style="fill:#bebebe;fill-opacity:1;stroke:none;stroke-width:2;stroke-linecap:round;stroke-linejoin:bevel;marker:none;stroke-miterlimit:4.30000019;stroke-dashoffset:0;stroke-opacity:1;visibility:visible;display:inline;overflow:visible;enable-background:accumulate" />
    <path
       d="M -473.99994,1318.9598 C -474.26397,1318.9577 -474.5178,1319.0647 -474.70451,1319.257 C -474.89123,1319.4492 -474.99522,1319.7106 -474.99317,1319.9825 C -475.0225,1322.1262 -473.71924,1324.0248 -471.75333,1324.731 C -469.25315,1325.6291 -466.50053,1324.2616 -465.62838,1321.6871 C -465.45304,1321.3341 -465.49342,1320.9083 -465.73177,1320.5969 C -465.97011,1320.2854 -466.36277,1320.1455 -466.73709,1320.2385 C -467.1114,1320.3315 -467.39882,1320.6405 -467.47296,1321.0296 C -467.99387,1322.5673 -469.62154,1323.368 -471.11483,1322.8316 C -472.3249,1322.3969 -473.02475,1321.3264 -473.0067,1320.0069 C -472.99818,1319.7308 -473.0993,1319.4631 -473.28673,1319.2655 C -473.47416,1319.0679 -473.73171,1318.9575 -473.99994,1318.9598 z"
       id="path11557"
       style="fill:#bebebe;fill-opacity:1;stroke:none;stroke-width:2.60446477;stroke-linecap:round;stroke-linejoin:bevel;marker:none;stroke-miterlimit:4.30000019;stroke-dasharray:none;stroke-dashoffset:0;stroke-opacity:1;visibility:visible;display:inline;overflow:visible;enable-background:accumulate" />
    <path
       d="M -464.07509,1317.5955 C -465.6049,1317.3775 -467.03837,1318.45 -467.2569,1319.9761 C -467.33535,1320.5239 -466.95378,1321.0315 -466.40463,1321.1097 C -465.85549,1321.188 -465.34672,1320.8073 -465.26827,1320.2595 C -465.20295,1319.8033 -464.81646,1319.5141 -464.35918,1319.5793 C -463.91873,1319.6421 -463.62279,1319.9864 -463.64895,1320.4296 C -463.71015,1320.8063 -463.55084,1321.1849 -463.23842,1321.4051 C -462.92601,1321.6254 -462.5151,1321.6488 -462.17957,1321.4655 C -461.84404,1321.2821 -461.64253,1320.9241 -461.66031,1320.5429 C -461.57469,1319.0928 -462.6335,1317.8009 -464.07509,1317.5955 z"
       id="path11561"
       style="fill:#bebebe;fill-opacity:1;stroke:none;stroke-width:2.20265627;stroke-linecap:round;stroke-linejoin:bevel;marker:none;stroke-miterlimit:4.30000019;stroke-dasharray:none;stroke-dashoffset:0;stroke-opacity:1;visibility:visible;display:inline;overflow:visible;enable-background:accumulate" />
    <path
       d="M -461.19766,1324.9634 C -459.66785,1325.1814 -458.23438,1324.1089 -458.01585,1322.5828 C -457.9374,1322.035 -458.31897,1321.5274 -458.86812,1321.4492 C -459.41726,1321.3709 -459.92603,1321.7516 -460.00448,1322.2994 C -460.0698,1322.7556 -460.45629,1323.0448 -460.91357,1322.9796 C -461.35402,1322.9168 -461.64996,1322.5725 -461.6238,1322.1293 C -461.5626,1321.7526 -461.72191,1321.374 -462.03433,1321.1538 C -462.34674,1320.9335 -462.75765,1320.9101 -463.09318,1321.0934 C -463.42871,1321.2768 -463.63022,1321.6348 -463.61244,1322.016 C -463.69806,1323.4661 -462.63925,1324.758 -461.19766,1324.9634 z"
       id="path11563"
       style="fill:#bebebe;fill-opacity:1;stroke:none;stroke-width:2.20265627;stroke-linecap:round;stroke-linejoin:bevel;marker:none;stroke-miterlimit:4.30000019;stroke-dasharray:none;stroke-dashoffset:0;stroke-opacity:1;visibility:visible;display:inline;overflow:visible;enable-background:accumulate" />
    <path
       d="M -479.24756,1319.2276 C -479.86722,1319.293 -480.31879,1319.6109 -480.32007,1319.9825 C -480.32061,1320.0051 -480.32007,1320.033 -480.32007,1320.0556 C -480.32007,1322.6489 -476.7105,1324.7797 -472.31753,1324.7797 C -471.58851,1324.7797 -470.99753,1324.4308 -470.99753,1324.0005 C -470.99753,1323.5701 -471.58851,1323.2212 -472.31753,1323.2212 C -475.30208,1323.2212 -477.68005,1321.8174 -477.68005,1320.0556 C -477.68005,1320.0391 -477.68045,1320.0233 -477.68005,1320.0069 C -477.66593,1319.7708 -477.83644,1319.5441 -478.14246,1319.392 C -478.44847,1319.2398 -478.85598,1319.1792 -479.24756,1319.2276 z"
       id="path11565"
       style="fill:#bebebe;fill-opacity:1;stroke:none;stroke-width:1.97200048;stroke-linecap:round;stroke-linejoin:bevel;marker:none;stroke-miterlimit:4.30000019;stroke-dasharray:none;stroke-dashoffset:0;stroke-opacity:1;visibility:visible;display:inline;overflow:visible;enable-background:accumulate" />
    <path
       d="M -466.40625,1319.0938 C -466.8453,1319.1417 -467.20096,1319.4719 -467.28125,1319.9062 L -467.53125,1321.1562 C -467.6348,1321.6999 -467.27803,1322.2245 -466.73438,1322.3281 C -466.19072,1322.4316 -465.66605,1322.0749 -465.5625,1321.5312 L -465.3125,1320.3125 C -465.23891,1319.9949 -465.32473,1319.6614 -465.54248,1319.4187 C -465.76023,1319.1761 -466.08257,1319.0549 -466.40625,1319.0938 L -466.40625,1319.0938 z"
       id="path11568"
       style="fill:#bebebe;fill-opacity:1;stroke:none;stroke-width:2;stroke-linecap:round;stroke-linejoin:bevel;marker:none;stroke-miterlimit:4.30000019;stroke-dasharray:none;stroke-dashoffset:0;stroke-opacity:1;visibility:visible;display:inline;overflow:visible;enable-background:accumulate" />
    <path
       d="M -462.71875,1319.375 C -462.98415,1319.3911 -463.23221,1319.5122 -463.40813,1319.7116 C -463.58404,1319.9109 -463.67333,1320.1722 -463.65625,1320.4375 L -463.625,1322.125 C -463.60774,1322.6773 -463.14603,1323.111 -462.59375,1323.0938 C -462.04147,1323.0765 -461.60774,1322.6148 -461.625,1322.0625 L -461.65625,1320.375 C -461.65574,1320.0986 -461.76964,1319.8343 -461.97092,1319.6449 C -462.17219,1319.4554 -462.44289,1319.3578 -462.71875,1319.375 z"
       id="path11570"
       style="fill:#bebebe;fill-opacity:1;stroke:none;stroke-width:2;stroke-linecap:round;stroke-linejoin:bevel;marker:none;stroke-miterlimit:4.30000019;stroke-dasharray:none;stroke-dashoffset:0;stroke-opacity:1;visibility:visible;display:inline;overflow:visible;enable-background:accumulate" />
    <path
       d="M -473.50003,1309.9926 C -475.4211,1309.9926 -477.00752,1311.579 -477.00752,1313.5 C -477.00752,1315.4211 -475.4211,1317.0076 -473.50003,1317.0076 C -471.57895,1317.0076 -469.99254,1315.4211 -469.99254,1313.5 C -469.99254,1311.579 -471.57895,1309.9926 -473.50003,1309.9926 z M -473.50003,1312.0075 C -472.66108,1312.0075 -472.00748,1312.6611 -472.00748,1313.5 C -472.00748,1314.3391 -472.66108,1314.9926 -473.50003,1314.9926 C -474.33897,1314.9926 -474.99258,1314.3391 -474.99258,1313.5 C -474.99258,1312.6611 -474.33897,1312.0075 -473.50003,1312.0075 z"
       id="path11574"
       style="fill:#bebebe;fill-opacity:1;stroke:none;stroke-width:1.67498636;stroke-linecap:round;stroke-linejoin:bevel;marker:none;stroke-miterlimit:4.30000019;stroke-dasharray:none;stroke-dashoffset:0;stroke-opacity:1;visibility:visible;display:inline;overflow:visible;enable-background:accumulate" />
    <path
       d="M -479.50003,1309.9926 C -481.4211,1309.9926 -483.00752,1311.579 -483.00752,1313.5 C -483.00752,1315.4211 -481.4211,1317.0076 -479.50003,1317.0076 C -477.57895,1317.0076 -475.99254,1315.4211 -475.99254,1313.5 C -475.99254,1311.579 -477.57895,1309.9926 -479.50003,1309.9926 z M -479.50003,1312.0075 C -478.66108,1312.0075 -478.00748,1312.6611 -478.00748,1313.5 C -478.00748,1314.3391 -478.66108,1314.9926 -479.50003,1314.9926 C -480.33897,1314.9926 -480.99258,1314.3391 -480.99258,1313.5 C -480.99258,1312.6611 -480.33897,1312.0075 -479.50003,1312.0075 z"
       id="path11576"
       style="fill:#bebebe;fill-opacity:1;stroke:none;stroke-width:1.67498636;stroke-linecap:round;stroke-linejoin:bevel;marker:none;stroke-miterlimit:4.30000019;stroke-dasharray:none;stroke-dashoffset:0;stroke-opacity:1;visibility:visible;display:inline;overflow:visible;enable-background:accumulate" />
    <path
       d="M -477.63748,1318.0151 C -477.83023,1318.0895 -477.95733,1318.2749 -477.95733,1318.4815 C -477.95733,1318.6881 -477.83023,1318.8735 -477.63748,1318.948 C -476.89032,1319.2876 -476.08893,1319.32 -475.32403,1319.0226 C -475.06645,1318.9196 -474.94117,1318.6272 -475.04421,1318.3696 C -475.14724,1318.1121 -475.43958,1317.9868 -475.69717,1318.0898 C -476.23827,1318.3002 -476.69849,1318.2927 -477.22703,1318.0524 C -477.35211,1317.9816 -477.50165,1317.9679 -477.63748,1318.0151 L -477.63748,1318.0151 z"
       id="path11578"
       style="fill:#bebebe;fill-opacity:1;stroke:none;stroke-width:0.83749324;stroke-linecap:round;stroke-linejoin:bevel;marker:none;stroke-miterlimit:4.30000019;stroke-dasharray:none;stroke-dashoffset:0;stroke-opacity:1;visibility:visible;display:inline;overflow:visible;enable-background:accumulate" />
    <rect
       width="2"
       height="2.0312524"
       rx="1"
       ry="1"
       x="-475"
       y="1313"
       id="rect11580"
       style="fill:#bebebe;fill-opacity:1;stroke:none;stroke-width:1;marker:none;visibility:visible;display:inline;overflow:visible;enable-background:accumulate" />
    <rect
       width="2"
       height="2.0312524"
       rx="1"
       ry="1"
       x="-481"
       y="1313"
       id="rect11582"
       style="fill:#bebebe;fill-opacity:1;stroke:none;stroke-width:1;marker:none;visibility:visible;display:inline;overflow:visible;enable-background:accumulate" />
    <path
       d="M -472.5625,1323 C -473.04231,1323.12 -473.36235,1323.5727 -473.31546,1324.065 C -473.26857,1324.5574 -472.86883,1324.9415 -472.375,1324.9688 L -470,1325 C -469.44772,1325.0086 -468.993,1324.5679 -468.98438,1324.0156 C -468.97575,1323.4633 -469.41647,1323.0086 -469.96875,1323 L -472.34375,1323 C -472.41645,1322.992 -472.4898,1322.992 -472.5625,1323 L -472.5625,1323 z"
       id="path11584"
       style="fill:#bebebe;fill-opacity:1;fill-rule:nonzero;stroke:none;stroke-width:2.00000024;stroke-linecap:round;stroke-linejoin:bevel;marker:none;stroke-miterlimit:4.30000019;stroke-dasharray:none;stroke-dashoffset:0;stroke-opacity:1;visibility:visible;display:inline;overflow:visible;enable-background:accumulate" />
  </g>
  <g
     transform="translate(483.00005,-1304)"
     id="layer4" />
  <g
     transform="translate(483.00005,-1304)"
     id="layer9" />
  <g
     transform="translate(483.00005,-1304)"
     id="layer10" />
  <g
     transform="translate(483.00005,-1304)"
     id="layer6" />
</svg>
