<?xml version="1.0" encoding="UTF-8" standalone="no"?>
<!-- Created with Inkscape (http://www.inkscape.org/) -->
<svg
   xmlns:svg="http://www.w3.org/2000/svg"
   xmlns="http://www.w3.org/2000/svg"
   version="1.0"
   width="24.000031"
   height="24.062527"
   id="svg7384">
  <title
     id="title9167">Moblin Icon Theme</title>
  <defs
     id="defs7386" />
  <g
     transform="translate(618.00003,-1254)"
     id="layer3" />
  <g
     transform="translate(618.00003,-1254)"
     id="layer5" />
  <g
     transform="translate(618.00003,-1254)"
     id="layer7" />
  <g
     transform="translate(618.00003,-1254)"
     id="layer2" />
  <g
     transform="translate(618.00003,-1254)"
     id="layer8" />
  <g
     transform="translate(618.00003,-2206.3622)"
     id="layer1" />
  <g
     transform="translate(618.00003,-1254)"
     id="layer11">
    <rect
       width="24"
       height="24"
       x="-618"
       y="1254.0625"
       id="rect11399"
       style="opacity:0;fill:#ffffff;fill-opacity:1;stroke:none;display:inline" />
    <path
       d="M -609.78125,1253.8125 L -610.53125,1254.125 C -611.57921,1254.5574 -612.54856,1255.165 -613.40625,1255.8438 L -614.03125,1256.3438 L -613.6875,1257.0625 L -612.375,1259.75 C -613.05807,1260.5406 -613.60895,1261.4294 -613.96875,1262.4375 L -616.9375,1262.625 L -617.71875,1262.6875 L -617.84375,1263.5 C -617.92367,1264.0433 -618,1264.6148 -618,1265.25 C -618.00004,1265.8535 -617.8995,1266.38 -617.84375,1266.8125 L -617.75,1267.625 L -616.9375,1267.6875 L -614.0625,1267.875 C -613.70383,1268.9476 -613.17596,1269.8955 -612.46875,1270.7188 L -613.75,1273.4062 L -614.09375,1274.125 L -613.46875,1274.625 C -612.62691,1275.2998 -611.68529,1275.9069 -610.65625,1276.3438 L -609.875,1276.6562 L -609.4375,1275.9688 L -607.8125,1273.5625 C -607.2349,1273.706 -606.65886,1273.875 -606,1273.875 C -605.40497,1273.875 -604.89998,1273.7125 -604.375,1273.5938 L -602.71875,1276.0312 L -602.25,1276.6875 L -601.53125,1276.375 C -600.50039,1275.955 -599.53146,1275.3733 -598.6875,1274.7188 L -598.0625,1274.25 L -598.40625,1273.5 L -599.65625,1270.875 C -598.88777,1270.0079 -598.30944,1269.0104 -597.9375,1267.875 L -595.0625,1267.6875 L -594.25,1267.625 L -594.15625,1266.8125 C -594.09956,1266.3779 -594,1265.8525 -594,1265.25 C -594.00002,1264.615 -594.07607,1264.0438 -594.15625,1263.5 L -594.28125,1262.6875 L -595.0625,1262.625 L -598.03125,1262.4375 C -598.41153,1261.3714 -599.00939,1260.4158 -599.75,1259.5938 L -598.46875,1256.9688 L -598.09375,1256.2188 L -598.75,1255.7188 C -599.29032,1255.3052 -599.94251,1255.019 -600.5625,1254.6875 L -600.09375,1254 L -602,1254 L -602.15625,1254.875 L -602.8125,1254.4375 L -604.46875,1256.875 C -604.96529,1256.7756 -605.45579,1256.6562 -606,1256.6562 C -606.60539,1256.6563 -607.14192,1256.7844 -607.6875,1256.9062 L -609.34375,1254.5 L -609.78125,1253.8125 z M -601.6875,1256.3125 C -601.32895,1256.4917 -600.99432,1256.6839 -600.65625,1256.9062 L -601.8125,1259.2812 L -602.15625,1259.9375 L -601.59375,1260.4375 C -600.67473,1261.2873 -600.00693,1262.3766 -599.6875,1263.625 L -599.5,1264.3438 L -598.78125,1264.375 L -596.0625,1264.5625 C -596.04076,1264.7912 -596.00001,1265.0299 -596,1265.25 C -596,1265.3903 -596.04572,1265.5918 -596.0625,1265.75 L -598.6875,1265.9375 L -599.4375,1265.9688 L -599.59375,1266.7188 C -599.88281,1268.0014 -600.56722,1269.1442 -601.5,1270.0312 L -602.03125,1270.5312 L -601.71875,1271.1875 L -600.59375,1273.5625 C -600.91361,1273.7762 -601.25507,1273.95 -601.59375,1274.125 L -603.0625,1271.9688 L -603.46875,1271.3438 L -604.1875,1271.5625 C -604.81161,1271.7454 -605.39507,1271.875 -606,1271.875 C -606.65054,1271.875 -607.27541,1271.7089 -607.9375,1271.5 L -608.65625,1271.2812 L -609.0625,1271.9062 L -610.5625,1274.0625 C -610.90606,1273.8784 -611.23999,1273.692 -611.5625,1273.4688 L -610.375,1271.0312 L -610.0625,1270.4062 L -610.5625,1269.9062 C -611.45369,1269.0206 -612.13122,1267.939 -612.40625,1266.7188 L -612.5625,1265.9688 L -613.3125,1265.9375 L -615.9375,1265.75 C -615.95438,1265.5918 -616.00001,1265.3898 -616,1265.25 C -616,1265.03 -615.95927,1264.7912 -615.9375,1264.5625 L -613.21875,1264.375 L -612.5,1264.3438 L -612.3125,1263.625 C -612.00877,1262.438 -611.3862,1261.3971 -610.53125,1260.5625 L -610.03125,1260.0625 L -610.34375,1259.4375 L -611.5,1257 C -611.16553,1256.7727 -610.82529,1256.5604 -610.46875,1256.375 L -608.96875,1258.5625 L -608.5625,1259.1562 L -607.875,1258.9375 C -607.25257,1258.751 -606.63124,1258.6563 -606,1258.6562 C -605.41119,1258.6562 -604.82992,1258.7453 -604.25,1258.9062 L -603.5625,1259.0938 L -603.15625,1258.5 L -601.6875,1256.3125 z"
       id="path11062-5"
       style="fill:#bebebe;fill-opacity:1;stroke:none;stroke-width:1.99999988;stroke-linecap:round;stroke-linejoin:miter;marker:none;stroke-miterlimit:4.30000019;stroke-dasharray:none;stroke-dashoffset:0;stroke-opacity:1;visibility:visible;display:inline;overflow:visible;enable-background:accumulate" />
  </g>
  <g
     transform="translate(618.00003,-1254)"
     id="layer4" />
  <g
     transform="translate(618.00003,-1254)"
     id="layer12" />
  <g
     transform="translate(618.00003,-1254)"
     id="layer9" />
  <g
     transform="translate(618.00003,-1254)"
     id="layer10" />
  <g
     transform="translate(618.00003,-1254)"
     id="layer6" />
</svg>
