<?xml version="1.0" encoding="UTF-8" standalone="no"?>
<!-- Created with Inkscape (http://www.inkscape.org/) -->
<svg
   xmlns:svg="http://www.w3.org/2000/svg"
   xmlns="http://www.w3.org/2000/svg"
   version="1.0"
   width="24.000111"
   height="24"
   id="svg7384">
  <title
     id="title9167">Moblin Icon Theme</title>
  <defs
     id="defs7386" />
  <g
     transform="translate(538.00001,-1224)"
     id="layer3" />
  <g
     transform="translate(538.00001,-1224)"
     id="layer5" />
  <g
     transform="translate(538.00001,-1224)"
     id="layer7" />
  <g
     transform="translate(538.00001,-1224)"
     id="layer2" />
  <g
     transform="translate(538.00001,-1224)"
     id="layer8" />
  <g
     transform="translate(538.00001,-2176.3622)"
     id="layer1" />
  <g
     transform="translate(538.00001,-1224)"
     id="layer11">
    <rect
       width="24"
       height="24"
       x="-537.99988"
       y="1224"
       id="rect11193"
       style="opacity:0;fill:#ffffff;fill-opacity:1;stroke:none;display:inline" />
    <path
       d="M -587,1276.9688 A 2.03125,2.03125 0 1 1 -591.0625,1276.9688 A 2.03125,2.03125 0 1 1 -587,1276.9688 z"
       transform="matrix(2.4615127,0,0,2.4615127,916.9079,-1914.2747)"
       id="path11195"
       style="fill:#bebebe;fill-opacity:1;fill-rule:nonzero;stroke:none;stroke-width:2;marker:none;visibility:visible;display:inline;overflow:visible;enable-background:accumulate" />
    <path
       d="M -533.00003,1236.0154 C -535.74908,1236.0154 -537.98462,1238.2509 -537.98462,1241.0001 C -537.98462,1243.7491 -535.74908,1245.9846 -533.00003,1245.9846 C -530.25099,1245.9846 -528.01545,1243.7491 -528.01545,1241.0001 C -528.01545,1238.2509 -530.25099,1236.0154 -533.00003,1236.0154 z M -533.00003,1237.9846 C -531.33311,1237.9846 -529.98467,1239.3331 -529.98467,1241.0001 C -529.98467,1242.6668 -531.33311,1244.0154 -533.00003,1244.0154 C -534.66696,1244.0154 -536.0154,1242.6668 -536.0154,1241.0001 C -536.0154,1239.3331 -534.66696,1237.9846 -533.00003,1237.9846 z"
       id="path11197"
       style="fill:#bebebe;fill-opacity:1;stroke:none;stroke-width:1.01563144;stroke-linecap:round;stroke-linejoin:miter;marker:none;stroke-miterlimit:4.30000019;stroke-dasharray:none;stroke-dashoffset:0;stroke-opacity:1;visibility:visible;display:inline;overflow:visible;enable-background:accumulate" />
    <path
       d="M -587,1276.9688 A 2.03125,2.03125 0 1 1 -591.0625,1276.9688 A 2.03125,2.03125 0 1 1 -587,1276.9688 z"
       transform="matrix(2.4615127,0,0,-2.4615127,928.908,4384.2748)"
       id="path11209"
       style="fill:#bebebe;fill-opacity:1;fill-rule:nonzero;stroke:none;stroke-width:2;marker:none;visibility:visible;display:inline;overflow:visible;enable-background:accumulate" />
    <path
       d="M -520.99993,1233.9847 C -523.74898,1233.9847 -525.98452,1231.7492 -525.98452,1229 C -525.98452,1226.251 -523.74898,1224.0155 -520.99993,1224.0155 C -518.25089,1224.0155 -516.01535,1226.251 -516.01535,1229 C -516.01535,1231.7492 -518.25089,1233.9847 -520.99993,1233.9847 z M -520.99993,1232.0155 C -519.33301,1232.0155 -517.98457,1230.667 -517.98457,1229 C -517.98457,1227.3333 -519.33301,1225.9847 -520.99993,1225.9847 C -522.66686,1225.9847 -524.0153,1227.3333 -524.0153,1229 C -524.0153,1230.667 -522.66686,1232.0155 -520.99993,1232.0155 z"
       id="path11211"
       style="fill:#bebebe;fill-opacity:1;stroke:none;stroke-width:1.01563144;stroke-linecap:round;stroke-linejoin:miter;marker:none;stroke-miterlimit:4.30000019;stroke-dasharray:none;stroke-dashoffset:0;stroke-opacity:1;visibility:visible;display:inline;overflow:visible;enable-background:accumulate" />
  </g>
  <g
     transform="translate(538.00001,-1224)"
     id="layer4" />
  <g
     transform="translate(538.00001,-1224)"
     id="layer12" />
  <g
     transform="translate(538.00001,-1224)"
     id="layer9" />
  <g
     transform="translate(538.00001,-1224)"
     id="layer10" />
  <g
     transform="translate(538.00001,-1224)"
     id="layer6" />
</svg>
