<?xml version="1.0" encoding="UTF-8" standalone="no"?>
<!-- Created with Inkscape (http://www.inkscape.org/) -->
<svg
   xmlns:svg="http://www.w3.org/2000/svg"
   xmlns="http://www.w3.org/2000/svg"
   version="1.0"
   width="24.000011"
   height="24"
   id="svg7384">
  <title
     id="title9167">Moblin Icon Theme</title>
  <defs
     id="defs7386" />
  <g
     transform="translate(510,-1274)"
     id="layer3" />
  <g
     transform="translate(510,-1274)"
     id="layer5" />
  <g
     transform="translate(510,-1274)"
     id="layer7" />
  <g
     transform="translate(510,-1274)"
     id="layer2" />
  <g
     transform="translate(510,-1274)"
     id="layer8" />
  <g
     transform="translate(510,-2226.3622)"
     id="layer1" />
  <g
     transform="translate(510,-1274)"
     id="layer11">
    <rect
       width="24"
       height="24"
       x="-510"
       y="1274"
       id="rect11215"
       style="opacity:0;fill:#ffffff;fill-opacity:1;stroke:none;display:inline" />
    <path
       d="M -502.28125,1277 C -503.20974,1277 -504,1277.7903 -504,1278.7188 L -504,1293.2812 C -504,1294.2097 -503.20975,1295 -502.28125,1295 C -501.77052,1295.0179 -501.32846,1294.6479 -501.25619,1294.1419 C -501.18392,1293.636 -501.50469,1293.157 -502,1293.0312 L -502,1279 L -491.96875,1279 C -491.84283,1279.4952 -491.3639,1279.8158 -490.85809,1279.7436 C -490.35228,1279.6713 -489.98226,1279.2294 -490,1278.7188 C -490,1277.7903 -490.79026,1277 -491.71875,1277 L -502.28125,1277 z"
       id="path11217"
       style="fill:#bebebe;fill-opacity:1;fill-rule:nonzero;stroke:none;stroke-width:2;stroke-linecap:round;stroke-linejoin:round;marker:none;stroke-miterlimit:4;stroke-dashoffset:0;stroke-opacity:1;visibility:visible;display:inline;overflow:visible;enable-background:accumulate" />
    <path
       d="M -498.28125,1280 C -499.20969,1280 -500,1280.7903 -500,1281.7188 L -500,1296.2812 C -500,1297.2097 -499.2097,1298 -498.28125,1298 L -487.71875,1298 C -486.79031,1298 -485.99997,1297.2097 -486,1296.2812 L -486,1281.7188 C -486,1280.7903 -486.79031,1280 -487.71875,1280 L -498.28125,1280 z M -498,1282 L -488,1282 L -488,1296 L -498,1296 L -498,1282 z"
       id="rect11219"
       style="fill:#bebebe;fill-opacity:1;fill-rule:nonzero;stroke:none;stroke-width:2;stroke-linecap:round;stroke-linejoin:round;marker:none;stroke-miterlimit:4;stroke-dasharray:none;stroke-dashoffset:0;stroke-opacity:1;visibility:visible;display:inline;overflow:visible;enable-background:accumulate" />
    <path
       d="M -494.5,1286.9688 C -495.32843,1286.9688 -496,1287.6404 -496,1288.4688 C -496,1288.7691 -495.902,1289.0467 -495.75,1289.2813 C -495.745,1289.2893 -495.755,1289.3046 -495.75,1289.3126 L -495.7187,1289.4376 L -492.93745,1292 L -490.24995,1289.3126 C -490.08821,1289.0731 -489.99995,1288.7795 -489.99995,1288.4688 C -489.99995,1287.6404 -490.67152,1286.9688 -491.49995,1286.9688 C -492.30787,1286.9688 -492.96783,1287.6063 -492.99995,1288.4063 C -493.03205,1287.6063 -493.69203,1286.9688 -494.49995,1286.9688 L -494.5,1286.9688 z"
       id="path11225"
       style="fill:#bebebe;fill-opacity:1;stroke:none;stroke-width:2;marker:none;visibility:visible;display:inline;overflow:visible;enable-background:accumulate" />
    <path
       d="M -506.28125,1274 C -507.20974,1274 -508,1274.7903 -508,1275.7188 L -508,1290.2812 C -508,1291.2097 -507.20975,1292 -506.28125,1292 C -505.77052,1292.0179 -505.32846,1291.6479 -505.25619,1291.1419 C -505.18392,1290.636 -505.50469,1290.157 -506,1290.0312 L -506,1276 L -495.96875,1276 C -495.84283,1276.4952 -495.3639,1276.8158 -494.85809,1276.7436 C -494.35228,1276.6713 -493.98226,1276.2294 -494,1275.7188 C -494,1274.7903 -494.79026,1274 -495.71875,1274 L -506.28125,1274 z"
       id="path11232"
       style="fill:#bebebe;fill-opacity:1;fill-rule:nonzero;stroke:none;stroke-width:2;stroke-linecap:round;stroke-linejoin:round;marker:none;stroke-miterlimit:4;stroke-dashoffset:0;stroke-opacity:1;visibility:visible;display:inline;overflow:visible;enable-background:accumulate" />
  </g>
  <g
     transform="translate(510,-1274)"
     id="layer4" />
  <g
     transform="translate(510,-1274)"
     id="layer9" />
  <g
     transform="translate(510,-1274)"
     id="layer10" />
  <g
     transform="translate(510,-1274)"
     id="layer6" />
</svg>
