<?xml version="1.0" encoding="UTF-8" standalone="no"?>
<!-- Created with Inkscape (http://www.inkscape.org/) -->
<svg
   xmlns:svg="http://www.w3.org/2000/svg"
   xmlns="http://www.w3.org/2000/svg"
   version="1.0"
   width="24.9758"
   height="24.975683"
   id="svg7384">
  <title
     id="title9167">Moblin Icon Theme</title>
  <defs
     id="defs7386" />
  <g
     transform="translate(566.9757,-1254)"
     id="layer3" />
  <g
     transform="translate(566.9757,-1254)"
     id="layer5" />
  <g
     transform="translate(566.9757,-1254)"
     id="layer7" />
  <g
     transform="translate(566.9757,-1254)"
     id="layer2" />
  <g
     transform="translate(566.9757,-1254)"
     id="layer8" />
  <g
     transform="translate(566.9757,-2206.3622)"
     id="layer1" />
  <g
     transform="translate(566.9757,-1254)"
     id="layer11">
    <rect
       width="24"
       height="24"
       x="-565.99988"
       y="1254"
       id="rect11446"
       style="opacity:0;fill:#ffffff;fill-opacity:1;stroke:none;display:inline" />
    <path
       d="M -556,1260 L -554,1260 L -554,1258 L -556,1258 L -556,1260 z M -556,1264 L -554,1264 L -554,1262 L -556,1262 L -556,1264 z M -556,1268 L -554,1268 L -554,1266 L -556,1266 L -556,1268 z M -556,1272 L -554,1272 L -554,1270 L -556,1270 L -556,1272 z M -556,1276 L -554,1276 L -554,1274 L -556,1274 L -556,1276 z"
       id="path11456"
       style="fill:#bebebe;fill-opacity:1;stroke:none;stroke-width:1.99999988;stroke-linecap:butt;stroke-linejoin:miter;marker:none;stroke-miterlimit:4.30000019;stroke-dasharray:1.99999988, 1.99999988;stroke-dashoffset:0;stroke-opacity:1;visibility:visible;display:inline;overflow:visible;enable-background:accumulate" />
    <path
       d="M -564,1267.9375 L -562,1267.9375 L -562,1265.9375 L -564,1265.9375 L -564,1267.9375 z M -560,1267.9375 L -558,1267.9375 L -558,1265.9375 L -560,1265.9375 L -560,1267.9375 z M -556,1267.9375 L -554,1267.9375 L -554,1265.9375 L -556,1265.9375 L -556,1267.9375 z M -552,1267.9375 L -550,1267.9375 L -550,1265.9375 L -552,1265.9375 L -552,1267.9375 z M -548,1267.9375 L -546,1267.9375 L -546,1265.9375 L -548,1265.9375 L -548,1267.9375 z"
       id="path11458"
       style="fill:#bebebe;fill-opacity:1;stroke:none;stroke-width:1.99999988;stroke-linecap:butt;stroke-linejoin:miter;marker:none;stroke-miterlimit:4.30000019;stroke-dasharray:1.99999988, 1.99999988;stroke-dashoffset:0;stroke-opacity:1;visibility:visible;display:inline;overflow:visible;enable-background:accumulate" />
    <path
       d="M -547.95915,1254.0938 C -550.13469,1254.0938 -551.92791,1255.887 -551.9279,1258.0625 C -551.9279,1260.238 -550.13465,1261.9999 -547.95915,1262 C -545.78361,1262 -543.99039,1260.238 -543.9904,1258.0625 C -543.9904,1255.887 -545.78365,1254.0938 -547.95915,1254.0938 z M -547.95915,1256.0938 C -546.8657,1256.0938 -545.9904,1256.9691 -545.9904,1258.0625 C -545.99039,1259.1559 -546.86574,1260 -547.95915,1260 C -549.0526,1260 -549.9279,1259.1559 -549.9279,1258.0625 C -549.92791,1256.9691 -549.05256,1256.0938 -547.95915,1256.0938 z"
       id="path11460"
       style="fill:#bebebe;fill-opacity:1;stroke:none;stroke-width:1.99999988;stroke-linecap:butt;stroke-linejoin:miter;marker:none;stroke-miterlimit:4.30000019;stroke-dasharray:none;stroke-dashoffset:0;stroke-opacity:1;visibility:visible;display:inline;overflow:visible;enable-background:accumulate" />
    <path
       d="M -546.6875,1259.4375 L -549.6875,1263.4062 L -548.09375,1264.625 L -545.09375,1260.625 L -546.6875,1259.4375 z"
       id="path11462"
       style="fill:#bebebe;fill-opacity:1;stroke:none;stroke-width:1.99999988;stroke-linecap:butt;stroke-linejoin:miter;marker:none;stroke-miterlimit:4.30000019;stroke-dasharray:none;stroke-dashoffset:0;stroke-opacity:1;visibility:visible;display:inline;overflow:visible;enable-background:accumulate" />
  </g>
  <g
     transform="translate(566.9757,-1254)"
     id="layer4" />
  <g
     transform="translate(566.9757,-1254)"
     id="layer12" />
  <g
     transform="translate(566.9757,-1254)"
     id="layer9" />
  <g
     transform="translate(566.9757,-1254)"
     id="layer10" />
  <g
     transform="translate(566.9757,-1254)"
     id="layer6" />
</svg>
