<?xml version="1.0" encoding="UTF-8" standalone="no"?>
<!-- Created with Inkscape (http://www.inkscape.org/) -->
<svg
   xmlns:svg="http://www.w3.org/2000/svg"
   xmlns="http://www.w3.org/2000/svg"
   version="1.0"
   width="24.000095"
   height="24.000042"
   id="svg7384">
  <title
     id="title9167">Moblin Icon Theme</title>
  <defs
     id="defs7386" />
  <g
     transform="translate(566.0001,-1224)"
     id="layer3" />
  <g
     transform="translate(566.0001,-1224)"
     id="layer5" />
  <g
     transform="translate(566.0001,-1224)"
     id="layer7" />
  <g
     transform="translate(566.0001,-1224)"
     id="layer2" />
  <g
     transform="translate(566.0001,-1224)"
     id="layer8" />
  <g
     transform="translate(566.0001,-2176.3622)"
     id="layer1" />
  <g
     transform="translate(566.0001,-1224)"
     id="layer11">
    <rect
       width="24"
       height="24"
       x="-566"
       y="1224"
       id="rect11163"
       style="opacity:0;fill:#ffffff;fill-opacity:1;stroke:none;display:inline" />
    <path
       d="M -587,1276.9688 A 2.03125,2.03125 0 1 1 -591.0625,1276.9688 A 2.03125,2.03125 0 1 1 -587,1276.9688 z"
       transform="matrix(1.9692443,0,0,1.9692443,597.9464,-1286.6633)"
       id="path11165"
       style="fill:#bebebe;fill-opacity:1;fill-rule:nonzero;stroke:none;stroke-width:2;marker:none;visibility:visible;display:inline;overflow:visible;enable-background:accumulate" />
    <path
       d="M -562.0001,1231.9847 C -564.19717,1231.9847 -566.01548,1233.8031 -566.01548,1236.0001 C -566.01548,1238.197 -564.19717,1240.0154 -562.0001,1240.0154 C -559.80303,1240.0154 -557.98472,1238.197 -557.98472,1236.0001 C -557.98472,1233.8031 -559.80303,1231.9847 -562.0001,1231.9847 z M -562.0001,1234.0154 C -560.88517,1234.0154 -560.01549,1234.885 -560.01549,1236.0001 C -560.01549,1237.115 -560.88517,1237.9847 -562.0001,1237.9847 C -563.11503,1237.9847 -563.98471,1237.115 -563.98471,1236.0001 C -563.98471,1234.885 -563.11503,1234.0154 -562.0001,1234.0154 z"
       id="path11167"
       style="fill:#bebebe;fill-opacity:1;stroke:none;stroke-width:1.35416842;stroke-linecap:round;stroke-linejoin:miter;marker:none;stroke-miterlimit:4.30000019;stroke-dasharray:none;stroke-dashoffset:0;stroke-opacity:1;visibility:visible;display:inline;overflow:visible;enable-background:accumulate" />
    <path
       d="M -562.0001,1239.9847 C -564.19717,1239.9847 -566.01548,1241.8031 -566.01548,1244.0001 C -566.01548,1246.197 -564.19717,1248.0154 -562.0001,1248.0154 C -559.80303,1248.0154 -557.98472,1246.197 -557.98472,1244.0001 C -557.98472,1241.8031 -559.80303,1239.9847 -562.0001,1239.9847 z M -562.0001,1242.0154 C -560.88517,1242.0154 -560.01549,1242.885 -560.01549,1244.0001 C -560.01549,1245.115 -560.88517,1245.9847 -562.0001,1245.9847 C -563.11503,1245.9847 -563.98471,1245.115 -563.98471,1244.0001 C -563.98471,1242.885 -563.11503,1242.0154 -562.0001,1242.0154 z"
       id="path11181"
       style="fill:#bebebe;fill-opacity:1;stroke:none;stroke-width:1.35416842;stroke-linecap:round;stroke-linejoin:miter;marker:none;stroke-miterlimit:4.30000019;stroke-dasharray:none;stroke-dashoffset:0;stroke-opacity:1;visibility:visible;display:inline;overflow:visible;enable-background:accumulate" />
    <path
       d="M -554,1231.9847 C -556.19707,1231.9847 -558.01538,1233.8031 -558.01538,1236.0001 C -558.01538,1238.197 -556.19707,1240.0154 -554,1240.0154 C -551.80293,1240.0154 -549.98462,1238.197 -549.98462,1236.0001 C -549.98462,1233.8031 -551.80293,1231.9847 -554,1231.9847 z M -554,1234.0154 C -552.88507,1234.0154 -552.01539,1234.885 -552.01539,1236.0001 C -552.01539,1237.115 -552.88507,1237.9847 -554,1237.9847 C -555.11493,1237.9847 -555.98461,1237.115 -555.98461,1236.0001 C -555.98461,1234.885 -555.11493,1234.0154 -554,1234.0154 z"
       id="path11183"
       style="fill:#bebebe;fill-opacity:1;stroke:none;stroke-width:1.35416842;stroke-linecap:round;stroke-linejoin:miter;marker:none;stroke-miterlimit:4.30000019;stroke-dasharray:none;stroke-dashoffset:0;stroke-opacity:1;visibility:visible;display:inline;overflow:visible;enable-background:accumulate" />
    <path
       d="M -547,1223.9847 C -549.19707,1223.9847 -551.01538,1225.8031 -551.01538,1228.0001 C -551.01538,1230.197 -549.19707,1232.0154 -547,1232.0154 C -544.80293,1232.0154 -542.98462,1230.197 -542.98462,1228.0001 C -542.98462,1225.8031 -544.80293,1223.9847 -547,1223.9847 z M -547,1226.0154 C -545.88507,1226.0154 -545.01539,1226.885 -545.01539,1228.0001 C -545.01539,1229.115 -545.88507,1229.9847 -547,1229.9847 C -548.11493,1229.9847 -548.98461,1229.115 -548.98461,1228.0001 C -548.98461,1226.885 -548.11493,1226.0154 -547,1226.0154 z"
       id="path11185"
       style="fill:#bebebe;fill-opacity:1;stroke:none;stroke-width:1.35416842;stroke-linecap:round;stroke-linejoin:miter;marker:none;stroke-miterlimit:4.30000019;stroke-dasharray:none;stroke-dashoffset:0;stroke-opacity:1;visibility:visible;display:inline;overflow:visible;enable-background:accumulate" />
    <path
       d="M -587,1276.9688 A 2.03125,2.03125 0 1 1 -591.0625,1276.9688 A 2.03125,2.03125 0 1 1 -587,1276.9688 z"
       transform="matrix(1.9692443,0,0,1.9692443,605.9464,-1270.6634)"
       id="path11187"
       style="fill:#bebebe;fill-opacity:1;fill-rule:nonzero;stroke:none;stroke-width:2;marker:none;visibility:visible;display:inline;overflow:visible;enable-background:accumulate" />
    <path
       d="M -587,1276.9688 A 2.03125,2.03125 0 1 1 -591.0625,1276.9688 A 2.03125,2.03125 0 1 1 -587,1276.9688 z"
       transform="matrix(1.9692443,0,0,1.9692443,613.9464,-1270.6634)"
       id="path11189"
       style="fill:#bebebe;fill-opacity:1;fill-rule:nonzero;stroke:none;stroke-width:2;marker:none;visibility:visible;display:inline;overflow:visible;enable-background:accumulate" />
  </g>
  <g
     transform="translate(566.0001,-1224)"
     id="layer4" />
  <g
     transform="translate(566.0001,-1224)"
     id="layer12" />
  <g
     transform="translate(566.0001,-1224)"
     id="layer9" />
  <g
     transform="translate(566.0001,-1224)"
     id="layer10" />
  <g
     transform="translate(566.0001,-1224)"
     id="layer6" />
</svg>
