<?xml version="1.0" encoding="UTF-8" standalone="no"?>
<!-- Created with Inkscape (http://www.inkscape.org/) -->
<svg
   xmlns:svg="http://www.w3.org/2000/svg"
   xmlns="http://www.w3.org/2000/svg"
   xmlns:xlink="http://www.w3.org/1999/xlink"
   version="1.0"
   width="24"
   height="24.012913"
   id="svg7384">
  <title
     id="title9167">Moblin Icon Theme</title>
  <defs
     id="defs7386">
    <linearGradient
       id="linearGradient7487-1-1">
      <stop
         id="stop7489-4-3"
         style="stop-color:#bebebe;stop-opacity:1"
         offset="0" />
      <stop
         id="stop7491-5-4"
         style="stop-color:#bebebe;stop-opacity:0"
         offset="1" />
    </linearGradient>
    <linearGradient
       x1="105.91268"
       y1="121.0463"
       x2="105.91268"
       y2="115.05012"
       id="linearGradient12273"
       xlink:href="#linearGradient7487-1-1"
       gradientUnits="userSpaceOnUse"
       gradientTransform="matrix(1,0,0,1.091442,811.09011,250.47826)" />
    <linearGradient
       x1="105.91268"
       y1="121.0463"
       x2="105.91268"
       y2="115.05012"
       id="linearGradient12276"
       xlink:href="#linearGradient7487-1-1"
       gradientUnits="userSpaceOnUse"
       gradientTransform="matrix(1,0,0,1.091442,816.15728,-511.28834)" />
    <linearGradient
       x1="105.91268"
       y1="121.0463"
       x2="105.91268"
       y2="115.05012"
       id="linearGradient12279"
       xlink:href="#linearGradient7487-1-1"
       gradientUnits="userSpaceOnUse"
       gradientTransform="matrix(1,0,0,1.091442,281.09003,-1053.5217)" />
    <linearGradient
       x1="105.91268"
       y1="121.0463"
       x2="105.91268"
       y2="115.05012"
       id="linearGradient12282"
       xlink:href="#linearGradient7487-1-1"
       gradientUnits="userSpaceOnUse"
       gradientTransform="matrix(1,0,0,1.091442,-480.67657,-1058.5889)" />
    <linearGradient
       x1="105.91268"
       y1="121.0463"
       x2="105.91268"
       y2="115.05012"
       id="linearGradient12289"
       xlink:href="#linearGradient7487-1-1"
       gradientUnits="userSpaceOnUse"
       gradientTransform="matrix(1,0,0,1.091442,-1022.9099,-523.52164)" />
  </defs>
  <g
     transform="translate(397.99995,-899.9985)"
     id="layer3" />
  <g
     transform="translate(397.99995,-899.9985)"
     id="layer5" />
  <g
     transform="translate(397.99995,-899.9985)"
     id="layer7" />
  <g
     transform="translate(397.99995,-899.9985)"
     id="layer2" />
  <g
     transform="translate(397.99995,-899.9985)"
     id="layer8" />
  <g
     transform="translate(397.99995,-1852.3607)"
     id="layer1" />
  <g
     transform="translate(397.99995,-899.9985)"
     id="layer11">
    <rect
       width="24"
       height="24"
       x="373.99994"
       y="900.0014"
       transform="scale(-1,1)"
       id="rect7657-0"
       style="opacity:0;fill:#ffffff;fill-opacity:1;stroke:none;display:inline" />
    <rect
       width="2.0000005"
       height="12"
       rx="1.0000002"
       ry="1.0000002"
       x="-918"
       y="-397.99994"
       transform="matrix(0,-1,1,0,0,0)"
       id="rect7673-8"
       style="fill:url(#linearGradient12289);fill-opacity:1;stroke:none;display:inline" />
    <rect
       width="2.0000005"
       height="5"
       rx="1.0000002"
       ry="1.0000002"
       x="385.99994"
       y="-917"
       transform="scale(-1,-1)"
       id="rect7675-7"
       style="fill:#bebebe;fill-opacity:1;stroke:none;display:inline" />
    <rect
       width="2.0000002"
       height="2"
       rx="1.0000001"
       ry="1.0000001"
       x="-387.99994"
       y="908"
       id="rect7687-0"
       style="fill:#bebebe;fill-opacity:1;stroke:none;display:inline" />
    <path
       d="M -390.59375,903 C -390.86989,903.03452 -391.06577,903.28636 -391.03125,903.5625 C -390.99673,903.83864 -390.74489,904.03452 -390.46875,904 L -383.5,904 C -383.31968,904.00255 -383.15196,903.90781 -383.06106,903.75206 C -382.97015,903.59631 -382.97015,903.40369 -383.06106,903.24794 C -383.15196,903.09219 -383.31968,902.99745 -383.5,903 L -390.46875,903 C -390.51025,902.99477 -390.55225,902.99477 -390.59375,903 L -390.59375,903 z"
       id="path5630-3"
       style="fill:#bebebe;fill-opacity:1;stroke:none;stroke-width:1px;stroke-linecap:round;stroke-linejoin:miter;stroke-opacity:1" />
    <path
       d="M -392,900 C -393.0907,900 -394,900.9093 -394,902 L -394,912 C -394,913.0907 -393.09068,913.99995 -392,914 L -382,914 C -380.9093,914 -380,913.0907 -380,912 L -380,902 C -380,900.9093 -380.9093,900 -382,900 L -392,900 z M -392,902 L -382,902 L -382,912 L -392,912 L -392,902 z"
       id="rect7536-2"
       style="fill:#bebebe;fill-opacity:1;fill-rule:nonzero;stroke:none;stroke-width:1.99999988;stroke-linecap:round;stroke-linejoin:round;marker:none;stroke-opacity:1;visibility:visible;display:inline;overflow:visible;enable-background:new" />
    <rect
       width="2.0000005"
       height="10.5"
       rx="1.0000002"
       ry="1.0000002"
       x="-375.76663"
       y="-931.56726"
       transform="matrix(-0.7071068,-0.7071068,0.7071068,-0.7071068,0,0)"
       id="rect8108"
       style="fill:url(#linearGradient12282);fill-opacity:1;stroke:none;display:inline" />
    <rect
       width="2.0000005"
       height="7.9341092"
       rx="1.0000002"
       ry="1.0000002"
       x="385.99994"
       y="-923.9342"
       transform="scale(-1,-1)"
       id="rect8112"
       style="fill:url(#linearGradient12279);fill-opacity:1;stroke:none;display:inline" />
    <rect
       width="2.0000005"
       height="10.5"
       rx="1.0000002"
       ry="1.0000002"
       x="921.06726"
       y="-384.26669"
       transform="matrix(-0.7071068,0.7071068,-0.7071068,-0.7071068,0,0)"
       id="rect8116"
       style="fill:url(#linearGradient12276);fill-opacity:1;stroke:none;display:inline" />
    <rect
       width="2.0000005"
       height="12"
       rx="1.0000002"
       ry="1.0000002"
       x="916.00006"
       y="375.99988"
       transform="matrix(0,1,-1,0,0,0)"
       id="rect8121"
       style="fill:url(#linearGradient12273);fill-opacity:1;stroke:none;display:inline" />
  </g>
  <g
     transform="translate(397.99995,-899.9985)"
     id="layer4" />
  <g
     transform="translate(397.99995,-899.9985)"
     id="layer12" />
  <g
     transform="translate(397.99995,-899.9985)"
     id="layer9" />
  <g
     transform="translate(397.99995,-899.9985)"
     id="layer10" />
  <g
     transform="translate(397.99995,-899.9985)"
     id="layer6" />
</svg>
