<?xml version="1.0" encoding="UTF-8" standalone="no"?>
<!-- Created with Inkscape (http://www.inkscape.org/) -->
<svg
   xmlns:svg="http://www.w3.org/2000/svg"
   xmlns="http://www.w3.org/2000/svg"
   version="1.0"
   width="24.00001"
   height="24"
   id="svg7384">
  <title
     id="title9167">Moblin Icon Theme</title>
  <defs
     id="defs7386" />
  <g
     transform="translate(510,-1183.9814)"
     id="layer3" />
  <g
     transform="translate(510,-1183.9814)"
     id="layer5" />
  <g
     transform="translate(510,-1183.9814)"
     id="layer7" />
  <g
     transform="translate(510,-1183.9814)"
     id="layer2" />
  <g
     transform="translate(510,-1183.9814)"
     id="layer8" />
  <g
     transform="translate(510,-2136.3436)"
     id="layer1" />
  <g
     transform="translate(510,-1183.9814)"
     id="layer11">
    <rect
       width="24"
       height="24"
       x="-510"
       y="1183.9814"
       id="rect9889"
       style="opacity:0;fill:#ffffff;fill-opacity:1;stroke:none;display:inline" />
    <path
       d="M -509.0625,1184 C -509.56546,1184.0634 -509.94143,1184.4931 -509.9375,1185 L -509.9375,1188.9375 L -509.9375,1189.9375 L -507.9375,1189.9375 L -507.9375,1188.9375 L -507.9375,1186 L -488,1186 L -488,1189.0312 L -488,1190.0312 L -486,1190.0312 L -486,1189.0312 L -486,1185 C -486.00006,1184.4477 -486.44774,1184.0001 -487,1184 L -508.9375,1184 C -508.97913,1183.9974 -509.02087,1183.9974 -509.0625,1184 z"
       id="path9893"
       style="fill:#bebebe;fill-opacity:1;stroke:none;stroke-width:2;stroke-linecap:square;stroke-linejoin:round;marker:none;stroke-miterlimit:4;stroke-dasharray:none;stroke-dashoffset:0;stroke-opacity:1;visibility:visible;display:inline;overflow:visible;enable-background:accumulate" />
    <path
       d="M -508.25,1192 C -509.2022,1192 -510,1192.7978 -510,1193.75 L -510,1196.25 C -510,1197.2022 -509.2022,1198 -508.25,1198 L -497.75,1198 C -496.7978,1198 -496,1197.2022 -496,1196.25 L -496,1193.75 C -496,1192.7978 -496.7978,1192 -497.75,1192 L -508.25,1192 z M -508,1194 L -498,1194 L -498,1196 L -508,1196 L -508,1194 z"
       id="rect9895"
       style="fill:#bebebe;fill-opacity:1;stroke:none;stroke-width:2;stroke-linecap:square;stroke-linejoin:round;marker:none;stroke-miterlimit:4;stroke-dasharray:none;stroke-dashoffset:0;stroke-opacity:1;visibility:visible;display:inline;overflow:visible;enable-background:accumulate" />
    <path
       d="M -498.25,1200 C -499.2022,1200 -500,1200.7978 -500,1201.75 L -500,1204.25 C -500,1205.2022 -499.2022,1206 -498.25,1206 L -487.75,1206 C -486.7978,1206 -486,1205.2022 -486,1204.25 L -486,1201.75 C -486,1200.7978 -486.7978,1200 -487.75,1200 L -498.25,1200 z M -498,1202 L -488,1202 L -488,1204 L -498,1204 L -498,1202 z"
       id="rect9897"
       style="fill:#bebebe;fill-opacity:1;stroke:none;stroke-width:2;stroke-linecap:square;stroke-linejoin:round;marker:none;stroke-miterlimit:4;stroke-dasharray:none;stroke-dashoffset:0;stroke-opacity:1;visibility:visible;display:inline;overflow:visible;enable-background:accumulate" />
  </g>
  <g
     transform="translate(510,-1183.9814)"
     id="layer4" />
  <g
     transform="translate(510,-1183.9814)"
     id="layer9" />
  <g
     transform="translate(510,-1183.9814)"
     id="layer10" />
  <g
     transform="translate(510,-1183.9814)"
     id="layer6" />
</svg>
