<?xml version="1.0" encoding="UTF-8" standalone="no"?>
<!-- Created with Inkscape (http://www.inkscape.org/) -->
<svg
   xmlns:svg="http://www.w3.org/2000/svg"
   xmlns="http://www.w3.org/2000/svg"
   version="1.0"
   width="24.00001"
   height="24"
   id="svg7384">
  <title
     id="title9167">Moblin Icon Theme</title>
  <defs
     id="defs7386" />
  <g
     transform="translate(510,-1133.9814)"
     id="layer3" />
  <g
     transform="translate(510,-1133.9814)"
     id="layer5" />
  <g
     transform="translate(510,-1133.9814)"
     id="layer7" />
  <g
     transform="translate(510,-1133.9814)"
     id="layer2" />
  <g
     transform="translate(510,-1133.9814)"
     id="layer8" />
  <g
     transform="translate(510,-2086.3436)"
     id="layer1" />
  <g
     transform="translate(510,-1133.9814)"
     id="layer11">
    <rect
       width="24"
       height="24"
       x="-510"
       y="1133.9814"
       id="rect9889"
       style="opacity:0;fill:#ffffff;fill-opacity:1;stroke:none;display:inline" />
    <path
       d="M -509.0625,1134 C -509.56546,1134.0634 -509.94143,1134.4931 -509.9375,1135 L -509.9375,1138.9375 L -509.9375,1139.9375 L -507.9375,1139.9375 L -507.9375,1138.9375 L -507.9375,1136 L -488,1136 L -488,1139.0312 L -488,1140.0312 L -486,1140.0312 L -486,1139.0312 L -486,1135 C -486.00006,1134.4477 -486.44774,1134.0001 -487,1134 L -508.9375,1134 C -508.97913,1133.9974 -509.02087,1133.9974 -509.0625,1134 z"
       id="path9893"
       style="fill:#bebebe;fill-opacity:1;stroke:none;stroke-width:2;stroke-linecap:square;stroke-linejoin:round;marker:none;stroke-miterlimit:4;stroke-dasharray:none;stroke-dashoffset:0;stroke-opacity:1;visibility:visible;display:inline;overflow:visible;enable-background:accumulate" />
    <path
       d="M -508.25,1142 C -509.2022,1142 -510,1142.7978 -510,1143.75 L -510,1146.25 C -510,1147.2022 -509.2022,1148 -508.25,1148 L -497.75,1148 C -496.7978,1148 -496,1147.2022 -496,1146.25 L -496,1143.75 C -496,1142.7978 -496.7978,1142 -497.75,1142 L -508.25,1142 z M -508,1144 L -498,1144 L -498,1146 L -508,1146 L -508,1144 z"
       id="rect9895"
       style="fill:#bebebe;fill-opacity:1;stroke:none;stroke-width:2;stroke-linecap:square;stroke-linejoin:round;marker:none;stroke-miterlimit:4;stroke-dasharray:none;stroke-dashoffset:0;stroke-opacity:1;visibility:visible;display:inline;overflow:visible;enable-background:accumulate" />
    <path
       d="M -498.25,1150 C -499.2022,1150 -500,1150.7978 -500,1151.75 L -500,1154.25 C -500,1155.2022 -499.2022,1156 -498.25,1156 L -487.75,1156 C -486.7978,1156 -486,1155.2022 -486,1154.25 L -486,1151.75 C -486,1150.7978 -486.7978,1150 -487.75,1150 L -498.25,1150 z M -498,1152 L -488,1152 L -488,1154 L -498,1154 L -498,1152 z"
       id="rect9897"
       style="fill:#bebebe;fill-opacity:1;stroke:none;stroke-width:2;stroke-linecap:square;stroke-linejoin:round;marker:none;stroke-miterlimit:4;stroke-dasharray:none;stroke-dashoffset:0;stroke-opacity:1;visibility:visible;display:inline;overflow:visible;enable-background:accumulate" />
  </g>
  <g
     transform="translate(510,-1133.9814)"
     id="layer4" />
  <g
     transform="translate(510,-1133.9814)"
     id="layer12" />
  <g
     transform="translate(510,-1133.9814)"
     id="layer9" />
  <g
     transform="translate(510,-1133.9814)"
     id="layer10" />
  <g
     transform="translate(510,-1133.9814)"
     id="layer6" />
</svg>
