<?xml version="1.0" encoding="UTF-8" standalone="no"?>
<!-- Created with Inkscape (http://www.inkscape.org/) -->
<svg
   xmlns:svg="http://www.w3.org/2000/svg"
   xmlns="http://www.w3.org/2000/svg"
   version="1.0"
   width="24"
   height="24.004457"
   id="svg7384">
  <title
     id="title9167">Moblin Icon Theme</title>
  <defs
     id="defs7386" />
  <g
     transform="translate(538,-1253.9976)"
     id="layer3" />
  <g
     transform="translate(538,-1253.9976)"
     id="layer5" />
  <g
     transform="translate(538,-1253.9976)"
     id="layer7" />
  <g
     transform="translate(538,-1253.9976)"
     id="layer2" />
  <g
     transform="translate(538,-1253.9976)"
     id="layer8" />
  <g
     transform="translate(538,-2206.3598)"
     id="layer1" />
  <g
     transform="translate(538,-1253.9976)"
     id="layer11">
    <rect
       width="24"
       height="24"
       x="-538"
       y="1254"
       id="rect11466"
       style="opacity:0;fill:#ffffff;fill-opacity:1;stroke:none;display:inline" />
    <path
       d="M -522.61533,1277.5072 C -528.95507,1279.389 -535.62618,1275.7239 -537.50753,1269.3842 C -537.5267,1269.2723 -537.5267,1269.1581 -537.50753,1269.0463 C -537.51233,1268.9899 -537.51233,1268.9332 -537.50753,1268.8768 C -537.51233,1268.8204 -537.51233,1268.7636 -537.50753,1268.7073 C -537.45808,1268.6444 -537.40126,1268.5876 -537.3383,1268.5383 C -537.28885,1268.4754 -537.23203,1268.4187 -537.16907,1268.3693 C -537.06807,1268.2918 -536.95319,1268.2343 -536.83061,1268.1998 C -536.7743,1268.1951 -536.71769,1268.1951 -536.66138,1268.1998 C -536.60507,1268.1951 -536.54846,1268.1951 -536.49215,1268.1998 C -536.38015,1268.1806 -536.26569,1268.1806 -536.15369,1268.1998 C -536.03111,1268.2343 -535.91623,1268.2918 -535.81523,1268.3693 C -535.73786,1268.4702 -535.68043,1268.5849 -535.646,1268.7073 C -535.64121,1268.7636 -535.64121,1268.8204 -535.646,1268.8768 C -534.07252,1274.1789 -528.4254,1277.2196 -523.12302,1275.6459 C -519.64977,1274.6154 -517.29469,1272.0371 -516.35383,1268.5383 C -516.31947,1268.4157 -516.26204,1268.3009 -516.1846,1268.1998 C -516.13519,1268.1368 -516.07837,1268.0799 -516.01537,1268.0303 C -515.91433,1267.953 -515.79945,1267.8956 -515.67691,1267.8614 C -515.56491,1267.8421 -515.45046,1267.8421 -515.33845,1267.8614 C -515.28215,1267.8566 -515.22553,1267.8566 -515.16923,1267.8614 C -515.04668,1267.8956 -514.93181,1267.953 -514.83077,1268.0303 C -514.76777,1268.0799 -514.71095,1268.1368 -514.66154,1268.1998 C -514.5841,1268.3009 -514.52666,1268.4157 -514.49231,1268.5383 C -514.42934,1268.5876 -514.37253,1268.6444 -514.32308,1268.7073 C -514.31828,1268.7636 -514.31828,1268.8204 -514.32308,1268.8768 C -514.37249,1268.9398 -514.42931,1268.9967 -514.49231,1269.0463 C -515.59845,1273.1597 -518.53161,1276.2958 -522.61533,1277.5072 z"
       id="path11472"
       style="fill:#bebebe;fill-opacity:1;stroke:none;stroke-width:0.36932078;stroke-linecap:round;marker:none;stroke-miterlimit:4.30000019;stroke-dasharray:none;stroke-opacity:1;visibility:visible;display:inline;overflow:visible;enable-background:accumulate" />
    <path
       d="M -536,1262 L -536,1263 L -536,1269 L -536,1270 L -535,1270 L -517,1270 L -516,1270 L -516,1269 L -516,1263 L -516,1262 L -517,1262 L -535,1262 L -536,1262 z M -534,1264 L -518,1264 L -518,1268 L -534,1268 L -534,1264 z"
       id="rect11476"
       style="fill:#bebebe;fill-opacity:1;stroke:none;stroke-width:2.00000048;stroke-linecap:butt;stroke-linejoin:miter;marker:none;stroke-miterlimit:4.30000019;stroke-dasharray:none;stroke-dashoffset:0;stroke-opacity:1;visibility:visible;display:inline;overflow:visible;enable-background:accumulate" />
    <path
       d="M -536.83061,1264.1383 C -536.89361,1264.0888 -536.95042,1264.0319 -536.99984,1263.9688 C -537.22603,1263.8683 -537.40692,1263.6875 -537.50753,1263.4614 C -537.51233,1263.405 -537.51233,1263.3483 -537.50753,1263.2919 C -537.57049,1263.2426 -537.62731,1263.1858 -537.67676,1263.1229 C -537.6424,1263.0004 -537.58496,1262.8855 -537.50753,1262.7845 C -536.36143,1258.6472 -533.3493,1255.6503 -529.21528,1254.492 C -522.84721,1252.7092 -516.27553,1256.4166 -514.49231,1262.7845 C -514.44869,1262.9508 -514.44869,1263.1256 -514.49231,1263.2919 C -514.48751,1263.3483 -514.48751,1263.405 -514.49231,1263.4614 C -514.54172,1263.5245 -514.59854,1263.5814 -514.66154,1263.6309 C -514.74537,1263.7693 -514.86151,1263.8852 -515,1263.9688 C -515.0563,1263.9736 -515.11292,1263.9736 -515.16923,1263.9688 C -515.28123,1263.9881 -515.39568,1263.9881 -515.50768,1263.9688 C -515.56399,1263.9736 -515.62061,1263.9736 -515.67691,1263.9688 C -515.73322,1263.9736 -515.78983,1263.9736 -515.84614,1263.9688 C -515.90911,1263.9195 -515.96592,1263.8627 -516.01537,1263.7999 C -516.07834,1263.7505 -516.13515,1263.6938 -516.1846,1263.6309 C -516.2621,1263.5297 -516.31954,1263.4147 -516.35383,1263.2919 C -517.84522,1257.9659 -523.3816,1254.8624 -528.70759,1256.3538 C -532.22323,1257.3383 -534.6714,1259.7741 -535.646,1263.2919 C -535.64121,1263.3483 -535.64121,1263.405 -535.646,1263.4614 C -535.69542,1263.5245 -535.75224,1263.5814 -535.81523,1263.6309 C -535.89906,1263.7693 -536.0152,1263.8852 -536.15369,1263.9688 C -536.30438,1264.0704 -536.4799,1264.129 -536.66138,1264.1383 C -536.71769,1264.1431 -536.7743,1264.1431 -536.83061,1264.1383 z"
       id="path11478"
       style="fill:#bebebe;fill-opacity:1;stroke:none;stroke-width:0.36932078;stroke-linecap:round;marker:none;stroke-miterlimit:4.30000019;stroke-dasharray:none;stroke-opacity:1;visibility:visible;display:inline;overflow:visible;enable-background:accumulate" />
    <path
       d="M -529.9375,1315.9375 A 1,1 0 1 1 -531.9375,1315.9375 A 1,1 0 1 1 -529.9375,1315.9375 z"
       transform="translate(0,-50)"
       id="path11480"
       style="fill:#bebebe;fill-opacity:1;stroke:none;stroke-width:2;marker:none;visibility:visible;display:inline;overflow:visible;enable-background:accumulate" />
    <path
       d="M -529.9375,1315.9375 A 1,1 0 1 1 -531.9375,1315.9375 A 1,1 0 1 1 -529.9375,1315.9375 z"
       transform="translate(4.9375,-50)"
       id="path11482"
       style="fill:#bebebe;fill-opacity:1;stroke:none;stroke-width:2;marker:none;visibility:visible;display:inline;overflow:visible;enable-background:accumulate" />
    <path
       d="M -529.9375,1315.9375 A 1,1 0 1 1 -531.9375,1315.9375 A 1,1 0 1 1 -529.9375,1315.9375 z"
       transform="translate(9.9375,-50)"
       id="path11484"
       style="fill:#bebebe;fill-opacity:1;stroke:none;stroke-width:2;marker:none;visibility:visible;display:inline;overflow:visible;enable-background:accumulate" />
  </g>
  <g
     transform="translate(538,-1253.9976)"
     id="layer4" />
  <g
     transform="translate(538,-1253.9976)"
     id="layer12" />
  <g
     transform="translate(538,-1253.9976)"
     id="layer9" />
  <g
     transform="translate(538,-1253.9976)"
     id="layer10" />
  <g
     transform="translate(538,-1253.9976)"
     id="layer6" />
</svg>
