<?xml version="1.0" encoding="UTF-8" standalone="no"?>
<!-- Created with Inkscape (http://www.inkscape.org/) -->
<svg
   xmlns:svg="http://www.w3.org/2000/svg"
   xmlns="http://www.w3.org/2000/svg"
   version="1.0"
   width="24.05802"
   height="24.100401"
   id="svg7384">
  <title
     id="title9167">Moblin Icon Theme</title>
  <defs
     id="defs7386" />
  <g
     transform="translate(592.058,-1104)"
     id="layer3" />
  <g
     transform="translate(592.058,-1104)"
     id="layer5" />
  <g
     transform="translate(592.058,-1104)"
     id="layer7" />
  <g
     transform="translate(592.058,-1104)"
     id="layer2" />
  <g
     transform="translate(592.058,-1104)"
     id="layer8" />
  <g
     transform="translate(592.058,-2056.3622)"
     id="layer1" />
  <g
     transform="translate(592.058,-1104)"
     id="layer11">
    <rect
       width="24"
       height="24"
       x="-592.05798"
       y="1104.0818"
       id="rect9451"
       style="opacity:0;fill:#ffffff;fill-opacity:1;stroke:none;display:inline" />
    <path
       d="M -588,1110 C -590.1987,1110 -592.00003,1111.8013 -592,1114 L -592,1124.0938 C -592,1126.2925 -590.19874,1128.0938 -588,1128.0938 L -572,1128.0938 C -569.8013,1128.0938 -567.99997,1126.2925 -568,1124.0938 L -568,1118.0625 C -567.9949,1117.7019 -568.18438,1117.3664 -568.49587,1117.1846 C -568.80737,1117.0028 -569.19263,1117.0028 -569.50413,1117.1846 C -569.81562,1117.3664 -570.0051,1117.7019 -570,1118.0625 L -570,1124.0938 C -569.99999,1125.2191 -570.8747,1126.0938 -572,1126.0938 L -588,1126.0938 C -589.1253,1126.0938 -590,1125.219 -590,1124.0938 L -590,1114 C -590.00001,1112.8747 -589.1253,1112 -588,1112 L -582,1112 C -581.63936,1112.0051 -581.30392,1111.8156 -581.12211,1111.5041 C -580.94031,1111.1926 -580.94031,1110.8074 -581.12211,1110.4959 C -581.30392,1110.1844 -581.63936,1109.9949 -582,1110 L -588,1110 z"
       id="rect9454"
       style="fill:#bebebe;fill-opacity:1;stroke:none;stroke-width:2;stroke-linecap:round;stroke-linejoin:miter;marker:none;stroke-miterlimit:4;stroke-dashoffset:0;stroke-opacity:1;visibility:visible;display:inline;overflow:visible;enable-background:accumulate" />
    <rect
       width="2.0625"
       height="2.0625"
       x="-584"
       y="1113.9375"
       id="rect9466"
       style="fill:#bebebe;fill-opacity:1;stroke:none;stroke-width:2;marker:none;visibility:visible;display:inline;overflow:visible;enable-background:accumulate" />
    <rect
       width="2.0625"
       height="2.0625"
       x="-584"
       y="1117.9375"
       id="rect9468"
       style="fill:#bebebe;fill-opacity:1;stroke:none;stroke-width:2;marker:none;visibility:visible;display:inline;overflow:visible;enable-background:accumulate" />
    <rect
       width="2.0625"
       height="2.0625"
       x="-588.0625"
       y="1117.9375"
       id="rect9470"
       style="fill:#bebebe;fill-opacity:1;stroke:none;stroke-width:2;marker:none;visibility:visible;display:inline;overflow:visible;enable-background:accumulate" />
    <rect
       width="2.0625"
       height="2.0625"
       x="-588.0625"
       y="1122"
       id="rect9472"
       style="fill:#bebebe;fill-opacity:1;stroke:none;stroke-width:2;marker:none;visibility:visible;display:inline;overflow:visible;enable-background:accumulate" />
    <path
       d="M -576,1104 C -578.1987,1104 -580,1105.8013 -580,1108 L -580,1112 C -580,1114.1987 -578.1987,1116 -576,1116 L -576,1119.125 L -576,1122.3438 L -574.1875,1119.6875 L -571.59375,1115.9062 C -569.59299,1115.6917 -568,1114.0549 -568,1112 L -568,1108 C -568,1105.8013 -569.8013,1104 -572,1104 L -576,1104 z M -576,1106 L -572,1106 C -570.8747,1106 -570,1106.8747 -570,1108 L -570,1112 C -570,1113.1253 -570.8747,1114 -572,1114 L -572.15625,1114 L -572.6875,1114 L -572.96875,1114.4375 L -574,1115.9375 L -574,1115 L -574,1114 L -575,1114 L -576,1114 C -577.1253,1114 -578,1113.1253 -578,1112 L -578,1108 C -578,1106.8747 -577.1253,1106 -576,1106 z"
       id="rect9474"
       style="fill:#bebebe;fill-opacity:1;stroke:none;stroke-width:2;stroke-linecap:butt;stroke-linejoin:miter;marker:none;stroke-miterlimit:4;stroke-dasharray:none;stroke-dashoffset:0;stroke-opacity:1;visibility:visible;display:inline;overflow:visible;enable-background:accumulate" />
  </g>
  <g
     transform="translate(592.058,-1104)"
     id="layer4" />
  <g
     transform="translate(592.058,-1104)"
     id="layer12" />
  <g
     transform="translate(592.058,-1104)"
     id="layer9" />
  <g
     transform="translate(592.058,-1104)"
     id="layer10" />
  <g
     transform="translate(592.058,-1104)"
     id="layer6" />
</svg>
