<?xml version="1.0" encoding="UTF-8" standalone="no"?>
<!-- Created with Inkscape (http://www.inkscape.org/) -->
<svg
   xmlns:svg="http://www.w3.org/2000/svg"
   xmlns="http://www.w3.org/2000/svg"
   version="1.0"
   width="24.05802"
   height="24.100401"
   id="svg7384">
  <title
     id="title9167">Moblin Icon Theme</title>
  <defs
     id="defs7386" />
  <g
     transform="translate(592.058,-1154)"
     id="layer3" />
  <g
     transform="translate(592.058,-1154)"
     id="layer5" />
  <g
     transform="translate(592.058,-1154)"
     id="layer7" />
  <g
     transform="translate(592.058,-1154)"
     id="layer2" />
  <g
     transform="translate(592.058,-1154)"
     id="layer8" />
  <g
     transform="translate(592.058,-2106.3622)"
     id="layer1" />
  <g
     transform="translate(592.058,-1154)"
     id="layer11">
    <rect
       width="24"
       height="24"
       x="-592.05798"
       y="1154.0818"
       id="rect9451"
       style="opacity:0;fill:#ffffff;fill-opacity:1;stroke:none;display:inline" />
    <path
       d="M -588,1160 C -590.1987,1160 -592.00003,1161.8013 -592,1164 L -592,1174.0938 C -592,1176.2925 -590.19874,1178.0938 -588,1178.0938 L -572,1178.0938 C -569.8013,1178.0938 -567.99997,1176.2925 -568,1174.0938 L -568,1168.0625 C -567.9949,1167.7019 -568.18438,1167.3664 -568.49587,1167.1846 C -568.80737,1167.0028 -569.19263,1167.0028 -569.50413,1167.1846 C -569.81562,1167.3664 -570.0051,1167.7019 -570,1168.0625 L -570,1174.0938 C -569.99999,1175.2191 -570.8747,1176.0938 -572,1176.0938 L -588,1176.0938 C -589.1253,1176.0938 -590,1175.219 -590,1174.0938 L -590,1164 C -590.00001,1162.8747 -589.1253,1162 -588,1162 L -582,1162 C -581.63936,1162.0051 -581.30392,1161.8156 -581.12211,1161.5041 C -580.94031,1161.1926 -580.94031,1160.8074 -581.12211,1160.4959 C -581.30392,1160.1844 -581.63936,1159.9949 -582,1160 L -588,1160 z"
       id="rect9454"
       style="fill:#bebebe;fill-opacity:1;stroke:none;stroke-width:2;stroke-linecap:round;stroke-linejoin:miter;marker:none;stroke-miterlimit:4;stroke-dashoffset:0;stroke-opacity:1;visibility:visible;display:inline;overflow:visible;enable-background:accumulate" />
    <rect
       width="2.0625"
       height="2.0625"
       x="-584"
       y="1163.9375"
       id="rect9466"
       style="fill:#bebebe;fill-opacity:1;stroke:none;stroke-width:2;marker:none;visibility:visible;display:inline;overflow:visible;enable-background:accumulate" />
    <rect
       width="2.0625"
       height="2.0625"
       x="-584"
       y="1167.9375"
       id="rect9468"
       style="fill:#bebebe;fill-opacity:1;stroke:none;stroke-width:2;marker:none;visibility:visible;display:inline;overflow:visible;enable-background:accumulate" />
    <rect
       width="2.0625"
       height="2.0625"
       x="-588.0625"
       y="1167.9375"
       id="rect9470"
       style="fill:#bebebe;fill-opacity:1;stroke:none;stroke-width:2;marker:none;visibility:visible;display:inline;overflow:visible;enable-background:accumulate" />
    <rect
       width="2.0625"
       height="2.0625"
       x="-588.0625"
       y="1172"
       id="rect9472"
       style="fill:#bebebe;fill-opacity:1;stroke:none;stroke-width:2;marker:none;visibility:visible;display:inline;overflow:visible;enable-background:accumulate" />
    <path
       d="M -576,1154 C -578.1987,1154 -580,1155.8013 -580,1158 L -580,1162 C -580,1164.1987 -578.1987,1166 -576,1166 L -576,1169.125 L -576,1172.3438 L -574.1875,1169.6875 L -571.59375,1165.9062 C -569.59299,1165.6917 -568,1164.0549 -568,1162 L -568,1158 C -568,1155.8013 -569.8013,1154 -572,1154 L -576,1154 z M -576,1156 L -572,1156 C -570.8747,1156 -570,1156.8747 -570,1158 L -570,1162 C -570,1163.1253 -570.8747,1164 -572,1164 L -572.15625,1164 L -572.6875,1164 L -572.96875,1164.4375 L -574,1165.9375 L -574,1165 L -574,1164 L -575,1164 L -576,1164 C -577.1253,1164 -578,1163.1253 -578,1162 L -578,1158 C -578,1156.8747 -577.1253,1156 -576,1156 z"
       id="rect9474"
       style="fill:#bebebe;fill-opacity:1;stroke:none;stroke-width:2;stroke-linecap:butt;stroke-linejoin:miter;marker:none;stroke-miterlimit:4;stroke-dasharray:none;stroke-dashoffset:0;stroke-opacity:1;visibility:visible;display:inline;overflow:visible;enable-background:accumulate" />
  </g>
  <g
     transform="translate(592.058,-1154)"
     id="layer4" />
  <g
     transform="translate(592.058,-1154)"
     id="layer9" />
  <g
     transform="translate(592.058,-1154)"
     id="layer10" />
  <g
     transform="translate(592.058,-1154)"
     id="layer6" />
</svg>
