<?xml version="1.0" encoding="UTF-8" standalone="no"?>
<!-- Created with Inkscape (http://www.inkscape.org/) -->
<svg
   xmlns:svg="http://www.w3.org/2000/svg"
   xmlns="http://www.w3.org/2000/svg"
   version="1.0"
   width="24"
   height="24"
   id="svg7384">
  <title
     id="title9167">Moblin Icon Theme</title>
  <defs
     id="defs7386" />
  <g
     transform="translate(566,-1133.9814)"
     id="layer3" />
  <g
     transform="translate(566,-1133.9814)"
     id="layer5" />
  <g
     transform="translate(566,-1133.9814)"
     id="layer7" />
  <g
     transform="translate(566,-1133.9814)"
     id="layer2" />
  <g
     transform="translate(566,-1133.9814)"
     id="layer8" />
  <g
     transform="translate(566,-2086.3436)"
     id="layer1" />
  <g
     transform="translate(566,-1133.9814)"
     id="layer11">
    <rect
       width="24"
       height="24"
       x="-566"
       y="1133.9814"
       id="rect9838"
       style="opacity:0;fill:#ffffff;fill-opacity:1;stroke:none;display:inline" />
    <path
       d="M -553.99996,1136.1001 C -556.09909,1136.1001 -557.98965,1136.4518 -559.46872,1137.0857 C -560.94779,1137.7196 -562.14841,1138.734 -562.14841,1140 C -562.14841,1141.266 -560.94779,1142.2804 -559.46872,1142.9143 C -557.98965,1143.5482 -556.09909,1143.8999 -553.99996,1143.8999 C -551.90083,1143.8999 -550.01027,1143.5482 -548.5312,1142.9143 C -547.05214,1142.2804 -545.85151,1141.266 -545.85151,1140 C -545.85151,1138.734 -547.05214,1137.7196 -548.5312,1137.0857 C -550.01027,1136.4518 -551.90083,1136.1001 -553.99996,1136.1001 z M -553.99996,1137.8999 C -552.23508,1137.8999 -550.6252,1138.2193 -549.57027,1138.6715 C -548.51533,1139.1235 -548.14839,1139.61 -548.14839,1140 C -548.14839,1140.39 -548.51533,1140.8765 -549.57027,1141.3285 C -550.6252,1141.7807 -552.23508,1142.1001 -553.99996,1142.1001 C -555.76484,1142.1001 -557.37472,1141.7807 -558.42966,1141.3285 C -559.48459,1140.8765 -559.85153,1140.39 -559.85153,1140 C -559.85153,1139.61 -559.48459,1139.1235 -558.42966,1138.6715 C -557.37472,1138.2193 -555.76484,1137.8999 -553.99996,1137.8999 z"
       id="path9858"
       style="fill:#bebebe;fill-opacity:1;stroke:none;stroke-width:1.29099345;marker:none;stroke-miterlimit:4;stroke-dasharray:none;stroke-opacity:1;visibility:visible;display:inline;overflow:visible;enable-background:accumulate" />
    <path
       d="M -562.14841,1143.9999 C -562.14841,1145.2659 -560.94779,1146.2803 -559.46872,1146.9142 C -557.98965,1147.5481 -556.09909,1147.8998 -553.99996,1147.8998 C -551.90083,1147.8998 -550.01027,1147.5481 -548.5312,1146.9142 C -547.05214,1146.2803 -545.85151,1145.2659 -545.85151,1143.9999 L -548.14839,1143.9999 C -548.14839,1144.3899 -548.51533,1144.8764 -549.57027,1145.3284 C -550.6252,1145.7806 -552.23508,1146.1 -553.99996,1146.1 C -555.76484,1146.1 -557.37472,1145.7806 -558.42966,1145.3284 C -559.48459,1144.8764 -559.85153,1144.3899 -559.85153,1143.9999 L -562.14841,1143.9999 z"
       id="path9860"
       style="fill:#bebebe;fill-opacity:1;stroke:none;stroke-width:1.29099345;marker:none;stroke-miterlimit:4;stroke-dasharray:none;stroke-opacity:1;visibility:visible;display:inline;overflow:visible;enable-background:accumulate" />
    <path
       d="M -562.14841,1147.9999 C -562.14841,1149.2659 -560.94779,1150.2803 -559.46872,1150.9142 C -557.98965,1151.5481 -556.09909,1151.8998 -553.99996,1151.8998 C -551.90083,1151.8998 -550.01027,1151.5481 -548.5312,1150.9142 C -547.05214,1150.2803 -545.85151,1149.2659 -545.85151,1147.9999 L -548.14839,1147.9999 C -548.14839,1148.3899 -548.51533,1148.8764 -549.57027,1149.3284 C -550.6252,1149.7806 -552.23508,1150.1 -553.99996,1150.1 C -555.76484,1150.1 -557.37472,1149.7806 -558.42966,1149.3284 C -559.48459,1148.8764 -559.85153,1148.3899 -559.85153,1147.9999 L -562.14841,1147.9999 z"
       id="path9862"
       style="fill:#bebebe;fill-opacity:1;stroke:none;stroke-width:1.29099345;marker:none;stroke-miterlimit:4;stroke-dasharray:none;stroke-opacity:1;visibility:visible;display:inline;overflow:visible;enable-background:accumulate" />
    <path
       d="M -562.14841,1151.9999 C -562.14841,1153.2659 -560.94779,1154.2803 -559.46872,1154.9142 C -557.98965,1155.5481 -556.09909,1155.8998 -553.99996,1155.8998 C -551.90083,1155.8998 -550.01027,1155.5481 -548.5312,1154.9142 C -547.05214,1154.2803 -545.85151,1153.2659 -545.85151,1151.9999 L -548.14839,1151.9999 C -548.14839,1152.3899 -548.51533,1152.8764 -549.57027,1153.3284 C -550.6252,1153.7806 -552.23508,1154.1 -553.99996,1154.1 C -555.76484,1154.1 -557.37472,1153.7806 -558.42966,1153.3284 C -559.48459,1152.8764 -559.85153,1152.3899 -559.85153,1151.9999 L -562.14841,1151.9999 z"
       id="path9864"
       style="fill:#bebebe;fill-opacity:1;stroke:none;stroke-width:1.29099345;marker:none;stroke-miterlimit:4;stroke-dasharray:none;stroke-opacity:1;visibility:visible;display:inline;overflow:visible;enable-background:accumulate" />
  </g>
  <g
     transform="translate(566,-1133.9814)"
     id="layer4" />
  <g
     transform="translate(566,-1133.9814)"
     id="layer12" />
  <g
     transform="translate(566,-1133.9814)"
     id="layer9" />
  <g
     transform="translate(566,-1133.9814)"
     id="layer10" />
  <g
     transform="translate(566,-1133.9814)"
     id="layer6" />
</svg>
