<?xml version="1.0" encoding="UTF-8" standalone="no"?>
<!-- Created with Inkscape (http://www.inkscape.org/) -->
<svg
   xmlns:svg="http://www.w3.org/2000/svg"
   xmlns="http://www.w3.org/2000/svg"
   version="1.0"
   width="24"
   height="24"
   id="svg7384">
  <title
     id="title9167">Moblin Icon Theme</title>
  <defs
     id="defs7386" />
  <g
     transform="translate(566,-1183.9814)"
     id="layer3" />
  <g
     transform="translate(566,-1183.9814)"
     id="layer5" />
  <g
     transform="translate(566,-1183.9814)"
     id="layer7" />
  <g
     transform="translate(566,-1183.9814)"
     id="layer2" />
  <g
     transform="translate(566,-1183.9814)"
     id="layer8" />
  <g
     transform="translate(566,-2136.3436)"
     id="layer1" />
  <g
     transform="translate(566,-1183.9814)"
     id="layer11">
    <rect
       width="24"
       height="24"
       x="-566"
       y="1183.9814"
       id="rect9838"
       style="opacity:0;fill:#ffffff;fill-opacity:1;stroke:none;display:inline" />
    <path
       d="M -553.99996,1186.1001 C -556.09909,1186.1001 -557.98965,1186.4518 -559.46872,1187.0857 C -560.94779,1187.7196 -562.14841,1188.734 -562.14841,1190 C -562.14841,1191.266 -560.94779,1192.2804 -559.46872,1192.9143 C -557.98965,1193.5482 -556.09909,1193.8999 -553.99996,1193.8999 C -551.90083,1193.8999 -550.01027,1193.5482 -548.5312,1192.9143 C -547.05214,1192.2804 -545.85151,1191.266 -545.85151,1190 C -545.85151,1188.734 -547.05214,1187.7196 -548.5312,1187.0857 C -550.01027,1186.4518 -551.90083,1186.1001 -553.99996,1186.1001 z M -553.99996,1187.8999 C -552.23508,1187.8999 -550.6252,1188.2193 -549.57027,1188.6715 C -548.51533,1189.1235 -548.14839,1189.61 -548.14839,1190 C -548.14839,1190.39 -548.51533,1190.8765 -549.57027,1191.3285 C -550.6252,1191.7807 -552.23508,1192.1001 -553.99996,1192.1001 C -555.76484,1192.1001 -557.37472,1191.7807 -558.42966,1191.3285 C -559.48459,1190.8765 -559.85153,1190.39 -559.85153,1190 C -559.85153,1189.61 -559.48459,1189.1235 -558.42966,1188.6715 C -557.37472,1188.2193 -555.76484,1187.8999 -553.99996,1187.8999 z"
       id="path9858"
       style="fill:#bebebe;fill-opacity:1;stroke:none;stroke-width:1.29099345;marker:none;stroke-miterlimit:4;stroke-dasharray:none;stroke-opacity:1;visibility:visible;display:inline;overflow:visible;enable-background:accumulate" />
    <path
       d="M -562.14841,1193.9999 C -562.14841,1195.2659 -560.94779,1196.2803 -559.46872,1196.9142 C -557.98965,1197.5481 -556.09909,1197.8998 -553.99996,1197.8998 C -551.90083,1197.8998 -550.01027,1197.5481 -548.5312,1196.9142 C -547.05214,1196.2803 -545.85151,1195.2659 -545.85151,1193.9999 L -548.14839,1193.9999 C -548.14839,1194.3899 -548.51533,1194.8764 -549.57027,1195.3284 C -550.6252,1195.7806 -552.23508,1196.1 -553.99996,1196.1 C -555.76484,1196.1 -557.37472,1195.7806 -558.42966,1195.3284 C -559.48459,1194.8764 -559.85153,1194.3899 -559.85153,1193.9999 L -562.14841,1193.9999 z"
       id="path9860"
       style="fill:#bebebe;fill-opacity:1;stroke:none;stroke-width:1.29099345;marker:none;stroke-miterlimit:4;stroke-dasharray:none;stroke-opacity:1;visibility:visible;display:inline;overflow:visible;enable-background:accumulate" />
    <path
       d="M -562.14841,1197.9999 C -562.14841,1199.2659 -560.94779,1200.2803 -559.46872,1200.9142 C -557.98965,1201.5481 -556.09909,1201.8998 -553.99996,1201.8998 C -551.90083,1201.8998 -550.01027,1201.5481 -548.5312,1200.9142 C -547.05214,1200.2803 -545.85151,1199.2659 -545.85151,1197.9999 L -548.14839,1197.9999 C -548.14839,1198.3899 -548.51533,1198.8764 -549.57027,1199.3284 C -550.6252,1199.7806 -552.23508,1200.1 -553.99996,1200.1 C -555.76484,1200.1 -557.37472,1199.7806 -558.42966,1199.3284 C -559.48459,1198.8764 -559.85153,1198.3899 -559.85153,1197.9999 L -562.14841,1197.9999 z"
       id="path9862"
       style="fill:#bebebe;fill-opacity:1;stroke:none;stroke-width:1.29099345;marker:none;stroke-miterlimit:4;stroke-dasharray:none;stroke-opacity:1;visibility:visible;display:inline;overflow:visible;enable-background:accumulate" />
    <path
       d="M -562.14841,1201.9999 C -562.14841,1203.2659 -560.94779,1204.2803 -559.46872,1204.9142 C -557.98965,1205.5481 -556.09909,1205.8998 -553.99996,1205.8998 C -551.90083,1205.8998 -550.01027,1205.5481 -548.5312,1204.9142 C -547.05214,1204.2803 -545.85151,1203.2659 -545.85151,1201.9999 L -548.14839,1201.9999 C -548.14839,1202.3899 -548.51533,1202.8764 -549.57027,1203.3284 C -550.6252,1203.7806 -552.23508,1204.1 -553.99996,1204.1 C -555.76484,1204.1 -557.37472,1203.7806 -558.42966,1203.3284 C -559.48459,1202.8764 -559.85153,1202.3899 -559.85153,1201.9999 L -562.14841,1201.9999 z"
       id="path9864"
       style="fill:#bebebe;fill-opacity:1;stroke:none;stroke-width:1.29099345;marker:none;stroke-miterlimit:4;stroke-dasharray:none;stroke-opacity:1;visibility:visible;display:inline;overflow:visible;enable-background:accumulate" />
  </g>
  <g
     transform="translate(566,-1183.9814)"
     id="layer4" />
  <g
     transform="translate(566,-1183.9814)"
     id="layer9" />
  <g
     transform="translate(566,-1183.9814)"
     id="layer10" />
  <g
     transform="translate(566,-1183.9814)"
     id="layer6" />
</svg>
