<?xml version="1.0" encoding="UTF-8" standalone="no"?>
<!-- Created with Inkscape (http://www.inkscape.org/) -->
<svg
   xmlns:svg="http://www.w3.org/2000/svg"
   xmlns="http://www.w3.org/2000/svg"
   version="1.0"
   width="24"
   height="24.081818"
   id="svg7384">
  <title
     id="title9167">Moblin Icon Theme</title>
  <defs
     id="defs7386" />
  <g
     transform="translate(618,-1074)"
     id="layer3" />
  <g
     transform="translate(618,-1074)"
     id="layer5" />
  <g
     transform="translate(618,-1074)"
     id="layer7" />
  <g
     transform="translate(618,-1074)"
     id="layer2" />
  <g
     transform="translate(618,-1074)"
     id="layer8" />
  <g
     transform="translate(618,-2026.3622)"
     id="layer1" />
  <g
     transform="translate(618,-1074)"
     id="layer11">
    <rect
       width="24"
       height="24"
       x="-618"
       y="1074.0818"
       id="rect10986-8"
       style="opacity:0;fill:#ffffff;fill-opacity:1;stroke:none;display:inline" />
    <path
       d="M -604.0625,1074 C -604.16039,1074.0171 -604.25518,1074.0487 -604.34375,1074.0938 C -604.34375,1074.0938 -614.3125,1078.375 -614.3125,1078.375 C -614.33369,1078.3847 -614.35454,1078.3951 -614.375,1078.4062 C -615.3411,1078.9049 -616,1079.9105 -616,1081.0625 L -616,1095.0625 C -616.00003,1096.7072 -614.6447,1098.0625 -613,1098.0625 L -599,1098.0625 C -597.35531,1098.0625 -596,1096.7072 -596,1095.0625 L -596,1083.125 C -596.00003,1081.4803 -597.3553,1080.125 -599,1080.125 L -611.0625,1080.125 C -611.42314,1080.1199 -611.75858,1080.3094 -611.94039,1080.6209 C -612.12219,1080.9324 -612.12219,1081.3176 -611.94039,1081.6291 C -611.75858,1081.9406 -611.42314,1082.1301 -611.0625,1082.125 L -599,1082.125 C -598.4287,1082.125 -598.00001,1082.5537 -598,1083.125 L -598,1095.0625 C -598,1095.6338 -598.42874,1096.0625 -599,1096.0625 L -613,1096.0625 C -613.5713,1096.0625 -614.00001,1095.6338 -614,1095.0625 L -614,1081.0625 C -614,1080.6623 -613.75725,1080.3525 -613.4375,1080.1875 C -613.3111,1080.1332 -603.53125,1075.9062 -603.53125,1075.9062 C -603.07793,1075.7048 -602.84072,1075.2016 -602.97389,1074.7237 C -603.10706,1074.2459 -603.57036,1073.9379 -604.0625,1074 z"
       id="rect11006-8"
       style="fill:#bebebe;fill-opacity:1;stroke:none;stroke-width:2;stroke-linecap:round;stroke-linejoin:round;marker:none;stroke-miterlimit:4;stroke-dashoffset:0;stroke-opacity:1;visibility:visible;display:inline;overflow:visible;enable-background:accumulate" />
    <rect
       width="2"
       height="2.9999924"
       rx="0"
       ry="0"
       x="-1084.0625"
       y="-607"
       transform="matrix(0,-1,1,0,0,0)"
       id="rect11050-8"
       style="fill:#bebebe;fill-opacity:1;stroke:none;display:inline" />
    <path
       d="M -608.0313,1086 L -608.0313,1088.0312 L -610.0625,1088.0312 L -610.0625,1092 L -608.0313,1092 L -608.0313,1094.0312 L -603.9688,1094.0312 L -603.9688,1092 L -602.0938,1092 L -602.0938,1088.0312 L -603.9688,1088.0312 L -603.9688,1086 L -608.0313,1086 z"
       id="rect7748"
       style="fill:#bebebe;fill-opacity:1;stroke:none;stroke-width:3;marker:none;visibility:visible;display:inline;overflow:visible;enable-background:accumulate" />
  </g>
  <g
     transform="translate(618,-1074)"
     id="layer4" />
  <g
     transform="translate(618,-1074)"
     id="layer12" />
  <g
     transform="translate(618,-1074)"
     id="layer9" />
  <g
     transform="translate(618,-1074)"
     id="layer10" />
  <g
     transform="translate(618,-1074)"
     id="layer6" />
</svg>
