<?xml version="1.0" encoding="UTF-8" standalone="no"?>
<!-- Created with Inkscape (http://www.inkscape.org/) -->
<svg
   xmlns:svg="http://www.w3.org/2000/svg"
   xmlns="http://www.w3.org/2000/svg"
   version="1.0"
   width="24"
   height="24.081818"
   id="svg7384">
  <title
     id="title9167">Moblin Icon Theme</title>
  <defs
     id="defs7386" />
  <g
     transform="translate(618,-1124)"
     id="layer3" />
  <g
     transform="translate(618,-1124)"
     id="layer5" />
  <g
     transform="translate(618,-1124)"
     id="layer7" />
  <g
     transform="translate(618,-1124)"
     id="layer2" />
  <g
     transform="translate(618,-1124)"
     id="layer8" />
  <g
     transform="translate(618,-2076.3622)"
     id="layer1" />
  <g
     transform="translate(618,-1124)"
     id="layer11">
    <rect
       width="24"
       height="24"
       x="-618"
       y="1124.0818"
       id="rect10986-8"
       style="opacity:0;fill:#ffffff;fill-opacity:1;stroke:none;display:inline" />
    <path
       d="M -604.0625,1124 C -604.16039,1124.0171 -604.25518,1124.0487 -604.34375,1124.0938 C -604.34375,1124.0938 -614.3125,1128.375 -614.3125,1128.375 C -614.33369,1128.3847 -614.35454,1128.3951 -614.375,1128.4062 C -615.3411,1128.9049 -616,1129.9105 -616,1131.0625 L -616,1145.0625 C -616.00003,1146.7072 -614.6447,1148.0625 -613,1148.0625 L -599,1148.0625 C -597.35531,1148.0625 -596,1146.7072 -596,1145.0625 L -596,1133.125 C -596.00003,1131.4803 -597.3553,1130.125 -599,1130.125 L -611.0625,1130.125 C -611.42314,1130.1199 -611.75858,1130.3094 -611.94039,1130.6209 C -612.12219,1130.9324 -612.12219,1131.3176 -611.94039,1131.6291 C -611.75858,1131.9406 -611.42314,1132.1301 -611.0625,1132.125 L -599,1132.125 C -598.4287,1132.125 -598.00001,1132.5537 -598,1133.125 L -598,1145.0625 C -598,1145.6338 -598.42874,1146.0625 -599,1146.0625 L -613,1146.0625 C -613.5713,1146.0625 -614.00001,1145.6338 -614,1145.0625 L -614,1131.0625 C -614,1130.6623 -613.75725,1130.3525 -613.4375,1130.1875 C -613.3111,1130.1332 -603.53125,1125.9062 -603.53125,1125.9062 C -603.07793,1125.7048 -602.84072,1125.2016 -602.97389,1124.7237 C -603.10706,1124.2459 -603.57036,1123.9379 -604.0625,1124 z"
       id="rect11006-8"
       style="fill:#bebebe;fill-opacity:1;stroke:none;stroke-width:2;stroke-linecap:round;stroke-linejoin:round;marker:none;stroke-miterlimit:4;stroke-dashoffset:0;stroke-opacity:1;visibility:visible;display:inline;overflow:visible;enable-background:accumulate" />
    <rect
       width="2"
       height="2.9999924"
       rx="0"
       ry="0"
       x="-1134.0625"
       y="-607"
       transform="matrix(0,-1,1,0,0,0)"
       id="rect11050-8"
       style="fill:#bebebe;fill-opacity:1;stroke:none;display:inline" />
    <path
       d="M -608.0313,1136 L -608.0313,1138.0312 L -610.0625,1138.0312 L -610.0625,1142 L -608.0313,1142 L -608.0313,1144.0312 L -603.9688,1144.0312 L -603.9688,1142 L -602.0938,1142 L -602.0938,1138.0312 L -603.9688,1138.0312 L -603.9688,1136 L -608.0313,1136 z"
       id="rect7748"
       style="fill:#bebebe;fill-opacity:1;stroke:none;stroke-width:3;marker:none;visibility:visible;display:inline;overflow:visible;enable-background:accumulate" />
  </g>
  <g
     transform="translate(618,-1124)"
     id="layer4" />
  <g
     transform="translate(618,-1124)"
     id="layer9" />
  <g
     transform="translate(618,-1124)"
     id="layer10" />
  <g
     transform="translate(618,-1124)"
     id="layer6" />
</svg>
