<?xml version="1.0" encoding="UTF-8" standalone="no"?>
<!-- Created with Inkscape (http://www.inkscape.org/) -->
<svg
   xmlns:svg="http://www.w3.org/2000/svg"
   xmlns="http://www.w3.org/2000/svg"
   version="1.0"
   width="24.000004"
   height="24"
   id="svg7384">
  <title
     id="title9167">Moblin Icon Theme</title>
  <defs
     id="defs7386" />
  <g
     transform="translate(453.99995,-928)"
     id="layer3" />
  <g
     transform="translate(453.99995,-928)"
     id="layer5" />
  <g
     transform="translate(453.99995,-928)"
     id="layer7" />
  <g
     transform="translate(453.99995,-928)"
     id="layer2" />
  <g
     transform="translate(453.99995,-928)"
     id="layer8" />
  <g
     transform="translate(453.99995,-1880.3622)"
     id="layer1" />
  <g
     transform="translate(453.99995,-928)"
     id="layer11">
    <rect
       width="24"
       height="24"
       x="-453.99994"
       y="928"
       id="rect14491"
       style="opacity:0;fill:#ffffff;fill-opacity:1;stroke:none;display:inline" />
    <path
       d="M -440.21875,930 C -440.77103,930.02589 -441.19776,930.49459 -441.17187,931.04687 C -441.14599,931.59916 -440.67728,932.02589 -440.125,932 L -432,932 L -432,950 C -433.67901,950 -446.32099,950 -448,950 L -448,946.9375 C -447.9949,946.57686 -448.18438,946.24142 -448.49587,946.05961 C -448.80737,945.87781 -449.19263,945.87781 -449.50413,946.05961 C -449.81562,946.24142 -450.0051,946.57686 -450,946.9375 L -450,951 C -449.99994,951.55226 -449.55226,951.99994 -449,952 C -449,952 -431,952 -431,952 C -430.44774,951.99994 -430.00006,951.55226 -430,951 L -430,931 C -430.00006,930.44774 -430.44774,930.00006 -431,930 L -440.125,930 C -440.15623,929.99853 -440.18752,929.99853 -440.21875,930 z"
       id="path14523"
       style="fill:#bebebe;fill-opacity:1;stroke:none;stroke-width:2;stroke-linecap:round;stroke-linejoin:round;stroke-miterlimit:4;stroke-dasharray:none;stroke-opacity:1" />
    <path
       d="M -439.99995,932.00006 L -431.56245,932.00006 L -431.56245,934.00006 L -439.06245,934.00006 C -439.26827,933.30672 -439.18262,932.54052 -439.99995,932.00006 z"
       id="path14525"
       style="fill:#bebebe;fill-opacity:1;stroke:none;stroke-width:2;marker:none;visibility:visible;display:inline;overflow:visible;enable-background:accumulate" />
    <path
       d="M -449.99998,931.99015 C -452.19704,931.99015 -454.00988,933.80299 -454.00988,936.00005 C -454.00988,938.19711 -452.19704,940.00995 -449.99998,940.00995 C -447.80292,940.00995 -445.99007,938.19711 -445.99007,936.00005 C -445.99007,933.80299 -447.80292,931.99015 -449.99998,931.99015 z M -449.99998,934.00995 C -448.88504,934.00995 -448.00988,934.88511 -448.00988,936.00005 C -448.00988,937.11499 -448.88504,937.99015 -449.99998,937.99015 C -451.11492,937.99015 -451.99007,937.11499 -451.99007,936.00005 C -451.99007,934.88511 -451.11492,934.00995 -449.99998,934.00995 z"
       id="path14603"
       style="fill:#bebebe;fill-opacity:1;stroke:none;stroke-width:2.10416675;stroke-linecap:round;stroke-linejoin:round;marker:none;stroke-miterlimit:4;stroke-dasharray:none;stroke-dashoffset:0;stroke-opacity:1;visibility:visible;display:inline;overflow:visible;enable-background:accumulate" />
    <path
       d="M -443.99998,931.99015 C -446.19704,931.99015 -448.00988,933.80299 -448.00988,936.00005 C -448.00988,938.19711 -446.19704,940.00995 -443.99998,940.00995 C -441.80292,940.00995 -439.99007,938.19711 -439.99007,936.00005 C -439.99007,933.80299 -441.80292,931.99015 -443.99998,931.99015 z M -443.99998,934.00995 C -442.88504,934.00995 -442.00988,934.88511 -442.00988,936.00005 C -442.00988,937.11499 -442.88504,937.99015 -443.99998,937.99015 C -445.11492,937.99015 -445.99007,937.11499 -445.99007,936.00005 C -445.99007,934.88511 -445.11492,934.00995 -443.99998,934.00995 z"
       id="path14626"
       style="fill:#bebebe;fill-opacity:1;stroke:none;stroke-width:2.10416675;stroke-linecap:round;stroke-linejoin:round;marker:none;stroke-miterlimit:4;stroke-dasharray:none;stroke-dashoffset:0;stroke-opacity:1;visibility:visible;display:inline;overflow:visible;enable-background:accumulate" />
    <path
       d="M -451.21875,937.9375 C -451.68438,938.04178 -452.01149,938.46048 -452,938.9375 L -452,943.0625 C -451.99994,943.61476 -451.55226,944.06244 -451,944.0625 L -443,944.0625 C -442.44774,944.06244 -442.00006,943.61476 -442,943.0625 L -442,938.9375 C -441.9949,938.57686 -442.18438,938.24142 -442.49587,938.05961 C -442.80737,937.87781 -443.19263,937.87781 -443.50413,938.05961 C -443.81562,938.24142 -444.0051,938.57686 -444,938.9375 L -444,942.0625 L -450,942.0625 L -450,938.9375 C -449.99256,938.62964 -450.12736,938.33553 -450.36543,938.14019 C -450.60349,937.94485 -450.91827,937.87008 -451.21875,937.9375 z"
       id="rect14628"
       style="fill:#bebebe;fill-opacity:1;stroke:none;stroke-width:2;stroke-linecap:round;stroke-linejoin:round;marker:none;stroke-miterlimit:4;stroke-dashoffset:0;stroke-opacity:1;visibility:visible;display:inline;overflow:visible;enable-background:accumulate" />
    <path
       d="M -439.125,935.875 C -439.17783,935.88124 -439.23008,935.89169 -439.28125,935.90625 L -441.71875,936.65625 C -442.25378,936.81158 -442.56158,937.37122 -442.40625,937.90625 C -442.25092,938.44128 -441.69128,938.74908 -441.15625,938.59375 L -440,938.25 L -440,941.375 L -442.5625,940.09375 C -443.06301,939.85213 -443.66463,940.06199 -443.90625,940.5625 C -444.14787,941.06301 -443.93801,941.66463 -443.4375,941.90625 L -439.4375,943.90625 C -439.12645,944.05753 -438.75932,944.03735 -438.46672,943.85289 C -438.17413,943.66843 -437.99762,943.34588 -438,943 L -438,936.875 C -437.99777,936.58664 -438.12011,936.31136 -438.33564,936.11978 C -438.55117,935.9282 -438.83889,935.83898 -439.125,935.875 z"
       id="path14631"
       style="fill:#bebebe;fill-opacity:1;stroke:none;stroke-width:2;stroke-linecap:round;stroke-linejoin:round;marker:none;stroke-miterlimit:4;stroke-dasharray:none;stroke-dashoffset:0;stroke-opacity:1;visibility:visible;display:inline;overflow:visible;enable-background:accumulate" />
  </g>
  <g
     transform="translate(453.99995,-928)"
     id="layer4" />
  <g
     transform="translate(453.99995,-928)"
     id="layer12" />
  <g
     transform="translate(453.99995,-928)"
     id="layer9" />
  <g
     transform="translate(453.99995,-928)"
     id="layer10" />
  <g
     transform="translate(453.99995,-928)"
     id="layer6" />
</svg>
