<?xml version="1.0" encoding="UTF-8" standalone="no"?>
<!-- Created with Inkscape (http://www.inkscape.org/) -->
<svg
   xmlns:svg="http://www.w3.org/2000/svg"
   xmlns="http://www.w3.org/2000/svg"
   version="1.0"
   width="24.960434"
   height="24"
   id="svg7384">
  <title
     id="title9167">Moblin Icon Theme</title>
  <defs
     id="defs7386" />
  <g
     transform="translate(566,-1006)"
     id="layer3" />
  <g
     transform="translate(566,-1006)"
     id="layer5" />
  <g
     transform="translate(566,-1006)"
     id="layer7" />
  <g
     transform="translate(566,-1006)"
     id="layer2" />
  <g
     transform="translate(566,-1006)"
     id="layer8" />
  <g
     transform="translate(566,-1958.3622)"
     id="layer1" />
  <g
     transform="translate(566,-1006)"
     id="layer11">
    <rect
       width="24"
       height="24"
       x="-566"
       y="1006"
       id="rect14971"
       style="opacity:0;fill:#ffffff;fill-opacity:1;stroke:none;display:inline" />
    <g
       transform="matrix(0.6078907,0,0,0.6078907,-421.53606,906.68966)"
       id="g14973" />
    <path
       d="M -545.9375,1015.4375 C -546.29715,1015.513 -546.5864,1015.7798 -546.6908,1016.1321 C -546.79521,1016.4845 -546.69795,1016.8657 -546.4375,1017.125 C -545.94788,1017.6146 -545.94782,1018.3853 -546.4375,1018.875 L -553.15625,1025.5938 C -553.64585,1026.0834 -554.38541,1026.0833 -554.875,1025.5938 C -555.11525,1025.2956 -555.50473,1025.1607 -555.87797,1025.2465 C -556.2512,1025.3323 -556.54265,1025.6238 -556.62849,1025.997 C -556.71433,1026.3703 -556.57949,1026.7597 -556.28125,1027 C -555.03264,1028.2486 -552.99861,1028.2486 -551.75,1027 L -545.03125,1020.2812 C -543.78271,1019.0326 -543.78262,1016.9673 -545.03125,1015.7188 C -545.26679,1015.4786 -545.60733,1015.3729 -545.9375,1015.4375 z"
       id="rect14979"
       style="fill:#bebebe;fill-opacity:1;stroke:none;stroke-width:1.99999988;stroke-linecap:round;stroke-linejoin:round;marker:none;stroke-miterlimit:4;stroke-dashoffset:0;stroke-opacity:1;visibility:visible;display:inline;overflow:visible;enable-background:accumulate" />
    <path
       d="M -558.4375,1007.9062 C -560.39391,1007.9063 -562,1009.5123 -562,1011.4688 L -562,1024.4688 C -562,1026.4251 -560.39387,1028.0312 -558.4375,1028.0312 C -558.22315,1028.0312 -558.08224,1027.9948 -557.9375,1027.9688 C -557.88292,1027.9589 -557.79462,1027.946 -557.75,1027.9375 C -557.05115,1027.899 -556.33439,1027.6633 -555.78125,1027.0938 L -541.9375,1013.375 C -541.03618,1012.5047 -540.78171,1011.1691 -541.28125,1010 C -541.78081,1008.831 -542.92873,1008.17 -544.15625,1008.2188 C -544.94231,1008.2497 -545.67864,1008.5845 -546.21875,1009.1562 L -554.875,1017.7188 L -554.875,1011.4688 C -554.875,1009.5123 -556.48108,1007.9062 -558.4375,1007.9062 z M -558.4375,1009.9062 C -557.55382,1009.9062 -556.875,1010.585 -556.875,1011.4688 L -556.875,1020.1562 C -556.88471,1020.5679 -556.64101,1020.9435 -556.26105,1021.1024 C -555.88108,1021.2613 -555.44255,1021.1711 -555.15625,1020.875 L -544.78125,1010.5625 C -544.78109,1010.5521 -544.78109,1010.5416 -544.78125,1010.5312 C -544.61228,1010.3524 -544.33941,1010.2284 -544.09375,1010.2188 C -543.71355,1010.2037 -543.22639,1010.5021 -543.09375,1010.8125 C -542.96109,1011.123 -543.08771,1011.6903 -543.34375,1011.9375 C -543.35417,1011.9373 -543.36458,1011.9373 -543.375,1011.9375 L -557.21875,1025.6875 C -557.21891,1025.6979 -557.21891,1025.7084 -557.21875,1025.7188 C -557.35666,1025.8607 -557.63808,1025.9633 -557.9375,1025.9688 C -558.00085,1025.9732 -558.06363,1025.9837 -558.125,1026 C -558.27828,1026.0293 -558.39826,1026.0312 -558.4375,1026.0312 C -559.32123,1026.0312 -560,1025.3525 -560,1024.4688 L -560,1011.4688 C -560,1010.585 -559.32119,1009.9063 -558.4375,1009.9062 z"
       id="rect14981"
       style="fill:#bebebe;fill-opacity:1;stroke:none;stroke-width:2;stroke-linecap:round;stroke-linejoin:round;marker:none;stroke-miterlimit:4;stroke-dasharray:none;stroke-dashoffset:0;stroke-opacity:1;visibility:visible;display:inline;overflow:visible;enable-background:accumulate" />
    <path
       d="M -554.0625,1008.0625 C -554.88829,1008.0625 -555.71944,1008.3757 -556.34375,1009 C -556.73206,1009.397 -556.72505,1010.0335 -556.3281,1010.4218 C -555.93115,1010.8102 -555.29456,1010.8032 -554.90625,1010.4062 C -554.41662,1009.9166 -553.67709,1009.9167 -553.1875,1010.4062 L -549.71875,1013.875 C -549.4785,1014.1732 -549.08902,1014.3081 -548.71578,1014.2223 C -548.34255,1014.1365 -548.0511,1013.845 -547.96526,1013.4718 C -547.87942,1013.0985 -548.01426,1012.7091 -548.3125,1012.4688 L -551.78125,1009 C -552.40555,1008.3757 -553.23671,1008.0625 -554.0625,1008.0625 z"
       id="rect15014"
       style="fill:#bebebe;fill-opacity:1;stroke:none;stroke-width:1.99999988;stroke-linecap:round;stroke-linejoin:round;marker:none;stroke-miterlimit:4;stroke-dashoffset:0;stroke-opacity:1;visibility:visible;display:inline;overflow:visible;enable-background:accumulate" />
    <path
       d="M -561.125,1014 C -561.31555,1014.0429 -561.48937,1014.1407 -561.625,1014.2812 L -563.0625,1015.7188 C -564.31111,1016.9673 -564.31109,1019.0326 -563.0625,1020.2812 L -561.65625,1021.6562 C -561.416,1021.9544 -561.02652,1022.0893 -560.65328,1022.0035 C -560.28005,1021.9177 -559.9886,1021.6262 -559.90276,1021.253 C -559.81692,1020.8797 -559.95176,1020.4903 -560.25,1020.25 L -561.65625,1018.875 C -562.14589,1018.3854 -562.14586,1017.6146 -561.65625,1017.125 L -560.21875,1015.7188 C -559.87367,1015.4132 -559.78214,1014.9114 -559.99712,1014.5036 C -560.2121,1014.0959 -560.6779,1013.8879 -561.125,1014 z"
       id="rect15017"
       style="fill:#bebebe;fill-opacity:1;stroke:none;stroke-width:1.99999988;stroke-linecap:round;stroke-linejoin:round;marker:none;stroke-miterlimit:4;stroke-dashoffset:0;stroke-opacity:1;visibility:visible;display:inline;overflow:visible;enable-background:accumulate" />
  </g>
  <g
     transform="translate(566,-1006)"
     id="layer4" />
  <g
     transform="translate(566,-1006)"
     id="layer9" />
  <g
     transform="translate(566,-1006)"
     id="layer10" />
  <g
     transform="translate(566,-1006)"
     id="layer6" />
</svg>
