<?xml version="1.0" encoding="UTF-8" standalone="no"?>
<!-- Created with Inkscape (http://www.inkscape.org/) -->
<svg
   xmlns:svg="http://www.w3.org/2000/svg"
   xmlns="http://www.w3.org/2000/svg"
   version="1.0"
   width="24.960485"
   height="24"
   id="svg7384">
  <title
     id="title9167">Moblin Icon Theme</title>
  <defs
     id="defs7386" />
  <g
     transform="translate(566,-956)"
     id="layer3" />
  <g
     transform="translate(566,-956)"
     id="layer5" />
  <g
     transform="translate(566,-956)"
     id="layer7" />
  <g
     transform="translate(566,-956)"
     id="layer2" />
  <g
     transform="translate(566,-956)"
     id="layer8" />
  <g
     transform="translate(566,-1908.3622)"
     id="layer1" />
  <g
     transform="translate(566,-956)"
     id="layer11">
    <rect
       width="24"
       height="24"
       x="-566"
       y="956"
       id="rect14971"
       style="opacity:0;fill:#ffffff;fill-opacity:1;stroke:none;display:inline" />
    <g
       transform="matrix(0.6078907,0,0,0.6078907,-421.53606,856.68966)"
       id="g14973" />
    <path
       d="M -545.9375,965.4375 C -546.29715,965.51305 -546.5864,965.77976 -546.6908,966.13212 C -546.79521,966.48448 -546.69795,966.86572 -546.4375,967.125 C -545.94787,967.61464 -545.94791,968.38541 -546.4375,968.875 L -553.15625,975.59375 C -553.64585,976.08334 -554.38541,976.08334 -554.875,975.59375 C -555.11528,975.29558 -555.50473,975.16078 -555.87792,975.24663 C -556.25111,975.33248 -556.54252,975.62389 -556.62837,975.99708 C -556.71422,976.37027 -556.57942,976.75972 -556.28125,977 C -555.03264,978.24861 -552.99862,978.2486 -551.75,977 L -545.03125,970.28125 C -543.78262,969.03264 -543.78263,966.96738 -545.03125,965.71875 C -545.2668,965.47854 -545.60734,965.37285 -545.9375,965.4375 z"
       id="rect14979"
       style="fill:#bebebe;fill-opacity:1;stroke:none;stroke-width:1.99999988;stroke-linecap:round;stroke-linejoin:round;marker:none;stroke-miterlimit:4;stroke-dashoffset:0;stroke-opacity:1;visibility:visible;display:inline;overflow:visible;enable-background:accumulate" />
    <path
       d="M -558.4375,957.90625 C -560.39391,957.90627 -562,959.51233 -562,961.46875 L -562,974.46875 C -562,976.4251 -560.39387,978.03125 -558.4375,978.03125 C -558.22337,978.03126 -558.08193,977.99463 -557.9375,977.96875 C -557.88303,977.95899 -557.79453,977.94595 -557.75,977.9375 C -557.05231,977.89847 -556.33471,977.66361 -555.78125,977.09375 L -541.9375,963.375 C -541.03623,962.50465 -540.78171,961.16913 -541.28125,960 C -541.78081,958.831 -542.92875,958.17004 -544.15625,958.21875 C -544.94301,958.24929 -545.67881,958.5847 -546.21875,959.15625 L -554.875,967.71875 L -554.875,961.46875 C -554.87501,959.66827 -556.25824,958.22827 -558,958 C -558.03308,957.99567 -558.06041,957.97216 -558.09375,957.96875 C -558.18399,957.93445 -558.27872,957.9134 -558.375,957.90625 C -558.39583,957.9056 -558.41667,957.9056 -558.4375,957.90625 z M -558.4375,959.90625 C -557.55382,959.90625 -556.87501,960.585 -556.875,961.46875 L -556.875,970.15625 C -556.88469,970.56798 -556.64098,970.94355 -556.26102,971.10244 C -555.88106,971.26133 -555.44255,971.17106 -555.15625,970.875 L -544.78125,960.5625 C -544.78109,960.55208 -544.78109,960.54167 -544.78125,960.53125 C -544.61211,960.3522 -544.33873,960.22826 -544.09375,960.21875 C -543.71353,960.20366 -543.22641,960.50206 -543.09375,960.8125 C -542.96109,961.12297 -543.08769,961.69022 -543.34375,961.9375 C -543.35417,961.93734 -543.36458,961.93734 -543.375,961.9375 L -557.21875,975.6875 C -557.21891,975.69792 -557.21891,975.70833 -557.21875,975.71875 C -557.35633,975.8604 -557.63672,975.96296 -557.9375,975.96875 C -558.00085,975.97319 -558.06363,975.98365 -558.125,976 C -558.27861,976.02914 -558.39796,976.03125 -558.4375,976.03125 C -559.32123,976.03125 -560,975.35237 -560,974.46875 L -560,961.46875 C -560,960.58497 -559.32119,959.90626 -558.4375,959.90625 z"
       id="rect14981"
       style="fill:#bebebe;fill-opacity:1;stroke:none;stroke-width:2;stroke-linecap:round;stroke-linejoin:round;marker:none;stroke-miterlimit:4;stroke-dasharray:none;stroke-dashoffset:0;stroke-opacity:1;visibility:visible;display:inline;overflow:visible;enable-background:accumulate" />
    <path
       d="M -554.0625,958.0625 C -554.88829,958.0625 -555.71944,958.37569 -556.34375,959 C -556.73208,959.39695 -556.72508,960.03355 -556.32812,960.42188 C -555.93117,960.8102 -555.29458,960.8032 -554.90625,960.40625 C -554.41662,959.91662 -553.67709,959.91666 -553.1875,960.40625 L -549.71875,963.875 C -549.47847,964.17317 -549.08902,964.30797 -548.71583,964.22212 C -548.34264,964.13627 -548.05123,963.84486 -547.96538,963.47167 C -547.87953,963.09848 -548.01433,962.70903 -548.3125,962.46875 L -551.78125,959 C -552.40555,958.3757 -553.23671,958.0625 -554.0625,958.0625 z"
       id="rect15014"
       style="fill:#bebebe;fill-opacity:1;stroke:none;stroke-width:1.99999988;stroke-linecap:round;stroke-linejoin:round;marker:none;stroke-miterlimit:4;stroke-dashoffset:0;stroke-opacity:1;visibility:visible;display:inline;overflow:visible;enable-background:accumulate" />
    <path
       d="M -561.125,964 C -561.31556,964.04291 -561.48937,964.14068 -561.625,964.28125 L -563.0625,965.71875 C -564.31112,966.96736 -564.31112,969.03264 -563.0625,970.28125 L -561.65625,971.65625 C -561.41597,971.95442 -561.02652,972.08922 -560.65333,972.00337 C -560.28014,971.91752 -559.98873,971.62611 -559.90288,971.25292 C -559.81703,970.87973 -559.95183,970.49028 -560.25,970.25 L -561.65625,968.875 C -562.14586,968.38539 -562.14585,967.61459 -561.65625,967.125 L -560.21875,965.71875 C -559.87373,965.41315 -559.78223,964.91134 -559.9972,964.50364 C -560.21217,964.09594 -560.67793,963.88795 -561.125,964 L -561.125,964 z"
       id="rect15017"
       style="fill:#bebebe;fill-opacity:1;stroke:none;stroke-width:1.99999988;stroke-linecap:round;stroke-linejoin:round;marker:none;stroke-miterlimit:4;stroke-dashoffset:0;stroke-opacity:1;visibility:visible;display:inline;overflow:visible;enable-background:accumulate" />
  </g>
  <g
     transform="translate(566,-956)"
     id="layer4" />
  <g
     transform="translate(566,-956)"
     id="layer12" />
  <g
     transform="translate(566,-956)"
     id="layer9" />
  <g
     transform="translate(566,-956)"
     id="layer10" />
  <g
     transform="translate(566,-956)"
     id="layer6" />
</svg>
