<?xml version="1.0" encoding="UTF-8" standalone="no"?>
<!-- Created with Inkscape (http://www.inkscape.org/) -->
<svg
   xmlns:svg="http://www.w3.org/2000/svg"
   xmlns="http://www.w3.org/2000/svg"
   version="1.0"
   width="24"
   height="24"
   id="svg7384">
  <title
     id="title9167">Moblin Icon Theme</title>
  <defs
     id="defs7386" />
  <g
     transform="translate(-216,-661.99993)"
     id="layer3" />
  <g
     transform="translate(-216,-661.99993)"
     id="layer5" />
  <g
     transform="translate(-216,-661.99993)"
     id="layer7" />
  <g
     transform="translate(-216,-661.99993)"
     id="layer2" />
  <g
     transform="translate(-216,-661.99993)"
     id="layer8" />
  <g
     transform="translate(-216,-1614.3621)"
     id="layer1" />
  <g
     transform="translate(-216,-661.99993)"
     id="layer11">
    <rect
       width="24"
       height="24"
       x="-240"
       y="661.99994"
       transform="scale(-1,1)"
       id="rect6103"
       style="opacity:0;fill:#ffffff;fill-opacity:1;stroke:none;display:inline" />
    <path
       d="M 224.84375,664.0625 C 223.53742,664.18021 222.31459,665.13481 222.125,666.5625 C 222.12239,666.60413 222.12239,666.64587 222.125,666.6875 C 222.12501,669.63541 222.125,672.58332 222.125,675.53125 C 222.125,675.5625 222.125,675.59375 222.125,675.625 C 221.85214,678.82381 224.03639,681.93115 227.125,682.75 C 228.68996,683.17328 230.13988,682.96027 231.375,683 C 231.40623,683.00147 231.43752,683.00147 231.46875,683 C 232.05666,682.9769 232.8283,683.10061 233.71875,682.9375 C 233.72917,682.93766 233.73958,682.93766 233.75,682.9375 C 234.64948,682.72437 235.28922,682.05305 235.625,681.3125 C 235.94424,680.60845 236.01419,679.75373 235.6875,678.96875 C 235.67057,678.92806 235.67546,678.88412 235.65625,678.84375 L 235.59375,678.875 C 235.12907,677.7015 234.02393,677.00582 232.78125,677.09375 L 232.78125,677.03125 C 231.42767,677.01811 230.21941,677.07382 228.9375,677.03125 C 228.48961,676.98025 228.01268,676.45437 228,676 C 228,675.29791 227.99989,674.65495 228,674 C 229.76434,674.00018 231.49386,674.03496 233.3125,674 C 233.33333,674.00065 233.35417,674.00065 233.375,674 C 234.48734,673.8973 235.27399,673.07096 235.625,672.1875 C 235.96785,671.32456 235.98153,670.29889 235.40625,669.4375 C 235.39257,669.41701 235.38935,669.39528 235.375,669.375 L 235.34375,669.40625 C 234.98899,668.84911 234.49154,668.45003 233.96875,668.28125 C 233.44736,668.11292 232.92694,668.09648 232.46875,668.125 C 232.44986,668.12618 232.42497,668.12366 232.40625,668.125 C 230.90159,668.12502 229.47517,668.12501 228,668.125 C 228.0058,667.58299 228.01431,667.05931 227.96875,666.46875 C 227.96251,666.41592 227.95206,666.36367 227.9375,666.3125 C 227.663,665.04919 226.60995,664.44753 225.5,664.25 C 225.34454,664.13788 225.16014,664.0728 224.96875,664.0625 C 224.95833,664.06234 224.94792,664.06234 224.9375,664.0625 C 224.90627,664.06103 224.87498,664.06103 224.84375,664.0625 L 224.84375,664.0625 z M 225,666.09375 C 225.38682,666.13428 225.88248,666.46488 225.96875,666.71875 C 226.01813,667.46101 225.98367,668.27474 226,669.15625 C 226.01694,669.69627 226.45971,670.12521 227,670.125 C 228.87049,670.125 230.59824,670.12503 232.46875,670.125 C 232.49998,670.12647 232.53127,670.12647 232.5625,670.125 C 232.86046,670.10361 233.14809,670.12433 233.34375,670.1875 C 233.53941,670.25067 233.60878,670.33594 233.6875,670.46875 C 233.7074,670.49049 233.72826,670.51135 233.75,670.53125 C 233.887,670.72488 233.91819,671.12408 233.78125,671.46875 C 233.64431,671.81342 233.41936,671.97859 233.1875,672 C 231.10706,672.03787 229.12145,671.98862 227,672 C 226.44774,672.00006 226.00006,672.44774 226,673 C 225.9991,674.07945 226,674.97926 226,676.03125 C 225.99984,676.04167 225.99984,676.05208 226,676.0625 C 226.04212,677.57177 227.17878,678.82819 228.6875,679 C 228.71822,679.01196 228.7495,679.02238 228.78125,679.03125 C 230.18218,679.08196 231.41479,679.01829 232.75,679.03125 C 232.79163,679.03386 232.83337,679.03386 232.875,679.03125 C 233.18268,678.99506 233.7117,679.33007 233.8125,679.625 C 233.82137,679.65675 233.83179,679.68803 233.84375,679.71875 C 233.9236,679.88659 233.94014,680.18725 233.8125,680.46875 C 233.68486,680.75025 233.44167,680.93074 233.28125,680.96875 C 232.82925,681.04036 232.20484,680.97921 231.46875,681 C 231.43307,680.99885 231.41047,681.00092 231.375,681 C 229.96442,680.96329 228.69477,681.09339 227.65625,680.8125 C 225.59198,680.26522 223.90955,677.86034 224.125,675.71875 C 224.12647,675.68752 224.12647,675.65623 224.125,675.625 C 224.125,672.68749 224.12501,669.75 224.125,666.8125 C 224.17295,666.45142 224.57042,666.1543 225,666.09375 z"
       id="path6206"
       style="font-size:medium;font-style:normal;font-variant:normal;font-weight:normal;font-stretch:normal;text-indent:0;text-align:start;text-decoration:none;line-height:normal;letter-spacing:normal;word-spacing:normal;text-transform:none;direction:ltr;block-progression:tb;writing-mode:lr-tb;text-anchor:start;fill:#bebebe;fill-opacity:1;stroke:none;stroke-width:2;stroke-linecap:round;stroke-linejoin:round;marker:none;stroke-miterlimit:4;stroke-dashoffset:0;stroke-opacity:1;visibility:visible;display:inline;overflow:visible;enable-background:accumulate;font-family:Bitstream Vera Sans;-inkscape-font-specification:Bitstream Vera Sans" />
  </g>
  <g
     transform="translate(-216,-661.99993)"
     id="layer4" />
  <g
     transform="translate(-216,-661.99993)"
     id="layer9" />
  <g
     transform="translate(-216,-661.99993)"
     id="layer10" />
  <g
     transform="translate(-216,-661.99993)"
     id="layer6" />
</svg>
