<?xml version="1.0" encoding="UTF-8" standalone="no"?>
<!-- Created with Inkscape (http://www.inkscape.org/) -->
<svg
   xmlns:svg="http://www.w3.org/2000/svg"
   xmlns="http://www.w3.org/2000/svg"
   version="1.0"
   width="24"
   height="24"
   id="svg7384">
  <title
     id="title9167">Moblin Icon Theme</title>
  <defs
     id="defs7386" />
  <g
     transform="translate(453.85875,-870)"
     id="layer3" />
  <g
     transform="translate(453.85875,-870)"
     id="layer5" />
  <g
     transform="translate(453.85875,-870)"
     id="layer7" />
  <g
     transform="translate(453.85875,-870)"
     id="layer2" />
  <g
     transform="translate(453.85875,-870)"
     id="layer8" />
  <g
     transform="translate(453.85875,-1822.3622)"
     id="layer1" />
  <g
     transform="translate(453.85875,-870)"
     id="layer11">
    <rect
       width="24"
       height="24"
       x="429.85873"
       y="870"
       transform="scale(-1,1)"
       id="rect6103"
       style="opacity:0;fill:#ffffff;fill-opacity:1;stroke:none;display:inline" />
    <path
       d="M -445.03125,872.0625 C -446.33757,872.18022 -447.52916,873.13481 -447.71875,874.5625 C -447.73184,874.60345 -447.74228,874.6452 -447.75,874.6875 C -447.75001,877.63542 -447.75,880.58332 -447.75,883.53125 C -447.75,883.5625 -447.75,883.59375 -447.75,883.625 C -448.02288,886.82383 -445.80736,889.93115 -442.71875,890.75 C -441.15379,891.17329 -439.70386,890.96027 -438.46875,891 C -438.44792,891.00065 -438.42708,891.00065 -438.40625,891 C -437.81834,890.97691 -437.04669,891.1006 -436.15625,890.9375 C -436.13542,890.93815 -436.11458,890.93815 -436.09375,890.9375 C -435.19427,890.72437 -434.58578,890.05305 -434.25,889.3125 C -433.9307,888.60831 -433.86058,887.75387 -434.1875,886.96875 L -434.15625,886.96875 C -434.16642,886.93901 -434.20773,886.93544 -434.21875,886.90625 C -434.22731,886.88711 -434.20968,886.86281 -434.21875,886.84375 L -434.25,886.84375 C -434.72121,885.68401 -435.85878,885.00544 -437.09375,885.09375 L -437.09375,885.03125 C -438.45813,885.01802 -439.64391,885.07546 -440.9375,885.03125 C -441.38535,884.98025 -441.83107,884.45436 -441.84375,884 C -441.84376,883.29793 -441.84387,882.65495 -441.84375,882 C -440.08118,882.00019 -438.37945,882.03493 -436.5625,882 C -436.53127,882.00147 -436.49998,882.00147 -436.46875,882 C -435.35641,881.89731 -434.56976,881.07096 -434.21875,880.1875 C -433.87593,879.32465 -433.8624,878.29884 -434.4375,877.4375 C -434.45124,877.41692 -434.45434,877.39537 -434.46875,877.375 L -434.5,877.40625 C -434.85474,876.8487 -435.38324,876.4501 -435.90625,876.28125 C -436.42721,876.11306 -436.9171,876.09659 -437.375,876.125 C -437.39428,876.1262 -437.41841,876.12363 -437.4375,876.125 C -438.95286,876.12498 -440.38859,876.12499 -441.875,876.125 C -441.8692,875.5831 -441.8607,875.0592 -441.90625,874.46875 C -441.90218,874.41675 -441.90218,874.3645 -441.90625,874.3125 C -442.17907,873.05694 -443.24156,872.45297 -444.34375,872.25 C -444.35655,872.24764 -444.36218,872.22096 -444.375,872.21875 C -444.54279,872.11188 -444.73863,872.05748 -444.9375,872.0625 C -444.96873,872.06103 -445.00002,872.06103 -445.03125,872.0625 z M -444.875,874.09375 C -444.47368,874.1358 -443.93038,874.49513 -443.875,874.75 C -443.82858,875.48486 -443.85989,876.28597 -443.84375,877.15625 C -443.82681,877.69627 -443.38404,878.12521 -442.84375,878.125 C -440.97324,878.125 -439.24548,878.12497 -437.375,878.125 C -437.35417,878.12565 -437.33333,878.12565 -437.3125,878.125 C -437.01455,878.10361 -436.72692,878.12433 -436.53125,878.1875 C -436.33558,878.25067 -436.23496,878.33596 -436.15625,878.46875 C -436.14656,878.48994 -436.13614,878.51079 -436.125,878.53125 C -435.98801,878.72488 -435.92556,879.12408 -436.0625,879.46875 C -436.19944,879.81342 -436.42439,879.9786 -436.65625,880 C -438.74824,880.03878 -440.74282,879.98851 -442.875,880 C -443.41502,880.01694 -443.84396,880.45971 -443.84375,881 C -443.84465,882.07944 -443.84376,882.97925 -443.84375,884.03125 C -443.84391,884.04167 -443.84391,884.05208 -443.84375,884.0625 C -443.80163,885.57178 -442.66497,886.8282 -441.15625,887 C -441.13579,887.01114 -441.11494,887.02156 -441.09375,887.03125 C -439.69282,887.08196 -438.42895,887.0183 -437.09375,887.03125 C -437.05212,887.03386 -437.01038,887.03386 -436.96875,887.03125 C -436.66107,886.99506 -436.16331,887.33005 -436.0625,887.625 C -436.04344,887.6574 -436.02258,887.6887 -436,887.71875 C -435.92015,887.88659 -435.93486,888.18725 -436.0625,888.46875 C -436.19014,888.75025 -436.40208,888.93074 -436.5625,888.96875 C -437.0223,889.0416 -437.65324,888.97606 -438.40625,889 C -438.43004,888.99923 -438.44506,889.00066 -438.46875,889 C -439.89393,888.96006 -441.17153,889.09575 -442.21875,888.8125 C -444.28302,888.26522 -445.96546,885.86034 -445.75,883.71875 C -445.74853,883.68752 -445.74853,883.65623 -445.75,883.625 C -445.75,880.68748 -445.75001,877.75 -445.75,874.8125 C -445.70205,874.45142 -445.30459,874.15431 -444.875,874.09375 z"
       id="path6206"
       style="font-size:medium;font-style:normal;font-variant:normal;font-weight:normal;font-stretch:normal;text-indent:0;text-align:start;text-decoration:none;line-height:normal;letter-spacing:normal;word-spacing:normal;text-transform:none;direction:ltr;block-progression:tb;writing-mode:lr-tb;text-anchor:start;fill:#bebebe;fill-opacity:1;stroke:none;stroke-width:2;stroke-linecap:round;stroke-linejoin:round;marker:none;stroke-miterlimit:4;stroke-dashoffset:0;stroke-opacity:1;visibility:visible;display:inline;overflow:visible;enable-background:accumulate;font-family:Bitstream Vera Sans;-inkscape-font-specification:Bitstream Vera Sans" />
  </g>
  <g
     transform="translate(453.85875,-870)"
     id="layer4" />
  <g
     transform="translate(453.85875,-870)"
     id="layer12" />
  <g
     transform="translate(453.85875,-870)"
     id="layer9" />
  <g
     transform="translate(453.85875,-870)"
     id="layer10" />
  <g
     transform="translate(453.85875,-870)"
     id="layer6" />
</svg>
