<?xml version="1.0" encoding="UTF-8" standalone="no"?>
<!-- Created with Inkscape (http://www.inkscape.org/) -->
<svg
   xmlns:svg="http://www.w3.org/2000/svg"
   xmlns="http://www.w3.org/2000/svg"
   version="1.0"
   width="24"
   height="24.038626"
   id="svg7384">
  <title
     id="title9167">Moblin Icon Theme</title>
  <defs
     id="defs7386" />
  <g
     transform="translate(398,-928)"
     id="layer3" />
  <g
     transform="translate(398,-928)"
     id="layer5" />
  <g
     transform="translate(398,-928)"
     id="layer7" />
  <g
     transform="translate(398,-928)"
     id="layer2" />
  <g
     transform="translate(398,-928)"
     id="layer8" />
  <g
     transform="translate(398,-1880.3622)"
     id="layer1" />
  <g
     transform="translate(398,-928)"
     id="layer11">
    <rect
       width="24"
       height="24"
       x="-398"
       y="928"
       id="rect7213-3"
       style="opacity:0;fill:#ffffff;fill-opacity:1;stroke:none;display:inline" />
    <rect
       width="2"
       height="16.80867"
       rx="1"
       ry="1"
       x="-394.9472"
       y="932.03864"
       id="rect2829-2-7"
       style="fill:#bebebe;fill-opacity:1;stroke:none;display:inline" />
    <rect
       width="2"
       height="10.05373"
       rx="1"
       ry="0.99999994"
       x="-934.03864"
       y="-391.00092"
       transform="matrix(0,-1,1,0,0,0)"
       id="rect2841-3-5"
       style="fill:#bebebe;fill-opacity:1;stroke:none;display:inline" />
    <path
       d="M -381.87904,934.02327 C -382.43079,934.00856 -382.8663,933.54963 -382.85214,932.99786 C -382.83811,931.80485 -382.60646,930.72253 -382.13016,929.62863 C -381.90768,929.12299 -381.31741,928.89344 -380.81177,929.11592 C -380.30612,929.33841 -380.07657,929.92867 -380.29906,930.43432 C -380.68397,931.31835 -380.84229,932.05466 -380.85362,933.01878 C -380.85235,933.28923 -380.96066,933.54867 -381.15386,933.73793 C -381.34706,933.92718 -381.60867,934.03012 -381.87904,934.02327 z"
       id="path2793-9"
       style="fill:#bebebe;fill-opacity:1;stroke:none;stroke-width:5.97317934;stroke-linecap:round;stroke-miterlimit:4;stroke-dasharray:none;stroke-dashoffset:0;stroke-opacity:1;display:inline" />
    <path
       d="M -393.96503,934.36656 C -394.51674,934.35749 -394.95687,933.90332 -394.9486,933.3516 C -394.9486,932.00325 -394.66735,930.7776 -394.08013,929.56384 C -393.93491,929.22602 -393.61603,928.99513 -393.24976,928.96262 C -392.88349,928.9301 -392.52892,929.1012 -392.32646,929.40816 C -392.124,929.71512 -392.10632,930.10842 -392.28042,930.4323 C -392.75449,931.4122 -392.95008,932.26305 -392.95008,933.3516 C -392.94603,933.622 -393.05166,933.88252 -393.24289,934.07374 C -393.43411,934.26497 -393.69463,934.3706 -393.96503,934.36656 z"
       id="path2797-6"
       style="fill:#bebebe;fill-opacity:1;stroke:none;stroke-width:5.97317934;stroke-linecap:round;stroke-miterlimit:4;stroke-dasharray:none;stroke-dashoffset:0;stroke-opacity:1;display:inline" />
    <path
       d="M -389.99206,934.00034 C -390.25716,933.98528 -390.50539,933.86543 -390.68204,933.66719 C -390.85869,933.46895 -390.94926,933.2086 -390.93377,932.94353 C -390.87722,931.73719 -390.60172,930.65096 -390.07577,929.56384 C -389.93055,929.22602 -389.61167,928.99513 -389.2454,928.96262 C -388.87913,928.9301 -388.52456,929.1012 -388.3221,929.40816 C -388.11964,929.71512 -388.10196,930.10842 -388.27606,930.4323 C -388.70107,931.31078 -388.88956,932.06288 -388.93526,933.0377 C -388.94489,933.30651 -389.0624,933.5601 -389.26125,933.74123 C -389.4601,933.92236 -389.72353,934.01576 -389.99206,934.00034 z"
       id="path3615-2"
       style="fill:#bebebe;fill-opacity:1;stroke:none;stroke-width:5.97317934;stroke-linecap:round;stroke-miterlimit:4;stroke-dasharray:none;stroke-dashoffset:0;stroke-opacity:1;display:inline" />
    <path
       d="M -377.97175,934.0041 C -378.5235,933.98939 -378.95901,933.53046 -378.94485,932.97869 C -378.93082,931.78568 -378.69917,930.70336 -378.22287,929.60946 C -378.00039,929.10382 -377.41012,928.87427 -376.90448,929.09675 C -376.39883,929.31924 -376.16928,929.9095 -376.39177,930.41515 C -376.77668,931.29918 -376.935,932.03549 -376.94633,932.99961 C -376.94506,933.27006 -377.05337,933.5295 -377.24657,933.71876 C -377.43977,933.90801 -377.70138,934.01095 -377.97175,934.0041 z"
       id="path3617-6"
       style="fill:#bebebe;fill-opacity:1;stroke:none;stroke-width:5.97317934;stroke-linecap:round;stroke-miterlimit:4;stroke-dasharray:none;stroke-dashoffset:0;stroke-opacity:1;display:inline" />
    <path
       d="M -389.96864,947.04558 C -389.41689,947.06029 -388.98138,947.51922 -388.99554,948.07099 C -389.00957,949.264 -389.24122,950.34632 -389.71752,951.44022 C -389.94,951.94586 -390.53027,952.17541 -391.03591,951.95293 C -391.54156,951.73044 -391.77111,951.14018 -391.54862,950.63453 C -391.16371,949.7505 -391.00539,949.01419 -390.99406,948.05007 C -390.99533,947.77962 -390.88702,947.52018 -390.69382,947.33092 C -390.50062,947.14167 -390.23901,947.03873 -389.96864,947.04558 z"
       id="path3621-3"
       style="fill:#bebebe;fill-opacity:1;stroke:none;stroke-width:5.97317934;stroke-linecap:round;stroke-miterlimit:4;stroke-dasharray:none;stroke-dashoffset:0;stroke-opacity:1;display:inline" />
    <path
       d="M -393.94977,947.01829 C -393.39802,947.033 -392.96251,947.49193 -392.97667,948.0437 C -392.9907,949.23671 -393.22235,950.31903 -393.69865,951.41293 C -393.92113,951.91857 -394.5114,952.14812 -395.01704,951.92564 C -395.52269,951.70315 -395.75224,951.11289 -395.52975,950.60724 C -395.14484,949.72321 -394.98652,948.9869 -394.97519,948.02278 C -394.97646,947.75233 -394.86815,947.49289 -394.67495,947.30363 C -394.48175,947.11438 -394.22014,947.01144 -393.94977,947.01829 z"
       id="path3627-4"
       style="fill:#bebebe;fill-opacity:1;stroke:none;stroke-width:5.97317934;stroke-linecap:round;stroke-miterlimit:4;stroke-dasharray:none;stroke-dashoffset:0;stroke-opacity:1;display:inline" />
    <path
       d="M -2.8284264,179.43886 A 22.98097,22.98097 0 1 1 -48.790367,179.43886 A 22.98097,22.98097 0 1 1 -2.8284264,179.43886 z"
       transform="matrix(0.2610857,0,0,-0.2610857,-373.26154,992.84892)"
       id="path3543-8-0"
       style="fill:#bebebe;fill-opacity:1;stroke:none;display:inline" />
    <path
       d="M -390.03125,936.0625 C -390.54661,936.11107 -390.93973,936.54487 -390.9375,937.0625 L -390.9375,944 C -390.93744,944.55226 -390.48976,944.99994 -389.9375,945 L -388,945 C -387.63936,945.0051 -387.30392,944.81562 -387.12211,944.50413 C -386.94031,944.19263 -386.94031,943.80737 -387.12211,943.49587 C -387.30392,943.18438 -387.63936,942.9949 -388,943 L -388.9375,943 L -388.9375,938.0625 L -383,938.0625 L -383,938.1875 C -383.0051,938.54814 -382.81562,938.88358 -382.50413,939.06539 C -382.19263,939.24719 -381.80737,939.24719 -381.49587,939.06539 C -381.18438,938.88358 -380.9949,938.54814 -381,938.1875 L -381,937.0625 C -381.00006,936.51024 -381.44774,936.06256 -382,936.0625 L -389.9375,936.0625 C -389.96873,936.06103 -390.00002,936.06103 -390.03125,936.0625 z"
       id="path14855"
       style="fill:#bebebe;fill-opacity:1;stroke:none;stroke-width:2;stroke-linecap:round;stroke-linejoin:round;marker:none;stroke-miterlimit:4;stroke-dasharray:none;stroke-dashoffset:0;stroke-opacity:1;visibility:visible;display:inline;overflow:visible;enable-background:accumulate" />
    <path
       d="M -390.09375,947 C -390.64603,947.02589 -391.07276,947.49459 -391.04687,948.04687 C -391.02099,948.59916 -390.55228,949.02589 -390,949 L -388.0625,949 C -387.70186,949.0051 -387.36642,948.81562 -387.18461,948.50413 C -387.00281,948.19263 -387.00281,947.80737 -387.18461,947.49587 C -387.36642,947.18438 -387.70186,946.9949 -388.0625,947 L -390,947 C -390.03123,946.99853 -390.06252,946.99853 -390.09375,947 z"
       id="path14857"
       style="fill:#bebebe;fill-opacity:1;stroke:none;stroke-width:2;stroke-linecap:round;stroke-linejoin:round;marker:none;stroke-miterlimit:4;stroke-dasharray:none;stroke-dashoffset:0;stroke-opacity:1;visibility:visible;display:inline;overflow:visible;enable-background:accumulate" />
    <path
       d="M -378.21875,932 C -378.68438,932.10428 -379.01149,932.52298 -379,933 L -379,938 C -379.0051,938.36064 -378.81562,938.69608 -378.50413,938.87789 C -378.19263,939.05969 -377.80737,939.05969 -377.49587,938.87789 C -377.18438,938.69608 -376.9949,938.36064 -377,938 L -377,933 C -376.99256,932.69214 -377.12736,932.39803 -377.36543,932.20269 C -377.60349,932.00735 -377.91827,931.93258 -378.21875,932 z"
       id="path14859"
       style="fill:#bebebe;fill-opacity:1;stroke:none;stroke-width:2;stroke-linecap:round;stroke-linejoin:round;marker:none;stroke-miterlimit:4;stroke-dasharray:none;stroke-dashoffset:0;stroke-opacity:1;visibility:visible;display:inline;overflow:visible;enable-background:accumulate" />
  </g>
  <g
     transform="translate(398,-928)"
     id="layer4" />
  <g
     transform="translate(398,-928)"
     id="layer12" />
  <g
     transform="translate(398,-928)"
     id="layer9" />
  <g
     transform="translate(398,-928)"
     id="layer10" />
  <g
     transform="translate(398,-928)"
     id="layer6" />
</svg>
