<?xml version="1.0" encoding="UTF-8" standalone="no"?>
<!-- Created with Inkscape (http://www.inkscape.org/) -->
<svg
   xmlns:svg="http://www.w3.org/2000/svg"
   xmlns="http://www.w3.org/2000/svg"
   version="1.0"
   width="24.003773"
   height="24.061144"
   id="svg7384">
  <title
     id="title9167">Moblin Icon Theme</title>
  <defs
     id="defs7386" />
  <g
     transform="translate(396.00377,-1254)"
     id="layer3" />
  <g
     transform="translate(396.00377,-1254)"
     id="layer5" />
  <g
     transform="translate(396.00377,-1254)"
     id="layer7" />
  <g
     transform="translate(396.00377,-1254)"
     id="layer2" />
  <g
     transform="translate(396.00377,-1254)"
     id="layer8" />
  <g
     transform="translate(396.00377,-2206.3622)"
     id="layer1" />
  <g
     transform="translate(396.00377,-1254)"
     id="layer11">
    <g
       transform="translate(-336,1079.0566)"
       id="use7177">
      <rect
         width="24"
         height="24"
         x="-60"
         y="175.00455"
         id="rect11791"
         style="fill:none;stroke:none;display:inline" />
      <path
         d="M -2.8284264,179.43886 A 22.98097,22.98097 0 1 1 -48.790367,179.43886 A 22.98097,22.98097 0 1 1 -2.8284264,179.43886 z"
         transform="matrix(0.1087857,0,0,-0.1087857,-50.692339,215.01529)"
         id="path11793"
         style="fill:none;stroke:#bebebe;stroke-width:18.38477516;stroke-linecap:round;stroke-miterlimit:4;stroke-dasharray:none;stroke-dashoffset:0;stroke-opacity:1;display:inline" />
      <path
         d="M -2.8284264,179.43886 A 22.98097,22.98097 0 1 1 -48.790367,179.43886 A 22.98097,22.98097 0 1 1 -2.8284264,179.43886 z"
         transform="matrix(0.1087857,0,0,-0.1087857,-42.693939,215.02489)"
         id="path11795"
         style="fill:none;stroke:#bebebe;stroke-width:18.38477516;stroke-linecap:round;stroke-miterlimit:4;stroke-dasharray:none;stroke-dashoffset:0;stroke-opacity:1;display:inline" />
      <path
         d="M -42.059397,195.68886 A 22.98097,22.98097 0 0 1 -48.790367,179.43886"
         transform="matrix(0.1087857,0,0,-0.1087857,-42.693139,197.29269)"
         id="path11797"
         style="fill:none;stroke:#bebebe;stroke-width:18.38477516;stroke-linecap:round;stroke-miterlimit:4;stroke-dasharray:none;stroke-dashoffset:0;stroke-opacity:1;display:inline" />
      <path
         d="M -59,177.98625 L -59,191.93514"
         id="path11799"
         style="fill:none;stroke:#bebebe;stroke-width:2.00000072;stroke-linecap:round;stroke-linejoin:miter;marker:none;stroke-miterlimit:4;stroke-dasharray:none;stroke-dashoffset:0;stroke-opacity:1;visibility:visible;display:inline;overflow:visible;enable-background:accumulate" />
      <path
         d="M -56.410521,178.5 L -50.583415,178.5"
         id="path11801"
         style="fill:none;stroke:#bebebe;stroke-width:0.99999994;stroke-linecap:round;stroke-linejoin:miter;marker:none;stroke-miterlimit:4;stroke-dasharray:none;stroke-dashoffset:0;stroke-opacity:1;visibility:visible;display:inline;overflow:visible;enable-background:accumulate" />
      <path
         d="M -54.078949,186.51573 L -56.500002,186.51573 L -56.500002,180.5 L -50.500002,180.5 L -50.500002,183.83042"
         id="path11803"
         style="fill:none;stroke:#bebebe;stroke-width:1;stroke-linecap:round;stroke-linejoin:miter;marker:none;stroke-miterlimit:4;stroke-dasharray:none;stroke-dashoffset:0;stroke-opacity:1;visibility:visible;display:inline;overflow:visible;enable-background:accumulate" />
      <path
         d="M -54.422873,188.5 L -56.5,188.5 L -56.5,190.53294"
         id="path11805"
         style="fill:none;stroke:#bebebe;stroke-width:1;stroke-linecap:round;stroke-linejoin:miter;marker:none;stroke-miterlimit:4;stroke-dasharray:none;stroke-dashoffset:0;stroke-opacity:1;visibility:visible;display:inline;overflow:visible;enable-background:accumulate" />
      <path
         d="M -50.955883,193.95681 L -50.955883,186.00186 L -43,186 L -43,194"
         transform="translate(0,1)"
         id="path11807"
         style="fill:none;stroke:#bebebe;stroke-width:2.00000072;stroke-linecap:round;stroke-linejoin:miter;marker:none;stroke-miterlimit:4;stroke-dasharray:none;stroke-dashoffset:0;stroke-opacity:1;visibility:visible;display:inline;overflow:visible;enable-background:accumulate" />
      <path
         d="M -47.994873,176.94206 L -48,183"
         transform="translate(0,1)"
         id="path11809"
         style="fill:none;stroke:#bebebe;stroke-width:2.00000072;stroke-linecap:round;stroke-linejoin:miter;marker:none;stroke-miterlimit:4;stroke-dasharray:none;stroke-dashoffset:0;stroke-opacity:1;visibility:visible;display:inline;overflow:visible;enable-background:accumulate" />
      <path
         d="M -45,179 L -37,179 L -37,192 L -40,192"
         transform="translate(0,1)"
         id="path11811"
         style="fill:none;stroke:#bebebe;stroke-width:2.00000072;stroke-linecap:round;stroke-linejoin:miter;marker:none;stroke-miterlimit:4;stroke-dasharray:none;stroke-dashoffset:0;stroke-opacity:1;visibility:visible;display:inline;overflow:visible;enable-background:accumulate" />
      <path
         d="M -45.441942,183.5 L -45.441942,182.5 L -39.46967,182.5 L -39.46967,188.5 L -40.570252,188.5"
         id="path11813"
         style="fill:none;stroke:#bebebe;stroke-width:1;stroke-linecap:round;stroke-linejoin:miter;marker:none;stroke-miterlimit:4;stroke-dasharray:none;stroke-dashoffset:0;stroke-opacity:1;visibility:visible;display:inline;overflow:visible;enable-background:accumulate" />
      <path
         d="M -46.144309,190.14476 A 22.98097,22.98097 0 0 1 -48.642233,176.83375"
         transform="matrix(0.2175351,0,0,-0.2175351,-39.886383,216.80656)"
         id="path11815"
         style="fill:none;stroke:#bebebe;stroke-width:4.59695911;stroke-linecap:round;stroke-miterlimit:4;stroke-dasharray:none;stroke-dashoffset:0;stroke-opacity:1;display:inline" />
      <path
         d="M -46.144309,190.14476 A 22.98097,22.98097 0 0 1 -48.642233,176.83375"
         transform="matrix(0.2175351,0,0,-0.2175351,-45.886379,216.80656)"
         id="path11817"
         style="fill:none;stroke:#bebebe;stroke-width:4.59695911;stroke-linecap:round;stroke-miterlimit:4;stroke-dasharray:none;stroke-dashoffset:0;stroke-opacity:1;display:inline" />
      <path
         d="M -47.258352,187.68915 A 22.98097,22.98097 0 0 1 -48.642233,176.83375"
         transform="matrix(0.2175351,0,0,-0.2175351,-48.386379,216.80656)"
         id="path11819"
         style="fill:none;stroke:#bebebe;stroke-width:9.19391918;stroke-linecap:round;stroke-miterlimit:4;stroke-dasharray:none;stroke-dashoffset:0;stroke-opacity:1;display:inline" />
    </g>
  </g>
  <g
     transform="translate(396.00377,-1254)"
     id="layer4" />
  <g
     transform="translate(396.00377,-1254)"
     id="layer12" />
  <g
     transform="translate(396.00377,-1254)"
     id="layer9" />
  <g
     transform="translate(396.00377,-1254)"
     id="layer10" />
  <g
     transform="translate(396.00377,-1254)"
     id="layer6" />
</svg>
