<?xml version="1.0" encoding="UTF-8" standalone="no"?>
<!-- Created with Inkscape (http://www.inkscape.org/) -->
<svg
   xmlns:svg="http://www.w3.org/2000/svg"
   xmlns="http://www.w3.org/2000/svg"
   version="1.0"
   width="24"
   height="24.080477"
   id="svg7384">
  <title
     id="title9167">Moblin Icon Theme</title>
  <defs
     id="defs7386" />
  <g
     transform="translate(592,-1074.0013)"
     id="layer3" />
  <g
     transform="translate(592,-1074.0013)"
     id="layer5" />
  <g
     transform="translate(592,-1074.0013)"
     id="layer7" />
  <g
     transform="translate(592,-1074.0013)"
     id="layer2" />
  <g
     transform="translate(592,-1074.0013)"
     id="layer8" />
  <g
     transform="translate(592,-2026.3635)"
     id="layer1" />
  <g
     transform="translate(592,-1074.0013)"
     id="layer11">
    <rect
       width="24"
       height="24"
       x="-592"
       y="1074.0818"
       id="rect7778"
       style="opacity:0;fill:#ffffff;fill-opacity:1;stroke:none;display:inline" />
    <path
       d="M -579.98283,1074.0013 C -580.63255,1074.0013 -581.28388,1074.0735 -581.90558,1074.1733 L -584.27468,1082.8376 C -584.27468,1082.8376 -582.60683,1081.7717 -581.80258,1081.7717 C -581.03689,1081.7717 -579.58779,1081.8367 -579.87983,1082.9062 L -580.18884,1083.9721 L -582.59227,1092.8771 L -584.82404,1092.8771 L -582.4206,1083.9721 C -582.10428,1082.9024 -584.58369,1083.9721 -584.58369,1083.9721 L -586.98713,1092.8771 L -589.25322,1092.8771 L -584.34334,1074.861 C -588.8073,1076.6095 -592,1080.9453 -592,1086.035 C -592,1092.0334 -587.57956,1096.9678 -581.83691,1097.8625 L -577.44206,1081.7374 L -575.17596,1081.7374 L -575.48497,1082.8376 C -575.48497,1082.8376 -573.81713,1081.7717 -573.01287,1081.7717 C -572.24718,1081.7717 -570.79798,1081.8367 -571.09013,1082.9062 L -571.39914,1083.9721 L -573.32189,1091.0204 L -573.59656,1092.0863 C -573.88872,1093.156 -575.37165,1093.2208 -576.13734,1093.2208 C -576.94148,1093.2208 -578.02575,1092.1551 -578.02575,1092.1551 L -579.60515,1098 C -573.15701,1097.8001 -568,1092.541 -568,1086.035 C -568,1079.4021 -573.359,1074.0013 -579.98283,1074.0013 L -579.98283,1074.0013 z M -574.18025,1083.4908 C -574.82948,1083.5431 -575.794,1083.9721 -575.794,1083.9721 L -577.71674,1091.0204 C -577.71674,1091.0204 -575.82152,1092.09 -575.55365,1091.0204 L -573.6309,1083.9721 C -573.51235,1083.5711 -573.79087,1083.46 -574.18025,1083.4908 z"
       id="path7786"
       style="fill:#bebebe;fill-opacity:1;fill-rule:nonzero;stroke:none;stroke-width:2;marker:none;visibility:visible;display:inline;overflow:visible;enable-background:accumulate" />
  </g>
  <g
     transform="translate(592,-1074.0013)"
     id="layer4" />
  <g
     transform="translate(592,-1074.0013)"
     id="layer12" />
  <g
     transform="translate(592,-1074.0013)"
     id="layer9" />
  <g
     transform="translate(592,-1074.0013)"
     id="layer10" />
  <g
     transform="translate(592,-1074.0013)"
     id="layer6" />
</svg>
