<?xml version="1.0" encoding="UTF-8" standalone="no"?>
<!-- Created with Inkscape (http://www.inkscape.org/) -->
<svg
   xmlns:svg="http://www.w3.org/2000/svg"
   xmlns="http://www.w3.org/2000/svg"
   version="1.0"
   width="24.141256"
   height="24"
   id="svg7384">
  <title
     id="title9167">Moblin Icon Theme</title>
  <defs
     id="defs7386" />
  <g
     transform="translate(592,-870)"
     id="layer3" />
  <g
     transform="translate(592,-870)"
     id="layer5" />
  <g
     transform="translate(592,-870)"
     id="layer7" />
  <g
     transform="translate(592,-870)"
     id="layer2" />
  <g
     transform="translate(592,-870)"
     id="layer8" />
  <g
     transform="translate(592,-1822.3622)"
     id="layer1" />
  <g
     transform="translate(592,-870)"
     id="layer11">
    <rect
       width="24"
       height="24"
       x="567.85876"
       y="870"
       transform="scale(-1,1)"
       id="rect6546"
       style="opacity:0;fill:#ffffff;fill-opacity:1;stroke:none;display:inline" />
    <path
       d="M -572.8587,880.28132 L -576.3939,880.53415 L -577.5479,882.09859 L -580.3504,879.40675 L -582.4164,881.58948 L -583.6345,879.61868 L -586.7308,879.60968 L -590.8275,885.00018 C -591.2252,885.79568 -590.8935,886.64663 -589.9212,887.00018 L -570.2962,887.03148 C -568.882,886.94308 -568.5578,884.76447 -569.265,883.96898 L -572.8587,880.28132 L -572.8587,880.28132 z"
       id="path6591"
       style="fill:#bebebe;fill-opacity:1;stroke:none;stroke-width:2;marker:none;visibility:visible;display:inline;overflow:visible;enable-background:accumulate" />
    <path
       d="M -580.96875,870.03125 C -581.23305,870.0734 -581.46942,870.21973 -581.625,870.4375 L -591.5625,884.3125 L -591.65625,884.40625 C -591.68144,884.45648 -591.70234,884.50875 -591.71875,884.5625 C -592.03361,885.19215 -592.09946,885.92923 -591.8125,886.5625 C -591.52554,887.19577 -590.93853,887.68716 -590.25,887.9375 C -590.13997,887.97834 -590.02361,887.9995 -589.90625,888 C -583.36995,888.04117 -576.83855,888.11183 -570.28125,888.03125 C -570.26042,888.0319 -570.23958,888.0319 -570.21875,888.03125 C -569.61374,887.99344 -569.08369,887.69605 -568.71875,887.3125 C -568.35381,886.92895 -568.14814,886.49108 -568.03125,886.03125 C -567.79747,885.11159 -567.83024,884.10112 -568.53125,883.3125 L -580.0625,870.375 C -580.28517,870.11191 -580.62761,869.98202 -580.96875,870.03125 z M -580.71875,872.625 L -570.03125,884.65625 C -570.02513,884.66313 -569.87112,885.14718 -569.96875,885.53125 C -570.01757,885.72329 -570.08755,885.8653 -570.15625,885.9375 C -570.21579,886.00007 -570.24058,886.02307 -570.3125,886.03125 C -570.3229,886.03138 -570.33334,886.03112 -570.34375,886.03125 C -576.77407,886.10976 -583.20555,886.04166 -589.65625,886 C -589.81697,885.91484 -589.94263,885.80765 -589.96875,885.75 C -589.9989,885.68347 -589.99527,885.60042 -589.9375,885.46875 C -589.93115,885.45428 -589.94571,885.45392 -589.9375,885.4375 L -580.71875,872.625 z"
       id="path6554"
       style="fill:#bebebe;fill-opacity:1;stroke:none;stroke-width:2;stroke-linecap:round;stroke-linejoin:round;marker:none;stroke-miterlimit:4;stroke-dasharray:none;stroke-dashoffset:0;stroke-opacity:1;visibility:visible;display:inline;overflow:visible;enable-background:accumulate" />
    <path
       d="M -580.375,879 C -580.47214,879.02578 -580.55926,879.08023 -580.625,879.15625 L -582.1875,880.8125 L -582.84375,879.3125 C -582.93039,879.13408 -583.1143,879.02374 -583.3125,879.03125 L -586.46875,879.0625 C -586.64907,879.05995 -586.81679,879.15469 -586.90769,879.31044 C -586.9986,879.46619 -586.9986,879.65881 -586.90769,879.81456 C -586.81679,879.97031 -586.64907,880.06505 -586.46875,880.0625 L -583.65625,880.03125 L -582.8125,881.90625 C -582.75117,882.07103 -582.6078,882.1915 -582.43491,882.22352 C -582.26202,882.25553 -582.08502,882.1944 -581.96875,882.0625 L -580.25,880.25 C -579.68273,880.88994 -577.84375,882.9375 -577.84375,882.9375 C -577.73546,883.05897 -577.57483,883.12016 -577.41317,883.1015 C -577.2515,883.08285 -577.10903,882.98669 -577.03125,882.84375 C -577.03125,882.84375 -576.31563,881.45706 -576.09375,881.03125 L -572.5625,881.03125 C -572.38218,881.0338 -572.21446,880.93906 -572.12356,880.78331 C -572.03265,880.62756 -572.03265,880.43494 -572.12356,880.27919 C -572.21446,880.12344 -572.38218,880.0287 -572.5625,880.03125 L -576.375,880.03125 C -576.56626,880.01783 -576.74835,880.11494 -576.84375,880.28125 C -576.84375,880.28125 -577.27109,881.09954 -577.59375,881.71875 C -578.26405,880.96257 -579.875,879.15625 -579.875,879.15625 C -579.99887,879.01405 -580.1922,878.95363 -580.375,879 z"
       id="path6589"
       style="fill:#bebebe;fill-opacity:1;stroke:none;stroke-width:1;stroke-linecap:round;stroke-linejoin:round;marker:none;stroke-miterlimit:4;stroke-dasharray:none;stroke-dashoffset:0;stroke-opacity:1;visibility:visible;display:inline;overflow:visible;enable-background:accumulate" />
    <path
       d="M -572.82745,887.98594 C -574.45526,887.98594 -575.8104,889.34108 -575.8104,890.9689 C -575.8104,892.59671 -574.45526,893.95185 -572.82745,893.95185 C -571.19963,893.95185 -569.84449,892.59671 -569.84449,890.9689 C -569.84449,889.34108 -571.19963,887.98594 -572.82745,887.98594 z M -572.82745,890.01435 C -572.28176,890.01435 -571.8729,890.42321 -571.8729,890.9689 C -571.8729,891.51458 -572.28176,891.92344 -572.82745,891.92344 C -573.37313,891.92344 -573.78199,891.51458 -573.78199,890.9689 C -573.78199,890.42321 -573.37313,890.01435 -572.82745,890.01435 z"
       id="path6595"
       style="fill:#bebebe;fill-opacity:1;stroke:none;stroke-width:2.09523821;stroke-linecap:round;stroke-linejoin:round;marker:none;stroke-miterlimit:4;stroke-dasharray:none;stroke-dashoffset:0;stroke-opacity:1;visibility:visible;display:inline;overflow:visible;enable-background:accumulate" />
    <path
       d="M -578.35871,888.00009 C -579.18124,888.00009 -579.85871,888.67756 -579.85871,889.50009 C -579.85871,890.32262 -579.18124,891.00009 -578.35871,891.00009 C -577.53618,891.00009 -576.85871,890.32262 -576.85871,889.50009 C -576.85871,888.67756 -577.53618,888.00009 -578.35871,888.00009 z M -578.35871,889.00009 C -578.07724,889.00009 -577.85871,889.21862 -577.85871,889.50009 C -577.85871,889.78156 -578.07724,890.00009 -578.35871,890.00009 C -578.64018,890.00009 -578.85871,889.78156 -578.85871,889.50009 C -578.85871,889.21862 -578.64018,889.00009 -578.35871,889.00009 z"
       id="path6605"
       style="fill:#bebebe;fill-opacity:1;stroke:none;stroke-width:2.06250048;stroke-linecap:round;stroke-linejoin:round;marker:none;stroke-miterlimit:4;stroke-dasharray:none;stroke-dashoffset:0;stroke-opacity:1;visibility:visible;display:inline;overflow:visible;enable-background:accumulate" />
    <path
       d="M -583.35871,890.00009 C -584.18124,890.00009 -584.85871,890.67756 -584.85871,891.50009 C -584.85871,892.32262 -584.18124,893.00009 -583.35871,893.00009 C -582.53618,893.00009 -581.85871,892.32262 -581.85871,891.50009 C -581.85871,890.67756 -582.53618,890.00009 -583.35871,890.00009 z M -583.35871,891.00009 C -583.07724,891.00009 -582.85871,891.21862 -582.85871,891.50009 C -582.85871,891.78156 -583.07724,892.00009 -583.35871,892.00009 C -583.64018,892.00009 -583.85871,891.78156 -583.85871,891.50009 C -583.85871,891.21862 -583.64018,891.00009 -583.35871,891.00009 z"
       id="path6607"
       style="fill:#bebebe;fill-opacity:1;stroke:none;stroke-width:2.06250048;stroke-linecap:round;stroke-linejoin:round;marker:none;stroke-miterlimit:4;stroke-dasharray:none;stroke-dashoffset:0;stroke-opacity:1;visibility:visible;display:inline;overflow:visible;enable-background:accumulate" />
  </g>
  <g
     transform="translate(592,-870)"
     id="layer4" />
  <g
     transform="translate(592,-870)"
     id="layer12" />
  <g
     transform="translate(592,-870)"
     id="layer9" />
  <g
     transform="translate(592,-870)"
     id="layer10" />
  <g
     transform="translate(592,-870)"
     id="layer6" />
</svg>
