<?xml version="1.0" encoding="UTF-8" standalone="no"?>
<!-- Created with Inkscape (http://www.inkscape.org/) -->
<svg
   xmlns:svg="http://www.w3.org/2000/svg"
   xmlns="http://www.w3.org/2000/svg"
   version="1.0"
   width="24.141256"
   height="24"
   id="svg7384">
  <title
     id="title9167">Moblin Icon Theme</title>
  <defs
     id="defs7386" />
  <g
     transform="translate(-77.858698,-661.99993)"
     id="layer3" />
  <g
     transform="translate(-77.858698,-661.99993)"
     id="layer5" />
  <g
     transform="translate(-77.858698,-661.99993)"
     id="layer7" />
  <g
     transform="translate(-77.858698,-661.99993)"
     id="layer2" />
  <g
     transform="translate(-77.858698,-661.99993)"
     id="layer8" />
  <g
     transform="translate(-77.858698,-1614.3621)"
     id="layer1" />
  <g
     transform="translate(-77.858698,-661.99993)"
     id="layer11">
    <rect
       width="24"
       height="24"
       x="-101.99995"
       y="661.99994"
       transform="scale(-1,1)"
       id="rect6546"
       style="opacity:0;fill:#ffffff;fill-opacity:1;stroke:none;display:inline" />
    <path
       d="M 97,672.28125 L 93.4648,672.53408 L 92.3108,674.09852 L 89.5083,671.40668 L 87.4423,673.58941 L 86.2242,671.61861 L 83.1279,671.60961 L 79.0312,677.00011 C 78.6335,677.79561 78.9652,678.64656 79.9375,679.00011 L 99.5625,679.03141 C 100.9767,678.94301 101.3009,676.7644 100.5937,675.96891 L 97,672.28125 L 97,672.28125 z"
       id="path6591"
       style="opacity:0.5;fill:#bebebe;fill-opacity:1;stroke:none;stroke-width:2;marker:none;visibility:visible;display:inline;overflow:visible;enable-background:accumulate" />
    <path
       d="M 88.90625,662.03125 C 88.641954,662.0734 88.40558,662.21973 88.25,662.4375 L 78.34375,676.25 C 78.296965,676.29777 78.255088,676.35012 78.21875,676.40625 C 78.18281,676.45537 78.15143,676.50767 78.125,676.5625 C 78.026547,676.75938 78.136631,676.97337 78.09375,677.1875 L 78.03125,677.1875 C 78.043695,677.26256 78.064664,677.33595 78.09375,677.40625 C 78.051674,677.80656 77.896624,678.19644 78.0625,678.5625 C 78.349459,679.19576 78.905231,679.68715 79.59375,679.9375 C 79.703778,679.97834 79.820137,679.9995 79.9375,680 C 86.473796,680.04117 93.036448,680.11188 99.59375,680.03125 C 99.604166,680.03141 99.614584,680.03141 99.625,680.03125 C 100.23001,679.99344 100.79131,679.69605 101.15625,679.3125 C 101.52119,678.92895 101.72686,678.49108 101.84375,678.03125 C 102.07754,677.1116 102.04475,676.10113 101.34375,675.3125 L 89.8125,662.375 C 89.589833,662.11191 89.247385,661.98202 88.90625,662.03125 L 88.90625,662.03125 z M 89.15625,664.625 L 99.84375,676.65625 C 99.849855,676.66312 100.00389,677.14717 99.90625,677.53125 C 99.857432,677.72329 99.756198,677.8653 99.6875,677.9375 C 99.618802,678.0097 99.602092,678.02487 99.5,678.03125 C 93.06967,678.10929 86.638235,678.04153 80.1875,678 C 80.026775,677.91484 79.901125,677.80765 79.875,677.75 C 79.851475,677.69809 79.884263,677.61118 79.90625,677.53125 L 89.15625,664.625 z"
       id="path6554"
       style="fill:#bebebe;fill-opacity:1;stroke:none;stroke-width:2;stroke-linecap:round;stroke-linejoin:round;marker:none;stroke-miterlimit:4;stroke-dasharray:none;stroke-dashoffset:0;stroke-opacity:1;visibility:visible;display:inline;overflow:visible;enable-background:accumulate" />
    <path
       d="M 89.46875,671 C 89.382938,671.03114 89.307288,671.08518 89.25,671.15625 L 87.65625,672.84375 L 87,671.3125 C 86.913356,671.13408 86.729451,671.02374 86.53125,671.03125 L 83.375,671.0625 C 83.098858,671.07113 82.881996,671.30198 82.890625,671.57813 C 82.899254,671.85427 83.130108,672.07113 83.40625,672.0625 L 86.21875,672.03125 L 87.0625,673.90625 C 87.128015,674.05844 87.264658,674.16829 87.427365,674.19958 C 87.590072,674.23087 87.757713,674.17953 87.875,674.0625 L 89.625,672.21875 C 90.178216,672.84283 92,674.9375 92,674.9375 C 92.10829,675.05897 92.268919,675.12016 92.430582,675.1015 C 92.592245,675.08285 92.734719,674.98669 92.8125,674.84375 C 92.8125,674.84375 93.528118,673.45706 93.75,673.03125 L 97.28125,673.03125 C 97.461568,673.0338 97.629291,672.93906 97.720194,672.78331 C 97.811097,672.62756 97.811097,672.43494 97.720194,672.27919 C 97.629291,672.12344 97.461568,672.0287 97.28125,672.03125 L 93.46875,672.03125 C 93.288519,672.02965 93.121371,672.12516 93.03125,672.28125 C 93.03125,672.28125 92.602549,673.13341 92.28125,673.75 C 91.633903,673.01973 89.96875,671.15625 89.96875,671.15625 C 89.844881,671.01405 89.651546,670.95363 89.46875,671 L 89.46875,671 z"
       id="path6589"
       style="fill:#bebebe;fill-opacity:1;stroke:none;stroke-width:1;stroke-linecap:round;stroke-linejoin:round;marker:none;stroke-miterlimit:4;stroke-dasharray:none;stroke-dashoffset:0;stroke-opacity:1;visibility:visible;display:inline;overflow:visible;enable-background:accumulate" />
    <path
       d="M 97.031254,679.98587 C 95.403441,679.98587 94.0483,681.34101 94.0483,682.96883 C 94.0483,684.59664 95.403441,685.95178 97.031254,685.95178 C 98.659068,685.95178 100.01421,684.59664 100.01421,682.96883 C 100.01421,681.34101 98.659068,679.98587 97.031254,679.98587 z M 97.031254,682.01428 C 97.576941,682.01428 97.9858,682.42314 97.9858,682.96883 C 97.9858,683.51451 97.576941,683.92337 97.031254,683.92337 C 96.485567,683.92337 96.076709,683.51451 96.076709,682.96883 C 96.076709,682.42314 96.485567,682.01428 97.031254,682.01428 z"
       id="path6595"
       style="fill:#bebebe;fill-opacity:1;stroke:none;stroke-width:2.09523821;stroke-linecap:round;stroke-linejoin:round;marker:none;stroke-miterlimit:4;stroke-dasharray:none;stroke-dashoffset:0;stroke-opacity:1;visibility:visible;display:inline;overflow:visible;enable-background:accumulate" />
    <path
       d="M 91.499992,680.00002 C 90.677461,680.00002 89.999992,680.67749 89.999992,681.50002 C 89.999992,682.32255 90.677461,683.00002 91.499992,683.00002 C 92.322523,683.00002 92.999992,682.32255 92.999992,681.50002 C 92.999992,680.67749 92.322523,680.00002 91.499992,680.00002 z M 91.499992,681.00002 C 91.78146,681.00002 91.999992,681.21855 91.999992,681.50002 C 91.999992,681.78149 91.78146,682.00002 91.499992,682.00002 C 91.218523,682.00002 90.999992,681.78149 90.999992,681.50002 C 90.999992,681.21855 91.218523,681.00002 91.499992,681.00002 z"
       id="path6605"
       style="fill:#bebebe;fill-opacity:1;stroke:none;stroke-width:2.06250048;stroke-linecap:round;stroke-linejoin:round;marker:none;stroke-miterlimit:4;stroke-dasharray:none;stroke-dashoffset:0;stroke-opacity:1;visibility:visible;display:inline;overflow:visible;enable-background:accumulate" />
    <path
       d="M 86.499992,682.00002 C 85.677461,682.00002 84.999992,682.67749 84.999992,683.50002 C 84.999992,684.32255 85.677461,685.00002 86.499992,685.00002 C 87.322523,685.00002 87.999992,684.32255 87.999992,683.50002 C 87.999992,682.67749 87.322523,682.00002 86.499992,682.00002 z M 86.499992,683.00002 C 86.78146,683.00002 86.999992,683.21855 86.999992,683.50002 C 86.999992,683.78149 86.78146,684.00002 86.499992,684.00002 C 86.218523,684.00002 85.999992,683.78149 85.999992,683.50002 C 85.999992,683.21855 86.218523,683.00002 86.499992,683.00002 z"
       id="path6607"
       style="fill:#bebebe;fill-opacity:1;stroke:none;stroke-width:2.06250048;stroke-linecap:round;stroke-linejoin:round;marker:none;stroke-miterlimit:4;stroke-dasharray:none;stroke-dashoffset:0;stroke-opacity:1;visibility:visible;display:inline;overflow:visible;enable-background:accumulate" />
  </g>
  <g
     transform="translate(-77.858698,-661.99993)"
     id="layer4" />
  <g
     transform="translate(-77.858698,-661.99993)"
     id="layer9" />
  <g
     transform="translate(-77.858698,-661.99993)"
     id="layer10" />
  <g
     transform="translate(-77.858698,-661.99993)"
     id="layer6" />
</svg>
