<?xml version="1.0" encoding="UTF-8" standalone="no"?>
<!-- Created with Inkscape (http://www.inkscape.org/) -->
<svg
   xmlns:svg="http://www.w3.org/2000/svg"
   xmlns="http://www.w3.org/2000/svg"
   version="1.0"
   width="24.0625"
   height="24.002422"
   id="svg7384">
  <title
     id="title9167">Moblin Icon Theme</title>
  <defs
     id="defs7386" />
  <g
     transform="translate(510.06245,-1014)"
     id="layer3" />
  <g
     transform="translate(510.06245,-1014)"
     id="layer5" />
  <g
     transform="translate(510.06245,-1014)"
     id="layer7" />
  <g
     transform="translate(510.06245,-1014)"
     id="layer2" />
  <g
     transform="translate(510.06245,-1014)"
     id="layer8" />
  <g
     transform="translate(510.06245,-1966.3622)"
     id="layer1" />
  <g
     transform="translate(510.06245,-1014)"
     id="layer11">
    <rect
       width="24"
       height="24"
       x="-509.99994"
       y="1014.0024"
       id="rect16207"
       style="opacity:0;fill:#ffffff;fill-opacity:1;stroke:none;display:inline" />
    <path
       d="M -501.95533,1024.1004 C -504.53619,1024.3331 -506.65792,1024.9205 -508.24102,1025.9918 C -509.84654,1027.0784 -510.53046,1028.698 -509.88388,1030.0848 C -509.2373,1031.4717 -507.60562,1032.4957 -505.34818,1033.1546 C -500.83326,1034.4723 -495.09497,1034.0564 -491.88393,1031.8833 C -490.27841,1030.7966 -489.59451,1029.1771 -490.24108,1027.7903 C -490.88765,1026.4034 -492.51933,1025.3794 -494.77678,1024.7205 C -495.14381,1024.6041 -495.55471,1024.6701 -495.84952,1024.8928 C -496.14434,1025.1154 -496.27648,1025.4596 -496.19451,1025.7913 C -496.11255,1026.123 -495.82942,1026.3899 -495.45535,1026.4879 C -493.56022,1027.0411 -492.52936,1027.8541 -492.24107,1028.4724 C -491.95279,1029.0908 -492.08381,1029.6358 -493.20535,1030.3949 C -495.44847,1031.9129 -500.87934,1032.4934 -504.66961,1031.3871 C -506.56473,1030.834 -507.5956,1030.021 -507.88388,1029.4026 C -508.17217,1028.7843 -508.04115,1028.2392 -506.9196,1027.4802 C -505.76126,1026.6963 -504.05458,1026.1385 -501.74104,1025.9298 C -501.31625,1025.9528 -500.91591,1025.7557 -500.72057,1025.4274 C -500.52523,1025.0991 -500.57179,1024.7016 -500.83926,1024.4141 C -501.10673,1024.1267 -501.54457,1024.0036 -501.95533,1024.1004 z"
       id="path16225"
       style="fill:#bebebe;fill-opacity:1;stroke:none;stroke-width:1.8781296;stroke-linecap:round;stroke-linejoin:round;marker:none;stroke-miterlimit:4;stroke-dasharray:none;stroke-dashoffset:0;stroke-opacity:1;visibility:visible;display:inline;overflow:visible;enable-background:accumulate" />
    <path
       d="M -509.24102,1028.6895 C -509.62626,1028.8134 -509.89733,1029.3397 -509.88388,1029.9376 C -509.88388,1032.5209 -508.59034,1034.578 -506.81246,1035.9608 C -505.03458,1037.3435 -502.65882,1038.1857 -500.06248,1038.1857 C -497.46613,1038.1857 -495.09038,1037.3435 -493.3125,1035.9608 C -491.53462,1034.578 -490.24108,1032.5209 -490.24108,1029.9376 C -490.24108,1029.2483 -490.60884,1028.6896 -491.0625,1028.6896 C -491.51616,1028.6896 -491.88393,1029.2483 -491.88393,1029.9376 C -491.88393,1031.2181 -492.58238,1032.639 -494.06249,1033.7902 C -495.5426,1034.9415 -497.69084,1035.6894 -500.06248,1035.6894 C -502.43412,1035.6894 -504.58235,1034.9415 -506.06246,1033.7902 C -507.54257,1032.639 -508.24102,1031.2181 -508.24102,1029.9376 C -508.23084,1029.5517 -508.34028,1029.1808 -508.53671,1028.9356 C -508.73313,1028.6905 -508.99383,1028.5994 -509.24102,1028.6895 L -509.24102,1028.6895 z"
       id="path16227"
       style="fill:#bebebe;fill-opacity:1;stroke:none;stroke-width:1.41973126;stroke-linecap:round;stroke-linejoin:round;marker:none;stroke-miterlimit:4;stroke-dasharray:none;stroke-dashoffset:0;stroke-opacity:1;visibility:visible;display:inline;overflow:visible;enable-background:accumulate" />
    <path
       d="M -491.15625,1028 C -491.70853,1028.0259 -492.13526,1028.4946 -492.10937,1029.0469 C -492.08349,1029.5992 -491.61478,1030.0259 -491.0625,1030 L -488.1875,1030 C -488.0898,1031.5608 -488.35516,1032.5588 -488.96875,1033.0938 C -489.70324,1033.7342 -491.06995,1034.0561 -492.96875,1034 C -493.52103,1033.9827 -493.98274,1034.4165 -494,1034.9688 C -494.01726,1035.521 -493.58353,1035.9827 -493.03125,1036 C -490.90587,1036.0629 -489.01313,1035.7768 -487.65625,1034.5938 C -486.29937,1033.4107 -485.77609,1031.4398 -486.1875,1028.8438 C -486.26508,1028.3533 -486.69089,1027.994 -487.1875,1028 L -491.0625,1028 C -491.09373,1027.9985 -491.12502,1027.9985 -491.15625,1028 z"
       id="path16229"
       style="fill:#bebebe;fill-opacity:1;stroke:none;stroke-width:2;stroke-linecap:round;stroke-linejoin:round;marker:none;stroke-miterlimit:4;stroke-dasharray:none;stroke-dashoffset:0;stroke-opacity:1;visibility:visible;display:inline;overflow:visible;enable-background:accumulate" />
    <path
       d="M -500.51522,1014.7734 C -502.84517,1017.1034 -502.80091,1020.8404 -500.47099,1023.1703 L -500.47099,1023.1703 C -498.43961,1025.2017 -498.18685,1028.3479 -499.69756,1030.6613 C -499.36705,1030.4425 -499.03863,1030.1791 -498.74738,1029.8879 C -496.41743,1027.5579 -496.4175,1023.7767 -498.74742,1021.4468 L -498.74742,1021.4468 C -500.7788,1019.4154 -501.07569,1016.3135 -499.56505,1014 C -499.89555,1014.2188 -500.22397,1014.4822 -500.51522,1014.7734 L -500.51522,1014.7734 z"
       id="path16233"
       style="fill:#bebebe;fill-opacity:1;stroke:none;stroke-width:2;marker:none;visibility:visible;display:inline;overflow:visible;enable-background:accumulate" />
  </g>
  <g
     transform="translate(510.06245,-1014)"
     id="layer4" />
  <g
     transform="translate(510.06245,-1014)"
     id="layer12" />
  <g
     transform="translate(510.06245,-1014)"
     id="layer9" />
  <g
     transform="translate(510.06245,-1014)"
     id="layer10" />
  <g
     transform="translate(510.06245,-1014)"
     id="layer6" />
</svg>
