<?xml version="1.0" encoding="UTF-8" standalone="no"?>
<!-- Created with Inkscape (http://www.inkscape.org/) -->
<svg
   xmlns:svg="http://www.w3.org/2000/svg"
   xmlns="http://www.w3.org/2000/svg"
   version="1.0"
   width="24.0625"
   height="24.002422"
   id="svg7384">
  <title
     id="title9167">Moblin Icon Theme</title>
  <defs
     id="defs7386" />
  <g
     transform="translate(510.0625,-1064)"
     id="layer3" />
  <g
     transform="translate(510.0625,-1064)"
     id="layer5" />
  <g
     transform="translate(510.0625,-1064)"
     id="layer7" />
  <g
     transform="translate(510.0625,-1064)"
     id="layer2" />
  <g
     transform="translate(510.0625,-1064)"
     id="layer8" />
  <g
     transform="translate(510.0625,-2016.3622)"
     id="layer1" />
  <g
     transform="translate(510.0625,-1064)"
     id="layer11">
    <rect
       width="24"
       height="24"
       x="-510"
       y="1064.0024"
       id="rect16207"
       style="opacity:0;fill:#ffffff;fill-opacity:1;stroke:none;display:inline" />
    <path
       d="M -501.95538,1074.1004 C -504.53624,1074.3331 -506.65797,1074.9205 -508.24107,1075.9918 C -509.84659,1077.0784 -510.53051,1078.698 -509.88393,1080.0848 C -509.23735,1081.4717 -507.60567,1082.4957 -505.34823,1083.1546 C -500.83331,1084.4723 -495.09502,1084.0564 -491.88398,1081.8833 C -490.27846,1080.7966 -489.59456,1079.1771 -490.24113,1077.7903 C -490.8877,1076.4034 -492.51938,1075.3794 -494.77683,1074.7205 C -495.14386,1074.6041 -495.55476,1074.6701 -495.84957,1074.8928 C -496.14439,1075.1154 -496.27653,1075.4596 -496.19456,1075.7913 C -496.1126,1076.123 -495.82947,1076.3899 -495.4554,1076.4879 C -493.56027,1077.0411 -492.52941,1077.8541 -492.24112,1078.4724 C -491.95284,1079.0908 -492.08386,1079.6358 -493.2054,1080.3949 C -495.44852,1081.9129 -500.87939,1082.4934 -504.66966,1081.3871 C -506.56478,1080.834 -507.59565,1080.021 -507.88393,1079.4026 C -508.17222,1078.7843 -508.0412,1078.2392 -506.91965,1077.4802 C -505.76131,1076.6963 -504.05463,1076.1385 -501.74109,1075.9298 C -501.3163,1075.9528 -500.91596,1075.7557 -500.72062,1075.4274 C -500.52528,1075.0991 -500.57184,1074.7016 -500.83931,1074.4141 C -501.10678,1074.1267 -501.54462,1074.0036 -501.95538,1074.1004 z"
       id="path16225"
       style="fill:#bebebe;fill-opacity:1;stroke:none;stroke-width:1.8781296;stroke-linecap:round;stroke-linejoin:round;marker:none;stroke-miterlimit:4;stroke-dasharray:none;stroke-dashoffset:0;stroke-opacity:1;visibility:visible;display:inline;overflow:visible;enable-background:accumulate" />
    <path
       d="M -509.24107,1078.6895 C -509.62631,1078.8134 -509.89738,1079.3397 -509.88393,1079.9376 C -509.88393,1082.5209 -508.59039,1084.578 -506.81251,1085.9608 C -505.03463,1087.3435 -502.65887,1088.1857 -500.06253,1088.1857 C -497.46618,1088.1857 -495.09043,1087.3435 -493.31255,1085.9608 C -491.53467,1084.578 -490.24113,1082.5209 -490.24113,1079.9376 C -490.24113,1079.2483 -490.60889,1078.6896 -491.06255,1078.6896 C -491.51621,1078.6896 -491.88398,1079.2483 -491.88398,1079.9376 C -491.88398,1081.2181 -492.58243,1082.639 -494.06254,1083.7902 C -495.54265,1084.9415 -497.69089,1085.6894 -500.06253,1085.6894 C -502.43417,1085.6894 -504.5824,1084.9415 -506.06251,1083.7902 C -507.54262,1082.639 -508.24107,1081.2181 -508.24107,1079.9376 C -508.23089,1079.5517 -508.34033,1079.1808 -508.53676,1078.9356 C -508.73318,1078.6905 -508.99388,1078.5994 -509.24107,1078.6895 L -509.24107,1078.6895 z"
       id="path16227"
       style="fill:#bebebe;fill-opacity:1;stroke:none;stroke-width:1.41973126;stroke-linecap:round;stroke-linejoin:round;marker:none;stroke-miterlimit:4;stroke-dasharray:none;stroke-dashoffset:0;stroke-opacity:1;visibility:visible;display:inline;overflow:visible;enable-background:accumulate" />
    <path
       d="M -491.15625,1078 C -491.70853,1078.0259 -492.13526,1078.4946 -492.10937,1079.0469 C -492.08349,1079.5992 -491.61478,1080.0259 -491.0625,1080 L -488.1875,1080 C -488.08979,1081.5608 -488.35516,1082.5588 -488.96875,1083.0938 C -489.70324,1083.7342 -491.06995,1084.0561 -492.96875,1084 C -493.52103,1083.9827 -493.98274,1084.4165 -494,1084.9687 C -494.01726,1085.521 -493.58353,1085.9827 -493.03125,1086 C -490.90587,1086.0629 -489.01313,1085.7768 -487.65625,1084.5938 C -486.29937,1083.4107 -485.77608,1081.4398 -486.1875,1078.8438 C -486.26508,1078.3533 -486.69089,1077.994 -487.1875,1078 L -491.0625,1078 C -491.09373,1077.9985 -491.12502,1077.9985 -491.15625,1078 z"
       id="path16229"
       style="fill:#bebebe;fill-opacity:1;stroke:none;stroke-width:2;stroke-linecap:round;stroke-linejoin:round;marker:none;stroke-miterlimit:4;stroke-dasharray:none;stroke-dashoffset:0;stroke-opacity:1;visibility:visible;display:inline;overflow:visible;enable-background:accumulate" />
    <path
       d="M -500.51527,1064.7734 C -502.84522,1067.1034 -502.80096,1070.8404 -500.47104,1073.1703 L -500.47104,1073.1703 C -498.43966,1075.2017 -498.18689,1078.3479 -499.69761,1080.6613 C -499.3671,1080.4425 -499.03868,1080.1791 -498.74743,1079.8879 C -496.41748,1077.5579 -496.41755,1073.7767 -498.74747,1071.4468 L -498.74747,1071.4468 C -500.77885,1069.4154 -501.07574,1066.3135 -499.5651,1064 C -499.8956,1064.2188 -500.22402,1064.4822 -500.51527,1064.7734 L -500.51527,1064.7734 z"
       id="path16233"
       style="fill:#bebebe;fill-opacity:1;stroke:none;stroke-width:2;marker:none;visibility:visible;display:inline;overflow:visible;enable-background:accumulate" />
  </g>
  <g
     transform="translate(510.0625,-1064)"
     id="layer4" />
  <g
     transform="translate(510.0625,-1064)"
     id="layer9" />
  <g
     transform="translate(510.0625,-1064)"
     id="layer10" />
  <g
     transform="translate(510.0625,-1064)"
     id="layer6" />
</svg>
