<?xml version="1.0" encoding="UTF-8" standalone="no"?>
<!-- Created with Inkscape (http://www.inkscape.org/) -->
<svg
   xmlns:svg="http://www.w3.org/2000/svg"
   xmlns="http://www.w3.org/2000/svg"
   version="1.0"
   width="24.000441"
   height="24"
   id="svg7384">
  <title
     id="title9167">Moblin Icon Theme</title>
  <defs
     id="defs7386" />
  <g
     transform="translate(110.00044,-562)"
     id="layer3" />
  <g
     transform="translate(110.00044,-562)"
     id="layer5" />
  <g
     transform="translate(110.00044,-562)"
     id="layer7" />
  <g
     transform="translate(110.00044,-562)"
     id="layer2" />
  <g
     transform="translate(110.00044,-562)"
     id="layer8" />
  <g
     transform="translate(110.00044,-1514.3622)"
     id="layer1" />
  <g
     transform="translate(110.00044,-562)"
     id="layer11">
    <rect
       width="24"
       height="24"
       x="86"
       y="562"
       transform="scale(-1,1)"
       id="rect10982"
       style="opacity:0;fill:#f5f5f5;fill-opacity:1;stroke:none;display:inline" />
    <path
       d="M -102.0625,569.96875 C -102.32831,569.98718 -102.57577,570.11091 -102.75,570.3125 L -109.75,578.3125 C -110.00652,578.60756 -110.06757,579.02505 -109.90629,579.38121 C -109.74501,579.73737 -109.39097,579.96689 -109,579.96875 L -109,585 C -108.99994,585.55226 -108.55226,585.99994 -108,586 L -96,586 C -95.447738,585.99994 -95.000055,585.55226 -95,585 L -95,579.90625 C -94.620289,579.88137 -94.287598,579.64316 -94.141713,579.29171 C -93.995828,578.94026 -94.062029,578.53647 -94.3125,578.25 L -101.25,570.3125 C -101.45293,570.0782 -101.75303,569.95123 -102.0625,569.96875 L -102.0625,569.96875 z M -102,572.5 L -96.84375,578.375 C -96.944798,578.53385 -96.998957,578.71799 -97,578.90625 L -97,584 L -107,584 L -107,579.15625 C -106.99984,579.14583 -106.99984,579.13542 -107,579.125 L -107,579 C -106.99498,578.80113 -107.04938,578.60529 -107.15625,578.4375 L -102,572.5 z"
       id="path10994"
       style="fill:#bebebe;fill-opacity:1;stroke:none;stroke-width:2;stroke-linecap:round;stroke-linejoin:round;marker:none;stroke-miterlimit:4;stroke-dasharray:none;stroke-dashoffset:0;stroke-opacity:1;visibility:visible;display:inline;overflow:visible;enable-background:accumulate" />
    <path
       d="M -95.09375,562.03125 C -95.326008,562.07224 -95.536307,562.19399 -95.6875,562.375 L -100.78125,568.1875 C -101.0527,568.44966 -101.15347,568.8423 -101.04181,569.20279 C -100.93015,569.56327 -100.62508,569.8302 -100.25296,569.89302 C -99.88085,569.95584 -99.50506,569.80385 -99.28125,569.5 L -94.9375,564.53125 L -89.78125,570.40625 C -89.882298,570.5651 -89.936457,570.74924 -89.9375,570.9375 L -89.9375,576.03125 L -92.9375,576.03125 C -93.298136,576.02615 -93.633581,576.21563 -93.815388,576.52712 C -93.997194,576.83862 -93.997194,577.22388 -93.815388,577.53538 C -93.633581,577.84687 -93.298136,578.03635 -92.9375,578.03125 L -88.9375,578.03125 C -88.385238,578.03119 -87.937555,577.58351 -87.9375,577.03125 L -87.9375,571.9375 C -87.557789,571.91262 -87.225098,571.67441 -87.079213,571.32296 C -86.933328,570.97151 -86.999529,570.56772 -87.25,570.28125 L -94.1875,562.375 C -94.410167,562.11191 -94.752615,561.98202 -95.09375,562.03125 z"
       id="path11017"
       style="fill:#bebebe;fill-opacity:1;stroke:none;stroke-width:2;stroke-linecap:round;stroke-linejoin:round;marker:none;stroke-miterlimit:4;stroke-dasharray:none;stroke-dashoffset:0;stroke-opacity:1;visibility:visible;display:inline;overflow:visible;enable-background:accumulate" />
  </g>
  <g
     transform="translate(110.00044,-562)"
     id="layer4" />
  <g
     transform="translate(110.00044,-562)"
     id="layer9" />
  <g
     transform="translate(110.00044,-562)"
     id="layer10" />
  <g
     transform="translate(110.00044,-562)"
     id="layer6" />
</svg>
