<?xml version="1.0" encoding="UTF-8" standalone="no"?>
<!-- Created with Inkscape (http://www.inkscape.org/) -->
<svg
   xmlns:svg="http://www.w3.org/2000/svg"
   xmlns="http://www.w3.org/2000/svg"
   version="1.0"
   width="24"
   height="24"
   id="svg7384">
  <title
     id="title9167">Moblin Icon Theme</title>
  <defs
     id="defs7386" />
  <g
     transform="translate(82,-562)"
     id="layer3" />
  <g
     transform="translate(82,-562)"
     id="layer5" />
  <g
     transform="translate(82,-562)"
     id="layer7" />
  <g
     transform="translate(82,-562)"
     id="layer2" />
  <g
     transform="translate(82,-562)"
     id="layer8" />
  <g
     transform="translate(82,-1514.3622)"
     id="layer1" />
  <g
     transform="translate(82,-562)"
     id="layer11">
    <rect
       width="24"
       height="24"
       x="58"
       y="562"
       transform="scale(-1,1)"
       id="rect11021"
       style="opacity:0;fill:#f5f5f5;fill-opacity:1;stroke:none;display:inline" />
    <path
       d="M -73.598087,564.06174 C -75.154588,564.02453 -76.739548,564.55382 -77.974169,565.68131 C -80.523872,568.00975 -80.719805,572.01113 -78.401906,574.57241 C -78.029385,574.98314 -77.395947,575.01273 -76.987083,574.63852 C -76.578218,574.2643 -76.548756,573.62799 -76.921277,573.21726 C -78.512912,571.4585 -78.375952,568.76754 -76.625151,567.16867 C -74.924162,565.61529 -72.361056,565.66797 -70.735538,567.30088 C -70.344846,567.69335 -69.711408,567.69335 -69.320715,567.30088 C -68.930022,566.90841 -68.930022,566.27209 -69.320715,565.87962 C -70.500554,564.69442 -72.041587,564.09895 -73.598087,564.06174 z"
       id="path11027"
       style="fill:#bebebe;fill-opacity:1;stroke:none;stroke-width:1.89522815;stroke-linecap:round;stroke-linejoin:round;marker:none;stroke-miterlimit:4;stroke-dasharray:none;stroke-dashoffset:0;stroke-opacity:1;visibility:visible;display:inline;overflow:visible;enable-background:accumulate" />
    <path
       d="M -77.65625,572.875 C -78.067981,572.86531 -78.44355,573.10902 -78.602442,573.48898 C -78.761335,573.86894 -78.671057,574.30745 -78.375,574.59375 L -70.65625,582.34375 C -70.266632,582.72894 -69.639618,582.72894 -69.25,582.34375 L -61.5625,574.59375 C -61.264325,574.35347 -61.129534,573.96402 -61.21538,573.59083 C -61.301225,573.21763 -61.592634,572.92623 -61.965828,572.84038 C -62.339021,572.75453 -62.728469,572.88933 -62.96875,573.1875 L -69.9375,580.1875 L -76.9375,573.1875 C -77.124589,572.98989 -77.384129,572.87704 -77.65625,572.875 z"
       id="path11031"
       style="fill:#bebebe;fill-opacity:1;stroke:none;stroke-width:2;stroke-linecap:round;stroke-linejoin:round;marker:none;stroke-miterlimit:4;stroke-dasharray:none;stroke-dashoffset:0;stroke-opacity:1;visibility:visible;display:inline;overflow:visible;enable-background:accumulate" />
    <path
       d="M -66.222616,564.06096 C -67.827497,564.06096 -69.446223,564.65503 -70.664503,565.87885 C -71.055195,566.27131 -71.055195,566.90763 -70.664503,567.3001 C -70.27381,567.69257 -69.640372,567.69257 -69.24968,567.3001 C -67.576561,565.61938 -64.868672,565.61938 -63.195553,567.3001 C -61.587124,568.91585 -61.529826,571.46673 -63.031039,573.18343 C -63.394474,573.60328 -63.35028,574.2396 -62.93233,574.60469 C -62.51438,574.96977 -61.880942,574.92538 -61.517507,574.50553 C -59.34078,572.01635 -59.448543,568.22164 -61.78073,565.87885 C -62.99901,564.65503 -64.617736,564.06096 -66.222616,564.06096 z"
       id="path11054"
       style="fill:#bebebe;fill-opacity:1;stroke:none;stroke-width:1.89522815;stroke-linecap:round;stroke-linejoin:round;marker:none;stroke-miterlimit:4;stroke-dasharray:none;stroke-dashoffset:0;stroke-opacity:1;visibility:visible;display:inline;overflow:visible;enable-background:accumulate" />
  </g>
  <g
     transform="translate(82,-562)"
     id="layer4" />
  <g
     transform="translate(82,-562)"
     id="layer9" />
  <g
     transform="translate(82,-562)"
     id="layer10" />
  <g
     transform="translate(82,-562)"
     id="layer6" />
</svg>
