<?xml version="1.0" encoding="UTF-8" standalone="no"?>
<!-- Created with Inkscape (http://www.inkscape.org/) -->
<svg
   xmlns:svg="http://www.w3.org/2000/svg"
   xmlns="http://www.w3.org/2000/svg"
   version="1.0"
   width="24"
   height="24.000599"
   id="svg7384">
  <title
     id="title9167">Moblin Icon Theme</title>
  <defs
     id="defs7386" />
  <g
     transform="translate(54,-561.9994)"
     id="layer3" />
  <g
     transform="translate(54,-561.9994)"
     id="layer5" />
  <g
     transform="translate(54,-561.9994)"
     id="layer7" />
  <g
     transform="translate(54,-561.9994)"
     id="layer2" />
  <g
     transform="translate(54,-561.9994)"
     id="layer8" />
  <g
     transform="translate(54,-1514.3616)"
     id="layer1" />
  <g
     transform="translate(54,-561.9994)"
     id="layer11">
    <g
       transform="translate(179.5,387.5)"
       id="g11056">
      <rect
         width="24"
         height="24"
         x="209.5"
         y="174.5"
         transform="scale(-1,1)"
         id="rect11058"
         style="opacity:0;fill:#f5f5f5;fill-opacity:1;stroke:none;display:inline" />
    </g>
    <path
       d="M -45.125,566.0625 C -45.348942,566.08671 -45.558153,566.18581 -45.71875,566.34375 L -49.65625,570.1875 C -49.853865,570.37459 -49.966708,570.63413 -49.96875,570.90625 L -49.96875,583.03125 C -49.968695,583.58351 -49.521012,584.03119 -48.96875,584.03125 L -36.9375,584.03125 C -36.385238,584.03119 -35.937555,583.58351 -35.9375,583.03125 L -35.9375,570.96875 C -35.931301,570.70119 -36.032604,570.4423 -36.21875,570.25 L -40.3125,566.34375 C -40.497062,566.16522 -40.743225,566.06451 -41,566.0625 L -45.03125,566.0625 C -45.062483,566.06103 -45.093767,566.06103 -45.125,566.0625 z M -44.625,568.0625 L -41.4375,568.0625 L -37.9375,571.375 L -37.9375,582.03125 L -47.96875,582.03125 L -47.96875,571.3125 L -44.625,568.0625 z"
       id="path11066"
       style="fill:#bebebe;fill-opacity:1;stroke:none;stroke-width:2;stroke-linecap:round;stroke-linejoin:round;marker:none;stroke-miterlimit:4;stroke-dasharray:none;stroke-dashoffset:0;stroke-opacity:1;visibility:visible;display:inline;overflow:visible;enable-background:accumulate" />
    <path
       d="M -43.004029,570.00151 C -44.102558,570.00151 -45.007504,570.90645 -45.007498,572.00498 C -45.007498,573.10351 -44.102563,573.99162 -43.004029,573.99162 C -41.905501,573.99162 -41.000555,573.10352 -41.00056,572.00498 C -41.00056,570.90645 -41.905495,570.00151 -43.004029,570.00151 z M -43.004029,570.99483 C -42.446565,570.99483 -41.993877,571.44751 -41.993877,572.00498 C -41.993877,572.56245 -42.44656,572.9983 -43.004029,572.9983 C -43.561493,572.9983 -43.997346,572.56245 -43.997346,572.00498 C -43.997346,571.44752 -43.561499,570.99483 -43.004029,570.99483 z"
       id="path11076"
       style="fill:#bebebe;fill-opacity:1;stroke:none;stroke-width:1.8561554;stroke-linecap:round;stroke-linejoin:round;marker:none;stroke-miterlimit:4;stroke-dasharray:none;stroke-dashoffset:0;stroke-opacity:1;visibility:visible;display:inline;overflow:visible;enable-background:accumulate" />
    <path
       d="M -38.996852,562.02681 C -39.842218,562.08702 -40.701364,562.306 -41.500743,562.71469 C -44.698265,564.34944 -45.969568,568.29455 -44.334817,571.49207 C -44.084079,571.98595 -43.480447,572.18305 -42.986568,571.93231 C -42.492689,571.68157 -42.295585,571.07794 -42.546324,570.58406 C -43.688476,568.35004 -42.826759,565.64534 -40.592738,564.50319 C -38.358717,563.36103 -35.626498,564.22275 -34.484345,566.45677 C -33.342192,568.69079 -34.231425,571.42301 -36.465446,572.56516 C -36.748858,572.71006 -36.957542,572.77965 -37.263389,572.86783 C -37.795258,573.01979 -38.103234,573.57415 -37.951271,574.10602 C -37.799308,574.63789 -37.244953,574.94586 -36.713083,574.7939 C -36.302855,574.67563 -35.937584,574.52049 -35.557441,574.32614 C -32.359919,572.69139 -31.088616,568.74629 -32.723367,565.54877 C -33.94943,563.15062 -36.460753,561.84618 -38.996852,562.02681 z"
       id="path11078"
       style="fill:#bebebe;fill-opacity:1;stroke:none;stroke-width:2.27146482;stroke-linecap:round;stroke-linejoin:round;marker:none;stroke-miterlimit:4;stroke-dasharray:none;stroke-dashoffset:0;stroke-opacity:1;visibility:visible;display:inline;overflow:visible;enable-background:accumulate" />
  </g>
  <g
     transform="translate(54,-561.9994)"
     id="layer4" />
  <g
     transform="translate(54,-561.9994)"
     id="layer9" />
  <g
     transform="translate(54,-561.9994)"
     id="layer10" />
  <g
     transform="translate(54,-561.9994)"
     id="layer6" />
</svg>
