<?xml version="1.0" encoding="UTF-8" standalone="no"?>
<!-- Created with Inkscape (http://www.inkscape.org/) -->
<svg
   xmlns:svg="http://www.w3.org/2000/svg"
   xmlns="http://www.w3.org/2000/svg"
   version="1.0"
   width="24"
   height="24"
   id="svg7384">
  <title
     id="title9167">Moblin Icon Theme</title>
  <defs
     id="defs7386" />
  <g
     transform="translate(-26.000055,-561.99993)"
     id="layer3" />
  <g
     transform="translate(-26.000055,-561.99993)"
     id="layer5" />
  <g
     transform="translate(-26.000055,-561.99993)"
     id="layer7" />
  <g
     transform="translate(-26.000055,-561.99993)"
     id="layer2" />
  <g
     transform="translate(-26.000055,-561.99993)"
     id="layer8" />
  <g
     transform="translate(-26.000055,-1514.3621)"
     id="layer1" />
  <g
     transform="translate(-26.000055,-561.99993)"
     id="layer11">
    <g
       transform="translate(-1158.9737,361.00629)"
       id="use4624">
      <rect
         width="24"
         height="24"
         x="-1208.9738"
         y="200.99364"
         transform="scale(-1,1)"
         id="rect9387"
         style="opacity:0;fill:#ffffff;fill-opacity:1;stroke:none;display:inline" />
      <path
         d="M 6.3727644,23.287214 A 9.4549179,9.4549179 0 1 1 9.1476005,13.842072"
         transform="matrix(0.6345904,0,0,0.6345904,1192.9643,202.65676)"
         id="path9389"
         style="fill:none;stroke:#bebebe;stroke-width:3.15163946;stroke-linecap:round;stroke-miterlimit:4;stroke-dasharray:none;stroke-opacity:1;display:inline" />
      <path
         d="M 41.692711,5.526885 A 5.3349195,5.3349195 0 1 1 45.991782,-2.9670455"
         transform="matrix(0.4686105,0,0,0.4686106,1183.9361,209.40376)"
         id="path9391"
         style="fill:none;stroke:#bebebe;stroke-width:4.26793575;stroke-linecap:round;stroke-linejoin:miter;stroke-miterlimit:4;stroke-dasharray:none;stroke-opacity:1;display:inline" />
      <path
         d="M 41.692711,-5.1429539 A 5.3349195,5.3349195 0 1 1 36.539574,1.5727442"
         transform="matrix(0.6706918,0,0,0.6535072,1175.4328,215.35466)"
         id="path9393"
         style="fill:none;stroke:#bebebe;stroke-width:3.02094817;stroke-linecap:round;stroke-linejoin:miter;stroke-miterlimit:4;stroke-dasharray:none;stroke-opacity:1;display:inline" />
      <path
         d="M 1198.75,211.40625 L 1199.9688,216.4375"
         id="path9395"
         style="fill:none;stroke:#bebebe;stroke-width:1.99999988;stroke-linecap:round;stroke-linejoin:miter;marker:none;stroke-miterlimit:4;stroke-dasharray:none;stroke-dashoffset:0;stroke-opacity:1;visibility:visible;display:inline;overflow:visible;enable-background:accumulate" />
    </g>
  </g>
  <g
     transform="translate(-26.000055,-561.99993)"
     id="layer4" />
  <g
     transform="translate(-26.000055,-561.99993)"
     id="layer9" />
  <g
     transform="translate(-26.000055,-561.99993)"
     id="layer10" />
  <g
     transform="translate(-26.000055,-561.99993)"
     id="layer6" />
</svg>
