<?xml version="1.0" encoding="UTF-8" standalone="no"?>
<!-- Created with Inkscape (http://www.inkscape.org/) -->
<svg
   xmlns:svg="http://www.w3.org/2000/svg"
   xmlns="http://www.w3.org/2000/svg"
   version="1.0"
   width="24"
   height="24"
   id="svg7384">
  <title
     id="title9167">Moblin Icon Theme</title>
  <defs
     id="defs7386" />
  <g
     transform="translate(566,-1316)"
     id="layer3" />
  <g
     transform="translate(566,-1316)"
     id="layer5" />
  <g
     transform="translate(566,-1316)"
     id="layer7" />
  <g
     transform="translate(566,-1316)"
     id="layer2" />
  <g
     transform="translate(566,-1316)"
     id="layer8" />
  <g
     transform="translate(566,-2268.3622)"
     id="layer1" />
  <g
     transform="translate(566,-1316)"
     id="layer11">
    <rect
       width="24"
       height="24"
       x="-566"
       y="1316"
       id="rect9036"
       style="opacity:0;fill:#ffffff;fill-opacity:1;stroke:none;display:inline" />
    <path
       d="M -566,1318 L -566,1319 L -566,1334 C -566,1336.1987 -564.1987,1338 -562,1338 L -546,1338 C -543.8013,1338 -542,1336.1987 -542,1334 L -542,1319 L -542,1318 L -543,1318 C -543,1318 -565,1318 -565,1318 L -566,1318 z M -564,1320 C -562.26446,1320 -545.73554,1320 -544,1320 L -544,1334 C -544,1335.1253 -544.8747,1336 -546,1336 L -562,1336 C -563.1253,1336 -564,1335.1253 -564,1334 L -564,1320 z"
       id="rect9044"
       style="fill:#bebebe;fill-opacity:1;stroke:none;stroke-width:2.00000024;stroke-linecap:round;stroke-linejoin:miter;marker:none;stroke-miterlimit:4.30000019;stroke-dashoffset:0;stroke-opacity:1;visibility:visible;display:inline;overflow:visible;enable-background:accumulate" />
    <path
       d="M -553.09375,1322 C -553.64603,1322.0259 -554.07276,1322.4946 -554.04687,1323.0469 C -554.02099,1323.5992 -553.55228,1324.0259 -553,1324 L -547,1324 C -546.63936,1324.0051 -546.30391,1323.8156 -546.12211,1323.5041 C -545.9403,1323.1926 -545.9403,1322.8074 -546.12211,1322.4959 C -546.30391,1322.1844 -546.63936,1321.9949 -547,1322 L -553,1322 C -553.03123,1321.9985 -553.06252,1321.9985 -553.09375,1322 z"
       id="path9047"
       style="fill:#bebebe;fill-opacity:1;stroke:none;stroke-width:2.00000024;stroke-linecap:round;stroke-linejoin:miter;marker:none;stroke-miterlimit:4.30000019;stroke-dasharray:none;stroke-dashoffset:0;stroke-opacity:1;visibility:visible;display:inline;overflow:visible;enable-background:accumulate" />
    <path
       d="M -553.09375,1326 C -553.64603,1326.0259 -554.07276,1326.4946 -554.04687,1327.0469 C -554.02099,1327.5992 -553.55228,1328.0259 -553,1328 L -547,1328 C -546.63936,1328.0051 -546.30391,1327.8156 -546.12211,1327.5041 C -545.9403,1327.1926 -545.9403,1326.8074 -546.12211,1326.4959 C -546.30391,1326.1844 -546.63936,1325.9949 -547,1326 L -553,1326 C -553.03123,1325.9985 -553.06252,1325.9985 -553.09375,1326 z"
       id="path9049"
       style="fill:#bebebe;fill-opacity:1;stroke:none;stroke-width:2.00000024;stroke-linecap:round;stroke-linejoin:miter;marker:none;stroke-miterlimit:4.30000019;stroke-dasharray:none;stroke-dashoffset:0;stroke-opacity:1;visibility:visible;display:inline;overflow:visible;enable-background:accumulate" />
    <path
       d="M -561.09375,1330 C -561.64603,1330.0259 -562.07276,1330.4946 -562.04687,1331.0469 C -562.02099,1331.5992 -561.55228,1332.0259 -561,1332 L -547,1332 C -546.63936,1332.0051 -546.30391,1331.8156 -546.12211,1331.5041 C -545.9403,1331.1926 -545.9403,1330.8074 -546.12211,1330.4959 C -546.30391,1330.1844 -546.63936,1329.9949 -547,1330 L -561,1330 C -561.03123,1329.9985 -561.06252,1329.9985 -561.09375,1330 z"
       id="path9052"
       style="fill:#bebebe;fill-opacity:1;stroke:none;stroke-width:2.00000024;stroke-linecap:round;stroke-linejoin:miter;marker:none;stroke-miterlimit:4.30000019;stroke-dasharray:none;stroke-dashoffset:0;stroke-opacity:1;visibility:visible;display:inline;overflow:visible;enable-background:accumulate" />
    <rect
       width="6"
       height="6"
       x="-562"
       y="1322"
       id="rect9054"
       style="fill:#bebebe;fill-opacity:1;stroke:none;stroke-width:2.00000024;stroke-linecap:round;stroke-linejoin:miter;marker:none;stroke-miterlimit:4.30000019;stroke-dasharray:none;stroke-dashoffset:0;stroke-opacity:1;visibility:visible;display:inline;overflow:visible;enable-background:accumulate" />
  </g>
  <g
     transform="translate(566,-1316)"
     id="layer4" />
  <g
     transform="translate(566,-1316)"
     id="layer12" />
  <g
     transform="translate(566,-1316)"
     id="layer9" />
  <g
     transform="translate(566,-1316)"
     id="layer10" />
  <g
     transform="translate(566,-1316)"
     id="layer6" />
</svg>
