<?xml version="1.0" encoding="UTF-8" standalone="no"?>
<!-- Created with Inkscape (http://www.inkscape.org/) -->
<svg
   xmlns:svg="http://www.w3.org/2000/svg"
   xmlns="http://www.w3.org/2000/svg"
   version="1.0"
   width="24"
   height="24"
   id="svg7384">
  <title
     id="title9167">Moblin Icon Theme</title>
  <defs
     id="defs7386" />
  <g
     transform="translate(481.98954,-1074)"
     id="layer3" />
  <g
     transform="translate(481.98954,-1074)"
     id="layer5" />
  <g
     transform="translate(481.98954,-1074)"
     id="layer7" />
  <g
     transform="translate(481.98954,-1074)"
     id="layer2" />
  <g
     transform="translate(481.98954,-1074)"
     id="layer8" />
  <g
     transform="translate(481.98954,-2026.3622)"
     id="layer1" />
  <g
     transform="translate(481.98954,-1074)"
     id="layer11">
    <rect
       width="24"
       height="24"
       x="457.98953"
       y="1074"
       transform="scale(-1,1)"
       id="rect9182"
       style="opacity:0;fill:#f5f5f5;fill-opacity:1;stroke:none;display:inline" />
    <path
       d="M -478.93745,1074.0312 C -480.5763,1074.0312 -481.9062,1075.3924 -481.9062,1077.0312 C -481.9113,1077.3918 -481.72182,1077.7273 -481.41033,1077.9091 C -481.09883,1078.0909 -480.71357,1078.0909 -480.40207,1077.9091 C -480.09058,1077.7273 -479.9011,1077.3918 -479.9062,1077.0312 C -479.9062,1076.4745 -479.49417,1076.0312 -478.93745,1076.0312 C -478.38069,1076.0313 -477.93745,1076.4745 -477.93745,1077.0312 C -477.94255,1077.3918 -477.75307,1077.7273 -477.44158,1077.9091 C -477.13008,1078.0909 -476.74482,1078.0909 -476.43332,1077.9091 C -476.12183,1077.7273 -475.93235,1077.3918 -475.93745,1077.0312 C -475.93745,1075.3924 -477.29864,1074.0313 -478.93745,1074.0312 z"
       id="path9217"
       style="fill:#bebebe;fill-opacity:1;stroke:none;stroke-width:2;stroke-linecap:round;stroke-linejoin:miter;marker:none;stroke-miterlimit:4;stroke-dasharray:none;stroke-dashoffset:0;stroke-opacity:1;visibility:visible;display:inline;overflow:visible;enable-background:new" />
    <path
       d="M -474.98344,1098.0085 C -473.34459,1098.0085 -472.01469,1096.6473 -472.01469,1095.0085 C -472.00959,1094.6479 -472.19907,1094.3124 -472.51056,1094.1306 C -472.82206,1093.9488 -473.20732,1093.9488 -473.51882,1094.1306 C -473.83031,1094.3124 -474.01979,1094.6479 -474.01469,1095.0085 C -474.01469,1095.5652 -474.42672,1096.0085 -474.98344,1096.0085 C -475.5402,1096.0084 -475.98344,1095.5652 -475.98344,1095.0085 C -475.97834,1094.6479 -476.16782,1094.3124 -476.47931,1094.1306 C -476.79081,1093.9488 -477.17607,1093.9488 -477.48757,1094.1306 C -477.79906,1094.3124 -477.98854,1094.6479 -477.98344,1095.0085 C -477.98344,1096.6473 -476.62225,1098.0084 -474.98344,1098.0085 z"
       id="path9219"
       style="fill:#bebebe;fill-opacity:1;stroke:none;stroke-width:2;stroke-linecap:round;stroke-linejoin:miter;marker:none;stroke-miterlimit:4;stroke-dasharray:none;stroke-dashoffset:0;stroke-opacity:1;visibility:visible;display:inline;overflow:visible;enable-background:new" />
    <path
       d="M -477.0625,1076.0625 C -477.56546,1076.1259 -477.94143,1076.5556 -477.9375,1077.0625 L -477.9375,1095 C -477.9426,1095.3606 -477.75312,1095.6961 -477.44163,1095.8779 C -477.13013,1096.0597 -476.74487,1096.0597 -476.43337,1095.8779 C -476.12188,1095.6961 -475.9324,1095.3606 -475.9375,1095 L -475.9375,1077.0625 C -475.93527,1076.7741 -476.05761,1076.4989 -476.27314,1076.3073 C -476.48867,1076.1157 -476.77639,1076.0265 -477.0625,1076.0625 z"
       id="path9221"
       style="fill:#bebebe;fill-opacity:1;stroke:none;stroke-width:2;stroke-linecap:round;stroke-linejoin:miter;marker:none;stroke-miterlimit:4;stroke-dasharray:none;stroke-dashoffset:0;stroke-opacity:1;visibility:visible;display:inline;overflow:visible;enable-background:new" />
    <path
       d="M -460.98344,1098.0085 C -459.34459,1098.0085 -458.01469,1096.6473 -458.01469,1095.0085 C -458.00959,1094.6479 -458.19907,1094.3124 -458.51056,1094.1306 C -458.82206,1093.9488 -459.20732,1093.9488 -459.51882,1094.1306 C -459.83031,1094.3124 -460.01979,1094.6479 -460.01469,1095.0085 C -460.01469,1095.5652 -460.42672,1096.0085 -460.98344,1096.0085 C -461.34408,1096.0034 -461.67952,1096.1929 -461.86133,1096.5044 C -462.04313,1096.8159 -462.04313,1097.2011 -461.86133,1097.5126 C -461.67952,1097.8241 -461.34408,1098.0136 -460.98344,1098.0085 z"
       id="path9223"
       style="fill:#bebebe;fill-opacity:1;stroke:none;stroke-width:2;stroke-linecap:round;stroke-linejoin:miter;marker:none;stroke-miterlimit:4;stroke-dasharray:none;stroke-dashoffset:0;stroke-opacity:1;visibility:visible;display:inline;overflow:visible;enable-background:new" />
    <path
       d="M -472.96875,1094 C -473.32939,1093.9949 -473.66483,1094.1844 -473.84664,1094.4959 C -474.02844,1094.8074 -474.02844,1095.1926 -473.84664,1095.5041 C -473.66483,1095.8156 -473.32939,1096.0051 -472.96875,1096 L -459,1096 C -458.63936,1096.0051 -458.30392,1095.8156 -458.12211,1095.5041 C -457.94031,1095.1926 -457.94031,1094.8074 -458.12211,1094.4959 C -458.30392,1094.1844 -458.63936,1093.9949 -459,1094 L -472.96875,1094 z"
       id="path9225"
       style="fill:#bebebe;fill-opacity:1;stroke:none;stroke-width:2;stroke-linecap:round;stroke-linejoin:miter;marker:none;stroke-miterlimit:4;stroke-dasharray:none;stroke-dashoffset:0;stroke-opacity:1;visibility:visible;display:inline;overflow:visible;enable-background:new" />
    <path
       d="M -475.1875,1095.9688 C -475.73978,1096.0206 -476.14553,1096.5103 -476.09375,1097.0626 C -476.04197,1097.6148 -475.55228,1098.0206 -475,1097.9688 L -460.9375,1097.9688 C -460.57686,1097.9739 -460.24142,1097.7844 -460.05961,1097.4729 C -459.87781,1097.1614 -459.87781,1096.7762 -460.05961,1096.4647 C -460.24142,1096.1532 -460.57686,1095.9637 -460.9375,1095.9688 L -475,1095.9688 C -475.06236,1095.9629 -475.12514,1095.9629 -475.1875,1095.9688 z"
       id="path9227"
       style="fill:#bebebe;fill-opacity:1;stroke:none;stroke-width:2;stroke-linecap:round;stroke-linejoin:miter;marker:none;stroke-miterlimit:4;stroke-dasharray:none;stroke-dashoffset:0;stroke-opacity:1;visibility:visible;display:inline;overflow:visible;enable-background:new" />
    <path
       d="M -463.98344,1073.9915 C -462.34459,1073.9915 -461.01469,1075.3527 -461.01469,1076.9915 C -461.00959,1077.3521 -461.19907,1077.6876 -461.51056,1077.8694 C -461.82206,1078.0512 -462.20732,1078.0512 -462.51882,1077.8694 C -462.83031,1077.6876 -463.01979,1077.3521 -463.01469,1076.9915 C -463.01469,1076.4348 -463.42672,1075.9915 -463.98344,1075.9915 C -464.34408,1075.9966 -464.67952,1075.8071 -464.86133,1075.4956 C -465.04313,1075.1841 -465.04313,1074.7989 -464.86133,1074.4874 C -464.67952,1074.1759 -464.34408,1073.9864 -463.98344,1073.9915 z"
       id="path9229"
       style="fill:#bebebe;fill-opacity:1;stroke:none;stroke-width:2;stroke-linecap:round;stroke-linejoin:miter;marker:none;stroke-miterlimit:4;stroke-dasharray:none;stroke-dashoffset:0;stroke-opacity:1;visibility:visible;display:inline;overflow:visible;enable-background:new" />
    <path
       d="M -462.03125,1075.9688 C -462.53421,1076.0322 -462.91018,1076.4619 -462.90625,1076.9688 L -462.90625,1095 C -462.91135,1095.3606 -462.72187,1095.6961 -462.41038,1095.8779 C -462.09888,1096.0597 -461.71362,1096.0597 -461.40212,1095.8779 C -461.09063,1095.6961 -460.90115,1095.3606 -460.90625,1095 L -460.90625,1076.9688 C -460.90402,1076.6804 -461.02636,1076.4052 -461.24189,1076.2136 C -461.45742,1076.022 -461.74514,1075.9328 -462.03125,1075.9688 L -462.03125,1075.9688 z"
       id="path9231"
       style="fill:#bebebe;fill-opacity:1;stroke:none;stroke-width:2;stroke-linecap:round;stroke-linejoin:miter;marker:none;stroke-miterlimit:4;stroke-dasharray:none;stroke-dashoffset:0;stroke-opacity:1;visibility:visible;display:inline;overflow:visible;enable-background:new" />
    <path
       d="M -479.15625,1074.0312 C -479.70853,1074.0571 -480.13526,1074.5258 -480.10937,1075.0781 C -480.08349,1075.6304 -479.61478,1076.0571 -479.0625,1076.0312 L -463.9375,1076.0312 C -463.57686,1076.0363 -463.24142,1075.8468 -463.05961,1075.5353 C -462.87781,1075.2238 -462.87781,1074.8386 -463.05961,1074.5271 C -463.24142,1074.2156 -463.57686,1074.0261 -463.9375,1074.0312 L -479.0625,1074.0312 C -479.09373,1074.0297 -479.12502,1074.0297 -479.15625,1074.0312 z"
       id="path9233"
       style="fill:#bebebe;fill-opacity:1;stroke:none;stroke-width:2;stroke-linecap:round;stroke-linejoin:miter;marker:none;stroke-miterlimit:4;stroke-dasharray:none;stroke-dashoffset:0;stroke-opacity:1;visibility:visible;display:inline;overflow:visible;enable-background:new" />
    <path
       d="M -469.05136,1079.875 C -471.27569,1079.875 -473.11385,1081.7132 -473.11386,1083.9375 C -473.11386,1086.1618 -471.27566,1087.9687 -469.05136,1087.9688 C -466.82703,1087.9688 -464.98887,1086.1618 -464.98886,1083.9375 C -464.98886,1081.7132 -466.82706,1079.8751 -469.05136,1079.875 z M -469.05136,1081.875 C -467.90913,1081.875 -466.98886,1082.7953 -466.98886,1083.9375 C -466.98887,1085.0797 -467.90916,1085.9688 -469.05136,1085.9688 C -470.19359,1085.9687 -471.11386,1085.0797 -471.11386,1083.9375 C -471.11385,1082.7953 -470.19356,1081.875 -469.05136,1081.875 z"
       id="path9235"
       style="fill:#bebebe;fill-opacity:1;stroke:none;stroke-width:2;stroke-linecap:round;stroke-linejoin:miter;marker:none;stroke-miterlimit:4;stroke-dasharray:none;stroke-dashoffset:0;stroke-opacity:1;visibility:visible;display:inline;overflow:visible;enable-background:new" />
    <path
       d="M -471.15625,1085 C -471.38019,1085.0242 -471.5894,1085.1233 -471.75,1085.2812 L -474.75,1088.3125 C -475.04811,1088.5528 -475.18285,1088.9422 -475.097,1089.3154 C -475.01115,1089.6885 -474.71978,1089.9799 -474.34663,1090.0658 C -473.97348,1090.1516 -473.58406,1090.0169 -473.34375,1089.7188 L -470.34375,1086.7188 C -470.02947,1086.4215 -469.94194,1085.9559 -470.12681,1085.5648 C -470.31169,1085.1737 -470.72706,1084.9458 -471.15625,1085 z"
       id="path9237"
       style="fill:#bebebe;fill-opacity:1;stroke:none;stroke-width:2;stroke-linecap:round;stroke-linejoin:miter;marker:none;stroke-miterlimit:4;stroke-dasharray:none;stroke-dashoffset:0;stroke-opacity:1;visibility:visible;display:inline;overflow:visible;enable-background:new" />
  </g>
  <g
     transform="translate(481.98954,-1074)"
     id="layer4" />
  <g
     transform="translate(481.98954,-1074)"
     id="layer12" />
  <g
     transform="translate(481.98954,-1074)"
     id="layer9" />
  <g
     transform="translate(481.98954,-1074)"
     id="layer10" />
  <g
     transform="translate(481.98954,-1074)"
     id="layer6" />
</svg>
