<?xml version="1.0" encoding="UTF-8" standalone="no"?>
<!-- Created with Inkscape (http://www.inkscape.org/) -->
<svg
   xmlns:svg="http://www.w3.org/2000/svg"
   xmlns="http://www.w3.org/2000/svg"
   version="1.0"
   width="24"
   height="24"
   id="svg7384">
  <title
     id="title9167">Moblin Icon Theme</title>
  <defs
     id="defs7386" />
  <g
     transform="translate(481.98959,-1124)"
     id="layer3" />
  <g
     transform="translate(481.98959,-1124)"
     id="layer5" />
  <g
     transform="translate(481.98959,-1124)"
     id="layer7" />
  <g
     transform="translate(481.98959,-1124)"
     id="layer2" />
  <g
     transform="translate(481.98959,-1124)"
     id="layer8" />
  <g
     transform="translate(481.98959,-2076.3622)"
     id="layer1" />
  <g
     transform="translate(481.98959,-1124)"
     id="layer11">
    <rect
       width="24"
       height="24"
       x="457.98959"
       y="1124"
       transform="scale(-1,1)"
       id="rect9182"
       style="opacity:0;fill:#f5f5f5;fill-opacity:1;stroke:none;display:inline" />
    <path
       d="M -478.9375,1124.0312 C -480.57635,1124.0312 -481.90625,1125.3924 -481.90625,1127.0312 C -481.91135,1127.3918 -481.72187,1127.7273 -481.41038,1127.9091 C -481.09888,1128.0909 -480.71362,1128.0909 -480.40212,1127.9091 C -480.09063,1127.7273 -479.90115,1127.3918 -479.90625,1127.0312 C -479.90625,1126.4745 -479.49422,1126.0312 -478.9375,1126.0312 C -478.38074,1126.0313 -477.9375,1126.4745 -477.9375,1127.0312 C -477.9426,1127.3918 -477.75312,1127.7273 -477.44163,1127.9091 C -477.13013,1128.0909 -476.74487,1128.0909 -476.43337,1127.9091 C -476.12188,1127.7273 -475.9324,1127.3918 -475.9375,1127.0312 C -475.9375,1125.3924 -477.29869,1124.0313 -478.9375,1124.0312 z"
       id="path9217"
       style="fill:#bebebe;fill-opacity:1;stroke:none;stroke-width:2;stroke-linecap:round;stroke-linejoin:miter;marker:none;stroke-miterlimit:4;stroke-dasharray:none;stroke-dashoffset:0;stroke-opacity:1;visibility:visible;display:inline;overflow:visible;enable-background:new" />
    <path
       d="M -474.98349,1148.0085 C -473.34464,1148.0085 -472.01474,1146.6473 -472.01474,1145.0085 C -472.00964,1144.6479 -472.19912,1144.3124 -472.51061,1144.1306 C -472.82211,1143.9488 -473.20737,1143.9488 -473.51887,1144.1306 C -473.83036,1144.3124 -474.01984,1144.6479 -474.01474,1145.0085 C -474.01474,1145.5652 -474.42677,1146.0085 -474.98349,1146.0085 C -475.54025,1146.0084 -475.98349,1145.5652 -475.98349,1145.0085 C -475.97839,1144.6479 -476.16787,1144.3124 -476.47936,1144.1306 C -476.79086,1143.9488 -477.17612,1143.9488 -477.48762,1144.1306 C -477.79911,1144.3124 -477.98859,1144.6479 -477.98349,1145.0085 C -477.98349,1146.6473 -476.6223,1148.0084 -474.98349,1148.0085 z"
       id="path9219"
       style="fill:#bebebe;fill-opacity:1;stroke:none;stroke-width:2;stroke-linecap:round;stroke-linejoin:miter;marker:none;stroke-miterlimit:4;stroke-dasharray:none;stroke-dashoffset:0;stroke-opacity:1;visibility:visible;display:inline;overflow:visible;enable-background:new" />
    <path
       d="M -477.0625,1126.0625 C -477.56546,1126.1259 -477.94143,1126.5556 -477.9375,1127.0625 L -477.9375,1145 C -477.9426,1145.3606 -477.75312,1145.6961 -477.44163,1145.8779 C -477.13013,1146.0597 -476.74487,1146.0597 -476.43337,1145.8779 C -476.12188,1145.6961 -475.9324,1145.3606 -475.9375,1145 L -475.9375,1127.0625 C -475.93527,1126.7741 -476.05761,1126.4989 -476.27314,1126.3073 C -476.48867,1126.1157 -476.77639,1126.0265 -477.0625,1126.0625 z"
       id="path9221"
       style="fill:#bebebe;fill-opacity:1;stroke:none;stroke-width:2;stroke-linecap:round;stroke-linejoin:miter;marker:none;stroke-miterlimit:4;stroke-dasharray:none;stroke-dashoffset:0;stroke-opacity:1;visibility:visible;display:inline;overflow:visible;enable-background:new" />
    <path
       d="M -460.98349,1148.0085 C -459.34464,1148.0085 -458.01474,1146.6473 -458.01474,1145.0085 C -458.00964,1144.6479 -458.19912,1144.3124 -458.51061,1144.1306 C -458.82211,1143.9488 -459.20737,1143.9488 -459.51887,1144.1306 C -459.83036,1144.3124 -460.01984,1144.6479 -460.01474,1145.0085 C -460.01474,1145.5652 -460.42677,1146.0085 -460.98349,1146.0085 C -461.34413,1146.0034 -461.67957,1146.1929 -461.86138,1146.5044 C -462.04318,1146.8159 -462.04318,1147.2011 -461.86138,1147.5126 C -461.67957,1147.8241 -461.34413,1148.0136 -460.98349,1148.0085 z"
       id="path9223"
       style="fill:#bebebe;fill-opacity:1;stroke:none;stroke-width:2;stroke-linecap:round;stroke-linejoin:miter;marker:none;stroke-miterlimit:4;stroke-dasharray:none;stroke-dashoffset:0;stroke-opacity:1;visibility:visible;display:inline;overflow:visible;enable-background:new" />
    <path
       d="M -472.96875,1144 C -473.32939,1143.9949 -473.66483,1144.1844 -473.84664,1144.4959 C -474.02844,1144.8074 -474.02844,1145.1926 -473.84664,1145.5041 C -473.66483,1145.8156 -473.32939,1146.0051 -472.96875,1146 L -459,1146 C -458.63936,1146.0051 -458.30392,1145.8156 -458.12211,1145.5041 C -457.94031,1145.1926 -457.94031,1144.8074 -458.12211,1144.4959 C -458.30392,1144.1844 -458.63936,1143.9949 -459,1144 L -472.96875,1144 z"
       id="path9225"
       style="fill:#bebebe;fill-opacity:1;stroke:none;stroke-width:2;stroke-linecap:round;stroke-linejoin:miter;marker:none;stroke-miterlimit:4;stroke-dasharray:none;stroke-dashoffset:0;stroke-opacity:1;visibility:visible;display:inline;overflow:visible;enable-background:new" />
    <path
       d="M -475.1875,1145.9688 C -475.73978,1146.0206 -476.14553,1146.5103 -476.09375,1147.0626 C -476.04197,1147.6148 -475.55228,1148.0206 -475,1147.9688 L -460.9375,1147.9688 C -460.57686,1147.9739 -460.24142,1147.7844 -460.05961,1147.4729 C -459.87781,1147.1614 -459.87781,1146.7762 -460.05961,1146.4647 C -460.24142,1146.1532 -460.57686,1145.9637 -460.9375,1145.9688 L -475,1145.9688 C -475.06236,1145.9629 -475.12514,1145.9629 -475.1875,1145.9688 z"
       id="path9227"
       style="fill:#bebebe;fill-opacity:1;stroke:none;stroke-width:2;stroke-linecap:round;stroke-linejoin:miter;marker:none;stroke-miterlimit:4;stroke-dasharray:none;stroke-dashoffset:0;stroke-opacity:1;visibility:visible;display:inline;overflow:visible;enable-background:new" />
    <path
       d="M -463.98349,1123.9915 C -462.34464,1123.9915 -461.01474,1125.3527 -461.01474,1126.9915 C -461.00964,1127.3521 -461.19912,1127.6876 -461.51061,1127.8694 C -461.82211,1128.0512 -462.20737,1128.0512 -462.51887,1127.8694 C -462.83036,1127.6876 -463.01984,1127.3521 -463.01474,1126.9915 C -463.01474,1126.4348 -463.42677,1125.9915 -463.98349,1125.9915 C -464.34413,1125.9966 -464.67957,1125.8071 -464.86138,1125.4956 C -465.04318,1125.1841 -465.04318,1124.7989 -464.86138,1124.4874 C -464.67957,1124.1759 -464.34413,1123.9864 -463.98349,1123.9915 z"
       id="path9229"
       style="fill:#bebebe;fill-opacity:1;stroke:none;stroke-width:2;stroke-linecap:round;stroke-linejoin:miter;marker:none;stroke-miterlimit:4;stroke-dasharray:none;stroke-dashoffset:0;stroke-opacity:1;visibility:visible;display:inline;overflow:visible;enable-background:new" />
    <path
       d="M -462.03125,1125.9688 C -462.53421,1126.0322 -462.91018,1126.4619 -462.90625,1126.9688 L -462.90625,1145 C -462.91135,1145.3606 -462.72187,1145.6961 -462.41038,1145.8779 C -462.09888,1146.0597 -461.71362,1146.0597 -461.40212,1145.8779 C -461.09063,1145.6961 -460.90115,1145.3606 -460.90625,1145 L -460.90625,1126.9688 C -460.90402,1126.6804 -461.02636,1126.4052 -461.24189,1126.2136 C -461.45742,1126.022 -461.74514,1125.9328 -462.03125,1125.9688 z"
       id="path9231"
       style="fill:#bebebe;fill-opacity:1;stroke:none;stroke-width:2;stroke-linecap:round;stroke-linejoin:miter;marker:none;stroke-miterlimit:4;stroke-dasharray:none;stroke-dashoffset:0;stroke-opacity:1;visibility:visible;display:inline;overflow:visible;enable-background:new" />
    <path
       d="M -479.15625,1124.0312 C -479.70853,1124.0571 -480.13526,1124.5258 -480.10937,1125.0781 C -480.08349,1125.6304 -479.61478,1126.0571 -479.0625,1126.0312 L -463.9375,1126.0312 C -463.57686,1126.0363 -463.24142,1125.8468 -463.05961,1125.5353 C -462.87781,1125.2238 -462.87781,1124.8386 -463.05961,1124.5271 C -463.24142,1124.2156 -463.57686,1124.0261 -463.9375,1124.0312 L -479.0625,1124.0312 C -479.09373,1124.0297 -479.12502,1124.0297 -479.15625,1124.0312 z"
       id="path9233"
       style="fill:#bebebe;fill-opacity:1;stroke:none;stroke-width:2;stroke-linecap:round;stroke-linejoin:miter;marker:none;stroke-miterlimit:4;stroke-dasharray:none;stroke-dashoffset:0;stroke-opacity:1;visibility:visible;display:inline;overflow:visible;enable-background:new" />
    <path
       d="M -469.05141,1129.875 C -471.27574,1129.875 -473.1139,1131.7132 -473.11391,1133.9375 C -473.11391,1136.1618 -471.27571,1137.9687 -469.05141,1137.9688 C -466.82708,1137.9688 -464.98892,1136.1618 -464.98891,1133.9375 C -464.98891,1131.7132 -466.82711,1129.8751 -469.05141,1129.875 z M -469.05141,1131.875 C -467.90918,1131.875 -466.98891,1132.7953 -466.98891,1133.9375 C -466.98892,1135.0797 -467.90921,1135.9688 -469.05141,1135.9688 C -470.19364,1135.9687 -471.11391,1135.0797 -471.11391,1133.9375 C -471.1139,1132.7953 -470.19361,1131.875 -469.05141,1131.875 z"
       id="path9235"
       style="fill:#bebebe;fill-opacity:1;stroke:none;stroke-width:2;stroke-linecap:round;stroke-linejoin:miter;marker:none;stroke-miterlimit:4;stroke-dasharray:none;stroke-dashoffset:0;stroke-opacity:1;visibility:visible;display:inline;overflow:visible;enable-background:new" />
    <path
       d="M -471.15625,1135 C -471.38019,1135.0242 -471.5894,1135.1233 -471.75,1135.2812 L -474.75,1138.3125 C -475.04811,1138.5528 -475.18285,1138.9422 -475.097,1139.3154 C -475.01115,1139.6885 -474.71978,1139.9799 -474.34663,1140.0658 C -473.97348,1140.1516 -473.58406,1140.0169 -473.34375,1139.7188 L -470.34375,1136.7188 C -470.02947,1136.4215 -469.94194,1135.9559 -470.12681,1135.5648 C -470.31169,1135.1737 -470.72706,1134.9458 -471.15625,1135 z"
       id="path9237"
       style="fill:#bebebe;fill-opacity:1;stroke:none;stroke-width:2;stroke-linecap:round;stroke-linejoin:miter;marker:none;stroke-miterlimit:4;stroke-dasharray:none;stroke-dashoffset:0;stroke-opacity:1;visibility:visible;display:inline;overflow:visible;enable-background:new" />
  </g>
  <g
     transform="translate(481.98959,-1124)"
     id="layer4" />
  <g
     transform="translate(481.98959,-1124)"
     id="layer9" />
  <g
     transform="translate(481.98959,-1124)"
     id="layer10" />
  <g
     transform="translate(481.98959,-1124)"
     id="layer6" />
</svg>
