<?xml version="1.0" encoding="UTF-8" standalone="no"?>
<!-- Created with Inkscape (http://www.inkscape.org/) -->
<svg
   xmlns:svg="http://www.w3.org/2000/svg"
   xmlns="http://www.w3.org/2000/svg"
   version="1.0"
   width="24"
   height="24"
   id="svg7384">
  <title
     id="title9167">Moblin Icon Theme</title>
  <defs
     id="defs7386" />
  <g
     transform="translate(617.85875,-870)"
     id="layer3" />
  <g
     transform="translate(617.85875,-870)"
     id="layer5" />
  <g
     transform="translate(617.85875,-870)"
     id="layer7" />
  <g
     transform="translate(617.85875,-870)"
     id="layer2" />
  <g
     transform="translate(617.85875,-870)"
     id="layer8" />
  <g
     transform="translate(617.85875,-1822.3622)"
     id="layer1" />
  <g
     transform="translate(617.85875,-870)"
     id="layer11">
    <rect
       width="24"
       height="24"
       x="593.85876"
       y="870"
       transform="scale(-1,1)"
       id="rect6260"
       style="opacity:0;fill:#ffffff;fill-opacity:1;stroke:none;display:inline" />
    <path
       d="M -605.95245,877.00007 C -606.50473,877.02596 -606.93146,877.49466 -606.90557,878.04695 C -606.87969,878.59923 -606.41098,879.02596 -605.8587,879.00007 C -602.53576,879.00007 -599.8587,881.67713 -599.8587,885.00007 C -599.8587,888.32301 -602.53576,891.00007 -605.8587,891.00007 C -609.18164,891.00007 -611.8587,888.32301 -611.8587,885.00007 C -611.8587,883.86557 -611.6128,882.98295 -611.0462,882.00007 C -610.77006,881.51682 -610.93795,880.90121 -611.4212,880.62507 C -611.90445,880.34893 -612.52006,880.51682 -612.7962,881.00007 C -613.5145,882.24611 -613.8587,883.56181 -613.8587,885.00007 C -613.8587,889.40513 -610.26376,893.00007 -605.8587,893.00007 C -601.45364,893.00007 -597.8587,889.40513 -597.8587,885.00007 C -597.8587,880.59501 -601.45364,877.00007 -605.8587,877.00007 C -605.88993,876.9986 -605.92122,876.9986 -605.95245,877.00007 L -605.95245,877.00007 z"
       id="path6270"
       style="fill:#bebebe;fill-opacity:1;stroke:none;stroke-width:2;stroke-linecap:round;stroke-linejoin:round;marker:none;stroke-miterlimit:4;stroke-dasharray:none;stroke-dashoffset:0;stroke-opacity:1;visibility:visible;display:inline;overflow:visible;enable-background:accumulate" />
    <path
       d="M -605.85876,880.99557 C -608.05584,880.99557 -609.86328,882.80301 -609.86328,885.0001 C -609.86328,887.19718 -608.05584,889.00462 -605.85876,889.00462 C -603.66167,889.00462 -601.85423,887.19718 -601.85423,885.0001 C -601.85423,882.80301 -603.66167,880.99557 -605.85876,880.99557 z M -605.85876,883.00453 C -604.7438,883.00453 -603.86319,883.88513 -603.86319,885.0001 C -603.86319,886.11506 -604.7438,886.99566 -605.85876,886.99566 C -606.97372,886.99566 -607.85432,886.11506 -607.85432,885.0001 C -607.85432,883.88513 -606.97372,883.00453 -605.85876,883.00453 z"
       id="path6272"
       style="fill:#bebebe;fill-opacity:1;stroke:none;stroke-width:4.66659975;stroke-linecap:round;stroke-linejoin:round;marker:none;stroke-miterlimit:4;stroke-dasharray:none;stroke-dashoffset:0;stroke-opacity:1;visibility:visible;display:inline;overflow:visible;enable-background:accumulate" />
    <path
       d="M -609,870 C -609.21287,870.03082 -609.41012,870.12945 -609.5625,870.28125 L -613.5625,874.28125 C -613.95945,874.66958 -613.96645,875.30617 -613.57812,875.70312 C -613.1898,876.10008 -612.5532,876.10708 -612.15625,875.71875 L -609.84375,873.40625 L -609.84375,885 C -609.84885,885.36064 -609.65937,885.69608 -609.34788,885.87789 C -609.03638,886.05969 -608.65112,886.05969 -608.33962,885.87789 C -608.02813,885.69608 -607.83865,885.36064 -607.84375,885 L -607.84375,871 C -607.84016,870.70536 -607.96669,870.42414 -608.18956,870.23138 C -608.41243,870.03863 -608.70896,869.95397 -609,870 z"
       id="path6274"
       style="fill:#bebebe;fill-opacity:1;stroke:none;stroke-width:2;stroke-linecap:round;stroke-linejoin:round;marker:none;stroke-opacity:1;visibility:visible;display:inline;overflow:visible;enable-background:accumulate" />
  </g>
  <g
     transform="translate(617.85875,-870)"
     id="layer4" />
  <g
     transform="translate(617.85875,-870)"
     id="layer12" />
  <g
     transform="translate(617.85875,-870)"
     id="layer9" />
  <g
     transform="translate(617.85875,-870)"
     id="layer10" />
  <g
     transform="translate(617.85875,-870)"
     id="layer6" />
</svg>
