<?xml version="1.0" encoding="UTF-8" standalone="no"?>
<!-- Created with Inkscape (http://www.inkscape.org/) -->
<svg
   xmlns:svg="http://www.w3.org/2000/svg"
   xmlns="http://www.w3.org/2000/svg"
   version="1.0"
   width="24.06251"
   height="24.065418"
   id="svg7384">
  <title
     id="title9167">Moblin Icon Theme</title>
  <defs
     id="defs7386" />
  <g
     transform="translate(426.03125,-1254)"
     id="layer3" />
  <g
     transform="translate(426.03125,-1254)"
     id="layer5" />
  <g
     transform="translate(426.03125,-1254)"
     id="layer7" />
  <g
     transform="translate(426.03125,-1254)"
     id="layer2" />
  <g
     transform="translate(426.03125,-1254)"
     id="layer8" />
  <g
     transform="translate(426.03125,-2206.3622)"
     id="layer1" />
  <g
     transform="translate(426.03125,-1254)"
     id="layer11">
    <g
       transform="translate(64.94984,883.06542)"
       id="use7132">
      <title
         id="title12368">internet</title>
      <rect
         width="24"
         height="24"
         x="-490.91858"
         y="371"
         id="rect12370"
         style="opacity:0;fill:#ffffff;fill-opacity:1;stroke:none;display:inline" />
      <path
         d="M -128,303.46875 A 10.53125,10.53125 0 1 1 -149.0625,303.46875 A 10.53125,10.53125 0 1 1 -128,303.46875 z"
         transform="matrix(1.0474778,0,0,1.0474778,-333.84143,65.089053)"
         id="path12372"
         style="fill:#000000;fill-opacity:0;fill-rule:nonzero;stroke:#bebebe;stroke-width:1.90934801;stroke-linecap:round;stroke-linejoin:miter;marker:none;stroke-miterlimit:4;stroke-dasharray:none;stroke-dashoffset:0;stroke-opacity:1;visibility:visible;display:inline;overflow:visible;enable-background:accumulate" />
      <path
         d="M -134.5,294.1875 L -138.375,298.4375 C -138.375,298.4375 -138.4375,304.4375 -138.4375,304.4375 C -138.4375,304.4375 -136.4375,304.5625 -136.4375,304.5625 L -134.9375,301.0625 L -131.375,303.6875 L -131.5,300.5 L -127.875,301.75"
         transform="translate(-340.91858,78.997068)"
         id="path12374"
         style="fill:#000000;fill-opacity:0;fill-rule:nonzero;stroke:#bebebe;stroke-width:1;stroke-linecap:round;stroke-linejoin:miter;marker:none;stroke-miterlimit:4;stroke-dasharray:none;stroke-dashoffset:0;stroke-opacity:1;visibility:visible;display:inline;overflow:visible;enable-background:accumulate" />
      <path
         d="M -132.9375,305 L -138.3125,307.5625 L -138.375,310.5625 L -134,310.5625 L -132.5625,313.375 L -130.5,311.75 L -132.9375,305 z"
         transform="translate(-340.91858,78.997068)"
         id="path12376"
         style="fill:#000000;fill-opacity:0;fill-rule:nonzero;stroke:#bebebe;stroke-width:1;stroke-linecap:round;stroke-linejoin:miter;marker:none;stroke-miterlimit:4;stroke-dasharray:none;stroke-dashoffset:0;stroke-opacity:1;visibility:visible;display:inline;overflow:visible;enable-background:accumulate" />
      <path
         d="M -143.875,295.0625 L -140.0625,297.9375 L -142,300.375 L -146.6875,303.5 L -142.625,305.625 L -145.1875,308.75 L -143.25,313.0625"
         transform="translate(-340.91858,78.997068)"
         id="path12378"
         style="fill:#000000;fill-opacity:0;fill-rule:nonzero;stroke:#bebebe;stroke-width:1;stroke-linecap:round;stroke-linejoin:miter;marker:none;stroke-miterlimit:4;stroke-dasharray:none;stroke-dashoffset:0;stroke-opacity:1;visibility:visible;display:inline;overflow:visible;enable-background:accumulate" />
      <path
         d="M -143.89623,294.89631 L -140.53747,297.54796 L -141.8633,300.46477 L -146.81305,303.64675 L -142.83557,305.50291 L -145.04528,308.50811 L -143.71945,312.92753 L -138.28527,314.38361 L -132.58252,313.01592 L -133.99674,310.54104 L -138.50454,310.54104 L -138.41614,307.27068 L -133.02445,304.7958 L -130.3728,311.86687 L -127.63276,306.91712 L -127.54436,301.61382 L -131.52183,300.55316 L -131.52183,303.46998 L -134.96898,301.08349 L -136.47158,304.70741 L -138.41612,304.44225 L -138.5929,298.25506 L -134.61542,294.01242 L -139.30001,293.39371 L -143.8962,294.89631 L -143.89623,294.89631 z"
         transform="translate(-340.91858,78.997068)"
         id="path12380"
         style="opacity:0.5;fill:#bebebe;fill-opacity:1;fill-rule:nonzero;stroke:none;stroke-width:1;stroke-linecap:round;stroke-linejoin:miter;marker:none;stroke-miterlimit:4;stroke-dasharray:none;stroke-dashoffset:0;stroke-opacity:1;visibility:visible;display:inline;overflow:visible;enable-background:accumulate" />
    </g>
  </g>
  <g
     transform="translate(426.03125,-1254)"
     id="layer4" />
  <g
     transform="translate(426.03125,-1254)"
     id="layer12" />
  <g
     transform="translate(426.03125,-1254)"
     id="layer9" />
  <g
     transform="translate(426.03125,-1254)"
     id="layer10" />
  <g
     transform="translate(426.03125,-1254)"
     id="layer6" />
</svg>
