<?xml version="1.0" encoding="UTF-8" standalone="no"?>
<!-- Created with Inkscape (http://www.inkscape.org/) -->
<svg
   xmlns:svg="http://www.w3.org/2000/svg"
   xmlns="http://www.w3.org/2000/svg"
   version="1.0"
   width="24.020567"
   height="24.042982"
   id="svg7384">
  <title
     id="title9167">Moblin Icon Theme</title>
  <defs
     id="defs7386" />
  <g
     transform="translate(510.00002,-1315.9718)"
     id="layer3" />
  <g
     transform="translate(510.00002,-1315.9718)"
     id="layer5" />
  <g
     transform="translate(510.00002,-1315.9718)"
     id="layer7" />
  <g
     transform="translate(510.00002,-1315.9718)"
     id="layer2" />
  <g
     transform="translate(510.00002,-1315.9718)"
     id="layer8" />
  <g
     transform="translate(510.00002,-2268.3339)"
     id="layer1" />
  <g
     transform="translate(510.00002,-1315.9718)"
     id="layer11">
    <rect
       width="24"
       height="24"
       x="-1340.0148"
       y="-510.00003"
       transform="matrix(0,-1,1,0,0,0)"
       id="rect16078-7"
       style="opacity:0;fill:#ffffff;fill-opacity:1;stroke:none;display:inline" />
    <path
       d="M -502.83584,1329.9851 C -506.80079,1329.9558 -510.01849,1326.7861 -509.98825,1322.9388 C -509.95801,1319.0914 -506.6914,1315.9774 -502.72645,1316.0067 C -502.3519,1315.9915 -501.99917,1316.1777 -501.80899,1316.4912 C -501.61882,1316.8047 -501.62215,1317.1944 -501.81766,1317.5048 C -502.01317,1317.8151 -502.36904,1317.9957 -502.74328,1317.9745 C -505.60972,1317.9532 -507.93847,1320.1737 -507.96033,1322.9551 C -507.9822,1325.7365 -505.69386,1327.9962 -502.82743,1328.0174 C -501.62016,1328.0263 -500.68519,1327.7254 -499.71403,1327.0294 C -499.26092,1326.7047 -498.62236,1326.798 -498.28775,1327.2376 C -497.95315,1327.6773 -498.04922,1328.2969 -498.50233,1328.6216 C -499.7833,1329.5396 -501.24344,1329.9969 -502.83584,1329.9851 z"
       id="path16081-8"
       style="fill:#bebebe;fill-opacity:1;stroke:none;stroke-width:7.54025269;stroke-linecap:round;stroke-miterlimit:4;stroke-dasharray:none;stroke-dashoffset:0;stroke-opacity:1;display:inline" />
    <g
       transform="translate(-2006.0147,1130.9767)"
       id="g8273">
      <path
         d="M -2.9426732,177.1502 A 22.98097,22.98097 0 1 1 -45.144753,167.01835"
         transform="matrix(0.134669,0,0,-0.134669,1515.2235,213.2549)"
         id="path2818-0-1"
         style="fill:none;stroke:#bebebe;stroke-width:14.85122967;stroke-linecap:round;stroke-miterlimit:4;stroke-dasharray:none;stroke-dashoffset:0;stroke-opacity:1;display:inline" />
      <path
         d="M -9.6795633,195.80814 A 22.98097,22.98097 0 0 1 -25.455933,202.41711"
         transform="matrix(0.134669,0,0,-0.134669,1510.4435,217.26755)"
         id="path2820-3-5"
         style="fill:none;stroke:#bebebe;stroke-width:14.85122967;stroke-linecap:round;stroke-miterlimit:4;stroke-dasharray:none;stroke-dashoffset:0;stroke-opacity:1;display:inline" />
      <path
         d="M -25.809396,156.45789 A 22.98097,22.98097 0 1 1 -30.403842,201.95588"
         transform="matrix(0.1524322,0,0,-0.1443861,1519.4664,218.60162)"
         id="path2822-7-3"
         style="fill:none;stroke:#bebebe;stroke-width:13.4812088;stroke-linecap:round;stroke-miterlimit:4;stroke-dasharray:none;stroke-dashoffset:0;stroke-opacity:1;display:inline" />
      <path
         d="M 1510.0147,195.99884 L 1515.601,195.99884"
         id="path16154-9"
         style="fill:none;stroke:#bebebe;stroke-width:1.99999988;stroke-linecap:round;stroke-linejoin:miter;marker:none;stroke-miterlimit:4;stroke-dasharray:none;stroke-dashoffset:0;stroke-opacity:1;visibility:visible;display:inline;overflow:visible;enable-background:accumulate" />
    </g>
    <path
       d="M -499.19733,1328.8032 C -499.49819,1328.8047 -499.78422,1328.6766 -499.97827,1328.4535 C -502.89615,1325.1835 -504.18615,1321.2354 -503.7428,1316.9314 C -503.6875,1316.3895 -503.18994,1315.9937 -502.63146,1316.0474 C -502.07298,1316.101 -501.66507,1316.5838 -501.72037,1317.1257 C -502.11415,1320.9485 -501.04808,1324.2473 -498.45644,1327.1516 C -498.1848,1327.4386 -498.11299,1327.854 -498.27327,1328.2113 C -498.43354,1328.5685 -498.79577,1328.8006 -499.19733,1328.8032 z"
       id="path7499"
       style="fill:#bebebe;fill-opacity:1;stroke:none;stroke-width:3.16859722;stroke-linecap:round;stroke-miterlimit:4;stroke-dasharray:none;stroke-dashoffset:0;stroke-opacity:1;display:inline" />
    <path
       d="M -496,1340 L -496,1332 L -487,1336 L -496,1340 z"
       id="path8279"
       style="fill:#bebebe;fill-opacity:1;fill-rule:nonzero;stroke:none;stroke-width:2;marker:none;visibility:visible;display:inline;overflow:visible;enable-background:accumulate" />
    <rect
       width="2"
       height="8"
       x="-502.00003"
       y="1332"
       id="rect8281"
       style="fill:#bebebe;fill-opacity:1;fill-rule:nonzero;stroke:none;stroke-width:2;marker:none;visibility:visible;display:inline;overflow:visible;enable-background:accumulate" />
    <rect
       width="2"
       height="8"
       x="-506.00003"
       y="1332"
       id="rect8283"
       style="fill:#bebebe;fill-opacity:1;fill-rule:nonzero;stroke:none;stroke-width:2;marker:none;visibility:visible;display:inline;overflow:visible;enable-background:accumulate" />
  </g>
  <g
     transform="translate(510.00002,-1315.9718)"
     id="layer4" />
  <g
     transform="translate(510.00002,-1315.9718)"
     id="layer12" />
  <g
     transform="translate(510.00002,-1315.9718)"
     id="layer9" />
  <g
     transform="translate(510.00002,-1315.9718)"
     id="layer10" />
  <g
     transform="translate(510.00002,-1315.9718)"
     id="layer6" />
</svg>
