<?xml version="1.0" encoding="UTF-8" standalone="no"?>
<!-- Created with Inkscape (http://www.inkscape.org/) -->
<svg
   xmlns:svg="http://www.w3.org/2000/svg"
   xmlns="http://www.w3.org/2000/svg"
   version="1.0"
   width="24.185474"
   height="24"
   id="svg7384">
  <title
     id="title9167">Moblin Icon Theme</title>
  <defs
     id="defs7386" />
  <g
     transform="translate(482.00004,-1104.0818)"
     id="layer3" />
  <g
     transform="translate(482.00004,-1104.0818)"
     id="layer5" />
  <g
     transform="translate(482.00004,-1104.0818)"
     id="layer7" />
  <g
     transform="translate(482.00004,-1104.0818)"
     id="layer2" />
  <g
     transform="translate(482.00004,-1104.0818)"
     id="layer8" />
  <g
     transform="translate(482.00004,-2056.444)"
     id="layer1" />
  <g
     transform="translate(482.00004,-1104.0818)"
     id="layer11">
    <rect
       width="24"
       height="24"
       x="-481.87259"
       y="1104.0818"
       id="rect9659"
       style="opacity:0;fill:#ffffff;fill-opacity:1;stroke:none;display:inline" />
    <path
       d="M -477.625,1106 C -480.03145,1106 -482,1107.9685 -482,1110.375 L -482,1121.7188 C -482,1124.1252 -480.03147,1126.0938 -477.625,1126.0938 L -462.1875,1126.0938 C -459.78105,1126.0938 -457.81251,1124.1252 -457.8125,1121.7188 L -457.8125,1110.375 C -457.8125,1107.9685 -459.78106,1106 -462.1875,1106 L -477.625,1106 z M -477.625,1108 L -462.1875,1108 C -460.85447,1108 -459.8125,1109.042 -459.8125,1110.375 L -459.8125,1121.7188 C -459.81251,1123.0519 -460.85445,1124.0938 -462.1875,1124.0938 L -477.625,1124.0938 C -478.95803,1124.0938 -480,1123.0518 -480,1121.7188 L -480,1110.375 C -480,1109.042 -478.95805,1108 -477.625,1108 z"
       id="rect9661"
       style="fill:#bebebe;fill-opacity:1;stroke:none;stroke-width:1.99999988;stroke-linecap:butt;stroke-linejoin:miter;marker:none;stroke-miterlimit:4;stroke-dasharray:none;stroke-dashoffset:0;stroke-opacity:1;visibility:visible;display:inline;overflow:visible;enable-background:accumulate" />
    <path
       d="M -474.02671,1111.8976 L -474.02671,1120 L -465.92433,1116.0563 L -474.02671,1111.8976 z"
       id="path9668"
       style="fill:#bebebe;fill-opacity:1;fill-rule:nonzero;stroke:none;stroke-width:2;marker:none;visibility:visible;display:inline;overflow:visible;enable-background:accumulate" />
  </g>
  <g
     transform="translate(482.00004,-1104.0818)"
     id="layer4" />
  <g
     transform="translate(482.00004,-1104.0818)"
     id="layer12" />
  <g
     transform="translate(482.00004,-1104.0818)"
     id="layer9" />
  <g
     transform="translate(482.00004,-1104.0818)"
     id="layer10" />
  <g
     transform="translate(482.00004,-1104.0818)"
     id="layer6" />
</svg>
