<?xml version="1.0" encoding="UTF-8" standalone="no"?>
<!-- Created with Inkscape (http://www.inkscape.org/) -->
<svg
   xmlns:svg="http://www.w3.org/2000/svg"
   xmlns="http://www.w3.org/2000/svg"
   version="1.0"
   width="24.185474"
   height="24"
   id="svg7384">
  <title
     id="title9167">Moblin Icon Theme</title>
  <defs
     id="defs7386" />
  <g
     transform="translate(482.00004,-1154.0818)"
     id="layer3" />
  <g
     transform="translate(482.00004,-1154.0818)"
     id="layer5" />
  <g
     transform="translate(482.00004,-1154.0818)"
     id="layer7" />
  <g
     transform="translate(482.00004,-1154.0818)"
     id="layer2" />
  <g
     transform="translate(482.00004,-1154.0818)"
     id="layer8" />
  <g
     transform="translate(482.00004,-2106.444)"
     id="layer1" />
  <g
     transform="translate(482.00004,-1154.0818)"
     id="layer11">
    <rect
       width="24"
       height="24"
       x="-481.87259"
       y="1154.0818"
       id="rect9659"
       style="opacity:0;fill:#ffffff;fill-opacity:1;stroke:none;display:inline" />
    <path
       d="M -477.625,1156 C -480.03145,1156 -482,1157.9685 -482,1160.375 L -482,1171.7188 C -482,1174.1252 -480.03147,1176.0938 -477.625,1176.0938 L -462.1875,1176.0938 C -459.78105,1176.0938 -457.81251,1174.1252 -457.8125,1171.7188 L -457.8125,1160.375 C -457.8125,1157.9685 -459.78106,1156 -462.1875,1156 L -477.625,1156 z M -477.625,1158 L -462.1875,1158 C -460.85447,1158 -459.8125,1159.042 -459.8125,1160.375 L -459.8125,1171.7188 C -459.81251,1173.0519 -460.85445,1174.0938 -462.1875,1174.0938 L -477.625,1174.0938 C -478.95803,1174.0938 -480,1173.0518 -480,1171.7188 L -480,1160.375 C -480,1159.042 -478.95805,1158 -477.625,1158 z"
       id="rect9661"
       style="fill:#bebebe;fill-opacity:1;stroke:none;stroke-width:1.99999988;stroke-linecap:butt;stroke-linejoin:miter;marker:none;stroke-miterlimit:4;stroke-dasharray:none;stroke-dashoffset:0;stroke-opacity:1;visibility:visible;display:inline;overflow:visible;enable-background:accumulate" />
    <path
       d="M -474.02671,1161.8976 L -474.02671,1170 L -465.92433,1166.0563 L -474.02671,1161.8976 z"
       id="path9668"
       style="fill:#bebebe;fill-opacity:1;fill-rule:nonzero;stroke:none;stroke-width:2;marker:none;visibility:visible;display:inline;overflow:visible;enable-background:accumulate" />
  </g>
  <g
     transform="translate(482.00004,-1154.0818)"
     id="layer4" />
  <g
     transform="translate(482.00004,-1154.0818)"
     id="layer9" />
  <g
     transform="translate(482.00004,-1154.0818)"
     id="layer10" />
  <g
     transform="translate(482.00004,-1154.0818)"
     id="layer6" />
</svg>
