<?xml version="1.0" encoding="UTF-8" standalone="no"?>
<!-- Created with Inkscape (http://www.inkscape.org/) -->
<svg
   xmlns:svg="http://www.w3.org/2000/svg"
   xmlns="http://www.w3.org/2000/svg"
   version="1.0"
   width="24"
   height="24"
   id="svg7384">
  <title
     id="title9167">Moblin Icon Theme</title>
  <defs
     id="defs7386" />
  <g
     transform="translate(395.9364,-956)"
     id="layer3" />
  <g
     transform="translate(395.9364,-956)"
     id="layer5" />
  <g
     transform="translate(395.9364,-956)"
     id="layer7" />
  <g
     transform="translate(395.9364,-956)"
     id="layer2" />
  <g
     transform="translate(395.9364,-956)"
     id="layer8" />
  <g
     transform="translate(395.9364,-1908.3622)"
     id="layer1" />
  <g
     transform="translate(395.9364,-956)"
     id="layer11">
    <rect
       width="24"
       height="24"
       x="-395.9364"
       y="956"
       id="rect15689"
       style="opacity:0;fill:#ffffff;fill-opacity:1;stroke:none;display:inline" />
    <path
       d="M -391.25,964.96875 C -392.28039,965.08198 -393.05354,965.96364 -393.03125,967 L -393.03125,974.71875 C -393.04145,975.44002 -392.6625,976.11091 -392.0395,976.47453 C -391.41651,976.83814 -390.64599,976.83814 -390.023,976.47453 C -389.4,976.11091 -389.02105,975.44002 -389.03125,974.71875 L -389.03125,967 C -389.01884,966.42401 -389.2554,965.87064 -389.68034,965.48161 C -390.10528,965.09257 -390.67734,964.90567 -391.25,964.96875 z"
       id="path15697"
       style="fill:#bebebe;fill-opacity:1;stroke:none;stroke-width:4;stroke-linecap:round;stroke-linejoin:miter;marker:none;stroke-miterlimit:4;stroke-dasharray:none;stroke-dashoffset:0;stroke-opacity:1;visibility:visible;display:inline;overflow:visible;enable-background:accumulate" />
    <path
       d="M -387.64513,960.0086 C -390.92476,960.34762 -393.32961,963.3733 -392.99487,966.69499 L -392.81275,968.70087 L -388.85167,968.28593 L -389.05655,966.27997 C -389.17293,965.12508 -388.37559,964.13834 -387.23537,964.02043 C -386.09514,963.90253 -385.1208,964.71014 -385.00441,965.86496 C -384.99559,965.95261 -384.98165,965.98463 -384.98165,966.0725 L -384.98165,968.07838 L -381.02057,968.07838 L -381.02057,966.0725 C -381.02057,965.86894 -381.02296,965.65225 -381.04334,965.44994 C -381.37808,962.12825 -384.36551,959.66958 -387.64513,960.0086 z"
       id="path15699"
       style="fill:#bebebe;fill-opacity:1;stroke:none;stroke-width:5.45608425;stroke-linecap:square;stroke-linejoin:miter;marker:none;stroke-miterlimit:4;stroke-dasharray:none;stroke-dashoffset:0;stroke-opacity:1;visibility:visible;display:inline;overflow:visible;enable-background:accumulate" />
    <path
       d="M -378.8125,957.90625 C -378.99296,957.90972 -379.13715,957.92854 -379.25,957.9375 C -379.27409,957.93941 -379.3243,957.93625 -379.34375,957.9375 C -379.39471,957.93597 -379.44912,957.93137 -379.5,957.9375 L -379.5,957.96875 C -379.93036,958.03278 -380.28826,958.21626 -380.53125,958.4375 C -380.77424,958.65874 -380.92519,958.89325 -381.09375,959.0625 L -381.15625,959.125 L -381.1875,959.1875 L -381.21875,959.25 C -381.48443,959.66041 -381.64493,960.1107 -381.65625,960.53125 C -381.668,960.95093 -381.61769,961.30622 -381.625,961.40625 L -381.625,961.4375 C -381.62549,961.45631 -381.62553,961.48024 -381.625,961.5 L -381.625,969.8125 L -381.625,969.84375 C -381.66578,970.33249 -381.81738,970.70845 -382.03125,970.90625 L -382.0625,970.9375 C -382.31025,971.20024 -382.722,971.33209 -383.15625,971.28125 C -383.57439,971.23229 -383.94618,971.04128 -384.125,970.75 C -384.13054,970.73679 -384.15041,970.73118 -384.15625,970.71875 C -384.16989,970.68974 -384.17289,970.65022 -384.1875,970.625 L -384.21875,970.625 L -384.21875,970.59375 C -384.28682,970.49963 -384.33797,970.12203 -384.375,969.53125 L -384.375,969.5 L -384.375,965.71875 L -384.375,965.6875 C -384.37461,965.66301 -384.37382,965.64956 -384.375,965.625 L -384.375,965.59375 L -384.375,965.5625 C -384.51661,964.39179 -385.42199,963.3886 -386.65625,963.25 C -387.36653,963.18204 -388.20224,963.36161 -388.8125,963.96875 C -388.84755,963.99096 -388.86981,963.96081 -388.90625,964 L -389.21875,964.375 L -389.125,964.46875 C -389.45214,964.94929 -389.65856,965.47235 -389.625,966.03125 C -389.62489,966.04089 -389.6253,966.06286 -389.625,966.09375 C -389.61083,967.55316 -389.66187,969.04842 -389.59375,970.59375 C -389.59328,970.60448 -389.59423,970.61427 -389.59375,970.625 C -389.59375,970.6347 -389.59401,970.64655 -389.59375,970.65625 L -389.59375,970.6875 C -389.30202,973.81838 -386.65338,976.33362 -383.53125,976.53125 C -383.45844,976.53593 -383.45065,976.5341 -383.5,976.53125 C -380.52972,976.79804 -377.64966,974.91276 -376.75,972.0625 C -376.51024,971.29544 -376.40975,970.54134 -376.375,969.8125 C -376.37452,969.79382 -376.37447,969.76985 -376.375,969.75 L -376.375,960.40625 L -376.375,960.375 C -376.37461,960.35053 -376.37382,960.33706 -376.375,960.3125 L -376.375,960.28125 L -376.375,960.25 C -376.50591,959.17188 -377.32006,958.27775 -378.4375,958.03125 L -378.5,957.90625 L -378.65625,957.90625 L -378.6875,957.90625 C -378.7236,957.90456 -378.7753,957.90446 -378.8125,957.90625 z M -378.78125,958.90625 C -378.77149,958.90734 -378.75969,958.90498 -378.75,958.90625 C -378.00935,959.00346 -377.47441,959.62551 -377.375,960.34375 C -377.37363,960.35363 -377.3762,960.36508 -377.375,960.375 L -377.375,969.75 L -377.375,969.78125 C -377.40733,970.45937 -377.48185,971.12331 -377.6875,971.78125 C -378.43762,974.15773 -380.94968,975.7547 -383.4375,975.53125 C -383.50765,975.5272 -383.52096,975.52789 -383.46875,975.53125 C -386.07373,975.36635 -388.33496,973.22973 -388.59375,970.625 C -388.59477,970.61477 -388.5928,970.60399 -388.59375,970.59375 C -388.66167,969.08964 -388.61044,967.5621 -388.625,966.0625 C -388.6251,966.05239 -388.62465,966.03141 -388.625,966 L -388.625,965.96875 C -388.65218,965.51616 -388.49296,965.0678 -388.15625,964.75 L -388.0625,964.65625 C -387.7157,964.34693 -387.20849,964.20613 -386.75,964.25 C -386.00424,964.33374 -385.47498,964.93338 -385.375,965.65625 C -385.37477,965.661 -385.37476,965.68255 -385.375,965.6875 L -385.375,969.5 L -385.375,969.53125 L -385.375,969.5625 C -385.34054,970.13494 -385.3687,970.65699 -385.0625,971.125 C -385.05997,971.12938 -385.06201,971.15741 -385.0625,971.15625 L -385.03125,971.15625 C -385.02506,971.1652 -385.0377,971.17858 -385.03125,971.1875 C -384.66866,971.84595 -383.97626,972.19988 -383.28125,972.28125 C -382.59476,972.36163 -381.85807,972.15563 -381.34375,971.625 C -381.33737,971.61842 -381.31881,971.63169 -381.3125,971.625 L -381.1875,971.5 L -381.1875,971.28125 C -380.89345,970.87299 -380.66273,970.43553 -380.625,969.90625 L -380.625,969.875 L -380.625,969.84375 L -380.625,969.8125 L -380.625,961.5 C -380.62416,961.48858 -380.62564,961.48006 -380.625,961.46875 C -380.60628,961.14044 -380.66425,960.84821 -380.65625,960.5625 C -380.65072,960.35698 -380.5835,960.0552 -380.40625,959.78125 C -380.39394,959.76889 -380.38695,959.76225 -380.375,959.75 L -380.34375,959.75 C -380.3377,959.74374 -380.34971,959.72498 -380.34375,959.71875 L -380.3125,959.65625 C -380.14575,959.47758 -379.96812,959.30073 -379.84375,959.1875 C -379.69025,959.04775 -379.58729,958.96909 -379.375,958.9375 L -379.3125,958.9375 L -379.28125,958.9375 C -379.21261,958.9331 -379.13568,958.94301 -379.0625,958.9375 C -378.96776,958.93037 -378.87978,958.90723 -378.78125,958.90625 z"
       id="path15748"
       style="font-size:medium;font-style:normal;font-variant:normal;font-weight:normal;font-stretch:normal;text-indent:0;text-align:start;text-decoration:none;line-height:normal;letter-spacing:normal;word-spacing:normal;text-transform:none;direction:ltr;block-progression:tb;writing-mode:lr-tb;text-anchor:start;fill:#bebebe;fill-opacity:1;stroke:none;stroke-width:1;stroke-linecap:square;stroke-linejoin:miter;marker:none;stroke-miterlimit:4;stroke-dashoffset:0;stroke-opacity:1;visibility:visible;display:inline;overflow:visible;enable-background:accumulate;font-family:Bitstream Vera Sans;-inkscape-font-specification:Bitstream Vera Sans" />
    <path
       d="M -378.78125,958.34375 L -379.3125,958.5 L -379.40625,958.53125 C -379.86277,958.64814 -380.34874,958.93222 -380.65625,959.4375 L -380.71875,959.40625 C -380.743,959.43675 -380.72879,959.46872 -380.75,959.5 C -380.98132,959.84121 -381.05381,960.20863 -381.0625,960.53125 C -381.07199,960.88345 -381.04554,961.20602 -381.0625,961.4375 L -381.0625,961.46875 C -381.06249,964.24732 -381.0625,967.03401 -381.0625,969.8125 C -381.0625,969.82291 -381.0625,969.83334 -381.0625,969.84375 C -381.10506,970.43774 -381.25905,971.0053 -381.625,971.34375 L -381.65625,971.375 C -382.45421,972.22124 -384.09569,971.98671 -384.65625,970.96875 L -384.6875,970.9375 C -384.9151,970.62282 -384.90136,970.13987 -384.9375,969.53125 C -384.9375,969.52083 -384.9375,969.51042 -384.9375,969.5 C -384.93751,968.22923 -384.9375,966.95829 -384.9375,965.6875 L -384.9375,965.65625 L -384.9375,965.625 C -385.04852,964.70734 -385.7626,963.91987 -386.71875,963.8125 C -387.30502,963.75642 -387.97585,963.90114 -388.4375,964.375 L -388.4375,964.40625 C -388.44502,964.41406 -388.46133,964.39826 -388.46875,964.40625 C -388.93295,964.83334 -389.10658,965.44201 -389.0625,966.03125 C -389.06239,966.0415 -389.06261,966.05225 -389.0625,966.0625 C -389.04703,967.5596 -389.10058,969.08841 -389.03125,970.625 C -388.76606,973.47109 -386.3083,975.80475 -383.46875,975.96875 C -380.76871,976.22665 -378.12876,974.49229 -377.3125,971.90625 L -377.28125,971.875 C -377.05882,971.16344 -376.97056,970.47461 -376.9375,969.78125 L -376.9375,969.75 C -376.93751,966.62182 -376.9375,963.5032 -376.9375,960.375 L -376.9375,960.34375 L -376.9375,960.3125 C -377.04886,959.39538 -377.76162,958.60704 -378.71875,958.5 L -378.75,958.5 L -378.78125,958.5 L -378.78125,958.34375 z M -379.21875,959.5 C -379.11903,959.49533 -378.98759,959.50039 -378.84375,959.5 C -378.40058,959.54956 -377.99276,959.98242 -377.9375,960.4375 C -377.9375,963.53442 -377.93751,966.62185 -377.9375,969.71875 C -377.9375,969.72918 -377.9375,969.73957 -377.9375,969.75 C -377.9689,970.36705 -378.06055,970.98769 -378.25,971.59375 C -378.91492,973.70031 -381.17554,975.21008 -383.375,975 L -383.375,974.96875 L -383.40625,974.96875 C -385.71286,974.83553 -387.80034,972.86366 -388.03125,970.5625 C -388.03171,970.5522 -388.0308,970.54155 -388.03125,970.53125 C -388.09655,969.04732 -388.04576,967.55819 -388.0625,966.03125 L -388.0625,966 L -388.0625,965.96875 C -388.09211,965.63315 -387.96495,965.31337 -387.75,965.125 L -387.75,965.09375 L -387.71875,965.09375 C -387.51127,964.87023 -387.21495,964.77699 -386.84375,964.8125 C -386.40004,964.86233 -385.99251,965.2953 -385.9375,965.75 C -385.9375,967.01036 -385.93751,968.27089 -385.9375,969.53125 L -385.9375,969.5625 C -385.906,970.0594 -385.99486,970.79611 -385.53125,971.46875 C -385.52262,971.48128 -385.50903,971.48752 -385.5,971.5 C -384.57354,973.11563 -382.223,973.42577 -380.9375,972.0625 C -380.27561,971.45035 -380.10931,970.5991 -380.0625,969.875 L -380.0625,969.84375 C -380.0625,967.06526 -380.06249,964.27857 -380.0625,961.5 C -380.0625,961.48959 -380.0625,961.47916 -380.0625,961.46875 C -380.04089,961.12145 -380.06917,960.81016 -380.0625,960.5625 C -380.0556,960.3063 -380.00902,960.16048 -379.90625,960.03125 L -379.875,960 L -379.875,959.9375 C -379.77785,959.74444 -379.51315,959.58932 -379.21875,959.5 z"
       id="path15744"
       style="font-size:medium;font-style:normal;font-variant:normal;font-weight:normal;font-stretch:normal;text-indent:0;text-align:start;text-decoration:none;line-height:normal;letter-spacing:normal;word-spacing:normal;text-transform:none;direction:ltr;block-progression:tb;writing-mode:lr-tb;text-anchor:start;fill:#bebebe;fill-opacity:1;stroke:none;stroke-width:1;stroke-linecap:square;stroke-linejoin:miter;marker:none;stroke-miterlimit:4;stroke-dashoffset:0;stroke-opacity:1;visibility:visible;display:inline;overflow:visible;enable-background:accumulate;font-family:Bitstream Vera Sans;-inkscape-font-specification:Bitstream Vera Sans" />
    <path
       d="M -383.03125,963.28125 C -384.13583,963.29848 -385.01728,964.20792 -385,965.3125 L -385,970.0625 C -385.0102,970.78377 -384.63125,971.45466 -384.00825,971.81828 C -383.38526,972.18189 -382.61474,972.18189 -381.99175,971.81828 C -381.36875,971.45466 -380.9898,970.78377 -381,970.0625 L -381,965.3125 C -380.99153,964.77123 -381.20282,964.24963 -381.5856,963.86685 C -381.96838,963.48407 -382.48998,963.27278 -383.03125,963.28125 z"
       id="path15705"
       style="fill:#bebebe;fill-opacity:1;stroke:none;stroke-width:4;stroke-linecap:round;stroke-linejoin:miter;marker:none;stroke-miterlimit:4;stroke-dasharray:none;stroke-dashoffset:0;stroke-opacity:1;visibility:visible;display:inline;overflow:visible;enable-background:accumulate" />
  </g>
  <g
     transform="translate(395.9364,-956)"
     id="layer4" />
  <g
     transform="translate(395.9364,-956)"
     id="layer12" />
  <g
     transform="translate(395.9364,-956)"
     id="layer9" />
  <g
     transform="translate(395.9364,-956)"
     id="layer10" />
  <g
     transform="translate(395.9364,-956)"
     id="layer6" />
</svg>
