<?xml version="1.0" encoding="UTF-8" standalone="no"?>
<!-- Created with Inkscape (http://www.inkscape.org/) -->
<svg
   xmlns:svg="http://www.w3.org/2000/svg"
   xmlns="http://www.w3.org/2000/svg"
   version="1.0"
   width="24"
   height="24"
   id="svg7384">
  <title
     id="title9167">Moblin Icon Theme</title>
  <defs
     id="defs7386" />
  <g
     transform="translate(395.9364,-1006)"
     id="layer3" />
  <g
     transform="translate(395.9364,-1006)"
     id="layer5" />
  <g
     transform="translate(395.9364,-1006)"
     id="layer7" />
  <g
     transform="translate(395.9364,-1006)"
     id="layer2" />
  <g
     transform="translate(395.9364,-1006)"
     id="layer8" />
  <g
     transform="translate(395.9364,-1958.3622)"
     id="layer1" />
  <g
     transform="translate(395.9364,-1006)"
     id="layer11">
    <rect
       width="24"
       height="24"
       x="-395.9364"
       y="1006"
       id="rect15689"
       style="opacity:0;fill:#ffffff;fill-opacity:1;stroke:none;display:inline" />
    <path
       d="M -391.25,1014.9688 C -392.28037,1015.082 -393.05352,1015.9637 -393.03125,1017 L -393.03125,1024.7188 C -393.04145,1025.4401 -392.6625,1026.111 -392.0395,1026.4746 C -391.41651,1026.8382 -390.64599,1026.8382 -390.023,1026.4746 C -389.4,1026.111 -389.02105,1025.4401 -389.03125,1024.7188 L -389.03125,1017 C -389.01886,1016.424 -389.25542,1015.8707 -389.68036,1015.4816 C -390.1053,1015.0926 -390.67735,1014.9057 -391.25,1014.9688 L -391.25,1014.9688 z"
       id="path15697"
       style="fill:#bebebe;fill-opacity:1;stroke:none;stroke-width:4;stroke-linecap:round;stroke-linejoin:miter;marker:none;stroke-miterlimit:4;stroke-dasharray:none;stroke-dashoffset:0;stroke-opacity:1;visibility:visible;display:inline;overflow:visible;enable-background:accumulate" />
    <path
       d="M -387.64513,1010.0086 C -390.92476,1010.3476 -393.32961,1013.3733 -392.99487,1016.695 L -392.81275,1018.7009 L -388.85167,1018.2859 L -389.05655,1016.28 C -389.17293,1015.1251 -388.37559,1014.1383 -387.23537,1014.0204 C -386.09514,1013.9025 -385.1208,1014.7101 -385.00441,1015.865 C -384.99559,1015.9526 -384.98165,1015.9846 -384.98165,1016.0725 L -384.98165,1018.0784 L -381.02057,1018.0784 L -381.02057,1016.0725 C -381.02057,1015.8689 -381.02296,1015.6522 -381.04334,1015.4499 C -381.37808,1012.1283 -384.36551,1009.6696 -387.64513,1010.0086 z"
       id="path15699"
       style="fill:#bebebe;fill-opacity:1;stroke:none;stroke-width:5.45608425;stroke-linecap:square;stroke-linejoin:miter;marker:none;stroke-miterlimit:4;stroke-dasharray:none;stroke-dashoffset:0;stroke-opacity:1;visibility:visible;display:inline;overflow:visible;enable-background:accumulate" />
    <path
       d="M -378.8125,1007.9062 C -378.993,1007.9097 -379.13714,1007.9285 -379.25,1007.9375 C -379.27409,1007.9394 -379.3243,1007.9363 -379.34375,1007.9375 C -379.39488,1007.936 -379.44932,1007.9314 -379.5,1007.9375 L -379.5,1007.9688 C -379.93038,1008.0328 -380.28826,1008.2163 -380.53125,1008.4375 C -380.77424,1008.6587 -380.9252,1008.8933 -381.09375,1009.0625 L -381.15625,1009.125 L -381.1875,1009.1875 L -381.21875,1009.25 C -381.48441,1009.6604 -381.64493,1010.1107 -381.65625,1010.5312 C -381.668,1010.9509 -381.61769,1011.3063 -381.625,1011.4062 L -381.625,1011.4375 C -381.62549,1011.4564 -381.62553,1011.4802 -381.625,1011.5 L -381.625,1019.8125 L -381.625,1019.8438 C -381.66578,1020.3325 -381.81739,1020.7085 -382.03125,1020.9062 L -382.0625,1020.9375 C -382.31025,1021.2003 -382.722,1021.3321 -383.15625,1021.2812 C -383.57439,1021.2323 -383.94618,1021.0413 -384.125,1020.75 C -384.13052,1020.7369 -384.15042,1020.7311 -384.15625,1020.7188 C -384.16985,1020.6898 -384.17284,1020.6503 -384.1875,1020.625 L -384.21875,1020.625 L -384.21875,1020.5938 C -384.28688,1020.4995 -384.33797,1020.1221 -384.375,1019.5312 L -384.375,1019.5 L -384.375,1015.7188 L -384.375,1015.6875 C -384.37461,1015.663 -384.37382,1015.6496 -384.375,1015.625 L -384.375,1015.5938 L -384.375,1015.5625 C -384.51662,1014.3918 -385.42202,1013.3887 -386.65625,1013.25 C -387.36649,1013.1821 -388.20223,1013.3616 -388.8125,1013.9688 C -388.84758,1013.991 -388.86978,1013.9608 -388.90625,1014 L -389.21875,1014.375 L -389.125,1014.4688 C -389.45214,1014.9493 -389.65856,1015.4723 -389.625,1016.0312 C -389.62489,1016.0408 -389.6253,1016.0629 -389.625,1016.0938 C -389.61083,1017.5532 -389.66187,1019.0484 -389.59375,1020.5938 C -389.59328,1020.6045 -389.59423,1020.6143 -389.59375,1020.625 C -389.59375,1020.6347 -389.59401,1020.6465 -389.59375,1020.6562 L -389.59375,1020.6875 C -389.30202,1023.8184 -386.65338,1026.3336 -383.53125,1026.5312 C -383.45326,1026.5369 -383.44806,1026.5342 -383.5,1026.5312 C -380.52972,1026.7981 -377.64966,1024.9128 -376.75,1022.0625 C -376.51024,1021.2954 -376.40975,1020.5414 -376.375,1019.8125 C -376.37452,1019.7939 -376.37447,1019.7698 -376.375,1019.75 L -376.375,1010.4062 L -376.375,1010.375 C -376.37461,1010.3505 -376.37382,1010.3371 -376.375,1010.3125 L -376.375,1010.2812 L -376.375,1010.25 C -376.5076,1009.158 -377.32793,1008.2305 -378.46875,1008 L -378.53125,1007.9062 L -378.65625,1007.9062 L -378.6875,1007.9062 C -378.72491,1007.9044 -378.77595,1007.9045 -378.8125,1007.9062 z M -378.78125,1008.9062 C -378.77149,1008.9073 -378.75969,1008.905 -378.75,1008.9062 C -378.00937,1009.0034 -377.47441,1009.6255 -377.375,1010.3438 C -377.37477,1010.3485 -377.37476,1010.37 -377.375,1010.375 L -377.375,1019.75 L -377.375,1019.7812 C -377.40733,1020.4594 -377.48184,1021.1233 -377.6875,1021.7812 C -378.43762,1024.1578 -380.94968,1025.7547 -383.4375,1025.5312 C -383.51024,1025.5271 -383.52614,1025.5271 -383.46875,1025.5312 C -386.07373,1025.3663 -388.33497,1023.2297 -388.59375,1020.625 C -388.59477,1020.6148 -388.5928,1020.604 -388.59375,1020.5938 C -388.66167,1019.0897 -388.61044,1017.5621 -388.625,1016.0625 C -388.6251,1016.0524 -388.62465,1016.0314 -388.625,1016 L -388.625,1015.9688 C -388.65218,1015.5161 -388.49295,1015.0678 -388.15625,1014.75 L -388.0625,1014.6562 C -387.71573,1014.347 -387.20852,1014.2062 -386.75,1014.25 C -386.00422,1014.3338 -385.47497,1014.9334 -385.375,1015.6562 C -385.37477,1015.661 -385.37477,1015.6826 -385.375,1015.6875 L -385.375,1019.5 L -385.375,1019.5312 L -385.375,1019.5625 C -385.34054,1020.135 -385.36865,1020.657 -385.0625,1021.125 C -385.06004,1021.1293 -385.06208,1021.1572 -385.0625,1021.1562 L -385.03125,1021.1562 L -385.03125,1021.1875 C -384.66866,1021.8459 -383.97626,1022.1999 -383.28125,1022.2812 C -382.59476,1022.3616 -381.85806,1022.1557 -381.34375,1021.625 C -381.33737,1021.6184 -381.31881,1021.6317 -381.3125,1021.625 L -381.1875,1021.5 L -381.1875,1021.2812 C -380.89344,1020.873 -380.66273,1020.4355 -380.625,1019.9062 L -380.625,1019.875 L -380.625,1019.8438 L -380.625,1019.8125 L -380.625,1011.5 C -380.62416,1011.4886 -380.62564,1011.4801 -380.625,1011.4688 C -380.60628,1011.1405 -380.66425,1010.8482 -380.65625,1010.5625 C -380.65072,1010.357 -380.58351,1010.0552 -380.40625,1009.7812 C -380.39394,1009.7689 -380.38695,1009.7623 -380.375,1009.75 L -380.34375,1009.75 C -380.3377,1009.7437 -380.34971,1009.725 -380.34375,1009.7188 L -380.3125,1009.6562 C -380.14575,1009.4776 -379.96812,1009.3007 -379.84375,1009.1875 C -379.69025,1009.0477 -379.58726,1008.9691 -379.375,1008.9375 L -379.3125,1008.9375 L -379.28125,1008.9375 C -379.2028,1008.9325 -379.11542,1008.9436 -379.03125,1008.9375 C -378.94642,1008.9314 -378.86888,1008.9071 -378.78125,1008.9062 z"
       id="path15748"
       style="font-size:medium;font-style:normal;font-variant:normal;font-weight:normal;font-stretch:normal;text-indent:0;text-align:start;text-decoration:none;line-height:normal;letter-spacing:normal;word-spacing:normal;text-transform:none;direction:ltr;block-progression:tb;writing-mode:lr-tb;text-anchor:start;fill:#bebebe;fill-opacity:1;stroke:none;stroke-width:1;stroke-linecap:square;stroke-linejoin:miter;marker:none;stroke-miterlimit:4;stroke-dashoffset:0;stroke-opacity:1;visibility:visible;display:inline;overflow:visible;enable-background:accumulate;font-family:Bitstream Vera Sans;-inkscape-font-specification:Bitstream Vera Sans" />
    <path
       d="M -378.78125,1008.3438 L -379.3125,1008.5 L -379.40625,1008.5312 C -379.86277,1008.6481 -380.34874,1008.9322 -380.65625,1009.4375 L -380.71875,1009.4062 C -380.743,1009.4367 -380.72879,1009.4687 -380.75,1009.5 C -380.98132,1009.8412 -381.05381,1010.2086 -381.0625,1010.5312 C -381.07199,1010.8835 -381.04554,1011.206 -381.0625,1011.4375 L -381.0625,1011.4688 C -381.06249,1014.2473 -381.0625,1017.034 -381.0625,1019.8125 C -381.0625,1019.8229 -381.0625,1019.8333 -381.0625,1019.8438 C -381.10506,1020.4377 -381.25905,1021.0053 -381.625,1021.3438 L -381.65625,1021.375 C -382.45421,1022.2212 -384.09569,1021.9867 -384.65625,1020.9688 L -384.6875,1020.9375 C -384.9151,1020.6228 -384.90136,1020.1399 -384.9375,1019.5312 C -384.9375,1019.5208 -384.9375,1019.5104 -384.9375,1019.5 C -384.93751,1018.2292 -384.9375,1016.9583 -384.9375,1015.6875 L -384.9375,1015.6562 L -384.9375,1015.625 C -385.04852,1014.7073 -385.7626,1013.9199 -386.71875,1013.8125 C -387.30502,1013.7564 -387.97585,1013.9011 -388.4375,1014.375 L -388.4375,1014.4062 C -388.44502,1014.4141 -388.46133,1014.3983 -388.46875,1014.4062 C -388.93295,1014.8333 -389.10658,1015.442 -389.0625,1016.0312 C -389.06239,1016.0415 -389.06261,1016.0522 -389.0625,1016.0625 C -389.04703,1017.5596 -389.10058,1019.0884 -389.03125,1020.625 C -388.76606,1023.4711 -386.3083,1025.8047 -383.46875,1025.9688 C -380.76871,1026.2266 -378.12876,1024.4923 -377.3125,1021.9062 L -377.28125,1021.875 C -377.05882,1021.1634 -376.97056,1020.4746 -376.9375,1019.7812 L -376.9375,1019.75 C -376.93751,1016.6218 -376.9375,1013.5032 -376.9375,1010.375 L -376.9375,1010.3438 L -376.9375,1010.3125 C -377.04886,1009.3954 -377.76162,1008.607 -378.71875,1008.5 L -378.75,1008.5 L -378.78125,1008.5 L -378.78125,1008.3438 z M -379.21875,1009.5 C -379.11903,1009.4953 -378.98759,1009.5004 -378.84375,1009.5 C -378.40058,1009.5496 -377.99276,1009.9824 -377.9375,1010.4375 C -377.9375,1013.5344 -377.93751,1016.6219 -377.9375,1019.7188 C -377.9375,1019.7292 -377.9375,1019.7396 -377.9375,1019.75 C -377.9689,1020.3671 -378.06055,1020.9877 -378.25,1021.5938 C -378.91492,1023.7003 -381.17554,1025.2101 -383.375,1025 L -383.375,1024.9688 L -383.40625,1024.9688 C -385.71286,1024.8355 -387.80034,1022.8637 -388.03125,1020.5625 C -388.03171,1020.5522 -388.0308,1020.5416 -388.03125,1020.5312 C -388.09655,1019.0473 -388.04576,1017.5582 -388.0625,1016.0312 L -388.0625,1016 L -388.0625,1015.9688 C -388.09211,1015.6331 -387.96495,1015.3134 -387.75,1015.125 L -387.75,1015.0938 L -387.71875,1015.0938 C -387.51127,1014.8702 -387.21495,1014.777 -386.84375,1014.8125 C -386.40004,1014.8623 -385.99251,1015.2953 -385.9375,1015.75 C -385.9375,1017.0104 -385.93751,1018.2709 -385.9375,1019.5312 L -385.9375,1019.5625 C -385.906,1020.0594 -385.99486,1020.7961 -385.53125,1021.4688 C -385.52262,1021.4813 -385.50903,1021.4875 -385.5,1021.5 C -384.57354,1023.1156 -382.223,1023.4258 -380.9375,1022.0625 C -380.27561,1021.4504 -380.10931,1020.5991 -380.0625,1019.875 L -380.0625,1019.8438 C -380.0625,1017.0653 -380.06249,1014.2786 -380.0625,1011.5 C -380.0625,1011.4896 -380.0625,1011.4792 -380.0625,1011.4688 C -380.04089,1011.1214 -380.06917,1010.8102 -380.0625,1010.5625 C -380.0556,1010.3063 -380.00902,1010.1605 -379.90625,1010.0312 L -379.875,1010 L -379.875,1009.9375 C -379.77785,1009.7444 -379.51315,1009.5893 -379.21875,1009.5 z"
       id="path15744"
       style="font-size:medium;font-style:normal;font-variant:normal;font-weight:normal;font-stretch:normal;text-indent:0;text-align:start;text-decoration:none;line-height:normal;letter-spacing:normal;word-spacing:normal;text-transform:none;direction:ltr;block-progression:tb;writing-mode:lr-tb;text-anchor:start;fill:#bebebe;fill-opacity:1;stroke:none;stroke-width:1;stroke-linecap:square;stroke-linejoin:miter;marker:none;stroke-miterlimit:4;stroke-dashoffset:0;stroke-opacity:1;visibility:visible;display:inline;overflow:visible;enable-background:accumulate;font-family:Bitstream Vera Sans;-inkscape-font-specification:Bitstream Vera Sans" />
    <path
       d="M -383.03125,1013.2812 C -384.13585,1013.2984 -385.01731,1014.2079 -385,1015.3125 L -385,1020.0625 C -385.0102,1020.7838 -384.63125,1021.4547 -384.00825,1021.8183 C -383.38526,1022.1819 -382.61474,1022.1819 -381.99175,1021.8183 C -381.36875,1021.4547 -380.9898,1020.7838 -381,1020.0625 L -381,1015.3125 C -380.99152,1014.7712 -381.2028,1014.2496 -381.58558,1013.8668 C -381.96837,1013.484 -382.48997,1013.2727 -383.03125,1013.2812 z"
       id="path15705"
       style="fill:#bebebe;fill-opacity:1;stroke:none;stroke-width:4;stroke-linecap:round;stroke-linejoin:miter;marker:none;stroke-miterlimit:4;stroke-dasharray:none;stroke-dashoffset:0;stroke-opacity:1;visibility:visible;display:inline;overflow:visible;enable-background:accumulate" />
  </g>
  <g
     transform="translate(395.9364,-1006)"
     id="layer4" />
  <g
     transform="translate(395.9364,-1006)"
     id="layer9" />
  <g
     transform="translate(395.9364,-1006)"
     id="layer10" />
  <g
     transform="translate(395.9364,-1006)"
     id="layer6" />
</svg>
