<?xml version="1.0" encoding="UTF-8" standalone="no"?>
<!-- Created with Inkscape (http://www.inkscape.org/) -->
<svg
   xmlns:svg="http://www.w3.org/2000/svg"
   xmlns="http://www.w3.org/2000/svg"
   version="1.0"
   width="24"
   height="24.025135"
   id="svg7384">
  <title
     id="title9167">Moblin Icon Theme</title>
  <defs
     id="defs7386" />
  <g
     transform="translate(537.99995,-1044)"
     id="layer3" />
  <g
     transform="translate(537.99995,-1044)"
     id="layer5" />
  <g
     transform="translate(537.99995,-1044)"
     id="layer7" />
  <g
     transform="translate(537.99995,-1044)"
     id="layer2" />
  <g
     transform="translate(537.99995,-1044)"
     id="layer8" />
  <g
     transform="translate(537.99995,-1996.3622)"
     id="layer1" />
  <g
     transform="translate(537.99995,-1044)"
     id="layer11">
    <rect
       width="24"
       height="24"
       x="-537.99994"
       y="1044"
       id="rect10588-8"
       style="opacity:0;fill:#ffffff;fill-opacity:1;stroke:none;display:inline" />
    <g
       transform="translate(-584.99995,676.63782)"
       id="g7352">
      <path
         d="M 390.10279,208.092 A 7.875,7.875 0 1 1 387.7975,218.75925"
         transform="matrix(1.1428571,0,0,1.1428571,-391.84213,136.10188)"
         id="path10596-3"
         style="fill:none;stroke:#bebebe;stroke-width:1.75;marker:none;stroke-miterlimit:4;stroke-dasharray:none;stroke-opacity:1;visibility:visible;display:inline;overflow:visible;enable-background:accumulate" />
      <path
         d="M 402.375,214.625 A 7.875,7.875 0 1 1 386.625,214.625 A 7.875,7.875 0 1 1 402.375,214.625 z"
         transform="matrix(0.379028,0,0,0.379028,-90.511548,300.0387)"
         id="path10598-3"
         style="fill:none;stroke:#bebebe;stroke-width:5.2766552;marker:none;stroke-miterlimit:4;stroke-dasharray:none;stroke-opacity:1;visibility:visible;display:inline;overflow:visible;enable-background:accumulate" />
      <path
         d="M 54.09222,386.29269 L 56.909029,383.49554"
         id="path10604-8"
         style="fill:none;stroke:#bebebe;stroke-width:1;stroke-linecap:round;stroke-linejoin:miter;stroke-miterlimit:4;stroke-dasharray:none;stroke-opacity:1" />
      <path
         d="M 63.935902,376.46867 L 61.119093,379.26582"
         id="path10607-0"
         style="fill:none;stroke:#bebebe;stroke-width:1;stroke-linecap:round;stroke-linejoin:miter;stroke-miterlimit:4;stroke-dasharray:none;stroke-opacity:1" />
      <path
         d="M 55.531249,387.39918 L 57.528122,383.9683"
         id="path10609-4"
         style="fill:none;stroke:#bebebe;stroke-width:1;stroke-linecap:round;stroke-linejoin:miter;stroke-miterlimit:4;stroke-dasharray:none;stroke-opacity:1" />
      <path
         d="M 62.496873,375.36218 L 60.5,378.79306"
         id="path10611-9"
         style="fill:none;stroke:#bebebe;stroke-width:1;stroke-linecap:round;stroke-linejoin:miter;stroke-miterlimit:4;stroke-dasharray:none;stroke-opacity:1" />
    </g>
    <path
       d="M -534.51519,1045.1121 C -536.84514,1047.4421 -536.80088,1051.1791 -534.47099,1053.5091 L -534.47099,1053.5091 C -532.43961,1055.5404 -532.18684,1058.6866 -533.69755,1061 C -533.36705,1060.7812 -533.03862,1060.5178 -532.74738,1060.2266 C -530.41743,1057.8966 -530.4175,1054.1154 -532.74741,1051.7855 L -532.74741,1051.7855 C -534.77879,1049.7541 -535.07568,1046.6522 -533.56504,1044.3387 C -533.89555,1044.5575 -534.22397,1044.8209 -534.51522,1045.1121 L -534.51519,1045.1121 z"
       id="path16233-0"
       style="fill:#bebebe;fill-opacity:1;stroke:none;stroke-width:2;marker:none;visibility:visible;display:inline;overflow:visible;enable-background:accumulate" />
  </g>
  <g
     transform="translate(537.99995,-1044)"
     id="layer4" />
  <g
     transform="translate(537.99995,-1044)"
     id="layer12" />
  <g
     transform="translate(537.99995,-1044)"
     id="layer9" />
  <g
     transform="translate(537.99995,-1044)"
     id="layer10" />
  <g
     transform="translate(537.99995,-1044)"
     id="layer6" />
</svg>
