<?xml version="1.0" encoding="UTF-8" standalone="no"?>
<!-- Created with Inkscape (http://www.inkscape.org/) -->
<svg
   xmlns:svg="http://www.w3.org/2000/svg"
   xmlns="http://www.w3.org/2000/svg"
   version="1.0"
   width="24"
   height="24.025135"
   id="svg7384">
  <title
     id="title9167">Moblin Icon Theme</title>
  <defs
     id="defs7386" />
  <g
     transform="translate(538,-1094)"
     id="layer3" />
  <g
     transform="translate(538,-1094)"
     id="layer5" />
  <g
     transform="translate(538,-1094)"
     id="layer7" />
  <g
     transform="translate(538,-1094)"
     id="layer2" />
  <g
     transform="translate(538,-1094)"
     id="layer8" />
  <g
     transform="translate(538,-2046.3622)"
     id="layer1" />
  <g
     transform="translate(538,-1094)"
     id="layer11">
    <rect
       width="24"
       height="24"
       x="-538"
       y="1094"
       id="rect10588-8"
       style="opacity:0;fill:#ffffff;fill-opacity:1;stroke:none;display:inline" />
    <g
       transform="translate(-585,726.63782)"
       id="g7352">
      <path
         d="M 390.10279,208.092 A 7.875,7.875 0 1 1 387.7975,218.75925"
         transform="matrix(1.1428571,0,0,1.1428571,-391.84213,136.10188)"
         id="path10596-3"
         style="fill:none;stroke:#bebebe;stroke-width:1.75;marker:none;stroke-miterlimit:4;stroke-dasharray:none;stroke-opacity:1;visibility:visible;display:inline;overflow:visible;enable-background:accumulate" />
      <path
         d="M 402.375,214.625 A 7.875,7.875 0 1 1 386.625,214.625 A 7.875,7.875 0 1 1 402.375,214.625 z"
         transform="matrix(0.379028,0,0,0.379028,-90.511548,300.0387)"
         id="path10598-3"
         style="fill:none;stroke:#bebebe;stroke-width:5.2766552;marker:none;stroke-miterlimit:4;stroke-dasharray:none;stroke-opacity:1;visibility:visible;display:inline;overflow:visible;enable-background:accumulate" />
      <path
         d="M 54.09222,386.29269 L 56.909029,383.49554"
         id="path10604-8"
         style="fill:none;stroke:#bebebe;stroke-width:1;stroke-linecap:round;stroke-linejoin:miter;stroke-miterlimit:4;stroke-dasharray:none;stroke-opacity:1" />
      <path
         d="M 63.935902,376.46867 L 61.119093,379.26582"
         id="path10607-0"
         style="fill:none;stroke:#bebebe;stroke-width:1;stroke-linecap:round;stroke-linejoin:miter;stroke-miterlimit:4;stroke-dasharray:none;stroke-opacity:1" />
      <path
         d="M 55.531249,387.39918 L 57.528122,383.9683"
         id="path10609-4"
         style="fill:none;stroke:#bebebe;stroke-width:1;stroke-linecap:round;stroke-linejoin:miter;stroke-miterlimit:4;stroke-dasharray:none;stroke-opacity:1" />
      <path
         d="M 62.496873,375.36218 L 60.5,378.79306"
         id="path10611-9"
         style="fill:none;stroke:#bebebe;stroke-width:1;stroke-linecap:round;stroke-linejoin:miter;stroke-miterlimit:4;stroke-dasharray:none;stroke-opacity:1" />
    </g>
    <path
       d="M -534.51524,1095.1121 C -536.84519,1097.4421 -536.80093,1101.1791 -534.47104,1103.5091 L -534.47104,1103.5091 C -532.43966,1105.5404 -532.18689,1108.6866 -533.6976,1111 C -533.3671,1110.7812 -533.03867,1110.5178 -532.74743,1110.2266 C -530.41748,1107.8966 -530.41755,1104.1154 -532.74746,1101.7855 L -532.74746,1101.7855 C -534.77884,1099.7541 -535.07573,1096.6522 -533.56509,1094.3387 C -533.8956,1094.5575 -534.22402,1094.8209 -534.51527,1095.1121 L -534.51524,1095.1121 z"
       id="path16233-0"
       style="fill:#bebebe;fill-opacity:1;stroke:none;stroke-width:2;marker:none;visibility:visible;display:inline;overflow:visible;enable-background:accumulate" />
  </g>
  <g
     transform="translate(538,-1094)"
     id="layer4" />
  <g
     transform="translate(538,-1094)"
     id="layer9" />
  <g
     transform="translate(538,-1094)"
     id="layer10" />
  <g
     transform="translate(538,-1094)"
     id="layer6" />
</svg>
