<?xml version="1.0" encoding="UTF-8" standalone="no"?>
<!-- Created with Inkscape (http://www.inkscape.org/) -->
<svg
   xmlns:svg="http://www.w3.org/2000/svg"
   xmlns="http://www.w3.org/2000/svg"
   version="1.0"
   width="24"
   height="24"
   id="svg7384">
  <title
     id="title9167">Moblin Icon Theme</title>
  <defs
     id="defs7386" />
  <g
     transform="translate(566,-1284)"
     id="layer3" />
  <g
     transform="translate(566,-1284)"
     id="layer5" />
  <g
     transform="translate(566,-1284)"
     id="layer7" />
  <g
     transform="translate(566,-1284)"
     id="layer2" />
  <g
     transform="translate(566,-1284)"
     id="layer8" />
  <g
     transform="translate(566,-2236.3622)"
     id="layer1" />
  <g
     transform="translate(566,-1284)"
     id="layer11">
    <rect
       width="24"
       height="24"
       x="-566"
       y="1284"
       id="rect8020"
       style="opacity:0;fill:#ffffff;fill-opacity:1;stroke:none;display:inline" />
    <path
       d="M -555.99993,1297.9846 C -558.74898,1297.9846 -560.98452,1295.7491 -560.98452,1292.9999 C -560.98452,1290.2509 -558.74898,1288.0154 -555.99993,1288.0154 C -553.25089,1288.0154 -551.01535,1290.2509 -551.01535,1292.9999 C -551.01535,1295.7491 -553.25089,1297.9846 -555.99993,1297.9846 z M -555.99993,1296.0154 C -554.33301,1296.0154 -552.98457,1294.6669 -552.98457,1292.9999 C -552.98457,1291.3332 -554.33301,1289.9846 -555.99993,1289.9846 C -557.66686,1289.9846 -559.0153,1291.3332 -559.0153,1292.9999 C -559.0153,1294.6669 -557.66686,1296.0154 -555.99993,1296.0154 z"
       id="path8022"
       style="fill:#bebebe;fill-opacity:1;stroke:none;stroke-width:1.01563144;stroke-linecap:round;stroke-linejoin:miter;marker:none;stroke-miterlimit:4.30000019;stroke-dasharray:none;stroke-dashoffset:0;stroke-opacity:1;visibility:visible;display:inline;overflow:visible;enable-background:accumulate" />
    <path
       d="M -545.125,1298 L -563.125,1300.0625 C -563.67728,1300.1315 -564.06904,1300.6352 -564,1301.1875 C -563.93096,1301.7398 -563.42728,1302.1315 -562.875,1302.0625 L -544.875,1300 C -544.32272,1299.931 -543.93096,1299.4273 -544,1298.875 C -544.06904,1298.3227 -544.57272,1297.931 -545.125,1298 L -545.125,1298 z"
       id="path8026"
       style="fill:#bebebe;fill-opacity:1;fill-rule:nonzero;stroke:none;stroke-width:2;stroke-linecap:round;stroke-linejoin:round;marker:none;stroke-miterlimit:4.30000019;stroke-dasharray:none;stroke-dashoffset:0;stroke-opacity:1;visibility:visible;display:inline;overflow:visible;enable-background:accumulate" />
    <path
       d="M -557,1306 L -551,1306 L -554,1302 L -557,1306 z"
       id="path8028"
       style="fill:#bebebe;fill-opacity:1;fill-rule:nonzero;stroke:none;stroke-width:2;marker:none;visibility:visible;display:inline;overflow:visible;enable-background:accumulate" />
  </g>
  <g
     transform="translate(566,-1284)"
     id="layer4" />
  <g
     transform="translate(566,-1284)"
     id="layer12" />
  <g
     transform="translate(566,-1284)"
     id="layer9" />
  <g
     transform="translate(566,-1284)"
     id="layer10" />
  <g
     transform="translate(566,-1284)"
     id="layer6" />
</svg>
