<?xml version="1.0" encoding="UTF-8" standalone="no"?>
<!-- Created with Inkscape (http://www.inkscape.org/) -->
<svg
   xmlns:svg="http://www.w3.org/2000/svg"
   xmlns="http://www.w3.org/2000/svg"
   version="1.0"
   width="24"
   height="24.000017"
   id="svg7384">
  <title
     id="title9167">Moblin Icon Theme</title>
  <defs
     id="defs7386" />
  <g
     transform="translate(591.9999,-1284)"
     id="layer3" />
  <g
     transform="translate(591.9999,-1284)"
     id="layer5" />
  <g
     transform="translate(591.9999,-1284)"
     id="layer7" />
  <g
     transform="translate(591.9999,-1284)"
     id="layer2" />
  <g
     transform="translate(591.9999,-1284)"
     id="layer8" />
  <g
     transform="translate(591.9999,-2236.3622)"
     id="layer1" />
  <g
     transform="translate(591.9999,-1284)"
     id="layer11">
    <rect
       width="24"
       height="24"
       x="-591.99988"
       y="1284"
       id="rect7210"
       style="opacity:0;fill:#ffffff;fill-opacity:1;stroke:none;display:inline" />
    <path
       d="M -572.99993,1307.9846 C -575.74898,1307.9846 -577.98452,1305.7491 -577.98452,1302.9999 C -577.98452,1300.2509 -575.74898,1298.0154 -572.99993,1298.0154 C -570.25089,1298.0154 -568.01535,1300.2509 -568.01535,1302.9999 C -568.01535,1305.7491 -570.25089,1307.9846 -572.99993,1307.9846 z M -572.99993,1306.0154 C -571.33301,1306.0154 -569.98457,1304.6669 -569.98457,1302.9999 C -569.98457,1301.3332 -571.33301,1299.9846 -572.99993,1299.9846 C -574.66686,1299.9846 -576.0153,1301.3332 -576.0153,1302.9999 C -576.0153,1304.6669 -574.66686,1306.0154 -572.99993,1306.0154 z"
       id="path7219"
       style="fill:#bebebe;fill-opacity:1;stroke:none;stroke-width:1.01563144;stroke-linecap:round;stroke-linejoin:miter;marker:none;stroke-miterlimit:4.30000019;stroke-dasharray:none;stroke-dashoffset:0;stroke-opacity:1;visibility:visible;display:inline;overflow:visible;enable-background:accumulate" />
    <path
       d="M -589.09375,1284 C -589.58428,1284.0776 -589.94355,1284.5034 -589.9375,1285 L -589.9375,1296.5938 C -590.04341,1296.8434 -590.04341,1297.1254 -589.9375,1297.375 L -589.9375,1306.9375 C -589.9426,1307.2981 -589.75312,1307.6336 -589.44163,1307.8154 C -589.13013,1307.9972 -588.74487,1307.9972 -588.43337,1307.8154 C -588.12188,1307.6336 -587.9324,1307.2981 -587.9375,1306.9375 L -587.9375,1297.6562 L -572.59375,1291.9375 C -572.2019,1291.7919 -571.94192,1291.418 -571.94192,1291 C -571.94192,1290.582 -572.2019,1290.2081 -572.59375,1290.0625 L -588.59375,1284.0625 C -588.75235,1283.9993 -588.92448,1283.9778 -589.09375,1284 z M -587.9375,1286.4375 L -575.78125,1291 L -587.9375,1295.5312 L -587.9375,1286.4375 z"
       id="path7221"
       style="fill:#bebebe;fill-opacity:1;stroke:none;stroke-width:2;stroke-linecap:round;stroke-linejoin:round;marker:none;stroke-miterlimit:4.30000019;stroke-dasharray:none;stroke-dashoffset:0;stroke-opacity:1;visibility:visible;display:inline;overflow:visible;enable-background:accumulate" />
  </g>
  <g
     transform="translate(591.9999,-1284)"
     id="layer4" />
  <g
     transform="translate(591.9999,-1284)"
     id="layer12" />
  <g
     transform="translate(591.9999,-1284)"
     id="layer9" />
  <g
     transform="translate(591.9999,-1284)"
     id="layer10" />
  <g
     transform="translate(591.9999,-1284)"
     id="layer6" />
</svg>
