<?xml version="1.0" encoding="UTF-8" standalone="no"?>
<!-- Created with Inkscape (http://www.inkscape.org/) -->
<svg
   xmlns:svg="http://www.w3.org/2000/svg"
   xmlns="http://www.w3.org/2000/svg"
   version="1.0"
   width="24"
   height="24"
   id="svg7384">
  <title
     id="title9167">Moblin Icon Theme</title>
  <defs
     id="defs7386" />
  <g
     transform="translate(487.97313,-1028)"
     id="layer3" />
  <g
     transform="translate(487.97313,-1028)"
     id="layer5" />
  <g
     transform="translate(487.97313,-1028)"
     id="layer7" />
  <g
     transform="translate(487.97313,-1028)"
     id="layer2" />
  <g
     transform="translate(487.97313,-1028)"
     id="layer8" />
  <g
     transform="translate(487.97313,-1980.3622)"
     id="layer1" />
  <g
     transform="translate(487.97313,-1028)"
     id="layer11">
    <rect
       width="24"
       height="24"
       x="463.97314"
       y="1028"
       transform="scale(-1,1)"
       id="rect6444"
       style="opacity:0;fill:#ffffff;fill-opacity:1;stroke:none;display:inline" />
    <path
       d="M -483,1030 C -484.6447,1030 -486,1031.3553 -486,1033 L -486,1045 C -486,1046.6447 -484.6447,1048 -483,1048 L -471,1048 C -469.3553,1048 -468,1046.6447 -468,1045 L -468,1033 C -468,1031.3553 -469.3553,1030 -471,1030 L -483,1030 z M -483,1032 L -471,1032 C -470.4287,1032 -470,1032.4287 -470,1033 L -470,1045 C -470,1045.5713 -470.4287,1046 -471,1046 L -483,1046 C -483.5713,1046 -484,1045.5713 -484,1045 L -484,1033 C -484,1032.4287 -483.5713,1032 -483,1032 z"
       id="rect6468"
       style="fill:#bebebe;fill-opacity:1;fill-rule:nonzero;stroke:none;stroke-width:1.99999952;stroke-linecap:round;stroke-linejoin:miter;marker:none;stroke-miterlimit:4;stroke-dasharray:none;stroke-dashoffset:0;stroke-opacity:1;visibility:visible;display:inline;overflow:visible;enable-background:accumulate" />
  </g>
  <g
     transform="translate(487.97313,-1028)"
     id="layer4" />
  <g
     transform="translate(487.97313,-1028)"
     id="layer9" />
  <g
     transform="translate(487.97313,-1028)"
     id="layer10" />
  <g
     transform="translate(487.97313,-1028)"
     id="layer6" />
</svg>
