<?xml version="1.0" encoding="UTF-8" standalone="no"?>
<!-- Created with Inkscape (http://www.inkscape.org/) -->
<svg
   xmlns:svg="http://www.w3.org/2000/svg"
   xmlns="http://www.w3.org/2000/svg"
   version="1.0"
   width="24"
   height="24"
   id="svg7384">
  <title
     id="title9167">Moblin Icon Theme</title>
  <defs
     id="defs7386" />
  <g
     transform="translate(592,-1028)"
     id="layer3" />
  <g
     transform="translate(592,-1028)"
     id="layer5" />
  <g
     transform="translate(592,-1028)"
     id="layer7" />
  <g
     transform="translate(592,-1028)"
     id="layer2" />
  <g
     transform="translate(592,-1028)"
     id="layer8" />
  <g
     transform="translate(592,-1980.3622)"
     id="layer1" />
  <g
     transform="translate(592,-1028)"
     id="layer11">
    <rect
       width="24"
       height="24"
       x="568"
       y="1028"
       transform="scale(-1,1)"
       id="rect6505-4"
       style="opacity:0;fill:#ffffff;fill-opacity:1;stroke:none;display:inline" />
    <path
       d="M -587.15625,1030 C -588.7213,1030 -590,1031.2787 -590,1032.8438 L -590,1047.1875 C -590,1048.7525 -588.72122,1050.0312 -587.15625,1050.0312 L -574.84375,1050.0312 C -573.27877,1050.0312 -572,1048.7525 -572,1047.1875 L -572,1040.0312 C -571.9949,1039.6706 -572.18438,1039.3351 -572.49588,1039.1533 C -572.80737,1038.9715 -573.19263,1038.9715 -573.50412,1039.1533 C -573.81562,1039.3351 -574.0051,1039.6706 -574,1040.0312 L -574,1047.1875 C -574,1047.679 -574.35211,1048.0312 -574.84375,1048.0312 L -587.15625,1048.0312 C -587.64788,1048.0312 -588,1047.6791 -588,1047.1875 L -588,1032.8438 C -588,1032.3522 -587.64782,1032 -587.15625,1032 L -579.9375,1032 C -579.57687,1032.0051 -579.24143,1031.8156 -579.05962,1031.5041 C -578.87782,1031.1926 -578.87782,1030.8074 -579.05962,1030.4959 C -579.24143,1030.1844 -579.57687,1029.9949 -579.9375,1030 L -587.15625,1030 z"
       id="rect6568-8"
       style="fill:#bebebe;fill-opacity:1;stroke:none;stroke-width:1.99999952;stroke-linecap:round;stroke-linejoin:miter;marker:none;stroke-miterlimit:4;stroke-dashoffset:0;stroke-opacity:1;visibility:visible;display:inline;overflow:visible;enable-background:accumulate" />
    <path
       d="M -585.49462,1032.9854 C -586.31715,1032.9854 -587.0149,1033.6831 -587.0149,1034.5057 C -587.0149,1035.3282 -586.31715,1035.9906 -585.49462,1035.9906 C -584.67209,1035.9906 -584.0097,1035.3282 -584.0097,1034.5057 C -584.0097,1033.6831 -584.67209,1032.9854 -585.49462,1032.9854 z M -585.49462,1034.0107 C -585.21316,1034.0107 -584.99965,1034.2242 -584.99965,1034.5057 C -584.99965,1034.7871 -585.21315,1035.0007 -585.49462,1035.0007 C -585.77608,1035.0007 -585.9896,1034.7872 -585.9896,1034.5057 C -585.9896,1034.2242 -585.77609,1034.0107 -585.49462,1034.0107 z"
       id="path6571-8"
       style="fill:#bebebe;fill-opacity:1;stroke:none;stroke-width:0.8838827;stroke-linecap:round;stroke-linejoin:miter;marker:none;stroke-miterlimit:4;stroke-dasharray:none;stroke-dashoffset:0;stroke-opacity:1;visibility:visible;display:inline;overflow:visible;enable-background:accumulate" />
    <path
       d="M -581.49461,1032.9854 C -582.31714,1032.9854 -583.01489,1033.6831 -583.01489,1034.5057 C -583.01489,1035.3282 -582.31714,1035.9906 -581.49461,1035.9906 C -580.67208,1035.9906 -580.00969,1035.3282 -580.00969,1034.5057 C -580.00969,1033.6831 -580.67208,1032.9854 -581.49461,1032.9854 z M -581.49461,1034.0107 C -581.21315,1034.0107 -580.99964,1034.2242 -580.99964,1034.5057 C -580.99964,1034.7871 -581.21314,1035.0007 -581.49461,1035.0007 C -581.77607,1035.0007 -581.98959,1034.7872 -581.98959,1034.5057 C -581.98959,1034.2242 -581.77608,1034.0107 -581.49461,1034.0107 z"
       id="path6573-0"
       style="fill:#bebebe;fill-opacity:1;stroke:none;stroke-width:0.8838827;stroke-linecap:round;stroke-linejoin:miter;marker:none;stroke-miterlimit:4;stroke-dasharray:none;stroke-dashoffset:0;stroke-opacity:1;visibility:visible;display:inline;overflow:visible;enable-background:accumulate" />
    <path
       d="M -572.96875,1028 C -575.71552,1028 -577.9375,1030.222 -577.9375,1032.9688 C -577.9375,1035.7155 -575.71552,1037.9375 -572.96875,1037.9375 C -570.22198,1037.9375 -568,1035.7155 -568,1032.9688 C -568,1030.222 -570.22198,1028 -572.96875,1028 z M -572.96875,1029.0312 C -572.24684,1029.0393 -572.26699,1030.6319 -571.6875,1031.0625 C -571.10801,1031.4931 -569.55948,1031.0298 -569.34375,1031.7188 C -569.12802,1032.4077 -570.67581,1032.8783 -570.90625,1033.5625 C -571.13669,1034.2467 -570.19267,1035.5507 -570.78125,1035.9688 C -571.36983,1036.3868 -572.30934,1035.0702 -573.03125,1035.0625 C -573.75316,1035.0545 -574.70176,1036.3368 -575.28125,1035.9062 C -575.86074,1035.4757 -574.90927,1034.2202 -575.125,1033.5312 C -575.34073,1032.8423 -576.85544,1032.3092 -576.625,1031.625 C -576.39456,1030.9408 -574.86983,1031.4493 -574.28125,1031.0312 C -573.69267,1030.6132 -573.69066,1029.0235 -572.96875,1029.0312 z"
       id="path5985-1-5"
       style="fill:#bebebe;fill-opacity:1;stroke:none;stroke-width:2;marker:none;visibility:visible;display:inline;overflow:visible;enable-background:accumulate" />
    <path
       d="M -585.625,1041 C -585.90114,1041.0259 -586.10401,1041.2707 -586.07812,1041.5469 C -586.05224,1041.823 -585.80739,1042.0259 -585.53125,1042 L -576.5,1042 C -576.31968,1042.0026 -576.15196,1041.9078 -576.06106,1041.7521 C -575.97015,1041.5963 -575.97015,1041.4037 -576.06106,1041.2479 C -576.15196,1041.0922 -576.31968,1040.9974 -576.5,1041 L -585.53125,1041 C -585.56243,1040.9971 -585.59382,1040.9971 -585.625,1041 L -585.625,1041 z"
       id="path5587"
       style="fill:#bebebe;fill-opacity:1;stroke:none;stroke-width:1px;stroke-linecap:round;stroke-linejoin:miter;stroke-opacity:1" />
    <path
       d="M -585.625,1044 C -585.90114,1044.0259 -586.10401,1044.2707 -586.07812,1044.5469 C -586.05224,1044.823 -585.80739,1045.0259 -585.53125,1045 L -576.5,1045 C -576.31968,1045.0026 -576.15196,1044.9078 -576.06106,1044.7521 C -575.97015,1044.5963 -575.97015,1044.4037 -576.06106,1044.2479 C -576.15196,1044.0922 -576.31968,1043.9974 -576.5,1044 L -585.53125,1044 C -585.56243,1043.9971 -585.59382,1043.9971 -585.625,1044 L -585.625,1044 z"
       id="path5591"
       style="fill:#bebebe;fill-opacity:1;stroke:none;stroke-width:1px;stroke-linecap:round;stroke-linejoin:miter;stroke-opacity:1" />
    <path
       d="M -585.625,1038 C -585.90114,1038.0259 -586.10401,1038.2707 -586.07812,1038.5469 C -586.05224,1038.823 -585.80739,1039.0259 -585.53125,1039 L -577.46875,1039 C -577.28843,1039.0026 -577.12071,1038.9078 -577.02981,1038.7521 C -576.9389,1038.5963 -576.9389,1038.4037 -577.02981,1038.2479 C -577.12071,1038.0922 -577.28843,1037.9974 -577.46875,1038 L -585.53125,1038 C -585.56243,1037.9971 -585.59382,1037.9971 -585.625,1038 z"
       id="path5595"
       style="fill:#bebebe;fill-opacity:1;stroke:none;stroke-width:1px;stroke-linecap:round;stroke-linejoin:miter;stroke-opacity:1" />
  </g>
  <g
     transform="translate(592,-1028)"
     id="layer4" />
  <g
     transform="translate(592,-1028)"
     id="layer9" />
  <g
     transform="translate(592,-1028)"
     id="layer10" />
  <g
     transform="translate(592,-1028)"
     id="layer6" />
</svg>
