<?xml version="1.0" encoding="UTF-8" standalone="no"?>
<!-- Created with Inkscape (http://www.inkscape.org/) -->
<svg
   xmlns:svg="http://www.w3.org/2000/svg"
   xmlns="http://www.w3.org/2000/svg"
   version="1.0"
   width="24"
   height="24"
   id="svg7384">
  <title
     id="title9167">Moblin Icon Theme</title>
  <defs
     id="defs7386" />
  <g
     transform="translate(618,-1028)"
     id="layer3" />
  <g
     transform="translate(618,-1028)"
     id="layer5" />
  <g
     transform="translate(618,-1028)"
     id="layer7" />
  <g
     transform="translate(618,-1028)"
     id="layer2" />
  <g
     transform="translate(618,-1028)"
     id="layer8" />
  <g
     transform="translate(618,-1980.3622)"
     id="layer1" />
  <g
     transform="translate(618,-1028)"
     id="layer11">
    <rect
       width="24"
       height="24"
       x="594"
       y="1028"
       transform="scale(-1,1)"
       id="rect5482"
       style="opacity:0;fill:#ffffff;fill-opacity:1;stroke:none;display:inline" />
    <path
       d="M -613.15625,1030 C -614.7213,1030 -616,1031.2787 -616,1032.8438 L -616,1045.25 C -616,1046.815 -614.72126,1048.1251 -613.15625,1048.125 L -600.84375,1048.125 C -599.27877,1048.125 -598,1046.815 -598,1045.25 L -598,1040.0625 C -597.9949,1039.7019 -598.18438,1039.3664 -598.49588,1039.1846 C -598.80737,1039.0028 -599.19263,1039.0028 -599.50412,1039.1846 C -599.81562,1039.3664 -600.0051,1039.7019 -600,1040.0625 L -600,1045.25 C -600,1045.7417 -600.35211,1046.125 -600.84375,1046.125 L -613.15625,1046.125 C -613.64784,1046.125 -614,1045.7416 -614,1045.25 L -614,1032.8438 C -614,1032.3522 -613.64782,1032 -613.15625,1032 L -606.03125,1032 C -605.67062,1032.0051 -605.33518,1031.8156 -605.15337,1031.5041 C -604.97157,1031.1926 -604.97157,1030.8074 -605.15337,1030.4959 C -605.33518,1030.1844 -605.67062,1029.9949 -606.03125,1030 L -613.15625,1030 z"
       id="path5486"
       style="fill:#bebebe;fill-opacity:1;stroke:none;stroke-width:1.99999952;stroke-linecap:round;stroke-linejoin:miter;marker:none;stroke-miterlimit:4;stroke-dashoffset:0;stroke-opacity:1;visibility:visible;display:inline;overflow:visible;enable-background:accumulate" />
    <path
       d="M -598.96875,1028 C -601.71552,1028 -603.9375,1030.222 -603.9375,1032.9688 C -603.9375,1035.7155 -601.71552,1037.9375 -598.96875,1037.9375 C -596.22198,1037.9375 -594,1035.7155 -594,1032.9688 C -594,1030.222 -596.22198,1028 -598.96875,1028 z M -598.96875,1029.0312 C -598.24684,1029.0393 -598.26699,1030.6319 -597.6875,1031.0625 C -597.10801,1031.4931 -595.55948,1031.0298 -595.34375,1031.7188 C -595.12802,1032.4077 -596.67581,1032.8783 -596.90625,1033.5625 C -597.13669,1034.2467 -596.19267,1035.5507 -596.78125,1035.9688 C -597.36983,1036.3868 -598.30934,1035.0702 -599.03125,1035.0625 C -599.75316,1035.0545 -600.70176,1036.3368 -601.28125,1035.9062 C -601.86074,1035.4757 -600.90927,1034.2202 -601.125,1033.5312 C -601.34073,1032.8423 -602.85544,1032.3092 -602.625,1031.625 C -602.39456,1030.9408 -600.86983,1031.4493 -600.28125,1031.0312 C -599.69267,1030.6132 -599.69066,1029.0235 -598.96875,1029.0312 z"
       id="path5985-1"
       style="fill:#bebebe;fill-opacity:1;stroke:none;stroke-width:2;marker:none;visibility:visible;display:inline;overflow:visible;enable-background:accumulate" />
  </g>
  <g
     transform="translate(618,-1028)"
     id="layer4" />
  <g
     transform="translate(618,-1028)"
     id="layer9" />
  <g
     transform="translate(618,-1028)"
     id="layer10" />
  <g
     transform="translate(618,-1028)"
     id="layer6" />
</svg>
