<?xml version="1.0" encoding="UTF-8" standalone="no"?>
<!-- Created with Inkscape (http://www.inkscape.org/) -->
<svg
   xmlns:svg="http://www.w3.org/2000/svg"
   xmlns="http://www.w3.org/2000/svg"
   version="1.0"
   width="24"
   height="24"
   id="svg7384">
  <title
     id="title9167">Moblin Icon Theme</title>
  <defs
     id="defs7386" />
  <g
     transform="translate(461.97313,-1028)"
     id="layer3" />
  <g
     transform="translate(461.97313,-1028)"
     id="layer5" />
  <g
     transform="translate(461.97313,-1028)"
     id="layer7" />
  <g
     transform="translate(461.97313,-1028)"
     id="layer2" />
  <g
     transform="translate(461.97313,-1028)"
     id="layer8" />
  <g
     transform="translate(461.97313,-1980.3622)"
     id="layer1" />
  <g
     transform="translate(461.97313,-1028)"
     id="layer11">
    <rect
       width="24"
       height="24"
       x="437.97314"
       y="1028"
       transform="scale(-1,1)"
       id="rect6452"
       style="opacity:0;fill:#ffffff;fill-opacity:1;stroke:none;display:inline" />
    <path
       d="M -455.46775,1032.9854 C -456.29028,1032.9854 -456.98803,1033.6831 -456.98803,1034.5057 C -456.98803,1035.3282 -456.29028,1035.9906 -455.46775,1035.9906 C -454.64522,1035.9906 -453.98283,1035.3282 -453.98283,1034.5057 C -453.98283,1033.6831 -454.64522,1032.9854 -455.46775,1032.9854 z M -455.46775,1034.0107 C -455.18629,1034.0107 -454.97278,1034.2242 -454.97278,1034.5057 C -454.97278,1034.7871 -455.18628,1035.0007 -455.46775,1035.0007 C -455.74921,1035.0007 -455.96273,1034.7872 -455.96273,1034.5057 C -455.96273,1034.2242 -455.74922,1034.0107 -455.46775,1034.0107 z"
       id="path6456"
       style="fill:#bebebe;fill-opacity:1;stroke:none;stroke-width:0.8838827;stroke-linecap:round;stroke-linejoin:miter;marker:none;stroke-miterlimit:4;stroke-dasharray:none;stroke-dashoffset:0;stroke-opacity:1;visibility:visible;display:inline;overflow:visible;enable-background:accumulate" />
    <path
       d="M -451.46774,1032.9854 C -452.29027,1032.9854 -452.98802,1033.6831 -452.98802,1034.5057 C -452.98802,1035.3282 -452.29027,1035.9906 -451.46774,1035.9906 C -450.64521,1035.9906 -449.98282,1035.3282 -449.98282,1034.5057 C -449.98282,1033.6831 -450.64521,1032.9854 -451.46774,1032.9854 z M -451.46774,1034.0107 C -451.18628,1034.0107 -450.97277,1034.2242 -450.97277,1034.5057 C -450.97277,1034.7871 -451.18627,1035.0007 -451.46774,1035.0007 C -451.7492,1035.0007 -451.96272,1034.7872 -451.96272,1034.5057 C -451.96272,1034.2242 -451.74921,1034.0107 -451.46774,1034.0107 z"
       id="path6458"
       style="fill:#bebebe;fill-opacity:1;stroke:none;stroke-width:0.8838827;stroke-linecap:round;stroke-linejoin:miter;marker:none;stroke-miterlimit:4;stroke-dasharray:none;stroke-dashoffset:0;stroke-opacity:1;visibility:visible;display:inline;overflow:visible;enable-background:accumulate" />
    <path
       d="M -455.59375,1041 C -455.86989,1041.0259 -456.07276,1041.2707 -456.04687,1041.5469 C -456.02099,1041.823 -455.77614,1042.0259 -455.5,1042 L -446.46875,1042 C -446.28843,1042.0026 -446.12071,1041.9078 -446.02981,1041.7521 C -445.9389,1041.5963 -445.9389,1041.4037 -446.02981,1041.2479 C -446.12071,1041.0922 -446.28843,1040.9974 -446.46875,1041 L -455.5,1041 C -455.53118,1040.9971 -455.56257,1040.9971 -455.59375,1041 L -455.59375,1041 z"
       id="path6462"
       style="fill:#bebebe;fill-opacity:1;stroke:none;stroke-width:1px;stroke-linecap:round;stroke-linejoin:miter;stroke-opacity:1" />
    <path
       d="M -455.59375,1044 C -455.86989,1044.0259 -456.07276,1044.2707 -456.04687,1044.5469 C -456.02099,1044.823 -455.77614,1045.0259 -455.5,1045 L -446.46875,1045 C -446.28843,1045.0026 -446.12071,1044.9078 -446.02981,1044.7521 C -445.9389,1044.5963 -445.9389,1044.4037 -446.02981,1044.2479 C -446.12071,1044.0922 -446.28843,1043.9974 -446.46875,1044 L -455.5,1044 C -455.53118,1043.9971 -455.56257,1043.9971 -455.59375,1044 L -455.59375,1044 z"
       id="path6464"
       style="fill:#bebebe;fill-opacity:1;stroke:none;stroke-width:1px;stroke-linecap:round;stroke-linejoin:miter;stroke-opacity:1" />
    <path
       d="M -455.5625,1038 C -455.83864,1038.0345 -456.03452,1038.2864 -456,1038.5625 C -455.96548,1038.8386 -455.71364,1039.0345 -455.4375,1039 L -446.5625,1039 C -446.38218,1039.0026 -446.21446,1038.9078 -446.12356,1038.7521 C -446.03265,1038.5963 -446.03265,1038.4037 -446.12356,1038.2479 C -446.21446,1038.0922 -446.38218,1037.9974 -446.5625,1038 L -455.4375,1038 C -455.479,1037.9948 -455.521,1037.9948 -455.5625,1038 z"
       id="path6466"
       style="fill:#bebebe;fill-opacity:1;stroke:none;stroke-width:1px;stroke-linecap:round;stroke-linejoin:miter;stroke-opacity:1" />
    <path
       d="M -456.9375,1030 C -458.5822,1030 -459.9375,1031.3553 -459.9375,1033 L -459.9375,1047 C -459.9375,1048.6447 -458.5822,1050 -456.9375,1050 L -445,1050 C -443.3553,1050 -442,1048.6447 -442,1047 L -442,1033 C -442,1031.3553 -443.3553,1030 -445,1030 L -456.9375,1030 z M -456.9375,1032 L -445,1032 C -444.4287,1032 -444,1032.4287 -444,1033 L -444,1047 C -444,1047.5713 -444.4287,1048 -445,1048 L -456.9375,1048 C -457.5088,1048 -457.9375,1047.5713 -457.9375,1047 L -457.9375,1033 C -457.9375,1032.4287 -457.5088,1032 -456.9375,1032 z"
       id="rect6513"
       style="fill:#bebebe;fill-opacity:1;fill-rule:nonzero;stroke:none;stroke-width:1.99999952;stroke-linecap:round;stroke-linejoin:miter;marker:none;stroke-miterlimit:4;stroke-dasharray:none;stroke-dashoffset:0;stroke-opacity:1;visibility:visible;display:inline;overflow:visible;enable-background:accumulate" />
    <path
       d="M -447.49462,1032.9854 C -448.31715,1032.9854 -449.0149,1033.6831 -449.0149,1034.5057 C -449.0149,1035.3282 -448.31715,1035.9906 -447.49462,1035.9906 C -446.67209,1035.9906 -446.0097,1035.3282 -446.0097,1034.5057 C -446.0097,1033.6831 -446.67209,1032.9854 -447.49462,1032.9854 z M -447.49462,1034.0107 C -447.21316,1034.0107 -446.99965,1034.2242 -446.99965,1034.5057 C -446.99965,1034.7871 -447.21315,1035.0007 -447.49462,1035.0007 C -447.77608,1035.0007 -447.9896,1034.7872 -447.9896,1034.5057 C -447.9896,1034.2242 -447.77609,1034.0107 -447.49462,1034.0107 z"
       id="path6516"
       style="fill:#bebebe;fill-opacity:1;stroke:none;stroke-width:0.8838827;stroke-linecap:round;stroke-linejoin:miter;marker:none;stroke-miterlimit:4;stroke-dasharray:none;stroke-dashoffset:0;stroke-opacity:1;visibility:visible;display:inline;overflow:visible;enable-background:accumulate" />
  </g>
  <g
     transform="translate(461.97313,-1028)"
     id="layer4" />
  <g
     transform="translate(461.97313,-1028)"
     id="layer9" />
  <g
     transform="translate(461.97313,-1028)"
     id="layer10" />
  <g
     transform="translate(461.97313,-1028)"
     id="layer6" />
</svg>
