<?xml version="1.0" encoding="UTF-8" standalone="no"?>
<!-- Created with Inkscape (http://www.inkscape.org/) -->
<svg
   xmlns:svg="http://www.w3.org/2000/svg"
   xmlns="http://www.w3.org/2000/svg"
   version="1.0"
   width="24"
   height="24"
   id="svg7384">
  <title
     id="title9167">Moblin Icon Theme</title>
  <defs
     id="defs7386" />
  <g
     transform="translate(481.99998,-950)"
     id="layer3" />
  <g
     transform="translate(481.99998,-950)"
     id="layer5" />
  <g
     transform="translate(481.99998,-950)"
     id="layer7" />
  <g
     transform="translate(481.99998,-950)"
     id="layer2" />
  <g
     transform="translate(481.99998,-950)"
     id="layer8" />
  <g
     transform="translate(481.99998,-1902.3622)"
     id="layer1" />
  <g
     transform="translate(481.99998,-950)"
     id="layer11">
    <rect
       width="24"
       height="24"
       x="457.99997"
       y="950"
       transform="scale(-1,1)"
       id="rect7760"
       style="opacity:0;fill:#ffffff;fill-opacity:1;stroke:none;display:inline" />
    <path
       d="M -477.71875,952.03125 C -478.86753,952.03125 -479.9375,952.8988 -479.9375,954.09375 L -479.9375,961 C -479.9375,962.19495 -478.86753,963.0625 -477.71875,963.0625 L -467.53125,963.0625 L -465.84375,965.5625 L -465,966.78125 L -464.1875,965.5625 L -462.5,963.0625 L -462.28125,963.0625 C -461.13247,963.0625 -460.03125,962.23054 -460.03125,961 L -460.03125,954.09375 C -460.03125,952.86321 -461.13247,952.03125 -462.28125,952.03125 L -477.71875,952.03125 z M -477.71875,954.03125 L -462.28125,954.03125 C -462.06303,954.03125 -462.03125,954.15335 -462.03125,954.09375 L -462.03125,961 C -462.03125,960.9404 -462.06303,961.0625 -462.28125,961.0625 L -463,961.0625 L -463.53125,961.0625 L -463.8125,961.5 L -464.96875,963.21875 L -466.125,961.5 L -466.4375,961.0625 L -466.96875,961.0625 L -477.71875,961.0625 C -477.93697,961.0625 -477.9375,960.97599 -477.9375,961 L -477.9375,954.09375 C -477.9375,954.11776 -477.93697,954.03125 -477.71875,954.03125 z"
       id="rect7768"
       style="fill:#bdbdbd;fill-opacity:1;fill-rule:nonzero;stroke:none;stroke-width:2;marker:none;stroke-opacity:1;visibility:visible;display:inline;overflow:visible;enable-background:accumulate" />
    <rect
       width="5.061738"
       height="9.0000029"
       x="-478.99997"
       y="953"
       id="rect7773"
       style="opacity:0.5;fill:#bdbdbd;fill-opacity:1;stroke:none;stroke-width:2;marker:none;visibility:visible;display:inline;overflow:visible;enable-background:accumulate" />
  </g>
  <g
     transform="translate(481.99998,-950)"
     id="layer4" />
  <g
     transform="translate(481.99998,-950)"
     id="layer9" />
  <g
     transform="translate(481.99998,-950)"
     id="layer10" />
  <g
     transform="translate(481.99998,-950)"
     id="layer6" />
</svg>
