<?xml version="1.0" encoding="UTF-8" standalone="no"?>
<!-- Created with Inkscape (http://www.inkscape.org/) -->
<svg
   xmlns:svg="http://www.w3.org/2000/svg"
   xmlns="http://www.w3.org/2000/svg"
   version="1.0"
   width="24"
   height="24"
   id="svg7384">
  <title
     id="title9167">Moblin Icon Theme</title>
  <defs
     id="defs7386" />
  <g
     transform="translate(481.99998,-900)"
     id="layer3" />
  <g
     transform="translate(481.99998,-900)"
     id="layer5" />
  <g
     transform="translate(481.99998,-900)"
     id="layer7" />
  <g
     transform="translate(481.99998,-900)"
     id="layer2" />
  <g
     transform="translate(481.99998,-900)"
     id="layer8" />
  <g
     transform="translate(481.99998,-1852.3622)"
     id="layer1" />
  <g
     transform="translate(481.99998,-900)"
     id="layer11">
    <rect
       width="24"
       height="24"
       x="457.99997"
       y="900"
       transform="scale(-1,1)"
       id="rect7760"
       style="opacity:0;fill:#ffffff;fill-opacity:1;stroke:none;display:inline" />
    <path
       d="M -477.71875,902.03125 C -478.86753,902.03125 -479.9375,902.8988 -479.9375,904.09375 L -479.9375,911 C -479.9375,912.19495 -478.86753,913.0625 -477.71875,913.0625 L -467.53125,913.0625 L -465.84375,915.5625 L -465,916.78125 L -464.1875,915.5625 L -462.5,913.0625 L -462.28125,913.0625 C -461.13247,913.0625 -460.03125,912.23054 -460.03125,911 L -460.03125,904.09375 C -460.03125,902.86321 -461.13247,902.03125 -462.28125,902.03125 L -477.71875,902.03125 z M -477.71875,904.03125 L -462.28125,904.03125 C -462.06303,904.03125 -462.03125,904.15335 -462.03125,904.09375 L -462.03125,911 C -462.03125,910.9404 -462.06303,911.0625 -462.28125,911.0625 L -463,911.0625 L -463.53125,911.0625 L -463.8125,911.5 L -464.96875,913.21875 L -466.125,911.5 L -466.4375,911.0625 L -466.96875,911.0625 L -477.71875,911.0625 C -477.93697,911.0625 -477.9375,910.97599 -477.9375,911 L -477.9375,904.09375 C -477.9375,904.11776 -477.93697,904.03125 -477.71875,904.03125 z"
       id="rect7768"
       style="fill:#bebebe;fill-opacity:1;stroke:none;stroke-width:2;marker:none;stroke-opacity:1;visibility:visible;display:inline;overflow:visible;enable-background:accumulate" />
    <rect
       width="5.061738"
       height="9.0000029"
       x="-478.99997"
       y="903"
       id="rect7773"
       style="opacity:0.5;fill:#bebebe;fill-opacity:1;stroke:none;stroke-width:2;marker:none;visibility:visible;display:inline;overflow:visible;enable-background:accumulate" />
  </g>
  <g
     transform="translate(481.99998,-900)"
     id="layer4" />
  <g
     transform="translate(481.99998,-900)"
     id="layer12" />
  <g
     transform="translate(481.99998,-900)"
     id="layer9" />
  <g
     transform="translate(481.99998,-900)"
     id="layer10" />
  <g
     transform="translate(481.99998,-900)"
     id="layer6" />
</svg>
