<?xml version="1.0" encoding="UTF-8" standalone="no"?>
<!-- Created with Inkscape (http://www.inkscape.org/) -->
<svg
   xmlns:svg="http://www.w3.org/2000/svg"
   xmlns="http://www.w3.org/2000/svg"
   version="1.0"
   width="24.000006"
   height="24"
   id="svg7384">
  <title
     id="title9167">Moblin Icon Theme</title>
  <defs
     id="defs7386" />
  <g
     transform="translate(566,-1074.0818)"
     id="layer3" />
  <g
     transform="translate(566,-1074.0818)"
     id="layer5" />
  <g
     transform="translate(566,-1074.0818)"
     id="layer7" />
  <g
     transform="translate(566,-1074.0818)"
     id="layer2" />
  <g
     transform="translate(566,-1074.0818)"
     id="layer8" />
  <g
     transform="translate(566,-2026.444)"
     id="layer1" />
  <g
     transform="translate(566,-1074.0818)"
     id="layer11">
    <rect
       width="24"
       height="24"
       x="-566"
       y="1074.0818"
       id="rect8906"
       style="opacity:0;fill:#ffffff;fill-opacity:1;stroke:none;display:inline" />
    <g
       transform="matrix(0.1961584,0,0,0.1961584,-399.81951,849.00072)"
       id="g8881">
      <path
         d="M -797.49069,1196.4357 C -784.67931,1196.4357 -777.07443,1206.4052 -777.07443,1206.4052 L -787.49181,1215.1857 C -792.17081,1207.3842 -793.73694,1203.9454 -801.52381,1203.0043 L -801.52381,1225.1783 C -799.75744,1225.7679 -797.79944,1226.1244 -795.61319,1226.1244 C -780.41418,1226.1244 -766.24118,1206.4393 -766.24118,1206.4393 C -766.24118,1206.4393 -779.36681,1188.6244 -799.36569,1189.2469 C -800.09444,1189.2739 -800.81581,1189.3119 -801.52381,1189.3678 L -801.52381,1196.6762 C -800.21769,1196.5382 -798.88469,1196.4357 -797.49069,1196.4357 L -797.49069,1196.4357 z"
         id="path8778"
         style="fill:#bebebe;fill-opacity:1;fill-rule:evenodd;stroke:none" />
      <path
         d="M -801.52381,1167.7389 L -801.52381,1183.4386 C -800.80606,1183.3816 -800.08831,1183.3336 -799.36569,1183.3141 C -771.55368,1182.3742 -753.42743,1206.1242 -753.42743,1206.1242 C -753.42743,1206.1242 -774.24493,1231.4378 -795.92819,1231.4378 C -797.91906,1231.4378 -799.77581,1231.2559 -801.52381,1230.9434 L -801.52381,1237.6988 C -800.02969,1237.8868 -798.48069,1238.0003 -796.86569,1238.0003 C -776.68493,1238.0003 -762.09243,1227.6903 -747.95993,1215.4979 C -745.61868,1217.3742 -736.02618,1221.9359 -734.05618,1223.9329 C -747.49243,1235.1878 -778.80418,1244.2467 -796.55069,1244.2467 C -798.26819,1244.2467 -799.91131,1244.1442 -801.52381,1243.9916 L -801.52381,1259.217 L -724.82493,1259.217 L -724.82493,1167.7389 L -801.52381,1167.7389 L -801.52381,1167.7389 z"
         id="path8780"
         style="fill:#bebebe;fill-opacity:1;fill-rule:evenodd;stroke:none" />
      <path
         d="M -815.46531,1209.3599 C -815.46531,1209.3599 -809.36419,1202.0614 -801.55169,1202.9989 C -801.54169,1202.9989 -801.53329,1202.9989 -801.52359,1202.9989 L -801.52359,1196.6708 C -816.40771,1198.2797 -825.36884,1208.2113 -825.36884,1208.2113 C -825.36884,1208.2113 -820.18821,1227.6143 -801.52359,1230.9383 L -801.52359,1225.1729 C -812.05097,1221.6391 -815.46534,1209.3551 -815.46534,1209.3551 L -815.46531,1209.3599 z"
         id="path8782"
         style="fill:#bebebe;fill-opacity:1;fill-rule:evenodd;stroke:none" />
      <path
         d="M -834.67381,1207.3738 C -834.67381,1207.3738 -823.61431,1191.0481 -801.52319,1189.3672 L -801.52319,1183.4382 C -825.98856,1185.4059 -847.17506,1206.1238 -847.17506,1206.1238 C -847.17506,1206.1238 -835.17556,1240.8149 -801.52319,1243.9912 L -801.52319,1237.6984 C -826.21806,1234.5881 -834.67381,1207.3738 -834.67381,1207.3738 L -834.67381,1207.3738 z"
         id="path8784"
         style="fill:#bebebe;fill-opacity:1;fill-rule:evenodd;stroke:none" />
    </g>
  </g>
  <g
     transform="translate(566,-1074.0818)"
     id="layer4" />
  <g
     transform="translate(566,-1074.0818)"
     id="layer12" />
  <g
     transform="translate(566,-1074.0818)"
     id="layer9" />
  <g
     transform="translate(566,-1074.0818)"
     id="layer10" />
  <g
     transform="translate(566,-1074.0818)"
     id="layer6" />
</svg>
