<?xml version="1.0" encoding="UTF-8" standalone="no"?>
<!-- Created with Inkscape (http://www.inkscape.org/) -->
<svg
   xmlns:svg="http://www.w3.org/2000/svg"
   xmlns="http://www.w3.org/2000/svg"
   version="1.0"
   width="24"
   height="24.001242"
   id="svg7384">
  <title
     id="title9167">Moblin Icon Theme</title>
  <defs
     id="defs7386" />
  <g
     transform="translate(592,-1064.0012)"
     id="layer3" />
  <g
     transform="translate(592,-1064.0012)"
     id="layer5" />
  <g
     transform="translate(592,-1064.0012)"
     id="layer7" />
  <g
     transform="translate(592,-1064.0012)"
     id="layer2" />
  <g
     transform="translate(592,-1064.0012)"
     id="layer8" />
  <g
     transform="translate(592,-2016.3634)"
     id="layer1" />
  <g
     transform="translate(592,-1064.0012)"
     id="layer11">
    <rect
       width="24"
       height="24"
       x="-592"
       y="1064.0024"
       id="rect16068"
       style="opacity:0;fill:#ffffff;fill-opacity:1;stroke:none;display:inline" />
    <path
       d="M -590.28424,1070.3992 C -590.69995,1070.4176 -591.06087,1070.6914 -591.19049,1071.0868 C -591.38623,1071.6041 -591.50983,1072.0777 -591.62799,1072.618 C -592.91617,1078.5088 -589.17501,1084.3611 -583.28424,1085.6492 C -582.7406,1085.77 -582.20195,1085.4273 -582.08114,1084.8836 C -581.96033,1084.34 -582.3031,1083.8013 -582.84674,1083.6805 C -587.68036,1082.6235 -590.74749,1077.8579 -589.69049,1073.0242 C -589.59001,1072.5648 -589.48194,1072.2141 -589.31549,1071.7742 C -589.18769,1071.459 -589.22885,1071.1005 -589.42474,1070.8224 C -589.62064,1070.5444 -589.94442,1070.385 -590.28424,1070.3992 L -590.28424,1070.3992 z"
       id="path16070"
       style="fill:#bebebe;fill-opacity:1;stroke:none;stroke-width:2;stroke-linecap:round;stroke-linejoin:round;marker:none;stroke-miterlimit:4;stroke-dasharray:none;stroke-dashoffset:0;stroke-opacity:1;visibility:visible;display:inline;overflow:visible;enable-background:accumulate" />
    <path
       d="M -589.21875,1067.9688 C -589.67893,1067.99 -590.0651,1068.3228 -590.15402,1068.7748 C -590.24294,1069.2268 -590.01161,1069.6811 -589.59375,1069.875 L -583.90625,1072.9062 C -583.59953,1073.0634 -583.23347,1073.0516 -582.9375,1072.875 L -577.59375,1069.8438 C -577.22064,1069.7084 -576.96292,1069.3651 -576.93698,1068.969 C -576.91105,1068.573 -577.1218,1068.199 -577.47407,1068.0161 C -577.82634,1067.8332 -578.25344,1067.8759 -578.5625,1068.125 L -583.4375,1070.875 L -588.65625,1068.0938 C -588.82743,1067.9979 -589.02305,1067.9544 -589.21875,1067.9688 z"
       id="path16072"
       style="fill:#bebebe;fill-opacity:1;stroke:none;stroke-width:2;stroke-linecap:round;stroke-linejoin:round;marker:none;stroke-miterlimit:4;stroke-dasharray:none;stroke-dashoffset:0;stroke-opacity:1;visibility:visible;display:inline;overflow:visible;enable-background:accumulate" />
    <path
       d="M -582.37799,1064.0868 C -583.78759,1064.2696 -585.17109,1064.7309 -586.47174,1065.493 C -586.95499,1065.7692 -587.12288,1066.3848 -586.84674,1066.868 C -586.5706,1067.3513 -585.95499,1067.5192 -585.47174,1067.243 C -581.20279,1064.7416 -575.72319,1066.1615 -573.22174,1070.4305 C -572.84449,1071.0744 -572.59681,1071.6234 -572.37799,1072.3368 C -572.28896,1072.6976 -572.00718,1072.9793 -571.64633,1073.0683 C -571.28549,1073.1572 -570.90508,1073.0387 -570.65857,1072.7606 C -570.41207,1072.4825 -570.34011,1072.0906 -570.47174,1071.743 C -570.72922,1070.9036 -571.05915,1070.1568 -571.50299,1069.3992 C -573.78939,1065.4973 -578.1492,1063.5382 -582.37799,1064.0868 z"
       id="path16074"
       style="fill:#bebebe;fill-opacity:1;stroke:none;stroke-width:2;stroke-linecap:round;stroke-linejoin:round;marker:none;stroke-miterlimit:4;stroke-dasharray:none;stroke-dashoffset:0;stroke-opacity:1;visibility:visible;display:inline;overflow:visible;enable-background:accumulate" />
    <path
       d="M -579.09375,1074 C -579.47504,1074.0371 -579.80161,1074.2888 -579.93466,1074.648 C -580.06771,1075.0073 -579.98386,1075.411 -579.71875,1075.6875 L -575.5625,1080 L -579.71875,1084.3125 C -579.99239,1084.6017 -580.06848,1085.0256 -579.91248,1085.3918 C -579.75647,1085.7581 -579.39809,1085.997 -579,1086 L -571.1875,1086 C -570.82686,1086.0051 -570.49142,1085.8156 -570.30961,1085.5041 C -570.12781,1085.1926 -570.12781,1084.8074 -570.30961,1084.4959 C -570.49142,1084.1844 -570.82686,1083.9949 -571.1875,1084 L -576.65625,1084 L -573.46875,1080.6875 C -573.10371,1080.3018 -573.10371,1079.6982 -573.46875,1079.3125 L -576.65625,1076 L -571.0625,1076 C -570.70186,1076.0051 -570.36642,1075.8156 -570.18461,1075.5041 C -570.00281,1075.1926 -570.00281,1074.8074 -570.18461,1074.4959 C -570.36642,1074.1844 -570.70186,1073.9949 -571.0625,1074 L -579,1074 C -579.03123,1073.9985 -579.06252,1073.9985 -579.09375,1074 z"
       id="path16080"
       style="fill:#bebebe;fill-opacity:1;stroke:none;stroke-width:2;stroke-linecap:round;stroke-linejoin:round;marker:none;stroke-miterlimit:4;stroke-dasharray:none;stroke-dashoffset:0;stroke-opacity:1;visibility:visible;display:inline;overflow:visible;enable-background:accumulate" />
  </g>
  <g
     transform="translate(592,-1064.0012)"
     id="layer4" />
  <g
     transform="translate(592,-1064.0012)"
     id="layer9" />
  <g
     transform="translate(592,-1064.0012)"
     id="layer10" />
  <g
     transform="translate(592,-1064.0012)"
     id="layer6" />
</svg>
