<?xml version="1.0" encoding="UTF-8" standalone="no"?>
<!-- Created with Inkscape (http://www.inkscape.org/) -->
<svg
   xmlns:svg="http://www.w3.org/2000/svg"
   xmlns="http://www.w3.org/2000/svg"
   version="1.0"
   width="24"
   height="24"
   id="svg7384">
  <title
     id="title9167">Moblin Icon Theme</title>
  <defs
     id="defs7386" />
  <g
     transform="translate(566,-1064)"
     id="layer3" />
  <g
     transform="translate(566,-1064)"
     id="layer5" />
  <g
     transform="translate(566,-1064)"
     id="layer7" />
  <g
     transform="translate(566,-1064)"
     id="layer2" />
  <g
     transform="translate(566,-1064)"
     id="layer8" />
  <g
     transform="translate(566,-2016.3622)"
     id="layer1" />
  <g
     transform="translate(566,-1064)"
     id="layer11">
    <rect
       width="24"
       height="24"
       x="-566"
       y="1064"
       id="rect16084"
       style="opacity:0;fill:#ffffff;fill-opacity:1;stroke:none;display:inline" />
    <path
       d="M -551.03424,1066.1781 C -553.7951,1065.6926 -556.75281,1066.2601 -559.22174,1067.9906 C -559.54344,1068.1844 -559.72948,1068.542 -559.70344,1068.9166 C -559.67741,1069.2913 -559.44368,1069.6198 -559.09827,1069.7672 C -558.75286,1069.9146 -558.35399,1069.856 -558.06549,1069.6156 C -554.01376,1066.7757 -548.46787,1067.7514 -545.62799,1071.8031 C -542.78811,1075.8548 -543.76378,1081.432 -547.81549,1084.2718 C -551.86722,1087.1117 -557.41311,1086.1361 -560.25299,1082.0844 C -562.03163,1079.5468 -562.41216,1076.6702 -561.31549,1073.7718 C -561.1685,1073.4314 -561.22186,1073.0377 -561.45412,1072.7487 C -561.68639,1072.4598 -562.05945,1072.323 -562.42345,1072.3934 C -562.78745,1072.4637 -563.08266,1072.7297 -563.19049,1073.0844 C -564.50045,1076.5464 -564.03382,1080.1782 -561.90924,1083.2094 C -558.44827,1088.1472 -551.5971,1089.3578 -546.65924,1085.8968 C -541.72139,1082.4359 -540.51075,1075.5847 -543.97174,1070.6468 C -545.70223,1068.1779 -548.27338,1066.6636 -551.03424,1066.1781 z"
       id="path16086"
       style="fill:#bebebe;fill-opacity:1;stroke:none;stroke-width:2;stroke-linecap:round;stroke-linejoin:round;marker:none;stroke-miterlimit:4;stroke-dasharray:none;stroke-dashoffset:0;stroke-opacity:1;visibility:visible;display:inline;overflow:visible;enable-background:accumulate" />
    <path
       d="M -561.21875,1069.9688 C -561.67893,1069.99 -562.0651,1070.3228 -562.15402,1070.7748 C -562.24294,1071.2268 -562.01161,1071.6811 -561.59375,1071.875 L -555.90625,1074.9062 C -555.59953,1075.0634 -555.23347,1075.0516 -554.9375,1074.875 L -549.59375,1071.8438 C -549.22064,1071.7084 -548.96292,1071.3651 -548.93698,1070.969 C -548.91105,1070.573 -549.1218,1070.199 -549.47407,1070.0161 C -549.82634,1069.8332 -550.25344,1069.8759 -550.5625,1070.125 L -555.4375,1072.875 L -560.65625,1070.0938 C -560.82743,1069.9979 -561.02305,1069.9544 -561.21875,1069.9688 z"
       id="path16088"
       style="fill:#bebebe;fill-opacity:1;stroke:none;stroke-width:2;stroke-linecap:round;stroke-linejoin:round;marker:none;stroke-miterlimit:4;stroke-dasharray:none;stroke-dashoffset:0;stroke-opacity:1;visibility:visible;display:inline;overflow:visible;enable-background:accumulate" />
    <path
       d="M -547.8125,1072.9062 L -547.78125,1073.6562 L -547.71875,1075.5938 L -550.21875,1073.75 L -550.71875,1073.375 L -550.96875,1073.9688 L -552.25,1076.9375 C -552.45788,1076.935 -552.67393,1076.9426 -553.09375,1076.9375 C -553.42046,1076.9335 -553.52318,1076.909 -553.75,1076.9062 C -553.71957,1076.4162 -553.6875,1075.7812 -553.6875,1075.7812 C -553.67027,1075.5051 -553.88016,1075.2672 -554.1563,1075.25 C -554.43244,1075.2328 -554.67027,1075.4427 -554.6875,1075.7188 C -554.6875,1075.7188 -554.78125,1077.375 -554.78125,1077.375 L -554.28125,1077.4062 L -554.71875,1077.125 C -554.71875,1077.125 -553.71586,1077.9303 -553.125,1077.9375 C -552.53414,1077.9447 -551.9375,1077.9375 -551.9375,1077.9375 L -551.59375,1077.9375 L -551.46875,1077.625 L -550.3125,1074.9375 L -547.46875,1077.0312 L -546.625,1077.625 L -546.6875,1076.5938 L -546.75,1074.3438 L -544.0625,1075.2812 C -543.795,1075.3761 -543.5012,1075.2362 -543.40628,1074.9687 C -543.31135,1074.7012 -543.45125,1074.4074 -543.71875,1074.3125 L -547.125,1073.1562 L -547.8125,1072.9062 z"
       id="path6777-5"
       style="fill:#bebebe;fill-opacity:1;fill-rule:nonzero;stroke:none;stroke-width:1;stroke-linecap:round;stroke-linejoin:miter;marker:none;stroke-miterlimit:4;stroke-dasharray:none;stroke-dashoffset:0;stroke-opacity:1;visibility:visible;display:inline;overflow:visible;enable-background:accumulate" />
    <path
       d="M -548.5,1078.125 L -548.59375,1078.1875 L -553.65625,1080.5938 L -553.9375,1080.7188 L -553.9375,1081.0312 L -554,1083.8438 L -554,1084.3438 L -553.5,1084.3438 L -549.65625,1084.3438 L -548.5625,1086.3125 L -548.25,1086.875 L -547.78125,1086.4062 L -546.15625,1084.75 L -545.9375,1084.5312 L -546.03125,1084.25 L -547.90625,1078.4688 L -548.03125,1078.125 L -548.40625,1078.125 L -548.5,1078.125 z M -548.6875,1079.3438 L -547.0625,1084.25 L -548.03125,1085.25 L -548.96875,1083.625 L -549.09375,1083.3438 L -549.40625,1083.3438 L -553,1083.3438 L -552.9375,1081.375 L -548.6875,1079.3438 z"
       id="path6780-4"
       style="fill:#bebebe;fill-opacity:1;fill-rule:nonzero;stroke:none;stroke-width:1;stroke-linecap:round;stroke-linejoin:miter;marker:none;stroke-miterlimit:4;stroke-dasharray:none;stroke-dashoffset:0;stroke-opacity:1;visibility:visible;display:inline;overflow:visible;enable-background:accumulate" />
    <path
       d="M -558.625,1073.9688 C -558.70439,1073.982 -558.77944,1074.0141 -558.84375,1074.0625 L -561.8125,1076.0312 L -562.53125,1076.5 L -561.78125,1076.875 L -558.5,1078.5938 L -560.53125,1081.0625 L -560.71875,1081.2812 L -560.59375,1081.5625 L -558.78125,1085.625 C -558.72369,1085.809 -558.56546,1085.9435 -558.37459,1085.9708 C -558.18371,1085.998 -557.99419,1085.913 -557.8875,1085.7524 C -557.7808,1085.5918 -557.77594,1085.3842 -557.875,1085.2188 L -559.5625,1081.4375 L -557.34375,1078.75 L -556.96875,1078.2812 L -557.5,1078 L -560.5625,1076.4062 L -558.28125,1074.9062 C -558.03813,1074.8008 -557.91945,1074.524 -558.01068,1074.2753 C -558.10191,1074.0265 -558.37138,1073.892 -558.625,1073.9688 z"
       id="path6782-7"
       style="fill:#bebebe;fill-opacity:1;fill-rule:nonzero;stroke:none;stroke-width:1;stroke-linecap:round;stroke-linejoin:miter;marker:none;stroke-miterlimit:4;stroke-dasharray:none;stroke-dashoffset:0;stroke-opacity:1;visibility:visible;display:inline;overflow:visible;enable-background:accumulate" />
  </g>
  <g
     transform="translate(566,-1064)"
     id="layer4" />
  <g
     transform="translate(566,-1064)"
     id="layer9" />
  <g
     transform="translate(566,-1064)"
     id="layer10" />
  <g
     transform="translate(566,-1064)"
     id="layer6" />
</svg>
