<?xml version="1.0" encoding="UTF-8" standalone="no"?>
<!-- Created with Inkscape (http://www.inkscape.org/) -->
<svg
   xmlns:svg="http://www.w3.org/2000/svg"
   xmlns="http://www.w3.org/2000/svg"
   version="1.0"
   width="24"
   height="24.001242"
   id="svg7384">
  <title
     id="title9167">Moblin Icon Theme</title>
  <defs
     id="defs7386" />
  <g
     transform="translate(538,-1064.0012)"
     id="layer3" />
  <g
     transform="translate(538,-1064.0012)"
     id="layer5" />
  <g
     transform="translate(538,-1064.0012)"
     id="layer7" />
  <g
     transform="translate(538,-1064.0012)"
     id="layer2" />
  <g
     transform="translate(538,-1064.0012)"
     id="layer8" />
  <g
     transform="translate(538,-2016.3634)"
     id="layer1" />
  <g
     transform="translate(538,-1064.0012)"
     id="layer11">
    <rect
       width="24"
       height="24"
       x="-538"
       y="1064.0024"
       id="rect16153"
       style="opacity:0;fill:#ffffff;fill-opacity:1;stroke:none;display:inline" />
    <path
       d="M -536.28424,1070.3992 C -536.69995,1070.4176 -537.06087,1070.6914 -537.19049,1071.0868 C -537.26203,1071.2758 -537.3167,1071.4255 -537.37799,1071.618 C -539.20721,1077.3638 -535.99881,1083.5388 -530.25299,1085.368 C -529.90538,1085.4999 -529.51333,1085.428 -529.23507,1085.1815 C -528.95681,1084.9349 -528.83828,1084.5544 -528.92731,1084.1934 C -529.01634,1083.8325 -529.29825,1083.5507 -529.65924,1083.4618 C -534.37392,1081.9608 -536.97269,1076.9577 -535.47174,1072.243 C -535.41956,1072.0791 -535.37631,1071.935 -535.31549,1071.7742 C -535.18769,1071.459 -535.22885,1071.1005 -535.42474,1070.8224 C -535.62064,1070.5444 -535.94442,1070.385 -536.28424,1070.3992 L -536.28424,1070.3992 z"
       id="path16155"
       style="fill:#bebebe;fill-opacity:1;stroke:none;stroke-width:2;stroke-linecap:round;stroke-linejoin:round;marker:none;stroke-miterlimit:4;stroke-dasharray:none;stroke-dashoffset:0;stroke-opacity:1;visibility:visible;display:inline;overflow:visible;enable-background:accumulate" />
    <path
       d="M -535.21875,1067.9688 C -535.67893,1067.99 -536.0651,1068.3228 -536.15402,1068.7748 C -536.24294,1069.2268 -536.01161,1069.6811 -535.59375,1069.875 L -529.90625,1072.9062 C -529.59953,1073.0634 -529.23347,1073.0516 -528.9375,1072.875 L -523.59375,1069.8438 C -523.22064,1069.7084 -522.96292,1069.3651 -522.93698,1068.969 C -522.91105,1068.573 -523.1218,1068.199 -523.47407,1068.0161 C -523.82634,1067.8332 -524.25344,1067.8759 -524.5625,1068.125 L -529.4375,1070.875 L -534.65625,1068.0938 C -534.82743,1067.9979 -535.02305,1067.9544 -535.21875,1067.9688 z"
       id="path16157"
       style="fill:#bebebe;fill-opacity:1;stroke:none;stroke-width:2;stroke-linecap:round;stroke-linejoin:round;marker:none;stroke-miterlimit:4;stroke-dasharray:none;stroke-dashoffset:0;stroke-opacity:1;visibility:visible;display:inline;overflow:visible;enable-background:accumulate" />
    <path
       d="M -528.37799,1064.0868 C -529.78759,1064.2696 -531.17109,1064.7309 -532.47174,1065.493 C -532.95499,1065.7692 -533.12288,1066.3848 -532.84674,1066.868 C -532.5706,1067.3513 -531.95499,1067.5192 -531.47174,1067.243 C -527.20279,1064.7416 -521.72319,1066.1615 -519.22174,1070.4305 C -518.78639,1071.1735 -518.53835,1071.7863 -518.31549,1072.618 C -518.17742,1073.153 -517.63177,1073.4748 -517.09674,1073.3368 C -516.56171,1073.1987 -516.23992,1072.653 -516.37799,1072.118 C -516.64032,1071.139 -516.99061,1070.2737 -517.50299,1069.3992 C -519.78939,1065.4973 -524.1492,1063.5382 -528.37799,1064.0868 z"
       id="path16159"
       style="fill:#bebebe;fill-opacity:1;stroke:none;stroke-width:2;stroke-linecap:round;stroke-linejoin:round;marker:none;stroke-miterlimit:4;stroke-dasharray:none;stroke-dashoffset:0;stroke-opacity:1;visibility:visible;display:inline;overflow:visible;enable-background:accumulate" />
    <path
       d="M -527.15625,1074.0938 C -527.67161,1074.1424 -528.06473,1074.5762 -528.0625,1075.0938 L -528.0625,1087 C -528.06244,1087.5523 -527.61476,1087.9999 -527.0625,1088 L -516.96875,1088 C -516.41649,1087.9999 -515.96881,1087.5523 -515.96875,1087 L -515.96875,1078.0312 C -515.97081,1077.7591 -516.08365,1077.4996 -516.28125,1077.3125 L -519.25,1074.375 C -519.43457,1074.1965 -519.68073,1074.0958 -519.9375,1074.0938 L -527.0625,1074.0938 C -527.09373,1074.0923 -527.12502,1074.0923 -527.15625,1074.0938 z M -526.0625,1076.0938 L -520.375,1076.0938 L -517.96875,1078.4375 L -517.96875,1086 L -526.0625,1086 L -526.0625,1076.0938 z"
       id="rect16161"
       style="fill:#bebebe;fill-opacity:1;stroke:none;stroke-width:2;stroke-linecap:round;stroke-linejoin:round;marker:none;stroke-miterlimit:4;stroke-dashoffset:0;stroke-opacity:1;visibility:visible;display:inline;overflow:visible;enable-background:accumulate" />
    <path
       d="M -524.65625,1078.0625 C -524.93239,1078.1056 -525.12127,1078.3645 -525.07812,1078.6406 C -525.03498,1078.9168 -524.77614,1079.1056 -524.5,1079.0625 L -521.40625,1079.0625 C -521.22593,1079.0651 -521.05821,1078.9703 -520.96731,1078.8146 C -520.8764,1078.6588 -520.8764,1078.4662 -520.96731,1078.3104 C -521.05821,1078.1547 -521.22593,1078.0599 -521.40625,1078.0625 L -524.5,1078.0625 C -524.55176,1078.0543 -524.60449,1078.0543 -524.65625,1078.0625 z"
       id="path16166"
       style="fill:#bebebe;fill-opacity:1;stroke:none;stroke-width:1;stroke-linecap:round;stroke-linejoin:round;marker:none;stroke-miterlimit:4;stroke-dasharray:none;stroke-dashoffset:0;stroke-opacity:1;visibility:visible;display:inline;overflow:visible;enable-background:accumulate" />
    <path
       d="M -524.375,1080 C -524.65114,1080.0345 -524.84702,1080.2864 -524.8125,1080.5625 C -524.77798,1080.8386 -524.52614,1081.0345 -524.25,1081 L -519.71875,1081 C -519.53843,1081.0026 -519.37071,1080.9078 -519.27981,1080.7521 C -519.1889,1080.5963 -519.1889,1080.4037 -519.27981,1080.2479 C -519.37071,1080.0922 -519.53843,1079.9974 -519.71875,1080 L -524.25,1080 C -524.2915,1079.9948 -524.3335,1079.9948 -524.375,1080 z"
       id="path16168"
       style="fill:#bebebe;fill-opacity:1;stroke:none;stroke-width:1;stroke-linecap:round;stroke-linejoin:round;marker:none;stroke-miterlimit:4;stroke-dasharray:none;stroke-dashoffset:0;stroke-opacity:1;visibility:visible;display:inline;overflow:visible;enable-background:accumulate" />
    <path
       d="M -524.375,1082 C -524.65114,1082.0345 -524.84702,1082.2864 -524.8125,1082.5625 C -524.77798,1082.8386 -524.52614,1083.0345 -524.25,1083 L -519.71875,1083 C -519.53843,1083.0026 -519.37071,1082.9078 -519.27981,1082.7521 C -519.1889,1082.5963 -519.1889,1082.4037 -519.27981,1082.2479 C -519.37071,1082.0922 -519.53843,1081.9974 -519.71875,1082 L -524.25,1082 C -524.2915,1081.9948 -524.3335,1081.9948 -524.375,1082 z"
       id="path16170"
       style="fill:#bebebe;fill-opacity:1;stroke:none;stroke-width:1;stroke-linecap:round;stroke-linejoin:round;marker:none;stroke-miterlimit:4;stroke-dasharray:none;stroke-dashoffset:0;stroke-opacity:1;visibility:visible;display:inline;overflow:visible;enable-background:accumulate" />
    <path
       d="M -524.375,1084 C -524.65114,1084.0345 -524.84702,1084.2864 -524.8125,1084.5625 C -524.77798,1084.8386 -524.52614,1085.0345 -524.25,1085 L -519.71875,1085 C -519.53843,1085.0026 -519.37071,1084.9078 -519.27981,1084.7521 C -519.1889,1084.5963 -519.1889,1084.4037 -519.27981,1084.2479 C -519.37071,1084.0922 -519.53843,1083.9974 -519.71875,1084 L -524.25,1084 C -524.2915,1083.9948 -524.3335,1083.9948 -524.375,1084 z"
       id="path16172"
       style="fill:#bebebe;fill-opacity:1;stroke:none;stroke-width:1;stroke-linecap:round;stroke-linejoin:round;marker:none;stroke-miterlimit:4;stroke-dasharray:none;stroke-dashoffset:0;stroke-opacity:1;visibility:visible;display:inline;overflow:visible;enable-background:accumulate" />
  </g>
  <g
     transform="translate(538,-1064.0012)"
     id="layer4" />
  <g
     transform="translate(538,-1064.0012)"
     id="layer9" />
  <g
     transform="translate(538,-1064.0012)"
     id="layer10" />
  <g
     transform="translate(538,-1064.0012)"
     id="layer6" />
</svg>
