<?xml version="1.0" encoding="UTF-8" standalone="no"?>
<!-- Created with Inkscape (http://www.inkscape.org/) -->
<svg
   xmlns:svg="http://www.w3.org/2000/svg"
   xmlns="http://www.w3.org/2000/svg"
   version="1.0"
   width="24"
   height="24"
   id="svg7384">
  <title
     id="title9167">Moblin Icon Theme</title>
  <defs
     id="defs7386" />
  <g
     transform="translate(482,-1034.0008)"
     id="layer3" />
  <g
     transform="translate(482,-1034.0008)"
     id="layer5" />
  <g
     transform="translate(482,-1034.0008)"
     id="layer7" />
  <g
     transform="translate(482,-1034.0008)"
     id="layer2" />
  <g
     transform="translate(482,-1034.0008)"
     id="layer8" />
  <g
     transform="translate(482,-1986.363)"
     id="layer1" />
  <g
     transform="translate(482,-1034.0008)"
     id="layer11">
    <rect
       width="24"
       height="24"
       x="-482"
       y="1034.0009"
       id="rect15942"
       style="opacity:0;fill:#ffffff;fill-opacity:1;stroke:none;display:inline" />
    <path
       d="M -472.99374,1034.2278 C -474.38888,1034.4998 -475.74412,1035.0408 -476.99374,1035.884 C -477.45109,1036.1947 -477.57,1036.8173 -477.25934,1037.2746 C -476.94868,1037.732 -476.32609,1037.8509 -475.86874,1037.5402 C -471.76727,1034.7727 -466.23003,1035.845 -463.46249,1039.9465 C -461.46041,1042.9136 -461.36153,1046.4267 -463.18124,1049.509 C -463.466,1049.9836 -463.31208,1050.5992 -462.83747,1050.884 C -462.36285,1051.1688 -461.74725,1051.0148 -461.46249,1050.5402 C -459.27833,1046.8406 -459.40319,1042.414 -461.80624,1038.8528 C -464.33585,1035.1039 -468.80833,1033.4117 -472.99374,1034.2278 z"
       id="path15968"
       style="fill:#bebebe;fill-opacity:1;stroke:none;stroke-width:2;stroke-linecap:round;stroke-linejoin:round;marker:none;stroke-miterlimit:4;stroke-dasharray:none;stroke-dashoffset:0;stroke-opacity:1;visibility:visible;display:inline;overflow:visible;enable-background:accumulate" />
    <path
       d="M -479.25,1038 C -479.67297,1038.0749 -480.00085,1038.4116 -480.06457,1038.8364 C -480.12829,1039.2612 -479.91362,1039.6793 -479.53125,1039.875 L -476.46875,1041.5 C -476.15278,1041.7227 -475.73677,1041.7434 -475.40029,1041.5531 C -475.06381,1041.3628 -474.86711,1040.9956 -474.89512,1040.6101 C -474.92312,1040.2245 -475.1708,1039.8897 -475.53125,1039.75 L -478.59375,1038.125 C -478.79171,1038.0093 -479.02339,1037.9652 -479.25,1038 L -479.25,1038 z M -468.15625,1038 C -468.27754,1038.0202 -468.39408,1038.0626 -468.5,1038.125 L -472.4375,1040.375 C -472.78754,1040.5308 -473.01777,1040.873 -473.03029,1041.256 C -473.04281,1041.6389 -472.83542,1041.9954 -472.49631,1042.1737 C -472.1572,1042.3521 -471.74598,1042.3211 -471.4375,1042.0938 L -467.5,1039.875 C -467.04412,1039.6527 -466.82681,1039.1244 -466.99436,1038.6457 C -467.1619,1038.167 -467.66126,1037.8895 -468.15625,1038 z"
       id="path15970"
       style="fill:#bebebe;fill-opacity:1;stroke:none;stroke-width:2;stroke-linecap:round;stroke-linejoin:round;marker:none;stroke-miterlimit:4;stroke-dasharray:none;stroke-dashoffset:0;stroke-opacity:1;visibility:visible;display:inline;overflow:visible;enable-background:accumulate" />
    <path
       d="M -471.4375,1043 C -471.66694,1042.9964 -471.8694,1043.1494 -471.92852,1043.3711 C -471.98765,1043.5929 -471.88827,1043.8264 -471.6875,1043.9375 L -470.15625,1044.9375 C -469.98652,1045.053 -469.76348,1045.053 -469.59375,1044.9375 L -468.15625,1043.9375 C -467.92327,1043.7822 -467.86032,1043.4674 -468.01565,1043.2344 C -468.17098,1043.0014 -468.48577,1042.9385 -468.71875,1043.0938 L -469.90625,1043.9062 L -471.15625,1043.0938 C -471.23836,1043.0348 -471.33642,1043.0021 -471.4375,1043 L -471.4375,1043 z"
       id="path15972"
       style="fill:#bebebe;fill-opacity:1;stroke:none;stroke-width:1;stroke-linecap:round;stroke-linejoin:round;marker:none;stroke-miterlimit:4;stroke-dasharray:none;stroke-dashoffset:0;stroke-opacity:1;visibility:visible;display:inline;overflow:visible;enable-background:accumulate" />
    <path
       d="M -480.21249,1040.4152 C -480.6282,1040.4336 -480.98912,1040.7074 -481.11874,1041.1028 C -481.96775,1043.3466 -482.04334,1045.5728 -481.39999,1047.884 C -479.78292,1053.6931 -473.74035,1057.1261 -467.93124,1055.509 C -467.39621,1055.3623 -467.08141,1054.8097 -467.22811,1054.2746 C -467.37482,1053.7396 -467.92746,1053.4248 -468.46249,1053.5715 C -473.22911,1054.8984 -478.16686,1052.1194 -479.49374,1047.3528 C -480.03715,1045.4006 -479.96086,1043.6855 -479.24374,1041.7902 C -479.11594,1041.475 -479.1571,1041.1165 -479.35299,1040.8384 C -479.54889,1040.5604 -479.87267,1040.401 -480.21249,1040.4152 L -480.21249,1040.4152 z"
       id="path15986"
       style="fill:#bebebe;fill-opacity:1;stroke:none;stroke-width:2;stroke-linecap:round;stroke-linejoin:round;marker:none;stroke-miterlimit:4;stroke-dasharray:none;stroke-dashoffset:0;stroke-opacity:1;visibility:visible;display:inline;overflow:visible;enable-background:accumulate" />
    <path
       d="M -465,1050.9375 C -466.03932,1051.309 -466.81115,1051.9236 -466.9375,1053.125 L -476.0625,1044.0625 L -475.0625,1042.9375 L -465,1050.9375 z"
       id="path15988"
       style="fill:#bebebe;fill-opacity:1;fill-rule:nonzero;stroke:none;stroke-width:1;marker:none;visibility:visible;display:inline;overflow:visible;enable-background:accumulate" />
    <path
       d="M -463.5,1052 C -464.88071,1052 -466,1053.1193 -466,1054.5 C -466,1055.8807 -464.88071,1057 -463.5,1057 C -463.48938,1057 -463.47934,1057.0001 -463.46875,1057 L -458.03125,1057 L -461.40625,1053.125 L -461.4375,1053.0938 C -461.56569,1052.904 -461.70094,1052.7415 -461.875,1052.5938 C -461.90428,1052.5689 -461.93833,1052.5548 -461.96875,1052.5312 C -462.39122,1052.2047 -462.9247,1052 -463.5,1052 z"
       id="path15990"
       style="fill:#bebebe;fill-opacity:1;fill-rule:nonzero;stroke:none;stroke-width:1;marker:none;visibility:visible;display:inline;overflow:visible;enable-background:accumulate" />
  </g>
  <g
     transform="translate(482,-1034.0008)"
     id="layer4" />
  <g
     transform="translate(482,-1034.0008)"
     id="layer9" />
  <g
     transform="translate(482,-1034.0008)"
     id="layer10" />
  <g
     transform="translate(482,-1034.0008)"
     id="layer6" />
</svg>
