<?xml version="1.0" encoding="UTF-8" standalone="no"?>
<!-- Created with Inkscape (http://www.inkscape.org/) -->
<svg
   xmlns:svg="http://www.w3.org/2000/svg"
   xmlns="http://www.w3.org/2000/svg"
   version="1.0"
   width="24"
   height="24.001242"
   id="svg7384">
  <title
     id="title9167">Moblin Icon Theme</title>
  <defs
     id="defs7386" />
  <g
     transform="translate(396.00244,-983.99958)"
     id="layer3" />
  <g
     transform="translate(396.00244,-983.99958)"
     id="layer5" />
  <g
     transform="translate(396.00244,-983.99958)"
     id="layer7" />
  <g
     transform="translate(396.00244,-983.99958)"
     id="layer2" />
  <g
     transform="translate(396.00244,-983.99958)"
     id="layer8" />
  <g
     transform="translate(396.00244,-1936.3618)"
     id="layer1" />
  <g
     transform="translate(396.00244,-983.99958)"
     id="layer11">
    <rect
       width="24"
       height="24"
       x="-396.00244"
       y="984.00079"
       id="rect16038"
       style="opacity:0;fill:#ffffff;fill-opacity:1;stroke:none;display:inline" />
    <path
       d="M -394.28668,990.39762 C -394.70239,990.41597 -395.06331,990.6898 -395.19293,991.08522 C -395.38867,991.60252 -395.51227,992.07612 -395.63043,992.61642 C -396.91861,998.50722 -393.17745,1004.3595 -387.28668,1005.6476 C -386.74304,1005.7684 -386.20439,1005.4257 -386.08358,1004.882 C -385.96277,1004.3384 -386.30554,1003.7997 -386.84918,1003.6789 C -391.6828,1002.6219 -394.74993,997.85632 -393.69293,993.02262 C -393.59245,992.56322 -393.48438,992.21252 -393.31793,991.77262 C -393.19013,991.45742 -393.23129,991.09887 -393.42718,990.82083 C -393.62308,990.54278 -393.94686,990.38336 -394.28668,990.39762 L -394.28668,990.39762 z"
       id="path16040"
       style="fill:#bebebe;fill-opacity:1;stroke:none;stroke-width:2;stroke-linecap:round;stroke-linejoin:round;marker:none;stroke-miterlimit:4;stroke-dasharray:none;stroke-dashoffset:0;stroke-opacity:1;visibility:visible;display:inline;overflow:visible;enable-background:accumulate" />
    <path
       d="M -393.21875,987.96875 C -393.67897,987.98991 -394.06519,988.32271 -394.15412,988.77475 C -394.24304,989.22679 -394.01166,989.6811 -393.59375,989.875 L -387.90625,992.90625 C -387.59952,993.06346 -387.23346,993.05165 -386.9375,992.875 L -381.59375,989.84375 C -381.22059,989.70837 -380.96282,989.3651 -380.93687,988.96899 C -380.91092,988.57288 -381.1217,988.19892 -381.47401,988.01601 C -381.82632,987.8331 -382.25345,987.87587 -382.5625,988.125 L -387.4375,990.875 L -392.65625,988.09375 C -392.82743,987.9978 -393.02305,987.95433 -393.21875,987.96875 z"
       id="path16042"
       style="fill:#bebebe;fill-opacity:1;stroke:none;stroke-width:2;stroke-linecap:round;stroke-linejoin:round;marker:none;stroke-miterlimit:4;stroke-dasharray:none;stroke-dashoffset:0;stroke-opacity:1;visibility:visible;display:inline;overflow:visible;enable-background:accumulate" />
    <path
       d="M -378.94546,994.00468 C -382.76814,994.00468 -385.89559,997.11343 -385.89559,1000.9361 C -385.89559,1004.7587 -382.76812,1007.8862 -378.94546,1007.8862 C -375.12279,1007.8862 -371.99534,1004.7587 -371.99534,1000.9361 C -372.00076,1000.3842 -372.45229,999.94098 -373.00423,999.94585 L -377.95526,999.94585 L -377.95526,994.99485 L -378.94546,994.99485 C -378.77061,994.68795 -378.77061,994.31158 -378.94546,994.00468 z M -379.95435,996.20923 L -379.95435,1000.9361 C -379.95672,1001.2044 -379.85119,1001.4624 -379.66147,1001.6521 C -379.47175,1001.8418 -379.21376,1001.9473 -378.94546,1001.945 L -374.19995,1001.945 C -374.67363,1004.184 -376.56079,1005.8872 -378.94546,1005.8872 C -381.68601,1005.8871 -383.8965,1003.6766 -383.8965,1000.9361 C -383.8965,998.55475 -382.18869,996.68644 -379.95435,996.20923 z"
       id="path16046"
       style="fill:#bebebe;fill-opacity:1;stroke:none;stroke-width:3.34526253;stroke-linecap:round;stroke-linejoin:round;marker:none;stroke-miterlimit:4;stroke-dasharray:none;stroke-dashoffset:0;stroke-opacity:1;visibility:visible;display:inline;overflow:visible;enable-background:accumulate" />
    <path
       d="M -386.38043,984.08522 C -387.79002,984.26802 -389.17353,984.72932 -390.47418,985.49142 C -390.95743,985.76756 -391.12532,986.38317 -390.84918,986.86642 C -390.57304,987.34967 -389.95743,987.51756 -389.47418,987.24142 C -385.20523,984.74002 -379.72563,986.15992 -377.22418,990.42892 C -376.09174,992.36162 -375.75034,994.25272 -376.13043,996.46022 C -376.20829,996.81893 -376.0834,997.19147 -375.80504,997.43076 C -375.52669,997.67004 -375.13963,997.73762 -374.79666,997.6068 C -374.4537,997.47598 -374.20996,997.1678 -374.16168,996.80392 C -373.711,994.18652 -374.16269,991.68922 -375.50543,989.39762 C -377.79183,985.49572 -382.15165,983.53662 -386.38043,984.08522 z"
       id="path16048"
       style="fill:#bebebe;fill-opacity:1;stroke:none;stroke-width:2;stroke-linecap:round;stroke-linejoin:round;marker:none;stroke-miterlimit:4;stroke-dasharray:none;stroke-dashoffset:0;stroke-opacity:1;visibility:visible;display:inline;overflow:visible;enable-background:accumulate" />
  </g>
  <g
     transform="translate(396.00244,-983.99958)"
     id="layer4" />
  <g
     transform="translate(396.00244,-983.99958)"
     id="layer12" />
  <g
     transform="translate(396.00244,-983.99958)"
     id="layer9" />
  <g
     transform="translate(396.00244,-983.99958)"
     id="layer10" />
  <g
     transform="translate(396.00244,-983.99958)"
     id="layer6" />
</svg>
