<?xml version="1.0" encoding="UTF-8" standalone="no"?>
<!-- Created with Inkscape (http://www.inkscape.org/) -->
<svg
   xmlns:svg="http://www.w3.org/2000/svg"
   xmlns="http://www.w3.org/2000/svg"
   version="1.0"
   width="24"
   height="24"
   id="svg7384">
  <title
     id="title9167">Moblin Icon Theme</title>
  <defs
     id="defs7386" />
  <g
     transform="translate(426.00249,-1034.0008)"
     id="layer3" />
  <g
     transform="translate(426.00249,-1034.0008)"
     id="layer5" />
  <g
     transform="translate(426.00249,-1034.0008)"
     id="layer7" />
  <g
     transform="translate(426.00249,-1034.0008)"
     id="layer2" />
  <g
     transform="translate(426.00249,-1034.0008)"
     id="layer8" />
  <g
     transform="translate(426.00249,-1986.363)"
     id="layer1" />
  <g
     transform="translate(426.00249,-1034.0008)"
     id="layer11">
    <rect
       width="24"
       height="24"
       x="-426.0025"
       y="1034.0009"
       id="rect15997"
       style="opacity:0;fill:#ffffff;fill-opacity:1;stroke:none;display:inline" />
    <path
       d="M -412.94298,1036.1789 C -415.69886,1035.6659 -418.64443,1036.2231 -421.13048,1037.9289 C -421.48535,1038.1009 -421.70605,1038.4653 -421.69402,1038.8594 C -421.682,1039.2536 -421.43949,1039.6039 -421.0748,1039.7539 C -420.71012,1039.9039 -420.29133,1039.8255 -420.00548,1039.5539 C -415.92566,1036.7546 -410.36731,1037.8178 -407.56798,1041.8976 C -406.93542,1042.8196 -406.56649,1043.6277 -406.28673,1044.7102 C -406.14866,1045.2452 -405.60301,1045.567 -405.06798,1045.429 C -404.53295,1045.2909 -404.21116,1044.7452 -404.34923,1044.2102 C -404.67882,1042.9349 -405.16655,1041.8275 -405.91173,1040.7414 C -407.61751,1038.2553 -410.1871,1036.6919 -412.94298,1036.1789 z"
       id="path15999"
       style="fill:#bebebe;fill-opacity:1;stroke:none;stroke-width:2;stroke-linecap:round;stroke-linejoin:round;marker:none;stroke-miterlimit:4;stroke-dasharray:none;stroke-dashoffset:0;stroke-opacity:1;visibility:visible;display:inline;overflow:visible;enable-background:accumulate" />
    <path
       d="M -423.21875,1039.9688 C -423.67893,1039.99 -424.0651,1040.3228 -424.15402,1040.7748 C -424.24294,1041.2268 -424.01161,1041.6811 -423.59375,1041.875 L -417.90625,1044.9062 C -417.59953,1045.0634 -417.23347,1045.0516 -416.9375,1044.875 L -411.59375,1041.8438 C -411.22064,1041.7084 -410.96292,1041.3651 -410.93698,1040.969 C -410.91105,1040.573 -411.1218,1040.199 -411.47407,1040.0161 C -411.82634,1039.8332 -412.25344,1039.8759 -412.5625,1040.125 L -417.4375,1042.875 L -422.65625,1040.0938 C -422.82743,1039.9979 -423.02305,1039.9544 -423.21875,1039.9688 z"
       id="path16001"
       style="fill:#bebebe;fill-opacity:1;stroke:none;stroke-width:2;stroke-linecap:round;stroke-linejoin:round;marker:none;stroke-miterlimit:4;stroke-dasharray:none;stroke-dashoffset:0;stroke-opacity:1;visibility:visible;display:inline;overflow:visible;enable-background:accumulate" />
    <path
       d="M -424.28673,1042.3976 C -424.70244,1042.416 -425.06336,1042.6898 -425.19298,1043.0852 C -425.32653,1043.4381 -425.4078,1043.7518 -425.50548,1044.1164 C -427.06615,1049.9409 -423.61125,1055.962 -417.78673,1057.5226 C -417.25173,1057.6693 -416.69911,1057.3545 -416.5524,1056.8195 C -416.4057,1056.2845 -416.72048,1055.7319 -417.25548,1055.5852 C -422.03475,1054.3046 -424.87983,1049.3957 -423.59923,1044.6164 C -423.51617,1044.3064 -423.43158,1044.0729 -423.31798,1043.7726 C -423.19018,1043.4574 -423.23134,1043.0989 -423.42723,1042.8208 C -423.62313,1042.5428 -423.94691,1042.3834 -424.28673,1042.3976 L -424.28673,1042.3976 z"
       id="path16005"
       style="fill:#bebebe;fill-opacity:1;stroke:none;stroke-width:2;stroke-linecap:round;stroke-linejoin:round;marker:none;stroke-miterlimit:4;stroke-dasharray:none;stroke-dashoffset:0;stroke-opacity:1;visibility:visible;display:inline;overflow:visible;enable-background:accumulate" />
    <path
       d="M -409.51241,1045.9415 C -411.15992,1045.9415 -412.6532,1046.2934 -413.82281,1046.9314 C -414.99242,1047.5693 -415.9618,1048.6141 -415.96181,1050.0073 C -415.96181,1051.4004 -414.99242,1052.4098 -413.82281,1053.0478 C -412.6532,1053.6858 -411.15992,1054.0378 -409.51241,1054.0378 C -407.86489,1054.0378 -406.3392,1053.6858 -405.16959,1053.0478 C -403.99998,1052.4098 -403.0306,1051.4004 -403.03059,1050.0073 C -403.03059,1048.6141 -403.99998,1047.5693 -405.16959,1046.9314 C -406.3392,1046.2934 -407.86489,1045.9413 -409.51241,1045.9415 z M -409.51241,1048.0274 C -408.12392,1048.0274 -406.86602,1048.3572 -406.04463,1048.8052 C -405.22325,1049.2532 -404.94273,1049.7443 -404.94273,1050.0073 C -404.94273,1050.2702 -405.22324,1050.7259 -406.04463,1051.1741 C -406.86603,1051.6221 -408.12391,1051.9518 -409.51241,1051.9518 C -410.90089,1051.9519 -412.12638,1051.6221 -412.94777,1051.1741 C -413.76915,1050.7259 -414.04968,1050.2702 -414.04968,1050.0073 C -414.04968,1049.7443 -413.76915,1049.2532 -412.94777,1048.8052 C -412.12638,1048.3572 -410.9009,1048.0274 -409.51241,1048.0274 z"
       id="path16007"
       style="fill:#bebebe;fill-opacity:1;stroke:none;stroke-width:1.84637213;stroke-linecap:round;stroke-linejoin:round;marker:none;stroke-miterlimit:4;stroke-dasharray:none;stroke-dashoffset:0;stroke-opacity:1;visibility:visible;display:inline;overflow:visible;enable-background:accumulate" />
    <path
       d="M -404.10009,1052.9467 C -404.5893,1053.011 -404.95386,1053.4699 -404.94273,1054.0073 C -404.94273,1054.2703 -405.22324,1054.726 -406.04463,1055.1741 C -406.86603,1055.6221 -408.12391,1055.9518 -409.51241,1055.9518 C -410.86639,1055.9519 -412.06158,1055.6399 -412.88295,1055.2094 C -413.70431,1054.7789 -414.03031,1054.3065 -414.04968,1054.0427 C -414.09441,1053.4667 -414.55872,1053.0393 -415.08674,1053.0881 C -415.61476,1053.1369 -416.00654,1053.6434 -415.96181,1054.2195 C -415.86278,1055.5683 -414.88276,1056.5122 -413.72558,1057.1186 C -412.56841,1057.725 -411.11705,1058.0378 -409.51241,1058.0378 C -407.86489,1058.0378 -406.3392,1057.6859 -405.16959,1057.0479 C -403.99998,1056.4099 -403.0306,1055.4005 -403.03059,1054.0073 C -403.02441,1053.705 -403.13865,1053.4145 -403.34378,1053.2111 C -403.5489,1053.0077 -403.82478,1052.9112 -404.10009,1052.9467 L -404.10009,1052.9467 z"
       id="path16030"
       style="fill:#bebebe;fill-opacity:1;stroke:none;stroke-width:1.84637213;stroke-linecap:round;stroke-linejoin:round;marker:none;stroke-miterlimit:4;stroke-dasharray:none;stroke-dashoffset:0;stroke-opacity:1;visibility:visible;display:inline;overflow:visible;enable-background:accumulate" />
    <path
       d="M -404.25,1048.9062 C -404.71563,1049.0105 -405.04274,1049.4292 -405.03125,1049.9062 L -405.03125,1053.9688 C -405.03635,1054.3294 -404.84687,1054.6649 -404.53538,1054.8467 C -404.22388,1055.0285 -403.83862,1055.0285 -403.52712,1054.8467 C -403.21563,1054.6649 -403.02615,1054.3294 -403.03125,1053.9688 L -403.03125,1049.9062 C -403.02381,1049.5983 -403.15861,1049.3042 -403.39668,1049.1089 C -403.63474,1048.9136 -403.94952,1048.8388 -404.25,1048.9062 z"
       id="path16032"
       style="fill:#bebebe;fill-opacity:1;stroke:none;stroke-width:2;stroke-linecap:round;stroke-linejoin:round;marker:none;stroke-miterlimit:4;stroke-dasharray:none;stroke-dashoffset:0;stroke-opacity:1;visibility:visible;display:inline;overflow:visible;enable-background:accumulate" />
    <path
       d="M -415.28125,1048.9062 C -415.74688,1049.0105 -416.07399,1049.4292 -416.0625,1049.9062 L -416.0625,1053.875 C -416.0676,1054.2356 -415.87812,1054.5711 -415.56663,1054.7529 C -415.25513,1054.9347 -414.86987,1054.9347 -414.55837,1054.7529 C -414.24688,1054.5711 -414.0574,1054.2356 -414.0625,1053.875 L -414.0625,1049.9062 C -414.05506,1049.5983 -414.18986,1049.3042 -414.42793,1049.1089 C -414.66599,1048.9136 -414.98077,1048.8388 -415.28125,1048.9062 L -415.28125,1048.9062 z"
       id="path16034"
       style="fill:#bebebe;fill-opacity:1;stroke:none;stroke-width:2;stroke-linecap:round;stroke-linejoin:round;marker:none;stroke-miterlimit:4;stroke-dasharray:none;stroke-dashoffset:0;stroke-opacity:1;visibility:visible;display:inline;overflow:visible;enable-background:accumulate" />
  </g>
  <g
     transform="translate(426.00249,-1034.0008)"
     id="layer4" />
  <g
     transform="translate(426.00249,-1034.0008)"
     id="layer9" />
  <g
     transform="translate(426.00249,-1034.0008)"
     id="layer10" />
  <g
     transform="translate(426.00249,-1034.0008)"
     id="layer6" />
</svg>
