<?xml version="1.0" encoding="UTF-8" standalone="no"?>
<!-- Created with Inkscape (http://www.inkscape.org/) -->
<svg
   xmlns:svg="http://www.w3.org/2000/svg"
   xmlns="http://www.w3.org/2000/svg"
   version="1.0"
   width="24"
   height="24"
   id="svg7384">
  <title
     id="title9167">Moblin Icon Theme</title>
  <defs
     id="defs7386" />
  <g
     transform="translate(481.99995,-984.00082)"
     id="layer3" />
  <g
     transform="translate(481.99995,-984.00082)"
     id="layer5" />
  <g
     transform="translate(481.99995,-984.00082)"
     id="layer7" />
  <g
     transform="translate(481.99995,-984.00082)"
     id="layer2" />
  <g
     transform="translate(481.99995,-984.00082)"
     id="layer8" />
  <g
     transform="translate(481.99995,-1936.363)"
     id="layer1" />
  <g
     transform="translate(481.99995,-984.00082)"
     id="layer11">
    <rect
       width="24"
       height="24"
       x="-481.99994"
       y="984.00079"
       id="rect15942"
       style="opacity:0;fill:#ffffff;fill-opacity:1;stroke:none;display:inline" />
    <path
       d="M -472.99369,984.22782 C -474.38883,984.49982 -475.74407,985.04082 -476.99369,985.88402 C -477.45104,986.19468 -477.56995,986.81727 -477.25929,987.27462 C -476.94863,987.73197 -476.32604,987.85088 -475.86869,987.54022 C -471.76722,984.77272 -466.22998,985.84502 -463.46244,989.94652 C -461.46036,992.91362 -461.36148,996.42672 -463.18119,999.50902 C -463.46595,999.98364 -463.31203,1000.5992 -462.83742,1000.884 C -462.3628,1001.1688 -461.7472,1001.0148 -461.46244,1000.5402 C -459.27828,996.84062 -459.40314,992.41402 -461.80619,988.85282 C -464.3358,985.10392 -468.80828,983.41172 -472.99369,984.22782 z"
       id="path15968"
       style="fill:#bebebe;fill-opacity:1;stroke:none;stroke-width:2;stroke-linecap:round;stroke-linejoin:round;marker:none;stroke-miterlimit:4;stroke-dasharray:none;stroke-dashoffset:0;stroke-opacity:1;visibility:visible;display:inline;overflow:visible;enable-background:accumulate" />
    <path
       d="M -479.25,988 C -479.67297,988.07494 -480.00085,988.4116 -480.06457,988.83641 C -480.12829,989.26121 -479.91362,989.67926 -479.53125,989.875 L -476.46875,991.5 C -476.15278,991.7227 -475.73677,991.74337 -475.40029,991.55308 C -475.06381,991.3628 -474.86711,990.99564 -474.89512,990.61009 C -474.92312,990.22455 -475.1708,989.88966 -475.53125,989.75 L -478.59375,988.125 C -478.79171,988.00934 -479.02339,987.96521 -479.25,988 z M -468.15625,988 C -468.27754,988.02018 -468.39408,988.06256 -468.5,988.125 L -472.4375,990.375 C -472.78761,990.5308 -473.01791,990.87297 -473.03046,991.25598 C -473.043,991.63899 -472.83558,991.99549 -472.49641,992.17386 C -472.15725,992.35224 -471.74597,992.32112 -471.4375,992.09375 L -467.5,989.875 C -467.04412,989.65272 -466.82681,989.12439 -466.99436,988.64568 C -467.1619,988.16697 -467.66126,987.88948 -468.15625,988 L -468.15625,988 z"
       id="path15970"
       style="fill:#bebebe;fill-opacity:1;stroke:none;stroke-width:2;stroke-linecap:round;stroke-linejoin:round;marker:none;stroke-miterlimit:4;stroke-dasharray:none;stroke-dashoffset:0;stroke-opacity:1;visibility:visible;display:inline;overflow:visible;enable-background:accumulate" />
    <path
       d="M -471.4375,993 C -471.66694,992.99639 -471.8694,993.14942 -471.92852,993.37114 C -471.98765,993.59287 -471.88827,993.82638 -471.6875,993.9375 L -470.15625,994.9375 C -469.98652,995.05295 -469.76348,995.05295 -469.59375,994.9375 L -468.15625,993.9375 C -467.92325,993.78217 -467.86029,993.46737 -468.01562,993.23437 C -468.17096,993.00138 -468.48575,992.93842 -468.71875,993.09375 L -469.90625,993.90625 L -471.15625,993.09375 C -471.23837,993.03479 -471.33643,993.0021 -471.4375,993 z"
       id="path15972"
       style="fill:#bebebe;fill-opacity:1;stroke:none;stroke-width:1;stroke-linecap:round;stroke-linejoin:round;marker:none;stroke-miterlimit:4;stroke-dasharray:none;stroke-dashoffset:0;stroke-opacity:1;visibility:visible;display:inline;overflow:visible;enable-background:accumulate" />
    <path
       d="M -480.21244,990.41522 C -480.62815,990.43357 -480.98907,990.7074 -481.11869,991.10282 C -481.9677,993.34662 -482.04329,995.57282 -481.39994,997.88402 C -479.78287,1003.6931 -473.7403,1007.1261 -467.93119,1005.509 C -467.39616,1005.3623 -467.08136,1004.8097 -467.22806,1004.2746 C -467.37477,1003.7396 -467.92741,1003.4248 -468.46244,1003.5715 C -473.22906,1004.8984 -478.16681,1002.1194 -479.49369,997.35282 C -480.0371,995.40062 -479.96081,993.68552 -479.24369,991.79022 C -479.11589,991.47502 -479.15705,991.11647 -479.35294,990.83843 C -479.54884,990.56038 -479.87262,990.40096 -480.21244,990.41522 L -480.21244,990.41522 z"
       id="path15986"
       style="fill:#bebebe;fill-opacity:1;stroke:none;stroke-width:2;stroke-linecap:round;stroke-linejoin:round;marker:none;stroke-miterlimit:4;stroke-dasharray:none;stroke-dashoffset:0;stroke-opacity:1;visibility:visible;display:inline;overflow:visible;enable-background:accumulate" />
    <path
       d="M -464.99995,1000.9375 C -466.03927,1001.309 -466.8111,1001.9236 -466.93745,1003.125 L -476.06245,994.0625 C -476.6562,993.3125 -475.7187,992.3437 -475.06245,992.9375 L -464.99995,1000.9375 z"
       id="path15988"
       style="fill:#bebebe;fill-opacity:1;fill-rule:nonzero;stroke:none;stroke-width:1;marker:none;visibility:visible;display:inline;overflow:visible;enable-background:accumulate" />
    <path
       d="M -463.49995,1002 C -464.88066,1002 -465.99995,1003.1193 -465.99995,1004.5 C -465.99995,1005.8807 -464.88066,1007 -463.49995,1007 C -463.48935,1007 -463.47925,1007.0001 -463.46865,1007 L -458.03115,1007 L -461.40615,1003.125 L -461.43745,1003.094 C -461.56564,1002.9042 -461.70089,1002.7417 -461.87495,1002.594 C -461.90425,1002.569 -461.93825,1002.555 -461.96865,1002.531 C -462.39117,1002.2047 -462.92465,1002 -463.49995,1002 z"
       id="path15990"
       style="fill:#bebebe;fill-opacity:1;fill-rule:nonzero;stroke:none;stroke-width:1;marker:none;visibility:visible;display:inline;overflow:visible;enable-background:accumulate" />
  </g>
  <g
     transform="translate(481.99995,-984.00082)"
     id="layer4" />
  <g
     transform="translate(481.99995,-984.00082)"
     id="layer12" />
  <g
     transform="translate(481.99995,-984.00082)"
     id="layer9" />
  <g
     transform="translate(481.99995,-984.00082)"
     id="layer10" />
  <g
     transform="translate(481.99995,-984.00082)"
     id="layer6" />
</svg>
