<?xml version="1.0" encoding="UTF-8" standalone="no"?>
<!-- Created with Inkscape (http://www.inkscape.org/) -->
<svg
   xmlns:svg="http://www.w3.org/2000/svg"
   xmlns="http://www.w3.org/2000/svg"
   version="1.0"
   width="24"
   height="24.001242"
   id="svg7384">
  <title
     id="title9167">Moblin Icon Theme</title>
  <defs
     id="defs7386" />
  <g
     transform="translate(537.99995,-1014.0012)"
     id="layer3" />
  <g
     transform="translate(537.99995,-1014.0012)"
     id="layer5" />
  <g
     transform="translate(537.99995,-1014.0012)"
     id="layer7" />
  <g
     transform="translate(537.99995,-1014.0012)"
     id="layer2" />
  <g
     transform="translate(537.99995,-1014.0012)"
     id="layer8" />
  <g
     transform="translate(537.99995,-1966.3634)"
     id="layer1" />
  <g
     transform="translate(537.99995,-1014.0012)"
     id="layer11">
    <rect
       width="24"
       height="24"
       x="-537.99994"
       y="1014.0024"
       id="rect16153"
       style="opacity:0;fill:#ffffff;fill-opacity:1;stroke:none;display:inline" />
    <path
       d="M -536.28419,1020.3992 C -536.6999,1020.4176 -537.06082,1020.6914 -537.19044,1021.0868 C -537.26198,1021.2758 -537.31665,1021.4255 -537.37794,1021.618 C -539.20716,1027.3638 -535.99876,1033.5388 -530.25294,1035.368 C -529.90533,1035.4999 -529.51328,1035.428 -529.23502,1035.1815 C -528.95676,1034.9349 -528.83823,1034.5544 -528.92726,1034.1934 C -529.01629,1033.8325 -529.2982,1033.5507 -529.65919,1033.4618 C -534.37387,1031.9608 -536.97264,1026.9577 -535.47169,1022.243 C -535.41951,1022.0791 -535.37626,1021.935 -535.31544,1021.7742 C -535.18764,1021.459 -535.2288,1021.1005 -535.42469,1020.8224 C -535.62059,1020.5444 -535.94437,1020.385 -536.28419,1020.3992 L -536.28419,1020.3992 z"
       id="path16155"
       style="fill:#bebebe;fill-opacity:1;stroke:none;stroke-width:2;stroke-linecap:round;stroke-linejoin:round;marker:none;stroke-miterlimit:4;stroke-dasharray:none;stroke-dashoffset:0;stroke-opacity:1;visibility:visible;display:inline;overflow:visible;enable-background:accumulate" />
    <path
       d="M -535.21875,1017.9688 C -535.67893,1017.99 -536.0651,1018.3228 -536.15402,1018.7748 C -536.24294,1019.2268 -536.01161,1019.6811 -535.59375,1019.875 L -529.90625,1022.9062 C -529.59953,1023.0634 -529.23347,1023.0516 -528.9375,1022.875 L -523.59375,1019.8438 C -523.22064,1019.7084 -522.96292,1019.3651 -522.93698,1018.969 C -522.91105,1018.573 -523.1218,1018.199 -523.47407,1018.0161 C -523.82634,1017.8332 -524.25344,1017.8759 -524.5625,1018.125 L -529.4375,1020.875 L -534.65625,1018.0938 C -534.82743,1017.9979 -535.02305,1017.9544 -535.21875,1017.9688 z"
       id="path16157"
       style="fill:#bebebe;fill-opacity:1;stroke:none;stroke-width:2;stroke-linecap:round;stroke-linejoin:round;marker:none;stroke-miterlimit:4;stroke-dasharray:none;stroke-dashoffset:0;stroke-opacity:1;visibility:visible;display:inline;overflow:visible;enable-background:accumulate" />
    <path
       d="M -528.37794,1014.0868 C -529.78754,1014.2696 -531.17104,1014.7309 -532.47169,1015.493 C -532.95494,1015.7692 -533.12283,1016.3848 -532.84669,1016.868 C -532.57055,1017.3513 -531.95494,1017.5192 -531.47169,1017.243 C -527.20274,1014.7416 -521.72314,1016.1615 -519.22169,1020.4305 C -518.78634,1021.1735 -518.5383,1021.7863 -518.31544,1022.618 C -518.17737,1023.153 -517.63172,1023.4748 -517.09669,1023.3368 C -516.56166,1023.1987 -516.23987,1022.653 -516.37794,1022.118 C -516.64027,1021.139 -516.99056,1020.2737 -517.50294,1019.3992 C -519.78934,1015.4973 -524.14915,1013.5382 -528.37794,1014.0868 z"
       id="path16159"
       style="fill:#bebebe;fill-opacity:1;stroke:none;stroke-width:2;stroke-linecap:round;stroke-linejoin:round;marker:none;stroke-miterlimit:4;stroke-dasharray:none;stroke-dashoffset:0;stroke-opacity:1;visibility:visible;display:inline;overflow:visible;enable-background:accumulate" />
    <path
       d="M -527.15625,1024.0938 C -527.67161,1024.1424 -528.06473,1024.5762 -528.0625,1025.0938 L -528.0625,1037 C -528.06244,1037.5523 -527.61476,1037.9999 -527.0625,1038 L -516.96875,1038 C -516.41649,1037.9999 -515.96881,1037.5523 -515.96875,1037 L -515.96875,1028.0312 C -515.97081,1027.7591 -516.08365,1027.4996 -516.28125,1027.3125 L -519.25,1024.375 C -519.43457,1024.1965 -519.68073,1024.0958 -519.9375,1024.0938 L -527.0625,1024.0938 C -527.09373,1024.0923 -527.12502,1024.0923 -527.15625,1024.0938 z M -526.0625,1026.0938 L -520.375,1026.0938 L -517.96875,1028.4375 L -517.96875,1036 L -526.0625,1036 L -526.0625,1026.0938 z"
       id="rect16161"
       style="fill:#bebebe;fill-opacity:1;stroke:none;stroke-width:2;stroke-linecap:round;stroke-linejoin:round;marker:none;stroke-miterlimit:4;stroke-dashoffset:0;stroke-opacity:1;visibility:visible;display:inline;overflow:visible;enable-background:accumulate" />
    <path
       d="M -524.65625,1028.0625 C -524.93239,1028.1056 -525.12127,1028.3645 -525.07812,1028.6406 C -525.03498,1028.9168 -524.77614,1029.1056 -524.5,1029.0625 L -521.40625,1029.0625 C -521.22593,1029.0651 -521.05821,1028.9703 -520.96731,1028.8146 C -520.8764,1028.6588 -520.8764,1028.4662 -520.96731,1028.3104 C -521.05821,1028.1547 -521.22593,1028.0599 -521.40625,1028.0625 L -524.5,1028.0625 C -524.55176,1028.0543 -524.60449,1028.0543 -524.65625,1028.0625 z"
       id="path16166"
       style="fill:#bebebe;fill-opacity:1;stroke:none;stroke-width:1;stroke-linecap:round;stroke-linejoin:round;marker:none;stroke-miterlimit:4;stroke-dasharray:none;stroke-dashoffset:0;stroke-opacity:1;visibility:visible;display:inline;overflow:visible;enable-background:accumulate" />
    <path
       d="M -524.375,1030 C -524.65114,1030.0345 -524.84702,1030.2864 -524.8125,1030.5625 C -524.77798,1030.8386 -524.52614,1031.0345 -524.25,1031 L -519.71875,1031 C -519.53843,1031.0026 -519.37071,1030.9078 -519.27981,1030.7521 C -519.1889,1030.5963 -519.1889,1030.4037 -519.27981,1030.2479 C -519.37071,1030.0922 -519.53843,1029.9974 -519.71875,1030 L -524.25,1030 C -524.2915,1029.9948 -524.3335,1029.9948 -524.375,1030 z"
       id="path16168"
       style="fill:#bebebe;fill-opacity:1;stroke:none;stroke-width:1;stroke-linecap:round;stroke-linejoin:round;marker:none;stroke-miterlimit:4;stroke-dasharray:none;stroke-dashoffset:0;stroke-opacity:1;visibility:visible;display:inline;overflow:visible;enable-background:accumulate" />
    <path
       d="M -524.375,1032 C -524.65114,1032.0345 -524.84702,1032.2864 -524.8125,1032.5625 C -524.77798,1032.8386 -524.52614,1033.0345 -524.25,1033 L -519.71875,1033 C -519.53843,1033.0026 -519.37071,1032.9078 -519.27981,1032.7521 C -519.1889,1032.5963 -519.1889,1032.4037 -519.27981,1032.2479 C -519.37071,1032.0922 -519.53843,1031.9974 -519.71875,1032 L -524.25,1032 C -524.2915,1031.9948 -524.3335,1031.9948 -524.375,1032 z"
       id="path16170"
       style="fill:#bebebe;fill-opacity:1;stroke:none;stroke-width:1;stroke-linecap:round;stroke-linejoin:round;marker:none;stroke-miterlimit:4;stroke-dasharray:none;stroke-dashoffset:0;stroke-opacity:1;visibility:visible;display:inline;overflow:visible;enable-background:accumulate" />
    <path
       d="M -524.375,1034 C -524.65114,1034.0345 -524.84702,1034.2864 -524.8125,1034.5625 C -524.77798,1034.8386 -524.52614,1035.0345 -524.25,1035 L -519.71875,1035 C -519.53843,1035.0026 -519.37071,1034.9078 -519.27981,1034.7521 C -519.1889,1034.5963 -519.1889,1034.4037 -519.27981,1034.2479 C -519.37071,1034.0922 -519.53843,1033.9974 -519.71875,1034 L -524.25,1034 C -524.2915,1033.9948 -524.3335,1033.9948 -524.375,1034 z"
       id="path16172"
       style="fill:#bebebe;fill-opacity:1;stroke:none;stroke-width:1;stroke-linecap:round;stroke-linejoin:round;marker:none;stroke-miterlimit:4;stroke-dasharray:none;stroke-dashoffset:0;stroke-opacity:1;visibility:visible;display:inline;overflow:visible;enable-background:accumulate" />
  </g>
  <g
     transform="translate(537.99995,-1014.0012)"
     id="layer4" />
  <g
     transform="translate(537.99995,-1014.0012)"
     id="layer12" />
  <g
     transform="translate(537.99995,-1014.0012)"
     id="layer9" />
  <g
     transform="translate(537.99995,-1014.0012)"
     id="layer10" />
  <g
     transform="translate(537.99995,-1014.0012)"
     id="layer6" />
</svg>
