<?xml version="1.0" encoding="UTF-8" standalone="no"?>
<!-- Created with Inkscape (http://www.inkscape.org/) -->
<svg
   xmlns:svg="http://www.w3.org/2000/svg"
   xmlns="http://www.w3.org/2000/svg"
   version="1.0"
   width="24"
   height="24.001242"
   id="svg7384">
  <title
     id="title9167">Moblin Icon Theme</title>
  <defs
     id="defs7386" />
  <g
     transform="translate(617.99995,-1014.0012)"
     id="layer3" />
  <g
     transform="translate(617.99995,-1014.0012)"
     id="layer5" />
  <g
     transform="translate(617.99995,-1014.0012)"
     id="layer7" />
  <g
     transform="translate(617.99995,-1014.0012)"
     id="layer2" />
  <g
     transform="translate(617.99995,-1014.0012)"
     id="layer8" />
  <g
     transform="translate(617.99995,-1966.3634)"
     id="layer1" />
  <g
     transform="translate(617.99995,-1014.0012)"
     id="layer11">
    <rect
       width="24"
       height="24"
       x="-617.99994"
       y="1014.0024"
       id="rect16052"
       style="opacity:0;fill:#ffffff;fill-opacity:1;stroke:none;display:inline" />
    <path
       d="M -616.28419,1020.3992 C -616.6999,1020.4176 -617.06082,1020.6914 -617.19044,1021.0868 C -617.38618,1021.6041 -617.50978,1022.0777 -617.62794,1022.618 C -618.91612,1028.5088 -615.17496,1034.3611 -609.28419,1035.6492 C -608.74055,1035.77 -608.2019,1035.4273 -608.08109,1034.8836 C -607.96028,1034.34 -608.30305,1033.8013 -608.84669,1033.6805 C -613.68031,1032.6235 -616.74744,1027.8579 -615.69044,1023.0242 C -615.58996,1022.5648 -615.48189,1022.2141 -615.31544,1021.7742 C -615.18764,1021.459 -615.2288,1021.1005 -615.42469,1020.8224 C -615.62059,1020.5444 -615.94437,1020.385 -616.28419,1020.3992 L -616.28419,1020.3992 z"
       id="path16054"
       style="fill:#bebebe;fill-opacity:1;stroke:none;stroke-width:2;stroke-linecap:round;stroke-linejoin:round;marker:none;stroke-miterlimit:4;stroke-dasharray:none;stroke-dashoffset:0;stroke-opacity:1;visibility:visible;display:inline;overflow:visible;enable-background:accumulate" />
    <path
       d="M -615.21875,1017.9688 C -615.67893,1017.99 -616.0651,1018.3228 -616.15402,1018.7748 C -616.24294,1019.2268 -616.01161,1019.6811 -615.59375,1019.875 L -609.90625,1022.9062 C -609.59953,1023.0634 -609.23347,1023.0516 -608.9375,1022.875 L -603.59375,1019.8438 C -603.22064,1019.7084 -602.96292,1019.3651 -602.93698,1018.969 C -602.91105,1018.573 -603.1218,1018.199 -603.47407,1018.0161 C -603.82634,1017.8332 -604.25344,1017.8759 -604.5625,1018.125 L -609.4375,1020.875 L -614.65625,1018.0938 C -614.82743,1017.9979 -615.02305,1017.9544 -615.21875,1017.9688 z"
       id="path16056"
       style="fill:#bebebe;fill-opacity:1;stroke:none;stroke-width:2;stroke-linecap:round;stroke-linejoin:round;marker:none;stroke-miterlimit:4;stroke-dasharray:none;stroke-dashoffset:0;stroke-opacity:1;visibility:visible;display:inline;overflow:visible;enable-background:accumulate" />
    <path
       d="M -608.37794,1014.0868 C -609.78754,1014.2696 -611.17104,1014.7309 -612.47169,1015.493 C -612.95494,1015.7692 -613.12283,1016.3848 -612.84669,1016.868 C -612.57055,1017.3513 -611.95494,1017.5192 -611.47169,1017.243 C -607.20274,1014.7416 -601.72314,1016.1615 -599.22169,1020.4305 C -598.78634,1021.1735 -598.5383,1021.7863 -598.31544,1022.618 C -598.17737,1023.153 -597.63172,1023.4748 -597.09669,1023.3368 C -596.56166,1023.1987 -596.23987,1022.653 -596.37794,1022.118 C -596.64027,1021.139 -596.99056,1020.2737 -597.50294,1019.3992 C -599.78934,1015.4973 -604.14915,1013.5382 -608.37794,1014.0868 z"
       id="path16060"
       style="fill:#bebebe;fill-opacity:1;stroke:none;stroke-width:2;stroke-linecap:round;stroke-linejoin:round;marker:none;stroke-miterlimit:4;stroke-dasharray:none;stroke-dashoffset:0;stroke-opacity:1;visibility:visible;display:inline;overflow:visible;enable-background:accumulate" />
    <path
       d="M -606.96875,1024.0938 C -607.48411,1024.1424 -607.87723,1024.5762 -607.875,1025.0938 L -607.875,1033 C -607.87494,1033.5523 -607.42726,1033.9999 -606.875,1034 L -596.96875,1034 C -596.41649,1033.9999 -595.96881,1033.5523 -595.96875,1033 L -595.96875,1025.0938 C -595.96881,1024.5415 -596.41649,1024.0939 -596.96875,1024.0938 L -606.875,1024.0938 C -606.90623,1024.0923 -606.93752,1024.0923 -606.96875,1024.0938 z M -605.875,1026.0938 L -597.96875,1026.0938 L -597.96875,1032 L -605.875,1032 L -605.875,1026.0938 z"
       id="rect16062"
       style="fill:#bebebe;fill-opacity:1;stroke:none;stroke-width:2;stroke-linecap:round;stroke-linejoin:round;marker:none;stroke-miterlimit:4;stroke-dasharray:none;stroke-dashoffset:0;stroke-opacity:1;visibility:visible;display:inline;overflow:visible;enable-background:accumulate" />
    <path
       d="M -601.99933,1032.0937 C -603.64615,1032.0937 -605.00504,1033.4525 -605.00501,1035.0994 C -605.00501,1035.6528 -604.55645,1036.1013 -604.00312,1036.1013 C -603.44979,1036.1013 -603.00122,1035.6528 -603.00122,1035.0994 C -603.00123,1034.5347 -602.56403,1034.0975 -601.99933,1034.0975 C -601.43456,1034.0975 -600.99743,1034.5347 -600.99743,1035.0994 C -600.99743,1035.6528 -600.54887,1036.1013 -599.99554,1036.1013 C -599.4422,1036.1013 -598.99364,1035.6528 -598.99364,1035.0994 C -598.99364,1033.4525 -600.35256,1032.0938 -601.99933,1032.0937 z"
       id="path16064"
       style="fill:#bebebe;fill-opacity:1;stroke:none;stroke-width:1.80907047;stroke-linecap:round;stroke-linejoin:round;marker:none;stroke-miterlimit:4;stroke-dasharray:none;stroke-dashoffset:0;stroke-opacity:1;visibility:visible;display:inline;overflow:visible;enable-background:accumulate" />
  </g>
  <g
     transform="translate(617.99995,-1014.0012)"
     id="layer4" />
  <g
     transform="translate(617.99995,-1014.0012)"
     id="layer12" />
  <g
     transform="translate(617.99995,-1014.0012)"
     id="layer9" />
  <g
     transform="translate(617.99995,-1014.0012)"
     id="layer10" />
  <g
     transform="translate(617.99995,-1014.0012)"
     id="layer6" />
</svg>
