<?xml version="1.0" encoding="UTF-8" standalone="no"?>
<!-- Created with Inkscape (http://www.inkscape.org/) -->
<svg
   xmlns:svg="http://www.w3.org/2000/svg"
   xmlns="http://www.w3.org/2000/svg"
   version="1.0"
   width="24"
   height="24"
   id="svg7384">
  <title
     id="title9167">Moblin Icon Theme</title>
  <defs
     id="defs7386" />
  <g
     transform="translate(565.99995,-1014)"
     id="layer3" />
  <g
     transform="translate(565.99995,-1014)"
     id="layer5" />
  <g
     transform="translate(565.99995,-1014)"
     id="layer7" />
  <g
     transform="translate(565.99995,-1014)"
     id="layer2" />
  <g
     transform="translate(565.99995,-1014)"
     id="layer8" />
  <g
     transform="translate(565.99995,-1966.3622)"
     id="layer1" />
  <g
     transform="translate(565.99995,-1014)"
     id="layer11">
    <rect
       width="24"
       height="24"
       x="-565.99994"
       y="1014"
       id="rect16084"
       style="opacity:0;fill:#ffffff;fill-opacity:1;stroke:none;display:inline" />
    <path
       d="M -551.03419,1016.1781 C -553.79505,1015.6926 -556.75276,1016.2601 -559.22169,1017.9906 C -559.54339,1018.1844 -559.72943,1018.542 -559.70339,1018.9166 C -559.67736,1019.2913 -559.44363,1019.6198 -559.09822,1019.7672 C -558.75281,1019.9146 -558.35394,1019.856 -558.06544,1019.6156 C -554.01371,1016.7757 -548.46782,1017.7514 -545.62794,1021.8031 C -542.78806,1025.8548 -543.76373,1031.432 -547.81544,1034.2718 C -551.86717,1037.1117 -557.41306,1036.1361 -560.25294,1032.0844 C -562.03158,1029.5468 -562.41211,1026.6702 -561.31544,1023.7718 C -561.16845,1023.4314 -561.22181,1023.0377 -561.45407,1022.7487 C -561.68634,1022.4598 -562.0594,1022.323 -562.4234,1022.3934 C -562.7874,1022.4637 -563.08261,1022.7297 -563.19044,1023.0844 C -564.5004,1026.5464 -564.03377,1030.1782 -561.90919,1033.2094 C -558.44822,1038.1472 -551.59705,1039.3578 -546.65919,1035.8968 C -541.72134,1032.4359 -540.5107,1025.5847 -543.97169,1020.6468 C -545.70218,1018.1779 -548.27333,1016.6636 -551.03419,1016.1781 z"
       id="path16086"
       style="fill:#bebebe;fill-opacity:1;stroke:none;stroke-width:2;stroke-linecap:round;stroke-linejoin:round;marker:none;stroke-miterlimit:4;stroke-dasharray:none;stroke-dashoffset:0;stroke-opacity:1;visibility:visible;display:inline;overflow:visible;enable-background:accumulate" />
    <path
       d="M -561.21875,1019.9688 C -561.67893,1019.99 -562.0651,1020.3228 -562.15402,1020.7748 C -562.24294,1021.2268 -562.01161,1021.6811 -561.59375,1021.875 L -555.90625,1024.9062 C -555.59953,1025.0634 -555.23347,1025.0516 -554.9375,1024.875 L -549.59375,1021.8438 C -549.22064,1021.7084 -548.96292,1021.3651 -548.93698,1020.969 C -548.91105,1020.573 -549.1218,1020.199 -549.47407,1020.0161 C -549.82634,1019.8332 -550.25344,1019.8759 -550.5625,1020.125 L -555.4375,1022.875 L -560.65625,1020.0938 C -560.82743,1019.9979 -561.02305,1019.9544 -561.21875,1019.9688 z"
       id="path16088"
       style="fill:#bebebe;fill-opacity:1;stroke:none;stroke-width:2;stroke-linecap:round;stroke-linejoin:round;marker:none;stroke-miterlimit:4;stroke-dasharray:none;stroke-dashoffset:0;stroke-opacity:1;visibility:visible;display:inline;overflow:visible;enable-background:accumulate" />
    <path
       d="M -547.8125,1022.9062 L -547.78125,1023.6562 L -547.71875,1025.5938 L -550.21875,1023.75 L -550.71875,1023.375 L -550.96875,1023.9688 L -552.25,1026.9375 C -552.45787,1026.935 -552.67393,1026.9426 -553.09375,1026.9375 C -553.42046,1026.9335 -553.52317,1026.909 -553.75,1026.9062 C -553.71957,1026.4162 -553.6875,1025.7812 -553.6875,1025.7812 C -553.67027,1025.5051 -553.88016,1025.2672 -554.1563,1025.25 C -554.43244,1025.2328 -554.67027,1025.4427 -554.6875,1025.7188 C -554.6875,1025.7188 -554.78125,1027.375 -554.78125,1027.375 L -554.78125,1027.5 L -554.75,1027.625 C -554.75,1027.625 -553.71586,1027.9303 -553.125,1027.9375 C -552.53414,1027.9447 -551.9375,1027.9375 -551.9375,1027.9375 L -551.59375,1027.9375 L -551.46875,1027.625 L -550.3125,1024.9375 L -547.46875,1027.0312 L -546.625,1027.625 L -546.6875,1026.5938 L -546.75,1024.3438 L -544.0625,1025.2812 C -543.795,1025.3761 -543.5012,1025.2362 -543.40628,1024.9687 C -543.31135,1024.7012 -543.45125,1024.4074 -543.71875,1024.3125 L -547.125,1023.1562 L -547.8125,1022.9062 z"
       id="path6777-5"
       style="fill:#bebebe;fill-opacity:1;fill-rule:nonzero;stroke:none;stroke-width:1;stroke-linecap:round;stroke-linejoin:miter;marker:none;stroke-miterlimit:4;stroke-dasharray:none;stroke-dashoffset:0;stroke-opacity:1;visibility:visible;display:inline;overflow:visible;enable-background:accumulate" />
    <path
       d="M -548.5,1028.125 L -548.59375,1028.1875 L -553.65625,1030.5938 L -553.9375,1030.7188 L -553.9375,1031.0312 L -554,1033.8438 L -554,1034.3438 L -553.5,1034.3438 L -549.65625,1034.3438 L -548.5625,1036.3125 L -548.25,1036.875 L -547.78125,1036.4062 L -546.15625,1034.75 L -545.9375,1034.5312 L -546.03125,1034.25 L -547.90625,1028.4688 L -548.03125,1028.125 L -548.40625,1028.125 L -548.5,1028.125 z M -548.6875,1029.3438 L -547.0625,1034.25 L -548.03125,1035.25 L -548.96875,1033.625 L -549.09375,1033.3438 L -549.40625,1033.3438 L -553,1033.3438 L -552.9375,1031.375 L -548.6875,1029.3438 z"
       id="path6780-4"
       style="fill:#bebebe;fill-opacity:1;fill-rule:nonzero;stroke:none;stroke-width:1;stroke-linecap:round;stroke-linejoin:miter;marker:none;stroke-miterlimit:4;stroke-dasharray:none;stroke-dashoffset:0;stroke-opacity:1;visibility:visible;display:inline;overflow:visible;enable-background:accumulate" />
    <path
       d="M -558.625,1023.9688 C -558.70439,1023.982 -558.77944,1024.0141 -558.84375,1024.0625 L -561.8125,1026.0312 L -562.53125,1026.5 L -561.78125,1026.875 L -558.5,1028.5938 L -560.53125,1031.0625 L -560.71875,1031.2812 L -560.59375,1031.5625 L -558.78125,1035.625 C -558.72369,1035.809 -558.56546,1035.9435 -558.37459,1035.9708 C -558.18371,1035.998 -557.99419,1035.913 -557.8875,1035.7524 C -557.7808,1035.5918 -557.77594,1035.3842 -557.875,1035.2188 L -559.5625,1031.4375 L -557.34375,1028.75 L -556.96875,1028.2812 L -557.5,1028 L -560.5625,1026.4062 L -558.28125,1024.9062 C -558.03813,1024.8008 -557.91945,1024.524 -558.01068,1024.2753 C -558.10191,1024.0265 -558.37138,1023.892 -558.625,1023.9688 L -558.625,1023.9688 z"
       id="path6782-7"
       style="fill:#bebebe;fill-opacity:1;fill-rule:nonzero;stroke:none;stroke-width:1;stroke-linecap:round;stroke-linejoin:miter;marker:none;stroke-miterlimit:4;stroke-dasharray:none;stroke-dashoffset:0;stroke-opacity:1;visibility:visible;display:inline;overflow:visible;enable-background:accumulate" />
  </g>
  <g
     transform="translate(565.99995,-1014)"
     id="layer4" />
  <g
     transform="translate(565.99995,-1014)"
     id="layer12" />
  <g
     transform="translate(565.99995,-1014)"
     id="layer9" />
  <g
     transform="translate(565.99995,-1014)"
     id="layer10" />
  <g
     transform="translate(565.99995,-1014)"
     id="layer6" />
</svg>
