<?xml version="1.0" encoding="UTF-8" standalone="no"?>
<!-- Created with Inkscape (http://www.inkscape.org/) -->
<svg
   xmlns:svg="http://www.w3.org/2000/svg"
   xmlns="http://www.w3.org/2000/svg"
   version="1.0"
   width="24"
   height="24"
   id="svg7384">
  <title
     id="title9167">Moblin Icon Theme</title>
  <defs
     id="defs7386" />
  <g
     transform="translate(426.00244,-984.00082)"
     id="layer3" />
  <g
     transform="translate(426.00244,-984.00082)"
     id="layer5" />
  <g
     transform="translate(426.00244,-984.00082)"
     id="layer7" />
  <g
     transform="translate(426.00244,-984.00082)"
     id="layer2" />
  <g
     transform="translate(426.00244,-984.00082)"
     id="layer8" />
  <g
     transform="translate(426.00244,-1936.363)"
     id="layer1" />
  <g
     transform="translate(426.00244,-984.00082)"
     id="layer11">
    <rect
       width="24"
       height="24"
       x="-426.00244"
       y="984.00079"
       id="rect15997"
       style="opacity:0;fill:#ffffff;fill-opacity:1;stroke:none;display:inline" />
    <path
       d="M -412.94293,986.17892 C -415.69881,985.66592 -418.64438,986.22312 -421.13043,987.92892 C -421.4853,988.10087 -421.706,988.46528 -421.69397,988.85943 C -421.68195,989.25358 -421.43944,989.60386 -421.07475,989.75386 C -420.71007,989.90385 -420.29128,989.82555 -420.00543,989.55392 C -415.92561,986.75462 -410.36726,987.81782 -407.56793,991.89762 C -406.93537,992.81962 -406.56644,993.62772 -406.28668,994.71022 C -406.14861,995.24525 -405.60296,995.56704 -405.06793,995.42897 C -404.5329,995.2909 -404.21111,994.74525 -404.34918,994.21022 C -404.67877,992.93492 -405.1665,991.82752 -405.91168,990.74142 C -407.61746,988.25532 -410.18705,986.69192 -412.94293,986.17892 z"
       id="path15999"
       style="fill:#bebebe;fill-opacity:1;stroke:none;stroke-width:2;stroke-linecap:round;stroke-linejoin:round;marker:none;stroke-miterlimit:4;stroke-dasharray:none;stroke-dashoffset:0;stroke-opacity:1;visibility:visible;display:inline;overflow:visible;enable-background:accumulate" />
    <path
       d="M -423.21875,989.96875 C -423.67897,989.98991 -424.06519,990.32271 -424.15412,990.77475 C -424.24304,991.22679 -424.01166,991.6811 -423.59375,991.875 L -417.90625,994.90625 C -417.59952,995.06346 -417.23346,995.05165 -416.9375,994.875 L -411.59375,991.84375 C -411.22059,991.70837 -410.96282,991.3651 -410.93687,990.96899 C -410.91092,990.57288 -411.1217,990.19892 -411.47401,990.01601 C -411.82632,989.8331 -412.25345,989.87587 -412.5625,990.125 L -417.4375,992.875 L -422.65625,990.09375 C -422.82743,989.9978 -423.02305,989.95433 -423.21875,989.96875 L -423.21875,989.96875 z"
       id="path16001"
       style="fill:#bebebe;fill-opacity:1;stroke:none;stroke-width:2;stroke-linecap:round;stroke-linejoin:round;marker:none;stroke-miterlimit:4;stroke-dasharray:none;stroke-dashoffset:0;stroke-opacity:1;visibility:visible;display:inline;overflow:visible;enable-background:accumulate" />
    <path
       d="M -424.28668,992.39762 C -424.70239,992.41597 -425.06331,992.6898 -425.19293,993.08522 C -425.32648,993.43812 -425.40775,993.75182 -425.50543,994.11642 C -427.0661,999.94092 -423.6112,1005.962 -417.78668,1007.5226 C -417.25168,1007.6693 -416.69906,1007.3545 -416.55235,1006.8195 C -416.40565,1006.2845 -416.72043,1005.7319 -417.25543,1005.5852 C -422.0347,1004.3046 -424.87978,999.39572 -423.59918,994.61642 C -423.51612,994.30642 -423.43153,994.07292 -423.31793,993.77262 C -423.19013,993.45742 -423.23129,993.09887 -423.42718,992.82083 C -423.62308,992.54278 -423.94686,992.38336 -424.28668,992.39762 L -424.28668,992.39762 z"
       id="path16005"
       style="fill:#bebebe;fill-opacity:1;stroke:none;stroke-width:2;stroke-linecap:round;stroke-linejoin:round;marker:none;stroke-miterlimit:4;stroke-dasharray:none;stroke-dashoffset:0;stroke-opacity:1;visibility:visible;display:inline;overflow:visible;enable-background:accumulate" />
    <path
       d="M -409.51236,995.94146 C -411.15987,995.94146 -412.65315,996.29343 -413.82276,996.93141 C -414.99237,997.56928 -415.96175,998.6141 -415.96176,1000.0073 C -415.96176,1001.4004 -414.99237,1002.4098 -413.82276,1003.0478 C -412.65315,1003.6858 -411.15987,1004.0378 -409.51236,1004.0378 C -407.86484,1004.0378 -406.33915,1003.6858 -405.16954,1003.0478 C -403.99993,1002.4098 -403.03055,1001.4004 -403.03054,1000.0073 C -403.03054,998.6141 -403.99993,997.56928 -405.16954,996.93141 C -406.33915,996.29343 -407.86484,995.94135 -409.51236,995.94146 z M -409.51236,998.02737 C -408.12387,998.02737 -406.86597,998.35717 -406.04458,998.80519 C -405.2232,999.25321 -404.94268,999.74434 -404.94268,1000.0073 C -404.94268,1000.2702 -405.22319,1000.7259 -406.04458,1001.1741 C -406.86598,1001.6221 -408.12386,1001.9518 -409.51236,1001.9518 C -410.90084,1001.9519 -412.12633,1001.6221 -412.94772,1001.1741 C -413.7691,1000.7259 -414.04963,1000.2702 -414.04963,1000.0073 C -414.04963,999.74434 -413.7691,999.25321 -412.94772,998.80519 C -412.12633,998.35717 -410.90085,998.02737 -409.51236,998.02737 z"
       id="path16007"
       style="fill:#bebebe;fill-opacity:1;stroke:none;stroke-width:1.84637213;stroke-linecap:round;stroke-linejoin:round;marker:none;stroke-miterlimit:4;stroke-dasharray:none;stroke-dashoffset:0;stroke-opacity:1;visibility:visible;display:inline;overflow:visible;enable-background:accumulate" />
    <path
       d="M -404.10004,1002.9467 C -404.58925,1003.011 -404.95381,1003.4699 -404.94268,1004.0073 C -404.94268,1004.2703 -405.22319,1004.726 -406.04458,1005.1741 C -406.86598,1005.6221 -408.12386,1005.9518 -409.51236,1005.9518 C -410.86634,1005.9519 -412.06153,1005.6399 -412.8829,1005.2094 C -413.70426,1004.7789 -414.03026,1004.3065 -414.04963,1004.0427 C -414.09436,1003.4667 -414.55867,1003.0393 -415.08669,1003.0881 C -415.61471,1003.1369 -416.00649,1003.6434 -415.96176,1004.2195 C -415.86273,1005.5683 -414.88271,1006.5122 -413.72553,1007.1186 C -412.56836,1007.725 -411.117,1008.0378 -409.51236,1008.0378 C -407.86484,1008.0378 -406.33915,1007.6859 -405.16954,1007.0479 C -403.99993,1006.4099 -403.03055,1005.4005 -403.03054,1004.0073 C -403.02436,1003.705 -403.1386,1003.4145 -403.34373,1003.2111 C -403.54885,1003.0077 -403.82473,1002.9112 -404.10004,1002.9467 L -404.10004,1002.9467 z"
       id="path16030"
       style="fill:#bebebe;fill-opacity:1;stroke:none;stroke-width:1.84637213;stroke-linecap:round;stroke-linejoin:round;marker:none;stroke-miterlimit:4;stroke-dasharray:none;stroke-dashoffset:0;stroke-opacity:1;visibility:visible;display:inline;overflow:visible;enable-background:accumulate" />
    <path
       d="M -404.25,998.90625 C -404.71563,999.01053 -405.04274,999.42923 -405.03125,999.90625 L -405.03125,1003.9688 C -405.03635,1004.3294 -404.84687,1004.6649 -404.53538,1004.8467 C -404.22388,1005.0285 -403.83862,1005.0285 -403.52712,1004.8467 C -403.21563,1004.6649 -403.02615,1004.3294 -403.03125,1003.9688 L -403.03125,999.90625 C -403.02381,999.59839 -403.15861,999.30428 -403.39668,999.10894 C -403.63474,998.9136 -403.94952,998.83883 -404.25,998.90625 z"
       id="path16032"
       style="fill:#bebebe;fill-opacity:1;stroke:none;stroke-width:2;stroke-linecap:round;stroke-linejoin:round;marker:none;stroke-miterlimit:4;stroke-dasharray:none;stroke-dashoffset:0;stroke-opacity:1;visibility:visible;display:inline;overflow:visible;enable-background:accumulate" />
    <path
       d="M -415.28125,998.90625 C -415.74688,999.01053 -416.07399,999.42923 -416.0625,999.90625 L -416.0625,1003.875 C -416.0676,1004.2356 -415.87812,1004.5711 -415.56663,1004.7529 C -415.25513,1004.9347 -414.86987,1004.9347 -414.55837,1004.7529 C -414.24688,1004.5711 -414.0574,1004.2356 -414.0625,1003.875 L -414.0625,999.90625 C -414.05506,999.59839 -414.18986,999.30428 -414.42793,999.10894 C -414.66599,998.9136 -414.98077,998.83883 -415.28125,998.90625 L -415.28125,998.90625 z"
       id="path16034"
       style="fill:#bebebe;fill-opacity:1;stroke:none;stroke-width:2;stroke-linecap:round;stroke-linejoin:round;marker:none;stroke-miterlimit:4;stroke-dasharray:none;stroke-dashoffset:0;stroke-opacity:1;visibility:visible;display:inline;overflow:visible;enable-background:accumulate" />
  </g>
  <g
     transform="translate(426.00244,-984.00082)"
     id="layer4" />
  <g
     transform="translate(426.00244,-984.00082)"
     id="layer12" />
  <g
     transform="translate(426.00244,-984.00082)"
     id="layer9" />
  <g
     transform="translate(426.00244,-984.00082)"
     id="layer10" />
  <g
     transform="translate(426.00244,-984.00082)"
     id="layer6" />
</svg>
