<?xml version="1.0" encoding="UTF-8" standalone="no"?>
<!-- Created with Inkscape (http://www.inkscape.org/) -->
<svg
   xmlns:svg="http://www.w3.org/2000/svg"
   xmlns="http://www.w3.org/2000/svg"
   version="1.0"
   width="24"
   height="24.001242"
   id="svg7384">
  <title
     id="title9167">Moblin Icon Theme</title>
  <defs
     id="defs7386" />
  <g
     transform="translate(618,-1064.0012)"
     id="layer3" />
  <g
     transform="translate(618,-1064.0012)"
     id="layer5" />
  <g
     transform="translate(618,-1064.0012)"
     id="layer7" />
  <g
     transform="translate(618,-1064.0012)"
     id="layer2" />
  <g
     transform="translate(618,-1064.0012)"
     id="layer8" />
  <g
     transform="translate(618,-2016.3634)"
     id="layer1" />
  <g
     transform="translate(618,-1064.0012)"
     id="layer11">
    <rect
       width="24"
       height="24"
       x="-618"
       y="1064.0024"
       id="rect16052"
       style="opacity:0;fill:#ffffff;fill-opacity:1;stroke:none;display:inline" />
    <path
       d="M -616.28424,1070.3992 C -616.69995,1070.4176 -617.06087,1070.6914 -617.19049,1071.0868 C -617.38623,1071.6041 -617.50983,1072.0777 -617.62799,1072.618 C -618.91617,1078.5088 -615.17501,1084.3611 -609.28424,1085.6492 C -608.7406,1085.77 -608.20195,1085.4273 -608.08114,1084.8836 C -607.96033,1084.34 -608.3031,1083.8013 -608.84674,1083.6805 C -613.68036,1082.6235 -616.74749,1077.8579 -615.69049,1073.0242 C -615.59001,1072.5648 -615.48194,1072.2141 -615.31549,1071.7742 C -615.18769,1071.459 -615.22885,1071.1005 -615.42474,1070.8224 C -615.62064,1070.5444 -615.94442,1070.385 -616.28424,1070.3992 L -616.28424,1070.3992 z"
       id="path16054"
       style="fill:#bebebe;fill-opacity:1;stroke:none;stroke-width:2;stroke-linecap:round;stroke-linejoin:round;marker:none;stroke-miterlimit:4;stroke-dasharray:none;stroke-dashoffset:0;stroke-opacity:1;visibility:visible;display:inline;overflow:visible;enable-background:accumulate" />
    <path
       d="M -615.21875,1067.9688 C -615.67893,1067.99 -616.0651,1068.3228 -616.15402,1068.7748 C -616.24294,1069.2268 -616.01161,1069.6811 -615.59375,1069.875 L -609.90625,1072.9062 C -609.59953,1073.0634 -609.23347,1073.0516 -608.9375,1072.875 L -603.59375,1069.8438 C -603.22064,1069.7084 -602.96292,1069.3651 -602.93698,1068.969 C -602.91105,1068.573 -603.1218,1068.199 -603.47407,1068.0161 C -603.82634,1067.8332 -604.25344,1067.8759 -604.5625,1068.125 L -609.4375,1070.875 L -614.65625,1068.0938 C -614.82743,1067.9979 -615.02305,1067.9544 -615.21875,1067.9688 z"
       id="path16056"
       style="fill:#bebebe;fill-opacity:1;stroke:none;stroke-width:2;stroke-linecap:round;stroke-linejoin:round;marker:none;stroke-miterlimit:4;stroke-dasharray:none;stroke-dashoffset:0;stroke-opacity:1;visibility:visible;display:inline;overflow:visible;enable-background:accumulate" />
    <path
       d="M -608.37799,1064.0868 C -609.78759,1064.2696 -611.17109,1064.7309 -612.47174,1065.493 C -612.95499,1065.7692 -613.12288,1066.3848 -612.84674,1066.868 C -612.5706,1067.3513 -611.95499,1067.5192 -611.47174,1067.243 C -607.20279,1064.7416 -601.72319,1066.1615 -599.22174,1070.4305 C -598.78639,1071.1735 -598.53835,1071.7863 -598.31549,1072.618 C -598.17742,1073.153 -597.63177,1073.4748 -597.09674,1073.3368 C -596.56171,1073.1987 -596.23992,1072.653 -596.37799,1072.118 C -596.64032,1071.139 -596.99061,1070.2737 -597.50299,1069.3992 C -599.78939,1065.4973 -604.1492,1063.5382 -608.37799,1064.0868 z"
       id="path16060"
       style="fill:#bebebe;fill-opacity:1;stroke:none;stroke-width:2;stroke-linecap:round;stroke-linejoin:round;marker:none;stroke-miterlimit:4;stroke-dasharray:none;stroke-dashoffset:0;stroke-opacity:1;visibility:visible;display:inline;overflow:visible;enable-background:accumulate" />
    <path
       d="M -606.96875,1074.0938 C -607.48411,1074.1424 -607.87723,1074.5762 -607.875,1075.0938 L -607.875,1083 C -607.87494,1083.5523 -607.42726,1083.9999 -606.875,1084 L -596.96875,1084 C -596.41649,1083.9999 -595.96881,1083.5523 -595.96875,1083 L -595.96875,1075.0938 C -595.96881,1074.5415 -596.41649,1074.0939 -596.96875,1074.0938 L -606.875,1074.0938 C -606.90623,1074.0923 -606.93752,1074.0923 -606.96875,1074.0938 z M -605.875,1076.0938 L -597.96875,1076.0938 L -597.96875,1082 L -605.875,1082 L -605.875,1076.0938 z"
       id="rect16062"
       style="fill:#bebebe;fill-opacity:1;stroke:none;stroke-width:2;stroke-linecap:round;stroke-linejoin:round;marker:none;stroke-miterlimit:4;stroke-dasharray:none;stroke-dashoffset:0;stroke-opacity:1;visibility:visible;display:inline;overflow:visible;enable-background:accumulate" />
    <path
       d="M -601.99938,1082.0937 C -603.6462,1082.0937 -605.00509,1083.4525 -605.00506,1085.0994 C -605.00506,1085.6528 -604.5565,1086.1013 -604.00317,1086.1013 C -603.44984,1086.1013 -603.00127,1085.6528 -603.00127,1085.0994 C -603.00128,1084.5347 -602.56408,1084.0975 -601.99938,1084.0975 C -601.43461,1084.0975 -600.99748,1084.5347 -600.99748,1085.0994 C -600.99748,1085.6528 -600.54892,1086.1013 -599.99559,1086.1013 C -599.44225,1086.1013 -598.99369,1085.6528 -598.99369,1085.0994 C -598.99369,1083.4525 -600.35261,1082.0938 -601.99938,1082.0937 z"
       id="path16064"
       style="fill:#bebebe;fill-opacity:1;stroke:none;stroke-width:1.80907047;stroke-linecap:round;stroke-linejoin:round;marker:none;stroke-miterlimit:4;stroke-dasharray:none;stroke-dashoffset:0;stroke-opacity:1;visibility:visible;display:inline;overflow:visible;enable-background:accumulate" />
  </g>
  <g
     transform="translate(618,-1064.0012)"
     id="layer4" />
  <g
     transform="translate(618,-1064.0012)"
     id="layer9" />
  <g
     transform="translate(618,-1064.0012)"
     id="layer10" />
  <g
     transform="translate(618,-1064.0012)"
     id="layer6" />
</svg>
