<?xml version="1.0" encoding="UTF-8" standalone="no"?>
<!-- Created with Inkscape (http://www.inkscape.org/) -->
<svg
   xmlns:svg="http://www.w3.org/2000/svg"
   xmlns="http://www.w3.org/2000/svg"
   version="1.0"
   width="24"
   height="24"
   id="svg7384">
  <title
     id="title9167">Moblin Icon Theme</title>
  <defs
     id="defs7386" />
  <g
     transform="translate(454.00249,-1034.0008)"
     id="layer3" />
  <g
     transform="translate(454.00249,-1034.0008)"
     id="layer5" />
  <g
     transform="translate(454.00249,-1034.0008)"
     id="layer7" />
  <g
     transform="translate(454.00249,-1034.0008)"
     id="layer2" />
  <g
     transform="translate(454.00249,-1034.0008)"
     id="layer8" />
  <g
     transform="translate(454.00249,-1986.363)"
     id="layer1" />
  <g
     transform="translate(454.00249,-1034.0008)"
     id="layer11">
    <rect
       width="24"
       height="24"
       x="-454.0025"
       y="1034.0009"
       id="rect15976"
       style="opacity:0;fill:#ffffff;fill-opacity:1;stroke:none;display:inline" />
    <path
       d="M -439.03673,1036.1789 C -441.79759,1035.6934 -444.7553,1036.2609 -447.22423,1037.9914 C -447.54593,1038.1852 -447.73197,1038.5428 -447.70593,1038.9175 C -447.6799,1039.2921 -447.44617,1039.6206 -447.10076,1039.768 C -446.75535,1039.9154 -446.35648,1039.8568 -446.06798,1039.6164 C -442.01625,1036.7765 -436.47036,1037.7522 -433.63048,1041.8039 C -430.7906,1045.8556 -431.76627,1051.4328 -435.81798,1054.2726 C -439.86971,1057.1125 -445.4156,1056.1369 -448.25548,1052.0852 C -450.03412,1049.5476 -450.41465,1046.671 -449.31798,1043.7726 C -449.17099,1043.4323 -449.22435,1043.0385 -449.45661,1042.7496 C -449.68888,1042.4606 -450.06194,1042.3238 -450.42594,1042.3942 C -450.78994,1042.4646 -451.08515,1042.7305 -451.19298,1043.0852 C -452.50294,1046.5472 -452.03631,1050.179 -449.91173,1053.2102 C -446.45076,1058.148 -439.59959,1059.3586 -434.66173,1055.8976 C -429.72388,1052.4367 -428.51324,1045.5855 -431.97423,1040.6476 C -433.70472,1038.1787 -436.27587,1036.6644 -439.03673,1036.1789 z"
       id="path15978"
       style="fill:#bebebe;fill-opacity:1;stroke:none;stroke-width:2;stroke-linecap:round;stroke-linejoin:round;marker:none;stroke-miterlimit:4;stroke-dasharray:none;stroke-dashoffset:0;stroke-opacity:1;visibility:visible;display:inline;overflow:visible;enable-background:accumulate" />
    <path
       d="M -449.21875,1039.9688 C -449.67893,1039.99 -450.0651,1040.3228 -450.15402,1040.7748 C -450.24294,1041.2268 -450.01161,1041.6811 -449.59375,1041.875 L -443.90625,1044.9062 C -443.59953,1045.0634 -443.23347,1045.0516 -442.9375,1044.875 L -437.59375,1041.8438 C -437.22064,1041.7084 -436.96292,1041.3651 -436.93698,1040.969 C -436.91105,1040.573 -437.1218,1040.199 -437.47407,1040.0161 C -437.82634,1039.8332 -438.25344,1039.8759 -438.5625,1040.125 L -443.4375,1042.875 L -448.65625,1040.0938 C -448.82743,1039.9979 -449.02305,1039.9544 -449.21875,1039.9688 L -449.21875,1039.9688 z"
       id="path15980"
       style="fill:#bebebe;fill-opacity:1;stroke:none;stroke-width:2;stroke-linecap:round;stroke-linejoin:round;marker:none;stroke-miterlimit:4;stroke-dasharray:none;stroke-dashoffset:0;stroke-opacity:1;visibility:visible;display:inline;overflow:visible;enable-background:accumulate" />
    <path
       d="M -441.625,1045 C -441.81977,1045.0463 -441.96816,1045.2043 -442.00217,1045.4015 C -442.03619,1045.5988 -441.94927,1045.7974 -441.78125,1045.9062 L -440.21875,1046.9062 C -440.05631,1047.008 -439.84994,1047.008 -439.6875,1046.9062 L -438.21875,1045.9062 C -438.04122,1045.8203 -437.93077,1045.638 -437.93676,1045.4409 C -437.94275,1045.2438 -438.06406,1045.0686 -438.24648,1044.9936 C -438.4289,1044.9186 -438.63836,1044.9579 -438.78125,1045.0938 L -439.96875,1045.9062 L -441.21875,1045.0938 C -441.33405,1045.0049 -441.48239,1044.9706 -441.625,1045 z"
       id="path15982"
       style="fill:#bebebe;fill-opacity:1;stroke:none;stroke-width:1;stroke-linecap:round;stroke-linejoin:round;marker:none;stroke-miterlimit:4;stroke-dasharray:none;stroke-dashoffset:0;stroke-opacity:1;visibility:visible;display:inline;overflow:visible;enable-background:accumulate" />
  </g>
  <g
     transform="translate(454.00249,-1034.0008)"
     id="layer4" />
  <g
     transform="translate(454.00249,-1034.0008)"
     id="layer9" />
  <g
     transform="translate(454.00249,-1034.0008)"
     id="layer10" />
  <g
     transform="translate(454.00249,-1034.0008)"
     id="layer6" />
</svg>
