<?xml version="1.0" encoding="UTF-8" standalone="no"?>
<!-- Created with Inkscape (http://www.inkscape.org/) -->
<svg
   xmlns:svg="http://www.w3.org/2000/svg"
   xmlns="http://www.w3.org/2000/svg"
   version="1.0"
   width="24"
   height="24"
   id="svg7384">
  <title
     id="title9167">Moblin Icon Theme</title>
  <defs
     id="defs7386" />
  <g
     transform="translate(454.00244,-984.00082)"
     id="layer3" />
  <g
     transform="translate(454.00244,-984.00082)"
     id="layer5" />
  <g
     transform="translate(454.00244,-984.00082)"
     id="layer7" />
  <g
     transform="translate(454.00244,-984.00082)"
     id="layer2" />
  <g
     transform="translate(454.00244,-984.00082)"
     id="layer8" />
  <g
     transform="translate(454.00244,-1936.363)"
     id="layer1" />
  <g
     transform="translate(454.00244,-984.00082)"
     id="layer11">
    <rect
       width="24"
       height="24"
       x="-454.00244"
       y="984.00079"
       id="rect15976"
       style="opacity:0;fill:#ffffff;fill-opacity:1;stroke:none;display:inline" />
    <path
       d="M -439.03668,986.17892 C -441.79754,985.69342 -444.75525,986.26092 -447.22418,987.99142 C -447.54588,988.18518 -447.73192,988.54283 -447.70588,988.91747 C -447.67985,989.29211 -447.44612,989.62059 -447.10071,989.76798 C -446.7553,989.91538 -446.35643,989.85684 -446.06793,989.61642 C -442.0162,986.77652 -436.47031,987.75222 -433.63043,991.80392 C -430.79055,995.85562 -431.76622,1001.4328 -435.81793,1004.2726 C -439.86966,1007.1125 -445.41555,1006.1369 -448.25543,1002.0852 C -450.03407,999.54762 -450.4146,996.67102 -449.31793,993.77262 C -449.17094,993.43226 -449.2243,993.03852 -449.45656,992.74955 C -449.68883,992.46059 -450.06189,992.32382 -450.42589,992.39419 C -450.78989,992.46455 -451.0851,992.73051 -451.19293,993.08522 C -452.50289,996.54722 -452.03626,1000.179 -449.91168,1003.2102 C -446.45071,1008.148 -439.59954,1009.3586 -434.66168,1005.8976 C -429.72383,1002.4367 -428.51319,995.58552 -431.97418,990.64762 C -433.70467,988.17872 -436.27582,986.66442 -439.03668,986.17892 z"
       id="path15978"
       style="fill:#bebebe;fill-opacity:1;stroke:none;stroke-width:2;stroke-linecap:round;stroke-linejoin:round;marker:none;stroke-miterlimit:4;stroke-dasharray:none;stroke-dashoffset:0;stroke-opacity:1;visibility:visible;display:inline;overflow:visible;enable-background:accumulate" />
    <path
       d="M -449.21875,989.96875 C -449.67897,989.98991 -450.06519,990.32271 -450.15412,990.77475 C -450.24304,991.22679 -450.01166,991.6811 -449.59375,991.875 L -443.90625,994.90625 C -443.59952,995.06346 -443.23346,995.05165 -442.9375,994.875 L -437.59375,991.84375 C -437.22059,991.70837 -436.96282,991.3651 -436.93687,990.96899 C -436.91092,990.57288 -437.1217,990.19892 -437.47401,990.01601 C -437.82632,989.8331 -438.25345,989.87587 -438.5625,990.125 L -443.4375,992.875 L -448.65625,990.09375 C -448.82743,989.9978 -449.02305,989.95433 -449.21875,989.96875 L -449.21875,989.96875 z"
       id="path15980"
       style="fill:#bebebe;fill-opacity:1;stroke:none;stroke-width:2;stroke-linecap:round;stroke-linejoin:round;marker:none;stroke-miterlimit:4;stroke-dasharray:none;stroke-dashoffset:0;stroke-opacity:1;visibility:visible;display:inline;overflow:visible;enable-background:accumulate" />
    <path
       d="M -441.625,995 C -441.81979,995.04626 -441.96821,995.20425 -442.00223,995.40155 C -442.03625,995.59886 -441.9493,995.79743 -441.78125,995.90625 L -440.21875,996.90625 C -440.05631,997.00809 -439.84994,997.00809 -439.6875,996.90625 L -438.21875,995.90625 C -438.04132,995.82028 -437.93097,995.63807 -437.93698,995.44099 C -437.94299,995.24392 -438.06424,995.06878 -438.24659,994.99378 C -438.42893,994.91878 -438.63832,994.95794 -438.78125,995.09375 L -439.96875,995.90625 L -441.21875,995.09375 C -441.33406,995.00484 -441.48239,994.97061 -441.625,995 z"
       id="path15982"
       style="fill:#bebebe;fill-opacity:1;stroke:none;stroke-width:1;stroke-linecap:round;stroke-linejoin:round;marker:none;stroke-miterlimit:4;stroke-dasharray:none;stroke-dashoffset:0;stroke-opacity:1;visibility:visible;display:inline;overflow:visible;enable-background:accumulate" />
  </g>
  <g
     transform="translate(454.00244,-984.00082)"
     id="layer4" />
  <g
     transform="translate(454.00244,-984.00082)"
     id="layer12" />
  <g
     transform="translate(454.00244,-984.00082)"
     id="layer9" />
  <g
     transform="translate(454.00244,-984.00082)"
     id="layer10" />
  <g
     transform="translate(454.00244,-984.00082)"
     id="layer6" />
</svg>
