<?xml version="1.0" encoding="UTF-8" standalone="no"?>
<!-- Created with Inkscape (http://www.inkscape.org/) -->
<svg
   xmlns:svg="http://www.w3.org/2000/svg"
   xmlns="http://www.w3.org/2000/svg"
   version="1.0"
   width="24"
   height="24.001242"
   id="svg7384">
  <title
     id="title9167">Moblin Icon Theme</title>
  <defs
     id="defs7386" />
  <g
     transform="translate(591.99995,-1014.0012)"
     id="layer3" />
  <g
     transform="translate(591.99995,-1014.0012)"
     id="layer5" />
  <g
     transform="translate(591.99995,-1014.0012)"
     id="layer7" />
  <g
     transform="translate(591.99995,-1014.0012)"
     id="layer2" />
  <g
     transform="translate(591.99995,-1014.0012)"
     id="layer8" />
  <g
     transform="translate(591.99995,-1966.3634)"
     id="layer1" />
  <g
     transform="translate(591.99995,-1014.0012)"
     id="layer11">
    <rect
       width="24"
       height="24"
       x="-591.99994"
       y="1014.0024"
       id="rect16068"
       style="opacity:0;fill:#ffffff;fill-opacity:1;stroke:none;display:inline" />
    <path
       d="M -590.28419,1020.3992 C -590.6999,1020.4176 -591.06082,1020.6914 -591.19044,1021.0868 C -591.38618,1021.6041 -591.50978,1022.0777 -591.62794,1022.618 C -592.91612,1028.5088 -589.17496,1034.3611 -583.28419,1035.6492 C -582.74055,1035.77 -582.2019,1035.4273 -582.08109,1034.8836 C -581.96028,1034.34 -582.30305,1033.8013 -582.84669,1033.6805 C -587.68031,1032.6235 -590.74744,1027.8579 -589.69044,1023.0242 C -589.58996,1022.5648 -589.48189,1022.2141 -589.31544,1021.7742 C -589.18764,1021.459 -589.2288,1021.1005 -589.42469,1020.8224 C -589.62059,1020.5444 -589.94437,1020.385 -590.28419,1020.3992 L -590.28419,1020.3992 z"
       id="path16070"
       style="fill:#bebebe;fill-opacity:1;stroke:none;stroke-width:2;stroke-linecap:round;stroke-linejoin:round;marker:none;stroke-miterlimit:4;stroke-dasharray:none;stroke-dashoffset:0;stroke-opacity:1;visibility:visible;display:inline;overflow:visible;enable-background:accumulate" />
    <path
       d="M -589.21875,1017.9688 C -589.67893,1017.99 -590.0651,1018.3228 -590.15402,1018.7748 C -590.24294,1019.2268 -590.01161,1019.6811 -589.59375,1019.875 L -583.90625,1022.9062 C -583.59953,1023.0634 -583.23347,1023.0516 -582.9375,1022.875 L -577.59375,1019.8438 C -577.22064,1019.7084 -576.96292,1019.3651 -576.93698,1018.969 C -576.91105,1018.573 -577.1218,1018.199 -577.47407,1018.0161 C -577.82634,1017.8332 -578.25344,1017.8759 -578.5625,1018.125 L -583.4375,1020.875 L -588.65625,1018.0938 C -588.82743,1017.9979 -589.02305,1017.9544 -589.21875,1017.9688 z"
       id="path16072"
       style="fill:#bebebe;fill-opacity:1;stroke:none;stroke-width:2;stroke-linecap:round;stroke-linejoin:round;marker:none;stroke-miterlimit:4;stroke-dasharray:none;stroke-dashoffset:0;stroke-opacity:1;visibility:visible;display:inline;overflow:visible;enable-background:accumulate" />
    <path
       d="M -582.37794,1014.0868 C -583.78754,1014.2696 -585.17104,1014.7309 -586.47169,1015.493 C -586.95494,1015.7692 -587.12283,1016.3848 -586.84669,1016.868 C -586.57055,1017.3513 -585.95494,1017.5192 -585.47169,1017.243 C -581.20274,1014.7416 -575.72314,1016.1615 -573.22169,1020.4305 C -572.84444,1021.0744 -572.59676,1021.6234 -572.37794,1022.3368 C -572.28891,1022.6976 -572.00713,1022.9793 -571.64628,1023.0683 C -571.28544,1023.1572 -570.90503,1023.0387 -570.65852,1022.7606 C -570.41202,1022.4825 -570.34006,1022.0906 -570.47169,1021.743 C -570.72917,1020.9036 -571.0591,1020.1568 -571.50294,1019.3992 C -573.78934,1015.4973 -578.14915,1013.5382 -582.37794,1014.0868 z"
       id="path16074"
       style="fill:#bebebe;fill-opacity:1;stroke:none;stroke-width:2;stroke-linecap:round;stroke-linejoin:round;marker:none;stroke-miterlimit:4;stroke-dasharray:none;stroke-dashoffset:0;stroke-opacity:1;visibility:visible;display:inline;overflow:visible;enable-background:accumulate" />
    <path
       d="M -579.09375,1024 C -579.47504,1024.0371 -579.80161,1024.2888 -579.93466,1024.648 C -580.06771,1025.0073 -579.98386,1025.411 -579.71875,1025.6875 L -575.5625,1030 L -579.71875,1034.3125 C -579.99239,1034.6017 -580.06848,1035.0256 -579.91248,1035.3918 C -579.75647,1035.7581 -579.39809,1035.997 -579,1036 L -571.1875,1036 C -570.82686,1036.0051 -570.49142,1035.8156 -570.30961,1035.5041 C -570.12781,1035.1926 -570.12781,1034.8074 -570.30961,1034.4959 C -570.49142,1034.1844 -570.82686,1033.9949 -571.1875,1034 L -576.65625,1034 L -573.46875,1030.6875 C -573.10371,1030.3018 -573.10371,1029.6982 -573.46875,1029.3125 L -576.65625,1026 L -571.0625,1026 C -570.70186,1026.0051 -570.36642,1025.8156 -570.18461,1025.5041 C -570.00281,1025.1926 -570.00281,1024.8074 -570.18461,1024.4959 C -570.36642,1024.1844 -570.70186,1023.9949 -571.0625,1024 L -579,1024 C -579.03123,1023.9985 -579.06252,1023.9985 -579.09375,1024 z"
       id="path16080"
       style="fill:#bebebe;fill-opacity:1;stroke:none;stroke-width:2;stroke-linecap:round;stroke-linejoin:round;marker:none;stroke-miterlimit:4;stroke-dasharray:none;stroke-dashoffset:0;stroke-opacity:1;visibility:visible;display:inline;overflow:visible;enable-background:accumulate" />
  </g>
  <g
     transform="translate(591.99995,-1014.0012)"
     id="layer4" />
  <g
     transform="translate(591.99995,-1014.0012)"
     id="layer12" />
  <g
     transform="translate(591.99995,-1014.0012)"
     id="layer9" />
  <g
     transform="translate(591.99995,-1014.0012)"
     id="layer10" />
  <g
     transform="translate(591.99995,-1014.0012)"
     id="layer6" />
</svg>
