<?xml version="1.0" encoding="UTF-8" standalone="no"?>
<!-- Created with Inkscape (http://www.inkscape.org/) -->
<svg
   xmlns:svg="http://www.w3.org/2000/svg"
   xmlns="http://www.w3.org/2000/svg"
   version="1.0"
   width="24"
   height="24.001242"
   id="svg7384">
  <title
     id="title9167">Moblin Icon Theme</title>
  <defs
     id="defs7386" />
  <g
     transform="translate(396.00249,-1033.9996)"
     id="layer3" />
  <g
     transform="translate(396.00249,-1033.9996)"
     id="layer5" />
  <g
     transform="translate(396.00249,-1033.9996)"
     id="layer7" />
  <g
     transform="translate(396.00249,-1033.9996)"
     id="layer2" />
  <g
     transform="translate(396.00249,-1033.9996)"
     id="layer8" />
  <g
     transform="translate(396.00249,-1986.3618)"
     id="layer1" />
  <g
     transform="translate(396.00249,-1033.9996)"
     id="layer11">
    <rect
       width="24"
       height="24"
       x="-396.0025"
       y="1034.0009"
       id="rect16038"
       style="opacity:0;fill:#ffffff;fill-opacity:1;stroke:none;display:inline" />
    <path
       d="M -394.28673,1040.3976 C -394.70244,1040.416 -395.06336,1040.6898 -395.19298,1041.0852 C -395.38872,1041.6025 -395.51232,1042.0761 -395.63048,1042.6164 C -396.91866,1048.5072 -393.1775,1054.3595 -387.28673,1055.6476 C -386.74309,1055.7684 -386.20444,1055.4257 -386.08363,1054.882 C -385.96282,1054.3384 -386.30559,1053.7997 -386.84923,1053.6789 C -391.68285,1052.6219 -394.74998,1047.8563 -393.69298,1043.0226 C -393.5925,1042.5632 -393.48443,1042.2125 -393.31798,1041.7726 C -393.19018,1041.4574 -393.23134,1041.0989 -393.42723,1040.8208 C -393.62313,1040.5428 -393.94691,1040.3834 -394.28673,1040.3976 L -394.28673,1040.3976 z"
       id="path16040"
       style="fill:#bebebe;fill-opacity:1;stroke:none;stroke-width:2;stroke-linecap:round;stroke-linejoin:round;marker:none;stroke-miterlimit:4;stroke-dasharray:none;stroke-dashoffset:0;stroke-opacity:1;visibility:visible;display:inline;overflow:visible;enable-background:accumulate" />
    <path
       d="M -393.21875,1037.9688 C -393.67893,1037.99 -394.0651,1038.3228 -394.15402,1038.7748 C -394.24294,1039.2268 -394.01161,1039.6811 -393.59375,1039.875 L -387.90625,1042.9062 C -387.59953,1043.0634 -387.23347,1043.0516 -386.9375,1042.875 L -381.59375,1039.8438 C -381.22064,1039.7084 -380.96292,1039.3651 -380.93698,1038.969 C -380.91105,1038.573 -381.1218,1038.199 -381.47407,1038.0161 C -381.82634,1037.8332 -382.25344,1037.8759 -382.5625,1038.125 L -387.4375,1040.875 L -392.65625,1038.0938 C -392.82743,1037.9979 -393.02305,1037.9544 -393.21875,1037.9688 z"
       id="path16042"
       style="fill:#bebebe;fill-opacity:1;stroke:none;stroke-width:2;stroke-linecap:round;stroke-linejoin:round;marker:none;stroke-miterlimit:4;stroke-dasharray:none;stroke-dashoffset:0;stroke-opacity:1;visibility:visible;display:inline;overflow:visible;enable-background:accumulate" />
    <path
       d="M -378.94551,1044.0047 C -382.76819,1044.0047 -385.89564,1047.1134 -385.89564,1050.9361 C -385.89564,1054.7587 -382.76817,1057.8862 -378.94551,1057.8862 C -375.12284,1057.8862 -371.99539,1054.7587 -371.99539,1050.9361 C -372.00081,1050.3842 -372.45234,1049.941 -373.00428,1049.9459 L -377.95531,1049.9459 L -377.95531,1044.9949 L -378.94551,1044.9949 C -378.77066,1044.688 -378.77066,1044.3116 -378.94551,1044.0047 z M -379.9544,1046.2092 L -379.9544,1050.9361 C -379.95677,1051.2044 -379.85124,1051.4624 -379.66152,1051.6521 C -379.4718,1051.8418 -379.21381,1051.9473 -378.94551,1051.945 L -374.2,1051.945 C -374.67368,1054.184 -376.56084,1055.8872 -378.94551,1055.8872 C -381.68606,1055.8871 -383.89655,1053.6766 -383.89655,1050.9361 C -383.89655,1048.5548 -382.18874,1046.6864 -379.9544,1046.2092 z"
       id="path16046"
       style="fill:#bebebe;fill-opacity:1;stroke:none;stroke-width:3.34526253;stroke-linecap:round;stroke-linejoin:round;marker:none;stroke-miterlimit:4;stroke-dasharray:none;stroke-dashoffset:0;stroke-opacity:1;visibility:visible;display:inline;overflow:visible;enable-background:accumulate" />
    <path
       d="M -386.38048,1034.0852 C -387.79007,1034.268 -389.17358,1034.7293 -390.47423,1035.4914 C -390.95748,1035.7676 -391.12537,1036.3832 -390.84923,1036.8664 C -390.57309,1037.3497 -389.95748,1037.5176 -389.47423,1037.2414 C -385.20528,1034.74 -379.72568,1036.1599 -377.22423,1040.4289 C -376.09179,1042.3616 -375.75039,1044.2527 -376.13048,1046.4602 C -376.20834,1046.8189 -376.08345,1047.1915 -375.80509,1047.4308 C -375.52674,1047.67 -375.13968,1047.7376 -374.79671,1047.6068 C -374.45375,1047.476 -374.21001,1047.1678 -374.16173,1046.8039 C -373.71105,1044.1865 -374.16274,1041.6892 -375.50548,1039.3976 C -377.79188,1035.4957 -382.1517,1033.5366 -386.38048,1034.0852 z"
       id="path16048"
       style="fill:#bebebe;fill-opacity:1;stroke:none;stroke-width:2;stroke-linecap:round;stroke-linejoin:round;marker:none;stroke-miterlimit:4;stroke-dasharray:none;stroke-dashoffset:0;stroke-opacity:1;visibility:visible;display:inline;overflow:visible;enable-background:accumulate" />
  </g>
  <g
     transform="translate(396.00249,-1033.9996)"
     id="layer4" />
  <g
     transform="translate(396.00249,-1033.9996)"
     id="layer9" />
  <g
     transform="translate(396.00249,-1033.9996)"
     id="layer10" />
  <g
     transform="translate(396.00249,-1033.9996)"
     id="layer6" />
</svg>
