<?xml version="1.0" encoding="UTF-8" standalone="no"?>
<!-- Created with Inkscape (http://www.inkscape.org/) -->
<svg
   xmlns:svg="http://www.w3.org/2000/svg"
   xmlns="http://www.w3.org/2000/svg"
   version="1.0"
   width="24"
   height="24"
   id="svg7384">
  <title
     id="title9167">Moblin Icon Theme</title>
  <defs
     id="defs7386" />
  <g
     transform="translate(426,-1244)"
     id="layer3" />
  <g
     transform="translate(426,-1244)"
     id="layer5" />
  <g
     transform="translate(426,-1244)"
     id="layer7" />
  <g
     transform="translate(426,-1244)"
     id="layer2" />
  <g
     transform="translate(426,-1244)"
     id="layer8" />
  <g
     transform="translate(426,-2196.3622)"
     id="layer1" />
  <g
     transform="translate(426,-1244)"
     id="layer11">
    <rect
       width="24"
       height="24"
       x="-426"
       y="1244"
       id="rect10943"
       style="opacity:0;fill:#ffffff;fill-opacity:1;stroke:none;display:inline" />
    <path
       d="M -414.0625,1246.0312 C -419.55579,1246.0312 -424.03126,1250.5067 -424.03125,1256 C -424.03125,1261.4933 -419.55578,1265.9687 -414.0625,1265.9688 C -408.56921,1265.9688 -404.09374,1261.4933 -404.09375,1256 C -404.09375,1250.5067 -408.56922,1246.0313 -414.0625,1246.0312 z M -414.0625,1248.0312 C -409.65134,1248.0313 -406.09375,1251.5888 -406.09375,1256 C -406.09374,1260.4112 -409.65134,1263.9688 -414.0625,1263.9688 C -418.47366,1263.9687 -422.03125,1260.4112 -422.03125,1256 C -422.03126,1251.5888 -418.47366,1248.0312 -414.0625,1248.0312 z"
       id="path10957"
       style="fill:#bebebe;fill-opacity:1;stroke:none;stroke-width:2;stroke-linecap:butt;stroke-linejoin:round;marker:none;stroke-miterlimit:4;stroke-dasharray:none;stroke-dashoffset:0;stroke-opacity:1;visibility:visible;display:inline;overflow:visible;enable-background:accumulate" />
    <path
       d="M -414,1250 C -416.25055,1250 -418.09375,1251.8432 -418.09375,1254.0938 L -418.09375,1257.9062 C -418.09375,1260.1568 -416.25053,1262 -414,1262 C -411.74945,1262 -409.90626,1260.1568 -409.90625,1257.9062 L -409.90625,1254.0938 C -409.90625,1251.8432 -411.74945,1250 -414,1250 z M -414,1252 C -412.82286,1252 -411.90625,1252.9166 -411.90625,1254.0938 L -411.90625,1257.9062 C -411.90626,1259.0834 -412.82285,1260 -414,1260 C -415.17718,1260 -416.09375,1259.0834 -416.09375,1257.9062 L -416.09375,1254.0938 C -416.09375,1252.9166 -415.17715,1252 -414,1252 z"
       id="rect10961"
       style="fill:#bebebe;fill-opacity:1;stroke:none;stroke-width:2;stroke-linecap:butt;stroke-linejoin:round;marker:none;stroke-miterlimit:4;stroke-dasharray:none;stroke-dashoffset:0;stroke-opacity:1;visibility:visible;display:inline;overflow:visible;enable-background:accumulate" />
  </g>
  <g
     transform="translate(426,-1244)"
     id="layer4" />
  <g
     transform="translate(426,-1244)"
     id="layer9" />
  <g
     transform="translate(426,-1244)"
     id="layer10" />
  <g
     transform="translate(426,-1244)"
     id="layer6" />
</svg>
