<?xml version="1.0" encoding="UTF-8" standalone="no"?>
<!-- Created with Inkscape (http://www.inkscape.org/) -->
<svg
   xmlns:svg="http://www.w3.org/2000/svg"
   xmlns="http://www.w3.org/2000/svg"
   version="1.0"
   width="24.136915"
   height="24"
   id="svg7384">
  <title
     id="title9167">Moblin Icon Theme</title>
  <defs
     id="defs7386" />
  <g
     transform="translate(510.0016,-950)"
     id="layer3" />
  <g
     transform="translate(510.0016,-950)"
     id="layer5" />
  <g
     transform="translate(510.0016,-950)"
     id="layer7" />
  <g
     transform="translate(510.0016,-950)"
     id="layer2" />
  <g
     transform="translate(510.0016,-950)"
     id="layer8" />
  <g
     transform="translate(510.0016,-1902.3622)"
     id="layer1" />
  <g
     transform="translate(510.0016,-950)"
     id="layer11">
    <rect
       width="24"
       height="24"
       x="485.86469"
       y="950"
       transform="scale(-1,1)"
       id="rect7716"
       style="opacity:0;fill:#ffffff;fill-opacity:1;stroke:none;display:inline" />
    <path
       d="M -500.15625,954 C -510.36255,953.9481 -510,964 -510,964 L -487,964 C -487.063,959.125 -488.38955,954.05982 -500.15625,954 z M -500.9375,959.96875 C -500.38086,960.00697 -500,960.29618 -500,961 C -500.0625,961.875 -500.875,962 -501.875,962 L -505.9375,962 C -505.9375,962 -502.60742,959.8541 -500.9375,959.96875 z"
       id="path7737"
       style="fill:#bdbdbd;fill-opacity:1;fill-rule:nonzero;stroke:none;stroke-width:2;marker:none;visibility:visible;display:inline;overflow:visible;enable-background:accumulate" />
    <path
       d="M -498,956.0625 C -497.9516,953.02631 -492.44257,952.03161 -489.9375,952 L -490,957.9375 L -498,956.0625 z"
       id="path7751"
       style="fill:#bdbdbd;fill-opacity:1;fill-rule:nonzero;stroke:none;stroke-width:2.00000048;stroke-linecap:round;stroke-linejoin:miter;marker:none;stroke-miterlimit:4;stroke-dasharray:none;stroke-dashoffset:0;stroke-opacity:1;visibility:visible;display:inline;overflow:visible;enable-background:accumulate" />
    <rect
       width="6.2362518"
       height="6.4960041"
       rx="1.2337556"
       ry="1.0568024"
       x="-1300.6019"
       y="1251.1284"
       transform="matrix(1,0,0.6383995,0.7697052,0,0)"
       id="rect7756"
       style="fill:#bdbdbd;fill-opacity:1;stroke:none;stroke-width:2.16505027;marker:none;visibility:visible;display:inline;overflow:visible;enable-background:accumulate" />
  </g>
  <g
     transform="translate(510.0016,-950)"
     id="layer4" />
  <g
     transform="translate(510.0016,-950)"
     id="layer9" />
  <g
     transform="translate(510.0016,-950)"
     id="layer10" />
  <g
     transform="translate(510.0016,-950)"
     id="layer6" />
</svg>
