<?xml version="1.0" encoding="UTF-8" standalone="no"?>
<!-- Created with Inkscape (http://www.inkscape.org/) -->
<svg
   xmlns:svg="http://www.w3.org/2000/svg"
   xmlns="http://www.w3.org/2000/svg"
   version="1.0"
   width="24"
   height="24"
   id="svg7384">
  <title
     id="title9167">Moblin Icon Theme</title>
  <defs
     id="defs7386" />
  <g
     transform="translate(426,-950)"
     id="layer3" />
  <g
     transform="translate(426,-950)"
     id="layer5" />
  <g
     transform="translate(426,-950)"
     id="layer7" />
  <g
     transform="translate(426,-950)"
     id="layer2" />
  <g
     transform="translate(426,-950)"
     id="layer8" />
  <g
     transform="translate(426,-1902.3622)"
     id="layer1" />
  <g
     transform="translate(426,-950)"
     id="layer11">
    <g
       transform="translate(-475,582.63782)"
       id="use7977">
      <rect
         width="24"
         height="24"
         x="49"
         y="367.36218"
         id="rect10278"
         style="opacity:0;fill:#ffffff;fill-opacity:1;stroke:none;display:inline" />
      <path
         d="M 402.375,214.625 A 7.875,7.875 0 1 1 386.625,214.625 A 7.875,7.875 0 1 1 402.375,214.625 z"
         transform="matrix(0.7606216,0,0,0.7606216,-236.14184,219.12394)"
         id="path10280"
         style="fill:none;stroke:#bebebe;stroke-width:2.62942839;marker:none;stroke-miterlimit:4;stroke-dasharray:none;stroke-opacity:1;visibility:visible;display:inline;overflow:visible;enable-background:accumulate" />
      <path
         d="M 402.375,214.625 A 7.875,7.875 0 1 1 386.625,214.625 A 7.875,7.875 0 1 1 402.375,214.625 z"
         transform="matrix(0.2522598,0,0,0.2522598,-35.593106,328.2311)"
         id="path10282"
         style="fill:none;stroke:#bebebe;stroke-width:7.92833519;marker:none;stroke-miterlimit:4;stroke-dasharray:none;stroke-opacity:1;visibility:visible;display:inline;overflow:visible;enable-background:accumulate" />
      <path
         d="M 60.731859,386.36218 L 62.559191,384.08639"
         id="path10284"
         style="fill:none;stroke:#bebebe;stroke-width:0.99999994;stroke-linecap:round;stroke-linejoin:miter;stroke-miterlimit:4;stroke-dasharray:none;stroke-opacity:1" />
      <path
         d="M 67.113642,378.37334 L 65.286311,380.64911"
         id="path10286"
         style="fill:none;stroke:#bebebe;stroke-width:0.99999994;stroke-linecap:round;stroke-linejoin:miter;stroke-miterlimit:4;stroke-dasharray:none;stroke-opacity:1" />
      <path
         d="M -585,971 L -589,971 L -589,953 L -573,953 L -573,957"
         transform="translate(641,-582.63782)"
         id="path10288"
         style="fill:none;stroke:#bebebe;stroke-width:2.00000048;stroke-linecap:round;stroke-linejoin:miter;marker:none;stroke-miterlimit:4;stroke-dasharray:none;stroke-dashoffset:0;stroke-opacity:1;visibility:visible;display:inline;overflow:visible;enable-background:accumulate" />
      <path
         d="M 54.49045,376.86218 L 57.50959,376.86218"
         id="path10290"
         style="fill:none;stroke:#bebebe;stroke-width:0.99999994;stroke-linecap:round;stroke-linejoin:miter;marker:none;stroke-miterlimit:4;stroke-dasharray:none;stroke-dashoffset:0;stroke-opacity:1;visibility:visible;display:inline;overflow:visible;enable-background:accumulate" />
    </g>
  </g>
  <g
     transform="translate(426,-950)"
     id="layer4" />
  <g
     transform="translate(426,-950)"
     id="layer9" />
  <g
     transform="translate(426,-950)"
     id="layer10" />
  <g
     transform="translate(426,-950)"
     id="layer6" />
</svg>
