<?xml version="1.0" encoding="UTF-8" standalone="no"?>
<!-- Created with Inkscape (http://www.inkscape.org/) -->
<svg
   xmlns:svg="http://www.w3.org/2000/svg"
   xmlns="http://www.w3.org/2000/svg"
   version="1.0"
   width="24.071581"
   height="24.000067"
   id="svg7384">
  <title
     id="title9167">Moblin Icon Theme</title>
  <defs
     id="defs7386" />
  <g
     transform="translate(538,-1244)"
     id="layer3" />
  <g
     transform="translate(538,-1244)"
     id="layer5" />
  <g
     transform="translate(538,-1244)"
     id="layer7" />
  <g
     transform="translate(538,-1244)"
     id="layer2" />
  <g
     transform="translate(538,-1244)"
     id="layer8" />
  <g
     transform="translate(538,-2196.3622)"
     id="layer1" />
  <g
     transform="translate(538,-1244)"
     id="layer11">
    <g
       transform="translate(80,0)"
       id="use10714">
      <g
         transform="translate(-666.92842,876.63782)"
         id="g11291">
        <rect
           width="24"
           height="24"
           x="49"
           y="367.36218"
           id="rect11293"
           style="opacity:0;fill:#ffffff;fill-opacity:1;stroke:none;display:inline" />
        <g
           transform="translate(2,-2)"
           id="g11295">
          <path
             d="M 55.92842,379.36225 C 54.283412,379.36225 52.92842,380.71724 52.92842,382.36225 C 52.92842,384.00726 54.283412,385.36225 55.92842,385.36225 C 57.573428,385.36225 58.92842,384.00726 58.92842,382.36225 C 58.92842,380.71724 57.573428,379.36225 55.92842,379.36225 z M 54.92842,381.86507 C 54.93947,381.5778 55.124062,381.36225 55.422373,381.36225 C 55.422373,381.36225 56.449888,381.36225 56.449888,381.36225 C 56.73715,381.37325 56.92842,381.57217 56.92842,381.87048 C 56.92842,381.87048 56.92842,382.82087 56.92842,382.82087 C 56.92842,383.16338 56.726101,383.36225 56.438839,383.36225 C 56.438839,383.36225 55.477616,383.36225 55.477616,383.36225 C 55.190354,383.36225 54.92842,383.14128 54.92842,382.84297 C 54.92842,382.84297 54.92842,381.86507 54.92842,381.86507 L 54.92842,381.86507 z"
             id="path11297"
             style="font-size:medium;font-style:normal;font-variant:normal;font-weight:normal;font-stretch:normal;text-indent:0;text-align:start;text-decoration:none;line-height:normal;letter-spacing:normal;word-spacing:normal;text-transform:none;direction:ltr;block-progression:tb;writing-mode:lr-tb;text-anchor:start;fill:#bebebe;fill-opacity:1;stroke:none;stroke-width:2.5;marker:none;visibility:visible;display:inline;overflow:visible;enable-background:accumulate;font-family:Bitstream Vera Sans;-inkscape-font-specification:Bitstream Vera Sans" />
          <path
             d="M 447,217 L 447,209 L 455,209 L 455,217"
             transform="translate(-389.07158,165.36225)"
             id="path11299"
             style="fill:#ffffff;fill-opacity:0;stroke:#bebebe;stroke-width:2;stroke-linecap:round;stroke-linejoin:miter;marker:none;stroke-miterlimit:4;stroke-dasharray:none;stroke-dashoffset:0;stroke-opacity:1;visibility:visible;display:inline;overflow:visible;enable-background:accumulate" />
          <path
             d="M 63.92842,379.36225 C 62.283412,379.36225 60.92842,380.71724 60.92842,382.36225 C 60.92842,384.00726 62.283412,385.36225 63.92842,385.36225 C 65.573428,385.36225 66.92842,384.00726 66.92842,382.36225 C 66.92842,380.71724 65.573428,379.36225 63.92842,379.36225 z M 62.92842,381.86507 C 62.93947,381.5778 63.124062,381.36225 63.422373,381.36225 C 63.422373,381.36225 64.449888,381.36225 64.449888,381.36225 C 64.73715,381.37325 64.92842,381.57217 64.92842,381.87048 C 64.92842,381.87048 64.92842,382.82087 64.92842,382.82087 C 64.92842,383.16338 64.726101,383.36225 64.438839,383.36225 C 64.438839,383.36225 63.477616,383.36225 63.477616,383.36225 C 63.190354,383.36225 62.92842,383.14128 62.92842,382.84297 C 62.92842,382.84297 62.92842,381.86507 62.92842,381.86507 L 62.92842,381.86507 z"
             id="path11301"
             style="font-size:medium;font-style:normal;font-variant:normal;font-weight:normal;font-stretch:normal;text-indent:0;text-align:start;text-decoration:none;line-height:normal;letter-spacing:normal;word-spacing:normal;text-transform:none;direction:ltr;block-progression:tb;writing-mode:lr-tb;text-anchor:start;fill:#bebebe;fill-opacity:1;stroke:none;stroke-width:2.5;marker:none;visibility:visible;display:inline;overflow:visible;enable-background:accumulate;font-family:Bitstream Vera Sans;-inkscape-font-specification:Bitstream Vera Sans" />
        </g>
        <path
           d="M 53.92842,376.36225 L 49.92842,376.36225 L 49.92842,388.36225 L 52.92842,388.36225 L 52.92842,390.36225 L 61.989082,390.36225 L 61.989082,388.36311 L 71.928422,388.36225 L 71.928422,376.36225 L 70.247158,376.36225"
           id="path11303"
           style="fill:#ffffff;fill-opacity:0;fill-rule:nonzero;stroke:#bebebe;stroke-width:2;stroke-linecap:round;stroke-linejoin:miter;marker:none;stroke-miterlimit:4;stroke-dasharray:none;stroke-dashoffset:0;stroke-opacity:1;visibility:visible;display:inline;overflow:visible;enable-background:accumulate" />
        <path
           d="M 55.42842,390.17475 L 55.42842,387.86225"
           id="path11305"
           style="fill:none;stroke:#bebebe;stroke-width:1px;stroke-linecap:round;stroke-linejoin:miter;stroke-opacity:1" />
        <path
           d="M 57.42842,390.17475 L 57.42842,387.86225"
           id="path11307"
           style="fill:none;stroke:#bebebe;stroke-width:1px;stroke-linecap:round;stroke-linejoin:miter;stroke-opacity:1" />
        <path
           d="M 59.42842,390.17475 L 59.42842,387.86225"
           id="path11309"
           style="fill:none;stroke:#bebebe;stroke-width:1px;stroke-linecap:round;stroke-linejoin:miter;stroke-opacity:1" />
      </g>
    </g>
  </g>
  <g
     transform="translate(538,-1244)"
     id="layer4" />
  <g
     transform="translate(538,-1244)"
     id="layer9" />
  <g
     transform="translate(538,-1244)"
     id="layer10" />
  <g
     transform="translate(538,-1244)"
     id="layer6" />
</svg>
