<?xml version="1.0" encoding="UTF-8" standalone="no"?>
<!-- Created with Inkscape (http://www.inkscape.org/) -->
<svg
   xmlns:svg="http://www.w3.org/2000/svg"
   xmlns="http://www.w3.org/2000/svg"
   version="1.0"
   width="24"
   height="24"
   id="svg7384">
  <title
     id="title9167">Moblin Icon Theme</title>
  <defs
     id="defs7386" />
  <g
     transform="translate(537.99995,-1104)"
     id="layer3" />
  <g
     transform="translate(537.99995,-1104)"
     id="layer5" />
  <g
     transform="translate(537.99995,-1104)"
     id="layer7" />
  <g
     transform="translate(537.99995,-1104)"
     id="layer2" />
  <g
     transform="translate(537.99995,-1104)"
     id="layer8" />
  <g
     transform="translate(537.99995,-2056.3622)"
     id="layer1" />
  <g
     transform="translate(537.99995,-1104)"
     id="layer11">
    <g
       transform="translate(23.000045,-65.999998)"
       id="use9509">
      <g
         transform="translate(-1332,994.98068)"
         id="g11961">
        <rect
           width="24"
           height="24"
           x="771"
           y="175.01932"
           id="rect11963"
           style="opacity:0;fill:#ffffff;fill-opacity:1;stroke:none;display:inline" />
        <rect
           width="2"
           height="15.559282"
           rx="1"
           ry="0.99999994"
           x="792"
           y="177.01932"
           id="rect11965"
           style="fill:#bebebe;fill-opacity:1;stroke:none;display:inline" />
        <path
           d="M 3.6307589,4.185298 A 4.7750678,4.7750678 0 1 1 -5.9193767,4.185298 A 4.7750678,4.7750678 0 1 1 3.6307589,4.185298 z"
           transform="matrix(0.8376844,0,0,0.8376844,789.95856,188.51339)"
           id="path11967"
           style="fill:none;stroke:#bebebe;stroke-width:2.38753414;stroke-linecap:round;stroke-miterlimit:4;stroke-dasharray:none;stroke-opacity:1;display:inline" />
        <rect
           width="2"
           height="15.999999"
           rx="1"
           ry="0.99999994"
           x="780"
           y="177.01932"
           id="rect11969"
           style="fill:#bebebe;fill-opacity:1;stroke:none;display:inline" />
        <rect
           width="2"
           height="14.000002"
           rx="1"
           ry="1"
           x="177.01935"
           y="-794"
           transform="matrix(0,1,-1,0,0,0)"
           id="rect11971"
           style="fill:#bebebe;fill-opacity:1;stroke:none;display:inline" />
        <path
           d="M 3.6307589,4.185298 A 4.7750678,4.7750678 0 1 1 -5.9193767,4.185298 A 4.7750678,4.7750678 0 1 1 3.6307589,4.185298 z"
           transform="matrix(0.8376844,0,0,0.8376844,777.95856,188.51339)"
           id="path11973"
           style="fill:none;stroke:#bebebe;stroke-width:2.38753414;stroke-linecap:round;stroke-miterlimit:4;stroke-dasharray:none;stroke-opacity:1;display:inline" />
      </g>
    </g>
  </g>
  <g
     transform="translate(537.99995,-1104)"
     id="layer4" />
  <g
     transform="translate(537.99995,-1104)"
     id="layer12" />
  <g
     transform="translate(537.99995,-1104)"
     id="layer9" />
  <g
     transform="translate(537.99995,-1104)"
     id="layer10" />
  <g
     transform="translate(537.99995,-1104)"
     id="layer6" />
</svg>
