<?xml version="1.0" encoding="UTF-8" standalone="no"?>
<!-- Created with Inkscape (http://www.inkscape.org/) -->
<svg
   xmlns:svg="http://www.w3.org/2000/svg"
   xmlns="http://www.w3.org/2000/svg"
   version="1.0"
   width="24"
   height="24.000038"
   id="svg7384">
  <title
     id="title9167">Moblin Icon Theme</title>
  <defs
     id="defs7386" />
  <g
     transform="translate(538,-1164)"
     id="layer3" />
  <g
     transform="translate(538,-1164)"
     id="layer5" />
  <g
     transform="translate(538,-1164)"
     id="layer7" />
  <g
     transform="translate(538,-1164)"
     id="layer2" />
  <g
     transform="translate(538,-1164)"
     id="layer8" />
  <g
     transform="translate(538,-2116.3622)"
     id="layer1" />
  <g
     transform="translate(538,-1164)"
     id="layer11">
    <rect
       width="24"
       height="24"
       x="-538"
       y="1164"
       id="rect10235"
       style="opacity:0;fill:#ffffff;fill-opacity:1;stroke:none;display:inline" />
    <path
       d="M -531,1168 C -534.30106,1168 -537,1170.6989 -537,1174 C -537.0051,1174.3606 -536.81562,1174.6961 -536.50413,1174.8779 C -536.19263,1175.0597 -535.80737,1175.0597 -535.49587,1174.8779 C -535.18438,1174.6961 -534.9949,1174.3606 -535,1174 C -535,1171.7811 -533.21894,1170 -531,1170 C -529.13022,1170 -527.60893,1171.1627 -527.125,1172.9688 C -527.07579,1173.358 -526.80354,1173.6825 -526.42879,1173.7986 C -526.05404,1173.9148 -525.64602,1173.801 -525.38535,1173.5078 C -525.12469,1173.2146 -525.05954,1172.7961 -525.21875,1172.4375 C -525.92538,1169.8003 -528.26978,1168 -531,1168 z"
       id="path10247"
       style="fill:#bebebe;fill-opacity:1;stroke:none;stroke-width:2;stroke-linecap:round;stroke-linejoin:miter;marker:none;stroke-miterlimit:4;stroke-dasharray:none;stroke-dashoffset:0;stroke-opacity:1;visibility:visible;display:inline;overflow:visible;enable-background:accumulate" />
    <path
       d="M -536.21875,1173 C -536.68438,1173.1043 -537.01149,1173.523 -537,1174 L -537,1184.0312 C -537.0051,1184.3918 -536.81562,1184.7273 -536.50413,1184.9091 C -536.19263,1185.0909 -535.80737,1185.0909 -535.49587,1184.9091 C -535.18438,1184.7273 -534.9949,1184.3918 -535,1184.0312 L -535,1174 C -534.99256,1173.6921 -535.12736,1173.398 -535.36543,1173.2027 C -535.60349,1173.0074 -535.91827,1172.9326 -536.21875,1173 L -536.21875,1173 z"
       id="path10249"
       style="fill:#bebebe;fill-opacity:1;stroke:none;stroke-width:2;stroke-linecap:round;stroke-linejoin:miter;marker:none;stroke-miterlimit:4;stroke-dasharray:none;stroke-dashoffset:0;stroke-opacity:1;visibility:visible;display:inline;overflow:visible;enable-background:accumulate" />
    <path
       d="M -536.125,1182.9301 C -536.64014,1182.9946 -537.02022,1183.4426 -537,1183.9614 C -536.98485,1184.9166 -537.21262,1185.6312 -537.78125,1186.3989 C -538.04405,1186.6793 -538.12296,1187.0854 -537.98426,1187.4438 C -537.84556,1187.8022 -537.51378,1188.0494 -537.13069,1188.0798 C -536.74761,1188.1102 -536.38099,1187.9184 -536.1875,1187.5864 C -535.38936,1186.5089 -534.97874,1185.2709 -535,1183.9301 C -534.99777,1183.6417 -535.12011,1183.3665 -535.33564,1183.1749 C -535.55117,1182.9833 -535.83889,1182.8941 -536.125,1182.9301 L -536.125,1182.9301 z"
       id="path10251"
       style="fill:#bebebe;fill-opacity:1;stroke:none;stroke-width:2;stroke-linecap:round;stroke-linejoin:miter;marker:none;stroke-miterlimit:4;stroke-dasharray:none;stroke-dashoffset:0;stroke-opacity:1;visibility:visible;display:inline;overflow:visible;enable-background:accumulate" />
    <path
       d="M -525.8572,1182.9927 C -525.3421,1183.0572 -524.96203,1183.5052 -524.9822,1184.0239 C -524.98583,1184.9619 -524.7593,1185.6451 -524.20095,1186.3989 C -523.93815,1186.6793 -523.85924,1187.0854 -523.99794,1187.4438 C -524.13664,1187.8022 -524.46842,1188.0494 -524.85151,1188.0798 C -525.23459,1188.1102 -525.60121,1187.9184 -525.7947,1187.5864 C -526.57798,1186.529 -526.9873,1185.3086 -526.9822,1183.9927 C -526.98443,1183.7043 -526.86209,1183.4291 -526.64656,1183.2375 C -526.43103,1183.0459 -526.14331,1182.9567 -525.8572,1182.9927 L -525.8572,1182.9927 z"
       id="path10263"
       style="fill:#bebebe;fill-opacity:1;stroke:none;stroke-width:2;stroke-linecap:round;stroke-linejoin:miter;marker:none;stroke-miterlimit:4;stroke-dasharray:none;stroke-dashoffset:0;stroke-opacity:1;visibility:visible;display:inline;overflow:visible;enable-background:accumulate" />
    <path
       d="M -528.28125,1164 C -528.83353,1164.0259 -529.26026,1164.4946 -529.23437,1165.0469 C -529.20849,1165.5992 -528.73978,1166.0259 -528.1875,1166 L -516.875,1166 C -516.40759,1166 -516.0625,1166.3451 -516.0625,1166.8125 L -516.0625,1172.25 C -516.0625,1172.7174 -516.40759,1173.0625 -516.875,1173.0625 L -517.9375,1173.0625 L -518.21875,1173.0625 L -518.46875,1173.2188 L -520.59375,1174.5625 L -521.03125,1173.625 L -521.3125,1173.0625 L -521.9375,1173.0625 L -522.96875,1173.0625 C -523.32939,1173.0574 -523.66483,1173.2469 -523.84664,1173.5584 C -524.02844,1173.8699 -524.02844,1174.2551 -523.84664,1174.5666 C -523.66483,1174.8781 -523.32939,1175.0676 -522.96875,1175.0625 L -522.5625,1175.0625 L -521.90625,1176.4375 L -521.40625,1177.4375 L -520.46875,1176.8438 L -517.65625,1175.0625 L -516.875,1175.0625 C -515.33415,1175.0625 -514.0625,1173.7908 -514.0625,1172.25 L -514.0625,1166.8125 C -514.0625,1165.2717 -515.33415,1164 -516.875,1164 L -528.1875,1164 C -528.21873,1163.9985 -528.25002,1163.9985 -528.28125,1164 z"
       id="rect10265"
       style="fill:#bebebe;fill-opacity:1;stroke:none;stroke-width:2;stroke-linecap:round;stroke-linejoin:miter;marker:none;stroke-miterlimit:4;stroke-dasharray:none;stroke-dashoffset:0;stroke-opacity:1;visibility:visible;display:inline;overflow:visible;enable-background:accumulate" />
    <path
       d="M -525.21875,1178 C -525.59188,1178.0677 -525.89464,1178.3406 -526.00056,1178.7047 C -526.10649,1179.0688 -525.99736,1179.4615 -525.71875,1179.7188 L -525.4375,1180 L -526.71875,1181.2812 C -527.11573,1181.6782 -527.11575,1182.3218 -526.7188,1182.7188 C -526.32185,1183.1157 -525.67823,1183.1158 -525.28125,1182.7188 L -523.28125,1180.7188 L -522.59375,1180 L -523.28125,1179.2812 L -524.28125,1178.2812 C -524.5234,1178.0305 -524.8786,1177.924 -525.21875,1178 z"
       id="path10270"
       style="fill:#bebebe;fill-opacity:1;stroke:none;stroke-width:2;stroke-linecap:round;stroke-linejoin:miter;marker:none;stroke-miterlimit:4;stroke-dasharray:none;stroke-dashoffset:0;stroke-opacity:1;visibility:visible;display:inline;overflow:visible;enable-background:accumulate" />
    <rect
       width="2"
       height="4"
       rx="1"
       ry="1"
       x="-528"
       y="1173.9688"
       id="rect10272"
       style="fill:#bebebe;fill-opacity:1;stroke:none;stroke-width:2;marker:none;visibility:visible;display:inline;overflow:visible;enable-background:accumulate" />
    <rect
       width="2"
       height="4"
       rx="1"
       ry="1"
       x="-532"
       y="1173.9688"
       id="rect10274"
       style="fill:#bebebe;fill-opacity:1;stroke:none;stroke-width:2;marker:none;visibility:visible;display:inline;overflow:visible;enable-background:accumulate" />
    <path
       d="M -527,1182 L -527,1183.9375 L -525,1183.9375 L -525,1182 L -527,1182 z"
       id="path11025"
       style="fill:#bebebe;fill-opacity:1;stroke:none;stroke-width:2;stroke-linecap:butt;stroke-linejoin:miter;marker:none;stroke-miterlimit:4.30000019;stroke-dasharray:none;stroke-dashoffset:0;stroke-opacity:1;visibility:visible;display:inline;overflow:visible;enable-background:accumulate" />
    <path
       d="M -526.4376,1181.0938 C -526.49498,1181.1152 -526.54794,1181.147 -526.59385,1181.1875 C -527.41295,1181.7917 -528.26459,1182.0467 -529.28135,1182.0001 C -529.55749,1181.9915 -529.78835,1182.2083 -529.79698,1182.4845 C -529.8056,1182.7606 -529.58874,1182.9915 -529.3126,1183.0001 C -528.09425,1183.056 -526.9816,1182.724 -526.0001,1182.0001 C -525.74983,1181.8793 -525.64489,1181.5785 -525.7657,1181.3282 C -525.88651,1181.0779 -526.18733,1180.973 -526.4376,1181.0938 z"
       id="path11030"
       style="fill:#bebebe;fill-opacity:1;stroke:none;stroke-width:1;stroke-linecap:round;stroke-linejoin:miter;marker:none;stroke-miterlimit:4.30000019;stroke-dasharray:none;stroke-dashoffset:0;stroke-opacity:1;visibility:visible;display:inline;overflow:visible;enable-background:accumulate" />
    <path
       d="M -525.5,1180 L -529.46875,1180.0312 C -529.64907,1180.0286 -529.81679,1180.1234 -529.90769,1180.2791 C -529.9986,1180.4349 -529.9986,1180.6275 -529.90769,1180.7833 C -529.81679,1180.939 -529.64907,1181.0338 -529.46875,1181.0312 L -525.46875,1181 C -525.19261,1180.9914 -524.97575,1180.7605 -524.98437,1180.4844 C -524.993,1180.2082 -525.22386,1179.9914 -525.5,1180 z"
       id="path11032"
       style="fill:#bebebe;fill-opacity:1;stroke:none;stroke-width:1;stroke-linecap:round;stroke-linejoin:miter;marker:none;stroke-miterlimit:4.30000019;stroke-dasharray:none;stroke-dashoffset:0;stroke-opacity:1;visibility:visible;display:inline;overflow:visible;enable-background:accumulate" />
  </g>
  <g
     transform="translate(538,-1164)"
     id="layer4" />
  <g
     transform="translate(538,-1164)"
     id="layer12" />
  <g
     transform="translate(538,-1164)"
     id="layer9" />
  <g
     transform="translate(538,-1164)"
     id="layer10" />
  <g
     transform="translate(538,-1164)"
     id="layer6" />
</svg>
