<?xml version="1.0" encoding="UTF-8" standalone="no"?>
<!-- Created with Inkscape (http://www.inkscape.org/) -->
<svg
   xmlns:svg="http://www.w3.org/2000/svg"
   xmlns="http://www.w3.org/2000/svg"
   version="1.0"
   width="24"
   height="24.000038"
   id="svg7384">
  <title
     id="title9167">Moblin Icon Theme</title>
  <defs
     id="defs7386" />
  <g
     transform="translate(538,-1214)"
     id="layer3" />
  <g
     transform="translate(538,-1214)"
     id="layer5" />
  <g
     transform="translate(538,-1214)"
     id="layer7" />
  <g
     transform="translate(538,-1214)"
     id="layer2" />
  <g
     transform="translate(538,-1214)"
     id="layer8" />
  <g
     transform="translate(538,-2166.3622)"
     id="layer1" />
  <g
     transform="translate(538,-1214)"
     id="layer11">
    <rect
       width="24"
       height="24"
       x="-538"
       y="1214"
       id="rect10235"
       style="opacity:0;fill:#ffffff;fill-opacity:1;stroke:none;display:inline" />
    <path
       d="M -531,1218 C -534.30106,1218 -537,1220.6989 -537,1224 C -537.0051,1224.3606 -536.81562,1224.6961 -536.50413,1224.8779 C -536.19263,1225.0597 -535.80737,1225.0597 -535.49587,1224.8779 C -535.18438,1224.6961 -534.9949,1224.3606 -535,1224 C -535,1221.7811 -533.21894,1220 -531,1220 C -529.13022,1220 -527.60893,1221.1627 -527.125,1222.9688 C -527.07579,1223.358 -526.80354,1223.6825 -526.42879,1223.7986 C -526.05404,1223.9148 -525.64602,1223.801 -525.38535,1223.5078 C -525.12469,1223.2146 -525.05954,1222.7961 -525.21875,1222.4375 C -525.92538,1219.8003 -528.26978,1218 -531,1218 z"
       id="path10247"
       style="fill:#bebebe;fill-opacity:1;stroke:none;stroke-width:2;stroke-linecap:round;stroke-linejoin:miter;marker:none;stroke-miterlimit:4;stroke-dasharray:none;stroke-dashoffset:0;stroke-opacity:1;visibility:visible;display:inline;overflow:visible;enable-background:accumulate" />
    <path
       d="M -536.21875,1223 C -536.68438,1223.1043 -537.01149,1223.523 -537,1224 L -537,1234.0312 C -537.0051,1234.3918 -536.81562,1234.7273 -536.50413,1234.9091 C -536.19263,1235.0909 -535.80737,1235.0909 -535.49587,1234.9091 C -535.18438,1234.7273 -534.9949,1234.3918 -535,1234.0312 L -535,1224 C -534.99256,1223.6921 -535.12736,1223.398 -535.36543,1223.2027 C -535.60349,1223.0074 -535.91827,1222.9326 -536.21875,1223 L -536.21875,1223 z"
       id="path10249"
       style="fill:#bebebe;fill-opacity:1;stroke:none;stroke-width:2;stroke-linecap:round;stroke-linejoin:miter;marker:none;stroke-miterlimit:4;stroke-dasharray:none;stroke-dashoffset:0;stroke-opacity:1;visibility:visible;display:inline;overflow:visible;enable-background:accumulate" />
    <path
       d="M -536.125,1232.9301 C -536.64014,1232.9946 -537.02022,1233.4426 -537,1233.9614 C -536.98485,1234.9166 -537.21262,1235.6312 -537.78125,1236.3989 C -538.04405,1236.6793 -538.12296,1237.0854 -537.98426,1237.4438 C -537.84556,1237.8022 -537.51378,1238.0494 -537.13069,1238.0798 C -536.74761,1238.1102 -536.38099,1237.9184 -536.1875,1237.5864 C -535.38936,1236.5089 -534.97874,1235.2709 -535,1233.9301 C -534.99777,1233.6417 -535.12011,1233.3665 -535.33564,1233.1749 C -535.55117,1232.9833 -535.83889,1232.8941 -536.125,1232.9301 L -536.125,1232.9301 z"
       id="path10251"
       style="fill:#bebebe;fill-opacity:1;stroke:none;stroke-width:2;stroke-linecap:round;stroke-linejoin:miter;marker:none;stroke-miterlimit:4;stroke-dasharray:none;stroke-dashoffset:0;stroke-opacity:1;visibility:visible;display:inline;overflow:visible;enable-background:accumulate" />
    <path
       d="M -526.125,1231.4375 C -526.64014,1231.502 -527.02022,1231.95 -527,1232.4688 L -527,1233.9688 C -527.0051,1234.3294 -526.81562,1234.6649 -526.50413,1234.8467 C -526.19263,1235.0285 -525.80737,1235.0285 -525.49587,1234.8467 C -525.18438,1234.6649 -524.9949,1234.3294 -525,1233.9688 L -525,1232.4688 C -524.9885,1232.175 -525.10682,1231.8911 -525.32352,1231.6925 C -525.54023,1231.4938 -525.83335,1231.4006 -526.125,1231.4375 z"
       id="path10261"
       style="fill:#bebebe;fill-opacity:1;stroke:none;stroke-width:2;stroke-linecap:round;stroke-linejoin:miter;marker:none;stroke-miterlimit:4;stroke-dasharray:none;stroke-dashoffset:0;stroke-opacity:1;visibility:visible;display:inline;overflow:visible;enable-background:accumulate" />
    <path
       d="M -525.8572,1232.9301 C -525.34206,1232.9946 -524.96198,1233.4426 -524.9822,1233.9614 C -524.99735,1234.9166 -524.76958,1235.6312 -524.20095,1236.3989 C -523.93815,1236.6793 -523.85924,1237.0854 -523.99794,1237.4438 C -524.13664,1237.8022 -524.46842,1238.0494 -524.85151,1238.0798 C -525.23459,1238.1102 -525.60121,1237.9184 -525.7947,1237.5864 C -526.59284,1236.5089 -527.00346,1235.2709 -526.9822,1233.9301 C -526.98443,1233.6417 -526.86209,1233.3665 -526.64656,1233.1749 C -526.43103,1232.9833 -526.14331,1232.8941 -525.8572,1232.9301 L -525.8572,1232.9301 z"
       id="path10263"
       style="fill:#bebebe;fill-opacity:1;stroke:none;stroke-width:2;stroke-linecap:round;stroke-linejoin:miter;marker:none;stroke-miterlimit:4;stroke-dasharray:none;stroke-dashoffset:0;stroke-opacity:1;visibility:visible;display:inline;overflow:visible;enable-background:accumulate" />
    <path
       d="M -528.28125,1214 C -528.83353,1214.0259 -529.26026,1214.4946 -529.23437,1215.0469 C -529.20849,1215.5992 -528.73978,1216.0259 -528.1875,1216 L -516.875,1216 C -516.40759,1216 -516.0625,1216.3451 -516.0625,1216.8125 L -516.0625,1222.25 C -516.0625,1222.7174 -516.40759,1223.0625 -516.875,1223.0625 L -517.9375,1223.0625 L -518.3125,1223.0625 L -518.59375,1223.3125 L -520.96875,1225.4688 L -520.9375,1224.0938 L -520.90625,1223.0625 L -521.9375,1223.0625 L -522.96875,1223.0625 C -523.32939,1223.0574 -523.66483,1223.2469 -523.84664,1223.5584 C -524.02844,1223.8699 -524.02844,1224.2551 -523.84664,1224.5666 C -523.66483,1224.8781 -523.32939,1225.0676 -522.96875,1225.0625 L -523,1227.7188 L -523.03125,1230.0312 L -521.34375,1228.4688 L -517.5625,1225.0625 L -516.875,1225.0625 C -515.33415,1225.0625 -514.0625,1223.7908 -514.0625,1222.25 L -514.0625,1216.8125 C -514.0625,1215.2717 -515.33415,1214 -516.875,1214 L -528.1875,1214 C -528.21873,1213.9985 -528.25002,1213.9985 -528.28125,1214 z"
       id="rect10265"
       style="fill:#bebebe;fill-opacity:1;stroke:none;stroke-width:2;stroke-linecap:round;stroke-linejoin:miter;marker:none;stroke-miterlimit:4;stroke-dasharray:none;stroke-dashoffset:0;stroke-opacity:1;visibility:visible;display:inline;overflow:visible;enable-background:accumulate" />
    <path
       d="M -526.25,1228.9688 C -526.72761,1229.0751 -527.05816,1229.5114 -527.03125,1230 L -530,1230 C -530.36064,1229.9949 -530.69608,1230.1844 -530.87789,1230.4959 C -531.05969,1230.8074 -531.05969,1231.1926 -530.87789,1231.5041 C -530.69608,1231.8156 -530.36064,1232.0051 -530,1232 L -525,1232 L -522.59375,1232 L -524.28125,1230.2812 L -525.3125,1229.25 C -525.55465,1228.9993 -525.90985,1228.8928 -526.25,1228.9688 L -526.25,1228.9688 z"
       id="path10270"
       style="fill:#bebebe;fill-opacity:1;stroke:none;stroke-width:2;stroke-linecap:round;stroke-linejoin:miter;marker:none;stroke-miterlimit:4;stroke-dasharray:none;stroke-dashoffset:0;stroke-opacity:1;visibility:visible;display:inline;overflow:visible;enable-background:accumulate" />
    <rect
       width="2"
       height="4"
       rx="1"
       ry="1"
       x="-528"
       y="1223.9688"
       id="rect10272"
       style="fill:#bebebe;fill-opacity:1;stroke:none;stroke-width:2;marker:none;visibility:visible;display:inline;overflow:visible;enable-background:accumulate" />
    <rect
       width="2"
       height="4"
       rx="1"
       ry="1"
       x="-532"
       y="1223.9688"
       id="rect10274"
       style="fill:#bebebe;fill-opacity:1;stroke:none;stroke-width:2;marker:none;visibility:visible;display:inline;overflow:visible;enable-background:accumulate" />
  </g>
  <g
     transform="translate(538,-1214)"
     id="layer4" />
  <g
     transform="translate(538,-1214)"
     id="layer9" />
  <g
     transform="translate(538,-1214)"
     id="layer10" />
  <g
     transform="translate(538,-1214)"
     id="layer6" />
</svg>
