<?xml version="1.0" encoding="UTF-8" standalone="no"?>
<!-- Created with Inkscape (http://www.inkscape.org/) -->
<svg
   xmlns:svg="http://www.w3.org/2000/svg"
   xmlns="http://www.w3.org/2000/svg"
   version="1.0"
   width="24"
   height="24"
   id="svg7384">
  <title
     id="title9167">Moblin Icon Theme</title>
  <defs
     id="defs7386" />
  <g
     transform="translate(566,-1028)"
     id="layer3" />
  <g
     transform="translate(566,-1028)"
     id="layer5" />
  <g
     transform="translate(566,-1028)"
     id="layer7" />
  <g
     transform="translate(566,-1028)"
     id="layer2" />
  <g
     transform="translate(566,-1028)"
     id="layer8" />
  <g
     transform="translate(566,-1980.3622)"
     id="layer1" />
  <g
     transform="translate(566,-1028)"
     id="layer11">
    <rect
       width="24"
       height="24"
       x="542"
       y="1028"
       transform="scale(-1,1)"
       id="rect5601"
       style="opacity:0;fill:#ffffff;fill-opacity:1;stroke:none;display:inline" />
    <path
       d="M -549.99972,1029.9995 C -553.30078,1029.9995 -555.99972,1032.6984 -555.99972,1035.9995 C -555.99972,1039.3006 -553.30078,1041.9995 -549.99972,1041.9995 C -546.69866,1041.9995 -543.99972,1039.3006 -543.99972,1035.9995 C -543.99972,1032.6984 -546.69866,1029.9995 -549.99972,1029.9995 z M -549.99972,1031.9995 C -547.78078,1031.9995 -545.99972,1033.7806 -545.99972,1035.9995 C -545.99972,1038.2184 -547.78078,1039.9995 -549.99972,1039.9995 C -552.21866,1039.9995 -553.99972,1038.2184 -553.99972,1035.9995 C -553.99972,1033.7806 -552.21866,1031.9995 -549.99972,1031.9995 z"
       id="path5617"
       style="fill:#bebebe;fill-opacity:1;fill-rule:nonzero;stroke:none;stroke-width:1.99999893;stroke-linecap:round;stroke-linejoin:round;marker:none;stroke-miterlimit:4;stroke-dasharray:none;stroke-dashoffset:0;stroke-opacity:1;visibility:visible;display:inline;overflow:visible;enable-background:accumulate" />
    <path
       d="M -556.55,1030.5499 C -556.70987,1030.5631 -556.86421,1030.6146 -557,1030.7 C -558.4065,1031.512 -559.48795,1032.5934 -560.3,1034 C -562.77853,1038.293 -561.29296,1043.8216 -557,1046.3 C -552.70706,1048.7786 -547.17854,1047.293 -544.7,1043 C -544.42386,1042.5168 -544.59175,1041.9011 -545.075,1041.625 C -545.55825,1041.3489 -546.17386,1041.5168 -546.45,1042 C -548.38749,1045.3558 -552.64421,1046.4875 -556,1044.5499 C -559.35578,1042.6126 -560.48747,1038.3558 -558.55,1035 C -557.89002,1033.857 -557.14307,1033.1099 -556,1032.4501 C -555.54999,1032.2435 -555.31889,1031.7387 -555.45656,1031.2631 C -555.59423,1030.7875 -556.05923,1030.4842 -556.55,1030.5499 z"
       id="path5619"
       style="fill:#bebebe;fill-opacity:1;fill-rule:nonzero;stroke:none;stroke-width:1.25;stroke-linecap:round;stroke-linejoin:round;marker:none;stroke-miterlimit:4;stroke-dasharray:none;stroke-dashoffset:0;stroke-opacity:1;visibility:visible;display:inline;overflow:visible;enable-background:accumulate" />
  </g>
  <g
     transform="translate(566,-1028)"
     id="layer4" />
  <g
     transform="translate(566,-1028)"
     id="layer9" />
  <g
     transform="translate(566,-1028)"
     id="layer10" />
  <g
     transform="translate(566,-1028)"
     id="layer6" />
</svg>
