<?xml version="1.0" encoding="UTF-8" standalone="no"?>
<!-- Created with Inkscape (http://www.inkscape.org/) -->
<svg
   xmlns:svg="http://www.w3.org/2000/svg"
   xmlns="http://www.w3.org/2000/svg"
   version="1.0"
   width="24"
   height="24"
   id="svg7384">
  <title
     id="title9167">Moblin Icon Theme</title>
  <defs
     id="defs7386" />
  <g
     transform="translate(540,-1028)"
     id="layer3" />
  <g
     transform="translate(540,-1028)"
     id="layer5" />
  <g
     transform="translate(540,-1028)"
     id="layer7" />
  <g
     transform="translate(540,-1028)"
     id="layer2" />
  <g
     transform="translate(540,-1028)"
     id="layer8" />
  <g
     transform="translate(540,-1980.3622)"
     id="layer1" />
  <g
     transform="translate(540,-1028)"
     id="layer11">
    <rect
       width="24"
       height="24"
       x="516"
       y="1028"
       transform="scale(-1,1)"
       id="rect6396"
       style="opacity:0;fill:#ffffff;fill-opacity:1;stroke:none;display:inline" />
    <path
       d="M -535.15625,1038.0625 C -535.27754,1038.0827 -535.39408,1038.1251 -535.5,1038.1875 L -537.4375,1039.1875 C -537.78435,1039.3636 -537.99759,1039.7249 -537.98418,1040.1137 C -537.97078,1040.5025 -537.73315,1040.8482 -537.375,1041 L -535.34375,1041.875 C -535.22604,1041.9304 -535.09866,1041.9622 -534.96875,1041.9688 L -528.96875,1042 C -528.45802,1042.0179 -528.01596,1041.6479 -527.94369,1041.1419 C -527.87142,1040.636 -528.19219,1040.157 -528.6875,1040.0312 C -528.16353,1039.9172 -527.82273,1039.4102 -527.91496,1038.8819 C -528.0072,1038.3537 -528.49964,1037.9922 -529.03125,1038.0625 L -535.0625,1038.0625 C -535.09373,1038.061 -535.12502,1038.061 -535.15625,1038.0625 L -535.15625,1038.0625 z"
       id="path6402"
       style="fill:#bebebe;fill-opacity:1;stroke:none;stroke-width:1.99999988;stroke-linecap:round;stroke-linejoin:round;marker:none;stroke-miterlimit:4;stroke-dasharray:none;stroke-dashoffset:0;stroke-opacity:1;visibility:visible;display:inline;overflow:visible;enable-background:accumulate" />
    <path
       d="M -522.09375,1034 C -522.3287,1034.0172 -522.55004,1034.1168 -522.71875,1034.2812 L -524.4375,1036 L -526.59375,1036 L -528.34375,1034.3125 C -528.63289,1034.0389 -529.05679,1033.9628 -529.42306,1034.1188 C -529.78932,1034.2748 -530.02819,1034.6331 -530.03125,1035.0312 L -530,1045 C -530.00971,1045.4117 -529.76601,1045.7873 -529.38605,1045.9462 C -529.00608,1046.1051 -528.56755,1046.0149 -528.28125,1045.7188 L -526.5625,1044 L -524.4375,1044 L -522.71875,1045.7188 C -522.52644,1045.9049 -522.26756,1046.0062 -522,1046 L -519,1046 C -518.44774,1045.9999 -518.00006,1045.5523 -518,1045 L -517.96875,1035 C -517.96881,1034.4477 -518.41649,1034.0001 -518.96875,1034 L -522,1034 C -522.03123,1033.9985 -522.06252,1033.9985 -522.09375,1034 z M -521.5625,1036 L -519.96875,1036 L -520,1044 L -521.5625,1044 L -523.28125,1042.2812 C -523.47356,1042.0951 -523.73244,1041.9938 -524,1042 L -527,1042 C -527.26756,1041.9938 -527.52644,1042.0951 -527.71875,1042.2812 L -528,1042.5625 L -528.03125,1037.4062 L -527.6875,1037.7188 C -527.50293,1037.8973 -527.25677,1037.998 -527,1038 L -524,1038 C -523.73244,1038.0062 -523.47356,1037.9049 -523.28125,1037.7188 L -521.5625,1036 z"
       id="path6404"
       style="fill:#bebebe;fill-opacity:1;stroke:none;stroke-width:2;stroke-linecap:round;stroke-linejoin:round;marker:none;stroke-miterlimit:4;stroke-dasharray:none;stroke-dashoffset:0;stroke-opacity:1;visibility:visible;display:inline;overflow:visible;enable-background:accumulate" />
  </g>
  <g
     transform="translate(540,-1028)"
     id="layer4" />
  <g
     transform="translate(540,-1028)"
     id="layer9" />
  <g
     transform="translate(540,-1028)"
     id="layer10" />
  <g
     transform="translate(540,-1028)"
     id="layer6" />
</svg>
