<?xml version="1.0" encoding="UTF-8" standalone="no"?>
<!-- Created with Inkscape (http://www.inkscape.org/) -->
<svg
   xmlns:svg="http://www.w3.org/2000/svg"
   xmlns="http://www.w3.org/2000/svg"
   version="1.0"
   width="24"
   height="24"
   id="svg7384">
  <title
     id="title9167">Moblin Icon Theme</title>
  <defs
     id="defs7386" />
  <g
     transform="translate(514,-1028)"
     id="layer3" />
  <g
     transform="translate(514,-1028)"
     id="layer5" />
  <g
     transform="translate(514,-1028)"
     id="layer7" />
  <g
     transform="translate(514,-1028)"
     id="layer2" />
  <g
     transform="translate(514,-1028)"
     id="layer8" />
  <g
     transform="translate(514,-1980.3622)"
     id="layer1" />
  <g
     transform="translate(514,-1028)"
     id="layer11">
    <rect
       width="24"
       height="24"
       x="490"
       y="1028"
       transform="scale(-1,1)"
       id="rect6417"
       style="opacity:0;fill:#ffffff;fill-opacity:1;stroke:none;display:inline" />
    <path
       d="M -509.15625,1038.0625 C -509.27754,1038.0827 -509.39408,1038.1251 -509.5,1038.1875 L -511.4375,1039.1875 C -511.78435,1039.3636 -511.99759,1039.7249 -511.98418,1040.1137 C -511.97078,1040.5025 -511.73315,1040.8482 -511.375,1041 L -509.34375,1041.875 C -509.22604,1041.9304 -509.09866,1041.9622 -508.96875,1041.9688 L -502.96875,1042 C -502.45802,1042.0179 -502.01596,1041.6479 -501.94369,1041.1419 C -501.87142,1040.636 -502.19219,1040.157 -502.6875,1040.0312 C -502.16353,1039.9172 -501.82273,1039.4102 -501.91496,1038.8819 C -502.0072,1038.3537 -502.49964,1037.9922 -503.03125,1038.0625 L -509.0625,1038.0625 C -509.09373,1038.061 -509.12502,1038.061 -509.15625,1038.0625 L -509.15625,1038.0625 z"
       id="path6419"
       style="fill:#bebebe;fill-opacity:1;stroke:none;stroke-width:1.99999988;stroke-linecap:round;stroke-linejoin:round;marker:none;stroke-miterlimit:4;stroke-dasharray:none;stroke-dashoffset:0;stroke-opacity:1;visibility:visible;display:inline;overflow:visible;enable-background:accumulate" />
    <path
       d="M -496.09375,1034 C -496.3287,1034.0172 -496.55004,1034.1168 -496.71875,1034.2812 L -498.4375,1036 L -500.59375,1036 L -502.34375,1034.3125 C -502.63289,1034.0389 -503.05679,1033.9628 -503.42306,1034.1188 C -503.78932,1034.2748 -504.02819,1034.6331 -504.03125,1035.0312 L -504,1045 C -504.00971,1045.4117 -503.76601,1045.7873 -503.38605,1045.9462 C -503.00608,1046.1051 -502.56755,1046.0149 -502.28125,1045.7188 L -500.5625,1044 L -498.4375,1044 L -496.71875,1045.7188 C -496.52644,1045.9049 -496.26756,1046.0062 -496,1046 L -493,1046 C -492.44774,1045.9999 -492.00006,1045.5523 -492,1045 L -491.96875,1035 C -491.96881,1034.4477 -492.41649,1034.0001 -492.96875,1034 L -496,1034 C -496.03123,1033.9985 -496.06252,1033.9985 -496.09375,1034 z M -495.5625,1036 L -493.96875,1036 L -494,1044 L -495.5625,1044 L -497.28125,1042.2812 C -497.47356,1042.0951 -497.73244,1041.9938 -498,1042 L -501,1042 C -501.26756,1041.9938 -501.52644,1042.0951 -501.71875,1042.2812 L -502,1042.5625 L -502.03125,1037.4062 L -501.6875,1037.7188 C -501.50293,1037.8973 -501.25677,1037.998 -501,1038 L -498,1038 C -497.73244,1038.0062 -497.47356,1037.9049 -497.28125,1037.7188 L -495.5625,1036 z"
       id="path6426"
       style="fill:#bebebe;fill-opacity:1;stroke:none;stroke-width:2;stroke-linecap:round;stroke-linejoin:round;marker:none;stroke-miterlimit:4;stroke-dasharray:none;stroke-dashoffset:0;stroke-opacity:1;visibility:visible;display:inline;overflow:visible;enable-background:accumulate" />
    <path
       d="M -506,1028 L -498,1028 L -502,1032 L -506,1028 z"
       id="path6428"
       style="fill:#bebebe;fill-opacity:1;stroke:none;stroke-width:2;stroke-linecap:round;stroke-linejoin:round;marker:none;stroke-miterlimit:4;stroke-dasharray:none;stroke-dashoffset:0;stroke-opacity:1;visibility:visible;display:inline;overflow:visible;enable-background:accumulate" />
    <path
       d="M -506,1052 L -498,1052 L -502,1048 L -506,1052 z"
       id="path6430"
       style="fill:#bebebe;fill-opacity:1;stroke:none;stroke-width:2;marker:none;visibility:visible;display:inline;overflow:visible;enable-background:accumulate" />
  </g>
  <g
     transform="translate(514,-1028)"
     id="layer4" />
  <g
     transform="translate(514,-1028)"
     id="layer9" />
  <g
     transform="translate(514,-1028)"
     id="layer10" />
  <g
     transform="translate(514,-1028)"
     id="layer6" />
</svg>
