<?xml version="1.0" encoding="UTF-8" standalone="no"?>
<!-- Created with Inkscape (http://www.inkscape.org/) -->
<svg
   xmlns:svg="http://www.w3.org/2000/svg"
   xmlns="http://www.w3.org/2000/svg"
   version="1.0"
   width="24"
   height="24.009062"
   id="svg7384">
  <title
     id="title9167">Moblin Icon Theme</title>
  <defs
     id="defs7386" />
  <g
     transform="translate(454,-1153.9909)"
     id="layer3" />
  <g
     transform="translate(454,-1153.9909)"
     id="layer5" />
  <g
     transform="translate(454,-1153.9909)"
     id="layer7" />
  <g
     transform="translate(454,-1153.9909)"
     id="layer2" />
  <g
     transform="translate(454,-1153.9909)"
     id="layer8" />
  <g
     transform="translate(454,-2106.3531)"
     id="layer1" />
  <g
     transform="translate(454,-1153.9909)"
     id="layer11">
    <rect
       width="24"
       height="24"
       x="-454"
       y="1154"
       id="rect9672"
       style="opacity:0;fill:#ffffff;fill-opacity:1;stroke:none;display:inline" />
    <path
       d="M -452,1162 L -452,1163 L -452,1175 L -452,1176 L -451,1176 L -435,1176 L -434,1176 L -434,1175 L -434,1163 L -434,1162 L -435,1162 L -451,1162 L -452,1162 z M -450,1164 L -436,1164 L -436,1174 L -450,1174 L -450,1164 z"
       id="rect9674"
       style="fill:#bebebe;fill-opacity:1;stroke:none;stroke-width:2;stroke-linecap:butt;stroke-linejoin:miter;marker:none;stroke-miterlimit:4;stroke-dasharray:none;stroke-dashoffset:0;stroke-opacity:1;visibility:visible;display:inline;overflow:visible;enable-background:accumulate" />
    <path
       d="M -445.9399,1163 L -448.0024,1165.9695 L -444.9399,1166.063 L -442.8774,1163.0935 L -445.9399,1163 z"
       id="path9678"
       style="fill:#bebebe;fill-opacity:1;fill-rule:nonzero;stroke:none;stroke-width:2;marker:none;visibility:visible;display:inline;overflow:visible;enable-background:accumulate" />
    <path
       d="M -440.0649,1163 L -442.1274,1165.9695 L -439.0649,1166.063 L -437.0024,1163.0935 L -440.0649,1163 z"
       id="path9680"
       style="fill:#bebebe;fill-opacity:1;fill-rule:nonzero;stroke:none;stroke-width:2;marker:none;visibility:visible;display:inline;overflow:visible;enable-background:accumulate" />
    <path
       d="M -451.72823,1159.5641 L -451.46941,1158.5982 L -450.43414,1154.7344 L -450.17532,1153.7685 L -449.20939,1154.0273 L -433.75458,1158.1684 L -432.78865,1158.4273 L -433.04747,1159.3932 L -434.08275,1163.2569 L -434.34157,1164.2228 L -435.30749,1163.964 L -450.76231,1159.8229 L -451.72823,1159.5641 z M -449.27874,1158.1499 L -435.75578,1161.7733 L -435.23814,1159.8415 L -448.76111,1156.218 L -449.27874,1158.1499 z"
       id="rect9682"
       style="fill:#bebebe;fill-opacity:1;stroke:none;stroke-width:1.99999988;stroke-linecap:butt;stroke-linejoin:miter;marker:none;stroke-miterlimit:4;stroke-dasharray:none;stroke-dashoffset:0;stroke-opacity:1;visibility:visible;display:inline;overflow:visible;enable-background:accumulate" />
    <path
       d="M -438.22455,1158.5255 L -437.00088,1161.9276 L -439.98323,1161.2253 L -441.2069,1157.8232 L -438.22455,1158.5255 L -438.22455,1158.5255 z"
       id="path9684"
       style="fill:#bebebe;fill-opacity:1;fill-rule:nonzero;stroke:none;stroke-width:2;marker:none;visibility:visible;display:inline;overflow:visible;enable-background:accumulate" />
    <path
       d="M -443.89937,1157.005 L -442.6757,1160.4071 L -445.65805,1159.7047 L -446.88172,1156.3027 L -443.89937,1157.005 L -443.89937,1157.005 z"
       id="path9686"
       style="fill:#bebebe;fill-opacity:1;fill-rule:nonzero;stroke:none;stroke-width:2;marker:none;visibility:visible;display:inline;overflow:visible;enable-background:accumulate" />
  </g>
  <g
     transform="translate(454,-1153.9909)"
     id="layer4" />
  <g
     transform="translate(454,-1153.9909)"
     id="layer9" />
  <g
     transform="translate(454,-1153.9909)"
     id="layer10" />
  <g
     transform="translate(454,-1153.9909)"
     id="layer6" />
</svg>
