<?xml version="1.0" encoding="UTF-8" standalone="no"?>
<!-- Created with Inkscape (http://www.inkscape.org/) -->
<svg
   xmlns:svg="http://www.w3.org/2000/svg"
   xmlns="http://www.w3.org/2000/svg"
   version="1.0"
   width="24"
   height="24.009062"
   id="svg7384">
  <title
     id="title9167">Moblin Icon Theme</title>
  <defs
     id="defs7386" />
  <g
     transform="translate(454,-1103.9909)"
     id="layer3" />
  <g
     transform="translate(454,-1103.9909)"
     id="layer5" />
  <g
     transform="translate(454,-1103.9909)"
     id="layer7" />
  <g
     transform="translate(454,-1103.9909)"
     id="layer2" />
  <g
     transform="translate(454,-1103.9909)"
     id="layer8" />
  <g
     transform="translate(454,-2056.3531)"
     id="layer1" />
  <g
     transform="translate(454,-1103.9909)"
     id="layer11">
    <rect
       width="24"
       height="24"
       x="-454"
       y="1104"
       id="rect9672"
       style="opacity:0;fill:#ffffff;fill-opacity:1;stroke:none;display:inline" />
    <path
       d="M -452,1112 L -452,1113 L -452,1125 L -452,1126 L -451,1126 L -435,1126 L -434,1126 L -434,1125 L -434,1113 L -434,1112 L -435,1112 L -451,1112 L -452,1112 z M -450,1114 L -436,1114 L -436,1124 L -450,1124 L -450,1114 z"
       id="rect9674"
       style="fill:#bebebe;fill-opacity:1;stroke:none;stroke-width:2;stroke-linecap:butt;stroke-linejoin:miter;marker:none;stroke-miterlimit:4;stroke-dasharray:none;stroke-dashoffset:0;stroke-opacity:1;visibility:visible;display:inline;overflow:visible;enable-background:accumulate" />
    <path
       d="M -445.9399,1113 L -448.0024,1115.9695 L -444.9399,1116.063 L -442.8774,1113.0935 L -445.9399,1113 z"
       id="path9678"
       style="fill:#bebebe;fill-opacity:1;fill-rule:nonzero;stroke:none;stroke-width:2;marker:none;visibility:visible;display:inline;overflow:visible;enable-background:accumulate" />
    <path
       d="M -440.0649,1113 L -442.1274,1115.9695 L -439.0649,1116.063 L -437.0024,1113.0935 L -440.0649,1113 z"
       id="path9680"
       style="fill:#bebebe;fill-opacity:1;fill-rule:nonzero;stroke:none;stroke-width:2;marker:none;visibility:visible;display:inline;overflow:visible;enable-background:accumulate" />
    <path
       d="M -451.72068,1109.5492 L -451.46186,1108.5833 L -450.42658,1104.7196 L -450.16777,1103.7537 L -449.20184,1104.0125 L -433.74703,1108.1536 L -432.7811,1108.4124 L -433.03992,1109.3783 L -434.0752,1113.242 L -434.33401,1114.208 L -435.29994,1113.9491 L -450.75475,1109.808 L -451.72068,1109.5492 z M -449.27119,1108.135 L -435.74823,1111.7585 L -435.23059,1109.8266 L -448.75355,1106.2032 L -449.27119,1108.135 z"
       id="rect9682"
       style="fill:#bebebe;fill-opacity:1;stroke:none;stroke-width:1.99999988;stroke-linecap:butt;stroke-linejoin:miter;marker:none;stroke-miterlimit:4;stroke-dasharray:none;stroke-dashoffset:0;stroke-opacity:1;visibility:visible;display:inline;overflow:visible;enable-background:accumulate" />
    <path
       d="M -438.22455,1108.5255 L -437.00088,1111.9276 L -439.98323,1111.2253 L -441.2069,1107.8232 L -438.22455,1108.5255 L -438.22455,1108.5255 z"
       id="path9684"
       style="fill:#bebebe;fill-opacity:1;fill-rule:nonzero;stroke:none;stroke-width:2;marker:none;visibility:visible;display:inline;overflow:visible;enable-background:accumulate" />
    <path
       d="M -443.89937,1107.005 L -442.6757,1110.4071 L -445.65805,1109.7047 L -446.88172,1106.3027 L -443.89937,1107.005 L -443.89937,1107.005 z"
       id="path9686"
       style="fill:#bebebe;fill-opacity:1;fill-rule:nonzero;stroke:none;stroke-width:2;marker:none;visibility:visible;display:inline;overflow:visible;enable-background:accumulate" />
  </g>
  <g
     transform="translate(454,-1103.9909)"
     id="layer4" />
  <g
     transform="translate(454,-1103.9909)"
     id="layer12" />
  <g
     transform="translate(454,-1103.9909)"
     id="layer9" />
  <g
     transform="translate(454,-1103.9909)"
     id="layer10" />
  <g
     transform="translate(454,-1103.9909)"
     id="layer6" />
</svg>
