<?xml version="1.0" encoding="UTF-8" standalone="no"?>
<!-- Created with Inkscape (http://www.inkscape.org/) -->
<svg
   xmlns:svg="http://www.w3.org/2000/svg"
   xmlns="http://www.w3.org/2000/svg"
   version="1.0"
   width="24"
   height="24"
   id="svg7384">
  <title
     id="title9167">Moblin Icon Theme</title>
  <defs
     id="defs7386" />
  <g
     transform="translate(592,-984)"
     id="layer3" />
  <g
     transform="translate(592,-984)"
     id="layer5" />
  <g
     transform="translate(592,-984)"
     id="layer7" />
  <g
     transform="translate(592,-984)"
     id="layer2" />
  <g
     transform="translate(592,-984)"
     id="layer8" />
  <g
     transform="translate(592,-1936.3622)"
     id="layer1" />
  <g
     transform="translate(592,-984)"
     id="layer11">
    <rect
       width="24"
       height="24"
       x="-592"
       y="984"
       id="rect15760"
       style="opacity:0;fill:#ffffff;fill-opacity:1;stroke:none;display:inline" />
    <g
       transform="matrix(0.6078907,0,0,0.6078907,-447.53606,884.68966)"
       id="g15762" />
    <path
       d="M -587.09375,984 C -587.54389,984.04516 -587.90766,984.38687 -587.98085,984.83331 C -588.05403,985.27975 -587.81841,985.71973 -587.40625,985.90625 L -569.40625,994.28125 C -569.09813,994.41819 -568.74174,994.39066 -568.45832,994.208 C -568.17489,994.02535 -568.00258,993.71217 -568,993.375 L -568,985 C -568.00006,984.44774 -568.44774,984.00006 -569,984 L -587,984 C -587.03123,983.99853 -587.06252,983.99853 -587.09375,984 L -587.09375,984 z M -582.5,986 L -570,986 L -570,991.8125 L -582.5,986 z"
       id="path15768"
       style="fill:#bebebe;fill-opacity:1;stroke:none;stroke-width:2;stroke-linecap:round;stroke-linejoin:round;marker:none;stroke-miterlimit:4;stroke-dasharray:none;stroke-dashoffset:0;stroke-opacity:1;visibility:visible;display:inline;overflow:visible;enable-background:accumulate" />
    <path
       d="M -587.21875,984.5 C -587.68438,984.60428 -588.01149,985.02298 -588,985.5 L -588,997.625 C -587.99691,997.99206 -587.79299,998.32793 -587.46875,998.5 L -581.40625,1001.7188 C -580.91436,1001.9777 -580.30573,1001.7888 -580.04685,1001.2969 C -579.78797,1000.805 -579.97686,1000.1964 -580.46875,999.9375 L -586,997.03125 L -586,985.5 C -585.99256,985.19214 -586.12736,984.89803 -586.36543,984.70269 C -586.60349,984.50735 -586.91827,984.43258 -587.21875,984.5 z M -569.21875,992.875 C -569.68438,992.97928 -570.01149,993.39798 -570,993.875 L -570,1004.4375 L -571.65625,1003.6562 C -571.98185,1003.493 -572.37044,1003.5197 -572.67067,1003.7259 C -572.97089,1003.9321 -573.13526,1004.2852 -573.09977,1004.6477 C -573.06427,1005.0102 -572.83452,1005.3247 -572.5,1005.4688 L -569.40625,1006.9062 C -569.09814,1007.0431 -568.74176,1007.0156 -568.45834,1006.833 C -568.17491,1006.6503 -568.0026,1006.3372 -568,1006 L -568,993.875 C -567.99256,993.56714 -568.12736,993.27303 -568.36543,993.07769 C -568.60349,992.88235 -568.91827,992.80758 -569.21875,992.875 z"
       id="path15770"
       style="fill:#bebebe;fill-opacity:1;stroke:none;stroke-width:2;stroke-linecap:round;stroke-linejoin:round;marker:none;stroke-miterlimit:4;stroke-dasharray:none;stroke-dashoffset:0;stroke-opacity:1;visibility:visible;display:inline;overflow:visible;enable-background:accumulate" />
    <path
       d="M -578.59375,994.1875 C -578.83279,994.23311 -579.00429,994.44418 -579,994.6875 L -579,1006.5 C -579.00255,1006.6803 -578.90781,1006.848 -578.75206,1006.9389 C -578.59631,1007.0298 -578.40369,1007.0298 -578.24794,1006.9389 C -578.09219,1006.848 -577.99745,1006.6803 -578,1006.5 L -578,994.6875 C -577.99734,994.53693 -578.06268,994.39319 -578.17787,994.29618 C -578.29306,994.19918 -578.44583,994.15926 -578.59375,994.1875 z"
       id="path15772"
       style="fill:#8ae234;fill-opacity:1;stroke:none;stroke-width:1;stroke-linecap:round;stroke-linejoin:round;marker:none;stroke-miterlimit:4;stroke-dasharray:none;stroke-dashoffset:0;stroke-opacity:1;visibility:visible;display:inline;overflow:visible;enable-background:accumulate" />
    <path
       d="M -576.59375,995.125 C -576.83279,995.17061 -577.00429,995.38168 -577,995.625 L -577,1006.5 C -577.00255,1006.6803 -576.90781,1006.848 -576.75206,1006.9389 C -576.59631,1007.0298 -576.40369,1007.0298 -576.24794,1006.9389 C -576.09219,1006.848 -575.99745,1006.6803 -576,1006.5 L -576,995.625 C -575.99734,995.47443 -576.06268,995.33069 -576.17787,995.23368 C -576.29306,995.13668 -576.44583,995.09676 -576.59375,995.125 z"
       id="path15774"
       style="fill:#f57900;fill-opacity:1;stroke:none;stroke-width:1;stroke-linecap:round;stroke-linejoin:round;marker:none;stroke-miterlimit:4;stroke-dasharray:none;stroke-dashoffset:0;stroke-opacity:1;visibility:visible;display:inline;overflow:visible;enable-background:accumulate" />
    <path
       d="M -574.59375,996 C -574.83279,996.04561 -575.00429,996.25668 -575,996.5 L -575,1006.5 C -575.00255,1006.6803 -574.90781,1006.848 -574.75206,1006.9389 C -574.59631,1007.0298 -574.40369,1007.0298 -574.24794,1006.9389 C -574.09219,1006.848 -573.99745,1006.6803 -574,1006.5 L -574,996.5 C -573.99734,996.34943 -574.06268,996.20569 -574.17787,996.10868 C -574.29306,996.01168 -574.44583,995.97176 -574.59375,996 z"
       id="path15776"
       style="fill:#3465a4;fill-opacity:1;stroke:none;stroke-width:1;stroke-linecap:round;stroke-linejoin:round;marker:none;stroke-miterlimit:4;stroke-dasharray:none;stroke-dashoffset:0;stroke-opacity:1;visibility:visible;display:inline;overflow:visible;enable-background:accumulate" />
  </g>
  <g
     transform="translate(592,-984)"
     id="layer4" />
  <g
     transform="translate(592,-984)"
     id="layer12" />
  <g
     transform="translate(592,-984)"
     id="layer9" />
  <g
     transform="translate(592,-984)"
     id="layer10" />
  <g
     transform="translate(592,-984)"
     id="layer6" />
</svg>
