<?xml version="1.0" encoding="UTF-8" standalone="no"?>
<!-- Created with Inkscape (http://www.inkscape.org/) -->
<svg
   xmlns:svg="http://www.w3.org/2000/svg"
   xmlns="http://www.w3.org/2000/svg"
   version="1.0"
   width="24"
   height="24"
   id="svg7384">
  <title
     id="title9167">Moblin Icon Theme</title>
  <defs
     id="defs7386" />
  <g
     transform="translate(566,-928)"
     id="layer3" />
  <g
     transform="translate(566,-928)"
     id="layer5" />
  <g
     transform="translate(566,-928)"
     id="layer7" />
  <g
     transform="translate(566,-928)"
     id="layer2" />
  <g
     transform="translate(566,-928)"
     id="layer8" />
  <g
     transform="translate(566,-1880.3622)"
     id="layer1" />
  <g
     transform="translate(566,-928)"
     id="layer11">
    <rect
       width="24"
       height="24"
       x="-566"
       y="928"
       id="rect7615-9"
       style="opacity:0;fill:#ffffff;fill-opacity:1;stroke:none;display:inline" />
    <path
       d="M -560.75,930 C -562.53899,930 -564.00002,931.46098 -564,933.25 L -564,946.75 C -564,948.539 -562.53899,950.00001 -560.75,950 L -547.25,950 C -546.35913,950 -545.52612,949.64745 -544.9375,949.0625 C -544.54055,948.66555 -544.54055,948.02195 -544.9375,947.625 C -545.33445,947.22805 -545.97805,947.22805 -546.375,947.625 C -546.60277,947.85135 -546.89367,948 -547.25,948 L -560.75,948 C -561.46556,948.00001 -562,947.46558 -562,946.75 L -562,933.25 C -562.00001,932.53437 -561.46559,932 -560.75,932 L -547.25,932 C -546.53442,932.00001 -546,932.53439 -546,933.25 L -546,935.875 C -546.0051,936.23564 -545.81562,936.57108 -545.50413,936.75289 C -545.19263,936.93469 -544.80737,936.93469 -544.49587,936.75289 C -544.18438,936.57108 -543.9949,936.23564 -544,935.875 L -544,933.25 C -544,931.46099 -545.46102,930.00001 -547.25,930 L -560.75,930 z"
       id="rect7633-3"
       style="fill:#bebebe;fill-opacity:1;stroke:none;stroke-width:2;stroke-linecap:round;stroke-linejoin:round;marker:none;stroke-miterlimit:4;stroke-dashoffset:0;stroke-opacity:1;visibility:visible;display:inline;overflow:visible;enable-background:accumulate" />
    <rect
       width="18"
       height="3.0000026"
       rx="0"
       ry="0"
       x="-562.99994"
       y="931"
       id="rect7635-7"
       style="fill:#bebebe;fill-opacity:1;stroke:none;stroke-width:1;marker:none;visibility:visible;display:inline;overflow:visible;enable-background:accumulate" />
    <path
       d="M -555.125,935.4375 C -555.45736,935.48146 -555.76541,935.63549 -556,935.875 L -560.03125,939.90625 L -561.0625,940.96875 L -560.03125,942.03125 L -556,946.0625 C -555.4132,946.6493 -554.4618,946.6493 -553.875,946.0625 C -553.2882,945.4757 -553.2882,944.5243 -553.875,943.9375 L -556.84375,940.96875 L -553.875,938 C -553.40965,937.54831 -553.28724,936.84872 -553.57157,936.26586 C -553.85589,935.68299 -554.48257,935.34881 -555.125,935.4375 L -555.125,935.4375 z"
       id="path8317"
       style="fill:#bebebe;fill-opacity:1;stroke:none;stroke-width:3;stroke-linecap:round;marker:none;stroke-miterlimit:4;stroke-dasharray:none;stroke-opacity:1;visibility:visible;display:inline;overflow:visible;enable-background:accumulate" />
    <path
       d="M -556.96875,940.09375 C -557.52103,940.11964 -557.94776,940.58834 -557.92187,941.14062 C -557.89599,941.69291 -557.42728,942.11964 -556.875,942.09375 L -548.125,942.09375 C -547.14732,942.09375 -546.15625,942.84085 -546.15625,944.0625 C -546.16135,944.42314 -545.97187,944.75858 -545.66038,944.94039 C -545.34888,945.12219 -544.96362,945.12219 -544.65212,944.94039 C -544.34063,944.75858 -544.15115,944.42314 -544.15625,944.0625 C -544.15625,941.74419 -546.09228,940.09375 -548.125,940.09375 L -556.875,940.09375 C -556.90623,940.09228 -556.93752,940.09228 -556.96875,940.09375 z"
       id="path8332"
       style="fill:#bebebe;fill-opacity:1;stroke:none;stroke-width:2;stroke-linecap:round;stroke-linejoin:round;marker:none;stroke-miterlimit:4;stroke-dasharray:none;stroke-dashoffset:0;stroke-opacity:1;visibility:visible;display:inline;overflow:visible;enable-background:accumulate" />
  </g>
  <g
     transform="translate(566,-928)"
     id="layer4" />
  <g
     transform="translate(566,-928)"
     id="layer12" />
  <g
     transform="translate(566,-928)"
     id="layer9" />
  <g
     transform="translate(566,-928)"
     id="layer10" />
  <g
     transform="translate(566,-928)"
     id="layer6" />
</svg>
