<?xml version="1.0" encoding="UTF-8" standalone="no"?>
<!-- Created with Inkscape (http://www.inkscape.org/) -->
<svg
   xmlns:svg="http://www.w3.org/2000/svg"
   xmlns="http://www.w3.org/2000/svg"
   version="1.0"
   width="24.010799"
   height="24.115843"
   id="svg7384">
  <title
     id="title9167">Moblin Icon Theme</title>
  <defs
     id="defs7386" />
  <g
     transform="translate(565.99995,-928.00003)"
     id="layer3" />
  <g
     transform="translate(565.99995,-928.00003)"
     id="layer5" />
  <g
     transform="translate(565.99995,-928.00003)"
     id="layer7" />
  <g
     transform="translate(565.99995,-928.00003)"
     id="layer2" />
  <g
     transform="translate(565.99995,-928.00003)"
     id="layer8" />
  <g
     transform="translate(565.99995,-1880.3622)"
     id="layer1" />
  <g
     transform="translate(565.99995,-928.00003)"
     id="layer11">
    <rect
       width="24"
       height="24"
       x="-565.98914"
       y="928.11584"
       id="rect7615-9"
       style="opacity:0;fill:#ffffff;fill-opacity:1;stroke:none;display:inline" />
    <path
       d="M -562.75,928 C -564.53899,928 -566.00002,929.46099 -566,931.25 L -566,944.75 C -566,946.539 -564.53899,948 -562.75,948 L -549.25,948 C -548.35913,948 -547.52612,947.64744 -546.9375,947.0625 C -546.54055,946.66555 -546.54055,946.02195 -546.9375,945.625 C -547.33445,945.22805 -547.97805,945.22805 -548.375,945.625 C -548.60277,945.85134 -548.89367,946 -549.25,946 L -562.75,946 C -563.46557,946 -564,945.46558 -564,944.75 L -564,931.25 C -564.00001,930.5344 -563.46559,930 -562.75,930 L -549.25,930 C -548.53441,930.00002 -548,930.5344 -548,931.25 L -548,933.875 C -548.0051,934.23564 -547.81562,934.57108 -547.50413,934.75289 C -547.19263,934.93469 -546.80737,934.93469 -546.49587,934.75289 C -546.18438,934.57108 -545.9949,934.23564 -546,933.875 L -546,931.25 C -546,929.461 -547.46102,928.00004 -549.25,928 L -562.75,928 z"
       id="rect7633-3"
       style="fill:#bebebe;fill-opacity:1;stroke:none;stroke-width:2;stroke-linecap:round;stroke-linejoin:round;marker:none;stroke-miterlimit:4;stroke-dashoffset:0;stroke-opacity:1;visibility:visible;display:inline;overflow:visible;enable-background:accumulate" />
    <rect
       width="18"
       height="3.0000026"
       rx="0"
       ry="0"
       x="-564.99994"
       y="929"
       id="rect7635-7"
       style="fill:#bebebe;fill-opacity:1;stroke:none;stroke-width:1;marker:none;visibility:visible;display:inline;overflow:visible;enable-background:accumulate" />
    <path
       d="M -557.125,933.4375 C -557.45736,933.48146 -557.76541,933.63549 -558,933.875 L -562.03125,937.90625 L -563.0625,938.96875 L -562.03125,940.03125 L -558,944.0625 C -557.4132,944.6493 -556.4618,944.6493 -555.875,944.0625 C -555.2882,943.4757 -555.2882,942.5243 -555.875,941.9375 L -558.84375,938.96875 L -555.875,936 C -555.40965,935.54831 -555.28724,934.84872 -555.57157,934.26586 C -555.85589,933.68299 -556.48257,933.34881 -557.125,933.4375 z"
       id="path8317"
       style="fill:#bebebe;fill-opacity:1;stroke:none;stroke-width:3;stroke-linecap:round;marker:none;stroke-miterlimit:4;stroke-dasharray:none;stroke-opacity:1;visibility:visible;display:inline;overflow:visible;enable-background:accumulate" />
    <path
       d="M -558.96875,938.09375 C -559.52103,938.11964 -559.94776,938.58834 -559.92187,939.14062 C -559.89599,939.69291 -559.42728,940.11964 -558.875,940.09375 L -550.125,940.09375 C -549.14732,940.09375 -548.15625,940.84085 -548.15625,942.0625 C -548.16135,942.42314 -547.97187,942.75858 -547.66038,942.94039 C -547.34888,943.12219 -546.96362,943.12219 -546.65212,942.94039 C -546.34063,942.75858 -546.15115,942.42314 -546.15625,942.0625 C -546.15625,939.74419 -548.09228,938.09375 -550.125,938.09375 L -558.875,938.09375 C -558.90623,938.09228 -558.93752,938.09228 -558.96875,938.09375 z"
       id="path8332"
       style="fill:#bebebe;fill-opacity:1;stroke:none;stroke-width:2;stroke-linecap:round;stroke-linejoin:round;marker:none;stroke-miterlimit:4;stroke-dasharray:none;stroke-dashoffset:0;stroke-opacity:1;visibility:visible;display:inline;overflow:visible;enable-background:accumulate" />
  </g>
  <g
     transform="translate(565.99995,-928.00003)"
     id="layer4" />
  <g
     transform="translate(565.99995,-928.00003)"
     id="layer12" />
  <g
     transform="translate(565.99995,-928.00003)"
     id="layer9" />
  <g
     transform="translate(565.99995,-928.00003)"
     id="layer10" />
  <g
     transform="translate(565.99995,-928.00003)"
     id="layer6" />
</svg>
