<?xml version="1.0" encoding="UTF-8" standalone="no"?>
<!-- Created with Inkscape (http://www.inkscape.org/) -->
<svg
   xmlns:svg="http://www.w3.org/2000/svg"
   xmlns="http://www.w3.org/2000/svg"
   version="1.0"
   width="24.010799"
   height="24.115843"
   id="svg7384">
  <title
     id="title9167">Moblin Icon Theme</title>
  <defs
     id="defs7386" />
  <g
     transform="translate(566,-978.00003)"
     id="layer3" />
  <g
     transform="translate(566,-978.00003)"
     id="layer5" />
  <g
     transform="translate(566,-978.00003)"
     id="layer7" />
  <g
     transform="translate(566,-978.00003)"
     id="layer2" />
  <g
     transform="translate(566,-978.00003)"
     id="layer8" />
  <g
     transform="translate(566,-1930.3622)"
     id="layer1" />
  <g
     transform="translate(566,-978.00003)"
     id="layer11">
    <rect
       width="24"
       height="24"
       x="-565.9892"
       y="978.11584"
       id="rect7615-9"
       style="opacity:0;fill:#ffffff;fill-opacity:1;stroke:none;display:inline" />
    <path
       d="M -562.75,978 C -564.53899,978 -566,979.46099 -566,981.25 L -566,994.75 C -566,996.539 -564.53898,998 -562.75,998 L -549.25,998 C -548.35913,998 -547.52611,997.64744 -546.9375,997.0625 C -546.54055,996.66555 -546.54055,996.02195 -546.9375,995.625 C -547.33445,995.22805 -547.97805,995.22805 -548.375,995.625 C -548.60276,995.85134 -548.89365,996 -549.25,996 L -562.75,996 C -563.46555,996 -564,995.46558 -564,994.75 L -564,981.25 C -564,980.53439 -563.46559,980 -562.75,980 L -549.25,980 C -548.53439,980.00002 -548,980.5344 -548,981.25 L -548,983.875 C -548.0051,984.23564 -547.81562,984.57108 -547.50413,984.75289 C -547.19263,984.93469 -546.80737,984.93469 -546.49587,984.75289 C -546.18438,984.57108 -545.9949,984.23564 -546,983.875 L -546,981.25 C -546,979.461 -547.46102,978.00004 -549.25,978 L -562.75,978 z"
       id="rect7633-3"
       style="fill:#bebebe;fill-opacity:1;stroke:none;stroke-width:2;stroke-linecap:round;stroke-linejoin:round;marker:none;stroke-miterlimit:4;stroke-dashoffset:0;stroke-opacity:1;visibility:visible;display:inline;overflow:visible;enable-background:accumulate" />
    <rect
       width="18"
       height="3.0000026"
       rx="0"
       ry="0"
       x="-565"
       y="979"
       id="rect7635-7"
       style="fill:#bebebe;fill-opacity:1;stroke:none;stroke-width:1;marker:none;visibility:visible;display:inline;overflow:visible;enable-background:accumulate" />
    <path
       d="M -557.125,983.4375 C -557.45736,983.48146 -557.76541,983.63549 -558,983.875 L -562.03125,987.90625 L -563.0625,988.96875 L -562.03125,990.03125 L -558,994.0625 C -557.4132,994.6493 -556.4618,994.6493 -555.875,994.0625 C -555.2882,993.4757 -555.2882,992.5243 -555.875,991.9375 L -558.84375,988.96875 L -555.875,986 C -555.40965,985.54831 -555.28724,984.84872 -555.57157,984.26586 C -555.85589,983.68299 -556.48257,983.34881 -557.125,983.4375 z"
       id="path8317"
       style="fill:#bebebe;fill-opacity:1;fill-rule:nonzero;stroke:none;stroke-width:3;stroke-linecap:round;marker:none;stroke-miterlimit:4;stroke-dasharray:none;stroke-opacity:1;visibility:visible;display:inline;overflow:visible;enable-background:accumulate" />
    <path
       d="M -558.96875,988.09375 C -559.52103,988.11964 -559.94776,988.58834 -559.92187,989.14062 C -559.89599,989.69291 -559.42728,990.11964 -558.875,990.09375 L -550.125,990.09375 C -549.1473,990.09375 -548.15625,990.84085 -548.15625,992.0625 C -548.16135,992.42314 -547.97187,992.75858 -547.66038,992.94039 C -547.34888,993.12219 -546.96362,993.12219 -546.65212,992.94039 C -546.34063,992.75858 -546.15115,992.42314 -546.15625,992.0625 C -546.15625,989.74419 -548.09228,988.09375 -550.125,988.09375 L -558.875,988.09375 C -558.90623,988.09228 -558.93752,988.09228 -558.96875,988.09375 z"
       id="path8332"
       style="fill:#bebebe;fill-opacity:1;stroke:none;stroke-width:2;stroke-linecap:round;stroke-linejoin:round;marker:none;stroke-miterlimit:4;stroke-dasharray:none;stroke-dashoffset:0;stroke-opacity:1;visibility:visible;display:inline;overflow:visible;enable-background:accumulate" />
  </g>
  <g
     transform="translate(566,-978.00003)"
     id="layer4" />
  <g
     transform="translate(566,-978.00003)"
     id="layer9" />
  <g
     transform="translate(566,-978.00003)"
     id="layer10" />
  <g
     transform="translate(566,-978.00003)"
     id="layer6" />
</svg>
