<?xml version="1.0" encoding="UTF-8" standalone="no"?>
<!-- Created with Inkscape (http://www.inkscape.org/) -->
<svg
   xmlns:svg="http://www.w3.org/2000/svg"
   xmlns="http://www.w3.org/2000/svg"
   version="1.0"
   width="24.359768"
   height="24"
   id="svg7384">
  <title
     id="title9167">Moblin Icon Theme</title>
  <defs
     id="defs7386" />
  <g
     transform="translate(538.35975,-950)"
     id="layer3" />
  <g
     transform="translate(538.35975,-950)"
     id="layer5" />
  <g
     transform="translate(538.35975,-950)"
     id="layer7" />
  <g
     transform="translate(538.35975,-950)"
     id="layer2" />
  <g
     transform="translate(538.35975,-950)"
     id="layer8" />
  <g
     transform="translate(538.35975,-1902.3622)"
     id="layer1" />
  <g
     transform="translate(538.35975,-950)"
     id="layer11">
    <rect
       width="24"
       height="24"
       x="514"
       y="950"
       transform="scale(-1,1)"
       id="rect7665"
       style="opacity:0;fill:#ffffff;fill-opacity:1;stroke:none;display:inline" />
    <path
       d="M -523.625,962 L -525.25,962.125 L -525.09375,962.375 L -526.375,962.8125 L -525.25,963.9375 L -523.65625,965.53125 L -524.4375,966.3125 L -526.03125,964.71875 L -527.15625,963.59375 L -527.6875,965.09375 C -528.26805,966.7268 -527.89037,968.61076 -526.59375,969.90625 C -525.32748,971.17159 -523.53844,971.33132 -521.9375,970.8125 L -519.5,973.25 C -518.70932,974.04002 -517.38441,974.04006 -516.59375,973.25 C -515.81253,972.46934 -515.81251,971.15565 -516.59375,970.375 L -519.09375,967.90625 C -518.63022,966.33104 -518.82529,964.58005 -520.0625,963.34375 C -521.03467,962.37248 -522.34604,961.91689 -523.625,962 z M -521.8125,964.65625 C -521.70946,964.73311 -521.56346,964.68663 -521.46875,964.78125 C -520.6251,965.62428 -520.47035,966.88293 -521,967.875 L -521.34375,968.5 L -522,968.90625 C -523.00853,969.49205 -524.31669,969.37017 -525.1875,968.5 C -525.30327,968.38433 -525.31654,968.22244 -525.40625,968.09375 C -524.80606,968.61626 -523.91526,968.63392 -523.34375,968.0625 L -521.875,966.59375 C -521.34647,966.06566 -521.37414,965.24269 -521.8125,964.65625 z M -520.6875,969.15625 L -520.59375,969.21875 L -518.03125,971.8125 C -517.99969,971.84403 -517.99966,971.81219 -518.03125,971.84375 C -518.05339,971.86587 -518.04037,971.86586 -518.0625,971.84375 L -520.625,969.28125 L -520.6875,969.15625 z"
       id="path7667"
       style="fill:#bebebe;fill-opacity:1;stroke:none;stroke-width:2.00000048;stroke-linecap:round;stroke-linejoin:miter;marker:none;stroke-miterlimit:4;stroke-dasharray:none;stroke-dashoffset:0;stroke-opacity:1;visibility:visible;display:inline;overflow:visible;enable-background:accumulate" />
    <path
       d="M -532.0625,950.18765 C -532.4785,950.20655 -532.8394,950.48031 -532.9688,950.87515 L -534.0625,953.9689 L -537.3125,954.0002 C -537.7565,953.97994 -538.1607,954.25394 -538.3052,954.67311 C -538.4498,955.09227 -538.3,955.55631 -537.9375,955.8127 L -535.2813,957.7502 L -536.2813,960.8752 C -536.4001,961.27512 -536.2573,961.70657 -535.923,961.95725 C -535.5888,962.20794 -535.1335,962.22506 -534.7813,962.0002 L -532.0625,960.09395 L -529.4063,962.03145 C -529.0539,962.28085 -528.5808,962.27666 -528.2329,962.02106 C -527.885,961.76545 -527.7407,961.31609 -527.875,960.90645 L -528.8438,957.78145 L -526.1875,955.84395 C -525.861,955.58699 -525.7277,955.15546 -525.8526,954.75978 C -525.9776,954.36409 -526.3348,954.08664 -526.75,954.0627 L -530.0625,954.0002 L -531.0938,950.8752 C -531.2306,950.45896 -531.6234,950.18021 -532.0625,950.1877 L -532.0625,950.18765 z M -532.0315,951.18765 L -530.7815,955.00015 L -526.7815,955.03145 L -530.0002,957.40645 L -528.8127,961.21895 L -532.0627,958.8752 L -535.344,961.1877 L -534.1252,957.3752 L -537.3127,955.0002 L -533.3127,954.9689 L -532.0315,951.18765 z"
       id="path7669"
       style="font-size:medium;font-style:normal;font-variant:normal;font-weight:normal;font-stretch:normal;text-indent:0;text-align:start;text-decoration:none;line-height:normal;letter-spacing:normal;word-spacing:normal;text-transform:none;direction:ltr;block-progression:tb;writing-mode:lr-tb;text-anchor:start;fill:#bebebe;fill-opacity:1;stroke:none;stroke-width:3.06062818;marker:none;visibility:visible;display:inline;overflow:visible;enable-background:accumulate;font-family:Bitstream Vera Sans;-inkscape-font-specification:Bitstream Vera Sans" />
    <path
       d="M -520.1898,950.15064 C -519.655,949.98855 -519.5002,950.64014 -519.2211,950.83819 L -518.1898,953.96319 L -514.8773,954.02569 C -514.0722,954.07209 -513.6817,955.30874 -514.3148,955.80694 L -516.9711,957.74444 L -516.0023,960.86944 C -515.7425,961.66179 -516.8519,962.47685 -517.5336,961.99444 L -520.1898,960.05694 L -520.19,958.83819 L -516.94,961.18194 L -518.1275,957.36944 L -514.9088,954.99444 L -518.9088,954.96314 L -520.1588,951.15064"
       id="path14944"
       style="font-size:medium;font-style:normal;font-variant:normal;font-weight:normal;font-stretch:normal;text-indent:0;text-align:start;text-decoration:none;line-height:normal;letter-spacing:normal;word-spacing:normal;text-transform:none;direction:ltr;block-progression:tb;writing-mode:lr-tb;text-anchor:start;fill:#bebebe;fill-opacity:1;stroke:none;stroke-width:3.06062818;marker:none;visibility:visible;display:inline;overflow:visible;enable-background:accumulate;font-family:Bitstream Vera Sans;-inkscape-font-specification:Bitstream Vera Sans" />
    <path
       d="M -526.1898,950.15064 C -525.655,949.98855 -525.5002,950.64014 -525.2211,950.83819 L -524.1898,953.96319 L -520.8773,954.02569 C -520.0722,954.07209 -519.6817,955.30874 -520.3148,955.80694 L -522.9711,957.74444 L -522.0023,960.86944 C -521.7425,961.66179 -522.8519,962.47685 -523.5336,961.99444 L -526.1898,960.05694 L -526.19,958.83819 L -522.94,961.18194 L -524.1275,957.36944 L -520.9088,954.99444 L -524.9088,954.96314 L -526.1588,951.15064"
       id="path14946"
       style="font-size:medium;font-style:normal;font-variant:normal;font-weight:normal;font-stretch:normal;text-indent:0;text-align:start;text-decoration:none;line-height:normal;letter-spacing:normal;word-spacing:normal;text-transform:none;direction:ltr;block-progression:tb;writing-mode:lr-tb;text-anchor:start;fill:#bebebe;fill-opacity:1;stroke:none;stroke-width:3.06062818;marker:none;visibility:visible;display:inline;overflow:visible;enable-background:accumulate;font-family:Bitstream Vera Sans;-inkscape-font-specification:Bitstream Vera Sans" />
  </g>
  <g
     transform="translate(538.35975,-950)"
     id="layer4" />
  <g
     transform="translate(538.35975,-950)"
     id="layer9" />
  <g
     transform="translate(538.35975,-950)"
     id="layer10" />
  <g
     transform="translate(538.35975,-950)"
     id="layer6" />
</svg>
