<?xml version="1.0" encoding="UTF-8" standalone="no"?>
<!-- Created with Inkscape (http://www.inkscape.org/) -->
<svg
   xmlns:svg="http://www.w3.org/2000/svg"
   xmlns="http://www.w3.org/2000/svg"
   version="1.0"
   width="24.135303"
   height="24.021931"
   id="svg7384">
  <title
     id="title9167">Moblin Icon Theme</title>
  <defs
     id="defs7386" />
  <g
     transform="translate(538.13528,-949.97807)"
     id="layer3" />
  <g
     transform="translate(538.13528,-949.97807)"
     id="layer5" />
  <g
     transform="translate(538.13528,-949.97807)"
     id="layer7" />
  <g
     transform="translate(538.13528,-949.97807)"
     id="layer2" />
  <g
     transform="translate(538.13528,-949.97807)"
     id="layer8" />
  <g
     transform="translate(538.13528,-1902.3402)"
     id="layer1" />
  <g
     transform="translate(538.13528,-949.97807)"
     id="layer11">
    <rect
       width="24"
       height="24"
       x="514"
       y="950"
       transform="scale(-1,1)"
       id="rect7665"
       style="opacity:0;fill:#ffffff;fill-opacity:1;stroke:none;display:inline" />
    <path
       d="M -523.625,962 L -525.25,962.125 L -525.09375,962.375 L -526.375,962.8125 L -525.25,963.9375 L -523.65625,965.53125 L -524.4375,966.3125 L -526.03125,964.71875 L -527.15625,963.59375 L -527.6875,965.09375 C -528.26805,966.7268 -527.89037,968.61076 -526.59375,969.90625 C -525.32748,971.17159 -523.53844,971.33132 -521.9375,970.8125 L -519.5,973.25 C -518.70932,974.04002 -517.38441,974.04006 -516.59375,973.25 C -515.81253,972.46934 -515.81251,971.15565 -516.59375,970.375 L -519.09375,967.90625 C -518.63022,966.33104 -518.82529,964.58005 -520.0625,963.34375 C -521.03467,962.37248 -522.34604,961.91689 -523.625,962 z M -521.8125,964.65625 C -521.70946,964.73311 -521.56346,964.68663 -521.46875,964.78125 C -520.6251,965.62428 -520.47035,966.88293 -521,967.875 L -521.34375,968.5 L -522,968.90625 C -523.00853,969.49205 -524.31669,969.37017 -525.1875,968.5 C -525.30327,968.38433 -525.31654,968.22244 -525.40625,968.09375 C -524.80606,968.61626 -523.91526,968.63392 -523.34375,968.0625 L -521.875,966.59375 C -521.34647,966.06566 -521.37414,965.24269 -521.8125,964.65625 z M -520.6875,969.15625 L -520.59375,969.21875 L -518.03125,971.8125 C -517.99969,971.84403 -517.99966,971.81219 -518.03125,971.84375 C -518.05339,971.86587 -518.04037,971.86586 -518.0625,971.84375 L -520.625,969.28125 L -520.6875,969.15625 z"
       id="path7667"
       style="fill:#bebebe;fill-opacity:1;stroke:none;stroke-width:2.00000048;stroke-linecap:round;stroke-linejoin:miter;marker:none;stroke-miterlimit:4;stroke-dasharray:none;stroke-dashoffset:0;stroke-opacity:1;visibility:visible;display:inline;overflow:visible;enable-background:accumulate" />
    <path
       d="M -531.8841,949.98031 C -532.29223,950.00025 -532.64721,950.26551 -532.78105,950.65055 L -533.86421,953.76404 L -537.13732,953.78067 C -537.56933,953.77998 -537.95302,954.0557 -538.08911,954.46463 C -538.22519,954.87355 -538.08299,955.32348 -537.73636,955.58073 L -535.10793,957.54657 L -536.10932,960.66219 C -536.23764,961.06929 -536.09242,961.51279 -535.74791,961.76598 C -535.4034,962.01917 -534.93571,962.02609 -534.58393,961.78322 L -531.87529,959.87498 L -529.22536,961.80058 C -528.87654,962.05073 -528.40665,962.05115 -528.0575,961.80161 C -527.70834,961.55208 -527.55771,961.10819 -527.68311,960.69835 L -528.64452,957.55194 L -525.99668,955.62171 C -525.66312,955.36589 -525.52556,954.92932 -525.65239,954.52909 C -525.77922,954.12885 -526.14338,953.85034 -526.56381,953.83204 L -529.87621,953.78645 L -530.89947,950.65882 C -531.04127,950.24046 -531.44165,949.96455 -531.8841,949.98031 z M -531.86952,954.14248 L -531.5464,955.08935 C -531.40886,955.49279 -531.02987,955.76484 -530.60266,955.76679 L -529.60055,955.77253 L -530.41414,956.38373 C -530.75176,956.6366 -530.89403,957.07356 -530.76979,957.47611 L -530.46764,958.44283 L -531.29087,957.85013 C -531.64178,957.60419 -532.1107,957.60837 -532.45703,957.86052 L -533.29054,958.45081 L -532.97895,957.47969 C -532.84681,957.07077 -532.9917,956.62333 -533.33871,956.36866 L -534.14149,955.77649 L -533.13885,955.76184 C -532.7029,955.76485 -532.31516,955.48621 -532.18006,955.07282 L -531.86952,954.14248 z"
       id="path7669"
       style="fill:#bebebe;fill-opacity:1;stroke:none;stroke-width:3.06062818;stroke-linecap:round;stroke-linejoin:round;marker:none;stroke-miterlimit:4;stroke-dasharray:none;stroke-dashoffset:0;stroke-opacity:1;visibility:visible;display:inline;overflow:visible;enable-background:accumulate" />
  </g>
  <g
     transform="translate(538.13528,-949.97807)"
     id="layer4" />
  <g
     transform="translate(538.13528,-949.97807)"
     id="layer9" />
  <g
     transform="translate(538.13528,-949.97807)"
     id="layer10" />
  <g
     transform="translate(538.13528,-949.97807)"
     id="layer6" />
</svg>
