<?xml version="1.0" encoding="UTF-8" standalone="no"?>
<!-- Created with Inkscape (http://www.inkscape.org/) -->
<svg
   xmlns:svg="http://www.w3.org/2000/svg"
   xmlns="http://www.w3.org/2000/svg"
   version="1.0"
   width="24.359768"
   height="24"
   id="svg7384">
  <title
     id="title9167">Moblin Icon Theme</title>
  <defs
     id="defs7386" />
  <g
     transform="translate(538.35975,-900)"
     id="layer3" />
  <g
     transform="translate(538.35975,-900)"
     id="layer5" />
  <g
     transform="translate(538.35975,-900)"
     id="layer7" />
  <g
     transform="translate(538.35975,-900)"
     id="layer2" />
  <g
     transform="translate(538.35975,-900)"
     id="layer8" />
  <g
     transform="translate(538.35975,-1852.3622)"
     id="layer1" />
  <g
     transform="translate(538.35975,-900)"
     id="layer11">
    <rect
       width="24"
       height="24"
       x="514"
       y="900"
       transform="scale(-1,1)"
       id="rect7665"
       style="opacity:0;fill:#ffffff;fill-opacity:1;stroke:none;display:inline" />
    <path
       d="M -523.625,912 L -525.25,912.125 L -525.09375,912.375 L -526.375,912.8125 L -525.25,913.9375 L -523.65625,915.53125 L -524.4375,916.3125 L -526.03125,914.71875 L -527.15625,913.59375 L -527.6875,915.09375 C -528.26805,916.7268 -527.89037,918.61076 -526.59375,919.90625 C -525.32748,921.17159 -523.53844,921.33132 -521.9375,920.8125 L -519.5,923.25 C -518.70932,924.04002 -517.38441,924.04006 -516.59375,923.25 C -515.81253,922.46934 -515.81251,921.15565 -516.59375,920.375 L -519.09375,917.90625 C -518.63022,916.33104 -518.82529,914.58005 -520.0625,913.34375 C -521.03467,912.37248 -522.34604,911.91689 -523.625,912 z M -521.8125,914.65625 C -521.70946,914.73311 -521.56346,914.68663 -521.46875,914.78125 C -520.6251,915.62428 -520.47035,916.88293 -521,917.875 L -521.34375,918.5 L -522,918.90625 C -523.00853,919.49205 -524.31669,919.37017 -525.1875,918.5 C -525.30327,918.38433 -525.31654,918.22244 -525.40625,918.09375 C -524.80606,918.61626 -523.91526,918.63392 -523.34375,918.0625 L -521.875,916.59375 C -521.34647,916.06566 -521.37414,915.24269 -521.8125,914.65625 z M -520.6875,919.15625 L -520.59375,919.21875 L -518.03125,921.8125 C -517.99969,921.84403 -517.99966,921.81219 -518.03125,921.84375 C -518.05339,921.86587 -518.04037,921.86586 -518.0625,921.84375 L -520.625,919.28125 L -520.6875,919.15625 z"
       id="path7667"
       style="fill:#bebebe;fill-opacity:1;stroke:none;stroke-width:2.00000048;stroke-linecap:round;stroke-linejoin:miter;marker:none;stroke-miterlimit:4;stroke-dasharray:none;stroke-dashoffset:0;stroke-opacity:1;visibility:visible;display:inline;overflow:visible;enable-background:accumulate" />
    <path
       d="M -532.0625,900.18765 C -532.4785,900.20655 -532.8394,900.48031 -532.9688,900.87515 L -534.0625,903.9689 L -537.3125,904.0002 C -537.7565,903.97994 -538.1607,904.25394 -538.3052,904.67311 C -538.4498,905.09227 -538.3,905.55631 -537.9375,905.8127 L -535.2813,907.7502 L -536.2813,910.8752 C -536.4001,911.27512 -536.2573,911.70657 -535.923,911.95725 C -535.5888,912.20794 -535.1335,912.22506 -534.7813,912.0002 L -532.0625,910.09395 L -529.4063,912.03145 C -529.0539,912.28085 -528.5808,912.27666 -528.2329,912.02106 C -527.885,911.76545 -527.7407,911.31609 -527.875,910.90645 L -528.8438,907.78145 L -526.1875,905.84395 C -525.861,905.58699 -525.7277,905.15546 -525.8526,904.75978 C -525.9776,904.36409 -526.3348,904.08664 -526.75,904.0627 L -530.0625,904.0002 L -531.0938,900.8752 C -531.2306,900.45896 -531.6234,900.18021 -532.0625,900.1877 L -532.0625,900.18765 z M -532.0315,901.18765 L -530.7815,905.00015 L -526.7815,905.03145 L -530.0002,907.40645 L -528.8127,911.21895 L -532.0627,908.8752 L -535.344,911.1877 L -534.1252,907.3752 L -537.3127,905.0002 L -533.3127,904.9689 L -532.0315,901.18765 z"
       id="path7669"
       style="font-size:medium;font-style:normal;font-variant:normal;font-weight:normal;font-stretch:normal;text-indent:0;text-align:start;text-decoration:none;line-height:normal;letter-spacing:normal;word-spacing:normal;text-transform:none;direction:ltr;block-progression:tb;writing-mode:lr-tb;text-anchor:start;fill:#bebebe;fill-opacity:1;stroke:none;stroke-width:3.06062818;marker:none;visibility:visible;display:inline;overflow:visible;enable-background:accumulate;font-family:Bitstream Vera Sans;-inkscape-font-specification:Bitstream Vera Sans" />
    <path
       d="M -520.1898,900.15064 C -519.655,899.98855 -519.5002,900.64014 -519.2211,900.83819 L -518.1898,903.96319 L -514.8773,904.02569 C -514.0722,904.07209 -513.6817,905.30874 -514.3148,905.80694 L -516.9711,907.74444 L -516.0023,910.86944 C -515.7425,911.66179 -516.8519,912.47685 -517.5336,911.99444 L -520.1898,910.05694 L -520.19,908.83819 L -516.94,911.18194 L -518.1275,907.36944 L -514.9088,904.99444 L -518.9088,904.96314 L -520.1588,901.15064"
       id="path14944"
       style="font-size:medium;font-style:normal;font-variant:normal;font-weight:normal;font-stretch:normal;text-indent:0;text-align:start;text-decoration:none;line-height:normal;letter-spacing:normal;word-spacing:normal;text-transform:none;direction:ltr;block-progression:tb;writing-mode:lr-tb;text-anchor:start;fill:#bebebe;fill-opacity:1;stroke:none;stroke-width:3.06062818;marker:none;visibility:visible;display:inline;overflow:visible;enable-background:accumulate;font-family:Bitstream Vera Sans;-inkscape-font-specification:Bitstream Vera Sans" />
    <path
       d="M -526.1898,900.15064 C -525.655,899.98855 -525.5002,900.64014 -525.2211,900.83819 L -524.1898,903.96319 L -520.8773,904.02569 C -520.0722,904.07209 -519.6817,905.30874 -520.3148,905.80694 L -522.9711,907.74444 L -522.0023,910.86944 C -521.7425,911.66179 -522.8519,912.47685 -523.5336,911.99444 L -526.1898,910.05694 L -526.19,908.83819 L -522.94,911.18194 L -524.1275,907.36944 L -520.9088,904.99444 L -524.9088,904.96314 L -526.1588,901.15064"
       id="path14946"
       style="font-size:medium;font-style:normal;font-variant:normal;font-weight:normal;font-stretch:normal;text-indent:0;text-align:start;text-decoration:none;line-height:normal;letter-spacing:normal;word-spacing:normal;text-transform:none;direction:ltr;block-progression:tb;writing-mode:lr-tb;text-anchor:start;fill:#bebebe;fill-opacity:1;stroke:none;stroke-width:3.06062818;marker:none;visibility:visible;display:inline;overflow:visible;enable-background:accumulate;font-family:Bitstream Vera Sans;-inkscape-font-specification:Bitstream Vera Sans" />
  </g>
  <g
     transform="translate(538.35975,-900)"
     id="layer4" />
  <g
     transform="translate(538.35975,-900)"
     id="layer12" />
  <g
     transform="translate(538.35975,-900)"
     id="layer9" />
  <g
     transform="translate(538.35975,-900)"
     id="layer10" />
  <g
     transform="translate(538.35975,-900)"
     id="layer6" />
</svg>
