<?xml version="1.0" encoding="UTF-8" standalone="no"?>
<!-- Created with Inkscape (http://www.inkscape.org/) -->
<svg
   xmlns:svg="http://www.w3.org/2000/svg"
   xmlns="http://www.w3.org/2000/svg"
   version="1.0"
   width="24"
   height="24"
   id="svg7384">
  <title
     id="title9167">Moblin Icon Theme</title>
  <defs
     id="defs7386" />
  <g
     transform="translate(538,-1316)"
     id="layer3" />
  <g
     transform="translate(538,-1316)"
     id="layer5" />
  <g
     transform="translate(538,-1316)"
     id="layer7" />
  <g
     transform="translate(538,-1316)"
     id="layer2" />
  <g
     transform="translate(538,-1316)"
     id="layer8" />
  <g
     transform="translate(538,-2268.3622)"
     id="layer1" />
  <g
     transform="translate(538,-1316)"
     id="layer11">
    <rect
       width="24"
       height="24"
       x="-538"
       y="1316"
       id="rect9060"
       style="opacity:0;fill:#ffffff;fill-opacity:1;stroke:none;display:inline" />
    <path
       d="M -534.15625,1318.0312 C -534.67225,1318.089 -535.1204,1318.3435 -535.4375,1318.6875 C -536.0717,1319.3755 -536.24155,1320.5994 -535.53125,1321.5 L -535.5,1321.5312 L -535.46875,1321.5312 L -526.25,1331.9062 L -525.15625,1333.1562 L -524.5625,1331.625 C -524.17708,1330.6247 -523.08042,1329.4004 -522.3125,1329.0312 L -520.90625,1328.3438 L -522.09375,1327.375 L -532.65625,1318.5 C -533.07745,1318.1174 -533.64025,1317.9735 -534.15625,1318.0312 z M -533.9375,1320.0312 L -524.34375,1328.125 C -524.85524,1328.5559 -525.28027,1329.0229 -525.65625,1329.5938 L -533.9375,1320.25 C -534.07157,1320.08 -533.9921,1320.0905 -533.9375,1320.0312 z"
       id="path9071"
       style="fill:#bebebe;fill-opacity:1;stroke:none;stroke-width:2;stroke-linecap:round;stroke-linejoin:miter;marker:none;stroke-miterlimit:4.30000019;stroke-dasharray:none;stroke-dashoffset:0;stroke-opacity:1;visibility:visible;display:inline;overflow:visible;enable-background:accumulate" />
    <path
       d="M -519.93751,1330 C -522.14662,1330 -523.93747,1331.7909 -523.93747,1334 C -523.93747,1336.2091 -522.14662,1337.9999 -519.93751,1337.9999 C -518.2319,1337.9999 -518.65439,1337.9999 -519.88743,1337.9999 L -514,1337.9999 L -516.58745,1331.8 L -516.63753,1331.7504 C -516.84264,1331.4467 -517.05903,1331.1867 -517.33753,1330.9504 C -517.38441,1330.9104 -517.43881,1330.888 -517.48745,1330.8496 C -518.16347,1330.3275 -519.01703,1330 -519.93751,1330 z"
       id="path9073"
       style="fill:#bebebe;fill-opacity:1;fill-rule:nonzero;stroke:none;stroke-width:1;marker:none;visibility:visible;display:inline;overflow:visible;enable-background:accumulate" />
  </g>
  <g
     transform="translate(538,-1316)"
     id="layer4" />
  <g
     transform="translate(538,-1316)"
     id="layer12" />
  <g
     transform="translate(538,-1316)"
     id="layer9" />
  <g
     transform="translate(538,-1316)"
     id="layer10" />
  <g
     transform="translate(538,-1316)"
     id="layer6" />
</svg>
