<?xml version="1.0" encoding="UTF-8" standalone="no"?>
<!-- Created with Inkscape (http://www.inkscape.org/) -->
<svg
   xmlns:svg="http://www.w3.org/2000/svg"
   xmlns="http://www.w3.org/2000/svg"
   version="1.0"
   width="24.066111"
   height="24.05806"
   id="svg7384">
  <title
     id="title9167">Moblin Icon Theme</title>
  <defs
     id="defs7386" />
  <g
     transform="translate(454.05805,-1213.9419)"
     id="layer3" />
  <g
     transform="translate(454.05805,-1213.9419)"
     id="layer5" />
  <g
     transform="translate(454.05805,-1213.9419)"
     id="layer7" />
  <g
     transform="translate(454.05805,-1213.9419)"
     id="layer2" />
  <g
     transform="translate(454.05805,-1213.9419)"
     id="layer8" />
  <g
     transform="translate(454.05805,-2166.3041)"
     id="layer1" />
  <g
     transform="translate(454.05805,-1213.9419)"
     id="layer11">
    <rect
       width="24"
       height="24"
       x="429.99194"
       y="1214"
       transform="scale(-1,1)"
       id="rect10503"
       style="opacity:0;fill:#ffffff;fill-opacity:1;stroke:none;display:inline" />
    <path
       d="M -447.78125,1213.9375 C -451.23487,1213.9375 -454.0625,1216.7651 -454.0625,1220.2188 C -454.06251,1222.056 -453.17034,1223.6323 -451.90625,1224.7812 C -451.94995,1225.1517 -452.03125,1225.5166 -452.03125,1225.9062 C -452.03125,1231.4479 -447.5104,1235.9688 -441.96875,1235.9688 C -441.57943,1235.9687 -441.21378,1235.9186 -440.84375,1235.875 C -439.69511,1237.1324 -438.11292,1238 -436.28125,1238 C -432.82764,1238 -430,1235.1724 -430,1231.7188 C -430,1229.934 -430.82776,1228.3961 -432.03125,1227.25 C -431.97145,1226.8141 -431.90625,1226.3645 -431.90625,1225.9062 C -431.90625,1220.3646 -436.42708,1215.875 -441.96875,1215.875 C -442.41676,1215.875 -442.85373,1215.9425 -443.28125,1216 C -444.42814,1214.7877 -445.98897,1213.9375 -447.78125,1213.9375 z M -447.78125,1215.9375 C -446.39192,1215.9375 -445.15558,1216.6076 -444.375,1217.625 L -444,1218.0938 L -443.40625,1218 C -442.93377,1217.9144 -442.45495,1217.875 -441.96875,1217.875 C -437.50638,1217.875 -433.90625,1221.4439 -433.90625,1225.9062 C -433.90625,1226.3919 -433.97707,1226.8701 -434.0625,1227.3438 L -434.15625,1227.9375 L -433.6875,1228.3125 C -432.67007,1229.093 -432,1230.3294 -432,1231.7188 C -432,1234.0915 -433.90852,1236 -436.28125,1236 C -437.69977,1236 -438.93992,1235.3085 -439.71875,1234.25 L -440.09375,1233.75 L -440.6875,1233.8438 C -441.11344,1233.9117 -441.53994,1233.9687 -441.96875,1233.9688 C -446.4311,1233.9688 -450.03125,1230.3686 -450.03125,1225.9062 C -450.03125,1225.4773 -449.97424,1225.0508 -449.90625,1224.625 L -449.8125,1224.0312 L -450.3125,1223.6562 C -451.37088,1222.8776 -452.0625,1221.6372 -452.0625,1220.2188 C -452.0625,1217.846 -450.15399,1215.9375 -447.78125,1215.9375 z"
       id="path10527"
       style="fill:#bebebe;fill-opacity:1;stroke:none;stroke-width:2;stroke-linecap:round;stroke-linejoin:miter;marker:none;stroke-miterlimit:4;stroke-dasharray:none;stroke-dashoffset:0;stroke-opacity:1;visibility:visible;display:inline;overflow:visible;enable-background:accumulate" />
    <g
       transform="matrix(0.5425609,0,0,0.5425609,-206.87297,565.46749)"
       id="text10534"
       style="font-size:40px;font-style:normal;font-variant:normal;font-weight:bold;font-stretch:normal;text-align:start;line-height:125%;writing-mode:lr-tb;text-anchor:start;fill:#bebebe;fill-opacity:1;stroke:none;font-family:Arial Rounded CE;-inkscape-font-specification:Arial Rounded CE Bold">
      <path
         d="M -423.96442,1221.4393 C -423.96444,1222.9107 -424.32251,1224.1737 -425.03864,1225.2284 C -425.7548,1226.2701 -426.816,1227.0643 -428.22223,1227.6112 C -429.61547,1228.1451 -431.31469,1228.412 -433.31989,1228.412 C -435.23396,1228.412 -436.87458,1228.119 -438.24176,1227.5331 C -439.60895,1226.9471 -440.61807,1226.218 -441.2691,1225.3456 C -441.92015,1224.4602 -442.24567,1223.5748 -442.24567,1222.6893 C -442.24567,1222.1034 -442.03734,1221.6021 -441.62067,1221.1854 C -441.204,1220.7688 -440.67666,1220.5604 -440.03864,1220.5604 C -439.47874,1220.5604 -439.04906,1220.6972 -438.74957,1220.9706 C -438.4501,1221.244 -438.16364,1221.6281 -437.8902,1222.1229 C -437.34333,1223.0735 -436.69229,1223.7831 -435.93707,1224.2518 C -435.16885,1224.7206 -434.12719,1224.955 -432.81207,1224.955 C -431.74438,1224.955 -430.87198,1224.7206 -430.19489,1224.2518 C -429.5048,1223.7701 -429.15974,1223.2232 -429.15973,1222.6112 C -429.15974,1221.6737 -429.51782,1220.9901 -430.23395,1220.5604 C -430.93709,1220.1307 -432.10245,1219.7206 -433.73004,1219.33 C -435.56599,1218.8742 -437.06338,1218.399 -438.22223,1217.9042 C -439.36807,1217.3964 -440.28603,1216.7323 -440.97614,1215.912 C -441.66624,1215.0917 -442.01129,1214.0826 -442.01129,1212.8846 C -442.01129,1211.817 -441.69228,1210.8078 -441.05426,1209.8573 C -440.41624,1208.9068 -439.47874,1208.1516 -438.24176,1207.5917 C -436.99177,1207.0188 -435.48786,1206.7323 -433.73004,1206.7323 C -432.34984,1206.7323 -431.11287,1206.8756 -430.0191,1207.162 C -428.91235,1207.4485 -427.99438,1207.8326 -427.2652,1208.3143 C -426.52303,1208.7961 -425.96313,1209.33 -425.58551,1209.9159 C -425.1949,1210.5018 -424.99959,1211.0748 -424.99957,1211.6346 C -424.99959,1212.2466 -425.20792,1212.7479 -425.62457,1213.1385 C -426.02824,1213.5292 -426.60766,1213.7245 -427.36285,1213.7245 C -427.90974,1213.7245 -428.37849,1213.5683 -428.7691,1213.2557 C -429.14672,1212.9433 -429.58292,1212.4745 -430.0777,1211.8495 C -430.48136,1211.3287 -430.95662,1210.912 -431.50348,1210.5995 C -432.05037,1210.287 -432.79255,1210.1308 -433.73004,1210.1307 C -434.69359,1210.1308 -435.49437,1210.3391 -436.13239,1210.7557 C -436.77041,1211.1594 -437.08942,1211.6672 -437.08942,1212.2792 C -437.08942,1212.8391 -436.85505,1213.3013 -436.38629,1213.6659 C -435.91755,1214.0175 -435.28604,1214.3104 -434.49176,1214.5448 C -433.6975,1214.7792 -432.60375,1215.0656 -431.21051,1215.4042 C -429.55688,1215.8078 -428.20922,1216.2896 -427.16754,1216.8495 C -426.11287,1217.4094 -425.3186,1218.0735 -424.78473,1218.8417 C -424.23787,1219.5969 -423.96444,1220.4628 -423.96442,1221.4393"
         id="path10539"
         style="fill:#bebebe;fill-opacity:1" />
    </g>
  </g>
  <g
     transform="translate(454.05805,-1213.9419)"
     id="layer4" />
  <g
     transform="translate(454.05805,-1213.9419)"
     id="layer9" />
  <g
     transform="translate(454.05805,-1213.9419)"
     id="layer10" />
  <g
     transform="translate(454.05805,-1213.9419)"
     id="layer6" />
</svg>
