<?xml version="1.0" encoding="UTF-8" standalone="no"?>
<!-- Created with Inkscape (http://www.inkscape.org/) -->
<svg
   xmlns:svg="http://www.w3.org/2000/svg"
   xmlns="http://www.w3.org/2000/svg"
   version="1.0"
   width="24.01041"
   height="24.062599"
   id="svg7384">
  <title
     id="title9167">Moblin Icon Theme</title>
  <defs
     id="defs7386" />
  <g
     transform="translate(510.01036,-1074)"
     id="layer3" />
  <g
     transform="translate(510.01036,-1074)"
     id="layer5" />
  <g
     transform="translate(510.01036,-1074)"
     id="layer7" />
  <g
     transform="translate(510.01036,-1074)"
     id="layer2" />
  <g
     transform="translate(510.01036,-1074)"
     id="layer8" />
  <g
     transform="translate(510.01036,-2026.3622)"
     id="layer1" />
  <g
     transform="translate(510.01036,-1074)"
     id="layer11">
    <rect
       width="24"
       height="24"
       x="485.99994"
       y="1074"
       transform="scale(-1,1)"
       id="rect8929"
       style="opacity:0;fill:#f5f5f5;fill-opacity:1;stroke:none;display:inline" />
    <path
       d="M -504,1086 L -504,1087 L -504,1090 L -508.9375,1090.0312 L -509.9375,1090.0312 L -509.9375,1091.0312 L -509.9375,1097.0625 L -509.9375,1098.0625 L -508.9375,1098.0625 L -503.125,1098.0625 L -494.84375,1098.0625 L -488.9375,1098.0625 L -487.9375,1098.0625 L -487.9375,1097.0625 L -487.9375,1091.0312 L -487.9375,1090.0312 L -488.9375,1090.0312 L -494,1090 L -494,1087 L -494,1086 L -495,1086 L -503,1086 L -504,1086 z M -502,1088 L -496,1088 L -496,1091 L -496,1092 L -495,1092 L -489.9375,1092.0312 L -489.9375,1096.0625 L -494.84375,1096.0625 L -503.125,1096.0625 L -507.9375,1096.0625 L -507.9375,1092.0312 L -503,1092 L -502,1092 L -502,1091 L -502,1088 z"
       id="rect9026"
       style="fill:#bebebe;fill-opacity:1;stroke:none;stroke-width:2;stroke-linecap:round;stroke-linejoin:miter;marker:none;stroke-miterlimit:4;stroke-dasharray:none;stroke-dashoffset:0;stroke-opacity:1;visibility:visible;display:inline;overflow:visible;enable-background:new" />
    <g
       transform="translate(5e-5,-50)"
       id="g9089">
      <path
         d="M -497.09606,1130.1219 A 2.9610097,2.9610097 0 1 1 -503.01808,1130.1219 A 2.9610097,2.9610097 0 1 1 -497.09606,1130.1219 z"
         transform="translate(1.0960581,-2.1609385)"
         id="path9081"
         style="fill:none;stroke:#bebebe;stroke-width:2;stroke-linecap:round;stroke-linejoin:miter;marker:none;stroke-miterlimit:4;stroke-dasharray:none;stroke-dashoffset:0;stroke-opacity:1;visibility:visible;display:inline;overflow:visible;enable-background:new" />
      <path
         d="M -502.86654,1129.3394 A 2.9610097,2.4778702 0 0 1 -497.26441,1129.2983"
         transform="matrix(1.3377226,0,0,1.4229844,169.97665,-473.61898)"
         id="path9083"
         style="fill:none;stroke:#bebebe;stroke-width:1.44959569;stroke-linecap:round;stroke-linejoin:miter;marker:none;stroke-miterlimit:4;stroke-dasharray:none;stroke-dashoffset:0;stroke-opacity:1;visibility:visible;display:inline;overflow:visible;enable-background:new" />
    </g>
    <g
       transform="translate(6.94707,-46)"
       id="g9095">
      <path
         d="M -497.09606,1130.1219 A 2.9610097,2.9610097 0 1 1 -503.01808,1130.1219 A 2.9610097,2.9610097 0 1 1 -497.09606,1130.1219 z"
         transform="translate(1.0960581,-2.1609385)"
         id="path9097"
         style="fill:none;stroke:#bebebe;stroke-width:2;stroke-linecap:round;stroke-linejoin:miter;marker:none;stroke-miterlimit:4;stroke-dasharray:none;stroke-dashoffset:0;stroke-opacity:1;visibility:visible;display:inline;overflow:visible;enable-background:new" />
      <path
         d="M -500.05707,1127.1609 A 2.9610097,2.9610097 0 0 1 -497.09606,1130.1219"
         transform="translate(1.0960581,3.792042)"
         id="path9099"
         style="fill:none;stroke:#bebebe;stroke-width:2;stroke-linecap:round;stroke-linejoin:miter;marker:none;stroke-miterlimit:4;stroke-dasharray:none;stroke-dashoffset:0;stroke-opacity:1;visibility:visible;display:inline;overflow:visible;enable-background:new" />
      <path
         d="M -495.94702,1133.816 L -495.94702,1136.8212"
         id="path9103"
         style="fill:none;stroke:#bebebe;stroke-width:2;stroke-linecap:round;stroke-linejoin:miter;marker:none;stroke-miterlimit:4;stroke-dasharray:none;stroke-dashoffset:0;stroke-opacity:1;visibility:visible;display:inline;overflow:visible;enable-background:new" />
    </g>
    <g
       transform="translate(-7.05293,-46)"
       id="g9106">
      <path
         d="M -497.09606,1130.1219 A 2.9610097,2.9610097 0 1 1 -503.01808,1130.1219 A 2.9610097,2.9610097 0 1 1 -497.09606,1130.1219 z"
         transform="translate(1.0960581,-2.1609385)"
         id="path9108"
         style="fill:none;stroke:#bebebe;stroke-width:2;stroke-linecap:round;stroke-linejoin:miter;marker:none;stroke-miterlimit:4;stroke-dasharray:none;stroke-dashoffset:0;stroke-opacity:1;visibility:visible;display:inline;overflow:visible;enable-background:new" />
      <path
         d="M -503.01808,1130.1219 A 2.9610097,2.9610097 0 0 1 -500.03055,1127.1611"
         transform="translate(1.0960581,3.667042)"
         id="path9110"
         style="fill:none;stroke:#bebebe;stroke-width:2;stroke-linecap:round;stroke-linejoin:miter;marker:none;stroke-miterlimit:4;stroke-dasharray:none;stroke-dashoffset:0;stroke-opacity:1;visibility:visible;display:inline;overflow:visible;enable-background:new" />
      <path
         d="M -501.95743,1133.9669 L -501.95743,1136.9721"
         id="path9112"
         style="fill:none;stroke:#bebebe;stroke-width:2;stroke-linecap:round;stroke-linejoin:miter;marker:none;stroke-miterlimit:4;stroke-dasharray:none;stroke-dashoffset:0;stroke-opacity:1;visibility:visible;display:inline;overflow:visible;enable-background:new" />
    </g>
  </g>
  <g
     transform="translate(510.01036,-1074)"
     id="layer4" />
  <g
     transform="translate(510.01036,-1074)"
     id="layer12" />
  <g
     transform="translate(510.01036,-1074)"
     id="layer9" />
  <g
     transform="translate(510.01036,-1074)"
     id="layer10" />
  <g
     transform="translate(510.01036,-1074)"
     id="layer6" />
</svg>
