<?xml version="1.0" encoding="UTF-8" standalone="no"?>
<!-- Created with Inkscape (http://www.inkscape.org/) -->
<svg
   xmlns:svg="http://www.w3.org/2000/svg"
   xmlns="http://www.w3.org/2000/svg"
   version="1.0"
   width="24.01041"
   height="24.0625"
   id="svg7384">
  <title
     id="title9167">Moblin Icon Theme</title>
  <defs
     id="defs7386" />
  <g
     transform="translate(510.01041,-1124)"
     id="layer3" />
  <g
     transform="translate(510.01041,-1124)"
     id="layer5" />
  <g
     transform="translate(510.01041,-1124)"
     id="layer7" />
  <g
     transform="translate(510.01041,-1124)"
     id="layer2" />
  <g
     transform="translate(510.01041,-1124)"
     id="layer8" />
  <g
     transform="translate(510.01041,-2076.3622)"
     id="layer1" />
  <g
     transform="translate(510.01041,-1124)"
     id="layer11">
    <rect
       width="24"
       height="24"
       x="486"
       y="1124"
       transform="scale(-1,1)"
       id="rect8929"
       style="opacity:0;fill:#f5f5f5;fill-opacity:1;stroke:none;display:inline" />
    <path
       d="M -504.125,1136.125 L -504.125,1137.125 L -504.125,1140.0312 L -508.9375,1140.0312 L -509.9375,1140.0312 L -509.9375,1141.0312 L -509.9375,1147.0625 L -509.9375,1148.0625 L -508.9375,1148.0625 L -503.125,1148.0625 L -494.84375,1148.0625 L -488.9375,1148.0625 L -487.9375,1148.0625 L -487.9375,1147.0625 L -487.9375,1141.0312 L -487.9375,1140.0312 L -488.9375,1140.0312 L -493.84375,1140.0312 L -493.84375,1137.125 L -493.84375,1136.125 L -494.84375,1136.125 L -503.125,1136.125 L -504.125,1136.125 z M -502.125,1138.125 L -495.84375,1138.125 L -495.84375,1141.0312 L -495.84375,1142.0312 L -494.84375,1142.0312 L -489.9375,1142.0312 L -489.9375,1146.0625 L -494.84375,1146.0625 L -503.125,1146.0625 L -507.9375,1146.0625 L -507.9375,1142.0312 L -503.125,1142.0312 L -502.125,1142.0312 L -502.125,1141.0312 L -502.125,1138.125 z"
       id="rect9026"
       style="fill:#bebebe;fill-opacity:1;fill-rule:nonzero;stroke:none;stroke-width:2;stroke-linecap:round;stroke-linejoin:miter;marker:none;stroke-miterlimit:4;stroke-dasharray:none;stroke-dashoffset:0;stroke-opacity:1;visibility:visible;display:inline;overflow:visible;enable-background:new" />
    <g
       id="g9089">
      <path
         d="M -497.09606,1130.1219 A 2.9610097,2.9610097 0 1 1 -503.01808,1130.1219 A 2.9610097,2.9610097 0 1 1 -497.09606,1130.1219 z"
         transform="translate(1.0960581,-2.1609385)"
         id="path9081"
         style="fill:none;stroke:#bebebe;stroke-width:2;stroke-linecap:round;stroke-linejoin:miter;marker:none;stroke-miterlimit:4;stroke-dasharray:none;stroke-dashoffset:0;stroke-opacity:1;visibility:visible;display:inline;overflow:visible;enable-background:new" />
      <path
         d="M -503.01808,1130.1219 A 2.9610097,2.9610097 0 0 1 -497.09606,1130.1219"
         transform="translate(1.0960581,3.917042)"
         id="path9083"
         style="fill:none;stroke:#bebebe;stroke-width:2;stroke-linecap:round;stroke-linejoin:miter;marker:none;stroke-miterlimit:4;stroke-dasharray:none;stroke-dashoffset:0;stroke-opacity:1;visibility:visible;display:inline;overflow:visible;enable-background:new" />
      <path
         d="M -501.95743,1133.9669 L -501.95743,1136.9721"
         id="path9085"
         style="fill:none;stroke:#bebebe;stroke-width:2;stroke-linecap:round;stroke-linejoin:miter;marker:none;stroke-miterlimit:4;stroke-dasharray:none;stroke-dashoffset:0;stroke-opacity:1;visibility:visible;display:inline;overflow:visible;enable-background:new" />
      <path
         d="M -495.94702,1133.8785 L -495.94702,1136.8837"
         id="path9087"
         style="fill:none;stroke:#bebebe;stroke-width:2;stroke-linecap:round;stroke-linejoin:miter;marker:none;stroke-miterlimit:4;stroke-dasharray:none;stroke-dashoffset:0;stroke-opacity:1;visibility:visible;display:inline;overflow:visible;enable-background:new" />
    </g>
    <g
       transform="translate(6.94702,4)"
       id="g9095">
      <path
         d="M -497.09606,1130.1219 A 2.9610097,2.9610097 0 1 1 -503.01808,1130.1219 A 2.9610097,2.9610097 0 1 1 -497.09606,1130.1219 z"
         transform="translate(1.0960581,-2.1609385)"
         id="path9097"
         style="fill:none;stroke:#bebebe;stroke-width:2;stroke-linecap:round;stroke-linejoin:miter;marker:none;stroke-miterlimit:4;stroke-dasharray:none;stroke-dashoffset:0;stroke-opacity:1;visibility:visible;display:inline;overflow:visible;enable-background:new" />
      <path
         d="M -503.01808,1130.1219 A 2.9610097,2.9610097 0 0 1 -497.09606,1130.1219"
         transform="translate(1.0960581,3.917042)"
         id="path9099"
         style="fill:none;stroke:#bebebe;stroke-width:2;stroke-linecap:round;stroke-linejoin:miter;marker:none;stroke-miterlimit:4;stroke-dasharray:none;stroke-dashoffset:0;stroke-opacity:1;visibility:visible;display:inline;overflow:visible;enable-background:new" />
      <path
         d="M -501.95743,1133.9669 L -501.95743,1136.9721"
         id="path9101"
         style="fill:none;stroke:#bebebe;stroke-width:2;stroke-linecap:round;stroke-linejoin:miter;marker:none;stroke-miterlimit:4;stroke-dasharray:none;stroke-dashoffset:0;stroke-opacity:1;visibility:visible;display:inline;overflow:visible;enable-background:new" />
      <path
         d="M -495.94702,1133.8785 L -495.94702,1136.8837"
         id="path9103"
         style="fill:none;stroke:#bebebe;stroke-width:2;stroke-linecap:round;stroke-linejoin:miter;marker:none;stroke-miterlimit:4;stroke-dasharray:none;stroke-dashoffset:0;stroke-opacity:1;visibility:visible;display:inline;overflow:visible;enable-background:new" />
    </g>
    <g
       transform="translate(-7.05298,4)"
       id="g9106">
      <path
         d="M -497.09606,1130.1219 A 2.9610097,2.9610097 0 1 1 -503.01808,1130.1219 A 2.9610097,2.9610097 0 1 1 -497.09606,1130.1219 z"
         transform="translate(1.0960581,-2.1609385)"
         id="path9108"
         style="fill:none;stroke:#bebebe;stroke-width:2;stroke-linecap:round;stroke-linejoin:miter;marker:none;stroke-miterlimit:4;stroke-dasharray:none;stroke-dashoffset:0;stroke-opacity:1;visibility:visible;display:inline;overflow:visible;enable-background:new" />
      <path
         d="M -503.01808,1130.1219 A 2.9610097,2.9610097 0 0 1 -497.09606,1130.1219"
         transform="translate(1.0960581,3.917042)"
         id="path9110"
         style="fill:none;stroke:#bebebe;stroke-width:2;stroke-linecap:round;stroke-linejoin:miter;marker:none;stroke-miterlimit:4;stroke-dasharray:none;stroke-dashoffset:0;stroke-opacity:1;visibility:visible;display:inline;overflow:visible;enable-background:new" />
      <path
         d="M -501.95743,1133.9669 L -501.95743,1136.9721"
         id="path9112"
         style="fill:none;stroke:#bebebe;stroke-width:2;stroke-linecap:round;stroke-linejoin:miter;marker:none;stroke-miterlimit:4;stroke-dasharray:none;stroke-dashoffset:0;stroke-opacity:1;visibility:visible;display:inline;overflow:visible;enable-background:new" />
      <path
         d="M -495.94702,1133.8785 L -495.94702,1136.8837"
         id="path9114"
         style="fill:none;stroke:#bebebe;stroke-width:2;stroke-linecap:round;stroke-linejoin:miter;marker:none;stroke-miterlimit:4;stroke-dasharray:none;stroke-dashoffset:0;stroke-opacity:1;visibility:visible;display:inline;overflow:visible;enable-background:new" />
    </g>
  </g>
  <g
     transform="translate(510.01041,-1124)"
     id="layer4" />
  <g
     transform="translate(510.01041,-1124)"
     id="layer9" />
  <g
     transform="translate(510.01041,-1124)"
     id="layer10" />
  <g
     transform="translate(510.01041,-1124)"
     id="layer6" />
</svg>
