<?xml version="1.0" encoding="UTF-8" standalone="no"?>
<!-- Created with Inkscape (http://www.inkscape.org/) -->
<svg
   xmlns:svg="http://www.w3.org/2000/svg"
   xmlns="http://www.w3.org/2000/svg"
   version="1.0"
   width="24.000002"
   height="24"
   id="svg7384">
  <title
     id="title9167">Moblin Icon Theme</title>
  <defs
     id="defs7386" />
  <g
     transform="translate(196,-562)"
     id="layer3" />
  <g
     transform="translate(196,-562)"
     id="layer5" />
  <g
     transform="translate(196,-562)"
     id="layer7" />
  <g
     transform="translate(196,-562)"
     id="layer2" />
  <g
     transform="translate(196,-562)"
     id="layer8" />
  <g
     transform="translate(196,-1514.3622)"
     id="layer1" />
  <g
     transform="translate(196,-562)"
     id="layer11">
    <rect
       width="24"
       height="24"
       x="172"
       y="562"
       transform="scale(-1,1)"
       id="rect7554-0-0"
       style="opacity:0;fill:none;stroke:none;display:inline" />
    <path
       d="M -191.01,576.00191 C -193.75907,576.00191 -196.00993,578.25278 -196.00993,581.00184 C -196.00993,583.75091 -193.75907,586.00177 -191.01,586.00177 C -188.26094,586.00177 -186.01007,583.75091 -186.01007,581.00184 C -186.01007,578.25278 -188.26094,576.00191 -191.01,576.00191 z M -191.01,577.99142 C -189.34307,577.99142 -187.99957,579.33491 -187.99957,581.00184 C -187.99957,582.66878 -189.34307,584.01227 -191.01,584.01227 C -192.67694,584.01227 -193.99425,582.66878 -193.99425,581.00184 C -193.99425,579.33491 -192.67694,577.99142 -191.01,577.99142 z"
       id="path3609-3"
       style="fill:#bebebe;fill-opacity:1;stroke:none;stroke-width:2.38753414;stroke-linecap:round;stroke-miterlimit:4;stroke-dasharray:none;stroke-opacity:1;display:inline" />
    <path
       d="M -183.03125,566.96875 C -183.39188,566.96365 -183.72733,567.15313 -183.90913,567.46462 C -184.09094,567.77612 -184.09094,568.16138 -183.90913,568.47288 C -183.72733,568.78437 -183.39188,568.97385 -183.03125,568.96875 L -173.03125,568.96875 C -172.67062,568.97385 -172.33517,568.78437 -172.15337,568.47288 C -171.97156,568.16138 -171.97156,567.77612 -172.15337,567.46462 C -172.33517,567.15313 -172.67062,566.96365 -173.03125,566.96875 L -183.03125,566.96875 z"
       id="path11169-2"
       style="fill:#bebebe;fill-opacity:1;stroke:none;stroke-width:1.99999988;stroke-linecap:round;stroke-linejoin:miter;marker:none;stroke-miterlimit:4;stroke-dasharray:none;stroke-dashoffset:0;stroke-opacity:1;visibility:visible;display:inline;overflow:visible;enable-background:accumulate" />
    <path
       d="M -183.03125,570.96875 C -183.39188,570.96365 -183.72733,571.15313 -183.90913,571.46462 C -184.09094,571.77612 -184.09094,572.16138 -183.90913,572.47288 C -183.72733,572.78437 -183.39188,572.97385 -183.03125,572.96875 L -173.03125,572.96875 C -172.67062,572.97385 -172.33517,572.78437 -172.15337,572.47288 C -171.97156,572.16138 -171.97156,571.77612 -172.15337,571.46462 C -172.33517,571.15313 -172.67062,570.96365 -173.03125,570.96875 L -183.03125,570.96875 z"
       id="path11192-4"
       style="fill:#bebebe;fill-opacity:1;stroke:none;stroke-width:1.99999988;stroke-linecap:round;stroke-linejoin:miter;marker:none;stroke-miterlimit:4;stroke-dasharray:none;stroke-dashoffset:0;stroke-opacity:1;visibility:visible;display:inline;overflow:visible;enable-background:accumulate" />
    <path
       d="M -183.03125,574.96875 C -183.39188,574.96365 -183.72733,575.15313 -183.90913,575.46462 C -184.09094,575.77612 -184.09094,576.16138 -183.90913,576.47288 C -183.72733,576.78437 -183.39188,576.97385 -183.03125,576.96875 L -173.03125,576.96875 C -172.67062,576.97385 -172.33517,576.78437 -172.15337,576.47288 C -171.97156,576.16138 -171.97156,575.77612 -172.15337,575.46462 C -172.33517,575.15313 -172.67062,574.96365 -173.03125,574.96875 L -183.03125,574.96875 z"
       id="path11194-7"
       style="fill:#bebebe;fill-opacity:1;stroke:none;stroke-width:1.99999988;stroke-linecap:round;stroke-linejoin:miter;marker:none;stroke-miterlimit:4;stroke-dasharray:none;stroke-dashoffset:0;stroke-opacity:1;visibility:visible;display:inline;overflow:visible;enable-background:accumulate" />
    <path
       d="M -183.03125,578.96875 C -183.39188,578.96365 -183.72733,579.15313 -183.90913,579.46462 C -184.09094,579.77612 -184.09094,580.16138 -183.90913,580.47288 C -183.72733,580.78437 -183.39188,580.97385 -183.03125,580.96875 L -173.03125,580.96875 C -172.67062,580.97385 -172.33517,580.78437 -172.15337,580.47288 C -171.97156,580.16138 -171.97156,579.77612 -172.15337,579.46462 C -172.33517,579.15313 -172.67062,578.96365 -173.03125,578.96875 L -183.03125,578.96875 z"
       id="path11196-5"
       style="fill:#bebebe;fill-opacity:1;stroke:none;stroke-width:1.99999988;stroke-linecap:round;stroke-linejoin:miter;marker:none;stroke-miterlimit:4;stroke-dasharray:none;stroke-dashoffset:0;stroke-opacity:1;visibility:visible;display:inline;overflow:visible;enable-background:accumulate" />
    <path
       d="M -187.09375,566 C -187.62133,566.04939 -188.01881,566.5017 -188,567.03125 L -188,581.03125 C -188.0051,581.39189 -187.81562,581.72733 -187.50413,581.90914 C -187.19263,582.09094 -186.80737,582.09094 -186.49587,581.90914 C -186.18438,581.72733 -185.9949,581.39189 -186,581.03125 L -186,567.03125 C -185.98975,566.74358 -186.10395,566.46545 -186.31338,566.26798 C -186.52282,566.07052 -186.80718,565.97286 -187.09375,566 z"
       id="path10932"
       style="fill:#bebebe;fill-opacity:1;stroke:none;stroke-width:2;stroke-linecap:round;stroke-linejoin:miter;marker:none;stroke-miterlimit:4;stroke-dasharray:none;stroke-dashoffset:0;stroke-opacity:1;visibility:visible;display:inline;overflow:visible;enable-background:accumulate" />
  </g>
  <g
     transform="translate(196,-562)"
     id="layer4" />
  <g
     transform="translate(196,-562)"
     id="layer9" />
  <g
     transform="translate(196,-562)"
     id="layer10" />
  <g
     transform="translate(196,-562)"
     id="layer6" />
</svg>
