<?xml version="1.0" encoding="UTF-8" standalone="no"?>
<!-- Created with Inkscape (http://www.inkscape.org/) -->
<svg
   xmlns:svg="http://www.w3.org/2000/svg"
   xmlns="http://www.w3.org/2000/svg"
   version="1.0"
   width="24"
   height="24.0625"
   id="svg7384">
  <title
     id="title9167">Moblin Icon Theme</title>
  <defs
     id="defs7386" />
  <g
     transform="translate(454,-1284)"
     id="layer3" />
  <g
     transform="translate(454,-1284)"
     id="layer5" />
  <g
     transform="translate(454,-1284)"
     id="layer7" />
  <g
     transform="translate(454,-1284)"
     id="layer2" />
  <g
     transform="translate(454,-1284)"
     id="layer8" />
  <g
     transform="translate(454,-2236.3622)"
     id="layer1" />
  <g
     transform="translate(454,-1284)"
     id="layer11">
    <g
       transform="translate(4.967468,977)"
       id="use8384">
      <title
         id="title12627">office</title>
      <rect
         width="24"
         height="24"
         x="434.96747"
         y="307.00006"
         transform="scale(-1,1)"
         id="rect12629"
         style="opacity:0;fill:#ffffff;fill-opacity:1;stroke:none;display:inline" />
      <path
         d="M -438,321.125 L -438,330.0625 L -456,330.0625 L -455.9477,311.10641 L -454.83817,311.11541 M -439.20621,311.0141 L -438,311 L -438,312"
         id="path12631"
         style="fill:none;stroke:#bebebe;stroke-width:2;stroke-linecap:round;stroke-linejoin:round;marker:none;stroke-miterlimit:4;stroke-dasharray:none;stroke-dashoffset:0;stroke-opacity:1;visibility:visible;display:inline;overflow:visible;enable-background:accumulate" />
      <path
         d="M -450.00001,308 L -444,308 L -444,311 L -442,312.67205 L -442,314 L -451.9346,314 L -451.9346,312.64379 L -450,311 L -450.00001,308 z"
         id="path12633"
         style="fill:none;stroke:#bebebe;stroke-width:2;stroke-linecap:round;stroke-linejoin:round;marker:none;stroke-miterlimit:4;stroke-dasharray:none;stroke-dashoffset:0;stroke-opacity:1;visibility:visible;display:inline;overflow:visible;enable-background:accumulate" />
      <path
         d="M -452.44389,316.53499 L -452.44389,326.56706 L -449.50188,326.56706"
         id="path12635"
         style="fill:none;stroke:#bebebe;stroke-width:1px;stroke-linecap:round;stroke-linejoin:miter;stroke-opacity:1" />
      <path
         d="M -447.96747,322 L -445.96747,324 L -436.02997,314.0625"
         id="path12637"
         style="fill:none;stroke:#bebebe;stroke-width:2;stroke-linecap:round;stroke-linejoin:miter;marker:none;stroke-miterlimit:4;stroke-dasharray:none;stroke-dashoffset:0;stroke-opacity:1;visibility:visible;display:inline;overflow:visible;enable-background:accumulate" />
    </g>
  </g>
  <g
     transform="translate(454,-1284)"
     id="layer4" />
  <g
     transform="translate(454,-1284)"
     id="layer12" />
  <g
     transform="translate(454,-1284)"
     id="layer9" />
  <g
     transform="translate(454,-1284)"
     id="layer10" />
  <g
     transform="translate(454,-1284)"
     id="layer6" />
</svg>
