<?xml version="1.0" encoding="UTF-8" standalone="no"?>
<!-- Created with Inkscape (http://www.inkscape.org/) -->
<svg
   xmlns:svg="http://www.w3.org/2000/svg"
   xmlns="http://www.w3.org/2000/svg"
   version="1.0"
   width="24"
   height="24.081083"
   id="svg7384">
  <title
     id="title9167">Moblin Icon Theme</title>
  <defs
     id="defs7386" />
  <g
     transform="translate(538,-1183.9814)"
     id="layer3" />
  <g
     transform="translate(538,-1183.9814)"
     id="layer5" />
  <g
     transform="translate(538,-1183.9814)"
     id="layer7" />
  <g
     transform="translate(538,-1183.9814)"
     id="layer2" />
  <g
     transform="translate(538,-1183.9814)"
     id="layer8" />
  <g
     transform="translate(538,-2136.3436)"
     id="layer1" />
  <g
     transform="translate(538,-1183.9814)"
     id="layer11">
    <rect
       width="24"
       height="24"
       x="-538"
       y="1183.9814"
       id="rect9868"
       style="opacity:0;fill:#ffffff;fill-opacity:1;stroke:none;display:inline" />
    <path
       d="M -535.0625,1190.0625 C -536.67256,1190.0625 -538,1191.3899 -538,1193 L -538,1205.125 C -538,1206.7351 -536.67256,1208.0625 -535.0625,1208.0625 L -522.9375,1208.0625 C -521.32744,1208.0625 -520,1206.7351 -520,1205.125 L -520,1197.0625 C -519.99034,1196.6508 -520.23405,1196.2752 -520.614,1196.1163 C -520.99396,1195.9575 -521.43246,1196.0478 -521.71875,1196.3438 L -528.65625,1203.2812 C -528.75033,1203.3756 -528.86665,1203.4375 -529,1203.4375 C -529.13316,1203.4375 -529.24962,1203.3757 -529.34375,1203.2812 L -531.34375,1201.2812 L -531.6875,1200.9375 L -531,1200.25 L -530.65625,1200.5938 L -529.71875,1201.5312 C -529.53034,1201.7259 -529.27097,1201.8359 -529,1201.8359 C -528.72903,1201.8359 -528.46966,1201.7259 -528.28125,1201.5312 L -520.28125,1193.5312 C -520.06995,1193.3166 -519.96664,1193.0181 -520,1192.7188 C -520.13854,1191.2224 -521.42309,1190.0625 -522.9375,1190.0625 L -535.0625,1190.0625 z M -535.0625,1192.0625 L -522.9375,1192.0625 C -522.58554,1192.0625 -522.319,1192.266 -522.15625,1192.5312 L -529,1199.375 L -529.21875,1199.1562 L -530.28125,1198.0938 C -530.46966,1197.8991 -530.72903,1197.7891 -531,1197.7891 C -531.27097,1197.7891 -531.53034,1197.8991 -531.71875,1198.0938 L -533.84375,1200.2188 C -534.03846,1200.4072 -534.14839,1200.6666 -534.14839,1200.9375 C -534.14839,1201.2084 -534.03846,1201.4678 -533.84375,1201.6562 L -532.78125,1202.7188 L -530.78125,1204.7188 C -530.31244,1205.1891 -529.66426,1205.4376 -529,1205.4375 C -528.33593,1205.4375 -527.68761,1205.1892 -527.21875,1204.7188 L -522,1199.5 L -522,1205.125 C -522,1205.6617 -522.4008,1206.0625 -522.9375,1206.0625 L -535.0625,1206.0625 C -535.5992,1206.0625 -536,1205.6617 -536,1205.125 L -536,1193 C -536,1192.4633 -535.5992,1192.0625 -535.0625,1192.0625 z"
       id="rect9878"
       style="fill:#bebebe;fill-opacity:1;stroke:none;stroke-width:2;stroke-linecap:round;stroke-linejoin:round;marker:none;stroke-miterlimit:4;stroke-dasharray:none;stroke-dashoffset:0;stroke-opacity:1;visibility:visible;display:inline;overflow:visible;enable-background:accumulate" />
  </g>
  <g
     transform="translate(538,-1183.9814)"
     id="layer4" />
  <g
     transform="translate(538,-1183.9814)"
     id="layer9" />
  <g
     transform="translate(538,-1183.9814)"
     id="layer10" />
  <g
     transform="translate(538,-1183.9814)"
     id="layer6" />
</svg>
