<?xml version="1.0" encoding="UTF-8" standalone="no"?>
<!-- Created with Inkscape (http://www.inkscape.org/) -->
<svg
   xmlns:svg="http://www.w3.org/2000/svg"
   xmlns="http://www.w3.org/2000/svg"
   version="1.0"
   width="24"
   height="24.081083"
   id="svg7384">
  <title
     id="title9167">Moblin Icon Theme</title>
  <defs
     id="defs7386" />
  <g
     transform="translate(538,-1133.9814)"
     id="layer3" />
  <g
     transform="translate(538,-1133.9814)"
     id="layer5" />
  <g
     transform="translate(538,-1133.9814)"
     id="layer7" />
  <g
     transform="translate(538,-1133.9814)"
     id="layer2" />
  <g
     transform="translate(538,-1133.9814)"
     id="layer8" />
  <g
     transform="translate(538,-2086.3436)"
     id="layer1" />
  <g
     transform="translate(538,-1133.9814)"
     id="layer11">
    <rect
       width="24"
       height="24"
       x="-538"
       y="1133.9814"
       id="rect9868"
       style="opacity:0;fill:#ffffff;fill-opacity:1;stroke:none;display:inline" />
    <path
       d="M -535.0625,1140.0625 C -536.67256,1140.0625 -538,1141.3899 -538,1143 L -538,1155.125 C -538,1156.7351 -536.67256,1158.0625 -535.0625,1158.0625 L -522.9375,1158.0625 C -521.32744,1158.0625 -520,1156.7351 -520,1155.125 L -520,1147.0625 C -519.99034,1146.6508 -520.23405,1146.2752 -520.614,1146.1163 C -520.99396,1145.9575 -521.43246,1146.0478 -521.71875,1146.3438 L -528.65625,1153.2812 C -528.75033,1153.3756 -528.86665,1153.4375 -529,1153.4375 C -529.13316,1153.4375 -529.24962,1153.3757 -529.34375,1153.2812 L -531.34375,1151.2812 L -531.6875,1150.9375 L -531,1150.25 L -530.65625,1150.5938 L -529.71875,1151.5312 C -529.53034,1151.7259 -529.27097,1151.8359 -529,1151.8359 C -528.72903,1151.8359 -528.46966,1151.7259 -528.28125,1151.5312 L -520.28125,1143.5312 C -520.06995,1143.3166 -519.96664,1143.0181 -520,1142.7188 C -520.13854,1141.2224 -521.42309,1140.0625 -522.9375,1140.0625 L -535.0625,1140.0625 z M -535.0625,1142.0625 L -522.9375,1142.0625 C -522.58554,1142.0625 -522.319,1142.266 -522.15625,1142.5312 L -529,1149.375 L -529.21875,1149.1562 L -530.28125,1148.0938 C -530.46966,1147.8991 -530.72903,1147.7891 -531,1147.7891 C -531.27097,1147.7891 -531.53034,1147.8991 -531.71875,1148.0938 L -533.84375,1150.2188 C -534.03846,1150.4072 -534.14839,1150.6666 -534.14839,1150.9375 C -534.14839,1151.2084 -534.03846,1151.4678 -533.84375,1151.6562 L -532.78125,1152.7188 L -530.78125,1154.7188 C -530.31244,1155.1891 -529.66426,1155.4376 -529,1155.4375 C -528.33593,1155.4375 -527.68761,1155.1892 -527.21875,1154.7188 L -522,1149.5 L -522,1155.125 C -522,1155.6617 -522.4008,1156.0625 -522.9375,1156.0625 L -535.0625,1156.0625 C -535.5992,1156.0625 -536,1155.6617 -536,1155.125 L -536,1143 C -536,1142.4633 -535.5992,1142.0625 -535.0625,1142.0625 z"
       id="rect9878"
       style="fill:#bebebe;fill-opacity:1;stroke:none;stroke-width:2;stroke-linecap:round;stroke-linejoin:round;marker:none;stroke-miterlimit:4;stroke-dasharray:none;stroke-dashoffset:0;stroke-opacity:1;visibility:visible;display:inline;overflow:visible;enable-background:accumulate" />
  </g>
  <g
     transform="translate(538,-1133.9814)"
     id="layer4" />
  <g
     transform="translate(538,-1133.9814)"
     id="layer12" />
  <g
     transform="translate(538,-1133.9814)"
     id="layer9" />
  <g
     transform="translate(538,-1133.9814)"
     id="layer10" />
  <g
     transform="translate(538,-1133.9814)"
     id="layer6" />
</svg>
