<?xml version="1.0" encoding="UTF-8" standalone="no"?>
<!-- Created with Inkscape (http://www.inkscape.org/) -->
<svg
   xmlns:svg="http://www.w3.org/2000/svg"
   xmlns="http://www.w3.org/2000/svg"
   version="1.0"
   width="24.06249"
   height="24.081032"
   id="svg7384">
  <title
     id="title9167">Moblin Icon Theme</title>
  <defs
     id="defs7386" />
  <g
     transform="translate(538,-1133.9814)"
     id="layer3" />
  <g
     transform="translate(538,-1133.9814)"
     id="layer5" />
  <g
     transform="translate(538,-1133.9814)"
     id="layer7" />
  <g
     transform="translate(538,-1133.9814)"
     id="layer2" />
  <g
     transform="translate(538,-1133.9814)"
     id="layer8" />
  <g
     transform="translate(538,-2086.3436)"
     id="layer1" />
  <g
     transform="translate(538,-1133.9814)"
     id="layer11">
    <rect
       width="24"
       height="24"
       x="-538"
       y="1133.9814"
       id="rect9868"
       style="opacity:0;fill:#ffffff;fill-opacity:1;stroke:none;display:inline" />
    <path
       d="M -534.34375,1134 C -536.36051,1134 -538,1135.6395 -538,1137.6562 L -538,1154.4062 C -537.99996,1156.4231 -536.36053,1158.0625 -534.34375,1158.0625 L -517.59375,1158.0625 C -515.57698,1158.0625 -513.9375,1156.423 -513.9375,1154.4062 L -513.9375,1143.2812 C -513.92784,1142.8695 -514.17155,1142.4939 -514.5515,1142.335 C -514.93146,1142.1762 -515.36996,1142.2665 -515.65625,1142.5625 L -525.21875,1152.125 C -525.41953,1152.3265 -525.68439,1152.4375 -525.96875,1152.4375 C -526.25298,1152.4375 -526.51794,1152.3265 -526.71875,1152.125 L -529.5,1149.375 L -530.25,1148.625 L -528.71875,1147.0938 L -527.96875,1147.8438 L -526.6875,1149.1562 C -526.49909,1149.3509 -526.23972,1149.4609 -525.96875,1149.4609 C -525.69778,1149.4609 -525.43841,1149.3509 -525.25,1149.1562 L -514.21875,1138.125 C -514.00742,1137.9103 -513.90411,1137.6119 -513.9375,1137.3125 C -514.11068,1135.4421 -515.69597,1134 -517.59375,1134 L -534.34375,1134 z M -534.34375,1136 L -517.59375,1136 C -516.8429,1136 -516.31797,1136.5023 -516.09375,1137.1562 L -525.96875,1147.0312 L -526.5625,1146.4375 L -528.03125,1144.9688 C -528.42087,1144.5836 -529.04788,1144.5836 -529.4375,1144.9688 L -532.375,1147.9062 C -532.76022,1148.2958 -532.76022,1148.9229 -532.375,1149.3125 L -530.90625,1150.7812 L -528.15625,1153.5312 C -527.58082,1154.1086 -526.78408,1154.4376 -525.96875,1154.4375 C -525.15353,1154.4375 -524.35671,1154.1086 -523.78125,1153.5312 L -515.9375,1145.6875 L -515.9375,1154.4062 C -515.9375,1155.3497 -516.65036,1156.0625 -517.59375,1156.0625 L -534.34375,1156.0625 C -535.28717,1156.0625 -535.99998,1155.3497 -536,1154.4062 L -536,1137.6562 C -536,1136.7128 -535.28713,1136 -534.34375,1136 z"
       id="rect9878"
       style="fill:#bebebe;fill-opacity:1;stroke:none;stroke-width:1.99999988;stroke-linecap:round;stroke-linejoin:round;marker:none;stroke-miterlimit:4;stroke-dasharray:none;stroke-dashoffset:0;stroke-opacity:1;visibility:visible;display:inline;overflow:visible;enable-background:accumulate" />
  </g>
  <g
     transform="translate(538,-1133.9814)"
     id="layer4" />
  <g
     transform="translate(538,-1133.9814)"
     id="layer12" />
  <g
     transform="translate(538,-1133.9814)"
     id="layer9" />
  <g
     transform="translate(538,-1133.9814)"
     id="layer10" />
  <g
     transform="translate(538,-1133.9814)"
     id="layer6" />
</svg>
