<?xml version="1.0" encoding="UTF-8" standalone="no"?>
<!-- Created with Inkscape (http://www.inkscape.org/) -->
<svg
   xmlns:svg="http://www.w3.org/2000/svg"
   xmlns="http://www.w3.org/2000/svg"
   version="1.0"
   width="24.000547"
   height="24.000547"
   id="svg7384">
  <title
     id="title9167">Moblin Icon Theme</title>
  <defs
     id="defs7386" />
  <g
     transform="translate(592.00055,-1373.9995)"
     id="layer3" />
  <g
     transform="translate(592.00055,-1373.9995)"
     id="layer5" />
  <g
     transform="translate(592.00055,-1373.9995)"
     id="layer7" />
  <g
     transform="translate(592.00055,-1373.9995)"
     id="layer2" />
  <g
     transform="translate(592.00055,-1373.9995)"
     id="layer8" />
  <g
     transform="translate(592.00055,-2326.3616)"
     id="layer1" />
  <g
     transform="translate(592.00055,-1373.9995)"
     id="layer11">
    <rect
       width="24"
       height="24"
       x="-592"
       y="1374"
       id="rect9293"
       style="opacity:0;fill:#ffffff;fill-opacity:1;stroke:none;display:inline" />
    <path
       d="M -581.5,1374.0938 C -583.04288,1374.2839 -584.57197,1374.7693 -586,1375.5938 C -591.71214,1378.8917 -593.70417,1386.2566 -590.40625,1391.9688 C -590.12146,1392.452 -589.49885,1392.6129 -589.0156,1392.3282 C -588.53235,1392.0434 -588.37146,1391.4207 -588.65625,1390.9375 C -591.4131,1386.1625 -589.77499,1380.1006 -585,1377.3438 C -580.225,1374.587 -574.16309,1376.225 -571.40625,1381 C -569.55222,1384.2113 -569.55222,1387.7575 -571.40625,1390.9688 C -571.68239,1391.452 -571.5145,1392.0677 -571.03125,1392.3438 C -570.548,1392.6199 -569.93239,1392.452 -569.65625,1391.9688 C -567.47378,1388.1886 -567.47377,1383.7489 -569.65625,1379.9688 C -572.12968,1375.6846 -576.87135,1373.5233 -581.5,1374.0938 z"
       id="path9295"
       style="fill:#bebebe;fill-opacity:1;stroke:none;stroke-width:2;stroke-linecap:round;stroke-linejoin:round;marker:none;stroke-miterlimit:4;stroke-dasharray:none;stroke-dashoffset:0;stroke-opacity:1;visibility:visible;display:inline;overflow:visible;enable-background:accumulate" />
    <path
       d="M -580.6875,1378.0625 C -580.6875,1378.0625 -583.00896,1377.6527 -584.78125,1379.4062 C -586.25078,1380.8603 -586.03992,1382.4752 -585.90625,1383.1562 L -587.5,1385.3438 C -587.75075,1385.6955 -587.74737,1386.1684 -587.49163,1386.5165 C -587.23588,1386.8646 -586.78557,1387.0092 -586.375,1386.875 L -581.0625,1385.0312 C -578.37369,1386.4488 -575.25784,1386.1016 -572.8125,1385.9688 C -572.41748,1386.0094 -572.03585,1385.8124 -571.8401,1385.4669 C -571.64436,1385.1214 -571.67157,1384.6928 -571.90944,1384.3749 C -572.14731,1384.0569 -572.55078,1383.9098 -572.9375,1384 C -575.62167,1384.1458 -578.48433,1384.3859 -580.5,1383.125 C -580.7615,1382.9602 -581.08451,1382.9256 -581.375,1383.0312 L -584.03125,1383.9375 C -583.89455,1383.7008 -583.86067,1383.4185 -583.9375,1383.1562 C -583.9375,1383.1562 -584.32446,1381.7832 -583.375,1380.8438 C -582.30833,1379.7883 -581.09375,1380.0312 -581.09375,1380.0312 C -580.55011,1380.1434 -580.01846,1379.7936 -579.90627,1379.25 C -579.79409,1378.7063 -580.14386,1378.1747 -580.6875,1378.0625 z"
       id="path9297"
       style="fill:#bebebe;fill-opacity:1;stroke:none;stroke-width:2;stroke-linecap:round;stroke-linejoin:round;marker:none;stroke-miterlimit:4;stroke-dasharray:none;stroke-dashoffset:0;stroke-opacity:1;visibility:visible;display:inline;overflow:visible;enable-background:accumulate" />
    <path
       d="M -574.15625,1387.9375 C -574.62188,1388.0418 -574.94899,1388.4605 -574.9375,1388.9375 L -574.9375,1395 L -585,1395 L -585,1391 C -584.9949,1390.6394 -585.18438,1390.3039 -585.49587,1390.1221 C -585.80737,1389.9403 -586.19263,1389.9403 -586.50413,1390.1221 C -586.81562,1390.3039 -587.0051,1390.6394 -587,1391 L -587,1396 C -586.99994,1396.5523 -586.55226,1396.9999 -586,1397 L -573.9375,1397 C -573.38524,1396.9999 -572.93756,1396.5523 -572.9375,1396 L -572.9375,1388.9375 C -572.93006,1388.6296 -573.06486,1388.3355 -573.30293,1388.1402 C -573.54099,1387.9449 -573.85577,1387.8701 -574.15625,1387.9375 z"
       id="path9299"
       style="fill:#bebebe;fill-opacity:1;stroke:none;stroke-width:2;stroke-linecap:round;stroke-linejoin:round;marker:none;stroke-miterlimit:4;stroke-dasharray:none;stroke-dashoffset:0;stroke-opacity:1;visibility:visible;display:inline;overflow:visible;enable-background:accumulate" />
    <path
       d="M -583.25,1387.9062 C -583.615,1387.9727 -583.91317,1388.2359 -584.02458,1388.5898 C -584.13598,1388.9437 -584.04232,1389.3302 -583.78125,1389.5938 L -580.8125,1392.6875 C -580.43151,1393.0815 -579.80439,1393.0955 -579.40625,1392.7188 L -576.28125,1389.6562 C -575.97866,1389.4223 -575.83597,1389.0363 -575.91367,1388.6618 C -575.99136,1388.2873 -576.27584,1387.9899 -576.64651,1387.8957 C -577.01719,1387.8015 -577.40914,1387.9269 -577.65625,1388.2188 L -580.0625,1390.5938 L -582.34375,1388.2188 C -582.57296,1387.9672 -582.9144,1387.8494 -583.25,1387.9062 L -583.25,1387.9062 z"
       id="path9301"
       style="fill:#bebebe;fill-opacity:1;stroke:none;stroke-width:2;stroke-linecap:round;stroke-linejoin:round;marker:none;stroke-miterlimit:4;stroke-dasharray:none;stroke-dashoffset:0;stroke-opacity:1;visibility:visible;display:inline;overflow:visible;enable-background:accumulate" />
  </g>
  <g
     transform="translate(592.00055,-1373.9995)"
     id="layer4" />
  <g
     transform="translate(592.00055,-1373.9995)"
     id="layer12" />
  <g
     transform="translate(592.00055,-1373.9995)"
     id="layer9" />
  <g
     transform="translate(592.00055,-1373.9995)"
     id="layer10" />
  <g
     transform="translate(592.00055,-1373.9995)"
     id="layer6" />
</svg>
