<?xml version="1.0" encoding="UTF-8" standalone="no"?>
<!-- Created with Inkscape (http://www.inkscape.org/) -->
<svg
   xmlns:svg="http://www.w3.org/2000/svg"
   xmlns="http://www.w3.org/2000/svg"
   version="1.0"
   width="24"
   height="24"
   id="svg7384">
  <title
     id="title9167">Moblin Icon Theme</title>
  <defs
     id="defs7386" />
  <g
     transform="translate(591.99995,-900)"
     id="layer3" />
  <g
     transform="translate(591.99995,-900)"
     id="layer5" />
  <g
     transform="translate(591.99995,-900)"
     id="layer7" />
  <g
     transform="translate(591.99995,-900)"
     id="layer2" />
  <g
     transform="translate(591.99995,-900)"
     id="layer8" />
  <g
     transform="translate(591.99995,-1852.3622)"
     id="layer1" />
  <g
     transform="translate(591.99995,-900)"
     id="layer11">
    <rect
       width="24"
       height="24"
       x="567.99994"
       y="900"
       transform="scale(-1,1)"
       id="rect6505-3"
       style="opacity:0;fill:#ffffff;fill-opacity:1;stroke:none;display:inline" />
    <path
       d="M -570.90625,903.59375 L -571.59375,904.28125 L -579.625,912.15625 L -579.9375,912.46875 L -579.9375,912.875 L -579.9375,914.90625 L -579.9375,915.90625 L -578.9375,915.90625 L -576.9375,915.90625 L -576.53125,915.90625 L -576.21875,915.59375 L -568.28125,907.5625 L -567.59375,906.875 L -568.3125,906.15625 L -570.21875,904.28125 L -570.90625,903.59375 z M -570.90625,906.40625 L -570.40625,906.875 L -577.34375,913.90625 L -577.9375,913.90625 L -577.9375,913.28125 L -570.90625,906.40625 z"
       id="path6515-4"
       style="fill:#bebebe;fill-opacity:1;stroke:none;stroke-width:1.99999952;stroke-linecap:butt;stroke-linejoin:miter;marker:none;stroke-miterlimit:4;stroke-dasharray:none;stroke-dashoffset:0;stroke-opacity:1;visibility:visible;display:inline;overflow:visible;enable-background:accumulate" />
    <path
       d="M -587.15625,902 C -588.72127,902 -590.00002,903.27874 -590,904.84375 L -590,917.25 C -590,918.81501 -588.72127,920.12501 -587.15625,920.125 L -574.84375,920.125 C -573.27873,920.125 -572.00002,918.815 -572,917.25 L -572,915.96875 C -571.9949,915.60812 -572.18438,915.27268 -572.49588,915.09087 C -572.80737,914.90907 -573.19263,914.90907 -573.50412,915.09087 C -573.81562,915.27268 -574.0051,915.60812 -574,915.96875 L -574,917.25 C -574.00001,917.7416 -574.35215,918.125 -574.84375,918.125 L -587.15625,918.125 C -587.64785,918.125 -588,917.74161 -588,917.25 L -588,904.84375 C -588.00001,904.35218 -587.64785,904 -587.15625,904 L -574.84375,904 C -574.57174,904 -574.34434,904.12763 -574.1875,904.3125 C -573.96369,904.61635 -573.5879,904.76834 -573.21579,904.70552 C -572.84367,904.6427 -572.53861,904.37577 -572.42695,904.01529 C -572.31529,903.6548 -572.41605,903.26216 -572.6875,903 C -573.21056,902.38343 -573.97768,902 -574.84375,902 L -587.15625,902 z"
       id="rect6568-6"
       style="fill:#bebebe;fill-opacity:1;stroke:none;stroke-width:1.99999952;stroke-linecap:round;stroke-linejoin:miter;marker:none;stroke-miterlimit:4;stroke-dashoffset:0;stroke-opacity:1;visibility:visible;display:inline;overflow:visible;enable-background:accumulate" />
  </g>
  <g
     transform="translate(591.99995,-900)"
     id="layer4" />
  <g
     transform="translate(591.99995,-900)"
     id="layer12" />
  <g
     transform="translate(591.99995,-900)"
     id="layer9" />
  <g
     transform="translate(591.99995,-900)"
     id="layer10" />
  <g
     transform="translate(591.99995,-900)"
     id="layer6" />
</svg>
