<?xml version="1.0" encoding="UTF-8" standalone="no"?>
<!-- Created with Inkscape (http://www.inkscape.org/) -->
<svg
   xmlns:svg="http://www.w3.org/2000/svg"
   xmlns="http://www.w3.org/2000/svg"
   version="1.0"
   width="24"
   height="24"
   id="svg7384">
  <title
     id="title9167">Moblin Icon Theme</title>
  <defs
     id="defs7386" />
  <g
     transform="translate(592,-950)"
     id="layer3" />
  <g
     transform="translate(592,-950)"
     id="layer5" />
  <g
     transform="translate(592,-950)"
     id="layer7" />
  <g
     transform="translate(592,-950)"
     id="layer2" />
  <g
     transform="translate(592,-950)"
     id="layer8" />
  <g
     transform="translate(592,-1902.3622)"
     id="layer1" />
  <g
     transform="translate(592,-950)"
     id="layer11">
    <rect
       width="24"
       height="24"
       x="568"
       y="950"
       transform="scale(-1,1)"
       id="rect6505-3"
       style="opacity:0;fill:#ffffff;fill-opacity:1;stroke:none;display:inline" />
    <path
       d="M -570.90625,953.59375 L -571.59375,954.28125 L -579.625,962.15625 L -579.9375,962.46875 L -579.9375,962.875 L -579.9375,964.90625 L -579.9375,965.90625 L -578.9375,965.90625 L -576.9375,965.90625 L -576.53125,965.90625 L -576.21875,965.59375 L -568.28125,957.5625 L -567.59375,956.875 L -568.3125,956.15625 L -570.21875,954.28125 L -570.90625,953.59375 z M -570.90625,956.40625 L -570.40625,956.875 L -577.34375,963.90625 L -577.9375,963.90625 L -577.9375,963.28125 L -570.90625,956.40625 z"
       id="path6515-4"
       style="fill:#bebebe;fill-opacity:1;stroke:none;stroke-width:1.99999952;stroke-linecap:butt;stroke-linejoin:miter;marker:none;stroke-miterlimit:4;stroke-dasharray:none;stroke-dashoffset:0;stroke-opacity:1;visibility:visible;display:inline;overflow:visible;enable-background:accumulate" />
    <path
       d="M -587.15625,952 C -588.72127,952 -590,953.27875 -590,954.84375 L -590,967.25 C -590,968.81501 -588.72127,970.12501 -587.15625,970.125 L -574.84375,970.125 C -573.27873,970.125 -572,968.815 -572,967.25 L -572,965.96875 C -571.9949,965.60812 -572.18438,965.27268 -572.49588,965.09087 C -572.80737,964.90907 -573.19263,964.90907 -573.50412,965.09087 C -573.81562,965.27268 -574.0051,965.60812 -574,965.96875 L -574,967.25 C -574,967.74159 -574.35215,968.125 -574.84375,968.125 L -587.15625,968.125 C -587.64783,968.125 -588,967.74161 -588,967.25 L -588,954.84375 C -588,954.35217 -587.64785,954 -587.15625,954 L -574.84375,954 C -574.57172,954 -574.34434,954.12763 -574.1875,954.3125 C -573.96369,954.61635 -573.5879,954.76834 -573.21579,954.70552 C -572.84367,954.6427 -572.53861,954.37577 -572.42695,954.01529 C -572.31529,953.6548 -572.41605,953.26216 -572.6875,953 C -573.21056,952.38343 -573.97768,952 -574.84375,952 L -587.15625,952 z"
       id="rect6568-6"
       style="fill:#bebebe;fill-opacity:1;stroke:none;stroke-width:1.99999952;stroke-linecap:round;stroke-linejoin:miter;marker:none;stroke-miterlimit:4;stroke-dashoffset:0;stroke-opacity:1;visibility:visible;display:inline;overflow:visible;enable-background:accumulate" />
  </g>
  <g
     transform="translate(592,-950)"
     id="layer4" />
  <g
     transform="translate(592,-950)"
     id="layer9" />
  <g
     transform="translate(592,-950)"
     id="layer10" />
  <g
     transform="translate(592,-950)"
     id="layer6" />
</svg>
