<?xml version="1.0" encoding="UTF-8" standalone="no"?>
<!-- Created with Inkscape (http://www.inkscape.org/) -->
<svg
   xmlns:svg="http://www.w3.org/2000/svg"
   xmlns="http://www.w3.org/2000/svg"
   version="1.0"
   width="24"
   height="24.000002"
   id="svg7384">
  <title
     id="title9167">Moblin Icon Theme</title>
  <defs
     id="defs7386" />
  <g
     transform="translate(566,-1344)"
     id="layer3" />
  <g
     transform="translate(566,-1344)"
     id="layer5" />
  <g
     transform="translate(566,-1344)"
     id="layer7" />
  <g
     transform="translate(566,-1344)"
     id="layer2" />
  <g
     transform="translate(566,-1344)"
     id="layer8" />
  <g
     transform="translate(566,-2296.3622)"
     id="layer1" />
  <g
     transform="translate(566,-1344)"
     id="layer11">
    <rect
       width="24"
       height="24"
       x="-566"
       y="1344"
       id="rect8815"
       style="opacity:0;fill:#ffffff;fill-opacity:1;stroke:none;display:inline" />
    <path
       d="M -566,1352.0312 L -566,1353.0312 L -566,1364 C -566,1366.1987 -564.1987,1368 -562,1368 L -548,1368 C -545.8013,1368 -544,1366.1987 -544,1364 L -544,1353.0312 L -544,1352.0312 L -545,1352.0312 C -545,1352.0312 -565,1352.0312 -565,1352.0312 L -566,1352.0312 z M -564,1354.0312 C -562.29,1354.0312 -547.71,1354.0313 -546,1354.0312 L -546,1364 C -546,1365.1253 -546.8747,1366 -548,1366 L -562,1366 C -563.1253,1366 -564,1365.1253 -564,1364 L -564,1354.0312 z"
       id="path8817"
       style="fill:#bebebe;fill-opacity:1;stroke:none;stroke-width:2.00000024;stroke-linecap:round;stroke-linejoin:miter;marker:none;stroke-miterlimit:4.30000019;stroke-dashoffset:0;stroke-opacity:1;visibility:visible;display:inline;overflow:visible;enable-background:accumulate" />
    <path
       d="M -558.00731,1353 L -558.00731,1360.0091 L -561,1360.0091 L -555,1365.0916 L -549,1360 L -552.00563,1360 L -552.00563,1353 L -558.00731,1353 z"
       id="rect8827"
       style="fill:#bebebe;fill-opacity:1;stroke:none;stroke-width:2.00000024;stroke-linecap:round;stroke-linejoin:round;marker:none;stroke-miterlimit:4.30000019;stroke-dasharray:none;stroke-dashoffset:0;stroke-opacity:1;visibility:visible;display:inline;overflow:visible;enable-background:accumulate" />
    <path
       d="M -555,1344.9375 C -556.6447,1344.9375 -558,1346.2928 -558,1347.9375 L -558,1355 C -558,1356.6447 -556.6447,1358 -555,1358 C -553.3553,1358 -552,1356.6447 -552,1355 L -552,1347.9375 C -552,1346.2928 -553.3553,1344.9375 -555,1344.9375 z M -555,1346.9375 C -554.4287,1346.9375 -554,1347.3662 -554,1347.9375 L -554,1355 C -554,1355.5713 -554.4287,1356 -555,1356 C -555.5713,1356 -556,1355.5713 -556,1355 L -556,1347.9375 C -556,1347.3662 -555.5713,1346.9375 -555,1346.9375 z"
       id="rect8865"
       style="fill:#bebebe;fill-opacity:1;fill-rule:nonzero;stroke:none;stroke-width:2;stroke-linecap:round;stroke-linejoin:round;marker:none;stroke-miterlimit:4.30000019;stroke-dasharray:none;stroke-dashoffset:0;stroke-opacity:1;visibility:visible;display:inline;overflow:visible;enable-background:accumulate" />
    <path
       d="M -546.07192,1346.9723 C -546.07192,1348.8778 -547.892,1350.0329 -549,1350.0329 L -552.04235,1350.0329 C -552.04235,1345.2782 -557.89515,1345.6185 -557.89515,1350.0329 L -561,1350.0329 C -562.108,1350.0329 -564.01647,1348.9661 -564.01647,1346.9723 C -564.01647,1344.9784 -562.108,1344 -561,1344 L -549,1344 C -547.892,1344 -546.07192,1345.0667 -546.07192,1346.9723 L -546.07192,1346.9723 z"
       id="rect8867"
       style="fill:#bebebe;fill-opacity:1;stroke:none;stroke-width:2;marker:none;visibility:visible;display:inline;overflow:visible;enable-background:accumulate" />
  </g>
  <g
     transform="translate(566,-1344)"
     id="layer4" />
  <g
     transform="translate(566,-1344)"
     id="layer12" />
  <g
     transform="translate(566,-1344)"
     id="layer9" />
  <g
     transform="translate(566,-1344)"
     id="layer10" />
  <g
     transform="translate(566,-1344)"
     id="layer6" />
</svg>
