<?xml version="1.0" encoding="UTF-8" standalone="no"?>
<!-- Created with Inkscape (http://www.inkscape.org/) -->
<svg
   xmlns:svg="http://www.w3.org/2000/svg"
   xmlns="http://www.w3.org/2000/svg"
   version="1.0"
   width="24"
   height="24"
   id="svg7384">
  <title
     id="title9167">Moblin Icon Theme</title>
  <defs
     id="defs7386" />
  <g
     transform="translate(592,-1316)"
     id="layer3" />
  <g
     transform="translate(592,-1316)"
     id="layer5" />
  <g
     transform="translate(592,-1316)"
     id="layer7" />
  <g
     transform="translate(592,-1316)"
     id="layer2" />
  <g
     transform="translate(592,-1316)"
     id="layer8" />
  <g
     transform="translate(592,-2268.3622)"
     id="layer1" />
  <g
     transform="translate(592,-1316)"
     id="layer11">
    <rect
       width="24"
       height="24"
       x="-592"
       y="1316"
       id="rect8489"
       style="opacity:0;fill:#ffffff;fill-opacity:1;stroke:none;display:inline" />
    <path
       d="M -587.10768,1326.7691 C -587.36539,1326.7214 -587.59304,1326.613 -587.75383,1326.4615 C -587.99795,1326.2458 -588.07844,1325.9584 -587.96922,1325.6922 C -587.26603,1323.4442 -584.87461,1321.7972 -581.72307,1321.3079 C -577.32176,1320.6241 -572.98802,1322.6255 -572.03078,1325.769 C -572.00502,1326.1744 -572.38614,1326.5356 -572.93874,1326.6296 C -573.49135,1326.7236 -574.05951,1326.5239 -574.29232,1326.1538 C -574.97745,1323.9037 -578.03445,1322.4337 -581.18461,1322.9231 C -583.49856,1323.2825 -585.19138,1324.4263 -585.70768,1326.0767 C -585.7595,1326.3031 -585.93787,1326.5047 -586.20187,1326.6352 C -586.46586,1326.7658 -586.79281,1326.8141 -587.10768,1326.7691 z"
       id="path8491"
       style="fill:#bebebe;fill-opacity:1;stroke:none;stroke-width:0.68669629;stroke-linecap:round;stroke-linejoin:miter;marker:none;stroke-miterlimit:4.30000019;stroke-dasharray:none;stroke-dashoffset:0;stroke-opacity:1;visibility:visible;display:inline;overflow:visible;enable-background:accumulate" />
    <path
       d="M -589.09375,1326 C -589.64603,1326.0259 -590.07276,1326.4946 -590.04687,1327.0469 C -590.02099,1327.5992 -589.55228,1328.0259 -589,1328 L -571,1328 C -570.63936,1328.0051 -570.30391,1327.8156 -570.12211,1327.5041 C -569.9403,1327.1926 -569.9403,1326.8074 -570.12211,1326.4959 C -570.30391,1326.1844 -570.63936,1325.9949 -571,1326 L -589,1326 C -589.03123,1325.9985 -589.06252,1325.9985 -589.09375,1326 z"
       id="path8497"
       style="fill:#bebebe;fill-opacity:1;stroke:none;stroke-width:2.00000024;stroke-linecap:round;stroke-linejoin:miter;marker:none;stroke-miterlimit:4.30000019;stroke-dasharray:none;stroke-dashoffset:0;stroke-opacity:1;visibility:visible;display:inline;overflow:visible;enable-background:accumulate" />
    <path
       d="M -575.11922,1329.3151 C -575.75549,1329.3483 -576.26945,1329.5831 -576.37846,1329.8904 C -576.81388,1330.8661 -578.78381,1331.4834 -580.7858,1331.2711 C -582.27591,1331.1133 -583.28663,1330.6157 -583.61909,1329.8904 C -583.65225,1329.6135 -584.01848,1329.3725 -584.55216,1329.2763 C -585.08585,1329.18 -585.68581,1329.2469 -586.08072,1329.4465 C -586.47563,1329.6462 -586.59062,1329.9408 -586.37368,1330.1972 C -585.81496,1331.4161 -583.91955,1332.3483 -581.41542,1332.6136 C -577.89872,1332.9864 -574.38871,1331.9111 -573.62387,1330.1972 C -573.49917,1329.9776 -573.6023,1329.7421 -573.90015,1329.5664 C -574.198,1329.3907 -574.65307,1329.2969 -575.11922,1329.3151 z"
       id="path9030"
       style="fill:#bebebe;fill-opacity:1;stroke:none;stroke-width:1.13756084;stroke-linecap:round;stroke-linejoin:miter;marker:none;stroke-miterlimit:4.30000019;stroke-dasharray:none;stroke-dashoffset:0;stroke-opacity:1;visibility:visible;display:inline;overflow:visible;enable-background:accumulate" />
  </g>
  <g
     transform="translate(592,-1316)"
     id="layer4" />
  <g
     transform="translate(592,-1316)"
     id="layer12" />
  <g
     transform="translate(592,-1316)"
     id="layer9" />
  <g
     transform="translate(592,-1316)"
     id="layer10" />
  <g
     transform="translate(592,-1316)"
     id="layer6" />
</svg>
