<?xml version="1.0" encoding="UTF-8" standalone="no"?>
<!-- Created with Inkscape (http://www.inkscape.org/) -->
<svg
   xmlns:svg="http://www.w3.org/2000/svg"
   xmlns="http://www.w3.org/2000/svg"
   version="1.0"
   width="24"
   height="24.000002"
   id="svg7384">
  <title
     id="title9167">Moblin Icon Theme</title>
  <defs
     id="defs7386" />
  <g
     transform="translate(481.99995,-1044)"
     id="layer3" />
  <g
     transform="translate(481.99995,-1044)"
     id="layer5" />
  <g
     transform="translate(481.99995,-1044)"
     id="layer7" />
  <g
     transform="translate(481.99995,-1044)"
     id="layer2" />
  <g
     transform="translate(481.99995,-1044)"
     id="layer8" />
  <g
     transform="translate(481.99995,-1996.3622)"
     id="layer1" />
  <g
     transform="translate(481.99995,-1044)"
     id="layer11">
    <rect
       width="24"
       height="24"
       x="-481.99994"
       y="1044"
       id="rect7425"
       style="opacity:0;fill:#ffffff;fill-opacity:1;stroke:none;display:inline" />
    <path
       d="M -478.9375,1044 C -480.61683,1044 -482,1045.3832 -482,1047.0625 L -482,1064.9375 C -482,1066.6168 -480.61683,1068 -478.9375,1068 L -461.0625,1068 C -459.38317,1068 -458,1066.6168 -458,1064.9375 L -458,1047.0625 C -458,1045.3832 -459.38317,1044 -461.0625,1044 L -478.9375,1044 z M -478.9375,1046 L -461.0625,1046 C -460.45658,1046 -460,1046.4566 -460,1047.0625 L -460,1064.9375 C -460,1065.5434 -460.45658,1066 -461.0625,1066 L -478.9375,1066 C -479.54342,1066 -480,1065.5434 -480,1064.9375 L -480,1047.0625 C -480,1046.4566 -479.54342,1046 -478.9375,1046 z"
       id="rect7439"
       style="fill:#bebebe;fill-opacity:1;stroke:none;stroke-width:2;stroke-linecap:round;stroke-linejoin:round;marker:none;stroke-miterlimit:4;stroke-dasharray:none;stroke-dashoffset:0;stroke-opacity:1;visibility:visible;display:inline;overflow:visible;enable-background:accumulate" />
    <path
       d="M -477.99995,1048 L -477.99995,1054.0155 L -476.05485,1054.0155 L -475.33328,1054.0155 L -475.11368,1054.6977 L -474.10975,1057.6744 L -472.00779,1050.7597 L -471.16073,1048 L -477.99995,1048 L -477.99995,1048 z M -470.75289,1048 L -470.0627,1050.7907 L -469.0274,1054.8837 L -467.99211,1050.7907 L -467.27054,1048 L -470.75289,1048 L -470.75289,1048 z M -466.76858,1048 L -466.04701,1050.7907 L -464.2274,1057.9845 L -461.99995,1057.9845 L -461.99995,1048 L -466.76858,1048 z M -471.12936,1054.7907 L -473.07446,1061.2403 L -473.92152,1064 L -461.99995,1064 L -461.99995,1059.969 L -465.01171,1059.969 L -465.79603,1059.969 L -465.98426,1059.2248 L -467.01956,1055.1318 L -468.05485,1059.2248 L -469.0274,1063.0698 L -469.99995,1059.2248 L -471.12936,1054.7907 z M -477.99995,1056 L -477.99995,1064 L -474.07838,1064 L -474.98819,1061.2713 L -476.77642,1056 L -477.99995,1056 z"
       id="rect7441"
       style="fill:#bebebe;fill-opacity:1;stroke:none;stroke-width:2;marker:none;visibility:visible;display:inline;overflow:visible;enable-background:accumulate" />
  </g>
  <g
     transform="translate(481.99995,-1044)"
     id="layer4" />
  <g
     transform="translate(481.99995,-1044)"
     id="layer12" />
  <g
     transform="translate(481.99995,-1044)"
     id="layer9" />
  <g
     transform="translate(481.99995,-1044)"
     id="layer10" />
  <g
     transform="translate(481.99995,-1044)"
     id="layer6" />
</svg>
