<?xml version="1.0" encoding="UTF-8" standalone="no"?>
<!-- Created with Inkscape (http://www.inkscape.org/) -->
<svg
   xmlns:svg="http://www.w3.org/2000/svg"
   xmlns="http://www.w3.org/2000/svg"
   version="1.0"
   width="24"
   height="24.000002"
   id="svg7384">
  <title
     id="title9167">Moblin Icon Theme</title>
  <defs
     id="defs7386" />
  <g
     transform="translate(482,-1094)"
     id="layer3" />
  <g
     transform="translate(482,-1094)"
     id="layer5" />
  <g
     transform="translate(482,-1094)"
     id="layer7" />
  <g
     transform="translate(482,-1094)"
     id="layer2" />
  <g
     transform="translate(482,-1094)"
     id="layer8" />
  <g
     transform="translate(482,-2046.3622)"
     id="layer1" />
  <g
     transform="translate(482,-1094)"
     id="layer11">
    <rect
       width="24"
       height="24"
       x="-482"
       y="1094"
       id="rect7425"
       style="opacity:0;fill:#ffffff;fill-opacity:1;stroke:none;display:inline" />
    <path
       d="M -478.9375,1094 C -480.61683,1094 -482,1095.3832 -482,1097.0625 L -482,1114.9375 C -482,1116.6168 -480.61683,1118 -478.9375,1118 L -461.0625,1118 C -459.38317,1118 -458,1116.6168 -458,1114.9375 L -458,1097.0625 C -458,1095.3832 -459.38317,1094 -461.0625,1094 L -478.9375,1094 z M -478.9375,1096 L -461.0625,1096 C -460.45658,1096 -460,1096.4566 -460,1097.0625 L -460,1114.9375 C -460,1115.5434 -460.45658,1116 -461.0625,1116 L -478.9375,1116 C -479.54342,1116 -480,1115.5434 -480,1114.9375 L -480,1097.0625 C -480,1096.4566 -479.54342,1096 -478.9375,1096 z"
       id="rect7439"
       style="fill:#bebebe;fill-opacity:1;stroke:none;stroke-width:2;stroke-linecap:round;stroke-linejoin:round;marker:none;stroke-miterlimit:4;stroke-dasharray:none;stroke-dashoffset:0;stroke-opacity:1;visibility:visible;display:inline;overflow:visible;enable-background:accumulate" />
    <path
       d="M -478,1098 L -478,1104.0155 L -476.0549,1104.0155 L -475.33333,1104.0155 L -475.11372,1104.6977 L -474.1098,1107.6744 L -472.00784,1100.7597 L -471.16078,1098 L -478,1098 L -478,1098 z M -470.75294,1098 L -470.06275,1100.7907 L -469.02745,1104.8837 L -467.99216,1100.7907 L -467.27059,1098 L -470.75294,1098 L -470.75294,1098 z M -466.76863,1098 L -466.04706,1100.7907 L -464.22745,1107.9845 L -462,1107.9845 L -462,1098 L -466.76863,1098 z M -471.12941,1104.7907 L -473.07451,1111.2403 L -473.92157,1114 L -462,1114 L -462,1109.969 L -465.01176,1109.969 L -465.79608,1109.969 L -465.98431,1109.2248 L -467.01961,1105.1318 L -468.0549,1109.2248 L -469.02745,1113.0698 L -470,1109.2248 L -471.12941,1104.7907 z M -478,1106 L -478,1114 L -474.07843,1114 L -474.98824,1111.2713 L -476.77647,1106 L -478,1106 z"
       id="rect7441"
       style="fill:#bebebe;fill-opacity:1;stroke:none;stroke-width:2;marker:none;visibility:visible;display:inline;overflow:visible;enable-background:accumulate" />
  </g>
  <g
     transform="translate(482,-1094)"
     id="layer4" />
  <g
     transform="translate(482,-1094)"
     id="layer9" />
  <g
     transform="translate(482,-1094)"
     id="layer10" />
  <g
     transform="translate(482,-1094)"
     id="layer6" />
</svg>
