<?xml version="1.0" encoding="UTF-8" standalone="no"?>
<!-- Created with Inkscape (http://www.inkscape.org/) -->
<svg
   xmlns:svg="http://www.w3.org/2000/svg"
   xmlns="http://www.w3.org/2000/svg"
   version="1.0"
   width="24"
   height="24"
   id="svg7384">
  <title
     id="title9167">Moblin Icon Theme</title>
  <defs
     id="defs7386" />
  <g
     transform="translate(482,-1284)"
     id="layer3" />
  <g
     transform="translate(482,-1284)"
     id="layer5" />
  <g
     transform="translate(482,-1284)"
     id="layer7" />
  <g
     transform="translate(482,-1284)"
     id="layer2" />
  <g
     transform="translate(482,-1284)"
     id="layer8" />
  <g
     transform="translate(482,-2236.3622)"
     id="layer1" />
  <g
     transform="translate(482,-1284)"
     id="layer11">
    <rect
       width="24"
       height="24"
       x="-482"
       y="1284"
       id="rect13082"
       style="opacity:0;fill:#ffffff;fill-opacity:1;stroke:none;display:inline" />
    <path
       d="M -464.00005,1288.0149 C -466.19711,1288.0149 -467.98511,1289.8029 -467.98511,1291.9999 C -467.98511,1294.197 -466.19711,1295.985 -464.00005,1295.985 C -461.80299,1295.985 -460.01499,1294.197 -460.01499,1291.9999 C -460.01499,1289.8029 -461.80299,1288.0149 -464.00005,1288.0149 z M -464.00005,1289.985 C -462.88512,1289.985 -461.98513,1290.885 -461.98513,1291.9999 C -461.98513,1293.1149 -462.88512,1294.0149 -464.00005,1294.0149 C -465.11498,1294.0149 -466.01497,1293.1149 -466.01497,1291.9999 C -466.01497,1290.885 -465.11498,1289.985 -464.00005,1289.985 z"
       id="path11574-8"
       style="fill:#bebebe;fill-opacity:1;stroke:none;stroke-width:1.39583659;stroke-linecap:round;stroke-linejoin:bevel;marker:none;stroke-miterlimit:4.30000019;stroke-dasharray:none;stroke-dashoffset:0;stroke-opacity:1;visibility:visible;display:inline;overflow:visible;enable-background:accumulate" />
    <path
       d="M -471.1582,1287.3133 C -472.53889,1286.7041 -474.09024,1286.7483 -475.54917,1287.3064 C -477.00821,1287.8646 -478.43926,1289.0039 -479.29892,1290.6884 C -480.15868,1292.373 -480.20276,1294.1243 -479.74502,1295.5281 C -479.28739,1296.932 -478.34316,1298.0774 -476.96247,1298.6867 C -475.58178,1299.2959 -474.03043,1299.2516 -472.57139,1298.6934 C -471.11246,1298.1353 -469.68141,1296.9961 -468.82164,1295.3114 C -467.96199,1293.6269 -467.91791,1291.8757 -468.37554,1290.4717 C -468.83328,1289.0679 -469.77751,1287.9225 -471.1582,1287.3133 z M -472.2771,1289.5058 C -471.18249,1289.9888 -470.4518,1290.9043 -470.13426,1291.8784 C -469.81661,1292.8524 -469.89853,1293.7959 -470.33188,1294.645 C -470.76534,1295.4944 -471.49954,1296.15 -472.51191,1296.5374 C -473.52417,1296.9245 -474.74897,1296.9772 -475.84357,1296.4942 C -476.93818,1296.0112 -477.66887,1295.0957 -477.98652,1294.1218 C -478.30406,1293.1476 -478.22214,1292.2041 -477.78868,1291.3547 C -477.35533,1290.5056 -476.62113,1289.8499 -475.60887,1289.4628 C -474.5965,1289.0754 -473.3717,1289.0228 -472.2771,1289.5058 z"
       id="path11576-6"
       style="fill:#bebebe;fill-opacity:1;stroke:none;stroke-width:0.99298257;stroke-linecap:round;stroke-linejoin:bevel;marker:none;stroke-miterlimit:4.30000019;stroke-dasharray:none;stroke-dashoffset:0;stroke-opacity:1;visibility:visible;display:inline;overflow:visible;enable-background:accumulate" />
    <rect
       width="2"
       height="2.0312524"
       rx="1"
       ry="1"
       x="-465"
       y="1292"
       id="rect11580-4"
       style="fill:#bebebe;fill-opacity:1;stroke:none;stroke-width:1;marker:none;visibility:visible;display:inline;overflow:visible;enable-background:accumulate" />
    <rect
       width="3"
       height="3.0468786"
       rx="1.5"
       ry="1.5"
       x="-476"
       y="1291.9531"
       id="rect11582-9"
       style="fill:#bebebe;fill-opacity:1;stroke:none;stroke-width:1;marker:none;visibility:visible;display:inline;overflow:visible;enable-background:accumulate" />
    <path
       d="M -461.17419,1295.9329 C -461.60075,1296.0266 -461.91722,1296.3862 -461.9559,1296.8212 C -462.39312,1301.2514 -466.3021,1304.4715 -470.73238,1304.0343 C -473.61558,1303.7497 -475.87272,1302.2219 -477.16373,1299.6283 C -477.29435,1299.2655 -477.62187,1299.0102 -478.00553,1298.9719 C -478.38919,1298.9337 -478.76066,1299.1194 -478.96029,1299.4493 C -479.15992,1299.7791 -479.15216,1300.1944 -478.94034,1300.5165 C -477.36862,1303.6742 -474.45566,1305.6777 -470.94557,1306.0241 C -465.4384,1306.5675 -460.50957,1302.5415 -459.96609,1297.0344 C -459.92548,1296.7117 -460.04426,1296.3895 -460.28456,1296.1704 C -460.52486,1295.9513 -460.85667,1295.8628 -461.17419,1295.9329 L -461.17419,1295.9329 z"
       id="path13125"
       style="fill:#bebebe;fill-opacity:1;stroke:none;stroke-width:1.75896311;stroke-linecap:round;marker:none;stroke-miterlimit:4;stroke-dasharray:none;stroke-opacity:1;visibility:visible;display:inline;overflow:visible;enable-background:accumulate" />
    <path
       d="M -469.55981,1286.0194 C -470.07076,1286.0868 -470.44679,1286.5315 -470.4284,1287.0466 C -470.41,1287.5616 -470.00321,1287.9784 -469.48875,1288.0092 C -468.97382,1288.0394 -468.56886,1288.1014 -468.06746,1288.2224 C -467.52782,1288.3499 -466.98694,1288.0159 -466.85939,1287.4762 C -466.73183,1286.9366 -467.0659,1286.3957 -467.60554,1286.2682 C -468.2049,1286.1234 -468.76665,1286.0555 -469.38215,1286.0194 C -469.44126,1286.0141 -469.50071,1286.0141 -469.55981,1286.0194 L -469.55981,1286.0194 z"
       id="path13127"
       style="fill:#bebebe;fill-opacity:1;stroke:none;stroke-width:1.75896311;stroke-linecap:round;marker:none;stroke-miterlimit:4;stroke-dasharray:none;stroke-opacity:1;visibility:visible;display:inline;overflow:visible;enable-background:accumulate" />
  </g>
  <g
     transform="translate(482,-1284)"
     id="layer4" />
  <g
     transform="translate(482,-1284)"
     id="layer12" />
  <g
     transform="translate(482,-1284)"
     id="layer9" />
  <g
     transform="translate(482,-1284)"
     id="layer10" />
  <g
     transform="translate(482,-1284)"
     id="layer6" />
</svg>
