<?xml version="1.0" encoding="UTF-8" standalone="no"?>
<!-- Created with Inkscape (http://www.inkscape.org/) -->
<svg
   xmlns:svg="http://www.w3.org/2000/svg"
   xmlns="http://www.w3.org/2000/svg"
   version="1.0"
   width="24"
   height="24.000099"
   id="svg7384">
  <title
     id="title9167">Moblin Icon Theme</title>
  <defs
     id="defs7386" />
  <g
     transform="translate(618,-1344)"
     id="layer3" />
  <g
     transform="translate(618,-1344)"
     id="layer5" />
  <g
     transform="translate(618,-1344)"
     id="layer7" />
  <g
     transform="translate(618,-1344)"
     id="layer2" />
  <g
     transform="translate(618,-1344)"
     id="layer8" />
  <g
     transform="translate(618,-2296.3622)"
     id="layer1" />
  <g
     transform="translate(618,-1344)"
     id="layer11">
    <rect
       width="24"
       height="24"
       x="-618"
       y="1344"
       id="rect8352"
       style="opacity:0;fill:#ffffff;fill-opacity:1;stroke:none;display:inline" />
    <path
       d="M -609.40625,1347.9375 C -609.79995,1348.0174 -610.10764,1348.3251 -610.1875,1348.7188 L -612.3125,1358.7812 C -612.43334,1359.3249 -612.09058,1359.8635 -611.54692,1359.9844 C -611.00327,1360.1052 -610.46459,1359.7625 -610.34375,1359.2188 L -608.21875,1349.1562 C -608.1347,1348.8199 -608.2308,1348.464 -608.47272,1348.2158 C -608.71464,1347.9675 -609.06788,1347.8622 -609.40625,1347.9375 L -609.40625,1347.9375 z"
       id="path8355"
       style="fill:#bebebe;fill-opacity:1;stroke:none;stroke-width:2;stroke-linecap:round;stroke-linejoin:miter;marker:none;stroke-miterlimit:4;stroke-dasharray:none;stroke-dashoffset:0;stroke-opacity:1;visibility:visible;display:inline;overflow:visible;enable-background:accumulate" />
    <path
       d="M -605.46875,1347.9375 C -605.87152,1348.0218 -606.18154,1348.3442 -606.25,1348.75 L -608.3125,1358.8125 C -608.41605,1359.3562 -608.05928,1359.8808 -607.51562,1359.9844 C -606.97197,1360.0879 -606.4473,1359.7312 -606.34375,1359.1875 L -604.28125,1349.125 C -604.21014,1348.7933 -604.31206,1348.4481 -604.55196,1348.2082 C -604.79186,1347.9683 -605.13702,1347.8664 -605.46875,1347.9375 z"
       id="path8357"
       style="fill:#bebebe;fill-opacity:1;stroke:none;stroke-width:2;stroke-linecap:round;stroke-linejoin:miter;marker:none;stroke-miterlimit:4;stroke-dasharray:none;stroke-dashoffset:0;stroke-opacity:1;visibility:visible;display:inline;overflow:visible;enable-background:accumulate" />
    <path
       d="M -611.5,1350 C -612.05228,1350.0345 -612.47202,1350.5102 -612.4375,1351.0625 C -612.40298,1351.6148 -611.92728,1352.0345 -611.375,1352 L -604.25,1352 C -603.88936,1352.0051 -603.55392,1351.8156 -603.37211,1351.5041 C -603.19031,1351.1926 -603.19031,1350.8074 -603.37211,1350.4959 C -603.55392,1350.1844 -603.88936,1349.9949 -604.25,1350 L -611.375,1350 C -611.41663,1349.9974 -611.45837,1349.9974 -611.5,1350 z"
       id="path8359"
       style="fill:#bebebe;fill-opacity:1;stroke:none;stroke-width:2;stroke-linecap:round;stroke-linejoin:miter;marker:none;stroke-miterlimit:4;stroke-dasharray:none;stroke-dashoffset:0;stroke-opacity:1;visibility:visible;display:inline;overflow:visible;enable-background:accumulate" />
    <path
       d="M -612.4375,1356 C -612.98978,1356.0345 -613.40952,1356.5102 -613.375,1357.0625 C -613.34048,1357.6148 -612.86478,1358.0345 -612.3125,1358 L -605.25,1358 C -604.88936,1358.0051 -604.55392,1357.8156 -604.37211,1357.5041 C -604.19031,1357.1926 -604.19031,1356.8074 -604.37211,1356.4959 C -604.55392,1356.1844 -604.88936,1355.9949 -605.25,1356 L -612.3125,1356 C -612.35413,1355.9974 -612.39587,1355.9974 -612.4375,1356 L -612.4375,1356 z"
       id="path8362"
       style="fill:#bebebe;fill-opacity:1;stroke:none;stroke-width:2;stroke-linecap:round;stroke-linejoin:miter;marker:none;stroke-miterlimit:4;stroke-dasharray:none;stroke-dashoffset:0;stroke-opacity:1;visibility:visible;display:inline;overflow:visible;enable-background:accumulate" />
    <path
       d="M -603.8125,1358 C -604.36478,1358.0259 -604.79151,1358.4946 -604.76562,1359.0469 C -604.73974,1359.5992 -604.27103,1360.0259 -603.71875,1360 L -599,1360 C -598.63937,1360.0051 -598.30392,1359.8156 -598.12212,1359.5041 C -597.94031,1359.1926 -597.94031,1358.8074 -598.12212,1358.4959 C -598.30392,1358.1844 -598.63937,1357.9949 -599,1358 L -603.71875,1358 C -603.74998,1357.9985 -603.78127,1357.9985 -603.8125,1358 z"
       id="path8364"
       style="fill:#bebebe;fill-opacity:1;stroke:none;stroke-width:1.99999988;stroke-linecap:round;stroke-linejoin:miter;marker:none;stroke-miterlimit:4;stroke-dasharray:none;stroke-dashoffset:0;stroke-opacity:1;visibility:visible;display:inline;overflow:visible;enable-background:accumulate" />
    <path
       d="M -613.90625,1344 C -616.15691,1344 -618,1345.8431 -618,1348.0938 L -618,1359.8438 C -618,1361.8524 -616.50927,1363.4735 -614.59375,1363.8125 L -615.875,1366.5938 C -616.0536,1366.9886 -615.95766,1367.4535 -615.63735,1367.7453 C -615.31704,1368.0371 -614.84525,1368.0895 -614.46875,1367.875 L -607.78125,1363.9375 L -598.125,1363.9375 C -595.87439,1363.9375 -594.03125,1362.0944 -594.03125,1359.8438 L -594.03125,1348.0938 C -594.03126,1345.8431 -595.87435,1344 -598.125,1344 L -613.90625,1344 z M -613.90625,1346 L -598.125,1346 C -596.94785,1346 -596.03126,1346.9167 -596.03125,1348.0938 L -596.03125,1359.8438 C -596.03125,1361.0209 -596.94781,1361.9375 -598.125,1361.9375 L -608.0625,1361.9375 C -608.23723,1361.9348 -608.40962,1361.9779 -608.5625,1362.0625 L -612.75,1364.5312 L -612.21875,1363.3438 C -612.08178,1363.0357 -612.10931,1362.6793 -612.29197,1362.3958 C -612.47462,1362.1124 -612.78781,1361.9401 -613.125,1361.9375 L -613.90625,1361.9375 C -615.08344,1361.9375 -616,1361.021 -616,1359.8438 L -616,1348.0938 C -616,1346.9166 -615.08342,1346 -613.90625,1346 z"
       id="rect14883-8"
       style="fill:#bebebe;fill-opacity:1;stroke:none;stroke-width:2;stroke-linecap:round;stroke-linejoin:round;marker:none;stroke-miterlimit:4;stroke-dasharray:none;stroke-dashoffset:0;stroke-opacity:1;visibility:visible;display:inline;overflow:visible;enable-background:accumulate" />
  </g>
  <g
     transform="translate(618,-1344)"
     id="layer4" />
  <g
     transform="translate(618,-1344)"
     id="layer12" />
  <g
     transform="translate(618,-1344)"
     id="layer9" />
  <g
     transform="translate(618,-1344)"
     id="layer10" />
  <g
     transform="translate(618,-1344)"
     id="layer6" />
</svg>
