<?xml version="1.0" encoding="UTF-8" standalone="no"?>
<!-- Created with Inkscape (http://www.inkscape.org/) -->
<svg
   xmlns:svg="http://www.w3.org/2000/svg"
   xmlns="http://www.w3.org/2000/svg"
   version="1.0"
   width="24"
   height="24"
   id="svg7384">
  <title
     id="title9167">Moblin Icon Theme</title>
  <defs
     id="defs7386" />
  <g
     transform="translate(566,-1214)"
     id="layer3" />
  <g
     transform="translate(566,-1214)"
     id="layer5" />
  <g
     transform="translate(566,-1214)"
     id="layer7" />
  <g
     transform="translate(566,-1214)"
     id="layer2" />
  <g
     transform="translate(566,-1214)"
     id="layer8" />
  <g
     transform="translate(566,-2166.3622)"
     id="layer1" />
  <g
     transform="translate(566,-1214)"
     id="layer11">
    <rect
       width="24"
       height="24"
       x="-566"
       y="1214"
       id="rect10210"
       style="opacity:0;fill:#ffffff;fill-opacity:1;stroke:none;display:inline" />
    <path
       d="M -559.21875,1220 C -559.58334,1220.0808 -559.87256,1220.358 -559.96875,1220.7188 L -563.96875,1234.6562 C -564.12411,1235.1912 -563.81633,1235.7509 -563.2813,1235.9062 C -562.74627,1236.0616 -562.18661,1235.7538 -562.03125,1235.2188 L -558.03125,1221.2812 C -557.91905,1220.9364 -558.00228,1220.5578 -558.24878,1220.2919 C -558.49527,1220.0259 -558.86642,1219.9143 -559.21875,1220 L -559.21875,1220 z"
       id="path10222"
       style="fill:#bebebe;fill-opacity:1;stroke:none;stroke-width:2;stroke-linecap:round;stroke-linejoin:miter;marker:none;stroke-miterlimit:4;stroke-dasharray:none;stroke-dashoffset:0;stroke-opacity:1;visibility:visible;display:inline;overflow:visible;enable-background:accumulate" />
    <path
       d="M -553.21875,1220 C -553.58334,1220.0808 -553.87256,1220.358 -553.96875,1220.7188 L -557.96875,1234.6562 C -558.12411,1235.1912 -557.81633,1235.7509 -557.2813,1235.9062 C -556.74627,1236.0616 -556.18661,1235.7538 -556.03125,1235.2188 L -552.03125,1221.2812 C -551.91905,1220.9364 -552.00228,1220.5578 -552.24878,1220.2919 C -552.49527,1220.0259 -552.86642,1219.9143 -553.21875,1220 z"
       id="path10224"
       style="fill:#bebebe;fill-opacity:1;stroke:none;stroke-width:2;stroke-linecap:round;stroke-linejoin:miter;marker:none;stroke-miterlimit:4;stroke-dasharray:none;stroke-dashoffset:0;stroke-opacity:1;visibility:visible;display:inline;overflow:visible;enable-background:accumulate" />
    <path
       d="M -561.15625,1224 C -561.70853,1224.0259 -562.13526,1224.4946 -562.10937,1225.0469 C -562.08349,1225.5992 -561.61478,1226.0259 -561.0625,1226 L -552.9375,1226 C -552.57686,1226.0051 -552.24142,1225.8156 -552.05961,1225.5041 C -551.87781,1225.1926 -551.87781,1224.8074 -552.05961,1224.4959 C -552.24142,1224.1844 -552.57686,1223.9949 -552.9375,1224 L -561.0625,1224 C -561.09373,1223.9985 -561.12502,1223.9985 -561.15625,1224 L -561.15625,1224 z"
       id="path10226"
       style="fill:#bebebe;fill-opacity:1;stroke:none;stroke-width:2;stroke-linecap:round;stroke-linejoin:miter;marker:none;stroke-miterlimit:4;stroke-dasharray:none;stroke-dashoffset:0;stroke-opacity:1;visibility:visible;display:inline;overflow:visible;enable-background:accumulate" />
    <path
       d="M -563.21875,1230 C -563.77103,1230.0259 -564.19776,1230.4946 -564.17187,1231.0469 C -564.14599,1231.5992 -563.67728,1232.0259 -563.125,1232 L -555,1232 C -554.63936,1232.0051 -554.30392,1231.8156 -554.12211,1231.5041 C -553.94031,1231.1926 -553.94031,1230.8074 -554.12211,1230.4959 C -554.30392,1230.1844 -554.63936,1229.9949 -555,1230 L -563.125,1230 C -563.15623,1229.9985 -563.18752,1229.9985 -563.21875,1230 z"
       id="path10228"
       style="fill:#bebebe;fill-opacity:1;stroke:none;stroke-width:2;stroke-linecap:round;stroke-linejoin:miter;marker:none;stroke-miterlimit:4;stroke-dasharray:none;stroke-dashoffset:0;stroke-opacity:1;visibility:visible;display:inline;overflow:visible;enable-background:accumulate" />
    <path
       d="M -553.03125,1234 C -553.58353,1234.0259 -554.01026,1234.4946 -553.98437,1235.0469 C -553.95849,1235.5992 -553.48978,1236.0259 -552.9375,1236 L -545,1236 C -544.63936,1236.0051 -544.30392,1235.8156 -544.12211,1235.5041 C -543.94031,1235.1926 -543.94031,1234.8074 -544.12211,1234.4959 C -544.30392,1234.1844 -544.63936,1233.9949 -545,1234 L -552.9375,1234 C -552.96873,1233.9985 -553.00002,1233.9985 -553.03125,1234 z"
       id="path10230"
       style="fill:#bebebe;fill-opacity:1;stroke:none;stroke-width:2;stroke-linecap:round;stroke-linejoin:miter;marker:none;stroke-miterlimit:4;stroke-dasharray:none;stroke-dashoffset:0;stroke-opacity:1;visibility:visible;display:inline;overflow:visible;enable-background:accumulate" />
  </g>
  <g
     transform="translate(566,-1214)"
     id="layer4" />
  <g
     transform="translate(566,-1214)"
     id="layer9" />
  <g
     transform="translate(566,-1214)"
     id="layer10" />
  <g
     transform="translate(566,-1214)"
     id="layer6" />
</svg>
