<?xml version="1.0" encoding="UTF-8" standalone="no"?>
<!-- Created with Inkscape (http://www.inkscape.org/) -->
<svg
   xmlns:svg="http://www.w3.org/2000/svg"
   xmlns="http://www.w3.org/2000/svg"
   version="1.0"
   width="24"
   height="24"
   id="svg7384">
  <title
     id="title9167">Moblin Icon Theme</title>
  <defs
     id="defs7386" />
  <g
     transform="translate(566,-1164)"
     id="layer3" />
  <g
     transform="translate(566,-1164)"
     id="layer5" />
  <g
     transform="translate(566,-1164)"
     id="layer7" />
  <g
     transform="translate(566,-1164)"
     id="layer2" />
  <g
     transform="translate(566,-1164)"
     id="layer8" />
  <g
     transform="translate(566,-2116.3622)"
     id="layer1" />
  <g
     transform="translate(566,-1164)"
     id="layer11">
    <rect
       width="24"
       height="24"
       x="-566"
       y="1164"
       id="rect10210"
       style="opacity:0;fill:#ffffff;fill-opacity:1;stroke:none;display:inline" />
    <path
       d="M -559.21875,1170 C -559.58334,1170.0808 -559.87256,1170.358 -559.96875,1170.7188 L -563.96875,1184.6562 C -564.12411,1185.1912 -563.81633,1185.7509 -563.2813,1185.9062 C -562.74627,1186.0616 -562.18661,1185.7538 -562.03125,1185.2188 L -558.03125,1171.2812 C -557.91905,1170.9364 -558.00228,1170.5578 -558.24878,1170.2919 C -558.49527,1170.0259 -558.86642,1169.9143 -559.21875,1170 L -559.21875,1170 z"
       id="path10222"
       style="fill:#bebebe;fill-opacity:1;stroke:none;stroke-width:2;stroke-linecap:round;stroke-linejoin:miter;marker:none;stroke-miterlimit:4;stroke-dasharray:none;stroke-dashoffset:0;stroke-opacity:1;visibility:visible;display:inline;overflow:visible;enable-background:accumulate" />
    <path
       d="M -553.21875,1170 C -553.58334,1170.0808 -553.87256,1170.358 -553.96875,1170.7188 L -557.96875,1184.6562 C -558.12411,1185.1912 -557.81633,1185.7509 -557.2813,1185.9062 C -556.74627,1186.0616 -556.18661,1185.7538 -556.03125,1185.2188 L -552.03125,1171.2812 C -551.91905,1170.9364 -552.00228,1170.5578 -552.24878,1170.2919 C -552.49527,1170.0259 -552.86642,1169.9143 -553.21875,1170 L -553.21875,1170 z"
       id="path10224"
       style="fill:#bebebe;fill-opacity:1;stroke:none;stroke-width:2;stroke-linecap:round;stroke-linejoin:miter;marker:none;stroke-miterlimit:4;stroke-dasharray:none;stroke-dashoffset:0;stroke-opacity:1;visibility:visible;display:inline;overflow:visible;enable-background:accumulate" />
    <path
       d="M -561.15625,1174 C -561.70853,1174.0259 -562.13526,1174.4946 -562.10937,1175.0469 C -562.08349,1175.5992 -561.61478,1176.0259 -561.0625,1176 L -552.9375,1176 C -552.57686,1176.0051 -552.24142,1175.8156 -552.05961,1175.5041 C -551.87781,1175.1926 -551.87781,1174.8074 -552.05961,1174.4959 C -552.24142,1174.1844 -552.57686,1173.9949 -552.9375,1174 L -561.0625,1174 C -561.09373,1173.9985 -561.12502,1173.9985 -561.15625,1174 z"
       id="path10226"
       style="fill:#bebebe;fill-opacity:1;stroke:none;stroke-width:2;stroke-linecap:round;stroke-linejoin:miter;marker:none;stroke-miterlimit:4;stroke-dasharray:none;stroke-dashoffset:0;stroke-opacity:1;visibility:visible;display:inline;overflow:visible;enable-background:accumulate" />
    <path
       d="M -563.21875,1180 C -563.77103,1180.0259 -564.19776,1180.4946 -564.17187,1181.0469 C -564.14599,1181.5992 -563.67728,1182.0259 -563.125,1182 L -555,1182 C -554.63936,1182.0051 -554.30392,1181.8156 -554.12211,1181.5041 C -553.94031,1181.1926 -553.94031,1180.8074 -554.12211,1180.4959 C -554.30392,1180.1844 -554.63936,1179.9949 -555,1180 L -563.125,1180 C -563.15623,1179.9985 -563.18752,1179.9985 -563.21875,1180 z"
       id="path10228"
       style="fill:#bebebe;fill-opacity:1;stroke:none;stroke-width:2;stroke-linecap:round;stroke-linejoin:miter;marker:none;stroke-miterlimit:4;stroke-dasharray:none;stroke-dashoffset:0;stroke-opacity:1;visibility:visible;display:inline;overflow:visible;enable-background:accumulate" />
    <path
       d="M -553.03125,1184 C -553.58353,1184.0259 -554.01026,1184.4946 -553.98437,1185.0469 C -553.95849,1185.5992 -553.48978,1186.0259 -552.9375,1186 L -545,1186 C -544.63936,1186.0051 -544.30392,1185.8156 -544.12211,1185.5041 C -543.94031,1185.1926 -543.94031,1184.8074 -544.12211,1184.4959 C -544.30392,1184.1844 -544.63936,1183.9949 -545,1184 L -552.9375,1184 C -552.96873,1183.9985 -553.00002,1183.9985 -553.03125,1184 z"
       id="path10230"
       style="fill:#bebebe;fill-opacity:1;stroke:none;stroke-width:2;stroke-linecap:round;stroke-linejoin:miter;marker:none;stroke-miterlimit:4;stroke-dasharray:none;stroke-dashoffset:0;stroke-opacity:1;visibility:visible;display:inline;overflow:visible;enable-background:accumulate" />
  </g>
  <g
     transform="translate(566,-1164)"
     id="layer4" />
  <g
     transform="translate(566,-1164)"
     id="layer12" />
  <g
     transform="translate(566,-1164)"
     id="layer9" />
  <g
     transform="translate(566,-1164)"
     id="layer10" />
  <g
     transform="translate(566,-1164)"
     id="layer6" />
</svg>
