<?xml version="1.0" encoding="UTF-8" standalone="no"?>
<!-- Created with Inkscape (http://www.inkscape.org/) -->
<svg
   xmlns:svg="http://www.w3.org/2000/svg"
   xmlns="http://www.w3.org/2000/svg"
   version="1.0"
   width="24"
   height="24.0625"
   id="svg7384">
  <title
     id="title9167">Moblin Icon Theme</title>
  <defs
     id="defs7386" />
  <g
     transform="translate(396,-1184)"
     id="layer3" />
  <g
     transform="translate(396,-1184)"
     id="layer5" />
  <g
     transform="translate(396,-1184)"
     id="layer7" />
  <g
     transform="translate(396,-1184)"
     id="layer2" />
  <g
     transform="translate(396,-1184)"
     id="layer8" />
  <g
     transform="translate(396,-2136.3622)"
     id="layer1" />
  <g
     transform="translate(396,-1184)"
     id="layer11">
    <rect
       width="24"
       height="24"
       x="372"
       y="1184"
       transform="scale(-1,1)"
       id="rect8922-6"
       style="opacity:0;fill:#ffffff;fill-opacity:1;stroke:none;display:inline" />
    <path
       d="M -376.25,1187 C -376.80228,1187.0086 -377.243,1187.4633 -377.23438,1188.0156 C -377.22575,1188.5679 -376.77103,1189.0086 -376.21875,1189 L -376.03125,1189 C -376.03635,1189.3606 -375.84687,1189.6961 -375.53538,1189.8779 C -375.22388,1190.0597 -374.83862,1190.0597 -374.52712,1189.8779 C -374.21563,1189.6961 -374.02615,1189.3606 -374.03125,1189 L -374.03125,1188 C -374.03131,1187.4477 -374.47899,1187.0001 -375.03125,1187 L -376.25,1187 z M -392.96875,1187.0938 C -393.52101,1187.0939 -393.96869,1187.5415 -393.96875,1188.0938 L -394.03125,1207.0625 C -394.03119,1207.6148 -393.58351,1208.0624 -393.03125,1208.0625 L -375.03125,1208.0625 C -374.47899,1208.0624 -374.03131,1207.6148 -374.03125,1207.0625 L -374.03125,1198.125 C -374.02615,1197.7644 -374.21563,1197.4289 -374.52712,1197.2471 C -374.83862,1197.0653 -375.22388,1197.0653 -375.53538,1197.2471 C -375.84687,1197.4289 -376.03635,1197.7644 -376.03125,1198.125 L -376.03125,1206.0625 L -392.03125,1206.0625 L -391.96875,1189.125 L -391.875,1189.125 C -391.51436,1189.1301 -391.17892,1188.9406 -390.99711,1188.6291 C -390.81531,1188.3176 -390.81531,1187.9324 -390.99711,1187.6209 C -391.17892,1187.3094 -391.51436,1187.1199 -391.875,1187.125 L -392.96875,1187.0938 z"
       id="path15573-3"
       style="fill:#bebebe;fill-opacity:1;stroke:none;stroke-width:2;stroke-linecap:round;stroke-linejoin:round;marker:none;stroke-miterlimit:4;stroke-dasharray:none;stroke-dashoffset:0;stroke-opacity:1;visibility:visible;display:inline;overflow:visible;enable-background:accumulate" />
    <path
       d="M -387.125,1184 C -387.64036,1184.0486 -388.03348,1184.4824 -388.03125,1185 L -388.03125,1187.5312 L -389.625,1188.875 C -389.85052,1189.071 -389.97661,1189.3575 -389.96875,1189.6562 L -389.96875,1191 C -389.96869,1191.5523 -389.52101,1191.9999 -388.96875,1192 L -379.03125,1192 C -378.47899,1191.9999 -378.03131,1191.5523 -378.03125,1191 L -378.03125,1189.6875 C -378.03106,1189.3836 -378.16904,1189.0961 -378.40625,1188.9062 L -380.03125,1187.5312 L -380.03125,1185 C -380.03131,1184.4477 -380.47899,1184.0001 -381.03125,1184 L -387.03125,1184 C -387.06248,1183.9985 -387.09377,1183.9985 -387.125,1184 z M -386.03125,1186 L -382.03125,1186 L -382.03125,1188 C -382.03911,1188.2987 -381.91302,1188.5852 -381.6875,1188.7812 L -380.21875,1190 L -387.84375,1190 L -386.375,1188.75 C -386.15783,1188.5611 -386.03257,1188.2878 -386.03125,1188 L -386.03125,1186 z"
       id="path15577-2"
       style="fill:#bebebe;fill-opacity:1;stroke:none;stroke-width:2;stroke-linecap:round;stroke-linejoin:round;marker:none;stroke-miterlimit:4;stroke-dasharray:none;stroke-dashoffset:0;stroke-opacity:1;visibility:visible;display:inline;overflow:visible;enable-background:accumulate" />
    <path
       d="M -389.59375,1193.0312 C -389.82034,1193.0896 -389.97613,1193.2973 -389.96875,1193.5312 L -389.96875,1203.5625 L -389.96875,1204.0625 L -389.46875,1204.0625 L -386.53125,1204.0625 C -386.35093,1204.0651 -386.18321,1203.9703 -386.09231,1203.8146 C -386.0014,1203.6588 -386.0014,1203.4662 -386.09231,1203.3104 C -386.18321,1203.1547 -386.35093,1203.0599 -386.53125,1203.0625 L -388.96875,1203.0625 L -388.96875,1193.5312 C -388.96375,1193.3738 -389.03319,1193.2232 -389.15617,1193.1248 C -389.27914,1193.0265 -389.44128,1192.9918 -389.59375,1193.0312 z"
       id="path9138-1"
       style="fill:#bebebe;fill-opacity:1;stroke:none;stroke-width:1px;stroke-linecap:round;stroke-linejoin:miter;stroke-opacity:1" />
    <path
       d="M -373.1875,1190.0625 C -373.41145,1190.0867 -373.62066,1190.1858 -373.78125,1190.3438 L -383,1199.5625 L -384.28125,1198.2812 C -384.67823,1197.8842 -385.32185,1197.8843 -385.7188,1198.2812 C -386.11575,1198.6782 -386.11573,1199.3218 -385.71875,1199.7188 L -383.71875,1201.7188 L -383,1202.4062 L -382.28125,1201.7188 L -372.34375,1191.7812 C -372.02113,1191.4807 -371.93335,1191.0044 -372.12764,1190.6086 C -372.32192,1190.2129 -372.75245,1189.991 -373.1875,1190.0625 L -373.1875,1190.0625 z"
       id="path10051"
       style="fill:#bebebe;fill-opacity:1;stroke:none;stroke-width:2;stroke-linecap:round;stroke-linejoin:miter;marker:none;stroke-miterlimit:4;stroke-dasharray:none;stroke-dashoffset:0;stroke-opacity:1;visibility:visible;display:inline;overflow:visible;enable-background:accumulate" />
  </g>
  <g
     transform="translate(396,-1184)"
     id="layer4" />
  <g
     transform="translate(396,-1184)"
     id="layer9" />
  <g
     transform="translate(396,-1184)"
     id="layer10" />
  <g
     transform="translate(396,-1184)"
     id="layer6" />
</svg>
