<?xml version="1.0" encoding="UTF-8" standalone="no"?>
<!-- Created with Inkscape (http://www.inkscape.org/) -->
<svg
   xmlns:svg="http://www.w3.org/2000/svg"
   xmlns="http://www.w3.org/2000/svg"
   version="1.0"
   width="24"
   height="24.0625"
   id="svg7384">
  <title
     id="title9167">Moblin Icon Theme</title>
  <defs
     id="defs7386" />
  <g
     transform="translate(395.99995,-1134)"
     id="layer3" />
  <g
     transform="translate(395.99995,-1134)"
     id="layer5" />
  <g
     transform="translate(395.99995,-1134)"
     id="layer7" />
  <g
     transform="translate(395.99995,-1134)"
     id="layer2" />
  <g
     transform="translate(395.99995,-1134)"
     id="layer8" />
  <g
     transform="translate(395.99995,-2086.3622)"
     id="layer1" />
  <g
     transform="translate(395.99995,-1134)"
     id="layer11">
    <rect
       width="24"
       height="24"
       x="371.99997"
       y="1134"
       transform="scale(-1,1)"
       id="rect8922-6"
       style="opacity:0;fill:#ffffff;fill-opacity:1;stroke:none;display:inline" />
    <path
       d="M -376.25,1137 C -376.80228,1137.0086 -377.243,1137.4633 -377.23438,1138.0156 C -377.22575,1138.5679 -376.77103,1139.0086 -376.21875,1139 L -376.03125,1139 C -376.03635,1139.3606 -375.84687,1139.6961 -375.53538,1139.8779 C -375.22388,1140.0597 -374.83862,1140.0597 -374.52712,1139.8779 C -374.21563,1139.6961 -374.02615,1139.3606 -374.03125,1139 L -374.03125,1138 C -374.03131,1137.4477 -374.47899,1137.0001 -375.03125,1137 L -376.25,1137 z M -392.96875,1137.0938 C -393.52101,1137.0939 -393.96869,1137.5415 -393.96875,1138.0938 L -394.03125,1157.0625 C -394.03119,1157.6148 -393.58351,1158.0624 -393.03125,1158.0625 L -375.03125,1158.0625 C -374.47899,1158.0624 -374.03131,1157.6148 -374.03125,1157.0625 L -374.03125,1148.125 C -374.02615,1147.7644 -374.21563,1147.4289 -374.52712,1147.2471 C -374.83862,1147.0653 -375.22388,1147.0653 -375.53538,1147.2471 C -375.84687,1147.4289 -376.03635,1147.7644 -376.03125,1148.125 L -376.03125,1156.0625 L -392.03125,1156.0625 L -391.96875,1139.125 L -391.875,1139.125 C -391.51436,1139.1301 -391.17892,1138.9406 -390.99711,1138.6291 C -390.81531,1138.3176 -390.81531,1137.9324 -390.99711,1137.6209 C -391.17892,1137.3094 -391.51436,1137.1199 -391.875,1137.125 L -392.96875,1137.0938 z"
       id="path15573-3"
       style="fill:#bebebe;fill-opacity:1;stroke:none;stroke-width:2;stroke-linecap:round;stroke-linejoin:round;marker:none;stroke-miterlimit:4;stroke-dasharray:none;stroke-dashoffset:0;stroke-opacity:1;visibility:visible;display:inline;overflow:visible;enable-background:accumulate" />
    <path
       d="M -387.125,1134 C -387.64036,1134.0486 -388.03348,1134.4824 -388.03125,1135 L -388.03125,1137.5312 L -389.625,1138.875 C -389.85052,1139.071 -389.97661,1139.3575 -389.96875,1139.6562 L -389.96875,1141 C -389.96869,1141.5523 -389.52101,1141.9999 -388.96875,1142 L -379.03125,1142 C -378.47899,1141.9999 -378.03131,1141.5523 -378.03125,1141 L -378.03125,1139.6875 C -378.03106,1139.3836 -378.16904,1139.0961 -378.40625,1138.9062 L -380.03125,1137.5312 L -380.03125,1135 C -380.03131,1134.4477 -380.47899,1134.0001 -381.03125,1134 L -387.03125,1134 C -387.06248,1133.9985 -387.09377,1133.9985 -387.125,1134 z M -386.03125,1136 L -382.03125,1136 L -382.03125,1138 C -382.03911,1138.2987 -381.91302,1138.5852 -381.6875,1138.7812 L -380.21875,1140 L -387.84375,1140 L -386.375,1138.75 C -386.15783,1138.5611 -386.03257,1138.2878 -386.03125,1138 L -386.03125,1136 z"
       id="path15577-2"
       style="fill:#bebebe;fill-opacity:1;stroke:none;stroke-width:2;stroke-linecap:round;stroke-linejoin:round;marker:none;stroke-miterlimit:4;stroke-dasharray:none;stroke-dashoffset:0;stroke-opacity:1;visibility:visible;display:inline;overflow:visible;enable-background:accumulate" />
    <path
       d="M -389.59375,1143.0312 C -389.82034,1143.0896 -389.97613,1143.2973 -389.96875,1143.5312 L -389.96875,1153.5625 L -389.96875,1154.0625 L -389.46875,1154.0625 L -386.53125,1154.0625 C -386.35093,1154.0651 -386.18321,1153.9703 -386.09231,1153.8146 C -386.0014,1153.6588 -386.0014,1153.4662 -386.09231,1153.3104 C -386.18321,1153.1547 -386.35093,1153.0599 -386.53125,1153.0625 L -388.96875,1153.0625 L -388.96875,1143.5312 C -388.96375,1143.3738 -389.03319,1143.2232 -389.15617,1143.1248 C -389.27914,1143.0265 -389.44128,1142.9918 -389.59375,1143.0312 z"
       id="path9138-1"
       style="fill:#bebebe;fill-opacity:1;stroke:none;stroke-width:1px;stroke-linecap:round;stroke-linejoin:miter;stroke-opacity:1" />
    <path
       d="M -373.1875,1140.0625 C -373.41145,1140.0867 -373.62066,1140.1858 -373.78125,1140.3438 L -383,1149.5625 L -384.28125,1148.2812 C -384.67823,1147.8842 -385.32185,1147.8843 -385.7188,1148.2812 C -386.11575,1148.6782 -386.11573,1149.3218 -385.71875,1149.7188 L -383.71875,1151.7188 L -383,1152.4062 L -382.28125,1151.7188 L -372.34375,1141.7812 C -372.02113,1141.4807 -371.93335,1141.0044 -372.12764,1140.6086 C -372.32192,1140.2129 -372.75245,1139.991 -373.1875,1140.0625 L -373.1875,1140.0625 z"
       id="path10051"
       style="fill:#bebebe;fill-opacity:1;stroke:none;stroke-width:2;stroke-linecap:round;stroke-linejoin:miter;marker:none;stroke-miterlimit:4;stroke-dasharray:none;stroke-dashoffset:0;stroke-opacity:1;visibility:visible;display:inline;overflow:visible;enable-background:accumulate" />
  </g>
  <g
     transform="translate(395.99995,-1134)"
     id="layer4" />
  <g
     transform="translate(395.99995,-1134)"
     id="layer12" />
  <g
     transform="translate(395.99995,-1134)"
     id="layer9" />
  <g
     transform="translate(395.99995,-1134)"
     id="layer10" />
  <g
     transform="translate(395.99995,-1134)"
     id="layer6" />
</svg>
