<?xml version="1.0" encoding="UTF-8" standalone="no"?>
<!-- Created with Inkscape (http://www.inkscape.org/) -->
<svg
   xmlns:svg="http://www.w3.org/2000/svg"
   xmlns="http://www.w3.org/2000/svg"
   version="1.0"
   width="24.09967"
   height="24"
   id="svg7384">
  <title
     id="title9167">Moblin Icon Theme</title>
  <defs
     id="defs7386" />
  <g
     transform="translate(509.97227,-1344)"
     id="layer3" />
  <g
     transform="translate(509.97227,-1344)"
     id="layer5" />
  <g
     transform="translate(509.97227,-1344)"
     id="layer7" />
  <g
     transform="translate(509.97227,-1344)"
     id="layer2" />
  <g
     transform="translate(509.97227,-1344)"
     id="layer8" />
  <g
     transform="translate(509.97227,-2296.3622)"
     id="layer1" />
  <g
     transform="translate(509.97227,-1344)"
     id="layer11">
    <rect
       width="24"
       height="24"
       x="-509.87259"
       y="1344"
       id="rect8890"
       style="opacity:0;fill:#ffffff;fill-opacity:1;stroke:none;display:inline" />
    <path
       d="M -506.59727,1346.0223 C -508.46702,1346.0223 -509.97227,1347.5276 -509.97227,1349.3973 L -509.97227,1362.6285 C -509.97227,1364.4983 -508.46702,1366.0035 -506.59727,1366.0035 L -489.30362,1366.0035 C -487.43387,1366.0035 -485.92862,1364.4983 -485.92862,1362.6285 L -485.92862,1349.3973 C -485.92862,1347.5276 -487.43387,1346.0223 -489.30362,1346.0223 L -506.59727,1346.0223 z M -502.03125,1351.8125 L -493.9375,1355.9688 L -502.03125,1359.9062 L -502.03125,1351.8125 L -502.03125,1351.8125 z"
       id="rect8892"
       style="fill:#bebebe;fill-opacity:1;stroke:none;stroke-width:1.99999988;stroke-linecap:butt;stroke-linejoin:miter;marker:none;stroke-miterlimit:4;stroke-dasharray:none;stroke-dashoffset:0;stroke-opacity:1;visibility:visible;display:inline;overflow:visible;enable-background:accumulate" />
  </g>
  <g
     transform="translate(509.97227,-1344)"
     id="layer4" />
  <g
     transform="translate(509.97227,-1344)"
     id="layer12" />
  <g
     transform="translate(509.97227,-1344)"
     id="layer9" />
  <g
     transform="translate(509.97227,-1344)"
     id="layer10" />
  <g
     transform="translate(509.97227,-1344)"
     id="layer6" />
</svg>
