<?xml version="1.0" encoding="UTF-8" standalone="no"?>
<!-- Created with Inkscape (http://www.inkscape.org/) -->
<svg
   xmlns:svg="http://www.w3.org/2000/svg"
   xmlns="http://www.w3.org/2000/svg"
   version="1.0"
   width="24.000004"
   height="24"
   id="svg7384">
  <title
     id="title9167">Moblin Icon Theme</title>
  <defs
     id="defs7386" />
  <g
     transform="translate(425.99995,-928)"
     id="layer3" />
  <g
     transform="translate(425.99995,-928)"
     id="layer5" />
  <g
     transform="translate(425.99995,-928)"
     id="layer7" />
  <g
     transform="translate(425.99995,-928)"
     id="layer2" />
  <g
     transform="translate(425.99995,-928)"
     id="layer8" />
  <g
     transform="translate(425.99995,-1880.3622)"
     id="layer1" />
  <g
     transform="translate(425.99995,-928)"
     id="layer11">
    <g
       transform="translate(-474.99995,560.63782)"
       id="use14633">
      <rect
         width="24"
         height="24"
         x="49"
         y="367.36218"
         id="rect11913"
         style="opacity:0;fill:#ffffff;fill-opacity:1;stroke:none;display:inline" />
      <path
         d="M 54,386.29968 L 54,390.36218 C 54,390.36218 72,390.36218 72,390.36218 L 72,370.36218 L 62.875,370.36218"
         id="path11915"
         style="fill:none;stroke:#bebebe;stroke-width:2;stroke-linecap:round;stroke-linejoin:round;stroke-miterlimit:4;stroke-dasharray:none;stroke-opacity:1" />
      <path
         d="M 63,371.36224 L 71.4375,371.36224 L 71.4375,373.36224 L 63.9375,373.36224 C 63.731678,372.6689 63.817331,371.9027 63,371.36224 z"
         id="path11917"
         style="fill:#bebebe;fill-opacity:1;stroke:none;stroke-width:2;marker:none;visibility:visible;display:inline;overflow:visible;enable-background:accumulate" />
      <path
         d="M -442.75,988.03125 A 3.15625,3.15625 0 1 1 -449.0625,988.03125 A 3.15625,3.15625 0 1 1 -442.75,988.03125 z"
         transform="matrix(0.9504951,0,0,0.9504951,476.83168,-563.75663)"
         id="path11919"
         style="fill:none;stroke:#bebebe;stroke-width:2.10416675;stroke-linecap:round;stroke-linejoin:round;marker:none;stroke-miterlimit:4;stroke-dasharray:none;stroke-dashoffset:0;stroke-opacity:1;visibility:visible;display:inline;overflow:visible;enable-background:accumulate" />
      <path
         d="M -442.75,988.03125 A 3.15625,3.15625 0 1 1 -449.0625,988.03125 A 3.15625,3.15625 0 1 1 -442.75,988.03125 z"
         transform="matrix(0.9504951,0,0,0.9504951,482.83168,-563.75663)"
         id="path11921"
         style="fill:none;stroke:#bebebe;stroke-width:2.10416675;stroke-linecap:round;stroke-linejoin:round;marker:none;stroke-miterlimit:4;stroke-dasharray:none;stroke-dashoffset:0;stroke-opacity:1;visibility:visible;display:inline;overflow:visible;enable-background:accumulate" />
      <path
         d="M 60,378.29968 L 60,382.42468 L 52,382.42468 L 52,378.29968"
         id="path11923"
         style="fill:none;stroke:#bebebe;stroke-width:2;stroke-linecap:round;stroke-linejoin:round;marker:none;stroke-miterlimit:4;stroke-dashoffset:0;stroke-opacity:1;visibility:visible;display:inline;overflow:visible;enable-background:accumulate" />
      <path
         d="M -443,991 L -439,993 L -439,986.875 L -441.4375,987.625"
         transform="translate(503,-610.63782)"
         id="path11925"
         style="fill:none;stroke:#bebebe;stroke-width:2;stroke-linecap:round;stroke-linejoin:round;marker:none;stroke-miterlimit:4;stroke-dasharray:none;stroke-dashoffset:0;stroke-opacity:1;visibility:visible;display:inline;overflow:visible;enable-background:accumulate" />
    </g>
  </g>
  <g
     transform="translate(425.99995,-928)"
     id="layer4" />
  <g
     transform="translate(425.99995,-928)"
     id="layer12" />
  <g
     transform="translate(425.99995,-928)"
     id="layer9" />
  <g
     transform="translate(425.99995,-928)"
     id="layer10" />
  <g
     transform="translate(425.99995,-928)"
     id="layer6" />
</svg>
