<?xml version="1.0" encoding="UTF-8" standalone="no"?>
<!-- Created with Inkscape (http://www.inkscape.org/) -->
<svg
   xmlns:svg="http://www.w3.org/2000/svg"
   xmlns="http://www.w3.org/2000/svg"
   version="1.0"
   width="24"
   height="24.014791"
   id="svg7384">
  <title
     id="title9167">Moblin Icon Theme</title>
  <defs
     id="defs7386" />
  <g
     transform="translate(617.99998,-949.9852)"
     id="layer3" />
  <g
     transform="translate(617.99998,-949.9852)"
     id="layer5" />
  <g
     transform="translate(617.99998,-949.9852)"
     id="layer7" />
  <g
     transform="translate(617.99998,-949.9852)"
     id="layer2" />
  <g
     transform="translate(617.99998,-949.9852)"
     id="layer8" />
  <g
     transform="translate(617.99998,-1902.3474)"
     id="layer1" />
  <g
     transform="translate(617.99998,-949.9852)"
     id="layer11">
    <rect
       width="24"
       height="24"
       x="594"
       y="950"
       transform="scale(-1,1)"
       id="rect5386"
       style="opacity:0;fill:#ffffff;fill-opacity:1;stroke:none;display:inline" />
    <path
       d="M -610.5,950 C -611.2512,950.04885 -611.99525,950.22284 -612.6875,950.46875 L -614.15625,951 L -613.0625,952.125 L -609.3125,955.875 L -612.125,958.6875 L -615.875,954.9375 L -617,953.84375 L -617.53125,955.3125 C -618.53353,958.13315 -617.90266,961.41007 -615.65625,963.65625 C -613.27603,966.03658 -609.79385,966.48157 -606.875,965.21875 L -601.96875,970.125 C -600.80116,971.29259 -598.85509,971.29259 -597.6875,970.125 C -596.52931,968.96681 -596.52931,967.03319 -597.6875,965.875 L -602.65625,960.90625 C -601.52327,958.02995 -602.0254,954.63091 -604.34375,952.3125 C -606.02827,950.6281 -608.28952,949.85625 -610.5,950 z M -610.3125,952 C -608.67346,951.91032 -607.04125,952.49008 -605.78125,953.75 C -603.8634,955.6679 -603.50927,958.54513 -604.71875,960.8125 L -605.1875,961.6875 L -604.3125,962.15625 C -604.21265,962.20977 -604.1612,962.2763 -604.09375,962.34375 L -599.125,967.3125 C -598.71625,967.72125 -598.71625,968.27875 -599.125,968.6875 C -599.52435,969.08685 -600.1319,969.08685 -600.53125,968.6875 L -605.46875,963.75 C -605.50033,963.71842 -605.54972,963.66474 -605.625,963.53125 L -606.125,962.65625 L -607,963.15625 C -609.29788,964.49194 -612.24357,964.19403 -614.21875,962.21875 C -615.42095,961.01667 -615.80495,959.46603 -615.78125,957.90625 L -613.5625,960.125 C -612.77719,960.91001 -611.47266,960.91047 -610.6875,960.125 L -607.875,957.28125 C -607.10852,956.51477 -607.10855,955.20399 -607.875,954.4375 L -610.3125,952 z"
       id="path5394"
       style="fill:#bebebe;fill-opacity:1;stroke:none;stroke-width:2.00000048;stroke-linecap:round;stroke-linejoin:miter;marker:none;stroke-miterlimit:4;stroke-dasharray:none;stroke-dashoffset:0;stroke-opacity:1;visibility:visible;display:inline;overflow:visible;enable-background:accumulate" />
  </g>
  <g
     transform="translate(617.99998,-949.9852)"
     id="layer4" />
  <g
     transform="translate(617.99998,-949.9852)"
     id="layer9" />
  <g
     transform="translate(617.99998,-949.9852)"
     id="layer10" />
  <g
     transform="translate(617.99998,-949.9852)"
     id="layer6" />
</svg>
