<?xml version="1.0" encoding="UTF-8" standalone="no"?>
<!-- Created with Inkscape (http://www.inkscape.org/) -->
<svg
   xmlns:svg="http://www.w3.org/2000/svg"
   xmlns="http://www.w3.org/2000/svg"
   version="1.0"
   width="24.052893"
   height="24.04825"
   id="svg7384">
  <title
     id="title9167">Moblin Icon Theme</title>
  <defs
     id="defs7386" />
  <g
     transform="translate(590,-1330.1723)"
     id="layer3" />
  <g
     transform="translate(590,-1330.1723)"
     id="layer5" />
  <g
     transform="translate(590,-1330.1723)"
     id="layer7" />
  <g
     transform="translate(590,-1330.1723)"
     id="layer2" />
  <g
     transform="translate(590,-1330.1723)"
     id="layer8" />
  <g
     transform="translate(590,-2282.5345)"
     id="layer1" />
  <g
     transform="translate(590,-1330.1723)"
     id="layer11">
    <rect
       width="24"
       height="24"
       x="-589.9892"
       y="1330.2206"
       id="rect6967-1"
       style="opacity:0;fill:#ffffff;fill-opacity:1;stroke:none;display:inline" />
    <path
       d="M -581.09375,1349.2188 C -581.64603,1349.2447 -582.07276,1349.7134 -582.04687,1350.2657 C -582.02099,1350.818 -581.55228,1351.2447 -581,1351.2188 L -575.09375,1351.2188 C -574.73312,1351.2239 -574.39768,1351.0344 -574.21587,1350.7229 C -574.03407,1350.4114 -574.03407,1350.0262 -574.21587,1349.7147 C -574.39768,1349.4032 -574.73312,1349.2137 -575.09375,1349.2188 L -581,1349.2188 C -581.03123,1349.2173 -581.06252,1349.2173 -581.09375,1349.2188 z"
       id="path6971-4"
       style="fill:#bebebe;fill-opacity:1;fill-rule:nonzero;stroke:none;stroke-width:1.99999964;stroke-linecap:round;stroke-linejoin:miter;marker:none;stroke-miterlimit:4;stroke-dasharray:none;stroke-dashoffset:0;stroke-opacity:1;visibility:visible;display:inline;overflow:visible;enable-background:new" />
    <path
       d="M -586.75,1330.1875 C -588.539,1330.1875 -590,1331.6485 -590,1333.4375 L -590,1344.9688 C -590,1346.7577 -588.53899,1348.2188 -586.75,1348.2188 L -569.21875,1348.2188 C -567.42975,1348.2188 -565.93754,1346.7578 -565.9375,1344.9688 L -565.9375,1333.4375 C -565.9375,1331.6485 -567.42974,1330.1875 -569.21875,1330.1875 L -586.75,1330.1875 z M -586.75,1332.1875 L -569.21875,1332.1875 C -568.50314,1332.1875 -567.9375,1332.7219 -567.9375,1333.4375 L -567.9375,1344.9688 C -567.93751,1345.6844 -568.50316,1346.2188 -569.21875,1346.2188 L -586.75,1346.2188 C -587.46556,1346.2188 -588,1345.6843 -588,1344.9688 L -588,1333.4375 C -588,1332.7219 -587.46559,1332.1875 -586.75,1332.1875 z"
       id="rect6989-0"
       style="fill:#bebebe;fill-opacity:1;stroke:none;stroke-width:2;stroke-linecap:round;stroke-linejoin:round;marker:none;stroke-miterlimit:4;stroke-dasharray:none;stroke-dashoffset:0;stroke-opacity:1;visibility:visible;display:inline;overflow:visible;enable-background:accumulate" />
    <path
       d="M -586.625,1333.25 C -586.83916,1333.3202 -586.97993,1333.5249 -586.96875,1333.75 L -586.96875,1344.75 C -586.96872,1345.0261 -586.74488,1345.25 -586.46875,1345.25 L -569.5,1345.25 C -569.22387,1345.25 -569.00003,1345.0261 -569,1344.75 L -569,1333.75 C -569.00003,1333.4739 -569.22387,1333.25 -569.5,1333.25 L -586.46875,1333.25 C -586.52051,1333.2418 -586.57324,1333.2418 -586.625,1333.25 z M -585.96875,1334.25 L -570,1334.25 L -570,1344.25 L -585.96875,1344.25 L -585.96875,1334.25 z"
       id="rect7001-6"
       style="fill:#bebebe;fill-opacity:1;stroke:none;stroke-width:1;stroke-linecap:round;stroke-linejoin:round;marker:none;stroke-miterlimit:4;stroke-dasharray:none;stroke-dashoffset:0;stroke-opacity:1;visibility:visible;display:inline;overflow:visible;enable-background:accumulate" />
    <path
       d="M -586.40625,1334.1723 L -586.40625,1344.2973 L -569.625,1344.2973 L -569.625,1334.1723 L -586.40625,1334.1723 z M -584,1335.1723 L -580,1335.1723 L -578,1338.1098 L -576,1335.1723 L -572,1335.1723 L -576,1339.2661 L -572,1344.2035 L -576,1344.1725 L -578,1341.1413 L -580,1344.1725 L -584,1344.1725 L -579.96875,1339.1725 L -584,1335.1725 L -584,1335.1723 L -584,1335.1723 z"
       id="rect7173"
       style="fill:#bebebe;fill-opacity:1;stroke:none;stroke-width:1;marker:none;visibility:visible;display:inline;overflow:visible;enable-background:accumulate" />
  </g>
  <g
     transform="translate(590,-1330.1723)"
     id="layer4" />
  <g
     transform="translate(590,-1330.1723)"
     id="layer12" />
  <g
     transform="translate(590,-1330.1723)"
     id="layer9" />
  <g
     transform="translate(590,-1330.1723)"
     id="layer10" />
  <g
     transform="translate(590,-1330.1723)"
     id="layer6" />
</svg>
