<?xml version="1.0" encoding="UTF-8" standalone="no"?>
<!-- Created with Inkscape (http://www.inkscape.org/) -->
<svg
   xmlns:svg="http://www.w3.org/2000/svg"
   xmlns="http://www.w3.org/2000/svg"
   version="1.0"
   width="24"
   height="24"
   id="svg7384">
  <title
     id="title9167">Moblin Icon Theme</title>
  <defs
     id="defs7386" />
  <g
     transform="translate(538,-1520)"
     id="layer3" />
  <g
     transform="translate(538,-1520)"
     id="layer5" />
  <g
     transform="translate(538,-1520)"
     id="layer7" />
  <g
     transform="translate(538,-1520)"
     id="layer2" />
  <g
     transform="translate(538,-1520)"
     id="layer8" />
  <g
     transform="translate(538,-2472.3622)"
     id="layer1" />
  <g
     transform="translate(538,-1520)"
     id="layer11">
    <g
       transform="translate(-332,1346)"
       id="use7421">
      <title
         id="title12619">accessories</title>
      <rect
         width="24"
         height="24"
         x="182"
         y="174"
         transform="scale(-1,1)"
         id="rect12621"
         style="opacity:0;fill:#ffffff;fill-opacity:1;stroke:none;display:inline" />
      <path
         d="M -186.96875,181.09375 L -185.0625,182.96875 L -193,191 L -195,191 L -195,188.96875 L -186.96875,181.09375 L -186.96875,181.09375 z"
         id="path12623"
         style="fill:none;stroke:#bebebe;stroke-width:1.99999952;stroke-linecap:butt;stroke-linejoin:miter;marker:none;stroke-miterlimit:4;stroke-dasharray:none;stroke-dashoffset:0;stroke-opacity:1;visibility:visible;display:inline;overflow:visible;enable-background:accumulate" />
      <path
         d="M -187,189.97934 L -187,195.14384 C -187,196.17215 -187.82784,197 -188.85615,197 L -201.14385,197 C -202.17216,197 -203,196.17215 -203,195.14384 L -203,178.85616 C -203,177.82785 -202.17216,177 -201.14385,177 L -188.85615,177 C -188.28709,177 -187.77942,177.25353 -187.43947,177.65425"
         id="path12625"
         style="fill:none;stroke:#bebebe;stroke-width:1.99999952;stroke-linecap:round;stroke-linejoin:miter;marker:none;stroke-miterlimit:4;stroke-dashoffset:0;stroke-opacity:1;visibility:visible;display:inline;overflow:visible;enable-background:accumulate" />
      <path
         d="M -141.99588,180.96373 A 0.88388348,0.88388348 0 1 1 -143.76364,180.96373 A 0.88388348,0.88388348 0 1 1 -141.99588,180.96373 z"
         transform="matrix(1.1313682,0,0,1.1313755,-37.35038,-23.737934)"
         id="path12627"
         style="fill:#bebebe;fill-opacity:1;stroke:none;stroke-width:0.8838827;marker:none;visibility:visible;display:inline;overflow:visible;enable-background:accumulate" />
      <path
         d="M -141.99588,180.96373 A 0.88388348,0.88388348 0 1 1 -143.76364,180.96373 A 0.88388348,0.88388348 0 1 1 -141.99588,180.96373 z"
         transform="matrix(1.1313682,0,0,1.1313755,-33.350385,-23.737934)"
         id="path12629"
         style="fill:#bebebe;fill-opacity:1;stroke:none;stroke-width:0.8838827;marker:none;visibility:visible;display:inline;overflow:visible;enable-background:accumulate" />
      <path
         d="M -141.99588,180.96373 A 0.88388348,0.88388348 0 1 1 -143.76364,180.96373 A 0.88388348,0.88388348 0 1 1 -141.99588,180.96373 z"
         transform="matrix(1.1313682,0,0,1.1313755,-29.35038,-23.737934)"
         id="path12631"
         style="fill:#bebebe;fill-opacity:1;stroke:none;stroke-width:0.8838827;marker:none;visibility:visible;display:inline;overflow:visible;enable-background:accumulate" />
    </g>
  </g>
  <g
     transform="translate(538,-1520)"
     id="layer4" />
  <g
     transform="translate(538,-1520)"
     id="layer12" />
  <g
     transform="translate(538,-1520)"
     id="layer9" />
  <g
     transform="translate(538,-1520)"
     id="layer10" />
  <g
     transform="translate(538,-1520)"
     id="layer6" />
</svg>
