<?xml version="1.0" encoding="UTF-8" standalone="no"?>
<!-- Created with Inkscape (http://www.inkscape.org/) -->
<svg
   xmlns:svg="http://www.w3.org/2000/svg"
   xmlns="http://www.w3.org/2000/svg"
   xmlns:xlink="http://www.w3.org/1999/xlink"
   version="1.0"
   width="24"
   height="24.000031"
   id="svg7384">
  <title
     id="title9167">Moblin Icon Theme</title>
  <defs
     id="defs7386">
    <linearGradient
       id="linearGradient7487-6-82-9-3">
      <stop
         id="stop7489-8-9-5-2"
         style="stop-color:#bebebe;stop-opacity:1"
         offset="0" />
      <stop
         id="stop7491-2-3-1-6"
         style="stop-color:#bebebe;stop-opacity:0"
         offset="1" />
    </linearGradient>
    <linearGradient
       x1="105.91268"
       y1="121.73069"
       x2="105.91268"
       y2="115.05012"
       id="linearGradient12213"
       xlink:href="#linearGradient7487-6-82-9-3"
       gradientUnits="userSpaceOnUse"
       gradientTransform="matrix(1,0,0,1.273349,-1658.91,343.55802)" />
    <linearGradient
       x1="105.91268"
       y1="121.0463"
       x2="105.91268"
       y2="115.05012"
       id="linearGradient12217"
       xlink:href="#linearGradient7487-6-82-9-3"
       gradientUnits="userSpaceOnUse"
       gradientTransform="matrix(1,0,0,1.091442,-1658.91,-639.52169)" />
  </defs>
  <g
     transform="translate(514,-1530)"
     id="layer3" />
  <g
     transform="translate(514,-1530)"
     id="layer5" />
  <g
     transform="translate(514,-1530)"
     id="layer7" />
  <g
     transform="translate(514,-1530)"
     id="layer2" />
  <g
     transform="translate(514,-1530)"
     id="layer8" />
  <g
     transform="translate(514,-2482.3622)"
     id="layer1" />
  <g
     transform="translate(514,-1530)"
     id="layer11">
    <rect
       width="24"
       height="24"
       x="-514"
       y="1530"
       id="rect10459-0"
       style="opacity:0;fill:#ffffff;fill-opacity:1;stroke:none;display:inline" />
    <path
       d="M -508.875,1530 C -510.58895,1530 -512,1531.411 -512,1533.125 L -512,1546.875 C -512,1548.589 -510.58895,1550 -508.875,1550 L -495.125,1550 C -493.41105,1550 -492,1548.589 -492,1546.875 L -492,1533.125 C -492,1531.411 -493.41105,1530 -495.125,1530 L -508.875,1530 z M -508.875,1532 L -495.125,1532 C -494.48445,1532 -494,1532.4845 -494,1533.125 L -494,1546.875 C -494,1547.5155 -494.48445,1548 -495.125,1548 L -508.875,1548 C -509.51555,1548 -510,1547.5155 -510,1546.875 L -510,1533.125 C -510,1532.4845 -509.51555,1532 -508.875,1532 z"
       id="rect10461-6"
       style="fill:#bebebe;fill-opacity:1;stroke:none;stroke-width:2;marker:none;stroke-miterlimit:4;stroke-dasharray:none;stroke-opacity:1;visibility:visible;display:inline;overflow:visible;enable-background:new" />
    <path
       d="M -507.59375,1543 C -507.83279,1543.0456 -508.00429,1543.2567 -508,1543.5 L -508,1546.3438 C -508.00255,1546.5241 -507.90781,1546.6918 -507.75206,1546.7827 C -507.59631,1546.8736 -507.40369,1546.8736 -507.24794,1546.7827 C -507.09219,1546.6918 -506.99745,1546.5241 -507,1546.3438 L -507,1543.5 C -506.99734,1543.3494 -507.06268,1543.2057 -507.17787,1543.1087 C -507.29306,1543.0117 -507.44583,1542.9718 -507.59375,1543 z"
       id="path10463-3"
       style="fill:#bebebe;fill-opacity:1;fill-rule:nonzero;stroke:none;stroke-width:1;stroke-linecap:round;stroke-linejoin:miter;marker:none;stroke-miterlimit:4;stroke-dasharray:none;stroke-dashoffset:0;stroke-opacity:1;visibility:visible;display:inline;overflow:visible;enable-background:new" />
    <path
       d="M -505.59375,1543 C -505.83279,1543.0456 -506.00429,1543.2567 -506,1543.5 L -506,1546.3438 C -506.00255,1546.5241 -505.90781,1546.6918 -505.75206,1546.7827 C -505.59631,1546.8736 -505.40369,1546.8736 -505.24794,1546.7827 C -505.09219,1546.6918 -504.99745,1546.5241 -505,1546.3438 L -505,1543.5 C -504.99734,1543.3494 -505.06268,1543.2057 -505.17787,1543.1087 C -505.29306,1543.0117 -505.44583,1542.9718 -505.59375,1543 z"
       id="path10467-3"
       style="fill:#bebebe;fill-opacity:1;fill-rule:nonzero;stroke:none;stroke-width:1;stroke-linecap:round;stroke-linejoin:miter;marker:none;stroke-miterlimit:4;stroke-dasharray:none;stroke-dashoffset:0;stroke-opacity:1;visibility:visible;display:inline;overflow:visible;enable-background:new" />
    <path
       d="M -503.59375,1543 C -503.83279,1543.0456 -504.00429,1543.2567 -504,1543.5 L -504,1546.3438 C -504.00255,1546.5241 -503.90781,1546.6918 -503.75206,1546.7827 C -503.59631,1546.8736 -503.40369,1546.8736 -503.24794,1546.7827 C -503.09219,1546.6918 -502.99745,1546.5241 -503,1546.3438 L -503,1543.5 C -502.99734,1543.3494 -503.06268,1543.2057 -503.17787,1543.1087 C -503.29306,1543.0117 -503.44583,1542.9718 -503.59375,1543 L -503.59375,1543 z"
       id="path10469-0"
       style="fill:#bebebe;fill-opacity:1;fill-rule:nonzero;stroke:none;stroke-width:1;stroke-linecap:round;stroke-linejoin:miter;marker:none;stroke-miterlimit:4;stroke-dasharray:none;stroke-dashoffset:0;stroke-opacity:1;visibility:visible;display:inline;overflow:visible;enable-background:new" />
    <path
       d="M -501.59375,1543 C -501.83279,1543.0456 -502.00429,1543.2567 -502,1543.5 L -502,1546.3438 C -502.00255,1546.5241 -501.90781,1546.6918 -501.75206,1546.7827 C -501.59631,1546.8736 -501.40369,1546.8736 -501.24794,1546.7827 C -501.09219,1546.6918 -500.99745,1546.5241 -501,1546.3438 L -501,1543.5 C -500.99734,1543.3494 -501.06268,1543.2057 -501.17787,1543.1087 C -501.29306,1543.0117 -501.44583,1542.9718 -501.59375,1543 z"
       id="path10471-5"
       style="fill:#bebebe;fill-opacity:1;fill-rule:nonzero;stroke:none;stroke-width:1;stroke-linecap:round;stroke-linejoin:miter;marker:none;stroke-miterlimit:4;stroke-dasharray:none;stroke-dashoffset:0;stroke-opacity:1;visibility:visible;display:inline;overflow:visible;enable-background:new" />
    <rect
       width="2.0000005"
       height="12"
       rx="1.0000002"
       ry="1.0000002"
       x="-1554"
       y="-514"
       transform="matrix(0,-1,1,0,0,0)"
       id="rect7483-7"
       style="fill:url(#linearGradient12217);fill-opacity:1;stroke:none;display:inline" />
    <rect
       width="2.0000005"
       height="5"
       rx="1.0000002"
       ry="1.0000002"
       x="501.99194"
       y="-1553"
       transform="scale(-1,-1)"
       id="rect7485-1"
       style="fill:#bebebe;fill-opacity:1;stroke:none;display:inline" />
    <rect
       width="2.0000005"
       height="14"
       rx="1.0000002"
       ry="1.0000002"
       x="-1554"
       y="490"
       transform="matrix(0,-1,-1,0,0,0)"
       id="rect7495-4"
       style="fill:url(#linearGradient12213);fill-opacity:1;stroke:none;display:inline" />
  </g>
  <g
     transform="translate(514,-1530)"
     id="layer4" />
  <g
     transform="translate(514,-1530)"
     id="layer9" />
  <g
     transform="translate(514,-1530)"
     id="layer10" />
  <g
     transform="translate(514,-1530)"
     id="layer6" />
</svg>
