<?xml version="1.0" encoding="UTF-8" standalone="no"?>
<!-- Created with Inkscape (http://www.inkscape.org/) -->
<svg
   xmlns:svg="http://www.w3.org/2000/svg"
   xmlns="http://www.w3.org/2000/svg"
   version="1.0"
   width="24.044231"
   height="24.060249"
   id="svg7384">
  <title
     id="title9167">Moblin Icon Theme</title>
  <defs
     id="defs7386" />
  <g
     transform="translate(590,-1390.1723)"
     id="layer3" />
  <g
     transform="translate(590,-1390.1723)"
     id="layer5" />
  <g
     transform="translate(590,-1390.1723)"
     id="layer7" />
  <g
     transform="translate(590,-1390.1723)"
     id="layer2" />
  <g
     transform="translate(590,-1390.1723)"
     id="layer8" />
  <g
     transform="translate(590,-2342.5345)"
     id="layer1" />
  <g
     transform="translate(590,-1390.1723)"
     id="layer11">
    <rect
       width="24"
       height="24"
       x="-590"
       y="1390.1722"
       id="rect7892"
       style="opacity:0.01000001;fill:#f0f0f0;fill-opacity:1;stroke:none;display:inline" />
    <g
       transform="matrix(0.8309493,0,0,0.6959009,-286.50321,1131.5353)"
       id="g7894">
      <path
         d="M -25.809396,202.41983 A 22.98097,22.98097 0 0 1 -48.790367,179.43886"
         transform="matrix(-0.217571,0,0,-0.2434279,-350.61537,426.68042)"
         id="path7896"
         style="fill:none;stroke:#bebebe;stroke-width:11.42834663;stroke-linecap:round;stroke-miterlimit:4;stroke-dasharray:none;stroke-dashoffset:0;stroke-opacity:1;display:inline" />
      <path
         d="M -25.809396,202.41983 A 22.98097,22.98097 0 0 1 -48.790367,179.43886"
         transform="matrix(-0.1087858,0,0,0.1087858,-345.3077,364.0073)"
         id="path7898"
         style="fill:none;stroke:#bebebe;stroke-width:24.17668724;stroke-linecap:round;stroke-miterlimit:4;stroke-dasharray:none;stroke-dashoffset:0;stroke-opacity:1;display:inline" />
      <path
         d="M -25.809396,202.41983 A 22.98097,22.98097 0 0 1 -48.790367,179.43886"
         transform="matrix(-8.70286e-2,0,0,-8.70286e-2,-350.24616,399.61631)"
         id="path7900"
         style="fill:none;stroke:#bebebe;stroke-width:30.22087479;stroke-linecap:round;stroke-miterlimit:4;stroke-dasharray:none;stroke-dashoffset:0;stroke-opacity:1;display:inline" />
      <path
         d="M -560.03125,1096.385 L -547.9375,1096.385"
         transform="translate(203,-719)"
         id="path7902"
         style="fill:none;stroke:#bebebe;stroke-width:2.63008046;stroke-linecap:round;stroke-linejoin:miter;marker:none;stroke-miterlimit:4;stroke-dasharray:none;stroke-dashoffset:0;stroke-opacity:1;visibility:visible;display:inline;overflow:visible;enable-background:accumulate" />
      <path
         d="M -557,1101.0313 L -551,1101.0313"
         transform="translate(203,-719)"
         id="path7904"
         style="fill:none;stroke:#bebebe;stroke-width:2.63008046;stroke-linecap:round;stroke-linejoin:miter;marker:none;stroke-miterlimit:4;stroke-dasharray:none;stroke-dashoffset:0;stroke-opacity:1;visibility:visible;display:inline;overflow:visible;enable-background:accumulate" />
      <path
         d="M -549,1102.9688 L -549,1104.7813"
         transform="translate(203,-719)"
         id="path7906"
         style="fill:none;stroke:#bebebe;stroke-width:2.63008046;stroke-linecap:round;stroke-linejoin:miter;marker:none;stroke-miterlimit:4;stroke-dasharray:none;stroke-dashoffset:0;stroke-opacity:1;visibility:visible;display:inline;overflow:visible;enable-background:accumulate" />
      <path
         d="M -548.96875,1105 L -545.0625,1105"
         transform="translate(203,-719)"
         id="path7908"
         style="fill:none;stroke:#bebebe;stroke-width:2.63008046;stroke-linecap:round;stroke-linejoin:miter;marker:none;stroke-miterlimit:4;stroke-dasharray:none;stroke-dashoffset:0;stroke-opacity:1;visibility:visible;display:inline;overflow:visible;enable-background:accumulate" />
      <path
         d="M -542.96875,1103 L -542.96875,1101.9375"
         transform="translate(203,-719)"
         id="path7910"
         style="fill:none;stroke:#bebebe;stroke-width:2.63008046;stroke-linecap:round;stroke-linejoin:miter;marker:none;stroke-miterlimit:4;stroke-dasharray:none;stroke-dashoffset:0;stroke-opacity:1;visibility:visible;display:inline;overflow:visible;enable-background:accumulate" />
      <path
         d="M -25.809396,202.41983 A 22.98097,22.98097 0 0 1 -48.790367,179.43886"
         transform="matrix(0.217571,0,0,-0.2434279,-351.35338,426.68042)"
         id="path7912"
         style="fill:none;stroke:#bebebe;stroke-width:11.42834663;stroke-linecap:round;stroke-miterlimit:4;stroke-dasharray:none;stroke-dashoffset:0;stroke-opacity:1;display:inline" />
      <path
         d="M -25.809396,202.41983 A 22.98097,22.98097 0 0 1 -48.790367,179.43886"
         transform="matrix(0.1087858,0,0,0.1087858,-356.66105,364.0073)"
         id="path7914"
         style="fill:none;stroke:#bebebe;stroke-width:24.17668724;stroke-linecap:round;stroke-miterlimit:4;stroke-dasharray:none;stroke-dashoffset:0;stroke-opacity:1;display:inline" />
      <path
         d="M -25.809396,202.41983 A 22.98097,22.98097 0 0 1 -48.790367,179.43886"
         transform="matrix(8.70286e-2,0,0,-8.70286e-2,-351.72259,399.61631)"
         id="path7916"
         style="fill:none;stroke:#bebebe;stroke-width:30.22087479;stroke-linecap:round;stroke-miterlimit:4;stroke-dasharray:none;stroke-dashoffset:0;stroke-opacity:1;display:inline" />
      <path
         d="M -355.96875,383.9688 L -355.96875,385.7813"
         id="path7918"
         style="fill:none;stroke:#bebebe;stroke-width:2.63008046;stroke-linecap:round;stroke-linejoin:miter;marker:none;stroke-miterlimit:4;stroke-dasharray:none;stroke-dashoffset:0;stroke-opacity:1;visibility:visible;display:inline;overflow:visible;enable-background:accumulate" />
      <path
         d="M -356,386 L -359.90625,386"
         id="path7920"
         style="fill:none;stroke:#bebebe;stroke-width:2.63008046;stroke-linecap:round;stroke-linejoin:miter;marker:none;stroke-miterlimit:4;stroke-dasharray:none;stroke-dashoffset:0;stroke-opacity:1;visibility:visible;display:inline;overflow:visible;enable-background:accumulate" />
      <path
         d="M -362,384 L -362,382.9375"
         id="path7922"
         style="fill:none;stroke:#bebebe;stroke-width:2.63008046;stroke-linecap:round;stroke-linejoin:miter;marker:none;stroke-miterlimit:4;stroke-dasharray:none;stroke-dashoffset:0;stroke-opacity:1;visibility:visible;display:inline;overflow:visible;enable-background:accumulate" />
    </g>
    <path
       d="M -583.5625,1400.0938 C -583.96292,1400.1414 -584.29561,1400.4247 -584.40625,1400.8125 L -586,1406 L -586.03125,1406.1562 L -586.03125,1406.3125 L -586,1408.2188 L -585.96875,1409.1875 L -585,1409.1875 L -571,1409.1875 L -570,1409.1875 L -570,1408.1875 L -570,1406.1562 L -570,1406 L -570.03125,1405.875 L -571.5625,1400.875 C -571.62912,1400.4965 -571.9067,1400.1897 -572.27663,1400.0856 C -572.64655,1399.9816 -573.04339,1400.0987 -573.29756,1400.3869 C -573.55173,1400.6751 -573.61827,1401.0835 -573.46875,1401.4375 L -572,1406.3438 L -572,1407.1875 L -584.03125,1407.1875 L -584.03125,1406.375 L -582.5,1401.4062 C -582.39086,1401.0818 -582.45522,1400.7241 -582.6706,1400.458 C -582.88598,1400.192 -583.22246,1400.0546 -583.5625,1400.0938 L -583.5625,1400.0938 z"
       id="path7924"
       style="fill:#bebebe;fill-opacity:1;stroke:none;stroke-width:2;stroke-linecap:round;stroke-linejoin:miter;marker:none;stroke-miterlimit:4;stroke-dasharray:none;stroke-dashoffset:0;stroke-opacity:1;visibility:visible;display:inline;overflow:visible;enable-background:accumulate" />
    <path
       d="M -577.98635,1399.185 C -580.18889,1399.185 -581.98831,1400.9844 -581.98828,1403.1869 C -581.98828,1405.3895 -580.18888,1407.1888 -577.98635,1407.1888 C -575.78382,1407.1888 -573.98439,1405.3895 -573.98443,1403.1869 C -573.98443,1400.9844 -575.78383,1399.185 -577.98635,1399.185 z M -577.98635,1400.1679 C -576.32488,1400.1679 -575.00246,1401.5255 -575.00246,1403.1869 C -575.00244,1404.8483 -576.32489,1406.1709 -577.98635,1406.1709 C -579.64783,1406.1707 -581.00535,1404.8483 -581.00535,1403.1869 C -581.00537,1401.5255 -579.64782,1400.1679 -577.98635,1400.1679 z"
       id="path7926"
       style="fill:#bebebe;fill-opacity:1;stroke:none;stroke-width:0.8901968;stroke-linecap:round;stroke-linejoin:miter;marker:none;stroke-miterlimit:4;stroke-dasharray:none;stroke-dashoffset:0;stroke-opacity:1;visibility:visible;display:inline;overflow:visible;enable-background:accumulate" />
    <path
       d="M -587.9375,1407.1875 C -589.06181,1407.1875 -590,1408.0944 -590,1409.2188 L -590,1412.1562 C -590,1413.2806 -589.06176,1414.2186 -587.9375,1414.2188 L -568.03125,1414.2188 C -566.90694,1414.2188 -565.96879,1413.3118 -565.96875,1412.1875 L -565.96875,1409.2188 C -565.96875,1408.0944 -566.90694,1407.1875 -568.03125,1407.1875 L -587.9375,1407.1875 z M -587.9375,1409.1875 L -568.03125,1409.1875 C -567.98037,1409.1875 -567.96875,1409.1678 -567.96875,1409.2188 L -567.96875,1412.1875 C -567.96875,1412.2383 -567.98035,1412.2188 -568.03125,1412.2188 L -587.9375,1412.2188 C -587.98847,1412.2187 -588,1412.2072 -588,1412.1562 L -588,1409.2188 C -588,1409.1678 -587.9884,1409.1875 -587.9375,1409.1875 z"
       id="rect7928"
       style="fill:#bebebe;fill-opacity:1;stroke:none;stroke-width:2;stroke-linecap:round;stroke-linejoin:miter;marker:none;stroke-miterlimit:4;stroke-dasharray:none;stroke-dashoffset:0;stroke-opacity:1;visibility:visible;display:inline;overflow:visible;enable-background:accumulate" />
    <rect
       width="0.96875"
       height="1"
       x="-585.96875"
       y="1410.1722"
       id="rect7951"
       style="fill:#bebebe;fill-opacity:1;stroke:none;stroke-width:2;marker:none;visibility:visible;display:inline;overflow:visible;enable-background:accumulate" />
    <rect
       width="0.96875"
       height="1"
       x="-583.96875"
       y="1410.1722"
       id="rect7953"
       style="fill:#bebebe;fill-opacity:1;stroke:none;stroke-width:2;marker:none;visibility:visible;display:inline;overflow:visible;enable-background:accumulate" />
    <rect
       width="0.96875"
       height="1"
       x="-581.96875"
       y="1410.1722"
       id="rect7955"
       style="fill:#bebebe;fill-opacity:1;stroke:none;stroke-width:2;marker:none;visibility:visible;display:inline;overflow:visible;enable-background:accumulate" />
  </g>
  <g
     transform="translate(590,-1390.1723)"
     id="layer4" />
  <g
     transform="translate(590,-1390.1723)"
     id="layer12" />
  <g
     transform="translate(590,-1390.1723)"
     id="layer9" />
  <g
     transform="translate(590,-1390.1723)"
     id="layer10" />
  <g
     transform="translate(590,-1390.1723)"
     id="layer6" />
</svg>
