<?xml version="1.0" encoding="UTF-8" standalone="no"?>
<!-- Created with Inkscape (http://www.inkscape.org/) -->
<svg
   xmlns:svg="http://www.w3.org/2000/svg"
   xmlns="http://www.w3.org/2000/svg"
   xmlns:xlink="http://www.w3.org/1999/xlink"
   version="1.0"
   width="24"
   height="24.000031"
   id="svg7384">
  <title
     id="title9167">Moblin Icon Theme</title>
  <defs
     id="defs7386">
    <linearGradient
       id="linearGradient7487-6-82-9-3-2-0">
      <stop
         id="stop7489-8-9-5-2-4-6"
         style="stop-color:#bebebe;stop-opacity:1"
         offset="0" />
      <stop
         id="stop7491-2-3-1-6-6-4"
         style="stop-color:#bebebe;stop-opacity:0"
         offset="1" />
    </linearGradient>
    <linearGradient
       x1="105.91268"
       y1="121.73069"
       x2="105.91268"
       y2="115.05012"
       id="linearGradient12394"
       xlink:href="#linearGradient7487-6-82-9-3-2-0"
       gradientUnits="userSpaceOnUse"
       gradientTransform="matrix(1,0,0,1.273349,-1519.0823,341.55802)" />
    <linearGradient
       x1="105.91268"
       y1="121.0463"
       x2="105.91268"
       y2="115.05012"
       id="linearGradient12398"
       xlink:href="#linearGradient7487-6-82-9-3-2-0"
       gradientUnits="userSpaceOnUse"
       gradientTransform="matrix(1,0,0,1.091442,-1519.0823,-637.52169)" />
  </defs>
  <g
     transform="translate(512,-1390.1723)"
     id="layer3" />
  <g
     transform="translate(512,-1390.1723)"
     id="layer5" />
  <g
     transform="translate(512,-1390.1723)"
     id="layer7" />
  <g
     transform="translate(512,-1390.1723)"
     id="layer2" />
  <g
     transform="translate(512,-1390.1723)"
     id="layer8" />
  <g
     transform="translate(512,-2342.5345)"
     id="layer1" />
  <g
     transform="translate(512,-1390.1723)"
     id="layer11">
    <rect
       width="24"
       height="24"
       x="-512"
       y="1390.1722"
       id="rect10459-0"
       style="opacity:0;fill:#ffffff;fill-opacity:1;stroke:none;display:inline" />
    <path
       d="M -506.875,1390.1875 C -508.58895,1390.1875 -510,1391.5985 -510,1393.3125 L -510,1407.0625 C -510,1408.7765 -508.58895,1410.1875 -506.875,1410.1875 L -493.125,1410.1875 C -491.41105,1410.1875 -490,1408.7765 -490,1407.0625 L -490,1393.3125 C -490,1391.5985 -491.41105,1390.1875 -493.125,1390.1875 L -506.875,1390.1875 z M -506.875,1392.1875 L -493.125,1392.1875 C -492.48445,1392.1875 -492,1392.672 -492,1393.3125 L -492,1407.0625 C -492,1407.703 -492.48445,1408.1875 -493.125,1408.1875 L -506.875,1408.1875 C -507.51555,1408.1875 -508,1407.703 -508,1407.0625 L -508,1393.3125 C -508,1392.672 -507.51555,1392.1875 -506.875,1392.1875 z"
       id="rect10461-6"
       style="fill:#bebebe;fill-opacity:1;stroke:none;stroke-width:2;marker:none;stroke-miterlimit:4;stroke-dasharray:none;stroke-opacity:1;visibility:visible;display:inline;overflow:visible;enable-background:new" />
    <path
       d="M -505.5625,1403.1562 C -505.8264,1403.1888 -506.01862,1403.4222 -506,1403.6875 L -506,1406.5312 C -506.00255,1406.7115 -505.90781,1406.8792 -505.75206,1406.9701 C -505.59631,1407.061 -505.40369,1407.061 -505.24794,1406.9701 C -505.09219,1406.8792 -504.99745,1406.7115 -505,1406.5312 L -505,1403.6875 C -504.98941,1403.538 -505.04646,1403.3916 -505.15544,1403.2886 C -505.26441,1403.1857 -505.41382,1403.1371 -505.5625,1403.1562 z"
       id="path10463-3"
       style="fill:#bebebe;fill-opacity:1;fill-rule:nonzero;stroke:none;stroke-width:1;stroke-linecap:round;stroke-linejoin:miter;marker:none;stroke-miterlimit:4;stroke-dasharray:none;stroke-dashoffset:0;stroke-opacity:1;visibility:visible;display:inline;overflow:visible;enable-background:new" />
    <path
       d="M -503.5625,1403.1562 C -503.8264,1403.1888 -504.01862,1403.4222 -504,1403.6875 L -504,1406.5312 C -504.00255,1406.7115 -503.90781,1406.8792 -503.75206,1406.9701 C -503.59631,1407.061 -503.40369,1407.061 -503.24794,1406.9701 C -503.09219,1406.8792 -502.99745,1406.7115 -503,1406.5312 L -503,1403.6875 C -502.98941,1403.538 -503.04646,1403.3916 -503.15544,1403.2886 C -503.26441,1403.1857 -503.41382,1403.1371 -503.5625,1403.1562 z"
       id="path10467-3"
       style="fill:#bebebe;fill-opacity:1;fill-rule:nonzero;stroke:none;stroke-width:1;stroke-linecap:round;stroke-linejoin:miter;marker:none;stroke-miterlimit:4;stroke-dasharray:none;stroke-dashoffset:0;stroke-opacity:1;visibility:visible;display:inline;overflow:visible;enable-background:new" />
    <path
       d="M -501.5625,1403.1562 C -501.8264,1403.1888 -502.01862,1403.4222 -502,1403.6875 L -502,1406.5312 C -502.00255,1406.7115 -501.90781,1406.8792 -501.75206,1406.9701 C -501.59631,1407.061 -501.40369,1407.061 -501.24794,1406.9701 C -501.09219,1406.8792 -500.99745,1406.7115 -501,1406.5312 L -501,1403.6875 C -500.98941,1403.538 -501.04646,1403.3916 -501.15544,1403.2886 C -501.26441,1403.1857 -501.41382,1403.1371 -501.5625,1403.1562 z"
       id="path10469-0"
       style="fill:#bebebe;fill-opacity:1;fill-rule:nonzero;stroke:none;stroke-width:1;stroke-linecap:round;stroke-linejoin:miter;marker:none;stroke-miterlimit:4;stroke-dasharray:none;stroke-dashoffset:0;stroke-opacity:1;visibility:visible;display:inline;overflow:visible;enable-background:new" />
    <path
       d="M -499.5625,1403.1562 C -499.8264,1403.1888 -500.01862,1403.4222 -500,1403.6875 L -500,1406.5312 C -500.00255,1406.7115 -499.90781,1406.8792 -499.75206,1406.9701 C -499.59631,1407.061 -499.40369,1407.061 -499.24794,1406.9701 C -499.09219,1406.8792 -498.99745,1406.7115 -499,1406.5312 L -499,1403.6875 C -498.98941,1403.538 -499.04646,1403.3916 -499.15544,1403.2886 C -499.26441,1403.1857 -499.41382,1403.1371 -499.5625,1403.1562 z"
       id="path10471-5"
       style="fill:#bebebe;fill-opacity:1;fill-rule:nonzero;stroke:none;stroke-width:1;stroke-linecap:round;stroke-linejoin:miter;marker:none;stroke-miterlimit:4;stroke-dasharray:none;stroke-dashoffset:0;stroke-opacity:1;visibility:visible;display:inline;overflow:visible;enable-background:new" />
    <rect
       width="2.0000005"
       height="12"
       rx="1.0000002"
       ry="1.0000002"
       x="-1414.1724"
       y="-512"
       transform="matrix(0,-1,1,0,0,0)"
       id="rect7483-7"
       style="fill:url(#linearGradient12398);fill-opacity:1;stroke:none;display:inline" />
    <rect
       width="2.0000005"
       height="5"
       rx="1.0000002"
       ry="1.0000002"
       x="499.99194"
       y="-1413.1724"
       transform="scale(-1,-1)"
       id="rect7485-1"
       style="fill:#bebebe;fill-opacity:1;stroke:none;display:inline" />
    <rect
       width="2.0000005"
       height="14"
       rx="1.0000002"
       ry="1.0000002"
       x="-1414.1724"
       y="488"
       transform="matrix(0,-1,-1,0,0,0)"
       id="rect7495-4"
       style="fill:url(#linearGradient12394);fill-opacity:1;stroke:none;display:inline" />
  </g>
  <g
     transform="translate(512,-1390.1723)"
     id="layer4" />
  <g
     transform="translate(512,-1390.1723)"
     id="layer12" />
  <g
     transform="translate(512,-1390.1723)"
     id="layer9" />
  <g
     transform="translate(512,-1390.1723)"
     id="layer10" />
  <g
     transform="translate(512,-1390.1723)"
     id="layer6" />
</svg>
