<?xml version="1.0" encoding="UTF-8" standalone="no"?>
<!-- Created with Inkscape (http://www.inkscape.org/) -->
<svg
   xmlns:svg="http://www.w3.org/2000/svg"
   xmlns="http://www.w3.org/2000/svg"
   version="1.0"
   width="24"
   height="24"
   id="svg7384">
  <title
     id="title9167">Moblin Icon Theme</title>
  <defs
     id="defs7386" />
  <g
     transform="translate(617.99998,-900)"
     id="layer3" />
  <g
     transform="translate(617.99998,-900)"
     id="layer5" />
  <g
     transform="translate(617.99998,-900)"
     id="layer7" />
  <g
     transform="translate(617.99998,-900)"
     id="layer2" />
  <g
     transform="translate(617.99998,-900)"
     id="layer8" />
  <g
     transform="translate(617.99998,-1852.3622)"
     id="layer1" />
  <g
     transform="translate(617.99998,-900)"
     id="layer11">
    <rect
       width="24"
       height="24"
       x="594"
       y="900"
       transform="scale(-1,1)"
       id="rect5386"
       style="opacity:0;fill:#ffffff;fill-opacity:1;stroke:none;display:inline" />
    <path
       d="M -608.5,902 C -609.25106,902.04891 -609.99515,902.22284 -610.6875,902.46875 L -612.15625,903 L -611.0625,904.125 L -607.3125,907.875 L -610.125,910.6875 L -613.875,906.9375 L -615,905.84375 L -615.53125,907.3125 C -616.53352,910.13316 -615.90265,913.41008 -613.65625,915.65625 C -611.27604,918.03659 -607.79386,918.48157 -604.875,917.21875 L -599.96875,922.125 C -598.80114,923.29257 -596.85503,923.29264 -595.6875,922.125 C -594.52926,920.96682 -594.52928,919.03318 -595.6875,917.875 L -600.65625,912.90625 C -599.5232,910.02994 -600.02538,906.63091 -602.34375,904.3125 C -604.02829,902.6281 -606.28954,901.85625 -608.5,902 z M -608.3125,904 C -606.6735,903.91032 -605.04127,904.49008 -603.78125,905.75 C -601.86338,907.66791 -601.5092,910.54514 -602.71875,912.8125 L -603.1875,913.6875 L -602.3125,914.15625 C -602.21268,914.20974 -602.16131,914.2762 -602.09375,914.34375 L -597.125,919.3125 C -596.71622,919.72126 -596.71622,920.27874 -597.125,920.6875 C -597.52427,921.0868 -598.13186,921.08687 -598.53125,920.6875 L -603.46875,915.75 C -603.4999,915.71885 -603.54886,915.66597 -603.625,915.53125 L -604.125,914.65625 L -605,915.15625 C -607.29788,916.49194 -610.24359,916.19402 -612.21875,914.21875 C -613.42096,913.01667 -613.80493,911.46603 -613.78125,909.90625 L -611.5625,912.125 C -610.77714,912.90986 -609.47261,912.91063 -608.6875,912.125 L -605.875,909.28125 C -605.10837,908.51481 -605.10838,907.20394 -605.875,906.4375 L -608.3125,904 z"
       id="path5394"
       style="fill:#bebebe;fill-opacity:1;stroke:none;stroke-width:2.00000048;stroke-linecap:round;stroke-linejoin:miter;marker:none;stroke-miterlimit:4;stroke-dasharray:none;stroke-dashoffset:0;stroke-opacity:1;visibility:visible;display:inline;overflow:visible;enable-background:accumulate" />
  </g>
  <g
     transform="translate(617.99998,-900)"
     id="layer4" />
  <g
     transform="translate(617.99998,-900)"
     id="layer12" />
  <g
     transform="translate(617.99998,-900)"
     id="layer9" />
  <g
     transform="translate(617.99998,-900)"
     id="layer10" />
  <g
     transform="translate(617.99998,-900)"
     id="layer6" />
</svg>
