<?xml version="1.0" encoding="UTF-8" standalone="no"?>
<!-- Created with Inkscape (http://www.inkscape.org/) -->
<svg
   xmlns:svg="http://www.w3.org/2000/svg"
   xmlns="http://www.w3.org/2000/svg"
   version="1.0"
   width="24.03125"
   height="24"
   id="svg7384">
  <title
     id="title9167">Moblin Icon Theme</title>
  <defs
     id="defs7386" />
  <g
     transform="translate(566,-1090)"
     id="layer3" />
  <g
     transform="translate(566,-1090)"
     id="layer5" />
  <g
     transform="translate(566,-1090)"
     id="layer7" />
  <g
     transform="translate(566,-1090)"
     id="layer2" />
  <g
     transform="translate(566,-1090)"
     id="layer8" />
  <g
     transform="translate(566,-2042.3622)"
     id="layer1" />
  <g
     transform="translate(566,-1090)"
     id="layer11">
    <rect
       width="24"
       height="24"
       x="-566"
       y="1090"
       id="rect6748-0"
       style="opacity:0.01000001;fill:#f0f0f0;fill-opacity:1;stroke:none;display:inline" />
    <g
       transform="translate(-203,714.9723)"
       id="g7452">
      <path
         d="M -25.809396,202.41983 A 22.98097,22.98097 0 0 1 -48.790367,179.43886"
         transform="matrix(-0.217571,0,0,-0.217571,-350.61537,422.04069)"
         id="path6810-5"
         style="fill:none;stroke:#bebebe;stroke-width:9.19240189;stroke-linecap:round;stroke-miterlimit:4;stroke-dasharray:none;stroke-dashoffset:0;stroke-opacity:1;display:inline" />
      <path
         d="M -25.809396,202.41983 A 22.98097,22.98097 0 0 1 -48.790367,179.43886"
         transform="matrix(-0.1087858,0,0,0.1087858,-345.3077,364.0073)"
         id="path6812-3"
         style="fill:none;stroke:#bebebe;stroke-width:18.38475227;stroke-linecap:round;stroke-miterlimit:4;stroke-dasharray:none;stroke-dashoffset:0;stroke-opacity:1;display:inline" />
      <path
         d="M -25.809396,202.41983 A 22.98097,22.98097 0 0 1 -48.790367,179.43886"
         transform="matrix(-8.70286e-2,0,0,-8.70286e-2,-350.24616,399.61631)"
         id="path6818-6"
         style="fill:none;stroke:#bebebe;stroke-width:22.98095131;stroke-linecap:round;stroke-miterlimit:4;stroke-dasharray:none;stroke-dashoffset:0;stroke-opacity:1;display:inline" />
      <path
         d="M -560.03125,1096.9688 L -547.9375,1096.9688"
         transform="translate(203,-719)"
         id="path7377"
         style="fill:none;stroke:#bebebe;stroke-width:2;stroke-linecap:round;stroke-linejoin:miter;marker:none;stroke-miterlimit:4;stroke-dasharray:none;stroke-dashoffset:0;stroke-opacity:1;visibility:visible;display:inline;overflow:visible;enable-background:accumulate" />
      <path
         d="M -557,1101.0313 L -551,1101.0313"
         transform="translate(203,-719)"
         id="path7379"
         style="fill:none;stroke:#bebebe;stroke-width:2;stroke-linecap:round;stroke-linejoin:miter;marker:none;stroke-miterlimit:4;stroke-dasharray:none;stroke-dashoffset:0;stroke-opacity:1;visibility:visible;display:inline;overflow:visible;enable-background:accumulate" />
      <path
         d="M -549,1102.9688 L -549,1104.7813"
         transform="translate(203,-719)"
         id="path7381"
         style="fill:none;stroke:#bebebe;stroke-width:2;stroke-linecap:round;stroke-linejoin:miter;marker:none;stroke-miterlimit:4;stroke-dasharray:none;stroke-dashoffset:0;stroke-opacity:1;visibility:visible;display:inline;overflow:visible;enable-background:accumulate" />
      <path
         d="M -548.96875,1105 L -545.0625,1105"
         transform="translate(203,-719)"
         id="path7383"
         style="fill:none;stroke:#bebebe;stroke-width:2;stroke-linecap:round;stroke-linejoin:miter;marker:none;stroke-miterlimit:4;stroke-dasharray:none;stroke-dashoffset:0;stroke-opacity:1;visibility:visible;display:inline;overflow:visible;enable-background:accumulate" />
      <path
         d="M -542.96875,1103 L -542.96875,1101.9375"
         transform="translate(203,-719)"
         id="path7385"
         style="fill:none;stroke:#bebebe;stroke-width:2;stroke-linecap:round;stroke-linejoin:miter;marker:none;stroke-miterlimit:4;stroke-dasharray:none;stroke-dashoffset:0;stroke-opacity:1;visibility:visible;display:inline;overflow:visible;enable-background:accumulate" />
      <path
         d="M -25.809396,202.41983 A 22.98097,22.98097 0 0 1 -48.790367,179.43886"
         transform="matrix(0.217571,0,0,-0.217571,-351.35338,422.04069)"
         id="path7440"
         style="fill:none;stroke:#bebebe;stroke-width:9.19240189;stroke-linecap:round;stroke-miterlimit:4;stroke-dasharray:none;stroke-dashoffset:0;stroke-opacity:1;display:inline" />
      <path
         d="M -25.809396,202.41983 A 22.98097,22.98097 0 0 1 -48.790367,179.43886"
         transform="matrix(0.1087858,0,0,0.1087858,-356.66105,364.0073)"
         id="path7442"
         style="fill:none;stroke:#bebebe;stroke-width:18.38475227;stroke-linecap:round;stroke-miterlimit:4;stroke-dasharray:none;stroke-dashoffset:0;stroke-opacity:1;display:inline" />
      <path
         d="M -25.809396,202.41983 A 22.98097,22.98097 0 0 1 -48.790367,179.43886"
         transform="matrix(8.70286e-2,0,0,-8.70286e-2,-351.72259,399.61631)"
         id="path7444"
         style="fill:none;stroke:#bebebe;stroke-width:22.98095131;stroke-linecap:round;stroke-miterlimit:4;stroke-dasharray:none;stroke-dashoffset:0;stroke-opacity:1;display:inline" />
      <path
         d="M -355.96875,383.9688 L -355.96875,385.7813"
         id="path7446"
         style="fill:none;stroke:#bebebe;stroke-width:2;stroke-linecap:round;stroke-linejoin:miter;marker:none;stroke-miterlimit:4;stroke-dasharray:none;stroke-dashoffset:0;stroke-opacity:1;visibility:visible;display:inline;overflow:visible;enable-background:accumulate" />
      <path
         d="M -356,386 L -359.90625,386"
         id="path7448"
         style="fill:none;stroke:#bebebe;stroke-width:2;stroke-linecap:round;stroke-linejoin:miter;marker:none;stroke-miterlimit:4;stroke-dasharray:none;stroke-dashoffset:0;stroke-opacity:1;visibility:visible;display:inline;overflow:visible;enable-background:accumulate" />
      <path
         d="M -362,384 L -362,382.9375"
         id="path7450"
         style="fill:none;stroke:#bebebe;stroke-width:2;stroke-linecap:round;stroke-linejoin:miter;marker:none;stroke-miterlimit:4;stroke-dasharray:none;stroke-dashoffset:0;stroke-opacity:1;visibility:visible;display:inline;overflow:visible;enable-background:accumulate" />
    </g>
    <path
       d="M -561.15625,1101.9375 C -561.51285,1102.0129 -561.8002,1102.2763 -561.90625,1102.625 L -563.9375,1108.7812 L -564,1108.9375 L -564,1109.0938 L -563.9375,1111 L -563.9375,1112 L -562.9375,1112 L -545.03125,1112 L -544.03125,1112 L -544.03125,1111 L -544.03125,1108.9375 L -544.03125,1108.7812 L -544.09375,1108.6562 L -546.03125,1102.6875 C -546.12019,1102.3266 -546.40196,1102.0448 -546.76285,1101.9558 C -547.12374,1101.8668 -547.50422,1101.9853 -547.75076,1102.2635 C -547.9973,1102.5417 -548.06922,1102.9336 -547.9375,1103.2812 L -546.03125,1109.1562 L -546.03125,1110 L -561.96875,1110 L -562,1109.2812 L -560,1103.25 C -559.87804,1102.9076 -559.95143,1102.526 -560.19168,1102.2533 C -560.43193,1101.9806 -560.80123,1101.8597 -561.15625,1101.9375 L -561.15625,1101.9375 z"
       id="path7468"
       style="fill:#bebebe;fill-opacity:1;stroke:none;stroke-width:2;stroke-linecap:round;stroke-linejoin:miter;marker:none;stroke-miterlimit:4;stroke-dasharray:none;stroke-dashoffset:0;stroke-opacity:1;visibility:visible;display:inline;overflow:visible;enable-background:accumulate" />
    <path
       d="M -553.98635,1101.0127 C -556.18889,1101.0127 -557.98831,1102.8121 -557.98828,1105.0146 C -557.98828,1107.2172 -556.18888,1109.0165 -553.98635,1109.0165 C -551.78382,1109.0165 -549.98439,1107.2172 -549.98443,1105.0146 C -549.98443,1102.8121 -551.78383,1101.0127 -553.98635,1101.0127 z M -553.98635,1101.9956 C -552.32488,1101.9956 -551.00246,1103.3532 -551.00246,1105.0146 C -551.00244,1106.676 -552.32489,1107.9986 -553.98635,1107.9986 C -555.64783,1107.9984 -557.00535,1106.676 -557.00535,1105.0146 C -557.00537,1103.3532 -555.64782,1101.9956 -553.98635,1101.9956 z"
       id="path7478"
       style="fill:#bebebe;fill-opacity:1;stroke:none;stroke-width:0.8901968;stroke-linecap:round;stroke-linejoin:miter;marker:none;stroke-miterlimit:4;stroke-dasharray:none;stroke-dashoffset:0;stroke-opacity:1;visibility:visible;display:inline;overflow:visible;enable-background:accumulate" />
  </g>
  <g
     transform="translate(566,-1090)"
     id="layer4" />
  <g
     transform="translate(566,-1090)"
     id="layer9" />
  <g
     transform="translate(566,-1090)"
     id="layer10" />
  <g
     transform="translate(566,-1090)"
     id="layer6" />
</svg>
