<?xml version="1.0" encoding="UTF-8" standalone="no"?>
<!-- Created with Inkscape (http://www.inkscape.org/) -->
<svg
   xmlns:svg="http://www.w3.org/2000/svg"
   xmlns="http://www.w3.org/2000/svg"
   version="1.0"
   width="24.019949"
   height="24"
   id="svg7384">
  <title
     id="title9167">Moblin Icon Theme</title>
  <defs
     id="defs7386" />
  <g
     transform="translate(590,-1400.1723)"
     id="layer3" />
  <g
     transform="translate(590,-1400.1723)"
     id="layer5" />
  <g
     transform="translate(590,-1400.1723)"
     id="layer7" />
  <g
     transform="translate(590,-1400.1723)"
     id="layer2" />
  <g
     transform="translate(590,-1400.1723)"
     id="layer8" />
  <g
     transform="translate(590,-2352.5345)"
     id="layer1" />
  <g
     transform="translate(590,-1400.1723)"
     id="layer11">
    <rect
       width="24"
       height="24"
       x="-589.98004"
       y="1400.1722"
       id="rect7826-9-8"
       style="opacity:0;fill:#ffffff;fill-opacity:1;stroke:none;display:inline" />
    <path
       d="M -578.36232,1400.1538 C -578.72546,1400.1551 -579.05935,1400.3531 -579.2346,1400.6712 C -579.40986,1400.9893 -579.39894,1401.3773 -579.20607,1401.685 C -577.54881,1404.5555 -577.54879,1407.6895 -579.20607,1410.56 C -579.48221,1411.0433 -579.31432,1411.6589 -578.83107,1411.935 C -578.34782,1412.2112 -577.73221,1412.0433 -577.45607,1411.56 C -575.47034,1408.1206 -575.47037,1404.1244 -577.45607,1400.685 C -577.63334,1400.3508 -577.98407,1400.1452 -578.36232,1400.1538 z"
       id="path7207-2"
       style="fill:#bebebe;fill-opacity:1;stroke:none;stroke-width:2;stroke-linecap:round;stroke-linejoin:round;marker:none;stroke-miterlimit:4;stroke-dasharray:none;stroke-dashoffset:0;stroke-opacity:1;visibility:visible;display:inline;overflow:visible;enable-background:accumulate" />
    <path
       d="M -574.36232,1400.1538 C -574.72546,1400.1551 -575.05935,1400.3531 -575.2346,1400.6712 C -575.40986,1400.9893 -575.39894,1401.3773 -575.20607,1401.685 C -573.54881,1404.5555 -573.54879,1407.6895 -575.20607,1410.56 C -575.48221,1411.0433 -575.31432,1411.6589 -574.83107,1411.935 C -574.34782,1412.2112 -573.73221,1412.0433 -573.45607,1411.56 C -571.47034,1408.1206 -571.47037,1404.1244 -573.45607,1400.685 C -573.63334,1400.3508 -573.98407,1400.1452 -574.36232,1400.1538 z"
       id="path7209-2"
       style="fill:#bebebe;fill-opacity:1;stroke:none;stroke-width:2;stroke-linecap:round;stroke-linejoin:round;marker:none;stroke-miterlimit:4;stroke-dasharray:none;stroke-dashoffset:0;stroke-opacity:1;visibility:visible;display:inline;overflow:visible;enable-background:accumulate" />
    <path
       d="M -589,1407.1875 C -589.2655,1407.1866 -589.52039,1407.2916 -589.70813,1407.4794 C -589.89587,1407.6671 -590.00093,1407.922 -590,1408.1875 L -590,1423.125 C -590.00093,1423.3905 -589.89587,1423.6454 -589.70813,1423.8331 C -589.52039,1424.0209 -589.2655,1424.1259 -589,1424.125 L -583.03125,1424.125 C -582.76575,1424.1259 -582.51086,1424.0209 -582.32312,1423.8331 C -582.13538,1423.6454 -582.03032,1423.3905 -582.03125,1423.125 L -582.03125,1408.1875 C -582.03032,1407.922 -582.13538,1407.6671 -582.32312,1407.4794 C -582.51086,1407.2916 -582.76575,1407.1866 -583.03125,1407.1875 L -589,1407.1875 z M -588,1409.1875 L -584.03125,1409.1875 L -584.03125,1422.1562 L -588,1422.1562 L -588,1409.1875 z"
       id="rect6732"
       style="fill:#bebebe;fill-opacity:1;stroke:none;stroke-width:1.99285614;stroke-linecap:round;stroke-linejoin:round;marker:none;stroke-miterlimit:4;stroke-dasharray:none;stroke-dashoffset:0;stroke-opacity:1;visibility:visible;display:inline;overflow:visible;enable-background:accumulate" />
    <rect
       width="1"
       height="1"
       x="-587"
       y="1410.1722"
       id="rect6770"
       style="fill:#bebebe;fill-opacity:1;stroke:none;stroke-width:2;marker:none;visibility:visible;display:inline;overflow:visible;enable-background:accumulate" />
    <rect
       width="1"
       height="1"
       x="-586"
       y="1411.1724"
       id="rect7545"
       style="fill:#bebebe;fill-opacity:1;stroke:none;stroke-width:2;marker:none;visibility:visible;display:inline;overflow:visible;enable-background:accumulate" />
    <rect
       width="1"
       height="1"
       x="-587"
       y="1412.1722"
       id="rect7547"
       style="fill:#bebebe;fill-opacity:1;stroke:none;stroke-width:2;marker:none;visibility:visible;display:inline;overflow:visible;enable-background:accumulate" />
    <rect
       width="1"
       height="1"
       x="-586"
       y="1413.1724"
       id="rect7549"
       style="fill:#bebebe;fill-opacity:1;stroke:none;stroke-width:2;marker:none;visibility:visible;display:inline;overflow:visible;enable-background:accumulate" />
    <rect
       width="1"
       height="1"
       x="-587"
       y="1414.1722"
       id="rect7551"
       style="fill:#bebebe;fill-opacity:1;stroke:none;stroke-width:2;marker:none;visibility:visible;display:inline;overflow:visible;enable-background:accumulate" />
    <rect
       width="1"
       height="1"
       x="-586"
       y="1415.1724"
       id="rect7553"
       style="fill:#bebebe;fill-opacity:1;stroke:none;stroke-width:2;marker:none;visibility:visible;display:inline;overflow:visible;enable-background:accumulate" />
    <rect
       width="1"
       height="1"
       x="-587"
       y="1416.1722"
       id="rect7555"
       style="fill:#bebebe;fill-opacity:1;stroke:none;stroke-width:2;marker:none;visibility:visible;display:inline;overflow:visible;enable-background:accumulate" />
    <rect
       width="1"
       height="1"
       x="-586"
       y="1417.1724"
       id="rect7557"
       style="fill:#bebebe;fill-opacity:1;stroke:none;stroke-width:2;marker:none;visibility:visible;display:inline;overflow:visible;enable-background:accumulate" />
    <path
       d="M -570.36232,1400.1538 C -570.72546,1400.1551 -571.05935,1400.3531 -571.2346,1400.6712 C -571.40986,1400.9893 -571.39894,1401.3773 -571.20607,1401.685 C -569.54881,1404.5555 -569.54879,1407.6895 -571.20607,1410.56 C -571.48221,1411.0433 -571.31432,1411.6589 -570.83107,1411.935 C -570.34782,1412.2112 -569.73221,1412.0433 -569.45607,1411.56 C -567.47034,1408.1206 -567.47037,1404.1244 -569.45607,1400.685 C -569.63334,1400.3508 -569.98407,1400.1452 -570.36232,1400.1538 z"
       id="path8371"
       style="fill:#bebebe;fill-opacity:1;stroke:none;stroke-width:2;stroke-linecap:round;stroke-linejoin:round;marker:none;stroke-miterlimit:4;stroke-dasharray:none;stroke-dashoffset:0;stroke-opacity:1;visibility:visible;display:inline;overflow:visible;enable-background:accumulate" />
  </g>
  <g
     transform="translate(590,-1400.1723)"
     id="layer4" />
  <g
     transform="translate(590,-1400.1723)"
     id="layer12" />
  <g
     transform="translate(590,-1400.1723)"
     id="layer9" />
  <g
     transform="translate(590,-1400.1723)"
     id="layer10" />
  <g
     transform="translate(590,-1400.1723)"
     id="layer6" />
</svg>
