<?xml version="1.0" encoding="UTF-8" standalone="no"?>
<!-- Created with Inkscape (http://www.inkscape.org/) -->
<svg
   xmlns:svg="http://www.w3.org/2000/svg"
   xmlns="http://www.w3.org/2000/svg"
   version="1.0"
   width="24"
   height="24.028402"
   id="svg7384">
  <title
     id="title9167">Moblin Icon Theme</title>
  <defs
     id="defs7386" />
  <g
     transform="translate(460,-1330.1439)"
     id="layer3" />
  <g
     transform="translate(460,-1330.1439)"
     id="layer5" />
  <g
     transform="translate(460,-1330.1439)"
     id="layer7" />
  <g
     transform="translate(460,-1330.1439)"
     id="layer2" />
  <g
     transform="translate(460,-1330.1439)"
     id="layer8" />
  <g
     transform="translate(460,-2282.5061)"
     id="layer1" />
  <g
     transform="translate(460,-1330.1439)"
     id="layer11">
    <g
       transform="translate(-509,962.81016)"
       id="use8006">
      <rect
         width="24"
         height="24"
         x="49"
         y="367.36218"
         id="rect12242"
         style="opacity:0;fill:#ffffff;fill-opacity:1;stroke:none;display:inline" />
      <path
         d="M -165.85257,279.15405 A 12.3125,12.3125 0 0 1 -174.06934,278.78305"
         transform="translate(226.04872,89.67468)"
         id="path12244"
         style="fill:none;stroke:#bebebe;stroke-width:2;stroke-linecap:round;stroke-linejoin:round;marker:none;stroke-miterlimit:4;stroke-dasharray:none;stroke-dashoffset:0;stroke-opacity:1;visibility:visible;display:inline;overflow:visible;enable-background:accumulate" />
      <path
         d="M -172.42372,255.43012 A 12.3125,12.3125 0 0 1 -162.92409,256.9264"
         transform="translate(232.67372,113.29968)"
         id="path12246"
         style="fill:none;stroke:#bebebe;stroke-width:2;stroke-linecap:round;stroke-linejoin:round;marker:none;stroke-miterlimit:4;stroke-dasharray:none;stroke-dashoffset:0;stroke-opacity:1;visibility:visible;display:inline;overflow:visible;enable-background:accumulate" />
      <path
         d="M -165.85257,279.15405 A 12.3125,12.3125 0 0 1 -174.06934,278.78305"
         transform="translate(226.04872,101.67472)"
         id="path12248"
         style="fill:none;stroke:#bebebe;stroke-width:2;stroke-linecap:round;stroke-linejoin:round;marker:none;stroke-miterlimit:4;stroke-dasharray:none;stroke-dashoffset:0;stroke-opacity:1;visibility:visible;display:inline;overflow:visible;enable-background:accumulate" />
      <path
         d="M -172.42372,255.43012 A 12.3125,12.3125 0 0 1 -162.92409,256.9264"
         transform="translate(232.67372,125.29972)"
         id="path12250"
         style="fill:none;stroke:#bebebe;stroke-width:2;stroke-linecap:round;stroke-linejoin:round;marker:none;stroke-miterlimit:4;stroke-dasharray:none;stroke-dashoffset:0;stroke-opacity:1;visibility:visible;display:inline;overflow:visible;enable-background:accumulate" />
      <path
         d="M 70,370.29968 L 70,382.23718"
         id="path12252"
         style="fill:none;stroke:#bebebe;stroke-width:2;stroke-linecap:round;stroke-linejoin:round;marker:none;stroke-miterlimit:4;stroke-dasharray:none;stroke-dashoffset:0;stroke-opacity:1;visibility:visible;display:inline;overflow:visible;enable-background:accumulate" />
      <path
         d="M 52,368.54968 L 52,390.36218"
         id="path12254"
         style="fill:none;stroke:#bebebe;stroke-width:2;stroke-linecap:round;stroke-linejoin:round;marker:none;stroke-miterlimit:4;stroke-dasharray:none;stroke-dashoffset:0;stroke-opacity:1;visibility:visible;display:inline;overflow:visible;enable-background:accumulate" />
      <path
         d="M -164.53491,269.59515 A 3.3366601,3.3366601 0 1 1 -171.20823,269.59515 A 3.3366601,3.3366601 0 1 1 -164.53491,269.59515 z"
         transform="matrix(0.8991032,0,0,0.8991032,211.43386,132.46833)"
         id="path12256"
         style="fill:none;stroke:#bebebe;stroke-width:1.11221945;stroke-linecap:round;stroke-linejoin:round;marker:none;stroke-miterlimit:4;stroke-dasharray:none;stroke-dashoffset:0;stroke-opacity:1;visibility:visible;display:inline;overflow:visible;enable-background:accumulate" />
      <path
         d="M -171.20823,269.59515 A 3.3366601,3.3366601 0 0 1 -167.87157,266.25849 L -167.87157,269.59515 z"
         transform="matrix(-0.7492513,0,0,0.7492513,-64.777988,172.36766)"
         id="path12258"
         style="fill:#bebebe;fill-opacity:1;stroke:none;stroke-width:1.11221945;marker:none;visibility:visible;display:inline;overflow:visible;enable-background:accumulate" />
      <path
         d="M -171.20823,269.59515 A 3.3366601,3.3366601 0 0 1 -167.87157,266.25849 L -167.87157,269.59515 z"
         transform="matrix(0.7492513,0,0,-0.7492513,185.77799,577.3567)"
         id="path12260"
         style="fill:#bebebe;fill-opacity:1;stroke:none;stroke-width:1.11221945;marker:none;visibility:visible;display:inline;overflow:visible;enable-background:accumulate" />
    </g>
  </g>
  <g
     transform="translate(460,-1330.1439)"
     id="layer4" />
  <g
     transform="translate(460,-1330.1439)"
     id="layer12" />
  <g
     transform="translate(460,-1330.1439)"
     id="layer9" />
  <g
     transform="translate(460,-1330.1439)"
     id="layer10" />
  <g
     transform="translate(460,-1330.1439)"
     id="layer6" />
</svg>
