<?xml version="1.0" encoding="UTF-8" standalone="no"?>
<!-- Created with Inkscape (http://www.inkscape.org/) -->
<svg
   xmlns:svg="http://www.w3.org/2000/svg"
   xmlns="http://www.w3.org/2000/svg"
   xmlns:xlink="http://www.w3.org/1999/xlink"
   version="1.0"
   width="24.04772"
   height="24"
   id="svg7384">
  <title
     id="title9167">Moblin Icon Theme</title>
  <defs
     id="defs7386">
    <linearGradient
       id="linearGradient7487-6-0-3-9">
      <stop
         id="stop7489-8-1-0-2"
         style="stop-color:#bebebe;stop-opacity:1"
         offset="0" />
      <stop
         id="stop7491-2-1-3-2"
         style="stop-color:#bebebe;stop-opacity:0"
         offset="1" />
    </linearGradient>
    <linearGradient
       x1="105.91268"
       y1="121.73069"
       x2="105.91268"
       y2="115.05012"
       id="linearGradient12401"
       xlink:href="#linearGradient7487-6-0-3-9"
       gradientUnits="userSpaceOnUse"
       gradientTransform="matrix(1,0,0,1.273349,-1549.0822,289.5103)" />
    <linearGradient
       x1="105.91268"
       y1="121.0463"
       x2="105.91268"
       y2="115.05012"
       id="linearGradient12405"
       xlink:href="#linearGradient7487-6-0-3-9"
       gradientUnits="userSpaceOnUse"
       gradientTransform="matrix(1,0,0,1.091442,-1549.0822,-585.47397)" />
  </defs>
  <g
     transform="translate(460,-1420.1722)"
     id="layer3" />
  <g
     transform="translate(460,-1420.1722)"
     id="layer5" />
  <g
     transform="translate(460,-1420.1722)"
     id="layer7" />
  <g
     transform="translate(460,-1420.1722)"
     id="layer2" />
  <g
     transform="translate(460,-1420.1722)"
     id="layer8" />
  <g
     transform="translate(460,-2372.5344)"
     id="layer1" />
  <g
     transform="translate(460,-1420.1722)"
     id="layer11">
    <rect
       width="24"
       height="24"
       x="435.95227"
       y="1420.1722"
       transform="scale(-1,1)"
       id="rect8223-20-1-2"
       style="opacity:0;fill:#ffffff;fill-opacity:1;stroke:none;display:inline" />
    <rect
       width="2.0000005"
       height="12"
       rx="1.0000002"
       ry="1.0000002"
       x="-1444.1722"
       y="-459.95227"
       transform="matrix(0,-1,1,0,0,0)"
       id="rect7483-15"
       style="fill:url(#linearGradient12405);fill-opacity:1;stroke:none;display:inline" />
    <rect
       width="2.0000005"
       height="5"
       rx="1.0000002"
       ry="1.0000002"
       x="447.94421"
       y="-1443.1722"
       transform="scale(-1,-1)"
       id="rect7485-3"
       style="fill:#bebebe;fill-opacity:1;stroke:none;display:inline" />
    <rect
       width="2.0000005"
       height="14"
       rx="1.0000002"
       ry="1.0000002"
       x="-1444.1722"
       y="435.95227"
       transform="matrix(0,-1,-1,0,0,0)"
       id="rect7495-08"
       style="fill:url(#linearGradient12401);fill-opacity:1;stroke:none;display:inline" />
    <g
       transform="translate(-910.01478,2007.1693)"
       id="use7499-2-3">
      <path
         d="M 455.00184,-578 L 471.0625,-578 L 471.0625,-572.02066 C 471.0625,-569.94354 469.78607,-568 467.44378,-568 L 451.01478,-568 L 451.01478,-585.97227 L 456.9375,-585.97227 C 458.95323,-585.97227 460,-584.52938 460,-582.97227 L 460.0329,-582 L 469.06249,-582 L 469.06249,-578"
         id="path11551"
         style="fill:none;stroke:#bebebe;stroke-width:2;stroke-linecap:round;stroke-linejoin:round;stroke-miterlimit:4;stroke-dasharray:none;stroke-opacity:1" />
      <path
         d="M 454.51127,-577.94084 L 454.51146,-572 C 454.51127,-569.83448 452.96474,-568.92707 452.03666,-568.92707"
         id="path11553"
         style="fill:none;stroke:#bebebe;stroke-width:1px;stroke-linecap:butt;stroke-linejoin:miter;stroke-opacity:1" />
    </g>
    <rect
       width="2.2571268"
       height="2.0000298"
       x="-507.88126"
       y="1196.8615"
       transform="matrix(0.8860954,-0.4635029,0,1,0,0)"
       id="rect8921"
       style="fill:#bebebe;fill-opacity:1;stroke:none;stroke-width:2.00000048;marker:none;visibility:visible;display:inline;overflow:visible;enable-background:accumulate" />
    <rect
       width="2.2923267"
       height="2.0312202"
       x="-507.88126"
       y="1199.8302"
       transform="matrix(0.8860954,-0.4635029,0,1,0,0)"
       id="rect8923"
       style="fill:#bebebe;fill-opacity:1;stroke:none;stroke-width:2.00000048;marker:none;visibility:visible;display:inline;overflow:visible;enable-background:accumulate" />
    <rect
       width="2.2571268"
       height="2.0000298"
       x="-504.46036"
       y="1198.447"
       transform="matrix(0.8860954,-0.4635029,0,1,0,0)"
       id="rect8930"
       style="fill:#bebebe;fill-opacity:1;stroke:none;stroke-width:2.00000048;marker:none;visibility:visible;display:inline;overflow:visible;enable-background:accumulate" />
    <rect
       width="2.2923267"
       height="2.0312202"
       x="-504.46036"
       y="1201.4158"
       transform="matrix(0.8860954,-0.4635029,0,1,0,0)"
       id="rect8932"
       style="fill:#bebebe;fill-opacity:1;stroke:none;stroke-width:2.00000048;marker:none;visibility:visible;display:inline;overflow:visible;enable-background:accumulate" />
  </g>
  <g
     transform="translate(460,-1420.1722)"
     id="layer4" />
  <g
     transform="translate(460,-1420.1722)"
     id="layer12" />
  <g
     transform="translate(460,-1420.1722)"
     id="layer9" />
  <g
     transform="translate(460,-1420.1722)"
     id="layer10" />
  <g
     transform="translate(460,-1420.1722)"
     id="layer6" />
</svg>
