<?xml version="1.0" encoding="UTF-8" standalone="no"?>
<!-- Created with Inkscape (http://www.inkscape.org/) -->
<svg
   xmlns:svg="http://www.w3.org/2000/svg"
   xmlns="http://www.w3.org/2000/svg"
   xmlns:xlink="http://www.w3.org/1999/xlink"
   version="1.0"
   width="24.04772"
   height="24"
   id="svg7384">
  <title
     id="title9167">Moblin Icon Theme</title>
  <defs
     id="defs7386">
    <linearGradient
       id="linearGradient7487-6">
      <stop
         id="stop7489-8"
         style="stop-color:#bebebe;stop-opacity:1"
         offset="0" />
      <stop
         id="stop7491-2"
         style="stop-color:#bebebe;stop-opacity:0"
         offset="1" />
    </linearGradient>
    <linearGradient
       x1="105.91268"
       y1="121.0463"
       x2="105.91268"
       y2="115.05012"
       id="linearGradient11328"
       xlink:href="#linearGradient7487-6"
       gradientUnits="userSpaceOnUse"
       gradientTransform="matrix(1,0,0,1.091442,458.08712,352.47831)" />
    <linearGradient
       x1="105.91268"
       y1="121.73069"
       x2="105.91268"
       y2="115.05012"
       id="linearGradient11330"
       xlink:href="#linearGradient7487-6"
       gradientUnits="userSpaceOnUse"
       gradientTransform="matrix(1,0,0,1.273349,458.08712,-648.44198)" />
  </defs>
  <g
     transform="translate(592.00002,-1560)"
     id="layer3" />
  <g
     transform="translate(592.00002,-1560)"
     id="layer5" />
  <g
     transform="translate(592.00002,-1560)"
     id="layer7" />
  <g
     transform="translate(592.00002,-1560)"
     id="layer2" />
  <g
     transform="translate(592.00002,-1560)"
     id="layer8" />
  <g
     transform="translate(592.00002,-2512.3622)"
     id="layer1" />
  <g
     transform="translate(592.00002,-1560)"
     id="layer11">
    <g
       transform="translate(-1069.9523,2146.9971)"
       id="use8459">
      <rect
         width="24"
         height="24"
         x="-502"
         y="-586.99707"
         transform="scale(-1,1)"
         id="rect11318"
         style="opacity:0;fill:#ffffff;fill-opacity:1;stroke:none;display:inline" />
      <rect
         width="2.0000005"
         height="12"
         rx="1.0000002"
         ry="1.0000002"
         x="562.99707"
         y="478"
         transform="matrix(0,-1,1,0,0,0)"
         id="rect11320"
         style="fill:url(#linearGradient11328);fill-opacity:1;stroke:none;display:inline" />
      <rect
         width="2.0000005"
         height="5"
         rx="1.0000002"
         ry="1.0000002"
         x="-490.00806"
         y="563.99707"
         transform="scale(-1,-1)"
         id="rect11322"
         style="fill:#bebebe;fill-opacity:1;stroke:none;display:inline" />
      <rect
         width="2.0000005"
         height="14"
         rx="1.0000002"
         ry="1.0000002"
         x="562.99707"
         y="-502"
         transform="matrix(0,-1,-1,0,0,0)"
         id="rect11324"
         style="fill:url(#linearGradient11330);fill-opacity:1;stroke:none;display:inline" />
      <g
         transform="translate(27.9375,0)"
         id="use11326">
        <path
           d="M 455.00184,-578 L 471.0625,-578 L 471.0625,-572.02066 C 471.0625,-569.94354 469.78607,-568 467.44378,-568 L 451.01478,-568 L 451.01478,-585.97227 L 456.9375,-585.97227 C 458.95323,-585.97227 460,-584.52938 460,-582.97227 L 460.0329,-582 L 469.06249,-582 L 469.06249,-578"
           id="path11346"
           style="fill:none;stroke:#bebebe;stroke-width:2;stroke-linecap:round;stroke-linejoin:round;stroke-miterlimit:4;stroke-dasharray:none;stroke-opacity:1" />
        <path
           d="M 454.51127,-577.94084 L 454.51146,-572 C 454.51127,-569.83448 452.96474,-568.92707 452.03666,-568.92707"
           id="path11348"
           style="fill:none;stroke:#bebebe;stroke-width:1px;stroke-linecap:butt;stroke-linejoin:miter;stroke-opacity:1" />
      </g>
    </g>
  </g>
  <g
     transform="translate(592.00002,-1560)"
     id="layer4" />
  <g
     transform="translate(592.00002,-1560)"
     id="layer9" />
  <g
     transform="translate(592.00002,-1560)"
     id="layer10" />
  <g
     transform="translate(592.00002,-1560)"
     id="layer6" />
</svg>
