<?xml version="1.0" encoding="UTF-8" standalone="no"?>
<!-- Created with Inkscape (http://www.inkscape.org/) -->
<svg
   xmlns:svg="http://www.w3.org/2000/svg"
   xmlns="http://www.w3.org/2000/svg"
   version="1.0"
   width="24"
   height="24"
   id="svg7384">
  <title
     id="title9167">Moblin Icon Theme</title>
  <defs
     id="defs7386" />
  <g
     transform="translate(564,-1520)"
     id="layer3" />
  <g
     transform="translate(564,-1520)"
     id="layer5" />
  <g
     transform="translate(564,-1520)"
     id="layer7" />
  <g
     transform="translate(564,-1520)"
     id="layer2" />
  <g
     transform="translate(564,-1520)"
     id="layer8" />
  <g
     transform="translate(564,-2472.3621)"
     id="layer1" />
  <g
     transform="translate(564,-1520)"
     id="layer11">
    <rect
       width="24"
       height="24"
       x="-564"
       y="1520"
       id="rect7386"
       style="opacity:0;fill:#ffffff;fill-opacity:1;stroke:none;display:inline" />
    <rect
       width="2.0000131"
       height="7.9999938"
       rx="0.99999994"
       ry="0.99999982"
       x="-553"
       y="1523"
       id="rect10270-4-4"
       style="fill:#bebebe;fill-opacity:1;stroke:none;display:inline" />
    <path
       d="M -553.12341,1541.1865 C -549.6406,1541.6098 -546.07458,1540.0128 -544.21449,1536.8299 C -541.73437,1532.5861 -543.19633,1527.1229 -547.49202,1524.6727 C -547.80202,1524.4514 -548.21223,1524.4229 -548.55057,1524.5991 C -548.88891,1524.7753 -549.09688,1525.1258 -549.08723,1525.5035 C -549.07758,1525.8812 -548.85198,1526.2209 -548.50507,1526.38 C -545.15223,1528.2924 -544.00688,1532.5167 -545.94264,1535.8291 C -547.8784,1539.1415 -552.15422,1540.273 -555.50706,1538.3606 C -558.8599,1536.4482 -560.00526,1532.224 -558.06949,1528.9116 C -557.41002,1527.7831 -556.64931,1527.0316 -555.50706,1526.38 C -555.13599,1526.241 -554.88228,1525.8995 -554.8593,1525.5081 C -554.83633,1525.1167 -555.04837,1524.7485 -555.40069,1524.5681 C -555.75301,1524.3876 -556.17979,1524.4286 -556.49032,1524.6727 C -557.89758,1525.4754 -558.98516,1526.5204 -559.79764,1527.9107 C -562.27776,1532.1546 -560.78601,1537.6177 -556.49032,1540.0679 C -555.4164,1540.6805 -554.28434,1541.0454 -553.12341,1541.1865 z"
       id="path10982-3-7"
       style="fill:#bebebe;fill-opacity:1;stroke:none;stroke-width:2.11038327;stroke-linecap:round;stroke-miterlimit:4;stroke-dasharray:none;stroke-opacity:1;display:inline" />
  </g>
  <g
     transform="translate(564,-1520)"
     id="layer4" />
  <g
     transform="translate(564,-1520)"
     id="layer12" />
  <g
     transform="translate(564,-1520)"
     id="layer9" />
  <g
     transform="translate(564,-1520)"
     id="layer10" />
  <g
     transform="translate(564,-1520)"
     id="layer6" />
</svg>
