<?xml version="1.0" encoding="UTF-8" standalone="no"?>
<!-- Created with Inkscape (http://www.inkscape.org/) -->
<svg
   xmlns:svg="http://www.w3.org/2000/svg"
   xmlns="http://www.w3.org/2000/svg"
   version="1.0"
   width="24"
   height="24.027588"
   id="svg7384">
  <title
     id="title9167">Moblin Icon Theme</title>
  <defs
     id="defs7386" />
  <g
     transform="translate(488,-1130.0378)"
     id="layer3" />
  <g
     transform="translate(488,-1130.0378)"
     id="layer5" />
  <g
     transform="translate(488,-1130.0378)"
     id="layer7" />
  <g
     transform="translate(488,-1130.0378)"
     id="layer2" />
  <g
     transform="translate(488,-1130.0378)"
     id="layer8" />
  <g
     transform="translate(488,-2082.4)"
     id="layer1" />
  <g
     transform="translate(488,-1130.0378)"
     id="layer11">
    <rect
       width="24"
       height="24"
       x="-488"
       y="1130.0654"
       id="rect6736-0"
       style="opacity:0;fill:#ffffff;fill-opacity:1;stroke:none;display:inline" />
    <path
       d="M -472.625,1132.6875 C -472.6962,1132.7144 -472.76032,1132.7571 -472.8125,1132.8125 L -476.6875,1136.125 L -476.875,1136.2812 L -476.875,1136.5 C -476.875,1136.5 -476.9375,1142.5 -476.9375,1142.5 L -476.9375,1142.9688 L -476.46875,1143 C -476.46875,1143 -474.46875,1143.125 -474.46875,1143.125 L -474.125,1143.1562 L -473.96875,1142.8125 L -472.71875,1139.9062 L -469.65625,1142.1562 L -468.84375,1142.7812 L -468.875,1141.7188 L -468.96875,1139.2812 L -466.03125,1140.2812 C -465.856,1140.3717 -465.64393,1140.3508 -465.48979,1140.2277 C -465.33565,1140.1046 -465.26825,1139.9025 -465.31771,1139.7115 C -465.36717,1139.5206 -465.52425,1139.3766 -465.71875,1139.3438 L -469.34375,1138.0938 L -470.03125,1137.8438 L -470,1138.5938 L -469.90625,1140.75 L -472.65625,1138.7188 L -473.15625,1138.3438 L -473.40625,1138.9375 L -474.75,1142.0938 C -475.08831,1142.0726 -475.51151,1142.0579 -475.9375,1142.0312 C -475.92953,1141.2661 -475.87889,1137.092 -475.875,1136.7188 L -472.1875,1133.5625 C -472.00284,1133.4153 -471.94631,1133.159 -472.05191,1132.9478 C -472.15751,1132.7366 -472.39646,1132.6281 -472.625,1132.6875 L -472.625,1132.6875 z"
       id="path6777-2"
       style="fill:#bebebe;fill-opacity:1;fill-rule:nonzero;stroke:none;stroke-width:1;stroke-linecap:round;stroke-linejoin:miter;marker:none;stroke-miterlimit:4;stroke-dasharray:none;stroke-dashoffset:0;stroke-opacity:1;visibility:visible;display:inline;overflow:visible;enable-background:accumulate" />
    <path
       d="M -474.875,1144 L -475.03125,1144.2812 L -475.9375,1146 L -476.1875,1146.5 L -475.71875,1146.7188 L -473.28125,1147.7812 L -473.21875,1149.5312 L -473.21875,1150.125 L -472.625,1150 L -470.875,1149.5938 L -470.5,1149.5312 L -470.46875,1149.1562 L -470,1144.5938 L -470,1144.5625 L -469.6875,1144 L -470.5,1144 L -474.59375,1144 L -474.875,1144 z M -474.25,1145 L -471.0625,1145 L -471.4375,1148.6875 L -472.25,1148.875 L -472.28125,1147.4375 L -472.3125,1147.125 L -472.59375,1147 L -474.8125,1146 L -474.25,1145 z"
       id="path6780-0"
       style="fill:#bebebe;fill-opacity:1;fill-rule:nonzero;stroke:none;stroke-width:1;stroke-linecap:round;stroke-linejoin:miter;marker:none;stroke-miterlimit:4;stroke-dasharray:none;stroke-dashoffset:0;stroke-opacity:1;visibility:visible;display:inline;overflow:visible;enable-background:accumulate" />
    <path
       d="M -483.8125,1133.4375 C -484.01783,1133.4883 -484.16902,1133.6627 -484.19007,1133.8732 C -484.21111,1134.0836 -484.09747,1134.2846 -483.90625,1134.375 L -479.9375,1136.3438 L -481.03125,1139.0938 L -484.6875,1141.125 L -485.71875,1141.6875 L -484.59375,1142.0312 L -482.15625,1142.7812 L -484.78125,1145.25 L -484.9375,1145.4062 L -484.9375,1145.5938 L -485.125,1150.0312 C -485.14229,1150.3073 -484.93244,1150.5452 -484.6563,1150.5625 C -484.38016,1150.5798 -484.14229,1150.3699 -484.125,1150.0938 L -483.9375,1145.875 L -480.84375,1142.9375 L -480.21875,1142.3438 L -481.03125,1142.0938 L -483.1875,1141.4375 L -480.375,1139.875 L -480.21875,1139.7812 L -480.15625,1139.625 L -478.84375,1136.3125 L -478.6875,1135.875 L -479.09375,1135.6875 L -483.46875,1133.5 C -483.57209,1133.4385 -483.69413,1133.4163 -483.8125,1133.4375 L -483.8125,1133.4375 z"
       id="path6782-1"
       style="fill:#bebebe;fill-opacity:1;fill-rule:nonzero;stroke:none;stroke-width:1;stroke-linecap:round;stroke-linejoin:miter;marker:none;stroke-miterlimit:4;stroke-dasharray:none;stroke-dashoffset:0;stroke-opacity:1;visibility:visible;display:inline;overflow:visible;enable-background:accumulate" />
    <path
       d="M -487.03125,1132 C -487.54661,1132.0486 -487.93973,1132.4824 -487.9375,1133 L -487.9375,1151.0625 C -487.93744,1151.6148 -487.48976,1152.0624 -486.9375,1152.0625 L -465.0625,1152.0625 C -464.51024,1152.0624 -464.06256,1151.6148 -464.0625,1151.0625 L -464.0625,1133 C -464.06256,1132.4477 -464.51024,1132.0001 -465.0625,1132 L -486.9375,1132 C -486.96873,1131.9985 -487.00002,1131.9985 -487.03125,1132 z M -485.9375,1134 L -466.0625,1134 L -466.0625,1150.0625 L -485.9375,1150.0625 L -485.9375,1134 z"
       id="rect7929"
       style="fill:#bebebe;fill-opacity:1;stroke:none;stroke-width:2;stroke-linecap:round;stroke-linejoin:round;marker:none;stroke-miterlimit:4;stroke-dasharray:none;stroke-dashoffset:0;stroke-opacity:1;visibility:visible;display:inline;overflow:visible;enable-background:accumulate" />
    <path
       d="M -483.5625,1133.875 L -479.1875,1136.0625 L -480.6875,1139.625 L -484.375,1141.75 L -481.375,1142.5 L -484.4375,1145.5 L -484.6875,1150.875 L -472.8125,1150.75 L -472.9375,1147.4375 L -475.5625,1146.3125 L -474.625,1144.125 L -470.5625,1144.4375 L -470.875,1149.0625 L -472.5625,1149.6875 L -472.5625,1150.75 C -472.5625,1150.75 -465.4375,1151 -465.375,1150.687 C -465.3125,1150.3745 -465.375,1139.812 -465.375,1139.812 L -469.5625,1138.562 L -469.4375,1141.562 L -472.875,1138.9995 L -474.4375,1142.8745 L -476.5625,1142.4995 L -476.5625,1136.3745 L -472.75,1133.437 L -483.5625,1133.8745 L -483.5625,1133.875 z"
       id="path7931"
       style="opacity:0.5;fill:#bebebe;fill-opacity:1;stroke:none;stroke-width:2;marker:none;visibility:visible;display:inline;overflow:visible;enable-background:accumulate" />
    <g
       transform="translate(2.9185791,759.06542)"
       id="g7949">
      <rect
         width="0.97227585"
         height="3.0051565"
         x="-487.01981"
         y="1090.0378"
         transform="translate(-2.9185791,-719.06542)"
         id="rect7933"
         style="fill:#bebebe;fill-opacity:1;fill-rule:nonzero;stroke:none;stroke-width:2;marker:none;visibility:visible;display:inline;overflow:visible;enable-background:accumulate" />
      <rect
         width="0.97227585"
         height="3.0051565"
         x="-486.89087"
         y="370.97241"
         id="rect7935"
         style="fill:#bebebe;fill-opacity:1;fill-rule:nonzero;stroke:none;stroke-width:2;marker:none;visibility:visible;display:inline;overflow:visible;enable-background:accumulate" />
      <rect
         width="0.97227585"
         height="3.0051565"
         x="-483.89087"
         y="370.97241"
         id="rect7937"
         style="fill:#bebebe;fill-opacity:1;fill-rule:nonzero;stroke:none;stroke-width:2;marker:none;visibility:visible;display:inline;overflow:visible;enable-background:accumulate" />
      <rect
         width="0.97227585"
         height="3.0051565"
         x="-480.89087"
         y="370.97241"
         id="rect7939"
         style="fill:#bebebe;fill-opacity:1;fill-rule:nonzero;stroke:none;stroke-width:2;marker:none;visibility:visible;display:inline;overflow:visible;enable-background:accumulate" />
      <rect
         width="0.97227585"
         height="3.0051565"
         x="-477.89087"
         y="370.97241"
         id="rect7941"
         style="fill:#bebebe;fill-opacity:1;fill-rule:nonzero;stroke:none;stroke-width:2;marker:none;visibility:visible;display:inline;overflow:visible;enable-background:accumulate" />
      <rect
         width="0.97227585"
         height="3.0051565"
         x="-474.89087"
         y="370.97241"
         id="rect7943"
         style="fill:#bebebe;fill-opacity:1;fill-rule:nonzero;stroke:none;stroke-width:2;marker:none;visibility:visible;display:inline;overflow:visible;enable-background:accumulate" />
      <rect
         width="0.97227585"
         height="3.0051565"
         x="-471.89087"
         y="370.97241"
         id="rect7945"
         style="fill:#bebebe;fill-opacity:1;fill-rule:nonzero;stroke:none;stroke-width:2;marker:none;visibility:visible;display:inline;overflow:visible;enable-background:accumulate" />
      <rect
         width="0.97227585"
         height="3.0051565"
         x="-468.89087"
         y="370.97241"
         id="rect7947"
         style="fill:#bebebe;fill-opacity:1;fill-rule:nonzero;stroke:none;stroke-width:2;marker:none;visibility:visible;display:inline;overflow:visible;enable-background:accumulate" />
    </g>
    <g
       transform="translate(2.9185791,780.02759)"
       id="g7959">
      <rect
         width="0.97227585"
         height="3.0051565"
         x="-487.01981"
         y="1090.0378"
         transform="translate(-2.9185791,-719.06542)"
         id="rect7961"
         style="fill:#bebebe;fill-opacity:1;fill-rule:nonzero;stroke:none;stroke-width:2;marker:none;visibility:visible;display:inline;overflow:visible;enable-background:accumulate" />
      <rect
         width="0.97227585"
         height="3.0051565"
         x="-486.89087"
         y="370.97241"
         id="rect7963"
         style="fill:#bebebe;fill-opacity:1;fill-rule:nonzero;stroke:none;stroke-width:2;marker:none;visibility:visible;display:inline;overflow:visible;enable-background:accumulate" />
      <rect
         width="0.97227585"
         height="3.0051565"
         x="-483.89087"
         y="370.97241"
         id="rect7965"
         style="fill:#bebebe;fill-opacity:1;fill-rule:nonzero;stroke:none;stroke-width:2;marker:none;visibility:visible;display:inline;overflow:visible;enable-background:accumulate" />
      <rect
         width="0.97227585"
         height="3.0051565"
         x="-480.89087"
         y="370.97241"
         id="rect7967"
         style="fill:#bebebe;fill-opacity:1;fill-rule:nonzero;stroke:none;stroke-width:2;marker:none;visibility:visible;display:inline;overflow:visible;enable-background:accumulate" />
      <rect
         width="0.97227585"
         height="3.0051565"
         x="-477.89087"
         y="370.97241"
         id="rect7969"
         style="fill:#bebebe;fill-opacity:1;fill-rule:nonzero;stroke:none;stroke-width:2;marker:none;visibility:visible;display:inline;overflow:visible;enable-background:accumulate" />
      <rect
         width="0.97227585"
         height="3.0051565"
         x="-474.89087"
         y="370.97241"
         id="rect7971"
         style="fill:#bebebe;fill-opacity:1;fill-rule:nonzero;stroke:none;stroke-width:2;marker:none;visibility:visible;display:inline;overflow:visible;enable-background:accumulate" />
      <rect
         width="0.97227585"
         height="3.0051565"
         x="-471.89087"
         y="370.97241"
         id="rect7973"
         style="fill:#bebebe;fill-opacity:1;fill-rule:nonzero;stroke:none;stroke-width:2;marker:none;visibility:visible;display:inline;overflow:visible;enable-background:accumulate" />
      <rect
         width="0.97227585"
         height="3.0051565"
         x="-468.89087"
         y="370.97241"
         id="rect7975"
         style="fill:#bebebe;fill-opacity:1;fill-rule:nonzero;stroke:none;stroke-width:2;marker:none;visibility:visible;display:inline;overflow:visible;enable-background:accumulate" />
    </g>
  </g>
  <g
     transform="translate(488,-1130.0378)"
     id="layer4" />
  <g
     transform="translate(488,-1130.0378)"
     id="layer9" />
  <g
     transform="translate(488,-1130.0378)"
     id="layer10" />
  <g
     transform="translate(488,-1130.0378)"
     id="layer6" />
</svg>
