<?xml version="1.0" encoding="UTF-8" standalone="no"?>
<!-- Created with Inkscape (http://www.inkscape.org/) -->
<svg
   xmlns:svg="http://www.w3.org/2000/svg"
   xmlns="http://www.w3.org/2000/svg"
   version="1.0"
   width="24"
   height="24"
   id="svg7384">
  <title
     id="title9167">Moblin Icon Theme</title>
  <defs
     id="defs7386" />
  <g
     transform="translate(434,-1360.1723)"
     id="layer3" />
  <g
     transform="translate(434,-1360.1723)"
     id="layer5" />
  <g
     transform="translate(434,-1360.1723)"
     id="layer7" />
  <g
     transform="translate(434,-1360.1723)"
     id="layer2" />
  <g
     transform="translate(434,-1360.1723)"
     id="layer8" />
  <g
     transform="translate(434,-2312.5344)"
     id="layer1" />
  <g
     transform="translate(434,-1360.1723)"
     id="layer11">
    <rect
       width="24"
       height="24"
       x="410"
       y="1360.1722"
       transform="scale(-1,1)"
       id="rect9182-8"
       style="opacity:0;fill:#f5f5f5;fill-opacity:1;stroke:none;display:inline" />
    <path
       d="M -430.94791,1360.2035 C -432.58676,1360.2035 -433.91666,1361.5647 -433.91666,1363.2035 C -433.92176,1363.5641 -433.73228,1363.8995 -433.42079,1364.0813 C -433.10929,1364.2632 -432.72403,1364.2632 -432.41253,1364.0813 C -432.10104,1363.8995 -431.91156,1363.5641 -431.91666,1363.2035 C -431.91666,1362.6468 -431.50463,1362.2035 -430.94791,1362.2035 C -430.39115,1362.2036 -429.94791,1362.6468 -429.94791,1363.2035 C -429.95301,1363.5641 -429.76353,1363.8995 -429.45204,1364.0813 C -429.14054,1364.2632 -428.75528,1364.2632 -428.44378,1364.0813 C -428.13229,1363.8995 -427.94281,1363.5641 -427.94791,1363.2035 C -427.94791,1361.5647 -429.3091,1360.2036 -430.94791,1360.2035 z"
       id="path9217-4"
       style="fill:#bebebe;fill-opacity:1;stroke:none;stroke-width:2;stroke-linecap:round;stroke-linejoin:miter;marker:none;stroke-miterlimit:4;stroke-dasharray:none;stroke-dashoffset:0;stroke-opacity:1;visibility:visible;display:inline;overflow:visible;enable-background:new" />
    <path
       d="M -426.9939,1384.1808 C -425.35505,1384.1808 -424.02515,1382.8196 -424.02515,1381.1808 C -424.02005,1380.8202 -424.20953,1380.4847 -424.52102,1380.3029 C -424.83252,1380.1211 -425.21778,1380.1211 -425.52928,1380.3029 C -425.84077,1380.4847 -426.03025,1380.8202 -426.02515,1381.1808 C -426.02515,1381.7375 -426.43718,1382.1808 -426.9939,1382.1808 C -427.55066,1382.1807 -427.9939,1381.7375 -427.9939,1381.1808 C -427.9888,1380.8202 -428.17828,1380.4847 -428.48977,1380.3029 C -428.80127,1380.1211 -429.18653,1380.1211 -429.49803,1380.3029 C -429.80952,1380.4847 -429.999,1380.8202 -429.9939,1381.1808 C -429.9939,1382.8196 -428.63271,1384.1807 -426.9939,1384.1808 z"
       id="path9219-0"
       style="fill:#bebebe;fill-opacity:1;stroke:none;stroke-width:2;stroke-linecap:round;stroke-linejoin:miter;marker:none;stroke-miterlimit:4;stroke-dasharray:none;stroke-dashoffset:0;stroke-opacity:1;visibility:visible;display:inline;overflow:visible;enable-background:new" />
    <path
       d="M -428.96875,1362.2188 C -429.23945,1362.2187 -429.49864,1362.3283 -429.68709,1362.5227 C -429.87554,1362.717 -429.97717,1362.9794 -429.96875,1363.25 L -429.96875,1381.1875 C -429.97385,1381.5481 -429.78437,1381.8836 -429.47288,1382.0654 C -429.16138,1382.2472 -428.77612,1382.2472 -428.46462,1382.0654 C -428.15313,1381.8836 -427.96365,1381.5481 -427.96875,1381.1875 L -427.96875,1363.25 C -427.96033,1362.9794 -428.06196,1362.717 -428.25041,1362.5227 C -428.43886,1362.3283 -428.69805,1362.2187 -428.96875,1362.2188 z"
       id="path9221-0"
       style="fill:#bebebe;fill-opacity:1;stroke:none;stroke-width:2;stroke-linecap:round;stroke-linejoin:miter;marker:none;stroke-miterlimit:4;stroke-dasharray:none;stroke-dashoffset:0;stroke-opacity:1;visibility:visible;display:inline;overflow:visible;enable-background:new" />
    <path
       d="M -412.9939,1384.1808 C -411.35505,1384.1808 -410.02515,1382.8196 -410.02515,1381.1808 C -410.02005,1380.8202 -410.20953,1380.4847 -410.52102,1380.3029 C -410.83252,1380.1211 -411.21778,1380.1211 -411.52928,1380.3029 C -411.84077,1380.4847 -412.03025,1380.8202 -412.02515,1381.1808 C -412.02515,1381.7375 -412.43718,1382.1808 -412.9939,1382.1808 C -413.35454,1382.1757 -413.68998,1382.3652 -413.87179,1382.6767 C -414.05359,1382.9882 -414.05359,1383.3734 -413.87179,1383.6849 C -413.68998,1383.9964 -413.35454,1384.1859 -412.9939,1384.1808 z"
       id="path9223-2"
       style="fill:#bebebe;fill-opacity:1;stroke:none;stroke-width:2;stroke-linecap:round;stroke-linejoin:miter;marker:none;stroke-miterlimit:4;stroke-dasharray:none;stroke-dashoffset:0;stroke-opacity:1;visibility:visible;display:inline;overflow:visible;enable-background:new" />
    <path
       d="M -425.0625,1380.1875 C -425.61478,1380.2134 -426.04151,1380.6821 -426.01562,1381.2344 C -425.98974,1381.7867 -425.52103,1382.2134 -424.96875,1382.1875 L -411,1382.1875 C -410.63936,1382.1926 -410.30392,1382.0031 -410.12211,1381.6916 C -409.94031,1381.3801 -409.94031,1380.9949 -410.12211,1380.6834 C -410.30392,1380.3719 -410.63936,1380.1824 -411,1380.1875 L -424.96875,1380.1875 C -424.99998,1380.186 -425.03127,1380.186 -425.0625,1380.1875 z"
       id="path9225-9"
       style="fill:#bebebe;fill-opacity:1;stroke:none;stroke-width:2;stroke-linecap:round;stroke-linejoin:miter;marker:none;stroke-miterlimit:4;stroke-dasharray:none;stroke-dashoffset:0;stroke-opacity:1;visibility:visible;display:inline;overflow:visible;enable-background:new" />
    <path
       d="M -427.09375,1382.125 C -427.64603,1382.1509 -428.07276,1382.6196 -428.04687,1383.1719 C -428.02099,1383.7242 -427.55228,1384.1509 -427,1384.125 L -412.96875,1384.125 C -412.60811,1384.1301 -412.27267,1383.9406 -412.09086,1383.6291 C -411.90906,1383.3176 -411.90906,1382.9324 -412.09086,1382.6209 C -412.27267,1382.3094 -412.60811,1382.1199 -412.96875,1382.125 L -427,1382.125 C -427.03123,1382.1235 -427.06252,1382.1235 -427.09375,1382.125 z"
       id="path9227-7"
       style="fill:#bebebe;fill-opacity:1;stroke:none;stroke-width:2;stroke-linecap:round;stroke-linejoin:miter;marker:none;stroke-miterlimit:4;stroke-dasharray:none;stroke-dashoffset:0;stroke-opacity:1;visibility:visible;display:inline;overflow:visible;enable-background:new" />
    <path
       d="M -415.9939,1360.1638 C -414.35505,1360.1638 -413.02515,1361.525 -413.02515,1363.1638 C -413.02005,1363.5244 -413.20953,1363.8598 -413.52102,1364.0416 C -413.83252,1364.2235 -414.21778,1364.2235 -414.52928,1364.0416 C -414.84077,1363.8598 -415.03025,1363.5244 -415.02515,1363.1638 C -415.02515,1362.6071 -415.43718,1362.1638 -415.9939,1362.1638 C -416.35454,1362.1689 -416.68998,1361.9794 -416.87179,1361.6679 C -417.05359,1361.3564 -417.05359,1360.9711 -416.87179,1360.6596 C -416.68998,1360.3481 -416.35454,1360.1587 -415.9939,1360.1638 z"
       id="path9229-2"
       style="fill:#bebebe;fill-opacity:1;stroke:none;stroke-width:2;stroke-linecap:round;stroke-linejoin:miter;marker:none;stroke-miterlimit:4;stroke-dasharray:none;stroke-dashoffset:0;stroke-opacity:1;visibility:visible;display:inline;overflow:visible;enable-background:new" />
    <path
       d="M -414.15625,1362.1562 C -414.62188,1362.2605 -414.94899,1362.6792 -414.9375,1363.1562 L -414.9375,1381.1875 C -414.9426,1381.5481 -414.75312,1381.8836 -414.44163,1382.0654 C -414.13013,1382.2472 -413.74487,1382.2472 -413.43337,1382.0654 C -413.12188,1381.8836 -412.9324,1381.5481 -412.9375,1381.1875 L -412.9375,1363.1562 C -412.93006,1362.8483 -413.06486,1362.5542 -413.30293,1362.3589 C -413.54099,1362.1636 -413.85577,1362.0888 -414.15625,1362.1562 z"
       id="path9231-7"
       style="fill:#bebebe;fill-opacity:1;stroke:none;stroke-width:2;stroke-linecap:round;stroke-linejoin:miter;marker:none;stroke-miterlimit:4;stroke-dasharray:none;stroke-dashoffset:0;stroke-opacity:1;visibility:visible;display:inline;overflow:visible;enable-background:new" />
    <path
       d="M -431.28125,1360.2188 C -431.83353,1360.2792 -432.23228,1360.7759 -432.17187,1361.3282 C -432.11147,1361.8805 -431.61478,1362.2792 -431.0625,1362.2188 L -415.96875,1362.2188 C -415.60811,1362.2239 -415.27267,1362.0344 -415.09086,1361.7229 C -414.90906,1361.4114 -414.90906,1361.0262 -415.09086,1360.7147 C -415.27267,1360.4032 -415.60811,1360.2137 -415.96875,1360.2188 L -431.0625,1360.2188 C -431.1352,1360.2108 -431.20855,1360.2108 -431.28125,1360.2188 z"
       id="path9233-7"
       style="fill:#bebebe;fill-opacity:1;stroke:none;stroke-width:2;stroke-linecap:round;stroke-linejoin:miter;marker:none;stroke-miterlimit:4;stroke-dasharray:none;stroke-dashoffset:0;stroke-opacity:1;visibility:visible;display:inline;overflow:visible;enable-background:new" />
    <rect
       width="2"
       height="6"
       rx="1"
       ry="0.99999982"
       x="-421.99939"
       y="1366.1722"
       id="rect10270-4"
       style="fill:#bebebe;fill-opacity:1;stroke:none;display:inline" />
    <path
       d="M -421.64756,1376.1259 C -420.42587,1376.2907 -419.14501,1375.9923 -418.09229,1375.2031 C -415.98683,1373.6247 -415.57256,1370.6262 -417.1716,1368.5479 C -417.38282,1368.2482 -417.74359,1368.0869 -418.11117,1368.128 C -418.47874,1368.169 -418.79389,1368.4058 -418.93192,1368.7445 C -419.06994,1369.0833 -419.00861,1369.4695 -418.77218,1369.7503 C -417.8319,1370.9724 -418.07236,1372.6951 -419.31043,1373.6232 C -420.54849,1374.5513 -422.29369,1374.314 -423.23397,1373.0919 C -424.02442,1372.0646 -424.02417,1370.7779 -423.23397,1369.7503 C -422.99755,1369.4695 -422.93621,1369.0833 -423.07424,1368.7445 C -423.21227,1368.4058 -423.52741,1368.169 -423.89499,1368.128 C -424.26256,1368.0869 -424.62333,1368.2482 -424.83456,1368.5479 C -426.14337,1370.2498 -426.14379,1372.5927 -424.83456,1374.2943 C -424.03503,1375.3334 -422.86924,1375.961 -421.64756,1376.1259 z"
       id="path10982-3"
       style="fill:#bebebe;fill-opacity:1;stroke:none;stroke-width:4.44123936;stroke-linecap:round;stroke-miterlimit:4;stroke-dasharray:none;stroke-opacity:1;display:inline" />
  </g>
  <g
     transform="translate(434,-1360.1723)"
     id="layer4" />
  <g
     transform="translate(434,-1360.1723)"
     id="layer12" />
  <g
     transform="translate(434,-1360.1723)"
     id="layer9" />
  <g
     transform="translate(434,-1360.1723)"
     id="layer10" />
  <g
     transform="translate(434,-1360.1723)"
     id="layer6" />
</svg>
