<?xml version="1.0" encoding="UTF-8" standalone="no"?>
<!-- Created with Inkscape (http://www.inkscape.org/) -->
<svg
   xmlns:svg="http://www.w3.org/2000/svg"
   xmlns="http://www.w3.org/2000/svg"
   version="1.0"
   width="24"
   height="24"
   id="svg7384">
  <title
     id="title9167">Moblin Icon Theme</title>
  <defs
     id="defs7386" />
  <g
     transform="translate(486.01586,-1420.1723)"
     id="layer3" />
  <g
     transform="translate(486.01586,-1420.1723)"
     id="layer5" />
  <g
     transform="translate(486.01586,-1420.1723)"
     id="layer7" />
  <g
     transform="translate(486.01586,-1420.1723)"
     id="layer2" />
  <g
     transform="translate(486.01586,-1420.1723)"
     id="layer8" />
  <g
     transform="translate(486.01586,-2372.5344)"
     id="layer1" />
  <g
     transform="translate(486.01586,-1420.1723)"
     id="layer11">
    <rect
       width="24"
       height="24"
       x="462.01587"
       y="1420.1722"
       transform="scale(-1,1)"
       id="rect8837"
       style="opacity:0;fill:#ffffff;fill-opacity:1;stroke:none;display:inline" />
    <path
       d="M -483.933,1425.9904 L -483.933,1427.0528 L -483.933,1432.9591 L -483.933,1434.0216 L -482.99735,1433.588 L -476.98646,1430.8023 L -476.02245,1430.3556 L -476.02245,1429.2931 L -476.02245,1423.3868 L -476.02245,1422.3244 L -476.98646,1422.7711 L -482.99735,1425.5568 L -483.933,1425.9904 z M -482.03334,1427.2037 L -477.92212,1425.2984 L -477.92212,1429.1421 L -482.03334,1431.0474 L -482.03334,1427.2037 z"
       id="rect8849"
       style="fill:#bebebe;fill-opacity:1;stroke:none;stroke-width:2.09968352;stroke-linecap:round;stroke-linejoin:miter;marker:none;stroke-miterlimit:4;stroke-dasharray:none;stroke-dashoffset:0;stroke-opacity:1;visibility:visible;display:inline;overflow:visible;enable-background:accumulate" />
    <path
       d="M -473.97973,1425.9181 L -473.97973,1426.9493 L -473.97973,1432.8868 L -473.97973,1433.9181 L -473.00769,1433.489 L -467.00397,1430.8392 L -466.03194,1430.4102 L -466.03194,1429.3789 L -466.03194,1423.4414 L -466.03194,1422.4102 L -467.00397,1422.8392 L -473.00769,1425.489 L -473.97973,1425.9181 z M -472.06425,1427.1663 L -467.94741,1425.3493 L -467.94741,1429.193 L -472.06425,1431.01 L -472.06425,1427.1663 z"
       id="rect8851"
       style="fill:#bebebe;fill-opacity:1;stroke:none;stroke-width:2.09100175;stroke-linecap:round;stroke-linejoin:miter;marker:none;stroke-miterlimit:4;stroke-dasharray:none;stroke-dashoffset:0;stroke-opacity:1;visibility:visible;display:inline;overflow:visible;enable-background:accumulate" />
    <path
       d="M -483.933,1435.9591 L -483.933,1436.9904 L -483.933,1442.9278 L -483.933,1443.9904 L -482.99735,1443.5568 L -476.98646,1440.7711 L -476.02245,1440.3244 L -476.02245,1439.2618 L -476.02245,1433.3244 L -476.02245,1432.2931 L -476.98646,1432.7398 L -482.99735,1435.5255 L -483.933,1435.9591 z M -482.03334,1437.1724 L -477.92212,1435.2671 L -477.92212,1439.0797 L -482.03334,1440.985 L -482.03334,1437.1724 z"
       id="rect8853"
       style="fill:#bebebe;fill-opacity:1;stroke:none;stroke-width:2.09968352;stroke-linecap:round;stroke-linejoin:miter;marker:none;stroke-miterlimit:4;stroke-dasharray:none;stroke-dashoffset:0;stroke-opacity:1;visibility:visible;display:inline;overflow:visible;enable-background:accumulate" />
    <path
       d="M -473.97973,1435.8868 L -473.97973,1436.9181 L -473.97973,1442.8555 L -473.97973,1443.8868 L -473.00769,1443.4577 L -467.00397,1440.8079 L -466.03194,1440.3789 L -466.03194,1439.3476 L -466.03194,1433.4102 L -466.03194,1432.3789 L -467.00397,1432.8079 L -473.00769,1435.4577 L -473.97973,1435.8868 z M -472.06425,1437.135 L -467.94741,1435.318 L -467.94741,1439.1306 L -472.06425,1440.9476 L -472.06425,1437.135 z"
       id="rect8855"
       style="fill:#bebebe;fill-opacity:1;stroke:none;stroke-width:2.09100175;stroke-linecap:round;stroke-linejoin:miter;marker:none;stroke-miterlimit:4;stroke-dasharray:none;stroke-dashoffset:0;stroke-opacity:1;visibility:visible;display:inline;overflow:visible;enable-background:accumulate" />
  </g>
  <g
     transform="translate(486.01586,-1420.1723)"
     id="layer4" />
  <g
     transform="translate(486.01586,-1420.1723)"
     id="layer12" />
  <g
     transform="translate(486.01586,-1420.1723)"
     id="layer9" />
  <g
     transform="translate(486.01586,-1420.1723)"
     id="layer10" />
  <g
     transform="translate(486.01586,-1420.1723)"
     id="layer6" />
</svg>
