<?xml version="1.0" encoding="UTF-8" standalone="no"?>
<!-- Created with Inkscape (http://www.inkscape.org/) -->
<svg
   xmlns:svg="http://www.w3.org/2000/svg"
   xmlns="http://www.w3.org/2000/svg"
   version="1.0"
   width="24.052893"
   height="24.04825"
   id="svg7384">
  <title
     id="title9167">Moblin Icon Theme</title>
  <defs
     id="defs7386" />
  <g
     transform="translate(592,-1090)"
     id="layer3" />
  <g
     transform="translate(592,-1090)"
     id="layer5" />
  <g
     transform="translate(592,-1090)"
     id="layer7" />
  <g
     transform="translate(592,-1090)"
     id="layer2" />
  <g
     transform="translate(592,-1090)"
     id="layer8" />
  <g
     transform="translate(592,-2042.3622)"
     id="layer1" />
  <g
     transform="translate(592,-1090)"
     id="layer11">
    <rect
       width="24"
       height="24"
       x="-591.9892"
       y="1090.0482"
       id="rect6967-1"
       style="opacity:0;fill:#ffffff;fill-opacity:1;stroke:none;display:inline" />
    <path
       d="M -583.1875,1109.0625 C -583.73978,1109.1143 -584.14553,1109.604 -584.09375,1110.1562 C -584.04197,1110.7085 -583.55228,1111.1143 -583,1111.0625 L -577.09375,1111.0625 C -576.73312,1111.0676 -576.39768,1110.8781 -576.21587,1110.5666 C -576.03407,1110.2551 -576.03407,1109.8699 -576.21587,1109.5584 C -576.39768,1109.2469 -576.73312,1109.0574 -577.09375,1109.0625 L -583,1109.0625 C -583.06236,1109.0566 -583.12514,1109.0566 -583.1875,1109.0625 z"
       id="path6971-4"
       style="fill:#bebebe;fill-opacity:1;fill-rule:nonzero;stroke:none;stroke-width:1.99999964;stroke-linecap:round;stroke-linejoin:miter;marker:none;stroke-miterlimit:4;stroke-dasharray:none;stroke-dashoffset:0;stroke-opacity:1;visibility:visible;display:inline;overflow:visible;enable-background:new" />
    <path
       d="M -588.75,1090 C -590.539,1090 -592,1091.461 -592,1093.25 L -592,1104.7812 C -592,1106.5702 -590.53899,1108.0313 -588.75,1108.0312 L -571.21875,1108.0312 C -569.42975,1108.0312 -567.93754,1106.5703 -567.9375,1104.7812 L -567.9375,1093.25 C -567.9375,1091.461 -569.42974,1090 -571.21875,1090 L -588.75,1090 z M -588.75,1092 L -571.21875,1092 C -570.50314,1092 -569.9375,1092.5344 -569.9375,1093.25 L -569.9375,1104.7812 C -569.93751,1105.4969 -570.50316,1106.0312 -571.21875,1106.0312 L -588.75,1106.0312 C -589.46556,1106.0313 -590,1105.4968 -590,1104.7812 L -590,1093.25 C -590,1092.5344 -589.46559,1092 -588.75,1092 z"
       id="rect6989-0"
       style="fill:#bebebe;fill-opacity:1;stroke:none;stroke-width:2;stroke-linecap:round;stroke-linejoin:round;marker:none;stroke-miterlimit:4;stroke-dasharray:none;stroke-dashoffset:0;stroke-opacity:1;visibility:visible;display:inline;overflow:visible;enable-background:accumulate" />
    <path
       d="M -588.59375,1093.0625 C -588.82034,1093.1209 -588.97613,1093.3286 -588.96875,1093.5625 L -588.96875,1104.5625 C -588.96872,1104.8386 -588.74488,1105.0625 -588.46875,1105.0625 L -571.5,1105.0625 C -571.22387,1105.0625 -571.00003,1104.8386 -571,1104.5625 L -571,1093.5625 C -571.00003,1093.2864 -571.22387,1093.0625 -571.5,1093.0625 L -588.46875,1093.0625 C -588.51025,1093.0573 -588.55225,1093.0573 -588.59375,1093.0625 z M -587.96875,1094.0625 L -572,1094.0625 L -572,1104.0625 L -587.96875,1104.0625 L -587.96875,1094.0625 z"
       id="rect7001-6"
       style="fill:#bebebe;fill-opacity:1;stroke:none;stroke-width:1;stroke-linecap:round;stroke-linejoin:round;marker:none;stroke-miterlimit:4;stroke-dasharray:none;stroke-dashoffset:0;stroke-opacity:1;visibility:visible;display:inline;overflow:visible;enable-background:accumulate" />
    <path
       d="M -587.96875,1094 L -587.96875,1104.125 L -572,1104.125 L -572,1094 L -587.96875,1094 z M -586,1095 L -582,1095 L -580,1097.9375 L -578,1095 L -574,1095 L -578,1099.0938 L -574,1104.0312 L -578,1104 L -580,1100.9688 L -582,1104 L -586,1104 L -581.96875,1099 L -586,1095 z"
       id="rect7173"
       style="fill:#bebebe;fill-opacity:1;stroke:none;stroke-width:1;marker:none;visibility:visible;display:inline;overflow:visible;enable-background:accumulate" />
  </g>
  <g
     transform="translate(592,-1090)"
     id="layer4" />
  <g
     transform="translate(592,-1090)"
     id="layer9" />
  <g
     transform="translate(592,-1090)"
     id="layer10" />
  <g
     transform="translate(592,-1090)"
     id="layer6" />
</svg>
