<?xml version="1.0" encoding="UTF-8" standalone="no"?>
<!-- Created with Inkscape (http://www.inkscape.org/) -->
<svg
   xmlns:svg="http://www.w3.org/2000/svg"
   xmlns="http://www.w3.org/2000/svg"
   version="1.0"
   width="24.058016"
   height="24"
   id="svg7384">
  <title
     id="title9167">Moblin Icon Theme</title>
  <defs
     id="defs7386" />
  <g
     transform="translate(616,-1370.1723)"
     id="layer3" />
  <g
     transform="translate(616,-1370.1723)"
     id="layer5" />
  <g
     transform="translate(616,-1370.1723)"
     id="layer7" />
  <g
     transform="translate(616,-1370.1723)"
     id="layer2" />
  <g
     transform="translate(616,-1370.1723)"
     id="layer8" />
  <g
     transform="translate(616,-2322.5345)"
     id="layer1" />
  <g
     transform="translate(616,-1370.1723)"
     id="layer11">
    <rect
       width="24"
       height="24"
       x="-616"
       y="1370.1722"
       id="rect7049"
       style="opacity:0;fill:#ffffff;fill-opacity:1;stroke:none;display:inline" />
    <path
       d="M -611,1380 C -611.554,1380 -612,1380.446 -612,1381 L -612,1386.9688 C -612,1387.5228 -611.554,1387.9688 -611,1387.9688 L -604,1387.9688 C -603.446,1387.9688 -603,1387.5228 -603,1386.9688 L -603,1381 C -603,1380.446 -603.446,1380 -604,1380 L -611,1380 z M -609.5625,1383.9376 C -609.27002,1383.8999 -608.9792,1384.1746 -609,1384.4688 L -609,1386.9688 L -610,1386.9688 L -610,1384.4688 C -610.0177,1384.2163 -609.81359,1383.9686 -609.5625,1383.9376 z M -607.5625,1383.9376 C -607.27002,1383.8999 -606.9792,1384.1746 -607,1384.4688 L -607,1386.9688 L -608,1386.9688 L -608,1384.4688 C -608.0177,1384.2163 -607.81359,1383.9685 -607.5625,1383.9376 z M -605.5625,1383.9376 C -605.27002,1383.8998 -604.9792,1384.1746 -605,1384.4688 L -605,1386.9688 L -606,1386.9688 L -606,1384.4688 C -606.0177,1384.2163 -605.81359,1383.9684 -605.5625,1383.9376 z"
       id="rect7128"
       style="fill:#bebebe;fill-opacity:1;stroke:none;stroke-width:1;marker:none;visibility:visible;display:inline;overflow:visible;enable-background:accumulate" />
    <path
       d="M -611.75,1372 C -614.05258,1372 -615.9375,1373.8849 -615.9375,1376.1875 L -615.9375,1387.8125 C -615.9375,1390.1151 -614.05258,1392 -611.75,1392 L -596.125,1392 C -593.82242,1392 -591.93754,1390.1151 -591.9375,1387.8125 L -591.9375,1376.1875 C -591.9375,1373.8849 -593.82244,1372 -596.125,1372 L -611.75,1372 z M -611.75,1374 L -596.125,1374 C -594.89587,1374 -593.9375,1374.9583 -593.9375,1376.1875 L -593.9375,1387.8125 C -593.93752,1389.0417 -594.89583,1390 -596.125,1390 L -611.75,1390 C -612.97917,1390 -613.9375,1389.0417 -613.9375,1387.8125 L -613.9375,1376.1875 C -613.9375,1374.9583 -612.97917,1374 -611.75,1374 z"
       id="rect7126"
       style="fill:#bebebe;fill-opacity:1;stroke:none;stroke-width:2;stroke-linecap:round;stroke-linejoin:miter;marker:none;stroke-miterlimit:4;stroke-dasharray:none;stroke-dashoffset:0;stroke-opacity:1;visibility:visible;display:inline;overflow:visible;enable-background:accumulate" />
  </g>
  <g
     transform="translate(616,-1370.1723)"
     id="layer4" />
  <g
     transform="translate(616,-1370.1723)"
     id="layer12" />
  <g
     transform="translate(616,-1370.1723)"
     id="layer9" />
  <g
     transform="translate(616,-1370.1723)"
     id="layer10" />
  <g
     transform="translate(616,-1370.1723)"
     id="layer6" />
</svg>
