<?xml version="1.0" encoding="UTF-8" standalone="no"?>
<!-- Created with Inkscape (http://www.inkscape.org/) -->
<svg
   xmlns:svg="http://www.w3.org/2000/svg"
   xmlns="http://www.w3.org/2000/svg"
   version="1.0"
   width="24.02787"
   height="24"
   id="svg7384">
  <title
     id="title9167">Moblin Icon Theme</title>
  <defs
     id="defs7386" />
  <g
     transform="translate(563.97021,-1360.1338)"
     id="layer3" />
  <g
     transform="translate(563.97021,-1360.1338)"
     id="layer5" />
  <g
     transform="translate(563.97021,-1360.1338)"
     id="layer7" />
  <g
     transform="translate(563.97021,-1360.1338)"
     id="layer2" />
  <g
     transform="translate(563.97021,-1360.1338)"
     id="layer8" />
  <g
     transform="translate(563.97021,-2312.496)"
     id="layer1" />
  <g
     transform="translate(563.97021,-1360.1338)"
     id="layer11">
    <g
       transform="translate(-641.97021,992.77162)"
       id="use7559">
      <rect
         width="24"
         height="24"
         x="78"
         y="367.36218"
         id="rect11819"
         style="opacity:0;fill:#ffffff;fill-opacity:1;stroke:none;display:inline" />
      <path
         d="M -22.534393,202.18527 A 22.98097,22.98097 0 0 1 -48.790367,179.43886"
         transform="matrix(0.2271959,0,0,-0.2224742,90.085,416.3963)"
         id="path11821"
         style="fill:none;stroke:#bebebe;stroke-width:8.89589977;stroke-linecap:round;stroke-miterlimit:4;stroke-dasharray:none;stroke-dashoffset:0;stroke-opacity:1;display:inline" />
      <path
         d="M -22.56261,202.18932 A 22.98097,22.98097 0 0 1 -48.790367,179.43886"
         transform="matrix(-0.2271959,0,0,-0.2224742,89.915,416.3963)"
         id="path11823"
         style="fill:none;stroke:#bebebe;stroke-width:8.89589977;stroke-linecap:round;stroke-miterlimit:4;stroke-dasharray:none;stroke-dashoffset:0;stroke-opacity:1;display:inline" />
      <path
         d="M -2.8284264,179.43886 A 22.98097,22.98097 0 1 1 -48.790367,179.43886 A 22.98097,22.98097 0 1 1 -2.8284264,179.43886 z"
         transform="matrix(8.707119e-2,0,0,-8.716767e-2,86.748235,392.50523)"
         id="path11825"
         style="fill:none;stroke:#bebebe;stroke-width:11.47849751;stroke-linecap:round;stroke-miterlimit:4;stroke-dasharray:none;stroke-dashoffset:0;stroke-opacity:1;display:inline" />
      <path
         d="M -2.8284264,179.43886 A 22.98097,22.98097 0 1 1 -48.790367,179.43886 A 22.98097,22.98097 0 1 1 -2.8284264,179.43886 z"
         transform="matrix(4.351419e-2,0,0,-4.351411e-2,97.12308,387.17032)"
         id="path11827"
         style="fill:#bebebe;fill-opacity:1;stroke:none;display:inline" />
      <path
         d="M -5.9072926,190.92934 A 22.98097,22.98097 0 0 1 -48.716941,177.60326"
         transform="matrix(-0.1249578,0,0,0.1223608,94.9032,362.6615)"
         id="path11829"
         style="fill:none;stroke:#bebebe;stroke-width:16.17436218;stroke-linecap:round;stroke-miterlimit:4;stroke-dasharray:none;stroke-dashoffset:0;stroke-opacity:1;display:inline" />
      <path
         d="M -45.711501,167.94837 A 22.98097,22.98097 0 0 1 -5.907293,167.94837"
         transform="matrix(0.2009837,0,0,0.2609984,95.1873,339.52798)"
         id="path11831"
         style="fill:none;stroke:#bebebe;stroke-width:8.73233986;stroke-linecap:round;stroke-miterlimit:4;stroke-dasharray:none;stroke-dashoffset:0;stroke-opacity:1;display:inline" />
      <path
         d="M -5.9072926,190.92934 A 22.98097,22.98097 0 0 1 -48.719726,177.63836"
         transform="matrix(0.1249578,0,0,0.1223608,85.152,362.6615)"
         id="path11833"
         style="fill:none;stroke:#bebebe;stroke-width:16.17436218;stroke-linecap:round;stroke-miterlimit:4;stroke-dasharray:none;stroke-dashoffset:0;stroke-opacity:1;display:inline" />
      <path
         d="M -2.8284264,179.43886 A 22.98097,22.98097 0 1 1 -48.790367,179.43886 A 22.98097,22.98097 0 1 1 -2.8284264,179.43886 z"
         transform="matrix(4.351419e-2,0,0,-4.351411e-2,99.12308,385.17032)"
         id="path11835"
         style="fill:#bebebe;fill-opacity:1;stroke:none;display:inline" />
      <path
         d="M -2.8284264,179.43886 A 22.98097,22.98097 0 1 1 -48.790367,179.43886 A 22.98097,22.98097 0 1 1 -2.8284264,179.43886 z"
         transform="matrix(4.351419e-2,0,0,-4.351411e-2,97.12308,383.17032)"
         id="path11837"
         style="fill:#bebebe;fill-opacity:1;stroke:none;display:inline" />
      <path
         d="M -2.8284264,179.43886 A 22.98097,22.98097 0 1 1 -48.790367,179.43886 A 22.98097,22.98097 0 1 1 -2.8284264,179.43886 z"
         transform="matrix(4.351419e-2,0,0,-4.351411e-2,95.12308,385.17032)"
         id="path11839"
         style="fill:#bebebe;fill-opacity:1;stroke:none;display:inline" />
      <path
         d="M 101.02787,376.41229 L 101.02787,384.36218"
         id="path11841"
         style="fill:none;stroke:#bebebe;stroke-width:1.99999976;stroke-linecap:round;stroke-linejoin:miter;marker:none;stroke-miterlimit:4;stroke-dasharray:none;stroke-dashoffset:0;stroke-opacity:1;visibility:visible;display:inline;overflow:visible;enable-background:accumulate" />
      <path
         d="M 95.680387,386.04662 L 93.867417,383.05282"
         id="path11843"
         style="fill:none;stroke:#bebebe;stroke-width:1.99999976;stroke-linecap:round;stroke-linejoin:miter;marker:none;stroke-miterlimit:4;stroke-dasharray:none;stroke-dashoffset:0;stroke-opacity:1;visibility:visible;display:inline;overflow:visible;enable-background:accumulate" />
      <path
         d="M 86.134444,383.1298 L 84.397747,386.05282"
         id="path11845"
         style="fill:none;stroke:#bebebe;stroke-width:1.99999976;stroke-linecap:round;stroke-linejoin:round;marker:none;stroke-miterlimit:4;stroke-dasharray:none;stroke-dashoffset:0;stroke-opacity:1;visibility:visible;display:inline;overflow:visible;enable-background:accumulate" />
      <path
         d="M 79.019183,-567.90655 L 79,-576"
         transform="translate(0,952.36218)"
         id="path11847"
         style="fill:none;stroke:#bebebe;stroke-width:1.99999976;stroke-linecap:round;stroke-linejoin:miter;marker:none;stroke-miterlimit:4;stroke-dasharray:none;stroke-dashoffset:0;stroke-opacity:1;visibility:visible;display:inline;overflow:visible;enable-background:accumulate" />
      <path
         d="M 98.256433,-570.2027 A 12.97099,12.97099 0 0 1 88.152192,-570.2224"
         transform="translate(-3.1819805,941.623)"
         id="path11849"
         style="fill:none;stroke:#bebebe;stroke-width:2;stroke-linecap:round;stroke-linejoin:round;marker:none;stroke-miterlimit:4;stroke-dasharray:none;stroke-dashoffset:0;stroke-opacity:1;visibility:visible;display:inline;overflow:visible;enable-background:accumulate" />
    </g>
  </g>
  <g
     transform="translate(563.97021,-1360.1338)"
     id="layer4" />
  <g
     transform="translate(563.97021,-1360.1338)"
     id="layer12" />
  <g
     transform="translate(563.97021,-1360.1338)"
     id="layer9" />
  <g
     transform="translate(563.97021,-1360.1338)"
     id="layer10" />
  <g
     transform="translate(563.97021,-1360.1338)"
     id="layer6" />
</svg>
