<?xml version="1.0" encoding="UTF-8" standalone="no"?>
<!-- Created with Inkscape (http://www.inkscape.org/) -->
<svg
   xmlns:svg="http://www.w3.org/2000/svg"
   xmlns="http://www.w3.org/2000/svg"
   version="1.0"
   width="24.058016"
   height="24"
   id="svg7384">
  <title
     id="title9167">Moblin Icon Theme</title>
  <defs
     id="defs7386" />
  <g
     transform="translate(616,-1330.1722)"
     id="layer3" />
  <g
     transform="translate(616,-1330.1722)"
     id="layer5" />
  <g
     transform="translate(616,-1330.1722)"
     id="layer7" />
  <g
     transform="translate(616,-1330.1722)"
     id="layer2" />
  <g
     transform="translate(616,-1330.1722)"
     id="layer8" />
  <g
     transform="translate(616,-2282.5344)"
     id="layer1" />
  <g
     transform="translate(616,-1330.1722)"
     id="layer11">
    <rect
       width="24"
       height="24"
       x="-616"
       y="1330.1722"
       id="rect7049"
       style="opacity:0;fill:#ffffff;fill-opacity:1;stroke:none;display:inline" />
    <path
       d="M -611,1338.2035 C -611.554,1338.2035 -612,1338.6495 -612,1339.2035 L -612,1345.1722 C -612,1345.7262 -611.554,1346.1722 -611,1346.1722 L -604,1346.1722 C -603.446,1346.1722 -603,1345.7262 -603,1345.1722 L -603,1339.2035 C -603,1338.6495 -603.446,1338.2035 -604,1338.2035 L -611,1338.2035 z M -609.5625,1342.141 C -609.27002,1342.1034 -608.9792,1342.3781 -609,1342.6722 L -609,1345.1722 L -610,1345.1722 L -610,1342.6722 C -610.0177,1342.4198 -609.81359,1342.172 -609.5625,1342.141 z M -607.5625,1342.141 C -607.27002,1342.1033 -606.9792,1342.3781 -607,1342.6722 L -607,1345.1722 L -608,1345.1722 L -608,1342.6722 C -608.0177,1342.4198 -607.81359,1342.1719 -607.5625,1342.141 z M -605.5625,1342.141 C -605.27002,1342.1032 -604.9792,1342.3781 -605,1342.6722 L -605,1345.1722 L -606,1345.1722 L -606,1342.6722 C -606.0177,1342.4198 -605.81359,1342.1718 -605.5625,1342.141 z"
       id="rect7128"
       style="fill:#bebebe;fill-opacity:1;stroke:none;stroke-width:1;marker:none;visibility:visible;display:inline;overflow:visible;enable-background:accumulate" />
    <path
       d="M -611.75,1332.2188 C -614.05258,1332.2188 -615.9375,1334.1037 -615.9375,1336.4062 L -615.9375,1345.9375 C -615.9375,1348.2401 -614.05257,1350.125 -611.75,1350.125 L -596.125,1350.125 C -593.82242,1350.125 -591.93754,1348.2401 -591.9375,1345.9375 L -591.9375,1336.4062 C -591.9375,1334.1037 -593.82244,1332.2188 -596.125,1332.2188 L -611.75,1332.2188 z M -611.75,1334.2188 L -596.125,1334.2188 C -594.89587,1334.2188 -593.9375,1335.1771 -593.9375,1336.4062 L -593.9375,1345.9375 C -593.93752,1347.1667 -594.89583,1348.125 -596.125,1348.125 L -611.75,1348.125 C -612.97917,1348.125 -613.9375,1347.1667 -613.9375,1345.9375 L -613.9375,1336.4062 C -613.9375,1335.1771 -612.97917,1334.2188 -611.75,1334.2188 z"
       id="rect7126"
       style="fill:#bebebe;fill-opacity:1;stroke:none;stroke-width:2;stroke-linecap:round;stroke-linejoin:miter;marker:none;stroke-miterlimit:4;stroke-dasharray:none;stroke-dashoffset:0;stroke-opacity:1;visibility:visible;display:inline;overflow:visible;enable-background:accumulate" />
  </g>
  <g
     transform="translate(616,-1330.1722)"
     id="layer4" />
  <g
     transform="translate(616,-1330.1722)"
     id="layer12" />
  <g
     transform="translate(616,-1330.1722)"
     id="layer9" />
  <g
     transform="translate(616,-1330.1722)"
     id="layer10" />
  <g
     transform="translate(616,-1330.1722)"
     id="layer6" />
</svg>
