<?xml version="1.0" encoding="UTF-8" standalone="no"?>
<!-- Created with Inkscape (http://www.inkscape.org/) -->
<svg
   xmlns:svg="http://www.w3.org/2000/svg"
   xmlns="http://www.w3.org/2000/svg"
   version="1.0"
   width="24"
   height="24.00293"
   id="svg7384">
  <title
     id="title9167">Moblin Icon Theme</title>
  <defs
     id="defs7386" />
  <g
     transform="translate(460,-1490)"
     id="layer3" />
  <g
     transform="translate(460,-1490)"
     id="layer5" />
  <g
     transform="translate(460,-1490)"
     id="layer7" />
  <g
     transform="translate(460,-1490)"
     id="layer2" />
  <g
     transform="translate(460,-1490)"
     id="layer8" />
  <g
     transform="translate(460,-2442.3622)"
     id="layer1" />
  <g
     transform="translate(460,-1490)"
     id="layer11">
    <rect
       width="24"
       height="24"
       x="436"
       y="1490.0029"
       transform="scale(-1,1)"
       id="rect7657-0-0"
       style="opacity:0;fill:#ffffff;fill-opacity:1;stroke:none;display:inline" />
    <rect
       width="2.0000005"
       height="4"
       rx="1.0000002"
       ry="1.0000002"
       x="-1510"
       y="-460"
       transform="matrix(0,-1,1,0,0,0)"
       id="rect7673-8-1"
       style="fill:#bebebe;fill-opacity:1;stroke:none;display:inline" />
    <rect
       width="2.0000005"
       height="5"
       rx="1.0000002"
       ry="1.0000002"
       x="448"
       y="-1507.0015"
       transform="scale(-1,-1)"
       id="rect7675-7-7"
       style="fill:#bebebe;fill-opacity:1;stroke:none;display:inline" />
    <rect
       width="2.0000002"
       height="2"
       rx="1.0000001"
       ry="1.0000001"
       x="-450"
       y="1498.0015"
       id="rect7687-0-8"
       style="fill:#bebebe;fill-opacity:1;stroke:none;display:inline" />
    <path
       d="M -452.59375,1493 C -452.86989,1493.0345 -453.06577,1493.2864 -453.03125,1493.5625 C -452.99673,1493.8386 -452.74489,1494.0345 -452.46875,1494 L -445.5,1494 C -445.31968,1494.0026 -445.15196,1493.9078 -445.06106,1493.7521 C -444.97015,1493.5963 -444.97015,1493.4037 -445.06106,1493.2479 C -445.15196,1493.0922 -445.31968,1492.9974 -445.5,1493 L -452.46875,1493 C -452.51025,1492.9948 -452.55225,1492.9948 -452.59375,1493 z"
       id="path5630-3-0"
       style="fill:#bebebe;fill-opacity:1;stroke:none;stroke-width:1px;stroke-linecap:round;stroke-linejoin:miter;stroke-opacity:1" />
    <path
       d="M -454,1490 C -455.0907,1490 -456,1490.9093 -456,1492 L -456,1502 C -456,1503.0907 -455.09074,1504.0001 -454,1504 L -444,1504 C -442.9093,1504 -442,1503.0907 -442,1502 L -442,1492 C -442,1490.9093 -442.9093,1490 -444,1490 L -454,1490 z M -454,1492 L -444,1492 L -444,1502 L -454,1502 L -454,1492 z"
       id="rect7536-2-5"
       style="fill:#bebebe;fill-opacity:1;fill-rule:nonzero;stroke:none;stroke-width:1.99999988;stroke-linecap:round;stroke-linejoin:round;marker:none;stroke-opacity:1;visibility:visible;display:inline;overflow:visible;enable-background:new" />
    <rect
       width="2.0000005"
       height="3"
       rx="1.0000002"
       ry="1.0000002"
       x="448"
       y="-1514"
       transform="scale(-1,-1)"
       id="rect9228"
       style="fill:#bebebe;fill-opacity:1;stroke:none;display:inline" />
    <rect
       width="2.0000005"
       height="4"
       rx="1.0000002"
       ry="1.0000002"
       x="-1510"
       y="-454"
       transform="matrix(0,-1,1,0,0,0)"
       id="rect9230"
       style="fill:#bebebe;fill-opacity:1;stroke:none;display:inline" />
    <rect
       width="2.0000005"
       height="4"
       rx="1.0000002"
       ry="1.0000002"
       x="-1510"
       y="-448"
       transform="matrix(0,-1,1,0,0,0)"
       id="rect9232"
       style="fill:#bebebe;fill-opacity:1;stroke:none;display:inline" />
    <rect
       width="2.0000005"
       height="4"
       rx="1.0000002"
       ry="1.0000002"
       x="-1510"
       y="-442"
       transform="matrix(0,-1,1,0,0,0)"
       id="rect9234"
       style="fill:#bebebe;fill-opacity:1;stroke:none;display:inline" />
  </g>
  <g
     transform="translate(460,-1490)"
     id="layer4" />
  <g
     transform="translate(460,-1490)"
     id="layer12" />
  <g
     transform="translate(460,-1490)"
     id="layer9" />
  <g
     transform="translate(460,-1490)"
     id="layer10" />
  <g
     transform="translate(460,-1490)"
     id="layer6" />
</svg>
