<?xml version="1.0" encoding="UTF-8" standalone="no"?>
<!-- Created with Inkscape (http://www.inkscape.org/) -->
<svg
   xmlns:svg="http://www.w3.org/2000/svg"
   xmlns="http://www.w3.org/2000/svg"
   version="1.0"
   width="24"
   height="24"
   id="svg7384">
  <title
     id="title9167">Moblin Icon Theme</title>
  <defs
     id="defs7386" />
  <g
     transform="translate(410,-1500)"
     id="layer3" />
  <g
     transform="translate(410,-1500)"
     id="layer5" />
  <g
     transform="translate(410,-1500)"
     id="layer7" />
  <g
     transform="translate(410,-1500)"
     id="layer2" />
  <g
     transform="translate(410,-1500)"
     id="layer8" />
  <g
     transform="translate(410,-2452.3622)"
     id="layer1" />
  <g
     transform="translate(410,-1500)"
     id="layer11">
    <rect
       width="24"
       height="24"
       x="386"
       y="1500"
       transform="scale(-1,1)"
       id="rect7810"
       style="opacity:0;fill:#f5f5f5;fill-opacity:1;stroke:none;display:inline" />
    <path
       d="M -406.94791,1500.0312 C -408.58676,1500.0312 -409.91666,1501.3924 -409.91666,1503.0312 C -409.92176,1503.3918 -409.73228,1503.7273 -409.42079,1503.9091 C -409.10929,1504.0909 -408.72403,1504.0909 -408.41253,1503.9091 C -408.10104,1503.7273 -407.91156,1503.3918 -407.91666,1503.0312 C -407.91666,1502.4745 -407.50463,1502.0312 -406.94791,1502.0312 C -406.39115,1502.0313 -405.94791,1502.4745 -405.94791,1503.0312 C -405.95301,1503.3918 -405.76353,1503.7273 -405.45204,1503.9091 C -405.14054,1504.0909 -404.75528,1504.0909 -404.44378,1503.9091 C -404.13229,1503.7273 -403.94281,1503.3918 -403.94791,1503.0312 C -403.94791,1501.3924 -405.3091,1500.0313 -406.94791,1500.0312 z"
       id="path7812"
       style="fill:#bebebe;fill-opacity:1;stroke:none;stroke-width:2;stroke-linecap:round;stroke-linejoin:miter;marker:none;stroke-miterlimit:4;stroke-dasharray:none;stroke-dashoffset:0;stroke-opacity:1;visibility:visible;display:inline;overflow:visible;enable-background:new" />
    <path
       d="M -402.9939,1524.0085 C -401.35505,1524.0085 -400.02515,1522.6473 -400.02515,1521.0085 C -400.02005,1520.6479 -400.20953,1520.3124 -400.52102,1520.1306 C -400.83252,1519.9488 -401.21778,1519.9488 -401.52928,1520.1306 C -401.84077,1520.3124 -402.03025,1520.6479 -402.02515,1521.0085 C -402.02515,1521.5652 -402.43718,1522.0085 -402.9939,1522.0085 C -403.55066,1522.0084 -403.9939,1521.5652 -403.9939,1521.0085 C -403.9888,1520.6479 -404.17828,1520.3124 -404.48977,1520.1306 C -404.80127,1519.9488 -405.18653,1519.9488 -405.49803,1520.1306 C -405.80952,1520.3124 -405.999,1520.6479 -405.9939,1521.0085 C -405.9939,1522.6473 -404.63271,1524.0084 -402.9939,1524.0085 z"
       id="path7814"
       style="fill:#bebebe;fill-opacity:1;stroke:none;stroke-width:2;stroke-linecap:round;stroke-linejoin:miter;marker:none;stroke-miterlimit:4;stroke-dasharray:none;stroke-dashoffset:0;stroke-opacity:1;visibility:visible;display:inline;overflow:visible;enable-background:new" />
    <path
       d="M -405.0625,1502.0625 C -405.57786,1502.1111 -405.97098,1502.5449 -405.96875,1503.0625 L -405.96875,1521 C -405.97385,1521.3606 -405.78437,1521.6961 -405.47288,1521.8779 C -405.16138,1522.0597 -404.77612,1522.0597 -404.46462,1521.8779 C -404.15313,1521.6961 -403.96365,1521.3606 -403.96875,1521 L -403.96875,1503.0625 C -403.96754,1502.7802 -404.08567,1502.5106 -404.294,1502.3201 C -404.50234,1502.1296 -404.78146,1502.0361 -405.0625,1502.0625 z"
       id="path7816"
       style="fill:#bebebe;fill-opacity:1;stroke:none;stroke-width:2;stroke-linecap:round;stroke-linejoin:miter;marker:none;stroke-miterlimit:4;stroke-dasharray:none;stroke-dashoffset:0;stroke-opacity:1;visibility:visible;display:inline;overflow:visible;enable-background:new" />
    <path
       d="M -388.9939,1524.0085 C -387.35505,1524.0085 -386.02515,1522.6473 -386.02515,1521.0085 C -386.02005,1520.6479 -386.20953,1520.3124 -386.52102,1520.1306 C -386.83252,1519.9488 -387.21778,1519.9488 -387.52928,1520.1306 C -387.84077,1520.3124 -388.03025,1520.6479 -388.02515,1521.0085 C -388.02515,1521.5652 -388.43718,1522.0085 -388.9939,1522.0085 C -389.35454,1522.0034 -389.68998,1522.1929 -389.87179,1522.5044 C -390.05359,1522.8159 -390.05359,1523.2011 -389.87179,1523.5126 C -389.68998,1523.8241 -389.35454,1524.0136 -388.9939,1524.0085 z"
       id="path7818"
       style="fill:#bebebe;fill-opacity:1;stroke:none;stroke-width:2;stroke-linecap:round;stroke-linejoin:miter;marker:none;stroke-miterlimit:4;stroke-dasharray:none;stroke-dashoffset:0;stroke-opacity:1;visibility:visible;display:inline;overflow:visible;enable-background:new" />
    <path
       d="M -400.96875,1520 C -401.32939,1519.9949 -401.66483,1520.1844 -401.84664,1520.4959 C -402.02844,1520.8074 -402.02844,1521.1926 -401.84664,1521.5041 C -401.66483,1521.8156 -401.32939,1522.0051 -400.96875,1522 L -387,1522 C -386.63936,1522.0051 -386.30392,1521.8156 -386.12211,1521.5041 C -385.94031,1521.1926 -385.94031,1520.8074 -386.12211,1520.4959 C -386.30392,1520.1844 -386.63936,1519.9949 -387,1520 L -400.96875,1520 z"
       id="path7820"
       style="fill:#bebebe;fill-opacity:1;stroke:none;stroke-width:2;stroke-linecap:round;stroke-linejoin:miter;marker:none;stroke-miterlimit:4;stroke-dasharray:none;stroke-dashoffset:0;stroke-opacity:1;visibility:visible;display:inline;overflow:visible;enable-background:new" />
    <path
       d="M -403.21875,1521.9688 C -403.77103,1522.0292 -404.16978,1522.5259 -404.10938,1523.0782 C -404.04897,1523.6305 -403.55228,1524.0292 -403,1523.9688 L -388.96875,1523.9688 C -388.60811,1523.9739 -388.27267,1523.7844 -388.09086,1523.4729 C -387.90906,1523.1614 -387.90906,1522.7762 -388.09086,1522.4647 C -388.27267,1522.1532 -388.60811,1521.9637 -388.96875,1521.9688 L -403,1521.9688 C -403.0727,1521.9608 -403.14605,1521.9608 -403.21875,1521.9688 z"
       id="path7823"
       style="fill:#bebebe;fill-opacity:1;stroke:none;stroke-width:2;stroke-linecap:round;stroke-linejoin:miter;marker:none;stroke-miterlimit:4;stroke-dasharray:none;stroke-dashoffset:0;stroke-opacity:1;visibility:visible;display:inline;overflow:visible;enable-background:new" />
    <path
       d="M -391.9939,1499.9915 C -390.35505,1499.9915 -389.02515,1501.3527 -389.02515,1502.9915 C -389.02005,1503.3521 -389.20953,1503.6876 -389.52102,1503.8694 C -389.83252,1504.0512 -390.21778,1504.0512 -390.52928,1503.8694 C -390.84077,1503.6876 -391.03025,1503.3521 -391.02515,1502.9915 C -391.02515,1502.4348 -391.43718,1501.9915 -391.9939,1501.9915 C -392.35454,1501.9966 -392.68998,1501.8071 -392.87179,1501.4956 C -393.05359,1501.1841 -393.05359,1500.7989 -392.87179,1500.4874 C -392.68998,1500.1759 -392.35454,1499.9864 -391.9939,1499.9915 z"
       id="path7825"
       style="fill:#bebebe;fill-opacity:1;stroke:none;stroke-width:2;stroke-linecap:round;stroke-linejoin:miter;marker:none;stroke-miterlimit:4;stroke-dasharray:none;stroke-dashoffset:0;stroke-opacity:1;visibility:visible;display:inline;overflow:visible;enable-background:new" />
    <path
       d="M -390.03125,1501.9688 C -390.54661,1502.0174 -390.93973,1502.4512 -390.9375,1502.9688 L -390.9375,1521 C -390.9426,1521.3606 -390.75312,1521.6961 -390.44163,1521.8779 C -390.13013,1522.0597 -389.74487,1522.0597 -389.43337,1521.8779 C -389.12188,1521.6961 -388.9324,1521.3606 -388.9375,1521 L -388.9375,1502.9688 C -388.93629,1502.6865 -389.05442,1502.4169 -389.26275,1502.2264 C -389.47109,1502.0359 -389.75021,1501.9424 -390.03125,1501.9688 z"
       id="path7827"
       style="fill:#bebebe;fill-opacity:1;stroke:none;stroke-width:2;stroke-linecap:round;stroke-linejoin:miter;marker:none;stroke-miterlimit:4;stroke-dasharray:none;stroke-dashoffset:0;stroke-opacity:1;visibility:visible;display:inline;overflow:visible;enable-background:new" />
    <path
       d="M -407.1875,1500.0312 C -407.73978,1500.0657 -408.15952,1500.5414 -408.125,1501.0937 C -408.09048,1501.646 -407.61478,1502.0657 -407.0625,1502.0312 L -391.96875,1502.0312 C -391.60811,1502.0363 -391.27267,1501.8468 -391.09086,1501.5353 C -390.90906,1501.2238 -390.90906,1500.8386 -391.09086,1500.5271 C -391.27267,1500.2156 -391.60811,1500.0261 -391.96875,1500.0312 L -407.0625,1500.0312 C -407.10413,1500.0286 -407.14587,1500.0286 -407.1875,1500.0312 L -407.1875,1500.0312 z"
       id="path7829"
       style="fill:#bebebe;fill-opacity:1;stroke:none;stroke-width:2;stroke-linecap:round;stroke-linejoin:miter;marker:none;stroke-miterlimit:4;stroke-dasharray:none;stroke-dashoffset:0;stroke-opacity:1;visibility:visible;display:inline;overflow:visible;enable-background:new" />
  </g>
  <g
     transform="translate(410,-1500)"
     id="layer4" />
  <g
     transform="translate(410,-1500)"
     id="layer9" />
  <g
     transform="translate(410,-1500)"
     id="layer10" />
  <g
     transform="translate(410,-1500)"
     id="layer6" />
</svg>
