<?xml version="1.0" encoding="UTF-8" standalone="no"?>
<!-- Created with Inkscape (http://www.inkscape.org/) -->
<svg
   xmlns:svg="http://www.w3.org/2000/svg"
   xmlns="http://www.w3.org/2000/svg"
   version="1.0"
   width="24.03125"
   height="24"
   id="svg7384">
  <title
     id="title9167">Moblin Icon Theme</title>
  <defs
     id="defs7386" />
  <g
     transform="translate(564,-1330.1723)"
     id="layer3" />
  <g
     transform="translate(564,-1330.1723)"
     id="layer5" />
  <g
     transform="translate(564,-1330.1723)"
     id="layer7" />
  <g
     transform="translate(564,-1330.1723)"
     id="layer2" />
  <g
     transform="translate(564,-1330.1723)"
     id="layer8" />
  <g
     transform="translate(564,-2282.5344)"
     id="layer1" />
  <g
     transform="translate(564,-1330.1723)"
     id="layer11">
    <rect
       width="24"
       height="24"
       x="-564"
       y="1330.1722"
       id="rect6748-0"
       style="opacity:0.01000001;fill:#f0f0f0;fill-opacity:1;stroke:none;display:inline" />
    <g
       transform="translate(-201,955.14456)"
       id="g7452">
      <path
         d="M -25.809396,202.41983 A 22.98097,22.98097 0 0 1 -48.790367,179.43886"
         transform="matrix(-0.217571,0,0,-0.217571,-350.61537,422.04069)"
         id="path6810-5"
         style="fill:none;stroke:#bebebe;stroke-width:9.19240189;stroke-linecap:round;stroke-miterlimit:4;stroke-dasharray:none;stroke-dashoffset:0;stroke-opacity:1;display:inline" />
      <path
         d="M -25.809396,202.41983 A 22.98097,22.98097 0 0 1 -48.790367,179.43886"
         transform="matrix(-0.1087858,0,0,0.1087858,-345.3077,364.0073)"
         id="path6812-3"
         style="fill:none;stroke:#bebebe;stroke-width:18.38475227;stroke-linecap:round;stroke-miterlimit:4;stroke-dasharray:none;stroke-dashoffset:0;stroke-opacity:1;display:inline" />
      <path
         d="M -25.809396,202.41983 A 22.98097,22.98097 0 0 1 -48.790367,179.43886"
         transform="matrix(-8.70286e-2,0,0,-8.70286e-2,-350.24616,399.61631)"
         id="path6818-6"
         style="fill:none;stroke:#bebebe;stroke-width:22.98095131;stroke-linecap:round;stroke-miterlimit:4;stroke-dasharray:none;stroke-dashoffset:0;stroke-opacity:1;display:inline" />
      <path
         d="M -560.03125,1096.9688 L -547.9375,1096.9688"
         transform="translate(203,-719)"
         id="path7377"
         style="fill:none;stroke:#bebebe;stroke-width:2;stroke-linecap:round;stroke-linejoin:miter;marker:none;stroke-miterlimit:4;stroke-dasharray:none;stroke-dashoffset:0;stroke-opacity:1;visibility:visible;display:inline;overflow:visible;enable-background:accumulate" />
      <path
         d="M -557,1101.0313 L -551,1101.0313"
         transform="translate(203,-719)"
         id="path7379"
         style="fill:none;stroke:#bebebe;stroke-width:2;stroke-linecap:round;stroke-linejoin:miter;marker:none;stroke-miterlimit:4;stroke-dasharray:none;stroke-dashoffset:0;stroke-opacity:1;visibility:visible;display:inline;overflow:visible;enable-background:accumulate" />
      <path
         d="M -549,1102.9688 L -549,1104.7813"
         transform="translate(203,-719)"
         id="path7381"
         style="fill:none;stroke:#bebebe;stroke-width:2;stroke-linecap:round;stroke-linejoin:miter;marker:none;stroke-miterlimit:4;stroke-dasharray:none;stroke-dashoffset:0;stroke-opacity:1;visibility:visible;display:inline;overflow:visible;enable-background:accumulate" />
      <path
         d="M -548.96875,1105 L -545.0625,1105"
         transform="translate(203,-719)"
         id="path7383"
         style="fill:none;stroke:#bebebe;stroke-width:2;stroke-linecap:round;stroke-linejoin:miter;marker:none;stroke-miterlimit:4;stroke-dasharray:none;stroke-dashoffset:0;stroke-opacity:1;visibility:visible;display:inline;overflow:visible;enable-background:accumulate" />
      <path
         d="M -542.96875,1103 L -542.96875,1101.9375"
         transform="translate(203,-719)"
         id="path7385"
         style="fill:none;stroke:#bebebe;stroke-width:2;stroke-linecap:round;stroke-linejoin:miter;marker:none;stroke-miterlimit:4;stroke-dasharray:none;stroke-dashoffset:0;stroke-opacity:1;visibility:visible;display:inline;overflow:visible;enable-background:accumulate" />
      <path
         d="M -25.809396,202.41983 A 22.98097,22.98097 0 0 1 -48.790367,179.43886"
         transform="matrix(0.217571,0,0,-0.217571,-351.35338,422.04069)"
         id="path7440"
         style="fill:none;stroke:#bebebe;stroke-width:9.19240189;stroke-linecap:round;stroke-miterlimit:4;stroke-dasharray:none;stroke-dashoffset:0;stroke-opacity:1;display:inline" />
      <path
         d="M -25.809396,202.41983 A 22.98097,22.98097 0 0 1 -48.790367,179.43886"
         transform="matrix(0.1087858,0,0,0.1087858,-356.66105,364.0073)"
         id="path7442"
         style="fill:none;stroke:#bebebe;stroke-width:18.38475227;stroke-linecap:round;stroke-miterlimit:4;stroke-dasharray:none;stroke-dashoffset:0;stroke-opacity:1;display:inline" />
      <path
         d="M -25.809396,202.41983 A 22.98097,22.98097 0 0 1 -48.790367,179.43886"
         transform="matrix(8.70286e-2,0,0,-8.70286e-2,-351.72259,399.61631)"
         id="path7444"
         style="fill:none;stroke:#bebebe;stroke-width:22.98095131;stroke-linecap:round;stroke-miterlimit:4;stroke-dasharray:none;stroke-dashoffset:0;stroke-opacity:1;display:inline" />
      <path
         d="M -355.96875,383.9688 L -355.96875,385.7813"
         id="path7446"
         style="fill:none;stroke:#bebebe;stroke-width:2;stroke-linecap:round;stroke-linejoin:miter;marker:none;stroke-miterlimit:4;stroke-dasharray:none;stroke-dashoffset:0;stroke-opacity:1;visibility:visible;display:inline;overflow:visible;enable-background:accumulate" />
      <path
         d="M -356,386 L -359.90625,386"
         id="path7448"
         style="fill:none;stroke:#bebebe;stroke-width:2;stroke-linecap:round;stroke-linejoin:miter;marker:none;stroke-miterlimit:4;stroke-dasharray:none;stroke-dashoffset:0;stroke-opacity:1;visibility:visible;display:inline;overflow:visible;enable-background:accumulate" />
      <path
         d="M -362,384 L -362,382.9375"
         id="path7450"
         style="fill:none;stroke:#bebebe;stroke-width:2;stroke-linecap:round;stroke-linejoin:miter;marker:none;stroke-miterlimit:4;stroke-dasharray:none;stroke-dashoffset:0;stroke-opacity:1;visibility:visible;display:inline;overflow:visible;enable-background:accumulate" />
    </g>
    <path
       d="M -559.0625,1342.0938 C -559.46292,1342.1414 -559.79561,1342.4247 -559.90625,1342.8125 L -561.9375,1348.9375 L -562,1349.0938 L -562,1349.2812 L -561.9375,1351.1875 L -561.9375,1352.1562 L -560.9375,1352.1562 L -543.03125,1352.1562 L -542.03125,1352.1562 L -542.03125,1351.1562 L -542.03125,1349.125 L -542.03125,1348.9688 L -542.09375,1348.8125 L -544.03125,1342.8438 C -544.20384,1342.3174 -544.77048,1342.0306 -545.29688,1342.2032 C -545.82327,1342.3758 -546.11009,1342.9424 -545.9375,1343.4688 L -544.03125,1349.3438 L -544.03125,1350.1562 L -559.96875,1350.1562 L -560,1349.4375 L -558,1343.4375 C -557.87676,1343.1093 -557.93434,1342.7406 -558.15177,1342.4656 C -558.36921,1342.1906 -558.71475,1342.0495 -559.0625,1342.0938 L -559.0625,1342.0938 z"
       id="path7468"
       style="fill:#bebebe;fill-opacity:1;stroke:none;stroke-width:2;stroke-linecap:round;stroke-linejoin:miter;marker:none;stroke-miterlimit:4;stroke-dasharray:none;stroke-dashoffset:0;stroke-opacity:1;visibility:visible;display:inline;overflow:visible;enable-background:accumulate" />
    <path
       d="M -551.98635,1341.1849 C -554.18889,1341.1849 -555.98831,1342.9843 -555.98828,1345.1869 C -555.98828,1347.3894 -554.18888,1349.1888 -551.98635,1349.1888 C -549.78382,1349.1888 -547.98439,1347.3894 -547.98443,1345.1869 C -547.98443,1342.9843 -549.78383,1341.1849 -551.98635,1341.1849 z M -551.98635,1342.1679 C -550.32488,1342.1679 -549.00246,1343.5254 -549.00246,1345.1869 C -549.00244,1346.8483 -550.32489,1348.1708 -551.98635,1348.1708 C -553.64783,1348.1707 -555.00535,1346.8483 -555.00535,1345.1869 C -555.00537,1343.5254 -553.64782,1342.1679 -551.98635,1342.1679 z"
       id="path7478"
       style="fill:#bebebe;fill-opacity:1;stroke:none;stroke-width:0.8901968;stroke-linecap:round;stroke-linejoin:miter;marker:none;stroke-miterlimit:4;stroke-dasharray:none;stroke-dashoffset:0;stroke-opacity:1;visibility:visible;display:inline;overflow:visible;enable-background:accumulate" />
  </g>
  <g
     transform="translate(564,-1330.1723)"
     id="layer4" />
  <g
     transform="translate(564,-1330.1723)"
     id="layer12" />
  <g
     transform="translate(564,-1330.1723)"
     id="layer9" />
  <g
     transform="translate(564,-1330.1723)"
     id="layer10" />
  <g
     transform="translate(564,-1330.1723)"
     id="layer6" />
</svg>
