<?xml version="1.0" encoding="UTF-8" standalone="no"?>
<!-- Created with Inkscape (http://www.inkscape.org/) -->
<svg
   xmlns:svg="http://www.w3.org/2000/svg"
   xmlns="http://www.w3.org/2000/svg"
   version="1.0"
   width="24"
   height="24"
   id="svg7384">
  <title
     id="title9167">Moblin Icon Theme</title>
  <defs
     id="defs7386" />
  <g
     transform="translate(407.99998,-1490)"
     id="layer3" />
  <g
     transform="translate(407.99998,-1490)"
     id="layer5" />
  <g
     transform="translate(407.99998,-1490)"
     id="layer7" />
  <g
     transform="translate(407.99998,-1490)"
     id="layer2" />
  <g
     transform="translate(407.99998,-1490)"
     id="layer8" />
  <g
     transform="translate(407.99998,-2442.3622)"
     id="layer1" />
  <g
     transform="translate(407.99998,-1490)"
     id="layer11">
    <rect
       width="24"
       height="24"
       x="383.99997"
       y="1490"
       transform="scale(-1,1)"
       id="rect9252"
       style="opacity:0;fill:#ffffff;fill-opacity:1;stroke:none;display:inline" />
    <g
       transform="translate(-74.9698,1089.0006)"
       id="g9262">
      <path
         d="M -2.8284264,179.43886 A 22.98097,22.98097 0 1 1 -48.790367,179.43886 A 22.98097,22.98097 0 1 1 -2.8284264,179.43886 z"
         transform="matrix(-0.1225327,-0.1222246,0.1227118,-0.1224034,-350.19714,426.78398)"
         id="path9264"
         style="fill:none;stroke:#bebebe;stroke-width:11.54762077;stroke-linecap:round;stroke-miterlimit:4;stroke-dasharray:none;stroke-dashoffset:0;stroke-opacity:1;display:inline" />
      <path
         d="M -9.5593967,195.68886 A 22.98097,22.98097 0 0 1 -42.059397,195.68886"
         transform="matrix(0.1230056,-0.1230056,-0.1231854,-0.1231854,-300.71813,434.93015)"
         id="path9266"
         style="fill:none;stroke:#bebebe;stroke-width:11.48875713;stroke-linecap:round;stroke-miterlimit:4;stroke-dasharray:none;stroke-dashoffset:0;stroke-opacity:1;display:inline" />
      <rect
         width="1.9999995"
         height="5.0000033"
         rx="0.99999976"
         ry="0.9999997"
         x="329"
         y="-420"
         transform="scale(-1,-1)"
         id="rect9268"
         style="fill:#bebebe;fill-opacity:1;stroke:none;display:inline" />
      <rect
         width="1.9999995"
         height="5"
         rx="0.99999976"
         ry="0.99999988"
         x="411"
         y="-327"
         transform="matrix(0,1,1,0,0,0)"
         id="rect9270"
         style="fill:#bebebe;fill-opacity:1;stroke:none;display:inline" />
      <path
         d="M -9.5593967,195.68886 A 22.98097,22.98097 0 0 1 -19.861483,201.63677"
         transform="matrix(-0.1230056,-0.1230056,0.1231854,-0.1231854,-349.30975,434.93015)"
         id="path9273"
         style="fill:none;stroke:#bebebe;stroke-width:11.48875713;stroke-linecap:round;stroke-miterlimit:4;stroke-dasharray:none;stroke-dashoffset:0;stroke-opacity:1;display:inline" />
    </g>
    <path
       d="M -391.26212,1500.1227 C -390.80311,1500.2038 -390.461,1500.5912 -390.43733,1501.0568 C -390.41367,1501.5223 -390.71471,1501.9424 -391.16312,1502.0697 C -392.50664,1502.4296 -393.27204,1503.7949 -392.91203,1505.1384 C -392.55202,1506.482 -391.18674,1507.2803 -389.84319,1506.9204 C -389.13816,1506.7314 -388.69023,1506.3976 -388.32527,1505.7655 C -388.1788,1505.4034 -387.83495,1505.1597 -387.44478,1505.1415 C -387.05461,1505.1232 -386.68955,1505.3338 -386.50998,1505.6807 C -386.33042,1506.0276 -386.36923,1506.4472 -386.60935,1506.7553 C -387.21039,1507.7964 -388.18708,1508.5232 -389.34821,1508.8343 C -391.737,1509.4744 -394.21885,1508.0552 -394.85893,1505.6664 C -395.499,1503.2777 -394.0469,1500.7958 -391.6581,1500.1556 C -391.52963,1500.1183 -391.39498,1500.1071 -391.26212,1500.1227 L -391.26212,1500.1227 z"
       id="path15245-6"
       style="fill:#bebebe;fill-opacity:1;stroke:none;stroke-width:1.89403605;stroke-linecap:round;stroke-linejoin:miter;marker:none;stroke-miterlimit:4;stroke-dasharray:none;stroke-dashoffset:0;stroke-opacity:1;visibility:visible;display:inline;overflow:visible;enable-background:accumulate" />
    <path
       d="M -393.21875,1506 C -393.39808,1506.0484 -393.56039,1506.1458 -393.6875,1506.2812 L -397.71875,1510.3125 C -398.01686,1510.5528 -398.1516,1510.9422 -398.06575,1511.3154 C -397.9799,1511.6885 -397.68853,1511.9799 -397.31538,1512.0658 C -396.94223,1512.1516 -396.55281,1512.0169 -396.3125,1511.7188 L -392.28125,1507.6875 C -391.95774,1507.3725 -391.88538,1506.8799 -392.10464,1506.4852 C -392.32391,1506.0905 -392.78043,1505.8917 -393.21875,1506 L -393.21875,1506 z"
       id="path15247-1"
       style="fill:#bebebe;fill-opacity:1;stroke:none;stroke-width:2;stroke-linecap:round;stroke-linejoin:miter;marker:none;stroke-miterlimit:4;stroke-dasharray:none;stroke-dashoffset:0;stroke-opacity:1;visibility:visible;display:inline;overflow:visible;enable-background:accumulate" />
  </g>
  <g
     transform="translate(407.99998,-1490)"
     id="layer4" />
  <g
     transform="translate(407.99998,-1490)"
     id="layer12" />
  <g
     transform="translate(407.99998,-1490)"
     id="layer9" />
  <g
     transform="translate(407.99998,-1490)"
     id="layer10" />
  <g
     transform="translate(407.99998,-1490)"
     id="layer6" />
</svg>
