<?xml version="1.0" encoding="UTF-8" standalone="no"?>
<!-- Created with Inkscape (http://www.inkscape.org/) -->
<svg
   xmlns:svg="http://www.w3.org/2000/svg"
   xmlns="http://www.w3.org/2000/svg"
   version="1.0"
   width="24"
   height="24"
   id="svg7384">
  <title
     id="title9167">Moblin Icon Theme</title>
  <defs
     id="defs7386" />
  <g
     transform="translate(590,-1520)"
     id="layer3" />
  <g
     transform="translate(590,-1520)"
     id="layer5" />
  <g
     transform="translate(590,-1520)"
     id="layer7" />
  <g
     transform="translate(590,-1520)"
     id="layer2" />
  <g
     transform="translate(590,-1520)"
     id="layer8" />
  <g
     transform="translate(590,-2472.3621)"
     id="layer1" />
  <g
     transform="translate(590,-1520)"
     id="layer11">
    <rect
       width="24"
       height="24"
       x="-590"
       y="1520"
       id="rect8940-0"
       style="opacity:0;fill:#ffffff;fill-opacity:1;stroke:none;display:inline" />
    <path
       d="M -587.03419,1524.8646 C -585.22282,1523.0532 -582.72524,1521.9254 -579.9707,1521.9254 C -574.46164,1521.9254 -569.96805,1526.419 -569.96805,1531.928 C -569.96151,1532.4844 -570.40722,1532.9407 -570.96358,1532.9473 C -571.51993,1532.9538 -571.97626,1532.5081 -571.9828,1531.9517 C -571.9828,1527.5248 -575.54377,1523.9638 -579.9707,1523.9638 C -584.39764,1523.9638 -587.95861,1527.5248 -587.95861,1531.9517 C -587.95861,1536.3787 -584.39764,1539.9396 -579.9707,1539.9396 C -579.59225,1539.9033 -579.22593,1540.0847 -579.02543,1540.4078 C -578.82493,1540.7308 -578.82493,1541.1396 -579.02543,1541.4626 C -579.22593,1541.7856 -579.59225,1541.967 -579.9707,1541.9307 C -585.47977,1541.9307 -589.97336,1537.4371 -589.97336,1531.928 C -589.97336,1529.1735 -588.84556,1526.6759 -587.03419,1524.8646 z"
       id="path2900-0"
       style="fill:#bebebe;fill-opacity:1;stroke:none;stroke-width:1.86449945;stroke-linecap:round;stroke-miterlimit:4;stroke-dasharray:none;stroke-opacity:1;display:inline" />
    <path
       d="M -576.01642,1531.9457 C -576.01642,1531.9457 -576.01642,1533.3599 -576.01642,1533.3599 L -571.71342,1537.638 C -571.32162,1538.0298 -570.69092,1538.0298 -570.29912,1537.638 C -569.90742,1537.2463 -569.90742,1536.6156 -570.29912,1536.2238 L -574.60212,1531.9457 C -574.60212,1531.9457 -576.01642,1531.9457 -576.01642,1531.9457 z"
       id="rect2832-6-0"
       style="fill:#bebebe;fill-opacity:1;stroke:none;display:inline" />
    <path
       d="M -566.01662,1531.9457 C -566.01662,1531.9457 -566.01662,1533.3599 -566.01662,1533.3599 L -570.32542,1537.6323 C -570.71712,1538.024 -571.34782,1538.024 -571.73962,1537.6323 C -572.13132,1537.2406 -572.13132,1536.6098 -571.73962,1536.2181 L -567.43082,1531.9457 C -567.43082,1531.9457 -566.01662,1531.9457 -566.01662,1531.9457 z"
       id="path2869-2"
       style="fill:#bebebe;fill-opacity:1;stroke:none;display:inline" />
    <rect
       width="2"
       height="6"
       rx="1"
       ry="0.99999976"
       x="570.01642"
       y="1530.9457"
       transform="scale(-1,1)"
       id="rect2871-2-4"
       style="fill:#bebebe;fill-opacity:1;stroke:none;display:inline" />
  </g>
  <g
     transform="translate(590,-1520)"
     id="layer4" />
  <g
     transform="translate(590,-1520)"
     id="layer12" />
  <g
     transform="translate(590,-1520)"
     id="layer9" />
  <g
     transform="translate(590,-1520)"
     id="layer10" />
  <g
     transform="translate(590,-1520)"
     id="layer6" />
</svg>
