<?xml version="1.0" encoding="UTF-8" standalone="no"?>
<!-- Created with Inkscape (http://www.inkscape.org/) -->
<svg
   xmlns:svg="http://www.w3.org/2000/svg"
   xmlns="http://www.w3.org/2000/svg"
   version="1.0"
   width="24.01586"
   height="24.028963"
   id="svg7384">
  <title
     id="title9167">Moblin Icon Theme</title>
  <defs
     id="defs7386" />
  <g
     transform="translate(539.99931,-1559.971)"
     id="layer3" />
  <g
     transform="translate(539.99931,-1559.971)"
     id="layer5" />
  <g
     transform="translate(539.99931,-1559.971)"
     id="layer7" />
  <g
     transform="translate(539.99931,-1559.971)"
     id="layer2" />
  <g
     transform="translate(539.99931,-1559.971)"
     id="layer8" />
  <g
     transform="translate(539.99931,-2512.3332)"
     id="layer1" />
  <g
     transform="translate(539.99931,-1559.971)"
     id="layer11">
    <rect
       width="24"
       height="24"
       x="515.99933"
       y="1560"
       transform="scale(-1,1)"
       id="rect9601-3"
       style="opacity:0;fill:#ffffff;fill-opacity:1;stroke:none;display:inline" />
    <path
       d="M -527.9993,1573.9977 C -529.09783,1573.9977 -529.99149,1573.104 -529.99149,1572.0055 C -529.99149,1570.907 -529.09783,1570.0133 -527.9993,1570.0133 C -526.90077,1570.0133 -526.00711,1570.907 -526.00711,1572.0055 C -526.00711,1573.104 -526.90077,1573.9977 -527.9993,1573.9977 z M -527.9993,1573.0133 C -527.44183,1573.0133 -526.99149,1572.563 -526.99149,1572.0055 C -526.99149,1571.448 -527.44183,1570.9977 -527.9993,1570.9977 C -528.55677,1570.9977 -529.00711,1571.448 -529.00711,1572.0055 C -529.00711,1572.563 -528.55677,1573.0133 -527.9993,1573.0133 z"
       id="path9613-3"
       style="fill:#bebebe;fill-opacity:1;stroke:none;stroke-width:1.33333337;stroke-linecap:butt;stroke-linejoin:round;marker:none;stroke-miterlimit:4;stroke-dasharray:none;stroke-dashoffset:1;stroke-opacity:1;visibility:visible;display:inline;overflow:visible;enable-background:accumulate" />
    <path
       d="M -527.1143,1570.6734 L -523.16818,1570.0194 C -522.64812,1569.9261 -522.09047,1570.3188 -522.00409,1570.8401 C -521.91769,1571.3613 -522.31876,1571.9135 -522.84118,1571.9925 L -526.78731,1572.6464 C -526.78731,1572.6464 -527.1143,1570.6734 -527.1143,1570.6734 L -527.1143,1570.6734 z"
       id="path9615-3"
       style="font-size:medium;font-style:normal;font-variant:normal;font-weight:normal;font-stretch:normal;text-indent:0;text-align:start;text-decoration:none;line-height:normal;letter-spacing:normal;word-spacing:normal;text-transform:none;direction:ltr;block-progression:tb;writing-mode:lr-tb;text-anchor:start;fill:#bebebe;fill-opacity:1;stroke:none;stroke-width:2;marker:none;visibility:visible;display:inline;overflow:visible;enable-background:accumulate;font-family:Bitstream Vera Sans;-inkscape-font-specification:Bitstream Vera Sans" />
    <path
       d="M -527.99931,1580.0055 C -532.41762,1580.0055 -535.99931,1576.4239 -535.99931,1572.0055 L -529.99931,1572.0055 C -529.99931,1573.1101 -529.1039,1574.0055 -527.99931,1574.0055 L -527.99931,1580.0055 z"
       id="path9669-2"
       style="opacity:0.3;fill:#bebebe;fill-opacity:1;stroke:none;stroke-width:2.80316567;marker:none;visibility:visible;display:inline;overflow:visible;enable-background:accumulate" />
    <path
       d="M -527.99931,1574.0055 L -530.44122,1578.6906 C -530.69932,1579.1516 -531.35679,1579.3331 -531.81437,1579.0689 C -532.27195,1578.8047 -532.4439,1578.1444 -532.17327,1577.6906 L -529.73136,1573.0055 C -529.73136,1573.0055 -527.99931,1574.0055 -527.99931,1574.0055 L -527.99931,1574.0055 z"
       id="path9617-0"
       style="font-size:medium;font-style:normal;font-variant:normal;font-weight:normal;font-stretch:normal;text-indent:0;text-align:start;text-decoration:none;line-height:normal;letter-spacing:normal;word-spacing:normal;text-transform:none;direction:ltr;block-progression:tb;writing-mode:lr-tb;text-anchor:start;fill:#bebebe;fill-opacity:1;stroke:none;stroke-width:2;marker:none;visibility:visible;display:inline;overflow:visible;enable-background:accumulate;font-family:Bitstream Vera Sans;-inkscape-font-specification:Bitstream Vera Sans" />
    <path
       d="M -527.9375,1559.9688 C -534.52857,1559.9688 -539.90626,1565.3464 -539.90625,1571.9375 C -539.90625,1578.5286 -534.52856,1583.9062 -527.9375,1583.9062 C -521.34643,1583.9062 -515.96874,1578.5286 -515.96875,1571.9375 C -515.96875,1565.3464 -521.34644,1559.9688 -527.9375,1559.9688 z M -527.9375,1561.9688 C -522.42855,1561.9688 -517.96875,1566.4286 -517.96875,1571.9375 C -517.96874,1577.4464 -522.42856,1581.9062 -527.9375,1581.9062 C -533.44645,1581.9062 -537.90625,1577.4464 -537.90625,1571.9375 C -537.90626,1566.4286 -533.44644,1561.9688 -527.9375,1561.9688 z"
       id="path8710"
       style="fill:#bebebe;fill-opacity:1;fill-rule:nonzero;stroke:none;stroke-width:2.00000048;stroke-linecap:round;stroke-linejoin:miter;marker:none;stroke-miterlimit:4;stroke-dasharray:none;stroke-dashoffset:0;stroke-opacity:1;visibility:visible;display:inline;overflow:visible;enable-background:accumulate" />
  </g>
  <g
     transform="translate(539.99931,-1559.971)"
     id="layer4" />
  <g
     transform="translate(539.99931,-1559.971)"
     id="layer9" />
  <g
     transform="translate(539.99931,-1559.971)"
     id="layer10" />
  <g
     transform="translate(539.99931,-1559.971)"
     id="layer6" />
</svg>
