<?xml version="1.0" encoding="UTF-8" standalone="no"?>
<!-- Created with Inkscape (http://www.inkscape.org/) -->
<svg
   xmlns:svg="http://www.w3.org/2000/svg"
   xmlns="http://www.w3.org/2000/svg"
   version="1.0"
   width="24.019949"
   height="24"
   id="svg7384">
  <title
     id="title9167">Moblin Icon Theme</title>
  <defs
     id="defs7386" />
  <g
     transform="translate(592,-1500)"
     id="layer3" />
  <g
     transform="translate(592,-1500)"
     id="layer5" />
  <g
     transform="translate(592,-1500)"
     id="layer7" />
  <g
     transform="translate(592,-1500)"
     id="layer2" />
  <g
     transform="translate(592,-1500)"
     id="layer8" />
  <g
     transform="translate(592,-2452.3622)"
     id="layer1" />
  <g
     transform="translate(592,-1500)"
     id="layer11">
    <rect
       width="24"
       height="24"
       x="-591.98004"
       y="1500"
       id="rect7826-9-8"
       style="opacity:0;fill:#ffffff;fill-opacity:1;stroke:none;display:inline" />
    <path
       d="M -581.36232,1499.9815 C -581.72546,1499.9828 -582.05935,1500.1808 -582.2346,1500.4989 C -582.40986,1500.817 -582.39894,1501.205 -582.20607,1501.5127 C -580.54881,1504.3832 -580.54879,1507.5172 -582.20607,1510.3877 C -582.48221,1510.871 -582.31432,1511.4866 -581.83107,1511.7627 C -581.34782,1512.0389 -580.73221,1511.871 -580.45607,1511.3877 C -578.47034,1507.9483 -578.47037,1503.9521 -580.45607,1500.5127 C -580.63334,1500.1785 -580.98407,1499.9729 -581.36232,1499.9815 z"
       id="path7207-2"
       style="fill:#bebebe;fill-opacity:1;stroke:none;stroke-width:2;stroke-linecap:round;stroke-linejoin:round;marker:none;stroke-miterlimit:4;stroke-dasharray:none;stroke-dashoffset:0;stroke-opacity:1;visibility:visible;display:inline;overflow:visible;enable-background:accumulate" />
    <path
       d="M -577.36232,1499.9815 C -577.72546,1499.9828 -578.05935,1500.1808 -578.2346,1500.4989 C -578.40986,1500.817 -578.39894,1501.205 -578.20607,1501.5127 C -576.54881,1504.3832 -576.54879,1507.5172 -578.20607,1510.3877 C -578.48221,1510.871 -578.31432,1511.4866 -577.83107,1511.7627 C -577.34782,1512.0389 -576.73221,1511.871 -576.45607,1511.3877 C -574.47034,1507.9483 -574.47037,1503.9521 -576.45607,1500.5127 C -576.63334,1500.1785 -576.98407,1499.9729 -577.36232,1499.9815 z"
       id="path7209-2"
       style="fill:#bebebe;fill-opacity:1;stroke:none;stroke-width:2;stroke-linecap:round;stroke-linejoin:round;marker:none;stroke-miterlimit:4;stroke-dasharray:none;stroke-dashoffset:0;stroke-opacity:1;visibility:visible;display:inline;overflow:visible;enable-background:accumulate" />
    <path
       d="M -591.1875,1507.0312 C -591.66638,1507.1211 -592.01006,1507.5441 -592,1508.0312 L -592,1522.9688 C -592.00093,1523.2343 -591.89587,1523.4892 -591.70813,1523.6769 C -591.52039,1523.8647 -591.2655,1523.9697 -591,1523.9688 L -585.03125,1523.9688 C -584.76575,1523.9697 -584.51086,1523.8647 -584.32312,1523.6769 C -584.13538,1523.4892 -584.03032,1523.2343 -584.03125,1522.9688 L -584.03125,1508.0312 C -584.03032,1507.7657 -584.13538,1507.5108 -584.32312,1507.3231 C -584.51086,1507.1353 -584.76575,1507.0303 -585.03125,1507.0312 L -591,1507.0312 C -591.06236,1507.0253 -591.12514,1507.0253 -591.1875,1507.0312 z M -590,1509.0312 L -586.03125,1509.0312 L -586.03125,1521.9688 L -590,1521.9688 L -590,1509.0312 z"
       id="rect6732"
       style="fill:#bebebe;fill-opacity:1;stroke:none;stroke-width:1.99285614;stroke-linecap:round;stroke-linejoin:round;marker:none;stroke-miterlimit:4;stroke-dasharray:none;stroke-dashoffset:0;stroke-opacity:1;visibility:visible;display:inline;overflow:visible;enable-background:accumulate" />
    <rect
       width="1"
       height="1"
       x="-589"
       y="1510"
       id="rect6770"
       style="fill:#bebebe;fill-opacity:1;stroke:none;stroke-width:2;marker:none;visibility:visible;display:inline;overflow:visible;enable-background:accumulate" />
    <rect
       width="1"
       height="1"
       x="-588"
       y="1511"
       id="rect7545"
       style="fill:#bebebe;fill-opacity:1;stroke:none;stroke-width:2;marker:none;visibility:visible;display:inline;overflow:visible;enable-background:accumulate" />
    <rect
       width="1"
       height="1"
       x="-589"
       y="1512"
       id="rect7547"
       style="fill:#bebebe;fill-opacity:1;stroke:none;stroke-width:2;marker:none;visibility:visible;display:inline;overflow:visible;enable-background:accumulate" />
    <rect
       width="1"
       height="1"
       x="-588"
       y="1513"
       id="rect7549"
       style="fill:#bebebe;fill-opacity:1;stroke:none;stroke-width:2;marker:none;visibility:visible;display:inline;overflow:visible;enable-background:accumulate" />
    <rect
       width="1"
       height="1"
       x="-589"
       y="1514"
       id="rect7551"
       style="fill:#bebebe;fill-opacity:1;stroke:none;stroke-width:2;marker:none;visibility:visible;display:inline;overflow:visible;enable-background:accumulate" />
    <rect
       width="1"
       height="1"
       x="-588"
       y="1515"
       id="rect7553"
       style="fill:#bebebe;fill-opacity:1;stroke:none;stroke-width:2;marker:none;visibility:visible;display:inline;overflow:visible;enable-background:accumulate" />
    <rect
       width="1"
       height="1"
       x="-589"
       y="1516"
       id="rect7555"
       style="fill:#bebebe;fill-opacity:1;stroke:none;stroke-width:2;marker:none;visibility:visible;display:inline;overflow:visible;enable-background:accumulate" />
    <rect
       width="1"
       height="1"
       x="-588"
       y="1517"
       id="rect7557"
       style="fill:#bebebe;fill-opacity:1;stroke:none;stroke-width:2;marker:none;visibility:visible;display:inline;overflow:visible;enable-background:accumulate" />
  </g>
  <g
     transform="translate(592,-1500)"
     id="layer4" />
  <g
     transform="translate(592,-1500)"
     id="layer9" />
  <g
     transform="translate(592,-1500)"
     id="layer10" />
  <g
     transform="translate(592,-1500)"
     id="layer6" />
</svg>
