<?xml version="1.0" encoding="UTF-8" standalone="no"?>
<!-- Created with Inkscape (http://www.inkscape.org/) -->
<svg
   xmlns:svg="http://www.w3.org/2000/svg"
   xmlns="http://www.w3.org/2000/svg"
   version="1.0"
   width="24"
   height="24"
   id="svg7384">
  <title
     id="title9167">Moblin Icon Theme</title>
  <defs
     id="defs7386" />
  <g
     transform="translate(434,-1520)"
     id="layer3" />
  <g
     transform="translate(434,-1520)"
     id="layer5" />
  <g
     transform="translate(434,-1520)"
     id="layer7" />
  <g
     transform="translate(434,-1520)"
     id="layer2" />
  <g
     transform="translate(434,-1520)"
     id="layer8" />
  <g
     transform="translate(434,-2472.3622)"
     id="layer1" />
  <g
     transform="translate(434,-1520)"
     id="layer11">
    <g
       transform="translate(-103,1117)"
       id="use7573">
      <rect
         width="24"
         height="24"
         x="307"
         y="403"
         transform="scale(-1,1)"
         id="rect12801"
         style="opacity:0;fill:#f5f5f5;fill-opacity:1;stroke:none;display:inline" />
      <path
         d="M -311.22022,419.04892 C -311.75471,419.95901 -312.1488,420.63691 -312.2048,420.65622 C -312.2592,420.67502 -312.97843,420.42118 -313.91218,420.05294 C -314.51732,420.64935 -314.88958,421.4424 -314.9481,422.29278 C -314.1085,422.78666 -313.4857,423.18961 -313.46728,423.24309 C -313.44898,423.29549 -313.72377,423.94964 -314.07263,424.83505 C -314.06463,424.84505 -314.06763,424.86125 -314.06173,424.86985 C -313.47566,425.50977 -312.66115,425.89382 -311.79766,425.97309 C -311.31098,425.14737 -310.9337,424.52265 -310.88068,424.50439 C -310.82658,424.48569 -310.13469,424.75406 -309.2077,425.11948 C -309.1987,425.12348 -309.1818,425.10478 -309.1728,425.10858 C -308.53831,424.5389 -308.14217,423.75747 -308.04448,422.91379 C -308.94297,422.38658 -309.63294,421.98587 -309.6521,421.93028 C -309.6722,421.87418 -309.36013,421.10813 -308.9684,420.11919 C -309.56053,419.50205 -310.36604,419.1168 -311.2206,419.05031 L -311.22022,419.04892 z"
         id="path12803"
         style="fill:none;stroke:#bebebe;stroke-width:2.00000048;stroke-linecap:round;stroke-linejoin:miter;marker:none;stroke-miterlimit:4;stroke-dasharray:none;stroke-dashoffset:0;stroke-opacity:1;visibility:visible;display:inline;overflow:visible;enable-background:accumulate" />
      <path
         d="M -355.6875,445.9375 A 2.25,2.25 0 1 1 -360.1875,445.9375 A 2.25,2.25 0 1 1 -355.6875,445.9375 z"
         transform="matrix(1.1111078,0,0,1.1111078,77.207132,-80.984611)"
         id="path12805"
         style="fill:none;stroke:#bebebe;stroke-width:1.80000544;stroke-linecap:round;stroke-linejoin:miter;marker:none;stroke-miterlimit:4;stroke-dasharray:none;stroke-dashoffset:0;stroke-opacity:1;visibility:visible;display:inline;overflow:visible;enable-background:accumulate" />
      <path
         d="M -312.61541,408.12145 L -315.57762,409.54982 C -316.00941,409.11032 -316.48545,408.71181 -317.04486,408.38885 C -317.64726,408.04104 -318.27973,407.82269 -318.92384,407.67019 L -319.16791,404.39067 C -320.10618,404.26569 -321.08049,404.29157 -322.00421,404.42707 L -322.24792,407.73882 C -323.47305,408.05102 -324.60804,408.68161 -325.52102,409.61541 L -328.48866,408.1636 C -328.7961,408.55196 -329.09828,408.94877 -329.35337,409.39059 C -329.57712,409.77812 -329.72507,410.1939 -329.89301,410.59603 L -327.2301,412.395 C -327.63329,413.69001 -327.59018,415.04599 -327.2476,416.30818 L -329.99381,418.17514 C -329.65928,419.03338 -329.20799,419.88176 -328.6463,420.62706 L -325.68409,419.19865 C -325.21535,419.71035 -324.69928,420.18571 -324.06666,420.55096 C -323.47709,420.89136 -322.85666,421.09389 -322.22676,421.24705 L -321.9827,424.5266 C -321.06406,424.65291 -320.11415,424.63069 -319.20818,424.5068 L -318.94798,421.25687 C -317.62618,420.93836 -316.378,420.24873 -315.42167,419.21259 L -312.40725,420.40052 C -312.14269,420.05416 -312.01312,419.96797 -311.78938,419.58044 C -311.5343,419.13862 -311.31043,418.6473 -311.12789,418.18681 L -313.86899,416.3427 C -313.49913,415.02213 -313.53599,413.65237 -313.92979,412.38439 L -311.20626,410.55665 C -311.56208,409.70082 -312.03107,408.85843 -312.61552,408.12141 L -312.61541,408.12145 L -312.61541,408.12145 z"
         id="path12807"
         style="fill:none;stroke:#bebebe;stroke-width:1.99999952;stroke-linecap:round;stroke-linejoin:miter;marker:none;stroke-miterlimit:4.30000019;stroke-dasharray:none;stroke-dashoffset:0;stroke-opacity:1;visibility:visible;display:inline;overflow:visible;enable-background:accumulate" />
    </g>
  </g>
  <g
     transform="translate(434,-1520)"
     id="layer4" />
  <g
     transform="translate(434,-1520)"
     id="layer12" />
  <g
     transform="translate(434,-1520)"
     id="layer9" />
  <g
     transform="translate(434,-1520)"
     id="layer10" />
  <g
     transform="translate(434,-1520)"
     id="layer6" />
</svg>
