<?xml version="1.0" encoding="UTF-8" standalone="no"?>
<!-- Created with Inkscape (http://www.inkscape.org/) -->
<svg
   xmlns:svg="http://www.w3.org/2000/svg"
   xmlns="http://www.w3.org/2000/svg"
   xmlns:xlink="http://www.w3.org/1999/xlink"
   version="1.0"
   width="24.003"
   height="24.000002"
   id="svg7384">
  <title
     id="title9167">Moblin Icon Theme</title>
  <defs
     id="defs7386">
    <linearGradient
       id="linearGradient12576-1-1">
      <stop
         id="stop12578-1-6"
         style="stop-color:#204a87;stop-opacity:1"
         offset="0" />
      <stop
         id="stop12580-7-0"
         style="stop-color:#729fcf;stop-opacity:1"
         offset="1" />
    </linearGradient>
    <linearGradient
       x1="-220.50125"
       y1="192.8125"
       x2="-220.50125"
       y2="177.25"
       id="linearGradient13099"
       xlink:href="#linearGradient12576-1-1"
       gradientUnits="userSpaceOnUse" />
  </defs>
  <g
     transform="translate(434,-1490.1722)"
     id="layer3" />
  <g
     transform="translate(434,-1490.1722)"
     id="layer5" />
  <g
     transform="translate(434,-1490.1722)"
     id="layer7" />
  <g
     transform="translate(434,-1490.1722)"
     id="layer2" />
  <g
     transform="translate(434,-1490.1722)"
     id="layer8" />
  <g
     transform="translate(434,-2442.5344)"
     id="layer1" />
  <g
     transform="translate(434,-1490.1722)"
     id="layer11">
    <g
       transform="translate(-201.497,1315.6722)"
       id="use8421">
      <rect
         width="24"
         height="24"
         x="208.5"
         y="174.5"
         transform="scale(-1,1)"
         id="rect13091"
         style="opacity:0;fill:#f5f5f5;fill-opacity:1;stroke:none;display:inline" />
      <g
         id="g13093"
         style="fill:url(#linearGradient13099);fill-opacity:1">
        <path
           d="M -225.5,174.5 C -226.78145,174.49909 -228.05972,174.99722 -229.03125,175.96875 C -230.90573,177.84307 -230.96316,180.85411 -229.21875,182.8125 C -231.074,183.49267 -232.42976,185.23307 -232.5,187.3125 C -232.504,187.3645 -232.504,187.41677 -232.5,187.46875 C -232.50034,187.47955 -232.5,187.48915 -232.5,187.50005 L -232.5,192.50005 C -232.5,193.05405 -232.054,193.50005 -231.5,193.50005 C -230.946,193.50005 -230.5,193.05405 -230.5,192.50005 L -230.5,187.50005 C -230.499,187.46885 -230.499,187.43755 -230.5,187.40635 C -230.4451,185.77983 -229.12753,184.4991 -227.5,184.5001 L -227.4063,184.5001 L -225.50005,184.5001 L -223.50005,184.5001 C -222.91225,184.49973 -222.37679,184.68179 -221.79778,184.99586 C -221.79778,184.99586 -220.98792,183.21956 -220.98792,183.21956 C -221.2396,183.07272 -221.50494,182.9467 -221.7813,182.84385 C -220.02384,180.88858 -220.08622,177.85142 -221.9688,175.96885 C -222.9417,174.99588 -224.21855,174.50091 -225.5,174.5 L -225.5,174.5 z M -225.5,176.5 C -224.73335,176.50055 -223.96553,176.78447 -223.375,177.375 C -222.19406,178.55604 -222.19568,180.44568 -223.375,181.625 C -223.96466,182.21463 -224.73431,182.50153 -225.5,182.5 C -226.26569,182.498 -227.03447,182.21552 -227.625,181.625 C -228.8061,180.44395 -228.80432,178.55433 -227.625,177.375 C -227.03534,176.78528 -226.26665,176.49945 -225.5,176.5 z"
           id="path13095"
           style="font-size:medium;font-style:normal;font-variant:normal;font-weight:normal;font-stretch:normal;text-indent:0;text-align:start;text-decoration:none;line-height:normal;letter-spacing:normal;word-spacing:normal;text-transform:none;direction:ltr;block-progression:tb;writing-mode:lr-tb;text-anchor:start;fill:#bebebe;fill-opacity:1;fill-rule:nonzero;stroke:none;stroke-width:11.48875809;marker:none;visibility:visible;display:inline;overflow:visible;enable-background:accumulate;font-family:Bitstream Vera Sans;-inkscape-font-specification:Bitstream Vera Sans" />
        <path
           d="M -215.50349,180.5 C -216.78494,180.49909 -218.06321,180.99722 -219.03474,181.96875 C -220.90922,183.84307 -220.96665,186.85411 -219.22224,188.8125 C -221.07749,189.49267 -222.43325,191.23307 -222.50349,193.3125 C -222.50757,193.3645 -222.50757,193.41675 -222.50349,193.46875 C -222.50383,193.47955 -222.50349,193.48915 -222.50349,193.50005 L -222.50349,196.50005 C -222.50349,197.05405 -222.05749,197.50005 -221.50349,197.50005 C -220.94949,197.50005 -220.50349,197.05405 -220.50349,196.50005 L -220.50349,193.50005 C -220.50202,193.46883 -220.50202,193.43757 -220.50349,193.40635 C -220.44859,191.77983 -219.13102,190.4991 -217.50349,190.5001 C -217.48266,190.50075 -217.46182,190.50075 -217.44099,190.5001 L -215.50349,190.5001 L -213.50349,190.5001 C -211.83445,190.4991 -210.50228,191.83107 -210.50349,193.5001 C -210.50935,193.56246 -210.50935,193.62524 -210.50349,193.6876 L -210.50349,196.5001 C -210.50349,197.0541 -210.05749,197.5001 -209.50349,197.5001 C -208.94949,197.5001 -208.50349,197.0541 -208.50349,196.5001 L -208.50349,193.6876 L -208.50349,193.5626 C -208.50284,193.54177 -208.50284,193.52093 -208.50349,193.5001 C -208.50149,191.35861 -209.88174,189.55209 -211.78474,188.84385 C -210.02728,186.88858 -210.08966,183.85142 -211.97224,181.96885 C -212.94519,180.99598 -214.22204,180.50101 -215.50349,180.5001 L -215.50349,180.5 z M -215.50349,182.5 C -214.73684,182.50055 -213.96902,182.78447 -213.37849,183.375 C -212.19755,184.55604 -212.19917,186.44568 -213.37849,187.625 C -213.96815,188.21463 -214.7378,188.50153 -215.50349,188.5 C -216.26918,188.498 -217.03796,188.21552 -217.62849,187.625 C -218.80959,186.44395 -218.80781,184.55433 -217.62849,183.375 C -217.03883,182.78528 -216.27014,182.49945 -215.50349,182.5 z"
           id="path13097"
           style="font-size:medium;font-style:normal;font-variant:normal;font-weight:normal;font-stretch:normal;text-indent:0;text-align:start;text-decoration:none;line-height:normal;letter-spacing:normal;word-spacing:normal;text-transform:none;direction:ltr;block-progression:tb;writing-mode:lr-tb;text-anchor:start;fill:#bebebe;fill-opacity:1;fill-rule:nonzero;stroke:none;stroke-width:11.48875809;marker:none;visibility:visible;display:inline;overflow:visible;enable-background:accumulate;font-family:Bitstream Vera Sans;-inkscape-font-specification:Bitstream Vera Sans" />
      </g>
    </g>
  </g>
  <g
     transform="translate(434,-1490.1722)"
     id="layer4" />
  <g
     transform="translate(434,-1490.1722)"
     id="layer12" />
  <g
     transform="translate(434,-1490.1722)"
     id="layer9" />
  <g
     transform="translate(434,-1490.1722)"
     id="layer10" />
  <g
     transform="translate(434,-1490.1722)"
     id="layer6" />
</svg>
