<?xml version="1.0" encoding="UTF-8" standalone="no"?>
<!-- Created with Inkscape (http://www.inkscape.org/) -->
<svg
   xmlns:svg="http://www.w3.org/2000/svg"
   xmlns="http://www.w3.org/2000/svg"
   version="1.0"
   width="24"
   height="24"
   id="svg7384">
  <title
     id="title9167">Moblin Icon Theme</title>
  <defs
     id="defs7386" />
  <g
     transform="translate(616.00002,-1390.1722)"
     id="layer3" />
  <g
     transform="translate(616.00002,-1390.1722)"
     id="layer5" />
  <g
     transform="translate(616.00002,-1390.1722)"
     id="layer7" />
  <g
     transform="translate(616.00002,-1390.1722)"
     id="layer2" />
  <g
     transform="translate(616.00002,-1390.1722)"
     id="layer8" />
  <g
     transform="translate(616.00002,-2342.5344)"
     id="layer1" />
  <g
     transform="translate(616.00002,-1390.1722)"
     id="layer11">
    <g
       transform="translate(-665.00002,1022.81)"
       id="use7860">
      <rect
         width="24"
         height="24"
         x="49"
         y="367.36218"
         id="rect11853"
         style="opacity:0;fill:#ffffff;fill-opacity:1;stroke:none;display:inline" />
      <path
         d="M 402.375,214.625 A 7.875,7.875 0 1 1 386.625,214.625 A 7.875,7.875 0 1 1 402.375,214.625 z"
         transform="matrix(1.1428571,0,0,1.1428571,-389.94386,134.07654)"
         id="path11855"
         style="fill:none;stroke:#bebebe;stroke-width:1.75;marker:none;stroke-miterlimit:4;stroke-dasharray:none;stroke-opacity:1;visibility:visible;display:inline;overflow:visible;enable-background:accumulate" />
      <path
         d="M 402.375,214.625 A 7.875,7.875 0 1 1 386.625,214.625 A 7.875,7.875 0 1 1 402.375,214.625 z"
         transform="matrix(0.379028,0,0,0.379028,-88.613274,298.01336)"
         id="path11857"
         style="fill:none;stroke:#bebebe;stroke-width:5.2766552;marker:none;stroke-miterlimit:4;stroke-dasharray:none;stroke-opacity:1;visibility:visible;display:inline;overflow:visible;enable-background:accumulate" />
      <path
         d="M 55.990494,384.26735 L 58.807303,381.4702"
         id="path11859"
         style="fill:none;stroke:#bebebe;stroke-width:1;stroke-linecap:round;stroke-linejoin:miter;stroke-miterlimit:4;stroke-dasharray:none;stroke-opacity:1" />
      <path
         d="M 65.834176,374.44333 L 63.017367,377.24048"
         id="path11861"
         style="fill:none;stroke:#bebebe;stroke-width:1;stroke-linecap:round;stroke-linejoin:miter;stroke-miterlimit:4;stroke-dasharray:none;stroke-opacity:1" />
      <path
         d="M 57.429523,385.37384 L 59.426396,381.94296"
         id="path11863"
         style="fill:none;stroke:#bebebe;stroke-width:1;stroke-linecap:round;stroke-linejoin:miter;stroke-miterlimit:4;stroke-dasharray:none;stroke-opacity:1" />
      <path
         d="M 64.395147,373.33684 L 62.398274,376.76772"
         id="path11865"
         style="fill:none;stroke:#bebebe;stroke-width:1;stroke-linecap:round;stroke-linejoin:miter;stroke-miterlimit:4;stroke-dasharray:none;stroke-opacity:1" />
    </g>
  </g>
  <g
     transform="translate(616.00002,-1390.1722)"
     id="layer4" />
  <g
     transform="translate(616.00002,-1390.1722)"
     id="layer12" />
  <g
     transform="translate(616.00002,-1390.1722)"
     id="layer9" />
  <g
     transform="translate(616.00002,-1390.1722)"
     id="layer10" />
  <g
     transform="translate(616.00002,-1390.1722)"
     id="layer6" />
</svg>
