<?xml version="1.0" encoding="UTF-8" standalone="no"?>
<!-- Created with Inkscape (http://www.inkscape.org/) -->
<svg
   xmlns:svg="http://www.w3.org/2000/svg"
   xmlns="http://www.w3.org/2000/svg"
   version="1.0"
   width="24"
   height="24"
   id="svg7384">
  <title
     id="title9167">Moblin Icon Theme</title>
  <defs
     id="defs7386" />
  <g
     transform="translate(460,-1360.1722)"
     id="layer3" />
  <g
     transform="translate(460,-1360.1722)"
     id="layer5" />
  <g
     transform="translate(460,-1360.1722)"
     id="layer7" />
  <g
     transform="translate(460,-1360.1722)"
     id="layer2" />
  <g
     transform="translate(460,-1360.1722)"
     id="layer8" />
  <g
     transform="translate(460,-2312.5344)"
     id="layer1" />
  <g
     transform="translate(460,-1360.1722)"
     id="layer11">
    <g
       transform="translate(-566,992.81)"
       id="use7721">
      <rect
         width="24"
         height="24"
         x="106"
         y="367.36218"
         id="rect11765"
         style="opacity:0;fill:#ffffff;fill-opacity:1;stroke:none;display:inline" />
      <path
         d="M 117.6986,374.06289 C 118.0904,373.67115 118.0904,373.04041 117.6986,372.64868 L 114.4129,369.36422 C 114.4129,369.36422 112.9987,369.36422 112.9987,369.36422 C 112.9987,369.36422 112.9987,370.77843 112.9987,370.77843 L 116.2844,374.06289 C 116.6761,374.45463 117.3069,374.45463 117.6986,374.06289 z"
         id="path11767"
         style="fill:#bebebe;fill-opacity:1;stroke:none;display:inline" />
      <path
         d="M 117.3001,374.06289 C 116.9083,373.67115 116.9083,373.04041 117.3001,372.64868 L 120.5858,369.36422 C 120.5858,369.36422 122,369.36422 122,369.36422 C 122,369.36422 122,370.77843 122,370.77843 L 118.7143,374.06289 C 118.3226,374.45463 117.6918,374.45463 117.3001,374.06289 z"
         id="path11769"
         style="fill:#bebebe;fill-opacity:1;stroke:none;display:inline" />
      <rect
         width="12.999977"
         height="9.9999971"
         x="111.50002"
         y="376.86218"
         id="rect11771"
         style="fill:none;stroke:#bebebe;stroke-width:1;stroke-linecap:square;stroke-linejoin:miter;marker:none;stroke-miterlimit:4;stroke-dasharray:none;stroke-dashoffset:0;stroke-opacity:1;visibility:visible;display:inline;overflow:visible;enable-background:accumulate" />
      <rect
         width="18"
         height="15"
         rx="1"
         ry="1"
         x="329"
         y="182"
         transform="translate(-220,192.36218)"
         id="rect11773"
         style="fill:none;stroke:#bebebe;stroke-width:2;stroke-linecap:square;stroke-linejoin:round;marker:none;stroke-miterlimit:4;stroke-dasharray:none;stroke-dashoffset:0;stroke-opacity:1;visibility:visible;display:inline;overflow:visible;enable-background:accumulate" />
    </g>
  </g>
  <g
     transform="translate(460,-1360.1722)"
     id="layer4" />
  <g
     transform="translate(460,-1360.1722)"
     id="layer12" />
  <g
     transform="translate(460,-1360.1722)"
     id="layer9" />
  <g
     transform="translate(460,-1360.1722)"
     id="layer10" />
  <g
     transform="translate(460,-1360.1722)"
     id="layer6" />
</svg>
