<?xml version="1.0" encoding="UTF-8" standalone="no"?>
<!-- Created with Inkscape (http://www.inkscape.org/) -->
<svg
   xmlns:svg="http://www.w3.org/2000/svg"
   xmlns="http://www.w3.org/2000/svg"
   version="1.0"
   width="24.00001"
   height="24"
   id="svg7384">
  <title
     id="title9167">Moblin Icon Theme</title>
  <defs
     id="defs7386" />
  <g
     transform="translate(618.00001,-1560)"
     id="layer3" />
  <g
     transform="translate(618.00001,-1560)"
     id="layer5" />
  <g
     transform="translate(618.00001,-1560)"
     id="layer7" />
  <g
     transform="translate(618.00001,-1560)"
     id="layer2" />
  <g
     transform="translate(618.00001,-1560)"
     id="layer8" />
  <g
     transform="translate(618.00001,-2512.3622)"
     id="layer1" />
  <g
     transform="translate(618.00001,-1560)"
     id="layer11">
    <rect
       width="24"
       height="24"
       x="594"
       y="1560"
       transform="scale(-1,1)"
       id="rect6102-6"
       style="opacity:0;fill:#f5f5f5;fill-opacity:1;stroke:none;display:inline" />
    <path
       d="M -605.3125,1560 L -605.59375,1560.75 L -606.5625,1563.5938 C -607.61703,1563.6711 -608.64736,1563.9391 -609.625,1564.4062 L -611.84375,1562.4375 L -612.46875,1561.9062 L -613.09375,1562.4062 C -613.53686,1562.7356 -614.01736,1563.0801 -614.46875,1563.5312 C -614.89757,1563.9598 -615.20089,1564.4031 -615.46875,1564.75 L -615.96875,1565.4062 L -615.4375,1566 L -613.53125,1568.1875 C -614.0339,1569.1983 -614.32329,1570.263 -614.40625,1571.3438 L -617.25,1572.3438 L -618,1572.625 L -617.90625,1573.4062 C -617.78714,1574.4841 -617.54627,1575.5832 -617.125,1576.625 L -616.8125,1577.4062 L -616,1577.25 L -613.125,1576.6875 C -612.81643,1577.1994 -612.53028,1577.7199 -612.0625,1578.1875 C -611.63948,1578.6103 -611.17662,1578.8674 -610.71875,1579.1562 L -611.25,1582.0625 L -611.40625,1582.8438 L -610.65625,1583.1562 C -609.6249,1583.5903 -608.53423,1583.8651 -607.46875,1584 L -606.6875,1584.0938 L -606.40625,1583.3438 L -605.40625,1580.5625 C -604.24298,1580.4907 -603.10234,1580.2013 -602.03125,1579.6562 L -599.625,1581.4062 L -599.03125,1581.8438 L -598.4375,1581.4062 C -598.12284,1581.1639 -597.85501,1581.0423 -597.4375,1580.625 C -596.99677,1580.1844 -596.59365,1579.6809 -596.25,1579.2188 L -595.78125,1578.5938 L -596.3125,1577.9688 L -598.28125,1575.7188 C -597.79019,1574.6859 -597.52546,1573.5851 -597.46875,1572.4688 L -594.6875,1571.5312 L -593.90625,1571.25 L -594,1570.4375 C -594.12148,1569.5254 -594.4135,1568.6139 -594.75,1567.7188 L -594.46875,1567.2188 L -595.3125,1566.75 L -597.875,1565.3438 L -597.21875,1566.875 L -598.875,1567.1875 C -599.15753,1566.7639 -599.42559,1566.3242 -599.8125,1565.9375 C -600.23299,1565.5172 -600.72431,1565.2655 -601.1875,1564.9688 L -600.65625,1562.0312 L -600.5,1561.25 L -601.25,1560.9375 C -602.30244,1560.4998 -603.43897,1560.2213 -604.53125,1560.0938 L -605.3125,1560 z M -604,1562.2812 C -603.59286,1562.358 -603.20525,1562.4699 -602.8125,1562.5938 L -603.28125,1565.1875 L -603.4375,1565.9062 L -602.78125,1566.25 C -602.20558,1566.5601 -601.69975,1566.9254 -601.25,1567.375 C -600.83048,1567.7943 -600.48586,1568.2541 -600.1875,1568.7812 L -599.84375,1569.4062 L -599.125,1569.2812 L -596.53125,1568.7812 C -596.40467,1569.1613 -596.30071,1569.5417 -596.21875,1569.9375 L -598.71875,1570.7812 L -599.40625,1571.0312 L -599.375,1571.7812 C -599.32532,1573.0397 -599.62027,1574.2909 -600.28125,1575.4062 L -600.65625,1576.0312 L -600.1875,1576.5625 L -598.375,1578.625 C -598.54269,1578.8236 -598.70243,1579.0462 -598.875,1579.2188 C -598.93041,1579.2741 -598.98744,1579.3061 -599.03125,1579.3438 L -601.28125,1577.6875 L -601.84375,1577.2812 L -602.40625,1577.6562 C -603.52496,1578.3629 -604.82957,1578.6893 -606.125,1578.6562 L -606.875,1578.625 L -607.09375,1579.3125 L -607.96875,1581.8125 C -608.3554,1581.7364 -608.72144,1581.6185 -609.09375,1581.5 L -608.625,1578.9062 L -608.5,1578.1875 L -609.125,1577.8438 C -609.69938,1577.5298 -610.22505,1577.181 -610.65625,1576.75 C -611.11986,1576.2866 -611.45858,1575.7448 -611.78125,1575.125 L -612.125,1574.4688 L -612.84375,1574.5938 L -615.4375,1575.0938 C -615.55417,1574.7109 -615.67798,1574.3338 -615.75,1573.9375 L -613.1875,1573.0625 L -612.5,1572.8125 L -612.5,1572.0938 C -612.50423,1570.8296 -612.20374,1569.5949 -611.53125,1568.5312 L -611.125,1567.9062 L -611.625,1567.3438 L -613.375,1565.3125 C -613.2773,1565.1919 -613.15934,1565.0343 -613.0625,1564.9375 C -612.90785,1564.7829 -612.70693,1564.6454 -612.53125,1564.5 L -610.46875,1566.3125 L -609.90625,1566.7812 L -609.28125,1566.4062 C -608.22016,1565.778 -607.04654,1565.485 -605.84375,1565.5 L -605.125,1565.5312 L -604.875,1564.8438 L -604,1562.2812 z"
       id="path11062-3"
       style="fill:#bebebe;fill-opacity:1;stroke:none;stroke-width:1.99999952;stroke-linecap:round;stroke-linejoin:miter;marker:none;stroke-miterlimit:4.30000019;stroke-dasharray:none;stroke-dashoffset:0;stroke-opacity:1;visibility:visible;display:inline;overflow:visible;enable-background:accumulate" />
    <path
       d="M -609,1569.0312 C -609.554,1569.0312 -610,1569.4772 -610,1570.0312 L -610,1575 C -610,1575.554 -609.554,1576 -609,1576 L -603,1576 C -602.446,1576 -602,1575.554 -602,1575 L -602,1570.0312 C -602,1569.4772 -602.446,1569.0312 -603,1569.0312 L -609,1569.0312 z M -607.5625,1571.9688 C -607.27002,1571.9308 -606.9792,1572.2058 -607,1572.5 L -607,1575 L -608,1575 L -608,1572.5 C -608.0177,1572.2475 -607.81359,1571.9998 -607.5625,1571.9688 z M -605.5625,1571.9688 C -605.27002,1571.9308 -604.9792,1572.2058 -605,1572.5 L -605,1575 L -606,1575 L -606,1572.5 C -606.0177,1572.2475 -605.81359,1571.9997 -605.5625,1571.9688 z"
       id="rect7128-6"
       style="fill:#bebebe;fill-opacity:1;stroke:none;stroke-width:1;marker:none;visibility:visible;display:inline;overflow:visible;enable-background:accumulate" />
  </g>
  <g
     transform="translate(618.00001,-1560)"
     id="layer4" />
  <g
     transform="translate(618.00001,-1560)"
     id="layer9" />
  <g
     transform="translate(618.00001,-1560)"
     id="layer10" />
  <g
     transform="translate(618.00001,-1560)"
     id="layer6" />
</svg>
