<?xml version="1.0" encoding="UTF-8" standalone="no"?>
<!-- Created with Inkscape (http://www.inkscape.org/) -->
<svg
   xmlns:svg="http://www.w3.org/2000/svg"
   xmlns="http://www.w3.org/2000/svg"
   version="1.0"
   width="24"
   height="24"
   id="svg7384">
  <title
     id="title9167">Moblin Icon Theme</title>
  <defs
     id="defs7386" />
  <g
     transform="translate(488.01586,-1560)"
     id="layer3" />
  <g
     transform="translate(488.01586,-1560)"
     id="layer5" />
  <g
     transform="translate(488.01586,-1560)"
     id="layer7" />
  <g
     transform="translate(488.01586,-1560)"
     id="layer2" />
  <g
     transform="translate(488.01586,-1560)"
     id="layer8" />
  <g
     transform="translate(488.01586,-2512.3621)"
     id="layer1" />
  <g
     transform="translate(488.01586,-1560)"
     id="layer11">
    <rect
       width="24"
       height="24"
       x="464.01587"
       y="1560"
       transform="scale(-1,1)"
       id="rect8837"
       style="opacity:0;fill:#ffffff;fill-opacity:1;stroke:none;display:inline" />
    <path
       d="M -485.94608,1565.8295 L -485.94608,1566.8607 L -485.94608,1572.7983 L -485.94608,1573.8607 L -484.98207,1573.414 L -478.97119,1570.6283 L -478.03553,1570.1947 L -478.03553,1569.1323 L -478.03553,1563.1947 L -478.03553,1562.1635 L -478.97119,1562.5971 L -484.98207,1565.3828 L -485.94608,1565.8295 z M -484.04642,1567.043 L -479.9352,1565.1377 L -479.9352,1568.9501 L -484.04642,1570.8554 L -484.04642,1567.043 z"
       id="rect8849"
       style="fill:#bebebe;fill-opacity:1;stroke:none;stroke-width:2.09968352;stroke-linecap:round;stroke-linejoin:miter;marker:none;stroke-miterlimit:4;stroke-dasharray:none;stroke-dashoffset:0;stroke-opacity:1;visibility:visible;display:inline;overflow:visible;enable-background:accumulate" />
    <path
       d="M -475.98097,1565.7387 L -475.98097,1566.8013 L -475.98097,1572.7075 L -475.98097,1573.77 L -475.00893,1573.341 L -469.00521,1570.6912 L -468.03318,1570.2621 L -468.03318,1569.1996 L -468.03318,1563.2934 L -468.03318,1562.2308 L -469.00521,1562.6599 L -475.00893,1565.3097 L -475.98097,1565.7387 z M -474.06549,1566.9871 L -469.94865,1565.1701 L -469.94865,1569.0139 L -474.06549,1570.8309 L -474.06549,1566.9871 z"
       id="rect8851"
       style="fill:#bebebe;fill-opacity:1;stroke:none;stroke-width:2.09100175;stroke-linecap:round;stroke-linejoin:miter;marker:none;stroke-miterlimit:4;stroke-dasharray:none;stroke-dashoffset:0;stroke-opacity:1;visibility:visible;display:inline;overflow:visible;enable-background:accumulate" />
    <path
       d="M -485.94608,1575.7983 L -485.94608,1576.8295 L -485.94608,1582.767 L -485.94608,1583.7983 L -484.98207,1583.3516 L -478.97119,1580.5659 L -478.03553,1580.1323 L -478.03553,1579.101 L -478.03553,1573.1635 L -478.03553,1572.1323 L -478.97119,1572.5659 L -484.98207,1575.3516 L -485.94608,1575.7983 z M -484.04642,1577.0117 L -479.9352,1575.1064 L -479.9352,1578.9189 L -484.04642,1580.8242 L -484.04642,1577.0117 z"
       id="rect8853"
       style="fill:#bebebe;fill-opacity:1;stroke:none;stroke-width:2.09968352;stroke-linecap:round;stroke-linejoin:miter;marker:none;stroke-miterlimit:4;stroke-dasharray:none;stroke-dashoffset:0;stroke-opacity:1;visibility:visible;display:inline;overflow:visible;enable-background:accumulate" />
    <path
       d="M -475.98097,1575.7075 L -475.98097,1576.77 L -475.98097,1582.6763 L -475.98097,1583.7075 L -475.00893,1583.2785 L -469.00521,1580.6287 L -468.03318,1580.1996 L -468.03318,1579.1684 L -468.03318,1573.2621 L -468.03318,1572.1996 L -469.00521,1572.6287 L -475.00893,1575.2785 L -475.98097,1575.7075 z M -474.06549,1576.9559 L -469.94865,1575.1389 L -469.94865,1578.9826 L -474.06549,1580.7996 L -474.06549,1576.9559 z"
       id="rect8855"
       style="fill:#bebebe;fill-opacity:1;stroke:none;stroke-width:2.09100175;stroke-linecap:round;stroke-linejoin:miter;marker:none;stroke-miterlimit:4;stroke-dasharray:none;stroke-dashoffset:0;stroke-opacity:1;visibility:visible;display:inline;overflow:visible;enable-background:accumulate" />
  </g>
  <g
     transform="translate(488.01586,-1560)"
     id="layer4" />
  <g
     transform="translate(488.01586,-1560)"
     id="layer9" />
  <g
     transform="translate(488.01586,-1560)"
     id="layer10" />
  <g
     transform="translate(488.01586,-1560)"
     id="layer6" />
</svg>
