<?xml version="1.0" encoding="UTF-8" standalone="no"?>
<!-- Created with Inkscape (http://www.inkscape.org/) -->
<svg
   xmlns:svg="http://www.w3.org/2000/svg"
   xmlns="http://www.w3.org/2000/svg"
   version="1.0"
   width="24"
   height="24"
   id="svg7384">
  <title
     id="title9167">Moblin Icon Theme</title>
  <defs
     id="defs7386" />
  <g
     transform="translate(410,-1530)"
     id="layer3" />
  <g
     transform="translate(410,-1530)"
     id="layer5" />
  <g
     transform="translate(410,-1530)"
     id="layer7" />
  <g
     transform="translate(410,-1530)"
     id="layer2" />
  <g
     transform="translate(410,-1530)"
     id="layer8" />
  <g
     transform="translate(410,-2482.3622)"
     id="layer1" />
  <g
     transform="translate(410,-1530)"
     id="layer11">
    <g
       transform="translate(-150.5,1355.4082)"
       id="use8374">
      <rect
         width="24"
         height="24"
         x="-259.5"
         y="174.5918"
         id="rect12049"
         style="opacity:0;fill:#ffffff;fill-opacity:1;stroke:none;display:inline" />
      <path
         d="M -248.9822,188.01828 A 3.0625,3.0625 0 0 1 -252.82601,188.12256"
         transform="matrix(0.8163265,0,0,0.8163265,-43.627568,33.07625)"
         id="path12051"
         style="fill:none;stroke:#bebebe;stroke-width:1.22500026;stroke-linecap:round;stroke-linejoin:round;marker:none;stroke-miterlimit:4;stroke-dasharray:none;stroke-dashoffset:0;stroke-opacity:1;visibility:visible;display:inline;overflow:visible;enable-background:accumulate" />
      <path
         d="M -240.96875,181.12662 L -246.875,186.56412"
         id="path12053"
         style="fill:none;stroke:#bebebe;stroke-width:1px;stroke-linecap:round;stroke-linejoin:round;marker:none;stroke-miterlimit:4;stroke-dasharray:none;stroke-dashoffset:0;stroke-opacity:1;visibility:visible;display:inline;overflow:visible;enable-background:accumulate" />
      <path
         d="M -256,181.12662 L -250.09375,186.59537"
         id="path12055"
         style="fill:none;stroke:#bebebe;stroke-width:1px;stroke-linecap:round;stroke-linejoin:round;marker:none;stroke-miterlimit:4;stroke-dasharray:none;stroke-dashoffset:0;stroke-opacity:1;visibility:visible;display:inline;overflow:visible;enable-background:accumulate" />
      <rect
         width="19.96875"
         height="16"
         rx="1.2383569"
         ry="1.2383569"
         x="-260.96875"
         y="177.03125"
         transform="translate(2.5,0.5917969)"
         id="rect12057"
         style="fill:none;stroke:#bebebe;stroke-width:2;stroke-linecap:round;stroke-linejoin:round;marker:none;stroke-miterlimit:4;stroke-dasharray:none;stroke-dashoffset:0;stroke-opacity:1;visibility:visible;display:inline;overflow:visible;enable-background:accumulate" />
      <path
         d="M -245.98477,187.51552 A 0.45299029,0.45299029 0 1 1 -246.89075,187.51552 A 0.45299029,0.45299029 0 1 1 -245.98477,187.51552 z"
         transform="matrix(1.1037728,0,0,1.1037796,28.011297,-18.88401)"
         id="path12059"
         style="fill:#bebebe;fill-opacity:1;stroke:none;stroke-width:2;marker:none;visibility:visible;display:inline;overflow:visible;enable-background:accumulate" />
      <path
         d="M -245.98477,187.51552 A 0.45299029,0.45299029 0 1 1 -246.89075,187.51552 A 0.45299029,0.45299029 0 1 1 -245.98477,187.51552 z"
         transform="matrix(1.1037728,0,0,1.1037796,30.011297,-16.884008)"
         id="path12061"
         style="fill:#bebebe;fill-opacity:1;stroke:none;stroke-width:2;marker:none;visibility:visible;display:inline;overflow:visible;enable-background:accumulate" />
      <path
         d="M -245.98477,187.51552 A 0.45299029,0.45299029 0 1 1 -246.89075,187.51552 A 0.45299029,0.45299029 0 1 1 -245.98477,187.51552 z"
         transform="matrix(1.1037728,0,0,1.1037796,19.011297,-18.884005)"
         id="path12063"
         style="fill:#bebebe;fill-opacity:1;stroke:none;stroke-width:2;marker:none;visibility:visible;display:inline;overflow:visible;enable-background:accumulate" />
      <path
         d="M -245.98477,187.51552 A 0.45299029,0.45299029 0 1 1 -246.89075,187.51552 A 0.45299029,0.45299029 0 1 1 -245.98477,187.51552 z"
         transform="matrix(1.1037728,0,0,1.1037796,17.011294,-16.884008)"
         id="path12065"
         style="fill:#bebebe;fill-opacity:1;stroke:none;stroke-width:2;marker:none;visibility:visible;display:inline;overflow:visible;enable-background:accumulate" />
    </g>
  </g>
  <g
     transform="translate(410,-1530)"
     id="layer4" />
  <g
     transform="translate(410,-1530)"
     id="layer9" />
  <g
     transform="translate(410,-1530)"
     id="layer10" />
  <g
     transform="translate(410,-1530)"
     id="layer6" />
</svg>
