<?xml version="1.0" encoding="UTF-8" standalone="no"?>
<!-- Created with Inkscape (http://www.inkscape.org/) -->
<svg
   xmlns:svg="http://www.w3.org/2000/svg"
   xmlns="http://www.w3.org/2000/svg"
   version="1.0"
   width="24"
   height="24"
   id="svg7384">
  <title
     id="title9167">Moblin Icon Theme</title>
  <defs
     id="defs7386" />
  <g
     transform="translate(512,-1330.1722)"
     id="layer3" />
  <g
     transform="translate(512,-1330.1722)"
     id="layer5" />
  <g
     transform="translate(512,-1330.1722)"
     id="layer7" />
  <g
     transform="translate(512,-1330.1722)"
     id="layer2" />
  <g
     transform="translate(512,-1330.1722)"
     id="layer8" />
  <g
     transform="translate(512,-2282.5344)"
     id="layer1" />
  <g
     transform="translate(512,-1330.1722)"
     id="layer11">
    <path
       d="M -506.5,1337.7972 L -506.5,1349.6722 L -493.5,1349.6722 L -493.5,1337.7972 L -506.5,1337.7972 z M -503,1343.1722 L -497,1343.1722 C -495.892,1343.1722 -495,1344.0642 -495,1345.1722 C -495,1346.2802 -495.892,1347.1722 -497,1347.1722 L -503,1347.1722 C -504.108,1347.1722 -505,1346.2802 -505,1345.1722 C -505,1344.0642 -504.108,1343.1722 -503,1343.1722 z"
       id="rect7601"
       style="opacity:0.5;fill:#bebebe;fill-opacity:1;stroke:none;stroke-width:1;marker:none;visibility:visible;display:inline;overflow:visible;enable-background:accumulate" />
    <rect
       width="24"
       height="24"
       x="-512"
       y="1330.1722"
       id="rect7591"
       style="opacity:0;fill:#ffffff;fill-opacity:1;stroke:none;display:inline" />
    <path
       d="M -507.65625,1334.1875 C -508.93052,1334.1875 -510,1335.2257 -510,1336.5 L -510,1351.75 C -510,1353.0243 -508.93052,1354.0937 -507.65625,1354.0938 L -492.34375,1354.0938 C -491.06948,1354.0938 -490,1353.0243 -490,1351.75 L -490,1336.5 C -490,1335.2257 -491.06948,1334.1875 -492.34375,1334.1875 L -507.65625,1334.1875 z M -507.65625,1336.1875 L -492.34375,1336.1875 C -492.14286,1336.1875 -492,1336.2991 -492,1336.5 L -492,1351.75 C -492,1351.9508 -492.14289,1352.0938 -492.34375,1352.0938 L -507.65625,1352.0938 C -507.85714,1352.0937 -508,1351.9509 -508,1351.75 L -508,1336.5 C -508,1336.2992 -507.85711,1336.1875 -507.65625,1336.1875 z"
       id="rect7595"
       style="fill:#bebebe;fill-opacity:1;stroke:none;stroke-width:2;stroke-linecap:round;stroke-linejoin:miter;marker:none;stroke-miterlimit:4;stroke-dasharray:none;stroke-dashoffset:0;stroke-opacity:1;visibility:visible;display:inline;overflow:visible;enable-background:accumulate" />
    <path
       d="M -506.5,1337.1875 C -506.50076,1337.1875 -506.68684,1337.2185 -506.6875,1337.2188 C -506.68816,1337.219 -506.84325,1337.312 -506.84375,1337.3125 C -506.84425,1337.313 -506.96847,1337.4681 -506.96875,1337.4688 C -506.96903,1337.4694 -507,1337.6867 -507,1337.6875 L -507,1349.6562 C -507,1349.657 -506.96903,1349.8743 -506.96875,1349.875 C -506.96847,1349.8757 -506.84425,1350.0308 -506.84375,1350.0312 C -506.84325,1350.0317 -506.68816,1350.1247 -506.6875,1350.125 C -506.68684,1350.1253 -506.50077,1350.1875 -506.5,1350.1875 L -493.5,1350.1875 C -493.49924,1350.1875 -493.31316,1350.1253 -493.3125,1350.125 C -493.31184,1350.1247 -493.15675,1350.0317 -493.15625,1350.0312 C -493.15575,1350.0308 -493.03153,1349.8757 -493.03125,1349.875 C -493.03097,1349.8743 -493,1349.657 -493,1349.6562 L -493,1337.6875 C -493,1337.6867 -493.03097,1337.4694 -493.03125,1337.4688 C -493.03153,1337.4681 -493.15575,1337.313 -493.15625,1337.3125 C -493.15675,1337.312 -493.31184,1337.219 -493.3125,1337.2188 C -493.31316,1337.2185 -493.49923,1337.1875 -493.5,1337.1875 L -506.5,1337.1875 z M -506,1338.1875 L -494,1338.1875 L -494,1349.1875 L -506,1349.1875 L -506,1338.1875 z"
       id="rect7597"
       style="fill:#bebebe;fill-opacity:1;stroke:none;stroke-width:1;stroke-linecap:round;stroke-linejoin:miter;marker:none;stroke-miterlimit:4;stroke-dasharray:none;stroke-dashoffset:0;stroke-opacity:1;visibility:visible;display:inline;overflow:visible;enable-background:accumulate" />
    <path
       d="M -504,1342.1875 C -505.6447,1342.1875 -507,1343.5428 -507,1345.1875 C -507,1346.8322 -505.6447,1348.1875 -504,1348.1875 L -496,1348.1875 C -494.3553,1348.1875 -493,1346.8322 -493,1345.1875 C -493,1343.5428 -494.3553,1342.1875 -496,1342.1875 L -504,1342.1875 z M -504,1344.1875 L -496,1344.1875 C -495.4287,1344.1875 -495,1344.6162 -495,1345.1875 C -495,1345.7588 -495.4287,1346.1875 -496,1346.1875 L -504,1346.1875 C -504.5713,1346.1875 -505,1345.7588 -505,1345.1875 C -505,1344.6162 -504.5713,1344.1875 -504,1344.1875 z"
       id="rect7599"
       style="fill:#bebebe;fill-opacity:1;stroke:none;stroke-width:1.99999988;stroke-linecap:round;stroke-linejoin:miter;marker:none;stroke-miterlimit:4;stroke-dasharray:none;stroke-dashoffset:0;stroke-opacity:1;visibility:visible;display:inline;overflow:visible;enable-background:accumulate" />
  </g>
  <g
     transform="translate(512,-1330.1722)"
     id="layer4" />
  <g
     transform="translate(512,-1330.1722)"
     id="layer12" />
  <g
     transform="translate(512,-1330.1722)"
     id="layer9" />
  <g
     transform="translate(512,-1330.1722)"
     id="layer10" />
  <g
     transform="translate(512,-1330.1722)"
     id="layer6" />
</svg>
