<?xml version="1.0" encoding="UTF-8" standalone="no"?>
<!-- Created with Inkscape (http://www.inkscape.org/) -->
<svg
   xmlns:svg="http://www.w3.org/2000/svg"
   xmlns="http://www.w3.org/2000/svg"
   version="1.0"
   width="24"
   height="24"
   id="svg7384">
  <title
     id="title9167">Moblin Icon Theme</title>
  <defs
     id="defs7386" />
  <g
     transform="translate(618,-1500)"
     id="layer3" />
  <g
     transform="translate(618,-1500)"
     id="layer5" />
  <g
     transform="translate(618,-1500)"
     id="layer7" />
  <g
     transform="translate(618,-1500)"
     id="layer2" />
  <g
     transform="translate(618,-1500)"
     id="layer8" />
  <g
     transform="translate(618,-2452.3622)"
     id="layer1" />
  <g
     transform="translate(618,-1500)"
     id="layer11">
    <rect
       width="24"
       height="24"
       x="-618"
       y="1500"
       id="rect6676"
       style="opacity:0;fill:#ffffff;fill-opacity:1;stroke:none;display:inline" />
    <path
       d="M -606.99701,1500 C -613.06954,1500 -617.99222,1504.929 -617.99222,1510.9999 C -617.99222,1517.0709 -613.06954,1522 -606.99701,1522 C -600.92447,1522 -596.0018,1517.0709 -596.0018,1510.9999 C -596.0018,1504.929 -600.92447,1500 -606.99701,1500 L -606.99701,1500 z"
       id="path3543-8-1-4"
       style="fill:#bebebe;fill-opacity:1;stroke:none;display:inline" />
    <rect
       width="1.9999954"
       height="1.9999954"
       x="-608"
       y="1506"
       id="rect5835-1"
       style="fill:#ffffff;fill-opacity:1;stroke:none;display:inline" />
    <rect
       width="1.9999954"
       height="6.1249886"
       x="-608"
       y="1510"
       id="rect5837-0"
       style="fill:#ffffff;fill-opacity:1;stroke:none;display:inline" />
  </g>
  <g
     transform="translate(618,-1500)"
     id="layer4" />
  <g
     transform="translate(618,-1500)"
     id="layer9" />
  <g
     transform="translate(618,-1500)"
     id="layer10" />
  <g
     transform="translate(618,-1500)"
     id="layer6" />
</svg>
