<?xml version="1.0" encoding="UTF-8" standalone="no"?>
<!-- Created with Inkscape (http://www.inkscape.org/) -->
<svg
   xmlns:svg="http://www.w3.org/2000/svg"
   xmlns="http://www.w3.org/2000/svg"
   version="1.0"
   width="24.038967"
   height="24.036583"
   id="svg7384">
  <title
     id="title9167">Moblin Icon Theme</title>
  <defs
     id="defs7386" />
  <g
     transform="translate(462.00029,-1529.9634)"
     id="layer3" />
  <g
     transform="translate(462.00029,-1529.9634)"
     id="layer5" />
  <g
     transform="translate(462.00029,-1529.9634)"
     id="layer7" />
  <g
     transform="translate(462.00029,-1529.9634)"
     id="layer2" />
  <g
     transform="translate(462.00029,-1529.9634)"
     id="layer8" />
  <g
     transform="translate(462.00029,-2482.3256)"
     id="layer1" />
  <g
     transform="translate(462.00029,-1529.9634)"
     id="layer11">
    <rect
       width="24"
       height="24"
       x="438"
       y="1530"
       transform="scale(-1,1)"
       id="rect10381-4"
       style="opacity:0;fill:#ffffff;fill-opacity:1;stroke:none;display:inline" />
    <path
       d="M -459.15625,1532 C -460.7213,1532 -461.99998,1533.2788 -462,1534.8438 L -462,1551.1562 C -462,1552.7213 -460.7213,1554 -459.15625,1554 L -444.84375,1554 C -443.2787,1554 -441.99998,1552.7213 -442,1551.1562 L -442,1544 C -441.9949,1543.6394 -442.18438,1543.3039 -442.49587,1543.1221 C -442.80737,1542.9403 -443.19263,1542.9403 -443.50413,1543.1221 C -443.81562,1543.3039 -444.0051,1543.6394 -444,1544 L -444,1551.1562 C -444,1551.6478 -444.35218,1552 -444.84375,1552 L -459.15625,1552 C -459.64783,1552 -460,1551.6478 -460,1551.1562 L -460,1534.8438 C -459.99999,1534.3521 -459.64782,1534 -459.15625,1534 L -452.03125,1534 C -451.67061,1534.0051 -451.33517,1533.8156 -451.15336,1533.5041 C -450.97156,1533.1926 -450.97156,1532.8074 -451.15336,1532.4959 C -451.33517,1532.1844 -451.67061,1531.9949 -452.03125,1532 L -459.15625,1532 z"
       id="rect10405-2"
       style="fill:#bebebe;fill-opacity:1;stroke:none;stroke-width:2;stroke-linecap:round;marker:none;stroke-miterlimit:4;stroke-dasharray:none;stroke-opacity:1;visibility:visible;display:inline;overflow:visible;enable-background:accumulate" />
    <path
       d="M -456.78125,1536 C -457.44137,1536 -457.99997,1536.5587 -458,1537.2188 L -458,1540.7812 C -458,1541.4413 -457.44136,1542 -456.78125,1542 L -450.0625,1542 L -450.0625,1541 L -456.78125,1541 C -456.90461,1541 -457,1540.9046 -457,1540.7812 L -457,1537.2188 C -457,1537.0953 -456.90461,1537 -456.78125,1537 L -452.03125,1537 L -452.03125,1536 L -456.78125,1536 z"
       id="rect10452-1"
       style="fill:#bebebe;fill-opacity:1;stroke:none;stroke-width:1;marker:none;stroke-miterlimit:4;stroke-opacity:1;visibility:visible;display:inline;overflow:visible;enable-background:accumulate" />
    <path
       d="M -456.78125,1544 C -457.44134,1544 -458,1544.5586 -458,1545.2188 L -458,1548.7812 C -458,1549.4413 -457.44133,1550 -456.78125,1550 L -447.21875,1550 C -446.55866,1550 -446,1549.4414 -446,1548.7812 L -446,1545.2188 C -446,1544.5587 -446.55866,1544 -447.21875,1544 L -456.78125,1544 z M -456.78125,1545 L -447.21875,1545 C -447.09534,1545 -447,1545.0954 -447,1545.2188 L -447,1548.7812 C -447,1548.9047 -447.09536,1549 -447.21875,1549 L -456.78125,1549 C -456.90461,1549 -457,1548.9046 -457,1548.7812 L -457,1545.2188 C -457,1545.0953 -456.90464,1545 -456.78125,1545 z"
       id="rect10456-7"
       style="fill:#bebebe;fill-opacity:1;stroke:none;stroke-width:1;marker:none;stroke-miterlimit:4;stroke-dasharray:none;stroke-opacity:1;visibility:visible;display:inline;overflow:visible;enable-background:accumulate" />
    <path
       d="M -454,1537.9688 L -454,1538.4688 L -454,1539.5 C -454.00255,1539.6803 -453.90781,1539.848 -453.75206,1539.9389 C -453.59631,1540.0298 -453.40369,1540.0298 -453.24794,1539.9389 C -453.09219,1539.848 -452.99745,1539.6803 -453,1539.5 L -453,1538.9688 L -451.4375,1538.9688 C -451.25718,1538.9714 -451.08946,1538.8766 -450.99856,1538.7209 C -450.90765,1538.5651 -450.90765,1538.3725 -450.99856,1538.2167 C -451.08946,1538.061 -451.25718,1537.9662 -451.4375,1537.9688 L -453.5,1537.9688 L -454,1537.9688 z"
       id="path10505-0"
       style="fill:#bebebe;fill-opacity:1;stroke:none;stroke-width:1;stroke-linecap:round;stroke-linejoin:miter;marker:none;stroke-miterlimit:4;stroke-dasharray:none;stroke-dashoffset:0;stroke-opacity:1;visibility:visible;display:inline;overflow:visible;enable-background:accumulate" />
    <path
       d="M -454,1546 L -454,1546.5 L -454,1547.5312 C -454.00255,1547.7115 -453.90781,1547.8792 -453.75206,1547.9701 C -453.59631,1548.061 -453.40369,1548.061 -453.24794,1547.9701 C -453.09219,1547.8792 -452.99745,1547.7115 -453,1547.5312 L -453,1547 L -450.96875,1547 L -450.96875,1547.4688 C -450.9713,1547.6491 -450.87656,1547.8168 -450.72081,1547.9077 C -450.56506,1547.9986 -450.37244,1547.9986 -450.21669,1547.9077 C -450.06094,1547.8168 -449.9662,1547.6491 -449.96875,1547.4688 L -449.96875,1546.5 L -449.96875,1546 L -450.46875,1546 L -453.5,1546 L -454,1546 z"
       id="path10544-6"
       style="fill:#bebebe;fill-opacity:1;stroke:none;stroke-width:1;stroke-linecap:round;stroke-linejoin:miter;marker:none;stroke-miterlimit:4;stroke-dasharray:none;stroke-dashoffset:0;stroke-opacity:1;visibility:visible;display:inline;overflow:visible;enable-background:accumulate" />
    <g
       transform="matrix(0.5596205,0,0,0.5596205,-342.56421,1418.6235)"
       id="g8286">
      <path
         d="M 958,213.5 A 3.5,3.5 0 1 1 951,213.5 A 3.5,3.5 0 1 1 958,213.5 z"
         transform="matrix(1.0339404,0,0,1.0339404,-1168.1532,-11.002315)"
         id="path6247-42"
         style="fill:none;stroke:#bebebe;stroke-width:3.45653415;stroke-linecap:round;stroke-linejoin:round;marker:none;stroke-miterlimit:4;stroke-dasharray:none;stroke-dashoffset:0;stroke-opacity:1;visibility:visible;display:inline;overflow:visible;enable-background:accumulate" />
      <path
         d="M 956.11378,216.60575 A 3.5,3.5 0 1 1 957.99304,213.72066"
         transform="matrix(2.5714345,0,0,2.5714345,-2635.6915,-339.25723)"
         id="path6307-50"
         style="fill:none;stroke:#bebebe;stroke-width:1.38982737;stroke-linecap:round;stroke-linejoin:round;marker:none;stroke-miterlimit:4;stroke-dasharray:none;stroke-dashoffset:0;stroke-opacity:1;visibility:visible;display:inline;overflow:visible;enable-background:accumulate" />
      <path
         d="M 957.99225,213.26718 A 3.5,3.5 0 1 1 951.04,212.97235"
         transform="matrix(0.7115448,0,0,0.6537983,-853.9435,71.725587)"
         id="path6309-0"
         style="fill:none;stroke:#bebebe;stroke-width:5.23978424;stroke-linecap:round;stroke-linejoin:round;marker:none;stroke-miterlimit:4;stroke-dasharray:none;stroke-dashoffset:0;stroke-opacity:1;visibility:visible;display:inline;overflow:visible;enable-background:accumulate" />
    </g>
  </g>
  <g
     transform="translate(462.00029,-1529.9634)"
     id="layer4" />
  <g
     transform="translate(462.00029,-1529.9634)"
     id="layer9" />
  <g
     transform="translate(462.00029,-1529.9634)"
     id="layer10" />
  <g
     transform="translate(462.00029,-1529.9634)"
     id="layer6" />
</svg>
