<?xml version="1.0" encoding="UTF-8" standalone="no"?>
<!-- Created with Inkscape (http://www.inkscape.org/) -->
<svg
   xmlns:svg="http://www.w3.org/2000/svg"
   xmlns="http://www.w3.org/2000/svg"
   version="1.0"
   width="24.00001"
   height="24"
   id="svg7384">
  <title
     id="title9167">Moblin Icon Theme</title>
  <defs
     id="defs7386" />
  <g
     transform="translate(616.00001,-1420.1723)"
     id="layer3" />
  <g
     transform="translate(616.00001,-1420.1723)"
     id="layer5" />
  <g
     transform="translate(616.00001,-1420.1723)"
     id="layer7" />
  <g
     transform="translate(616.00001,-1420.1723)"
     id="layer2" />
  <g
     transform="translate(616.00001,-1420.1723)"
     id="layer8" />
  <g
     transform="translate(616.00001,-2372.5345)"
     id="layer1" />
  <g
     transform="translate(616.00001,-1420.1723)"
     id="layer11">
    <rect
       width="24"
       height="24"
       x="592"
       y="1420.1722"
       transform="scale(-1,1)"
       id="rect6102-6"
       style="opacity:0;fill:#f5f5f5;fill-opacity:1;stroke:none;display:inline" />
    <path
       d="M -603.3125,1420.1875 L -603.59375,1420.9375 L -604.59375,1423.7812 C -605.6283,1423.8609 -606.63327,1424.1389 -607.59375,1424.5938 L -609.84375,1422.625 L -610.46875,1422.0938 L -611.09375,1422.5625 C -611.53692,1422.8918 -612.01736,1423.2676 -612.46875,1423.7188 C -612.89748,1424.1473 -613.20086,1424.5593 -613.46875,1424.9062 L -613.96875,1425.5625 L -613.4375,1426.1875 L -611.53125,1428.3438 C -612.03975,1429.3635 -612.32496,1430.4407 -612.40625,1431.5312 L -615.25,1432.5312 L -616,1432.7812 L -615.90625,1433.5938 C -615.78714,1434.6716 -615.54627,1435.7707 -615.125,1436.8125 L -614.8125,1437.5625 L -614,1437.4062 L -611.09375,1436.875 C -610.78969,1437.3745 -610.51913,1437.8873 -610.0625,1438.3438 C -609.63802,1438.7679 -609.17829,1439.0542 -608.71875,1439.3438 L -609.25,1442.2188 L -609.40625,1443.0312 L -608.65625,1443.3438 C -607.62487,1443.7779 -606.53423,1444.0214 -605.46875,1444.1562 L -604.6875,1444.25 L -604.40625,1443.5 L -603.40625,1440.7188 C -602.2307,1440.6462 -601.08047,1440.3686 -600,1439.8125 L -597.625,1441.5625 L -597.03125,1442.0312 L -596.4375,1441.5625 C -596.12285,1441.3201 -595.85501,1441.1986 -595.4375,1440.7812 C -594.99669,1440.3406 -594.59362,1439.8684 -594.25,1439.4062 L -593.78125,1438.75 L -594.3125,1438.1562 L -596.28125,1435.9062 C -595.77962,1434.8577 -595.49065,1433.7595 -595.4375,1432.625 L -592.6875,1431.6875 L -591.90625,1431.4375 L -592,1430.625 C -592.12148,1429.7129 -592.4135,1428.8014 -592.75,1427.9062 L -592.59375,1427.625 L -593.0625,1427.125 L -593.8125,1427.625 L -593.96875,1426.8125 L -596.90625,1427.3438 C -597.18537,1426.9279 -597.43226,1426.505 -597.8125,1426.125 C -598.23443,1425.7033 -598.72261,1425.4224 -599.1875,1425.125 L -598.65625,1422.2188 L -598.5,1421.4062 L -599.25,1421.0938 C -600.30241,1420.6561 -601.43897,1420.4088 -602.53125,1420.2812 L -603.3125,1420.1875 z M -601.96875,1422.4375 C -601.56173,1422.5154 -601.17341,1422.625 -600.78125,1422.75 L -601.28125,1425.3438 L -601.4375,1426.0625 L -600.78125,1426.4375 C -600.20563,1426.7476 -599.69979,1427.0817 -599.25,1427.5312 C -598.83053,1427.9505 -598.48589,1428.4416 -598.1875,1428.9688 L -597.84375,1429.5938 L -597.125,1429.4375 L -594.5,1428.9375 C -594.3714,1429.3247 -594.30111,1429.7217 -594.21875,1430.125 L -596.71875,1430.9688 L -597.40625,1431.2188 L -597.375,1431.9375 C -597.32532,1433.1959 -597.6203,1434.4785 -598.28125,1435.5938 L -598.65625,1436.2188 L -598.1875,1436.75 L -596.375,1438.8125 C -596.54026,1439.0078 -596.70513,1439.2052 -596.875,1439.375 C -596.9373,1439.4373 -597.01411,1439.4594 -597.0625,1439.5 L -599.28125,1437.875 L -599.84375,1437.4688 L -600.40625,1437.8125 C -601.52496,1438.5191 -602.82954,1438.8455 -604.125,1438.8125 L -604.875,1438.8125 L -605.09375,1439.5 L -605.96875,1442 C -606.36541,1441.922 -606.74365,1441.8102 -607.125,1441.6875 L -606.625,1439.0938 L -606.5,1438.375 L -607.125,1438 C -607.69933,1437.6861 -608.225,1437.3684 -608.65625,1436.9375 C -609.11996,1436.4739 -609.45859,1435.9322 -609.78125,1435.3125 L -610.125,1434.6562 L -610.84375,1434.7812 L -613.46875,1435.2812 C -613.58437,1434.9007 -613.67844,1434.5187 -613.75,1434.125 L -611.1875,1433.2188 L -610.5,1433 L -610.5,1432.2812 C -610.50423,1431.0171 -610.20375,1429.7825 -609.53125,1428.7188 L -609.125,1428.0625 L -609.625,1427.5312 L -611.375,1425.5 C -611.27532,1425.3767 -611.16124,1425.2237 -611.0625,1425.125 C -610.90989,1424.9725 -610.70434,1424.831 -610.53125,1424.6875 L -608.46875,1426.4688 L -607.90625,1426.9688 L -607.28125,1426.5938 C -606.22016,1425.9655 -605.04657,1425.6726 -603.84375,1425.6875 L -603.125,1425.6875 L -602.875,1425 L -601.96875,1422.4375 z"
       id="path11062-3"
       style="fill:#bebebe;fill-opacity:1;stroke:none;stroke-width:1.99999952;stroke-linecap:round;stroke-linejoin:miter;marker:none;stroke-miterlimit:4.30000019;stroke-dasharray:none;stroke-dashoffset:0;stroke-opacity:1;visibility:visible;display:inline;overflow:visible;enable-background:accumulate" />
    <path
       d="M -607,1429.2035 C -607.554,1429.2035 -608,1429.6495 -608,1430.2035 L -608,1435.1723 C -608,1435.7263 -607.554,1436.1723 -607,1436.1723 L -601,1436.1723 C -600.446,1436.1723 -600,1435.7263 -600,1435.1723 L -600,1430.2035 C -600,1429.6495 -600.446,1429.2035 -601,1429.2035 L -607,1429.2035 z M -605.5625,1432.1411 C -605.27002,1432.1031 -604.9792,1432.3781 -605,1432.6723 L -605,1435.1723 L -606,1435.1723 L -606,1432.6723 C -606.0177,1432.4198 -605.81359,1432.1721 -605.5625,1432.1411 z M -603.5625,1432.1411 C -603.27002,1432.1031 -602.9792,1432.3781 -603,1432.6723 L -603,1435.1723 L -604,1435.1723 L -604,1432.6723 C -604.0177,1432.4198 -603.81359,1432.172 -603.5625,1432.1411 z"
       id="rect7128-6"
       style="fill:#bebebe;fill-opacity:1;stroke:none;stroke-width:1;marker:none;visibility:visible;display:inline;overflow:visible;enable-background:accumulate" />
  </g>
  <g
     transform="translate(616.00001,-1420.1723)"
     id="layer4" />
  <g
     transform="translate(616.00001,-1420.1723)"
     id="layer12" />
  <g
     transform="translate(616.00001,-1420.1723)"
     id="layer9" />
  <g
     transform="translate(616.00001,-1420.1723)"
     id="layer10" />
  <g
     transform="translate(616.00001,-1420.1723)"
     id="layer6" />
</svg>
