<?xml version="1.0" encoding="UTF-8" standalone="no"?>
<!-- Created with Inkscape (http://www.inkscape.org/) -->
<svg
   xmlns:svg="http://www.w3.org/2000/svg"
   xmlns="http://www.w3.org/2000/svg"
   version="1.0"
   width="24"
   height="24"
   id="svg7384">
  <title
     id="title9167">Moblin Icon Theme</title>
  <defs
     id="defs7386" />
  <g
     transform="translate(408,-1360.1723)"
     id="layer3" />
  <g
     transform="translate(408,-1360.1723)"
     id="layer5" />
  <g
     transform="translate(408,-1360.1723)"
     id="layer7" />
  <g
     transform="translate(408,-1360.1723)"
     id="layer2" />
  <g
     transform="translate(408,-1360.1723)"
     id="layer8" />
  <g
     transform="translate(408,-2312.5344)"
     id="layer1" />
  <g
     transform="translate(408,-1360.1723)"
     id="layer11">
    <rect
       width="24"
       height="24"
       x="384"
       y="1360.1722"
       transform="scale(-1,1)"
       id="rect7810"
       style="opacity:0;fill:#f5f5f5;fill-opacity:1;stroke:none;display:inline" />
    <path
       d="M -404.94791,1360.2035 C -406.58676,1360.2035 -407.91666,1361.5647 -407.91666,1363.2035 C -407.92176,1363.5641 -407.73228,1363.8995 -407.42079,1364.0813 C -407.10929,1364.2632 -406.72403,1364.2632 -406.41253,1364.0813 C -406.10104,1363.8995 -405.91156,1363.5641 -405.91666,1363.2035 C -405.91666,1362.6468 -405.50463,1362.2035 -404.94791,1362.2035 C -404.39115,1362.2036 -403.94791,1362.6468 -403.94791,1363.2035 C -403.95301,1363.5641 -403.76353,1363.8995 -403.45204,1364.0813 C -403.14054,1364.2632 -402.75528,1364.2632 -402.44378,1364.0813 C -402.13229,1363.8995 -401.94281,1363.5641 -401.94791,1363.2035 C -401.94791,1361.5647 -403.3091,1360.2036 -404.94791,1360.2035 z"
       id="path7812"
       style="fill:#bebebe;fill-opacity:1;stroke:none;stroke-width:2;stroke-linecap:round;stroke-linejoin:miter;marker:none;stroke-miterlimit:4;stroke-dasharray:none;stroke-dashoffset:0;stroke-opacity:1;visibility:visible;display:inline;overflow:visible;enable-background:new" />
    <path
       d="M -400.9939,1384.1808 C -399.35505,1384.1808 -398.02515,1382.8196 -398.02515,1381.1808 C -398.02005,1380.8202 -398.20953,1380.4847 -398.52102,1380.3029 C -398.83252,1380.1211 -399.21778,1380.1211 -399.52928,1380.3029 C -399.84077,1380.4847 -400.03025,1380.8202 -400.02515,1381.1808 C -400.02515,1381.7375 -400.43718,1382.1808 -400.9939,1382.1808 C -401.55066,1382.1807 -401.9939,1381.7375 -401.9939,1381.1808 C -401.9888,1380.8202 -402.17828,1380.4847 -402.48977,1380.3029 C -402.80127,1380.1211 -403.18653,1380.1211 -403.49803,1380.3029 C -403.80952,1380.4847 -403.999,1380.8202 -403.9939,1381.1808 C -403.9939,1382.8196 -402.63271,1384.1807 -400.9939,1384.1808 z"
       id="path7814"
       style="fill:#bebebe;fill-opacity:1;stroke:none;stroke-width:2;stroke-linecap:round;stroke-linejoin:miter;marker:none;stroke-miterlimit:4;stroke-dasharray:none;stroke-dashoffset:0;stroke-opacity:1;visibility:visible;display:inline;overflow:visible;enable-background:new" />
    <path
       d="M -402.96875,1362.2188 C -403.23945,1362.2187 -403.49864,1362.3283 -403.68709,1362.5227 C -403.87554,1362.717 -403.97717,1362.9794 -403.96875,1363.25 L -403.96875,1381.1875 C -403.97385,1381.5481 -403.78437,1381.8836 -403.47288,1382.0654 C -403.16138,1382.2472 -402.77612,1382.2472 -402.46462,1382.0654 C -402.15313,1381.8836 -401.96365,1381.5481 -401.96875,1381.1875 L -401.96875,1363.25 C -401.96033,1362.9794 -402.06196,1362.717 -402.25041,1362.5227 C -402.43886,1362.3283 -402.69805,1362.2187 -402.96875,1362.2188 z"
       id="path7816"
       style="fill:#bebebe;fill-opacity:1;stroke:none;stroke-width:2;stroke-linecap:round;stroke-linejoin:miter;marker:none;stroke-miterlimit:4;stroke-dasharray:none;stroke-dashoffset:0;stroke-opacity:1;visibility:visible;display:inline;overflow:visible;enable-background:new" />
    <path
       d="M -386.9939,1384.1808 C -385.35505,1384.1808 -384.02515,1382.8196 -384.02515,1381.1808 C -384.02005,1380.8202 -384.20953,1380.4847 -384.52102,1380.3029 C -384.83252,1380.1211 -385.21778,1380.1211 -385.52928,1380.3029 C -385.84077,1380.4847 -386.03025,1380.8202 -386.02515,1381.1808 C -386.02515,1381.7375 -386.43718,1382.1808 -386.9939,1382.1808 C -387.35454,1382.1757 -387.68998,1382.3652 -387.87179,1382.6767 C -388.05359,1382.9882 -388.05359,1383.3734 -387.87179,1383.6849 C -387.68998,1383.9964 -387.35454,1384.1859 -386.9939,1384.1808 z"
       id="path7818"
       style="fill:#bebebe;fill-opacity:1;stroke:none;stroke-width:2;stroke-linecap:round;stroke-linejoin:miter;marker:none;stroke-miterlimit:4;stroke-dasharray:none;stroke-dashoffset:0;stroke-opacity:1;visibility:visible;display:inline;overflow:visible;enable-background:new" />
    <path
       d="M -399.0625,1380.1875 C -399.61478,1380.2134 -400.04151,1380.6821 -400.01562,1381.2344 C -399.98974,1381.7867 -399.52103,1382.2134 -398.96875,1382.1875 L -385,1382.1875 C -384.63936,1382.1926 -384.30392,1382.0031 -384.12211,1381.6916 C -383.94031,1381.3801 -383.94031,1380.9949 -384.12211,1380.6834 C -384.30392,1380.3719 -384.63936,1380.1824 -385,1380.1875 L -398.96875,1380.1875 C -398.99998,1380.186 -399.03127,1380.186 -399.0625,1380.1875 z"
       id="path7820"
       style="fill:#bebebe;fill-opacity:1;stroke:none;stroke-width:2;stroke-linecap:round;stroke-linejoin:miter;marker:none;stroke-miterlimit:4;stroke-dasharray:none;stroke-dashoffset:0;stroke-opacity:1;visibility:visible;display:inline;overflow:visible;enable-background:new" />
    <path
       d="M -401.09375,1382.125 C -401.64603,1382.1509 -402.07276,1382.6196 -402.04687,1383.1719 C -402.02099,1383.7242 -401.55228,1384.1509 -401,1384.125 L -386.96875,1384.125 C -386.60811,1384.1301 -386.27267,1383.9406 -386.09086,1383.6291 C -385.90906,1383.3176 -385.90906,1382.9324 -386.09086,1382.6209 C -386.27267,1382.3094 -386.60811,1382.1199 -386.96875,1382.125 L -401,1382.125 C -401.03123,1382.1235 -401.06252,1382.1235 -401.09375,1382.125 z"
       id="path7823"
       style="fill:#bebebe;fill-opacity:1;stroke:none;stroke-width:2;stroke-linecap:round;stroke-linejoin:miter;marker:none;stroke-miterlimit:4;stroke-dasharray:none;stroke-dashoffset:0;stroke-opacity:1;visibility:visible;display:inline;overflow:visible;enable-background:new" />
    <path
       d="M -389.9939,1360.1638 C -388.35505,1360.1638 -387.02515,1361.525 -387.02515,1363.1638 C -387.02005,1363.5244 -387.20953,1363.8598 -387.52102,1364.0416 C -387.83252,1364.2235 -388.21778,1364.2235 -388.52928,1364.0416 C -388.84077,1363.8598 -389.03025,1363.5244 -389.02515,1363.1638 C -389.02515,1362.6071 -389.43718,1362.1638 -389.9939,1362.1638 C -390.35454,1362.1689 -390.68998,1361.9794 -390.87179,1361.6679 C -391.05359,1361.3564 -391.05359,1360.9711 -390.87179,1360.6596 C -390.68998,1360.3481 -390.35454,1360.1587 -389.9939,1360.1638 z"
       id="path7825"
       style="fill:#bebebe;fill-opacity:1;stroke:none;stroke-width:2;stroke-linecap:round;stroke-linejoin:miter;marker:none;stroke-miterlimit:4;stroke-dasharray:none;stroke-dashoffset:0;stroke-opacity:1;visibility:visible;display:inline;overflow:visible;enable-background:new" />
    <path
       d="M -388.15625,1362.1562 C -388.62188,1362.2605 -388.94899,1362.6792 -388.9375,1363.1562 L -388.9375,1381.1875 C -388.9426,1381.5481 -388.75312,1381.8836 -388.44163,1382.0654 C -388.13013,1382.2472 -387.74487,1382.2472 -387.43337,1382.0654 C -387.12188,1381.8836 -386.9324,1381.5481 -386.9375,1381.1875 L -386.9375,1363.1562 C -386.93006,1362.8483 -387.06486,1362.5542 -387.30293,1362.3589 C -387.54099,1362.1636 -387.85577,1362.0888 -388.15625,1362.1562 z"
       id="path7827"
       style="fill:#bebebe;fill-opacity:1;stroke:none;stroke-width:2;stroke-linecap:round;stroke-linejoin:miter;marker:none;stroke-miterlimit:4;stroke-dasharray:none;stroke-dashoffset:0;stroke-opacity:1;visibility:visible;display:inline;overflow:visible;enable-background:new" />
    <path
       d="M -405.28125,1360.2188 C -405.83353,1360.2792 -406.23228,1360.7759 -406.17187,1361.3282 C -406.11147,1361.8805 -405.61478,1362.2792 -405.0625,1362.2188 L -389.96875,1362.2188 C -389.60811,1362.2239 -389.27267,1362.0344 -389.09086,1361.7229 C -388.90906,1361.4114 -388.90906,1361.0262 -389.09086,1360.7147 C -389.27267,1360.4032 -389.60811,1360.2137 -389.96875,1360.2188 L -405.0625,1360.2188 C -405.1352,1360.2108 -405.20855,1360.2108 -405.28125,1360.2188 z"
       id="path7829"
       style="fill:#bebebe;fill-opacity:1;stroke:none;stroke-width:2;stroke-linecap:round;stroke-linejoin:miter;marker:none;stroke-miterlimit:4;stroke-dasharray:none;stroke-dashoffset:0;stroke-opacity:1;visibility:visible;display:inline;overflow:visible;enable-background:new" />
  </g>
  <g
     transform="translate(408,-1360.1723)"
     id="layer4" />
  <g
     transform="translate(408,-1360.1723)"
     id="layer12" />
  <g
     transform="translate(408,-1360.1723)"
     id="layer9" />
  <g
     transform="translate(408,-1360.1723)"
     id="layer10" />
  <g
     transform="translate(408,-1360.1723)"
     id="layer6" />
</svg>
