<?xml version="1.0" encoding="UTF-8" standalone="no"?>
<!-- Created with Inkscape (http://www.inkscape.org/) -->
<svg
   xmlns:svg="http://www.w3.org/2000/svg"
   xmlns="http://www.w3.org/2000/svg"
   version="1.0"
   width="24"
   height="24.014791"
   id="svg7384">
  <title
     id="title9167">Moblin Icon Theme</title>
  <defs
     id="defs7386" />
  <g
     transform="translate(617.99998,-899.9852)"
     id="layer3" />
  <g
     transform="translate(617.99998,-899.9852)"
     id="layer5" />
  <g
     transform="translate(617.99998,-899.9852)"
     id="layer7" />
  <g
     transform="translate(617.99998,-899.9852)"
     id="layer2" />
  <g
     transform="translate(617.99998,-899.9852)"
     id="layer8" />
  <g
     transform="translate(617.99998,-1852.3474)"
     id="layer1" />
  <g
     transform="translate(617.99998,-899.9852)"
     id="layer11">
    <rect
       width="24"
       height="24"
       x="594"
       y="900"
       transform="scale(-1,1)"
       id="rect5386"
       style="opacity:0;fill:#ffffff;fill-opacity:1;stroke:none;display:inline" />
    <path
       d="M -610.5,900 C -611.2511,900.04891 -611.9952,900.22282 -612.6875,900.46875 L -614.15625,901 L -613.0625,902.125 L -609.3125,905.875 L -612.125,908.6875 L -615.875,904.9375 L -617,903.84375 L -617.53125,905.3125 C -618.53353,908.13315 -617.90266,911.41007 -615.65625,913.65625 C -613.27603,916.03658 -609.79385,916.48157 -606.875,915.21875 L -601.96875,920.125 C -600.80116,921.29259 -598.85509,921.29259 -597.6875,920.125 C -596.52931,918.96681 -596.52931,917.03319 -597.6875,915.875 L -602.65625,910.90625 C -601.52327,908.02995 -602.0254,904.63091 -604.34375,902.3125 C -606.02827,900.6281 -608.28952,899.85625 -610.5,900 z M -610.3125,902 C -608.67346,901.91032 -607.04125,902.49008 -605.78125,903.75 C -603.8634,905.6679 -603.50927,908.54513 -604.71875,910.8125 L -605.1875,911.6875 L -604.3125,912.15625 C -604.21265,912.20977 -604.1612,912.2763 -604.09375,912.34375 L -599.125,917.3125 C -598.71625,917.72125 -598.71625,918.27875 -599.125,918.6875 C -599.52435,919.08685 -600.1319,919.08685 -600.53125,918.6875 L -605.46875,913.75 C -605.50033,913.71842 -605.54972,913.66474 -605.625,913.53125 L -606.125,912.65625 L -607,913.15625 C -609.29788,914.49194 -612.24357,914.19403 -614.21875,912.21875 C -615.42095,911.01667 -615.80495,909.46603 -615.78125,907.90625 L -613.5625,910.125 C -612.77719,910.91001 -611.47266,910.91047 -610.6875,910.125 L -607.875,907.28125 C -607.10852,906.51477 -607.10855,905.20399 -607.875,904.4375 L -610.3125,902 z"
       id="path5394"
       style="fill:#bebebe;fill-opacity:1;stroke:none;stroke-width:2.00000048;stroke-linecap:round;stroke-linejoin:miter;marker:none;stroke-miterlimit:4;stroke-dasharray:none;stroke-dashoffset:0;stroke-opacity:1;visibility:visible;display:inline;overflow:visible;enable-background:accumulate" />
  </g>
  <g
     transform="translate(617.99998,-899.9852)"
     id="layer4" />
  <g
     transform="translate(617.99998,-899.9852)"
     id="layer12" />
  <g
     transform="translate(617.99998,-899.9852)"
     id="layer9" />
  <g
     transform="translate(617.99998,-899.9852)"
     id="layer10" />
  <g
     transform="translate(617.99998,-899.9852)"
     id="layer6" />
</svg>
