<?xml version="1.0" encoding="UTF-8" standalone="no"?>
<!-- Created with Inkscape (http://www.inkscape.org/) -->
<svg
   xmlns:svg="http://www.w3.org/2000/svg"
   xmlns="http://www.w3.org/2000/svg"
   version="1.0"
   width="24.044231"
   height="24.060249"
   id="svg7384">
  <title
     id="title9167">Moblin Icon Theme</title>
  <defs
     id="defs7386" />
  <g
     transform="translate(592,-1530)"
     id="layer3" />
  <g
     transform="translate(592,-1530)"
     id="layer5" />
  <g
     transform="translate(592,-1530)"
     id="layer7" />
  <g
     transform="translate(592,-1530)"
     id="layer2" />
  <g
     transform="translate(592,-1530)"
     id="layer8" />
  <g
     transform="translate(592,-2482.3622)"
     id="layer1" />
  <g
     transform="translate(592,-1530)"
     id="layer11">
    <rect
       width="24"
       height="24"
       x="-592"
       y="1530"
       id="rect7892"
       style="opacity:0.01000001;fill:#f0f0f0;fill-opacity:1;stroke:none;display:inline" />
    <g
       transform="matrix(0.8309493,0,0,0.6959009,-288.50321,1271.363)"
       id="g7894">
      <path
         d="M -25.809396,202.41983 A 22.98097,22.98097 0 0 1 -48.790367,179.43886"
         transform="matrix(-0.217571,0,0,-0.2434279,-350.61537,426.68042)"
         id="path7896"
         style="fill:none;stroke:#bebebe;stroke-width:11.42834663;stroke-linecap:round;stroke-miterlimit:4;stroke-dasharray:none;stroke-dashoffset:0;stroke-opacity:1;display:inline" />
      <path
         d="M -25.809396,202.41983 A 22.98097,22.98097 0 0 1 -48.790367,179.43886"
         transform="matrix(-0.1087858,0,0,0.1087858,-345.3077,364.0073)"
         id="path7898"
         style="fill:none;stroke:#bebebe;stroke-width:24.17668724;stroke-linecap:round;stroke-miterlimit:4;stroke-dasharray:none;stroke-dashoffset:0;stroke-opacity:1;display:inline" />
      <path
         d="M -25.809396,202.41983 A 22.98097,22.98097 0 0 1 -48.790367,179.43886"
         transform="matrix(-8.70286e-2,0,0,-8.70286e-2,-350.24616,399.61631)"
         id="path7900"
         style="fill:none;stroke:#bebebe;stroke-width:30.22087479;stroke-linecap:round;stroke-miterlimit:4;stroke-dasharray:none;stroke-dashoffset:0;stroke-opacity:1;display:inline" />
      <path
         d="M -560.03125,1096.385 L -547.9375,1096.385"
         transform="translate(203,-719)"
         id="path7902"
         style="fill:none;stroke:#bebebe;stroke-width:2.63008046;stroke-linecap:round;stroke-linejoin:miter;marker:none;stroke-miterlimit:4;stroke-dasharray:none;stroke-dashoffset:0;stroke-opacity:1;visibility:visible;display:inline;overflow:visible;enable-background:accumulate" />
      <path
         d="M -557,1101.0313 L -551,1101.0313"
         transform="translate(203,-719)"
         id="path7904"
         style="fill:none;stroke:#bebebe;stroke-width:2.63008046;stroke-linecap:round;stroke-linejoin:miter;marker:none;stroke-miterlimit:4;stroke-dasharray:none;stroke-dashoffset:0;stroke-opacity:1;visibility:visible;display:inline;overflow:visible;enable-background:accumulate" />
      <path
         d="M -549,1102.9688 L -549,1104.7813"
         transform="translate(203,-719)"
         id="path7906"
         style="fill:none;stroke:#bebebe;stroke-width:2.63008046;stroke-linecap:round;stroke-linejoin:miter;marker:none;stroke-miterlimit:4;stroke-dasharray:none;stroke-dashoffset:0;stroke-opacity:1;visibility:visible;display:inline;overflow:visible;enable-background:accumulate" />
      <path
         d="M -548.96875,1105 L -545.0625,1105"
         transform="translate(203,-719)"
         id="path7908"
         style="fill:none;stroke:#bebebe;stroke-width:2.63008046;stroke-linecap:round;stroke-linejoin:miter;marker:none;stroke-miterlimit:4;stroke-dasharray:none;stroke-dashoffset:0;stroke-opacity:1;visibility:visible;display:inline;overflow:visible;enable-background:accumulate" />
      <path
         d="M -542.96875,1103 L -542.96875,1101.9375"
         transform="translate(203,-719)"
         id="path7910"
         style="fill:none;stroke:#bebebe;stroke-width:2.63008046;stroke-linecap:round;stroke-linejoin:miter;marker:none;stroke-miterlimit:4;stroke-dasharray:none;stroke-dashoffset:0;stroke-opacity:1;visibility:visible;display:inline;overflow:visible;enable-background:accumulate" />
      <path
         d="M -25.809396,202.41983 A 22.98097,22.98097 0 0 1 -48.790367,179.43886"
         transform="matrix(0.217571,0,0,-0.2434279,-351.35338,426.68042)"
         id="path7912"
         style="fill:none;stroke:#bebebe;stroke-width:11.42834663;stroke-linecap:round;stroke-miterlimit:4;stroke-dasharray:none;stroke-dashoffset:0;stroke-opacity:1;display:inline" />
      <path
         d="M -25.809396,202.41983 A 22.98097,22.98097 0 0 1 -48.790367,179.43886"
         transform="matrix(0.1087858,0,0,0.1087858,-356.66105,364.0073)"
         id="path7914"
         style="fill:none;stroke:#bebebe;stroke-width:24.17668724;stroke-linecap:round;stroke-miterlimit:4;stroke-dasharray:none;stroke-dashoffset:0;stroke-opacity:1;display:inline" />
      <path
         d="M -25.809396,202.41983 A 22.98097,22.98097 0 0 1 -48.790367,179.43886"
         transform="matrix(8.70286e-2,0,0,-8.70286e-2,-351.72259,399.61631)"
         id="path7916"
         style="fill:none;stroke:#bebebe;stroke-width:30.22087479;stroke-linecap:round;stroke-miterlimit:4;stroke-dasharray:none;stroke-dashoffset:0;stroke-opacity:1;display:inline" />
      <path
         d="M -355.96875,383.9688 L -355.96875,385.7813"
         id="path7918"
         style="fill:none;stroke:#bebebe;stroke-width:2.63008046;stroke-linecap:round;stroke-linejoin:miter;marker:none;stroke-miterlimit:4;stroke-dasharray:none;stroke-dashoffset:0;stroke-opacity:1;visibility:visible;display:inline;overflow:visible;enable-background:accumulate" />
      <path
         d="M -356,386 L -359.90625,386"
         id="path7920"
         style="fill:none;stroke:#bebebe;stroke-width:2.63008046;stroke-linecap:round;stroke-linejoin:miter;marker:none;stroke-miterlimit:4;stroke-dasharray:none;stroke-dashoffset:0;stroke-opacity:1;visibility:visible;display:inline;overflow:visible;enable-background:accumulate" />
      <path
         d="M -362,384 L -362,382.9375"
         id="path7922"
         style="fill:none;stroke:#bebebe;stroke-width:2.63008046;stroke-linecap:round;stroke-linejoin:miter;marker:none;stroke-miterlimit:4;stroke-dasharray:none;stroke-dashoffset:0;stroke-opacity:1;visibility:visible;display:inline;overflow:visible;enable-background:accumulate" />
    </g>
    <path
       d="M -585.65625,1539.9375 C -586.02082,1540.0183 -586.31002,1540.2954 -586.40625,1540.6562 L -588,1545.8125 L -588.03125,1545.9688 L -588.03125,1546.125 L -588,1548.0312 L -587.96875,1549.0312 L -587,1549.0312 L -573,1549.0312 L -572,1549.0312 L -572,1548.0312 L -572,1545.9688 L -572,1545.8438 L -572.03125,1545.6875 L -573.5625,1540.6875 C -573.65144,1540.3266 -573.93321,1540.0448 -574.2941,1539.9558 C -574.65499,1539.8668 -575.03547,1539.9853 -575.28201,1540.2635 C -575.52855,1540.5417 -575.60047,1540.9336 -575.46875,1541.2812 L -574,1546.1875 L -574,1547.0312 L -586.03125,1547.0312 L -586.03125,1546.1875 L -584.5,1541.25 C -584.37804,1540.9076 -584.45143,1540.526 -584.69168,1540.2533 C -584.93193,1539.9806 -585.30123,1539.8597 -585.65625,1539.9375 z"
       id="path7924"
       style="fill:#bebebe;fill-opacity:1;stroke:none;stroke-width:2;stroke-linecap:round;stroke-linejoin:miter;marker:none;stroke-miterlimit:4;stroke-dasharray:none;stroke-dashoffset:0;stroke-opacity:1;visibility:visible;display:inline;overflow:visible;enable-background:accumulate" />
    <path
       d="M -579.98635,1539.0127 C -582.18889,1539.0127 -583.98831,1540.8121 -583.98828,1543.0146 C -583.98828,1545.2172 -582.18888,1547.0165 -579.98635,1547.0165 C -577.78382,1547.0165 -575.98439,1545.2172 -575.98443,1543.0146 C -575.98443,1540.8121 -577.78383,1539.0127 -579.98635,1539.0127 z M -579.98635,1539.9956 C -578.32488,1539.9956 -577.00246,1541.3532 -577.00246,1543.0146 C -577.00244,1544.676 -578.32489,1545.9986 -579.98635,1545.9986 C -581.64783,1545.9984 -583.00535,1544.676 -583.00535,1543.0146 C -583.00537,1541.3532 -581.64782,1539.9956 -579.98635,1539.9956 z"
       id="path7926"
       style="fill:#bebebe;fill-opacity:1;stroke:none;stroke-width:0.8901968;stroke-linecap:round;stroke-linejoin:miter;marker:none;stroke-miterlimit:4;stroke-dasharray:none;stroke-dashoffset:0;stroke-opacity:1;visibility:visible;display:inline;overflow:visible;enable-background:accumulate" />
    <path
       d="M -589.9375,1547 C -591.06181,1547 -592,1547.9382 -592,1549.0625 L -592,1552 C -592,1553.1243 -591.06176,1554.0624 -589.9375,1554.0625 L -570.03125,1554.0625 C -568.90694,1554.0625 -567.96879,1553.1243 -567.96875,1552 L -567.96875,1549.0625 C -567.96875,1547.9382 -568.90694,1547 -570.03125,1547 L -589.9375,1547 z M -589.9375,1549 L -570.03125,1549 C -569.98037,1549 -569.96875,1549.0116 -569.96875,1549.0625 L -569.96875,1552 C -569.96875,1552.0508 -569.98035,1552.0625 -570.03125,1552.0625 L -589.9375,1552.0625 C -589.98847,1552.0625 -590,1552.0509 -590,1552 L -590,1549.0625 C -590,1549.0116 -589.9884,1549 -589.9375,1549 z"
       id="rect7928"
       style="fill:#bebebe;fill-opacity:1;stroke:none;stroke-width:2;stroke-linecap:round;stroke-linejoin:miter;marker:none;stroke-miterlimit:4;stroke-dasharray:none;stroke-dashoffset:0;stroke-opacity:1;visibility:visible;display:inline;overflow:visible;enable-background:accumulate" />
    <rect
       width="0.96875"
       height="1"
       x="-587.96875"
       y="1550"
       id="rect7951"
       style="fill:#bebebe;fill-opacity:1;stroke:none;stroke-width:2;stroke-linecap:round;stroke-linejoin:miter;marker:none;stroke-miterlimit:4;stroke-dasharray:none;stroke-dashoffset:0;stroke-opacity:1;visibility:visible;display:inline;overflow:visible;enable-background:accumulate" />
    <rect
       width="0.96875"
       height="1"
       x="-585.96875"
       y="1550"
       id="rect7953"
       style="fill:#bebebe;fill-opacity:1;stroke:none;stroke-width:2;marker:none;visibility:visible;display:inline;overflow:visible;enable-background:accumulate" />
    <rect
       width="0.96875"
       height="1"
       x="-583.96875"
       y="1550"
       id="rect7955"
       style="fill:#bebebe;fill-opacity:1;stroke:none;stroke-width:2;marker:none;visibility:visible;display:inline;overflow:visible;enable-background:accumulate" />
  </g>
  <g
     transform="translate(592,-1530)"
     id="layer4" />
  <g
     transform="translate(592,-1530)"
     id="layer9" />
  <g
     transform="translate(592,-1530)"
     id="layer10" />
  <g
     transform="translate(592,-1530)"
     id="layer6" />
</svg>
