<?xml version="1.0" encoding="UTF-8" standalone="no"?>
<!-- Created with Inkscape (http://www.inkscape.org/) -->
<svg
   xmlns:svg="http://www.w3.org/2000/svg"
   xmlns="http://www.w3.org/2000/svg"
   version="1.0"
   width="24.019949"
   height="24"
   id="svg7384">
  <title
     id="title9167">Moblin Icon Theme</title>
  <defs
     id="defs7386" />
  <g
     transform="translate(590,-1360.1722)"
     id="layer3" />
  <g
     transform="translate(590,-1360.1722)"
     id="layer5" />
  <g
     transform="translate(590,-1360.1722)"
     id="layer7" />
  <g
     transform="translate(590,-1360.1722)"
     id="layer2" />
  <g
     transform="translate(590,-1360.1722)"
     id="layer8" />
  <g
     transform="translate(590,-2312.5344)"
     id="layer1" />
  <g
     transform="translate(590,-1360.1722)"
     id="layer11">
    <rect
       width="24"
       height="24"
       x="-589.98004"
       y="1360.1722"
       id="rect7826-9-8"
       style="opacity:0;fill:#ffffff;fill-opacity:1;stroke:none;display:inline" />
    <path
       d="M -579.36232,1360.1537 C -579.72546,1360.155 -580.05935,1360.3531 -580.2346,1360.6712 C -580.40986,1360.9892 -580.39894,1361.3773 -580.20607,1361.685 C -578.54881,1364.5555 -578.54879,1367.6895 -580.20607,1370.56 C -580.48221,1371.0432 -580.31432,1371.6588 -579.83107,1371.935 C -579.34782,1372.2111 -578.73221,1372.0432 -578.45607,1371.56 C -576.47034,1368.1206 -576.47037,1364.1244 -578.45607,1360.685 C -578.63334,1360.3507 -578.98407,1360.1451 -579.36232,1360.1537 z"
       id="path7207-2"
       style="fill:#bebebe;fill-opacity:1;stroke:none;stroke-width:2;stroke-linecap:round;stroke-linejoin:round;marker:none;stroke-miterlimit:4;stroke-dasharray:none;stroke-dashoffset:0;stroke-opacity:1;visibility:visible;display:inline;overflow:visible;enable-background:accumulate" />
    <path
       d="M -575.36232,1360.1537 C -575.72546,1360.155 -576.05935,1360.3531 -576.2346,1360.6712 C -576.40986,1360.9892 -576.39894,1361.3773 -576.20607,1361.685 C -574.54881,1364.5555 -574.54879,1367.6895 -576.20607,1370.56 C -576.48221,1371.0432 -576.31432,1371.6588 -575.83107,1371.935 C -575.34782,1372.2111 -574.73221,1372.0432 -574.45607,1371.56 C -572.47034,1368.1206 -572.47037,1364.1244 -574.45607,1360.685 C -574.63334,1360.3507 -574.98407,1360.1451 -575.36232,1360.1537 z"
       id="path7209-2"
       style="fill:#bebebe;fill-opacity:1;stroke:none;stroke-width:2;stroke-linecap:round;stroke-linejoin:round;marker:none;stroke-miterlimit:4;stroke-dasharray:none;stroke-dashoffset:0;stroke-opacity:1;visibility:visible;display:inline;overflow:visible;enable-background:accumulate" />
    <path
       d="M -589,1367.1875 C -589.2655,1367.1866 -589.52039,1367.2916 -589.70813,1367.4794 C -589.89587,1367.6671 -590.00093,1367.922 -590,1368.1875 L -590,1383.125 C -590.00093,1383.3905 -589.89587,1383.6454 -589.70813,1383.8331 C -589.52039,1384.0209 -589.2655,1384.1259 -589,1384.125 L -583.03125,1384.125 C -582.76575,1384.1259 -582.51086,1384.0209 -582.32312,1383.8331 C -582.13538,1383.6454 -582.03032,1383.3905 -582.03125,1383.125 L -582.03125,1368.1875 C -582.03032,1367.922 -582.13538,1367.6671 -582.32312,1367.4794 C -582.51086,1367.2916 -582.76575,1367.1866 -583.03125,1367.1875 L -589,1367.1875 z M -588,1369.1875 L -584.03125,1369.1875 L -584.03125,1382.1562 L -588,1382.1562 L -588,1369.1875 z"
       id="rect6732"
       style="fill:#bebebe;fill-opacity:1;stroke:none;stroke-width:1.99285614;stroke-linecap:round;stroke-linejoin:round;marker:none;stroke-miterlimit:4;stroke-dasharray:none;stroke-dashoffset:0;stroke-opacity:1;visibility:visible;display:inline;overflow:visible;enable-background:accumulate" />
    <rect
       width="1"
       height="1"
       x="-587"
       y="1370.1722"
       id="rect6770"
       style="fill:#bebebe;fill-opacity:1;stroke:none;stroke-width:2;marker:none;visibility:visible;display:inline;overflow:visible;enable-background:accumulate" />
    <rect
       width="1"
       height="1"
       x="-586"
       y="1371.1722"
       id="rect7545"
       style="fill:#bebebe;fill-opacity:1;stroke:none;stroke-width:2;marker:none;visibility:visible;display:inline;overflow:visible;enable-background:accumulate" />
    <rect
       width="1"
       height="1"
       x="-587"
       y="1372.1722"
       id="rect7547"
       style="fill:#bebebe;fill-opacity:1;stroke:none;stroke-width:2;marker:none;visibility:visible;display:inline;overflow:visible;enable-background:accumulate" />
    <rect
       width="1"
       height="1"
       x="-586"
       y="1373.1722"
       id="rect7549"
       style="fill:#bebebe;fill-opacity:1;stroke:none;stroke-width:2;marker:none;visibility:visible;display:inline;overflow:visible;enable-background:accumulate" />
    <rect
       width="1"
       height="1"
       x="-587"
       y="1374.1722"
       id="rect7551"
       style="fill:#bebebe;fill-opacity:1;stroke:none;stroke-width:2;marker:none;visibility:visible;display:inline;overflow:visible;enable-background:accumulate" />
    <rect
       width="1"
       height="1"
       x="-586"
       y="1375.1722"
       id="rect7553"
       style="fill:#bebebe;fill-opacity:1;stroke:none;stroke-width:2;marker:none;visibility:visible;display:inline;overflow:visible;enable-background:accumulate" />
    <rect
       width="1"
       height="1"
       x="-587"
       y="1376.1722"
       id="rect7555"
       style="fill:#bebebe;fill-opacity:1;stroke:none;stroke-width:2;marker:none;visibility:visible;display:inline;overflow:visible;enable-background:accumulate" />
    <rect
       width="1"
       height="1"
       x="-586"
       y="1377.1722"
       id="rect7557"
       style="fill:#bebebe;fill-opacity:1;stroke:none;stroke-width:2;marker:none;visibility:visible;display:inline;overflow:visible;enable-background:accumulate" />
  </g>
  <g
     transform="translate(590,-1360.1722)"
     id="layer4" />
  <g
     transform="translate(590,-1360.1722)"
     id="layer12" />
  <g
     transform="translate(590,-1360.1722)"
     id="layer9" />
  <g
     transform="translate(590,-1360.1722)"
     id="layer10" />
  <g
     transform="translate(590,-1360.1722)"
     id="layer6" />
</svg>
