<?xml version="1.0" encoding="UTF-8" standalone="no"?>
<!-- Created with Inkscape (http://www.inkscape.org/) -->
<svg
   xmlns:svg="http://www.w3.org/2000/svg"
   xmlns="http://www.w3.org/2000/svg"
   version="1.0"
   width="24.00905"
   height="24.000761"
   id="svg7384">
  <title
     id="title9167">Moblin Icon Theme</title>
  <defs
     id="defs7386" />
  <g
     transform="translate(538.00905,-1330.1723)"
     id="layer3" />
  <g
     transform="translate(538.00905,-1330.1723)"
     id="layer5" />
  <g
     transform="translate(538.00905,-1330.1723)"
     id="layer7" />
  <g
     transform="translate(538.00905,-1330.1723)"
     id="layer2" />
  <g
     transform="translate(538.00905,-1330.1723)"
     id="layer8" />
  <g
     transform="translate(538.00905,-2282.5344)"
     id="layer1" />
  <g
     transform="translate(538.00905,-1330.1723)"
     id="layer11">
    <g
       transform="translate(-1044,1917.1693)"
       id="use7480">
      <rect
         width="24"
         height="24"
         x="-530"
         y="-586.99707"
         transform="scale(-1,1)"
         id="rect11585"
         style="opacity:0;fill:#ffffff;fill-opacity:1;stroke:none;display:inline" />
      <g
         transform="translate(0,-2)"
         id="g11587">
        <path
           d="M 515,-574.375 L 515,-576.00369 L 517.00905,-576.00369 L 517.00005,-582 L 517.00005,-582 L 517,-582 L 526.99481,-582 L 526.99481,-576 L 529,-576 L 529,-572 L 521.875,-572"
           id="path11589"
           style="fill:none;stroke:#bebebe;stroke-width:2;stroke-linecap:round;stroke-linejoin:round;stroke-miterlimit:4;stroke-dasharray:none;stroke-opacity:1" />
        <rect
           width="4.9389648"
           height="4"
           x="519.56104"
           y="-579.5"
           id="rect11591"
           style="fill:none;stroke:#bebebe;stroke-width:1;stroke-linecap:butt;stroke-linejoin:miter;marker:none;stroke-miterlimit:4;stroke-dasharray:none;stroke-dashoffset:0;stroke-opacity:1;visibility:visible;display:inline;overflow:visible;enable-background:accumulate" />
      </g>
      <g
         transform="translate(-8.00905,10.00369)"
         id="g11593">
        <path
           d="M 517,-584 L 520.00905,-584 L 526.99481,-584 L 526.99481,-581.94119 L 526.99481,-578 L 529,-578 L 529,-574 L 515,-574 L 515,-578.00369 L 517.00905,-578.00369 L 517.00005,-584 L 517.00005,-584 L 517,-584 z"
           id="path11595"
           style="fill:none;stroke:#bebebe;stroke-width:2;stroke-linecap:round;stroke-linejoin:round;stroke-miterlimit:4;stroke-dasharray:none;stroke-opacity:1" />
        <rect
           width="4.9389648"
           height="4"
           x="519.56104"
           y="-581.5"
           id="rect11597"
           style="fill:none;stroke:#bebebe;stroke-width:1;stroke-linecap:butt;stroke-linejoin:miter;marker:none;stroke-miterlimit:4;stroke-dasharray:none;stroke-dashoffset:0;stroke-opacity:1;visibility:visible;display:inline;overflow:visible;enable-background:accumulate" />
      </g>
      <path
         d="M 1226.8968,195.03325 L 1233.0313,195.03325 L 1233.0313,187.07529"
         transform="translate(-706,-761)"
         id="path11599"
         style="fill:none;stroke:#bebebe;stroke-width:2;stroke-linecap:round;stroke-linejoin:round;marker:none;stroke-miterlimit:4;stroke-dasharray:none;stroke-dashoffset:0;stroke-opacity:1;visibility:visible;display:inline;overflow:visible;enable-background:accumulate" />
      <rect
         width="4.0154572"
         height="4.0154572"
         rx="1.0000001"
         ry="1.0000001"
         x="524.9845"
         y="-568.01544"
         id="rect11601"
         style="fill:#bebebe;fill-opacity:1;stroke:none;stroke-width:1.99999988;marker:none;visibility:visible;display:inline;overflow:visible;enable-background:accumulate" />
    </g>
  </g>
  <g
     transform="translate(538.00905,-1330.1723)"
     id="layer4" />
  <g
     transform="translate(538.00905,-1330.1723)"
     id="layer12" />
  <g
     transform="translate(538.00905,-1330.1723)"
     id="layer9" />
  <g
     transform="translate(538.00905,-1330.1723)"
     id="layer10" />
  <g
     transform="translate(538.00905,-1330.1723)"
     id="layer6" />
</svg>
