<?xml version="1.0" encoding="UTF-8" standalone="no"?>
<!-- Created with Inkscape (http://www.inkscape.org/) -->
<svg
   xmlns:svg="http://www.w3.org/2000/svg"
   xmlns="http://www.w3.org/2000/svg"
   version="1.0"
   width="24"
   height="24"
   id="svg7384">
  <title
     id="title9167">Moblin Icon Theme</title>
  <defs
     id="defs7386" />
  <g
     transform="translate(436,-1500)"
     id="layer3" />
  <g
     transform="translate(436,-1500)"
     id="layer5" />
  <g
     transform="translate(436,-1500)"
     id="layer7" />
  <g
     transform="translate(436,-1500)"
     id="layer2" />
  <g
     transform="translate(436,-1500)"
     id="layer8" />
  <g
     transform="translate(436,-2452.3622)"
     id="layer1" />
  <g
     transform="translate(436,-1500)"
     id="layer11">
    <rect
       width="24"
       height="24"
       x="412"
       y="1500"
       transform="scale(-1,1)"
       id="rect9182-8"
       style="opacity:0;fill:#f5f5f5;fill-opacity:1;stroke:none;display:inline" />
    <path
       d="M -432.94791,1500.0312 C -434.58676,1500.0312 -435.91666,1501.3924 -435.91666,1503.0312 C -435.92176,1503.3918 -435.73228,1503.7273 -435.42079,1503.9091 C -435.10929,1504.0909 -434.72403,1504.0909 -434.41253,1503.9091 C -434.10104,1503.7273 -433.91156,1503.3918 -433.91666,1503.0312 C -433.91666,1502.4745 -433.50463,1502.0312 -432.94791,1502.0312 C -432.39115,1502.0313 -431.94791,1502.4745 -431.94791,1503.0312 C -431.95301,1503.3918 -431.76353,1503.7273 -431.45204,1503.9091 C -431.14054,1504.0909 -430.75528,1504.0909 -430.44378,1503.9091 C -430.13229,1503.7273 -429.94281,1503.3918 -429.94791,1503.0312 C -429.94791,1501.3924 -431.3091,1500.0313 -432.94791,1500.0312 z"
       id="path9217-4"
       style="fill:#bebebe;fill-opacity:1;stroke:none;stroke-width:2;stroke-linecap:round;stroke-linejoin:miter;marker:none;stroke-miterlimit:4;stroke-dasharray:none;stroke-dashoffset:0;stroke-opacity:1;visibility:visible;display:inline;overflow:visible;enable-background:new" />
    <path
       d="M -428.9939,1524.0085 C -427.35505,1524.0085 -426.02515,1522.6473 -426.02515,1521.0085 C -426.02005,1520.6479 -426.20953,1520.3124 -426.52102,1520.1306 C -426.83252,1519.9488 -427.21778,1519.9488 -427.52928,1520.1306 C -427.84077,1520.3124 -428.03025,1520.6479 -428.02515,1521.0085 C -428.02515,1521.5652 -428.43718,1522.0085 -428.9939,1522.0085 C -429.55066,1522.0084 -429.9939,1521.5652 -429.9939,1521.0085 C -429.9888,1520.6479 -430.17828,1520.3124 -430.48977,1520.1306 C -430.80127,1519.9488 -431.18653,1519.9488 -431.49803,1520.1306 C -431.80952,1520.3124 -431.999,1520.6479 -431.9939,1521.0085 C -431.9939,1522.6473 -430.63271,1524.0084 -428.9939,1524.0085 z"
       id="path9219-0"
       style="fill:#bebebe;fill-opacity:1;stroke:none;stroke-width:2;stroke-linecap:round;stroke-linejoin:miter;marker:none;stroke-miterlimit:4;stroke-dasharray:none;stroke-dashoffset:0;stroke-opacity:1;visibility:visible;display:inline;overflow:visible;enable-background:new" />
    <path
       d="M -431.0625,1502.0625 C -431.57786,1502.1111 -431.97098,1502.5449 -431.96875,1503.0625 L -431.96875,1521 C -431.97385,1521.3606 -431.78437,1521.6961 -431.47288,1521.8779 C -431.16138,1522.0597 -430.77612,1522.0597 -430.46462,1521.8779 C -430.15313,1521.6961 -429.96365,1521.3606 -429.96875,1521 L -429.96875,1503.0625 C -429.96754,1502.7802 -430.08567,1502.5106 -430.294,1502.3201 C -430.50234,1502.1296 -430.78146,1502.0361 -431.0625,1502.0625 L -431.0625,1502.0625 z"
       id="path9221-0"
       style="fill:#bebebe;fill-opacity:1;stroke:none;stroke-width:2;stroke-linecap:round;stroke-linejoin:miter;marker:none;stroke-miterlimit:4;stroke-dasharray:none;stroke-dashoffset:0;stroke-opacity:1;visibility:visible;display:inline;overflow:visible;enable-background:new" />
    <path
       d="M -414.9939,1524.0085 C -413.35505,1524.0085 -412.02515,1522.6473 -412.02515,1521.0085 C -412.02005,1520.6479 -412.20953,1520.3124 -412.52102,1520.1306 C -412.83252,1519.9488 -413.21778,1519.9488 -413.52928,1520.1306 C -413.84077,1520.3124 -414.03025,1520.6479 -414.02515,1521.0085 C -414.02515,1521.5652 -414.43718,1522.0085 -414.9939,1522.0085 C -415.35454,1522.0034 -415.68998,1522.1929 -415.87179,1522.5044 C -416.05359,1522.8159 -416.05359,1523.2011 -415.87179,1523.5126 C -415.68998,1523.8241 -415.35454,1524.0136 -414.9939,1524.0085 z"
       id="path9223-2"
       style="fill:#bebebe;fill-opacity:1;stroke:none;stroke-width:2;stroke-linecap:round;stroke-linejoin:miter;marker:none;stroke-miterlimit:4;stroke-dasharray:none;stroke-dashoffset:0;stroke-opacity:1;visibility:visible;display:inline;overflow:visible;enable-background:new" />
    <path
       d="M -426.96875,1520 C -427.32939,1519.9949 -427.66483,1520.1844 -427.84664,1520.4959 C -428.02844,1520.8074 -428.02844,1521.1926 -427.84664,1521.5041 C -427.66483,1521.8156 -427.32939,1522.0051 -426.96875,1522 L -413,1522 C -412.63936,1522.0051 -412.30392,1521.8156 -412.12211,1521.5041 C -411.94031,1521.1926 -411.94031,1520.8074 -412.12211,1520.4959 C -412.30392,1520.1844 -412.63936,1519.9949 -413,1520 L -426.96875,1520 z"
       id="path9225-9"
       style="fill:#bebebe;fill-opacity:1;stroke:none;stroke-width:2;stroke-linecap:round;stroke-linejoin:miter;marker:none;stroke-miterlimit:4;stroke-dasharray:none;stroke-dashoffset:0;stroke-opacity:1;visibility:visible;display:inline;overflow:visible;enable-background:new" />
    <path
       d="M -429.21875,1521.9688 C -429.77103,1522.0292 -430.16978,1522.5259 -430.10938,1523.0782 C -430.04897,1523.6305 -429.55228,1524.0292 -429,1523.9688 L -414.96875,1523.9688 C -414.60811,1523.9739 -414.27267,1523.7844 -414.09086,1523.4729 C -413.90906,1523.1614 -413.90906,1522.7762 -414.09086,1522.4647 C -414.27267,1522.1532 -414.60811,1521.9637 -414.96875,1521.9688 L -429,1521.9688 C -429.0727,1521.9608 -429.14605,1521.9608 -429.21875,1521.9688 z"
       id="path9227-7"
       style="fill:#bebebe;fill-opacity:1;stroke:none;stroke-width:2;stroke-linecap:round;stroke-linejoin:miter;marker:none;stroke-miterlimit:4;stroke-dasharray:none;stroke-dashoffset:0;stroke-opacity:1;visibility:visible;display:inline;overflow:visible;enable-background:new" />
    <path
       d="M -417.9939,1499.9915 C -416.35505,1499.9915 -415.02515,1501.3527 -415.02515,1502.9915 C -415.02005,1503.3521 -415.20953,1503.6876 -415.52102,1503.8694 C -415.83252,1504.0512 -416.21778,1504.0512 -416.52928,1503.8694 C -416.84077,1503.6876 -417.03025,1503.3521 -417.02515,1502.9915 C -417.02515,1502.4348 -417.43718,1501.9915 -417.9939,1501.9915 C -418.35454,1501.9966 -418.68998,1501.8071 -418.87179,1501.4956 C -419.05359,1501.1841 -419.05359,1500.7989 -418.87179,1500.4874 C -418.68998,1500.1759 -418.35454,1499.9864 -417.9939,1499.9915 z"
       id="path9229-2"
       style="fill:#bebebe;fill-opacity:1;stroke:none;stroke-width:2;stroke-linecap:round;stroke-linejoin:miter;marker:none;stroke-miterlimit:4;stroke-dasharray:none;stroke-dashoffset:0;stroke-opacity:1;visibility:visible;display:inline;overflow:visible;enable-background:new" />
    <path
       d="M -416.03125,1501.9688 C -416.54661,1502.0174 -416.93973,1502.4512 -416.9375,1502.9688 L -416.9375,1521 C -416.9426,1521.3606 -416.75312,1521.6961 -416.44163,1521.8779 C -416.13013,1522.0597 -415.74487,1522.0597 -415.43337,1521.8779 C -415.12188,1521.6961 -414.9324,1521.3606 -414.9375,1521 L -414.9375,1502.9688 C -414.93629,1502.6865 -415.05442,1502.4169 -415.26275,1502.2264 C -415.47109,1502.0359 -415.75021,1501.9424 -416.03125,1501.9688 z"
       id="path9231-7"
       style="fill:#bebebe;fill-opacity:1;stroke:none;stroke-width:2;stroke-linecap:round;stroke-linejoin:miter;marker:none;stroke-miterlimit:4;stroke-dasharray:none;stroke-dashoffset:0;stroke-opacity:1;visibility:visible;display:inline;overflow:visible;enable-background:new" />
    <path
       d="M -433.1875,1500.0312 C -433.73978,1500.0657 -434.15952,1500.5414 -434.125,1501.0937 C -434.09048,1501.646 -433.61478,1502.0657 -433.0625,1502.0312 L -417.96875,1502.0312 C -417.60811,1502.0363 -417.27267,1501.8468 -417.09086,1501.5353 C -416.90906,1501.2238 -416.90906,1500.8386 -417.09086,1500.5271 C -417.27267,1500.2156 -417.60811,1500.0261 -417.96875,1500.0312 L -433.0625,1500.0312 C -433.10413,1500.0286 -433.14587,1500.0286 -433.1875,1500.0312 L -433.1875,1500.0312 z"
       id="path9233-7"
       style="fill:#bebebe;fill-opacity:1;stroke:none;stroke-width:2;stroke-linecap:round;stroke-linejoin:miter;marker:none;stroke-miterlimit:4;stroke-dasharray:none;stroke-dashoffset:0;stroke-opacity:1;visibility:visible;display:inline;overflow:visible;enable-background:new" />
    <rect
       width="2"
       height="6"
       rx="1"
       ry="0.99999982"
       x="-423.99939"
       y="1506"
       id="rect10270-4"
       style="fill:#bebebe;fill-opacity:1;stroke:none;display:inline" />
    <path
       d="M -423.64756,1515.9536 C -422.42587,1516.1184 -421.14501,1515.82 -420.09229,1515.0308 C -417.98683,1513.4524 -417.57256,1510.4539 -419.1716,1508.3756 C -419.38282,1508.0759 -419.74359,1507.9146 -420.11117,1507.9557 C -420.47874,1507.9967 -420.79389,1508.2335 -420.93192,1508.5722 C -421.06994,1508.911 -421.00861,1509.2972 -420.77218,1509.578 C -419.8319,1510.8001 -420.07236,1512.5228 -421.31043,1513.4509 C -422.54849,1514.379 -424.29369,1514.1417 -425.23397,1512.9196 C -426.02442,1511.8923 -426.02417,1510.6056 -425.23397,1509.578 C -424.99755,1509.2972 -424.93621,1508.911 -425.07424,1508.5722 C -425.21227,1508.2335 -425.52741,1507.9967 -425.89499,1507.9557 C -426.26256,1507.9146 -426.62333,1508.0759 -426.83456,1508.3756 C -428.14337,1510.0775 -428.14379,1512.4204 -426.83456,1514.122 C -426.03503,1515.1611 -424.86924,1515.7887 -423.64756,1515.9536 z"
       id="path10982-3"
       style="fill:#bebebe;fill-opacity:1;stroke:none;stroke-width:4.44123936;stroke-linecap:round;stroke-miterlimit:4;stroke-dasharray:none;stroke-opacity:1;display:inline" />
  </g>
  <g
     transform="translate(436,-1500)"
     id="layer4" />
  <g
     transform="translate(436,-1500)"
     id="layer9" />
  <g
     transform="translate(436,-1500)"
     id="layer10" />
  <g
     transform="translate(436,-1500)"
     id="layer6" />
</svg>
