<?xml version="1.0" encoding="UTF-8" standalone="no"?>
<!-- Created with Inkscape (http://www.inkscape.org/) -->
<svg
   xmlns:svg="http://www.w3.org/2000/svg"
   xmlns="http://www.w3.org/2000/svg"
   version="1.0"
   width="24.058016"
   height="24"
   id="svg7384">
  <title
     id="title9167">Moblin Icon Theme</title>
  <defs
     id="defs7386" />
  <g
     transform="translate(618,-1090)"
     id="layer3" />
  <g
     transform="translate(618,-1090)"
     id="layer5" />
  <g
     transform="translate(618,-1090)"
     id="layer7" />
  <g
     transform="translate(618,-1090)"
     id="layer2" />
  <g
     transform="translate(618,-1090)"
     id="layer8" />
  <g
     transform="translate(618,-2042.3622)"
     id="layer1" />
  <g
     transform="translate(618,-1090)"
     id="layer11">
    <rect
       width="24"
       height="24"
       x="-618"
       y="1090"
       id="rect7049"
       style="opacity:0;fill:#ffffff;fill-opacity:1;stroke:none;display:inline" />
    <path
       d="M -613,1098.0312 C -613.554,1098.0312 -614,1098.4772 -614,1099.0312 L -614,1105 C -614,1105.554 -613.554,1106 -613,1106 L -606,1106 C -605.446,1106 -605,1105.554 -605,1105 L -605,1099.0312 C -605,1098.4772 -605.446,1098.0312 -606,1098.0312 L -613,1098.0312 z M -611.5625,1101.9688 C -611.27002,1101.9312 -610.9792,1102.2059 -611,1102.5 L -611,1105 L -612,1105 L -612,1102.5 C -612.0177,1102.2476 -611.81359,1101.9998 -611.5625,1101.9688 z M -609.5625,1101.9688 C -609.27002,1101.9311 -608.9792,1102.2059 -609,1102.5 L -609,1105 L -610,1105 L -610,1102.5 C -610.0177,1102.2476 -609.81359,1101.9997 -609.5625,1101.9688 z M -607.5625,1101.9688 C -607.27002,1101.931 -606.9792,1102.2059 -607,1102.5 L -607,1105 L -608,1105 L -608,1102.5 C -608.0177,1102.2476 -607.81359,1101.9996 -607.5625,1101.9688 z"
       id="rect7128"
       style="fill:#bebebe;fill-opacity:1;stroke:none;stroke-width:1;marker:none;visibility:visible;display:inline;overflow:visible;enable-background:accumulate" />
    <path
       d="M -613.75,1092.0312 C -616.05258,1092.0312 -617.9375,1093.9162 -617.9375,1096.2188 L -617.9375,1105.75 C -617.9375,1108.0526 -616.05257,1109.9375 -613.75,1109.9375 L -598.125,1109.9375 C -595.82242,1109.9375 -593.93754,1108.0526 -593.9375,1105.75 L -593.9375,1096.2188 C -593.9375,1093.9162 -595.82244,1092.0312 -598.125,1092.0312 L -613.75,1092.0312 z M -613.75,1094.0312 L -598.125,1094.0312 C -596.89587,1094.0312 -595.9375,1094.9896 -595.9375,1096.2188 L -595.9375,1105.75 C -595.93752,1106.9792 -596.89583,1107.9375 -598.125,1107.9375 L -613.75,1107.9375 C -614.97917,1107.9375 -615.9375,1106.9792 -615.9375,1105.75 L -615.9375,1096.2188 C -615.9375,1094.9896 -614.97917,1094.0312 -613.75,1094.0312 z"
       id="rect7126"
       style="fill:#bebebe;fill-opacity:1;stroke:none;stroke-width:2;stroke-linecap:round;stroke-linejoin:miter;marker:none;stroke-miterlimit:4;stroke-dasharray:none;stroke-dashoffset:0;stroke-opacity:1;visibility:visible;display:inline;overflow:visible;enable-background:accumulate" />
  </g>
  <g
     transform="translate(618,-1090)"
     id="layer4" />
  <g
     transform="translate(618,-1090)"
     id="layer9" />
  <g
     transform="translate(618,-1090)"
     id="layer10" />
  <g
     transform="translate(618,-1090)"
     id="layer6" />
</svg>
