<?xml version="1.0" encoding="UTF-8" standalone="no"?>
<!-- Created with Inkscape (http://www.inkscape.org/) -->
<svg
   xmlns:svg="http://www.w3.org/2000/svg"
   xmlns="http://www.w3.org/2000/svg"
   version="1.0"
   width="24.038967"
   height="24.036583"
   id="svg7384">
  <title
     id="title9167">Moblin Icon Theme</title>
  <defs
     id="defs7386" />
  <g
     transform="translate(460.00029,-1390.1357)"
     id="layer3" />
  <g
     transform="translate(460.00029,-1390.1357)"
     id="layer5" />
  <g
     transform="translate(460.00029,-1390.1357)"
     id="layer7" />
  <g
     transform="translate(460.00029,-1390.1357)"
     id="layer2" />
  <g
     transform="translate(460.00029,-1390.1357)"
     id="layer8" />
  <g
     transform="translate(460.00029,-2342.4979)"
     id="layer1" />
  <g
     transform="translate(460.00029,-1390.1357)"
     id="layer11">
    <rect
       width="24"
       height="24"
       x="436"
       y="1390.1722"
       transform="scale(-1,1)"
       id="rect10381-4"
       style="opacity:0;fill:#ffffff;fill-opacity:1;stroke:none;display:inline" />
    <path
       d="M -457.15625,1392.1875 C -458.72123,1392.1875 -459.99998,1393.4662 -460,1395.0312 L -460,1411.3125 C -460,1412.8776 -458.72127,1414.1876 -457.15625,1414.1875 L -442.84375,1414.1875 C -441.27877,1414.1875 -439.99998,1412.8776 -440,1411.3125 L -440,1404.1875 C -439.9949,1403.8269 -440.18438,1403.4914 -440.49587,1403.3096 C -440.80737,1403.1278 -441.19263,1403.1278 -441.50413,1403.3096 C -441.81562,1403.4914 -442.0051,1403.8269 -442,1404.1875 L -442,1411.3125 C -442,1411.8043 -442.35211,1412.1875 -442.84375,1412.1875 L -457.15625,1412.1875 C -457.64786,1412.1875 -458,1411.8042 -458,1411.3125 L -458,1395.0312 C -457.99999,1394.5396 -457.64789,1394.1875 -457.15625,1394.1875 L -450.03125,1394.1875 C -449.67061,1394.1926 -449.33517,1394.0031 -449.15336,1393.6916 C -448.97156,1393.3801 -448.97156,1392.9949 -449.15336,1392.6834 C -449.33517,1392.3719 -449.67061,1392.1824 -450.03125,1392.1875 L -457.15625,1392.1875 z"
       id="rect10405-2"
       style="fill:#bebebe;fill-opacity:1;stroke:none;stroke-width:2;stroke-linecap:round;marker:none;stroke-miterlimit:4;stroke-dasharray:none;stroke-opacity:1;visibility:visible;display:inline;overflow:visible;enable-background:accumulate" />
    <path
       d="M -454.78125,1396.1875 C -455.44137,1396.1875 -455.99997,1396.7149 -456,1397.375 L -456,1400.9688 C -456,1401.6288 -455.4414,1402.1876 -454.78125,1402.1875 L -448.0625,1402.1875 L -448.0625,1401.1875 L -454.78125,1401.1875 C -454.90457,1401.1875 -455,1401.0921 -455,1400.9688 L -455,1397.375 C -455,1397.2517 -454.90461,1397.1875 -454.78125,1397.1875 L -450.03125,1397.1875 L -450.03125,1396.1875 L -454.78125,1396.1875 z"
       id="rect10452-1"
       style="fill:#bebebe;fill-opacity:1;stroke:none;stroke-width:1;marker:none;stroke-miterlimit:4;stroke-opacity:1;visibility:visible;display:inline;overflow:visible;enable-background:accumulate" />
    <path
       d="M -454.78125,1404.1875 C -455.44134,1404.1875 -456,1404.7149 -456,1405.375 L -456,1408.9688 C -456,1409.6288 -455.44133,1410.1875 -454.78125,1410.1875 L -445.21875,1410.1875 C -444.55866,1410.1875 -444,1409.6289 -444,1408.9688 L -444,1405.375 C -444,1404.7149 -444.55866,1404.1875 -445.21875,1404.1875 L -454.78125,1404.1875 z M -454.78125,1405.1875 L -445.21875,1405.1875 C -445.09534,1405.1875 -445,1405.2516 -445,1405.375 L -445,1408.9688 C -445,1409.0922 -445.09536,1409.1875 -445.21875,1409.1875 L -454.78125,1409.1875 C -454.90461,1409.1875 -455,1409.0921 -455,1408.9688 L -455,1405.375 C -455,1405.2515 -454.90464,1405.1875 -454.78125,1405.1875 z"
       id="rect10456-7"
       style="fill:#bebebe;fill-opacity:1;stroke:none;stroke-width:1;marker:none;stroke-miterlimit:4;stroke-dasharray:none;stroke-opacity:1;visibility:visible;display:inline;overflow:visible;enable-background:accumulate" />
    <path
       d="M -452,1398.1562 L -452,1398.6562 L -452,1399.6562 C -452.00255,1399.8365 -451.90781,1400.0042 -451.75206,1400.0951 C -451.59631,1400.186 -451.40369,1400.186 -451.24794,1400.0951 C -451.09219,1400.0042 -450.99745,1399.8365 -451,1399.6562 L -451,1399.1562 L -449.4375,1399.1562 C -449.25718,1399.1588 -449.08946,1399.064 -448.99856,1398.9083 C -448.90765,1398.7525 -448.90765,1398.5599 -448.99856,1398.4041 C -449.08946,1398.2484 -449.25718,1398.1536 -449.4375,1398.1562 L -451.5,1398.1562 L -452,1398.1562 z"
       id="path10505-0"
       style="fill:#bebebe;fill-opacity:1;stroke:none;stroke-width:1;stroke-linecap:round;stroke-linejoin:miter;marker:none;stroke-miterlimit:4;stroke-dasharray:none;stroke-dashoffset:0;stroke-opacity:1;visibility:visible;display:inline;overflow:visible;enable-background:accumulate" />
    <path
       d="M -452,1406.1875 L -452,1406.6875 L -452,1407.6875 C -452.00255,1407.8678 -451.90781,1408.0355 -451.75206,1408.1264 C -451.59631,1408.2173 -451.40369,1408.2173 -451.24794,1408.1264 C -451.09219,1408.0355 -450.99745,1407.8678 -451,1407.6875 L -451,1407.1875 L -448.96875,1407.1875 L -448.96875,1407.6562 C -448.9713,1407.8365 -448.87656,1408.0042 -448.72081,1408.0951 C -448.56506,1408.186 -448.37244,1408.186 -448.21669,1408.0951 C -448.06094,1408.0042 -447.9662,1407.8365 -447.96875,1407.6562 L -447.96875,1406.6875 L -447.96875,1406.1875 L -448.46875,1406.1875 L -451.5,1406.1875 L -452,1406.1875 z"
       id="path10544-6"
       style="fill:#bebebe;fill-opacity:1;stroke:none;stroke-width:1;stroke-linecap:round;stroke-linejoin:miter;marker:none;stroke-miterlimit:4;stroke-dasharray:none;stroke-dashoffset:0;stroke-opacity:1;visibility:visible;display:inline;overflow:visible;enable-background:accumulate" />
    <g
       transform="matrix(0.5596205,0,0,0.5596205,-340.56421,1278.7958)"
       id="g8286">
      <path
         d="M 958,213.5 A 3.5,3.5 0 1 1 951,213.5 A 3.5,3.5 0 1 1 958,213.5 z"
         transform="matrix(1.0339404,0,0,1.0339404,-1168.1532,-11.002315)"
         id="path6247-42"
         style="fill:none;stroke:#bebebe;stroke-width:3.45653415;stroke-linecap:round;stroke-linejoin:round;marker:none;stroke-miterlimit:4;stroke-dasharray:none;stroke-dashoffset:0;stroke-opacity:1;visibility:visible;display:inline;overflow:visible;enable-background:accumulate" />
      <path
         d="M 956.11378,216.60575 A 3.5,3.5 0 1 1 957.99304,213.72066"
         transform="matrix(2.5714345,0,0,2.5714345,-2635.6915,-339.25723)"
         id="path6307-50"
         style="fill:none;stroke:#bebebe;stroke-width:1.38982737;stroke-linecap:round;stroke-linejoin:round;marker:none;stroke-miterlimit:4;stroke-dasharray:none;stroke-dashoffset:0;stroke-opacity:1;visibility:visible;display:inline;overflow:visible;enable-background:accumulate" />
      <path
         d="M 957.99225,213.26718 A 3.5,3.5 0 1 1 951.04,212.97235"
         transform="matrix(0.7115448,0,0,0.6537983,-853.9435,71.725587)"
         id="path6309-0"
         style="fill:none;stroke:#bebebe;stroke-width:5.23978424;stroke-linecap:round;stroke-linejoin:round;marker:none;stroke-miterlimit:4;stroke-dasharray:none;stroke-dashoffset:0;stroke-opacity:1;visibility:visible;display:inline;overflow:visible;enable-background:accumulate" />
    </g>
  </g>
  <g
     transform="translate(460.00029,-1390.1357)"
     id="layer4" />
  <g
     transform="translate(460.00029,-1390.1357)"
     id="layer12" />
  <g
     transform="translate(460.00029,-1390.1357)"
     id="layer9" />
  <g
     transform="translate(460.00029,-1390.1357)"
     id="layer10" />
  <g
     transform="translate(460.00029,-1390.1357)"
     id="layer6" />
</svg>
