<?xml version="1.0" encoding="UTF-8" standalone="no"?>
<!-- Created with Inkscape (http://www.inkscape.org/) -->
<svg
   xmlns:svg="http://www.w3.org/2000/svg"
   xmlns="http://www.w3.org/2000/svg"
   version="1.0"
   width="24.01586"
   height="24.028963"
   id="svg7384">
  <title
     id="title9167">Moblin Icon Theme</title>
  <defs
     id="defs7386" />
  <g
     transform="translate(537.99931,-1420.1433)"
     id="layer3" />
  <g
     transform="translate(537.99931,-1420.1433)"
     id="layer5" />
  <g
     transform="translate(537.99931,-1420.1433)"
     id="layer7" />
  <g
     transform="translate(537.99931,-1420.1433)"
     id="layer2" />
  <g
     transform="translate(537.99931,-1420.1433)"
     id="layer8" />
  <g
     transform="translate(537.99931,-2372.5055)"
     id="layer1" />
  <g
     transform="translate(537.99931,-1420.1433)"
     id="layer11">
    <rect
       width="24"
       height="24"
       x="513.99933"
       y="1420.1722"
       transform="scale(-1,1)"
       id="rect9601-3"
       style="opacity:0;fill:#ffffff;fill-opacity:1;stroke:none;display:inline" />
    <path
       d="M -525.9993,1434.17 C -527.09783,1434.17 -527.99149,1433.2763 -527.99149,1432.1778 C -527.99149,1431.0793 -527.09783,1430.1856 -525.9993,1430.1856 C -524.90077,1430.1856 -524.00711,1431.0793 -524.00711,1432.1778 C -524.00711,1433.2763 -524.90077,1434.17 -525.9993,1434.17 z M -525.9993,1433.1856 C -525.44183,1433.1856 -524.99149,1432.7353 -524.99149,1432.1778 C -524.99149,1431.6203 -525.44183,1431.17 -525.9993,1431.17 C -526.55677,1431.17 -527.00711,1431.6203 -527.00711,1432.1778 C -527.00711,1432.7353 -526.55677,1433.1856 -525.9993,1433.1856 z"
       id="path9613-3"
       style="fill:#bebebe;fill-opacity:1;stroke:none;stroke-width:1.33333337;stroke-linecap:butt;stroke-linejoin:round;marker:none;stroke-miterlimit:4;stroke-dasharray:none;stroke-dashoffset:1;stroke-opacity:1;visibility:visible;display:inline;overflow:visible;enable-background:accumulate" />
    <path
       d="M -525.1143,1430.8456 L -521.16818,1430.1917 C -520.64812,1430.0984 -520.09047,1430.4911 -520.00409,1431.0124 C -519.91769,1431.5336 -520.31876,1432.0858 -520.84118,1432.1648 L -524.78731,1432.8187 C -524.78731,1432.8187 -525.1143,1430.8456 -525.1143,1430.8456 L -525.1143,1430.8456 z"
       id="path9615-3"
       style="font-size:medium;font-style:normal;font-variant:normal;font-weight:normal;font-stretch:normal;text-indent:0;text-align:start;text-decoration:none;line-height:normal;letter-spacing:normal;word-spacing:normal;text-transform:none;direction:ltr;block-progression:tb;writing-mode:lr-tb;text-anchor:start;fill:#bebebe;fill-opacity:1;stroke:none;stroke-width:2;marker:none;visibility:visible;display:inline;overflow:visible;enable-background:accumulate;font-family:Bitstream Vera Sans;-inkscape-font-specification:Bitstream Vera Sans" />
    <path
       d="M -525.99931,1440.1778 C -530.41762,1440.1778 -533.99931,1436.5962 -533.99931,1432.1778 L -527.99931,1432.1778 C -527.99931,1433.2824 -527.1039,1434.1778 -525.99931,1434.1778 L -525.99931,1440.1778 z"
       id="path9669-2"
       style="opacity:0.3;fill:#bebebe;fill-opacity:1;stroke:none;stroke-width:2.80316567;marker:none;visibility:visible;display:inline;overflow:visible;enable-background:accumulate" />
    <path
       d="M -525.99931,1434.1778 L -528.44122,1438.8629 C -528.69932,1439.3239 -529.35679,1439.5054 -529.81437,1439.2412 C -530.27195,1438.977 -530.4439,1438.3167 -530.17327,1437.8629 L -527.73136,1433.1778 C -527.73136,1433.1778 -525.99931,1434.1778 -525.99931,1434.1778 L -525.99931,1434.1778 z"
       id="path9617-0"
       style="font-size:medium;font-style:normal;font-variant:normal;font-weight:normal;font-stretch:normal;text-indent:0;text-align:start;text-decoration:none;line-height:normal;letter-spacing:normal;word-spacing:normal;text-transform:none;direction:ltr;block-progression:tb;writing-mode:lr-tb;text-anchor:start;fill:#bebebe;fill-opacity:1;stroke:none;stroke-width:2;marker:none;visibility:visible;display:inline;overflow:visible;enable-background:accumulate;font-family:Bitstream Vera Sans;-inkscape-font-specification:Bitstream Vera Sans" />
    <path
       d="M -525.9375,1420.1411 C -532.52857,1420.1411 -537.90626,1425.5187 -537.90625,1432.1098 C -537.90625,1438.7009 -532.52856,1444.0785 -525.9375,1444.0785 C -519.34643,1444.0785 -513.96874,1438.7009 -513.96875,1432.1098 C -513.96875,1425.5187 -519.34644,1420.1411 -525.9375,1420.1411 z M -525.9375,1422.1411 C -520.42855,1422.1411 -515.96875,1426.6009 -515.96875,1432.1098 C -515.96874,1437.6187 -520.42856,1442.0785 -525.9375,1442.0785 C -531.44645,1442.0785 -535.90625,1437.6187 -535.90625,1432.1098 C -535.90626,1426.6009 -531.44644,1422.1411 -525.9375,1422.1411 z"
       id="path8710"
       style="fill:#bebebe;fill-opacity:1;stroke:none;stroke-width:2.00000048;stroke-linecap:round;stroke-linejoin:miter;marker:none;stroke-miterlimit:4;stroke-dasharray:none;stroke-dashoffset:0;stroke-opacity:1;visibility:visible;display:inline;overflow:visible;enable-background:accumulate" />
  </g>
  <g
     transform="translate(537.99931,-1420.1433)"
     id="layer4" />
  <g
     transform="translate(537.99931,-1420.1433)"
     id="layer12" />
  <g
     transform="translate(537.99931,-1420.1433)"
     id="layer9" />
  <g
     transform="translate(537.99931,-1420.1433)"
     id="layer10" />
  <g
     transform="translate(537.99931,-1420.1433)"
     id="layer6" />
</svg>
