<?xml version="1.0" encoding="UTF-8" standalone="no"?>
<!-- Created with Inkscape (http://www.inkscape.org/) -->
<svg
   xmlns:svg="http://www.w3.org/2000/svg"
   xmlns="http://www.w3.org/2000/svg"
   version="1.0"
   width="24"
   height="24.027588"
   id="svg7384">
  <title
     id="title9167">Moblin Icon Theme</title>
  <defs
     id="defs7386" />
  <g
     transform="translate(486,-1330.2101)"
     id="layer3" />
  <g
     transform="translate(486,-1330.2101)"
     id="layer5" />
  <g
     transform="translate(486,-1330.2101)"
     id="layer7" />
  <g
     transform="translate(486,-1330.2101)"
     id="layer2" />
  <g
     transform="translate(486,-1330.2101)"
     id="layer8" />
  <g
     transform="translate(486,-2282.5723)"
     id="layer1" />
  <g
     transform="translate(486,-1330.2101)"
     id="layer11">
    <rect
       width="24"
       height="24"
       x="-486"
       y="1330.2377"
       id="rect6736-0"
       style="opacity:0;fill:#ffffff;fill-opacity:1;stroke:none;display:inline" />
    <path
       d="M -470.53125,1332.8438 C -470.63581,1332.8549 -470.73422,1332.8986 -470.8125,1332.9688 L -474.6875,1336.2812 L -474.375,1336.6875 L -473.875,1336.6875 L -474.875,1337.75 L -474.09375,1337.0938 C -474.36775,1337.554 -474.89411,1338.4906 -474.90625,1339.6562 C -474.92188,1341.1562 -474.9375,1342.6562 -474.9375,1342.6562 L -473.9375,1342.6875 C -473.9375,1342.6875 -473.96875,1343.1875 -473.46875,1343.2188 C -472.96875,1343.25 -472.46875,1343.2812 -472.46875,1343.2812 L -472.125,1343.3125 L -471.96875,1343 L -470.71875,1340.0625 L -467.65625,1342.3125 L -466.84375,1342.9375 L -466.875,1341.9062 L -466.96875,1339.4688 L -464.03125,1340.4688 C -463.76372,1340.5551 -463.47689,1340.4082 -463.3906,1340.1407 C -463.30431,1339.8731 -463.45122,1339.5863 -463.71875,1339.5 L -467.34375,1338.25 L -468.03125,1338.0312 L -468,1338.75 L -467.90625,1340.9375 L -470.65625,1338.9062 L -471.15625,1338.5312 L -471.40625,1339.0938 L -472.78125,1342.2812 C -472.97172,1342.2693 -473.09399,1342.2695 -473.40625,1342.25 C -473.67182,1342.2334 -473.74686,1342.2307 -473.9375,1342.2188 C -473.9337,1341.8542 -473.91943,1340.9531 -473.90625,1339.6875 C -473.89176,1338.2969 -473.87704,1337.1016 -473.875,1336.9062 L -470.1875,1333.75 C -470.0003,1333.6187 -469.92604,1333.3771 -470.00714,1333.1633 C -470.08824,1332.9495 -470.30405,1332.8179 -470.53125,1332.8438 z"
       id="path6777-2"
       style="fill:#bebebe;fill-opacity:1;fill-rule:nonzero;stroke:none;stroke-width:1;stroke-linecap:round;stroke-linejoin:miter;marker:none;stroke-miterlimit:4;stroke-dasharray:none;stroke-dashoffset:0;stroke-opacity:1;visibility:visible;display:inline;overflow:visible;enable-background:accumulate" />
    <path
       d="M -472.875,1344.1875 L -473.03125,1344.4375 L -473.9375,1346.1875 L -474.1875,1346.6562 L -473.71875,1346.875 L -471.28125,1347.9688 L -471.21875,1349.6875 L -471.21875,1350.2812 L -470.625,1350.1562 L -468.875,1349.7812 L -468.5,1349.7188 L -468.46875,1349.3438 L -468,1344.7188 L -468.5,1344.6875 L -468.5,1344.1875 L -468.9375,1344.1875 L -472.59375,1344.1875 L -472.875,1344.1875 z M -472.28125,1345.1875 L -469.0625,1345.1875 L -469.4375,1348.875 L -470.25,1349.0625 L -470.28125,1347.625 L -470.3125,1347.3125 L -470.59375,1347.1875 L -472.8125,1346.1875 L -472.28125,1345.1875 z"
       id="path6780-0"
       style="fill:#bebebe;fill-opacity:1;fill-rule:nonzero;stroke:none;stroke-width:1;stroke-linecap:round;stroke-linejoin:miter;marker:none;stroke-miterlimit:4;stroke-dasharray:none;stroke-dashoffset:0;stroke-opacity:1;visibility:visible;display:inline;overflow:visible;enable-background:accumulate" />
    <path
       d="M -481.71875,1333.5938 C -481.96332,1333.5871 -482.17679,1333.7584 -482.22328,1333.9986 C -482.26977,1334.2388 -482.13564,1334.4774 -481.90625,1334.5625 L -477.9375,1336.5312 L -479.03125,1339.2812 L -482.6875,1341.3125 L -483.71875,1341.875 L -482.59375,1342.2188 L -480.15625,1342.9688 L -482.78125,1345.4375 L -482.9375,1345.5625 L -482.9375,1345.7812 L -483.125,1350.2188 C -483.13362,1350.4949 -482.91674,1350.7258 -482.6406,1350.7344 C -482.36446,1350.743 -482.13362,1350.5261 -482.125,1350.25 L -481.9375,1346.0312 L -478.84375,1343.0938 L -478.21875,1342.5 L -479.03125,1342.25 L -481.1875,1341.5938 L -478.375,1340.0312 L -478.21875,1339.9688 L -478.15625,1339.7812 L -476.84375,1336.4688 L -476.6875,1336.0625 L -477.09375,1335.8438 L -481.46875,1333.6562 C -481.5452,1333.6139 -481.6314,1333.5924 -481.71875,1333.5938 L -481.71875,1333.5938 z"
       id="path6782-1"
       style="fill:#bebebe;fill-opacity:1;fill-rule:nonzero;stroke:none;stroke-width:1;stroke-linecap:round;stroke-linejoin:miter;marker:none;stroke-miterlimit:4;stroke-dasharray:none;stroke-dashoffset:0;stroke-opacity:1;visibility:visible;display:inline;overflow:visible;enable-background:accumulate" />
    <path
       d="M -485.125,1332.1875 C -485.60308,1332.2787 -485.94608,1332.7009 -485.9375,1333.1875 L -485.9375,1351.25 C -485.93744,1351.8023 -485.48976,1352.2499 -484.9375,1352.25 L -463.0625,1352.25 C -462.51024,1352.2499 -462.06256,1351.8023 -462.0625,1351.25 L -462.0625,1333.1875 C -462.06256,1332.6352 -462.51024,1332.1876 -463.0625,1332.1875 L -484.9375,1332.1875 C -484.99986,1332.1816 -485.06264,1332.1816 -485.125,1332.1875 z M -483.9375,1334.1875 L -464.0625,1334.1875 L -464.0625,1350.25 L -483.9375,1350.25 L -483.9375,1334.1875 z"
       id="rect7929"
       style="fill:#bebebe;fill-opacity:1;stroke:none;stroke-width:2;stroke-linecap:round;stroke-linejoin:round;marker:none;stroke-miterlimit:4;stroke-dasharray:none;stroke-dashoffset:0;stroke-opacity:1;visibility:visible;display:inline;overflow:visible;enable-background:accumulate" />
    <path
       d="M -481.5625,1334.0472 L -477.1875,1336.2347 L -478.6875,1339.7972 L -482.375,1341.9222 L -479.375,1342.6722 L -482.4375,1345.6722 L -482.6875,1351.0472 L -470.8125,1350.9222 L -470.9375,1347.6097 L -473.5625,1346.4847 L -472.625,1344.2972 L -468.5625,1344.6097 L -468.875,1349.2347 L -470.5625,1349.8597 L -470.5625,1350.9222 C -470.5625,1350.9222 -463.4375,1351.1722 -463.375,1350.8592 C -463.3125,1350.5467 -463.375,1339.9842 -463.375,1339.9842 L -467.5625,1338.7342 L -467.4375,1341.7342 L -470.875,1339.1717 L -472.4375,1343.0467 L -474.5625,1342.6717 L -474.5625,1336.5467 L -470.75,1333.6092 L -481.5625,1334.0467 L -481.5625,1334.0472 z"
       id="path7931"
       style="opacity:0.5;fill:#bebebe;fill-opacity:1;stroke:none;stroke-width:2;marker:none;visibility:visible;display:inline;overflow:visible;enable-background:accumulate" />
    <g
       transform="translate(4.91858,959.23766)"
       id="g7949">
      <rect
         width="0.97227585"
         height="3.0051565"
         x="-487.01981"
         y="1090.0378"
         transform="translate(-2.9185791,-719.06542)"
         id="rect7933"
         style="fill:#bebebe;fill-opacity:1;fill-rule:nonzero;stroke:none;stroke-width:2;marker:none;visibility:visible;display:inline;overflow:visible;enable-background:accumulate" />
      <rect
         width="0.97227585"
         height="3.0051565"
         x="-486.89087"
         y="370.97241"
         id="rect7935"
         style="fill:#bebebe;fill-opacity:1;fill-rule:nonzero;stroke:none;stroke-width:2;marker:none;visibility:visible;display:inline;overflow:visible;enable-background:accumulate" />
      <rect
         width="0.97227585"
         height="3.0051565"
         x="-483.89087"
         y="370.97241"
         id="rect7937"
         style="fill:#bebebe;fill-opacity:1;fill-rule:nonzero;stroke:none;stroke-width:2;marker:none;visibility:visible;display:inline;overflow:visible;enable-background:accumulate" />
      <rect
         width="0.97227585"
         height="3.0051565"
         x="-480.89087"
         y="370.97241"
         id="rect7939"
         style="fill:#bebebe;fill-opacity:1;fill-rule:nonzero;stroke:none;stroke-width:2;marker:none;visibility:visible;display:inline;overflow:visible;enable-background:accumulate" />
      <rect
         width="0.97227585"
         height="3.0051565"
         x="-477.89087"
         y="370.97241"
         id="rect7941"
         style="fill:#bebebe;fill-opacity:1;fill-rule:nonzero;stroke:none;stroke-width:2;marker:none;visibility:visible;display:inline;overflow:visible;enable-background:accumulate" />
      <rect
         width="0.97227585"
         height="3.0051565"
         x="-474.89087"
         y="370.97241"
         id="rect7943"
         style="fill:#bebebe;fill-opacity:1;fill-rule:nonzero;stroke:none;stroke-width:2;marker:none;visibility:visible;display:inline;overflow:visible;enable-background:accumulate" />
      <rect
         width="0.97227585"
         height="3.0051565"
         x="-471.89087"
         y="370.97241"
         id="rect7945"
         style="fill:#bebebe;fill-opacity:1;fill-rule:nonzero;stroke:none;stroke-width:2;marker:none;visibility:visible;display:inline;overflow:visible;enable-background:accumulate" />
      <rect
         width="0.97227585"
         height="3.0051565"
         x="-468.89087"
         y="370.97241"
         id="rect7947"
         style="fill:#bebebe;fill-opacity:1;fill-rule:nonzero;stroke:none;stroke-width:2;marker:none;visibility:visible;display:inline;overflow:visible;enable-background:accumulate" />
    </g>
    <g
       transform="translate(4.91858,980.19983)"
       id="g7959">
      <rect
         width="0.97227585"
         height="3.0051565"
         x="-487.01981"
         y="1090.0378"
         transform="translate(-2.9185791,-719.06542)"
         id="rect7961"
         style="fill:#bebebe;fill-opacity:1;fill-rule:nonzero;stroke:none;stroke-width:2;marker:none;visibility:visible;display:inline;overflow:visible;enable-background:accumulate" />
      <rect
         width="0.97227585"
         height="3.0051565"
         x="-486.89087"
         y="370.97241"
         id="rect7963"
         style="fill:#bebebe;fill-opacity:1;fill-rule:nonzero;stroke:none;stroke-width:2;marker:none;visibility:visible;display:inline;overflow:visible;enable-background:accumulate" />
      <rect
         width="0.97227585"
         height="3.0051565"
         x="-483.89087"
         y="370.97241"
         id="rect7965"
         style="fill:#bebebe;fill-opacity:1;fill-rule:nonzero;stroke:none;stroke-width:2;marker:none;visibility:visible;display:inline;overflow:visible;enable-background:accumulate" />
      <rect
         width="0.97227585"
         height="3.0051565"
         x="-480.89087"
         y="370.97241"
         id="rect7967"
         style="fill:#bebebe;fill-opacity:1;fill-rule:nonzero;stroke:none;stroke-width:2;marker:none;visibility:visible;display:inline;overflow:visible;enable-background:accumulate" />
      <rect
         width="0.97227585"
         height="3.0051565"
         x="-477.89087"
         y="370.97241"
         id="rect7969"
         style="fill:#bebebe;fill-opacity:1;fill-rule:nonzero;stroke:none;stroke-width:2;marker:none;visibility:visible;display:inline;overflow:visible;enable-background:accumulate" />
      <rect
         width="0.97227585"
         height="3.0051565"
         x="-474.89087"
         y="370.97241"
         id="rect7971"
         style="fill:#bebebe;fill-opacity:1;fill-rule:nonzero;stroke:none;stroke-width:2;marker:none;visibility:visible;display:inline;overflow:visible;enable-background:accumulate" />
      <rect
         width="0.97227585"
         height="3.0051565"
         x="-471.89087"
         y="370.97241"
         id="rect7973"
         style="fill:#bebebe;fill-opacity:1;fill-rule:nonzero;stroke:none;stroke-width:2;marker:none;visibility:visible;display:inline;overflow:visible;enable-background:accumulate" />
      <rect
         width="0.97227585"
         height="3.0051565"
         x="-468.89087"
         y="370.97241"
         id="rect7975"
         style="fill:#bebebe;fill-opacity:1;fill-rule:nonzero;stroke:none;stroke-width:2;marker:none;visibility:visible;display:inline;overflow:visible;enable-background:accumulate" />
    </g>
  </g>
  <g
     transform="translate(486,-1330.2101)"
     id="layer4" />
  <g
     transform="translate(486,-1330.2101)"
     id="layer12" />
  <g
     transform="translate(486,-1330.2101)"
     id="layer9" />
  <g
     transform="translate(486,-1330.2101)"
     id="layer10" />
  <g
     transform="translate(486,-1330.2101)"
     id="layer6" />
</svg>
