<?xml version="1.0" encoding="UTF-8" standalone="no"?>
<!-- Created with Inkscape (http://www.inkscape.org/) -->
<svg
   xmlns:svg="http://www.w3.org/2000/svg"
   xmlns="http://www.w3.org/2000/svg"
   version="1.0"
   width="24"
   height="24"
   id="svg7384">
  <title
     id="title9167">Moblin Icon Theme</title>
  <defs
     id="defs7386" />
  <g
     transform="translate(510,-1284)"
     id="layer3" />
  <g
     transform="translate(510,-1284)"
     id="layer5" />
  <g
     transform="translate(510,-1284)"
     id="layer7" />
  <g
     transform="translate(510,-1284)"
     id="layer2" />
  <g
     transform="translate(510,-1284)"
     id="layer8" />
  <g
     transform="translate(510,-2236.3622)"
     id="layer1" />
  <g
     transform="translate(510,-1284)"
     id="layer11">
    <rect
       width="24"
       height="24"
       x="-510"
       y="1284"
       id="rect12369"
       style="opacity:0;fill:#ffffff;fill-opacity:1;stroke:none;display:inline" />
    <path
       d="M -505.875,1295 C -507.60625,1295 -509,1296.3937 -509,1298.125 L -509,1303.8125 C -509,1305.5438 -507.60625,1306.9375 -505.875,1306.9375 L -490.0625,1306.9375 C -488.33125,1306.9375 -486.9375,1305.5438 -486.9375,1303.8125 L -486.9375,1298.125 C -486.9375,1296.3937 -488.33125,1295 -490.0625,1295 L -505.875,1295 z M -497.1875,1296.9062 C -497.0441,1296.9063 -496.92117,1296.9792 -496.84375,1297.125 C -496.76605,1297.267 -496.75005,1297.4837 -496.75005,1297.75 L -496.75005,1299.9688 C -496.57487,1299.6847 -496.36961,1299.4616 -496.18755,1299.3125 C -496.00548,1299.1598 -495.79991,1299.0625 -495.5313,1299.0625 C -495.22177,1299.0625 -494.9509,1299.2067 -494.7188,1299.4375 C -494.48437,1299.6647 -494.28376,1299.9695 -494.1563,1300.4062 C -494.0266,1300.8394 -493.9688,1301.3723 -493.9688,1301.9688 C -493.9688,1302.409 -494.0206,1302.8183 -494.0938,1303.1875 C -494.1643,1303.5532 -494.26979,1303.8552 -494.4063,1304.125 C -494.54289,1304.3948 -494.71055,1304.6009 -494.9063,1304.75 C -495.09973,1304.8956 -495.29688,1304.9688 -495.5313,1304.9688 C -495.6747,1304.9688 -495.81009,1304.9588 -495.93755,1304.9058 C -496.06277,1304.8528 -496.16134,1304.7723 -496.25005,1304.6871 C -496.33885,1304.5981 -496.43632,1304.4982 -496.50005,1304.4058 C -496.56165,1304.3138 -496.64765,1304.1842 -496.75005,1303.9996 L -496.75005,1304.1558 C -496.75005,1304.4292 -496.79115,1304.6388 -496.87505,1304.7808 C -496.95925,1304.9193 -497.05784,1304.9684 -497.18755,1304.9684 C -497.31957,1304.9684 -497.42038,1304.9194 -497.50005,1304.7808 C -497.57775,1304.6388 -497.62505,1304.4292 -497.62505,1304.1558 L -497.62505,1297.8121 C -497.62505,1297.5174 -497.57505,1297.2737 -497.50005,1297.1246 C -497.42235,1296.9719 -497.32413,1296.9059 -497.18755,1296.9058 L -497.1875,1296.9062 L -497.1875,1296.9062 z M -506.09375,1297.0312 L -502.875,1297.0312 C -502.69974,1297.0313 -502.58423,1297.0982 -502.5,1297.2188 C -502.4135,1297.3395 -502.34375,1297.4922 -502.34375,1297.6875 C -502.34375,1297.8828 -502.41345,1298.0355 -502.5,1298.1562 C -502.5865,1298.2734 -502.70206,1298.3438 -502.875,1298.3438 L -503.96875,1298.3438 L -503.96875,1304 C -503.96875,1304.3266 -504.03145,1304.5902 -504.125,1304.75 C -504.2183,1304.9062 -504.32079,1304.9688 -504.46875,1304.9688 C -504.61895,1304.9688 -504.74815,1304.9098 -504.84375,1304.75 C -504.93705,1304.5902 -505,1304.3231 -505,1304 L -505,1298.3438 L -506.09375,1298.3438 C -506.26676,1298.3438 -506.38452,1298.2738 -506.46875,1298.1562 C -506.55285,1298.0356 -506.59375,1297.8828 -506.59375,1297.6875 C -506.59375,1297.4851 -506.55525,1297.3359 -506.46875,1297.2188 C -506.37995,1297.1016 -506.25988,1297.0313 -506.09375,1297.0312 z M -501.46875,1299.0625 C -501.32768,1299.0625 -501.21147,1299.1355 -501.125,1299.2812 C -501.0385,1299.4268 -501,1299.6499 -501,1299.9375 L -501,1302.25 C -501.17811,1303.2243 -500.81908,1303.9017 -500.46908,1303.899 C -499.90751,1303.899 -499.9146,1302.4559 -499.87505,1301.7188 L -499.87505,1299.9375 C -499.87505,1299.6499 -499.83655,1299.4268 -499.75005,1299.2812 C -499.66355,1299.1357 -499.54513,1299.0625 -499.4063,1299.0625 C -499.26747,1299.0625 -499.17794,1299.1355 -499.0938,1299.2812 C -499.0096,1299.4233 -498.9688,1299.6464 -498.9688,1299.9375 L -498.9688,1304.1562 C -498.9688,1304.4332 -499.0117,1304.6428 -499.0938,1304.7812 C -499.1739,1304.9197 -499.27884,1304.9688 -499.4063,1304.9688 C -499.53376,1304.9688 -499.63457,1304.8918 -499.7188,1304.75 C -499.8007,1304.6044 -499.8438,1304.4154 -499.8438,1304.1562 L -499.8438,1303.9688 C -500.09079,1304.6534 -500.42475,1304.9404 -500.75,1304.9688 C -500.9753,1304.9688 -501.16393,1304.8958 -501.34375,1304.75 C -501.52125,1304.6044 -501.65217,1304.4119 -501.75,1304.1562 C -501.8661,1303.8474 -501.9375,1303.3912 -501.9375,1302.8125 L -501.9375,1299.9375 C -501.9375,1299.6464 -501.8964,1299.4233 -501.8125,1299.2812 C -501.7283,1299.1357 -501.60758,1299.0625 -501.46875,1299.0625 L -501.46875,1299.0625 z M -491.5625,1299.0625 C -491.19837,1299.0625 -490.88449,1299.1649 -490.625,1299.4062 C -490.36328,1299.6441 -490.19229,1299.9638 -490.0625,1300.3438 C -489.9328,1300.7237 -489.84375,1301.1059 -489.84375,1301.5 C -489.84375,1301.8657 -489.92835,1302.1087 -490.0625,1302.2188 C -490.19676,1302.3253 -490.38145,1302.375 -490.625,1302.375 L -492.4375,1302.375 C -492.4375,1302.7052 -492.3948,1302.9979 -492.3125,1303.25 C -492.2283,1303.5021 -492.13651,1303.6847 -492,1303.8125 C -491.86118,1303.9403 -491.69738,1304 -491.53125,1304 C -491.41972,1304 -491.30978,1304.01 -491.21875,1303.969 C -491.12545,1303.926 -491.05521,1303.8354 -490.96875,1303.7502 C -490.88225,1303.6612 -490.79161,1303.5684 -490.71875,1303.469 C -490.64585,1303.369 -490.55359,1303.2331 -490.4375,1303.0627 C -490.3895,1302.9987 -490.30754,1302.9687 -490.21875,1302.9687 C -490.12315,1302.9687 -490.05917,1303.0117 -490,1303.0937 C -489.9408,1303.1757 -489.9063,1303.2883 -489.9063,1303.4374 C -489.9063,1303.5688 -489.9339,1303.7286 -490,1303.9061 C -490.0657,1304.0801 -490.17823,1304.2428 -490.3125,1304.4061 C -490.44452,1304.5659 -490.60994,1304.7059 -490.8125,1304.8124 C -491.01282,1304.9189 -491.23828,1304.9687 -491.5,1304.9687 C -492.09855,1304.9687 -492.57391,1304.72 -492.90625,1304.1874 C -493.23851,1303.6548 -493.40625,1302.9124 -493.40625,1301.9999 C -493.40625,1301.5703 -493.36335,1301.1781 -493.28125,1300.8124 C -493.19935,1300.4432 -493.06326,1300.1377 -492.90625,1299.8749 C -492.74925,1299.6122 -492.57361,1299.4196 -492.34375,1299.2811 C -492.11389,1299.1391 -491.8424,1299.0624 -491.5625,1299.0624 L -491.5625,1299.0625 L -491.5625,1299.0625 z M -491.5938,1300.0625 C -491.8259,1300.0625 -492.03735,1300.1854 -492.18755,1300.4375 C -492.33551,1300.686 -492.40569,1301.0725 -492.43755,1301.5625 L -490.75005,1301.5625 C -490.77245,1301.0654 -490.88102,1300.6825 -491.0313,1300.4375 C -491.17918,1300.189 -491.35025,1300.0625 -491.5938,1300.0625 z M -495.7813,1300.1565 C -495.95888,1300.1565 -496.11122,1300.2225 -496.25005,1300.3753 C -496.38888,1300.5244 -496.48289,1300.744 -496.56255,1301.0315 C -496.64265,1301.3156 -496.68755,1301.6687 -496.68755,1302.0628 C -496.68755,1302.6415 -496.60595,1303.0941 -496.43755,1303.4065 C -496.26686,1303.7154 -496.05671,1303.8441 -495.7813,1303.8441 C -495.54687,1303.8441 -495.32476,1303.6913 -495.1563,1303.3753 C -494.98561,1303.0558 -494.9063,1302.5932 -494.9063,1302.0003 C -494.9063,1301.6168 -494.9606,1301.3085 -495.0313,1301.0315 C -495.1018,1300.7546 -495.18285,1300.5244 -495.31255,1300.3753 C -495.44225,1300.2226 -495.60836,1300.1565 -495.7813,1300.1565 L -495.7813,1300.1565 z"
       id="rect13046"
       style="fill:#bebebe;fill-opacity:1;fill-rule:nonzero;stroke:none;stroke-width:2.00000024;marker:none;visibility:visible;display:inline;overflow:visible;enable-background:accumulate" />
    <g
       transform="matrix(0.8006278,0,0,1.2490198,-1338,1109.0019)"
       id="text13052"
       style="font-size:8.73264885px;font-style:normal;font-variant:normal;font-weight:bold;font-stretch:normal;text-align:start;line-height:125%;writing-mode:lr-tb;text-anchor:start;fill:#bebebe;fill-opacity:1;stroke:none;font-family:Arial Rounded CE;-inkscape-font-specification:Arial Rounded CE Bold">
      <path
         d="M 1044.0985,146.54214 L 1044.0985,144.55938 L 1042.572,142.19287 C 1042.4384,141.97968 1042.3432,141.81338 1042.2863,141.69398 C 1042.2323,141.5746 1042.2053,141.47084 1042.2053,141.38271 C 1042.2053,141.23774 1042.2603,141.11267 1042.3716,141.00748 C 1042.4853,140.90231 1042.6246,140.84972 1042.7895,140.84971 C 1042.9629,140.84972 1043.0937,140.89951 1043.1818,140.99895 C 1043.2728,141.09565 1043.4078,141.29033 1043.5869,141.58312 L 1044.7552,143.4806 L 1045.9363,141.58312 C 1046.0073,141.46658 1046.0671,141.36851 1046.1154,141.2889 C 1046.1634,141.2093 1046.2163,141.13541 1046.2732,141.06718 C 1046.3332,140.99608 1046.3982,140.94211 1046.4693,140.90515 C 1046.5403,140.86825 1046.6271,140.84975 1046.7294,140.84975 C 1046.8886,140.84976 1047.0208,140.90235 1047.126,141.00752 C 1047.234,141.10986 1047.288,141.22925 1047.288,141.3657 C 1047.288,141.47657 1047.261,141.58743 1047.207,141.69829 C 1047.153,141.80916 1047.0606,141.96266 1046.9298,142.1588 L 1045.443,144.55942 L 1045.443,146.54218 C 1045.443,146.80086 1045.383,146.99416 1045.264,147.12208 C 1045.1446,147.25 1044.9144,147.31396 1044.7296,147.31396 C 1044.542,147.31396 1044.3899,147.25146 1044.2734,147.12635 C 1044.1568,146.99843 1044.0985,146.8037 1044.0985,146.54218"
         id="path13072" />
      <path
         d="M 1051.8931,144.94741 C 1051.8931,145.29421 1051.8391,145.61401 1051.7311,145.9068 C 1051.623,146.1996 1051.4667,146.45117 1051.262,146.66153 C 1051.0574,146.87189 1050.8129,147.03392 1050.5286,147.14763 C 1050.2444,147.25849 1049.9246,147.31392 1049.5692,147.31392 C 1049.2167,147.31392 1048.8998,147.25712 1048.6184,147.14336 C 1048.3369,147.02966 1048.0925,146.86762 1047.885,146.65727 C 1047.6803,146.44407 1047.5239,146.19391 1047.4159,145.9068 C 1047.3107,145.61685 1047.2582,145.29706 1047.2582,144.94741 C 1047.2582,144.59492 1047.3122,144.27228 1047.4202,143.97948 C 1047.5282,143.68669 1047.6831,143.43654 1047.885,143.22902 C 1048.0868,143.02151 1048.3313,142.86232 1048.6184,142.75145 C 1048.9055,142.63775 1049.2224,142.5809 1049.5692,142.58089 C 1049.9217,142.5809 1050.2415,142.63779 1050.5286,142.75145 C 1050.8157,142.86516 1051.0616,143.0272 1051.2663,143.23755 C 1051.471,143.44791 1051.6259,143.69806 1051.7311,143.98801 C 1051.8391,144.27796 1051.8931,144.59776 1051.8931,144.94741 M 1050.7248,144.94741 C 1050.7248,144.47269 1050.6196,144.10314 1050.4092,143.83877 C 1050.2017,143.57441 1049.9217,143.44222 1049.5692,143.44222 C 1049.3418,143.44222 1049.1414,143.50192 1048.968,143.62131 C 1048.7946,143.73786 1048.661,143.91126 1048.5672,144.14151 C 1048.4732,144.37177 1048.4265,144.6404 1048.4265,144.94741 C 1048.4265,145.25157 1048.4715,145.51736 1048.5629,145.74477 C 1048.6569,145.97219 1048.7889,146.14701 1048.9595,146.26924 C 1049.1329,146.38864 1049.3361,146.44833 1049.5692,146.44833 C 1049.9217,146.44833 1050.2017,146.31615 1050.4092,146.05178 C 1050.6196,145.78457 1050.7248,145.41645 1050.7248,144.94741"
         id="path13074" />
      <path
         d="M 1055.5556,146.65727 L 1055.5556,146.50803 C 1055.3433,146.74876 1055.1817,147.09722 1054.8864,147.21585 C 1054.7045,147.27555 1054.6531,147.30535 1054.42,147.30535 C 1054.1386,147.30535 1053.8856,147.24705 1053.661,147.13053 C 1053.4393,147.01398 1053.2673,146.85337 1053.1451,146.6487 C 1053.0001,146.40139 1052.9276,146.04606 1052.9276,145.5827 L 1052.9276,143.27588 C 1052.9276,143.04279 1052.9806,142.86939 1053.0854,142.75568 C 1053.1905,142.63913 1053.3298,142.58086 1053.5032,142.58085 C 1053.6795,142.58086 1053.8216,142.63915 1053.9296,142.75568 C 1054.0376,142.87223 1054.0917,143.04563 1054.0917,143.27588 L 1054.0917,145.13925 C 1054.0917,145.4093 1054.1147,145.63671 1054.1597,145.82148 C 1054.2047,146.00342 1054.2862,146.14697 1054.4027,146.25215 C 1054.5221,146.35448 1054.5266,146.40565 1054.7285,146.40565 C 1055.1107,146.32285 1055.2895,146.05271 1055.3891,145.77458 C 1055.4471,145.61122 1055.4871,145.24869 1055.4871,144.69153 L 1055.4871,143.27588 C 1055.4871,143.04563 1055.5411,142.87223 1055.6492,142.75568 C 1055.7572,142.63913 1055.8979,142.58086 1056.0713,142.58085 C 1056.2447,142.58086 1056.384,142.63915 1056.4892,142.75568 C 1056.5944,142.86939 1056.6469,143.04279 1056.6469,143.27588 L 1056.6469,146.6487 C 1056.6469,146.87043 1056.5959,147.03672 1056.4934,147.14759 C 1056.3934,147.25845 1056.2646,147.31388 1056.1054,147.31388 C 1055.9462,147.31388 1055.814,147.25708 1055.7089,147.14332 C 1055.6065,147.02677 1055.5554,146.86474 1055.5554,146.65723"
         id="path13076" />
    </g>
  </g>
  <g
     transform="translate(510,-1284)"
     id="layer4" />
  <g
     transform="translate(510,-1284)"
     id="layer12" />
  <g
     transform="translate(510,-1284)"
     id="layer9" />
  <g
     transform="translate(510,-1284)"
     id="layer10" />
  <g
     transform="translate(510,-1284)"
     id="layer6" />
</svg>
