<?xml version="1.0" encoding="UTF-8" standalone="no"?>
<!-- Created with Inkscape (http://www.inkscape.org/) -->
<svg
   xmlns:svg="http://www.w3.org/2000/svg"
   xmlns="http://www.w3.org/2000/svg"
   version="1.0"
   width="24"
   height="24"
   id="svg7384">
  <title
     id="title9167">Moblin Icon Theme</title>
  <defs
     id="defs7386" />
  <g
     transform="translate(510,-1284)"
     id="layer3" />
  <g
     transform="translate(510,-1284)"
     id="layer5" />
  <g
     transform="translate(510,-1284)"
     id="layer7" />
  <g
     transform="translate(510,-1284)"
     id="layer2" />
  <g
     transform="translate(510,-1284)"
     id="layer8" />
  <g
     transform="translate(510,-2236.3622)"
     id="layer1" />
  <g
     transform="translate(510,-1284)"
     id="layer11">
    <rect
       width="24"
       height="24"
       x="-510"
       y="1284"
       id="rect12369"
       style="opacity:0;fill:#ffffff;fill-opacity:1;stroke:none;display:inline" />
    <path
       d="M -502,1292 L -502,1300 L -492,1296 L -502,1292 z"
       id="path12925"
       style="fill:#bebebe;fill-opacity:1;fill-rule:nonzero;stroke:none;stroke-width:3;marker:none;visibility:visible;display:inline;overflow:visible;enable-background:accumulate" />
    <path
       d="M -497.6875,1287.0625 C -500.12842,1287.009 -502.6808,1287.3004 -505.5625,1288 C -505.64888,1288.021 -505.72552,1288.0095 -505.8125,1288.0312 L -505.78125,1288.0938 C -506.69846,1288.2128 -507.41503,1288.9174 -507.5,1289.8438 L -507.5625,1289.8438 C -507.56995,1289.8959 -507.55523,1289.9478 -507.5625,1290 C -508.12919,1294.0666 -508.13045,1298.0845 -507.5625,1302 C -507.55507,1302.0512 -507.57013,1302.105 -507.5625,1302.1562 L -507.5,1302.1562 C -507.41503,1303.0826 -506.69846,1303.7872 -505.78125,1303.9062 L -505.8125,1303.9688 C -500.33412,1305.4629 -495.64289,1305.3786 -490.1875,1303.9688 L -490.21875,1303.9062 C -489.30154,1303.7872 -488.58497,1303.0826 -488.5,1302.1562 L -488.4375,1302.1562 C -488.42887,1302.1045 -488.44591,1302.0518 -488.4375,1302 C -487.78714,1297.9967 -487.78714,1294.0033 -488.4375,1290 C -488.44591,1289.9482 -488.42887,1289.8955 -488.4375,1289.8438 L -488.5,1289.8438 C -488.58629,1288.9031 -489.31309,1288.1632 -490.25,1288.0625 L -490.25,1288.0312 C -490.3035,1288.0203 -490.35286,1288.0109 -490.40625,1288 C -490.41666,1287.9979 -490.4271,1288.0021 -490.4375,1288 C -492.89171,1287.5017 -495.23708,1287.1162 -497.6875,1287.0625 z M -497.71875,1289.0625 C -495.37301,1289.1154 -493.09214,1289.4617 -490.625,1289.9688 L -490.53125,1290 L -490.4375,1290 L -490.4375,1290.0938 L -490.4375,1290.1562 C -489.7886,1294.0496 -489.7886,1297.9504 -490.4375,1301.8438 L -490.4375,1301.9062 L -490.4375,1302 L -490.5625,1302 L -490.6875,1302.0312 C -495.89877,1303.378 -500.12422,1303.4463 -505.3125,1302.0312 L -505.4375,1302 L -505.5625,1302 L -505.5625,1301.9375 L -505.5625,1301.8438 C -506.13122,1298.0252 -506.1329,1294.149 -505.5625,1290.1562 L -505.5625,1290.0625 L -505.5625,1290 L -505.4375,1290 L -505.3125,1289.9688 C -502.48194,1289.2596 -500.06449,1289.0096 -497.71875,1289.0625 z"
       id="rect12930"
       style="fill:#bebebe;fill-opacity:1;stroke:none;stroke-width:2.00000024;stroke-linecap:round;stroke-linejoin:miter;marker:none;stroke-miterlimit:4.30000019;stroke-dashoffset:0;stroke-opacity:1;visibility:visible;display:inline;overflow:visible;enable-background:accumulate" />
  </g>
  <g
     transform="translate(510,-1284)"
     id="layer4" />
  <g
     transform="translate(510,-1284)"
     id="layer12" />
  <g
     transform="translate(510,-1284)"
     id="layer9" />
  <g
     transform="translate(510,-1284)"
     id="layer10" />
  <g
     transform="translate(510,-1284)"
     id="layer6" />
</svg>
