<?xml version="1.0" encoding="UTF-8" standalone="no"?>
<!-- Created with Inkscape (http://www.inkscape.org/) -->
<svg
   xmlns:svg="http://www.w3.org/2000/svg"
   xmlns="http://www.w3.org/2000/svg"
   version="1.0"
   width="24.08523"
   height="24.000008"
   id="svg7384">
  <defs
     id="defs7386" />
  <g
     transform="translate(60.085231,-175.00454)"
     id="layer3" />
  <g
     transform="translate(60.085231,-175.00454)"
     id="layer5" />
  <g
     transform="translate(60.085231,-175.00454)"
     id="layer7" />
  <g
     transform="translate(60.085231,-175.00454)"
     id="layer2">
    <rect
       width="24"
       height="24"
       x="-60"
       y="175.00455"
       id="rect8816"
       style="fill:none;fill-opacity:1;stroke:none;display:inline" />
    <path
       d="M -53.50037,198.9966 C -55.421433,198.9966 -56.99851,197.41612 -56.99851,195.49506 C -56.99851,193.57399 -55.421433,191.99352 -53.50037,191.99352 C -51.579306,191.99352 -49.99883,193.57399 -49.99883,195.49506 C -49.99883,197.41612 -51.579307,198.9966 -53.50037,198.9966 z M -53.50037,196.99426 C -52.661432,196.99426 -52.001167,196.33399 -52.001167,195.49506 C -52.001167,194.65612 -52.661432,193.99585 -53.50037,193.99585 C -54.339308,193.99585 -54.999573,194.65612 -54.999573,195.49506 C -54.999573,196.33399 -54.339307,196.99426 -53.50037,196.99426 z"
       id="path3624-5"
       style="fill:#bebebe;fill-opacity:1;stroke:none;stroke-width:18.38477516;stroke-linecap:round;stroke-miterlimit:4;stroke-dasharray:none;stroke-dashoffset:0;stroke-opacity:1;display:inline" />
    <rect
       width="10.002711"
       height="2"
       rx="1"
       ry="1"
       x="-52.00647"
       y="186.00443"
       id="rect3626-2-4"
       style="fill:#bebebe;fill-opacity:1;stroke:none;display:inline" />
    <rect
       width="10.159429"
       height="2"
       rx="0.98780483"
       ry="0.98780483"
       x="-196.16946"
       y="-43.992798"
       transform="matrix(0,-1,1,0,0,0)"
       id="rect3626-5-1-1"
       style="fill:#bebebe;fill-opacity:1;stroke:none;display:inline" />
    <rect
       width="10.19043"
       height="2"
       rx="0.98780483"
       ry="0.98780483"
       x="-196.19485"
       y="-52.011475"
       transform="matrix(0,-1,1,0,0,0)"
       id="rect3694-1-6"
       style="fill:#bebebe;fill-opacity:1;stroke:none;display:inline" />
    <path
       d="M -45.50197,199.0062 C -47.423033,199.0062 -49.00011,197.42572 -49.00011,195.50466 C -49.00011,193.58359 -47.423033,192.00312 -45.50197,192.00312 C -43.580906,192.00312 -42.00043,193.58359 -42.00043,195.50466 C -42.00043,197.42572 -43.580907,199.0062 -45.50197,199.0062 z M -45.50197,197.00386 C -44.663032,197.00386 -44.002767,196.34359 -44.002767,195.50466 C -44.002767,194.66572 -44.663032,194.00545 -45.50197,194.00545 C -46.340908,194.00545 -47.001173,194.66572 -47.001173,195.50466 C -47.001173,196.34359 -46.340907,197.00386 -45.50197,197.00386 z"
       id="path3597-8"
       style="fill:#bebebe;fill-opacity:1;stroke:none;stroke-width:18.38477516;stroke-linecap:round;stroke-miterlimit:4;stroke-dasharray:none;stroke-dashoffset:0;stroke-opacity:1;display:inline" />
    <rect
       width="15"
       height="2"
       rx="0.99999994"
       ry="1"
       x="179.00443"
       y="-38"
       transform="matrix(0,1,1,0,0,0)"
       id="rect3634-6-6-8"
       style="fill:#bebebe;fill-opacity:1;stroke:none;display:inline" />
    <rect
       width="10"
       height="2"
       rx="1"
       ry="1"
       x="36"
       y="179.00443"
       transform="scale(-1,1)"
       id="rect3636-5-77-9"
       style="fill:#bebebe;fill-opacity:1;stroke:none;display:inline" />
    <rect
       width="5"
       height="2"
       rx="0.99999982"
       ry="1"
       x="36"
       y="192.00443"
       transform="scale(-1,1)"
       id="rect3638-5-5"
       style="fill:#bebebe;fill-opacity:1;stroke:none;display:inline" />
    <rect
       width="7"
       height="2"
       rx="0"
       ry="0"
       x="39"
       y="182.00443"
       transform="scale(-1,1)"
       id="rect7755-47-6"
       style="fill:#bebebe;fill-opacity:1;stroke:none;display:inline" />
    <rect
       width="2"
       height="2"
       rx="0"
       ry="0"
       x="39"
       y="188.00443"
       transform="scale(-1,1)"
       id="rect7757-5-7"
       style="fill:#dedede;fill-opacity:1;stroke:none;display:inline" />
    <rect
       width="8"
       height="2.0000205"
       rx="0"
       ry="0"
       x="182.00443"
       y="-41"
       transform="matrix(0,1,1,0,0,0)"
       id="rect7759-9-2"
       style="fill:#bebebe;fill-opacity:1;stroke:none;display:inline" />
    <rect
       width="15"
       height="1.9756097"
       rx="0.98780507"
       ry="0.98780483"
       x="-192.00443"
       y="-60"
       transform="matrix(0,-1,1,0,0,0)"
       id="rect3626-5-23-7"
       style="fill:#bebebe;fill-opacity:1;stroke:none;display:inline" />
    <rect
       width="6.9999895"
       height="2.0596206"
       rx="0"
       ry="0"
       x="-187.00443"
       y="-57.016846"
       transform="matrix(0,-1,1,0,0,0)"
       id="rect2929-19"
       style="fill:#bebebe;fill-opacity:1;stroke:none;display:inline" />
    <rect
       width="8.2623596"
       height="1.9756097"
       rx="0.98780477"
       ry="0.98780483"
       x="-185.00443"
       y="-48.98645"
       transform="matrix(0,-1,1,0,0,0)"
       id="rect2931-0"
       style="fill:#bebebe;fill-opacity:1;stroke:none;display:inline" />
    <rect
       width="4.9902172"
       height="2.0325203"
       rx="0"
       ry="0"
       x="-185.00443"
       y="-52.008179"
       transform="matrix(0,-1,1,0,0,0)"
       id="rect2934-2"
       style="fill:#bebebe;fill-opacity:1;stroke:none;display:inline" />
    <rect
       width="6.9917598"
       height="1.9864498"
       rx="0"
       ry="0"
       x="-56.995483"
       y="180.0087"
       id="rect2936-87"
       style="fill:#bebebe;fill-opacity:1;stroke:none;display:inline" />
    <rect
       width="4.0007935"
       height="2.0596206"
       rx="0"
       ry="0"
       x="-57.000854"
       y="184.94473"
       id="rect2938-6"
       style="fill:#bebebe;fill-opacity:1;stroke:none;display:inline" />
    <rect
       width="7.0169597"
       height="1.99729"
       rx="0.98780483"
       ry="0.98780483"
       x="-57.017578"
       y="177.00052"
       id="rect2940-8"
       style="fill:#bebebe;fill-opacity:1;stroke:none;display:inline" />
    <rect
       width="3.9755859"
       height="1.99729"
       rx="0.98780477"
       ry="0.98780483"
       x="53"
       y="-190.00162"
       transform="scale(-1,-1)"
       id="rect2859-3-1"
       style="fill:#bebebe;fill-opacity:1;stroke:none;display:inline" />
    <path
       d="M -59.016839,178.78552 C -59.567368,178.77586 -60.006534,178.32302 -59.99931,177.77246 C -59.99931,176.84639 -59.630873,175.95241 -58.976045,175.29758 C -58.724642,175.03897 -58.353468,174.93575 -58.004651,175.02746 C -57.655833,175.11917 -57.383415,175.39158 -57.291709,175.7404 C -57.200003,176.08922 -57.303218,176.46039 -57.56183,176.7118 C -57.88281,177.03277 -58.000373,177.31852 -58.000373,177.77246 C -57.996831,178.0428 -58.102896,178.30306 -58.294395,178.49392 C -58.485894,178.68478 -58.746508,178.78997 -59.016839,178.78552 z"
       id="path5800-8"
       style="fill:#bebebe;fill-opacity:1;stroke:none;stroke-width:18.38477516;stroke-linecap:round;stroke-miterlimit:4;stroke-dasharray:none;stroke-dashoffset:0;stroke-opacity:1;display:inline" />
    <path
       d="M -48.016839,178.78552 C -48.567368,178.77586 -49.006534,178.32302 -48.99931,177.77246 C -48.99931,176.84639 -48.630873,175.95241 -47.976045,175.29758 C -47.724642,175.03897 -47.353468,174.93575 -47.004651,175.02746 C -46.655833,175.11917 -46.383415,175.39158 -46.291709,175.7404 C -46.200003,176.08922 -46.303218,176.46039 -46.56183,176.7118 C -46.88281,177.03277 -47.000373,177.31852 -47.000373,177.77246 C -46.996831,178.0428 -47.102896,178.30306 -47.294395,178.49392 C -47.485894,178.68478 -47.746508,178.78997 -48.016839,178.78552 z"
       id="path5802-4"
       style="fill:#bebebe;fill-opacity:1;stroke:none;stroke-width:18.38477516;stroke-linecap:round;stroke-miterlimit:4;stroke-dasharray:none;stroke-dashoffset:0;stroke-opacity:1;display:inline" />
    <path
       d="M -56.016839,178.78552 C -56.567368,178.77586 -57.006534,178.32302 -56.99931,177.77246 C -56.99931,176.84639 -56.630873,175.95241 -55.976045,175.29758 C -55.724642,175.03897 -55.353468,174.93575 -55.004651,175.02746 C -54.655833,175.11917 -54.383415,175.39158 -54.291709,175.7404 C -54.200003,176.08922 -54.303218,176.46039 -54.56183,176.7118 C -54.88281,177.03277 -55.000373,177.31852 -55.000373,177.77246 C -54.996831,178.0428 -55.102896,178.30306 -55.294395,178.49392 C -55.485894,178.68478 -55.746508,178.78997 -56.016839,178.78552 z"
       id="path5804-8"
       style="fill:#bebebe;fill-opacity:1;stroke:none;stroke-width:18.38477516;stroke-linecap:round;stroke-miterlimit:4;stroke-dasharray:none;stroke-dashoffset:0;stroke-opacity:1;display:inline" />
    <path
       d="M -51.016839,178.78552 C -51.567368,178.77586 -52.006534,178.32302 -51.99931,177.77246 C -51.99931,176.84639 -51.630873,175.95241 -50.976045,175.29758 C -50.724642,175.03897 -50.353468,174.93575 -50.004651,175.02746 C -49.655833,175.11917 -49.383415,175.39158 -49.291709,175.7404 C -49.200003,176.08922 -49.303218,176.46039 -49.56183,176.7118 C -49.88281,177.03277 -50.000373,177.31852 -50.000373,177.77246 C -49.996831,178.0428 -50.102896,178.30306 -50.294395,178.49392 C -50.485894,178.68478 -50.746508,178.78997 -51.016839,178.78552 z"
       id="path5806-6"
       style="fill:#bebebe;fill-opacity:1;stroke:none;stroke-width:18.38477516;stroke-linecap:round;stroke-miterlimit:4;stroke-dasharray:none;stroke-dashoffset:0;stroke-opacity:1;display:inline" />
    <rect
       width="3"
       height="2.0000205"
       rx="0"
       ry="0"
       x="182.00443"
       y="-46"
       transform="matrix(0,1,1,0,0,0)"
       id="rect7643"
       style="fill:#bebebe;fill-opacity:1;stroke:none;display:inline" />
    <rect
       width="3.9808373"
       height="1.9756097"
       rx="0.98780495"
       ry="0.98780483"
       x="-191.99466"
       y="-56.975586"
       transform="matrix(0,-1,1,0,0,0)"
       id="rect7645"
       style="fill:#bebebe;fill-opacity:1;stroke:none;display:inline" />
    <path
       d="M -58.984039,190.22356 C -58.43351,190.23322 -57.994344,190.68606 -58.001568,191.23662 C -58.001568,191.54099 -58.041776,191.85031 -58.120552,192.1443 C -58.207511,192.49595 -58.477817,192.77308 -58.82718,192.86878 C -59.176544,192.96449 -59.550348,192.86379 -59.804373,192.60556 C -60.058398,192.34733 -60.15293,191.97192 -60.051498,191.62417 C -60.011218,191.47385 -60.000505,191.39226 -60.000505,191.23662 C -60.004047,190.96628 -59.897982,190.70602 -59.706483,190.51516 C -59.514984,190.3243 -59.25437,190.21911 -58.984039,190.22356 z"
       id="path7651"
       style="fill:#bebebe;fill-opacity:1;stroke:none;stroke-width:18.38477516;stroke-linecap:round;stroke-miterlimit:4;stroke-dasharray:none;stroke-dashoffset:0;stroke-opacity:1;display:inline" />
  </g>
  <g
     transform="translate(60.085231,-175.00454)"
     id="layer8" />
  <g
     transform="translate(60.085231,-1127.3667)"
     id="layer1" />
  <g
     transform="translate(60.085231,-175.00454)"
     id="layer4" />
  <g
     transform="translate(60.085231,-175.00454)"
     id="layer9" />
  <g
     transform="translate(60.085231,-175.00454)"
     id="layer6" />
</svg>
