<?xml version="1.0" encoding="UTF-8" standalone="no"?>
<!-- Created with Inkscape (http://www.inkscape.org/) -->
<svg
   xmlns:svg="http://www.w3.org/2000/svg"
   xmlns="http://www.w3.org/2000/svg"
   version="1.0"
   width="24.003773"
   height="24.061144"
   id="svg7384">
  <defs
     id="defs7386" />
  <g
     transform="translate(60.003772,-173.9434)"
     id="layer3" />
  <g
     transform="translate(60.003772,-173.9434)"
     id="layer5" />
  <g
     transform="translate(60.003772,-173.9434)"
     id="layer7" />
  <g
     transform="translate(60.003772,-173.9434)"
     id="layer2">
    <rect
       width="24"
       height="24"
       x="-60"
       y="174.00455"
       id="rect8816"
       style="fill:none;stroke:none;display:inline" />
    <path
       d="M -53.50037,197.9966 C -55.421433,197.9966 -56.99851,196.41612 -56.99851,194.49506 C -56.99851,192.57399 -55.421433,190.99352 -53.50037,190.99352 C -51.579306,190.99352 -49.99883,192.57399 -49.99883,194.49506 C -49.99883,196.41612 -51.579307,197.9966 -53.50037,197.9966 z M -53.50037,195.99426 C -52.661432,195.99426 -52.001167,195.33399 -52.001167,194.49506 C -52.001167,193.65612 -52.661432,192.99585 -53.50037,192.99585 C -54.339308,192.99585 -54.999573,193.65612 -54.999573,194.49506 C -54.999573,195.33399 -54.339307,195.99426 -53.50037,195.99426 z"
       id="path3624-5"
       style="fill:#bebebe;fill-opacity:1;stroke:none;stroke-width:18.38477516;stroke-linecap:round;stroke-miterlimit:4;stroke-dasharray:none;stroke-dashoffset:0;stroke-opacity:1;display:inline" />
    <path
       d="M -45.50197,198.0062 C -47.423033,198.0062 -49.00011,196.42572 -49.00011,194.50466 C -49.00011,192.58359 -47.423033,191.00312 -45.50197,191.00312 C -43.580906,191.00312 -42.00043,192.58359 -42.00043,194.50466 C -42.00043,196.42572 -43.580907,198.0062 -45.50197,198.0062 z M -45.50197,196.00386 C -44.663032,196.00386 -44.002767,195.34359 -44.002767,194.50466 C -44.002767,193.66572 -44.663032,193.00545 -45.50197,193.00545 C -46.340908,193.00545 -47.001173,193.66572 -47.001173,194.50466 C -47.001173,195.34359 -46.340907,196.00386 -45.50197,196.00386 z"
       id="path3597-8"
       style="fill:#bebebe;fill-opacity:1;stroke:none;stroke-width:18.38477516;stroke-linecap:round;stroke-miterlimit:4;stroke-dasharray:none;stroke-dashoffset:0;stroke-opacity:1;display:inline" />
    <path
       d="M -48.016839,177.78552 C -48.567368,177.77586 -49.006534,177.32302 -48.99931,176.77246 C -48.99931,175.84639 -48.630873,174.95241 -47.976045,174.29758 C -47.724642,174.03897 -47.353468,173.93575 -47.004651,174.02746 C -46.655833,174.11917 -46.383415,174.39158 -46.291709,174.7404 C -46.200003,175.08922 -46.303218,175.46039 -46.56183,175.7118 C -46.88281,176.03277 -47.000373,176.31852 -47.000373,176.77246 C -46.996831,177.0428 -47.102896,177.30306 -47.294395,177.49392 C -47.485894,177.68478 -47.746508,177.78997 -48.016839,177.78552 z"
       id="path5802-4"
       style="fill:#bebebe;fill-opacity:1;stroke:none;stroke-width:18.38477516;stroke-linecap:round;stroke-miterlimit:4;stroke-dasharray:none;stroke-dashoffset:0;stroke-opacity:1;display:inline" />
    <path
       d="M -59.125,175.96875 C -59.640116,176.0333 -60.020198,176.48125 -60,177 L -60,190.9375 C -60.005111,191.29814 -59.815637,191.6336 -59.504135,191.81541 C -59.192634,191.99722 -58.807366,191.99722 -58.495865,191.81541 C -58.184363,191.6336 -57.994889,191.29814 -58,190.9375 L -58,177 C -57.988514,176.70626 -58.106845,176.42234 -58.323544,176.2237 C -58.540244,176.02506 -58.833362,175.93181 -59.125,175.96875 z"
       id="path8869"
       style="fill:#bebebe;fill-opacity:1;stroke:none;stroke-width:2.00000072;stroke-linecap:round;stroke-linejoin:miter;marker:none;stroke-miterlimit:4;stroke-dasharray:none;stroke-dashoffset:0;stroke-opacity:1;visibility:visible;display:inline;overflow:visible;enable-background:accumulate" />
    <path
       d="M -56.5,177 C -56.776142,177.02589 -56.979013,177.27073 -56.953125,177.54688 C -56.927237,177.82302 -56.682392,178.02589 -56.40625,178 L -50.59375,178 C -50.413433,178.00255 -50.245711,177.90781 -50.154808,177.75206 C -50.063905,177.59631 -50.063905,177.40369 -50.154808,177.24794 C -50.245711,177.09219 -50.413433,176.99745 -50.59375,177 L -56.40625,177 C -56.437431,176.99706 -56.468819,176.99706 -56.5,177 z"
       id="path8871"
       style="fill:#bebebe;fill-opacity:1;stroke:none;stroke-width:0.99999994;stroke-linecap:round;stroke-linejoin:miter;marker:none;stroke-miterlimit:4;stroke-dasharray:none;stroke-dashoffset:0;stroke-opacity:1;visibility:visible;display:inline;overflow:visible;enable-background:accumulate" />
    <path
       d="M -57,179 L -57,179.5 L -57,185.53125 L -57,186.03125 L -56.5,186.03125 L -54.09375,186.03125 C -53.913432,186.0338 -53.745709,185.93906 -53.654806,185.78331 C -53.563903,185.62756 -53.563903,185.43494 -53.654806,185.27919 C -53.745709,185.12344 -53.913432,185.0287 -54.09375,185.03125 L -56,185.03125 L -56,180 L -51,180 L -51,182.84375 C -51.00255,183.02407 -50.907812,183.19179 -50.752064,183.28269 C -50.596315,183.3736 -50.403685,183.3736 -50.247936,183.28269 C -50.092188,183.19179 -49.99745,183.02407 -50,182.84375 L -50,179.5 L -50,179 L -50.5,179 L -56.5,179 L -57,179 z"
       id="path8873"
       style="fill:#bebebe;fill-opacity:1;stroke:none;stroke-width:1;stroke-linecap:round;stroke-linejoin:miter;marker:none;stroke-miterlimit:4;stroke-dasharray:none;stroke-dashoffset:0;stroke-opacity:1;visibility:visible;display:inline;overflow:visible;enable-background:accumulate" />
    <path
       d="M -57,187 L -57,187.5 L -57,189.53125 C -57.00255,189.71157 -56.907812,189.87929 -56.752064,189.97019 C -56.596315,190.0611 -56.403685,190.0611 -56.247936,189.97019 C -56.092188,189.87929 -55.99745,189.71157 -56,189.53125 L -56,188 L -54.4375,188 C -54.257182,188.00255 -54.089459,187.90781 -53.998556,187.75206 C -53.907653,187.59631 -53.907653,187.40369 -53.998556,187.24794 C -54.089459,187.09219 -54.257182,186.99745 -54.4375,187 L -56.5,187 L -57,187 z"
       id="path8875"
       style="fill:#bebebe;fill-opacity:1;stroke:none;stroke-width:1;stroke-linecap:round;stroke-linejoin:miter;marker:none;stroke-miterlimit:4;stroke-dasharray:none;stroke-dashoffset:0;stroke-opacity:1;visibility:visible;display:inline;overflow:visible;enable-background:accumulate" />
    <path
       d="M -51.96875,185 L -51.96875,186 L -51.96875,193.96875 C -51.973861,194.32939 -51.784387,194.66485 -51.472885,194.84666 C -51.161384,195.02847 -50.776116,195.02847 -50.464615,194.84666 C -50.153113,194.66485 -49.963639,194.32939 -49.96875,193.96875 L -49.96875,187 L -44,187 L -44,194 C -44.005111,194.36064 -43.815637,194.6961 -43.504135,194.87791 C -43.192634,195.05972 -42.807366,195.05972 -42.495865,194.87791 C -42.184363,194.6961 -41.994889,194.36064 -42,194 L -42,186 L -42,185 L -43,185 L -50.96875,185 L -51.96875,185 z"
       id="path8877"
       style="fill:#bebebe;fill-opacity:1;stroke:none;stroke-width:2.00000072;stroke-linecap:round;stroke-linejoin:miter;marker:none;stroke-miterlimit:4;stroke-dasharray:none;stroke-dashoffset:0;stroke-opacity:1;visibility:visible;display:inline;overflow:visible;enable-background:accumulate" />
    <path
       d="M -48.21875,175.9375 C -48.684378,176.04178 -49.011486,176.46048 -49,176.9375 L -49,183 C -49.005111,183.36064 -48.815637,183.6961 -48.504135,183.87791 C -48.192634,184.05972 -47.807366,184.05972 -47.495865,183.87791 C -47.184363,183.6961 -46.994889,183.36064 -47,183 L -47,176.9375 C -46.992561,176.62964 -47.127363,176.33553 -47.365428,176.14019 C -47.603493,175.94485 -47.918273,175.87008 -48.21875,175.9375 z"
       id="path8879"
       style="fill:#bebebe;fill-opacity:1;stroke:none;stroke-width:2.00000072;stroke-linecap:round;stroke-linejoin:miter;marker:none;stroke-miterlimit:4;stroke-dasharray:none;stroke-dashoffset:0;stroke-opacity:1;visibility:visible;display:inline;overflow:visible;enable-background:accumulate" />
    <path
       d="M -45.09375,178 C -45.646035,178.02589 -46.072763,178.49459 -46.046875,179.04688 C -46.020987,179.59916 -45.552285,180.02589 -45,180 L -38,180 L -38,191 L -40,191 C -40.360643,190.99489 -40.696099,191.18436 -40.877912,191.49586 C -41.059724,191.80737 -41.059724,192.19263 -40.877912,192.50414 C -40.696099,192.81564 -40.360643,193.00511 -40,193 L -37,193 L -36,193 L -36,192 L -36,179 L -36,178 L -37,178 L -45,178 C -45.031233,177.99853 -45.062517,177.99853 -45.09375,178 L -45.09375,178 z"
       id="path8881"
       style="fill:#bebebe;fill-opacity:1;stroke:none;stroke-width:2.00000072;stroke-linecap:round;stroke-linejoin:miter;marker:none;stroke-miterlimit:4;stroke-dasharray:none;stroke-dashoffset:0;stroke-opacity:1;visibility:visible;display:inline;overflow:visible;enable-background:accumulate" />
    <path
       d="M -45.9375,181 L -45.9375,181.5 L -45.9375,182.5 C -45.94005,182.68032 -45.845312,182.84804 -45.689564,182.93894 C -45.533815,183.02985 -45.341185,183.02985 -45.185436,182.93894 C -45.029688,182.84804 -44.93495,182.68032 -44.9375,182.5 L -44.9375,182 L -39.96875,182 L -39.96875,187 L -40.5625,187 C -40.742818,186.99745 -40.910541,187.09219 -41.001444,187.24794 C -41.092347,187.40369 -41.092347,187.59631 -41.001444,187.75206 C -40.910541,187.90781 -40.742818,188.00255 -40.5625,188 L -39.46875,188 L -38.96875,188 L -38.96875,187.5 L -38.96875,181.5 L -38.96875,181 L -39.46875,181 L -45.4375,181 L -45.9375,181 z"
       id="path8883"
       style="fill:#bebebe;fill-opacity:1;stroke:none;stroke-width:1;stroke-linecap:round;stroke-linejoin:miter;marker:none;stroke-miterlimit:4;stroke-dasharray:none;stroke-dashoffset:0;stroke-opacity:1;visibility:visible;display:inline;overflow:visible;enable-background:accumulate" />
    <path
       d="M -50.518411,177.84669 C -50.755851,177.82332 -50.943708,177.63546 -50.967077,177.39802 C -51.096143,176.2668 -50.899262,175.21723 -50.368856,174.20977 C -50.239328,173.96573 -49.936494,173.8729 -49.692457,174.00243 C -49.44842,174.13196 -49.355592,174.43479 -49.485119,174.67883 C -49.933875,175.5312 -50.076973,176.32538 -49.967775,177.28245 C -49.947069,177.43507 -49.997844,177.58871 -50.105411,177.69893 C -50.212979,177.80916 -50.365337,177.86366 -50.518411,177.84669 L -50.518411,177.84669 z"
       id="path8976"
       style="fill:#bebebe;fill-opacity:1;stroke:none;stroke-width:4.59695911;stroke-linecap:round;stroke-miterlimit:4;stroke-dasharray:none;stroke-dashoffset:0;stroke-opacity:1;display:inline" />
    <path
       d="M -56.518407,177.84669 C -56.755847,177.82332 -56.943704,177.63546 -56.967073,177.39802 C -57.096139,176.2668 -56.899258,175.21723 -56.368852,174.20977 C -56.239324,173.96573 -55.93649,173.8729 -55.692453,174.00243 C -55.448416,174.13196 -55.355588,174.43479 -55.485115,174.67883 C -55.933871,175.5312 -56.076969,176.32538 -55.967771,177.28245 C -55.947065,177.43507 -55.99784,177.58871 -56.105407,177.69893 C -56.212975,177.80916 -56.365333,177.86366 -56.518407,177.84669 L -56.518407,177.84669 z"
       id="path8978"
       style="fill:#bebebe;fill-opacity:1;stroke:none;stroke-width:4.59695911;stroke-linecap:round;stroke-miterlimit:4;stroke-dasharray:none;stroke-dashoffset:0;stroke-opacity:1;display:inline" />
    <path
       d="M -58.970821,178.35653 C -59.484845,178.355 -59.914001,177.96406 -59.963325,177.4524 C -60.074835,176.47505 -59.956181,175.53576 -59.603033,174.61765 C -59.404049,174.10142 -58.824251,173.84424 -58.308019,174.04322 C -57.791787,174.2422 -57.534606,174.822 -57.73359,175.33823 C -57.986922,175.99684 -58.051511,176.52697 -57.971519,177.22807 C -57.934427,177.51461 -58.023068,177.80318 -58.214617,178.01949 C -58.406165,178.2358 -58.681901,178.35869 -58.970821,178.35653 z"
       id="path8980"
       style="fill:#bebebe;fill-opacity:1;stroke:none;stroke-width:9.19391918;stroke-linecap:round;stroke-miterlimit:4;stroke-dasharray:none;stroke-dashoffset:0;stroke-opacity:1;display:inline" />
  </g>
  <g
     transform="translate(60.003772,-173.9434)"
     id="layer8" />
  <g
     transform="translate(60.003772,-1126.3056)"
     id="layer1" />
  <g
     transform="translate(60.003772,-173.9434)"
     id="layer4" />
  <g
     transform="translate(60.003772,-173.9434)"
     id="layer9" />
  <g
     transform="translate(60.003772,-173.9434)"
     id="layer6" />
</svg>
