<?xml version="1.0" encoding="UTF-8" standalone="no"?>
<!-- Created with Inkscape (http://www.inkscape.org/) -->
<svg
   xmlns:svg="http://www.w3.org/2000/svg"
   xmlns="http://www.w3.org/2000/svg"
   version="1.0"
   width="24"
   height="24"
   id="svg7384">
  <defs
     id="defs7386" />
  <g
     transform="translate(-138,-174)"
     id="layer3" />
  <g
     transform="translate(-138,-174)"
     id="layer5" />
  <g
     transform="translate(-138,-174)"
     id="layer7" />
  <g
     transform="translate(-138,-174)"
     id="layer2">
    <rect
       width="24"
       height="24"
       x="-162"
       y="174"
       transform="scale(-1,1)"
       id="rect11021"
       style="opacity:0;fill:#f5f5f5;fill-opacity:1;stroke:none;display:inline" />
    <path
       d="M 146.40191,176.06174 C 144.84541,176.02453 143.26045,176.55383 142.02583,177.68131 C 139.47613,180.00976 139.2802,184.01113 141.59809,186.57241 C 141.97062,186.98314 142.60405,187.01273 143.01292,186.63852 C 143.42178,186.2643 143.45124,185.62799 143.07872,185.21726 C 141.48709,183.4585 141.62405,180.76754 143.37485,179.16867 C 145.07584,177.61529 147.63894,177.66797 149.26446,179.30088 C 149.65515,179.69335 150.28859,179.69335 150.67929,179.30088 C 151.06998,178.90841 151.06998,178.27209 150.67929,177.87962 C 149.49945,176.69442 147.95841,176.09895 146.40191,176.06174 z"
       id="path11027"
       style="fill:#bebebe;fill-opacity:1;stroke:none;stroke-width:1.89522815;stroke-linecap:round;stroke-linejoin:round;marker:none;stroke-miterlimit:4;stroke-dasharray:none;stroke-dashoffset:0;stroke-opacity:1;visibility:visible;display:inline;overflow:visible;enable-background:accumulate" />
    <path
       d="M 142.34375,184.875 C 141.93202,184.86531 141.55645,185.10902 141.39756,185.48898 C 141.23867,185.86894 141.32894,186.30745 141.625,186.59375 L 149.34375,194.34375 C 149.73337,194.72894 150.36038,194.72894 150.75,194.34375 L 158.4375,186.59375 C 158.73567,186.35347 158.87047,185.96402 158.78462,185.59083 C 158.69877,185.21763 158.40737,184.92623 158.03417,184.84038 C 157.66098,184.75453 157.27153,184.88933 157.03125,185.1875 L 150.0625,192.1875 L 143.0625,185.1875 C 142.87541,184.98989 142.61587,184.87704 142.34375,184.875 L 142.34375,184.875 z"
       id="path11031"
       style="fill:#bebebe;fill-opacity:1;stroke:none;stroke-width:2;stroke-linecap:round;stroke-linejoin:round;marker:none;stroke-miterlimit:4;stroke-dasharray:none;stroke-dashoffset:0;stroke-opacity:1;visibility:visible;display:inline;overflow:visible;enable-background:accumulate" />
    <path
       d="M 153.77738,176.06097 C 152.1725,176.06097 150.55378,176.65503 149.3355,177.87885 C 148.9448,178.27132 148.9448,178.90763 149.3355,179.3001 C 149.72619,179.69257 150.35963,179.69257 150.75032,179.3001 C 152.42344,177.61938 155.13133,177.61938 156.80445,179.3001 C 158.41288,180.91585 158.47017,183.46673 156.96896,185.18343 C 156.60553,185.60328 156.64972,186.2396 157.06767,186.60469 C 157.48562,186.96978 158.11906,186.92538 158.48249,186.50553 C 160.65922,184.01635 160.55146,180.22165 158.21927,177.87885 C 157.00099,176.65503 155.38226,176.06097 153.77738,176.06097 z"
       id="path11054"
       style="fill:#bebebe;fill-opacity:1;stroke:none;stroke-width:1.89522815;stroke-linecap:round;stroke-linejoin:round;marker:none;stroke-miterlimit:4;stroke-dasharray:none;stroke-dashoffset:0;stroke-opacity:1;visibility:visible;display:inline;overflow:visible;enable-background:accumulate" />
  </g>
  <g
     transform="translate(-138,-174)"
     id="layer8" />
  <g
     transform="translate(-138,-1126.3622)"
     id="layer1" />
  <g
     transform="translate(-138,-174)"
     id="layer4" />
  <g
     transform="translate(-138,-174)"
     id="layer9" />
  <g
     transform="translate(-138,-174)"
     id="layer6" />
</svg>
