<?xml version="1.0" encoding="UTF-8" standalone="no"?>
<!-- Created with Inkscape (http://www.inkscape.org/) -->
<svg
   xmlns:svg="http://www.w3.org/2000/svg"
   xmlns="http://www.w3.org/2000/svg"
   version="1.0"
   width="24.000441"
   height="24"
   id="svg7384">
  <defs
     id="defs7386" />
  <g
     transform="translate(-109.99956,-174)"
     id="layer3" />
  <g
     transform="translate(-109.99956,-174)"
     id="layer5" />
  <g
     transform="translate(-109.99956,-174)"
     id="layer7" />
  <g
     transform="translate(-109.99956,-174)"
     id="layer2">
    <rect
       width="24"
       height="24"
       x="-134"
       y="174"
       transform="scale(-1,1)"
       id="rect10982"
       style="opacity:0;fill:#f5f5f5;fill-opacity:1;stroke:none;display:inline" />
    <path
       d="M 117.9375,181.96875 C 117.67169,181.98718 117.42423,182.11091 117.25,182.3125 L 110.25,190.3125 C 109.99348,190.60756 109.93243,191.02505 110.09371,191.38121 C 110.25499,191.73737 110.60903,191.96689 111,191.96875 L 111,197 C 111.00006,197.55226 111.44774,197.99994 112,198 L 124,198 C 124.55226,197.99994 124.99994,197.55226 125,197 L 125,191.90625 C 125.37971,191.88137 125.7124,191.64316 125.85829,191.29171 C 126.00417,190.94026 125.93797,190.53647 125.6875,190.25 L 118.75,182.3125 C 118.54707,182.0782 118.24697,181.95123 117.9375,181.96875 z M 118,184.5 L 123.15625,190.375 C 123.0552,190.53385 123.00104,190.71799 123,190.90625 L 123,196 L 113,196 L 113,191.15625 C 113.00407,191.10425 113.00407,191.052 113,191 C 113.00502,190.80113 112.95062,190.60529 112.84375,190.4375 L 118,184.5 z"
       id="path10994"
       style="fill:#bebebe;fill-opacity:1;stroke:none;stroke-width:2;stroke-linecap:round;stroke-linejoin:round;marker:none;stroke-miterlimit:4;stroke-dasharray:none;stroke-dashoffset:0;stroke-opacity:1;visibility:visible;display:inline;overflow:visible;enable-background:accumulate" />
    <path
       d="M 124.90625,174.03125 C 124.67399,174.07224 124.46369,174.19399 124.3125,174.375 L 119.21875,180.1875 C 118.9473,180.44966 118.84653,180.8423 118.95819,181.20279 C 119.06985,181.56327 119.37492,181.8302 119.74704,181.89302 C 120.11915,181.95584 120.49494,181.80385 120.71875,181.5 L 125.0625,176.53125 L 130.21875,182.40625 C 130.1177,182.5651 130.06354,182.74924 130.0625,182.9375 L 130.0625,188.03125 L 127.0625,188.03125 C 126.70186,188.02615 126.36642,188.21563 126.18461,188.52712 C 126.00281,188.83862 126.00281,189.22388 126.18461,189.53538 C 126.36642,189.84687 126.70186,190.03635 127.0625,190.03125 L 131.0625,190.03125 C 131.61476,190.03119 132.06244,189.58351 132.0625,189.03125 L 132.0625,183.9375 C 132.44221,183.91262 132.7749,183.67441 132.92079,183.32296 C 133.06667,182.97151 133.00047,182.56772 132.75,182.28125 L 125.8125,174.375 C 125.58983,174.11191 125.24739,173.98202 124.90625,174.03125 z"
       id="path11017"
       style="fill:#bebebe;fill-opacity:1;stroke:none;stroke-width:2;stroke-linecap:round;stroke-linejoin:round;marker:none;stroke-miterlimit:4;stroke-dasharray:none;stroke-dashoffset:0;stroke-opacity:1;visibility:visible;display:inline;overflow:visible;enable-background:accumulate" />
  </g>
  <g
     transform="translate(-109.99956,-174)"
     id="layer8" />
  <g
     transform="translate(-109.99956,-1126.3622)"
     id="layer1" />
  <g
     transform="translate(-109.99956,-174)"
     id="layer4" />
  <g
     transform="translate(-109.99956,-174)"
     id="layer9" />
  <g
     transform="translate(-109.99956,-174)"
     id="layer6" />
</svg>
