<?xml version="1.0" encoding="UTF-8" standalone="no"?>
<!-- Created with Inkscape (http://www.inkscape.org/) -->
<svg
   xmlns:svg="http://www.w3.org/2000/svg"
   xmlns="http://www.w3.org/2000/svg"
   version="1.0"
   width="24"
   height="24.000599"
   id="svg7384">
  <defs
     id="defs7386" />
  <g
     transform="translate(-166,-173.9994)"
     id="layer3" />
  <g
     transform="translate(-166,-173.9994)"
     id="layer5" />
  <g
     transform="translate(-166,-173.9994)"
     id="layer7" />
  <g
     transform="translate(-166,-173.9994)"
     id="layer2">
    <g
       transform="translate(399.5,-0.5)"
       id="g11056">
      <rect
         width="24"
         height="24"
         x="209.5"
         y="174.5"
         transform="scale(-1,1)"
         id="rect11058"
         style="opacity:0;fill:#f5f5f5;fill-opacity:1;stroke:none;display:inline" />
    </g>
    <path
       d="M 174.875,178.0625 C 174.65106,178.08671 174.44185,178.18581 174.28125,178.34375 L 170.34375,182.1875 C 170.14614,182.37459 170.03329,182.63413 170.03125,182.90625 L 170.03125,195.03125 C 170.03131,195.58351 170.47899,196.03119 171.03125,196.03125 L 183.0625,196.03125 C 183.61476,196.03119 184.06244,195.58351 184.0625,195.03125 L 184.0625,182.96875 C 184.0687,182.70119 183.9674,182.4423 183.78125,182.25 L 179.6875,178.34375 C 179.50294,178.16522 179.25678,178.06451 179,178.0625 L 174.96875,178.0625 C 174.93752,178.06103 174.90623,178.06103 174.875,178.0625 z M 175.375,180.0625 L 178.5625,180.0625 L 182.0625,183.375 L 182.0625,194.03125 L 172.03125,194.03125 L 172.03125,183.3125 L 175.375,180.0625 z"
       id="path11066"
       style="fill:#bebebe;fill-opacity:1;stroke:none;stroke-width:2;stroke-linecap:round;stroke-linejoin:round;marker:none;stroke-miterlimit:4;stroke-dasharray:none;stroke-dashoffset:0;stroke-opacity:1;visibility:visible;display:inline;overflow:visible;enable-background:accumulate" />
    <path
       d="M 176.99597,182.00151 C 175.89744,182.00151 174.99249,182.90644 174.9925,184.00498 C 174.9925,185.10351 175.89743,185.99162 176.99597,185.99161 C 178.0945,185.99161 178.99944,185.10351 178.99944,184.00498 C 178.99944,182.90645 178.0945,182.0015 176.99597,182.00151 z M 176.99597,182.99483 C 177.55343,182.99483 178.00612,183.44751 178.00612,184.00498 C 178.00612,184.56245 177.55344,184.9983 176.99597,184.9983 C 176.4385,184.9983 176.00265,184.56245 176.00265,184.00498 C 176.00265,183.44751 176.4385,182.99483 176.99597,182.99483 z"
       id="path11076"
       style="fill:#bebebe;fill-opacity:1;stroke:none;stroke-width:1.8561554;stroke-linecap:round;stroke-linejoin:round;marker:none;stroke-miterlimit:4;stroke-dasharray:none;stroke-dashoffset:0;stroke-opacity:1;visibility:visible;display:inline;overflow:visible;enable-background:accumulate" />
    <path
       d="M 181.00314,174.02681 C 180.15778,174.08702 179.29863,174.30601 178.49925,174.7147 C 175.30173,176.34945 174.03043,180.29455 175.66518,183.49207 C 175.91592,183.98595 176.51955,184.18305 177.01343,183.93232 C 177.50731,183.68158 177.70441,183.07795 177.45367,182.58407 C 176.31152,180.35005 177.17324,177.64534 179.40726,176.50319 C 181.64128,175.36104 184.3735,176.22275 185.51565,178.45677 C 186.6578,180.6908 185.76857,183.42301 183.53455,184.56517 C 183.25114,184.71006 183.04245,184.77965 182.73661,184.86784 C 182.20474,185.0198 181.89676,185.57415 182.04872,186.10602 C 182.20069,186.63789 182.75504,186.94587 183.28691,186.79391 C 183.69714,186.67563 184.06241,186.5205 184.44255,186.32615 C 187.64008,184.69139 188.91138,180.74629 187.27663,177.54877 C 186.05056,175.15063 183.53924,173.84618 181.00314,174.02681 z"
       id="path11078"
       style="fill:#bebebe;fill-opacity:1;stroke:none;stroke-width:2.27146482;stroke-linecap:round;stroke-linejoin:round;marker:none;stroke-miterlimit:4;stroke-dasharray:none;stroke-dashoffset:0;stroke-opacity:1;visibility:visible;display:inline;overflow:visible;enable-background:accumulate" />
  </g>
  <g
     transform="translate(-166,-173.9994)"
     id="layer8" />
  <g
     transform="translate(-166,-1126.3616)"
     id="layer1" />
  <g
     transform="translate(-166,-173.9994)"
     id="layer4" />
  <g
     transform="translate(-166,-173.9994)"
     id="layer9" />
  <g
     transform="translate(-166,-173.9994)"
     id="layer6" />
</svg>
