<?xml version="1.0" encoding="UTF-8" standalone="no"?>
<!-- Created with Inkscape (http://www.inkscape.org/) -->
<svg
   xmlns:svg="http://www.w3.org/2000/svg"
   xmlns="http://www.w3.org/2000/svg"
   version="1.0"
   width="24"
   height="24.000063"
   id="svg7384">
  <defs
     id="defs7386" />
  <g
     transform="translate(3.9999883,-175.00455)"
     id="layer3" />
  <g
     transform="translate(3.9999883,-175.00455)"
     id="layer5" />
  <g
     transform="translate(3.9999883,-175.00455)"
     id="layer7" />
  <g
     transform="translate(3.9999883,-175.00455)"
     id="layer2">
    <rect
       width="24"
       height="24"
       x="-3.9999883"
       y="175.00455"
       id="rect8816-0"
       style="fill:none;fill-opacity:1;stroke:none;display:inline" />
    <path
       d="M 0.40625,179 C -1.5154527,179 -3.09375,180.5783 -3.09375,182.5 C -3.09375,184.4217 -1.5154527,186 0.40625,186 L 5.40625,186 C 7.3279527,186 8.9062503,184.4217 8.90625,182.5 C 8.90625,180.5783 7.3279529,179 5.40625,179 L 0.40625,179 z M 0.40625,181 L 5.40625,181 C 6.2545476,181 6.90625,181.6517 6.90625,182.5 C 6.9062501,183.3483 6.2545473,184 5.40625,184 L 0.40625,184 C -0.44204726,184 -1.09375,183.3483 -1.09375,182.5 C -1.09375,181.6517 -0.44204726,181 0.40625,181 z"
       id="rect11931"
       style="fill:#bebebe;fill-opacity:1;stroke:none;stroke-width:1.99999988;stroke-linecap:round;stroke-linejoin:miter;marker:none;stroke-miterlimit:4;stroke-dasharray:none;stroke-dashoffset:0;stroke-opacity:1;visibility:visible;display:inline;overflow:visible;enable-background:accumulate" />
    <path
       d="M 12.84375,175 C 11.212049,175 9.96875,176.42917 9.96875,178.0625 L 9.96875,186.9375 L 11.96875,186.9375 L 11.96875,178.0625 C 11.96875,177.41057 12.386074,177 12.84375,177 L 13.03125,177 C 13.488925,177 13.90625,177.41057 13.90625,178.0625 L 13.90625,187 L 15.90625,187 L 15.90625,178.0625 C 15.90625,176.42917 14.662953,175 13.03125,175 L 12.84375,175 z M 9.96875,195.9375 C 9.9687496,197.57082 11.212041,199 12.84375,199 L 13.03125,199 C 14.66296,199 15.90625,197.57082 15.90625,195.9375 L 13.90625,195.9375 C 13.90625,196.58942 13.488919,197 13.03125,197 L 12.84375,197 C 12.386081,197 11.96875,196.58942 11.96875,195.9375 L 9.96875,195.9375 z"
       id="rect11937"
       style="fill:#bebebe;fill-opacity:1;stroke:none;stroke-width:1.99999964;stroke-linecap:butt;stroke-linejoin:miter;marker:none;stroke-miterlimit:4;stroke-dashoffset:0;stroke-opacity:1;visibility:visible;display:inline;overflow:visible;enable-background:accumulate" />
    <path
       d="M 10.40625,195 C 8.4845473,195 6.90625,193.4217 6.90625,191.5 C 6.90625,189.5783 8.4845473,188 10.40625,188 L 15.40625,188 C 17.327953,188 18.906249,189.5783 18.90625,191.5 C 18.90625,193.4217 17.327953,195 15.40625,195 L 10.40625,195 z M 10.40625,193 L 15.40625,193 C 16.254547,193 16.90625,192.3483 16.90625,191.5 C 16.906249,190.6517 16.254547,190 15.40625,190 L 10.40625,190 C 9.5579527,190 8.90625,190.6517 8.90625,191.5 C 8.90625,192.3483 9.5579527,193 10.40625,193 z"
       id="rect11939"
       style="fill:#bebebe;fill-opacity:1;stroke:none;stroke-width:1.99999988;stroke-linecap:round;stroke-linejoin:miter;marker:none;stroke-miterlimit:4;stroke-dasharray:none;stroke-dashoffset:0;stroke-opacity:1;visibility:visible;display:inline;overflow:visible;enable-background:accumulate" />
    <path
       d="M 2.84375,175 C 1.2120411,175 -0.031249989,176.42918 -0.03125,178.0625 L 1.96875,178.0625 C 1.96875,177.41059 2.3860809,177 2.84375,177 L 3.03125,177 C 3.4889201,177 3.90625,177.41058 3.90625,178.0625 L 5.90625,178.0625 C 5.90625,176.42918 4.662958,175 3.03125,175 L 2.84375,175 z M 3.90625,187 L 3.90625,195.9375 C 3.90625,196.58943 3.4889255,197 3.03125,197 L 2.84375,197 C 2.3860754,197 1.96875,196.58943 1.96875,195.9375 L 1.96875,187.0625 L -0.03125,187.0625 L -0.03125,195.9375 C -0.03125,197.57083 1.2120465,199 2.84375,199 L 3.03125,199 C 4.6629525,199 5.9062501,197.57083 5.90625,195.9375 L 5.90625,187 L 3.90625,187 z"
       id="path12145"
       style="fill:#bebebe;fill-opacity:1;stroke:none;stroke-width:1.99999964;stroke-linecap:butt;stroke-linejoin:miter;marker:none;stroke-miterlimit:4;stroke-dashoffset:0;stroke-opacity:1;visibility:visible;display:inline;overflow:visible;enable-background:accumulate" />
  </g>
  <g
     transform="translate(3.9999883,-175.00455)"
     id="layer8" />
  <g
     transform="translate(3.9999883,-1127.3667)"
     id="layer1" />
  <g
     transform="translate(3.9999883,-175.00455)"
     id="layer4" />
  <g
     transform="translate(3.9999883,-175.00455)"
     id="layer9" />
  <g
     transform="translate(3.9999883,-175.00455)"
     id="layer6" />
</svg>
