<?xml version="1.0" encoding="UTF-8" standalone="no"?>
<!-- Created with Inkscape (http://www.inkscape.org/) -->
<svg
   xmlns:svg="http://www.w3.org/2000/svg"
   xmlns="http://www.w3.org/2000/svg"
   version="1.0"
   width="24"
   height="24"
   id="svg7384">
  <defs
     id="defs7386" />
  <g
     transform="translate(32.107021,-174.99539)"
     id="layer3" />
  <g
     transform="translate(32.107021,-174.99539)"
     id="layer5" />
  <g
     transform="translate(32.107021,-174.99539)"
     id="layer7" />
  <g
     transform="translate(32.107021,-174.99539)"
     id="layer2">
    <rect
       width="24"
       height="24"
       x="-32.107021"
       y="174.99539"
       id="rect8712"
       style="opacity:0;fill:none;fill-opacity:1;stroke:none;display:inline" />
    <path
       d="M -25.063309,196.06917 C -27.246034,196.06917 -29.035486,194.26631 -29.035486,192.06722 C -29.035486,189.86814 -27.246034,188.06527 -25.063309,188.06527 C -22.880584,188.06527 -21.087084,189.86814 -21.087084,192.06722 C -21.087084,194.26631 -22.880584,196.06917 -25.063309,196.06917 z M -25.063309,194.06208 C -23.958677,194.06208 -23.083295,193.18014 -23.083295,192.06722 C -23.083295,190.95431 -23.958677,190.07237 -25.063309,190.07237 C -26.167942,190.07237 -27.043324,190.95431 -27.043324,192.06722 C -27.043324,193.18014 -26.167942,194.06208 -25.063309,194.06208 z"
       id="path12123"
       style="fill:#bebebe;fill-opacity:1;stroke:none;stroke-width:15.37796879;stroke-linecap:round;stroke-miterlimit:4;stroke-dasharray:none;stroke-dashoffset:0;stroke-opacity:1;display:inline" />
    <path
       d="M -21.082152,187.04902 C -21.082152,187.04902 -21.082152,185.42868 -21.082152,185.42868 L -27.464884,179.04587 C -27.464884,179.04587 -29.085232,179.04587 -29.085232,179.04587 C -29.085232,179.04587 -29.085232,180.66621 -29.085232,180.66621 L -22.702512,187.04902 C -22.702512,187.04902 -21.082152,187.04902 -21.082152,187.04902 z"
       id="path12125"
       style="fill:#bebebe;fill-opacity:1;stroke:none;display:inline" />
    <g
       transform="translate(-77.080492,-769.08548)"
       id="g12135"
       style="display:inline">
      <path
         d="M 65.99526,958.1494 C 65.99526,958.1494 65.99526,959.5636 65.99526,959.5636 L 61.15392,964.3503 C 60.76218,964.7421 60.13144,964.7421 59.7397,964.3503 C 59.34797,963.9586 59.34797,963.3279 59.7397,962.9361 L 64.58104,958.1494 C 64.58104,958.1494 65.99526,958.1494 65.99526,958.1494 z"
         id="path12127"
         style="fill:#bebebe;fill-opacity:1;stroke:none;display:inline" />
      <path
         d="M 61.15193,964.3613 C 61.54366,963.9696 61.54366,963.3388 61.15193,962.9471 L 58.41672,960.1494 C 58.41672,960.1494 57.00251,960.1494 57.00251,960.1494 C 57.00251,960.1494 57.00251,961.5636 57.00251,961.5636 L 59.73771,964.3613 C 60.12945,964.753 60.76019,964.753 61.15193,964.3613 z"
         id="path12129"
         style="fill:#bebebe;fill-opacity:1;stroke:none;display:inline" />
    </g>
    <path
       d="M -29.085232,187.04902 C -29.085232,187.04902 -29.085232,185.42868 -29.085232,185.42868 L -22.7025,179.04587 C -22.7025,179.04587 -21.082152,179.04587 -21.082152,179.04587 C -21.082152,179.04587 -21.082152,180.66621 -21.082152,180.66621 L -27.464872,187.04902 C -27.464872,187.04902 -29.085232,187.04902 -29.085232,187.04902 z"
       id="path12131"
       style="fill:#bebebe;fill-opacity:1;stroke:none;display:inline" />
    <path
       d="M -16.063313,187.06917 C -18.246038,187.06917 -20.03549,185.26631 -20.03549,183.06722 C -20.03549,180.86814 -18.246038,179.06527 -16.063313,179.06527 C -13.880588,179.06527 -12.087088,180.86814 -12.087088,183.06722 C -12.087088,185.26631 -13.880588,187.06917 -16.063313,187.06917 z M -16.063313,185.06208 C -14.958681,185.06208 -14.083299,184.18014 -14.083299,183.06722 C -14.083299,181.95431 -14.958681,181.07237 -16.063313,181.07237 C -17.167946,181.07237 -18.043328,181.95431 -18.043328,183.06722 C -18.043328,184.18014 -17.167946,185.06208 -16.063313,185.06208 z"
       id="path12133"
       style="fill:#bebebe;fill-opacity:1;stroke:none;stroke-width:15.37796879;stroke-linecap:round;stroke-miterlimit:4;stroke-dasharray:none;stroke-dashoffset:0;stroke-opacity:1;display:inline" />
  </g>
  <g
     transform="translate(32.107021,-174.99539)"
     id="layer8" />
  <g
     transform="translate(32.107021,-1127.3576)"
     id="layer1" />
  <g
     transform="translate(32.107021,-174.99539)"
     id="layer4" />
  <g
     transform="translate(32.107021,-174.99539)"
     id="layer9" />
  <g
     transform="translate(32.107021,-174.99539)"
     id="layer6" />
</svg>
