<?xml version="1.0" encoding="UTF-8" standalone="no"?>
<!-- Created with Inkscape (http://www.inkscape.org/) -->
<svg
   xmlns:svg="http://www.w3.org/2000/svg"
   xmlns="http://www.w3.org/2000/svg"
   version="1.0"
   width="24.000002"
   height="24"
   id="svg7384">
  <defs
     id="defs7386" />
  <g
     transform="translate(-24.999998,-175)"
     id="layer3" />
  <g
     transform="translate(-24.999998,-175)"
     id="layer5" />
  <g
     transform="translate(-24.999998,-175)"
     id="layer7" />
  <g
     transform="translate(-24.999998,-175)"
     id="layer2">
    <rect
       width="24"
       height="24"
       x="-49"
       y="175"
       transform="scale(-1,1)"
       id="rect7554-0-0"
       style="opacity:0;fill:none;fill-opacity:1;stroke:none;display:inline" />
    <rect
       width="2"
       height="15.999999"
       rx="1"
       ry="0.99999994"
       x="33.000004"
       y="179"
       id="rect3605-24"
       style="fill:#bebebe;fill-opacity:1;stroke:none;display:inline" />
    <path
       d="M 29.989995,189.00191 C 27.240933,189.00191 24.990067,191.25278 24.990067,194.00184 C 24.990067,196.75091 27.240933,199.00177 29.989995,199.00177 C 32.739058,199.00177 34.989924,196.75091 34.989924,194.00184 C 34.989924,191.25278 32.739058,189.00191 29.989995,189.00191 z M 29.989995,190.99142 C 31.656932,190.99142 33.000424,192.33491 33.000424,194.00184 C 33.000424,195.66878 31.656932,197.01227 29.989995,197.01227 C 28.323059,197.01227 27.005745,195.66878 27.005745,194.00184 C 27.005745,192.33491 28.323058,190.99142 29.989995,190.99142 z"
       id="path3609-3"
       style="fill:#bebebe;fill-opacity:1;stroke:none;stroke-width:2.38753414;stroke-linecap:round;stroke-miterlimit:4;stroke-dasharray:none;stroke-opacity:1;display:inline" />
    <path
       d="M 37.96875,179.96875 C 37.608116,179.96365 37.272673,180.15313 37.090868,180.46462 C 36.909063,180.77612 36.909063,181.16138 37.090868,181.47288 C 37.272673,181.78437 37.608116,181.97385 37.96875,181.96875 L 47.96875,181.96875 C 48.329384,181.97385 48.664827,181.78437 48.846632,181.47288 C 49.028437,181.16138 49.028437,180.77612 48.846632,180.46462 C 48.664827,180.15313 48.329384,179.96365 47.96875,179.96875 L 37.96875,179.96875 z"
       id="path11169-2"
       style="fill:#bebebe;fill-opacity:1;stroke:none;stroke-width:1.99999988;stroke-linecap:round;stroke-linejoin:miter;marker:none;stroke-miterlimit:4;stroke-dasharray:none;stroke-dashoffset:0;stroke-opacity:1;visibility:visible;display:inline;overflow:visible;enable-background:accumulate" />
    <path
       d="M 37.96875,183.96875 C 37.608116,183.96365 37.272673,184.15313 37.090868,184.46462 C 36.909063,184.77612 36.909063,185.16138 37.090868,185.47288 C 37.272673,185.78437 37.608116,185.97385 37.96875,185.96875 L 47.96875,185.96875 C 48.329384,185.97385 48.664827,185.78437 48.846632,185.47288 C 49.028437,185.16138 49.028437,184.77612 48.846632,184.46462 C 48.664827,184.15313 48.329384,183.96365 47.96875,183.96875 L 37.96875,183.96875 z"
       id="path11192-4"
       style="fill:#bebebe;fill-opacity:1;stroke:none;stroke-width:1.99999988;stroke-linecap:round;stroke-linejoin:miter;marker:none;stroke-miterlimit:4;stroke-dasharray:none;stroke-dashoffset:0;stroke-opacity:1;visibility:visible;display:inline;overflow:visible;enable-background:accumulate" />
    <path
       d="M 37.96875,187.96875 C 37.608116,187.96365 37.272673,188.15313 37.090868,188.46462 C 36.909063,188.77612 36.909063,189.16138 37.090868,189.47288 C 37.272673,189.78437 37.608116,189.97385 37.96875,189.96875 L 47.96875,189.96875 C 48.329384,189.97385 48.664827,189.78437 48.846632,189.47288 C 49.028437,189.16138 49.028437,188.77612 48.846632,188.46462 C 48.664827,188.15313 48.329384,187.96365 47.96875,187.96875 L 37.96875,187.96875 z"
       id="path11194-7"
       style="fill:#bebebe;fill-opacity:1;stroke:none;stroke-width:1.99999988;stroke-linecap:round;stroke-linejoin:miter;marker:none;stroke-miterlimit:4;stroke-dasharray:none;stroke-dashoffset:0;stroke-opacity:1;visibility:visible;display:inline;overflow:visible;enable-background:accumulate" />
    <path
       d="M 37.96875,191.96875 C 37.608116,191.96365 37.272673,192.15313 37.090868,192.46462 C 36.909063,192.77612 36.909063,193.16138 37.090868,193.47288 C 37.272673,193.78437 37.608116,193.97385 37.96875,193.96875 L 47.96875,193.96875 C 48.329384,193.97385 48.664827,193.78437 48.846632,193.47288 C 49.028437,193.16138 49.028437,192.77612 48.846632,192.46462 C 48.664827,192.15313 48.329384,191.96365 47.96875,191.96875 L 37.96875,191.96875 z"
       id="path11196-5"
       style="fill:#bebebe;fill-opacity:1;stroke:none;stroke-width:1.99999988;stroke-linecap:round;stroke-linejoin:miter;marker:none;stroke-miterlimit:4;stroke-dasharray:none;stroke-dashoffset:0;stroke-opacity:1;visibility:visible;display:inline;overflow:visible;enable-background:accumulate" />
  </g>
  <g
     transform="translate(-24.999998,-175)"
     id="layer8" />
  <g
     transform="translate(-24.999998,-1127.3622)"
     id="layer1" />
  <g
     transform="translate(-24.999998,-175)"
     id="layer4" />
  <g
     transform="translate(-24.999998,-175)"
     id="layer9" />
  <g
     transform="translate(-24.999998,-175)"
     id="layer6" />
</svg>
