<?xml version="1.0" encoding="UTF-8" standalone="no"?>
<!-- Created with Inkscape (http://www.inkscape.org/) -->
<svg
   xmlns:svg="http://www.w3.org/2000/svg"
   xmlns="http://www.w3.org/2000/svg"
   version="1.0"
   width="24"
   height="24.00001"
   id="svg7384">
  <defs
     id="defs7386" />
  <g
     transform="translate(331,-402.99999)"
     id="layer3" />
  <g
     transform="translate(331,-402.99999)"
     id="layer5" />
  <g
     transform="translate(331,-402.99999)"
     id="layer7" />
  <g
     transform="translate(331,-402.99999)"
     id="layer2" />
  <g
     transform="translate(331,-402.99999)"
     id="layer8" />
  <g
     transform="translate(331,-1355.3622)"
     id="layer1" />
  <g
     transform="translate(331,-402.99999)"
     id="layer4" />
  <g
     transform="translate(331,-402.99999)"
     id="layer9" />
  <g
     transform="translate(331,-402.99999)"
     id="layer6">
    <rect
       width="24"
       height="24"
       x="307"
       y="403"
       transform="scale(-1,1)"
       id="rect6558"
       style="opacity:0;fill:#f5f5f5;fill-opacity:1;stroke:none;display:inline" />
    <path
       d="M -315.49324,419.53828 C -317.43593,421.48097 -320.618,421.47865 -322.56353,419.53311 C -324.50907,417.58757 -324.5114,414.40551 -322.5687,412.46281 C -320.62601,410.52011 -317.44394,410.52244 -315.49841,412.46798 C -313.55287,414.41352 -313.55054,417.59558 -315.49324,419.53828 z M -316.90602,418.12549 C -315.72795,416.94742 -315.72933,415.0585 -316.90912,413.8787 C -318.08892,412.6989 -319.97784,412.69752 -321.15592,413.87559 C -322.33399,415.05367 -322.32877,416.93875 -321.14897,418.11855 C -319.96917,419.29835 -318.0841,419.30357 -316.90602,418.12549 z"
       id="path6560"
       style="fill:#bebebe;fill-opacity:1;stroke:none;stroke-width:11.48875809;stroke-linecap:round;stroke-miterlimit:4;stroke-dasharray:none;stroke-dashoffset:0;stroke-opacity:1;display:inline" />
    <path
       d="M -313.74118,424.72425 C -313.45338,425.01272 -313.01902,425.0973 -312.6434,424.93803 C -312.26778,424.77876 -312.02614,424.40753 -312.0327,423.99982 C -312.03069,421.25042 -314.28041,419.00071 -317.02981,419.00272 C -317.58217,419.00312 -318.03028,419.45123 -318.03069,420.0036 C -318.03109,420.55597 -317.58363,421.00342 -317.03127,421.00302 C -315.364,421.0018 -314.03179,422.33401 -314.033,424.00128 C -314.03765,424.27198 -313.93236,424.53284 -313.74118,424.72425 z"
       id="path6563"
       style="fill:#bebebe;fill-opacity:1;stroke:none;stroke-width:11.48875713;stroke-linecap:round;stroke-miterlimit:4;stroke-dasharray:none;stroke-dashoffset:0;stroke-opacity:1;display:inline" />
    <path
       d="M -320.33032,420.73194 C -320.51979,420.90899 -320.77077,421.00536 -321.03023,421.0007 C -322.66408,420.99951 -323.96957,422.26227 -324.02472,423.8951 C -324.04344,424.44746 -324.50641,424.8794 -325.05879,424.85988 C -325.61117,424.84035 -326.04379,424.37675 -326.02508,423.8244 C -325.93441,421.14024 -323.71752,418.99844 -321.03169,419.0004 C -320.61776,418.99338 -320.24193,419.24214 -320.08642,419.62605 C -319.93092,420.00997 -320.02789,420.44966 -320.33032,420.73194 z"
       id="path6565"
       style="fill:#bebebe;fill-opacity:1;stroke:none;stroke-width:11.48875713;stroke-linecap:round;stroke-miterlimit:4;stroke-dasharray:none;stroke-dashoffset:0;stroke-opacity:1;display:inline" />
    <rect
       width="1.9999995"
       height="5.9976807"
       rx="0.99999976"
       ry="0.99999982"
       x="419.00232"
       y="-322.03076"
       transform="matrix(0,1,1,0,0,0)"
       id="rect6567"
       style="fill:#bebebe;fill-opacity:1;stroke:none;display:inline" />
    <path
       d="M -328.54313,411.49424 C -326.60595,413.42655 -323.43236,413.42423 -321.49235,411.4891 C -319.55234,409.55396 -319.55002,406.38835 -321.4872,404.45604 C -323.42438,402.52374 -326.59797,402.52605 -328.53798,404.46119 C -330.47799,406.39632 -330.48031,409.56193 -328.54313,411.49424 z M -327.12811,410.08278 C -328.29971,408.91413 -328.29833,407.04095 -327.12503,405.87059 C -325.95172,404.70023 -324.07382,404.69886 -322.90222,405.86751 C -321.73063,407.03616 -321.732,408.90934 -322.90531,410.0797 C -324.07862,411.25006 -325.95651,411.25143 -327.12811,410.08278 z"
       id="path6575"
       style="fill:#bebebe;fill-opacity:1;stroke:none;stroke-width:11.54762077;stroke-linecap:round;stroke-miterlimit:4;stroke-dasharray:none;stroke-dashoffset:0;stroke-opacity:1;display:inline" />
    <path
       d="M -329.28957,416.72193 C -329.57737,417.0104 -330.01173,417.09498 -330.38735,416.93571 C -330.76297,416.77644 -331.00461,416.40521 -330.99805,415.9975 C -331.00006,413.2481 -328.75034,410.99839 -326.00094,411.0004 C -325.44858,411.0008 -325.00047,411.44891 -325.00006,412.00128 C -324.99966,412.55365 -325.44712,413.0011 -325.99948,413.0007 C -327.66675,412.99948 -328.99896,414.33169 -328.99775,415.99896 C -328.9931,416.26966 -329.09839,416.53052 -329.28957,416.72193 z"
       id="path6578"
       style="fill:#bebebe;fill-opacity:1;stroke:none;stroke-width:11.48875713;stroke-linecap:round;stroke-miterlimit:4;stroke-dasharray:none;stroke-dashoffset:0;stroke-opacity:1;display:inline" />
    <rect
       width="1.9999995"
       height="5.0000033"
       rx="0.99999976"
       ry="0.9999997"
       x="329"
       y="-420"
       transform="scale(-1,-1)"
       id="rect6580"
       style="fill:#bebebe;fill-opacity:1;stroke:none;display:inline" />
    <rect
       width="1.9999995"
       height="4.0000033"
       rx="0.99999976"
       ry="0.9999997"
       x="324.03076"
       y="-427"
       transform="scale(-1,-1)"
       id="rect6582"
       style="fill:#bebebe;fill-opacity:1;stroke:none;display:inline" />
    <rect
       width="1.9999995"
       height="4.0000033"
       rx="0.99999976"
       ry="0.9999997"
       x="312.03076"
       y="-427"
       transform="scale(-1,-1)"
       id="rect6584"
       style="fill:#bebebe;fill-opacity:1;stroke:none;display:inline" />
    <rect
       width="1.9999995"
       height="5"
       rx="0.99999976"
       ry="0.99999988"
       x="411"
       y="-327"
       transform="matrix(0,1,1,0,0,0)"
       id="rect6590"
       style="fill:#bebebe;fill-opacity:1;stroke:none;display:inline" />
    <path
       d="M -309.45687,411.49424 C -311.39405,413.42655 -314.56764,413.42423 -316.50765,411.4891 C -318.44766,409.55396 -318.44998,406.38835 -316.5128,404.45604 C -314.57562,402.52374 -311.40203,402.52605 -309.46202,404.46119 C -307.52201,406.39632 -307.51969,409.56193 -309.45687,411.49424 z M -310.87189,410.08278 C -309.70029,408.91413 -309.70167,407.04095 -310.87497,405.87059 C -312.04828,404.70023 -313.92618,404.69886 -315.09778,405.86751 C -316.26937,407.03616 -316.268,408.90934 -315.09469,410.0797 C -313.92138,411.25006 -312.04349,411.25143 -310.87189,410.08278 z"
       id="path6594"
       style="fill:#bebebe;fill-opacity:1;stroke:none;stroke-width:11.54762077;stroke-linecap:round;stroke-miterlimit:4;stroke-dasharray:none;stroke-dashoffset:0;stroke-opacity:1;display:inline" />
    <path
       d="M -308.71043,416.72193 C -308.42263,417.0104 -307.98827,417.09498 -307.61265,416.93571 C -307.23703,416.77644 -306.99539,416.40521 -307.00195,415.9975 C -306.99994,413.2481 -309.24966,410.99839 -311.99906,411.0004 C -312.55142,411.0008 -312.99953,411.44891 -312.99994,412.00128 C -313.00034,412.55365 -312.55288,413.0011 -312.00052,413.0007 C -310.33325,412.99948 -309.00104,414.33169 -309.00225,415.99896 C -309.0069,416.26966 -308.90161,416.53052 -308.71043,416.72193 z"
       id="path6596"
       style="fill:#bebebe;fill-opacity:1;stroke:none;stroke-width:11.48875713;stroke-linecap:round;stroke-miterlimit:4;stroke-dasharray:none;stroke-dashoffset:0;stroke-opacity:1;display:inline" />
    <rect
       width="1.9999995"
       height="5.0000033"
       rx="0.99999976"
       ry="0.9999997"
       x="-309"
       y="-420"
       transform="scale(1,-1)"
       id="rect6598"
       style="fill:#bebebe;fill-opacity:1;stroke:none;display:inline" />
    <rect
       width="1.9999995"
       height="5"
       rx="0.99999976"
       ry="0.99999988"
       x="411"
       y="311"
       transform="matrix(0,1,-1,0,0,0)"
       id="rect6600"
       style="fill:#bebebe;fill-opacity:1;stroke:none;display:inline" />
  </g>
</svg>
