<?xml version="1.0" encoding="UTF-8" standalone="no"?>
<!-- Created with Inkscape (http://www.inkscape.org/) -->
<svg
   xmlns:svg="http://www.w3.org/2000/svg"
   xmlns="http://www.w3.org/2000/svg"
   version="1.0"
   width="24.000998"
   height="24.000965"
   id="svg7384">
  <title
     id="title9167">Moblin Icon Theme</title>
  <defs
     id="defs7386" />
  <g
     transform="translate(620.001,-368)"
     id="layer3" />
  <g
     transform="translate(620.001,-368)"
     id="layer5" />
  <g
     transform="translate(620.001,-368)"
     id="layer7" />
  <g
     transform="translate(620.001,-368)"
     id="layer2" />
  <g
     transform="translate(620.001,-368)"
     id="layer8" />
  <g
     transform="translate(620.001,-1320.3622)"
     id="layer1" />
  <g
     transform="translate(620.001,-368)"
     id="layer11" />
  <g
     transform="translate(620.001,-368)"
     id="layer4" />
  <g
     transform="translate(620.001,-368)"
     id="layer9" />
  <g
     transform="translate(620.001,-368)"
     id="layer10" />
  <g
     transform="translate(620.001,-368)"
     id="layer6">
    <rect
       width="24"
       height="24"
       x="-620"
       y="368"
       id="rect6201-6"
       style="opacity:0;fill:#ffffff;fill-opacity:1;stroke:none;display:inline" />
    <path
       d="M -609.99997,377 C -612.74904,377 -614.99999,379.25094 -614.99999,382.00001 C -614.99999,384.74908 -612.74904,387.00003 -609.99997,387.00003 C -607.2509,387.00003 -604.99995,384.74908 -604.99995,382.00001 C -604.99995,379.25094 -607.2509,377 -609.99997,377 z M -609.99997,379 C -608.33303,379 -606.99996,380.33307 -606.99996,382.00001 C -606.99996,383.66695 -608.33303,385.00002 -609.99997,385.00002 C -611.66691,385.00002 -612.99998,383.66695 -612.99998,382.00001 C -612.99998,380.33307 -611.66691,379 -609.99997,379 z"
       id="path6247-4"
       style="fill:#bebebe;fill-opacity:1;stroke:none;stroke-width:1.74999416;stroke-linecap:round;stroke-linejoin:round;marker:none;stroke-miterlimit:4;stroke-dasharray:none;stroke-dashoffset:0;stroke-opacity:1;visibility:visible;display:inline;overflow:visible;enable-background:accumulate" />
    <path
       d="M -608.71435,372.11608 C -610.78994,371.8528 -612.72394,372.19606 -614.58044,373.16073 C -619.46897,375.70084 -621.37944,381.69188 -618.83938,386.5804 C -616.29926,391.46893 -610.3082,393.37946 -605.4197,390.83934 C -605.04421,390.71921 -604.77433,390.38968 -604.73054,389.99787 C -604.68676,389.60606 -604.87725,389.22509 -605.21696,389.02504 C -605.55668,388.82498 -605.98223,388.84317 -606.30363,389.07148 C -610.23188,391.11263 -615.03034,389.62475 -617.07151,385.69647 C -619.11264,381.76817 -617.62478,376.96977 -613.69651,374.92859 C -612.15506,374.12764 -610.67875,373.82606 -608.95542,374.04466 C -608.56768,374.19187 -608.1293,374.08448 -607.8535,373.77471 C -607.57771,373.46494 -607.52173,373.01709 -607.71279,372.64897 C -607.90385,372.28084 -608.3023,372.06885 -608.71435,372.11608 L -608.71435,372.11608 z"
       id="path6307-5"
       style="fill:#bebebe;fill-opacity:1;stroke:none;stroke-width:0.77777588;stroke-linecap:round;stroke-linejoin:round;marker:none;stroke-miterlimit:4;stroke-dasharray:none;stroke-dashoffset:0;stroke-opacity:1;visibility:visible;display:inline;overflow:visible;enable-background:accumulate" />
    <path
       d="M -606.14071,381.70152 C -606.59401,381.76891 -606.94606,382.10069 -607.00791,382.51877 C -607.04636,382.75051 -607.06935,382.99996 -607.05238,383.23386 C -606.92338,385.01169 -605.20716,386.3762 -603.27229,386.25768 C -601.33743,386.13915 -599.8524,384.56221 -599.9814,382.78437 C -600.02438,382.25403 -600.52712,381.85612 -601.10431,381.89562 C -601.68149,381.93511 -602.11454,382.39705 -602.07156,382.92739 C -602.01766,383.67023 -602.61949,384.28762 -603.42795,384.33714 C -604.23643,384.38667 -604.90831,383.83369 -604.96221,383.09084 C -604.97061,382.97507 -604.95901,382.91951 -604.93998,382.80481 C -604.88455,382.49939 -604.99307,382.18819 -605.23135,381.96925 C -605.46963,381.75031 -605.80832,381.65059 -606.14071,381.70152 L -606.14071,381.70152 z"
       id="path6309-5"
       style="fill:#bebebe;fill-opacity:1;stroke:none;stroke-width:2.93229055;stroke-linecap:round;stroke-linejoin:round;marker:none;stroke-miterlimit:4;stroke-dasharray:none;stroke-dashoffset:0;stroke-opacity:1;visibility:visible;display:inline;overflow:visible;enable-background:accumulate" />
    <path
       d="M -600.9688,368 C -603.7155,368 -605.9375,370.22198 -605.9375,372.96875 C -605.9375,375.71552 -603.7155,377.9375 -600.9688,377.9375 C -598.222,377.9375 -596,375.71552 -596,372.96875 C -596,370.22198 -598.222,368 -600.9688,368 z M -600.9688,369.03125 C -600.2468,369.03925 -600.267,370.63191 -599.6875,371.0625 C -599.108,371.49309 -597.5595,371.0298 -597.3438,371.71875 C -597.128,372.40772 -598.6758,372.87831 -598.9063,373.5625 C -599.1367,374.24669 -598.1927,375.55068 -598.7813,375.96875 C -599.3698,376.38682 -600.3093,375.07023 -601.0313,375.0625 C -601.7532,375.0545 -602.7018,376.33684 -603.2813,375.90625 C -603.8607,375.47566 -602.9093,374.22022 -603.125,373.53125 C -603.3407,372.84228 -604.8554,372.30919 -604.625,371.625 C -604.3946,370.94081 -602.8698,371.44932 -602.2813,371.03125 C -601.6927,370.61318 -601.6907,369.02352 -600.9688,369.03125 z"
       id="path5985-6"
       style="fill:#bebebe;fill-opacity:1;stroke:none;stroke-width:2;marker:none;visibility:visible;display:inline;overflow:visible;enable-background:accumulate" />
    <path
       d="M -601.08041,379.83039 C -601.37911,379.83472 -601.66024,379.97235 -601.84685,380.20563 C -602.03347,380.4389 -602.10604,380.74338 -602.04469,381.03575 C -601.97637,381.57984 -602.00882,382.01536 -602.04469,382.56254 C -602.06688,383.11729 -601.63516,383.58499 -601.08041,383.60718 C -600.52565,383.62937 -600.05795,383.19765 -600.03576,382.64289 C -599.99284,381.98816 -600.03437,381.36533 -600.11612,380.71432 C -600.17358,380.22117 -600.58413,379.84483 -601.08041,379.83039 z"
       id="path6035"
       style="fill:#bebebe;fill-opacity:1;stroke:none;stroke-width:0.77777588;stroke-linecap:round;stroke-linejoin:round;marker:none;stroke-miterlimit:4;stroke-dasharray:none;stroke-dashoffset:0;stroke-opacity:1;visibility:visible;display:inline;overflow:visible;enable-background:accumulate" />
  </g>
</svg>
