<?xml version="1.0" encoding="UTF-8" standalone="no"?>
<!-- Created with Inkscape (http://www.inkscape.org/) -->
<svg
   xmlns:svg="http://www.w3.org/2000/svg"
   xmlns="http://www.w3.org/2000/svg"
   version="1.0"
   width="24"
   height="24"
   id="svg7384">
  <title
     id="title9167">Moblin Icon Theme</title>
  <defs
     id="defs7386" />
  <g
     transform="translate(334,-306)"
     id="layer3" />
  <g
     transform="translate(334,-306)"
     id="layer5" />
  <g
     transform="translate(334,-306)"
     id="layer7" />
  <g
     transform="translate(334,-306)"
     id="layer2" />
  <g
     transform="translate(334,-306)"
     id="layer8" />
  <g
     transform="translate(334,-1258.3622)"
     id="layer1" />
  <g
     transform="translate(334,-306)"
     id="layer4" />
  <g
     transform="translate(334,-306)"
     id="layer9" />
  <g
     transform="translate(334,-306)"
     id="layer6">
    <path
       d="M -331.09375,306 C -331.60911,306.04857 -332.00223,306.48237 -332,307 L -332,329 C -331.99696,329.39809 -331.7581,329.75647 -331.39183,329.91248 C -331.02556,330.06848 -330.60165,329.99239 -330.3125,329.71875 L -326.46875,326 L -322.65625,329.71875 C -322.3671,329.99239 -321.94319,330.06848 -321.57692,329.91248 C -321.21065,329.75647 -320.97179,329.39809 -320.96875,329 L -320.96875,317.9375 C -320.96365,317.57686 -321.15313,317.24142 -321.46462,317.05961 C -321.77612,316.87781 -322.16138,316.87781 -322.47288,317.05961 C -322.78437,317.24142 -322.97385,317.57686 -322.96875,317.9375 L -322.96875,326.625 L -325.78125,323.90625 C -326.1669,323.54121 -326.7706,323.54121 -327.15625,323.90625 L -330,326.65625 L -330,308 C -328.60538,308 -324.9375,308 -324.9375,308 C -324.57686,308.0051 -324.24142,307.81562 -324.05961,307.50413 C -323.87781,307.19263 -323.87781,306.80737 -324.05961,306.49587 C -324.24142,306.18438 -324.57686,305.9949 -324.9375,306 C -324.9375,306 -331,306 -331,306 C -331.03123,305.99853 -331.06252,305.99853 -331.09375,306 z"
       id="path9497"
       style="fill:#bebebe;fill-opacity:1;stroke:none;stroke-width:2;stroke-linecap:round;stroke-linejoin:round;stroke-miterlimit:4;stroke-dasharray:none;stroke-opacity:1" />
    <rect
       width="24"
       height="24"
       x="-334"
       y="306"
       id="rect9499"
       style="opacity:0;fill:#ffffff;fill-opacity:1;stroke:none;display:inline" />
    <g
       transform="translate(282.03125,-5.0265316)"
       id="g9501">
      <path
         d="M -629,308 C -631.74677,308 -633.96875,310.22198 -633.96875,312.96875 C -633.96875,315.71552 -631.74677,317.9375 -629,317.9375 C -626.25323,317.9375 -624.03125,315.71552 -624.03125,312.96875 C -624.03125,310.22198 -626.25323,308 -629,308 z M -629,309.03125 C -628.27809,309.03925 -628.29824,310.63191 -627.71875,311.0625 C -627.13926,311.49309 -625.59073,311.0298 -625.375,311.71875 C -625.15927,312.40772 -626.70706,312.87831 -626.9375,313.5625 C -627.16794,314.24669 -626.22392,315.55068 -626.8125,315.96875 C -627.40108,316.38682 -628.34059,315.07023 -629.0625,315.0625 C -629.78441,315.0545 -630.73301,316.33684 -631.3125,315.90625 C -631.89199,315.47566 -630.94052,314.22022 -631.15625,313.53125 C -631.37198,312.84228 -632.88669,312.30919 -632.65625,311.625 C -632.42581,310.94081 -630.90108,311.44932 -630.3125,311.03125 C -629.72392,310.61318 -629.72191,309.02352 -629,309.03125 z"
         transform="translate(28,3.0265316)"
         id="path9503"
         style="fill:#bebebe;fill-opacity:1;stroke:none;stroke-width:2;marker:none;visibility:visible;display:inline;overflow:visible;enable-background:accumulate" />
    </g>
  </g>
</svg>
