<?xml version="1.0" encoding="UTF-8" standalone="no"?>
<!-- Created with Inkscape (http://www.inkscape.org/) -->
<svg
   xmlns:svg="http://www.w3.org/2000/svg"
   xmlns="http://www.w3.org/2000/svg"
   version="1.0"
   width="24"
   height="24"
   id="svg7384">
  <defs
     id="defs7386" />
  <g
     transform="translate(363,-371)"
     id="layer3" />
  <g
     transform="translate(363,-371)"
     id="layer5" />
  <g
     transform="translate(363,-371)"
     id="layer7" />
  <g
     transform="translate(363,-371)"
     id="layer2" />
  <g
     transform="translate(363,-371)"
     id="layer8" />
  <g
     transform="translate(363,-1323.3622)"
     id="layer1" />
  <g
     transform="translate(363,-371)"
     id="layer4" />
  <g
     transform="translate(363,-371)"
     id="layer9" />
  <g
     transform="translate(363,-371)"
     id="layer6">
    <rect
       width="24"
       height="24"
       x="-363"
       y="371"
       id="rect6748"
       style="opacity:0.01000001;fill:#f0f0f0;fill-opacity:1;stroke:none;display:inline" />
    <rect
       width="2.0061514"
       height="14"
       rx="1.5"
       ry="1.2783132"
       x="377"
       y="344"
       transform="matrix(0,1,-1,0,0,0)"
       id="rect6752"
       style="fill:#bebebe;fill-opacity:1;stroke:none;display:inline" />
    <rect
       width="2"
       height="3.9182742"
       rx="1.5"
       ry="1.2783132"
       x="-363"
       y="381.62433"
       id="rect6754"
       style="fill:#bebebe;fill-opacity:1;stroke:none;display:inline" />
    <rect
       width="1.9999969"
       height="8"
       rx="1.5"
       ry="1.2783133"
       x="381"
       y="347"
       transform="matrix(0,1,-1,0,0,0)"
       id="rect6756"
       style="fill:#bebebe;fill-opacity:1;stroke:none;display:inline" />
    <rect
       width="2"
       height="3"
       rx="1.5"
       ry="1.2783134"
       x="-357"
       y="383"
       id="rect6760"
       style="fill:#bebebe;fill-opacity:1;stroke:none;display:inline" />
    <path
       d="M -362.01841,384.01336 C -362.5676,384.00186 -363.00472,383.54956 -362.99748,383.00029 C -362.99748,379.69923 -360.30174,376.99669 -357.00068,376.99669 C -356.44681,376.99669 -355.99782,377.44569 -355.99782,377.99956 C -355.99782,378.55343 -356.44681,379.00243 -357.00068,379.00243 C -359.21961,379.00243 -360.99855,380.78136 -360.99855,383.00029 C -360.99498,383.27124 -361.10151,383.53203 -361.29375,383.72299 C -361.486,383.91396 -361.7475,384.01874 -362.01841,384.01336 L -362.01841,384.01336 z"
       id="path6768"
       style="fill:#bebebe;fill-opacity:1;stroke:none;stroke-width:9.19240189;stroke-linecap:round;stroke-miterlimit:4;stroke-dasharray:none;stroke-dashoffset:0;stroke-opacity:1;display:inline" />
    <path
       d="M -362.01601,383.48677 C -362.56653,383.49643 -363.0057,383.94928 -362.99848,384.49984 C -362.99848,386.42091 -361.4214,388.00138 -359.50033,388.00138 C -358.9474,388.00138 -358.49916,387.55315 -358.49916,387.00022 C -358.49916,386.44729 -358.9474,385.99905 -359.50033,385.99905 C -360.33927,385.99905 -360.99954,385.33878 -360.99954,384.49984 C -360.996,384.2295 -361.10206,383.96924 -361.29356,383.77838 C -361.48506,383.58752 -361.74567,383.48233 -362.01601,383.48677 z"
       id="path6770"
       style="fill:#bebebe;fill-opacity:1;stroke:none;stroke-width:18.38475227;stroke-linecap:round;stroke-miterlimit:4;stroke-dasharray:none;stroke-dashoffset:0;stroke-opacity:1;display:inline" />
    <path
       d="M -355.98447,384.0536 C -355.43261,384.06214 -354.99199,384.51615 -354.99996,385.06803 C -354.99996,386.41825 -355.92041,387.6177 -357.22463,387.96716 C -357.7586,388.10986 -358.30714,387.79266 -358.44983,387.2587 C -358.59252,386.72473 -358.27533,386.17619 -357.74136,386.0335 C -357.26827,385.90674 -356.9989,385.5578 -356.9989,385.06803 C -357.0028,384.79781 -356.89717,384.53751 -356.70608,384.34642 C -356.51499,384.15532 -356.25469,384.0497 -355.98447,384.0536 z"
       id="path6772"
       style="fill:#bebebe;fill-opacity:1;stroke:none;stroke-width:22.98097038;stroke-linecap:round;stroke-miterlimit:4;stroke-dasharray:none;stroke-dashoffset:0;stroke-opacity:1;display:inline" />
    <rect
       width="1.9999931"
       height="4.0772052"
       rx="1.5"
       ry="1.2783133"
       x="386"
       y="356.46967"
       transform="matrix(0,1,-1,0,0,0)"
       id="rect6774"
       style="fill:#bebebe;fill-opacity:1;stroke:none;stroke-width:2;stroke-miterlimit:4;stroke-dasharray:none;display:inline" />
    <path
       d="M -356.01552,385.01454 C -356.56739,385.006 -357.00801,384.55199 -357.00003,384.00012 C -357.00003,382.35505 -355.64533,381.00035 -354.00027,381.00035 C -353.63472,380.98736 -353.29124,381.17496 -353.10462,381.48955 C -352.91799,381.80413 -352.91799,382.1955 -353.10462,382.51009 C -353.29124,382.82467 -353.63472,383.01228 -354.00027,382.99929 C -354.5632,382.99929 -355.00109,383.43718 -355.00109,384.00012 C -354.9972,384.27033 -355.10282,384.53063 -355.29391,384.72172 C -355.48501,384.91282 -355.7453,385.01844 -356.01552,385.01454 z"
       id="path6776"
       style="fill:#bebebe;fill-opacity:1;stroke:none;stroke-width:22.98095131;stroke-linecap:round;stroke-miterlimit:4;stroke-dasharray:none;stroke-dashoffset:0;stroke-opacity:1;display:inline" />
    <rect
       width="2"
       height="3.9182744"
       rx="1.5"
       ry="1.2783132"
       x="339"
       y="381.69061"
       transform="scale(-1,1)"
       id="rect6806"
       style="fill:#bebebe;fill-opacity:1;stroke:none;display:inline" />
    <rect
       width="2"
       height="3"
       rx="1.5"
       ry="1.2783134"
       x="345"
       y="383"
       transform="scale(-1,1)"
       id="rect6808"
       style="fill:#bebebe;fill-opacity:1;stroke:none;display:inline" />
    <path
       d="M -339.98159,384.01336 C -339.4324,384.00186 -338.99528,383.54956 -339.00252,383.00029 C -339.00252,379.69923 -341.69826,376.99669 -344.99932,376.99669 C -345.55319,376.99669 -346.00218,377.44569 -346.00218,377.99956 C -346.00218,378.55343 -345.55319,379.00243 -344.99932,379.00243 C -342.78039,379.00243 -341.00145,380.78136 -341.00145,383.00029 C -341.00502,383.27124 -340.89849,383.53203 -340.70625,383.72299 C -340.514,383.91396 -340.2525,384.01874 -339.98159,384.01336 L -339.98159,384.01336 z"
       id="path6810"
       style="fill:#bebebe;fill-opacity:1;stroke:none;stroke-width:9.19240189;stroke-linecap:round;stroke-miterlimit:4;stroke-dasharray:none;stroke-dashoffset:0;stroke-opacity:1;display:inline" />
    <path
       d="M -339.98399,383.48677 C -339.43347,383.49643 -338.9943,383.94928 -339.00152,384.49984 C -339.00152,386.42091 -340.5786,388.00138 -342.49967,388.00138 C -343.0526,388.00138 -343.50084,387.55315 -343.50084,387.00022 C -343.50084,386.44729 -343.0526,385.99905 -342.49967,385.99905 C -341.66073,385.99905 -341.00046,385.33878 -341.00046,384.49984 C -341.004,384.2295 -340.89794,383.96924 -340.70644,383.77838 C -340.51494,383.58752 -340.25433,383.48233 -339.98399,383.48677 z"
       id="path6812"
       style="fill:#bebebe;fill-opacity:1;stroke:none;stroke-width:18.38475227;stroke-linecap:round;stroke-miterlimit:4;stroke-dasharray:none;stroke-dashoffset:0;stroke-opacity:1;display:inline" />
    <path
       d="M -346.01553,384.0536 C -346.56739,384.06214 -347.00801,384.51615 -347.00004,385.06803 C -347.00004,386.41825 -346.07959,387.6177 -344.77537,387.96716 C -344.2414,388.10986 -343.69286,387.79266 -343.55017,387.2587 C -343.40748,386.72473 -343.72467,386.17619 -344.25864,386.0335 C -344.73173,385.90674 -345.0011,385.5578 -345.0011,385.06803 C -344.9972,384.79781 -345.10283,384.53751 -345.29392,384.34642 C -345.48501,384.15532 -345.74531,384.0497 -346.01553,384.0536 z"
       id="path6814"
       style="fill:#bebebe;fill-opacity:1;stroke:none;stroke-width:22.98097038;stroke-linecap:round;stroke-miterlimit:4;stroke-dasharray:none;stroke-dashoffset:0;stroke-opacity:1;display:inline" />
    <rect
       width="1.9999931"
       height="4.2318845"
       rx="1.5"
       ry="1.2783133"
       x="386"
       y="-345.685"
       transform="matrix(0,1,1,0,0,0)"
       id="rect6816"
       style="fill:#bebebe;fill-opacity:1;stroke:none;stroke-width:2;stroke-miterlimit:4;stroke-dasharray:none;display:inline" />
    <path
       d="M -345.98448,385.01454 C -345.43261,385.006 -344.99199,384.55199 -344.99997,384.00012 C -344.99997,382.35505 -346.35467,381.00035 -347.99973,381.00035 C -348.36528,380.98736 -348.70876,381.17496 -348.89538,381.48955 C -349.08201,381.80413 -349.08201,382.1955 -348.89538,382.51009 C -348.70876,382.82467 -348.36528,383.01228 -347.99973,382.99929 C -347.4368,382.99929 -346.99891,383.43718 -346.99891,384.00012 C -347.0028,384.27033 -346.89718,384.53063 -346.70609,384.72172 C -346.51499,384.91282 -346.2547,385.01844 -345.98448,385.01454 z"
       id="path6818"
       style="fill:#bebebe;fill-opacity:1;stroke:none;stroke-width:22.98095131;stroke-linecap:round;stroke-miterlimit:4;stroke-dasharray:none;stroke-dashoffset:0;stroke-opacity:1;display:inline" />
  </g>
</svg>
