<?xml version="1.0" encoding="UTF-8" standalone="no"?>
<!-- Created with Inkscape (http://www.inkscape.org/) -->
<svg
   xmlns:svg="http://www.w3.org/2000/svg"
   xmlns="http://www.w3.org/2000/svg"
   version="1.0"
   width="24"
   height="24"
   id="svg7384">
  <defs
     id="defs7386" />
  <g
     transform="translate(331,-371)"
     id="layer3" />
  <g
     transform="translate(331,-371)"
     id="layer5" />
  <g
     transform="translate(331,-371)"
     id="layer7" />
  <g
     transform="translate(331,-371)"
     id="layer2" />
  <g
     transform="translate(331,-371)"
     id="layer8" />
  <g
     transform="translate(331,-1323.3622)"
     id="layer1" />
  <g
     transform="translate(331,-371)"
     id="layer4" />
  <g
     transform="translate(331,-371)"
     id="layer9" />
  <g
     transform="translate(331,-371)"
     id="layer6">
    <rect
       width="24"
       height="24"
       x="-331"
       y="371"
       id="rect6820"
       style="opacity:0.01000001;fill:#f0f0f0;fill-opacity:1;stroke:none;display:inline" />
    <g
       transform="matrix(-0.7134742,-0.7134742,0.7134742,-0.7134742,-1109.973,769.71967)"
       id="g6890"
       style="display:inline">
      <rect
         width="2.0061514"
         height="14"
         rx="1.4866133"
         ry="1.2669048"
         x="819.09003"
         y="277"
         transform="matrix(0,1,-1,0,0,0)"
         id="rect6892"
         style="fill:#bebebe;fill-opacity:1;stroke:none;display:inline" />
      <rect
         width="2"
         height="3.9182742"
         rx="1.4866133"
         ry="1.2669048"
         x="-296"
         y="823.71436"
         id="rect6894"
         style="fill:#bebebe;fill-opacity:1;stroke:none;display:inline" />
      <rect
         width="1.9999969"
         height="8"
         rx="1.4866133"
         ry="1.266905"
         x="823.09003"
         y="280"
         transform="matrix(0,1,-1,0,0,0)"
         id="rect6896"
         style="fill:#bebebe;fill-opacity:1;stroke:none;display:inline" />
      <rect
         width="2"
         height="3"
         rx="1.4866133"
         ry="1.2669051"
         x="-290"
         y="825.09003"
         id="rect6898"
         style="fill:#bebebe;fill-opacity:1;stroke:none;display:inline" />
      <path
         d="M -25.809396,202.41983 A 22.98097,22.98097 0 0 1 -48.790367,179.43886"
         transform="matrix(0.217571,0,0,-0.217571,-284.38463,864.13072)"
         id="path6901"
         style="fill:none;stroke:#bebebe;stroke-width:9.11036396;stroke-linecap:round;stroke-miterlimit:4;stroke-dasharray:none;stroke-dashoffset:0;stroke-opacity:1;display:inline" />
      <path
         d="M -25.809396,202.41983 A 22.98097,22.98097 0 0 1 -48.790367,179.43886"
         transform="matrix(0.1087858,0,0,0.1087858,-289.6923,807.06962)"
         id="path6903"
         style="fill:none;stroke:#bebebe;stroke-width:18.22067833;stroke-linecap:round;stroke-miterlimit:4;stroke-dasharray:none;stroke-dashoffset:0;stroke-opacity:1;display:inline" />
      <path
         d="M -31.757309,201.63677 A 22.98097,22.98097 0 0 1 -48.790367,179.43886"
         transform="matrix(-8.70285e-2,0,0,8.702855e-2,-293.24615,811.54187)"
         id="path6905"
         style="fill:none;stroke:#bebebe;stroke-width:22.775877;stroke-linecap:round;stroke-miterlimit:4;stroke-dasharray:none;stroke-dashoffset:0;stroke-opacity:1;display:inline" />
      <rect
         width="1.9999931"
         height="4.0772052"
         rx="1.4866133"
         ry="1.266905"
         x="828.09003"
         y="289.46967"
         transform="matrix(0,1,-1,0,0,0)"
         id="rect6907"
         style="fill:#bebebe;fill-opacity:1;stroke:none;stroke-width:2;stroke-miterlimit:4;stroke-dasharray:none;display:inline" />
      <path
         d="M -25.809396,202.41983 A 22.98097,22.98097 0 0 1 -48.790367,179.43886"
         transform="matrix(8.70286e-2,0,0,-8.70286e-2,-284.75384,841.70634)"
         id="path6909"
         style="fill:none;stroke:#bebebe;stroke-width:22.77585793;stroke-linecap:round;stroke-miterlimit:4;stroke-dasharray:none;stroke-dashoffset:0;stroke-opacity:1;display:inline" />
      <rect
         width="2"
         height="3.9182744"
         rx="1.4866133"
         ry="1.2669048"
         x="272"
         y="823.78064"
         transform="scale(-1,1)"
         id="rect6911"
         style="fill:#bebebe;fill-opacity:1;stroke:none;display:inline" />
      <rect
         width="2"
         height="3"
         rx="1.4866133"
         ry="1.2669051"
         x="278"
         y="825.09003"
         transform="scale(-1,1)"
         id="rect6913"
         style="fill:#bebebe;fill-opacity:1;stroke:none;display:inline" />
      <path
         d="M -25.809396,202.41983 A 22.98097,22.98097 0 0 1 -48.790367,179.43886"
         transform="matrix(-0.217571,0,0,-0.217571,-283.61537,864.13072)"
         id="path6915"
         style="fill:none;stroke:#bebebe;stroke-width:9.11036396;stroke-linecap:round;stroke-miterlimit:4;stroke-dasharray:none;stroke-dashoffset:0;stroke-opacity:1;display:inline" />
      <path
         d="M -25.809396,202.41983 A 22.98097,22.98097 0 0 1 -48.790367,179.43886"
         transform="matrix(-0.1087858,0,0,0.1087858,-278.3077,807.06962)"
         id="path6917"
         style="fill:none;stroke:#bebebe;stroke-width:18.22067833;stroke-linecap:round;stroke-miterlimit:4;stroke-dasharray:none;stroke-dashoffset:0;stroke-opacity:1;display:inline" />
      <path
         d="M -31.757309,201.63677 A 22.98097,22.98097 0 0 1 -48.790367,179.43886"
         transform="matrix(8.70285e-2,0,0,8.702855e-2,-274.75385,811.54187)"
         id="path6919"
         style="fill:none;stroke:#bebebe;stroke-width:22.775877;stroke-linecap:round;stroke-miterlimit:4;stroke-dasharray:none;stroke-dashoffset:0;stroke-opacity:1;display:inline" />
      <rect
         width="1.9999931"
         height="4.2318845"
         rx="1.4866133"
         ry="1.266905"
         x="828.09003"
         y="-278.685"
         transform="matrix(0,1,1,0,0,0)"
         id="rect6921"
         style="fill:#bebebe;fill-opacity:1;stroke:none;stroke-width:2;stroke-miterlimit:4;stroke-dasharray:none;display:inline" />
      <path
         d="M -25.809396,202.41983 A 22.98097,22.98097 0 0 1 -48.790367,179.43886"
         transform="matrix(-8.70286e-2,0,0,-8.70286e-2,-283.24616,841.70634)"
         id="path6923"
         style="fill:none;stroke:#bebebe;stroke-width:22.77585793;stroke-linecap:round;stroke-miterlimit:4;stroke-dasharray:none;stroke-dashoffset:0;stroke-opacity:1;display:inline" />
    </g>
  </g>
</svg>
