<?xml version="1.0" encoding="UTF-8" standalone="no"?>
<!-- Created with Inkscape (http://www.inkscape.org/) -->
<svg
   xmlns:svg="http://www.w3.org/2000/svg"
   xmlns="http://www.w3.org/2000/svg"
   version="1.0"
   width="24"
   height="24"
   id="svg7384">
  <title
     id="title9167">Moblin Icon Theme</title>
  <defs
     id="defs7386" />
  <g
     transform="translate(364,-370)"
     id="layer3" />
  <g
     transform="translate(364,-370)"
     id="layer5" />
  <g
     transform="translate(364,-370)"
     id="layer7" />
  <g
     transform="translate(364,-370)"
     id="layer2" />
  <g
     transform="translate(364,-370)"
     id="layer8" />
  <g
     transform="translate(364,-1322.3622)"
     id="layer1" />
  <g
     transform="translate(364,-370)"
     id="layer4" />
  <g
     transform="translate(364,-370)"
     id="layer9" />
  <g
     transform="translate(364,-370)"
     id="layer6">
    <rect
       width="24"
       height="24"
       x="-364"
       y="370"
       id="rect6748"
       style="opacity:0.01000001;fill:#f0f0f0;fill-opacity:1;stroke:none;display:inline" />
    <rect
       width="2.0061514"
       height="14"
       rx="1.5"
       ry="1.2783132"
       x="376"
       y="345"
       transform="matrix(0,1,-1,0,0,0)"
       id="rect6752"
       style="fill:#bebebe;fill-opacity:1;stroke:none;display:inline" />
    <rect
       width="2"
       height="3.9182742"
       rx="1.5"
       ry="1.2783132"
       x="-364"
       y="380.62433"
       id="rect6754"
       style="fill:#bebebe;fill-opacity:1;stroke:none;display:inline" />
    <rect
       width="1.9999969"
       height="8"
       rx="1.5"
       ry="1.2783133"
       x="380"
       y="348"
       transform="matrix(0,1,-1,0,0,0)"
       id="rect6756"
       style="fill:#bebebe;fill-opacity:1;stroke:none;display:inline" />
    <rect
       width="2"
       height="3"
       rx="1.5"
       ry="1.2783134"
       x="-358"
       y="382"
       id="rect6760"
       style="fill:#bebebe;fill-opacity:1;stroke:none;display:inline" />
    <path
       d="M -363.01841,383.01336 C -363.5676,383.00186 -364.00472,382.54956 -363.99748,382.00029 C -363.99748,378.69923 -361.30174,375.99669 -358.00068,375.99669 C -357.44681,375.99669 -356.99782,376.44569 -356.99782,376.99956 C -356.99782,377.55343 -357.44681,378.00243 -358.00068,378.00243 C -360.21961,378.00243 -361.99855,379.78136 -361.99855,382.00029 C -361.99498,382.27124 -362.10151,382.53203 -362.29375,382.72299 C -362.486,382.91396 -362.7475,383.01874 -363.01841,383.01336 L -363.01841,383.01336 z"
       id="path6768"
       style="fill:#bebebe;fill-opacity:1;stroke:none;stroke-width:9.19240189;stroke-linecap:round;stroke-miterlimit:4;stroke-dasharray:none;stroke-dashoffset:0;stroke-opacity:1;display:inline" />
    <path
       d="M -363.01601,381.51448 C -363.56653,381.52414 -364.0057,381.97699 -363.99848,382.52755 C -363.99848,384.44862 -362.4214,386.02909 -360.50033,386.02909 C -359.9474,386.02909 -359.49916,385.58086 -359.49916,385.02793 C -359.49916,384.475 -359.9474,384.02676 -360.50033,384.02676 C -361.33927,384.02676 -361.99954,383.36649 -361.99954,382.52755 C -361.996,382.25721 -362.10206,381.99695 -362.29356,381.80609 C -362.48506,381.61523 -362.74567,381.51004 -363.01601,381.51448 z"
       id="path6770"
       style="fill:#bebebe;fill-opacity:1;stroke:none;stroke-width:18.38475227;stroke-linecap:round;stroke-miterlimit:4;stroke-dasharray:none;stroke-dashoffset:0;stroke-opacity:1;display:inline" />
    <path
       d="M -356.98447,382.08131 C -356.43261,382.08985 -355.99199,382.54386 -355.99996,383.09574 C -355.99996,384.44596 -356.92041,385.64541 -358.22463,385.99487 C -358.7586,386.13757 -359.30714,385.82037 -359.44983,385.28641 C -359.59252,384.75244 -359.27533,384.2039 -358.74136,384.06121 C -358.26827,383.93445 -357.9989,383.58551 -357.9989,383.09574 C -358.0028,382.82552 -357.89717,382.56522 -357.70608,382.37413 C -357.51499,382.18303 -357.25469,382.07741 -356.98447,382.08131 z"
       id="path6772"
       style="fill:#bebebe;fill-opacity:1;stroke:none;stroke-width:22.98097038;stroke-linecap:round;stroke-miterlimit:4;stroke-dasharray:none;stroke-dashoffset:0;stroke-opacity:1;display:inline" />
    <rect
       width="1.9999931"
       height="4.0772052"
       rx="1.5"
       ry="1.2783133"
       x="384"
       y="357.46967"
       transform="matrix(0,1,-1,0,0,0)"
       id="rect6774"
       style="fill:#bebebe;fill-opacity:1;stroke:none;display:inline" />
    <path
       d="M -357.01552,384.01454 C -357.56739,384.006 -358.00801,383.55199 -358.00003,383.00012 C -358.00003,381.35505 -356.64533,380.00035 -355.00027,380.00035 C -354.63472,379.98736 -354.29124,380.17496 -354.10462,380.48955 C -353.91799,380.80413 -353.91799,381.1955 -354.10462,381.51009 C -354.29124,381.82467 -354.63472,382.01228 -355.00027,381.99929 C -355.5632,381.99929 -356.00109,382.43718 -356.00109,383.00012 C -355.9972,383.27033 -356.10282,383.53063 -356.29391,383.72172 C -356.48501,383.91282 -356.7453,384.01844 -357.01552,384.01454 z"
       id="path6776"
       style="fill:#bebebe;fill-opacity:1;stroke:none;stroke-width:22.98095131;stroke-linecap:round;stroke-miterlimit:4;stroke-dasharray:none;stroke-dashoffset:0;stroke-opacity:1;display:inline" />
    <rect
       width="2"
       height="3.9182744"
       rx="1.5"
       ry="1.2783132"
       x="340"
       y="380.69061"
       transform="scale(-1,1)"
       id="rect6806"
       style="fill:#bebebe;fill-opacity:1;stroke:none;display:inline" />
    <rect
       width="2"
       height="3"
       rx="1.5"
       ry="1.2783134"
       x="346"
       y="382"
       transform="scale(-1,1)"
       id="rect6808"
       style="fill:#bebebe;fill-opacity:1;stroke:none;display:inline" />
    <path
       d="M -340.98159,383.01336 C -340.4324,383.00186 -339.99528,382.54956 -340.00252,382.00029 C -340.00252,378.69923 -342.69826,375.99669 -345.99932,375.99669 C -346.55319,375.99669 -347.00218,376.44569 -347.00218,376.99956 C -347.00218,377.55343 -346.55319,378.00243 -345.99932,378.00243 C -343.78039,378.00243 -342.00145,379.78136 -342.00145,382.00029 C -342.00502,382.27124 -341.89849,382.53203 -341.70625,382.72299 C -341.514,382.91396 -341.2525,383.01874 -340.98159,383.01336 L -340.98159,383.01336 z"
       id="path6810"
       style="fill:#bebebe;fill-opacity:1;stroke:none;stroke-width:9.19240189;stroke-linecap:round;stroke-miterlimit:4;stroke-dasharray:none;stroke-dashoffset:0;stroke-opacity:1;display:inline" />
    <path
       d="M -340.98399,381.51448 C -340.43347,381.52414 -339.9943,381.97699 -340.00152,382.52755 C -340.00152,384.44862 -341.5786,386.02909 -343.49967,386.02909 C -344.0526,386.02909 -344.50084,385.58086 -344.50084,385.02793 C -344.50084,384.475 -344.0526,384.02676 -343.49967,384.02676 C -342.66073,384.02676 -342.00046,383.36649 -342.00046,382.52755 C -342.004,382.25721 -341.89794,381.99695 -341.70644,381.80609 C -341.51494,381.61523 -341.25433,381.51004 -340.98399,381.51448 z"
       id="path6812"
       style="fill:#bebebe;fill-opacity:1;stroke:none;stroke-width:18.38475227;stroke-linecap:round;stroke-miterlimit:4;stroke-dasharray:none;stroke-dashoffset:0;stroke-opacity:1;display:inline" />
    <path
       d="M -347.01553,382.08131 C -347.56739,382.08985 -348.00801,382.54386 -348.00004,383.09574 C -348.00004,384.44596 -347.07959,385.64541 -345.77537,385.99487 C -345.2414,386.13757 -344.69286,385.82037 -344.55017,385.28641 C -344.40748,384.75244 -344.72467,384.2039 -345.25864,384.06121 C -345.73173,383.93445 -346.0011,383.58551 -346.0011,383.09574 C -345.9972,382.82552 -346.10283,382.56522 -346.29392,382.37413 C -346.48501,382.18303 -346.74531,382.07741 -347.01553,382.08131 z"
       id="path6814"
       style="fill:#bebebe;fill-opacity:1;stroke:none;stroke-width:22.98097038;stroke-linecap:round;stroke-miterlimit:4;stroke-dasharray:none;stroke-dashoffset:0;stroke-opacity:1;display:inline" />
    <rect
       width="1.9999931"
       height="4.2318845"
       rx="1.5"
       ry="1.2783133"
       x="384"
       y="-346.685"
       transform="matrix(0,1,1,0,0,0)"
       id="rect6816"
       style="fill:#bebebe;fill-opacity:1;stroke:none;display:inline" />
    <path
       d="M -346.98448,384.01454 C -346.43261,384.006 -345.99199,383.55199 -345.99997,383.00012 C -345.99997,381.35505 -347.35467,380.00035 -348.99973,380.00035 C -349.36528,379.98736 -349.70876,380.17496 -349.89538,380.48955 C -350.08201,380.80413 -350.08201,381.1955 -349.89538,381.51009 C -349.70876,381.82467 -349.36528,382.01228 -348.99973,381.99929 C -348.4368,381.99929 -347.99891,382.43718 -347.99891,383.00012 C -348.0028,383.27033 -347.89718,383.53063 -347.70609,383.72172 C -347.51499,383.91282 -347.2547,384.01844 -346.98448,384.01454 z"
       id="path6818"
       style="fill:#bebebe;fill-opacity:1;stroke:none;stroke-width:22.98095131;stroke-linecap:round;stroke-miterlimit:4;stroke-dasharray:none;stroke-dashoffset:0;stroke-opacity:1;display:inline" />
  </g>
</svg>
