<?xml version="1.0" encoding="UTF-8" standalone="no"?>
<!-- Created with Inkscape (http://www.inkscape.org/) -->
<svg
   xmlns:svg="http://www.w3.org/2000/svg"
   xmlns="http://www.w3.org/2000/svg"
   version="1.0"
   width="24"
   height="24.00061"
   id="svg7384">
  <title
     id="title9167">Moblin Icon Theme</title>
  <defs
     id="defs7386" />
  <g
     transform="translate(524,-436)"
     id="layer3" />
  <g
     transform="translate(524,-436)"
     id="layer5" />
  <g
     transform="translate(524,-436)"
     id="layer7" />
  <g
     transform="translate(524,-436)"
     id="layer2" />
  <g
     transform="translate(524,-436)"
     id="layer8" />
  <g
     transform="translate(524,-1388.3622)"
     id="layer1" />
  <g
     transform="translate(524,-436)"
     id="layer11" />
  <g
     transform="translate(524,-436)"
     id="layer4" />
  <g
     transform="translate(524,-436)"
     id="layer9" />
  <g
     transform="translate(524,-436)"
     id="layer10" />
  <g
     transform="translate(524,-436)"
     id="layer6">
    <rect
       width="24"
       height="24"
       x="500"
       y="436.00061"
       transform="scale(-1,1)"
       id="rect5784"
       style="opacity:0;fill:#f5f5f5;fill-opacity:1;stroke:none;display:inline" />
    <path
       d="M -508.50861,448.62446 C -509.48793,449.5984 -510.84112,450.12792 -512.27351,450.05654 C -515.0197,449.91969 -517.15705,447.5598 -517.02421,444.81381 C -516.89137,442.06782 -514.53461,439.93392 -511.78843,440.07077 C -511.42212,440.07481 -511.08703,440.2788 -510.91502,440.60248 C -510.743,440.92616 -510.76157,441.31773 -510.96344,441.62313 C -511.1653,441.92852 -511.51814,442.09888 -511.88314,442.06716 C -513.54846,441.98417 -514.94713,443.24624 -515.02768,444.91144 C -515.10824,446.57664 -513.84413,447.97716 -512.1788,448.06015 C -510.97194,448.12029 -509.99946,447.58521 -509.41027,446.53117 C -509.14082,446.04911 -508.53127,445.87733 -508.04881,446.1475 C -507.56635,446.41766 -507.39368,447.02746 -507.66314,447.50952 C -507.89624,447.92652 -508.18217,448.29981 -508.50861,448.62446 z"
       id="path5786"
       style="fill:#bebebe;fill-opacity:1;stroke:none;stroke-width:11.48875809;stroke-linecap:round;stroke-miterlimit:4;stroke-dasharray:none;stroke-dashoffset:0;stroke-opacity:1;display:inline" />
    <path
       d="M -506.74118,453.78736 C -506.45338,454.07583 -506.01902,454.16041 -505.6434,454.00114 C -505.26778,453.84187 -505.02614,453.47064 -505.0327,453.06293 C -505.03069,450.31353 -507.28041,448.06382 -510.02981,448.06583 C -510.58217,448.06623 -511.03028,448.51434 -511.03069,449.06671 C -511.03109,449.61908 -510.58363,450.06653 -510.03127,450.06613 C -508.364,450.06491 -507.03179,451.39712 -507.033,453.06439 C -507.03765,453.33509 -506.93236,453.59595 -506.74118,453.78736 z"
       id="path5788"
       style="fill:#bebebe;fill-opacity:1;stroke:none;stroke-width:11.48875713;stroke-linecap:round;stroke-miterlimit:4;stroke-dasharray:none;stroke-dashoffset:0;stroke-opacity:1;display:inline" />
    <path
       d="M -513.33032,449.79505 C -513.51979,449.9721 -513.77077,450.06847 -514.03023,450.06381 C -515.66408,450.06262 -516.96957,451.32538 -517.02472,452.95821 C -517.04344,453.51057 -517.50641,453.94251 -518.05879,453.92299 C -518.61117,453.90346 -519.04379,453.43986 -519.02508,452.88751 C -518.93441,450.20335 -516.71752,448.06155 -514.03169,448.06351 C -513.61776,448.05649 -513.24193,448.30525 -513.08642,448.68916 C -512.93092,449.07308 -513.02789,449.51277 -513.33032,449.79505 z"
       id="path5790"
       style="fill:#bebebe;fill-opacity:1;stroke:none;stroke-width:11.48875713;stroke-linecap:round;stroke-miterlimit:4;stroke-dasharray:none;stroke-dashoffset:0;stroke-opacity:1;display:inline" />
    <path
       d="M -514.15625,448.0625 C -514.70853,448.08839 -515.13526,448.55709 -515.10937,449.10937 C -515.08349,449.66166 -514.61478,450.08839 -514.0625,450.0625 L -510.0625,450.0625 C -509.70186,450.0676 -509.36642,449.87812 -509.18461,449.56663 C -509.00281,449.25513 -509.00281,448.86987 -509.18461,448.55837 C -509.36642,448.24688 -509.70186,448.0574 -510.0625,448.0625 L -514.0625,448.0625 C -514.09373,448.06103 -514.12502,448.06103 -514.15625,448.0625 L -514.15625,448.0625 z"
       id="path5818"
       style="fill:#bebebe;fill-opacity:1;stroke:none;stroke-width:2;stroke-linecap:round;stroke-linejoin:round;marker:none;stroke-miterlimit:4;stroke-dasharray:none;stroke-dashoffset:0;stroke-opacity:1;visibility:visible;display:inline;overflow:visible;enable-background:accumulate" />
    <path
       d="M -506.21875,452 C -506.68438,452.10428 -507.01149,452.52298 -507,453 L -507,455.0625 C -507.0051,455.42314 -506.81562,455.75858 -506.50413,455.94039 C -506.19263,456.12219 -505.80737,456.12219 -505.49587,455.94039 C -505.18438,455.75858 -504.9949,455.42314 -505,455.0625 L -505,453 C -504.99256,452.69214 -505.12736,452.39803 -505.36543,452.20269 C -505.60349,452.00735 -505.91827,451.93258 -506.21875,452 L -506.21875,452 z"
       id="path5820"
       style="fill:#bebebe;fill-opacity:1;stroke:none;stroke-width:2;stroke-linecap:round;stroke-linejoin:round;marker:none;stroke-miterlimit:4;stroke-dasharray:none;stroke-dashoffset:0;stroke-opacity:1;visibility:visible;display:inline;overflow:visible;enable-background:accumulate" />
    <path
       d="M -518.21875,452.125 C -518.68438,452.22928 -519.01149,452.64798 -519,453.125 L -519,455.0625 C -519.0051,455.42314 -518.81562,455.75858 -518.50413,455.94039 C -518.19263,456.12219 -517.80737,456.12219 -517.49587,455.94039 C -517.18438,455.75858 -516.9949,455.42314 -517,455.0625 L -517,453.125 C -516.99256,452.81714 -517.12736,452.52303 -517.36543,452.32769 C -517.60349,452.13235 -517.91827,452.05758 -518.21875,452.125 z"
       id="path5822"
       style="fill:#bebebe;fill-opacity:1;stroke:none;stroke-width:2;stroke-linecap:round;stroke-linejoin:round;marker:none;stroke-miterlimit:4;stroke-dasharray:none;stroke-dashoffset:0;stroke-opacity:1;visibility:visible;display:inline;overflow:visible;enable-background:accumulate" />
    <path
       d="M -504.96875,436 C -507.71552,436 -509.9375,438.22198 -509.9375,440.96875 C -509.9375,443.71552 -507.71552,445.9375 -504.96875,445.9375 C -502.22198,445.9375 -500,443.71552 -500,440.96875 C -500,438.22198 -502.22198,436 -504.96875,436 z M -504.96875,437.03125 C -504.24684,437.03925 -504.26699,438.63191 -503.6875,439.0625 C -503.10801,439.49309 -501.55948,439.0298 -501.34375,439.71875 C -501.12802,440.40772 -502.67581,440.87831 -502.90625,441.5625 C -503.13669,442.24669 -502.19267,443.55068 -502.78125,443.96875 C -503.36983,444.38682 -504.30934,443.07023 -505.03125,443.0625 C -505.75316,443.0545 -506.70176,444.33684 -507.28125,443.90625 C -507.86074,443.47566 -506.90927,442.22022 -507.125,441.53125 C -507.34073,440.84228 -508.85544,440.30919 -508.625,439.625 C -508.39456,438.94081 -506.86983,439.44932 -506.28125,439.03125 C -505.69267,438.61318 -505.69066,437.02352 -504.96875,437.03125 z"
       id="path5998-8-1"
       style="fill:#bebebe;fill-opacity:1;stroke:none;stroke-width:2;marker:none;visibility:visible;display:inline;overflow:visible;enable-background:accumulate" />
  </g>
</svg>
