<?xml version="1.0" encoding="UTF-8" standalone="no"?>
<!-- Created with Inkscape (http://www.inkscape.org/) -->
<svg
   xmlns:svg="http://www.w3.org/2000/svg"
   xmlns="http://www.w3.org/2000/svg"
   version="1.0"
   width="24"
   height="24"
   id="svg7384">
  <defs
     id="defs7386" />
  <g
     transform="translate(490.91858,-371)"
     id="layer3" />
  <g
     transform="translate(490.91858,-371)"
     id="layer5" />
  <g
     transform="translate(490.91858,-371)"
     id="layer7" />
  <g
     transform="translate(490.91858,-371)"
     id="layer2" />
  <g
     transform="translate(490.91858,-371)"
     id="layer8" />
  <g
     transform="translate(490.91858,-1323.3622)"
     id="layer1" />
  <g
     transform="translate(490.91858,-371)"
     id="layer4" />
  <g
     transform="translate(490.91858,-371)"
     id="layer9" />
  <g
     transform="translate(490.91858,-371)"
     id="layer6">
    <rect
       width="24"
       height="24"
       x="-490.91858"
       y="371"
       id="rect5766"
       style="opacity:0;fill:#ffffff;fill-opacity:1;stroke:none;display:inline" />
    <rect
       width="2"
       height="21.850826"
       rx="1"
       ry="1"
       x="-487.91858"
       y="372"
       id="rect5768"
       style="fill:#bebebe;fill-opacity:1;stroke:none;display:inline" />
    <rect
       width="2"
       height="4"
       rx="1"
       ry="0.99999994"
       x="-472.91858"
       y="378"
       id="rect5770"
       style="fill:#bebebe;fill-opacity:1;stroke:none;display:inline" />
    <rect
       width="2"
       height="7"
       rx="1"
       ry="1"
       x="392.00891"
       y="480.91858"
       transform="matrix(0,1,-1,0,0,0)"
       id="rect5772"
       style="fill:#bebebe;fill-opacity:1;stroke:none;display:inline" />
    <rect
       width="2.0084164"
       height="11"
       rx="1.0042082"
       ry="1.0042082"
       x="372.00049"
       y="476.91858"
       transform="matrix(0,1,-1,0,0,0)"
       id="rect5774"
       style="fill:#bebebe;fill-opacity:1;stroke:none;display:inline" />
    <path
       d="M -471.21758,379.71272 C -471.61098,380.10612 -472.24438,380.10612 -472.63778,379.71272 L -478.62288,373.72412 C -479.01628,373.33082 -479.01628,372.69742 -478.62288,372.30402 C -478.22958,371.91062 -477.59618,371.91062 -477.20278,372.30402 L -471.21758,378.29252 C -470.82418,378.68592 -470.82418,379.31932 -471.21758,379.71272 z"
       id="path5776"
       style="fill:#bebebe;fill-opacity:1;stroke:none;display:inline" />
    <path
       d="M -474.91598,382.99996 C -478.22828,382.99996 -480.91338,385.68852 -480.91338,388.99991 C -480.91338,392.31139 -478.22828,394.99996 -474.91598,394.99996 C -471.60368,394.99996 -468.91858,392.31139 -468.91858,388.99991 C -468.91858,385.68852 -471.60368,382.99996 -474.91598,382.99996 z"
       id="path3543-8-1"
       style="fill:#009bce;fill-opacity:1;stroke:none;display:inline" />
    <rect
       width="2"
       height="2"
       x="-475.91858"
       y="385"
       id="rect5835"
       style="fill:#ffffff;fill-opacity:1;stroke:none;display:inline" />
    <rect
       width="2"
       height="5"
       x="-475.91858"
       y="388"
       id="rect5837"
       style="fill:#ffffff;fill-opacity:1;stroke:none;display:inline" />
  </g>
</svg>
