<?xml version="1.0" encoding="UTF-8" standalone="no"?>
<!-- Created with Inkscape (http://www.inkscape.org/) -->
<svg
   xmlns:svg="http://www.w3.org/2000/svg"
   xmlns="http://www.w3.org/2000/svg"
   version="1.0"
   width="24"
   height="24"
   id="svg7384">
  <defs
     id="defs7386" />
  <g
     transform="translate(619,-308)"
     id="layer3" />
  <g
     transform="translate(619,-308)"
     id="layer5" />
  <g
     transform="translate(619,-308)"
     id="layer7" />
  <g
     transform="translate(619,-308)"
     id="layer2" />
  <g
     transform="translate(619,-308)"
     id="layer8" />
  <g
     transform="translate(619,-1260.3622)"
     id="layer1" />
  <g
     transform="translate(619,-308)"
     id="layer4" />
  <g
     transform="translate(619,-308)"
     id="layer9" />
  <g
     transform="translate(619,-308)"
     id="layer6">
    <g
       transform="translate(-1068,894.99707)"
       id="use6375">
      <rect
         width="24"
         height="24"
         x="-473"
         y="-586.99707"
         transform="scale(-1,1)"
         id="rect8943"
         style="opacity:0;fill:#ffffff;fill-opacity:1;stroke:none;display:inline" />
      <path
         d="M 456,-577.96875 L 471.03125,-577.96875 L 471.03125,-571.95816 C 471.03125,-569.19336 469.03293,-568 467,-568 L 451,-568 L 451,-585 L 459,-585 L 459,-582 L 468,-582 L 468,-579.15625"
         id="path8945"
         style="fill:none;stroke:#bebebe;stroke-width:2;stroke-linecap:round;stroke-linejoin:round;stroke-miterlimit:4;stroke-dasharray:none;stroke-opacity:1" />
      <path
         d="M 455.5086,-577.97209 L 455.4959,-571.96875 C 455.4869,-569.22996 451.98985,-568.92707 451.98985,-568.92707"
         id="path8947"
         style="fill:none;stroke:#bebebe;stroke-width:1px;stroke-linecap:butt;stroke-linejoin:miter;stroke-opacity:1" />
    </g>
  </g>
</svg>
