<?xml version="1.0" encoding="UTF-8" standalone="no"?>
<!-- Created with Inkscape (http://www.inkscape.org/) -->
<svg
   xmlns:svg="http://www.w3.org/2000/svg"
   xmlns="http://www.w3.org/2000/svg"
   version="1.0"
   width="24"
   height="24"
   id="svg7384">
  <defs
     id="defs7386" />
  <g
     transform="translate(620,-306)"
     id="layer3" />
  <g
     transform="translate(620,-306)"
     id="layer5" />
  <g
     transform="translate(620,-306)"
     id="layer7" />
  <g
     transform="translate(620,-306)"
     id="layer2" />
  <g
     transform="translate(620,-306)"
     id="layer8" />
  <g
     transform="translate(620,-1258.3622)"
     id="layer1" />
  <g
     transform="translate(620,-306)"
     id="layer4" />
  <g
     transform="translate(620,-306)"
     id="layer9" />
  <g
     transform="translate(620,-306)"
     id="layer6">
    <g
       transform="translate(-1069,892.99707)"
       id="use6375">
      <rect
         width="24"
         height="24"
         x="-473"
         y="-586.99707"
         transform="scale(-1,1)"
         id="rect9145"
         style="opacity:0;fill:#ffffff;fill-opacity:1;stroke:none;display:inline" />
      <path
         d="M 454.01428,-575.95052 L 470.07494,-575.95052 L 470.07494,-572.03368 C 470.07494,-569.95656 468.79851,-568.01302 466.45622,-568.01302 L 450.02722,-568.01302 L 450.02722,-585.98529 L 455.94994,-585.98529 C 457.96567,-585.98529 459.01244,-584.5424 459.01244,-582.98529 L 459.04534,-581.95052 L 468.07493,-581.95052 L 468.07493,-575.95052"
         id="path9147"
         style="fill:none;stroke:#bebebe;stroke-width:2;stroke-linecap:round;stroke-linejoin:round;stroke-miterlimit:4;stroke-dasharray:none;stroke-opacity:1" />
      <path
         d="M 453.52371,-575.95386 L 453.5239,-572.01302 C 453.52371,-569.8475 451.97718,-568.94009 451.0491,-568.94009"
         id="path9149"
         style="fill:none;stroke:#bebebe;stroke-width:1px;stroke-linecap:butt;stroke-linejoin:miter;stroke-opacity:1" />
    </g>
  </g>
</svg>
