<?xml version="1.0" encoding="UTF-8" standalone="no"?>
<!-- Created with Inkscape (http://www.inkscape.org/) -->
<svg
   xmlns:svg="http://www.w3.org/2000/svg"
   xmlns="http://www.w3.org/2000/svg"
   version="1.0"
   width="24"
   height="24"
   id="svg7384">
  <title
     id="title9167">Moblin Icon Theme</title>
  <defs
     id="defs7386" />
  <g
     transform="translate(554,-468)"
     id="layer3" />
  <g
     transform="translate(554,-468)"
     id="layer5" />
  <g
     transform="translate(554,-468)"
     id="layer7" />
  <g
     transform="translate(554,-468)"
     id="layer2" />
  <g
     transform="translate(554,-468)"
     id="layer8" />
  <g
     transform="translate(554,-1420.3622)"
     id="layer1" />
  <g
     transform="translate(554,-468)"
     id="layer11" />
  <g
     transform="translate(554,-468)"
     id="layer4" />
  <g
     transform="translate(554,-468)"
     id="layer9" />
  <g
     transform="translate(554,-468)"
     id="layer10" />
  <g
     transform="translate(554,-468)"
     id="layer6">
    <rect
       width="24"
       height="24"
       x="-554"
       y="468"
       id="rect6335"
       style="opacity:0;fill:#ffffff;fill-opacity:1;stroke:none;display:inline" />
    <g
       transform="translate(-80.081498,106.99983)"
       id="g6337" />
    <path
       d="M -543.125,472 C -543.42285,472.04031 -543.68678,472.21243 -543.84375,472.46875 L -548.84375,480.46875 C -548.89968,480.55549 -548.94184,480.65036 -548.96875,480.75 L -549.96875,484.75 C -550.04605,485.04955 -549.98038,485.36801 -549.79087,485.61253 C -549.60136,485.85706 -549.30936,486.00012 -549,486 L -531,486 C -530.58827,486.00969 -530.2127,485.76598 -530.05381,485.38602 C -529.89492,485.00606 -529.98519,484.56755 -530.28125,484.28125 L -542.28125,472.28125 C -542.50305,472.06072 -542.81524,471.95665 -543.125,472 z M -542.84375,474.59375 L -533.4375,484 L -547.71875,484 L -547.0625,481.375 L -542.84375,474.59375 z"
       id="path6343"
       style="fill:#bebebe;fill-opacity:1;stroke:none;stroke-width:2;stroke-linecap:round;stroke-linejoin:round;marker:none;stroke-miterlimit:4;stroke-dasharray:none;stroke-dashoffset:0;stroke-opacity:1;visibility:visible;display:inline;overflow:visible;enable-background:accumulate" />
    <path
       d="M -553.09375,474 C -553.45038,474.02684 -553.76554,474.24208 -553.9203,474.5645 C -554.07507,474.88693 -554.04588,475.26745 -553.84375,475.5625 L -550,481.34375 L -549.9375,485 C -549.92329,485.49854 -549.54394,485.91041 -549.04825,485.96549 C -548.55256,486.02056 -548.09205,485.70201 -547.96875,485.21875 L -547.0625,481.40625 L -545.34375,478.375 C -545.19571,478.12233 -545.16586,477.81747 -545.26206,477.54088 C -545.35827,477.26429 -545.57087,477.04376 -545.84375,476.9375 L -552.625,474.09375 C -552.77137,474.02507 -552.93222,473.9929 -553.09375,474 L -553.09375,474 z M -550.3125,477.21875 L -547.65625,478.34375 L -548.53125,479.875 L -550.3125,477.21875 z"
       id="path6345"
       style="fill:#bebebe;fill-opacity:1;stroke:none;stroke-width:2;stroke-linecap:round;stroke-linejoin:round;marker:none;stroke-miterlimit:4;stroke-dasharray:none;stroke-dashoffset:0;stroke-opacity:1;visibility:visible;display:inline;overflow:visible;enable-background:accumulate" />
    <path
       d="M -548.125,480.5 C -548.39839,480.50387 -548.61798,480.72659 -548.61798,481 C -548.61798,481.27341 -548.39839,481.49613 -548.125,481.5 L -532.125,485.5 C -531.84886,485.56904 -531.56904,485.40114 -531.5,485.125 C -531.43096,484.84886 -531.59886,484.56904 -531.875,484.5 L -547.875,480.5 C -547.95699,480.47883 -548.04301,480.47883 -548.125,480.5 z"
       id="path6347"
       style="fill:#bebebe;fill-opacity:1;stroke:none;stroke-width:1;stroke-linecap:round;stroke-linejoin:round;marker:none;stroke-miterlimit:4;stroke-dasharray:none;stroke-dashoffset:0;stroke-opacity:1;visibility:visible;display:inline;overflow:visible;enable-background:accumulate" />
  </g>
</svg>
