<?xml version="1.0" encoding="UTF-8" standalone="no"?>
<!-- Created with Inkscape (http://www.inkscape.org/) -->
<svg
   xmlns:svg="http://www.w3.org/2000/svg"
   xmlns="http://www.w3.org/2000/svg"
   version="1.0"
   width="24.005199"
   height="24"
   id="svg7384">
  <defs
     id="defs7386" />
  <g
     transform="translate(492,-370)"
     id="layer3" />
  <g
     transform="translate(492,-370)"
     id="layer5" />
  <g
     transform="translate(492,-370)"
     id="layer7" />
  <g
     transform="translate(492,-370)"
     id="layer2" />
  <g
     transform="translate(492,-370)"
     id="layer8" />
  <g
     transform="translate(492,-1322.3622)"
     id="layer1" />
  <g
     transform="translate(492,-370)"
     id="layer4" />
  <g
     transform="translate(492,-370)"
     id="layer9" />
  <g
     transform="translate(492,-370)"
     id="layer6">
    <rect
       width="24"
       height="24"
       x="-492"
       y="370"
       id="rect5766"
       style="opacity:0;fill:#ffffff;fill-opacity:1;stroke:none;display:inline" />
    <path
       d="M -474.9974,378.99437 C -478.86486,378.99437 -482,382.13354 -482,385.99994 C -482,389.86644 -478.86486,393.00563 -474.9974,393.00563 C -471.12994,393.00563 -467.9948,389.86644 -467.9948,385.99994 C -467.9948,382.13354 -471.12994,378.99437 -474.9974,378.99437 z"
       id="path3543-8-1"
       style="fill:#009bce;fill-opacity:1;stroke:none;display:inline" />
    <rect
       width="2"
       height="2"
       x="-476"
       y="382"
       id="rect5835"
       style="fill:#ffffff;fill-opacity:1;stroke:none;display:inline" />
    <rect
       width="2"
       height="5"
       x="-476"
       y="385"
       id="rect5837"
       style="fill:#ffffff;fill-opacity:1;stroke:none;display:inline" />
    <path
       d="M -489.09375,370 C -489.60911,370.04857 -490.00223,370.48237 -490,371 L -490,391.0625 C -489.99994,391.61476 -489.55226,392.06244 -489,392.0625 L -482.75,392.0625 C -482.38936,392.0676 -482.05392,391.87812 -481.87211,391.56663 C -481.69031,391.25513 -481.69031,390.86987 -481.87211,390.55837 C -482.05392,390.24688 -482.38936,390.0574 -482.75,390.0625 L -488,390.0625 L -488,372 L -480.4375,372 L -474.59375,377.84375 C -474.1968,378.2407 -473.5532,378.2407 -473.15625,377.84375 C -472.7593,377.4468 -472.7593,376.8032 -473.15625,376.40625 L -479.28125,370.28125 C -479.47355,370.0951 -479.73244,369.9938 -480,370 L -489,370 C -489.03123,369.99853 -489.06252,369.99853 -489.09375,370 z"
       id="path6285"
       style="fill:#bebebe;fill-opacity:1;stroke:none;stroke-width:2;stroke-linecap:round;stroke-linejoin:round;marker:none;stroke-miterlimit:4;stroke-dasharray:none;stroke-dashoffset:0;stroke-opacity:1;visibility:visible;display:inline;overflow:visible;enable-background:accumulate" />
  </g>
</svg>
