<?xml version="1.0" encoding="UTF-8" standalone="no"?>
<!-- Created with Inkscape (http://www.inkscape.org/) -->
<svg
   xmlns:svg="http://www.w3.org/2000/svg"
   xmlns="http://www.w3.org/2000/svg"
   xmlns:xlink="http://www.w3.org/1999/xlink"
   version="1.0"
   width="24"
   height="24"
   id="svg7384">
  <title
     id="title9167">Moblin Icon Theme</title>
  <defs
     id="defs7386">
    <linearGradient
       id="linearGradient13538-1">
      <stop
         id="stop13540-2"
         style="stop-color:#bebebe;stop-opacity:1"
         offset="0" />
      <stop
         id="stop13542-4"
         style="stop-color:#bebebe;stop-opacity:0"
         offset="1" />
    </linearGradient>
    <linearGradient
       x1="1207.2737"
       y1="446.12576"
       x2="1207.2737"
       y2="435.73633"
       id="linearGradient6426"
       xlink:href="#linearGradient13538-1"
       gradientUnits="userSpaceOnUse"
       gradientTransform="translate(-1750.3382,-128.10771)" />
  </defs>
  <g
     transform="translate(556,-306)"
     id="layer3" />
  <g
     transform="translate(556,-306)"
     id="layer5" />
  <g
     transform="translate(556,-306)"
     id="layer7" />
  <g
     transform="translate(556,-306)"
     id="layer2" />
  <g
     transform="translate(556,-306)"
     id="layer8" />
  <g
     transform="translate(556,-1258.3622)"
     id="layer1" />
  <g
     transform="translate(556,-306)"
     id="layer11" />
  <g
     transform="translate(556,-306)"
     id="layer4" />
  <g
     transform="translate(556,-306)"
     id="layer9" />
  <g
     transform="translate(556,-306)"
     id="layer10" />
  <g
     transform="translate(556,-306)"
     id="layer6">
    <rect
       width="24"
       height="24"
       x="532"
       y="306"
       transform="scale(-1,1)"
       id="rect6405"
       style="opacity:0;fill:#ffffff;fill-opacity:1;stroke:none;display:inline" />
    <g
       transform="translate(-1.0650024,-1.0542603)"
       id="g7266">
      <g
         transform="matrix(0,-1,1,0,-568.15229,339.3908)"
         id="g6414"
         style="fill:#bebebe;fill-opacity:1;display:inline">
        <g
           transform="matrix(-1,0,0,1,42.778175,-2.71e-3)"
           id="g6416"
           style="fill:#bebebe;fill-opacity:1">
          <g
             transform="translate(-2.9408701,-1.5221e-2)"
             id="g6418"
             style="fill:#bebebe;fill-opacity:1">
            <path
               d="M 22.341173,31.184646 C 22.341173,31.184646 22.341173,29.770432 22.341173,29.770432 L 27.62013,24.503888 C 28.011867,24.112151 28.642606,24.112151 29.034344,24.503888 C 29.426081,24.895625 29.426081,25.526365 29.034344,25.918102 L 23.755387,31.184646 C 23.755387,31.184646 22.341173,31.184646 22.341173,31.184646 L 22.341173,31.184646 L 22.341173,31.184646 z"
               id="path6420"
               style="fill:#bebebe;fill-opacity:1;stroke:none" />
            <path
               d="M 22.322283,19.202872 C 22.322283,19.202872 22.322283,20.617086 22.322283,20.617086 L 27.602515,25.879701 C 27.994252,26.271438 28.624991,26.271438 29.016729,25.879701 C 29.408466,25.487964 29.408466,24.857225 29.016729,24.465488 L 23.736496,19.202872 C 23.736496,19.202872 22.322283,19.202872 22.322283,19.202872 L 22.322283,19.202872 L 22.322283,19.202872 z"
               id="path6422"
               style="fill:#bebebe;fill-opacity:1;stroke:none" />
          </g>
        </g>
      </g>
      <rect
         width="2"
         height="14"
         rx="1"
         ry="0.99999994"
         x="-543.9967"
         y="308.98236"
         id="rect6424"
         style="opacity:0.98999999;fill:url(#linearGradient6426);fill-opacity:1;stroke:none;display:inline" />
    </g>
    <path
       d="M -551.25,311 C -552.79053,311 -554.0625,312.27198 -554.0625,313.8125 L -554.0625,327.125 C -554.0625,328.66553 -552.79052,329.9375 -551.25,329.9375 L -536.875,329.9375 C -535.33447,329.9375 -534.06253,328.66552 -534.0625,327.125 L -534.0625,313.8125 C -534.0625,312.27197 -535.33446,311 -536.875,311 L -541,311 L -541,313 L -536.875,313 C -536.40783,313 -536.0625,313.34537 -536.0625,313.8125 L -536.0625,327.125 C -536.06251,327.59212 -536.40787,327.9375 -536.875,327.9375 L -551.25,327.9375 C -551.71711,327.9375 -552.0625,327.59213 -552.0625,327.125 L -552.0625,313.8125 C -552.0625,313.34538 -551.71713,313 -551.25,313 L -546.9375,313 L -546.9375,311 L -551.25,311 z"
       id="rect7225-2"
       style="fill:#bebebe;fill-opacity:1;stroke:none;stroke-width:1.99999976;marker:none;stroke-miterlimit:4;stroke-opacity:1;visibility:visible;display:inline;overflow:visible;enable-background:new" />
    <rect
       width="4"
       height="2"
       x="-550"
       y="324"
       id="rect14448"
       style="fill:#bebebe;fill-opacity:1;stroke:none;stroke-width:2;marker:none;visibility:visible;display:inline;overflow:visible;enable-background:accumulate" />
    <rect
       width="2"
       height="2"
       x="-544"
       y="324"
       id="rect14450"
       style="fill:#bebebe;fill-opacity:1;stroke:none;stroke-width:2;marker:none;visibility:visible;display:inline;overflow:visible;enable-background:accumulate" />
    <rect
       width="2"
       height="2"
       x="-540"
       y="324"
       id="rect14452"
       style="fill:#bebebe;fill-opacity:1;stroke:none;stroke-width:2;marker:none;visibility:visible;display:inline;overflow:visible;enable-background:accumulate" />
  </g>
</svg>
