<?xml version="1.0" encoding="UTF-8" standalone="no"?>
<!-- Created with Inkscape (http://www.inkscape.org/) -->
<svg
   xmlns:svg="http://www.w3.org/2000/svg"
   xmlns="http://www.w3.org/2000/svg"
   version="1.0"
   width="24"
   height="24"
   id="svg7384">
  <title
     id="title9167">Moblin Icon Theme</title>
  <defs
     id="defs7386" />
  <g
     transform="translate(364,-174)"
     id="layer3" />
  <g
     transform="translate(364,-174)"
     id="layer5" />
  <g
     transform="translate(364,-174)"
     id="layer7" />
  <g
     transform="translate(364,-174)"
     id="layer2" />
  <g
     transform="translate(364,-174)"
     id="layer8" />
  <g
     transform="translate(364,-1126.3622)"
     id="layer1" />
  <g
     transform="translate(364,-174)"
     id="layer11" />
  <g
     transform="translate(364,-174)"
     id="layer4" />
  <g
     transform="translate(364,-174)"
     id="layer9" />
  <g
     transform="translate(364,-174)"
     id="layer10" />
  <g
     transform="translate(364,-174)"
     id="layer6">
    <rect
       width="24"
       height="24"
       x="-364"
       y="174"
       id="rect8221"
       style="opacity:0;fill:#ffffff;fill-opacity:1;stroke:none;display:inline" />
    <path
       d="M -361.09375,176 C -361.60911,176.04857 -362.00223,176.48237 -362,177 L -362,197 C -361.99994,197.55226 -361.55226,197.99994 -361,198 L -351,198 C -350.73244,198.0062 -350.47355,197.9049 -350.28125,197.71875 L -344.28125,191.71875 C -344.0951,191.52645 -343.9938,191.26756 -344,191 L -344,188.125 C -343.9949,187.76436 -344.18438,187.42892 -344.49587,187.24711 C -344.80737,187.06531 -345.19263,187.06531 -345.50413,187.24711 C -345.81562,187.42892 -346.0051,187.76436 -346,188.125 L -346,190.5625 L -351.4375,196 L -360,196 L -360,178 L -350.9375,178 C -350.57686,178.0051 -350.24142,177.81562 -350.05961,177.50413 C -349.87781,177.19263 -349.87781,176.80737 -350.05961,176.49587 C -350.24142,176.18438 -350.57686,175.9949 -350.9375,176 L -361,176 C -361.03123,175.99853 -361.06252,175.99853 -361.09375,176 z"
       id="path9837"
       style="fill:#bebebe;fill-opacity:1;stroke:none;stroke-width:2;stroke-linecap:round;stroke-linejoin:round;stroke-miterlimit:4;stroke-dasharray:none;stroke-opacity:1" />
    <path
       d="M -351.09375,190 C -351.60911,190.04857 -352.00223,190.48237 -352,191 L -352,196.4375 C -352.00969,196.84923 -351.76598,197.2248 -351.38602,197.38369 C -351.00606,197.54258 -350.56755,197.45231 -350.28125,197.15625 L -344.84375,191.71875 C -344.54769,191.43245 -344.45742,190.99394 -344.61631,190.61398 C -344.7752,190.23402 -345.15077,189.99031 -345.5625,190 L -351,190 C -351.03123,189.99853 -351.06252,189.99853 -351.09375,190 z M -350,192 L -348,192 L -350,194 L -350,192 z"
       id="path9901"
       style="fill:#bebebe;fill-opacity:1;stroke:none;stroke-width:2;stroke-linecap:round;stroke-linejoin:round;marker:none;stroke-miterlimit:4;stroke-dasharray:none;stroke-dashoffset:0;stroke-opacity:1;visibility:visible;display:inline;overflow:visible;enable-background:accumulate" />
    <g
       transform="translate(256,-135.02653)"
       id="g9869">
      <path
         d="M -629,308 C -631.74677,308 -633.96875,310.22198 -633.96875,312.96875 C -633.96875,315.71552 -631.74677,317.9375 -629,317.9375 C -626.25323,317.9375 -624.03125,315.71552 -624.03125,312.96875 C -624.03125,310.22198 -626.25323,308 -629,308 z M -629,309.03125 C -628.27809,309.03925 -628.29824,310.63191 -627.71875,311.0625 C -627.13926,311.49309 -625.59073,311.0298 -625.375,311.71875 C -625.15927,312.40772 -626.70706,312.87831 -626.9375,313.5625 C -627.16794,314.24669 -626.22392,315.55068 -626.8125,315.96875 C -627.40108,316.38682 -628.34059,315.07023 -629.0625,315.0625 C -629.78441,315.0545 -630.73301,316.33684 -631.3125,315.90625 C -631.89199,315.47566 -630.94052,314.22022 -631.15625,313.53125 C -631.37198,312.84228 -632.88669,312.30919 -632.65625,311.625 C -632.42581,310.94081 -630.90108,311.44932 -630.3125,311.03125 C -629.72392,310.61318 -629.72191,309.02352 -629,309.03125 z"
         transform="translate(28,3.0265316)"
         id="path9865"
         style="fill:#bebebe;fill-opacity:1;stroke:none;stroke-width:2;marker:none;visibility:visible;display:inline;overflow:visible;enable-background:accumulate" />
    </g>
  </g>
</svg>
