<?xml version="1.0" encoding="UTF-8" standalone="no"?>
<!-- Created with Inkscape (http://www.inkscape.org/) -->
<svg
   xmlns:svg="http://www.w3.org/2000/svg"
   xmlns="http://www.w3.org/2000/svg"
   version="1.0"
   width="24"
   height="24"
   id="svg7384">
  <defs
     id="defs7386" />
  <g
     transform="translate(394.96747,-307.00006)"
     id="layer3" />
  <g
     transform="translate(394.96747,-307.00006)"
     id="layer5" />
  <g
     transform="translate(394.96747,-307.00006)"
     id="layer7" />
  <g
     transform="translate(394.96747,-307.00006)"
     id="layer2" />
  <g
     transform="translate(394.96747,-307.00006)"
     id="layer8" />
  <g
     transform="translate(394.96747,-1259.3622)"
     id="layer1" />
  <g
     transform="translate(394.96747,-307.00006)"
     id="layer4" />
  <g
     transform="translate(394.96747,-307.00006)"
     id="layer9" />
  <g
     transform="translate(394.96747,-307.00006)"
     id="layer6">
    <rect
       width="24"
       height="24"
       x="370.96747"
       y="307.00006"
       transform="scale(-1,1)"
       id="rect9174"
       style="opacity:0;fill:#ffffff;fill-opacity:1;stroke:none;display:inline" />
    <rect
       width="2"
       height="6"
       rx="1"
       ry="1"
       x="315.00006"
       y="371.96747"
       transform="matrix(0,1,-1,0,0,0)"
       id="rect2838"
       style="fill:#bebebe;fill-opacity:1;stroke:none;display:inline" />
    <rect
       width="2"
       height="6"
       rx="1"
       ry="0.99999994"
       x="315.00006"
       y="387.96747"
       transform="matrix(0,1,-1,0,0,0)"
       id="rect2840"
       style="fill:#bebebe;fill-opacity:1;stroke:none;display:inline" />
    <rect
       width="2"
       height="12"
       rx="1"
       ry="1"
       x="-393.96747"
       y="315.00006"
       id="rect2843"
       style="fill:#bebebe;fill-opacity:1;stroke:none;display:inline" />
    <rect
       width="2"
       height="12"
       rx="1"
       ry="1"
       x="-373.96747"
       y="315.00006"
       id="rect2845"
       style="fill:#bebebe;fill-opacity:1;stroke:none;display:inline" />
    <rect
       width="2"
       height="4"
       rx="1"
       ry="0.99999988"
       x="325.00006"
       y="371.96747"
       transform="matrix(0,1,-1,0,0,0)"
       id="rect2849"
       style="fill:#bebebe;fill-opacity:1;stroke:none;display:inline" />
    <rect
       width="2"
       height="18"
       rx="1"
       ry="1"
       x="328.00006"
       y="373.96747"
       transform="matrix(0,1,-1,0,0,0)"
       id="rect2851"
       style="fill:#bebebe;fill-opacity:1;stroke:none;display:inline" />
    <rect
       width="2"
       height="5"
       rx="1"
       ry="1"
       x="-375.96747"
       y="325.00006"
       id="rect9197"
       style="fill:#bebebe;fill-opacity:1;stroke:none;display:inline" />
    <rect
       width="2"
       height="5"
       rx="1"
       ry="1"
       x="-391.96747"
       y="325.00006"
       id="rect9199"
       style="fill:#bebebe;fill-opacity:1;stroke:none;display:inline" />
    <rect
       width="2"
       height="4"
       rx="1"
       ry="0.99999994"
       x="325.00006"
       y="389.96747"
       transform="matrix(0,1,-1,0,0,0)"
       id="rect9201"
       style="fill:#bebebe;fill-opacity:1;stroke:none;display:inline" />
    <rect
       width="8.9451294"
       height="1.9756097"
       rx="0.98780489"
       ry="0.98780483"
       x="380.99799"
       y="308.03217"
       transform="scale(-1,1)"
       id="rect3626-0-6"
       style="fill:#bebebe;fill-opacity:1;stroke:none;display:inline" />
    <rect
       width="6.614254"
       height="1.9756097"
       rx="0.98780477"
       ry="0.98780483"
       x="-320.00006"
       y="-377.94305"
       transform="matrix(0,-1,1,0,0,0)"
       id="rect3626-5-0-0"
       style="fill:#bebebe;fill-opacity:1;stroke:none;display:inline" />
    <rect
       width="13.958679"
       height="1.9756097"
       rx="0.98780477"
       ry="0.98780483"
       x="376.00873"
       y="318.02435"
       transform="scale(-1,1)"
       id="rect2905-1"
       style="fill:#bebebe;fill-opacity:1;stroke:none;display:inline" />
    <path
       d="M -381.30739,308.3145 L -376.28809,313.338 C -375.90119,313.725 -375.90119,314.348 -376.28809,314.735 C -376.67509,315.122 -377.29809,315.122 -377.68509,314.735 L -382.70439,309.7115 C -383.09139,309.3245 -383.09139,308.7015 -382.70439,308.3145 C -382.31749,307.9276 -381.69439,307.9276 -381.30739,308.3145 z"
       id="rect2836-42-2"
       style="fill:#bebebe;fill-opacity:1;stroke:none;display:inline" />
    <rect
       width="11.97561"
       height="1.9756097"
       rx="0.98780483"
       ry="0.98780483"
       x="-320.00006"
       y="-389.94305"
       transform="matrix(0,-1,1,0,0,0)"
       id="rect9584"
       style="fill:#bebebe;fill-opacity:1;stroke:none;display:inline" />
  </g>
</svg>
