<?xml version="1.0" encoding="UTF-8" standalone="no"?>
<!-- Created with Inkscape (http://www.inkscape.org/) -->
<svg
   xmlns:svg="http://www.w3.org/2000/svg"
   xmlns="http://www.w3.org/2000/svg"
   version="1.0"
   width="24"
   height="24"
   id="svg7384">
  <defs
     id="defs7386" />
  <g
     transform="translate(616,-436)"
     id="layer3" />
  <g
     transform="translate(616,-436)"
     id="layer5" />
  <g
     transform="translate(616,-436)"
     id="layer7" />
  <g
     transform="translate(616,-436)"
     id="layer2" />
  <g
     transform="translate(616,-436)"
     id="layer8" />
  <g
     transform="translate(616,-1388.3622)"
     id="layer1" />
  <g
     transform="translate(616,-436)"
     id="layer4" />
  <g
     transform="translate(616,-436)"
     id="layer9" />
  <g
     transform="translate(616,-436)"
     id="layer6">
    <rect
       width="24"
       height="24"
       x="-616"
       y="436"
       id="rect9103"
       style="opacity:0;fill:#ffffff;fill-opacity:1;stroke:none;display:inline" />
    <path
       d="M -613.09375,436 C -613.60911,436.04857 -614.00223,436.48237 -614,437 L -614,457.0625 C -613.99994,457.61476 -613.55226,458.06244 -613,458.0625 L -597.125,458.0625 C -596.57274,458.06244 -596.12506,457.61476 -596.125,457.0625 L -596.125,455.9375 C -596.1199,455.57686 -596.30938,455.24142 -596.62087,455.05961 C -596.93237,454.87781 -597.31763,454.87781 -597.62913,455.05961 C -597.94062,455.24142 -598.1301,455.57686 -598.125,455.9375 L -598.125,456.0625 L -612,456.0625 L -612,438 L -603.4375,438 L -597.9375,443.5625 L -597.9375,446.03125 C -597.9426,446.39189 -597.75312,446.72733 -597.44163,446.90914 C -597.13013,447.09094 -596.74487,447.09094 -596.43337,446.90914 C -596.12188,446.72733 -595.9324,446.39189 -595.9375,446.03125 L -595.9375,443.125 C -595.9313,442.85744 -596.0326,442.59855 -596.21875,442.40625 L -602.28125,436.28125 C -602.47355,436.0951 -602.73244,435.9938 -603,436 L -613,436 C -613.03123,435.99853 -613.06252,435.99853 -613.09375,436 L -613.09375,436 z"
       id="path9105"
       style="fill:#bebebe;fill-opacity:1;stroke:none;stroke-width:2;stroke-linecap:round;stroke-linejoin:round;marker:none;stroke-miterlimit:4;stroke-dasharray:none;stroke-dashoffset:0;stroke-opacity:1;visibility:visible;display:inline;overflow:visible;enable-background:accumulate" />
    <g
       transform="translate(-142.0815,74.999828)"
       id="g9107" />
    <path
       d="M -609,442 C -609.54002,442.01694 -609.96896,442.45971 -609.96875,443 L -609.96875,453 C -609.96869,453.55226 -609.52101,453.99994 -608.96875,454 L -593,454 C -592.55646,453.99743 -592.16761,453.70302 -592.0448,453.27682 C -591.92199,452.85061 -592.09458,452.39443 -592.46875,452.15625 L -608.4375,442.15625 C -608.60529,442.04938 -608.80113,441.99498 -609,442 z M -607.96875,444.8125 L -596.46875,452 L -607.96875,452 L -607.96875,444.8125 z"
       id="path9113"
       style="fill:#bebebe;fill-opacity:1;fill-rule:nonzero;stroke:none;stroke-width:2;stroke-linecap:round;stroke-linejoin:round;marker:none;stroke-miterlimit:4;stroke-dasharray:none;stroke-dashoffset:0;stroke-opacity:1;visibility:visible;display:inline;overflow:visible;enable-background:accumulate" />
    <path
       d="M -607,446.59375 L -607,447.5 L -607,450.5 L -607,451 L -606.5,451 L -601.75,451 L -600.03125,451 L -601.46875,450.0625 L -606.21875,447.0625 L -607,446.59375 z M -606,448.4375 L -603.5,450 L -606,450 L -606,448.4375 z"
       id="path9136"
       style="fill:#bebebe;fill-opacity:1;stroke:none;stroke-width:1px;stroke-linecap:butt;stroke-linejoin:miter;stroke-opacity:1" />
  </g>
</svg>
