<?xml version="1.0" encoding="UTF-8" standalone="no"?>
<!-- Created with Inkscape (http://www.inkscape.org/) -->
<svg
   xmlns:svg="http://www.w3.org/2000/svg"
   xmlns="http://www.w3.org/2000/svg"
   version="1.0"
   width="24.0625"
   height="24"
   id="svg7384">
  <defs
     id="defs7386" />
  <g
     transform="translate(464,-404)"
     id="layer3" />
  <g
     transform="translate(464,-404)"
     id="layer5" />
  <g
     transform="translate(464,-404)"
     id="layer7" />
  <g
     transform="translate(464,-404)"
     id="layer2" />
  <g
     transform="translate(464,-404)"
     id="layer8" />
  <g
     transform="translate(464,-1356.3622)"
     id="layer1" />
  <g
     transform="translate(464,-404)"
     id="layer4" />
  <g
     transform="translate(464,-404)"
     id="layer9" />
  <g
     transform="translate(464,-404)"
     id="layer6">
    <rect
       width="24"
       height="24"
       x="-464"
       y="404"
       id="rect9011"
       style="opacity:0;fill:#ffffff;fill-opacity:1;stroke:none;display:inline" />
    <path
       d="M -461.09375,404 C -461.60911,404.04857 -462.00223,404.48237 -462,405 L -462,425.0625 C -461.99994,425.61476 -461.55226,426.06244 -461,426.0625 L -456.875,426.0625 C -456.51436,426.0676 -456.17892,425.87812 -455.99711,425.56663 C -455.81531,425.25513 -455.81531,424.86987 -455.99711,424.55837 C -456.17892,424.24688 -456.51436,424.0574 -456.875,424.0625 L -460,424.0625 L -460,406 L -451.46875,406 L -445.96875,411.5625 L -445.96875,416.03125 C -445.97385,416.39189 -445.78437,416.72733 -445.47288,416.90914 C -445.16138,417.09094 -444.77612,417.09094 -444.46462,416.90914 C -444.15313,416.72733 -443.96365,416.39189 -443.96875,416.03125 L -443.96875,411.125 C -443.96255,410.85744 -444.06385,410.59855 -444.25,410.40625 L -450.3125,404.28125 C -450.5048,404.0951 -450.76369,403.9938 -451.03125,404 L -461,404 C -461.03123,403.99853 -461.06252,403.99853 -461.09375,404 z"
       id="path9019"
       style="fill:#bebebe;fill-opacity:1;stroke:none;stroke-width:2;stroke-linecap:round;stroke-linejoin:round;marker:none;stroke-miterlimit:4;stroke-dasharray:none;stroke-dashoffset:0;stroke-opacity:1;visibility:visible;display:inline;overflow:visible;enable-background:accumulate" />
    <g
       transform="translate(9.918502,42.999828)"
       id="g9060" />
    <path
       d="M -444.03125,406.03125 C -444.58353,406.05714 -445.01026,406.52584 -444.98437,407.07812 C -444.95849,407.63041 -444.48978,408.05714 -443.9375,408.03125 L -442.96875,408.03125 C -442.94097,408.03125 -442.53478,408.14284 -442.28125,408.34375 C -442.02772,408.54466 -441.9375,408.74571 -441.9375,408.875 L -441.9375,418.21875 C -441.9375,419.02159 -442.1592,419.4808 -442.46875,419.78125 C -442.7783,420.0817 -443.25059,420.28125 -444,420.28125 L -453.0625,420.28125 C -453.42314,420.27615 -453.75858,420.46563 -453.94039,420.77712 C -454.12219,421.08862 -454.12219,421.47388 -453.94039,421.78538 C -453.75858,422.09687 -453.42314,422.28635 -453.0625,422.28125 L -444,422.28125 C -442.87337,422.28124 -441.81519,421.94931 -441.0625,421.21875 C -440.30981,420.48819 -439.9375,419.41689 -439.9375,418.21875 L -439.9375,408.875 C -439.9375,407.94179 -440.48791,407.23659 -441.0625,406.78125 C -441.63709,406.32591 -442.24653,406.03125 -442.96875,406.03125 L -443.9375,406.03125 C -443.96873,406.02978 -444.00002,406.02978 -444.03125,406.03125 z"
       id="path9068"
       style="fill:#bebebe;fill-opacity:1;fill-rule:nonzero;stroke:none;stroke-width:2;stroke-linecap:round;stroke-linejoin:round;marker:none;stroke-miterlimit:4;stroke-dasharray:none;stroke-dashoffset:0;stroke-opacity:1;visibility:visible;display:inline;overflow:visible;enable-background:accumulate" />
    <path
       d="M -450.0625,415.9375 C -450.28644,415.96171 -450.49565,416.06081 -450.65625,416.21875 L -454.71875,420.28125 C -454.90945,420.47387 -455.01381,420.73564 -455.00792,421.00663 C -455.00203,421.27761 -454.88639,421.5346 -454.6875,421.71875 L -450.625,425.71875 C -450.37784,426.01051 -449.98594,426.1358 -449.61536,426.04154 C -449.24478,425.94727 -448.96039,425.64995 -448.88268,425.27555 C -448.80497,424.90115 -448.94755,424.51521 -449.25,424.28125 L -452.5625,421 L -449.21875,417.65625 C -448.89609,417.35577 -448.80827,416.87943 -449.00257,416.48365 C -449.19686,416.08786 -449.62743,415.866 -450.0625,415.9375 z"
       id="path9091"
       style="fill:#bebebe;fill-opacity:1;fill-rule:nonzero;stroke:none;stroke-width:2;stroke-linecap:round;stroke-linejoin:round;marker:none;stroke-miterlimit:4;stroke-dasharray:none;stroke-dashoffset:0;stroke-opacity:1;visibility:visible;display:inline;overflow:visible;enable-background:accumulate" />
  </g>
</svg>
