<?xml version="1.0" encoding="UTF-8" standalone="no"?>
<!-- Created with Inkscape (http://www.inkscape.org/) -->
<svg
   xmlns:svg="http://www.w3.org/2000/svg"
   xmlns="http://www.w3.org/2000/svg"
   version="1.0"
   width="24"
   height="24"
   id="svg7384">
  <defs
     id="defs7386" />
  <g
     transform="translate(648,-306)"
     id="layer3" />
  <g
     transform="translate(648,-306)"
     id="layer5" />
  <g
     transform="translate(648,-306)"
     id="layer7" />
  <g
     transform="translate(648,-306)"
     id="layer2" />
  <g
     transform="translate(648,-306)"
     id="layer8" />
  <g
     transform="translate(648,-1258.3622)"
     id="layer1" />
  <g
     transform="translate(648,-306)"
     id="layer4" />
  <g
     transform="translate(648,-306)"
     id="layer9" />
  <g
     transform="translate(648,-306)"
     id="layer6">
    <rect
       width="24"
       height="24"
       x="-648"
       y="306"
       id="rect8221"
       style="opacity:0;fill:#ffffff;fill-opacity:1;stroke:none;display:inline" />
    <path
       d="M -645.09375,308 C -645.60911,308.04857 -646.00223,308.48237 -646,309 L -646,329 C -645.99994,329.55226 -645.55226,329.99994 -645,330 L -635,330 C -634.73244,330.0062 -634.47355,329.9049 -634.28125,329.71875 L -628.28125,323.71875 C -628.0951,323.52645 -627.9938,323.26756 -628,323 L -628,320.125 C -627.9949,319.76436 -628.18438,319.42892 -628.49587,319.24711 C -628.80737,319.06531 -629.19263,319.06531 -629.50413,319.24711 C -629.81562,319.42892 -630.0051,319.76436 -630,320.125 L -630,322.5625 L -635.4375,328 L -644,328 L -644,310 L -634.9375,310 C -634.57686,310.0051 -634.24142,309.81562 -634.05961,309.50413 C -633.87781,309.19263 -633.87781,308.80737 -634.05961,308.49587 C -634.24142,308.18438 -634.57686,307.9949 -634.9375,308 L -645,308 C -645.03123,307.99853 -645.06252,307.99853 -645.09375,308 L -645.09375,308 z"
       id="path9837"
       style="fill:#bebebe;fill-opacity:1;stroke:none;stroke-width:2;stroke-linecap:round;stroke-linejoin:round;stroke-miterlimit:4;stroke-dasharray:none;stroke-opacity:1" />
    <path
       d="M -635.09375,322 C -635.60911,322.04857 -636.00223,322.48237 -636,323 L -636,328.4375 C -636.00969,328.84923 -635.76598,329.2248 -635.38602,329.38369 C -635.00606,329.54258 -634.56755,329.45231 -634.28125,329.15625 L -628.84375,323.71875 C -628.54769,323.43245 -628.45742,322.99394 -628.61631,322.61398 C -628.7752,322.23402 -629.15077,321.99031 -629.5625,322 L -635,322 C -635.03123,321.99853 -635.06252,321.99853 -635.09375,322 z M -634,324 L -632,324 L -634,326 L -634,324 z"
       id="path9901"
       style="fill:#bebebe;fill-opacity:1;stroke:none;stroke-width:2;stroke-linecap:round;stroke-linejoin:round;marker:none;stroke-miterlimit:4;stroke-dasharray:none;stroke-dashoffset:0;stroke-opacity:1;visibility:visible;display:inline;overflow:visible;enable-background:accumulate" />
    <g
       transform="translate(-28,-3.0265316)"
       id="g9869">
      <path
         d="M -629,308 C -631.74677,308 -633.96875,310.22198 -633.96875,312.96875 C -633.96875,315.71552 -631.74677,317.9375 -629,317.9375 C -626.25323,317.9375 -624.03125,315.71552 -624.03125,312.96875 C -624.03125,310.22198 -626.25323,308 -629,308 z M -629,309.03125 C -628.27809,309.03898 -628.29824,310.63191 -627.71875,311.0625 C -627.13926,311.49309 -625.59073,311.02978 -625.375,311.71875 C -625.15927,312.40772 -626.70706,312.87831 -626.9375,313.5625 C -627.16794,314.24669 -626.22392,315.55068 -626.8125,315.96875 C -627.40108,316.38682 -628.34059,315.07023 -629.0625,315.0625 C -629.78441,315.05477 -630.73301,316.33684 -631.3125,315.90625 C -631.89199,315.47566 -630.94052,314.22022 -631.15625,313.53125 C -631.37198,312.84228 -632.88669,312.30919 -632.65625,311.625 C -632.42581,310.94081 -630.90108,311.44932 -630.3125,311.03125 C -629.72392,310.61318 -629.72191,309.02352 -629,309.03125 z"
         transform="translate(28,3.0265316)"
         id="path9865"
         style="fill:#bebebe;fill-opacity:1;stroke:none;stroke-width:2;marker:none;visibility:visible;display:inline;overflow:visible;enable-background:accumulate" />
    </g>
  </g>
</svg>
