<?xml version="1.0" encoding="UTF-8" standalone="no"?>
<!-- Created with Inkscape (http://www.inkscape.org/) -->
<svg
   xmlns:svg="http://www.w3.org/2000/svg"
   xmlns="http://www.w3.org/2000/svg"
   version="1.0"
   width="24"
   height="24"
   id="svg7384">
  <defs
     id="defs7386" />
  <g
     transform="translate(366,-306)"
     id="layer3" />
  <g
     transform="translate(366,-306)"
     id="layer5" />
  <g
     transform="translate(366,-306)"
     id="layer7" />
  <g
     transform="translate(366,-306)"
     id="layer2" />
  <g
     transform="translate(366,-306)"
     id="layer8" />
  <g
     transform="translate(366,-1258.3622)"
     id="layer1" />
  <g
     transform="translate(366,-306)"
     id="layer4" />
  <g
     transform="translate(366,-306)"
     id="layer9" />
  <g
     transform="translate(366,-306)"
     id="layer6">
    <rect
       width="24"
       height="24"
       x="342"
       y="306"
       transform="scale(-1,1)"
       id="rect6665"
       style="opacity:0;fill:#ffffff;fill-opacity:1;stroke:none;display:inline" />
    <g
       transform="translate(28.96747,1)"
       id="use6648">
      <path
         d="M -373.96747,320.125 L -373.96747,325 L -375.96747,325 L -375.96747,328 L -391.96747,328 L -391.96747,325 L -393.96747,325 L -393.96747,315 L -389.96747,315 L -389.96747,308 L -388.02997,308"
         id="path6686"
         style="fill:none;stroke:#bebebe;stroke-width:2;stroke-linecap:round;stroke-linejoin:round;marker:none;stroke-miterlimit:4;stroke-dasharray:none;stroke-dashoffset:0;stroke-opacity:1;visibility:visible;display:inline;overflow:visible;enable-background:accumulate" />
      <path
         d="M -389.46747,315 L -389.46747,317.5 L -383.02997,317.5"
         id="path6688"
         style="fill:none;stroke:#bebebe;stroke-width:1;stroke-linecap:round;stroke-linejoin:round;marker:none;stroke-miterlimit:4;stroke-dasharray:none;stroke-dashoffset:0;stroke-opacity:1;visibility:visible;display:inline;overflow:visible;enable-background:accumulate" />
    </g>
    <path
       d="M -351.1875,306 C -354.04006,306 -356.375,308.33494 -356.375,311.1875 C -356.375,314.04006 -354.04006,316.375 -351.1875,316.375 C -348.33494,316.375 -346,314.04006 -346,311.1875 C -346,308.33494 -348.33494,306 -351.1875,306 z M -351.1875,308 C -349.41706,308 -348,309.41706 -348,311.1875 C -348,312.95794 -349.41706,314.375 -351.1875,314.375 C -352.95794,314.375 -354.375,312.95794 -354.375,311.1875 C -354.375,309.41706 -352.95794,308 -351.1875,308 z"
       id="path6690"
       style="fill:#bebebe;fill-opacity:1;stroke:none;stroke-width:2;stroke-linecap:butt;stroke-linejoin:miter;marker:none;stroke-miterlimit:4;stroke-dasharray:none;stroke-dashoffset:0;stroke-opacity:1;visibility:visible;display:inline;overflow:visible;enable-background:accumulate" />
    <path
       d="M -348.09375,314 C -348.46686,314.06769 -348.76959,314.34057 -348.87552,314.70468 C -348.98144,315.06879 -348.87233,315.46148 -348.59375,315.71875 L -345.65625,318.65625 C -345.2593,319.0532 -344.6157,319.0532 -344.21875,318.65625 C -343.8218,318.2593 -343.8218,317.6157 -344.21875,317.21875 L -347.15625,314.28125 C -347.39839,314.03054 -347.75359,313.92398 -348.09375,314 z"
       id="path6700"
       style="fill:#bebebe;fill-opacity:1;fill-rule:nonzero;stroke:none;stroke-width:2;stroke-linecap:round;stroke-linejoin:miter;marker:none;stroke-miterlimit:4;stroke-dasharray:none;stroke-dashoffset:0;stroke-opacity:1;visibility:visible;display:inline;overflow:visible;enable-background:accumulate" />
  </g>
</svg>
