<?xml version="1.0" encoding="UTF-8" standalone="no"?>
<!-- Created with Inkscape (http://www.inkscape.org/) -->
<svg
   xmlns:svg="http://www.w3.org/2000/svg"
   xmlns="http://www.w3.org/2000/svg"
   version="1.0"
   width="24"
   height="24"
   id="svg7384">
  <defs
     id="defs7386" />
  <g
     transform="translate(620,-306)"
     id="layer3" />
  <g
     transform="translate(620,-306)"
     id="layer5" />
  <g
     transform="translate(620,-306)"
     id="layer7" />
  <g
     transform="translate(620,-306)"
     id="layer2" />
  <g
     transform="translate(620,-306)"
     id="layer8" />
  <g
     transform="translate(620,-1258.3622)"
     id="layer1" />
  <g
     transform="translate(620,-306)"
     id="layer4" />
  <g
     transform="translate(620,-306)"
     id="layer9" />
  <g
     transform="translate(620,-306)"
     id="layer6">
    <g
       transform="translate(-1069,892.99707)"
       id="use6375">
      <rect
         width="24"
         height="24"
         x="-473"
         y="-586.99707"
         transform="scale(-1,1)"
         id="rect9072"
         style="opacity:0;fill:#ffffff;fill-opacity:1;stroke:none;display:inline" />
      <path
         d="M 455.02722,-576.95404 L 470.05847,-576.95404 L 470.05847,-570.94345 C 470.05847,-568.17865 468.06015,-566.98529 466.02722,-566.98529 L 450.02722,-566.98529 L 450.02722,-585.92983 L 458.02722,-585.92983 L 460.08972,-581.95757 L 466.05495,-581.95757 L 466.05495,-578.14154"
         id="path9074"
         style="fill:none;stroke:#bebebe;stroke-width:2;stroke-linecap:round;stroke-linejoin:round;stroke-miterlimit:4;stroke-dasharray:none;stroke-opacity:1" />
      <path
         d="M 454.52722,-577.03459 L 454.51452,-571.03125 C 454.50552,-568.29246 451.00847,-567.98957 451.00847,-567.98957"
         id="path9076"
         style="fill:none;stroke:#bebebe;stroke-width:1px;stroke-linecap:butt;stroke-linejoin:miter;stroke-opacity:1" />
    </g>
  </g>
</svg>
