<?xml version="1.0" encoding="UTF-8" standalone="no"?>
<!-- Created with Inkscape (http://www.inkscape.org/) -->
<svg
   xmlns:svg="http://www.w3.org/2000/svg"
   xmlns="http://www.w3.org/2000/svg"
   xmlns:xlink="http://www.w3.org/1999/xlink"
   version="1.0"
   width="24"
   height="24"
   id="svg7384">
  <defs
     id="defs7386">
    <linearGradient
       id="linearGradient13538-1">
      <stop
         id="stop13540-2"
         style="stop-color:#bebebe;stop-opacity:1"
         offset="0" />
      <stop
         id="stop13542-4"
         style="stop-color:#bebebe;stop-opacity:0"
         offset="1" />
    </linearGradient>
    <linearGradient
       x1="1207.2737"
       y1="446.12576"
       x2="1207.2737"
       y2="435.73633"
       id="linearGradient6426"
       xlink:href="#linearGradient13538-1"
       gradientUnits="userSpaceOnUse"
       gradientTransform="translate(-1750.3382,-128.10771)" />
  </defs>
  <g
     transform="translate(554.935,-307.05426)"
     id="layer3" />
  <g
     transform="translate(554.935,-307.05426)"
     id="layer5" />
  <g
     transform="translate(554.935,-307.05426)"
     id="layer7" />
  <g
     transform="translate(554.935,-307.05426)"
     id="layer2" />
  <g
     transform="translate(554.935,-307.05426)"
     id="layer8" />
  <g
     transform="translate(554.935,-1259.4164)"
     id="layer1" />
  <g
     transform="translate(554.935,-307.05426)"
     id="layer4" />
  <g
     transform="translate(554.935,-307.05426)"
     id="layer9" />
  <g
     transform="translate(554.935,-307.05426)"
     id="layer6">
    <rect
       width="24"
       height="24"
       x="530.935"
       y="307.05426"
       transform="scale(-1,1)"
       id="rect6405"
       style="opacity:0;fill:#ffffff;fill-opacity:1;stroke:none;display:inline" />
    <path
       d="M 19,27.5 A 2.5,2.5 0 1 1 14,27.5 A 2.5,2.5 0 1 1 19,27.5 z"
       transform="matrix(0.4090343,0,0,0.4077696,-553.71599,315.80576)"
       id="path6407"
       style="fill:#b2b2b2;fill-opacity:1;stroke:none;display:inline" />
    <path
       d="M 19,27.5 A 2.5,2.5 0 1 1 14,27.5 A 2.5,2.5 0 1 1 19,27.5 z"
       transform="matrix(0.4090343,0,0,0.4077696,-549.71599,315.80576)"
       id="path6409"
       style="fill:#b2b2b2;fill-opacity:1;stroke:none;display:inline" />
    <path
       d="M 19,27.5 A 2.5,2.5 0 1 1 14,27.5 A 2.5,2.5 0 1 1 19,27.5 z"
       transform="matrix(0.4090343,0,0,0.4077696,-545.69339,315.80576)"
       id="path6412"
       style="fill:#b2b2b2;fill-opacity:1;stroke:none;display:inline" />
    <g
       id="g7266">
      <g
         transform="matrix(0,-1,1,0,-568.15229,339.3908)"
         id="g6414"
         style="fill:#bebebe;fill-opacity:1;display:inline">
        <g
           transform="matrix(-1,0,0,1,42.778175,-2.71e-3)"
           id="g6416"
           style="fill:#bebebe;fill-opacity:1">
          <g
             transform="translate(-2.9408701,-1.5221e-2)"
             id="g6418"
             style="fill:#bebebe;fill-opacity:1">
            <path
               d="M 22.341173,31.184646 C 22.341173,31.184646 22.341173,29.770432 22.341173,29.770432 L 27.62013,24.503888 C 28.011867,24.112151 28.642606,24.112151 29.034344,24.503888 C 29.426081,24.895625 29.426081,25.526365 29.034344,25.918102 L 23.755387,31.184646 C 23.755387,31.184646 22.341173,31.184646 22.341173,31.184646 L 22.341173,31.184646 L 22.341173,31.184646 z"
               id="path6420"
               style="fill:#bebebe;fill-opacity:1;stroke:none" />
            <path
               d="M 22.322283,19.202872 C 22.322283,19.202872 22.322283,20.617086 22.322283,20.617086 L 27.602515,25.879701 C 27.994252,26.271438 28.624991,26.271438 29.016729,25.879701 C 29.408466,25.487964 29.408466,24.857225 29.016729,24.465488 L 23.736496,19.202872 C 23.736496,19.202872 22.322283,19.202872 22.322283,19.202872 L 22.322283,19.202872 L 22.322283,19.202872 z"
               id="path6422"
               style="fill:#bebebe;fill-opacity:1;stroke:none" />
          </g>
        </g>
      </g>
      <rect
         width="2"
         height="14"
         rx="1"
         ry="0.99999994"
         x="-543.9967"
         y="308.98236"
         id="rect6424"
         style="opacity:0.98999999;fill:url(#linearGradient6426);fill-opacity:1;stroke:none;display:inline" />
    </g>
    <path
       d="M -549.59375,324 C -550.8316,324 -551.84375,325.01215 -551.84375,326.25 L -551.84375,328.75 C -551.84375,329.98785 -550.8316,331 -549.59375,331 L -536.25,331 C -535.01215,331 -534.00003,329.98784 -534,328.75 L -534,326.25 C -534,325.01215 -535.01217,324 -536.25,324 L -549.59375,324 z M -549.59375,325 L -536.25,325 C -535.54888,325 -535,325.54885 -535,326.25 L -535,328.75 C -535.00002,329.45116 -535.54885,330 -536.25,330 L -549.59375,330 C -550.2949,330 -550.84375,329.45115 -550.84375,328.75 L -550.84375,326.25 C -550.84375,325.54885 -550.2949,325 -549.59375,325 z"
       id="rect6429-4"
       style="fill:#bebebe;fill-opacity:1;stroke:none;stroke-width:0.99999994px;marker:none;stroke-opacity:1;visibility:visible;display:inline;overflow:visible;enable-background:new" />
    <path
       d="M -550.1875,312 C -551.72803,312 -553,313.27198 -553,314.8125 L -553,328.1875 C -553,329.72803 -551.72802,331 -550.1875,331 L -535.8125,331 C -534.27197,331 -533.00004,329.72801 -533,328.1875 L -533,314.8125 C -533,313.27197 -534.27196,312 -535.8125,312 L -550.1875,312 z M -550.1875,314 L -535.8125,314 C -535.34534,314 -535,314.34538 -535,314.8125 L -535,328.1875 C -535.00001,328.65462 -535.34538,329 -535.8125,329 L -550.1875,329 C -550.65461,329 -551,328.65462 -551,328.1875 L -551,314.8125 C -551,314.34539 -550.65462,314 -550.1875,314 z"
       id="rect7225-2"
       style="fill:#bebebe;fill-opacity:1;stroke:none;stroke-width:1.99999976;marker:none;stroke-miterlimit:4;stroke-dasharray:none;stroke-opacity:1;visibility:visible;display:inline;overflow:visible;enable-background:new" />
  </g>
</svg>
