<?xml version="1.0" encoding="UTF-8" standalone="no"?>
<!-- Created with Inkscape (http://www.inkscape.org/) -->
<svg
   xmlns:svg="http://www.w3.org/2000/svg"
   xmlns="http://www.w3.org/2000/svg"
   version="1.0"
   width="24"
   height="24"
   id="svg7384">
  <defs
     id="defs7386" />
  <g
     transform="translate(522.96747,-307.05426)"
     id="layer3" />
  <g
     transform="translate(522.96747,-307.05426)"
     id="layer5" />
  <g
     transform="translate(522.96747,-307.05426)"
     id="layer7" />
  <g
     transform="translate(522.96747,-307.05426)"
     id="layer2" />
  <g
     transform="translate(522.96747,-307.05426)"
     id="layer8" />
  <g
     transform="translate(522.96747,-1259.4164)"
     id="layer1" />
  <g
     transform="translate(522.96747,-307.05426)"
     id="layer4" />
  <g
     transform="translate(522.96747,-307.05426)"
     id="layer9" />
  <g
     transform="translate(522.96747,-307.05426)"
     id="layer6">
    <rect
       width="24"
       height="24"
       x="498.96747"
       y="307.05426"
       transform="scale(-1,1)"
       id="rect8918"
       style="opacity:0;fill:#ffffff;fill-opacity:1;stroke:none;display:inline" />
    <path
       d="M -520.09375,315 C -520.60911,315.04857 -521.00223,315.48237 -521,316 L -521,328 C -520.99994,328.55226 -520.55226,328.99994 -520,329 L -508,329 C -507.44774,328.99994 -507.00006,328.55226 -507,328 L -507,321 C -506.9938,320.73244 -507.0951,320.47355 -507.28125,320.28125 L -512.28125,315.28125 C -512.47355,315.0951 -512.73244,314.9938 -513,315 L -520,315 C -520.03123,314.99853 -520.06252,314.99853 -520.09375,315 z M -519,317 L -513.4375,317 L -509,321.4375 L -509,327 L -519,327 L -519,317 z"
       id="path15561"
       style="fill:#bebebe;fill-opacity:1;stroke:none;stroke-width:2;stroke-linecap:round;stroke-linejoin:round;marker:none;stroke-miterlimit:4;stroke-dasharray:none;stroke-dashoffset:0;stroke-opacity:1;visibility:visible;display:inline;overflow:visible;enable-background:accumulate" />
    <path
       d="M -513.59375,315.03125 C -513.82034,315.08965 -513.97613,315.29737 -513.96875,315.53125 L -513.96875,321.53125 C -513.96872,321.80738 -513.74488,322.03122 -513.46875,322.03125 L -507.53125,322.03125 C -507.32093,322.03676 -507.12966,321.91004 -507.05273,321.71422 C -506.97581,321.5184 -507.02967,321.29537 -507.1875,321.15625 L -513.125,315.1875 C -513.24281,315.05647 -513.42088,314.99711 -513.59375,315.03125 L -513.59375,315.03125 z M -512.96875,316.75 L -508.71875,321.03125 L -512.96875,321.03125 L -512.96875,316.75 z"
       id="path16429"
       style="fill:#bebebe;fill-opacity:1;stroke:none;stroke-width:1;stroke-linecap:round;stroke-linejoin:round;marker:none;stroke-miterlimit:4;stroke-dasharray:none;stroke-dashoffset:0;stroke-opacity:1;visibility:visible;display:inline;overflow:visible;enable-background:accumulate" />
    <path
       d="M -514.09375,309 C -514.60911,309.04857 -515.00223,309.48237 -515,310 L -515,312.03125 C -515.0051,312.39189 -514.81562,312.72733 -514.50413,312.90914 C -514.19263,313.09094 -513.80737,313.09094 -513.49587,312.90914 C -513.18438,312.72733 -512.9949,312.39189 -513,312.03125 L -513,311 L -507.4375,311 L -503,315.4375 L -503,321 L -503.90625,321 C -504.26689,320.9949 -504.60233,321.18438 -504.78414,321.49587 C -504.96594,321.80737 -504.96594,322.19263 -504.78414,322.50413 C -504.60233,322.81562 -504.26689,323.0051 -503.90625,323 L -502,323 C -501.44774,322.99994 -501.00006,322.55226 -501,322 L -501,315 C -500.9938,314.73244 -501.0951,314.47355 -501.28125,314.28125 L -506.28125,309.28125 C -506.47355,309.0951 -506.73244,308.9938 -507,309 L -514,309 C -514.03123,308.99853 -514.06252,308.99853 -514.09375,309 z"
       id="path7276"
       style="fill:#bebebe;fill-opacity:1;stroke:none;stroke-width:2;stroke-linecap:round;stroke-linejoin:round;marker:none;stroke-miterlimit:4;stroke-dasharray:none;stroke-dashoffset:0;stroke-opacity:1;visibility:visible;display:inline;overflow:visible;enable-background:accumulate" />
    <path
       d="M -507.5,309 C -507.77613,309.00003 -507.99997,309.22387 -508,309.5 L -508,315.5 C -507.99997,315.77613 -507.77613,315.99997 -507.5,316 L -501.5625,316 C -501.36061,316.00482 -501.17564,315.88772 -501.09362,315.70318 C -501.0116,315.51864 -501.04864,315.30288 -501.1875,315.15625 L -507.15625,309.15625 C -507.24601,309.06124 -507.3694,309.00516 -507.5,309 z M -507,310.71875 L -502.75,315 L -507,315 L -507,310.71875 z"
       id="path7278"
       style="fill:#bebebe;fill-opacity:1;stroke:none;stroke-width:1;stroke-linecap:round;stroke-linejoin:round;marker:none;stroke-miterlimit:4;stroke-dasharray:none;stroke-dashoffset:0;stroke-opacity:1;visibility:visible;display:inline;overflow:visible;enable-background:accumulate" />
  </g>
</svg>
