<?xml version="1.0" encoding="UTF-8" standalone="no"?>
<!-- Created with Inkscape (http://www.inkscape.org/) -->
<svg
   xmlns:svg="http://www.w3.org/2000/svg"
   xmlns="http://www.w3.org/2000/svg"
   version="1.0"
   width="24"
   height="24"
   id="svg7384">
  <defs
     id="defs7386" />
  <g
     transform="translate(522.96747,-307.05426)"
     id="layer3" />
  <g
     transform="translate(522.96747,-307.05426)"
     id="layer5" />
  <g
     transform="translate(522.96747,-307.05426)"
     id="layer7" />
  <g
     transform="translate(522.96747,-307.05426)"
     id="layer2" />
  <g
     transform="translate(522.96747,-307.05426)"
     id="layer8" />
  <g
     transform="translate(522.96747,-1259.4164)"
     id="layer1" />
  <g
     transform="translate(522.96747,-307.05426)"
     id="layer4" />
  <g
     transform="translate(522.96747,-307.05426)"
     id="layer9" />
  <g
     transform="translate(522.96747,-307.05426)"
     id="layer6">
    <rect
       width="24"
       height="24"
       x="498.96747"
       y="307.05426"
       transform="scale(-1,1)"
       id="rect8918"
       style="opacity:0;fill:#ffffff;fill-opacity:1;stroke:none;display:inline" />
    <path
       d="M -514.09375,309 C -514.60911,309.04857 -515.00223,309.48237 -515,310 L -515,313 C -515.0051,313.36064 -514.81562,313.69608 -514.50413,313.87789 C -514.19263,314.05969 -513.80737,314.05969 -513.49587,313.87789 C -513.18438,313.69608 -512.9949,313.36064 -513,313 L -513,311 L -506.4375,311 L -502,315.4375 L -502,321 L -505,321 C -505.36064,320.9949 -505.69608,321.18438 -505.87789,321.49587 C -506.05969,321.80737 -506.05969,322.19263 -505.87789,322.50413 C -505.69608,322.81562 -505.36064,323.0051 -505,323 L -501,323 C -500.44774,322.99994 -500.00006,322.55226 -500,322 L -500,315 C -499.9938,314.73244 -500.0951,314.47355 -500.28125,314.28125 L -505.28125,309.28125 C -505.47355,309.0951 -505.73244,308.9938 -506,309 L -514,309 C -514.03123,308.99853 -514.06252,308.99853 -514.09375,309 z"
       id="path14789"
       style="fill:#bebebe;fill-opacity:1;stroke:none;stroke-width:2;stroke-linecap:round;stroke-linejoin:round;marker:none;stroke-miterlimit:4;stroke-dasharray:none;stroke-dashoffset:0;stroke-opacity:1;visibility:visible;display:inline;overflow:visible;enable-background:accumulate" />
    <path
       d="M -520.09375,315 C -520.60911,315.04857 -521.00223,315.48237 -521,316 L -521,328 C -520.99994,328.55226 -520.55226,328.99994 -520,329 L -508,329 C -507.44774,328.99994 -507.00006,328.55226 -507,328 L -507,321 C -506.9938,320.73244 -507.0951,320.47355 -507.28125,320.28125 L -512.28125,315.28125 C -512.47355,315.0951 -512.73244,314.9938 -513,315 L -520,315 C -520.03123,314.99853 -520.06252,314.99853 -520.09375,315 z M -519,317 L -513.4375,317 L -509,321.4375 L -509,327 L -519,327 L -519,317 z"
       id="path15561"
       style="fill:#bebebe;fill-opacity:1;stroke:none;stroke-width:2;stroke-linecap:round;stroke-linejoin:round;marker:none;stroke-miterlimit:4;stroke-dasharray:none;stroke-dashoffset:0;stroke-opacity:1;visibility:visible;display:inline;overflow:visible;enable-background:accumulate" />
    <path
       d="M -513.59375,315.03125 C -513.82034,315.08965 -513.97613,315.29737 -513.96875,315.53125 L -513.96875,321.53125 C -513.96872,321.80738 -513.74488,322.03122 -513.46875,322.03125 L -507.53125,322.03125 C -507.32093,322.03676 -507.12966,321.91004 -507.05273,321.71422 C -506.97581,321.5184 -507.02967,321.29537 -507.1875,321.15625 L -513.125,315.1875 C -513.24281,315.05647 -513.42088,314.99711 -513.59375,315.03125 L -513.59375,315.03125 z M -512.96875,316.75 L -508.71875,321.03125 L -512.96875,321.03125 L -512.96875,316.75 z"
       id="path16429"
       style="fill:#bebebe;fill-opacity:1;stroke:none;stroke-width:1;stroke-linecap:round;stroke-linejoin:round;marker:none;stroke-miterlimit:4;stroke-dasharray:none;stroke-dashoffset:0;stroke-opacity:1;visibility:visible;display:inline;overflow:visible;enable-background:accumulate" />
    <path
       d="M -506.5,309 C -506.77613,309.00003 -506.99997,309.22387 -507,309.5 L -507,315.5 C -506.99997,315.77613 -506.77613,315.99997 -506.5,316 L -500.5625,316 C -500.36061,316.00482 -500.17564,315.88772 -500.09362,315.70318 C -500.0116,315.51864 -500.04864,315.30288 -500.1875,315.15625 L -506.15625,309.15625 C -506.24601,309.06124 -506.3694,309.00516 -506.5,309 z M -506,310.71875 L -501.75,315 L -506,315 L -506,310.71875 z"
       id="path10075"
       style="fill:#bebebe;fill-opacity:1;stroke:none;stroke-width:1;stroke-linecap:round;stroke-linejoin:round;marker:none;stroke-miterlimit:4;stroke-dasharray:none;stroke-dashoffset:0;stroke-opacity:1;visibility:visible;display:inline;overflow:visible;enable-background:accumulate" />
  </g>
</svg>
