<?xml version="1.0" encoding="UTF-8" standalone="no"?>
<!-- Created with Inkscape (http://www.inkscape.org/) -->
<svg
   xmlns:svg="http://www.w3.org/2000/svg"
   xmlns="http://www.w3.org/2000/svg"
   version="1.0"
   width="24"
   height="24"
   id="svg7384">
  <defs
     id="defs7386" />
  <g
     transform="translate(426.91858,-406)"
     id="layer3" />
  <g
     transform="translate(426.91858,-406)"
     id="layer5" />
  <g
     transform="translate(426.91858,-406)"
     id="layer7" />
  <g
     transform="translate(426.91858,-406)"
     id="layer2" />
  <g
     transform="translate(426.91858,-406)"
     id="layer8" />
  <g
     transform="translate(426.91858,-1358.3622)"
     id="layer1" />
  <g
     transform="translate(426.91858,-406)"
     id="layer4" />
  <g
     transform="translate(426.91858,-406)"
     id="layer9" />
  <g
     transform="translate(426.91858,-406)"
     id="layer6">
    <rect
       width="24"
       height="24"
       x="402.91858"
       y="406"
       transform="scale(-1,1)"
       id="rect5996"
       style="opacity:0;fill:#ffffff;fill-opacity:1;stroke:none;display:inline" />
    <path
       d="M -406.23377,418.79599 A 8.6011906,8.6011906 0 1 1 -423.43615,418.79599 A 8.6011906,8.6011906 0 1 1 -406.23377,418.79599 z"
       transform="matrix(0.9240642,0,0,0.9240642,-31.625828,31.005627)"
       id="path12450"
       style="fill:#bebebe;fill-opacity:1;stroke:none;stroke-width:2;marker:none;visibility:visible;display:inline;overflow:visible;enable-background:accumulate" />
    <path
       d="M -417.57872,413.97896 L -410.99804,420.59089 C -410.99804,420.59089 -410.99804,421.9955 -410.99804,421.9955 C -410.99804,421.9955 -412.40265,421.9955 -412.40265,421.9955 L -418.98333,415.38357 C -418.98333,415.38357 -418.98333,413.97896 -418.98333,413.97896 C -418.98333,413.97896 -417.57872,413.97896 -417.57872,413.97896 z"
       id="rect5998"
       style="fill:#ffffff;fill-opacity:1;stroke:none;display:inline" />
    <path
       d="M -412.40265,413.97896 L -418.98333,420.59088 C -418.98333,420.59088 -418.98333,421.99549 -418.98333,421.99549 C -418.98333,421.99549 -417.57872,421.99549 -417.57872,421.99549 L -410.99804,415.38357 C -410.99804,415.38357 -410.99804,413.97896 -410.99804,413.97896 C -410.99804,413.97896 -412.40265,413.97896 -412.40265,413.97896 z"
       id="path6009"
       style="fill:#ffffff;fill-opacity:1;stroke:none;display:inline" />
  </g>
</svg>
