<?xml version="1.0" encoding="UTF-8" standalone="no"?>
<!-- Created with Inkscape (http://www.inkscape.org/) -->
<svg
   xmlns:svg="http://www.w3.org/2000/svg"
   xmlns="http://www.w3.org/2000/svg"
   version="1.0"
   width="24"
   height="24.000061"
   id="svg7384">
  <defs
     id="defs7386" />
  <g
     transform="translate(458.96747,-307)"
     id="layer3" />
  <g
     transform="translate(458.96747,-307)"
     id="layer5" />
  <g
     transform="translate(458.96747,-307)"
     id="layer7" />
  <g
     transform="translate(458.96747,-307)"
     id="layer2" />
  <g
     transform="translate(458.96747,-307)"
     id="layer8" />
  <g
     transform="translate(458.96747,-1259.3622)"
     id="layer1" />
  <g
     transform="translate(458.96747,-307)"
     id="layer4" />
  <g
     transform="translate(458.96747,-307)"
     id="layer9" />
  <g
     transform="translate(458.96747,-307)"
     id="layer6">
    <rect
       width="24"
       height="24"
       x="434.96747"
       y="307.00006"
       transform="scale(-1,1)"
       id="rect8922"
       style="opacity:0;fill:#ffffff;fill-opacity:1;stroke:none;display:inline" />
    <path
       d="M -439.21875,310 C -439.77103,310.00863 -440.21175,310.46334 -440.20312,311.01562 C -440.1945,311.56791 -439.73978,312.00863 -439.1875,312 L -439,312 L -439,328 L -455,328 L -454.9375,312.125 L -454.84375,312.125 C -454.48311,312.1301 -454.14767,311.94062 -453.96586,311.62913 C -453.78406,311.31763 -453.78406,310.93237 -453.96586,310.62087 C -454.14767,310.30938 -454.48311,310.1199 -454.84375,310.125 L -455.9375,310.09375 C -456.48976,310.09381 -456.93744,310.54149 -456.9375,311.09375 L -457,329 C -456.99994,329.55226 -456.55226,329.99994 -456,330 L -438,330 C -437.44774,329.99994 -437.00006,329.55226 -437,329 L -437,311 C -437.00006,310.44774 -437.44774,310.00006 -438,310 L -439.21875,310 z"
       id="path15573"
       style="fill:#bebebe;fill-opacity:1;stroke:none;stroke-width:2;stroke-linecap:round;stroke-linejoin:round;marker:none;stroke-miterlimit:4;stroke-dasharray:none;stroke-dashoffset:0;stroke-opacity:1;visibility:visible;display:inline;overflow:visible;enable-background:accumulate" />
    <path
       d="M -450.09375,307 C -450.60911,307.04857 -451.00223,307.48237 -451,308 L -451,310.53125 L -452.59375,311.875 C -452.81929,312.07099 -452.94538,312.35756 -452.9375,312.65625 L -452.9375,314 C -452.93744,314.55226 -452.48976,314.99994 -451.9375,315 L -442,315 C -441.44774,314.99994 -441.00006,314.55226 -441,314 L -441,312.6875 C -440.99212,312.38881 -441.11821,312.10224 -441.34375,311.90625 L -443,310.5 L -443,308 C -443.00006,307.44774 -443.44774,307.00006 -444,307 L -450,307 C -450.03123,306.99853 -450.06252,306.99853 -450.09375,307 L -450.09375,307 z M -449,309 L -445,309 L -445,311 C -445.00788,311.29869 -444.88179,311.58526 -444.65625,311.78125 L -443.1875,313 L -450.8125,313 L -449.34375,311.75 C -449.12658,311.56111 -449.00132,311.28782 -449,311 L -449,309 z"
       id="path15577"
       style="fill:#bebebe;fill-opacity:1;stroke:none;stroke-width:2;stroke-linecap:round;stroke-linejoin:round;marker:none;stroke-miterlimit:4;stroke-dasharray:none;stroke-dashoffset:0;stroke-opacity:1;visibility:visible;display:inline;overflow:visible;enable-background:accumulate" />
  </g>
</svg>
