<?xml version="1.0" encoding="UTF-8" standalone="no"?>
<!-- Created with Inkscape (http://www.inkscape.org/) -->
<svg
   xmlns:svg="http://www.w3.org/2000/svg"
   xmlns="http://www.w3.org/2000/svg"
   version="1.0"
   width="24"
   height="24"
   id="svg7384">
  <defs
     id="defs7386" />
  <g
     transform="translate(396,-207)"
     id="layer3" />
  <g
     transform="translate(396,-207)"
     id="layer5" />
  <g
     transform="translate(396,-207)"
     id="layer7" />
  <g
     transform="translate(396,-207)"
     id="layer2" />
  <g
     transform="translate(396,-207)"
     id="layer8" />
  <g
     transform="translate(396,-1159.3622)"
     id="layer1" />
  <g
     transform="translate(396,-207)"
     id="layer4" />
  <g
     transform="translate(396,-207)"
     id="layer9" />
  <g
     transform="translate(396,-207)"
     id="layer6">
    <rect
       width="24"
       height="24"
       x="372"
       y="207"
       transform="scale(-1,1)"
       id="rect8818"
       style="opacity:0;fill:#ffffff;fill-opacity:1;stroke:none;display:inline" />
    <path
       d="M -376.03938,218.07126 C -376.04591,218.85395 -376.14163,219.56534 -376.3442,220.32148 C -377.62617,225.10666 -382.58006,227.96089 -387.37223,226.68079 C -392.16441,225.4007 -395.0228,220.45403 -393.74084,215.66885 C -392.45887,210.88367 -387.50498,208.02944 -382.71281,209.30954 C -382.34504,209.38133 -382.04825,209.65224 -381.94372,210.01157 C -381.83919,210.37089 -381.94444,210.75842 -382.21645,211.01578 C -382.48846,211.27314 -382.88166,211.35721 -383.23536,211.23364 C -386.9814,210.23299 -390.81181,212.45006 -391.81393,216.19064 C -392.81604,219.93122 -390.59572,223.75604 -386.84968,224.75669 C -383.10364,225.75734 -379.27322,223.54026 -378.27111,219.79969 C -378.1057,219.18227 -378.04783,218.68862 -378.0425,218.04952 C -378.03648,217.49718 -377.5832,217.05429 -377.03005,217.06029 C -376.4769,217.06629 -376.03337,217.51892 -376.03938,218.07126 L -376.03938,218.07126 z"
       id="path8820"
       style="opacity:0.98999999;fill:#bebebe;fill-opacity:1;stroke:none;stroke-width:5.74524546;stroke-linecap:round;stroke-miterlimit:4;stroke-dasharray:none;stroke-dashoffset:0;stroke-opacity:1;display:inline" />
    <path
       d="M -379.00031,223.04879 C -378.60811,222.65652 -377.97651,222.65652 -377.58421,223.04878 L -373.04881,227.58221 C -373.04881,227.58221 -373.04881,228.99835 -373.04881,228.99835 C -373.04881,228.99835 -374.46491,228.99834 -374.46491,228.99834 L -379.00031,224.46491 C -379.39261,224.07265 -379.39261,223.44105 -379.00031,223.04879 L -379.00031,223.04879 z"
       id="path5973"
       style="fill:#bebebe;fill-opacity:1;stroke:none;display:inline" />
    <rect
       width="2"
       height="4"
       rx="1"
       ry="1"
       x="385"
       y="-221"
       transform="scale(-1,-1)"
       id="rect7476-6"
       style="fill:#31c2ee;fill-opacity:1;stroke:none;display:inline" />
    <rect
       width="2"
       height="4"
       rx="1"
       ry="1"
       x="-221"
       y="-387"
       transform="matrix(0,-1,1,0,0,0)"
       id="rect7501"
       style="fill:#bfbfbf;fill-opacity:0.99215686;stroke:none;display:inline" />
    <path
       d="M -386.7062,218.70617 C -387.09793,218.31443 -387.09793,217.68369 -386.7062,217.29195 L -378.71276,209.29752 C -378.32102,208.90579 -377.69028,208.90579 -377.29854,209.29752 C -376.90681,209.68926 -376.90681,210.32 -377.29854,210.71174 L -385.29198,218.70617 C -385.68372,219.0979 -386.31446,219.0979 -386.7062,218.70617 z"
       id="rect7501-1"
       style="fill:#bfbfbf;fill-opacity:0.99215686;stroke:none;display:inline" />
    <path
       d="M -384.70622,220.70615 C -385.09795,220.31441 -385.09795,219.68367 -384.70622,219.29193 L -376.72558,211.29716 C -376.33385,210.90542 -375.70311,210.90542 -375.31137,211.29716 C -374.91963,211.6889 -374.91963,212.31963 -375.31137,212.71137 L -383.292,220.70615 C -383.68374,221.09788 -384.31448,221.09788 -384.70622,220.70615 z"
       id="rect7550"
       style="fill:#bfbfbf;fill-opacity:0.99215686;stroke:none;display:inline" />
    <path
       d="M -378.70618,209.29378 C -378.31444,208.90204 -377.6837,208.90204 -377.29197,209.29378 L -375.29237,211.29202 C -374.90063,211.68375 -374.90063,212.31449 -375.29237,212.70623 C -375.68411,213.09797 -376.31485,213.09797 -376.70658,212.70623 L -378.70618,210.70799 C -379.09792,210.31625 -379.09792,209.68551 -378.70618,209.29378 z"
       id="rect7501-3"
       style="fill:#bfbfbf;fill-opacity:0.99215686;stroke:none;display:inline" />
  </g>
</svg>
