<?xml version="1.0" encoding="UTF-8" standalone="no"?>
<!-- Created with Inkscape (http://www.inkscape.org/) -->
<svg
   xmlns:svg="http://www.w3.org/2000/svg"
   xmlns="http://www.w3.org/2000/svg"
   version="1.0"
   width="24"
   height="24"
   id="svg7384">
  <defs
     id="defs7386" />
  <g
     transform="translate(460,-370)"
     id="layer3" />
  <g
     transform="translate(460,-370)"
     id="layer5" />
  <g
     transform="translate(460,-370)"
     id="layer7" />
  <g
     transform="translate(460,-370)"
     id="layer2" />
  <g
     transform="translate(460,-370)"
     id="layer8" />
  <g
     transform="translate(460,-1322.3622)"
     id="layer1" />
  <g
     transform="translate(460,-370)"
     id="layer4" />
  <g
     transform="translate(460,-370)"
     id="layer9" />
  <g
     transform="translate(460,-370)"
     id="layer6">
    <rect
       width="24"
       height="24"
       x="436"
       y="370"
       transform="scale(-1,1)"
       id="rect9680"
       style="opacity:0;fill:#ffffff;fill-opacity:1;stroke:none;display:inline" />
    <rect
       width="2"
       height="12"
       rx="1"
       ry="0.99999994"
       x="-378"
       y="-454"
       transform="matrix(0,-1,1,0,0,0)"
       id="rect2789-4"
       style="fill:#bebebe;fill-opacity:1;stroke:none;display:inline" />
    <rect
       width="2"
       height="8"
       rx="1"
       ry="1"
       x="-382"
       y="-454"
       transform="matrix(0,-1,1,0,0,0)"
       id="rect2869"
       style="fill:#bebebe;fill-opacity:1;stroke:none;display:inline" />
    <rect
       width="2"
       height="12"
       rx="1"
       ry="0.99999994"
       x="-386"
       y="-454"
       transform="matrix(0,-1,1,0,0,0)"
       id="rect2871"
       style="fill:#bebebe;fill-opacity:1;stroke:none;display:inline" />
    <path
       d="M -454.99445,371.99734 C -456.63951,371.99734 -457.99663,373.35445 -457.99663,374.99951 C -458.02013,375.37116 -457.8352,375.72509 -457.51669,375.91803 C -457.19819,376.11097 -456.79886,376.11097 -456.48035,375.91803 C -456.16184,375.72509 -455.97691,375.37116 -456.00042,374.99951 C -456.00042,374.43658 -455.55739,373.99355 -454.99445,373.99355 C -454.6228,374.01705 -454.26888,373.83212 -454.07594,373.51361 C -453.883,373.19511 -453.883,372.79578 -454.07594,372.47727 C -454.26888,372.15876 -454.6228,371.97383 -454.99445,371.99734 L -454.99445,371.99734 z"
       id="path2877"
       style="fill:#c0c0c0;fill-opacity:1;stroke:none;stroke-width:3.97628045;stroke-linecap:round;stroke-linejoin:miter;stroke-miterlimit:4;stroke-dasharray:none;stroke-dashoffset:220;stroke-opacity:1;display:inline" />
    <rect
       width="2"
       height="3.6964769"
       rx="1"
       ry="1"
       x="-374.00015"
       y="-455.69659"
       transform="matrix(0,-1,1,0,0,0)"
       id="rect3681"
       style="fill:#bebebe;fill-opacity:1;stroke:none;display:inline" />
    <path
       d="M -441.00549,371.99734 C -439.36043,371.99734 -438.00331,373.35445 -438.00331,374.99951 C -437.97981,375.37116 -438.16474,375.72509 -438.48325,375.91803 C -438.80175,376.11097 -439.20108,376.11097 -439.51959,375.91803 C -439.8381,375.72509 -440.02303,375.37116 -439.99952,374.99951 C -439.99952,374.43658 -440.44255,373.99355 -441.00549,373.99355 C -441.37714,374.01705 -441.73106,373.83212 -441.924,373.51361 C -442.11694,373.19511 -442.11694,372.79578 -441.924,372.47727 C -441.73106,372.15876 -441.37714,371.97383 -441.00549,371.99734 L -441.00549,371.99734 z"
       id="path9708"
       style="fill:#c0c0c0;fill-opacity:1;stroke:none;stroke-width:3.97628045;stroke-linecap:round;stroke-linejoin:miter;stroke-miterlimit:4;stroke-dasharray:none;stroke-dashoffset:220;stroke-opacity:1;display:inline" />
    <rect
       width="2"
       height="3.6964769"
       rx="1"
       ry="1"
       x="-374.00015"
       y="440.30347"
       transform="matrix(0,-1,-1,0,0,0)"
       id="rect9710"
       style="fill:#bebebe;fill-opacity:1;stroke:none;display:inline" />
    <path
       d="M -454.99445,390.00264 C -456.63951,390.00264 -457.99663,388.64553 -457.99663,387.00047 C -458.02013,386.62882 -457.8352,386.27489 -457.51669,386.08195 C -457.19819,385.88901 -456.79886,385.88901 -456.48035,386.08195 C -456.16184,386.27489 -455.97691,386.62882 -456.00042,387.00047 C -456.00042,387.5634 -455.55739,388.00643 -454.99445,388.00643 C -454.6228,387.98293 -454.26888,388.16786 -454.07594,388.48637 C -453.883,388.80487 -453.883,389.2042 -454.07594,389.52271 C -454.26888,389.84122 -454.6228,390.02615 -454.99445,390.00264 L -454.99445,390.00264 z"
       id="path9712"
       style="fill:#c0c0c0;fill-opacity:1;stroke:none;stroke-width:3.97628045;stroke-linecap:round;stroke-linejoin:miter;stroke-miterlimit:4;stroke-dasharray:none;stroke-dashoffset:220;stroke-opacity:1;display:inline" />
    <rect
       width="2"
       height="3.6964769"
       rx="1"
       ry="1"
       x="388"
       y="-455.69659"
       transform="matrix(0,1,1,0,0,0)"
       id="rect9714"
       style="fill:#bebebe;fill-opacity:1;stroke:none;display:inline" />
    <path
       d="M -441.00549,390.00264 C -439.36043,390.00264 -438.00331,388.64553 -438.00331,387.00047 C -437.97981,386.62882 -438.16474,386.27489 -438.48325,386.08195 C -438.80175,385.88901 -439.20108,385.88901 -439.51959,386.08195 C -439.8381,386.27489 -440.02303,386.62882 -439.99952,387.00047 C -439.99952,387.5634 -440.44255,388.00643 -441.00549,388.00643 C -441.37714,387.98293 -441.73106,388.16786 -441.924,388.48637 C -442.11694,388.80487 -442.11694,389.2042 -441.924,389.52271 C -441.73106,389.84122 -441.37714,390.02615 -441.00549,390.00264 L -441.00549,390.00264 z"
       id="path9716"
       style="fill:#c0c0c0;fill-opacity:1;stroke:none;stroke-width:3.97628045;stroke-linecap:round;stroke-linejoin:miter;stroke-miterlimit:4;stroke-dasharray:none;stroke-dashoffset:220;stroke-opacity:1;display:inline" />
    <rect
       width="2"
       height="3.6964769"
       rx="1"
       ry="1"
       x="388"
       y="440.30347"
       transform="matrix(0,1,-1,0,0,0)"
       id="rect9718"
       style="fill:#bebebe;fill-opacity:1;stroke:none;display:inline" />
    <path
       d="M -439.21875,374.0625 C -439.68438,374.16678 -440.01149,374.58548 -440,375.0625 L -440,386.9375 C -440.0051,387.29814 -439.81562,387.63358 -439.50413,387.81539 C -439.19263,387.99719 -438.80737,387.99719 -438.49587,387.81539 C -438.18438,387.63358 -437.9949,387.29814 -438,386.9375 L -438,375.0625 C -437.99256,374.75464 -438.12736,374.46053 -438.36543,374.26519 C -438.60349,374.06985 -438.91827,373.99508 -439.21875,374.0625 z"
       id="path6310"
       style="fill:#bebebe;fill-opacity:1;stroke:none;stroke-width:2;stroke-linecap:round;stroke-linejoin:round;marker:none;stroke-miterlimit:4;stroke-dasharray:none;stroke-dashoffset:0;stroke-opacity:1;visibility:visible;display:inline;overflow:visible;enable-background:accumulate" />
    <path
       d="M -457.21875,374 C -457.68438,374.10428 -458.01149,374.52298 -458,375 L -458,387 C -458.0051,387.36064 -457.81562,387.69608 -457.50413,387.87789 C -457.19263,388.05969 -456.80737,388.05969 -456.49587,387.87789 C -456.18438,387.69608 -455.9949,387.36064 -456,387 L -456,375 C -455.99256,374.69214 -456.12736,374.39803 -456.36543,374.20269 C -456.60349,374.00735 -456.91827,373.93258 -457.21875,374 z"
       id="path6320"
       style="fill:#bebebe;fill-opacity:1;stroke:none;stroke-width:2;stroke-linecap:round;stroke-linejoin:round;marker:none;stroke-miterlimit:4;stroke-dasharray:none;stroke-dashoffset:0;stroke-opacity:1;visibility:visible;display:inline;overflow:visible;enable-background:accumulate" />
  </g>
</svg>
