<?xml version="1.0" encoding="UTF-8" standalone="no"?>
<!-- Created with Inkscape (http://www.inkscape.org/) -->
<svg
   xmlns:svg="http://www.w3.org/2000/svg"
   xmlns="http://www.w3.org/2000/svg"
   version="1.0"
   width="24"
   height="24"
   id="svg7384">
  <defs
     id="defs7386" />
  <g
     transform="translate(490.96747,-307.05426)"
     id="layer3" />
  <g
     transform="translate(490.96747,-307.05426)"
     id="layer5" />
  <g
     transform="translate(490.96747,-307.05426)"
     id="layer7" />
  <g
     transform="translate(490.96747,-307.05426)"
     id="layer2" />
  <g
     transform="translate(490.96747,-307.05426)"
     id="layer8" />
  <g
     transform="translate(490.96747,-1259.4164)"
     id="layer1" />
  <g
     transform="translate(490.96747,-307.05426)"
     id="layer4" />
  <g
     transform="translate(490.96747,-307.05426)"
     id="layer9" />
  <g
     transform="translate(490.96747,-307.05426)"
     id="layer6">
    <rect
       width="24"
       height="24"
       x="466.96747"
       y="307.05426"
       transform="scale(-1,1)"
       id="rect8920"
       style="opacity:0;fill:#ffffff;fill-opacity:1;stroke:none;display:inline" />
    <path
       d="M -485.49872,320.00567 C -487.97108,320.00567 -489.9725,322.0071 -489.9725,324.47945 C -489.9725,326.9518 -487.97108,328.95323 -485.49872,328.95323 C -483.02636,328.95323 -481.02494,326.9518 -481.02494,324.47945 C -481.02494,322.0071 -483.02636,320.00567 -485.49872,320.00567 z M -485.49872,321.95578 C -484.10849,321.95578 -482.97505,323.08921 -482.97505,324.47945 C -482.97505,325.86969 -484.10849,327.00312 -485.49872,327.00312 C -486.88895,327.00312 -488.02239,325.86969 -488.02239,324.47945 C -488.02239,323.08921 -486.88895,321.95578 -485.49872,321.95578 z"
       id="path15603"
       style="fill:#bebebe;fill-opacity:1;stroke:none;stroke-width:1.08968329;stroke-linecap:round;stroke-linejoin:round;marker:none;stroke-miterlimit:4;stroke-dasharray:none;stroke-dashoffset:0;stroke-opacity:1;visibility:visible;display:inline;overflow:visible;enable-background:accumulate" />
    <path
       d="M -473.09375,309 C -473.36436,309.02635 -473.61259,309.16174 -473.78125,309.375 L -479.46875,316.21875 C -479.78715,316.60281 -479.77381,317.16278 -479.4375,317.53125 L -477.375,319.8125 C -477.1807,320.02383 -476.90496,320.14148 -476.61795,320.1355 C -476.33093,320.12952 -476.06033,320.00049 -475.875,319.78125 L -471.84375,314.78125 L -471.78125,314.71875 L -471.8125,314.6875 C -471.26671,314.10694 -470.93328,313.43291 -470.875,312.78125 C -470.81403,312.09952 -470.97701,311.50325 -471.1875,311 C -471.60849,309.99349 -472.28125,309.3125 -472.28125,309.3125 C -472.49016,309.08974 -472.78941,308.97465 -473.09375,309 z M -473.09375,311.65625 C -473.06908,311.70688 -473.05331,311.69725 -473.03125,311.75 C -472.90733,312.04628 -472.85244,312.34147 -472.875,312.59375 C -472.89756,312.84603 -472.95408,313.07908 -473.25,313.375 C -473.28329,313.40414 -473.31461,313.43546 -473.34375,313.46875 L -476.6875,317.59375 L -477.375,316.84375 L -473.09375,311.65625 z M -481.1875,318.65625 C -481.43559,318.69818 -481.65876,318.83208 -481.8125,319.03125 L -483.78125,321.375 C -484.12643,321.80647 -484.05647,322.43607 -483.625,322.78125 C -483.19353,323.12643 -482.56393,323.05647 -482.21875,322.625 L -481.0625,321.21875 L -480.3125,322.09375 L -483.78125,326.375 C -484.12643,326.80647 -484.05647,327.43607 -483.625,327.78125 C -483.19353,328.12643 -482.56393,328.05647 -482.21875,327.625 L -478.25,322.71875 C -477.95754,322.3534 -477.95754,321.8341 -478.25,321.46875 L -480.28125,319.03125 C -480.4971,318.75654 -480.84065,318.61438 -481.1875,318.65625 z"
       id="path16427"
       style="fill:#bebebe;fill-opacity:1;stroke:none;stroke-width:1.99999988;stroke-linecap:round;stroke-linejoin:round;marker:none;stroke-miterlimit:4;stroke-dasharray:none;stroke-dashoffset:0;stroke-opacity:1;visibility:visible;display:inline;overflow:visible;enable-background:accumulate" />
    <path
       d="M -485.15625,309 C -485.35798,309.03706 -485.54345,309.13524 -485.6875,309.28125 C -485.6875,309.28125 -486.39942,309.93591 -486.875,310.9375 C -487.11279,311.4383 -487.31801,312.05798 -487.28125,312.75 C -487.2461,313.41164 -486.92558,314.10004 -486.375,314.6875 L -486.40625,314.71875 L -486.34375,314.78125 L -475.78125,327.625 C -475.43607,328.05647 -474.80647,328.12643 -474.375,327.78125 C -473.94353,327.43607 -473.87357,326.80647 -474.21875,326.375 L -484.84375,313.46875 C -484.86281,313.43635 -484.88367,313.40505 -484.90625,313.375 C -485.19619,313.08506 -485.26839,312.89824 -485.28125,312.65625 C -485.29411,312.41426 -485.2356,312.11124 -485.09375,311.8125 C -485.03701,311.693 -485.00495,311.70128 -484.9375,311.59375 L -475.28125,322.1875 C -474.91018,322.60171 -474.27359,322.63669 -473.85937,322.26563 C -473.44516,321.89456 -473.41018,321.25796 -473.78125,320.84375 L -484.25,309.3125 C -484.47923,309.06091 -484.82067,308.94317 -485.15625,309 z"
       id="path15607"
       style="fill:#bebebe;fill-opacity:1;stroke:none;stroke-width:1.99999988;stroke-linecap:round;stroke-linejoin:round;marker:none;stroke-miterlimit:4;stroke-dasharray:none;stroke-dashoffset:0;stroke-opacity:1;visibility:visible;display:inline;overflow:visible;enable-background:accumulate" />
    <path
       d="M -471.63838,320.06303 C -472.76945,319.83674 -473.99379,320.06566 -475.02239,320.7513 C -475.4817,321.06807 -475.59726,321.69721 -475.28049,322.15653 C -474.96372,322.61584 -474.33458,322.7314 -473.87527,322.41463 C -472.71848,321.64353 -471.205,321.94611 -470.4339,323.1029 C -469.6628,324.2597 -469.96539,325.77317 -471.12217,326.54427 C -472.16543,327.2397 -473.4718,327.11031 -474.33412,326.20013 C -474.56752,325.89511 -474.95498,325.75069 -475.33109,325.82854 C -475.7072,325.90639 -476.00549,326.19276 -476.09863,326.56538 C -476.19176,326.938 -476.06327,327.33103 -475.76802,327.57668 C -474.26206,329.16621 -471.79701,329.4221 -469.97505,328.2076 C -467.91785,326.8363 -467.39926,324.01299 -468.77057,321.95578 C -469.45622,320.92719 -470.50731,320.28932 -471.63838,320.06303 z"
       id="path12152"
       style="fill:#bebebe;fill-opacity:1;stroke:none;stroke-width:1.08968329;stroke-linecap:round;stroke-linejoin:round;marker:none;stroke-miterlimit:4;stroke-dasharray:none;stroke-dashoffset:0;stroke-opacity:1;visibility:visible;display:inline;overflow:visible;enable-background:accumulate" />
    <path
       d="M -472,324.5 A 0.5,0.5 0 1 1 -473,324.5 A 0.5,0.5 0 1 1 -472,324.5 z"
       transform="matrix(3,0,0,3,945,-649)"
       id="path12154"
       style="fill:#bebebe;fill-opacity:1;fill-rule:nonzero;stroke:none;stroke-width:2;marker:none;visibility:visible;display:inline;overflow:visible;enable-background:accumulate" />
    <path
       d="M -485.49872,321.04478 C -487.38458,321.04478 -488.9334,322.59359 -488.9334,324.47945 C -488.9334,326.36531 -487.38458,327.91413 -485.49872,327.91413 C -483.61286,327.91413 -482.06404,326.36531 -482.06404,324.47945 C -482.06404,322.59359 -483.61286,321.04478 -485.49872,321.04478 z M -485.49872,323.04168 C -484.69499,323.04168 -484.06095,323.67572 -484.06095,324.47945 C -484.06095,325.28318 -484.69499,325.91722 -485.49872,325.91722 C -486.30245,325.91722 -486.93649,325.28318 -486.93649,324.47945 C -486.93649,323.67572 -486.30245,323.04168 -485.49872,323.04168 z"
       id="path12156"
       style="fill:#bebebe;fill-opacity:1;stroke:none;stroke-width:1.56492245;stroke-linecap:round;stroke-linejoin:round;marker:none;stroke-miterlimit:4;stroke-dasharray:none;stroke-dashoffset:0;stroke-opacity:1;visibility:visible;display:inline;overflow:visible;enable-background:accumulate" />
  </g>
</svg>
