<?xml version="1.0" encoding="UTF-8" standalone="no"?>
<!-- Created with Inkscape (http://www.inkscape.org/) -->
<svg
   xmlns:svg="http://www.w3.org/2000/svg"
   xmlns="http://www.w3.org/2000/svg"
   version="1.0"
   width="24"
   height="24"
   id="svg7384">
  <defs
     id="defs7386" />
  <g
     transform="translate(458.96741,-371.00006)"
     id="layer3" />
  <g
     transform="translate(458.96741,-371.00006)"
     id="layer5" />
  <g
     transform="translate(458.96741,-371.00006)"
     id="layer7" />
  <g
     transform="translate(458.96741,-371.00006)"
     id="layer2" />
  <g
     transform="translate(458.96741,-371.00006)"
     id="layer8" />
  <g
     transform="translate(458.96741,-1323.3622)"
     id="layer1" />
  <g
     transform="translate(458.96741,-371.00006)"
     id="layer4" />
  <g
     transform="translate(458.96741,-371.00006)"
     id="layer9" />
  <g
     transform="translate(458.96741,-371.00006)"
     id="layer6">
    <rect
       width="24"
       height="24"
       x="434.96741"
       y="371.00006"
       transform="scale(-1,1)"
       id="rect9680"
       style="opacity:0;fill:#ffffff;fill-opacity:1;stroke:none;display:inline" />
    <rect
       width="2"
       height="12"
       rx="1"
       ry="0.99999994"
       x="-380.00006"
       y="-452.96741"
       transform="matrix(0,-1,1,0,0,0)"
       id="rect2789-4"
       style="fill:#bebebe;fill-opacity:1;stroke:none;display:inline" />
    <rect
       width="2"
       height="8"
       rx="1"
       ry="1"
       x="-383.00006"
       y="-452.96741"
       transform="matrix(0,-1,1,0,0,0)"
       id="rect2869"
       style="fill:#bebebe;fill-opacity:1;stroke:none;display:inline" />
    <rect
       width="2"
       height="12"
       rx="1"
       ry="0.99999994"
       x="-386.00006"
       y="-452.96741"
       transform="matrix(0,-1,1,0,0,0)"
       id="rect2871"
       style="fill:#bebebe;fill-opacity:1;stroke:none;display:inline" />
    <rect
       width="2"
       height="8"
       rx="1"
       ry="1"
       x="-389.00006"
       y="-452.96741"
       transform="matrix(0,-1,1,0,0,0)"
       id="rect2873"
       style="fill:#bebebe;fill-opacity:1;stroke:none;display:inline" />
    <rect
       width="2"
       height="15.490883"
       rx="1"
       ry="1"
       x="454.96741"
       y="-391.49078"
       transform="scale(-1,-1)"
       id="rect2875-1"
       style="fill:#bebebe;fill-opacity:1;stroke:none;display:inline" />
    <path
       d="M -453.96186,373.99725 C -455.60692,373.99725 -456.96404,375.35436 -456.96404,376.99942 C -456.98754,377.37107 -456.80261,377.725 -456.4841,377.91794 C -456.1656,378.11088 -455.76627,378.11088 -455.44776,377.91794 C -455.12925,377.725 -454.94432,377.37107 -454.96783,376.99942 C -454.96783,376.43649 -454.5248,375.99346 -453.96186,375.99346 C -453.59021,376.01696 -453.23629,375.83203 -453.04335,375.51352 C -452.85041,375.19502 -452.85041,374.79569 -453.04335,374.47718 C -453.23629,374.15867 -453.59021,373.97374 -453.96186,373.99725 L -453.96186,373.99725 z"
       id="path2877"
       style="fill:#c0c0c0;fill-opacity:1;stroke:none;stroke-width:3.97628045;stroke-linecap:round;stroke-linejoin:miter;stroke-miterlimit:4;stroke-dasharray:none;stroke-dashoffset:220;stroke-opacity:1;display:inline" />
    <rect
       width="2"
       height="3.6964769"
       rx="1"
       ry="1"
       x="-376.00006"
       y="-454.664"
       transform="matrix(0,-1,1,0,0,0)"
       id="rect3681"
       style="fill:#bebebe;fill-opacity:1;stroke:none;display:inline" />
    <rect
       width="2"
       height="15"
       rx="1"
       ry="0.99999994"
       x="-438.96741"
       y="-391.00006"
       transform="scale(1,-1)"
       id="rect9698"
       style="fill:#bebebe;fill-opacity:1;stroke:none;display:inline" />
    <path
       d="M -439.9729,373.99725 C -438.32784,373.99725 -436.97072,375.35436 -436.97072,376.99942 C -436.94722,377.37107 -437.13215,377.725 -437.45066,377.91794 C -437.76916,378.11088 -438.16849,378.11088 -438.487,377.91794 C -438.80551,377.725 -438.99044,377.37107 -438.96693,376.99942 C -438.96693,376.43649 -439.40996,375.99346 -439.9729,375.99346 C -440.34455,376.01696 -440.69847,375.83203 -440.89141,375.51352 C -441.08435,375.19502 -441.08435,374.79569 -440.89141,374.47718 C -440.69847,374.15867 -440.34455,373.97374 -439.9729,373.99725 L -439.9729,373.99725 z"
       id="path9708"
       style="fill:#c0c0c0;fill-opacity:1;stroke:none;stroke-width:3.97628045;stroke-linecap:round;stroke-linejoin:miter;stroke-miterlimit:4;stroke-dasharray:none;stroke-dashoffset:220;stroke-opacity:1;display:inline" />
    <rect
       width="2"
       height="3.6964769"
       rx="1"
       ry="1"
       x="-376.00006"
       y="439.27087"
       transform="matrix(0,-1,-1,0,0,0)"
       id="rect9710"
       style="fill:#bebebe;fill-opacity:1;stroke:none;display:inline" />
    <path
       d="M -453.96186,393.00255 C -455.60692,393.00255 -456.96404,391.64544 -456.96404,390.00038 C -456.98754,389.62873 -456.80261,389.2748 -456.4841,389.08186 C -456.1656,388.88892 -455.76627,388.88892 -455.44776,389.08186 C -455.12925,389.2748 -454.94432,389.62873 -454.96783,390.00038 C -454.96783,390.56331 -454.5248,391.00634 -453.96186,391.00634 C -453.59021,390.98284 -453.23629,391.16777 -453.04335,391.48628 C -452.85041,391.80478 -452.85041,392.20411 -453.04335,392.52262 C -453.23629,392.84113 -453.59021,393.02606 -453.96186,393.00255 L -453.96186,393.00255 z"
       id="path9712"
       style="fill:#c0c0c0;fill-opacity:1;stroke:none;stroke-width:3.97628045;stroke-linecap:round;stroke-linejoin:miter;stroke-miterlimit:4;stroke-dasharray:none;stroke-dashoffset:220;stroke-opacity:1;display:inline" />
    <rect
       width="2"
       height="3.6964769"
       rx="1"
       ry="1"
       x="391.00006"
       y="-454.664"
       transform="matrix(0,1,1,0,0,0)"
       id="rect9714"
       style="fill:#bebebe;fill-opacity:1;stroke:none;display:inline" />
    <path
       d="M -439.9729,393.00255 C -438.32784,393.00255 -436.97072,391.64544 -436.97072,390.00038 C -436.94722,389.62873 -437.13215,389.2748 -437.45066,389.08186 C -437.76916,388.88892 -438.16849,388.88892 -438.487,389.08186 C -438.80551,389.2748 -438.99044,389.62873 -438.96693,390.00038 C -438.96693,390.56331 -439.40996,391.00634 -439.9729,391.00634 C -440.34455,390.98284 -440.69847,391.16777 -440.89141,391.48628 C -441.08435,391.80478 -441.08435,392.20411 -440.89141,392.52262 C -440.69847,392.84113 -440.34455,393.02606 -439.9729,393.00255 L -439.9729,393.00255 z"
       id="path9716"
       style="fill:#c0c0c0;fill-opacity:1;stroke:none;stroke-width:3.97628045;stroke-linecap:round;stroke-linejoin:miter;stroke-miterlimit:4;stroke-dasharray:none;stroke-dashoffset:220;stroke-opacity:1;display:inline" />
    <rect
       width="2"
       height="3.6964769"
       rx="1"
       ry="1"
       x="391.00006"
       y="439.27087"
       transform="matrix(0,1,-1,0,0,0)"
       id="rect9718"
       style="fill:#bebebe;fill-opacity:1;stroke:none;display:inline" />
  </g>
</svg>
