<?xml version="1.0" encoding="UTF-8" standalone="no"?>
<!-- Created with Inkscape (http://www.inkscape.org/) -->
<svg
   xmlns:svg="http://www.w3.org/2000/svg"
   xmlns="http://www.w3.org/2000/svg"
   version="1.0"
   width="24"
   height="24.0625"
   id="svg7384">
  <defs
     id="defs7386" />
  <g
     transform="translate(460,-306)"
     id="layer3" />
  <g
     transform="translate(460,-306)"
     id="layer5" />
  <g
     transform="translate(460,-306)"
     id="layer7" />
  <g
     transform="translate(460,-306)"
     id="layer2" />
  <g
     transform="translate(460,-306)"
     id="layer8" />
  <g
     transform="translate(460,-1258.3622)"
     id="layer1" />
  <g
     transform="translate(460,-306)"
     id="layer4" />
  <g
     transform="translate(460,-306)"
     id="layer9" />
  <g
     transform="translate(460,-306)"
     id="layer6">
    <rect
       width="24"
       height="24"
       x="436"
       y="306.00006"
       transform="scale(-1,1)"
       id="rect8922"
       style="opacity:0;fill:#ffffff;fill-opacity:1;stroke:none;display:inline" />
    <path
       d="M -440.25,309 C -440.80228,309.00863 -441.243,309.46334 -441.23437,310.01562 C -441.22575,310.56791 -440.77103,311.00863 -440.21875,311 L -440.03125,311 L -440.03125,328.0625 L -456.03125,328.0625 L -455.96875,311.125 L -455.875,311.125 C -455.51436,311.1301 -455.17892,310.94062 -454.99711,310.62913 C -454.81531,310.31763 -454.81531,309.93237 -454.99711,309.62087 C -455.17892,309.30938 -455.51436,309.1199 -455.875,309.125 L -456.96875,309.09375 C -457.52101,309.09381 -457.96869,309.54149 -457.96875,310.09375 L -458.03125,329.0625 C -458.03119,329.61476 -457.58351,330.06244 -457.03125,330.0625 L -439.03125,330.0625 C -438.47899,330.06244 -438.03131,329.61476 -438.03125,329.0625 L -438.03125,310 C -438.03131,309.44774 -438.47899,309.00006 -439.03125,309 L -440.25,309 z"
       id="path15573"
       style="fill:#bebebe;fill-opacity:1;stroke:none;stroke-width:2;stroke-linecap:round;stroke-linejoin:round;marker:none;stroke-miterlimit:4;stroke-dasharray:none;stroke-dashoffset:0;stroke-opacity:1;visibility:visible;display:inline;overflow:visible;enable-background:accumulate" />
    <path
       d="M -451.125,306 C -451.64036,306.04857 -452.03348,306.48237 -452.03125,307 L -452.03125,309.53125 L -453.625,310.875 C -453.85054,311.07099 -453.97663,311.35756 -453.96875,311.65625 L -453.96875,313 C -453.96869,313.55226 -453.52101,313.99994 -452.96875,314 L -443.03125,314 C -442.47899,313.99994 -442.03131,313.55226 -442.03125,313 L -442.03125,311.6875 C -442.03107,311.38364 -442.16906,311.09618 -442.40625,310.90625 L -444.03125,309.53125 L -444.03125,307 C -444.03131,306.44774 -444.47899,306.00006 -445.03125,306 L -451.03125,306 C -451.06248,305.99853 -451.09377,305.99853 -451.125,306 z M -450.03125,308 L -446.03125,308 L -446.03125,310 C -446.03913,310.29869 -445.91304,310.58526 -445.6875,310.78125 L -444.21875,312 L -451.84375,312 L -450.375,310.75 C -450.15783,310.56111 -450.03257,310.28782 -450.03125,310 L -450.03125,308 z"
       id="path15577"
       style="fill:#bebebe;fill-opacity:1;stroke:none;stroke-width:2;stroke-linecap:round;stroke-linejoin:round;marker:none;stroke-miterlimit:4;stroke-dasharray:none;stroke-dashoffset:0;stroke-opacity:1;visibility:visible;display:inline;overflow:visible;enable-background:accumulate" />
    <path
       d="M -442.46875,314.96875 C -442.60695,314.96849 -442.73909,315.02545 -442.83381,315.12608 C -442.92853,315.22672 -442.97737,315.36207 -442.96875,315.5 L -442.96875,322.28125 L -445.75,325.0625 L -452.96875,325.0625 L -452.96875,315.53125 C -452.9662,315.35093 -453.06094,315.18321 -453.21669,315.09231 C -453.37244,315.0014 -453.56506,315.0014 -453.72081,315.09231 C -453.87656,315.18321 -453.9713,315.35093 -453.96875,315.53125 L -453.96875,325.5625 L -453.96875,326.0625 L -453.46875,326.0625 L -445.5625,326.0625 L -445.34375,326.0625 L -445.21875,325.90625 L -442.125,322.8125 L -441.96875,322.6875 L -441.96875,322.46875 L -441.96875,315.5 C -441.96013,315.36207 -442.00897,315.22672 -442.10369,315.12608 C -442.19841,315.02545 -442.33055,314.96849 -442.46875,314.96875 z"
       id="path9138"
       style="fill:#bebebe;fill-opacity:1;stroke:none;stroke-width:1px;stroke-linecap:round;stroke-linejoin:miter;stroke-opacity:1" />
    <path
       d="M -446.0076,325.56706 L -446.0076,321.94314 L -442.29529,321.94314 L -446.0076,325.56706 z"
       id="path9140"
       style="fill:#bebebe;fill-opacity:1;stroke:none" />
  </g>
</svg>
