<?xml version="1.0" encoding="UTF-8" standalone="no"?>
<!-- Created with Inkscape (http://www.inkscape.org/) -->
<svg
   xmlns:svg="http://www.w3.org/2000/svg"
   xmlns="http://www.w3.org/2000/svg"
   version="1.0"
   width="24"
   height="24"
   id="svg7384">
  <defs
     id="defs7386" />
  <g
     transform="translate(492,-306)"
     id="layer3" />
  <g
     transform="translate(492,-306)"
     id="layer5" />
  <g
     transform="translate(492,-306)"
     id="layer7" />
  <g
     transform="translate(492,-306)"
     id="layer2" />
  <g
     transform="translate(492,-306)"
     id="layer8" />
  <g
     transform="translate(492,-1258.3622)"
     id="layer1" />
  <g
     transform="translate(492,-306)"
     id="layer4" />
  <g
     transform="translate(492,-306)"
     id="layer9" />
  <g
     transform="translate(492,-306)"
     id="layer6">
    <rect
       width="24"
       height="24"
       x="468"
       y="306"
       transform="scale(-1,1)"
       id="rect8920"
       style="opacity:0;fill:#ffffff;fill-opacity:1;stroke:none;display:inline" />
    <path
       d="M -474.14455,318.08198 C -472.97858,318.2927 -471.90988,318.92542 -471.12823,319.91801 C -469.42746,322.07774 -469.82094,325.23348 -471.98067,326.93425 C -474.1404,328.63502 -477.29614,328.24155 -478.99691,326.08181 C -479.34095,325.64724 -479.26755,325.01605 -478.83298,324.67201 C -478.3984,324.32797 -477.76721,324.40136 -477.42317,324.83594 C -476.3919,326.1455 -474.53612,326.3918 -473.22654,325.36052 C -471.91696,324.32921 -471.67069,322.47346 -472.70196,321.16388 C -473.66041,319.9468 -475.31249,319.63793 -476.6363,320.44259 C -477.10709,320.7323 -477.7236,320.58552 -478.01332,320.11473 C -478.30304,319.64394 -478.15625,319.02742 -477.68546,318.73771 C -476.60583,318.08146 -475.31052,317.87127 -474.14455,318.08198 z"
       id="path10359"
       style="fill:#bebebe;fill-opacity:1;stroke:none;stroke-width:0.95314562;stroke-linecap:round;stroke-linejoin:round;marker:none;stroke-miterlimit:4;stroke-dasharray:none;stroke-dashoffset:0;stroke-opacity:1;visibility:visible;display:inline;overflow:visible;enable-background:accumulate" />
    <path
       d="M -487.0625,305.8125 L -487.84375,306.59375 C -487.84375,306.59375 -488.75599,307.48313 -489.375,308.78125 C -489.99401,310.07937 -490.29935,312.03756 -488.96875,313.6875 L -479.15625,325.84375 C -478.81107,326.27522 -478.18147,326.34518 -477.75,326 C -477.31853,325.65482 -477.24857,325.02522 -477.59375,324.59375 L -487.4375,312.4375 C -488.213,311.47589 -488.00563,310.58553 -487.5625,309.65625 C -487.37195,309.25666 -487.2685,309.24441 -487.0625,308.96875 L -478.0625,320 C -477.70869,320.43147 -477.0721,320.49443 -476.64062,320.14062 C -476.20915,319.78682 -476.14619,319.15022 -476.5,318.71875 L -486.34375,306.6875 L -487.0625,305.8125 z"
       id="path10361"
       style="fill:#bebebe;fill-opacity:1;stroke:none;stroke-width:1.99999952;stroke-linecap:round;stroke-linejoin:miter;marker:none;stroke-miterlimit:4;stroke-dasharray:none;stroke-dashoffset:0;stroke-opacity:1;visibility:visible;display:inline;overflow:visible;enable-background:accumulate" />
    <path
       d="M -475.06336,321.01005 C -476.16333,321.01005 -477.06337,321.91008 -477.06336,323.01005 C -477.06336,324.11002 -476.16333,325.01006 -475.06336,325.01005 C -473.96339,325.01005 -473.06335,324.11002 -473.06336,323.01005 C -473.06336,321.91008 -473.96339,321.01004 -475.06336,321.01005 z M -475.06336,322.01005 C -474.50446,322.01004 -474.06336,322.45115 -474.06336,323.01005 C -474.06335,323.56895 -474.50446,324.01005 -475.06336,324.01005 C -475.62226,324.01006 -476.06336,323.56895 -476.06336,323.01005 C -476.06337,322.45115 -475.62226,322.01005 -475.06336,322.01005 z"
       id="path10363"
       style="fill:#bebebe;fill-opacity:1;stroke:none;stroke-width:0.99999994px;marker:none;stroke-opacity:1;visibility:visible;display:inline;overflow:visible;enable-background:new" />
    <path
       d="M -487.84211,318.08198 C -489.00808,318.2927 -490.07678,318.92542 -490.85843,319.91801 C -492.5592,322.07774 -492.16572,325.23348 -490.00599,326.93425 C -487.84626,328.63502 -484.69052,328.24155 -482.98975,326.08181 C -482.64571,325.64724 -482.71911,325.01605 -483.15368,324.67201 C -483.58826,324.32797 -484.21945,324.40136 -484.56349,324.83594 C -485.59476,326.1455 -487.45054,326.3918 -488.76012,325.36052 C -490.0697,324.32921 -490.31597,322.47346 -489.2847,321.16388 C -488.32625,319.9468 -486.67417,319.63793 -485.35036,320.44259 C -484.87957,320.7323 -484.26306,320.58552 -483.97334,320.11473 C -483.68362,319.64394 -483.83041,319.02742 -484.3012,318.73771 C -485.38083,318.08146 -486.67614,317.87127 -487.84211,318.08198 z"
       id="path10809"
       style="fill:#bebebe;fill-opacity:1;stroke:none;stroke-width:0.95314562;stroke-linecap:round;stroke-linejoin:round;marker:none;stroke-miterlimit:4;stroke-dasharray:none;stroke-dashoffset:0;stroke-opacity:1;visibility:visible;display:inline;overflow:visible;enable-background:accumulate" />
    <path
       d="M -474.9375,305.8125 L -475.625,306.6875 L -481.71875,314.15625 C -482.01175,314.41986 -482.12261,314.83098 -482.00185,315.20616 C -481.88109,315.58133 -481.55123,315.8506 -481.15948,315.89381 C -480.76772,315.93701 -480.38712,315.7461 -480.1875,315.40625 L -474.9375,308.96875 C -474.7315,309.24441 -474.62805,309.25666 -474.4375,309.65625 C -473.99437,310.58553 -473.787,311.47589 -474.5625,312.4375 L -478.875,317.78125 C -479.22018,318.21272 -479.15022,318.84232 -478.71875,319.1875 C -478.28728,319.53268 -477.65768,319.46272 -477.3125,319.03125 L -473,313.6875 C -471.6694,312.03756 -472.00599,310.07937 -472.625,308.78125 C -473.24401,307.48313 -474.15625,306.59375 -474.15625,306.59375 L -474.9375,305.8125 z M -484.09375,317.40625 C -484.31471,317.45397 -484.51299,317.57514 -484.65625,317.75 C -484.65625,317.75 -485.46875,318.71875 -485.46875,318.71875 C -485.72397,318.98894 -485.80831,319.37838 -485.68773,319.72995 C -485.56715,320.08153 -485.26155,320.33723 -484.89422,320.39391 C -484.5269,320.45058 -484.15844,320.29888 -483.9375,320 C -483.9375,320 -483.125,319.0625 -483.125,319.0625 C -482.82097,318.73954 -482.76599,318.25492 -482.98993,317.87206 C -483.21387,317.48919 -483.66322,317.29957 -484.09375,317.40625 z M -481.125,321 C -481.38438,321.03434 -481.61998,321.16897 -481.78125,321.375 L -484.375,324.59375 C -484.72018,325.02522 -484.65022,325.65482 -484.21875,326 C -483.78728,326.34518 -483.15768,326.27522 -482.8125,325.84375 L -480.21875,322.625 C -479.95853,322.3073 -479.91896,321.86282 -480.11899,321.50416 C -480.31901,321.1455 -480.71796,320.94557 -481.125,321 z"
       id="path10811"
       style="fill:#bebebe;fill-opacity:1;stroke:none;stroke-width:1.99999952;stroke-linecap:round;stroke-linejoin:miter;marker:none;stroke-miterlimit:4;stroke-dasharray:none;stroke-dashoffset:0;stroke-opacity:1;visibility:visible;display:inline;overflow:visible;enable-background:accumulate" />
    <path
       d="M -487.06336,321.01005 C -488.16333,321.01005 -489.06337,321.91008 -489.06336,323.01005 C -489.06336,324.11002 -488.16333,325.01006 -487.06336,325.01005 C -485.96339,325.01005 -485.06335,324.11002 -485.06336,323.01005 C -485.06336,321.91008 -485.96339,321.01004 -487.06336,321.01005 z M -487.06336,322.01005 C -486.50446,322.01004 -486.06336,322.45115 -486.06336,323.01005 C -486.06335,323.56895 -486.50446,324.01005 -487.06336,324.01005 C -487.62226,324.01006 -488.06336,323.56895 -488.06336,323.01005 C -488.06337,322.45115 -487.62226,322.01005 -487.06336,322.01005 z"
       id="path10813"
       style="fill:#bebebe;fill-opacity:1;stroke:none;stroke-width:0.99999994px;marker:none;stroke-opacity:1;visibility:visible;display:inline;overflow:visible;enable-background:new" />
  </g>
</svg>
