<?xml version="1.0" encoding="UTF-8" standalone="no"?>
<!-- Created with Inkscape (http://www.inkscape.org/) -->
<svg
   xmlns:svg="http://www.w3.org/2000/svg"
   xmlns="http://www.w3.org/2000/svg"
   version="1.0"
   width="24"
   height="24"
   id="svg7384">
  <defs
     id="defs7386" />
  <g
     transform="translate(522,-306)"
     id="layer3" />
  <g
     transform="translate(522,-306)"
     id="layer5" />
  <g
     transform="translate(522,-306)"
     id="layer7" />
  <g
     transform="translate(522,-306)"
     id="layer2" />
  <g
     transform="translate(522,-306)"
     id="layer8" />
  <g
     transform="translate(522,-1258.3622)"
     id="layer1" />
  <g
     transform="translate(522,-306)"
     id="layer4" />
  <g
     transform="translate(522,-306)"
     id="layer9" />
  <g
     transform="translate(522,-306)"
     id="layer6">
    <rect
       width="24"
       height="24"
       x="498"
       y="306"
       transform="scale(-1,1)"
       id="rect8918"
       style="opacity:0;fill:#ffffff;fill-opacity:1;stroke:none;display:inline" />
    <path
       d="M -519.125,313.9375 C -519.64036,313.98607 -520.03348,314.41987 -520.03125,314.9375 L -520.03125,326.9375 C -520.03119,327.48976 -519.58351,327.93744 -519.03125,327.9375 L -507.03125,327.9375 C -506.47899,327.93744 -506.03131,327.48976 -506.03125,326.9375 L -506.03125,319.9375 C -506.03326,319.68072 -506.13397,319.43456 -506.3125,319.25 L -511.3125,314.25 C -511.49959,314.05239 -511.75913,313.93954 -512.03125,313.9375 L -519.03125,313.9375 C -519.06248,313.93603 -519.09377,313.93603 -519.125,313.9375 z M -518.03125,315.9375 L -512.46875,315.9375 L -508.03125,320.375 L -508.03125,325.9375 L -518.03125,325.9375 L -518.03125,315.9375 z"
       id="path15561"
       style="fill:#bebebe;fill-opacity:1;stroke:none;stroke-width:2;stroke-linecap:round;stroke-linejoin:round;marker:none;stroke-miterlimit:4;stroke-dasharray:none;stroke-dashoffset:0;stroke-opacity:1;visibility:visible;display:inline;overflow:visible;enable-background:accumulate" />
    <path
       d="M -512.5625,313.96875 C -512.82636,313.9853 -513.03174,314.20437 -513.03125,314.46875 L -513.03125,320.46875 C -513.03122,320.74488 -512.80738,320.96872 -512.53125,320.96875 L -506.5625,320.96875 C -506.35218,320.97426 -506.16091,320.84754 -506.08398,320.65172 C -506.00706,320.4559 -506.06092,320.23287 -506.21875,320.09375 L -512.15625,314.125 C -512.26071,314.01362 -512.41033,313.95607 -512.5625,313.96875 z M -512.03125,315.6875 L -507.75,319.96875 L -512.03125,319.96875 L -512.03125,315.6875 z"
       id="path16429"
       style="fill:#bebebe;fill-opacity:1;stroke:none;stroke-width:1;stroke-linecap:round;stroke-linejoin:round;marker:none;stroke-miterlimit:4;stroke-dasharray:none;stroke-dashoffset:0;stroke-opacity:1;visibility:visible;display:inline;overflow:visible;enable-background:accumulate" />
    <path
       d="M -513.125,307.9375 C -513.64036,307.98607 -514.03348,308.41987 -514.03125,308.9375 L -514.03125,311 C -514.03635,311.36064 -513.84687,311.69608 -513.53538,311.87789 C -513.22388,312.05969 -512.83862,312.05969 -512.52712,311.87789 C -512.21563,311.69608 -512.02615,311.36064 -512.03125,311 L -512.03125,309.9375 L -506.46875,309.9375 L -502.03125,314.375 L -502.03125,319.9375 L -502.9375,319.9375 C -503.29814,319.9324 -503.63358,320.12188 -503.81539,320.43337 C -503.99719,320.74487 -503.99719,321.13013 -503.81539,321.44163 C -503.63358,321.75312 -503.29814,321.9426 -502.9375,321.9375 L -501.03125,321.9375 C -500.47899,321.93744 -500.03131,321.48976 -500.03125,320.9375 L -500.03125,313.9375 C -500.03326,313.68072 -500.13397,313.43456 -500.3125,313.25 L -505.3125,308.25 C -505.49959,308.05239 -505.75913,307.93954 -506.03125,307.9375 L -513.03125,307.9375 C -513.06248,307.93603 -513.09377,307.93603 -513.125,307.9375 z"
       id="path7276"
       style="fill:#bebebe;fill-opacity:1;stroke:none;stroke-width:2;stroke-linecap:round;stroke-linejoin:round;marker:none;stroke-miterlimit:4;stroke-dasharray:none;stroke-dashoffset:0;stroke-opacity:1;visibility:visible;display:inline;overflow:visible;enable-background:accumulate" />
    <path
       d="M -506.625,307.96875 C -506.86404,308.01436 -507.03554,308.22543 -507.03125,308.46875 L -507.03125,314.4375 C -507.03122,314.71363 -506.80738,314.93747 -506.53125,314.9375 L -500.59375,314.9375 C -500.39186,314.94232 -500.20689,314.82522 -500.12487,314.64068 C -500.04285,314.45614 -500.07989,314.24038 -500.21875,314.09375 L -506.1875,308.09375 C -506.30483,307.98431 -506.46756,307.93781 -506.625,307.96875 z M -506.03125,309.65625 L -501.8125,313.9375 L -506.03125,313.9375 L -506.03125,309.65625 z"
       id="path7278"
       style="fill:#bebebe;fill-opacity:1;stroke:none;stroke-width:1;stroke-linecap:round;stroke-linejoin:round;marker:none;stroke-miterlimit:4;stroke-dasharray:none;stroke-dashoffset:0;stroke-opacity:1;visibility:visible;display:inline;overflow:visible;enable-background:accumulate" />
  </g>
</svg>
