<?xml version="1.0" encoding="UTF-8" standalone="no"?>
<!-- Created with Inkscape (http://www.inkscape.org/) -->
<svg
   xmlns:svg="http://www.w3.org/2000/svg"
   xmlns="http://www.w3.org/2000/svg"
   version="1.0"
   width="24"
   height="24"
   id="svg7384">
  <title
     id="title9167">Moblin Icon Theme</title>
  <defs
     id="defs7386" />
  <g
     transform="translate(334,-272)"
     id="layer3" />
  <g
     transform="translate(334,-272)"
     id="layer5" />
  <g
     transform="translate(334,-272)"
     id="layer7" />
  <g
     transform="translate(334,-272)"
     id="layer2" />
  <g
     transform="translate(334,-272)"
     id="layer8" />
  <g
     transform="translate(334,-1224.3622)"
     id="layer1" />
  <g
     transform="translate(334,-272)"
     id="layer11" />
  <g
     transform="translate(334,-272)"
     id="layer4" />
  <g
     transform="translate(334,-272)"
     id="layer9" />
  <g
     transform="translate(334,-272)"
     id="layer10" />
  <g
     transform="translate(334,-272)"
     id="layer6">
    <rect
       width="24"
       height="24"
       x="-334"
       y="272"
       id="rect6363"
       style="opacity:0;fill:#ffffff;fill-opacity:1;stroke:none;display:inline" />
    <path
       d="M -321.96875,274 C -327.49506,274 -332,278.50494 -332,284.03125 C -332,289.55756 -327.49506,294.0625 -321.96875,294.0625 C -316.44244,294.0625 -311.9375,289.55756 -311.9375,284.03125 C -311.9375,278.50494 -316.44244,274 -321.96875,274 z M -321.96875,276 C -317.52456,276 -313.9375,279.58706 -313.9375,284.03125 C -313.9375,288.47544 -317.52456,292.0625 -321.96875,292.0625 C -326.41294,292.0625 -330,288.47544 -330,284.03125 C -330,279.58706 -326.41294,276 -321.96875,276 z"
       id="path6371"
       style="fill:#bebebe;fill-opacity:1;fill-rule:nonzero;stroke:none;stroke-width:2;stroke-linecap:round;stroke-linejoin:round;marker:none;stroke-miterlimit:4;stroke-dasharray:none;stroke-dashoffset:0;stroke-opacity:1;visibility:visible;display:inline;overflow:visible;enable-background:accumulate" />
    <path
       d="M -316.125,277 C -316.34894,277.02421 -316.55815,277.12331 -316.71875,277.28125 L -328.71875,289.28125 C -329.1157,289.6782 -329.1157,290.3218 -328.71875,290.71875 C -328.3218,291.1157 -327.6782,291.1157 -327.28125,290.71875 L -315.28125,278.71875 C -314.95859,278.41827 -314.87077,277.94193 -315.06507,277.54615 C -315.25936,277.15036 -315.68993,276.9285 -316.125,277 z"
       id="path6373"
       style="fill:#bebebe;fill-opacity:1;fill-rule:nonzero;stroke:none;stroke-width:2;stroke-linecap:round;stroke-linejoin:round;marker:none;stroke-miterlimit:4;stroke-dasharray:none;stroke-dashoffset:0;stroke-opacity:1;visibility:visible;display:inline;overflow:visible;enable-background:accumulate" />
  </g>
</svg>
