<?xml version="1.0" encoding="UTF-8" standalone="no"?>
<!-- Created with Inkscape (http://www.inkscape.org/) -->
<svg
   xmlns:svg="http://www.w3.org/2000/svg"
   xmlns="http://www.w3.org/2000/svg"
   version="1.0"
   width="24"
   height="24"
   id="svg7384">
  <title
     id="title9167">Moblin Icon Theme</title>
  <defs
     id="defs7386" />
  <g
     transform="translate(334,-272)"
     id="layer3" />
  <g
     transform="translate(334,-272)"
     id="layer5" />
  <g
     transform="translate(334,-272)"
     id="layer7" />
  <g
     transform="translate(334,-272)"
     id="layer2" />
  <g
     transform="translate(334,-272)"
     id="layer8" />
  <g
     transform="translate(334,-1224.3622)"
     id="layer1" />
  <g
     transform="translate(334,-272)"
     id="layer11" />
  <g
     transform="translate(334,-272)"
     id="layer4" />
  <g
     transform="translate(334,-272)"
     id="layer12" />
  <g
     transform="translate(334,-272)"
     id="layer9" />
  <g
     transform="translate(334,-272)"
     id="layer10" />
  <g
     transform="translate(334,-272)"
     id="layer6">
    <rect
       width="24"
       height="24"
       x="-334"
       y="272"
       id="rect6363"
       style="opacity:0;fill:#ffffff;fill-opacity:1;stroke:none;display:inline" />
    <path
       d="M -321.96876,273.99449 C -327.4896,273.99449 -332.00552,278.51041 -332.00552,284.03126 C -332.00552,289.5521 -327.4896,294.06802 -321.96876,294.06802 C -316.44791,294.06802 -311.93199,289.5521 -311.93199,284.03126 C -311.93199,278.51041 -316.44791,273.99449 -321.96876,273.99449 z M -321.96876,277.00552 C -318.0711,277.00552 -314.94302,280.1336 -314.94302,284.03126 C -314.94302,287.92891 -318.0711,291.05699 -321.96876,291.05699 C -325.86641,291.05699 -328.99449,287.92891 -328.99449,284.03126 C -328.99449,280.1336 -325.86641,277.00552 -321.96876,277.00552 z"
       id="path6371"
       style="fill:#bebebe;fill-opacity:1;fill-rule:nonzero;stroke:none;stroke-width:3.17582417;stroke-linecap:round;stroke-linejoin:round;marker:none;stroke-miterlimit:4;stroke-dasharray:none;stroke-dashoffset:0;stroke-opacity:1;visibility:visible;display:inline;overflow:visible;enable-background:accumulate" />
    <path
       d="M -316.1875,276.5 C -316.51986,276.54396 -316.82791,276.69799 -317.0625,276.9375 L -329.0625,288.9375 C -329.6493,289.5243 -329.6493,290.4757 -329.0625,291.0625 C -328.4757,291.6493 -327.5243,291.6493 -326.9375,291.0625 L -314.9375,279.0625 C -314.47215,278.61081 -314.34974,277.91122 -314.63407,277.32836 C -314.91839,276.74549 -315.54507,276.41131 -316.1875,276.5 z"
       id="path6373"
       style="fill:#bebebe;fill-opacity:1;fill-rule:nonzero;stroke:none;stroke-width:3;stroke-linecap:round;stroke-linejoin:round;marker:none;stroke-miterlimit:4;stroke-dasharray:none;stroke-dashoffset:0;stroke-opacity:1;visibility:visible;display:inline;overflow:visible;enable-background:accumulate" />
  </g>
</svg>
