<?xml version="1.0" encoding="UTF-8" standalone="no"?>
<!-- Created with Inkscape (http://www.inkscape.org/) -->
<svg
   xmlns:svg="http://www.w3.org/2000/svg"
   xmlns="http://www.w3.org/2000/svg"
   version="1.0"
   width="24"
   height="24"
   id="svg7384">
  <defs
     id="defs7386" />
  <g
     transform="translate(-1129,-200.95862)"
     id="layer3" />
  <g
     transform="translate(-1129,-200.95862)"
     id="layer5" />
  <g
     transform="translate(-1129,-200.95862)"
     id="layer7" />
  <g
     transform="translate(-1129,-200.95862)"
     id="layer2" />
  <g
     transform="translate(-1129,-200.95862)"
     id="layer8" />
  <g
     transform="translate(-1129,-1153.3208)"
     id="layer1" />
  <g
     transform="translate(-1129,-200.95862)"
     id="layer4" />
  <g
     transform="translate(-1129,-200.95862)"
     id="layer9" />
  <g
     transform="translate(-1129,-200.95862)"
     id="layer6">
    <rect
       width="24"
       height="24"
       x="-1153"
       y="200.95862"
       transform="scale(-1,1)"
       id="rect8525"
       style="opacity:0;fill:#ffffff;fill-opacity:1;stroke:none;display:inline" />
    <rect
       width="2"
       height="10"
       rx="1"
       ry="1"
       x="1130"
       y="201.90442"
       id="rect2843-2"
       style="fill:#bebebe;fill-opacity:1;stroke:none;display:inline" />
    <rect
       width="2"
       height="9.9044342"
       rx="1"
       ry="1"
       x="1138"
       y="202"
       id="rect2833"
       style="fill:#bebebe;fill-opacity:1;stroke:none;display:inline" />
    <rect
       width="2"
       height="10"
       rx="1"
       ry="1"
       x="-203.90442"
       y="1130"
       transform="matrix(0,-1,1,0,0,0)"
       id="rect2835"
       style="fill:#bebebe;fill-opacity:1;stroke:none;display:inline" />
    <rect
       width="2"
       height="10"
       rx="1"
       ry="1"
       x="-211.90442"
       y="1130"
       transform="matrix(0,-1,1,0,0,0)"
       id="rect2837"
       style="fill:#bebebe;fill-opacity:1;stroke:none;display:inline" />
    <rect
       width="2"
       height="10"
       rx="1"
       ry="1"
       x="1141"
       y="201.90442"
       id="rect2843-8"
       style="fill:#bebebe;fill-opacity:1;stroke:none;display:inline" />
    <rect
       width="2"
       height="9.9044342"
       rx="1"
       ry="1"
       x="1149"
       y="202"
       id="rect2833-1"
       style="fill:#bebebe;fill-opacity:1;stroke:none;display:inline" />
    <rect
       width="2"
       height="10"
       rx="1"
       ry="1"
       x="-203.90442"
       y="1141"
       transform="matrix(0,-1,1,0,0,0)"
       id="rect2835-0"
       style="fill:#bebebe;fill-opacity:1;stroke:none;display:inline" />
    <rect
       width="2"
       height="10"
       rx="1"
       ry="1"
       x="-211.90442"
       y="1141"
       transform="matrix(0,-1,1,0,0,0)"
       id="rect2837-2"
       style="fill:#bebebe;fill-opacity:1;stroke:none;display:inline" />
    <rect
       width="2"
       height="10"
       rx="1"
       ry="1"
       x="1130"
       y="212.90442"
       id="rect2843-85"
       style="fill:#bebebe;fill-opacity:1;stroke:none;display:inline" />
    <rect
       width="2"
       height="9.9044342"
       rx="1"
       ry="1"
       x="1138"
       y="213"
       id="rect2833-9"
       style="fill:#bebebe;fill-opacity:1;stroke:none;display:inline" />
    <rect
       width="2"
       height="10"
       rx="1"
       ry="1"
       x="-214.90442"
       y="1130"
       transform="matrix(0,-1,1,0,0,0)"
       id="rect2835-3"
       style="fill:#bebebe;fill-opacity:1;stroke:none;display:inline" />
    <rect
       width="2"
       height="10"
       rx="1"
       ry="1"
       x="-222.90442"
       y="1130"
       transform="matrix(0,-1,1,0,0,0)"
       id="rect2837-5"
       style="fill:#bebebe;fill-opacity:1;stroke:none;display:inline" />
    <rect
       width="2"
       height="10"
       rx="1"
       ry="1"
       x="1141"
       y="212.90442"
       id="rect2843-8-9"
       style="fill:#bebebe;fill-opacity:1;stroke:none;display:inline" />
    <rect
       width="2"
       height="9.9044342"
       rx="1"
       ry="1"
       x="1149"
       y="213"
       id="rect2833-1-5"
       style="fill:#bebebe;fill-opacity:1;stroke:none;display:inline" />
    <rect
       width="2"
       height="10"
       rx="1"
       ry="1"
       x="-214.90442"
       y="1141"
       transform="matrix(0,-1,1,0,0,0)"
       id="rect2835-0-4"
       style="fill:#bebebe;fill-opacity:1;stroke:none;display:inline" />
    <rect
       width="2"
       height="10"
       rx="1"
       ry="1"
       x="-222.90442"
       y="1141"
       transform="matrix(0,-1,1,0,0,0)"
       id="rect2837-2-1"
       style="fill:#bebebe;fill-opacity:1;stroke:none;display:inline" />
  </g>
</svg>
