<?xml version="1.0" encoding="UTF-8" standalone="no"?>
<!-- Created with Inkscape (http://www.inkscape.org/) -->
<svg
   xmlns:svg="http://www.w3.org/2000/svg"
   xmlns="http://www.w3.org/2000/svg"
   version="1.0"
   width="24.000023"
   height="24"
   id="svg7384">
  <title
     id="title9167">Moblin Icon Theme</title>
  <defs
     id="defs7386" />
  <g
     transform="translate(332.00002,-338)"
     id="layer3" />
  <g
     transform="translate(332.00002,-338)"
     id="layer5" />
  <g
     transform="translate(332.00002,-338)"
     id="layer7" />
  <g
     transform="translate(332.00002,-338)"
     id="layer2" />
  <g
     transform="translate(332.00002,-338)"
     id="layer8" />
  <g
     transform="translate(332.00002,-1290.3622)"
     id="layer1" />
  <g
     transform="translate(332.00002,-338)"
     id="layer4" />
  <g
     transform="translate(332.00002,-338)"
     id="layer9" />
  <g
     transform="translate(332.00002,-338)"
     id="layer6">
    <g
       transform="translate(286.935,30.94574)"
       id="g6446">
      <g
         id="g6440">
        <rect
           width="24"
           height="24"
           x="-618.935"
           y="307.05426"
           id="rect6407"
           style="opacity:0;fill:#ffffff;fill-opacity:1;stroke:none;display:inline" />
        <path
           d="M -599.935,309.05426 C -602.68177,309.05426 -604.90375,311.27624 -604.90375,314.02301 C -604.90375,316.76978 -602.68177,318.99176 -599.935,318.99176 C -597.18823,318.99176 -594.96625,316.76978 -594.96625,314.02301 C -594.96625,311.27624 -597.18823,309.05426 -599.935,309.05426 z M -599.935,310.08551 C -599.21309,310.09351 -599.23324,311.68617 -598.65375,312.11676 C -598.07426,312.54735 -596.52573,312.08406 -596.31,312.77301 C -596.09427,313.46198 -597.64206,313.93257 -597.8725,314.61676 C -598.10294,315.30095 -597.15892,316.60494 -597.7475,317.02301 C -598.33608,317.44108 -599.27559,316.12449 -599.9975,316.11676 C -600.71941,316.10876 -601.66801,317.3911 -602.2475,316.96051 C -602.82699,316.52992 -601.87552,315.27448 -602.09125,314.58551 C -602.30698,313.89654 -603.82169,313.36345 -603.59125,312.67926 C -603.36081,311.99507 -601.83608,312.50358 -601.2475,312.08551 C -600.65892,311.66744 -600.65691,310.07778 -599.935,310.08551 z"
           id="path6412"
           style="fill:#bebebe;fill-opacity:1;stroke:none;stroke-width:2;marker:none;visibility:visible;display:inline;overflow:visible;enable-background:accumulate" />
        <path
           d="M -597.8873,322.02653 L -597.8873,326.00587 C -597.8873,328.08299 -599.16373,330.02653 -601.50602,330.02653 L -617.93502,330.02653 L -617.93502,312.05426 L -612.0123,312.05426 C -609.99657,312.05426 -608.9498,313.49715 -608.9498,315.05426 L -608.9169,316.02653 L -606.9975,316.02653 M -613.94796,320.02653 L -604.8725,320.02653"
           id="path4631-0"
           style="fill:none;stroke:#bebebe;stroke-width:2;stroke-linecap:round;stroke-linejoin:round;stroke-miterlimit:4;stroke-dasharray:none;stroke-opacity:1" />
        <path
           d="M -614.43853,320.08569 L -614.43834,326.02653 C -614.43853,328.19205 -615.98506,329.09946 -616.91314,329.09946"
           id="path5427-7"
           style="fill:none;stroke:#bebebe;stroke-width:1px;stroke-linecap:butt;stroke-linejoin:miter;stroke-opacity:1" />
      </g>
    </g>
  </g>
</svg>
