<?xml version="1.0" encoding="UTF-8" standalone="no"?>
<!-- Created with Inkscape (http://www.inkscape.org/) -->
<svg
   xmlns:svg="http://www.w3.org/2000/svg"
   xmlns="http://www.w3.org/2000/svg"
   version="1.0"
   width="24"
   height="24"
   id="svg7384">
  <title
     id="title9167">Moblin Icon Theme</title>
  <defs
     id="defs7386" />
  <g
     transform="translate(620,-338)"
     id="layer3" />
  <g
     transform="translate(620,-338)"
     id="layer5" />
  <g
     transform="translate(620,-338)"
     id="layer7" />
  <g
     transform="translate(620,-338)"
     id="layer2" />
  <g
     transform="translate(620,-338)"
     id="layer8" />
  <g
     transform="translate(620,-1290.3622)"
     id="layer1" />
  <g
     transform="translate(620,-338)"
     id="layer11" />
  <g
     transform="translate(620,-338)"
     id="layer4" />
  <g
     transform="translate(620,-338)"
     id="layer9" />
  <g
     transform="translate(620,-338)"
     id="layer10" />
  <g
     transform="translate(620,-338)"
     id="layer6">
    <rect
       width="24"
       height="24"
       x="-620"
       y="338"
       id="rect9418"
       style="opacity:0;fill:#ffffff;fill-opacity:1;stroke:none;display:inline" />
    <g
       transform="translate(-620.95264,337.03269)"
       id="layer1-576"
       style="fill:#bebebe;fill-opacity:1;display:inline">
      <path
         d="M 12.28125,1.375 L 12.28125,1.40625 C 11.670692,1.468876 11.086843,1.7603207 10.75,2.34375 C 10.73935,2.35393 10.72893,2.36435 10.71875,2.375 L 2.3125,18 L 2.3125,18.03125 C 1.8031528,18.948174 2.0554148,20.173394 3,20.71875 C 3.9475308,21.265807 5.1769817,20.93837 5.71875,20 C 5.7293999,19.98982 5.7398201,19.9794 5.75,19.96875 L 7.9820461,16.155065 L 17.015244,16.144414 L 19.25,19.96875 C 19.26018,19.9794 19.2706,19.98982 19.28125,20 C 19.823018,20.93837 21.052469,21.265807 22,20.71875 C 22.928936,20.182428 23.242637,18.974655 22.71875,18.03125 L 22.71875,18 L 14.28125,2.375 C 14.27107,2.3643501 14.26065,2.3539299 14.25,2.34375 C 13.851486,1.6535032 13.103861,1.304262 12.34375,1.375 C 12.32264,1.37696 12.30238,1.37235 12.28125,1.375 L 12.28125,1.375 L 12.28125,1.375 z M 12.5,7.46875 L 15.010319,12.191863 L 10.008844,12.197463 L 12.5,7.46875 z"
         transform="matrix(1,0,0,1.0177776,-2.71003e-3,0.576962)"
         id="path2835-6"
         style="fill:#bebebe;fill-opacity:1;stroke:none;display:inline" />
    </g>
  </g>
</svg>
