<?xml version="1.0" encoding="UTF-8" standalone="no"?>
<!-- Created with Inkscape (http://www.inkscape.org/) -->
<svg
   xmlns:svg="http://www.w3.org/2000/svg"
   xmlns="http://www.w3.org/2000/svg"
   version="1.0"
   width="24"
   height="24"
   id="svg7384">
  <title
     id="title9167">Moblin Icon Theme</title>
  <defs
     id="defs7386" />
  <g
     transform="translate(556,-338)"
     id="layer3" />
  <g
     transform="translate(556,-338)"
     id="layer5" />
  <g
     transform="translate(556,-338)"
     id="layer7" />
  <g
     transform="translate(556,-338)"
     id="layer2" />
  <g
     transform="translate(556,-338)"
     id="layer8" />
  <g
     transform="translate(556,-1290.3622)"
     id="layer1" />
  <g
     transform="translate(556,-338)"
     id="layer11" />
  <g
     transform="translate(556,-338)"
     id="layer4" />
  <g
     transform="translate(556,-338)"
     id="layer9" />
  <g
     transform="translate(556,-338)"
     id="layer10" />
  <g
     transform="translate(556,-338)"
     id="layer6">
    <rect
       width="24"
       height="24"
       x="532"
       y="338"
       transform="scale(-1,1)"
       id="rect9416"
       style="opacity:0;fill:#ffffff;fill-opacity:1;stroke:none;display:inline" />
    <rect
       width="2"
       height="13"
       rx="1.0000002"
       ry="1.0000002"
       x="-352"
       y="-551.06262"
       transform="matrix(0,-1,1,0,0,0)"
       id="rect2798-582"
       style="fill:#bebebe;fill-opacity:1;stroke:none;display:inline" />
    <path
       d="M -553.56502,357.86603 C -554.0448,357.58903 -554.20805,356.97978 -553.93105,356.50001 L -545.42969,340.50083 C -545.15269,340.02105 -544.54344,339.85781 -544.06367,340.13481 C -543.58389,340.41181 -543.42064,341.02105 -543.69764,341.50083 L -552.199,357.50001 C -552.476,357.97978 -553.08524,358.14303 -553.56502,357.86603 z"
       id="rect3253-4"
       style="fill:#bebebe;fill-opacity:1;stroke:none;display:inline" />
    <path
       d="M -535.57417,357.86874 C -535.09439,357.59174 -534.93114,356.98249 -535.20814,356.50272 L -543.62549,340.50083 C -543.90249,340.02105 -544.51173,339.85781 -544.99151,340.13481 C -545.47129,340.41181 -545.63454,341.02105 -545.35754,341.50083 L -536.94019,357.50272 C -536.66319,357.98249 -536.05394,358.14574 -535.57417,357.86874 L -535.57417,357.86874 z"
       id="path3265-1"
       style="fill:#bebebe;fill-opacity:1;stroke:none;display:inline" />
    <rect
       width="2.0000005"
       height="21.079031"
       rx="1.0000002"
       ry="1.0000002"
       x="-362"
       y="-555.06262"
       transform="matrix(0,-1,1,0,0,0)"
       id="rect3288"
       style="fill:#bebebe;fill-opacity:1;stroke:none;display:inline" />
  </g>
</svg>
