<?xml version="1.0" encoding="UTF-8" standalone="no"?>
<!-- Created with Inkscape (http://www.inkscape.org/) -->
<svg
   xmlns:svg="http://www.w3.org/2000/svg"
   xmlns="http://www.w3.org/2000/svg"
   version="1.0"
   width="24"
   height="24"
   id="svg7384">
  <title
     id="title9167">Moblin Icon Theme</title>
  <defs
     id="defs7386" />
  <g
     transform="translate(590,-368)"
     id="layer3" />
  <g
     transform="translate(590,-368)"
     id="layer5" />
  <g
     transform="translate(590,-368)"
     id="layer7" />
  <g
     transform="translate(590,-368)"
     id="layer2" />
  <g
     transform="translate(590,-368)"
     id="layer8" />
  <g
     transform="translate(590,-1320.3622)"
     id="layer1" />
  <g
     transform="translate(590,-368)"
     id="layer11" />
  <g
     transform="translate(590,-368)"
     id="layer4" />
  <g
     transform="translate(590,-368)"
     id="layer9" />
  <g
     transform="translate(590,-368)"
     id="layer10" />
  <g
     transform="translate(590,-368)"
     id="layer6">
    <rect
       width="24"
       height="24"
       x="566"
       y="368"
       transform="scale(-1,1)"
       id="rect6196"
       style="opacity:0;fill:#ffffff;fill-opacity:1;stroke:none;display:inline" />
    <path
       d="M -587.56502,387.86603 C -588.0448,387.58903 -588.20805,386.97978 -587.93105,386.50001 L -579.42969,370.50083 C -579.15269,370.02105 -578.54344,369.85781 -578.06367,370.13481 C -577.58389,370.41181 -577.42064,371.02105 -577.69764,371.50083 L -586.199,387.50001 C -586.476,387.97978 -587.08524,388.14303 -587.56502,387.86603 z"
       id="path6200"
       style="fill:#bebebe;fill-opacity:1;stroke:none;display:inline" />
    <path
       d="M -569.57417,387.86874 C -569.09439,387.59174 -568.93114,386.98249 -569.20814,386.50272 L -577.62549,370.50083 C -577.90249,370.02105 -578.51173,369.85781 -578.99151,370.13481 C -579.47129,370.41181 -579.63454,371.02105 -579.35754,371.50083 L -570.94019,387.50272 C -570.66319,387.98249 -570.05394,388.14574 -569.57417,387.86874 L -569.57417,387.86874 z"
       id="path6202"
       style="fill:#bebebe;fill-opacity:1;stroke:none;display:inline" />
    <rect
       width="2.0000005"
       height="21.079031"
       rx="1.0000002"
       ry="1.0000002"
       x="-382"
       y="-589.06262"
       transform="matrix(0,-1,1,0,0,0)"
       id="rect6204"
       style="fill:#bebebe;fill-opacity:1;stroke:none;display:inline" />
  </g>
</svg>
