<?xml version="1.0" encoding="UTF-8" standalone="no"?>
<!-- Created with Inkscape (http://www.inkscape.org/) -->
<svg
   xmlns:svg="http://www.w3.org/2000/svg"
   xmlns="http://www.w3.org/2000/svg"
   version="1.0"
   width="24"
   height="24"
   id="svg7384">
  <defs
     id="defs7386" />
  <g
     transform="translate(426.91858,-339)"
     id="layer3" />
  <g
     transform="translate(426.91858,-339)"
     id="layer5" />
  <g
     transform="translate(426.91858,-339)"
     id="layer7" />
  <g
     transform="translate(426.91858,-339)"
     id="layer2" />
  <g
     transform="translate(426.91858,-339)"
     id="layer8" />
  <g
     transform="translate(426.91858,-1291.3622)"
     id="layer1" />
  <g
     transform="translate(426.91858,-339)"
     id="layer4" />
  <g
     transform="translate(426.91858,-339)"
     id="layer9" />
  <g
     transform="translate(426.91858,-339)"
     id="layer6">
    <rect
       width="24"
       height="24"
       x="402.91858"
       y="339"
       transform="scale(-1,1)"
       id="rect7346"
       style="opacity:0;fill:#ffffff;fill-opacity:1;stroke:none;display:inline" />
    <rect
       width="2.0025511"
       height="14.999987"
       rx="1.0012755"
       ry="1.0012755"
       x="-346.00256"
       y="406.91858"
       transform="matrix(0,-1,-1,0,0,0)"
       id="rect7350"
       style="fill:#bebebe;fill-opacity:1;stroke:none;display:inline" />
    <rect
       width="2"
       height="15"
       rx="1"
       ry="1"
       x="-350.00256"
       y="406.91858"
       transform="matrix(0,-1,-1,0,0,0)"
       id="rect7352"
       style="fill:#bebebe;fill-opacity:1;stroke:none;display:inline" />
    <rect
       width="2.0000005"
       height="15"
       rx="1.0000002"
       ry="1.0000002"
       x="-354.00256"
       y="406.91858"
       transform="matrix(0,-1,-1,0,0,0)"
       id="rect7354"
       style="fill:#bebebe;fill-opacity:1;stroke:none;display:inline" />
    <rect
       width="2.000001"
       height="15"
       rx="1.0000005"
       ry="1.0000005"
       x="-358.00256"
       y="406.91858"
       transform="matrix(0,-1,-1,0,0,0)"
       id="rect7356"
       style="fill:#bebebe;fill-opacity:1;stroke:none;display:inline" />
  </g>
</svg>
