<?xml version="1.0" encoding="UTF-8" standalone="no"?>
<!-- Created with Inkscape (http://www.inkscape.org/) -->
<svg
   xmlns:svg="http://www.w3.org/2000/svg"
   xmlns="http://www.w3.org/2000/svg"
   version="1.0"
   width="24"
   height="24"
   id="svg7384">
  <title
     id="title9167">Moblin Icon Theme</title>
  <defs
     id="defs7386" />
  <g
     transform="translate(490.91858,-338)"
     id="layer3" />
  <g
     transform="translate(490.91858,-338)"
     id="layer5" />
  <g
     transform="translate(490.91858,-338)"
     id="layer7" />
  <g
     transform="translate(490.91858,-338)"
     id="layer2" />
  <g
     transform="translate(490.91858,-338)"
     id="layer8" />
  <g
     transform="translate(490.91858,-1290.3622)"
     id="layer1" />
  <g
     transform="translate(490.91858,-338)"
     id="layer4" />
  <g
     transform="translate(490.91858,-338)"
     id="layer9" />
  <g
     transform="translate(490.91858,-338)"
     id="layer6">
    <rect
       width="24"
       height="24"
       x="466.91858"
       y="338"
       transform="scale(-1,1)"
       id="rect7344"
       style="opacity:0;fill:#ffffff;fill-opacity:1;stroke:none;display:inline" />
    <g
       transform="translate(-490.91858,337.99996)"
       id="layer1-25"
       style="fill:#bebebe;fill-opacity:1;display:inline">
      <rect
         width="2.0025511"
         height="14.960009"
         rx="1.0012755"
         ry="1.0012755"
         x="-7.0025511"
         y="-19.960009"
         transform="matrix(0,-1,-1,0,0,0)"
         id="rect2789-39"
         style="fill:#bebebe;fill-opacity:1;stroke:none;display:inline" />
      <rect
         width="2"
         height="12"
         rx="1"
         ry="1"
         x="-11.002551"
         y="-20"
         transform="matrix(0,-1,-1,0,0,0)"
         id="rect2796-29"
         style="fill:#bebebe;fill-opacity:1;stroke:none;display:inline" />
      <rect
         width="2.0000005"
         height="15"
         rx="1.0000002"
         ry="1.0000002"
         x="-15.002551"
         y="-20"
         transform="matrix(0,-1,-1,0,0,0)"
         id="rect2798-7"
         style="fill:#bebebe;fill-opacity:1;stroke:none;display:inline" />
      <rect
         width="2.000001"
         height="12"
         rx="1.0000005"
         ry="1.0000005"
         x="-19.002552"
         y="-20"
         transform="matrix(0,-1,-1,0,0,0)"
         id="rect2812-96"
         style="fill:#bebebe;fill-opacity:1;stroke:none;display:inline" />
    </g>
  </g>
</svg>
