<?xml version="1.0" encoding="UTF-8" standalone="no"?>
<!-- Created with Inkscape (http://www.inkscape.org/) -->
<svg
   xmlns:svg="http://www.w3.org/2000/svg"
   xmlns="http://www.w3.org/2000/svg"
   version="1.0"
   width="24"
   height="24"
   id="svg7384">
  <title
     id="title9167">Moblin Icon Theme</title>
  <defs
     id="defs7386" />
  <g
     transform="translate(432,-468)"
     id="layer3" />
  <g
     transform="translate(432,-468)"
     id="layer5" />
  <g
     transform="translate(432,-468)"
     id="layer7" />
  <g
     transform="translate(432,-468)"
     id="layer2" />
  <g
     transform="translate(432,-468)"
     id="layer8" />
  <g
     transform="translate(432,-1420.3622)"
     id="layer1" />
  <g
     transform="translate(432,-468)"
     id="layer11" />
  <g
     transform="translate(432,-468)"
     id="layer4" />
  <g
     transform="translate(432,-468)"
     id="layer9" />
  <g
     transform="translate(432,-468)"
     id="layer10" />
  <g
     transform="translate(432,-468)"
     id="layer6">
    <rect
       width="24"
       height="24"
       x="-432"
       y="468"
       id="rect6160"
       style="opacity:0;fill:#3e42ac;fill-opacity:0.9995338;stroke:none;display:inline" />
    <path
       d="M -422.90625,473.6875 L -423.59375,474.375 L -431.625,482.25 L -431.9375,482.5625 L -431.9375,482.96875 L -431.9375,485 L -431.9375,486 L -430.9375,486 L -428.9375,486 L -428.53125,486 L -428.21875,485.6875 L -420.28125,477.65625 L -419.59375,476.96875 L -420.3125,476.25 L -422.21875,474.375 L -422.90625,473.6875 z M -422.90625,476.5 L -422.40625,476.96875 L -429.34375,484 L -429.9375,484 L -429.9375,483.375 L -422.90625,476.5 z"
       id="path6515-2"
       style="fill:#bebebe;fill-opacity:1;stroke:none;stroke-width:1.99999952;stroke-linecap:butt;stroke-linejoin:miter;marker:none;stroke-miterlimit:4;stroke-dasharray:none;stroke-dashoffset:0;stroke-opacity:1;visibility:visible;display:inline;overflow:visible;enable-background:accumulate" />
    <path
       d="M -414,473.59375 L -414,476 L -414,478 L -417,478 L -417.40625,478 L -417.71875,478.28125 L -419.71875,480.28125 L -421.40625,482 L -419,482 L -414,482 L -414,484 L -414,486.40625 L -412.28125,484.71875 L -408.28125,480.71875 L -407.59375,480 L -408.28125,479.28125 L -412.28125,475.28125 L -414,473.59375 z M -412,478.4375 L -410.4375,480 L -412,481.5625 L -412,481 L -412,480 L -412,479 L -412,478.4375 z"
       id="path6175"
       style="fill:#f57900;fill-opacity:1;stroke:none;stroke-width:2;stroke-linecap:round;stroke-linejoin:miter;marker:none;stroke-miterlimit:4;stroke-dasharray:none;stroke-dashoffset:0;stroke-opacity:1;visibility:visible;display:inline;overflow:visible;enable-background:accumulate" />
    <path
       d="M -413,477 L -413,483 L -409,480 L -413,477 z"
       id="path6177"
       style="fill:#f57900;fill-opacity:1;stroke:none;stroke-width:2;marker:none;visibility:visible;display:inline;overflow:visible;enable-background:accumulate" />
  </g>
</svg>
