<?xml version="1.0" encoding="UTF-8" standalone="no"?>
<!-- Created with Inkscape (http://www.inkscape.org/) -->
<svg
   xmlns:svg="http://www.w3.org/2000/svg"
   xmlns="http://www.w3.org/2000/svg"
   version="1.0"
   width="24"
   height="24"
   id="svg7384">
  <title
     id="title9167">Moblin Icon Theme</title>
  <defs
     id="defs7386" />
  <g
     transform="translate(362.91858,-338)"
     id="layer3" />
  <g
     transform="translate(362.91858,-338)"
     id="layer5" />
  <g
     transform="translate(362.91858,-338)"
     id="layer7" />
  <g
     transform="translate(362.91858,-338)"
     id="layer2" />
  <g
     transform="translate(362.91858,-338)"
     id="layer8" />
  <g
     transform="translate(362.91858,-1290.3622)"
     id="layer1" />
  <g
     transform="translate(362.91858,-338)"
     id="layer4" />
  <g
     transform="translate(362.91858,-338)"
     id="layer9" />
  <g
     transform="translate(362.91858,-338)"
     id="layer6">
    <rect
       width="24"
       height="24"
       x="338.91858"
       y="338"
       transform="scale(-1,1)"
       id="rect7369"
       style="opacity:0;fill:#ffffff;fill-opacity:1;stroke:none;display:inline" />
    <g
       transform="translate(-364.91858,337.99996)"
       id="layer1-55"
       style="fill:#bebebe;fill-opacity:1;display:inline">
      <rect
         width="2.0025511"
         height="11.960009"
         rx="1.0012755"
         ry="1.0012755"
         x="-7.0025511"
         y="5.0399914"
         transform="matrix(0,-1,1,0,0,0)"
         id="rect2789-46"
         style="fill:#bebebe;fill-opacity:1;stroke:none;display:inline" />
      <rect
         width="2"
         height="12"
         rx="1"
         ry="1"
         x="-11"
         y="5"
         transform="matrix(0,-1,1,0,0,0)"
         id="rect2796-47"
         style="fill:#bebebe;fill-opacity:1;stroke:none;display:inline" />
      <rect
         width="2.0000005"
         height="15"
         rx="1.0000002"
         ry="1.0000002"
         x="-15.002551"
         y="5"
         transform="matrix(0,-1,1,0,0,0)"
         id="rect2798-3"
         style="fill:#bebebe;fill-opacity:1;stroke:none;display:inline" />
      <rect
         width="2.000001"
         height="15"
         rx="1.0000005"
         ry="1.0000005"
         x="-19"
         y="5"
         transform="matrix(0,-1,1,0,0,0)"
         id="rect2812-0"
         style="fill:#bebebe;fill-opacity:1;stroke:none;display:inline" />
    </g>
    <rect
       width="2"
       height="5.533967"
       rx="1"
       ry="1"
       x="-347"
       y="340.91858"
       transform="matrix(0,-1,-1,0,0,0)"
       id="rect7405"
       style="fill:#febf00;fill-opacity:1;stroke:none;display:inline" />
    <path
       d="M -343.21366,343.29438 C -343.6054,342.90264 -344.23614,342.90264 -344.62788,343.29438 L -346.62477,345.29194 C -347.01651,345.68368 -347.01651,346.31442 -346.62477,346.70615 C -346.23303,347.09789 -345.60229,347.09789 -345.21056,346.70615 L -343.21366,344.70859 C -342.82192,344.31685 -342.82192,343.68611 -343.21366,343.29438 z"
       id="path7407"
       style="fill:#febf00;fill-opacity:1;stroke:none;display:inline" />
    <path
       d="M -343.21366,348.70553 C -343.6054,349.09727 -344.23614,349.09727 -344.62788,348.70553 L -346.62477,346.70797 C -347.01651,346.31623 -347.01651,345.68549 -346.62477,345.29376 C -346.23303,344.90202 -345.60229,344.90202 -345.21056,345.29376 L -343.21366,347.29132 C -342.82192,347.68306 -342.82192,348.3138 -343.21366,348.70553 z"
       id="path7409"
       style="fill:#febf00;fill-opacity:1;stroke:none;display:inline" />
  </g>
</svg>
