<?xml version="1.0" encoding="UTF-8" standalone="no"?>
<!-- Created with Inkscape (http://www.inkscape.org/) -->
<svg
   xmlns:svg="http://www.w3.org/2000/svg"
   xmlns="http://www.w3.org/2000/svg"
   version="1.0"
   width="24"
   height="24"
   id="svg7384">
  <title
     id="title9167">Moblin Icon Theme</title>
  <defs
     id="defs7386" />
  <g
     transform="translate(400,-468)"
     id="layer3" />
  <g
     transform="translate(400,-468)"
     id="layer5" />
  <g
     transform="translate(400,-468)"
     id="layer7" />
  <g
     transform="translate(400,-468)"
     id="layer2" />
  <g
     transform="translate(400,-468)"
     id="layer8" />
  <g
     transform="translate(400,-1420.3622)"
     id="layer1" />
  <g
     transform="translate(400,-468)"
     id="layer11" />
  <g
     transform="translate(400,-468)"
     id="layer4" />
  <g
     transform="translate(400,-468)"
     id="layer9" />
  <g
     transform="translate(400,-468)"
     id="layer10" />
  <g
     transform="translate(400,-468)"
     id="layer6">
    <rect
       width="24"
       height="24"
       x="-400"
       y="468"
       id="rect6186"
       style="opacity:0;fill:#3e42ac;fill-opacity:0.9995338;stroke:none;display:inline" />
    <path
       d="M -378.90625,473.6875 L -379.59375,474.375 L -387.625,482.25 L -387.9375,482.5625 L -387.9375,482.96875 L -387.9375,485 L -387.9375,486 L -386.9375,486 L -384.9375,486 L -384.53125,486 L -384.21875,485.6875 L -376.28125,477.65625 L -375.59375,476.96875 L -376.3125,476.25 L -378.21875,474.375 L -378.90625,473.6875 z M -378.90625,476.5 L -378.40625,476.96875 L -385.34375,484 L -385.9375,484 L -385.9375,483.375 L -378.90625,476.5 z"
       id="path6188"
       style="fill:#bebebe;fill-opacity:1;stroke:none;stroke-width:1.99999952;stroke-linecap:butt;stroke-linejoin:miter;marker:none;stroke-miterlimit:4;stroke-dasharray:none;stroke-dashoffset:0;stroke-opacity:1;visibility:visible;display:inline;overflow:visible;enable-background:accumulate" />
    <path
       d="M -394,472.59375 L -394,475 L -394,477 L -398.96875,477 L -399.96875,477 L -399.96875,477.96875 L -400,479.96875 L -400.03125,481 L -399,481 L -394,481 L -394,483 L -394,485.40625 L -392.28125,483.71875 L -388.28125,479.71875 L -387.59375,479 L -388.28125,478.28125 L -392.28125,474.28125 L -394,472.59375 z M -392,477.4375 L -390.4375,479 L -392,480.5625 L -392,480 L -392,479 L -392,478 L -392,477.4375 z"
       id="path6190"
       style="fill:#f57900;fill-opacity:1;stroke:none;stroke-width:2;stroke-linecap:round;stroke-linejoin:miter;marker:none;stroke-miterlimit:4;stroke-dasharray:none;stroke-dashoffset:0;stroke-opacity:1;visibility:visible;display:inline;overflow:visible;enable-background:accumulate" />
    <path
       d="M -393,476 L -393,482 L -389,479 L -393,476 z"
       id="path6192"
       style="fill:#f57900;fill-opacity:1;stroke:none;stroke-width:2;marker:none;visibility:visible;display:inline;overflow:visible;enable-background:accumulate" />
  </g>
</svg>
