<?xml version="1.0" encoding="UTF-8" standalone="no"?>
<!-- Created with Inkscape (http://www.inkscape.org/) -->
<svg
   xmlns:svg="http://www.w3.org/2000/svg"
   xmlns="http://www.w3.org/2000/svg"
   version="1.0"
   width="24"
   height="24"
   id="svg7384">
  <defs
     id="defs7386" />
  <g
     transform="translate(394.91858,-339)"
     id="layer3" />
  <g
     transform="translate(394.91858,-339)"
     id="layer5" />
  <g
     transform="translate(394.91858,-339)"
     id="layer7" />
  <g
     transform="translate(394.91858,-339)"
     id="layer2" />
  <g
     transform="translate(394.91858,-339)"
     id="layer8" />
  <g
     transform="translate(394.91858,-1291.3622)"
     id="layer1" />
  <g
     transform="translate(394.91858,-339)"
     id="layer4" />
  <g
     transform="translate(394.91858,-339)"
     id="layer9" />
  <g
     transform="translate(394.91858,-339)"
     id="layer6">
    <rect
       width="24"
       height="24"
       x="370.91858"
       y="339"
       transform="scale(-1,1)"
       id="rect7366"
       style="opacity:0;fill:#ffffff;fill-opacity:1;stroke:none;display:inline" />
    <g
       transform="translate(-393.91858,338.99996)"
       id="layer1-83"
       style="fill:#bebebe;fill-opacity:1;display:inline">
      <rect
         width="2.0025511"
         height="11.960009"
         rx="1.0012755"
         ry="1.0012755"
         x="-7.0025511"
         y="-19.960009"
         transform="matrix(0,-1,-1,0,0,0)"
         id="rect2789-33"
         style="fill:#bebebe;fill-opacity:1;stroke:none;display:inline" />
      <rect
         width="2"
         height="12"
         rx="1"
         ry="1"
         x="-11"
         y="-20"
         transform="matrix(0,-1,-1,0,0,0)"
         id="rect2796-0"
         style="fill:#bebebe;fill-opacity:1;stroke:none;display:inline" />
      <rect
         width="2.0000005"
         height="15"
         rx="1.0000002"
         ry="1.0000002"
         x="-15.002551"
         y="-20"
         transform="matrix(0,-1,-1,0,0,0)"
         id="rect2798-899"
         style="fill:#bebebe;fill-opacity:1;stroke:none;display:inline" />
      <rect
         width="2.000001"
         height="15"
         rx="1.0000005"
         ry="1.0000005"
         x="-19"
         y="-20"
         transform="matrix(0,-1,-1,0,0,0)"
         id="rect2812-4"
         style="fill:#bebebe;fill-opacity:1;stroke:none;display:inline" />
    </g>
    <rect
       width="2"
       height="5.533967"
       rx="1"
       ry="1"
       x="-348"
       y="-392.91858"
       transform="matrix(0,-1,1,0,0,0)"
       id="rect2800-1-4"
       style="fill:#febf00;fill-opacity:1;stroke:none;display:inline" />
    <path
       d="M -390.6235,344.29438 C -390.23176,343.90264 -389.60102,343.90264 -389.20928,344.29438 L -387.21239,346.29194 C -386.82065,346.68368 -386.82065,347.31442 -387.21239,347.70615 C -387.60413,348.09789 -388.23487,348.09789 -388.6266,347.70615 L -390.6235,345.70859 C -391.01524,345.31685 -391.01524,344.68611 -390.6235,344.29438 z"
       id="rect7400"
       style="fill:#febf00;fill-opacity:1;stroke:none;display:inline" />
    <path
       d="M -390.6235,349.70553 C -390.23176,350.09727 -389.60102,350.09727 -389.20928,349.70553 L -387.21239,347.70797 C -386.82065,347.31623 -386.82065,346.68549 -387.21239,346.29376 C -387.60413,345.90202 -388.23487,345.90202 -388.6266,346.29376 L -390.6235,348.29132 C -391.01524,348.68306 -391.01524,349.3138 -390.6235,349.70553 z"
       id="path7403"
       style="fill:#febf00;fill-opacity:1;stroke:none;display:inline" />
  </g>
</svg>
