<?xml version="1.0" encoding="UTF-8" standalone="no"?>
<!-- Created with Inkscape (http://www.inkscape.org/) -->
<svg
   xmlns:svg="http://www.w3.org/2000/svg"
   xmlns="http://www.w3.org/2000/svg"
   version="1.0"
   width="24"
   height="24"
   id="svg7384">
  <defs
     id="defs7386" />
  <g
     transform="translate(554.91858,-371)"
     id="layer3" />
  <g
     transform="translate(554.91858,-371)"
     id="layer5" />
  <g
     transform="translate(554.91858,-371)"
     id="layer7" />
  <g
     transform="translate(554.91858,-371)"
     id="layer2" />
  <g
     transform="translate(554.91858,-371)"
     id="layer8" />
  <g
     transform="translate(554.91858,-1323.3622)"
     id="layer1" />
  <g
     transform="translate(554.91858,-371)"
     id="layer4" />
  <g
     transform="translate(554.91858,-371)"
     id="layer9" />
  <g
     transform="translate(554.91858,-371)"
     id="layer6">
    <rect
       width="24"
       height="24"
       x="530.91858"
       y="371"
       transform="scale(-1,1)"
       id="rect7622"
       style="opacity:0;fill:#ffffff;fill-opacity:1;stroke:none;display:inline" />
    <g
       transform="translate(-553.91858,370.99996)"
       id="layer1-054"
       style="fill:#bebebe;fill-opacity:1;display:inline">
      <rect
         width="2.0025511"
         height="11.960009"
         rx="1.0012755"
         ry="1.0012755"
         x="-8.0025511"
         y="8"
         transform="matrix(0,-1,1,0,0,0)"
         id="rect2789-8"
         style="fill:#bebebe;fill-opacity:1;stroke:none;display:inline" />
      <rect
         width="2"
         height="12"
         rx="1"
         ry="1"
         x="-13.00255"
         y="8"
         transform="matrix(0,-1,1,0,0,0)"
         id="rect2796-2"
         style="fill:#bebebe;fill-opacity:1;stroke:none;display:inline" />
      <rect
         width="2.0000005"
         height="12"
         rx="1.0000002"
         ry="1.0000002"
         x="-18.002552"
         y="8"
         transform="matrix(0,-1,1,0,0,0)"
         id="rect2798-63"
         style="fill:#bebebe;fill-opacity:1;stroke:none;display:inline" />
      <rect
         width="2.9974489"
         height="2.9936302"
         rx="1.9961783"
         ry="1.9961783"
         x="-9.0025511"
         y="3.0038216"
         transform="matrix(0,-1,1,0,0,0)"
         id="rect2827-0"
         style="fill:#bebebe;fill-opacity:1;stroke:none;display:inline" />
      <rect
         width="2.9999998"
         height="2.9961782"
         rx="1.9961783"
         ry="1.9961783"
         x="-14.005102"
         y="3.0038216"
         transform="matrix(0,-1,1,0,0,0)"
         id="rect2829-8"
         style="fill:#bebebe;fill-opacity:1;stroke:none;display:inline" />
      <rect
         width="2.9999998"
         height="2.9961782"
         rx="1.9961783"
         ry="1.9961783"
         x="-19.0051"
         y="3.0038216"
         transform="matrix(0,-1,1,0,0,0)"
         id="rect2831-9"
         style="fill:#bebebe;fill-opacity:1;stroke:none;display:inline" />
    </g>
  </g>
</svg>
