<?xml version="1.0" encoding="UTF-8" standalone="no"?>
<!-- Created with Inkscape (http://www.inkscape.org/) -->
<svg
   xmlns:svg="http://www.w3.org/2000/svg"
   xmlns="http://www.w3.org/2000/svg"
   version="1.0"
   width="24"
   height="24"
   id="svg7384">
  <defs
     id="defs7386" />
  <g
     transform="translate(554.935,-339)"
     id="layer3" />
  <g
     transform="translate(554.935,-339)"
     id="layer5" />
  <g
     transform="translate(554.935,-339)"
     id="layer7" />
  <g
     transform="translate(554.935,-339)"
     id="layer2" />
  <g
     transform="translate(554.935,-339)"
     id="layer8" />
  <g
     transform="translate(554.935,-1291.3622)"
     id="layer1" />
  <g
     transform="translate(554.935,-339)"
     id="layer4" />
  <g
     transform="translate(554.935,-339)"
     id="layer9" />
  <g
     transform="translate(554.935,-339)"
     id="layer6">
    <rect
       width="24"
       height="24"
       x="530.935"
       y="339"
       transform="scale(-1,1)"
       id="rect9416"
       style="opacity:0;fill:#ffffff;fill-opacity:1;stroke:none;display:inline" />
    <rect
       width="2"
       height="13"
       rx="1.0000002"
       ry="1.0000002"
       x="-354"
       y="-549.99762"
       transform="matrix(0,-1,1,0,0,0)"
       id="rect2798-582"
       style="fill:#bebebe;fill-opacity:1;stroke:none;display:inline" />
    <path
       d="M -552.50002,358.86603 C -552.9798,358.58903 -553.14305,357.97978 -552.86605,357.50001 L -544.36469,341.50083 C -544.08769,341.02105 -543.47844,340.85781 -542.99867,341.13481 C -542.51889,341.41181 -542.35564,342.02105 -542.63264,342.50083 L -551.134,358.50001 C -551.411,358.97978 -552.02024,359.14303 -552.50002,358.86603 z"
       id="rect3253-4"
       style="fill:#bebebe;fill-opacity:1;stroke:none;display:inline" />
    <path
       d="M -534.50917,358.86874 C -534.02939,358.59174 -533.86614,357.98249 -534.14314,357.50272 L -542.56049,341.50083 C -542.83749,341.02105 -543.44673,340.85781 -543.92651,341.13481 C -544.40629,341.41181 -544.56954,342.02105 -544.29254,342.50083 L -535.87519,358.50272 C -535.59819,358.98249 -534.98894,359.14574 -534.50917,358.86874 z"
       id="path3265-1"
       style="fill:#bebebe;fill-opacity:1;stroke:none;display:inline" />
    <rect
       width="2.0000005"
       height="21.079031"
       rx="1.0000002"
       ry="1.0000002"
       x="-363"
       y="-553.99762"
       transform="matrix(0,-1,1,0,0,0)"
       id="rect3288"
       style="fill:#bebebe;fill-opacity:1;stroke:none;display:inline" />
  </g>
</svg>
