<?xml version="1.0" encoding="UTF-8" standalone="no"?>
<!-- Created with Inkscape (http://www.inkscape.org/) -->
<svg
   xmlns:svg="http://www.w3.org/2000/svg"
   xmlns="http://www.w3.org/2000/svg"
   version="1.0"
   width="24"
   height="24.00111"
   id="svg7384">
  <defs
     id="defs7386" />
  <g
     transform="translate(616,-500)"
     id="layer3" />
  <g
     transform="translate(616,-500)"
     id="layer5" />
  <g
     transform="translate(616,-500)"
     id="layer7" />
  <g
     transform="translate(616,-500)"
     id="layer2" />
  <g
     transform="translate(616,-500)"
     id="layer8" />
  <g
     transform="translate(616,-1452.3622)"
     id="layer1" />
  <g
     transform="translate(616,-500)"
     id="layer4" />
  <g
     transform="translate(616,-500)"
     id="layer9" />
  <g
     transform="translate(616,-500)"
     id="layer6">
    <rect
       width="24"
       height="24"
       x="592"
       y="500"
       transform="scale(-1,1)"
       id="rect11063"
       style="opacity:0;fill:#ffffff;fill-opacity:1;stroke:none;display:inline" />
    <path
       d="M -606.46875,504.59375 L -609.03125,505.34375 C -612.323,506.2824 -614.84468,508.86611 -615.6875,512.125 C -616.99823,517.19312 -613.94311,522.37678 -608.875,523.6875 C -603.80831,524.99785 -598.59289,521.97805 -597.28125,516.90625 L -597.96875,516.71875 L -598.40625,515.65625 L -599.0625,515.75 L -599.09375,515.9375 C -602.02528,517.77403 -605.84953,517.09041 -607.84375,514.21875 C -609.37799,512.00944 -609.39008,509.05321 -607.9375,506.84375 L -606.46875,504.59375 z M -610.6875,508.34375 C -611.2842,510.6981 -610.91424,513.26224 -609.46875,515.34375 C -607.37121,518.36419 -603.67293,519.531 -600.3125,518.625 C -602.03764,521.20416 -605.19164,522.57328 -608.375,521.75 C -612.39667,520.70991 -614.79009,516.64668 -613.75,512.625 C -613.28859,510.84091 -612.18493,509.35833 -610.6875,508.34375 z"
       id="path11614"
       style="fill:#bebebe;fill-opacity:1;stroke:none;stroke-width:2;stroke-linecap:round;stroke-linejoin:miter;marker:none;stroke-miterlimit:2.9000001;stroke-dasharray:none;stroke-dashoffset:0;stroke-opacity:1;visibility:visible;display:inline;overflow:visible;enable-background:accumulate" />
    <path
       d="M -607.36553,509.02806 L -605.89001,509.48765 L -602.57614,510.57615 L -601.48764,513.89002 L -601.02806,515.36554 L -600.56847,513.89002 L -599.47997,510.57615 L -596.1661,509.48765 L -594.69058,509.02806 L -596.1661,508.56848 L -599.47997,507.47998 L -600.56847,504.16611 L -601.02806,502.69059 L -601.48764,504.16611 L -602.57614,507.47998 L -605.89001,508.56848 L -607.36553,509.02806 z M -604.12423,509.02806 L -602.04399,508.35078 L -601.77791,508.27821 L -601.70534,508.01213 L -601.02806,505.93189 L -600.35077,508.01213 L -600.2782,508.27821 L -600.01213,508.35078 L -597.93189,509.02806 L -600.01213,509.70535 L -600.2782,509.77792 L -600.35077,510.044 L -601.02806,512.12423 L -601.70534,510.044 L -601.77791,509.77792 L -602.04399,509.70535 L -604.12423,509.02806 z"
       id="path11616"
       style="fill:#bebebe;fill-opacity:1;stroke:none;stroke-width:0.91352457;stroke-linecap:butt;stroke-linejoin:miter;marker:none;stroke-miterlimit:4;stroke-dasharray:none;stroke-dashoffset:0;stroke-opacity:1;visibility:visible;display:inline;overflow:visible;enable-background:accumulate" />
  </g>
</svg>
