<?xml version="1.0" encoding="UTF-8" standalone="no"?>
<!-- Created with Inkscape (http://www.inkscape.org/) -->
<svg
   xmlns:svg="http://www.w3.org/2000/svg"
   xmlns="http://www.w3.org/2000/svg"
   version="1.0"
   width="24"
   height="24"
   id="svg7384">
  <defs
     id="defs7386" />
  <g
     transform="translate(523,-175)"
     id="layer3" />
  <g
     transform="translate(523,-175)"
     id="layer5" />
  <g
     transform="translate(523,-175)"
     id="layer7" />
  <g
     transform="translate(523,-175)"
     id="layer2" />
  <g
     transform="translate(523,-175)"
     id="layer8" />
  <g
     transform="translate(523,-1127.3622)"
     id="layer1" />
  <g
     transform="translate(523,-175)"
     id="layer4" />
  <g
     transform="translate(523,-175)"
     id="layer9" />
  <g
     transform="translate(523,-175)"
     id="layer6">
    <rect
       width="24"
       height="24"
       x="-199"
       y="-523"
       transform="matrix(0,-1,1,0,0,0)"
       id="rect7294"
       style="opacity:0;fill:#ffffff;fill-opacity:1;stroke:none;display:inline" />
    <path
       d="M -517.46875,182.3125 C -518.09063,182.29754 -518.65722,182.66793 -518.89302,183.24356 C -519.12882,183.81919 -518.98491,184.48063 -518.53125,184.90625 L -512.53125,190.9375 L -511.46875,192 L -510.40625,190.9375 L -504.40625,184.9375 C -503.81945,184.3507 -503.81945,183.3993 -504.40625,182.8125 C -504.99305,182.2257 -505.94445,182.2257 -506.53125,182.8125 L -511.46875,187.75 L -516.40625,182.78125 C -516.68312,182.48869 -517.06601,182.31977 -517.46875,182.3125 z"
       id="path7280-1-5"
       style="fill:#a0da00;fill-opacity:1;stroke:none;stroke-width:3;stroke-linecap:round;stroke-linejoin:miter;stroke-miterlimit:4;stroke-dasharray:none;stroke-opacity:1" />
  </g>
</svg>
