<?xml version="1.0" encoding="UTF-8" standalone="no"?>
<!-- Created with Inkscape (http://www.inkscape.org/) -->
<svg
   xmlns:svg="http://www.w3.org/2000/svg"
   xmlns="http://www.w3.org/2000/svg"
   version="1.0"
   width="24"
   height="24"
   id="svg7384">
  <title
     id="title9167">Moblin Icon Theme</title>
  <defs
     id="defs7386" />
  <g
     transform="translate(362,-238)"
     id="layer3" />
  <g
     transform="translate(362,-238)"
     id="layer5" />
  <g
     transform="translate(362,-238)"
     id="layer7" />
  <g
     transform="translate(362,-238)"
     id="layer2" />
  <g
     transform="translate(362,-238)"
     id="layer8" />
  <g
     transform="translate(362,-1190.3622)"
     id="layer1" />
  <g
     transform="translate(362,-238)"
     id="layer4" />
  <g
     transform="translate(362,-238)"
     id="layer9" />
  <g
     transform="translate(362,-238)"
     id="layer6">
    <rect
       width="24"
       height="24"
       x="338"
       y="238"
       transform="scale(-1,1)"
       id="rect8938"
       style="opacity:0;fill:#ffffff;fill-opacity:1;stroke:none;display:inline" />
    <path
       d="M -350.125,241 C -350.34894,241.02421 -350.55815,241.12331 -350.71875,241.28125 L -360.65625,251.21875 C -361.0532,251.6157 -361.0532,252.2593 -360.65625,252.65625 C -360.2593,253.0532 -359.6157,253.0532 -359.21875,252.65625 L -350,243.4375 L -340.71875,252.78125 C -340.3218,253.1782 -339.6782,253.1782 -339.28125,252.78125 C -338.8843,252.3843 -338.8843,251.7407 -339.28125,251.34375 L -349.28125,241.28125 C -349.50305,241.06072 -349.81524,240.95665 -350.125,241 z"
       id="path9220"
       style="fill:#bebebe;fill-opacity:1;fill-rule:nonzero;stroke:none;stroke-width:2;stroke-linecap:round;stroke-linejoin:round;marker:none;stroke-miterlimit:4;stroke-dasharray:none;stroke-dashoffset:0;stroke-opacity:1;visibility:visible;display:inline;overflow:visible;enable-background:accumulate" />
    <path
       d="M -343.21875,252 C -343.68438,252.10428 -344.01149,252.52298 -344,253 L -344.0625,258.03125 L -356,258.03125 L -356,253.125 C -355.9949,252.76436 -356.18438,252.42892 -356.49587,252.24711 C -356.80737,252.06531 -357.19263,252.06531 -357.50413,252.24711 C -357.81562,252.42892 -358.0051,252.76436 -358,253.125 L -358,259.03125 C -357.99994,259.58351 -357.55226,260.03119 -357,260.03125 L -343.0625,260.03125 C -342.51024,260.03119 -342.06256,259.58351 -342.0625,259.03125 L -342,253 C -341.99256,252.69214 -342.12736,252.39803 -342.36543,252.20269 C -342.60349,252.00735 -342.91827,251.93258 -343.21875,252 z"
       id="path9222"
       style="fill:#bebebe;fill-opacity:1;fill-rule:nonzero;stroke:none;stroke-width:2;stroke-linecap:round;stroke-linejoin:round;marker:none;stroke-miterlimit:4;stroke-dasharray:none;stroke-dashoffset:0;stroke-opacity:1;visibility:visible;display:inline;overflow:visible;enable-background:accumulate" />
    <path
       d="M -352,250 L -352,250.5 L -352,253.5 L -352,254 L -351.5,254 L -348.5,254 L -348,254 L -348,253.5 L -348,250.5 L -348,250 L -348.5,250 L -351.5,250 L -352,250 z M -351,251 L -349,251 L -349,253 L -351,253 L -351,251 z"
       id="rect9265"
       style="fill:#bebebe;fill-opacity:1;fill-rule:nonzero;stroke:none;stroke-width:1;stroke-linecap:butt;stroke-linejoin:miter;marker:none;stroke-miterlimit:4;stroke-dasharray:none;stroke-dashoffset:0;stroke-opacity:1;visibility:visible;display:inline;overflow:visible;enable-background:accumulate" />
  </g>
</svg>
