<?xml version="1.0" encoding="UTF-8" standalone="no"?>
<!-- Created with Inkscape (http://www.inkscape.org/) -->
<svg
   xmlns:svg="http://www.w3.org/2000/svg"
   xmlns="http://www.w3.org/2000/svg"
   version="1.0"
   width="24"
   height="24"
   id="svg7384">
  <defs
     id="defs7386" />
  <g
     transform="translate(362.91858,-239)"
     id="layer3" />
  <g
     transform="translate(362.91858,-239)"
     id="layer5" />
  <g
     transform="translate(362.91858,-239)"
     id="layer7" />
  <g
     transform="translate(362.91858,-239)"
     id="layer2" />
  <g
     transform="translate(362.91858,-239)"
     id="layer8" />
  <g
     transform="translate(362.91858,-1191.3622)"
     id="layer1" />
  <g
     transform="translate(362.91858,-239)"
     id="layer4" />
  <g
     transform="translate(362.91858,-239)"
     id="layer9" />
  <g
     transform="translate(362.91858,-239)"
     id="layer6">
    <rect
       width="24"
       height="24"
       x="338.91858"
       y="239"
       transform="scale(-1,1)"
       id="rect8938"
       style="opacity:0;fill:#ffffff;fill-opacity:1;stroke:none;display:inline" />
    <rect
       width="8"
       height="2.0000105"
       rx="1.0000052"
       ry="1.0000052"
       x="252"
       y="356"
       transform="matrix(0,1,-1,0,0,0)"
       id="rect10398"
       style="fill:#bebebe;fill-opacity:1;stroke:none;display:inline" />
    <rect
       width="8.0000029"
       height="2.0000105"
       rx="1.0000052"
       ry="1.0000052"
       x="252"
       y="344"
       transform="matrix(0,1,-1,0,0,0)"
       id="rect10415"
       style="fill:#bebebe;fill-opacity:1;stroke:none;display:inline" />
    <rect
       width="6"
       height="2.0000105"
       rx="1.0000052"
       ry="1.0000052"
       x="352"
       y="-260"
       transform="scale(-1,-1)"
       id="rect10418"
       style="fill:#bebebe;fill-opacity:1;stroke:none;display:inline" />
    <rect
       width="6"
       height="2.0000105"
       rx="1.0000052"
       ry="1.0000052"
       x="344"
       y="-260"
       transform="scale(-1,-1)"
       id="rect10421"
       style="fill:#bebebe;fill-opacity:1;stroke:none;display:inline" />
    <rect
       width="5.9999967"
       height="2"
       rx="1"
       ry="1"
       x="253"
       y="350"
       transform="matrix(0,1,-1,0,0,0)"
       id="rect10423"
       style="fill:#bebebe;fill-opacity:1;stroke:none;display:inline" />
    <path
       d="M -361.71875,252.28497 C -362.11048,252.6767 -362.11047,253.2995 -361.71875,253.69122 C -361.32701,254.08296 -360.67297,254.08298 -360.28125,253.69122 L -351,244.40997 L -341.71875,253.69122 C -341.32703,254.08299 -340.67299,254.08295 -340.28125,253.69122 C -339.88953,253.29951 -339.88952,252.67671 -340.28125,252.28497 C -340.28125,252.28497 -351,241.59747 -351,241.59747 L -361.71875,252.28497 z"
       id="rect10441"
       style="fill:#bebebe;fill-opacity:1;stroke:none;display:inline" />
  </g>
</svg>
