<?xml version="1.0" encoding="UTF-8" standalone="no"?>
<!-- Created with Inkscape (http://www.inkscape.org/) -->
<svg
   xmlns:svg="http://www.w3.org/2000/svg"
   xmlns="http://www.w3.org/2000/svg"
   version="1.0"
   width="24"
   height="24"
   id="svg7384">
  <defs
     id="defs7386" />
  <g
     transform="translate(492,-175)"
     id="layer3" />
  <g
     transform="translate(492,-175)"
     id="layer5" />
  <g
     transform="translate(492,-175)"
     id="layer7" />
  <g
     transform="translate(492,-175)"
     id="layer2" />
  <g
     transform="translate(492,-175)"
     id="layer8" />
  <g
     transform="translate(492,-1127.3622)"
     id="layer1" />
  <g
     transform="translate(492,-175)"
     id="layer4" />
  <g
     transform="translate(492,-175)"
     id="layer9" />
  <g
     transform="translate(492,-175)"
     id="layer6">
    <rect
       width="24"
       height="24"
       x="-492"
       y="175"
       id="rect7284"
       style="opacity:0;fill:#ffffff;fill-opacity:1;stroke:none;display:inline" />
    <path
       d="M -481.8125,179.5 C -482.38677,179.56704 -482.8714,179.95812 -483.05823,180.50527 C -483.24506,181.05242 -483.10084,181.65823 -482.6875,182.0625 L -477.71875,187 L -482.6875,191.9375 C -483.2743,192.5243 -483.2743,193.4757 -482.6875,194.0625 C -482.1007,194.6493 -481.1493,194.6493 -480.5625,194.0625 L -474.5625,188.0625 L -473.46875,187 L -474.5625,185.9375 L -480.59375,179.9375 C -480.9129,179.61481 -481.36099,179.45396 -481.8125,179.5 z"
       id="path7280-0-0"
       style="fill:#a0da00;fill-opacity:1;stroke:none;stroke-width:3;stroke-linecap:round;stroke-linejoin:miter;stroke-miterlimit:4;stroke-dasharray:none;stroke-opacity:1" />
    <path
       d="M -472.21875,179 C -472.68438,179.10428 -473.01149,179.52298 -473,180 L -473,194 C -473.0051,194.36064 -472.81562,194.69608 -472.50413,194.87789 C -472.19263,195.05969 -471.80737,195.05969 -471.49587,194.87789 C -471.18438,194.69608 -470.9949,194.36064 -471,194 L -471,180 C -470.99256,179.69214 -471.12736,179.39803 -471.36543,179.20269 C -471.60349,179.00735 -471.91827,178.93258 -472.21875,179 z"
       id="path7392"
       style="fill:#a0da00;fill-opacity:1;stroke:none;stroke-width:2;stroke-linecap:round;stroke-linejoin:miter;stroke-miterlimit:4;stroke-dasharray:none;stroke-opacity:1" />
  </g>
</svg>
