<?xml version="1.0" encoding="UTF-8" standalone="no"?>
<!-- Created with Inkscape (http://www.inkscape.org/) -->
<svg
   xmlns:svg="http://www.w3.org/2000/svg"
   xmlns="http://www.w3.org/2000/svg"
   version="1.0"
   width="24"
   height="24"
   id="svg7384">
  <defs
     id="defs7386" />
  <g
     transform="translate(619,-175)"
     id="layer3" />
  <g
     transform="translate(619,-175)"
     id="layer5" />
  <g
     transform="translate(619,-175)"
     id="layer7" />
  <g
     transform="translate(619,-175)"
     id="layer2" />
  <g
     transform="translate(619,-175)"
     id="layer8" />
  <g
     transform="translate(619,-1127.3622)"
     id="layer1" />
  <g
     transform="translate(619,-175)"
     id="layer4" />
  <g
     transform="translate(619,-175)"
     id="layer9" />
  <g
     transform="translate(619,-175)"
     id="layer6">
    <rect
       width="24"
       height="24"
       x="-619"
       y="175"
       id="rect7276"
       style="opacity:0;fill:#ffffff;fill-opacity:1;stroke:none;display:inline" />
    <path
       d="M -610.0625,179.5 C -610.67865,179.4982 -611.23324,179.87334 -611.46088,180.4459 C -611.68853,181.01846 -611.54292,181.67198 -611.09375,182.09375 L -606.125,187.03125 L -611.0625,191.96875 C -611.6493,192.55555 -611.6493,193.50695 -611.0625,194.09375 C -610.4757,194.68055 -609.5243,194.68055 -608.9375,194.09375 L -602.9375,188.09375 L -601.875,187 L -602.9375,185.96875 L -608.96875,179.96875 C -609.25312,179.6684 -609.64889,179.49879 -610.0625,179.5 z"
       id="path7280"
       style="fill:#a0da00;fill-opacity:1;stroke:none;stroke-width:3;stroke-linecap:round;stroke-linejoin:miter;stroke-miterlimit:4;stroke-dasharray:none;stroke-opacity:1" />
  </g>
</svg>
