<?xml version="1.0" encoding="UTF-8" standalone="no"?>
<!-- Created with Inkscape (http://www.inkscape.org/) -->
<svg
   xmlns:svg="http://www.w3.org/2000/svg"
   xmlns="http://www.w3.org/2000/svg"
   version="1.0"
   width="24"
   height="24"
   id="svg7384">
  <defs
     id="defs7386" />
  <g
     transform="translate(587,-175)"
     id="layer3" />
  <g
     transform="translate(587,-175)"
     id="layer5" />
  <g
     transform="translate(587,-175)"
     id="layer7" />
  <g
     transform="translate(587,-175)"
     id="layer2" />
  <g
     transform="translate(587,-175)"
     id="layer8" />
  <g
     transform="translate(587,-1127.3622)"
     id="layer1" />
  <g
     transform="translate(587,-175)"
     id="layer4" />
  <g
     transform="translate(587,-175)"
     id="layer9" />
  <g
     transform="translate(587,-175)"
     id="layer6">
    <rect
       width="24"
       height="24"
       x="-587"
       y="175"
       id="rect7278"
       style="opacity:0;fill:#ffffff;fill-opacity:1;stroke:none;display:inline" />
    <path
       d="M -572.03125,179.5 C -572.42305,179.51547 -572.79322,179.68373 -573.0625,179.96875 L -579.09375,185.96875 L -580.15625,187 L -579.09375,188.09375 L -573.09375,194.09375 C -572.50695,194.68055 -571.55555,194.68055 -570.96875,194.09375 C -570.38195,193.50695 -570.38195,192.55555 -570.96875,191.96875 L -575.90625,187.03125 L -570.9375,182.09375 C -570.47882,181.66436 -570.33631,180.99463 -570.58043,180.4157 C -570.82456,179.83676 -571.4036,179.47129 -572.03125,179.5 z"
       id="path7280-0"
       style="fill:#a0da00;fill-opacity:1;stroke:none;stroke-width:3;stroke-linecap:round;stroke-linejoin:miter;stroke-miterlimit:4;stroke-dasharray:none;stroke-opacity:1" />
  </g>
</svg>
