<?xml version="1.0" encoding="UTF-8" standalone="no"?>
<!-- Created with Inkscape (http://www.inkscape.org/) -->
<svg
   xmlns:svg="http://www.w3.org/2000/svg"
   xmlns="http://www.w3.org/2000/svg"
   version="1.0"
   width="24"
   height="24"
   id="svg7384">
  <defs
     id="defs7386" />
  <g
     transform="translate(428.00001,-174.00001)"
     id="layer3" />
  <g
     transform="translate(428.00001,-174.00001)"
     id="layer5" />
  <g
     transform="translate(428.00001,-174.00001)"
     id="layer7" />
  <g
     transform="translate(428.00001,-174.00001)"
     id="layer2" />
  <g
     transform="translate(428.00001,-174.00001)"
     id="layer8" />
  <g
     transform="translate(428.00001,-1126.3622)"
     id="layer1" />
  <g
     transform="translate(428.00001,-174.00001)"
     id="layer4" />
  <g
     transform="translate(428.00001,-174.00001)"
     id="layer9" />
  <g
     transform="translate(428.00001,-174.00001)"
     id="layer6">
    <g
       transform="matrix(0,-1,-1,0,-229.00001,-293.96752)"
       id="use10349">
      <rect
         width="24"
         height="24"
         x="-491.96753"
         y="175"
         id="rect9154"
         style="opacity:0;fill:#ffffff;fill-opacity:1;stroke:none;display:inline" />
      <path
         d="M -470.96753,180 L -470.96753,194"
         id="path9156"
         style="fill:none;stroke:#a0da00;stroke-width:2;stroke-linecap:round;stroke-linejoin:miter;stroke-miterlimit:4;stroke-dasharray:none;stroke-opacity:1" />
      <g
         transform="matrix(0,-1,1,0,-668.5019,-294.49753)"
         id="g9158">
        <path
           d="M -487.52627,188.55836 L -481.51588,194.56876 L -475.52753,188.53629"
           id="path9160"
           style="fill:none;stroke:#a0da00;stroke-width:3;stroke-linecap:round;stroke-linejoin:miter;stroke-miterlimit:4;stroke-dasharray:none;stroke-opacity:1" />
        <path
           d="M -605.90212,184.94121 A 0.9722718,0.9722718 0 1 1 -607.84666,184.94121 A 0.9722718,0.9722718 0 1 1 -605.90212,184.94121 z"
           transform="matrix(-2.3973561e-8,-2.0570314,-2.057036,0,-101.06678,-1067.8252)"
           id="path9162"
           style="fill:#a0da00;fill-opacity:1;fill-rule:nonzero;stroke:none;stroke-width:0.99999994px;marker:none;visibility:visible;display:inline;overflow:visible;enable-background:new" />
        <path
           d="M -605.90212,184.94121 A 0.9722718,0.9722718 0 1 1 -607.84666,184.94121 A 0.9722718,0.9722718 0 1 1 -605.90212,184.94121 z"
           transform="matrix(-2.3973561e-8,-2.0570314,-2.057036,0,-101.06682,-1061.8253)"
           id="path9164"
           style="fill:#a0da00;fill-opacity:1;fill-rule:nonzero;stroke:none;stroke-width:0.99999994px;marker:none;visibility:visible;display:inline;overflow:visible;enable-background:new" />
      </g>
    </g>
  </g>
</svg>
