<?xml version="1.0" encoding="UTF-8" standalone="no"?>
<!-- Created with Inkscape (http://www.inkscape.org/) -->
<svg
   xmlns:svg="http://www.w3.org/2000/svg"
   xmlns="http://www.w3.org/2000/svg"
   version="1.0"
   width="24"
   height="24"
   id="svg7384">
  <defs
     id="defs7386" />
  <g
     transform="translate(555,-175)"
     id="layer3" />
  <g
     transform="translate(555,-175)"
     id="layer5" />
  <g
     transform="translate(555,-175)"
     id="layer7" />
  <g
     transform="translate(555,-175)"
     id="layer2" />
  <g
     transform="translate(555,-175)"
     id="layer8" />
  <g
     transform="translate(555,-1127.3622)"
     id="layer1" />
  <g
     transform="translate(555,-175)"
     id="layer4" />
  <g
     transform="translate(555,-175)"
     id="layer9" />
  <g
     transform="translate(555,-175)"
     id="layer6">
    <rect
       width="24"
       height="24"
       x="-199"
       y="-555"
       transform="matrix(0,-1,1,0,0,0)"
       id="rect7292"
       style="opacity:0;fill:#ffffff;fill-opacity:1;stroke:none;display:inline" />
    <path
       d="M -543.46875,181.71875 L -544.53125,182.78125 L -550.53125,188.8125 C -551.11805,189.3993 -551.11805,190.3507 -550.53125,190.9375 C -549.94445,191.5243 -548.99305,191.5243 -548.40625,190.9375 L -543.46875,185.96875 L -538.53125,190.90625 C -537.94445,191.49305 -536.99305,191.49305 -536.40625,190.90625 C -535.81945,190.31945 -535.81945,189.36805 -536.40625,188.78125 L -542.40625,182.78125 L -543.46875,181.71875 z"
       id="path7280-1"
       style="fill:#a0da00;fill-opacity:1;stroke:none;stroke-width:3;stroke-linecap:round;stroke-linejoin:miter;stroke-miterlimit:4;stroke-dasharray:none;stroke-opacity:1" />
  </g>
</svg>
