<?xml version="1.0" encoding="UTF-8" standalone="no"?>
<!-- Created with Inkscape (http://www.inkscape.org/) -->
<svg
   xmlns:svg="http://www.w3.org/2000/svg"
   xmlns="http://www.w3.org/2000/svg"
   version="1.0"
   width="24"
   height="24"
   id="svg7384">
  <defs
     id="defs7386" />
  <g
     transform="translate(586.935,-371.05426)"
     id="layer3" />
  <g
     transform="translate(586.935,-371.05426)"
     id="layer5" />
  <g
     transform="translate(586.935,-371.05426)"
     id="layer7" />
  <g
     transform="translate(586.935,-371.05426)"
     id="layer2" />
  <g
     transform="translate(586.935,-371.05426)"
     id="layer8" />
  <g
     transform="translate(586.935,-1323.4164)"
     id="layer1" />
  <g
     transform="translate(586.935,-371.05426)"
     id="layer4" />
  <g
     transform="translate(586.935,-371.05426)"
     id="layer9" />
  <g
     transform="translate(586.935,-371.05426)"
     id="layer6">
    <rect
       width="24"
       height="24"
       x="562.935"
       y="371.05426"
       transform="scale(-1,1)"
       id="rect9222"
       style="opacity:0;fill:#ffffff;fill-opacity:1;stroke:none;display:inline" />
    <path
       d="M 19,27.5 A 2.5,2.5 0 1 1 14,27.5 A 2.5,2.5 0 1 1 19,27.5 z"
       transform="matrix(0.4090343,0,0,0.4077696,-585.69389,378.8057)"
       id="path2801-3"
       style="fill:#b2b2b2;fill-opacity:1;stroke:none;display:inline" />
    <path
       d="M 19,27.5 A 2.5,2.5 0 1 1 14,27.5 A 2.5,2.5 0 1 1 19,27.5 z"
       transform="matrix(0.4090343,0,0,0.4077696,-581.69389,378.8057)"
       id="path3663-5"
       style="fill:#b2b2b2;fill-opacity:1;stroke:none;display:inline" />
    <path
       d="M 19,27.5 A 2.5,2.5 0 1 1 14,27.5 A 2.5,2.5 0 1 1 19,27.5 z"
       transform="matrix(0.4090343,0,0,0.4077696,-577.67129,378.8057)"
       id="path3665-8"
       style="fill:#b2b2b2;fill-opacity:1;stroke:none;display:inline" />
  </g>
</svg>
