<?xml version="1.0" encoding="UTF-8" standalone="no"?>
<!-- Created with Inkscape (http://www.inkscape.org/) -->
<svg
   xmlns:svg="http://www.w3.org/2000/svg"
   xmlns="http://www.w3.org/2000/svg"
   version="1.0"
   width="24"
   height="24"
   id="svg7384">
  <title
     id="title9167">Moblin Icon Theme</title>
  <defs
     id="defs7386" />
  <g
     transform="translate(584,-468)"
     id="layer3" />
  <g
     transform="translate(584,-468)"
     id="layer5" />
  <g
     transform="translate(584,-468)"
     id="layer7" />
  <g
     transform="translate(584,-468)"
     id="layer2" />
  <g
     transform="translate(584,-468)"
     id="layer8" />
  <g
     transform="translate(584,-1420.3622)"
     id="layer1" />
  <g
     transform="translate(584,-468)"
     id="layer11" />
  <g
     transform="translate(584,-468)"
     id="layer4" />
  <g
     transform="translate(584,-468)"
     id="layer9" />
  <g
     transform="translate(584,-468)"
     id="layer10" />
  <g
     transform="translate(584,-468)"
     id="layer6">
    <rect
       width="24"
       height="24"
       x="-584"
       y="468"
       id="rect6278"
       style="opacity:0;fill:#ffffff;fill-opacity:1;stroke:none;display:inline" />
    <g
       transform="translate(-110.0815,106.99983)"
       id="g6282" />
    <path
       d="M -581.81536,479.40873 C -582.00374,479.66399 -582.05983,479.99348 -581.96654,480.29669 C -581.87324,480.5999 -581.64162,480.84086 -581.34234,480.94607 L -575.19295,483.19296 L -572.94606,489.34235 C -572.80748,489.74661 -572.42735,490.01814 -572,490.01814 C -571.57265,490.01814 -571.19252,489.74661 -571.05394,489.34235 L -568.80705,483.19296 L -562.65767,480.94607 C -562.25341,480.8075 -561.98187,480.42736 -561.98187,480.00001 C -561.98187,479.57266 -562.25341,479.19253 -562.65767,479.05396 L -568.80705,476.80707 L -571.05394,470.65768 C -571.19252,470.25342 -571.57265,469.98188 -572,469.98188 C -572.42735,469.98188 -572.80748,470.25342 -572.94606,470.65768 L -575.19295,476.80707 L -581.34234,479.05396 C -581.53217,479.12183 -581.69705,479.2455 -581.81536,479.40873 z M -578.09026,480.00001 L -574.06951,478.5218 C -573.79552,478.42051 -573.5795,478.2045 -573.47822,477.93051 L -572,473.90976 L -570.52179,477.93051 C -570.4205,478.2045 -570.20449,478.42051 -569.9305,478.5218 L -565.90975,480.00001 L -569.9305,481.47823 C -570.20449,481.57952 -570.4205,481.79553 -570.52179,482.06952 L -572,486.09027 L -573.47822,482.06952 C -573.5795,481.79553 -573.79552,481.57952 -574.06951,481.47823 L -578.09026,480.00001 z"
       id="path6288"
       style="fill:#bebebe;fill-opacity:1;stroke:none;stroke-width:2.98969436;stroke-linecap:round;stroke-linejoin:round;marker:none;stroke-miterlimit:4;stroke-dasharray:none;stroke-dashoffset:0;stroke-opacity:1;visibility:visible;display:inline;overflow:visible;enable-background:accumulate" />
  </g>
</svg>
