<?xml version="1.0" encoding="UTF-8" standalone="no"?>
<!-- Created with Inkscape (http://www.inkscape.org/) -->
<svg
   xmlns:svg="http://www.w3.org/2000/svg"
   xmlns="http://www.w3.org/2000/svg"
   version="1.0"
   width="24"
   height="24"
   id="svg7384">
  <defs
     id="defs7386" />
  <g
     transform="translate(522.91858,-371)"
     id="layer3" />
  <g
     transform="translate(522.91858,-371)"
     id="layer5" />
  <g
     transform="translate(522.91858,-371)"
     id="layer7" />
  <g
     transform="translate(522.91858,-371)"
     id="layer2" />
  <g
     transform="translate(522.91858,-371)"
     id="layer8" />
  <g
     transform="translate(522.91858,-1323.3622)"
     id="layer1" />
  <g
     transform="translate(522.91858,-371)"
     id="layer4" />
  <g
     transform="translate(522.91858,-371)"
     id="layer9" />
  <g
     transform="translate(522.91858,-371)"
     id="layer6">
    <rect
       width="24"
       height="24"
       x="498.91858"
       y="371"
       transform="scale(-1,1)"
       id="rect7858"
       style="opacity:0;fill:#ffffff;fill-opacity:1;stroke:none;display:inline" />
    <path
       d="M -515.91858,382.99896 C -515.91858,382.44496 -515.53531,381.99896 -515.05922,381.99896 L -507.77798,381.98996 C -507.30188,381.98993 -506.91858,382.43598 -506.91858,382.98995 C -506.91858,383.54393 -507.30188,383.98993 -507.77798,383.98996 L -515.05921,383.99996 C -515.53533,383.99992 -515.91859,383.55394 -515.91858,382.99994 L -515.91858,382.99896 z"
       id="rect3704-6"
       style="fill:#bebebe;fill-opacity:1;stroke:none;display:inline" />
    <path
       d="M -511.92949,381.53819 C -511.92809,379.59744 -513.51746,378.00871 -515.4582,378.01087 L -518.3957,378.01414 C -520.33644,378.0163 -521.92811,379.60857 -521.92948,381.54932 L -521.93159,384.48682 C -521.93298,386.42757 -520.34362,388.01628 -518.40288,388.01413 L -515.46538,388.01086 C -513.52463,388.0087 -511.93299,386.41643 -511.93159,384.47568 L -511.92949,381.53819 z M -513.92948,381.54041 L -513.93159,384.47791 C -513.93222,385.34526 -514.5966,386.0099 -515.46394,386.01087 L -518.40144,386.01414 C -519.26879,386.01509 -519.93221,385.35193 -519.93159,384.48459 L -519.92948,381.54709 C -519.92887,380.67977 -519.26447,380.0151 -518.39713,380.01414 L -515.45963,380.01087 C -514.59231,380.0099 -513.92886,380.67307 -513.92948,381.54041 z"
       id="rect2853-7-0"
       style="fill:#bebebe;fill-opacity:1;stroke:none;stroke-width:2.00000215;stroke-miterlimit:4;stroke-dasharray:none;stroke-opacity:1;display:inline" />
    <path
       d="M -500.89777,381.52686 C -500.89638,379.58611 -502.48575,377.99739 -504.42649,377.99955 L -507.39524,378.00286 C -509.33599,378.00503 -510.92761,379.59732 -510.92902,381.53805 L -510.93112,384.47555 C -510.93252,386.4163 -509.34316,388.00504 -507.40241,388.00286 L -504.43366,387.99955 C -502.49291,387.99738 -500.90127,386.40511 -500.89988,384.46436 L -500.89777,381.52686 z M -502.89777,381.52909 L -502.89988,384.46659 C -502.9005,385.33393 -503.56489,385.99858 -504.43223,385.99955 L -507.40097,386.00286 C -508.26831,386.00384 -508.93175,385.34066 -508.93113,384.47332 L -508.92902,381.53582 C -508.92839,380.66849 -508.26401,380.00383 -507.39667,380.00286 L -504.42792,379.99955 C -503.56061,379.99858 -502.89715,380.66175 -502.89777,381.52909 z"
       id="rect2853-7-0-5"
       style="fill:#bebebe;fill-opacity:1;stroke:none;stroke-width:2.00000215;stroke-miterlimit:4;stroke-dasharray:none;stroke-opacity:1;display:inline" />
  </g>
</svg>
