<?xml version="1.0" encoding="UTF-8" standalone="no"?>
<!-- Created with Inkscape (http://www.inkscape.org/) -->
<svg
   xmlns:svg="http://www.w3.org/2000/svg"
   xmlns="http://www.w3.org/2000/svg"
   version="1.0"
   width="24.000004"
   height="24"
   id="svg7384">
  <title
     id="title9167">Moblin Icon Theme</title>
  <defs
     id="defs7386" />
  <g
     transform="translate(584,-404)"
     id="layer3" />
  <g
     transform="translate(584,-404)"
     id="layer5" />
  <g
     transform="translate(584,-404)"
     id="layer7" />
  <g
     transform="translate(584,-404)"
     id="layer2" />
  <g
     transform="translate(584,-404)"
     id="layer8" />
  <g
     transform="translate(584,-1356.3622)"
     id="layer1" />
  <g
     transform="translate(584,-404)"
     id="layer11" />
  <g
     transform="translate(584,-404)"
     id="layer4" />
  <g
     transform="translate(584,-404)"
     id="layer9" />
  <g
     transform="translate(584,-404)"
     id="layer10" />
  <g
     transform="translate(584,-404)"
     id="layer6">
    <rect
       width="22.000004"
       height="2"
       rx="1"
       ry="1"
       x="562"
       y="406"
       transform="scale(-1,1)"
       id="rect6349"
       style="fill:#bebebe;fill-opacity:1;stroke:none;display:inline" />
    <rect
       width="17.99585"
       height="1.9901123"
       rx="0.99505615"
       ry="0.99505615"
       x="406.00415"
       y="-583.99011"
       transform="matrix(0,1,1,0,0,0)"
       id="rect6351"
       style="fill:#bebebe;fill-opacity:1;stroke:none;display:inline" />
    <rect
       width="4.9958496"
       height="1.9901123"
       rx="0.99505615"
       ry="0.99505615"
       x="406.00415"
       y="-563.99011"
       transform="matrix(0,1,1,0,0,0)"
       id="rect6404"
       style="fill:#bebebe;fill-opacity:1;stroke:none;display:inline" />
    <rect
       width="10.000004"
       height="2"
       rx="0.99999994"
       ry="1"
       x="574"
       y="422"
       transform="scale(-1,1)"
       id="rect6406"
       style="fill:#bebebe;fill-opacity:1;stroke:none;display:inline" />
    <path
       d="M -580.7077,410.69958 L -573.70334,417.70394 C -573.31354,418.09374 -572.68591,418.09374 -572.29616,417.70398 C -571.90633,417.31415 -571.90633,416.68653 -572.29613,416.29673 L -579.30049,409.29237 C -579.69029,408.90257 -580.31791,408.90257 -580.70774,409.2924 C -581.09749,409.68216 -581.0975,410.30978 -580.7077,410.69958 L -580.7077,410.69958 z"
       id="rect6408"
       style="fill:#bebebe;fill-opacity:1;stroke:none;display:inline" />
    <path
       d="M -565.29236,410.69955 L -572.29672,417.70392 C -572.68652,418.09371 -573.31415,418.09371 -573.70391,417.70396 C -574.09374,417.31413 -574.09374,416.6865 -573.70394,416.2967 L -566.69957,409.29234 C -566.30977,408.90254 -565.68215,408.90254 -565.29232,409.29237 C -564.90256,409.68213 -564.90256,410.30975 -565.29236,410.69955 L -565.29236,410.69955 z"
       id="path6411"
       style="fill:#bebebe;fill-opacity:1;stroke:none;display:inline" />
    <g
       transform="translate(365,-205.08775)"
       id="g6436"
       style="display:inline">
      <rect
         width="8"
         height="2"
         rx="0.94194174"
         ry="0.94194174"
         x="925"
         y="-622.09003"
         transform="scale(-1,-1)"
         id="rect6384"
         style="fill:#606eff;fill-opacity:1;stroke:none;display:inline" />
      <rect
         width="4"
         height="4.9977431"
         rx="1.03125"
         ry="1.03125"
         x="927"
         y="-625.08777"
         transform="scale(-1,-1)"
         id="rect6392"
         style="fill:#606eff;fill-opacity:1;stroke:none;display:inline" />
      <path
         d="M -928.29155,618.79576 L -931.29201,621.79622 C -931.68375,622.18796 -932.31449,622.18796 -932.70623,621.79622 C -933.09796,621.40449 -933.09796,620.77375 -932.70623,620.38201 L -929.70577,617.38155 C -929.31403,616.98981 -928.68329,616.98981 -928.29155,617.38155 C -927.89982,617.77329 -927.89982,618.40403 -928.29155,618.79576 z"
         id="rect6428"
         style="fill:#606eff;fill-opacity:1;stroke:none;display:inline" />
      <path
         d="M -929.70846,618.79576 L -926.708,621.79622 C -926.31626,622.18796 -925.68552,622.18796 -925.29378,621.79622 C -924.90205,621.40448 -924.90205,620.77374 -925.29378,620.38201 L -928.29424,617.38155 C -928.68598,616.98981 -929.31672,616.98981 -929.70846,617.38155 C -930.10019,617.77328 -930.10019,618.40402 -929.70846,618.79576 z"
         id="path6432"
         style="fill:#606eff;fill-opacity:1;stroke:none;display:inline" />
      <rect
         width="2.00226"
         height="2.203125"
         rx="0"
         ry="0"
         x="928"
         y="-621.29315"
         transform="scale(-1,-1)"
         id="rect6434"
         style="fill:#606eff;fill-opacity:1;stroke:none;display:inline" />
    </g>
    <g
       transform="matrix(1,0,0,-1,360,1043.0901)"
       id="g6443"
       style="fill:#3e42ac;fill-opacity:0.9995338;display:inline">
      <rect
         width="8"
         height="2"
         rx="0.94194174"
         ry="0.94194174"
         x="925"
         y="-622.09003"
         transform="scale(-1,-1)"
         id="rect6445"
         style="fill:#3e42ac;fill-opacity:0.9995338;stroke:none;display:inline" />
      <rect
         width="4"
         height="4.9977431"
         rx="1.03125"
         ry="1.03125"
         x="927"
         y="-625.08777"
         transform="scale(-1,-1)"
         id="rect6447"
         style="fill:#3e42ac;fill-opacity:0.9995338;stroke:none;display:inline" />
      <path
         d="M -928.29155,618.79576 L -931.29201,621.79622 C -931.68375,622.18796 -932.31449,622.18796 -932.70623,621.79622 C -933.09796,621.40449 -933.09796,620.77375 -932.70623,620.38201 L -929.70577,617.38155 C -929.31403,616.98981 -928.68329,616.98981 -928.29155,617.38155 C -927.89982,617.77329 -927.89982,618.40403 -928.29155,618.79576 z"
         id="path6449"
         style="fill:#3e42ac;fill-opacity:0.9995338;stroke:none;display:inline" />
      <path
         d="M -929.70846,618.79576 L -926.708,621.79622 C -926.31626,622.18796 -925.68552,622.18796 -925.29378,621.79622 C -924.90205,621.40448 -924.90205,620.77374 -925.29378,620.38201 L -928.29424,617.38155 C -928.68598,616.98981 -929.31672,616.98981 -929.70846,617.38155 C -930.10019,617.77328 -930.10019,618.40402 -929.70846,618.79576 z"
         id="path6451"
         style="fill:#3e42ac;fill-opacity:0.9995338;stroke:none;display:inline" />
      <rect
         width="2.00226"
         height="2.203125"
         rx="0"
         ry="0"
         x="928"
         y="-621.29315"
         transform="scale(-1,-1)"
         id="rect6453"
         style="fill:#3e42ac;fill-opacity:0.9995338;stroke:none;display:inline" />
    </g>
    <rect
       width="24"
       height="24"
       x="-584"
       y="404"
       id="rect7185"
       style="opacity:0;fill:#3e42ac;fill-opacity:0.9995338;stroke:none;display:inline" />
  </g>
</svg>
