<?xml version="1.0" encoding="UTF-8" standalone="no"?>
<!-- Created with Inkscape (http://www.inkscape.org/) -->
<svg
   xmlns:svg="http://www.w3.org/2000/svg"
   xmlns="http://www.w3.org/2000/svg"
   version="1.0"
   width="24"
   height="24"
   id="svg7384">
  <defs
     id="defs7386" />
  <g
     transform="translate(496,-406)"
     id="layer3" />
  <g
     transform="translate(496,-406)"
     id="layer5" />
  <g
     transform="translate(496,-406)"
     id="layer7" />
  <g
     transform="translate(496,-406)"
     id="layer2" />
  <g
     transform="translate(496,-406)"
     id="layer8" />
  <g
     transform="translate(496,-1358.3622)"
     id="layer1" />
  <g
     transform="translate(496,-406)"
     id="layer4" />
  <g
     transform="translate(496,-406)"
     id="layer9" />
  <g
     transform="translate(496,-406)"
     id="layer6">
    <rect
       width="24"
       height="24"
       x="-496"
       y="406"
       id="rect7185-2-7-4"
       style="opacity:0;fill:#3e42ac;fill-opacity:0.9995338;stroke:none;display:inline" />
    <g
       transform="matrix(0,1,-1,0,353.12128,567)"
       id="g8362-5-0"
       style="stroke:#606eff;stroke-opacity:1;display:inline">
      <path
         d="M -144,828.09003 L -141.96875,828.09003 L -141.96875,831.09003 L -140,831.09003 L -143.03125,834.12128 L -146.04688,831.10565 L -144,831.10565 L -144,828.09003 z"
         id="path8328-4-6"
         style="fill:none;stroke:#606eff;stroke-width:2;stroke-linecap:round;stroke-linejoin:round;stroke-miterlimit:4;stroke-dasharray:none;stroke-opacity:1" />
      <path
         d="M -143,829.12128 L -143,833.05878"
         id="path8336-0-4"
         style="fill:none;stroke:#606eff;stroke-width:2;stroke-linecap:round;stroke-linejoin:round;marker:none;stroke-miterlimit:4;stroke-dasharray:none;stroke-dashoffset:0;stroke-opacity:1;visibility:visible;display:inline;overflow:visible;enable-background:accumulate" />
    </g>
    <path
       d="M -478.125,411 C -478.34894,411.02421 -478.55815,411.12331 -478.71875,411.28125 L -485,417.59375 L -491.28125,411.3125 C -491.6782,410.91555 -492.3218,410.91555 -492.71875,411.3125 C -493.1157,411.70945 -493.1157,412.35305 -492.71875,412.75 L -485.71875,419.71875 C -485.32913,420.10394 -484.70212,420.10394 -484.3125,419.71875 L -477.28125,412.71875 C -476.95859,412.41827 -476.87077,411.94193 -477.06507,411.54615 C -477.25936,411.15036 -477.68993,410.9285 -478.125,411 L -478.125,411 z"
       id="path8366-3-3"
       style="fill:#bebebe;fill-opacity:1;stroke:none;stroke-width:2;stroke-linecap:round;stroke-linejoin:round;stroke-miterlimit:4;stroke-dasharray:none;stroke-opacity:1;display:inline" />
    <path
       d="M -495.09375,408 C -495.60911,408.04857 -496.00223,408.48237 -496,409 L -496,424.96875 C -495.99994,425.52101 -495.55226,425.96869 -495,425.96875 L -484.9375,425.96875 C -484.57686,425.97385 -484.24142,425.78437 -484.05961,425.47288 C -483.87781,425.16138 -483.87781,424.77612 -484.05961,424.46462 C -484.24142,424.15313 -484.57686,423.96365 -484.9375,423.96875 L -494,423.96875 L -494,410 L -475.96875,410 L -475.96875,419.03125 C -475.97385,419.39189 -475.78437,419.72733 -475.47288,419.90914 C -475.16138,420.09094 -474.77612,420.09094 -474.46462,419.90914 C -474.15313,419.72733 -473.96365,419.39189 -473.96875,419.03125 L -473.96875,409 C -473.96881,408.44774 -474.41649,408.00006 -474.96875,408 L -495,408 C -495.03123,407.99853 -495.06252,407.99853 -495.09375,408 L -495.09375,408 z"
       id="path8368-0-9"
       style="fill:#bebebe;fill-opacity:1;stroke:none;stroke-width:2;stroke-linecap:round;stroke-linejoin:round;marker:none;stroke-miterlimit:4;stroke-dasharray:none;stroke-dashoffset:0;stroke-opacity:1;visibility:visible;display:inline;overflow:visible;enable-background:accumulate" />
  </g>
</svg>
