<?xml version="1.0" encoding="UTF-8" standalone="no"?>
<!-- Created with Inkscape (http://www.inkscape.org/) -->
<svg
   xmlns:svg="http://www.w3.org/2000/svg"
   xmlns="http://www.w3.org/2000/svg"
   version="1.0"
   width="24"
   height="24"
   id="svg7384">
  <defs
     id="defs7386" />
  <g
     transform="translate(586.935,-273.0542)"
     id="layer3" />
  <g
     transform="translate(586.935,-273.0542)"
     id="layer5" />
  <g
     transform="translate(586.935,-273.0542)"
     id="layer7" />
  <g
     transform="translate(586.935,-273.0542)"
     id="layer2" />
  <g
     transform="translate(586.935,-273.0542)"
     id="layer8" />
  <g
     transform="translate(586.935,-1225.4164)"
     id="layer1" />
  <g
     transform="translate(586.935,-273.0542)"
     id="layer4" />
  <g
     transform="translate(586.935,-273.0542)"
     id="layer9" />
  <g
     transform="translate(586.935,-273.0542)"
     id="layer6">
    <rect
       width="24"
       height="24"
       x="562.935"
       y="273.0542"
       transform="scale(-1,1)"
       id="rect8131"
       style="opacity:0;fill:#ffffff;fill-opacity:1;stroke:none;display:inline" />
    <path
       d="M -580.0625,279 C -580.57786,279.04857 -580.97098,279.48237 -580.96875,280 L -580.96875,290 C -580.96869,290.55226 -580.52101,290.99994 -579.96875,291 L -569.96875,291 C -569.41649,290.99994 -568.96881,290.55226 -568.96875,290 L -568.96875,280 C -568.96881,279.44774 -569.41649,279.00006 -569.96875,279 L -579.96875,279 C -579.99998,278.99853 -580.03127,278.99853 -580.0625,279 z M -578.96875,281 L -570.96875,281 L -570.96875,289 L -578.96875,289 L -578.96875,281 z"
       id="rect8442"
       style="fill:#8f8f8f;fill-opacity:1;stroke:none;stroke-width:2;stroke-linejoin:round;stroke-miterlimit:4;stroke-dasharray:none;stroke-opacity:1;display:inline" />
    <rect
       width="10"
       height="10"
       x="-579.96747"
       y="280"
       id="rect5449"
       style="fill:#8f8f8f;fill-opacity:1;stroke:none;stroke-width:2;stroke-linejoin:round;stroke-miterlimit:4;stroke-dasharray:none;stroke-opacity:1;display:inline" />
  </g>
</svg>
