<?xml version="1.0" encoding="UTF-8" standalone="no"?>
<!-- Created with Inkscape (http://www.inkscape.org/) -->
<svg
   xmlns:svg="http://www.w3.org/2000/svg"
   xmlns="http://www.w3.org/2000/svg"
   version="1.0"
   width="24"
   height="24"
   id="svg7384">
  <defs
     id="defs7386" />
  <g
     transform="translate(426.96747,-273.0542)"
     id="layer3" />
  <g
     transform="translate(426.96747,-273.0542)"
     id="layer5" />
  <g
     transform="translate(426.96747,-273.0542)"
     id="layer7" />
  <g
     transform="translate(426.96747,-273.0542)"
     id="layer2" />
  <g
     transform="translate(426.96747,-273.0542)"
     id="layer8" />
  <g
     transform="translate(426.96747,-1225.4164)"
     id="layer1" />
  <g
     transform="translate(426.96747,-273.0542)"
     id="layer4" />
  <g
     transform="translate(426.96747,-273.0542)"
     id="layer9" />
  <g
     transform="translate(426.96747,-273.0542)"
     id="layer6">
    <rect
       width="24"
       height="24"
       x="-426.96747"
       y="273.0542"
       id="rect8585"
       style="opacity:0;fill:#ffffff;fill-opacity:1;stroke:none;display:inline" />
    <rect
       width="2.9999123"
       height="10"
       rx="0"
       ry="0"
       x="403.96747"
       y="-290"
       transform="scale(-1,-1)"
       id="rect8613"
       style="fill:#8f8f8f;fill-opacity:1;stroke:none;display:inline" />
    <g
       transform="translate(-977.9654,-72.0901)"
       id="g8631"
       style="fill:#8f8f8f;fill-opacity:1;display:inline">
      <rect
         width="2"
         height="9.9999962"
         rx="1"
         ry="1"
         x="-555"
         y="-362.09003"
         transform="scale(-1,-1)"
         id="rect8589"
         style="fill:#8f8f8f;fill-opacity:1;stroke:none;display:inline" />
      <path
         d="M 561.86515,357.58915 C 561.58816,358.06893 560.97891,358.23218 560.49913,357.95518 L 553.49889,353.95699 C 553.01911,353.67999 552.85586,353.07074 553.13287,352.59097 C 553.40987,352.11118 554.01912,351.94794 554.49889,352.22494 L 561.49913,356.22313 C 561.97891,356.50013 562.14216,357.10938 561.86515,357.58915 z"
         id="path8591"
         style="fill:#8f8f8f;fill-opacity:1;stroke:none;display:inline" />
      <path
         d="M 561.86515,356.5909 C 561.58816,356.11112 560.97891,355.94787 560.49913,356.22487 L 553.50006,360.22237 C 553.02028,360.49937 552.85703,361.10862 553.13404,361.58839 C 553.41104,362.06818 554.02029,362.23142 554.50006,361.95442 L 561.49913,357.95692 C 561.97891,357.67992 562.14216,357.07067 561.86515,356.5909 z"
         id="path8601"
         style="fill:#8f8f8f;fill-opacity:1;stroke:none;display:inline" />
      <rect
         width="5.4227643"
         height="6.0000038"
         rx="2.7113822"
         ry="2.7113822"
         x="-559.42279"
         y="-360.09003"
         transform="scale(-1,-1)"
         id="rect8603"
         style="fill:#8f8f8f;fill-opacity:1;stroke:none;display:inline" />
      <rect
         width="2"
         height="9.9999962"
         rx="1"
         ry="1"
         x="-555"
         y="-362.09003"
         transform="scale(-1,-1)"
         id="rect8615"
         style="fill:#8f8f8f;fill-opacity:1;stroke:none;display:inline" />
      <path
         d="M 561.86515,357.58915 C 561.58816,358.06893 560.97891,358.23218 560.49913,357.95518 L 553.49889,353.95699 C 553.01911,353.67999 552.85586,353.07074 553.13287,352.59097 C 553.40987,352.11118 554.01912,351.94794 554.49889,352.22494 L 561.49913,356.22313 C 561.97891,356.50013 562.14216,357.10938 561.86515,357.58915 z"
         id="path15395"
         style="fill:#8f8f8f;fill-opacity:1;stroke:none;display:inline" />
      <path
         d="M 561.86515,356.5909 C 561.58816,356.11112 560.97891,355.94787 560.49913,356.22487 L 553.50006,360.22237 C 553.02028,360.49937 552.85703,361.10862 553.13404,361.58839 C 553.41104,362.06818 554.02029,362.23142 554.50006,361.95442 L 561.49913,357.95692 C 561.97891,357.67992 562.14216,357.07067 561.86515,356.5909 z"
         id="path15397"
         style="fill:#8f8f8f;fill-opacity:1;stroke:none;display:inline" />
      <rect
         width="5.4227643"
         height="6.0000038"
         rx="2.7113822"
         ry="2.7113822"
         x="-559.42279"
         y="-360.09003"
         transform="scale(-1,-1)"
         id="rect8621"
         style="fill:#8f8f8f;fill-opacity:1;stroke:none;display:inline" />
    </g>
    <g
       transform="translate(-976.9674,-72.0901)"
       id="g8641"
       style="fill:#8f8f8f;fill-opacity:1;display:inline">
      <rect
         width="2"
         height="9.9999962"
         rx="1"
         ry="1"
         x="-563.00195"
         y="-362.09003"
         transform="scale(-1,-1)"
         id="rect8605"
         style="fill:#8f8f8f;fill-opacity:1;stroke:none;display:inline" />
      <path
         d="M 569.86713,357.58915 C 569.59014,358.06893 568.98089,358.23218 568.50111,357.95518 L 561.50087,353.95699 C 561.02109,353.67999 560.85784,353.07074 561.13485,352.59097 C 561.41185,352.11118 562.0211,351.94794 562.50087,352.22494 L 569.50111,356.22313 C 569.98089,356.50013 570.14414,357.10938 569.86713,357.58915 z"
         id="path8607"
         style="fill:#8f8f8f;fill-opacity:1;stroke:none;display:inline" />
      <path
         d="M 569.86713,356.5909 C 569.59014,356.11112 568.98089,355.94787 568.50111,356.22487 L 561.50204,360.22237 C 561.02226,360.49937 560.85901,361.10862 561.13602,361.58839 C 561.41302,362.06818 562.02227,362.23142 562.50204,361.95442 L 569.50111,357.95692 C 569.98089,357.67992 570.14414,357.07067 569.86713,356.5909 z"
         id="path8609"
         style="fill:#8f8f8f;fill-opacity:1;stroke:none;display:inline" />
      <rect
         width="5.4227643"
         height="6.0000038"
         rx="2.7113822"
         ry="2.7113822"
         x="-567.42474"
         y="-360.09003"
         transform="scale(-1,-1)"
         id="rect8611"
         style="fill:#8f8f8f;fill-opacity:1;stroke:none;display:inline" />
      <rect
         width="2"
         height="9.9999962"
         rx="1"
         ry="1"
         x="-563.00195"
         y="-362.09003"
         transform="scale(-1,-1)"
         id="rect8623"
         style="fill:#8f8f8f;fill-opacity:1;stroke:none;display:inline" />
      <path
         d="M 569.86713,357.58915 C 569.59014,358.06893 568.98089,358.23218 568.50111,357.95518 L 561.50087,353.95699 C 561.02109,353.67999 560.85784,353.07074 561.13485,352.59097 C 561.41185,352.11118 562.0211,351.94794 562.50087,352.22494 L 569.50111,356.22313 C 569.98089,356.50013 570.14414,357.10938 569.86713,357.58915 z"
         id="path8625"
         style="fill:#8f8f8f;fill-opacity:1;stroke:none;display:inline" />
      <path
         d="M 569.86713,356.5909 C 569.59014,356.11112 568.98089,355.94787 568.50111,356.22487 L 561.50204,360.22237 C 561.02226,360.49937 560.85901,361.10862 561.13602,361.58839 C 561.41302,362.06818 562.02227,362.23142 562.50204,361.95442 L 569.50111,357.95692 C 569.98089,357.67992 570.14414,357.07067 569.86713,356.5909 z"
         id="path8627"
         style="fill:#8f8f8f;fill-opacity:1;stroke:none;display:inline" />
      <rect
         width="5.4227643"
         height="6.0000038"
         rx="2.7113822"
         ry="2.7113822"
         x="-567.42474"
         y="-360.09003"
         transform="scale(-1,-1)"
         id="rect8629"
         style="fill:#8f8f8f;fill-opacity:1;stroke:none;display:inline" />
    </g>
  </g>
</svg>
