<?xml version="1.0" encoding="UTF-8" standalone="no"?>
<!-- Created with Inkscape (http://www.inkscape.org/) -->
<svg
   xmlns:svg="http://www.w3.org/2000/svg"
   xmlns="http://www.w3.org/2000/svg"
   version="1.0"
   width="24"
   height="24"
   id="svg7384">
  <defs
     id="defs7386" />
  <g
     transform="translate(458.96747,-273.0542)"
     id="layer3" />
  <g
     transform="translate(458.96747,-273.0542)"
     id="layer5" />
  <g
     transform="translate(458.96747,-273.0542)"
     id="layer7" />
  <g
     transform="translate(458.96747,-273.0542)"
     id="layer2" />
  <g
     transform="translate(458.96747,-273.0542)"
     id="layer8" />
  <g
     transform="translate(458.96747,-1225.4164)"
     id="layer1" />
  <g
     transform="translate(458.96747,-273.0542)"
     id="layer4" />
  <g
     transform="translate(458.96747,-273.0542)"
     id="layer9" />
  <g
     transform="translate(458.96747,-273.0542)"
     id="layer6">
    <rect
       width="24"
       height="24"
       x="-458.96747"
       y="273.0542"
       id="rect8731"
       style="opacity:0;fill:#ffffff;fill-opacity:1;stroke:none;display:inline" />
    <g
       transform="matrix(-1,0,0,1,115.03062,-72.0901)"
       id="g8735"
       style="fill:#8f8f8f;fill-opacity:1;display:inline">
      <rect
         width="2"
         height="9.9999962"
         rx="1"
         ry="1"
         x="-555"
         y="-362.09003"
         transform="scale(-1,-1)"
         id="rect8737"
         style="fill:#8f8f8f;fill-opacity:1;stroke:none;display:inline" />
      <path
         d="M 561.86515,357.58915 C 561.58816,358.06893 560.97891,358.23218 560.49913,357.95518 L 553.49889,353.95699 C 553.01911,353.67999 552.85586,353.07074 553.13287,352.59097 C 553.40987,352.11118 554.01912,351.94794 554.49889,352.22494 L 561.49913,356.22313 C 561.97891,356.50013 562.14216,357.10938 561.86515,357.58915 z"
         id="path8739"
         style="fill:#8f8f8f;fill-opacity:1;stroke:none;display:inline" />
      <path
         d="M 561.86515,356.5909 C 561.58816,356.11112 560.97891,355.94787 560.49913,356.22487 L 553.50006,360.22237 C 553.02028,360.49937 552.85703,361.10862 553.13404,361.58839 C 553.41104,362.06818 554.02029,362.23142 554.50006,361.95442 L 561.49913,357.95692 C 561.97891,357.67992 562.14216,357.07067 561.86515,356.5909 z"
         id="path8741"
         style="fill:#8f8f8f;fill-opacity:1;stroke:none;display:inline" />
      <rect
         width="5.4227643"
         height="6.0000038"
         rx="2.7113822"
         ry="2.7113822"
         x="-559.42279"
         y="-360.09003"
         transform="scale(-1,-1)"
         id="rect8743"
         style="fill:#8f8f8f;fill-opacity:1;stroke:none;display:inline" />
      <rect
         width="2"
         height="9.9999962"
         rx="1"
         ry="1"
         x="-555"
         y="-362.09003"
         transform="scale(-1,-1)"
         id="rect8745"
         style="fill:#8f8f8f;fill-opacity:1;stroke:none;display:inline" />
      <path
         d="M 561.86515,357.58915 C 561.58816,358.06893 560.97891,358.23218 560.49913,357.95518 L 553.49889,353.95699 C 553.01911,353.67999 552.85586,353.07074 553.13287,352.59097 C 553.40987,352.11118 554.01912,351.94794 554.49889,352.22494 L 561.49913,356.22313 C 561.97891,356.50013 562.14216,357.10938 561.86515,357.58915 z"
         id="path8747"
         style="fill:#8f8f8f;fill-opacity:1;stroke:none;display:inline" />
      <path
         d="M 561.86515,356.5909 C 561.58816,356.11112 560.97891,355.94787 560.49913,356.22487 L 553.50006,360.22237 C 553.02028,360.49937 552.85703,361.10862 553.13404,361.58839 C 553.41104,362.06818 554.02029,362.23142 554.50006,361.95442 L 561.49913,357.95692 C 561.97891,357.67992 562.14216,357.07067 561.86515,356.5909 z"
         id="path8749"
         style="fill:#8f8f8f;fill-opacity:1;stroke:none;display:inline" />
      <rect
         width="5.4227643"
         height="6.0000038"
         rx="2.7113822"
         ry="2.7113822"
         x="-559.42279"
         y="-360.09003"
         transform="scale(-1,-1)"
         id="rect8751"
         style="fill:#8f8f8f;fill-opacity:1;stroke:none;display:inline" />
    </g>
    <g
       transform="matrix(-1,0,0,1,114.03252,-72.0901)"
       id="g8753"
       style="fill:#8f8f8f;fill-opacity:1;display:inline">
      <rect
         width="2"
         height="9.9999962"
         rx="1"
         ry="1"
         x="-563.00195"
         y="-362.09003"
         transform="scale(-1,-1)"
         id="rect8755"
         style="fill:#8f8f8f;fill-opacity:1;stroke:none;display:inline" />
      <path
         d="M 569.86713,357.58915 C 569.59014,358.06893 568.98089,358.23218 568.50111,357.95518 L 561.50087,353.95699 C 561.02109,353.67999 560.85784,353.07074 561.13485,352.59097 C 561.41185,352.11118 562.0211,351.94794 562.50087,352.22494 L 569.50111,356.22313 C 569.98089,356.50013 570.14414,357.10938 569.86713,357.58915 z"
         id="path8757"
         style="fill:#8f8f8f;fill-opacity:1;stroke:none;display:inline" />
      <path
         d="M 569.86713,356.5909 C 569.59014,356.11112 568.98089,355.94787 568.50111,356.22487 L 561.50204,360.22237 C 561.02226,360.49937 560.85901,361.10862 561.13602,361.58839 C 561.41302,362.06818 562.02227,362.23142 562.50204,361.95442 L 569.50111,357.95692 C 569.98089,357.67992 570.14414,357.07067 569.86713,356.5909 z"
         id="path8759"
         style="fill:#8f8f8f;fill-opacity:1;stroke:none;display:inline" />
      <rect
         width="5.4227643"
         height="6.0000038"
         rx="2.7113822"
         ry="2.7113822"
         x="-567.42474"
         y="-360.09003"
         transform="scale(-1,-1)"
         id="rect8761"
         style="fill:#8f8f8f;fill-opacity:1;stroke:none;display:inline" />
      <rect
         width="2"
         height="9.9999962"
         rx="1"
         ry="1"
         x="-563.00195"
         y="-362.09003"
         transform="scale(-1,-1)"
         id="rect8763"
         style="fill:#8f8f8f;fill-opacity:1;stroke:none;display:inline" />
      <path
         d="M 569.86713,357.58915 C 569.59014,358.06893 568.98089,358.23218 568.50111,357.95518 L 561.50087,353.95699 C 561.02109,353.67999 560.85784,353.07074 561.13485,352.59097 C 561.41185,352.11118 562.0211,351.94794 562.50087,352.22494 L 569.50111,356.22313 C 569.98089,356.50013 570.14414,357.10938 569.86713,357.58915 z"
         id="path8765"
         style="fill:#8f8f8f;fill-opacity:1;stroke:none;display:inline" />
      <path
         d="M 569.86713,356.5909 C 569.59014,356.11112 568.98089,355.94787 568.50111,356.22487 L 561.50204,360.22237 C 561.02226,360.49937 560.85901,361.10862 561.13602,361.58839 C 561.41302,362.06818 562.02227,362.23142 562.50204,361.95442 L 569.50111,357.95692 C 569.98089,357.67992 570.14414,357.07067 569.86713,356.5909 z"
         id="path8767"
         style="fill:#8f8f8f;fill-opacity:1;stroke:none;display:inline" />
      <rect
         width="5.4227643"
         height="6.0000038"
         rx="2.7113822"
         ry="2.7113822"
         x="-567.42474"
         y="-360.09003"
         transform="scale(-1,-1)"
         id="rect8769"
         style="fill:#8f8f8f;fill-opacity:1;stroke:none;display:inline" />
    </g>
  </g>
</svg>
