<?xml version="1.0" encoding="UTF-8" standalone="no"?>
<!-- Created with Inkscape (http://www.inkscape.org/) -->
<svg
   xmlns:svg="http://www.w3.org/2000/svg"
   xmlns="http://www.w3.org/2000/svg"
   version="1.0"
   width="24"
   height="24"
   id="svg7384">
  <defs
     id="defs7386" />
  <g
     transform="translate(522.935,-273.0542)"
     id="layer3" />
  <g
     transform="translate(522.935,-273.0542)"
     id="layer5" />
  <g
     transform="translate(522.935,-273.0542)"
     id="layer7" />
  <g
     transform="translate(522.935,-273.0542)"
     id="layer2" />
  <g
     transform="translate(522.935,-273.0542)"
     id="layer8" />
  <g
     transform="translate(522.935,-1225.4164)"
     id="layer1" />
  <g
     transform="translate(522.935,-273.0542)"
     id="layer4" />
  <g
     transform="translate(522.935,-273.0542)"
     id="layer9" />
  <g
     transform="translate(522.935,-273.0542)"
     id="layer6">
    <rect
       width="24"
       height="24"
       x="498.935"
       y="273.0542"
       transform="scale(-1,1)"
       id="rect8105"
       style="opacity:0;fill:#ffffff;fill-opacity:1;stroke:none;display:inline" />
    <path
       d="M -515.09375,279 C -515.60911,279.04857 -516.00223,279.48237 -516,280 L -516,290 C -515.99994,290.55226 -515.55226,290.99994 -515,291 L -513,291 C -512.44774,290.99994 -512.00006,290.55226 -512,290 L -512,280 C -512.00006,279.44774 -512.44774,279.00006 -513,279 L -515,279 C -515.03123,278.99853 -515.06252,278.99853 -515.09375,279 L -515.09375,279 z"
       id="rect10293"
       style="fill:#8f8f8f;fill-opacity:1;stroke:none;stroke-width:2;stroke-linecap:round;stroke-linejoin:round;marker:none;stroke-miterlimit:4;stroke-dasharray:none;stroke-dashoffset:0;stroke-opacity:1;visibility:visible;display:inline;overflow:visible;enable-background:accumulate" />
    <path
       d="M -509.09375,279 C -509.60911,279.04857 -510.00223,279.48237 -510,280 L -510,290 C -509.99994,290.55226 -509.55226,290.99994 -509,291 L -507,291 C -506.44774,290.99994 -506.00006,290.55226 -506,290 L -506,280 C -506.00006,279.44774 -506.44774,279.00006 -507,279 L -509,279 C -509.03123,278.99853 -509.06252,278.99853 -509.09375,279 L -509.09375,279 z"
       id="rect10295"
       style="fill:#8f8f8f;fill-opacity:1;stroke:none;stroke-width:2;stroke-linecap:round;stroke-linejoin:round;marker:none;stroke-miterlimit:4;stroke-dasharray:none;stroke-dashoffset:0;stroke-opacity:1;visibility:visible;display:inline;overflow:visible;enable-background:accumulate" />
  </g>
</svg>
