<?xml version="1.0" encoding="UTF-8" standalone="no"?>
<!-- Created with Inkscape (http://www.inkscape.org/) -->
<svg
   xmlns:svg="http://www.w3.org/2000/svg"
   xmlns="http://www.w3.org/2000/svg"
   version="1.0"
   width="24"
   height="24"
   id="svg7384">
  <defs
     id="defs7386" />
  <g
     transform="translate(618.935,-273.0542)"
     id="layer3" />
  <g
     transform="translate(618.935,-273.0542)"
     id="layer5" />
  <g
     transform="translate(618.935,-273.0542)"
     id="layer7" />
  <g
     transform="translate(618.935,-273.0542)"
     id="layer2" />
  <g
     transform="translate(618.935,-273.0542)"
     id="layer8" />
  <g
     transform="translate(618.935,-1225.4164)"
     id="layer1" />
  <g
     transform="translate(618.935,-273.0542)"
     id="layer4" />
  <g
     transform="translate(618.935,-273.0542)"
     id="layer9" />
  <g
     transform="translate(618.935,-273.0542)"
     id="layer6">
    <rect
       width="24"
       height="24"
       x="-618.935"
       y="273.0542"
       id="rect8129"
       style="opacity:0;fill:#ffffff;fill-opacity:1;stroke:none;display:inline" />
    <path
       d="M -610,278 L -610,292 L -603,285 L -610,278 z"
       id="path10413"
       style="fill:#a0da00;fill-opacity:1;stroke:none;stroke-width:2;stroke-linecap:round;stroke-linejoin:round;stroke-miterlimit:4;stroke-dasharray:none;stroke-opacity:1" />
    <path
       d="M -610.125,277 C -610.62796,277.0634 -611.00393,277.49308 -611,278 L -611,292 C -611.00969,292.41173 -610.76598,292.7873 -610.38602,292.94619 C -610.00606,293.10508 -609.56755,293.01481 -609.28125,292.71875 L -602.28125,285.71875 C -602.08651,285.53034 -601.97656,285.27097 -601.97656,285 C -601.97656,284.72903 -602.08651,284.46966 -602.28125,284.28125 L -609.28125,277.28125 C -609.50305,277.06072 -609.81524,276.95665 -610.125,277 L -610.125,277 z M -609,280.4375 L -604.4375,285 L -609,289.5625 L -609,280.4375 z"
       id="path4675"
       style="fill:#a0da00;fill-opacity:1;stroke:none;stroke-width:2;stroke-linecap:round;stroke-linejoin:round;stroke-miterlimit:4;stroke-dasharray:none;stroke-opacity:1" />
  </g>
</svg>
