<?xml version="1.0" encoding="UTF-8" standalone="no"?>
<!-- Created with Inkscape (http://www.inkscape.org/) -->
<svg
   xmlns:svg="http://www.w3.org/2000/svg"
   xmlns="http://www.w3.org/2000/svg"
   xmlns:xlink="http://www.w3.org/1999/xlink"
   version="1.0"
   width="24"
   height="24"
   id="svg7384">
  <defs
     id="defs7386">
    <linearGradient
       id="linearGradient5975-1">
      <stop
         id="stop5977-9"
         style="stop-color:#febf00;stop-opacity:1"
         offset="0" />
      <stop
         id="stop5979-0"
         style="stop-color:#febf00;stop-opacity:0"
         offset="1" />
    </linearGradient>
    <linearGradient
       x1="541.95795"
       y1="348.15771"
       x2="534.96399"
       y2="341.08453"
       id="linearGradient8924"
       xlink:href="#linearGradient5975-1"
       gradientUnits="userSpaceOnUse"
       gradientTransform="translate(-1043.9674,-97.0901)" />
  </defs>
  <g
     transform="translate(522.96747,-239.0542)"
     id="layer3" />
  <g
     transform="translate(522.96747,-239.0542)"
     id="layer5" />
  <g
     transform="translate(522.96747,-239.0542)"
     id="layer7" />
  <g
     transform="translate(522.96747,-239.0542)"
     id="layer2" />
  <g
     transform="translate(522.96747,-239.0542)"
     id="layer8" />
  <g
     transform="translate(522.96747,-1191.4164)"
     id="layer1" />
  <g
     transform="translate(522.96747,-239.0542)"
     id="layer4" />
  <g
     transform="translate(522.96747,-239.0542)"
     id="layer9" />
  <g
     transform="translate(522.96747,-239.0542)"
     id="layer6">
    <rect
       width="24"
       height="24"
       x="498.96747"
       y="239.0542"
       transform="scale(-1,1)"
       id="rect8023"
       style="opacity:0;fill:#ffffff;fill-opacity:1;stroke:none;display:inline" />
    <g
       transform="matrix(-1,0,0,1,-6.03708,-79.45101)"
       id="g8077"
       style="fill:#bebebe;fill-opacity:1;display:inline">
      <path
         d="M 508.6337,322.7975 C 509.02543,323.18924 509.02543,323.81998 508.6337,324.21171 L 499.63421,333.20922 C 499.24248,333.60095 498.61174,333.60095 498.22,333.20922 C 497.82826,332.81748 497.82826,332.18674 498.22,331.795 L 507.21948,322.7975 C 507.61122,322.40576 508.24196,322.40576 508.6337,322.7975 z"
         id="path8079"
         style="fill:#bebebe;fill-opacity:1;stroke:none" />
      <path
         d="M 507.22149,322.78764 C 507.61322,322.3959 508.24396,322.3959 508.6357,322.78764 L 515.63649,329.79047 C 516.02823,330.18221 516.02823,330.81295 515.63649,331.20468 C 515.24476,331.59642 514.61402,331.59642 514.22228,331.20468 L 507.22149,324.20185 C 506.82975,323.81012 506.82975,323.17938 507.22149,322.78764 z"
         id="path8081"
         style="fill:#bebebe;fill-opacity:1;stroke:none" />
      <path
         d="M 515.63649,331.20468 C 515.24475,331.59642 514.61402,331.59642 514.22228,331.20468 L 507.22148,324.20185 C 506.82975,323.81011 506.82975,323.17938 507.22148,322.78764 C 507.61322,322.3959 508.24396,322.3959 508.6357,322.78764 L 515.63649,329.79047 C 516.02823,330.18221 516.02823,330.81295 515.63649,331.20468 z"
         id="path8083"
         style="fill:#bebebe;fill-opacity:1;stroke:none" />
      <path
         d="M 505.2228,340.1976 C 504.83106,339.80587 504.83106,339.17513 505.2228,338.78339 L 514.22228,329.78589 C 514.61402,329.39415 515.24476,329.39415 515.63649,329.78589 C 516.02823,330.17763 516.02823,330.80836 515.63649,331.2001 L 506.63701,340.1976 C 506.24527,340.58934 505.61453,340.58934 505.2228,340.1976 L 505.2228,340.1976 z"
         id="path8085"
         style="fill:#bebebe;fill-opacity:1;stroke:none" />
      <path
         d="M 498.22,331.79042 C 498.61174,331.39868 499.24248,331.39868 499.63421,331.79042 L 506.63501,338.79325 C 507.02674,339.18499 507.02674,339.81573 506.63501,340.20747 C 506.24327,340.5992 505.61253,340.5992 505.22079,340.20747 L 498.22,333.20464 C 497.82826,332.8129 497.82826,332.18216 498.22,331.79042 L 498.22,331.79042 z"
         id="path8087"
         style="fill:#bebebe;fill-opacity:1;stroke:none" />
    </g>
    <path
       d="M -501.26159,254.34239 C -501.65329,253.95065 -502.28409,253.95065 -502.67579,254.34239 L -505.72839,257.35701 C -506.12009,257.74874 -506.12009,258.37948 -505.72839,258.77122 C -505.33659,259.16296 -504.70589,259.16296 -504.31419,258.77122 L -501.26159,255.7566 C -500.86989,255.36486 -500.86989,254.73412 -501.26159,254.34239 z"
       id="path8089"
       style="fill:#febf00;fill-opacity:1;stroke:none;display:inline" />
    <path
       d="M -501.059,250.57866 C -499.69954,251.93811 -499.70912,254.17118 -501.06858,255.53063 C -501.31063,255.82354 -501.69775,255.95397 -502.0677,255.86727 C -502.43766,255.78056 -502.72652,255.4917 -502.81322,255.12175 C -502.89992,254.7518 -502.76949,254.36468 -502.47658,254.12263 C -501.88231,253.52835 -501.88231,252.59052 -502.47658,251.99625 C -502.86804,251.60479 -502.86804,250.97012 -502.47658,250.57866 C -502.08513,250.1872 -501.45045,250.1872 -501.059,250.57866 L -501.059,250.57866 z"
       id="path8091"
       style="fill:#febf00;fill-opacity:1;stroke:none;stroke-width:4.61399698;stroke-linecap:round;stroke-linejoin:miter;stroke-miterlimit:4;stroke-dasharray:none;stroke-dashoffset:220;stroke-opacity:1;display:inline" />
    <path
       d="M -509.74819,243.32982 C -510.13989,243.72156 -510.13989,244.3523 -509.74819,244.74404 L -502.67349,251.75935 C -502.28169,252.15108 -501.65099,252.15108 -501.25919,251.75935 C -500.86749,251.36761 -500.86749,250.73687 -501.25919,250.34513 L -508.33399,243.32982 C -508.72569,242.93809 -509.35649,242.93809 -509.74819,243.32982 L -509.74819,243.32982 z"
       id="path8093"
       style="fill:url(#linearGradient8924);fill-opacity:1;stroke:none;display:inline" />
    <rect
       width="6.000001"
       height="2.0000017"
       rx="1.0000008"
       ry="1.0000008"
       x="500.03717"
       y="257.0542"
       transform="scale(-1,1)"
       id="rect8095"
       style="fill:#febf00;fill-opacity:1;stroke:none;display:inline" />
  </g>
</svg>
