<?xml version="1.0" encoding="UTF-8" standalone="no"?>
<!-- Created with Inkscape (http://www.inkscape.org/) -->
<svg
   xmlns:svg="http://www.w3.org/2000/svg"
   xmlns="http://www.w3.org/2000/svg"
   version="1.0"
   width="24"
   height="24"
   id="svg7384">
  <title
     id="title9167">Moblin Icon Theme</title>
  <defs
     id="defs7386" />
  <g
     transform="translate(496,-436.00061)"
     id="layer3" />
  <g
     transform="translate(496,-436.00061)"
     id="layer5" />
  <g
     transform="translate(496,-436.00061)"
     id="layer7" />
  <g
     transform="translate(496,-436.00061)"
     id="layer2" />
  <g
     transform="translate(496,-436.00061)"
     id="layer8" />
  <g
     transform="translate(496,-1388.3628)"
     id="layer1" />
  <g
     transform="translate(496,-436.00061)"
     id="layer11" />
  <g
     transform="translate(496,-436.00061)"
     id="layer4" />
  <g
     transform="translate(496,-436.00061)"
     id="layer9" />
  <g
     transform="translate(496,-436.00061)"
     id="layer10" />
  <g
     transform="translate(496,-436.00061)"
     id="layer6">
    <rect
       width="24"
       height="24"
       x="472"
       y="436.00061"
       transform="scale(-1,1)"
       id="rect5885"
       style="opacity:0;fill:#f5f5f5;fill-opacity:1;stroke:none;display:inline" />
    <path
       d="M -489.1875,442.125 C -489.36684,442.1734 -489.52915,442.27079 -489.65625,442.40625 L -493.65625,446.40625 C -494.04144,446.79587 -494.04144,447.42288 -493.65625,447.8125 L -489.71875,451.75 C -489.3218,452.13833 -488.6852,452.13133 -488.29687,451.73438 C -487.90855,451.33742 -487.91555,450.70083 -488.3125,450.3125 L -491.53125,447.09375 L -488.25,443.84375 C -487.88964,443.53675 -487.79388,443.01915 -488.02057,442.60355 C -488.24726,442.18795 -488.73429,441.98823 -489.1875,442.125 z"
       id="path5902"
       style="fill:#bebebe;fill-opacity:1;stroke:none;stroke-width:2;stroke-linecap:round;stroke-linejoin:round;stroke-miterlimit:4;stroke-dasharray:none;stroke-opacity:1" />
    <path
       d="M -479.15625,442.125 C -479.52936,442.19269 -479.83209,442.46557 -479.93802,442.82968 C -480.04394,443.19379 -479.93483,443.58648 -479.65625,443.84375 L -476.375,447.09375 L -479.59375,450.3125 C -479.9907,450.70083 -479.9977,451.33742 -479.60938,451.73438 C -479.22105,452.13133 -478.58445,452.13833 -478.1875,451.75 L -474.25,447.8125 C -473.86481,447.42288 -473.86481,446.79587 -474.25,446.40625 L -478.25,442.40625 C -478.48555,442.16604 -478.82609,442.06035 -479.15625,442.125 L -479.15625,442.125 z"
       id="path5904"
       style="fill:#bebebe;fill-opacity:1;stroke:none;stroke-width:2;stroke-linecap:round;stroke-linejoin:round;stroke-miterlimit:4;stroke-dasharray:none;stroke-opacity:1" />
    <path
       d="M -493.1875,446.03125 C -493.73978,446.08303 -494.14553,446.57272 -494.09375,447.125 C -494.04197,447.67728 -493.55228,448.08303 -493,448.03125 L -475.0625,448.03125 C -474.70186,448.03635 -474.36642,447.84687 -474.18461,447.53538 C -474.00281,447.22388 -474.00281,446.83862 -474.18461,446.52712 C -474.36642,446.21563 -474.70186,446.02615 -475.0625,446.03125 L -493,446.03125 C -493.06236,446.02538 -493.12514,446.02538 -493.1875,446.03125 z"
       id="path5947"
       style="fill:#bebebe;fill-opacity:1;stroke:none;stroke-width:2;stroke-linecap:round;stroke-linejoin:round;marker:none;stroke-miterlimit:4;stroke-dasharray:none;stroke-dashoffset:0;stroke-opacity:1;visibility:visible;display:inline;overflow:visible;enable-background:accumulate" />
  </g>
</svg>
