<?xml version="1.0" encoding="UTF-8" standalone="no"?>
<!-- Created with Inkscape (http://www.inkscape.org/) -->
<svg
   xmlns:svg="http://www.w3.org/2000/svg"
   xmlns="http://www.w3.org/2000/svg"
   xmlns:xlink="http://www.w3.org/1999/xlink"
   version="1.0"
   width="24"
   height="24"
   id="svg7384">
  <defs
     id="defs7386">
    <linearGradient
       id="linearGradient5983-0">
      <stop
         id="stop5985-5"
         style="stop-color:#febf00;stop-opacity:1"
         offset="0" />
      <stop
         id="stop5987-8"
         style="stop-color:#febf00;stop-opacity:0"
         offset="1" />
    </linearGradient>
    <linearGradient
       x1="496.04486"
       y1="348.08725"
       x2="503.06183"
       y2="341.03033"
       id="linearGradient8923"
       xlink:href="#linearGradient5983-0"
       gradientUnits="userSpaceOnUse"
       gradientTransform="translate(-1047.9674,-97.0901)" />
  </defs>
  <g
     transform="translate(556.00464,-239.49036)"
     id="layer3" />
  <g
     transform="translate(556.00464,-239.49036)"
     id="layer5" />
  <g
     transform="translate(556.00464,-239.49036)"
     id="layer7" />
  <g
     transform="translate(556.00464,-239.49036)"
     id="layer2" />
  <g
     transform="translate(556.00464,-239.49036)"
     id="layer8" />
  <g
     transform="translate(556.00464,-1191.8525)"
     id="layer1" />
  <g
     transform="translate(556.00464,-239.49036)"
     id="layer4" />
  <g
     transform="translate(556.00464,-239.49036)"
     id="layer9" />
  <g
     transform="translate(556.00464,-239.49036)"
     id="layer6">
    <rect
       width="24"
       height="24"
       x="532.00464"
       y="239.49036"
       transform="scale(-1,1)"
       id="rect8021"
       style="opacity:0;fill:#ffffff;fill-opacity:1;stroke:none;display:inline" />
    <g
       transform="translate(-1047.9674,-79.45101)"
       id="g8034"
       style="fill:#bebebe;fill-opacity:1;display:inline">
      <path
         d="M 508.6337,322.7975 C 509.02543,323.18924 509.02543,323.81998 508.6337,324.21171 L 499.63421,333.20922 C 499.24248,333.60095 498.61174,333.60095 498.22,333.20922 C 497.82826,332.81748 497.82826,332.18674 498.22,331.795 L 507.21948,322.7975 C 507.61122,322.40576 508.24196,322.40576 508.6337,322.7975 z"
         id="rect3605-2"
         style="fill:#bebebe;fill-opacity:1;stroke:none" />
      <path
         d="M 507.22149,322.78764 C 507.61322,322.3959 508.24396,322.3959 508.6357,322.78764 L 515.63649,329.79047 C 516.02823,330.18221 516.02823,330.81295 515.63649,331.20468 C 515.24476,331.59642 514.61402,331.59642 514.22228,331.20468 L 507.22149,324.20185 C 506.82975,323.81012 506.82975,323.17938 507.22149,322.78764 z"
         id="rect3609"
         style="fill:#bebebe;fill-opacity:1;stroke:none" />
      <path
         d="M 515.63649,331.20468 C 515.24475,331.59642 514.61402,331.59642 514.22228,331.20468 L 507.22148,324.20185 C 506.82975,323.81011 506.82975,323.17938 507.22148,322.78764 C 507.61322,322.3959 508.24396,322.3959 508.6357,322.78764 L 515.63649,329.79047 C 516.02823,330.18221 516.02823,330.81295 515.63649,331.20468 z"
         id="path2836"
         style="fill:#bebebe;fill-opacity:1;stroke:none" />
      <path
         d="M 505.2228,340.1976 C 504.83106,339.80587 504.83106,339.17513 505.2228,338.78339 L 514.22228,329.78589 C 514.61402,329.39415 515.24476,329.39415 515.63649,329.78589 C 516.02823,330.17763 516.02823,330.80836 515.63649,331.2001 L 506.63701,340.1976 C 506.24527,340.58934 505.61453,340.58934 505.2228,340.1976 L 505.2228,340.1976 z"
         id="path2838"
         style="fill:#bebebe;fill-opacity:1;stroke:none" />
      <path
         d="M 498.22,331.79042 C 498.61174,331.39868 499.24248,331.39868 499.63421,331.79042 L 506.63501,338.79325 C 507.02674,339.18499 507.02674,339.81573 506.63501,340.20747 C 506.24327,340.5992 505.61253,340.5992 505.22079,340.20747 L 498.22,333.20464 C 497.82826,332.8129 497.82826,332.18216 498.22,331.79042 L 498.22,331.79042 z"
         id="path2840"
         style="fill:#bebebe;fill-opacity:1;stroke:none" />
    </g>
    <path
       d="M -552.74289,254.34239 C -552.35119,253.95065 -551.72039,253.95065 -551.32869,254.34239 L -548.27609,257.35701 C -547.88439,257.74874 -547.88439,258.37948 -548.27609,258.77122 C -548.66789,259.16296 -549.29859,259.16296 -549.69039,258.77122 L -552.74289,255.7566 C -553.13469,255.36486 -553.13469,254.73412 -552.74289,254.34239 L -552.74289,254.34239 z"
       id="rect2841-5"
       style="fill:#febf00;fill-opacity:1;stroke:none;display:inline" />
    <path
       d="M -552.94548,250.57866 C -554.30494,251.93811 -554.29536,254.17118 -552.9359,255.53063 C -552.69385,255.82354 -552.30673,255.95397 -551.93678,255.86727 C -551.56682,255.78056 -551.27796,255.4917 -551.19126,255.12175 C -551.10456,254.7518 -551.23499,254.36468 -551.5279,254.12263 C -552.12217,253.52835 -552.12217,252.59052 -551.5279,251.99625 C -551.13644,251.60479 -551.13644,250.97012 -551.5279,250.57866 C -551.91935,250.1872 -552.55403,250.1872 -552.94548,250.57866 L -552.94548,250.57866 z"
       id="path2829"
       style="fill:#febf00;fill-opacity:1;stroke:none;stroke-width:4.61399698;stroke-linecap:round;stroke-linejoin:miter;stroke-miterlimit:4;stroke-dasharray:none;stroke-dashoffset:220;stroke-opacity:1;display:inline" />
    <rect
       width="6.000001"
       height="2.0000017"
       rx="1.0000008"
       ry="1.0000008"
       x="-553.96753"
       y="257.0542"
       id="rect2844"
       style="fill:#febf00;fill-opacity:1;stroke:none;display:inline" />
    <path
       d="M -544.25629,243.32982 C -543.86459,243.72156 -543.86459,244.3523 -544.25629,244.74404 L -551.33109,251.75935 C -551.72279,252.15108 -552.35349,252.15108 -552.74529,251.75935 C -553.13699,251.36761 -553.13699,250.73687 -552.74529,250.34513 L -545.67049,243.32982 C -545.27879,242.93809 -544.64809,242.93809 -544.25629,243.32982 z"
       id="path9380"
       style="fill:url(#linearGradient8923);fill-opacity:1;stroke:none;display:inline" />
  </g>
</svg>
