<?xml version="1.0" encoding="UTF-8" standalone="no"?>
<!-- Created with Inkscape (http://www.inkscape.org/) -->
<svg
   xmlns:svg="http://www.w3.org/2000/svg"
   xmlns="http://www.w3.org/2000/svg"
   version="1.0"
   width="24"
   height="24"
   id="svg7384">
  <defs
     id="defs7386" />
  <g
     transform="translate(426.935,-239.05426)"
     id="layer3" />
  <g
     transform="translate(426.935,-239.05426)"
     id="layer5" />
  <g
     transform="translate(426.935,-239.05426)"
     id="layer7" />
  <g
     transform="translate(426.935,-239.05426)"
     id="layer2" />
  <g
     transform="translate(426.935,-239.05426)"
     id="layer8" />
  <g
     transform="translate(426.935,-1191.4164)"
     id="layer1" />
  <g
     transform="translate(426.935,-239.05426)"
     id="layer4" />
  <g
     transform="translate(426.935,-239.05426)"
     id="layer9" />
  <g
     transform="translate(426.935,-239.05426)"
     id="layer6">
    <rect
       width="24"
       height="24"
       x="402.935"
       y="239.05426"
       transform="scale(-1,1)"
       id="rect8944"
       style="opacity:0;fill:#ffffff;fill-opacity:1;stroke:none;display:inline" />
    <g
       transform="translate(-891.9674,-200.09239)"
       id="g9010"
       style="fill:#bebebe;fill-opacity:1;display:inline">
      <g
         transform="translate(455.61023,425.9142)"
         id="layer1-06"
         style="fill:#bebebe;fill-opacity:1">
        <path
           d="M 11.684872,21.874014 C 11.293135,21.482277 11.293135,20.851537 11.684872,20.4598 L 16.681907,15.470221 C 17.073644,15.078484 17.704383,15.078484 18.096121,15.470221 C 18.487858,15.861958 18.487858,16.492697 18.096121,16.884435 L 13.099086,21.874014 C 12.707349,22.265751 12.076609,22.265751 11.684872,21.874014 L 11.684872,21.874014 z"
           id="rect2828-8"
           style="fill:#bebebe;fill-opacity:1;stroke:none" />
        <rect
           width="2"
           height="9.999999"
           rx="1"
           ry="1"
           x="15.175829"
           y="-26.389765"
           transform="matrix(0,1,-1,0,0,0)"
           id="rect2854"
           style="fill:#bebebe;fill-opacity:1;stroke:none" />
        <rect
           width="2"
           height="9.999999"
           rx="1"
           ry="1"
           x="33.175827"
           y="-26.389765"
           transform="matrix(0,1,-1,0,0,0)"
           id="rect2858"
           style="fill:#bebebe;fill-opacity:1;stroke:none" />
        <rect
           width="2"
           height="9.999999"
           rx="1"
           ry="1"
           x="11.389766"
           y="20.175829"
           id="rect2860"
           style="fill:#bebebe;fill-opacity:1;stroke:none" />
        <rect
           width="2"
           height="9.999999"
           rx="1"
           ry="1"
           x="29.389763"
           y="20.175829"
           id="rect2862"
           style="fill:#bebebe;fill-opacity:1;stroke:none" />
        <path
           d="M 31.096155,21.874014 C 31.487892,21.482277 31.487892,20.851537 31.096155,20.4598 L 26.09912,15.470221 C 25.707383,15.078484 25.076644,15.078484 24.684906,15.470221 C 24.293169,15.861958 24.293169,16.492697 24.684906,16.884435 L 29.681941,21.874014 C 30.073678,22.265751 30.704418,22.265751 31.096155,21.874014 L 31.096155,21.874014 z"
           id="path2864"
           style="fill:#bebebe;fill-opacity:1;stroke:none" />
        <path
           d="M 11.684872,28.480516 C 11.293135,28.872253 11.293135,29.502993 11.684872,29.89473 L 16.681907,34.884309 C 17.073644,35.276046 17.704383,35.276046 18.096121,34.884309 C 18.487858,34.492572 18.487858,33.861833 18.096121,33.470095 L 13.099086,28.480516 C 12.707349,28.088779 12.076609,28.088779 11.684872,28.480516 L 11.684872,28.480516 z"
           id="path2866"
           style="fill:#bebebe;fill-opacity:1;stroke:none" />
        <path
           d="M 31.096155,28.480516 C 31.487892,28.872253 31.487892,29.502993 31.096155,29.89473 L 26.09912,34.884309 C 25.707383,35.276046 25.076644,35.276046 24.684906,34.884309 C 24.293169,34.492572 24.293169,33.861833 24.684906,33.470095 L 29.681941,28.480516 C 30.073678,28.088779 30.704418,28.088779 31.096155,28.480516 z"
           id="path2868"
           style="fill:#bebebe;fill-opacity:1;stroke:none" />
      </g>
      <path
         d="M 18.325429,650.61564 C 18.325429,650.61564 19.325429,651.61564 19.325429,651.61564 L 19.319729,660.92133 C 19.319729,660.92133 18.319729,661.92133 18.319729,661.92133 C 18.319729,661.92133 17.319729,660.92133 17.319729,660.92133 L 17.325429,651.61564 C 17.325429,651.61564 18.325429,650.61564 18.325429,650.61564 z"
         transform="matrix(0.7071068,-0.7071068,0.7071068,0.7071068,0,0)"
         id="rect9005"
         style="fill:#bebebe;fill-opacity:1;stroke:none;display:inline" />
    </g>
    <g
       transform="translate(-891.9674,-200.09239)"
       id="g9022"
       style="fill:#bebebe;fill-opacity:1;display:inline">
      <path
         d="M 481.00306,447.0967 C 481.00306,447.0967 479.58885,447.0967 479.58885,447.0967 L 473.01277,453.68084 C 473.01277,453.68084 473.01277,455.09506 473.01277,455.09506 C 473.01277,455.09506 474.42698,455.09506 474.42698,455.09506 L 481.00306,448.51091 C 481.00306,448.51091 481.00306,447.0967 481.00306,447.0967 L 481.00306,447.0967 z"
         id="path9008"
         style="fill:#bebebe;fill-opacity:1;stroke:none;display:inline" />
    </g>
  </g>
</svg>
