<?xml version="1.0" encoding="UTF-8" standalone="no"?>
<!-- Created with Inkscape (http://www.inkscape.org/) -->
<svg
   xmlns:svg="http://www.w3.org/2000/svg"
   xmlns="http://www.w3.org/2000/svg"
   version="1.0"
   width="24"
   height="24.059341"
   id="svg7384">
  <defs
     id="defs7386" />
  <g
     transform="translate(330.96747,-238.94586)"
     id="layer3" />
  <g
     transform="translate(330.96747,-238.94586)"
     id="layer5" />
  <g
     transform="translate(330.96747,-238.94586)"
     id="layer7" />
  <g
     transform="translate(330.96747,-238.94586)"
     id="layer2" />
  <g
     transform="translate(330.96747,-238.94586)"
     id="layer8" />
  <g
     transform="translate(330.96747,-1191.308)"
     id="layer1" />
  <g
     transform="translate(330.96747,-238.94586)"
     id="layer4" />
  <g
     transform="translate(330.96747,-238.94586)"
     id="layer9" />
  <g
     transform="translate(330.96747,-238.94586)"
     id="layer6">
    <rect
       width="24"
       height="24"
       x="306.96747"
       y="239.00006"
       transform="scale(-1,1)"
       id="rect8936"
       style="fill:none;fill-opacity:1;stroke:none;display:inline" />
    <rect
       width="17.977303"
       height="2"
       rx="1"
       ry="1"
       x="239.00006"
       y="-309.96747"
       transform="matrix(0,1,1,0,0,0)"
       id="rect2852-3-1"
       style="fill:#bebebe;fill-opacity:1;stroke:none;display:inline" />
    <rect
       width="17.977303"
       height="2"
       rx="1"
       ry="1"
       x="239.00006"
       y="-329.96747"
       transform="matrix(0,1,1,0,0,0)"
       id="rect2862-7-6"
       style="fill:#bebebe;fill-opacity:1;stroke:none;display:inline" />
    <rect
       width="22"
       height="2"
       rx="1"
       ry="1"
       x="-329.96747"
       y="-240.94586"
       transform="scale(1,-1)"
       id="rect2880-4-0"
       style="fill:#bebebe;fill-opacity:1;stroke:none;display:inline" />
    <rect
       width="22"
       height="2"
       rx="1"
       ry="1"
       x="-329.96747"
       y="-256.94586"
       transform="scale(1,-1)"
       id="rect2883-9"
       style="fill:#bebebe;fill-opacity:1;stroke:none;display:inline" />
    <rect
       width="4.1826186"
       height="2"
       rx="1"
       ry="1"
       x="255.77325"
       y="-319.96747"
       transform="matrix(0,1,1,0,0,0)"
       id="rect2885-3"
       style="fill:#bebebe;fill-opacity:1;stroke:none;display:inline" />
    <path
       d="M -320.00199,258.5707 L -322.96379,261.591 C -322.96379,261.591 -322.96379,263.0052 -322.96379,263.0052 C -322.96379,263.0052 -321.54959,263.0052 -321.54959,263.0052 L -318.58769,259.9849 C -318.19599,259.5932 -318.19599,258.9625 -318.58769,258.5707 C -318.97949,258.179 -319.61019,258.179 -320.00199,258.5707 z"
       id="rect2882-8"
       style="fill:#bebebe;fill-opacity:1;stroke:none;display:inline" />
    <path
       d="M -317.94479,258.5707 L -314.96959,261.5895 C -314.96959,261.5895 -314.96959,263.0037 -314.96959,263.0037 C -314.96959,263.0037 -316.38379,263.0037 -316.38379,263.0037 L -319.35909,259.9849 C -319.75079,259.5932 -319.75079,258.9625 -319.35909,258.5707 C -318.96729,258.179 -318.33659,258.179 -317.94479,258.5707 z"
       id="path2887-0"
       style="fill:#bebebe;fill-opacity:1;stroke:none;display:inline" />
    <rect
       width="7.8915997"
       height="1.6629211"
       rx="1"
       ry="1"
       x="244.10846"
       y="-320.95746"
       transform="matrix(0,1,1,0,0,0)"
       id="rect4847"
       style="fill:#a0da00;fill-opacity:1;stroke:none;display:inline" />
    <path
       d="M -320.71299,245.4562 L -317.38759,248.5975 C -317.06179,248.9067 -316.53739,248.9067 -316.21169,248.5975 C -315.88599,248.2884 -315.88599,247.7906 -316.21169,247.4815 L -319.53709,244.3402 C -319.86279,244.031 -320.38729,244.031 -320.71299,244.3402 C -321.03869,244.6493 -321.03869,245.1471 -320.71299,245.4562 z"
       id="rect4849"
       style="fill:#a0da00;fill-opacity:1;stroke:none;display:inline" />
    <path
       d="M -320.72309,250.652 L -317.39089,247.4883 C -317.06519,247.1792 -316.54079,247.1792 -316.21509,247.4883 C -315.88929,247.7974 -315.88929,248.2952 -316.21509,248.6043 L -319.54719,251.7681 C -319.87299,252.0772 -320.39739,252.0772 -320.72309,251.7681 C -321.04879,251.4589 -321.04879,250.9612 -320.72309,250.652 L -320.72309,250.652 z"
       id="rect4851"
       style="fill:#a0da00;fill-opacity:1;stroke:none;display:inline" />
    <rect
       width="2.9759221"
       height="2.2093415"
       rx="1"
       ry="1"
       x="246.47589"
       y="-319.966"
       transform="matrix(0,1,1,0,0,0)"
       id="rect4855"
       style="fill:#a0da00;fill-opacity:1;stroke:none;display:inline" />
  </g>
</svg>
