<?xml version="1.0" encoding="UTF-8" standalone="no"?>
<!-- Created with Inkscape (http://www.inkscape.org/) -->
<svg
   xmlns:svg="http://www.w3.org/2000/svg"
   xmlns="http://www.w3.org/2000/svg"
   version="1.0"
   width="24"
   height="24.000004"
   id="svg7384">
  <title
     id="title9167">Moblin Icon Theme</title>
  <defs
     id="defs7386" />
  <g
     transform="translate(431.99998,-436)"
     id="layer3" />
  <g
     transform="translate(431.99998,-436)"
     id="layer5" />
  <g
     transform="translate(431.99998,-436)"
     id="layer7" />
  <g
     transform="translate(431.99998,-436)"
     id="layer2" />
  <g
     transform="translate(431.99998,-436)"
     id="layer8" />
  <g
     transform="translate(431.99998,-1388.3622)"
     id="layer1" />
  <g
     transform="translate(431.99998,-436)"
     id="layer11" />
  <g
     transform="translate(431.99998,-436)"
     id="layer4" />
  <g
     transform="translate(431.99998,-436)"
     id="layer12" />
  <g
     transform="translate(431.99998,-436)"
     id="layer9" />
  <g
     transform="translate(431.99998,-436)"
     id="layer10" />
  <g
     transform="translate(431.99998,-436)"
     id="layer6">
    <rect
       width="24"
       height="24"
       x="407.99997"
       y="436"
       transform="scale(-1,1)"
       id="rect7777"
       style="opacity:0;fill:#ffffff;fill-opacity:1;stroke:none;display:inline" />
    <path
       d="M -419.6875,436 C -422.81255,435.87456 -425.86507,437.59655 -427.28125,440.59375 C -429.16948,444.59001 -427.43377,449.39304 -423.4375,451.28125 C -423.11183,451.44514 -422.72277,451.41882 -422.42214,451.21255 C -422.1215,451.00629 -421.95694,450.65277 -421.99264,450.28994 C -422.02835,449.92711 -422.25868,449.61245 -422.59375,449.46875 C -425.61161,448.04284 -426.89469,444.4866 -425.46875,441.46875 C -424.04281,438.45089 -420.45535,437.16781 -417.4375,438.59375 C -414.41965,440.01966 -413.13656,443.5759 -414.5625,446.59375 C -415.32921,448.21642 -416.50483,449.24894 -418.21875,449.78125 C -418.57962,449.87024 -418.86137,450.15201 -418.95033,450.51288 C -419.0393,450.87375 -418.9208,451.25419 -418.64265,451.50072 C -418.36449,451.74724 -417.97257,451.81917 -417.625,451.6875 C -415.43249,451.00655 -413.73081,449.54453 -412.75,447.46875 C -410.86177,443.47249 -412.59747,438.66946 -416.59375,436.78125 C -417.59281,436.30919 -418.64582,436.04181 -419.6875,436 z"
       id="path7783"
       style="fill:#bebebe;fill-opacity:1;stroke:none;stroke-width:2.00000048;stroke-linecap:round;stroke-linejoin:miter;marker:none;stroke-miterlimit:4;stroke-dasharray:none;stroke-dashoffset:0;stroke-opacity:1;visibility:visible;display:inline;overflow:visible;enable-background:accumulate" />
    <path
       d="M -423.15625,449.46875 C -423.62188,449.57303 -423.94899,449.99173 -423.9375,450.46875 L -423.9375,455.96875 L -423.9375,456.375 L -423.65625,456.6875 L -420.625,459.71875 L -419.9375,460.375 L -419.21875,459.75 L -416.21875,457 L -415.46875,456.3125 L -416.1875,455.5625 L -416.53125,455.21875 L -415.15625,453.875 L -414.40625,453.15625 L -415.15625,452.4375 L -416.90625,450.75 L -416.90625,450.65625 C -416.90114,450.29561 -417.09062,449.96016 -417.40212,449.77835 C -417.71362,449.59654 -418.09888,449.59654 -418.41038,449.77835 C -418.72188,449.96016 -418.91136,450.29561 -418.90625,450.65625 L -418.90625,451.15625 L -418.90625,451.59375 L -418.59375,451.875 L -417.28125,453.15625 L -418.59375,454.46875 L -419.3125,455.15625 L -418.625,455.875 L -418.34375,456.1875 L -419.875,457.59375 L -421.9375,455.53125 L -421.9375,450.46875 C -421.93006,450.16089 -422.06486,449.86678 -422.30293,449.67144 C -422.54099,449.4761 -422.85577,449.40133 -423.15625,449.46875 z"
       id="path7793"
       style="fill:#bebebe;fill-opacity:1;stroke:none;stroke-width:2.00000048;stroke-linecap:round;stroke-linejoin:miter;marker:none;stroke-miterlimit:4;stroke-dasharray:none;stroke-dashoffset:0;stroke-opacity:1;visibility:visible;display:inline;overflow:visible;enable-background:accumulate" />
    <path
       d="M -420.00004,439 C -421.64514,439 -423.00014,440.35499 -423.00014,442.00009 C -423.00014,443.64519 -421.64514,445.00018 -420.00004,445.00018 C -418.35494,445.00018 -416.99995,443.64519 -416.99995,442.00009 C -416.99995,440.35499 -418.35494,439 -420.00004,439 z M -420.00004,441.00006 C -419.43708,441.00006 -419.00001,441.43712 -419.00001,442.00009 C -419.00001,442.56306 -419.43708,443.00012 -420.00004,443.00012 C -420.56301,443.00012 -421.00007,442.56306 -421.00007,442.00009 C -421.00007,441.43712 -420.56301,441.00006 -420.00004,441.00006 z"
       id="path7795"
       style="fill:#bebebe;fill-opacity:1;stroke:none;stroke-width:1.99993765;stroke-linecap:round;stroke-linejoin:miter;marker:none;stroke-miterlimit:4;stroke-dasharray:none;stroke-dashoffset:0;stroke-opacity:1;visibility:visible;display:inline;overflow:visible;enable-background:accumulate" />
  </g>
</svg>
