<?xml version="1.0" encoding="UTF-8" standalone="no"?>
<!-- Created with Inkscape (http://www.inkscape.org/) -->
<svg
   xmlns:svg="http://www.w3.org/2000/svg"
   xmlns="http://www.w3.org/2000/svg"
   version="1.0"
   width="24.000002"
   height="24"
   id="svg7384">
  <title
     id="title9167">Moblin Icon Theme</title>
  <defs
     id="defs7386" />
  <g
     transform="translate(368,-436)"
     id="layer3" />
  <g
     transform="translate(368,-436)"
     id="layer5" />
  <g
     transform="translate(368,-436)"
     id="layer7" />
  <g
     transform="translate(368,-436)"
     id="layer2" />
  <g
     transform="translate(368,-436)"
     id="layer8" />
  <g
     transform="translate(368,-1388.3622)"
     id="layer1" />
  <g
     transform="translate(368,-436)"
     id="layer11" />
  <g
     transform="translate(368,-436)"
     id="layer4" />
  <g
     transform="translate(368,-436)"
     id="layer9" />
  <g
     transform="translate(368,-436)"
     id="layer10" />
  <g
     transform="translate(368,-436)"
     id="layer6">
    <rect
       width="24"
       height="24"
       x="344"
       y="436"
       transform="scale(-1,1)"
       id="rect6102"
       style="opacity:0;fill:#f5f5f5;fill-opacity:1;stroke:none;display:inline" />
    <path
       d="M -356.02416,438.03209 C -360.42923,438.03209 -364.04094,441.61343 -364.04093,446.0185 C -364.04093,450.42356 -360.42923,454.03528 -356.02416,454.03527 C -351.6191,454.03527 -348.03775,450.42356 -348.03776,446.0185 C -348.03776,441.61343 -351.6191,438.03208 -356.02416,438.03209 z M -356.02416,440.03629 C -352.70122,440.03628 -350.04195,442.69556 -350.04195,446.0185 C -350.04194,449.34143 -352.70122,452.03107 -356.02416,452.03107 C -359.3471,452.03108 -362.03674,449.34143 -362.03674,446.0185 C -362.03675,442.69556 -359.3471,440.03629 -356.02416,440.03629 z"
       id="path6110"
       style="fill:#bebebe;fill-opacity:1;stroke:none;stroke-width:2.05818582;stroke-linecap:round;stroke-linejoin:miter;marker:none;stroke-miterlimit:4;stroke-dasharray:none;stroke-dashoffset:0;stroke-opacity:1;visibility:visible;display:inline;overflow:visible;enable-background:accumulate" />
    <path
       d="M -347.99625,451.99844 C -350.19331,451.99844 -352.00464,453.79674 -352.00464,455.99381 C -352.00464,458.19088 -350.19331,460.0022 -347.99625,460.0022 C -345.79918,460.0022 -344.00087,458.19088 -344.00087,455.99381 C -344.00087,453.79675 -345.79918,451.99843 -347.99625,451.99844 z M -347.99625,454.00263 C -346.88131,454.00263 -346.00507,454.87887 -346.00507,455.99381 C -346.00507,457.10875 -346.88131,457.99801 -347.99625,457.99801 C -349.11118,457.99801 -350.00044,457.10875 -350.00044,455.99381 C -350.00044,454.87888 -349.11119,454.00263 -347.99625,454.00263 z"
       id="path6112"
       style="fill:#bebebe;fill-opacity:1;stroke:none;stroke-width:4.80242825;stroke-linecap:round;stroke-linejoin:miter;marker:none;stroke-miterlimit:4;stroke-dasharray:none;stroke-dashoffset:0;stroke-opacity:1;visibility:visible;display:inline;overflow:visible;enable-background:accumulate" />
    <path
       d="M -355.93988,455.01181 A 1.1048543,1.1048543 0 1 1 -358.14959,455.01181 A 1.1048543,1.1048543 0 1 1 -355.93988,455.01181 z"
       transform="matrix(1.7952908,0,0,1.7952908,285.04278,-362.86205)"
       id="path6114"
       style="fill:#bebebe;fill-opacity:1;stroke:none;stroke-width:2;marker:none;visibility:visible;display:inline;overflow:visible;enable-background:accumulate" />
    <path
       d="M -355.93988,455.01181 A 1.1048543,1.1048543 0 1 1 -358.14959,455.01181 A 1.1048543,1.1048543 0 1 1 -355.93988,455.01181 z"
       transform="matrix(1.7952908,0,0,1.7952908,288.94974,-363.82912)"
       id="path6116"
       style="fill:#bebebe;fill-opacity:1;stroke:none;stroke-width:2;marker:none;visibility:visible;display:inline;overflow:visible;enable-background:accumulate" />
    <path
       d="M -355.93988,455.01181 A 1.1048543,1.1048543 0 1 1 -358.14959,455.01181 A 1.1048543,1.1048543 0 1 1 -355.93988,455.01181 z"
       transform="matrix(1.7952908,0,0,1.7952908,291.82799,-366.67444)"
       id="path6118"
       style="fill:#bebebe;fill-opacity:1;stroke:none;stroke-width:2;marker:none;visibility:visible;display:inline;overflow:visible;enable-background:accumulate" />
    <path
       d="M -355.93988,455.01181 A 1.1048543,1.1048543 0 1 1 -358.14959,455.01181 A 1.1048543,1.1048543 0 1 1 -355.93988,455.01181 z"
       transform="matrix(1.7952908,0,0,1.7952908,292.98267,-370.86205)"
       id="path6120"
       style="fill:#bebebe;fill-opacity:1;stroke:none;stroke-width:2;marker:none;visibility:visible;display:inline;overflow:visible;enable-background:accumulate" />
    <path
       d="M -355.93988,455.01181 A 1.1048543,1.1048543 0 1 1 -358.14959,455.01181 A 1.1048543,1.1048543 0 1 1 -355.93988,455.01181 z"
       transform="matrix(1.7952908,0,0,1.7952908,276.98267,-370.86205)"
       id="path6122"
       style="fill:#bebebe;fill-opacity:1;stroke:none;stroke-width:2;marker:none;visibility:visible;display:inline;overflow:visible;enable-background:accumulate" />
    <path
       d="M -355.93988,455.01181 A 1.1048543,1.1048543 0 1 1 -358.14959,455.01181 A 1.1048543,1.1048543 0 1 1 -355.93988,455.01181 z"
       transform="matrix(1.7952908,0,0,1.7952908,285.0156,-378.89498)"
       id="path6124"
       style="fill:#bebebe;fill-opacity:1;stroke:none;stroke-width:2;marker:none;visibility:visible;display:inline;overflow:visible;enable-background:accumulate" />
    <path
       d="M -355.93988,455.01181 A 1.1048543,1.1048543 0 1 1 -358.14959,455.01181 A 1.1048543,1.1048543 0 1 1 -355.93988,455.01181 z"
       transform="matrix(-1.7952908,0,0,1.7952908,-1001.1044,-364.04966)"
       id="path6126"
       style="fill:#bebebe;fill-opacity:1;stroke:none;stroke-width:2;marker:none;visibility:visible;display:inline;overflow:visible;enable-background:accumulate" />
    <path
       d="M -355.93988,455.01181 A 1.1048543,1.1048543 0 1 1 -358.14959,455.01181 A 1.1048543,1.1048543 0 1 1 -355.93988,455.01181 z"
       transform="matrix(-1.7952908,0,0,1.7952908,-1003.9827,-366.89498)"
       id="path6128"
       style="fill:#bebebe;fill-opacity:1;stroke:none;stroke-width:2;marker:none;visibility:visible;display:inline;overflow:visible;enable-background:accumulate" />
    <path
       d="M -355.93988,455.01181 A 1.1048543,1.1048543 0 1 1 -358.14959,455.01181 A 1.1048543,1.1048543 0 1 1 -355.93988,455.01181 z"
       transform="matrix(1.7952908,0,0,-1.7952908,288.94974,1255.9871)"
       id="path6130"
       style="fill:#bebebe;fill-opacity:1;stroke:none;stroke-width:2;marker:none;visibility:visible;display:inline;overflow:visible;enable-background:accumulate" />
    <path
       d="M -355.93988,455.01181 A 1.1048543,1.1048543 0 1 1 -358.14959,455.01181 A 1.1048543,1.1048543 0 1 1 -355.93988,455.01181 z"
       transform="matrix(1.7952908,0,0,-1.7952908,291.82799,1258.8324)"
       id="path6132"
       style="fill:#bebebe;fill-opacity:1;stroke:none;stroke-width:2;marker:none;visibility:visible;display:inline;overflow:visible;enable-background:accumulate" />
    <path
       d="M -355.93988,455.01181 A 1.1048543,1.1048543 0 1 1 -358.14959,455.01181 A 1.1048543,1.1048543 0 1 1 -355.93988,455.01181 z"
       transform="matrix(-1.7952908,0,0,-1.7952908,-1001.1044,1256.0201)"
       id="path6134"
       style="fill:#bebebe;fill-opacity:1;stroke:none;stroke-width:2;marker:none;visibility:visible;display:inline;overflow:visible;enable-background:accumulate" />
    <path
       d="M -355.93988,455.01181 A 1.1048543,1.1048543 0 1 1 -358.14959,455.01181 A 1.1048543,1.1048543 0 1 1 -355.93988,455.01181 z"
       transform="matrix(-1.7952908,0,0,-1.7952908,-1003.9827,1259.0529)"
       id="path6136"
       style="fill:#bebebe;fill-opacity:1;stroke:none;stroke-width:2;marker:none;visibility:visible;display:inline;overflow:visible;enable-background:accumulate" />
  </g>
</svg>
