<?xml version="1.0" encoding="UTF-8" standalone="no"?>
<!-- Created with Inkscape (http://www.inkscape.org/) -->
<svg
   xmlns:svg="http://www.w3.org/2000/svg"
   xmlns="http://www.w3.org/2000/svg"
   version="1.0"
   width="24"
   height="24"
   id="svg7384">
  <title
     id="title9167">Moblin Icon Theme</title>
  <defs
     id="defs7386">
    <clipPath
       id="clipPath7093-3">
      <path
         d="M -598.875,511 A 6.125,6.125 0 1 1 -611.125,511 A 6.125,6.125 0 1 1 -598.875,511 z"
         transform="matrix(0.9897959,0,0,0.9897959,-6.2932613,5.0319936)"
         id="path7095-3"
         style="fill:#000000;fill-opacity:1;stroke:none;stroke-width:1;marker:none;visibility:visible;display:inline;overflow:visible;enable-background:accumulate" />
    </clipPath>
  </defs>
  <g
     transform="translate(616,-500)"
     id="layer3" />
  <g
     transform="translate(616,-500)"
     id="layer5" />
  <g
     transform="translate(616,-500)"
     id="layer7" />
  <g
     transform="translate(616,-500)"
     id="layer2" />
  <g
     transform="translate(616,-500)"
     id="layer8" />
  <g
     transform="translate(616,-1452.3622)"
     id="layer1" />
  <g
     transform="translate(616,-500)"
     id="layer11" />
  <g
     transform="translate(616,-500)"
     id="layer4" />
  <g
     transform="translate(616,-500)"
     id="layer9" />
  <g
     transform="translate(616,-500)"
     id="layer10" />
  <g
     transform="translate(616,-500)"
     id="layer6">
    <rect
       width="24"
       height="24"
       x="-616"
       y="500"
       id="rect7047"
       style="opacity:0;fill:#ffffff;fill-opacity:1;stroke:none;display:inline" />
    <g
       transform="translate(-1292.9511,3.90993)"
       id="g7049"
       style="display:inline">
      <path
         d="M -2.8284264,179.43886 A 22.98097,22.98097 0 1 1 -48.790367,179.43886 A 22.98097,22.98097 0 1 1 -2.8284264,179.43886 z"
         transform="matrix(0,-0.3478599,-0.3483682,0,750.45609,498.1061)"
         id="path7051"
         style="fill:none;stroke:#bebebe;stroke-width:5.74524546;stroke-linecap:round;stroke-miterlimit:4;stroke-dasharray:none;stroke-dashoffset:0;stroke-opacity:1;display:inline" />
      <path
         d="M 693.99999,512.13886 C 694.39229,511.74659 695.02389,511.74659 695.41609,512.13885 L 699.95159,516.67228 C 699.95159,516.67228 699.95159,518.08842 699.95159,518.08842 C 699.95159,518.08842 698.53539,518.08841 698.53539,518.08841 L 693.99999,513.55498 C 693.60779,513.16272 693.60779,512.53112 693.99999,512.13886 L 693.99999,512.13886 L 693.99999,512.13886 z"
         id="path7053"
         style="fill:#bebebe;fill-opacity:1;stroke:none" />
    </g>
    <path
       d="M -599.5625,503.75 C -600.2427,503.75 -600.88924,503.80475 -601.53125,503.90625 L -601.96875,503.96875 L -601.96875,504.40625 L -602.03125,507.125 C -602.25128,507.18342 -602.47355,507.239 -602.6875,507.3125 L -604.28125,505.09375 L -604.5,504.75 L -604.90625,504.9375 C -605.69682,505.30718 -606.41728,505.77645 -607.09375,506.28125 L -607.4375,506.53125 L -607.25,506.90625 L -606.03125,509.3125 C -606.20906,509.47223 -606.39457,509.63698 -606.5625,509.8125 L -608.96875,508.59375 L -609.34375,508.40625 L -609.59375,508.75 C -610.10731,509.42482 -610.58931,510.14303 -610.96875,510.9375 L -611.15625,511.3125 L -610.8125,511.5625 L -608.59375,513.1875 C -608.6725,513.39991 -608.74732,513.6195 -608.8125,513.84375 L -611.5,513.90625 L -611.9375,513.90625 L -612,514.34375 C -612.10702,514.99706 -612.1875,515.66037 -612.1875,516.375 C -612.18751,516.59487 -612.16189,516.77114 -612.15625,516.90625 L -612.15625,517.3125 L -611.71875,517.375 L -609.0625,517.75 C -609.02086,518.00798 -608.9657,518.25575 -608.90625,518.5 L -611.3125,519.78125 L -611.65625,520 L -611.53125,520.375 C -611.25808,521.18789 -610.89613,521.98522 -610.46875,522.71875 L -610.28125,523.09375 L -609.875,522.9375 L -607.3125,522.03125 C -607.16419,522.22979 -607.00383,522.41034 -606.84375,522.59375 L -608.375,524.875 L -608.625,525.21875 L -608.3125,525.53125 C -607.67398,526.14242 -606.96888,526.61306 -606.25,527.0625 L -605.875,527.28125 L -605.59375,526.96875 L -603.75,524.96875 C -603.53355,525.07095 -603.314,525.16586 -603.09375,525.25 L -603.375,527.96875 L -603.4375,528.40625 L -603.03125,528.5 C -602.22088,528.73083 -601.34673,528.90485 -600.46875,528.96875 L -600.0625,529 L -599.96875,528.59375 L -599.25,525.9375 C -599.03025,525.92997 -598.80847,525.92852 -598.59375,525.90625 L -597.5625,528.4375 L -597.40625,528.8125 L -597,528.75 C -596.13867,528.57142 -595.31585,528.2802 -594.53125,527.9375 L -594.15625,527.78125 L -594.25,527.375 L -594.84375,524.71875 C -594.64946,524.61076 -594.46926,524.49739 -594.28125,524.375 L -592.21875,526.125 L -591.90625,526.40625 L -591.5625,526.15625 C -590.88938,525.6049 -590.28982,524.97936 -589.75,524.3125 L -589.5,523.96875 L -589.78125,523.65625 L -591.53125,521.59375 C -591.41163,521.40159 -591.29031,521.22569 -591.1875,521.03125 L -588.53125,521.625 L -588.125,521.71875 L -587.9375,521.34375 C -587.59285,520.54189 -587.35927,519.70575 -587.1875,518.84375 L -587.125,518.4375 L -587.5,518.28125 L -590.03125,517.25 C -590.01025,517.04719 -590.00715,516.83606 -590,516.625 L -587.375,515.90625 L -586.96875,515.8125 L -587,515.375 C -587.06713,514.51649 -587.19784,513.66918 -587.4375,512.84375 L -587.53125,512.4375 L -587.96875,512.5 L -590.6875,512.78125 C -590.7705,512.57859 -590.87279,512.38198 -590.96875,512.1875 L -588.96875,510.34375 L -588.65625,510.0625 L -588.875,509.6875 C -589.33313,508.95475 -589.82677,508.26091 -590.4375,507.625 L -590.75,507.3125 L -591.09375,507.5625 L -593.375,509.0625 C -593.53857,508.92335 -593.70163,508.78489 -593.875,508.65625 L -592.96875,506.09375 L -592.8125,505.6875 L -593.1875,505.5 C -593.91584,505.07219 -594.70665,504.68566 -595.53125,504.40625 L -595.90625,504.28125 L -596.125,504.625 L -597.4375,507.0625 C -597.66752,507.01283 -597.89348,506.93927 -598.125,506.90625 L -598.46875,504.21875 L -598.53125,503.8125 L -598.9375,503.78125 C -599.00994,503.77766 -599.10711,503.78699 -599.1875,503.78125 L -599.1875,503.75 L -599.5625,503.75 z M -599.5625,504.75 C -599.51591,504.75 -599.45586,504.74755 -599.40625,504.75 L -599.0625,507.40625 L -599,507.8125 L -598.59375,507.84375 C -598.14497,507.89419 -597.68941,507.98271 -597.28125,508.09375 L -596.90625,508.1875 L -596.71875,507.84375 L -595.46875,505.53125 C -594.98463,505.71768 -594.51782,505.93806 -594.0625,506.1875 L -594.96875,508.65625 L -595.09375,509.03125 L -594.75,509.25 C -594.39444,509.49022 -594.06784,509.77001 -593.75,510.0625 L -593.46875,510.3125 L -593.125,510.09375 L -590.90625,508.65625 C -590.57348,509.03759 -590.25471,509.44393 -589.96875,509.875 L -591.90625,511.6875 L -592.21875,511.9375 L -592.03125,512.28125 C -591.82093,512.66841 -591.61715,513.05341 -591.46875,513.46875 L -591.34375,513.84375 L -590.96875,513.8125 L -588.34375,513.53125 C -588.22542,514.02235 -588.11668,514.53736 -588.0625,515.0625 L -590.59375,515.71875 L -590.96875,515.84375 L -590.96875,516.21875 C -590.96801,516.26138 -590.96873,516.3153 -590.96875,516.375 C -590.96875,516.76664 -591.00849,517.13691 -591.0625,517.53125 L -591.125,517.9375 L -590.75,518.0625 L -588.3125,519.03125 C -588.43418,519.56179 -588.56104,520.06881 -588.75,520.5625 L -591.34375,519.96875 L -591.71875,519.875 L -591.90625,520.21875 C -592.11161,520.62675 -592.32021,521.00366 -592.5625,521.34375 L -592.78125,521.6875 L -592.53125,521.96875 L -590.84375,523.96875 C -591.17381,524.35091 -591.53362,524.72963 -591.90625,525.0625 L -593.90625,523.34375 L -594.1875,523.09375 L -594.53125,523.3125 C -594.8822,523.56767 -595.25455,523.79384 -595.65625,524 L -596,524.1875 L -595.90625,524.5625 L -595.3125,527.15625 C -595.80136,527.35091 -596.29496,527.49801 -596.8125,527.625 L -597.8125,525.1875 L -597.9375,524.8125 L -598.34375,524.875 C -598.74916,524.93334 -599.14412,524.96874 -599.5625,524.96875 C -599.59843,524.96875 -599.63052,524.96901 -599.65625,524.96875 L -600.03125,524.96875 L -600.15625,525.34375 L -600.8125,527.90625 C -601.32905,527.84796 -601.84606,527.75019 -602.34375,527.625 L -602.0625,524.96875 L -602.03125,524.59375 L -602.40625,524.46875 C -602.85435,524.312 -603.26564,524.11846 -603.65625,523.90625 L -604,523.71875 L -604.25,524.03125 L -606.0625,525.96875 C -606.49396,525.68743 -606.90418,525.38471 -607.28125,525.0625 L -605.8125,522.84375 L -605.59375,522.5 L -605.84375,522.21875 C -606.16124,521.87708 -606.4687,521.53015 -606.71875,521.15625 L -606.9375,520.8125 L -607.3125,520.9375 L -609.78125,521.84375 C -610.02016,521.39511 -610.22575,520.92059 -610.40625,520.4375 L -608.09375,519.1875 L -607.75,519 L -607.84375,518.625 C -607.96247,518.18281 -608.07902,517.71932 -608.125,517.28125 L -608.15625,516.875 L -608.5625,516.8125 L -611.1875,516.4375 C -611.18821,516.41992 -611.1875,516.39142 -611.1875,516.375 C -611.1875,515.89135 -611.09975,515.41739 -611.03125,514.9375 L -608.4375,514.84375 L -608.03125,514.84375 L -607.9375,514.46875 C -607.83997,514.03837 -607.70193,513.61335 -607.53125,513.1875 L -607.375,512.8125 L -607.6875,512.59375 L -609.84375,511.03125 C -609.59686,510.56952 -609.31107,510.11829 -609,509.6875 L -606.6875,510.875 L -606.3125,511.0625 L -606.0625,510.78125 C -605.76904,510.44124 -605.45158,510.11373 -605.09375,509.8125 L -604.78125,509.5625 L -604.9375,509.1875 L -606.125,506.875 C -605.70265,506.57825 -605.26496,506.29876 -604.8125,506.0625 L -603.28125,508.21875 L -603.0625,508.53125 L -602.6875,508.375 C -602.27648,508.21401 -601.84764,508.09691 -601.40625,508 L -601.03125,507.90625 L -601,507.5 L -600.9375,504.875 C -600.48188,504.81772 -600.03179,504.75 -599.5625,504.75 z M -599.5625,509.8125 C -603.18376,509.8125 -606.125,512.75374 -606.125,516.375 C -606.125,519.99626 -603.18376,522.9375 -599.5625,522.9375 C -595.94124,522.9375 -593,519.99626 -593,516.375 C -593,512.75374 -595.94124,509.8125 -599.5625,509.8125 z M -599.5625,510.8125 C -596.4873,510.8125 -594,513.2998 -594,516.375 C -594,519.4502 -596.4873,521.9375 -599.5625,521.9375 C -602.6377,521.9375 -605.125,519.4502 -605.125,516.375 C -605.125,513.2998 -602.6377,510.8125 -599.5625,510.8125 z"
       transform="matrix(0.9896907,0,0,0.9896907,-6.1185565,5.44845)"
       clip-path="url(#clipPath7093-3)"
       id="path7066"
       style="fill:#bebebe;fill-opacity:1;stroke:none;stroke-width:1.01041663;stroke-linecap:butt;stroke-linejoin:miter;marker:none;stroke-miterlimit:4;stroke-dashoffset:0;stroke-opacity:1;visibility:visible;display:inline;overflow:visible;enable-background:accumulate" />
  </g>
</svg>
