<?xml version="1.0" encoding="UTF-8" standalone="no"?>
<!-- Created with Inkscape (http://www.inkscape.org/) -->
<svg
   xmlns:svg="http://www.w3.org/2000/svg"
   xmlns="http://www.w3.org/2000/svg"
   version="1.0"
   width="24"
   height="24.00074"
   id="svg7384">
  <title
     id="title9167">Moblin Icon Theme</title>
  <defs
     id="defs7386" />
  <g
     transform="translate(368,-500)"
     id="layer3" />
  <g
     transform="translate(368,-500)"
     id="layer5" />
  <g
     transform="translate(368,-500)"
     id="layer7" />
  <g
     transform="translate(368,-500)"
     id="layer2" />
  <g
     transform="translate(368,-500)"
     id="layer8" />
  <g
     transform="translate(368,-1452.3622)"
     id="layer1" />
  <g
     transform="translate(368,-500)"
     id="layer11" />
  <g
     transform="translate(368,-500)"
     id="layer4" />
  <g
     transform="translate(368,-500)"
     id="layer9" />
  <g
     transform="translate(368,-500)"
     id="layer10" />
  <g
     transform="translate(368,-500)"
     id="layer6">
    <rect
       width="24"
       height="24"
       x="344"
       y="500"
       transform="scale(-1,1)"
       id="rect6309"
       style="opacity:0;fill:#ffffff;fill-opacity:1;stroke:none;display:inline" />
    <path
       d="M -352.901,502.19451 C -354.48979,502.19451 -355.80235,503.50709 -355.80236,505.09586 C -355.80236,506.68465 -354.48978,507.99721 -352.901,507.99722 C -351.31222,507.99722 -349.99966,506.68465 -349.99965,505.09586 C -349.99965,503.50708 -351.31223,502.19452 -352.901,502.19451 z M -352.901,504.20769 C -352.39433,504.2077 -351.9931,504.5892 -351.9931,505.09586 C -351.9931,505.60253 -352.39434,506.00377 -352.901,506.00377 C -353.40768,506.00376 -353.78917,505.60252 -353.78917,505.09586 C -353.78917,504.58919 -353.40766,504.20769 -352.901,504.20769 z"
       id="path6317"
       style="fill:#bebebe;fill-opacity:1;stroke:none;stroke-width:3.1666255;stroke-linecap:round;stroke-linejoin:miter;marker:none;stroke-miterlimit:4;stroke-dasharray:none;stroke-dashoffset:0;stroke-opacity:1;visibility:visible;display:inline;overflow:visible;enable-background:accumulate" />
    <path
       d="M -355.46875,508 L -355.78125,508.4375 L -359.84375,514.5625 L -360,514.8125 L -360,515.125 L -359.96875,517.9375 L -362.96875,517.9375 C -363.52103,517.92887 -363.97575,518.36959 -363.98438,518.92187 C -363.993,519.47416 -363.55228,519.92887 -363,519.9375 L -358.96875,519.9375 L -357.96875,519.9375 L -357.96875,518.9375 L -358,515.40625 L -354.40625,510 L -353.96875,510 L -353.96875,513 L -353.96875,514 L -352.96875,514 L -350,514 C -349.63936,514.00511 -349.30391,513.81563 -349.1221,513.50413 C -348.94029,513.19263 -348.94029,512.80737 -349.1221,512.49587 C -349.30391,512.18437 -349.63936,511.99489 -350,512 L -351.96875,512 L -351.96875,509.03125 L -352,508.0625 L -352.96875,508.03125 L -354.90625,508 L -355.46875,508 z"
       id="path6319"
       style="fill:#bebebe;fill-opacity:1;stroke:none;stroke-width:2.00000048;stroke-linecap:round;stroke-linejoin:miter;marker:none;stroke-miterlimit:4;stroke-dasharray:none;stroke-dashoffset:0;stroke-opacity:1;visibility:visible;display:inline;overflow:visible;enable-background:accumulate" />
    <path
       d="M -358.9375,514 C -359.40904,513.99315 -359.8213,514.31664 -359.92679,514.77628 C -360.03228,515.23592 -359.80234,515.7068 -359.375,515.90625 L -356,517.59375 L -356.03125,523 C -356.03636,523.36064 -355.84688,523.69609 -355.53538,523.8779 C -355.22388,524.05971 -354.83862,524.05971 -354.52712,523.8779 C -354.21562,523.69609 -354.02614,523.36064 -354.03125,523 L -354,517 L -354,516.375 L -354.5625,516.09375 L -358.46875,514.125 C -358.61237,514.04549 -358.77336,514.00256 -358.9375,514 z"
       id="path6321"
       style="fill:#bebebe;fill-opacity:1;stroke:none;stroke-width:2.00000048;stroke-linecap:round;stroke-linejoin:miter;marker:none;stroke-miterlimit:4;stroke-dasharray:none;stroke-dashoffset:0;stroke-opacity:1;visibility:visible;display:inline;overflow:visible;enable-background:accumulate" />
    <path
       d="M -359.4375,508 L -359.71875,508.3125 L -361.625,510.3125 C -361.91676,510.55966 -362.04206,510.95156 -361.94779,511.32214 C -361.85353,511.69272 -361.55621,511.97711 -361.1818,512.05482 C -360.8074,512.13253 -360.42146,511.98996 -360.1875,511.6875 L -358.59375,510 L -355,510 C -354.63936,510.00511 -354.30391,509.81563 -354.1221,509.50413 C -353.94029,509.19263 -353.94029,508.80737 -354.1221,508.49587 C -354.30391,508.18437 -354.63936,507.99489 -355,508 L -359,508 L -359.4375,508 z"
       id="path6360"
       style="fill:#bebebe;fill-opacity:1;stroke:none;stroke-width:2.00000048;stroke-linecap:round;stroke-linejoin:miter;marker:none;stroke-miterlimit:4;stroke-dasharray:none;stroke-dashoffset:0;stroke-opacity:1;visibility:visible;display:inline;overflow:visible;enable-background:accumulate" />
  </g>
</svg>
