<?xml version="1.0" encoding="UTF-8" standalone="no"?>
<!-- Created with Inkscape (http://www.inkscape.org/) -->
<svg
   xmlns:svg="http://www.w3.org/2000/svg"
   xmlns="http://www.w3.org/2000/svg"
   version="1.0"
   width="24"
   height="24"
   id="svg7384">
  <title
     id="title9167">Moblin Icon Theme</title>
  <defs
     id="defs7386" />
  <g
     transform="translate(368,-436)"
     id="layer3" />
  <g
     transform="translate(368,-436)"
     id="layer5" />
  <g
     transform="translate(368,-436)"
     id="layer7" />
  <g
     transform="translate(368,-436)"
     id="layer2" />
  <g
     transform="translate(368,-436)"
     id="layer8" />
  <g
     transform="translate(368,-1388.3622)"
     id="layer1" />
  <g
     transform="translate(368,-436)"
     id="layer11" />
  <g
     transform="translate(368,-436)"
     id="layer4" />
  <g
     transform="translate(368,-436)"
     id="layer9" />
  <g
     transform="translate(368,-436)"
     id="layer10" />
  <g
     transform="translate(368,-436)"
     id="layer6">
    <rect
       width="24"
       height="24"
       x="344"
       y="436"
       transform="scale(-1,1)"
       id="rect6102"
       style="opacity:0;fill:#f5f5f5;fill-opacity:1;stroke:none;display:inline" />
    <path
       d="M -348.15625,451.0625 L -348.21875,451.90625 L -349.09375,451.53125 C -349.31854,451.914 -349.49986,452.20654 -349.65625,452.46875 C -349.91752,452.37327 -350.17431,452.26577 -350.53125,452.125 L -351.15625,451.875 L -351.625,452.34375 C -352.39979,453.10734 -352.86196,454.12108 -352.9375,455.21875 L -353,455.84375 L -352.46875,456.15625 C -352.144,456.34728 -351.88588,456.51207 -351.65625,456.65625 C -351.7534,456.90042 -351.86787,457.1334 -352,457.46875 L -352.21875,458 L -351.875,458.40625 C -351.86392,458.42375 -351.88788,458.41873 -351.875,458.4375 L -351.84375,458.46875 L -351.84375,458.5 L -351.8125,458.53125 C -351.04934,459.36453 -349.97428,459.86783 -348.875,459.96875 L -348.25,460.03125 L -347.9375,459.46875 C -347.75059,459.15163 -347.60755,458.91629 -347.46875,458.6875 C -347.20862,458.7869 -346.92585,458.91927 -346.5625,459.0625 C -346.56194,459.06275 -346.34437,459.12492 -346.34375,459.125 L -345.96875,459.28125 L -345.5,458.84375 C -344.68123,458.1086 -344.1876,457.11169 -344.0625,456.03125 L -343.96875,455.375 L -344.53125,455.0625 C -344.89548,454.84878 -345.17856,454.654 -345.4375,454.5 C -345.32441,454.21191 -345.18902,453.8983 -345.03125,453.5 L -344.8125,452.875 L -345.25,452.4375 C -346.01186,451.64342 -347.05232,451.14839 -348.15625,451.0625 z M -347.78125,453.3125 C -347.58361,453.37809 -347.39476,453.45042 -347.21875,453.5625 C -347.27476,453.7042 -347.36078,453.88233 -347.40625,454 C -347.47057,454.16647 -347.52134,454.31718 -347.5625,454.4375 C -347.58308,454.49766 -347.60619,454.55295 -347.625,454.625 C -347.63441,454.66103 -347.64611,454.71032 -347.65625,454.78125 C -347.66132,454.81672 -347.65596,454.83616 -347.65625,454.90625 C -347.6564,454.9413 -347.66318,455.00709 -347.65625,455.0625 C -347.64932,455.11791 -347.59406,455.28037 -347.59375,455.28125 C -347.59345,455.28212 -347.52784,455.39136 -347.5,455.4375 C -347.47216,455.48364 -347.4586,455.53573 -347.4375,455.5625 C -347.39531,455.61604 -347.36904,455.6318 -347.34375,455.65625 C -347.29318,455.70516 -347.24781,455.72761 -347.21875,455.75 C -347.16064,455.79479 -347.11442,455.84081 -347.0625,455.875 C -346.95866,455.94339 -346.8364,456.00404 -346.6875,456.09375 C -346.58578,456.15503 -346.43553,456.27104 -346.3125,456.34375 C -346.38748,456.54362 -346.47056,456.73272 -346.59375,456.90625 C -346.73402,456.85206 -346.91607,456.76178 -347.03125,456.71875 C -347.18578,456.66102 -347.29244,456.63071 -347.40625,456.59375 C -347.46316,456.57527 -347.52304,456.54834 -347.59375,456.53125 C -347.6291,456.5227 -347.68045,456.50865 -347.75,456.5 C -347.81955,456.49135 -347.88532,456.44721 -348.21875,456.5625 C -348.55073,456.67683 -348.54473,456.7636 -348.59375,456.8125 C -348.64277,456.8614 -348.66507,456.8782 -348.6875,456.90625 C -348.73235,456.96236 -348.77933,457.01381 -348.8125,457.0625 C -348.87884,457.15989 -348.94639,457.26899 -349.03125,457.40625 C -349.08142,457.48741 -349.16074,457.62276 -349.21875,457.71875 C -349.4449,457.64482 -349.65047,457.56924 -349.84375,457.4375 C -349.80013,457.32806 -349.72362,457.18592 -349.6875,457.09375 C -349.63058,456.94849 -349.60025,456.82753 -349.5625,456.71875 C -349.54363,456.66436 -349.51851,456.60199 -349.5,456.53125 C -349.49075,456.49588 -349.4787,456.47809 -349.46875,456.40625 C -349.46377,456.37033 -349.46859,456.31964 -349.46875,456.25 C -349.46883,456.21518 -349.46182,456.17852 -349.46875,456.125 C -349.47568,456.07148 -349.53096,455.90707 -349.53125,455.90625 C -349.64218,455.58417 -349.7037,455.57941 -349.75,455.53125 C -349.7963,455.48309 -349.84776,455.4603 -349.875,455.4375 C -349.92949,455.39189 -349.95112,455.37873 -350,455.34375 C -350.09777,455.2738 -350.20399,455.18366 -350.34375,455.09375 C -350.43888,455.03255 -350.60333,454.94658 -350.71875,454.875 C -350.65602,454.66836 -350.58341,454.46533 -350.46875,454.28125 C -350.34124,454.32848 -350.16948,454.39971 -350.0625,454.4375 C -349.90203,454.49418 -349.77342,454.55859 -349.65625,454.59375 C -349.59766,454.61133 -349.53881,454.60962 -349.46875,454.625 C -349.43372,454.63269 -349.41075,454.64901 -349.34375,454.65625 C -349.27675,454.66349 -349.20332,454.70722 -348.875,454.59375 C -348.53076,454.47505 -348.51818,454.39443 -348.46875,454.34375 C -348.41932,454.29307 -348.3976,454.24791 -348.375,454.21875 C -348.32979,454.16043 -348.31538,454.11417 -348.28125,454.0625 C -348.21298,453.95916 -348.12067,453.86697 -348.03125,453.71875 C -347.96784,453.61364 -347.85724,453.441 -347.78125,453.3125 z"
       id="path6112"
       style="fill:#bebebe;fill-opacity:1;stroke:none;stroke-width:2.00000048;stroke-linecap:round;stroke-linejoin:miter;marker:none;stroke-miterlimit:4;stroke-dasharray:none;stroke-dashoffset:0;stroke-opacity:1;visibility:visible;display:inline;overflow:visible;enable-background:accumulate" />
    <path
       d="M -357.50002,443.99309 C -359.42108,443.99309 -361.00695,445.57896 -361.00695,447.50002 C -361.00695,449.42108 -359.42108,451.00696 -357.50002,451.00696 C -355.57896,451.00696 -353.99308,449.42108 -353.99308,447.50002 C -353.99308,445.57896 -355.57896,443.99309 -357.50002,443.99309 z M -357.50002,446.00697 C -356.66109,446.00697 -356.00697,446.66109 -356.00697,447.50002 C -356.00697,448.33895 -356.66109,448.99307 -357.50002,448.99307 C -358.33895,448.99307 -358.99307,448.33895 -358.99307,447.50002 C -358.99307,446.66109 -358.33895,446.00697 -357.50002,446.00697 z"
       id="path6870"
       style="fill:#bebebe;fill-opacity:1;stroke:none;stroke-width:1.80000544;stroke-linecap:round;stroke-linejoin:miter;marker:none;stroke-miterlimit:4;stroke-dasharray:none;stroke-dashoffset:0;stroke-opacity:1;visibility:visible;display:inline;overflow:visible;enable-background:accumulate" />
    <path
       d="M -356.03125,436.40625 C -357.07723,436.26694 -358.15071,436.29 -359.15625,436.4375 L -359.9375,436.5625 L -360,437.34375 L -360.21875,440.0625 C -361.09837,440.37817 -361.92409,440.82136 -362.65625,441.4375 L -365.0625,440.25 L -365.78125,439.90625 L -366.28125,440.53125 C -366.59654,440.92951 -366.92231,441.36156 -367.21875,441.875 C -367.50194,442.36546 -367.65854,442.8501 -367.8125,443.21875 L -368.125,443.96875 L -367.4375,444.4375 L -365.3125,445.875 C -365.50592,446.87106 -365.48764,447.85411 -365.3125,448.8125 L -367.5625,450.34375 L -368.21875,450.78125 L -367.9375,451.53125 C -367.57344,452.46527 -367.06377,453.38776 -366.4375,454.21875 L -365.9375,454.875 L -365.21875,454.53125 L -362.8125,453.375 C -362.42648,453.74102 -362.07233,454.11189 -361.5625,454.40625 C -361.09137,454.67827 -360.62491,454.79003 -360.15625,454.9375 L -359.96875,457.59375 L -359.90625,458.40625 L -359.125,458.53125 C -358.09853,458.67237 -357.04553,458.63443 -356.0625,458.5 L -355.28125,458.375 L -355.21875,457.59375 L -355,454.9375 C -354.00892,454.59873 -353.08876,454.09153 -352.28125,453.375 L -349.78125,454.34375 L -349.0625,454.59375 L -348.625,454 C -348.40746,453.71521 -348.21273,453.57046 -347.9375,453.09375 C -347.64862,452.59336 -347.38347,452.05686 -347.1875,451.5625 L -346.90625,450.8125 L -347.5625,450.34375 L -349.8125,448.84375 C -349.63739,447.84519 -349.64465,446.84659 -349.84375,445.875 L -347.65625,444.375 L -346.96875,443.9375 L -347.28125,443.1875 C -347.51425,442.62708 -347.89132,442.09745 -348.21875,441.5625 L -347.3125,441.125 L -349.1875,440.21875 L -349.71875,440.90625 L -350.0625,440.21875 L -352.4375,441.375 C -352.78439,441.07291 -353.10303,440.77847 -353.53125,440.53125 C -354.00321,440.25875 -354.48946,440.12257 -354.96875,439.96875 L -355.15625,437.3125 L -355.21875,436.5 L -356.03125,436.40625 z M -357.09375,438.375 L -356.90625,440.75 L -356.875,441.46875 L -356.15625,441.65625 C -355.57757,441.79326 -355.02811,441.96312 -354.53125,442.25 C -354.06758,442.51769 -353.66733,442.85702 -353.28125,443.25 L -352.78125,443.75 L -352.15625,443.4375 L -350,442.4375 C -349.83014,442.70122 -349.67506,442.96813 -349.53125,443.25 L -351.5,444.5625 L -352.09375,444.96875 L -351.875,445.6875 C -351.53646,446.77755 -351.52698,447.93146 -351.84375,449.0625 L -352.03125,449.78125 L -351.4375,450.1875 L -349.40625,451.5625 C -349.49172,451.73891 -349.56426,451.9344 -349.65625,452.09375 C -349.67853,452.13235 -349.69936,452.15716 -349.71875,452.1875 L -352.0625,451.28125 L -352.6875,451.03125 L -353.15625,451.53125 C -353.96844,452.41122 -355.04592,453.00617 -356.1875,453.28125 L -356.875,453.46875 L -356.9375,454.1875 L -357.125,456.53125 C -357.44069,456.55016 -357.74936,456.54395 -358.0625,456.53125 L -358.21875,454.1875 L -358.28125,453.4375 L -359,453.28125 C -359.57972,453.14029 -360.08729,452.96188 -360.5625,452.6875 C -361.07369,452.39236 -361.50735,452.00084 -361.9375,451.53125 L -362.4375,450.96875 L -363.125,451.3125 L -365.25,452.3125 C -365.41017,452.04942 -365.55291,451.77918 -365.6875,451.5 L -363.6875,450.125 L -363.09375,449.71875 L -363.28125,449.03125 C -363.58196,447.92332 -363.61953,446.77404 -363.28125,445.6875 L -363.0625,444.96875 L -363.65625,444.5625 L -365.65625,443.25 C -365.6037,443.13364 -365.5561,442.97215 -365.5,442.875 C -365.4145,442.72692 -365.28918,442.5837 -365.1875,442.4375 L -362.96875,443.5 L -362.3125,443.84375 L -361.8125,443.3125 C -361.03182,442.51402 -360.05609,441.98787 -359,441.71875 L -358.3125,441.53125 L -358.25,440.8125 L -358.0625,438.40625 C -357.73331,438.38414 -357.42128,438.3628 -357.09375,438.375 z"
       id="path11062"
       style="fill:#bebebe;fill-opacity:1;stroke:none;stroke-width:1.99999952;stroke-linecap:round;stroke-linejoin:miter;marker:none;stroke-miterlimit:4.30000019;stroke-dasharray:none;stroke-dashoffset:0;stroke-opacity:1;visibility:visible;display:inline;overflow:visible;enable-background:accumulate" />
  </g>
</svg>
