<?xml version="1.0" encoding="UTF-8" standalone="no"?>
<!-- Created with Inkscape (http://www.inkscape.org/) -->
<svg
   xmlns:svg="http://www.w3.org/2000/svg"
   xmlns="http://www.w3.org/2000/svg"
   version="1.0"
   width="24"
   height="24"
   id="svg7384">
  <title
     id="title9167">Moblin Icon Theme</title>
  <defs
     id="defs7386" />
  <g
     transform="translate(432,-436)"
     id="layer3" />
  <g
     transform="translate(432,-436)"
     id="layer5" />
  <g
     transform="translate(432,-436)"
     id="layer7" />
  <g
     transform="translate(432,-436)"
     id="layer2" />
  <g
     transform="translate(432,-436)"
     id="layer8" />
  <g
     transform="translate(432,-1388.3622)"
     id="layer1" />
  <g
     transform="translate(432,-436)"
     id="layer11" />
  <g
     transform="translate(432,-436)"
     id="layer4" />
  <g
     transform="translate(432,-436)"
     id="layer9" />
  <g
     transform="translate(432,-436)"
     id="layer10" />
  <g
     transform="translate(432,-436)"
     id="layer6">
    <rect
       width="24"
       height="24"
       x="408"
       y="436"
       transform="scale(-1,1)"
       id="rect5968"
       style="opacity:0;fill:#ffffff;fill-opacity:1;stroke:none;display:inline" />
    <path
       d="M -421.03012,436.12011 C -423.79258,436.12011 -426.03836,438.36589 -426.03835,441.12835 C -426.03835,443.89082 -423.79258,446.15936 -421.03012,446.15935 C -418.26765,446.15935 -415.99911,443.89082 -415.99911,441.12835 C -415.99911,438.36589 -418.26765,436.12011 -421.03012,436.12011 z M -421.03012,438.12341 C -419.34979,438.1234 -418.00241,439.44802 -418.00241,441.12835 C -418.0024,442.80869 -419.34978,444.15606 -421.03012,444.15606 C -422.71044,444.15607 -424.05782,442.80869 -424.05782,441.12835 C -424.05783,439.44802 -422.71045,438.12341 -421.03012,438.12341 z"
       id="path5976"
       style="fill:#bebebe;fill-opacity:1;stroke:none;stroke-width:2.74547672;stroke-linecap:round;stroke-linejoin:round;marker:none;stroke-miterlimit:4;stroke-dasharray:none;stroke-dashoffset:0;stroke-opacity:1;visibility:visible;display:inline;overflow:visible;enable-background:accumulate" />
    <path
       d="M -421.0625,444.3125 C -421.59008,444.36189 -421.98756,444.8142 -421.96875,445.34375 L -421.96875,451.75 C -422.02886,451.94335 -422.02886,452.1504 -421.96875,452.34375 L -421.96875,457 C -421.96869,457.55226 -421.52101,457.99994 -420.96875,458 L -416,458 C -415.44774,457.99994 -415.00006,457.55226 -415,457 L -415,454.03125 C -415.00006,453.47899 -415.44774,453.03131 -416,453.03125 L -416.96875,453.03125 L -416.96875,452.03125 C -416.96881,451.47899 -417.41649,451.03131 -417.96875,451.03125 L -419.96875,451.03125 L -419.96875,445.34375 C -419.9585,445.05608 -420.0727,444.77795 -420.28213,444.58048 C -420.49157,444.38302 -420.77593,444.28536 -421.0625,444.3125 z M -419.96875,453.03125 L -418.96875,453.03125 L -418.96875,454.03125 C -418.96869,454.58351 -418.52101,455.03119 -417.96875,455.03125 L -417,455.03125 L -417,456 L -419.96875,456 L -419.96875,453.03125 z"
       id="path5978"
       style="fill:#bebebe;fill-opacity:1;stroke:none;stroke-width:2;stroke-linecap:round;stroke-linejoin:round;marker:none;stroke-miterlimit:4;stroke-dasharray:none;stroke-dashoffset:0;stroke-opacity:1;visibility:visible;display:inline;overflow:visible;enable-background:accumulate" />
  </g>
</svg>
