<?xml version="1.0" encoding="UTF-8" standalone="no"?>
<!-- Created with Inkscape (http://www.inkscape.org/) -->
<svg
   xmlns:svg="http://www.w3.org/2000/svg"
   xmlns="http://www.w3.org/2000/svg"
   version="1.0"
   width="25.492599"
   height="24.00005"
   id="svg7384">
  <title
     id="title9167">Moblin Icon Theme</title>
  <defs
     id="defs7386" />
  <g
     transform="translate(369.4926,-436)"
     id="layer3" />
  <g
     transform="translate(369.4926,-436)"
     id="layer5" />
  <g
     transform="translate(369.4926,-436)"
     id="layer7" />
  <g
     transform="translate(369.4926,-436)"
     id="layer2" />
  <g
     transform="translate(369.4926,-436)"
     id="layer8" />
  <g
     transform="translate(369.4926,-1388.3622)"
     id="layer1" />
  <g
     transform="translate(369.4926,-436)"
     id="layer11" />
  <g
     transform="translate(369.4926,-436)"
     id="layer4" />
  <g
     transform="translate(369.4926,-436)"
     id="layer9" />
  <g
     transform="translate(369.4926,-436)"
     id="layer10" />
  <g
     transform="translate(369.4926,-436)"
     id="layer6">
    <rect
       width="24"
       height="24"
       x="344"
       y="436"
       transform="scale(-1,1)"
       id="rect6102"
       style="opacity:0;fill:#f5f5f5;fill-opacity:1;stroke:none;display:inline" />
    <path
       d="M -349.21875,450.5625 L -349.875,450.71875 C -350.99755,451.0108 -351.97036,451.68338 -352.625,452.65625 L -352.96875,453.1875 L -352.65625,453.71875 C -352.44314,454.09488 -352.29721,454.3884 -352.15625,454.65625 C -352.38891,454.84034 -352.63775,455.04926 -352.96875,455.3125 L -353.4375,455.65625 L -353.34375,456.25 C -353.3409,456.27175 -353.34782,456.25764 -353.34375,456.28125 L -353.34375,456.3125 L -353.34375,456.34375 C -353.0836,457.51891 -352.36794,458.53926 -351.40625,459.21875 L -350.90625,459.5625 L -350.34375,459.25 C -349.98167,459.04527 -349.69784,458.89253 -349.4375,458.75 C -349.24104,458.99117 -348.99872,459.27284 -348.71875,459.625 C -348.71838,459.6255 -348.53178,459.81212 -348.53125,459.8125 L -348.3125,460.09375 L -347.90625,460 L -347.6875,459.96875 C -346.54,459.72654 -345.53528,459.08726 -344.84375,458.15625 L -344.46875,457.625 L -344.78125,457.0625 C -345.01984,456.64246 -345.21149,456.2926 -345.375,456 C -345.10354,455.78284 -344.76722,455.52952 -344.375,455.21875 L -343.875,454.8125 L -344.03125,454.1875 C -344.31136,453.04842 -344.99569,452.04252 -345.96875,451.375 L -346.4375,452.0625 L -347.03125,451.3125 C -347.45772,451.55452 -347.80181,451.77458 -348.09375,451.9375 C -348.29672,451.69652 -348.52947,451.41859 -348.8125,451.0625 L -349.21875,450.5625 z M -349.84375,453 C -349.73638,453.12984 -349.58953,453.30159 -349.5,453.40625 C -349.38051,453.54593 -349.27682,453.6552 -349.1875,453.75 C -349.14284,453.7974 -349.11713,453.82513 -349.0625,453.875 C -349.03518,453.89993 -348.99234,453.92863 -348.9375,453.96875 C -348.88266,454.00887 -348.87071,454.08984 -348.53125,454.15625 C -348.17342,454.22573 -348.10013,454.14438 -348.03125,454.125 C -347.96237,454.10562 -347.94152,454.10815 -347.90625,454.09375 C -347.83572,454.06494 -347.77781,454.02951 -347.71875,454 C -347.60063,453.94098 -347.47645,453.87174 -347.3125,453.78125 C -347.17496,453.70533 -346.95288,453.56567 -346.78125,453.46875 C -346.57708,453.68035 -346.44216,453.9229 -346.3125,454.1875 C -346.46336,454.30713 -346.66006,454.46476 -346.78125,454.5625 C -346.93151,454.68369 -347.05427,454.78604 -347.15625,454.875 C -347.20724,454.91948 -347.25889,454.94586 -347.3125,455 C -347.33931,455.02707 -347.36205,455.0691 -347.40625,455.125 C -347.45045,455.1809 -347.52045,455.18469 -347.59375,455.5625 C -347.66509,455.92951 -347.6133,455.99412 -347.59375,456.0625 C -347.5742,456.13088 -347.54567,456.15246 -347.53125,456.1875 C -347.5024,456.25758 -347.46722,456.31573 -347.4375,456.375 C -347.37806,456.49355 -347.30973,456.61666 -347.21875,456.78125 C -347.14558,456.91362 -347.02962,457.11821 -346.9375,457.28125 C -347.1575,457.4735 -347.38832,457.6359 -347.65625,457.75 C -347.77054,457.60803 -347.90693,457.42534 -348,457.3125 C -348.11348,457.17492 -348.22722,457.06344 -348.3125,456.96875 C -348.35514,456.92141 -348.38319,456.8642 -348.4375,456.8125 C -348.46465,456.78665 -348.50611,456.76139 -348.5625,456.71875 C -348.61889,456.67611 -348.62376,456.59849 -348.96875,456.53125 C -349.31375,456.46427 -349.36995,456.51323 -349.4375,456.53125 C -349.50505,456.54927 -349.55928,456.58026 -349.59375,456.59375 C -349.66269,456.62072 -349.72476,456.62901 -349.78125,456.65625 C -349.89423,456.71072 -350.00263,456.79238 -350.15625,456.875 C -350.26285,456.93233 -350.43476,457.02314 -350.5625,457.09375 C -350.77561,456.8674 -350.93639,456.62185 -351.0625,456.34375 C -350.95213,456.25671 -350.80969,456.13511 -350.71875,456.0625 C -350.58684,455.95718 -350.46766,455.86141 -350.375,455.78125 C -350.32867,455.74117 -350.30284,455.70969 -350.25,455.65625 C -350.22358,455.62953 -350.20106,455.62 -350.15625,455.5625 C -350.11144,455.505 -350.00558,455.44477 -349.9375,455.09375 C -349.87248,454.75904 -349.95256,454.72179 -349.96875,454.65625 C -349.98494,454.59071 -349.98742,454.56568 -350,454.53125 C -350.02516,454.46239 -350.03606,454.402 -350.0625,454.34375 C -350.11539,454.22725 -350.19909,454.09703 -350.28125,453.9375 C -350.34431,453.81504 -350.45116,453.6175 -350.53125,453.46875 C -350.33114,453.27152 -350.09477,453.12861 -349.84375,453 z"
       id="path6112"
       style="fill:#bebebe;fill-opacity:1;stroke:none;stroke-width:1.99999988;stroke-linecap:round;stroke-linejoin:miter;marker:none;stroke-miterlimit:4;stroke-dasharray:none;stroke-dashoffset:0;stroke-opacity:1;visibility:visible;display:inline;overflow:visible;enable-background:accumulate" />
    <path
       d="M -357.97974,442.95275 C -360.18798,442.95275 -362.00673,444.7715 -362.00673,446.97974 C -362.00673,449.18798 -360.18798,451.00673 -357.97974,451.00673 C -355.7715,451.00673 -353.95275,449.18798 -353.95275,446.97974 C -353.95275,444.7715 -355.7715,442.95275 -357.97974,442.95275 z M -357.97974,444.96624 C -356.85363,444.96624 -355.96625,445.85363 -355.96625,446.97974 C -355.96625,448.10584 -356.85363,448.99323 -357.97974,448.99323 C -359.10585,448.99323 -359.99323,448.10584 -359.99323,446.97974 C -359.99323,445.85363 -359.10585,444.96624 -357.97974,444.96624 z"
       id="path6870"
       style="fill:#bebebe;fill-opacity:1;stroke:none;stroke-width:1.4899472;stroke-linecap:round;stroke-linejoin:miter;marker:none;stroke-miterlimit:4;stroke-dasharray:none;stroke-dashoffset:0;stroke-opacity:1;visibility:visible;display:inline;overflow:visible;enable-background:accumulate" />
    <path
       d="M -356.09375,435.375 L -355.375,437.0625 L -356.625,438.90625 C -357.09041,438.81481 -357.55281,438.6875 -358.0625,438.6875 C -358.62785,438.68749 -359.11489,438.82591 -359.625,438.9375 L -361.15625,436.65625 L -361.625,436 L -362.375,436.3125 C -363.37506,436.72495 -364.30737,437.2907 -365.125,437.9375 L -365.75,438.4375 L -365.40625,439.15625 L -364.1875,441.65625 C -364.81624,442.3921 -365.28675,443.25607 -365.625,444.1875 L -368.4375,444.375 L -369.21875,444.4375 L -369.34375,445.21875 C -369.41968,445.73502 -369.5,446.29904 -369.5,446.90625 C -369.49998,447.48508 -369.3963,447.99785 -369.34375,448.40625 L -369.25,449.21875 L -368.4375,449.25 L -365.75,449.46875 C -365.40788,450.46483 -364.8764,451.3255 -364.21875,452.09375 L -365.4375,454.625 L -365.78125,455.34375 L -365.1875,455.84375 C -364.38501,456.48678 -363.45075,457.052 -362.46875,457.46875 L -361.71875,457.78125 L -361.25,457.125 L -359.71875,454.84375 C -359.18605,454.97196 -358.66837,455.125 -358.0625,455.125 C -357.50473,455.125 -357.02353,455.01583 -356.53125,454.90625 L -354.96875,457.15625 L -354.53125,457.84375 L -353.78125,457.53125 C -352.7976,457.13043 -351.86689,456.5611 -351.0625,455.9375 L -350.4375,455.46875 L -350.78125,454.71875 L -351.96875,452.25 C -351.25818,451.44197 -350.69684,450.51974 -350.34375,449.46875 L -347.6875,449.25 L -346.84375,449.21875 L -346.75,448.40625 C -346.69703,447.99689 -346.59375,447.48464 -346.59375,446.90625 C -346.59374,446.29911 -346.67397,445.7352 -346.75,445.21875 L -346.875,444.4375 L -347.6875,444.375 L -350.4375,444.1875 C -350.79611,443.19442 -351.344,442.30183 -352.03125,441.53125 L -350.84375,439.0625 L -350.46875,438.34375 L -351.125,437.84375 C -351.94436,437.21675 -352.87302,436.64643 -353.875,436.25 L -356.09375,435.375 z M -353.9375,438.5 C -353.62488,438.65896 -353.32737,438.83748 -353.03125,439.03125 L -354.125,441.21875 L -354.4375,441.875 L -353.90625,442.375 C -353.04071,443.1751 -352.39452,444.23105 -352.09375,445.40625 L -351.9375,446.09375 L -351.1875,446.15625 L -348.65625,446.3125 C -348.63848,446.51101 -348.59375,446.71521 -348.59375,446.90625 C -348.59375,447.02913 -348.64196,447.20459 -348.65625,447.34375 L -351.125,447.5 L -351.84375,447.5625 L -352,448.28125 C -352.27211,449.48803 -352.93374,450.57092 -353.8125,451.40625 L -354.34375,451.90625 L -354.03125,452.5625 L -352.96875,454.78125 C -353.25174,454.9694 -353.54531,455.12502 -353.84375,455.28125 L -355.21875,453.25 L -355.625,452.65625 L -356.34375,452.84375 C -356.93374,453.01665 -357.4946,453.125 -358.0625,453.125 C -358.67323,453.125 -359.24907,453.00995 -359.875,452.8125 L -360.59375,452.59375 L -361,453.1875 L -362.375,455.21875 C -362.6743,455.05748 -362.9673,454.88056 -363.25,454.6875 L -362.15625,452.4375 L -361.84375,451.78125 L -362.34375,451.28125 C -363.1842,450.44626 -363.8351,449.42846 -364.09375,448.28125 L -364.25,447.5625 L -365,447.5 L -367.46875,447.34375 C -367.48296,447.20536 -367.5,447.02836 -367.5,446.90625 C -367.5,446.71524 -367.45528,446.51102 -367.4375,446.3125 L -364.90625,446.15625 L -364.1875,446.09375 L -364,445.40625 C -363.71407,444.28891 -363.11796,443.28593 -362.3125,442.5 L -361.8125,442 L -362.125,441.34375 L -363.1875,439.09375 C -362.89193,438.89513 -362.59457,438.72652 -362.28125,438.5625 L -360.90625,440.59375 L -360.5,441.1875 L -359.8125,440.96875 C -359.22505,440.79273 -358.65575,440.68749 -358.0625,440.6875 C -357.50897,440.6875 -356.95376,440.78559 -356.40625,440.9375 L -355.71875,441.125 L -355.3125,440.53125 L -353.9375,438.5 z"
       id="path11062"
       style="fill:#bebebe;fill-opacity:1;stroke:none;stroke-width:1.99999988;stroke-linecap:round;stroke-linejoin:miter;marker:none;stroke-miterlimit:4.30000019;stroke-dasharray:none;stroke-dashoffset:0;stroke-opacity:1;visibility:visible;display:inline;overflow:visible;enable-background:accumulate" />
  </g>
</svg>
