<?xml version="1.0" encoding="UTF-8" standalone="no"?>
<!-- Created with Inkscape (http://www.inkscape.org/) -->
<svg
   xmlns:svg="http://www.w3.org/2000/svg"
   xmlns="http://www.w3.org/2000/svg"
   version="1.0"
   width="24.125"
   height="24"
   id="svg7384">
  <title
     id="title9167">Moblin Icon Theme</title>
  <defs
     id="defs7386" />
  <g
     transform="translate(368.125,-436)"
     id="layer3" />
  <g
     transform="translate(368.125,-436)"
     id="layer5" />
  <g
     transform="translate(368.125,-436)"
     id="layer7" />
  <g
     transform="translate(368.125,-436)"
     id="layer2" />
  <g
     transform="translate(368.125,-436)"
     id="layer8" />
  <g
     transform="translate(368.125,-1388.3622)"
     id="layer1" />
  <g
     transform="translate(368.125,-436)"
     id="layer11" />
  <g
     transform="translate(368.125,-436)"
     id="layer4" />
  <g
     transform="translate(368.125,-436)"
     id="layer9" />
  <g
     transform="translate(368.125,-436)"
     id="layer10" />
  <g
     transform="translate(368.125,-436)"
     id="layer6">
    <rect
       width="24"
       height="24"
       x="344"
       y="436"
       transform="scale(-1,1)"
       id="rect6102"
       style="opacity:0;fill:#f5f5f5;fill-opacity:1;stroke:none;display:inline" />
    <path
       d="M -346.25,447.34375 L -347.3125,448.25 C -347.61383,448.50813 -347.84887,448.69414 -348.0625,448.875 C -348.26222,448.71252 -348.45112,448.54139 -348.71875,448.3125 L -349.21875,447.875 L -349.78125,448.15625 C -350.71465,448.60326 -351.46698,449.3792 -351.875,450.34375 L -352.125,450.90625 L -351.71875,451.375 C -351.51035,451.61886 -351.37065,451.81271 -351.21875,452 C -351.37433,452.18081 -351.51139,452.38218 -351.71875,452.625 L -352.125,453.0625 L -351.90625,453.625 C -352.05141,453.26117 -351.93666,453.11989 -351.9375,453.125 C -351.93834,453.13011 -352.04051,453.29442 -351.875,453.6875 C -351.44644,454.67451 -350.67601,455.44363 -349.71875,455.875 L -349.125,456.125 L -348.65625,455.71875 C -348.41616,455.51373 -348.2144,455.37172 -348.03125,455.21875 C -347.8409,455.37864 -347.62912,455.53272 -347.375,455.75 L -347.34375,455.78125 L -347.3125,455.78125 L -347.3125,455.8125 C -347.31226,455.81267 -347.25028,455.84144 -347.1875,455.875 C -347.13693,455.90204 -347.09399,455.93741 -347.09375,455.9375 L -346.84375,456.15625 L -346.3125,455.90625 C -345.34784,455.49831 -344.57208,454.77706 -344.125,453.84375 L -343.84375,453.25 L -344.28125,452.75 C -344.52458,452.46591 -344.69762,452.24043 -344.875,452.03125 C -344.6905,451.81477 -344.50178,451.57502 -344.25,451.28125 L -343.8125,450.8125 L -344.09375,450.21875 C -344.45862,449.42924 -345.09857,448.81658 -345.84375,448.375 L -346.25,447.34375 z M -346.65625,450.3125 C -346.52735,450.41446 -346.41718,450.52907 -346.3125,450.65625 C -346.39751,450.75571 -346.52307,450.88483 -346.59375,450.96875 C -346.70174,451.09699 -346.76974,451.18615 -346.84375,451.28125 C -346.88076,451.3288 -346.92887,451.37773 -346.96875,451.4375 C -346.98869,451.46738 -346.99916,451.50043 -347.03125,451.5625 C -347.0473,451.59353 -347.07075,451.6229 -347.09375,451.6875 C -347.10525,451.7198 -347.11327,451.75903 -347.125,451.8125 C -347.13673,451.86597 -347.15625,452.03038 -347.15625,452.03125 C -347.15625,452.03211 -347.13627,452.19738 -347.125,452.25 C -347.11373,452.30262 -347.10494,452.3429 -347.09375,452.375 C -347.07137,452.43919 -347.04706,452.46889 -347.03125,452.5 C -346.99962,452.56223 -346.98844,452.5951 -346.96875,452.625 C -346.92937,452.6848 -346.9111,452.73441 -346.875,452.78125 C -346.80281,452.87494 -346.69861,452.96841 -346.59375,453.09375 C -346.53469,453.16434 -346.44464,453.29301 -346.375,453.375 C -346.48406,453.50072 -346.58515,453.6203 -346.71875,453.71875 C -346.80751,453.64409 -346.92471,453.53082 -347,453.46875 C -347.11971,453.37006 -347.22147,453.28736 -347.3125,453.21875 C -347.35801,453.18444 -347.37762,453.1633 -347.4375,453.125 C -347.46744,453.10585 -347.53133,453.09309 -347.59375,453.0625 C -347.62496,453.04721 -347.65556,453.02108 -347.71875,453 C -347.75035,452.98946 -347.79293,452.9791 -347.84375,452.96875 C -347.89457,452.9584 -348.03041,452.9375 -348.03125,452.9375 C -348.03207,452.9375 -348.19947,452.9585 -348.25,452.96875 C -348.30053,452.979 -348.31241,452.9896 -348.34375,453 C -348.40643,453.0208 -348.46909,453.04746 -348.5,453.0625 C -348.56182,453.09257 -348.59535,453.10621 -348.625,453.125 C -348.68429,453.16259 -348.70503,453.18517 -348.75,453.21875 C -348.83994,453.28591 -348.94501,453.37264 -349.0625,453.46875 C -349.12125,453.51681 -349.21427,453.60046 -349.28125,453.65625 C -349.42214,453.5445 -349.54676,453.42046 -349.65625,453.28125 C -349.59999,453.2158 -349.51724,453.1195 -349.46875,453.0625 C -349.37375,452.95082 -349.28648,452.86755 -349.21875,452.78125 C -349.18488,452.7381 -349.16459,452.68446 -349.125,452.625 C -349.1052,452.59527 -349.09496,452.56396 -349.0625,452.5 C -349.04627,452.46802 -349.0224,452.44024 -349,452.375 C -348.9888,452.34238 -348.97964,452.3023 -348.96875,452.25 C -348.95786,452.1977 -348.9375,452.03207 -348.9375,452.03125 C -348.9375,452.03042 -348.95929,451.89226 -348.96875,451.84375 C -348.97821,451.79524 -348.99043,451.74887 -349,451.71875 C -349.01914,451.65851 -349.01732,451.62381 -349.03125,451.59375 C -349.05911,451.53362 -349.07585,451.49847 -349.09375,451.46875 C -349.12955,451.40931 -349.18557,451.35918 -349.21875,451.3125 C -349.28511,451.21913 -349.34067,451.12291 -349.4375,451 C -349.49126,450.93176 -349.59254,450.8286 -349.65625,450.75 C -349.55184,450.61123 -349.44651,450.48661 -349.3125,450.375 C -349.23395,450.43907 -349.13075,450.53952 -349.0625,450.59375 C -348.9371,450.6934 -348.84463,450.77571 -348.75,450.84375 C -348.70269,450.87777 -348.65357,450.93225 -348.59375,450.96875 C -348.56384,450.987 -348.52927,451.00281 -348.46875,451.03125 C -348.43849,451.04547 -348.40462,451.04288 -348.34375,451.0625 C -348.31331,451.07231 -348.26792,451.08402 -348.21875,451.09375 C -348.16958,451.10348 -348.0321,451.125 -348.03125,451.125 C -348.03038,451.125 -347.86463,451.10471 -347.8125,451.09375 C -347.76037,451.08279 -347.71961,451.07354 -347.6875,451.0625 C -347.62329,451.04043 -347.5939,451.01581 -347.5625,451 C -347.4997,450.96839 -347.46765,450.95725 -347.4375,450.9375 C -347.3772,450.89801 -347.32797,450.87967 -347.28125,450.84375 C -347.18782,450.77191 -347.09357,450.66689 -346.96875,450.5625 C -346.88828,450.4952 -346.75184,450.3938 -346.65625,450.3125 z"
       id="path6112"
       style="fill:#bebebe;fill-opacity:1;stroke:none;stroke-width:2;stroke-linecap:round;stroke-linejoin:miter;marker:none;stroke-miterlimit:4;stroke-dasharray:none;stroke-dashoffset:0;stroke-opacity:1;visibility:visible;display:inline;overflow:visible;enable-background:accumulate" />
    <path
       d="M -358.15625,436.0625 C -358.64439,436.0625 -359.13047,436.08959 -359.59375,436.15625 L -360.40625,436.28125 L -360.4375,437.125 L -360.5,439.375 C -360.63807,439.42968 -360.77341,439.50003 -360.90625,439.5625 L -362.59375,437.96875 L -363.1875,437.40625 L -363.84375,437.875 C -364.71941,438.48824 -365.51632,439.23388 -366.15625,440.09375 L -366.65625,440.75 L -366.0625,441.375 L -364.4375,443.09375 C -364.49746,443.22675 -364.54176,443.36266 -364.59375,443.5 L -367.03125,443.5625 L -367.84375,443.59375 L -368,444.40625 C -368.08681,444.93182 -368.125,445.46874 -368.125,446.03125 C -368.125,446.58436 -368.0776,447.10345 -368,447.59375 L -367.84375,448.40625 L -367.03125,448.4375 L -364.59375,448.5 C -364.54176,448.63734 -364.49746,448.77325 -364.4375,448.90625 L -366.0625,450.65625 L -366.65625,451.28125 L -366.15625,451.9375 C -365.54016,452.77002 -364.81189,453.53421 -363.9375,454.15625 L -363.25,454.625 L -362.65625,454.0625 L -360.90625,452.4375 C -360.77341,452.49997 -360.63807,452.57032 -360.5,452.625 L -360.4375,454.9375 L -360.40625,455.78125 L -359.59375,455.90625 C -359.13047,455.97291 -358.64439,456 -358.15625,456 C -357.53412,456 -356.93252,455.91266 -356.375,455.8125 L -355.59375,455.6875 L -355.5625,454.875 L -355.5,452.6875 C -355.3394,452.63084 -355.18785,452.56828 -355.03125,452.5 L -353.5,453.9375 L -352.875,454.53125 L -352.21875,454.03125 C -351.35888,453.39132 -350.61324,452.59441 -350,451.71875 L -349.53125,451.0625 L -350.09375,450.46875 L -351.5,448.96875 C -351.4261,448.81579 -351.34524,448.66156 -351.28125,448.5 L -349.28125,448.4375 L -348.46875,448.40625 L -348.3125,447.59375 C -348.2349,447.10345 -348.1875,446.58436 -348.1875,446.03125 C -348.1875,445.46874 -348.22569,444.93182 -348.3125,444.40625 L -348.46875,443.59375 L -349.28125,443.5625 L -351.28125,443.5 C -351.34524,443.33844 -351.4261,443.18421 -351.5,443.03125 L -350.125,441.5625 L -349.5625,440.96875 L -350.03125,440.3125 C -350.64318,439.44739 -351.37961,438.64144 -352.25,438 L -352.90625,437.5 L -353.53125,438.09375 L -355.03125,439.5 C -355.18785,439.43172 -355.3394,439.36916 -355.5,439.3125 L -355.5625,437.1875 L -355.59375,436.375 L -356.375,436.25 C -356.93252,436.14984 -357.53412,436.0625 -358.15625,436.0625 z M -358.15625,438.0625 C -357.94827,438.0625 -357.74095,438.10545 -357.53125,438.125 L -357.46875,440.03125 L -357.4375,440.78125 L -356.71875,440.96875 C -356.20964,441.09274 -355.72789,441.2876 -355.3125,441.53125 L -354.6875,441.90625 L -354.125,441.375 L -352.875,440.1875 C -352.6408,440.40249 -352.42789,440.63105 -352.21875,440.875 L -353.375,442.125 L -353.90625,442.6875 L -353.5,443.34375 C -353.22646,443.79608 -353.02692,444.24365 -352.90625,444.71875 L -352.71875,445.4375 L -351.96875,445.46875 L -350.25,445.53125 C -350.23877,445.69767 -350.1875,445.86293 -350.1875,446.03125 C -350.1875,446.17383 -350.20878,446.32484 -350.21875,446.46875 L -351.96875,446.53125 L -352.71875,446.5625 L -352.90625,447.28125 C -353.02692,447.75635 -353.22646,448.20392 -353.5,448.65625 L -353.90625,449.3125 L -353.375,449.875 L -352.1875,451.15625 C -352.39607,451.39889 -352.60825,451.62816 -352.84375,451.84375 L -354.125,450.625 L -354.6875,450.09375 L -355.3125,450.46875 C -355.72789,450.7124 -356.20964,450.90726 -356.71875,451.03125 L -357.4375,451.21875 L -357.46875,451.96875 L -357.53125,453.9375 C -357.74095,453.95705 -357.94827,454 -358.15625,454 C -358.26389,454 -358.3628,453.97317 -358.46875,453.96875 L -358.53125,451.9375 L -358.5625,451.1875 L -359.28125,451 C -359.75065,450.87521 -360.17019,450.69364 -360.59375,450.4375 L -361.25,450.03125 L -361.8125,450.5625 L -363.3125,451.96875 C -363.54134,451.76389 -363.76164,451.54645 -363.96875,451.3125 L -362.5625,449.8125 L -362.03125,449.25 L -362.40625,448.625 C -362.64992,448.20959 -362.84816,447.75601 -362.96875,447.28125 L -363.15625,446.5625 L -363.90625,446.53125 L -366.09375,446.46875 C -366.10372,446.32484 -366.125,446.17383 -366.125,446.03125 C -366.125,445.86293 -366.07373,445.69767 -366.0625,445.53125 L -363.90625,445.46875 L -363.15625,445.4375 L -362.96875,444.71875 C -362.84816,444.24399 -362.64992,443.79041 -362.40625,443.375 L -362.03125,442.75 L -362.5625,442.1875 L -363.9375,440.71875 C -363.72631,440.48936 -363.5182,440.26617 -363.28125,440.0625 L -361.8125,441.4375 L -361.25,441.96875 L -360.59375,441.5625 C -360.17019,441.30636 -359.75065,441.12479 -359.28125,441 L -358.5625,440.8125 L -358.53125,440.0625 L -358.46875,438.09375 C -358.3628,438.08933 -358.26389,438.0625 -358.15625,438.0625 z"
       id="path6860"
       style="fill:#bebebe;fill-opacity:1;stroke:none;stroke-width:2;stroke-linecap:round;stroke-linejoin:miter;marker:none;stroke-miterlimit:4;stroke-dasharray:none;stroke-dashoffset:0;stroke-opacity:1;visibility:visible;display:inline;overflow:visible;enable-background:accumulate" />
    <path
       d="M -357.9375,443.03214 C -359.59374,443.03214 -360.96786,444.40626 -360.96786,446.0625 C -360.96786,447.71874 -359.59374,449.09286 -357.9375,449.09286 C -356.28126,449.09286 -354.90714,447.71874 -354.90714,446.0625 C -354.90714,444.40626 -356.28126,443.03214 -357.9375,443.03214 z M -357.9375,445.05238 C -357.36339,445.05238 -356.92738,445.48839 -356.92738,446.0625 C -356.92738,446.6366 -357.36339,447.07262 -357.9375,447.07262 C -358.51161,447.07262 -358.94762,446.6366 -358.94762,446.0625 C -358.94762,445.48839 -358.51161,445.05238 -357.9375,445.05238 z"
       id="path6870"
       style="fill:#bebebe;fill-opacity:1;stroke:none;stroke-width:2.22745681;stroke-linecap:round;stroke-linejoin:miter;marker:none;stroke-miterlimit:4;stroke-dasharray:none;stroke-dashoffset:0;stroke-opacity:1;visibility:visible;display:inline;overflow:visible;enable-background:accumulate" />
  </g>
</svg>
