<?xml version="1.0" encoding="UTF-8" standalone="no"?>
<!-- Created with Inkscape (http://www.inkscape.org/) -->
<svg
   xmlns:svg="http://www.w3.org/2000/svg"
   xmlns="http://www.w3.org/2000/svg"
   version="1.0"
   width="24"
   height="24"
   id="svg7384">
  <title
     id="title9167">Moblin Icon Theme</title>
  <defs
     id="defs7386" />
  <g
     transform="translate(432,-436)"
     id="layer3" />
  <g
     transform="translate(432,-436)"
     id="layer5" />
  <g
     transform="translate(432,-436)"
     id="layer7" />
  <g
     transform="translate(432,-436)"
     id="layer2" />
  <g
     transform="translate(432,-436)"
     id="layer8" />
  <g
     transform="translate(432,-1388.3622)"
     id="layer1" />
  <g
     transform="translate(432,-436)"
     id="layer11" />
  <g
     transform="translate(432,-436)"
     id="layer4" />
  <g
     transform="translate(432,-436)"
     id="layer9" />
  <g
     transform="translate(432,-436)"
     id="layer10" />
  <g
     transform="translate(432,-436)"
     id="layer6">
    <rect
       width="24"
       height="24"
       x="408"
       y="436"
       transform="scale(-1,1)"
       id="rect5968"
       style="opacity:0;fill:#ffffff;fill-opacity:1;stroke:none;display:inline" />
    <path
       d="M -421.03012,436.12011 C -423.79258,436.12011 -426.03836,438.36589 -426.03835,441.12835 C -426.03835,443.89082 -423.79258,446.15936 -421.03012,446.15935 C -418.26765,446.15935 -415.99911,443.89082 -415.99911,441.12835 C -415.99911,438.36589 -418.26765,436.12011 -421.03012,436.12011 z M -421.03012,438.12341 C -419.34979,438.1234 -418.00241,439.44802 -418.00241,441.12835 C -418.0024,442.80869 -419.34978,444.15606 -421.03012,444.15606 C -422.71044,444.15607 -424.05782,442.80869 -424.05782,441.12835 C -424.05783,439.44802 -422.71045,438.12341 -421.03012,438.12341 z"
       id="path5976"
       style="fill:#bebebe;fill-opacity:1;stroke:none;stroke-width:2.74547672;stroke-linecap:round;stroke-linejoin:round;marker:none;stroke-miterlimit:4;stroke-dasharray:none;stroke-dashoffset:0;stroke-opacity:1;visibility:visible;display:inline;overflow:visible;enable-background:accumulate" />
    <path
       d="M -421.0625,444.3125 C -421.59008,444.36189 -421.98756,444.8142 -421.96875,445.34375 L -421.96875,457 C -421.96869,457.55226 -421.52101,457.99994 -420.96875,458 L -417.0625,458 C -416.70186,458.0051 -416.36642,457.81562 -416.18461,457.50413 C -416.00281,457.19263 -416.00281,456.80737 -416.18461,456.49587 C -416.36642,456.18438 -416.70186,455.9949 -417.0625,456 L -419.96875,456 L -419.96875,445.34375 C -419.9585,445.05608 -420.0727,444.77795 -420.28213,444.58048 C -420.49157,444.38302 -420.77593,444.28536 -421.0625,444.3125 z"
       id="path5978"
       style="fill:#bebebe;fill-opacity:1;stroke:none;stroke-width:2;stroke-linecap:round;stroke-linejoin:round;marker:none;stroke-miterlimit:4;stroke-dasharray:none;stroke-dashoffset:0;stroke-opacity:1;visibility:visible;display:inline;overflow:visible;enable-background:accumulate" />
    <path
       d="M -421.03125,453 C -421.58353,453.03452 -422.00327,453.51022 -421.96875,454.0625 C -421.93423,454.61478 -421.45853,455.03452 -420.90625,455 L -418,455 C -417.63936,455.0051 -417.30392,454.81562 -417.12211,454.50413 C -416.94031,454.19263 -416.94031,453.80737 -417.12211,453.49587 C -417.30392,453.18438 -417.63936,452.9949 -418,453 L -420.90625,453 C -420.94788,452.99739 -420.98962,452.99739 -421.03125,453 L -421.03125,453 z"
       id="path5980"
       style="fill:#bebebe;fill-opacity:1;stroke:none;stroke-width:2;stroke-linecap:round;stroke-linejoin:round;marker:none;stroke-miterlimit:4;stroke-dasharray:none;stroke-dashoffset:0;stroke-opacity:1;visibility:visible;display:inline;overflow:visible;enable-background:accumulate" />
  </g>
</svg>
