<?xml version="1.0" encoding="UTF-8" standalone="no"?>
<!-- Created with Inkscape (http://www.inkscape.org/) -->
<svg
   xmlns:svg="http://www.w3.org/2000/svg"
   xmlns="http://www.w3.org/2000/svg"
   version="1.0"
   width="24"
   height="24"
   id="svg7384">
  <defs
     id="defs7386" />
  <g
     transform="translate(302,-174)"
     id="layer3" />
  <g
     transform="translate(302,-174)"
     id="layer5" />
  <g
     transform="translate(302,-174)"
     id="layer7" />
  <g
     transform="translate(302,-174)"
     id="layer2" />
  <g
     transform="translate(302,-174)"
     id="layer8" />
  <g
     transform="translate(302,-1126.3622)"
     id="layer1" />
  <g
     transform="translate(302,-174)"
     id="layer4" />
  <g
     transform="translate(302,-174)"
     id="layer9" />
  <g
     transform="translate(302,-174)"
     id="layer6">
    <rect
       width="24"
       height="24"
       x="-302"
       y="174"
       id="rect5994"
       style="opacity:0;fill:#ffffff;fill-opacity:1;stroke:none;display:inline" />
    <g
       transform="translate(314,-131.02653)"
       id="g5996">
      <path
         d="M -629,308 C -631.74677,308 -633.96875,310.22198 -633.96875,312.96875 C -633.96875,315.71552 -631.74677,317.9375 -629,317.9375 C -626.25323,317.9375 -624.03125,315.71552 -624.03125,312.96875 C -624.03125,310.22198 -626.25323,308 -629,308 z M -629,309.03125 C -628.27809,309.03925 -628.29824,310.63191 -627.71875,311.0625 C -627.13926,311.49309 -625.59073,311.0298 -625.375,311.71875 C -625.15927,312.40772 -626.70706,312.87831 -626.9375,313.5625 C -627.16794,314.24669 -626.22392,315.55068 -626.8125,315.96875 C -627.40108,316.38682 -628.34059,315.07023 -629.0625,315.0625 C -629.78441,315.0545 -630.73301,316.33684 -631.3125,315.90625 C -631.89199,315.47566 -630.94052,314.22022 -631.15625,313.53125 C -631.37198,312.84228 -632.88669,312.30919 -632.65625,311.625 C -632.42581,310.94081 -630.90108,311.44932 -630.3125,311.03125 C -629.72392,310.61318 -629.72191,309.02352 -629,309.03125 z"
         transform="translate(28,3.0265316)"
         id="path5998"
         style="fill:#bebebe;fill-opacity:1;stroke:none;stroke-width:2;marker:none;visibility:visible;display:inline;overflow:visible;enable-background:accumulate" />
    </g>
    <path
       d="M -297,188.125 C -298.71759,188.125 -300,189.50278 -300,191.0625 L -300,194.125 L -301,194.125 C -301.36064,194.1199 -301.69608,194.30938 -301.87789,194.62087 C -302.05969,194.93237 -302.05969,195.31763 -301.87789,195.62913 C -301.69608,195.94062 -301.36064,196.1301 -301,196.125 L -299,196.125 C -298.44774,196.12494 -298.00006,195.67726 -298,195.125 L -298,191.0625 C -298,190.74722 -297.53241,190.125 -297,190.125 L -293.625,190.125 C -293.26436,190.1301 -292.92892,189.94062 -292.74711,189.62913 C -292.56531,189.31763 -292.56531,188.93237 -292.74711,188.62087 C -292.92892,188.30938 -293.26436,188.1199 -293.625,188.125 L -297,188.125 z M -287.125,191.9375 C -287.64012,192.00205 -288.0202,192.45 -288,192.96875 L -288,195.125 C -287.99994,195.67726 -287.55226,196.12494 -287,196.125 L -279,196.125 C -278.63936,196.1301 -278.30392,195.94062 -278.12211,195.62913 C -277.94031,195.31763 -277.94031,194.93237 -278.12211,194.62087 C -278.30392,194.30938 -278.63936,194.1199 -279,194.125 L -286,194.125 L -286,192.96875 C -285.98851,192.67501 -286.10684,192.39109 -286.32354,192.19245 C -286.54024,191.9938 -286.83336,191.90056 -287.125,191.9375 z"
       id="path6002"
       style="fill:#bebebe;fill-opacity:1;stroke:none;stroke-width:2;stroke-linecap:round;stroke-linejoin:round;marker:none;stroke-miterlimit:4;stroke-dasharray:none;stroke-dashoffset:0;stroke-opacity:1;visibility:visible;display:inline;overflow:visible;enable-background:accumulate" />
  </g>
</svg>
