<?xml version="1.0" encoding="UTF-8" standalone="no"?>
<!-- Created with Inkscape (http://www.inkscape.org/) -->
<svg
   xmlns:svg="http://www.w3.org/2000/svg"
   xmlns="http://www.w3.org/2000/svg"
   xmlns:xlink="http://www.w3.org/1999/xlink"
   version="1.0"
   width="24"
   height="24"
   id="svg7384">
  <title
     id="title9167">Moblin Icon Theme</title>
  <defs
     id="defs7386">
    <linearGradient
       id="linearGradient8111-5-5">
      <stop
         id="stop8113-5-9"
         style="stop-color:#31c2ee;stop-opacity:1"
         offset="0" />
      <stop
         id="stop8115-3-4"
         style="stop-color:#31c2ee;stop-opacity:0"
         offset="1" />
    </linearGradient>
    <linearGradient
       x1="843.94177"
       y1="535.03595"
       x2="847.02435"
       y2="538.0224"
       id="linearGradient13041"
       xlink:href="#linearGradient8111-5-5"
       gradientUnits="userSpaceOnUse"
       gradientTransform="matrix(1,0,0,-1,-1315.9512,779.09511)" />
  </defs>
  <g
     transform="translate(490,-238)"
     id="layer3" />
  <g
     transform="translate(490,-238)"
     id="layer5" />
  <g
     transform="translate(490,-238)"
     id="layer7" />
  <g
     transform="translate(490,-238)"
     id="layer2" />
  <g
     transform="translate(490,-238)"
     id="layer8" />
  <g
     transform="translate(490,-1190.3622)"
     id="layer1" />
  <g
     transform="translate(490,-238)"
     id="layer11" />
  <g
     transform="translate(490,-238)"
     id="layer4" />
  <g
     transform="translate(490,-238)"
     id="layer12" />
  <g
     transform="translate(490,-238)"
     id="layer9" />
  <g
     transform="translate(490,-238)"
     id="layer10" />
  <g
     transform="translate(490,-238)"
     id="layer6">
    <path
       d="M -468.95116,247.0092 C -468.95116,247.0092 -469.82756,246.0092 -469.82756,246.0092 L -475.08456,246.0102 C -475.57006,246.0102 -475.96096,246.4561 -475.96096,247.0102 C -475.96096,247.5642 -475.57006,248.0102 -475.08456,248.0102 L -469.82756,248.0092 C -469.82756,248.0092 -468.95116,247.0092 -468.95116,247.0092 z"
       id="path10120"
       style="fill:#31c2ee;fill-opacity:1;stroke:none;display:inline" />
    <path
       d="M -474.95116,241.0102 C -474.95116,241.0102 -473.95116,242.0102 -473.95116,242.0102 L -473.95026,247.0251 C -473.95026,247.5791 -474.39626,248.0251 -474.95026,248.0251 C -475.50416,248.0251 -475.95026,247.5791 -475.95026,247.0251 L -475.95116,242.0102 C -475.95116,242.0102 -474.95116,241.0102 -474.95116,241.0102 z"
       id="path10122"
       style="fill:#31c2ee;fill-opacity:1;stroke:none;display:inline" />
    <path
       d="M -468.29377,240.29385 C -468.68557,239.90205 -469.31627,239.90205 -469.70797,240.29385 L -475.65589,246.30215 C -476.04769,246.69395 -476.04769,247.32465 -475.65589,247.71635 C -475.26419,248.10815 -474.63349,248.10815 -474.24169,247.71635 L -468.29377,241.70805 C -467.90207,241.31635 -467.90207,240.68555 -468.29377,240.29385 z"
       id="path10132"
       style="fill:url(#linearGradient13041);fill-opacity:1;stroke:none;display:inline" />
    <rect
       width="24"
       height="24"
       x="-490"
       y="238"
       id="rect10136"
       style="opacity:0;fill:#ffffff;fill-opacity:1;stroke:none;display:inline" />
    <path
       d="M -485.9375,248.03125 C -487.06181,248.03125 -488,248.96944 -488,250.09375 L -488,258.03125 C -488,259.15556 -487.0618,260.09374 -485.9375,260.09375 L -478.09375,260.09375 C -476.96944,260.09375 -476.03125,259.15556 -476.03125,258.03125 L -476.03125,250.09375 C -476.03125,248.96944 -476.96944,248.03125 -478.09375,248.03125 L -485.9375,248.03125 z M -485.9375,250.03125 L -478.09375,250.03125 C -478.04283,250.03125 -478.03125,250.04285 -478.03125,250.09375 L -478.03125,258.03125 C -478.03125,258.08216 -478.04285,258.09375 -478.09375,258.09375 L -485.9375,258.09375 C -485.98843,258.09375 -486,258.08215 -486,258.03125 L -486,250.09375 C -486,250.04286 -485.9884,250.03125 -485.9375,250.03125 z"
       id="rect10146"
       style="fill:#bebebe;fill-opacity:1;stroke:none;stroke-width:2;marker:none;stroke-miterlimit:4;stroke-dasharray:none;stroke-opacity:1;visibility:visible;display:inline;overflow:visible;enable-background:accumulate" />
    <path
       d="M -487.03125,252.09375 L -487.03125,254.09375 L -477.125,254.09375 L -477.125,252.09375 L -487.03125,252.09375 z"
       id="path10148"
       style="fill:#bebebe;fill-opacity:1;stroke:none;stroke-width:2;stroke-linecap:butt;stroke-linejoin:miter;marker:none;stroke-miterlimit:4;stroke-dasharray:none;stroke-dashoffset:0;stroke-opacity:1;visibility:visible;display:inline;overflow:visible;enable-background:accumulate" />
  </g>
</svg>
