<?xml version="1.0" encoding="UTF-8" standalone="no"?>
<!-- Created with Inkscape (http://www.inkscape.org/) -->
<svg
   xmlns:svg="http://www.w3.org/2000/svg"
   xmlns="http://www.w3.org/2000/svg"
   xmlns:xlink="http://www.w3.org/1999/xlink"
   version="1.0"
   width="24"
   height="24"
   id="svg7384">
  <defs
     id="defs7386">
    <linearGradient
       id="linearGradient8111-5-5">
      <stop
         id="stop8113-5-9"
         style="stop-color:#31c2ee;stop-opacity:1"
         offset="0" />
      <stop
         id="stop8115-3-4"
         style="stop-color:#31c2ee;stop-opacity:0"
         offset="1" />
    </linearGradient>
    <linearGradient
       x1="843.94177"
       y1="535.03595"
       x2="847.02435"
       y2="538.0224"
       id="linearGradient8924"
       xlink:href="#linearGradient8111-5-5"
       gradientUnits="userSpaceOnUse"
       gradientTransform="matrix(-1,0,0,-1,402.08282,791.08487)" />
    <linearGradient
       x1="843.94177"
       y1="535.03595"
       x2="847.02435"
       y2="538.0224"
       id="linearGradient8927"
       xlink:href="#linearGradient8111-5-5"
       gradientUnits="userSpaceOnUse"
       gradientTransform="matrix(1,0,0,-1,-1295.9186,791.08487)" />
    <linearGradient
       x1="843.94177"
       y1="535.03595"
       x2="847.02435"
       y2="538.0224"
       id="linearGradient8930"
       xlink:href="#linearGradient8111-5-5"
       gradientUnits="userSpaceOnUse"
       gradientTransform="matrix(-1,0,0,1,402.08282,-289.09007)" />
    <linearGradient
       x1="843.94177"
       y1="535.03595"
       x2="847.02435"
       y2="538.0224"
       id="linearGradient8933"
       xlink:href="#linearGradient8111-5-5"
       gradientUnits="userSpaceOnUse"
       gradientTransform="translate(-1295.9186,-289.09007)" />
  </defs>
  <g
     transform="translate(458.935,-239.05426)"
     id="layer3" />
  <g
     transform="translate(458.935,-239.05426)"
     id="layer5" />
  <g
     transform="translate(458.935,-239.05426)"
     id="layer7" />
  <g
     transform="translate(458.935,-239.05426)"
     id="layer2" />
  <g
     transform="translate(458.935,-239.05426)"
     id="layer8" />
  <g
     transform="translate(458.935,-1191.4164)"
     id="layer1" />
  <g
     transform="translate(458.935,-239.05426)"
     id="layer4" />
  <g
     transform="translate(458.935,-239.05426)"
     id="layer9" />
  <g
     transform="translate(458.935,-239.05426)"
     id="layer6">
    <path
       d="M -448.95759,243.0152 C -448.95759,243.0152 -449.83399,244.0152 -449.83399,244.0152 L -455.09099,244.0152 C -455.57649,244.0152 -455.96739,243.5692 -455.96739,243.0152 C -455.96739,242.4612 -455.57649,242.0152 -455.09099,242.0152 L -449.83399,242.0152 C -449.83399,242.0152 -448.95759,243.0152 -448.95759,243.0152 z"
       id="rect3637-45"
       style="fill:#31c2ee;fill-opacity:1;stroke:none;display:inline" />
    <path
       d="M -454.91948,248.99996 C -454.91948,248.99996 -453.91948,247.99996 -453.91948,247.99996 L -453.91858,242.98506 C -453.91858,242.43106 -454.36458,241.98506 -454.91858,241.98506 C -455.47258,241.98506 -455.91858,242.43106 -455.91858,242.98506 L -455.91948,247.99996 C -455.91948,247.99996 -454.91948,248.99996 -454.91948,248.99996 z"
       id="rect3661-01"
       style="fill:#31c2ee;fill-opacity:1;stroke:none;display:inline" />
    <path
       d="M -444.97719,243.0152 C -444.97719,243.0152 -444.10079,244.0152 -444.10079,244.0152 L -438.84379,244.0152 C -438.35829,244.0152 -437.96739,243.5692 -437.96739,243.0152 C -437.96739,242.4612 -438.35829,242.0152 -438.84379,242.0152 L -444.10079,242.0152 C -444.10079,242.0152 -444.97719,243.0152 -444.97719,243.0152 z"
       id="path2850"
       style="fill:#31c2ee;fill-opacity:1;stroke:none;display:inline" />
    <path
       d="M -438.91858,248.99996 C -438.91858,248.99996 -439.91858,247.99996 -439.91858,247.99996 L -439.91858,242.98506 C -439.91858,242.43106 -439.47248,241.98506 -438.91858,241.98506 C -438.36448,241.98506 -437.91858,242.43106 -437.91858,242.98506 L -437.91858,247.99996 C -437.91858,247.99996 -438.91858,248.99996 -438.91858,248.99996 z"
       id="path2852"
       style="fill:#31c2ee;fill-opacity:1;stroke:none;display:inline" />
    <path
       d="M -448.91858,258.99896 C -448.91858,258.99896 -449.79498,257.99896 -449.79498,257.99896 L -455.05198,257.99996 C -455.53748,257.99996 -455.92838,258.44586 -455.92838,258.99996 C -455.92838,259.55396 -455.53748,259.99996 -455.05198,259.99996 L -449.79498,259.99896 C -449.79498,259.99896 -448.91858,258.99896 -448.91858,258.99896 z"
       id="path2856"
       style="fill:#31c2ee;fill-opacity:1;stroke:none;display:inline" />
    <path
       d="M -454.91858,252.99996 C -454.91858,252.99996 -453.91858,253.99996 -453.91858,253.99996 L -453.91768,259.01486 C -453.91768,259.56886 -454.36368,260.01486 -454.91768,260.01486 C -455.47158,260.01486 -455.91768,259.56886 -455.91768,259.01486 L -455.91858,253.99996 C -455.91858,253.99996 -454.91858,252.99996 -454.91858,252.99996 z"
       id="path2858"
       style="fill:#31c2ee;fill-opacity:1;stroke:none;display:inline" />
    <path
       d="M -444.91858,258.99996 C -444.91858,258.99996 -444.04228,257.99996 -444.04228,257.99996 L -438.78518,257.99996 C -438.29968,257.99996 -437.90878,258.44596 -437.90878,258.99996 C -437.90878,259.55396 -438.29968,259.99996 -438.78518,259.99996 L -444.04228,259.99996 C -444.04228,259.99996 -444.91858,258.99996 -444.91858,258.99996 z"
       id="path2862"
       style="fill:#31c2ee;fill-opacity:1;stroke:none;display:inline" />
    <path
       d="M -438.91858,252.99996 C -438.91858,252.99996 -439.91858,253.99996 -439.91858,253.99996 L -439.91958,259.01486 C -439.91958,259.56886 -439.47358,260.01486 -438.91958,260.01486 C -438.36558,260.01486 -437.91958,259.56886 -437.91958,259.01486 L -437.91858,253.99996 C -437.91858,253.99996 -438.91858,252.99996 -438.91858,252.99996 z"
       id="path2864-2"
       style="fill:#31c2ee;fill-opacity:1;stroke:none;display:inline" />
    <path
       d="M -448.26119,249.7113 C -448.65299,250.1031 -449.28369,250.1031 -449.67539,249.7113 L -455.62331,243.703 C -456.01511,243.3112 -456.01511,242.6805 -455.62331,242.2888 C -455.23161,241.897 -454.60091,241.897 -454.20911,242.2888 L -448.26119,248.2971 C -447.86949,248.6888 -447.86949,249.3196 -448.26119,249.7113 z"
       id="path5659"
       style="fill:url(#linearGradient8933);fill-opacity:1;stroke:none;display:inline" />
    <path
       d="M -445.57455,249.7113 C -445.18275,250.1031 -444.55205,250.1031 -444.16035,249.7113 L -438.21243,243.703 C -437.82063,243.3112 -437.82063,242.6805 -438.21243,242.2888 C -438.60413,241.897 -439.23483,241.897 -439.62664,242.2888 L -445.57455,248.2971 C -445.96625,248.6888 -445.96625,249.3196 -445.57455,249.7113 z"
       id="path8119"
       style="fill:url(#linearGradient8930);fill-opacity:1;stroke:none;display:inline" />
    <path
       d="M -448.26119,252.28361 C -448.65299,251.89181 -449.28369,251.89181 -449.67539,252.28361 L -455.62331,258.29191 C -456.01511,258.68371 -456.01511,259.31441 -455.62331,259.70611 C -455.23161,260.09791 -454.60091,260.09791 -454.20911,259.70611 L -448.26119,253.69781 C -447.86949,253.30611 -447.86949,252.67531 -448.26119,252.28361 z"
       id="path8123"
       style="fill:url(#linearGradient8927);fill-opacity:1;stroke:none;display:inline" />
    <path
       d="M -445.57455,252.28361 C -445.18275,251.89181 -444.55205,251.89181 -444.16035,252.28361 L -438.21243,258.29191 C -437.82063,258.68371 -437.82063,259.31441 -438.21243,259.70611 C -438.60413,260.09791 -439.23483,260.09791 -439.62664,259.70611 L -445.57455,253.69781 C -445.96625,253.30611 -445.96625,252.67531 -445.57455,252.28361 z"
       id="path8125"
       style="fill:url(#linearGradient8924);fill-opacity:1;stroke:none;display:inline" />
    <rect
       width="24"
       height="24"
       x="-458.935"
       y="239.05426"
       id="rect8942"
       style="opacity:0;fill:#ffffff;fill-opacity:1;stroke:none;display:inline" />
  </g>
</svg>
