<?xml version="1.0" encoding="UTF-8" standalone="no"?>
<!-- Created with Inkscape (http://www.inkscape.org/) -->
<svg
   xmlns:svg="http://www.w3.org/2000/svg"
   xmlns="http://www.w3.org/2000/svg"
   xmlns:xlink="http://www.w3.org/1999/xlink"
   version="1.0"
   width="24"
   height="24"
   id="svg7384">
  <defs
     id="defs7386">
    <linearGradient
       id="linearGradient6727">
      <stop
         id="stop6729"
         style="stop-color:#c7c7c7;stop-opacity:1"
         offset="0" />
      <stop
         id="stop6731"
         style="stop-color:#bebebe;stop-opacity:0"
         offset="1" />
    </linearGradient>
    <linearGradient
       x1="702.09009"
       y1="314.96198"
       x2="702.09009"
       y2="320.44153"
       id="linearGradient8923"
       xlink:href="#linearGradient6727"
       gradientUnits="userSpaceOnUse"
       gradientTransform="matrix(1,0,0,1.2540665,-442.09003,-12.51454)" />
  </defs>
  <g
     transform="translate(394.935,-239.05426)"
     id="layer3" />
  <g
     transform="translate(394.935,-239.05426)"
     id="layer5" />
  <g
     transform="translate(394.935,-239.05426)"
     id="layer7" />
  <g
     transform="translate(394.935,-239.05426)"
     id="layer2" />
  <g
     transform="translate(394.935,-239.05426)"
     id="layer8" />
  <g
     transform="translate(394.935,-1191.4164)"
     id="layer1" />
  <g
     transform="translate(394.935,-239.05426)"
     id="layer4" />
  <g
     transform="translate(394.935,-239.05426)"
     id="layer9" />
  <g
     transform="translate(394.935,-239.05426)"
     id="layer6">
    <rect
       width="24"
       height="24"
       x="370.935"
       y="239.05426"
       transform="scale(-1,1)"
       id="rect8940"
       style="opacity:0;fill:#ffffff;fill-opacity:1;stroke:none;display:inline" />
    <path
       d="M -373.90081,243.91886 C -375.71218,242.10749 -378.20976,240.97969 -380.9643,240.97969 C -386.47336,240.97969 -390.96695,245.47328 -390.96695,250.98234 C -390.97349,251.5387 -390.52778,251.99503 -389.97142,252.00157 C -389.41507,252.00812 -388.95874,251.5624 -388.9522,251.00605 C -388.9522,246.57911 -385.39123,243.01814 -380.9643,243.01814 C -376.53736,243.01814 -372.97639,246.57911 -372.97639,251.00605 C -372.97639,255.43298 -376.53736,258.99395 -380.9643,258.99395 C -381.34275,258.95762 -381.70907,259.13903 -381.90957,259.46205 C -382.11007,259.78508 -382.11007,260.19386 -381.90957,260.51689 C -381.70907,260.83992 -381.34275,261.02132 -380.9643,260.985 C -375.45523,260.985 -370.96164,256.4914 -370.96164,250.98234 C -370.96164,248.22781 -372.08944,245.73022 -373.90081,243.91886 z"
       id="path2900"
       style="fill:#bebebe;fill-opacity:1;stroke:none;stroke-width:1.86449945;stroke-linecap:round;stroke-miterlimit:4;stroke-dasharray:none;stroke-opacity:1;display:inline" />
    <path
       d="M -384.91858,250.99996 C -384.91858,250.99996 -384.91858,252.41416 -384.91858,252.41416 L -389.22158,256.69226 C -389.61338,257.08406 -390.24408,257.08406 -390.63588,256.69226 C -391.02758,256.30056 -391.02758,255.66986 -390.63588,255.27806 L -386.33288,250.99996 C -386.33288,250.99996 -384.91858,250.99996 -384.91858,250.99996 z"
       id="rect2832-6"
       style="fill:#bebebe;fill-opacity:1;stroke:none;display:inline" />
    <path
       d="M -394.91838,250.99996 C -394.91838,250.99996 -394.91838,252.41416 -394.91838,252.41416 L -390.60958,256.68656 C -390.21788,257.07826 -389.58718,257.07826 -389.19538,256.68656 C -388.80368,256.29486 -388.80368,255.66406 -389.19538,255.27236 L -393.50418,250.99996 C -393.50418,250.99996 -394.91838,250.99996 -394.91838,250.99996 z"
       id="path2869"
       style="fill:#bebebe;fill-opacity:1;stroke:none;display:inline" />
    <rect
       width="2"
       height="6"
       rx="1"
       ry="0.99999976"
       x="-390.91858"
       y="250"
       id="rect2871-2"
       style="fill:#bebebe;fill-opacity:1;stroke:none;display:inline" />
    <rect
       width="2"
       height="10.032532"
       rx="1"
       ry="0.9999997"
       x="259.00006"
       y="379.96747"
       transform="matrix(0,1,-1,0,0,0)"
       id="rect2871-1"
       style="fill:url(#linearGradient8923);fill-opacity:1;stroke:none;display:inline" />
  </g>
</svg>
