<?xml version="1.0" encoding="UTF-8" standalone="no"?>
<!-- Created with Inkscape (http://www.inkscape.org/) -->
<svg
   xmlns:svg="http://www.w3.org/2000/svg"
   xmlns="http://www.w3.org/2000/svg"
   version="1.0"
   width="24"
   height="24"
   id="svg7384">
  <defs
     id="defs7386" />
  <g
     transform="translate(426.96747,-307.00006)"
     id="layer3" />
  <g
     transform="translate(426.96747,-307.00006)"
     id="layer5" />
  <g
     transform="translate(426.96747,-307.00006)"
     id="layer7" />
  <g
     transform="translate(426.96747,-307.00006)"
     id="layer2" />
  <g
     transform="translate(426.96747,-307.00006)"
     id="layer8" />
  <g
     transform="translate(426.96747,-1259.3622)"
     id="layer1" />
  <g
     transform="translate(426.96747,-307.00006)"
     id="layer4" />
  <g
     transform="translate(426.96747,-307.00006)"
     id="layer9" />
  <g
     transform="translate(426.96747,-307.00006)"
     id="layer6">
    <rect
       width="24"
       height="24"
       x="402.96747"
       y="307.00006"
       transform="scale(-1,1)"
       id="rect9164"
       style="opacity:0;fill:#ffffff;fill-opacity:1;stroke:none;display:inline" />
    <g
       transform="translate(-426.97469,306.9974)"
       id="layer1-13"
       style="fill:#8f8f8f;fill-opacity:1;display:inline">
      <g
         transform="translate(2.0002372,2.0019592)"
         id="g2820"
         style="fill:#8f8f8f;fill-opacity:1">
        <path
           d="M 5.3894728,15.987364 L 16.00702,5.3975546 C 16.00702,5.3975546 16.00702,4.0005876 16.00702,4.0005876 C 16.00702,4.0005876 14.610053,4.0005876 14.610053,4.0005876 L 3.9925058,14.590397 C 3.9925058,14.590397 3.9925057,15.987364 3.9925057,15.987364 C 3.9925057,15.987364 5.3894728,15.987364 5.3894728,15.987364 z"
           id="path2767"
           style="fill:#8f8f8f;fill-opacity:1;stroke:none;display:inline" />
        <path
           d="M 14.599213,15.995494 L 4.001991,5.3989096 C 4.001991,5.3989096 4.001991,4.0019426 4.001991,4.0019426 C 4.001991,4.0019426 5.398958,4.0019426 5.398958,4.0019426 L 15.99618,14.598527 C 15.99618,14.598527 15.99618,15.995494 15.99618,15.995494 C 15.99618,15.995494 14.599213,15.995494 14.599213,15.995494 L 14.599213,15.995494 z"
           id="path2769"
           style="fill:#8f8f8f;fill-opacity:1;stroke:none;display:inline" />
      </g>
    </g>
  </g>
</svg>
