<?xml version="1.0" encoding="UTF-8" standalone="no"?>
<!-- Created with Inkscape (http://www.inkscape.org/) -->
<svg
   xmlns:svg="http://www.w3.org/2000/svg"
   xmlns="http://www.w3.org/2000/svg"
   version="1.0"
   width="24"
   height="24"
   id="svg7384">
  <defs
     id="defs7386" />
  <g
     transform="translate(427,-207)"
     id="layer3" />
  <g
     transform="translate(427,-207)"
     id="layer5" />
  <g
     transform="translate(427,-207)"
     id="layer7" />
  <g
     transform="translate(427,-207)"
     id="layer2" />
  <g
     transform="translate(427,-207)"
     id="layer8" />
  <g
     transform="translate(427,-1159.3622)"
     id="layer1" />
  <g
     transform="translate(427,-207)"
     id="layer4" />
  <g
     transform="translate(427,-207)"
     id="layer9" />
  <g
     transform="translate(427,-207)"
     id="layer6">
    <rect
       width="24"
       height="24"
       x="-427"
       y="207"
       id="rect7498"
       style="opacity:0;fill:#ffffff;fill-opacity:1;stroke:none;display:inline" />
    <path
       d="M -406.9905,217.99516 C -406.9905,222.94861 -411.03296,226.98517 -415.99364,226.98517 C -420.95432,226.98517 -424.99678,222.94861 -424.99678,217.99516 C -424.99678,213.04172 -420.95432,209.00516 -415.99364,209.00516 C -411.03296,209.00516 -406.9905,213.04172 -406.9905,217.99516 z M -408.99362,217.99516 C -408.99362,214.12306 -412.11587,210.99448 -415.99364,210.99448 C -419.87141,210.99448 -423.00455,214.12306 -423.00455,217.99516 C -423.00455,221.86727 -419.87141,224.98497 -415.99364,224.98497 C -412.11587,224.98497 -408.99362,221.86727 -408.99362,217.99516 z"
       id="path3049-3"
       style="fill:#bebebe;fill-opacity:1;stroke:none;stroke-width:5.74524546;stroke-linecap:round;stroke-miterlimit:4;stroke-dasharray:none;stroke-dashoffset:0;stroke-opacity:1;display:inline" />
    <rect
       width="2.0027101"
       height="4"
       rx="1.0013551"
       ry="1.0013551"
       x="-215"
       y="414"
       transform="matrix(0,-1,-1,0,0,0)"
       id="rect3856"
       style="fill:#31c2ee;fill-opacity:1;stroke:none;display:inline" />
    <rect
       width="2.0027101"
       height="3.999999"
       rx="1.0013551"
       ry="1.0013551"
       x="-223"
       y="414"
       transform="matrix(0,-1,-1,0,0,0)"
       id="rect3868"
       style="fill:#31c2ee;fill-opacity:1;stroke:none;display:inline" />
    <rect
       width="2.0027101"
       height="3.9972897"
       rx="1.0013551"
       ry="1.0013551"
       x="-413.00122"
       y="-219.99725"
       transform="scale(1,-1)"
       id="rect3870"
       style="fill:#31c2ee;fill-opacity:1;stroke:none;display:inline" />
    <rect
       width="2.0027101"
       height="3.9972897"
       rx="1.0013551"
       ry="1.0013551"
       x="-421.00122"
       y="-219.99725"
       transform="scale(1,-1)"
       id="rect3872"
       style="fill:#31c2ee;fill-opacity:1;stroke:none;display:inline" />
    <rect
       width="1.0000246"
       height="1.0000057"
       rx="0"
       ry="0"
       x="-420"
       y="-217"
       transform="scale(1,-1)"
       id="rect5942"
       style="fill:#31c2ee;fill-opacity:1;stroke:none;display:inline" />
    <rect
       width="1.0000246"
       height="1.0000057"
       rx="0"
       ry="0"
       x="-420"
       y="-220"
       transform="scale(1,-1)"
       id="rect5944"
       style="fill:#31c2ee;fill-opacity:1;stroke:none;display:inline" />
    <rect
       width="1.0000246"
       height="1.0000057"
       rx="0"
       ry="0"
       x="-418"
       y="-222"
       transform="scale(1,-1)"
       id="rect5946"
       style="fill:#31c2ee;fill-opacity:1;stroke:none;display:inline" />
    <rect
       width="1.0000246"
       height="1.0000057"
       rx="0"
       ry="0"
       x="-415"
       y="-222"
       transform="scale(1,-1)"
       id="rect5948"
       style="fill:#31c2ee;fill-opacity:1;stroke:none;display:inline" />
    <rect
       width="1.0000246"
       height="1.0000057"
       rx="0"
       ry="0"
       x="-413"
       y="-220"
       transform="scale(1,-1)"
       id="rect5950"
       style="fill:#31c2ee;fill-opacity:1;stroke:none;display:inline" />
    <rect
       width="1.0000246"
       height="1.0000057"
       rx="0"
       ry="0"
       x="-413"
       y="-217"
       transform="scale(1,-1)"
       id="rect5952"
       style="fill:#31c2ee;fill-opacity:1;stroke:none;display:inline" />
    <rect
       width="1.0000246"
       height="1.0000057"
       rx="0"
       ry="0"
       x="-415"
       y="-215"
       transform="scale(1,-1)"
       id="rect5954"
       style="fill:#31c2ee;fill-opacity:1;stroke:none;display:inline" />
    <rect
       width="1.0000246"
       height="1.0000057"
       rx="0"
       ry="0"
       x="-418"
       y="-215"
       transform="scale(1,-1)"
       id="rect5956"
       style="fill:#31c2ee;fill-opacity:1;stroke:none;display:inline" />
    <path
       d="M -410.95142,223.04879 C -410.55922,222.65652 -409.92762,222.65652 -409.53532,223.04878 L -404.99992,227.58221 C -404.99992,227.58221 -404.99992,228.99835 -404.99992,228.99835 C -404.99992,228.99835 -406.41602,228.99834 -406.41602,228.99834 L -410.95142,224.46491 C -411.34372,224.07265 -411.34372,223.44105 -410.95142,223.04879 L -410.95142,223.04879 z"
       id="path5969"
       style="fill:#bebebe;fill-opacity:1;stroke:none;display:inline" />
  </g>
</svg>
