<?xml version="1.0" encoding="UTF-8" standalone="no"?>
<!-- Created with Inkscape (http://www.inkscape.org/) -->
<svg
   xmlns:svg="http://www.w3.org/2000/svg"
   xmlns="http://www.w3.org/2000/svg"
   version="1.0"
   width="24"
   height="24"
   id="svg7384">
  <defs
     id="defs7386" />
  <g
     transform="translate(459,-207)"
     id="layer3" />
  <g
     transform="translate(459,-207)"
     id="layer5" />
  <g
     transform="translate(459,-207)"
     id="layer7" />
  <g
     transform="translate(459,-207)"
     id="layer2" />
  <g
     transform="translate(459,-207)"
     id="layer8" />
  <g
     transform="translate(459,-1159.3622)"
     id="layer1" />
  <g
     transform="translate(459,-207)"
     id="layer4" />
  <g
     transform="translate(459,-207)"
     id="layer9" />
  <g
     transform="translate(459,-207)"
     id="layer6">
    <rect
       width="24"
       height="24"
       x="435"
       y="207"
       transform="scale(-1,1)"
       id="rect7496"
       style="opacity:0;fill:#ffffff;fill-opacity:1;stroke:none;display:inline" />
    <path
       d="M -438.9905,217.99516 C -438.9905,222.94861 -443.03296,226.98517 -447.99364,226.98517 C -452.95432,226.98517 -456.99678,222.94861 -456.99678,217.99516 C -456.99678,213.04172 -452.95432,209.00516 -447.99364,209.00516 C -443.03296,209.00516 -438.9905,213.04172 -438.9905,217.99516 z M -440.99362,217.99516 C -440.99362,214.12306 -444.11587,210.99448 -447.99364,210.99448 C -451.87141,210.99448 -455.00455,214.12306 -455.00455,217.99516 C -455.00455,221.86727 -451.87141,224.98497 -447.99364,224.98497 C -444.11587,224.98497 -440.99362,221.86727 -440.99362,217.99516 z"
       id="path3049-4"
       style="fill:#bebebe;fill-opacity:1;stroke:none;stroke-width:5.74524546;stroke-linecap:round;stroke-miterlimit:4;stroke-dasharray:none;stroke-dashoffset:0;stroke-opacity:1;display:inline" />
    <g
       transform="translate(-1035.9999,-83.0901)"
       id="g7580"
       style="fill:#31c2ee;fill-opacity:1;display:inline">
      <g
         transform="translate(577,290.09003)"
         id="g3710"
         style="fill:#31c2ee;fill-opacity:1">
        <path
           d="M -12.73131,-1.4016972 C -12.73131,-1.4016972 -11.729955,-0.40034222 -11.729955,-0.40034222 L -11.728455,2.8252221 C -11.728455,3.3799728 -12.17506,3.8265772 -12.72981,3.8265772 C -13.284561,3.8265772 -13.731166,3.3799728 -13.731166,2.8252221 L -13.732666,-0.40034222 C -13.732666,-0.40034222 -12.73131,-1.4016972 -12.73131,-1.4016972 z"
           transform="matrix(-0.7071068,-0.7071068,0.7071068,-0.7071068,0,0)"
           id="rect3664-9"
           style="fill:#31c2ee;fill-opacity:1;stroke:none;display:inline" />
        <path
           d="M 13.999948,9.9964193 C 13.999948,9.9964193 13.999948,8.5802895 13.999948,8.5802895 L 11.713474,6.2955448 C 11.321206,5.9032769 10.689612,5.9032773 10.297344,6.2955448 C 9.9050763,6.687813 9.9050758,7.3194074 10.297344,7.7116754 L 12.583817,9.99642 C 12.583817,9.99642 13.999948,9.9964193 13.999948,9.9964193 z"
           id="path3708"
           style="fill:#31c2ee;fill-opacity:1;stroke:none;display:inline" />
      </g>
      <g
         transform="matrix(1,0,0,-1,577,312.08645)"
         id="g2831"
         style="fill:#31c2ee;fill-opacity:1">
        <path
           d="M -12.73131,-1.4016972 C -12.73131,-1.4016972 -11.729955,-0.40034222 -11.729955,-0.40034222 L -11.728455,2.8252221 C -11.728455,3.3799728 -12.17506,3.8265772 -12.72981,3.8265772 C -13.284561,3.8265772 -13.731166,3.3799728 -13.731166,2.8252221 L -13.732666,-0.40034222 C -13.732666,-0.40034222 -12.73131,-1.4016972 -12.73131,-1.4016972 z"
           transform="matrix(-0.7071068,-0.7071068,0.7071068,-0.7071068,0,0)"
           id="path2833"
           style="fill:#31c2ee;fill-opacity:1;stroke:none;display:inline" />
        <path
           d="M 13.999948,9.9964193 C 13.999948,9.9964193 13.999948,8.5802895 13.999948,8.5802895 L 11.713474,6.2955448 C 11.321206,5.9032769 10.689612,5.9032773 10.297344,6.2955448 C 9.9050763,6.687813 9.9050758,7.3194074 10.297344,7.7116754 L 12.583817,9.99642 C 12.583817,9.99642 13.999948,9.9964193 13.999948,9.9964193 z"
           id="path2835"
           style="fill:#31c2ee;fill-opacity:1;stroke:none;display:inline" />
      </g>
    </g>
    <path
       d="M -441.95142,223.04879 C -441.55922,222.65652 -440.92762,222.65652 -440.53532,223.04878 L -435.99992,227.58221 C -435.99992,227.58221 -435.99992,228.99835 -435.99992,228.99835 C -435.99992,228.99835 -437.41602,228.99834 -437.41602,228.99834 L -441.95142,224.46491 C -442.34372,224.07265 -442.34372,223.44105 -441.95142,223.04879 L -441.95142,223.04879 z"
       id="path5967"
       style="fill:#bebebe;fill-opacity:1;stroke:none;display:inline" />
  </g>
</svg>
