<?xml version="1.0" encoding="UTF-8" standalone="no"?>
<!-- Created with Inkscape (http://www.inkscape.org/) -->
<svg
   xmlns:svg="http://www.w3.org/2000/svg"
   xmlns="http://www.w3.org/2000/svg"
   version="1.0"
   width="24"
   height="24"
   id="svg7384">
  <defs
     id="defs7386" />
  <g
     transform="translate(555,-207)"
     id="layer3" />
  <g
     transform="translate(555,-207)"
     id="layer5" />
  <g
     transform="translate(555,-207)"
     id="layer7" />
  <g
     transform="translate(555,-207)"
     id="layer2" />
  <g
     transform="translate(555,-207)"
     id="layer8" />
  <g
     transform="translate(555,-1159.3622)"
     id="layer1" />
  <g
     transform="translate(555,-207)"
     id="layer4" />
  <g
     transform="translate(555,-207)"
     id="layer9" />
  <g
     transform="translate(555,-207)"
     id="layer6">
    <rect
       width="24"
       height="24"
       x="-555"
       y="207"
       id="rect7490"
       style="opacity:0;fill:#ffffff;fill-opacity:1;stroke:none;display:inline" />
    <path
       d="M -534.99044,217.99516 C -534.99044,222.94861 -539.0329,226.98517 -543.99358,226.98517 C -548.95426,226.98517 -552.99672,222.94861 -552.99672,217.99516 C -552.99672,213.04172 -548.95426,209.00516 -543.99358,209.00516 C -539.0329,209.00516 -534.99044,213.04172 -534.99044,217.99516 z M -536.99356,217.99516 C -536.99356,214.12306 -540.11581,210.99448 -543.99358,210.99448 C -547.87135,210.99448 -551.00449,214.12306 -551.00449,217.99516 C -551.00449,221.86727 -547.87135,224.98497 -543.99358,224.98497 C -540.11581,224.98497 -536.99356,221.86727 -536.99356,217.99516 z"
       id="path7538"
       style="fill:#bebebe;fill-opacity:1;stroke:none;stroke-width:5.74524546;stroke-linecap:round;stroke-miterlimit:4;stroke-dasharray:none;stroke-dashoffset:0;stroke-opacity:1;display:inline" />
    <rect
       width="2.0027101"
       height="8"
       rx="1.0013551"
       ry="1.0013551"
       x="-219.00275"
       y="-547.98816"
       transform="matrix(0,-1,1,0,0,0)"
       id="rect7544"
       style="fill:#31c2ee;fill-opacity:1;stroke:none;display:inline" />
    <path
       d="M -537.95136,223.04879 C -537.55916,222.65652 -536.92756,222.65652 -536.53526,223.04878 L -531.99986,227.58221 C -531.99986,227.58221 -531.99986,228.99835 -531.99986,228.99835 C -531.99986,228.99835 -533.41596,228.99834 -533.41596,228.99834 L -537.95136,224.46491 C -538.34366,224.07265 -538.34366,223.44105 -537.95136,223.04879 L -537.95136,223.04879 z"
       id="path5961"
       style="fill:#bebebe;fill-opacity:1;stroke:none;display:inline" />
  </g>
</svg>
