<?xml version="1.0" encoding="UTF-8" standalone="no"?>
<!-- Created with Inkscape (http://www.inkscape.org/) -->
<svg
   xmlns:svg="http://www.w3.org/2000/svg"
   xmlns="http://www.w3.org/2000/svg"
   version="1.0"
   width="24"
   height="24"
   id="svg7384">
  <defs
     id="defs7386" />
  <g
     transform="translate(523,-207)"
     id="layer3" />
  <g
     transform="translate(523,-207)"
     id="layer5" />
  <g
     transform="translate(523,-207)"
     id="layer7" />
  <g
     transform="translate(523,-207)"
     id="layer2" />
  <g
     transform="translate(523,-207)"
     id="layer8" />
  <g
     transform="translate(523,-1159.3622)"
     id="layer1" />
  <g
     transform="translate(523,-207)"
     id="layer4" />
  <g
     transform="translate(523,-207)"
     id="layer9" />
  <g
     transform="translate(523,-207)"
     id="layer6">
    <rect
       width="24"
       height="24"
       x="499"
       y="207"
       transform="scale(-1,1)"
       id="rect7492"
       style="opacity:0;fill:#ffffff;fill-opacity:1;stroke:none;display:inline" />
    <path
       d="M -502.9905,217.99516 C -502.9905,222.94861 -507.03296,226.98517 -511.99364,226.98517 C -516.95432,226.98517 -520.99678,222.94861 -520.99678,217.99516 C -520.99678,213.04172 -516.95432,209.00516 -511.99364,209.00516 C -507.03296,209.00516 -502.9905,213.04172 -502.9905,217.99516 z M -504.99362,217.99516 C -504.99362,214.12306 -508.11587,210.99448 -511.99364,210.99448 C -515.87141,210.99448 -519.00455,214.12306 -519.00455,217.99516 C -519.00455,221.86727 -515.87141,224.98497 -511.99364,224.98497 C -508.11587,224.98497 -504.99362,221.86727 -504.99362,217.99516 z"
       id="path3049-7"
       style="fill:#bebebe;fill-opacity:1;stroke:none;stroke-width:5.74524546;stroke-linecap:round;stroke-miterlimit:4;stroke-dasharray:none;stroke-dashoffset:0;stroke-opacity:1;display:inline" />
    <rect
       width="2.0027101"
       height="6.9995422"
       rx="1.0013551"
       ry="1.0013551"
       x="514"
       y="-221.96796"
       transform="scale(-1,-1)"
       id="rect3621-0"
       style="fill:#31c2ee;fill-opacity:1;stroke:none;display:inline" />
    <rect
       width="2.0027101"
       height="7.0027466"
       rx="1.0013551"
       ry="1.0013551"
       x="507.99731"
       y="-221.97119"
       transform="scale(-1,-1)"
       id="rect7608"
       style="fill:#31c2ee;fill-opacity:1;stroke:none;display:inline" />
    <rect
       width="2.0027101"
       height="2"
       rx="1.0013551"
       ry="1.0013551"
       x="511"
       y="-219"
       transform="scale(-1,-1)"
       id="rect7610"
       style="fill:#31c2ee;fill-opacity:1;stroke:none;display:inline" />
    <rect
       width="2.0027101"
       height="2"
       rx="1.0013551"
       ry="1.0013551"
       x="511"
       y="-222"
       transform="scale(-1,-1)"
       id="rect7612"
       style="fill:#31c2ee;fill-opacity:1;stroke:none;display:inline" />
    <rect
       width="3.0027337"
       height="1.0315651"
       rx="0.51578254"
       ry="0.51578254"
       x="507.99731"
       y="-217"
       transform="scale(-1,-1)"
       id="rect9460"
       style="fill:#31c2ee;fill-opacity:1;stroke:none;display:inline" />
    <rect
       width="2.9999554"
       height="1.0139499"
       rx="0.50697494"
       ry="0.50697494"
       x="514"
       y="-216.98236"
       transform="scale(-1,-1)"
       id="rect9462"
       style="fill:#31c2ee;fill-opacity:1;stroke:none;display:inline" />
    <path
       d="M -505.95142,223.04879 C -505.55922,222.65652 -504.92762,222.65652 -504.53532,223.04878 L -499.99992,227.58221 C -499.99992,227.58221 -499.99992,228.99835 -499.99992,228.99835 C -499.99992,228.99835 -501.41602,228.99834 -501.41602,228.99834 L -505.95142,224.46491 C -506.34372,224.07265 -506.34372,223.44105 -505.95142,223.04879 L -505.95142,223.04879 z"
       id="path5963"
       style="fill:#bebebe;fill-opacity:1;stroke:none;display:inline" />
  </g>
</svg>
