<?xml version="1.0" encoding="UTF-8" standalone="no"?>
<!-- Created with Inkscape (http://www.inkscape.org/) -->
<svg
   xmlns:svg="http://www.w3.org/2000/svg"
   xmlns="http://www.w3.org/2000/svg"
   version="1.0"
   width="24.025412"
   height="24"
   id="svg7384">
  <defs
     id="defs7386" />
  <g
     transform="translate(-1157.9746,-201)"
     id="layer3" />
  <g
     transform="translate(-1157.9746,-201)"
     id="layer5">
    <rect
       width="24"
       height="24"
       x="-1182"
       y="201"
       transform="scale(-1,1)"
       id="rect8918-5"
       style="opacity:0;fill:#ffffff;fill-opacity:1;stroke:none;display:inline" />
    <path
       d="M 1170.8751,217.09348 C 1173.4026,219.621 1177.5352,219.61798 1180.0664,217.08677 C 1182.5976,214.55556 1182.6006,210.42294 1180.0731,207.89543 C 1177.5456,205.36791 1173.413,205.37093 1170.8818,207.90214 C 1168.3506,210.43335 1168.3475,214.56596 1170.8751,217.09348 z M 1172.2881,215.68043 C 1170.5252,213.91753 1170.5273,211.0786 1172.2928,209.31313 C 1174.0582,207.54765 1176.8972,207.54558 1178.6601,209.30848 C 1180.423,211.07137 1180.4209,213.91031 1178.6554,215.67578 C 1176.8899,217.44125 1174.051,217.44333 1172.2881,215.68043 z"
       id="path3049-2-2"
       style="fill:#bebebe;fill-opacity:1;stroke:none;stroke-width:8.35672283;stroke-linecap:round;stroke-miterlimit:4;stroke-dasharray:none;stroke-dashoffset:0;stroke-opacity:1;display:inline" />
    <path
       d="M 1159.875,217.09347 C 1162.4026,219.62098 1166.5352,219.61797 1169.0664,217.08675 C 1171.5976,214.55554 1171.6006,210.42293 1169.0731,207.89541 C 1166.5456,205.36789 1162.413,205.37091 1159.8818,207.90212 C 1157.3505,210.43333 1157.3475,214.56595 1159.875,217.09347 z M 1161.2881,215.68042 C 1159.5252,213.91752 1159.5273,211.07858 1161.2927,209.31311 C 1163.0582,207.54763 1165.8971,207.54556 1167.66,209.30846 C 1169.4229,211.07136 1169.4209,213.91029 1167.6554,215.67577 C 1165.8899,217.44124 1163.051,217.44331 1161.2881,215.68042 z"
       id="path12710"
       style="fill:#bebebe;fill-opacity:1;stroke:none;stroke-width:8.35672092;stroke-linecap:round;stroke-miterlimit:4;stroke-dasharray:none;stroke-dashoffset:0;stroke-opacity:1;display:inline" />
  </g>
  <g
     transform="translate(-1157.9746,-201)"
     id="layer7" />
  <g
     transform="translate(-1157.9746,-201)"
     id="layer2" />
  <g
     transform="translate(-1157.9746,-201)"
     id="layer8" />
  <g
     transform="translate(-1157.9746,-1153.3622)"
     id="layer1" />
  <g
     transform="translate(-1157.9746,-201)"
     id="layer4" />
  <g
     transform="translate(-1157.9746,-201)"
     id="layer9" />
  <g
     transform="translate(-1157.9746,-201)"
     id="layer6" />
</svg>
