<?xml version="1.0" encoding="UTF-8" standalone="no"?>
<!-- Created with Inkscape (http://www.inkscape.org/) -->
<svg
   xmlns:svg="http://www.w3.org/2000/svg"
   xmlns="http://www.w3.org/2000/svg"
   xmlns:xlink="http://www.w3.org/1999/xlink"
   version="1.0"
   width="24.04772"
   height="24"
   id="svg7384">
  <defs
     id="defs7386">
    <linearGradient
       id="linearGradient7487-6">
      <stop
         id="stop7489-8"
         style="stop-color:#bebebe;stop-opacity:1"
         offset="0" />
      <stop
         id="stop7491-2"
         style="stop-color:#bebebe;stop-opacity:0"
         offset="1" />
    </linearGradient>
    <linearGradient
       x1="105.91268"
       y1="121.73069"
       x2="105.91268"
       y2="115.05012"
       id="linearGradient8947"
       xlink:href="#linearGradient7487-6"
       gradientUnits="userSpaceOnUse"
       gradientTransform="matrix(1,0,0,1.273349,-301.91288,-1328.442)" />
    <linearGradient
       x1="105.91268"
       y1="121.0463"
       x2="105.91268"
       y2="115.05012"
       id="linearGradient8951"
       xlink:href="#linearGradient7487-6"
       gradientUnits="userSpaceOnUse"
       gradientTransform="matrix(1,0,0,1.091442,-301.91288,1032.4783)" />
  </defs>
  <g
     transform="translate(-1157.9523,-174.00293)"
     id="layer3" />
  <g
     transform="translate(-1157.9523,-174.00293)"
     id="layer5">
    <rect
       width="24"
       height="24"
       x="-1182"
       y="174.00293"
       transform="scale(-1,1)"
       id="rect8223-20-1"
       style="opacity:0;fill:#ffffff;fill-opacity:1;stroke:none;display:inline" />
    <rect
       width="2.0000005"
       height="12"
       rx="1.0000002"
       ry="1.0000002"
       x="-197.00293"
       y="1158"
       transform="matrix(0,-1,1,0,0,0)"
       id="rect7483"
       style="fill:url(#linearGradient8951);fill-opacity:1;stroke:none;display:inline" />
    <rect
       width="2.0000005"
       height="5"
       rx="1.0000002"
       ry="1.0000002"
       x="-1170.0081"
       y="-197.00293"
       transform="scale(-1,-1)"
       id="rect7485"
       style="fill:#bebebe;fill-opacity:1;stroke:none;display:inline" />
    <rect
       width="2.0000005"
       height="14"
       rx="1.0000002"
       ry="1.0000002"
       x="-197.00293"
       y="-1182"
       transform="matrix(0,-1,-1,0,0,0)"
       id="rect7495"
       style="fill:url(#linearGradient8947);fill-opacity:1;stroke:none;display:inline" />
    <g
       transform="translate(707.9375,761)"
       id="use7499-2">
      <path
         d="M 455.00184,-578 L 471.0625,-578 L 471.0625,-572.02066 C 471.0625,-569.94354 469.78607,-568 467.44378,-568 L 451.01478,-568 L 451.01478,-585.97227 L 456.9375,-585.97227 C 458.95323,-585.97227 460,-584.52938 460,-582.97227 L 460.0329,-582 L 469.06249,-582 L 469.06249,-578"
         id="path8921"
         style="fill:none;stroke:#bebebe;stroke-width:2;stroke-linecap:round;stroke-linejoin:round;stroke-miterlimit:4;stroke-dasharray:none;stroke-opacity:1" />
      <path
         d="M 454.51127,-577.94084 L 454.51146,-572 C 454.51127,-569.83448 452.96474,-568.92707 452.03666,-568.92707"
         id="path8923"
         style="fill:none;stroke:#bebebe;stroke-width:1px;stroke-linecap:butt;stroke-linejoin:miter;stroke-opacity:1" />
    </g>
  </g>
  <g
     transform="translate(-1157.9523,-174.00293)"
     id="layer7" />
  <g
     transform="translate(-1157.9523,-174.00293)"
     id="layer2" />
  <g
     transform="translate(-1157.9523,-174.00293)"
     id="layer8" />
  <g
     transform="translate(-1157.9523,-1126.3651)"
     id="layer1" />
  <g
     transform="translate(-1157.9523,-174.00293)"
     id="layer4" />
  <g
     transform="translate(-1157.9523,-174.00293)"
     id="layer9" />
  <g
     transform="translate(-1157.9523,-174.00293)"
     id="layer6" />
</svg>
