<?xml version="1.0" encoding="UTF-8" standalone="no"?>
<!-- Created with Inkscape (http://www.inkscape.org/) -->
<svg
   xmlns:svg="http://www.w3.org/2000/svg"
   xmlns="http://www.w3.org/2000/svg"
   version="1.0"
   width="24"
   height="24"
   id="svg7384">
  <defs
     id="defs7386" />
  <g
     transform="translate(-1129,-175.00293)"
     id="layer3" />
  <g
     transform="translate(-1129,-175.00293)"
     id="layer5">
    <rect
       width="24"
       height="24"
       x="-1153"
       y="175.00293"
       transform="scale(-1,1)"
       id="rect7466"
       style="opacity:0;fill:#ffffff;fill-opacity:1;stroke:none;display:inline" />
    <rect
       width="2.000001"
       height="11.121979"
       rx="1.0000005"
       ry="1.0000005"
       x="-181.00293"
       y="1137.8835"
       transform="matrix(0,-1,1,0,0,0)"
       id="rect7468"
       style="fill:#bebebe;fill-opacity:1;stroke:none;display:inline" />
    <rect
       width="2.0000002"
       height="19"
       rx="1.0000001"
       ry="1.0000001"
       x="1130"
       y="176.00293"
       id="rect7470"
       style="fill:#bebebe;fill-opacity:1;stroke:none;display:inline" />
    <rect
       width="2.0000005"
       height="20.005402"
       rx="1.0000002"
       ry="1.0000002"
       x="-195.00293"
       y="1130.0054"
       transform="matrix(0,-1,1,0,0,0)"
       id="rect7472"
       style="fill:#bebebe;fill-opacity:1;stroke:none;display:inline" />
    <rect
       width="2.0000002"
       height="9.999999"
       rx="1.0000001"
       ry="1.0000001"
       x="-178.00293"
       y="1130.0054"
       transform="matrix(0,-1,1,0,0,0)"
       id="rect7475"
       style="fill:#bebebe;fill-opacity:1;stroke:none;display:inline" />
    <rect
       width="2.1219525"
       height="4.999999"
       rx="1.0609763"
       ry="1.0609763"
       x="1137.8835"
       y="176.00293"
       id="rect7477"
       style="fill:#bebebe;fill-opacity:1;stroke:none;display:inline" />
    <rect
       width="2.0000005"
       height="16.994629"
       rx="1.0000002"
       ry="1.0000002"
       x="-184.00293"
       y="1134.0054"
       transform="matrix(0,-1,1,0,0,0)"
       id="rect7479"
       style="fill:#bebebe;fill-opacity:1;stroke:none;display:inline" />
    <rect
       width="2.0000002"
       height="13"
       rx="1.0000001"
       ry="1.0000001"
       x="1149"
       y="182.00293"
       id="rect6174"
       style="fill:#bebebe;fill-opacity:1;stroke:none;display:inline" />
  </g>
  <g
     transform="translate(-1129,-175.00293)"
     id="layer7" />
  <g
     transform="translate(-1129,-175.00293)"
     id="layer2" />
  <g
     transform="translate(-1129,-175.00293)"
     id="layer8" />
  <g
     transform="translate(-1129,-1127.3651)"
     id="layer1" />
  <g
     transform="translate(-1129,-175.00293)"
     id="layer4" />
  <g
     transform="translate(-1129,-175.00293)"
     id="layer9" />
  <g
     transform="translate(-1129,-175.00293)"
     id="layer6" />
</svg>
