<?xml version="1.0" encoding="UTF-8" standalone="no"?>
<!-- Created with Inkscape (http://www.inkscape.org/) -->
<svg
   xmlns:svg="http://www.w3.org/2000/svg"
   xmlns="http://www.w3.org/2000/svg"
   version="1.0"
   width="24"
   height="24"
   id="svg7384">
  <defs
     id="defs7386" />
  <g
     transform="translate(-1129,-175.00293)"
     id="layer3" />
  <g
     transform="translate(-1129,-175.00293)"
     id="layer5">
    <rect
       width="24"
       height="24"
       x="-1153"
       y="175.00293"
       transform="scale(-1,1)"
       id="rect7466"
       style="opacity:0;fill:#ffffff;fill-opacity:1;stroke:none;display:inline" />
    <path
       d="M 1130.9062,176 C 1130.3909,176.0486 1129.9978,176.48238 1130,177 L 1130,194 C 1130.0001,194.55226 1130.4477,194.99994 1131,195 L 1147,195 C 1148.3351,195 1149.4513,194.27834 1150.0938,193.3125 C 1150.7362,192.34666 1151,191.16251 1151,189.96875 L 1151,183 C 1150.9999,182.44774 1150.5523,182.00006 1150,182 L 1149,182 L 1149,180 C 1148.9999,179.44774 1148.5523,179.00006 1148,179 L 1140,179 L 1140,177 C 1139.9999,176.44774 1139.5523,176.00006 1139,176 L 1131,176 C 1130.9688,175.99853 1130.9374,175.99853 1130.9062,176 L 1130.9062,176 z M 1132,178 L 1138,178 L 1138,180 C 1138.0001,180.55226 1138.4477,180.99994 1139,181 L 1147,181 L 1147,182 L 1135,182 C 1134.6394,181.9949 1134.3039,182.18438 1134.1221,182.49587 C 1133.9403,182.80737 1133.9403,183.19263 1134.1221,183.50413 C 1134.3039,183.81562 1134.6394,184.0051 1135,184 L 1147.8125,184 L 1148.2188,184 L 1149,184 L 1149,189.96875 C 1149,190.85211 1148.7868,191.69354 1148.4375,192.21875 C 1148.0882,192.74396 1147.6978,193 1147,193 L 1132,193 L 1132,178 z"
       id="path4631"
       style="fill:#bebebe;fill-opacity:1;stroke:none;stroke-width:2;stroke-linecap:round;stroke-linejoin:round;stroke-miterlimit:4;stroke-dasharray:none;stroke-opacity:1" />
    <path
       d="M 1134,183 L 1133.9688,190 C 1133.986,190.78143 1133.5003,191.4377 1132.9375,191.90625 C 1132.3747,192.3748 1131.7812,192.625 1131.7812,192.625 L 1132.1875,193.53125 C 1132.1875,193.53125 1132.8769,193.22698 1133.5625,192.65625 C 1134.2481,192.08552 1134.9955,191.20731 1134.9688,190 L 1135,183 L 1134,183 z"
       id="path5427"
       style="fill:#bebebe;fill-opacity:1;stroke:none;stroke-width:1px;stroke-linecap:butt;stroke-linejoin:miter;stroke-opacity:1" />
  </g>
  <g
     transform="translate(-1129,-175.00293)"
     id="layer7" />
  <g
     transform="translate(-1129,-175.00293)"
     id="layer2" />
  <g
     transform="translate(-1129,-175.00293)"
     id="layer8" />
  <g
     transform="translate(-1129,-1127.3651)"
     id="layer1" />
  <g
     transform="translate(-1129,-175.00293)"
     id="layer4" />
  <g
     transform="translate(-1129,-175.00293)"
     id="layer9" />
  <g
     transform="translate(-1129,-175.00293)"
     id="layer6" />
</svg>
