<?xml version="1.0" encoding="UTF-8" standalone="no"?>
<!-- Created with Inkscape (http://www.inkscape.org/) -->
<svg
   xmlns:svg="http://www.w3.org/2000/svg"
   xmlns="http://www.w3.org/2000/svg"
   version="1.0"
   width="24"
   height="24"
   id="svg7384">
  <title
     id="title9167">Moblin Icon Theme</title>
  <defs
     id="defs7386" />
  <g
     transform="translate(-1160,-206)"
     id="layer3" />
  <g
     transform="translate(-1160,-206)"
     id="layer5">
    <rect
       width="24"
       height="24"
       x="-1184"
       y="206"
       transform="scale(-1,1)"
       id="rect7710"
       style="opacity:0;fill:#ffffff;fill-opacity:1;stroke:none;display:inline" />
    <path
       d="M 1160.8438,206.03125 C 1160.3657,206.12243 1160.0226,206.54459 1160.0312,207.03125 L 1160.0312,229 C 1160.0313,229.55226 1160.4789,229.99994 1161.0312,230 L 1179.3438,230 C 1180.7915,230 1182.0291,229.36071 1182.8125,228.40625 C 1183.5959,227.45179 1183.9687,226.21214 1183.9688,224.96875 L 1183.9688,209.0625 C 1183.9687,208.51024 1183.5211,208.06256 1182.9688,208.0625 L 1170.5625,208.0625 C 1170.4064,207.69151 1170.3668,207.25482 1170.0938,206.96875 C 1169.573,206.4232 1168.846,206.03125 1168,206.03125 L 1161.0312,206.03125 C 1160.9689,206.02538 1160.9061,206.02538 1160.8438,206.03125 z M 1162.0312,208.03125 L 1168,208.03125 C 1168.1682,208.03125 1168.4454,208.12281 1168.6562,208.34375 C 1168.8671,208.56469 1168.9688,208.8783 1168.9688,209.0625 C 1168.9689,209.61476 1169.4165,210.06244 1169.9688,210.0625 L 1181.9688,210.0625 L 1181.9688,224.96875 C 1181.9687,225.80248 1181.7217,226.58841 1181.2812,227.125 C 1180.8408,227.66159 1180.2383,228 1179.3438,228 L 1162.0312,228 L 1162.0312,208.03125 z"
       id="path7717"
       style="fill:#bebebe;fill-opacity:1;stroke:none;stroke-width:2;stroke-linecap:round;stroke-linejoin:round;stroke-miterlimit:4;stroke-dasharray:none;stroke-opacity:1" />
    <path
       d="M 1166.9062,212 C 1166.3909,212.0486 1165.9978,212.48238 1166,213 L 1166,224.9375 C 1166.0001,225.48976 1166.4477,225.93744 1167,225.9375 L 1177.0625,225.9375 C 1177.6148,225.93744 1178.0624,225.48976 1178.0625,224.9375 L 1178.0625,217 C 1178.0605,216.72788 1177.9476,216.46834 1177.75,216.28125 L 1173.75,212.34375 C 1173.5654,212.16522 1173.3193,212.06451 1173.0625,212.0625 L 1167,212 C 1166.9688,211.99853 1166.9374,211.99853 1166.9062,212 z M 1168,214 L 1172.6562,214.0625 L 1176.0625,217.40625 L 1176.0625,223.9375 L 1168,223.9375 L 1168,214 z"
       id="path7721"
       style="fill:#bebebe;fill-opacity:1;stroke:none;stroke-width:2;stroke-linecap:round;stroke-linejoin:round;marker:none;stroke-miterlimit:4;stroke-dasharray:none;stroke-dashoffset:0;stroke-opacity:1;visibility:visible;display:inline;overflow:visible;enable-background:accumulate" />
    <path
       d="M 1172,212.96186 L 1172.044,218 L 1177.0379,217.9558 L 1172,212.96186 z"
       id="path7766"
       style="fill:#bebebe;fill-opacity:1;stroke:none;stroke-width:2;marker:none;visibility:visible;display:inline;overflow:visible;enable-background:accumulate" />
  </g>
  <g
     transform="translate(-1160,-206)"
     id="layer7" />
  <g
     transform="translate(-1160,-206)"
     id="layer2" />
  <g
     transform="translate(-1160,-206)"
     id="layer8" />
  <g
     transform="translate(-1160,-1158.3622)"
     id="layer1" />
  <g
     transform="translate(-1160,-206)"
     id="layer11" />
  <g
     transform="translate(-1160,-206)"
     id="layer4" />
  <g
     transform="translate(-1160,-206)"
     id="layer12" />
  <g
     transform="translate(-1160,-206)"
     id="layer9" />
  <g
     transform="translate(-1160,-206)"
     id="layer10" />
  <g
     transform="translate(-1160,-206)"
     id="layer6" />
</svg>
