<?xml version="1.0" encoding="UTF-8" standalone="no"?>
<!-- Created with Inkscape (http://www.inkscape.org/) -->
<svg
   xmlns:svg="http://www.w3.org/2000/svg"
   xmlns="http://www.w3.org/2000/svg"
   xmlns:xlink="http://www.w3.org/1999/xlink"
   version="1.0"
   width="24"
   height="24"
   id="svg7384">
  <defs
     id="defs7386">
    <linearGradient
       id="linearGradient7487-6">
      <stop
         id="stop7489-8"
         style="stop-color:#bebebe;stop-opacity:1"
         offset="0" />
      <stop
         id="stop7491-2"
         style="stop-color:#bebebe;stop-opacity:0"
         offset="1" />
    </linearGradient>
    <linearGradient
       x1="105.91268"
       y1="121.73069"
       x2="105.91268"
       y2="115.05012"
       id="linearGradient8936"
       xlink:href="#linearGradient7487-6"
       gradientUnits="userSpaceOnUse"
       gradientTransform="matrix(1,0,0,1.273349,-302.91288,-1328.442)" />
    <linearGradient
       x1="105.91268"
       y1="121.0463"
       x2="105.91268"
       y2="115.05012"
       id="linearGradient8940"
       xlink:href="#linearGradient7487-6"
       gradientUnits="userSpaceOnUse"
       gradientTransform="matrix(1,0,0,1.091442,-302.91288,1032.4783)" />
  </defs>
  <g
     transform="translate(-1158,-175.00293)"
     id="layer3" />
  <g
     transform="translate(-1158,-175.00293)"
     id="layer5">
    <rect
       width="24"
       height="24"
       x="-1182"
       y="175.00293"
       transform="scale(-1,1)"
       id="rect8223-20-1"
       style="opacity:0;fill:#ffffff;fill-opacity:1;stroke:none;display:inline" />
    <rect
       width="2.0000005"
       height="12"
       rx="1.0000002"
       ry="1.0000002"
       x="-198.00293"
       y="1158"
       transform="matrix(0,-1,1,0,0,0)"
       id="rect7483"
       style="fill:url(#linearGradient8940);fill-opacity:1;stroke:none;display:inline" />
    <rect
       width="2.0000005"
       height="5"
       rx="1.0000002"
       ry="1.0000002"
       x="-1170.0081"
       y="-198.00293"
       transform="scale(-1,-1)"
       id="rect7485"
       style="fill:#bebebe;fill-opacity:1;stroke:none;display:inline" />
    <rect
       width="2.0000005"
       height="14"
       rx="1.0000002"
       ry="1.0000002"
       x="-198.00293"
       y="-1182"
       transform="matrix(0,-1,-1,0,0,0)"
       id="rect7495"
       style="fill:url(#linearGradient8936);fill-opacity:1;stroke:none;display:inline" />
    <path
       d="M 1160.9062,176 C 1160.3909,176.0486 1159.9978,176.48238 1160,177 L 1160,194 C 1160.0001,194.55226 1160.4477,194.99994 1161,195 L 1177,195 C 1178.3351,195 1179.4513,194.27834 1180.0938,193.3125 C 1180.7362,192.34666 1181,191.16251 1181,189.96875 L 1181,183 C 1180.9999,182.44774 1180.5523,182.00006 1180,182 L 1179,182 L 1179,180 C 1178.9999,179.44774 1178.5523,179.00006 1178,179 L 1170,179 L 1170,177 C 1169.9999,176.44774 1169.5523,176.00006 1169,176 L 1161,176 C 1160.9688,175.99853 1160.9374,175.99853 1160.9062,176 z M 1162,178 L 1168,178 L 1168,180 C 1168.0001,180.55226 1168.4477,180.99994 1169,181 L 1177,181 L 1177,182 L 1165,182 C 1164.6394,181.9949 1164.3039,182.18438 1164.1221,182.49587 C 1163.9403,182.80737 1163.9403,183.19263 1164.1221,183.50413 C 1164.3039,183.81562 1164.6394,184.0051 1165,184 L 1177.8125,184 L 1178.2188,184 L 1179,184 L 1179,189.96875 C 1179,190.85211 1178.7868,191.69354 1178.4375,192.21875 C 1178.0882,192.74396 1177.6978,193 1177,193 L 1162,193 L 1162,178 z"
       id="path4631-1"
       style="fill:#bebebe;fill-opacity:1;stroke:none;stroke-width:2;stroke-linecap:round;stroke-linejoin:round;stroke-miterlimit:4;stroke-dasharray:none;stroke-opacity:1" />
    <path
       d="M 1164,183 L 1163.9688,190 C 1163.986,190.78143 1163.5003,191.4377 1162.9375,191.90625 C 1162.3747,192.3748 1161.7812,192.625 1161.7812,192.625 L 1162.1875,193.53125 C 1162.1875,193.53125 1162.8769,193.22698 1163.5625,192.65625 C 1164.2481,192.08552 1164.9955,191.20731 1164.9688,190 L 1165,183 L 1164,183 z"
       id="path5427-8"
       style="fill:#bebebe;fill-opacity:1;stroke:none;stroke-width:1px;stroke-linecap:butt;stroke-linejoin:miter;stroke-opacity:1" />
  </g>
  <g
     transform="translate(-1158,-175.00293)"
     id="layer7" />
  <g
     transform="translate(-1158,-175.00293)"
     id="layer2" />
  <g
     transform="translate(-1158,-175.00293)"
     id="layer8" />
  <g
     transform="translate(-1158,-1127.3651)"
     id="layer1" />
  <g
     transform="translate(-1158,-175.00293)"
     id="layer4" />
  <g
     transform="translate(-1158,-175.00293)"
     id="layer9" />
  <g
     transform="translate(-1158,-175.00293)"
     id="layer6" />
</svg>
