<?xml version="1.0" encoding="UTF-8" standalone="no"?>
<!-- Created with Inkscape (http://www.inkscape.org/) -->
<svg
   xmlns:svg="http://www.w3.org/2000/svg"
   xmlns="http://www.w3.org/2000/svg"
   version="1.0"
   width="24"
   height="24"
   id="svg7384">
  <title
     id="title9167">Moblin Icon Theme</title>
  <defs
     id="defs7386" />
  <g
     transform="translate(-1186,-206)"
     id="layer3" />
  <g
     transform="translate(-1186,-206)"
     id="layer5">
    <rect
       width="24"
       height="24"
       x="-1210"
       y="206"
       transform="scale(-1,1)"
       id="rect8583"
       style="opacity:0;fill:#ffffff;fill-opacity:1;stroke:none;display:inline" />
    <path
       d="M 1186.8438,206.03125 C 1186.3657,206.12243 1186.0226,206.54459 1186.0312,207.03125 L 1186.0312,229 C 1186.0313,229.55226 1186.4789,229.99994 1187.0312,230 L 1205.3438,230 C 1206.7915,230 1208.0291,229.36071 1208.8125,228.40625 C 1209.5959,227.45179 1209.9687,226.21214 1209.9688,224.96875 L 1209.9688,209.0625 C 1209.9687,208.51024 1209.5211,208.06256 1208.9688,208.0625 L 1196.5625,208.0625 C 1196.4064,207.69151 1196.3668,207.25482 1196.0938,206.96875 C 1195.573,206.4232 1194.846,206.03125 1194,206.03125 L 1187.0312,206.03125 C 1186.9689,206.02538 1186.9061,206.02538 1186.8438,206.03125 z M 1188.0312,208.03125 L 1194,208.03125 C 1194.1682,208.03125 1194.4454,208.12281 1194.6562,208.34375 C 1194.8671,208.56469 1194.9688,208.8783 1194.9688,209.0625 C 1194.9689,209.61476 1195.4165,210.06244 1195.9688,210.0625 L 1207.9688,210.0625 L 1207.9688,224.96875 C 1207.9687,225.80248 1207.7217,226.58841 1207.2812,227.125 C 1206.8408,227.66159 1206.2383,228 1205.3438,228 L 1188.0312,228 L 1188.0312,208.03125 z"
       id="path8587"
       style="fill:#bebebe;fill-opacity:1;stroke:none;stroke-width:2;stroke-linecap:round;stroke-linejoin:round;stroke-miterlimit:4;stroke-dasharray:none;stroke-opacity:1" />
    <path
       d="M 1201.125,219.9375 C 1200.8638,219.94782 1200.617,220.05999 1200.4375,220.25 L 1197.0625,223.65625 L 1193.7812,220.375 C 1193.3842,219.97807 1192.7407,219.9781 1192.3437,220.37505 C 1191.9468,220.772 1191.9468,221.41557 1192.3438,221.8125 L 1196.3438,225.78125 C 1196.7334,226.16641 1197.3604,226.16641 1197.75,225.78125 L 1201.875,221.65625 C 1202.1761,221.36613 1202.265,220.91929 1202.0977,220.53604 C 1201.9305,220.15279 1201.5425,219.91404 1201.125,219.9375 z"
       id="path8622"
       style="fill:#bebebe;fill-opacity:1;stroke:none;stroke-width:2;stroke-linecap:round;stroke-linejoin:round;marker:none;stroke-miterlimit:4;stroke-dasharray:none;stroke-dashoffset:0;stroke-opacity:1;visibility:visible;display:inline;overflow:visible;enable-background:accumulate" />
    <path
       d="M 1198.104,219.0591 A 1.0606601,1.0606601 0 1 1 1195.9827,219.0591 A 1.0606601,1.0606601 0 1 1 1198.104,219.0591 z"
       transform="translate(0,-4e-5)"
       id="path8645"
       style="fill:#bebebe;fill-opacity:1;stroke:none;stroke-width:2;marker:none;visibility:visible;display:inline;overflow:visible;enable-background:accumulate" />
    <path
       d="M 1198.104,219.0591 A 1.0606601,1.0606601 0 1 1 1195.9827,219.0591 A 1.0606601,1.0606601 0 1 1 1198.104,219.0591 z"
       transform="translate(0,-3.99844)"
       id="path8647"
       style="fill:#bebebe;fill-opacity:1;stroke:none;stroke-width:2;marker:none;visibility:visible;display:inline;overflow:visible;enable-background:accumulate" />
  </g>
  <g
     transform="translate(-1186,-206)"
     id="layer7" />
  <g
     transform="translate(-1186,-206)"
     id="layer2" />
  <g
     transform="translate(-1186,-206)"
     id="layer8" />
  <g
     transform="translate(-1186,-1158.3622)"
     id="layer1" />
  <g
     transform="translate(-1186,-206)"
     id="layer11" />
  <g
     transform="translate(-1186,-206)"
     id="layer4" />
  <g
     transform="translate(-1186,-206)"
     id="layer12" />
  <g
     transform="translate(-1186,-206)"
     id="layer9" />
  <g
     transform="translate(-1186,-206)"
     id="layer10" />
  <g
     transform="translate(-1186,-206)"
     id="layer6" />
</svg>
