<?xml version="1.0" encoding="UTF-8" standalone="no"?>
<!-- Created with Inkscape (http://www.inkscape.org/) -->
<svg
   xmlns:svg="http://www.w3.org/2000/svg"
   xmlns="http://www.w3.org/2000/svg"
   version="1.0"
   width="24"
   height="24"
   id="svg7384">
  <title
     id="title9167">Moblin Icon Theme</title>
  <defs
     id="defs7386" />
  <g
     transform="translate(-1134,-238)"
     id="layer3" />
  <g
     transform="translate(-1134,-238)"
     id="layer5">
    <rect
       width="24"
       height="24"
       x="-1158"
       y="238"
       transform="scale(-1,1)"
       id="rect9213"
       style="opacity:0;fill:#ffffff;fill-opacity:1;stroke:none;display:inline" />
    <path
       d="M 1134.8438,238.03125 C 1134.3657,238.12243 1134.0226,238.54459 1134.0312,239.03125 L 1134.0312,261 C 1134.0313,261.55226 1134.4789,261.99994 1135.0312,262 L 1153.3438,262 C 1154.7915,262 1156.0291,261.36071 1156.8125,260.40625 C 1157.5959,259.45179 1157.9687,258.21214 1157.9688,256.96875 L 1157.9688,241.0625 C 1157.9687,240.51024 1157.5211,240.06256 1156.9688,240.0625 L 1144.5625,240.0625 C 1144.4064,239.69151 1144.3668,239.25482 1144.0938,238.96875 C 1143.573,238.4232 1142.846,238.03125 1142,238.03125 L 1135.0312,238.03125 C 1134.9689,238.02538 1134.9061,238.02538 1134.8438,238.03125 z M 1136.0312,240.03125 L 1142,240.03125 C 1142.1682,240.03125 1142.4454,240.12281 1142.6562,240.34375 C 1142.8671,240.56469 1142.9688,240.8783 1142.9688,241.0625 C 1142.9689,241.61476 1143.4165,242.06244 1143.9688,242.0625 L 1155.9688,242.0625 L 1155.9688,256.96875 C 1155.9687,257.80248 1155.7217,258.58841 1155.2812,259.125 C 1154.8408,259.66159 1154.2383,260 1153.3438,260 L 1136.0312,260 L 1136.0312,240.03125 z"
       id="path9215"
       style="fill:#bebebe;fill-opacity:1;stroke:none;stroke-width:2;stroke-linecap:round;stroke-linejoin:round;stroke-miterlimit:4;stroke-dasharray:none;stroke-opacity:1" />
    <path
       d="M 1143.2812,242.84375 C 1143.0218,242.87811 1142.7863,243.01273 1142.625,243.21875 C 1142.3882,243.51836 1142.2877,243.77037 1142.1875,244.0625 C 1142.0873,244.35463 1142.0096,244.66454 1142,245.03125 C 1142.0001,245.58351 1142.4477,246.03119 1143,246.03125 L 1149,246.03125 C 1149.5523,246.03119 1149.9999,245.58351 1150,245.03125 C 1149.9965,244.76375 1150.042,244.77458 1150.125,244.6875 C 1150.5133,244.29055 1150.5063,243.65395 1150.1094,243.26562 C 1149.7124,242.8773 1149.0758,242.8843 1148.6875,243.28125 C 1148.5556,243.41953 1148.5255,243.79536 1148.4062,244.03125 L 1144.4062,244.03125 C 1144.4706,243.71222 1144.3757,243.38179 1144.1519,243.14552 C 1143.9281,242.90924 1143.6032,242.79667 1143.2812,242.84375 L 1143.2812,242.84375 z"
       id="path9224"
       style="fill:#bebebe;fill-opacity:1;stroke:none;stroke-width:2;stroke-linecap:round;stroke-linejoin:round;marker:none;stroke-miterlimit:4;stroke-dasharray:none;stroke-dashoffset:0;stroke-opacity:1;visibility:visible;display:inline;overflow:visible;enable-background:accumulate" />
    <path
       d="M 1139.4375,242.8125 C 1139.2896,242.84351 1139.1507,242.90761 1139.0312,243 C 1138.585,243.33478 1138.3791,243.74419 1138.2188,244.21875 C 1138.0644,244.67538 1137.9809,245.21625 1138,245.78125 C 1138.0007,245.80343 1137.9989,245.82144 1138,245.84375 L 1137.9688,256.40625 C 1137.9687,256.55217 1137.8044,256.90529 1137.5938,257.1875 C 1137.3831,257.46971 1137.1875,257.65625 1137.1875,257.65625 C 1136.8837,257.88006 1136.7317,258.25585 1136.7945,258.62796 C 1136.8573,259.00008 1137.1242,259.30515 1137.4847,259.41681 C 1137.8452,259.52847 1138.2378,259.4277 1138.5,259.15625 C 1138.5,259.15625 1138.8769,258.83304 1139.2188,258.375 C 1139.5606,257.91696 1139.9687,257.27682 1139.9688,256.40625 L 1140,245.8125 C 1140.0007,245.79167 1140.0007,245.77083 1140,245.75 C 1139.9839,245.41256 1140.0189,245.09638 1140.0938,244.875 C 1140.1686,244.65362 1140.3115,244.52413 1140.2188,244.59375 C 1140.5874,244.31433 1140.7162,243.81863 1140.5305,243.39507 C 1140.3447,242.97151 1139.8927,242.7306 1139.4375,242.8125 L 1139.4375,242.8125 z"
       id="path9226"
       style="fill:#bebebe;fill-opacity:1;stroke:none;stroke-width:2;stroke-linecap:round;stroke-linejoin:round;marker:none;stroke-miterlimit:4;stroke-dasharray:none;stroke-dashoffset:0;stroke-opacity:1;visibility:visible;display:inline;overflow:visible;enable-background:accumulate" />
    <path
       d="M 1154.3125,242.71875 C 1154.0957,242.75811 1153.898,242.86796 1153.75,243.03125 C 1153.75,243.03125 1152.7213,243.72234 1152.4688,244.1875 C 1152.224,244.63828 1151.9524,245.25767 1152,246.03125 C 1152.0015,246.05593 1151.9978,246.06878 1152,246.09375 L 1152,255.15625 C 1151.9998,255.16667 1151.9998,255.17708 1152,255.1875 C 1152.0306,256.074 1151.4375,257.59375 1151.4375,257.59375 C 1151.2736,257.91942 1151.2999,258.30848 1151.5062,258.60911 C 1151.7125,258.90974 1152.066,259.07431 1152.4288,259.0386 C 1152.7916,259.00289 1153.1063,258.77257 1153.25,258.4375 C 1153.25,258.4375 1154.0578,256.80176 1154,255.125 L 1154,246.03125 C 1154.0015,246.00002 1154.0015,245.96873 1154,245.9375 C 1153.9818,245.72852 1154.0736,245.3924 1154.2188,245.125 C 1154.3639,244.8576 1154.5,244.71875 1154.5,244.71875 C 1155.0523,244.66697 1155.458,244.17728 1155.4062,243.625 C 1155.3545,243.07272 1154.8648,242.66697 1154.3125,242.71875 z"
       id="path9228"
       style="fill:#bebebe;fill-opacity:1;stroke:none;stroke-width:2;stroke-linecap:round;stroke-linejoin:round;marker:none;stroke-miterlimit:4;stroke-dasharray:none;stroke-dashoffset:0;stroke-opacity:1;visibility:visible;display:inline;overflow:visible;enable-background:accumulate" />
    <path
       d="M 1142.8125,248.03125 C 1142.3344,248.12247 1141.9914,248.54462 1142,249.03125 L 1142,252.90625 C 1142.0001,253.45851 1142.4477,253.90619 1143,253.90625 L 1148.9688,253.90625 C 1149.5211,253.90619 1149.9687,253.45851 1149.9688,252.90625 L 1149.9688,249.03125 C 1149.9687,248.47899 1149.5211,248.03131 1148.9688,248.03125 L 1143,248.03125 C 1142.9376,248.02538 1142.8749,248.02538 1142.8125,248.03125 z M 1144,250.03125 L 1147.9688,250.03125 L 1147.9688,251.90625 L 1144,251.90625 L 1144,250.03125 z"
       id="rect9233"
       style="fill:#bebebe;fill-opacity:1;stroke:none;stroke-width:2;stroke-linecap:round;stroke-linejoin:round;marker:none;stroke-miterlimit:4;stroke-dasharray:none;stroke-dashoffset:0;stroke-opacity:1;visibility:visible;display:inline;overflow:visible;enable-background:accumulate" />
    <path
       d="M 1142.9062,256 C 1142.4026,256.04731 1142.0136,256.46314 1142,256.96875 C 1141.9983,257.02733 1141.7651,257.55551 1141.4062,257.96875 C 1141.1347,258.23091 1141.034,258.62355 1141.1456,258.98404 C 1141.2573,259.34452 1141.5624,259.61145 1141.9345,259.67427 C 1142.3066,259.73709 1142.6824,259.5851 1142.9062,259.28125 C 1143.2132,258.92779 1143.5036,258.49386 1143.7188,258 L 1147.3125,258 C 1147.0018,258.45737 1147.1208,259.07999 1147.5782,259.39065 C 1148.0355,259.70131 1148.6581,259.58237 1148.9688,259.125 C 1149.4444,258.58543 1149.8756,257.94353 1149.9688,257.125 C 1150.0048,256.83889 1149.9156,256.55117 1149.724,256.33564 C 1149.5324,256.12011 1149.2572,255.99777 1148.9688,256 L 1143,256 C 1142.9688,255.99853 1142.9374,255.99853 1142.9062,256 z"
       id="path9236"
       style="fill:#bebebe;fill-opacity:1;stroke:none;stroke-width:2;stroke-linecap:round;stroke-linejoin:round;marker:none;stroke-miterlimit:4;stroke-dasharray:none;stroke-dashoffset:0;stroke-opacity:1;visibility:visible;display:inline;overflow:visible;enable-background:accumulate" />
  </g>
  <g
     transform="translate(-1134,-238)"
     id="layer7" />
  <g
     transform="translate(-1134,-238)"
     id="layer2" />
  <g
     transform="translate(-1134,-238)"
     id="layer8" />
  <g
     transform="translate(-1134,-1190.3622)"
     id="layer1" />
  <g
     transform="translate(-1134,-238)"
     id="layer11" />
  <g
     transform="translate(-1134,-238)"
     id="layer4" />
  <g
     transform="translate(-1134,-238)"
     id="layer12" />
  <g
     transform="translate(-1134,-238)"
     id="layer9" />
  <g
     transform="translate(-1134,-238)"
     id="layer10" />
  <g
     transform="translate(-1134,-238)"
     id="layer6" />
</svg>
