<?xml version="1.0" encoding="UTF-8" standalone="no"?>
<!-- Created with Inkscape (http://www.inkscape.org/) -->
<svg
   xmlns:svg="http://www.w3.org/2000/svg"
   xmlns="http://www.w3.org/2000/svg"
   version="1.0"
   width="24"
   height="24"
   id="svg7384">
  <title
     id="title9167">Moblin Icon Theme</title>
  <defs
     id="defs7386" />
  <g
     transform="translate(-1238,-206)"
     id="layer3" />
  <g
     transform="translate(-1238,-206)"
     id="layer5">
    <rect
       width="24"
       height="24"
       x="-1262"
       y="206"
       transform="scale(-1,1)"
       id="rect8610"
       style="opacity:0;fill:#ffffff;fill-opacity:1;stroke:none;display:inline" />
    <path
       d="M 1238.8438,206.03125 C 1238.3657,206.12243 1238.0226,206.54459 1238.0312,207.03125 L 1238.0312,229 C 1238.0313,229.55226 1238.4789,229.99994 1239.0312,230 L 1257.3438,230 C 1258.7915,230 1260.0291,229.36071 1260.8125,228.40625 C 1261.5959,227.45179 1261.9687,226.21214 1261.9688,224.96875 L 1261.9688,209.0625 C 1261.9687,208.51024 1261.5211,208.06256 1260.9688,208.0625 L 1248.5625,208.0625 C 1248.4064,207.69151 1248.3668,207.25482 1248.0938,206.96875 C 1247.573,206.4232 1246.846,206.03125 1246,206.03125 L 1239.0312,206.03125 C 1238.9689,206.02538 1238.9061,206.02538 1238.8438,206.03125 z M 1240.0312,208.03125 L 1246,208.03125 C 1246.1682,208.03125 1246.4454,208.12281 1246.6562,208.34375 C 1246.8671,208.56469 1246.9688,208.8783 1246.9688,209.0625 C 1246.9689,209.61476 1247.4165,210.06244 1247.9688,210.0625 L 1259.9688,210.0625 L 1259.9688,224.96875 C 1259.9687,225.80248 1259.7217,226.58841 1259.2812,227.125 C 1258.8408,227.66159 1258.2383,228 1257.3438,228 L 1240.0312,228 L 1240.0312,208.03125 z"
       id="path8612"
       style="fill:#bebebe;fill-opacity:1;stroke:none;stroke-width:2;stroke-linecap:round;stroke-linejoin:round;stroke-miterlimit:4;stroke-dasharray:none;stroke-opacity:1" />
    <path
       d="M 1246.7812,214 C 1246.5906,214.04291 1246.4168,214.14068 1246.2812,214.28125 L 1244.625,215.9375 L 1243,215.9375 C 1242.4477,215.93756 1242.0001,216.38524 1242,216.9375 L 1242,225.0625 C 1242.0001,225.61476 1242.4477,226.06244 1243,226.0625 L 1244.1562,226.0625 C 1244.5168,226.0676 1244.8523,225.87812 1245.0341,225.56663 C 1245.2159,225.25513 1245.2159,224.86987 1245.0341,224.55837 C 1244.8523,224.24688 1244.5168,224.0574 1244.1562,224.0625 L 1244,224.0625 L 1244,217.9375 L 1245.0312,217.9375 C 1245.2988,217.94371 1245.5577,217.84241 1245.75,217.65625 L 1247.375,216 L 1252.6875,216 L 1254.375,217.6875 C 1254.5596,217.86603 1254.8057,217.96674 1255.0625,217.96875 L 1255.9688,217.96875 L 1255.9688,223.8125 C 1255.4165,223.82112 1254.9758,224.27582 1254.9844,224.8281 C 1254.993,225.38038 1255.4477,225.82112 1256,225.8125 L 1256.9688,225.8125 C 1257.5211,225.81244 1257.9687,225.36476 1257.9688,224.8125 L 1257.9688,216.96875 C 1257.9687,216.41649 1257.5211,215.96881 1256.9688,215.96875 L 1255.4688,215.96875 L 1253.7812,214.28125 C 1253.5967,214.10274 1253.3505,214.00204 1253.0938,214 L 1246.9688,214 C 1246.9064,213.99412 1246.8436,213.99412 1246.7812,214 z"
       id="path8712"
       style="fill:#bebebe;fill-opacity:1;stroke:none;stroke-width:2;stroke-linecap:round;stroke-linejoin:round;marker:none;stroke-miterlimit:4;stroke-dasharray:none;stroke-dashoffset:0;stroke-opacity:1;visibility:visible;display:inline;overflow:visible;enable-background:accumulate" />
    <path
       d="M 1249.9608,218.07148 C 1247.7849,218.07148 1246.0082,219.84821 1246.0082,222.0242 C 1246.0082,224.20021 1247.7849,226.00641 1249.9608,226.00641 C 1252.1369,226.00641 1253.9136,224.2002 1253.9137,222.0242 C 1253.9137,219.84819 1252.1369,218.07148 1249.9608,218.07148 z M 1249.9608,220.07734 C 1251.0548,220.07734 1251.9372,220.93031 1251.9372,222.0242 C 1251.9372,223.11809 1251.0548,224.00056 1249.9608,224.00056 C 1248.867,224.00056 1248.0141,223.11808 1248.0141,222.0242 C 1248.0141,220.93029 1248.867,220.07734 1249.9608,220.07734 z"
       id="path8714"
       style="fill:#bebebe;fill-opacity:1;stroke:none;stroke-width:2.11879659;stroke-linecap:round;stroke-linejoin:round;marker:none;stroke-miterlimit:4;stroke-dasharray:none;stroke-dashoffset:0;stroke-opacity:1;visibility:visible;display:inline;overflow:visible;enable-background:accumulate" />
  </g>
  <g
     transform="translate(-1238,-206)"
     id="layer7" />
  <g
     transform="translate(-1238,-206)"
     id="layer2" />
  <g
     transform="translate(-1238,-206)"
     id="layer8" />
  <g
     transform="translate(-1238,-1158.3622)"
     id="layer1" />
  <g
     transform="translate(-1238,-206)"
     id="layer11" />
  <g
     transform="translate(-1238,-206)"
     id="layer4" />
  <g
     transform="translate(-1238,-206)"
     id="layer12" />
  <g
     transform="translate(-1238,-206)"
     id="layer9" />
  <g
     transform="translate(-1238,-206)"
     id="layer10" />
  <g
     transform="translate(-1238,-206)"
     id="layer6" />
</svg>
