<?xml version="1.0" encoding="UTF-8" standalone="no"?>
<!-- Created with Inkscape (http://www.inkscape.org/) -->
<svg
   xmlns:svg="http://www.w3.org/2000/svg"
   xmlns="http://www.w3.org/2000/svg"
   version="1.0"
   width="24"
   height="24"
   id="svg7384">
  <title
     id="title9167">Moblin Icon Theme</title>
  <defs
     id="defs7386" />
  <g
     transform="translate(-1212,-206)"
     id="layer3" />
  <g
     transform="translate(-1212,-206)"
     id="layer5">
    <rect
       width="24"
       height="24"
       x="-1236"
       y="206"
       transform="scale(-1,1)"
       id="rect8604"
       style="opacity:0;fill:#ffffff;fill-opacity:1;stroke:none;display:inline" />
    <path
       d="M 1212.8438,206.03125 C 1212.3657,206.12243 1212.0226,206.54459 1212.0312,207.03125 L 1212.0312,229 C 1212.0313,229.55226 1212.4789,229.99994 1213.0312,230 L 1231.3438,230 C 1232.7915,230 1234.0291,229.36071 1234.8125,228.40625 C 1235.5959,227.45179 1235.9687,226.21214 1235.9688,224.96875 L 1235.9688,209.0625 C 1235.9687,208.51024 1235.5211,208.06256 1234.9688,208.0625 L 1222.5625,208.0625 C 1222.4064,207.69151 1222.3668,207.25482 1222.0938,206.96875 C 1221.573,206.4232 1220.846,206.03125 1220,206.03125 L 1213.0312,206.03125 C 1212.9689,206.02538 1212.9061,206.02538 1212.8438,206.03125 z M 1214.0312,208.03125 L 1220,208.03125 C 1220.1682,208.03125 1220.4454,208.12281 1220.6562,208.34375 C 1220.8671,208.56469 1220.9688,208.8783 1220.9688,209.0625 C 1220.9689,209.61476 1221.4165,210.06244 1221.9688,210.0625 L 1233.9688,210.0625 L 1233.9688,224.96875 C 1233.9687,225.80248 1233.7217,226.58841 1233.2812,227.125 C 1232.8408,227.66159 1232.2383,228 1231.3438,228 L 1214.0312,228 L 1214.0312,208.03125 z"
       id="path8606"
       style="fill:#bebebe;fill-opacity:1;stroke:none;stroke-width:2;stroke-linecap:round;stroke-linejoin:round;stroke-miterlimit:4;stroke-dasharray:none;stroke-opacity:1" />
    <path
       d="M 1219.0312,219.99997 C 1217.3689,219.99997 1216,221.36891 1216,223.03122 C 1216,224.69353 1217.3689,226.06247 1219.0312,226.06247 C 1220.6936,226.06247 1222.0625,224.69353 1222.0625,223.03122 C 1222.0625,221.36891 1220.6936,219.99997 1219.0312,219.99997 z M 1219.0312,221.99997 C 1219.6114,221.99997 1220.0625,222.45103 1220.0625,223.03122 C 1220.0625,223.61141 1219.6114,224.06247 1219.0312,224.06247 C 1218.4511,224.06247 1218,223.61141 1218,223.03122 C 1218,222.45103 1218.4511,221.99997 1219.0312,221.99997 z"
       id="path8678"
       style="fill:#bebebe;fill-opacity:1;stroke:none;stroke-width:2;marker:none;stroke-opacity:1;visibility:visible;display:inline;overflow:visible;enable-background:accumulate" />
    <path
       d="M 1226.9687,219.99997 C 1225.3064,219.99997 1223.9375,221.36891 1223.9375,223.03122 C 1223.9375,224.69353 1225.3064,226.06247 1226.9687,226.06247 C 1228.6311,226.06247 1230,224.69353 1230,223.03122 C 1230,221.36891 1228.6311,219.99997 1226.9687,219.99997 z M 1226.9687,221.99997 C 1227.5489,221.99997 1228,222.45103 1228,223.03122 C 1228,223.61141 1227.5489,224.06247 1226.9687,224.06247 C 1226.3886,224.06247 1225.9375,223.61141 1225.9375,223.03122 C 1225.9375,222.45103 1226.3886,221.99997 1226.9687,221.99997 z"
       id="path8680"
       style="fill:#bebebe;fill-opacity:1;stroke:none;stroke-width:2;marker:none;stroke-opacity:1;visibility:visible;display:inline;overflow:visible;enable-background:accumulate" />
    <path
       d="M 1220.9062,214.0625 C 1220.3909,214.1111 1219.9978,214.54488 1220,215.0625 L 1220,223 C 1219.9949,223.36064 1220.1844,223.69608 1220.4959,223.87789 C 1220.8074,224.05969 1221.1926,224.05969 1221.5041,223.87789 C 1221.8156,223.69608 1222.0051,223.36064 1222,223 L 1222,216.0625 L 1228,216.0625 L 1228,222.9375 C 1227.9949,223.29814 1228.1844,223.63358 1228.4959,223.81539 C 1228.8074,223.99719 1229.1926,223.99719 1229.5041,223.81539 C 1229.8156,223.63358 1230.0051,223.29814 1230,222.9375 L 1230,215.0625 C 1229.9999,214.51024 1229.5523,214.06256 1229,214.0625 L 1221,214.0625 C 1220.9688,214.06103 1220.9374,214.06103 1220.9062,214.0625 z"
       id="path8682"
       style="fill:#bebebe;fill-opacity:1;stroke:none;stroke-width:2;stroke-linecap:round;stroke-linejoin:round;marker:none;stroke-miterlimit:4;stroke-dasharray:none;stroke-dashoffset:0;stroke-opacity:1;visibility:visible;display:inline;overflow:visible;enable-background:accumulate" />
  </g>
  <g
     transform="translate(-1212,-206)"
     id="layer7" />
  <g
     transform="translate(-1212,-206)"
     id="layer2" />
  <g
     transform="translate(-1212,-206)"
     id="layer8" />
  <g
     transform="translate(-1212,-1158.3622)"
     id="layer1" />
  <g
     transform="translate(-1212,-206)"
     id="layer11" />
  <g
     transform="translate(-1212,-206)"
     id="layer4" />
  <g
     transform="translate(-1212,-206)"
     id="layer12" />
  <g
     transform="translate(-1212,-206)"
     id="layer9" />
  <g
     transform="translate(-1212,-206)"
     id="layer10" />
  <g
     transform="translate(-1212,-206)"
     id="layer6" />
</svg>
