<?xml version="1.0" encoding="UTF-8" standalone="no"?>
<!-- Created with Inkscape (http://www.inkscape.org/) -->
<svg
   xmlns:svg="http://www.w3.org/2000/svg"
   xmlns="http://www.w3.org/2000/svg"
   version="1.0"
   width="24"
   height="24"
   id="svg7384">
  <defs
     id="defs7386" />
  <g
     transform="translate(-1184.9738,-200.99364)"
     id="layer3" />
  <g
     transform="translate(-1184.9738,-200.99364)"
     id="layer5">
    <rect
       width="24"
       height="24"
       x="-1208.9738"
       y="200.99364"
       transform="scale(-1,1)"
       id="rect12767"
       style="opacity:0;fill:#ffffff;fill-opacity:1;stroke:none;display:inline" />
    <path
       d="M 1193.3014,206.00819 C 1191.5097,205.92232 1189.6903,206.51732 1188.2644,207.81281 C 1185.4125,210.40378 1185.1974,214.85662 1187.7884,217.70845 C 1190.3794,220.56028 1194.8322,220.77537 1197.6841,218.18439 C 1198.0948,217.81201 1198.1259,217.17719 1197.7535,216.76648 C 1197.3811,216.35577 1196.7463,216.32469 1196.3356,216.69707 C 1194.2847,218.56038 1191.139,218.41085 1189.2757,216.35995 C 1187.4124,214.30904 1187.562,211.16343 1189.6129,209.30013 C 1191.6638,207.43682 1194.8094,207.58635 1196.6727,209.63725 C 1197.2547,210.27789 1197.579,210.86362 1197.8031,211.69967 C 1197.8668,212.0739 1198.1368,212.37981 1198.5003,212.48938 C 1198.8638,212.59895 1199.2579,212.4933 1199.5178,212.21663 C 1199.7778,211.93997 1199.8587,211.53999 1199.7267,211.18407 C 1199.4315,210.08243 1198.9269,209.13289 1198.16,208.28875 C 1196.8645,206.86283 1195.0931,206.09406 1193.3014,206.00819 z"
       id="path3538"
       style="fill:#bebebe;fill-opacity:1;stroke:none;stroke-width:3.15163946;stroke-linecap:round;stroke-miterlimit:4;stroke-dasharray:none;stroke-opacity:1;display:inline" />
    <path
       d="M 1203.4713,205.99169 C 1201.5502,205.99169 1199.9714,207.57056 1199.9714,209.49162 C 1199.9714,211.41269 1201.5502,212.99156 1203.4713,212.99156 C 1203.8492,213.02672 1204.2144,212.84499 1204.4142,212.52236 C 1204.614,212.19973 1204.614,211.7918 1204.4142,211.46917 C 1204.2144,211.14654 1203.8492,210.9648 1203.4713,210.99996 C 1202.6324,210.99996 1201.9776,210.33056 1201.9776,209.49162 C 1201.9776,208.65269 1202.6324,207.99793 1203.4713,207.99793 C 1204.0061,207.99793 1204.3701,208.16739 1204.6868,208.59834 C 1204.8808,208.92414 1205.2424,209.11217 1205.6206,209.08389 C 1205.9988,209.0556 1206.3284,208.81587 1206.4718,208.46482 C 1206.6152,208.11377 1206.5478,207.7118 1206.2976,207.42681 C 1205.6393,206.53093 1204.583,205.99169 1203.4713,205.99169 z"
       id="path3540"
       style="fill:#bebebe;fill-opacity:1;stroke:none;stroke-width:4.26793575;stroke-linecap:round;stroke-linejoin:miter;stroke-miterlimit:4;stroke-dasharray:none;stroke-opacity:1;display:inline" />
    <path
       d="M 1203.2875,211.00475 C 1202.7261,211.03295 1202.2944,211.49926 1202.3233,212.04628 C 1202.3523,212.5933 1202.8309,213.01389 1203.3923,212.9857 C 1204.8192,212.9857 1205.9702,214.08678 1205.9702,215.47719 C 1205.9702,216.8676 1204.8192,217.98911 1203.3923,217.98911 C 1202.1822,217.98911 1201.2323,217.26959 1200.9191,216.1307 C 1200.8527,215.76276 1200.5788,215.46287 1200.2114,215.35587 C 1199.8441,215.24886 1199.4462,215.35308 1199.1834,215.62513 C 1198.9207,215.89718 1198.838,216.29046 1198.9699,216.64125 C 1199.5087,218.60056 1201.3105,219.94963 1203.3923,219.94963 C 1205.9155,219.94963 1207.9823,217.93578 1207.9823,215.47719 C 1207.9823,213.01861 1205.9155,211.00475 1203.3923,211.00475 C 1203.3574,211.00299 1203.3224,211.00299 1203.2875,211.00475 L 1203.2875,211.00475 z"
       id="path3540-3"
       style="fill:#bebebe;fill-opacity:1;stroke:none;stroke-width:3.02094817;stroke-linecap:round;stroke-linejoin:miter;stroke-miterlimit:4;stroke-dasharray:none;stroke-opacity:1;display:inline" />
    <rect
       width="2"
       height="7"
       rx="1"
       ry="1"
       x="1117.8336"
       y="478.64462"
       transform="matrix(0.973591,-0.2282994,0.2282994,0.973591,0,0)"
       id="rect12896"
       style="fill:#bebebe;fill-opacity:1;stroke:none;display:inline" />
  </g>
  <g
     transform="translate(-1184.9738,-200.99364)"
     id="layer7" />
  <g
     transform="translate(-1184.9738,-200.99364)"
     id="layer2" />
  <g
     transform="translate(-1184.9738,-200.99364)"
     id="layer8" />
  <g
     transform="translate(-1184.9738,-1153.3558)"
     id="layer1" />
  <g
     transform="translate(-1184.9738,-200.99364)"
     id="layer4" />
  <g
     transform="translate(-1184.9738,-200.99364)"
     id="layer9" />
  <g
     transform="translate(-1184.9738,-200.99364)"
     id="layer6" />
</svg>
