<?xml version="1.0" encoding="UTF-8" standalone="no"?>
<!-- Created with Inkscape (http://www.inkscape.org/) -->
<svg
   xmlns:svg="http://www.w3.org/2000/svg"
   xmlns="http://www.w3.org/2000/svg"
   version="1.0"
   width="24"
   height="24"
   id="svg7384">
  <defs
     id="defs7386" />
  <g
     transform="translate(-1186,-199.99992)"
     id="layer3" />
  <g
     transform="translate(-1186,-199.99992)"
     id="layer5">
    <rect
       width="24"
       height="24"
       x="-1210"
       y="199.99992"
       transform="scale(-1,1)"
       id="rect12767"
       style="opacity:0;fill:#ffffff;fill-opacity:1;stroke:none;display:inline" />
    <path
       d="M 1194.3277,205.01447 C 1192.536,204.9286 1190.7166,205.5236 1189.2907,206.81909 C 1186.4388,209.41006 1186.2237,213.8629 1188.8147,216.71473 C 1191.4057,219.56656 1195.8585,219.78165 1198.7104,217.19067 C 1199.1211,216.81829 1199.1522,216.18347 1198.7798,215.77276 C 1198.4074,215.36205 1197.7726,215.33097 1197.3619,215.70335 C 1195.311,217.56666 1192.1653,217.41713 1190.302,215.36623 C 1188.4387,213.31532 1188.5883,210.16971 1190.6392,208.30641 C 1192.6901,206.4431 1195.8357,206.59263 1197.699,208.64353 C 1198.281,209.28417 1198.6053,209.8699 1198.8294,210.70595 C 1198.8931,211.08018 1199.1631,211.38609 1199.5266,211.49566 C 1199.8901,211.60523 1200.2842,211.49958 1200.5441,211.22291 C 1200.8041,210.94625 1200.885,210.54627 1200.753,210.19035 C 1200.4578,209.08871 1199.9532,208.13917 1199.1863,207.29503 C 1197.8908,205.86911 1196.1194,205.10034 1194.3277,205.01447 z"
       id="path3538"
       style="fill:#bebebe;fill-opacity:1;stroke:none;stroke-width:3.15163946;stroke-linecap:round;stroke-miterlimit:4;stroke-dasharray:none;stroke-opacity:1;display:inline" />
    <path
       d="M 1204.4976,204.99797 C 1202.5765,204.99797 1200.9977,206.57684 1200.9977,208.4979 C 1200.9977,210.41897 1202.5765,211.99784 1204.4976,211.99784 C 1204.8755,212.033 1205.2407,211.85127 1205.4405,211.52864 C 1205.6403,211.20601 1205.6403,210.79808 1205.4405,210.47545 C 1205.2407,210.15282 1204.8755,209.97108 1204.4976,210.00624 C 1203.6587,210.00624 1203.0039,209.33684 1203.0039,208.4979 C 1203.0039,207.65897 1203.6587,207.00421 1204.4976,207.00421 C 1205.0324,207.00421 1205.3964,207.17367 1205.7131,207.60462 C 1205.9071,207.93042 1206.2687,208.11845 1206.6469,208.09017 C 1207.0251,208.06188 1207.3547,207.82215 1207.4981,207.4711 C 1207.6415,207.12005 1207.5741,206.71808 1207.3239,206.43309 C 1206.6656,205.53721 1205.6093,204.99797 1204.4976,204.99797 z"
       id="path3540"
       style="fill:#bebebe;fill-opacity:1;stroke:none;stroke-width:4.26793575;stroke-linecap:round;stroke-linejoin:miter;stroke-miterlimit:4;stroke-dasharray:none;stroke-opacity:1;display:inline" />
    <path
       d="M 1204.3138,210.01103 C 1203.7524,210.03923 1203.3207,210.50554 1203.3496,211.05256 C 1203.3786,211.59958 1203.8572,212.02017 1204.4186,211.99198 C 1205.8455,211.99198 1206.9965,213.09306 1206.9965,214.48347 C 1206.9965,215.87388 1205.8455,216.99539 1204.4186,216.99539 C 1203.2085,216.99539 1202.2586,216.27587 1201.9454,215.13698 C 1201.879,214.76904 1201.6051,214.46915 1201.2377,214.36215 C 1200.8704,214.25514 1200.4725,214.35936 1200.2097,214.63141 C 1199.947,214.90346 1199.8643,215.29674 1199.9962,215.64753 C 1200.535,217.60684 1202.3368,218.95591 1204.4186,218.95591 C 1206.9418,218.95591 1209.0086,216.94206 1209.0086,214.48347 C 1209.0086,212.02489 1206.9418,210.01103 1204.4186,210.01103 C 1204.3837,210.00927 1204.3487,210.00927 1204.3138,210.01103 L 1204.3138,210.01103 z"
       id="path3540-3"
       style="fill:#bebebe;fill-opacity:1;stroke:none;stroke-width:3.02094817;stroke-linecap:round;stroke-linejoin:miter;stroke-miterlimit:4;stroke-dasharray:none;stroke-opacity:1;display:inline" />
    <path
       d="M 1199.625,209.40625 C 1199.3437,209.44972 1199.0943,209.61096 1198.9392,209.84957 C 1198.7841,210.08818 1198.738,210.38157 1198.8125,210.65625 L 1200.0312,215.6875 C 1200.0896,216.05984 1200.3523,216.36775 1200.7108,216.484 C 1201.0693,216.60024 1201.4627,216.50506 1201.7284,216.2378 C 1201.9942,215.97054 1202.0871,215.57659 1201.9688,215.21875 L 1200.75,210.1875 C 1200.6401,209.67087 1200.1475,209.32873 1199.625,209.40625 z"
       id="path4601"
       style="fill:#bebebe;fill-opacity:1;stroke:none;stroke-width:1.99999988;stroke-linecap:round;stroke-linejoin:miter;marker:none;stroke-miterlimit:4;stroke-dasharray:none;stroke-dashoffset:0;stroke-opacity:1;visibility:visible;display:inline;overflow:visible;enable-background:accumulate" />
  </g>
  <g
     transform="translate(-1186,-199.99992)"
     id="layer7" />
  <g
     transform="translate(-1186,-199.99992)"
     id="layer2" />
  <g
     transform="translate(-1186,-199.99992)"
     id="layer8" />
  <g
     transform="translate(-1186,-1152.3621)"
     id="layer1" />
  <g
     transform="translate(-1186,-199.99992)"
     id="layer4" />
  <g
     transform="translate(-1186,-199.99992)"
     id="layer9" />
  <g
     transform="translate(-1186,-199.99992)"
     id="layer6" />
</svg>
