<?xml version="1.0" encoding="UTF-8" standalone="no"?>
<!-- Created with Inkscape (http://www.inkscape.org/) -->
<svg
   xmlns:svg="http://www.w3.org/2000/svg"
   xmlns="http://www.w3.org/2000/svg"
   version="1.0"
   width="24"
   height="24"
   id="svg7384">
  <title
     id="title9167">Moblin Icon Theme</title>
  <defs
     id="defs7386" />
  <g
     transform="translate(-1290,-174)"
     id="layer3" />
  <g
     transform="translate(-1290,-174)"
     id="layer5">
    <rect
       width="2"
       height="3.0000095"
       rx="1"
       ry="0.99999994"
       x="-179.00586"
       y="-1298"
       transform="matrix(0,-1,-1,0,0,0)"
       id="rect11129"
       style="fill:#bebebe;fill-opacity:1;stroke:none;display:inline" />
    <rect
       width="2"
       height="3.0000095"
       rx="1"
       ry="0.99999994"
       x="-179.00586"
       y="-1303"
       transform="matrix(0,-1,-1,0,0,0)"
       id="rect11131"
       style="fill:#bebebe;fill-opacity:1;stroke:none;display:inline" />
    <rect
       width="2"
       height="3.0000095"
       rx="1"
       ry="0.99999994"
       x="-179.00586"
       y="-1308"
       transform="matrix(0,-1,-1,0,0,0)"
       id="rect11133"
       style="fill:#bebebe;fill-opacity:1;stroke:none;display:inline" />
    <rect
       width="2"
       height="3.0000095"
       rx="1"
       ry="0.99999994"
       x="-1295"
       y="189.0058"
       transform="scale(-1,1)"
       id="rect11135"
       style="fill:#bebebe;fill-opacity:1;stroke:none;display:inline" />
    <rect
       width="2"
       height="3.0000095"
       rx="1"
       ry="0.99999994"
       x="-1295"
       y="184.0058"
       transform="scale(-1,1)"
       id="rect11137"
       style="fill:#bebebe;fill-opacity:1;stroke:none;display:inline" />
    <rect
       width="2"
       height="3.0000095"
       rx="1"
       ry="0.99999994"
       x="-1295"
       y="179.0058"
       transform="scale(-1,1)"
       id="rect11139"
       style="fill:#bebebe;fill-opacity:1;stroke:none;display:inline" />
    <rect
       width="2"
       height="3.0000095"
       rx="1"
       ry="0.99999994"
       x="-1310"
       y="189.0058"
       transform="scale(-1,1)"
       id="rect11141"
       style="fill:#bebebe;fill-opacity:1;stroke:none;display:inline" />
    <rect
       width="2"
       height="3.0000095"
       rx="1"
       ry="0.99999994"
       x="-1310"
       y="184.0058"
       transform="scale(-1,1)"
       id="rect11143"
       style="fill:#bebebe;fill-opacity:1;stroke:none;display:inline" />
    <rect
       width="2"
       height="3.0000095"
       rx="1"
       ry="0.99999994"
       x="-1310"
       y="179.0058"
       transform="scale(-1,1)"
       id="rect11145"
       style="fill:#bebebe;fill-opacity:1;stroke:none;display:inline" />
    <rect
       width="2"
       height="3.0000095"
       rx="1"
       ry="0.99999994"
       x="-194.00586"
       y="-1298"
       transform="matrix(0,-1,-1,0,0,0)"
       id="rect11147"
       style="fill:#bebebe;fill-opacity:1;stroke:none;display:inline" />
    <rect
       width="2"
       height="3.0000095"
       rx="1"
       ry="0.99999994"
       x="-194.00586"
       y="-1303"
       transform="matrix(0,-1,-1,0,0,0)"
       id="rect11149"
       style="fill:#bebebe;fill-opacity:1;stroke:none;display:inline" />
    <rect
       width="2"
       height="3.0000095"
       rx="1"
       ry="0.99999994"
       x="-194.00586"
       y="-1308"
       transform="matrix(0,-1,-1,0,0,0)"
       id="rect11151"
       style="fill:#bebebe;fill-opacity:1;stroke:none;display:inline" />
    <rect
       width="24"
       height="24"
       x="-1314"
       y="174"
       transform="scale(-1,1)"
       id="rect11055"
       style="opacity:0;fill:#787878;fill-opacity:1;stroke:none;display:inline" />
    <path
       d="M 1293,176.00956 C 1293,176.56157 1292.552,177.00956 1292,177.00956 L 1292,179.10331 C 1292.5863,179.30725 1293,179.85406 1293,180.50956 C 1293,181.16506 1292.5863,181.71187 1292,181.91581 L 1292,184.10331 C 1292.5863,184.30725 1293,184.85406 1293,185.50956 C 1293,186.16506 1292.5863,186.71187 1292,186.91581 L 1292,189.10331 C 1292.5863,189.30725 1293,189.85406 1293,190.50956 C 1293,191.16507 1292.5863,191.71188 1292,191.91581 L 1292,193.97831 L 1292,194.00961 C 1292.552,194.0096 1293,194.45761 1293,195.00961 L 1295.0938,195.00961 C 1295.2977,194.4233 1295.8445,194.00961 1296.5,194.00961 C 1297.1555,194.00961 1297.7023,194.4233 1297.9062,195.00961 L 1300.0938,195.00961 C 1300.2977,194.4233 1300.8445,194.00961 1301.5,194.00961 C 1302.1555,194.00961 1302.7023,194.4233 1302.9062,195.00961 L 1305.0938,195.00961 C 1305.2977,194.4233 1305.8445,194.00961 1306.5,194.00961 C 1307.1555,194.00961 1307.7023,194.4233 1307.9062,195.00961 L 1310,195.00961 C 1310,194.4576 1310.448,194.00961 1311,194.00961 L 1311,193.97831 L 1311,191.91581 C 1310.4137,191.71187 1310,191.16506 1310,190.50956 C 1310,189.85406 1310.4137,189.30725 1311,189.10331 L 1311,186.63456 C 1310.4137,186.43063 1310,185.88381 1310,185.22831 C 1310,184.57459 1310.4178,184.00096 1311,183.79081 L 1311,180.91581 C 1310.4137,180.71187 1310,180.16506 1310,179.50956 C 1310,178.85406 1310.4137,178.30725 1311,178.10331 L 1311,177.00956 C 1310.448,177.00956 1310,176.56156 1310,176.00956 L 1307.9062,176.00956 C 1307.7023,176.59587 1307.1555,177.00956 1306.5,177.00956 C 1305.8445,177.00955 1305.2977,176.59587 1305.0938,176.00956 L 1302.9062,176.00956 C 1302.7023,176.59587 1302.1555,177.00956 1301.5,177.00956 C 1300.8445,177.00955 1300.2977,176.59587 1300.0938,176.00956 L 1297.9062,176.00956 C 1297.7023,176.59587 1297.1555,177.00956 1296.5,177.00956 C 1295.8445,177.00955 1295.2977,176.59587 1295.0938,176.00956 L 1293,176.00956 z M 1294,178.00956 L 1309,178.00956 L 1309,193.00956 L 1294,193.00956 L 1294,178.00956 z"
       id="rect11065"
       style="fill:#bebebe;fill-opacity:1;stroke:none;display:inline" />
    <path
       d="M 1298,180 C 1296.9093,180 1296,180.9093 1296,182 L 1296,189 C 1296,190.0907 1296.9093,191 1298,191 L 1305,191 C 1306.0907,191 1307,190.0907 1307,189 L 1307,182 C 1307,180.9093 1306.0907,180 1305,180 L 1298,180 z M 1298,182 L 1305,182 L 1305,189 L 1298,189 L 1298,182 z"
       id="rect5659"
       style="fill:#bebebe;fill-opacity:1;stroke:none;stroke-width:2;stroke-linecap:round;stroke-linejoin:miter;marker:none;stroke-miterlimit:4;stroke-dasharray:none;stroke-dashoffset:0;stroke-opacity:1;visibility:visible;display:inline;overflow:visible;enable-background:accumulate" />
  </g>
  <g
     transform="translate(-1290,-174)"
     id="layer7" />
  <g
     transform="translate(-1290,-174)"
     id="layer2" />
  <g
     transform="translate(-1290,-174)"
     id="layer8" />
  <g
     transform="translate(-1290,-1126.3622)"
     id="layer1" />
  <g
     transform="translate(-1290,-174)"
     id="layer11" />
  <g
     transform="translate(-1290,-174)"
     id="layer4" />
  <g
     transform="translate(-1290,-174)"
     id="layer12" />
  <g
     transform="translate(-1290,-174)"
     id="layer9" />
  <g
     transform="translate(-1290,-174)"
     id="layer10" />
  <g
     transform="translate(-1290,-174)"
     id="layer6" />
</svg>
