<?xml version="1.0" encoding="UTF-8" standalone="no"?>
<!-- Created with Inkscape (http://www.inkscape.org/) -->
<svg
   xmlns:svg="http://www.w3.org/2000/svg"
   xmlns="http://www.w3.org/2000/svg"
   version="1.0"
   width="24"
   height="24"
   id="svg7384">
  <title
     id="title9167">Moblin Icon Theme</title>
  <defs
     id="defs7386" />
  <g
     transform="translate(-1301,-173.99707)"
     id="layer3" />
  <g
     transform="translate(-1301,-173.99707)"
     id="layer5">
    <rect
       width="2"
       height="3.0000095"
       rx="1"
       ry="0.99999994"
       x="-179.00293"
       y="-1309"
       transform="matrix(0,-1,-1,0,0,0)"
       id="rect11129"
       style="fill:#bebebe;fill-opacity:1;stroke:none;display:inline" />
    <rect
       width="2"
       height="3.0000095"
       rx="1"
       ry="0.99999994"
       x="-179.00293"
       y="-1314"
       transform="matrix(0,-1,-1,0,0,0)"
       id="rect11131"
       style="fill:#bebebe;fill-opacity:1;stroke:none;display:inline" />
    <rect
       width="2"
       height="3.0000095"
       rx="1"
       ry="0.99999994"
       x="-179.00293"
       y="-1319"
       transform="matrix(0,-1,-1,0,0,0)"
       id="rect11133"
       style="fill:#bebebe;fill-opacity:1;stroke:none;display:inline" />
    <rect
       width="2"
       height="3.0000095"
       rx="1"
       ry="0.99999994"
       x="-1306"
       y="189.00287"
       transform="scale(-1,1)"
       id="rect11135"
       style="fill:#bebebe;fill-opacity:1;stroke:none;display:inline" />
    <rect
       width="2"
       height="3.0000095"
       rx="1"
       ry="0.99999994"
       x="-1306"
       y="184.00287"
       transform="scale(-1,1)"
       id="rect11137"
       style="fill:#bebebe;fill-opacity:1;stroke:none;display:inline" />
    <rect
       width="2"
       height="3.0000095"
       rx="1"
       ry="0.99999994"
       x="-1306"
       y="179.00287"
       transform="scale(-1,1)"
       id="rect11139"
       style="fill:#bebebe;fill-opacity:1;stroke:none;display:inline" />
    <rect
       width="2"
       height="3.0000095"
       rx="1"
       ry="0.99999994"
       x="-1321"
       y="189.00287"
       transform="scale(-1,1)"
       id="rect11141"
       style="fill:#bebebe;fill-opacity:1;stroke:none;display:inline" />
    <rect
       width="2"
       height="3.0000095"
       rx="1"
       ry="0.99999994"
       x="-1321"
       y="184.00287"
       transform="scale(-1,1)"
       id="rect11143"
       style="fill:#bebebe;fill-opacity:1;stroke:none;display:inline" />
    <rect
       width="2"
       height="3.0000095"
       rx="1"
       ry="0.99999994"
       x="-1321"
       y="179.00287"
       transform="scale(-1,1)"
       id="rect11145"
       style="fill:#bebebe;fill-opacity:1;stroke:none;display:inline" />
    <rect
       width="2"
       height="3.0000095"
       rx="1"
       ry="0.99999994"
       x="-194.00293"
       y="-1309"
       transform="matrix(0,-1,-1,0,0,0)"
       id="rect11147"
       style="fill:#bebebe;fill-opacity:1;stroke:none;display:inline" />
    <rect
       width="2"
       height="3.0000095"
       rx="1"
       ry="0.99999994"
       x="-194.00293"
       y="-1314"
       transform="matrix(0,-1,-1,0,0,0)"
       id="rect11149"
       style="fill:#bebebe;fill-opacity:1;stroke:none;display:inline" />
    <rect
       width="2"
       height="3.0000095"
       rx="1"
       ry="0.99999994"
       x="-194.00293"
       y="-1319"
       transform="matrix(0,-1,-1,0,0,0)"
       id="rect11151"
       style="fill:#bebebe;fill-opacity:1;stroke:none;display:inline" />
    <rect
       width="24"
       height="24"
       x="-1325"
       y="173.99707"
       transform="scale(-1,1)"
       id="rect11055"
       style="opacity:0;fill:#787878;fill-opacity:1;stroke:none;display:inline" />
    <path
       d="M 1304,176.00663 C 1304,176.55864 1303.552,177.00663 1303,177.00663 L 1303,179.10038 C 1303.5863,179.30432 1304,179.85113 1304,180.50663 C 1304,181.16213 1303.5863,181.70894 1303,181.91288 L 1303,184.10038 C 1303.5863,184.30432 1304,184.85113 1304,185.50663 C 1304,186.16213 1303.5863,186.70894 1303,186.91288 L 1303,189.10038 C 1303.5863,189.30432 1304,189.85113 1304,190.50663 C 1304,191.16214 1303.5863,191.70895 1303,191.91288 L 1303,193.97538 L 1303,194.00668 C 1303.552,194.00667 1304,194.45468 1304,195.00668 L 1306.0938,195.00668 C 1306.2977,194.42037 1306.8445,194.00668 1307.5,194.00668 C 1308.1555,194.00668 1308.7023,194.42037 1308.9062,195.00668 L 1311.0938,195.00668 C 1311.2977,194.42037 1311.8445,194.00668 1312.5,194.00668 C 1313.1555,194.00668 1313.7023,194.42037 1313.9062,195.00668 L 1316.0938,195.00668 C 1316.2977,194.42037 1316.8445,194.00668 1317.5,194.00668 C 1318.1555,194.00668 1318.7023,194.42037 1318.9062,195.00668 L 1321,195.00668 C 1321,194.45467 1321.448,194.00668 1322,194.00668 L 1322,193.97538 L 1322,191.91288 C 1321.4137,191.70894 1321,191.16213 1321,190.50663 C 1321,189.85113 1321.4137,189.30432 1322,189.10038 L 1322,186.63163 C 1321.4137,186.4277 1321,185.88088 1321,185.22538 C 1321,184.57166 1321.4178,183.99803 1322,183.78788 L 1322,180.91288 C 1321.4137,180.70894 1321,180.16213 1321,179.50663 C 1321,178.85113 1321.4137,178.30432 1322,178.10038 L 1322,177.00663 C 1321.448,177.00663 1321,176.55863 1321,176.00663 L 1318.9062,176.00663 C 1318.7023,176.59294 1318.1555,177.00663 1317.5,177.00663 C 1316.8445,177.00662 1316.2977,176.59294 1316.0938,176.00663 L 1313.9062,176.00663 C 1313.7023,176.59294 1313.1555,177.00663 1312.5,177.00663 C 1311.8445,177.00662 1311.2977,176.59294 1311.0938,176.00663 L 1308.9062,176.00663 C 1308.7023,176.59294 1308.1555,177.00663 1307.5,177.00663 C 1306.8445,177.00662 1306.2977,176.59294 1306.0938,176.00663 L 1304,176.00663 z M 1305,178.00663 L 1320,178.00663 L 1320,193.00663 L 1305,193.00663 L 1305,178.00663 z"
       id="rect11065"
       style="fill:#bebebe;fill-opacity:1;stroke:none;display:inline" />
    <path
       d="M 1308.5,180 C 1307.6776,180 1307,180.67765 1307,181.5 L 1307,189.5 C 1307,190.32235 1307.6776,191 1308.5,191 L 1316.5,191 C 1317.3224,191 1318,190.32235 1318,189.5 L 1318,181.5 C 1318,180.67765 1317.3224,180 1316.5,180 L 1308.5,180 z M 1308.5,181 L 1316.5,181 C 1316.7856,181 1317,181.21435 1317,181.5 L 1317,189.5 C 1317,189.78565 1316.7856,190 1316.5,190 L 1308.5,190 C 1308.2144,190 1308,189.78565 1308,189.5 L 1308,181.5 C 1308,181.21435 1308.2144,181 1308.5,181 z"
       id="rect5659"
       style="fill:#bebebe;fill-opacity:1;fill-rule:nonzero;stroke:none;stroke-width:0.99999994;stroke-linecap:round;stroke-linejoin:miter;marker:none;stroke-miterlimit:4;stroke-dasharray:none;stroke-dashoffset:0;stroke-opacity:1;visibility:visible;display:inline;overflow:visible;enable-background:accumulate" />
  </g>
  <g
     transform="translate(-1301,-173.99707)"
     id="layer7" />
  <g
     transform="translate(-1301,-173.99707)"
     id="layer2" />
  <g
     transform="translate(-1301,-173.99707)"
     id="layer8" />
  <g
     transform="translate(-1301,-1126.3593)"
     id="layer1" />
  <g
     transform="translate(-1301,-173.99707)"
     id="layer11" />
  <g
     transform="translate(-1301,-173.99707)"
     id="layer4" />
  <g
     transform="translate(-1301,-173.99707)"
     id="layer9" />
  <g
     transform="translate(-1301,-173.99707)"
     id="layer10" />
  <g
     transform="translate(-1301,-173.99707)"
     id="layer6" />
</svg>
