<?xml version="1.0" encoding="UTF-8" standalone="no"?>
<!-- Created with Inkscape (http://www.inkscape.org/) -->
<svg
   xmlns:svg="http://www.w3.org/2000/svg"
   xmlns="http://www.w3.org/2000/svg"
   version="1.0"
   width="24"
   height="24"
   id="svg7384">
  <defs
     id="defs7386" />
  <g
     transform="translate(-1303,-174.99707)"
     id="layer3" />
  <g
     transform="translate(-1303,-174.99707)"
     id="layer5">
    <rect
       width="2"
       height="3.0000095"
       rx="1"
       ry="0.99999994"
       x="-180.00293"
       y="-1311"
       transform="matrix(0,-1,-1,0,0,0)"
       id="rect11129"
       style="fill:#bebebe;fill-opacity:1;stroke:none;display:inline" />
    <rect
       width="2"
       height="3.0000095"
       rx="1"
       ry="0.99999994"
       x="-180.00293"
       y="-1316"
       transform="matrix(0,-1,-1,0,0,0)"
       id="rect11131"
       style="fill:#bebebe;fill-opacity:1;stroke:none;display:inline" />
    <rect
       width="2"
       height="3.0000095"
       rx="1"
       ry="0.99999994"
       x="-180.00293"
       y="-1321"
       transform="matrix(0,-1,-1,0,0,0)"
       id="rect11133"
       style="fill:#bebebe;fill-opacity:1;stroke:none;display:inline" />
    <rect
       width="2"
       height="3.0000095"
       rx="1"
       ry="0.99999994"
       x="-1308"
       y="190.00287"
       transform="scale(-1,1)"
       id="rect11135"
       style="fill:#bebebe;fill-opacity:1;stroke:none;display:inline" />
    <rect
       width="2"
       height="3.0000095"
       rx="1"
       ry="0.99999994"
       x="-1308"
       y="185.00287"
       transform="scale(-1,1)"
       id="rect11137"
       style="fill:#bebebe;fill-opacity:1;stroke:none;display:inline" />
    <rect
       width="2"
       height="3.0000095"
       rx="1"
       ry="0.99999994"
       x="-1308"
       y="180.00287"
       transform="scale(-1,1)"
       id="rect11139"
       style="fill:#bebebe;fill-opacity:1;stroke:none;display:inline" />
    <rect
       width="2"
       height="3.0000095"
       rx="1"
       ry="0.99999994"
       x="-1323"
       y="190.00287"
       transform="scale(-1,1)"
       id="rect11141"
       style="fill:#bebebe;fill-opacity:1;stroke:none;display:inline" />
    <rect
       width="2"
       height="3.0000095"
       rx="1"
       ry="0.99999994"
       x="-1323"
       y="185.00287"
       transform="scale(-1,1)"
       id="rect11143"
       style="fill:#bebebe;fill-opacity:1;stroke:none;display:inline" />
    <rect
       width="2"
       height="3.0000095"
       rx="1"
       ry="0.99999994"
       x="-1323"
       y="180.00287"
       transform="scale(-1,1)"
       id="rect11145"
       style="fill:#bebebe;fill-opacity:1;stroke:none;display:inline" />
    <rect
       width="2"
       height="3.0000095"
       rx="1"
       ry="0.99999994"
       x="-195.00293"
       y="-1311"
       transform="matrix(0,-1,-1,0,0,0)"
       id="rect11147"
       style="fill:#bebebe;fill-opacity:1;stroke:none;display:inline" />
    <rect
       width="2"
       height="3.0000095"
       rx="1"
       ry="0.99999994"
       x="-195.00293"
       y="-1316"
       transform="matrix(0,-1,-1,0,0,0)"
       id="rect11149"
       style="fill:#bebebe;fill-opacity:1;stroke:none;display:inline" />
    <rect
       width="2"
       height="3.0000095"
       rx="1"
       ry="0.99999994"
       x="-195.00293"
       y="-1321"
       transform="matrix(0,-1,-1,0,0,0)"
       id="rect11151"
       style="fill:#bebebe;fill-opacity:1;stroke:none;display:inline" />
    <rect
       width="24"
       height="24"
       x="-1327"
       y="174.99707"
       transform="scale(-1,1)"
       id="rect11055"
       style="opacity:0;fill:#787878;fill-opacity:1;stroke:none;display:inline" />
    <path
       d="M 1306,177.00663 C 1306,177.55864 1305.552,178.00663 1305,178.00663 L 1305,180.10038 C 1305.5863,180.30432 1306,180.85113 1306,181.50663 C 1306,182.16213 1305.5863,182.70894 1305,182.91288 L 1305,185.10038 C 1305.5863,185.30432 1306,185.85113 1306,186.50663 C 1306,187.16213 1305.5863,187.70894 1305,187.91288 L 1305,190.10038 C 1305.5863,190.30432 1306,190.85113 1306,191.50663 C 1306,192.16214 1305.5863,192.70895 1305,192.91288 L 1305,194.97538 L 1305,195.00668 C 1305.552,195.00667 1306,195.45468 1306,196.00668 L 1308.0938,196.00668 C 1308.2977,195.42037 1308.8445,195.00668 1309.5,195.00668 C 1310.1555,195.00668 1310.7023,195.42037 1310.9062,196.00668 L 1313.0938,196.00668 C 1313.2977,195.42037 1313.8445,195.00668 1314.5,195.00668 C 1315.1555,195.00668 1315.7023,195.42037 1315.9062,196.00668 L 1318.0938,196.00668 C 1318.2977,195.42037 1318.8445,195.00668 1319.5,195.00668 C 1320.1555,195.00668 1320.7023,195.42037 1320.9062,196.00668 L 1323,196.00668 C 1323,195.45467 1323.448,195.00668 1324,195.00668 L 1324,194.97538 L 1324,192.91288 C 1323.4137,192.70894 1323,192.16213 1323,191.50663 C 1323,190.85113 1323.4137,190.30432 1324,190.10038 L 1324,187.63163 C 1323.4137,187.4277 1323,186.88088 1323,186.22538 C 1323,185.57166 1323.4178,184.99803 1324,184.78788 L 1324,181.91288 C 1323.4137,181.70894 1323,181.16213 1323,180.50663 C 1323,179.85113 1323.4137,179.30432 1324,179.10038 L 1324,178.00663 C 1323.448,178.00663 1323,177.55863 1323,177.00663 L 1320.9062,177.00663 C 1320.7023,177.59294 1320.1555,178.00663 1319.5,178.00663 C 1318.8445,178.00662 1318.2977,177.59294 1318.0938,177.00663 L 1315.9062,177.00663 C 1315.7023,177.59294 1315.1555,178.00663 1314.5,178.00663 C 1313.8445,178.00662 1313.2977,177.59294 1313.0938,177.00663 L 1310.9062,177.00663 C 1310.7023,177.59294 1310.1555,178.00663 1309.5,178.00663 C 1308.8445,178.00662 1308.2977,177.59294 1308.0938,177.00663 L 1306,177.00663 z M 1307,179.00663 L 1322,179.00663 L 1322,194.00663 L 1307,194.00663 L 1307,179.00663 z"
       id="rect11065"
       style="fill:#bebebe;fill-opacity:1;stroke:none;display:inline" />
    <path
       d="M 1310.5,181 C 1309.6776,181 1309,181.67765 1309,182.5 L 1309,190.5 C 1309,191.32235 1309.6776,192 1310.5,192 L 1318.5,192 C 1319.3224,192 1320,191.32235 1320,190.5 L 1320,182.5 C 1320,181.67765 1319.3224,181 1318.5,181 L 1310.5,181 z M 1310.5,182 L 1318.5,182 C 1318.7856,182 1319,182.21435 1319,182.5 L 1319,190.5 C 1319,190.78565 1318.7856,191 1318.5,191 L 1310.5,191 C 1310.2144,191 1310,190.78565 1310,190.5 L 1310,182.5 C 1310,182.21435 1310.2144,182 1310.5,182 z"
       id="rect5659"
       style="fill:#bebebe;fill-opacity:1;fill-rule:nonzero;stroke:none;stroke-width:0.99999994;stroke-linecap:round;stroke-linejoin:miter;marker:none;stroke-miterlimit:4;stroke-dasharray:none;stroke-dashoffset:0;stroke-opacity:1;visibility:visible;display:inline;overflow:visible;enable-background:accumulate" />
  </g>
  <g
     transform="translate(-1303,-174.99707)"
     id="layer7" />
  <g
     transform="translate(-1303,-174.99707)"
     id="layer2" />
  <g
     transform="translate(-1303,-174.99707)"
     id="layer8" />
  <g
     transform="translate(-1303,-1127.3593)"
     id="layer1" />
  <g
     transform="translate(-1303,-174.99707)"
     id="layer4" />
  <g
     transform="translate(-1303,-174.99707)"
     id="layer9" />
  <g
     transform="translate(-1303,-174.99707)"
     id="layer6" />
</svg>
