<?xml version="1.0" encoding="UTF-8" standalone="no"?>
<!-- Created with Inkscape (http://www.inkscape.org/) -->
<svg
   xmlns:svg="http://www.w3.org/2000/svg"
   xmlns="http://www.w3.org/2000/svg"
   version="1.0"
   width="24.00905"
   height="24.000761"
   id="svg7384">
  <title
     id="title9167">Moblin Icon Theme</title>
  <defs
     id="defs7386" />
  <g
     transform="translate(-1211.9909,-174.00293)"
     id="layer3" />
  <g
     transform="translate(-1211.9909,-174.00293)"
     id="layer5">
    <rect
       width="24"
       height="24"
       x="-1236"
       y="174.00293"
       transform="scale(-1,1)"
       id="rect7895"
       style="opacity:0;fill:#ffffff;fill-opacity:1;stroke:none;display:inline" />
    <g
       transform="translate(706,759)"
       id="g7926">
      <path
         d="M 515,-574.375 L 515,-576.00369 L 517.00905,-576.00369 L 517.00005,-582 L 517.00005,-582 L 517,-582 L 526.99481,-582 L 526.99481,-576 L 529,-576 L 529,-572 L 521.875,-572"
         id="path10147-3"
         style="fill:none;stroke:#bebebe;stroke-width:2;stroke-linecap:round;stroke-linejoin:round;stroke-miterlimit:4;stroke-dasharray:none;stroke-opacity:1" />
    </g>
    <g
       transform="translate(697.99095,771.00369)"
       id="g7930">
      <path
         d="M 517,-584 L 520.00905,-584 L 526.99481,-584 L 526.99481,-581.94119 L 526.99481,-578 L 529,-578 L 529,-574 L 515,-574 L 515,-578.00369 L 517.00905,-578.00369 L 517.00005,-584 L 517.00005,-584 L 517,-584 z"
         id="path7932"
         style="fill:none;stroke:#bebebe;stroke-width:2;stroke-linecap:round;stroke-linejoin:round;stroke-miterlimit:4;stroke-dasharray:none;stroke-opacity:1" />
    </g>
    <path
       d="M 1232.9062,186.0625 C 1232.4032,186.1259 1232.0273,186.55558 1232.0312,187.0625 L 1232.0312,194.03125 L 1226.9062,194.03125 C 1226.5456,194.02615 1226.2101,194.21563 1226.0283,194.52712 C 1225.8465,194.83862 1225.8465,195.22388 1226.0283,195.53538 C 1226.2101,195.84687 1226.5456,196.03635 1226.9062,196.03125 L 1233.0312,196.03125 C 1233.5835,196.03119 1234.0311,195.58351 1234.0312,195.03125 L 1234.0312,187.0625 C 1234.0334,186.77414 1233.9111,186.49886 1233.6956,186.30728 C 1233.48,186.1157 1233.1923,186.02648 1232.9062,186.0625 z"
       id="path7936"
       style="fill:#bebebe;fill-opacity:1;stroke:none;stroke-width:2;stroke-linecap:round;stroke-linejoin:round;marker:none;stroke-miterlimit:4;stroke-dasharray:none;stroke-dashoffset:0;stroke-opacity:1;visibility:visible;display:inline;overflow:visible;enable-background:accumulate" />
    <rect
       width="4.0154572"
       height="4.0154572"
       rx="1.0000001"
       ry="1.0000001"
       x="1230.9845"
       y="192.98456"
       id="rect8045"
       style="fill:#bebebe;fill-opacity:1;stroke:none;stroke-width:1.99999988;marker:none;visibility:visible;display:inline;overflow:visible;enable-background:accumulate" />
  </g>
  <g
     transform="translate(-1211.9909,-174.00293)"
     id="layer7" />
  <g
     transform="translate(-1211.9909,-174.00293)"
     id="layer2" />
  <g
     transform="translate(-1211.9909,-174.00293)"
     id="layer8" />
  <g
     transform="translate(-1211.9909,-1126.3651)"
     id="layer1" />
  <g
     transform="translate(-1211.9909,-174.00293)"
     id="layer11" />
  <g
     transform="translate(-1211.9909,-174.00293)"
     id="layer4" />
  <g
     transform="translate(-1211.9909,-174.00293)"
     id="layer12" />
  <g
     transform="translate(-1211.9909,-174.00293)"
     id="layer9" />
  <g
     transform="translate(-1211.9909,-174.00293)"
     id="layer10" />
  <g
     transform="translate(-1211.9909,-174.00293)"
     id="layer6" />
</svg>
