<?xml version="1.0" encoding="UTF-8" standalone="no"?>
<!-- Created with Inkscape (http://www.inkscape.org/) -->
<svg
   xmlns:svg="http://www.w3.org/2000/svg"
   xmlns="http://www.w3.org/2000/svg"
   xmlns:xlink="http://www.w3.org/1999/xlink"
   version="1.0"
   width="24"
   height="24.00293"
   id="svg7384">
  <title
     id="title9167">Moblin Icon Theme</title>
  <defs
     id="defs7386">
    <linearGradient
       id="linearGradient7487-1">
      <stop
         id="stop7489-4"
         style="stop-color:#bebebe;stop-opacity:1"
         offset="0" />
      <stop
         id="stop7491-5"
         style="stop-color:#bebebe;stop-opacity:0"
         offset="1" />
    </linearGradient>
    <linearGradient
       x1="105.91268"
       y1="121.73069"
       x2="105.91268"
       y2="115.05012"
       id="linearGradient13326"
       xlink:href="#linearGradient7487-1"
       gradientUnits="userSpaceOnUse"
       gradientTransform="matrix(1,0,0,1.273349,-302.90995,-1356.442)" />
    <linearGradient
       x1="105.91268"
       y1="121.0463"
       x2="105.91268"
       y2="115.05012"
       id="linearGradient13330"
       xlink:href="#linearGradient7487-1"
       gradientUnits="userSpaceOnUse"
       gradientTransform="matrix(1,0,0,1.091442,-302.90995,1060.4783)" />
  </defs>
  <g
     transform="translate(-1186,-174)"
     id="layer3" />
  <g
     transform="translate(-1186,-174)"
     id="layer5">
    <rect
       width="24"
       height="24"
       x="-1210"
       y="174.00293"
       transform="scale(-1,1)"
       id="rect7657"
       style="opacity:0;fill:#ffffff;fill-opacity:1;stroke:none;display:inline" />
    <rect
       width="2.0000005"
       height="12"
       rx="1.0000002"
       ry="1.0000002"
       x="-198"
       y="1186"
       transform="matrix(0,-1,1,0,0,0)"
       id="rect7673"
       style="fill:url(#linearGradient13330);fill-opacity:1;stroke:none;display:inline" />
    <rect
       width="2.0000005"
       height="5"
       rx="1.0000002"
       ry="1.0000002"
       x="-1198"
       y="-197.00293"
       transform="scale(-1,-1)"
       id="rect7675"
       style="fill:#bebebe;fill-opacity:1;stroke:none;display:inline" />
    <rect
       width="2.0000005"
       height="14"
       rx="1.0000002"
       ry="1.0000002"
       x="-198"
       y="-1210"
       transform="matrix(0,-1,-1,0,0,0)"
       id="rect7677"
       style="fill:url(#linearGradient13326);fill-opacity:1;stroke:none;display:inline" />
    <rect
       width="3.9999998"
       height="3.9999993"
       rx="1.9999996"
       ry="1.9999996"
       x="1195"
       y="186"
       id="rect7687"
       style="fill:#bebebe;fill-opacity:1;stroke:none;display:inline" />
    <path
       d="M 1192,174 C 1190.9093,174 1190,174.9093 1190,176 L 1190,192 C 1190,193.0907 1190.9093,194 1192,194 L 1202,194 C 1203.0907,194 1204,193.0907 1204,192 L 1204,176 C 1204,174.9093 1203.0907,174 1202,174 L 1192,174 z M 1192,176 L 1202,176 L 1202,192 L 1192,192 L 1192,176 z"
       id="rect7536"
       style="fill:#bebebe;fill-opacity:1;fill-rule:nonzero;stroke:none;stroke-width:1.99999988;stroke-linecap:round;stroke-linejoin:round;marker:none;stroke-opacity:1;visibility:visible;display:inline;overflow:visible;enable-background:new" />
  </g>
  <g
     transform="translate(-1186,-174)"
     id="layer7" />
  <g
     transform="translate(-1186,-174)"
     id="layer2" />
  <g
     transform="translate(-1186,-174)"
     id="layer8" />
  <g
     transform="translate(-1186,-1126.3622)"
     id="layer1" />
  <g
     transform="translate(-1186,-174)"
     id="layer11" />
  <g
     transform="translate(-1186,-174)"
     id="layer4" />
  <g
     transform="translate(-1186,-174)"
     id="layer12" />
  <g
     transform="translate(-1186,-174)"
     id="layer9" />
  <g
     transform="translate(-1186,-174)"
     id="layer10" />
  <g
     transform="translate(-1186,-174)"
     id="layer6" />
</svg>
