<?xml version="1.0" encoding="UTF-8" standalone="no"?>
<!-- Created with Inkscape (http://www.inkscape.org/) -->
<svg
   xmlns:svg="http://www.w3.org/2000/svg"
   xmlns="http://www.w3.org/2000/svg"
   version="1.0"
   width="24"
   height="24"
   id="svg7384">
  <title
     id="title9167">Moblin Icon Theme</title>
  <defs
     id="defs7386" />
  <g
     transform="translate(-1290,-206)"
     id="layer3" />
  <g
     transform="translate(-1290,-206)"
     id="layer5">
    <path
       d="M 1299,206 C 1297.8629,206.06689 1297.2137,206.9352 1296.75,207.84375 C 1296.2863,208.7523 1296,209.85921 1296,211 L 1296,229 C 1296.003,229.39809 1296.2419,229.75647 1296.6082,229.91248 C 1296.9744,230.06848 1297.3983,229.99239 1297.6875,229.71875 L 1301.9688,225.5 L 1306.3438,229.71875 C 1306.633,229.99232 1307.0568,230.06837 1307.4231,229.91237 C 1307.7893,229.75638 1308.0281,229.39805 1308.0312,229 L 1308.0312,211.0625 C 1308.0582,210.22927 1308.2464,209.33937 1308.5312,208.71875 C 1308.6737,208.40844 1308.8601,208.17054 1308.9688,208.0625 C 1309.0774,207.95446 1309.0677,208 1309,208 L 1309,206 C 1309,206 1299.0625,206 1299.0625,206 C 1299.0417,205.99935 1299.0208,205.99935 1299,206 z M 1299.125,208 C 1299.2195,208 1303.9869,208 1306.6875,208 C 1306.293,208.90324 1306.0655,209.97101 1306.0312,211.03125 C 1306.031,211.04167 1306.031,211.05208 1306.0312,211.0625 L 1306.0312,226.65625 L 1302.6562,223.40625 C 1302.2705,223.04121 1301.6669,223.04121 1301.2812,223.40625 L 1298,226.625 L 1298,211 C 1298,210.20329 1298.2294,209.34145 1298.5312,208.75 C 1298.8331,208.15855 1299.1996,207.99561 1299.125,208 z"
       id="path9497-7"
       style="fill:#bebebe;fill-opacity:1;stroke:none;stroke-width:2;stroke-linecap:round;stroke-linejoin:round;stroke-miterlimit:4;stroke-dasharray:none;stroke-opacity:1" />
    <rect
       width="24"
       height="24"
       x="1290"
       y="206"
       id="rect9499-3"
       style="opacity:0;fill:#ffffff;fill-opacity:1;stroke:none;display:inline" />
  </g>
  <g
     transform="translate(-1290,-206)"
     id="layer7" />
  <g
     transform="translate(-1290,-206)"
     id="layer2" />
  <g
     transform="translate(-1290,-206)"
     id="layer8" />
  <g
     transform="translate(-1290,-1158.3622)"
     id="layer1" />
  <g
     transform="translate(-1290,-206)"
     id="layer11" />
  <g
     transform="translate(-1290,-206)"
     id="layer4" />
  <g
     transform="translate(-1290,-206)"
     id="layer12" />
  <g
     transform="translate(-1290,-206)"
     id="layer9" />
  <g
     transform="translate(-1290,-206)"
     id="layer10" />
  <g
     transform="translate(-1290,-206)"
     id="layer6" />
</svg>
