<?xml version="1.0" encoding="UTF-8" standalone="no"?>
<!-- Created with Inkscape (http://www.inkscape.org/) -->
<svg
   xmlns:svg="http://www.w3.org/2000/svg"
   xmlns="http://www.w3.org/2000/svg"
   version="1.0"
   width="24"
   height="24"
   id="svg7384">
  <defs
     id="defs7386" />
  <g
     transform="translate(-1245,-174.00293)"
     id="layer3" />
  <g
     transform="translate(-1245,-174.00293)"
     id="layer5">
    <rect
       width="24"
       height="24"
       x="-1269"
       y="174.00293"
       transform="scale(-1,1)"
       id="rect6040-5"
       style="opacity:0;fill:#ffffff;fill-opacity:1;stroke:none;display:inline" />
    <path
       d="M 1252,176 C 1249.6971,176 1248,177.85783 1248,180 L 1248,182 L 1247.9375,182 C 1247.3975,182.01696 1246.9686,182.45973 1246.9688,183 L 1246.9688,186 C 1246.9689,186.55226 1247.4165,186.99994 1247.9688,187 L 1248,187 L 1248,195 C 1248.0001,195.55226 1248.4477,195.99994 1249,196 L 1264,196 C 1264.5523,195.99994 1264.9999,195.55226 1265,195 L 1265,187 C 1265.5523,186.99994 1265.9999,186.55226 1266,186 L 1266,183 C 1265.9999,182.44774 1265.5523,182.00006 1265,182 L 1265,180 C 1265,177.63625 1263.0694,176 1261,176 L 1252,176 z M 1252,178 L 1261,178 C 1262.1126,178 1263,178.64723 1263,180 L 1263,183 C 1263.0001,183.55226 1263.4477,183.99994 1264,184 L 1264,185 C 1263.4477,185.00006 1263.0001,185.44774 1263,186 L 1263,194 L 1250,194 L 1250,186 C 1249.9999,185.44774 1249.5523,185.00006 1249,185 L 1248.9688,185 L 1248.9688,184 L 1249,184 C 1249.5523,183.99994 1249.9999,183.55226 1250,183 L 1250,180 C 1250,178.80699 1250.6771,178 1252,178 z"
       id="path5460"
       style="fill:#bebebe;fill-opacity:1;stroke:none;stroke-width:2;stroke-linecap:round;stroke-linejoin:round;stroke-miterlimit:4;stroke-dasharray:none;stroke-opacity:1" />
    <g
       transform="matrix(1,0,0,-1,0,366.00185)"
       id="g5465">
      <path
         d="M 1251.5,180.50001 L 1251.5,186.50187 L 1261.5,186.50187 L 1261.5,180.53318 L 1251.5,180.49998 L 1251.5,180.5 L 1251.5,180.50001 z"
         id="path5458"
         style="fill:none;stroke:#bebebe;stroke-width:1px;stroke-linecap:round;stroke-linejoin:round;stroke-opacity:1" />
      <path
         d="M 1251.9999,185.00185 L 1261.0001,185.00185"
         id="path5462"
         style="fill:none;stroke:#bebebe;stroke-width:1.99999988;stroke-linecap:square;stroke-linejoin:miter;stroke-miterlimit:4;stroke-dasharray:none;stroke-opacity:1" />
    </g>
  </g>
  <g
     transform="translate(-1245,-174.00293)"
     id="layer7" />
  <g
     transform="translate(-1245,-174.00293)"
     id="layer2" />
  <g
     transform="translate(-1245,-174.00293)"
     id="layer8" />
  <g
     transform="translate(-1245,-1126.3651)"
     id="layer1" />
  <g
     transform="translate(-1245,-174.00293)"
     id="layer4" />
  <g
     transform="translate(-1245,-174.00293)"
     id="layer9" />
  <g
     transform="translate(-1245,-174.00293)"
     id="layer6" />
</svg>
