<?xml version="1.0" encoding="UTF-8" standalone="no"?>
<!-- Created with Inkscape (http://www.inkscape.org/) -->
<svg
   xmlns:svg="http://www.w3.org/2000/svg"
   xmlns="http://www.w3.org/2000/svg"
   version="1.0"
   width="24"
   height="24"
   id="svg7384">
  <defs
     id="defs7386" />
  <g
     transform="translate(-1245,-175.00293)"
     id="layer3" />
  <g
     transform="translate(-1245,-175.00293)"
     id="layer5">
    <rect
       width="24"
       height="24"
       x="-1269"
       y="175.00293"
       transform="scale(-1,1)"
       id="rect6040-5"
       style="opacity:0;fill:#ffffff;fill-opacity:1;stroke:none;display:inline" />
    <path
       d="M 1252,177 C 1249.6971,177 1248,178.85783 1248,181 L 1248,183 L 1247.9375,183 C 1247.3975,183.01696 1246.9686,183.45973 1246.9688,184 L 1246.9688,187 C 1246.9689,187.55226 1247.4165,187.99994 1247.9688,188 L 1248,188 L 1248,196 C 1248.0001,196.55226 1248.4477,196.99994 1249,197 L 1264,197 C 1264.5523,196.99994 1264.9999,196.55226 1265,196 L 1265,188 C 1265.5523,187.99994 1265.9999,187.55226 1266,187 L 1266,184 C 1265.9999,183.44774 1265.5523,183.00006 1265,183 L 1265,181 C 1265,178.63625 1263.0694,177 1261,177 L 1252,177 z M 1252,179 L 1261,179 C 1262.1126,179 1263,179.64723 1263,181 L 1263,184 C 1263.0001,184.55226 1263.4477,184.99994 1264,185 L 1264,186 C 1263.4477,186.00006 1263.0001,186.44774 1263,187 L 1263,195 L 1250,195 L 1250,187 C 1249.9999,186.44774 1249.5523,186.00006 1249,186 L 1248.9688,186 L 1248.9688,185 L 1249,185 C 1249.5523,184.99994 1249.9999,184.55226 1250,184 L 1250,181 C 1250,179.80699 1250.6771,179 1252,179 z"
       id="path5460"
       style="fill:#bebebe;fill-opacity:1;stroke:none;stroke-width:2;stroke-linecap:round;stroke-linejoin:round;stroke-miterlimit:4;stroke-dasharray:none;stroke-opacity:1" />
    <g
       transform="matrix(1,0,0,-1,0,367.00185)"
       id="g5465">
      <path
         d="M 1251.5,180.50001 L 1251.5,186.50187 L 1261.5,186.50187 L 1261.5,180.53318 L 1251.5,180.49998 L 1251.5,180.5 L 1251.5,180.50001 z"
         id="path5458"
         style="fill:none;stroke:#bebebe;stroke-width:1px;stroke-linecap:round;stroke-linejoin:round;stroke-opacity:1" />
      <path
         d="M 1251.9999,185.00185 L 1261.0001,185.00185"
         id="path5462"
         style="fill:none;stroke:#bebebe;stroke-width:1.99999988;stroke-linecap:square;stroke-linejoin:miter;stroke-miterlimit:4;stroke-dasharray:none;stroke-opacity:1" />
    </g>
  </g>
  <g
     transform="translate(-1245,-175.00293)"
     id="layer7" />
  <g
     transform="translate(-1245,-175.00293)"
     id="layer2" />
  <g
     transform="translate(-1245,-175.00293)"
     id="layer8" />
  <g
     transform="translate(-1245,-1127.3651)"
     id="layer1" />
  <g
     transform="translate(-1245,-175.00293)"
     id="layer4" />
  <g
     transform="translate(-1245,-175.00293)"
     id="layer9" />
  <g
     transform="translate(-1245,-175.00293)"
     id="layer6" />
</svg>
