<?xml version="1.0" encoding="UTF-8" standalone="no"?>
<!-- Created with Inkscape (http://www.inkscape.org/) -->
<svg
   xmlns:svg="http://www.w3.org/2000/svg"
   xmlns="http://www.w3.org/2000/svg"
   version="1.0"
   width="24.032471"
   height="24"
   id="svg7384">
  <defs
     id="defs7386" />
  <g
     transform="translate(-1274,-175.00293)"
     id="layer3" />
  <g
     transform="translate(-1274,-175.00293)"
     id="layer5">
    <rect
       width="24"
       height="24"
       x="-1298.0325"
       y="175.00293"
       transform="scale(-1,1)"
       id="rect8938-4"
       style="opacity:0;fill:#ffffff;fill-opacity:1;stroke:none;display:inline" />
    <rect
       width="2"
       height="8.1414471"
       rx="1"
       ry="1"
       x="-1285"
       y="187.94873"
       transform="scale(-1,1)"
       id="rect2819-46"
       style="fill:#bebebe;fill-opacity:1;stroke:none;display:inline" />
    <rect
       width="2"
       height="8.0063925"
       rx="1"
       ry="1"
       x="-1289"
       y="187.94873"
       transform="scale(-1,1)"
       id="rect2823-62"
       style="fill:#bebebe;fill-opacity:1;stroke:none;display:inline" />
    <rect
       width="1.9999981"
       height="6.8048401"
       rx="0.99999905"
       ry="0.99999911"
       x="194.00293"
       y="1287.1952"
       transform="matrix(0,1,1,0,0,0)"
       id="rect2837-9-1"
       style="fill:#bebebe;fill-opacity:1;stroke:none;display:inline" />
    <rect
       width="2.0872402"
       height="7"
       rx="1.0436201"
       ry="1.0436201"
       x="194.00293"
       y="1278"
       transform="matrix(0,1,1,0,0,0)"
       id="rect2841-95-8"
       style="fill:#bebebe;fill-opacity:1;stroke:none;display:inline" />
    <rect
       width="2.0000002"
       height="5.9999995"
       rx="1.0000001"
       ry="1.0000001"
       x="187.94873"
       y="1283"
       transform="matrix(0,1,1,0,0,0)"
       id="rect2852-97"
       style="fill:#bebebe;fill-opacity:1;stroke:none;display:inline" />
    <rect
       width="2"
       height="8.0872402"
       rx="1"
       ry="1"
       x="-1280"
       y="188.00293"
       transform="scale(-1,1)"
       id="rect2829-5-7"
       style="fill:#bebebe;fill-opacity:1;stroke:none;display:inline" />
    <rect
       width="2"
       height="8.0046749"
       rx="1"
       ry="1"
       x="-1294"
       y="187.99823"
       transform="scale(-1,1)"
       id="rect2831-4"
       style="fill:#bebebe;fill-opacity:1;stroke:none;display:inline" />
    <path
       d="M 1286.7062,176.24249 C 1286.3145,175.85075 1285.6838,175.85075 1285.292,176.24249 L 1274,187.53495 C 1274,187.53495 1274,188.94917 1274,188.94917 C 1274,188.94917 1275.4142,188.94917 1275.4142,188.94917 L 1286.7062,177.6567 C 1287.098,177.26496 1287.098,176.63422 1286.7062,176.24249 z"
       id="rect2830-8-9"
       style="fill:#bebebe;fill-opacity:1;stroke:none;display:inline" />
    <path
       d="M 1285.297,176.24714 C 1285.6888,175.8554 1286.3195,175.8554 1286.7112,176.24714 L 1298,187.53495 C 1298,187.53495 1298,188.94917 1298,188.94917 C 1298,188.94917 1296.5858,188.94917 1296.5858,188.94917 L 1285.297,177.66135 C 1284.9053,177.26962 1284.9053,176.63888 1285.297,176.24714 z"
       id="rect2832-7-9"
       style="fill:#bebebe;fill-opacity:1;stroke:none;display:inline" />
  </g>
  <g
     transform="translate(-1274,-175.00293)"
     id="layer7" />
  <g
     transform="translate(-1274,-175.00293)"
     id="layer2" />
  <g
     transform="translate(-1274,-175.00293)"
     id="layer8" />
  <g
     transform="translate(-1274,-1127.3651)"
     id="layer1" />
  <g
     transform="translate(-1274,-175.00293)"
     id="layer4" />
  <g
     transform="translate(-1274,-175.00293)"
     id="layer9" />
  <g
     transform="translate(-1274,-175.00293)"
     id="layer6" />
</svg>
