<?xml version="1.0" encoding="UTF-8" standalone="no"?>
<!-- Created with Inkscape (http://www.inkscape.org/) -->
<svg
   xmlns:svg="http://www.w3.org/2000/svg"
   xmlns="http://www.w3.org/2000/svg"
   version="1.0"
   width="24"
   height="24"
   id="svg7384">
  <defs
     id="defs7386" />
  <g
     transform="translate(-1216,-175.00293)"
     id="layer3" />
  <g
     transform="translate(-1216,-175.00293)"
     id="layer5">
    <rect
       width="24"
       height="24"
       x="1216"
       y="175.00293"
       id="rect8221-2"
       style="opacity:0;fill:#ffffff;fill-opacity:1;stroke:none;display:inline" />
    <rect
       width="2"
       height="16.957228"
       rx="1"
       ry="1"
       x="1219"
       y="181.00293"
       id="rect2763-9-6-4-6"
       style="fill:#bebebe;fill-opacity:1;stroke:none;display:inline" />
    <rect
       width="2"
       height="11.571054"
       rx="1"
       ry="1"
       x="1230"
       y="186.43188"
       id="rect3598-7-3-1"
       style="fill:#bebebe;fill-opacity:1;stroke:none;display:inline" />
    <rect
       width="2"
       height="13"
       rx="1"
       ry="1"
       x="196.00293"
       y="-1232"
       transform="matrix(0,1,-1,0,0,0)"
       id="rect3600-5-3-0"
       style="fill:#bebebe;fill-opacity:1;stroke:none;display:inline" />
    <rect
       width="2.0084164"
       height="8"
       rx="1.0042082"
       ry="1.0042082"
       x="180.99451"
       y="-1227"
       transform="matrix(0,1,-1,0,0,0)"
       id="rect3602-15-2-5"
       style="fill:#bebebe;fill-opacity:1;stroke:none;display:inline" />
    <path
       d="M 1231.7004,187.70786 C 1231.3069,188.10125 1230.6735,188.10125 1230.2802,187.70786 L 1225.2917,182.70846 C 1224.8983,182.31508 1224.8983,181.68168 1225.2917,181.2883 C 1225.685,180.89491 1226.3184,180.89491 1226.7118,181.2883 L 1231.7004,186.2877 C 1232.0938,186.68108 1232.0938,187.31448 1231.7004,187.70786 L 1231.7004,187.70786 z"
       id="rect3602-1-8-8-1"
       style="fill:#bebebe;fill-opacity:1;stroke:none;display:inline" />
    <rect
       width="2"
       height="4"
       rx="1"
       ry="1"
       x="1224"
       y="176.00293"
       id="rect7360"
       style="fill:#bebebe;fill-opacity:1;stroke:none;display:inline" />
    <rect
       width="2"
       height="12.000002"
       rx="1"
       ry="0.99999994"
       x="1235"
       y="181.00293"
       id="rect7363"
       style="fill:#bebebe;fill-opacity:1;stroke:none;display:inline" />
    <rect
       width="2"
       height="4"
       rx="1"
       ry="1"
       x="191.00293"
       y="-1237"
       transform="matrix(0,1,-1,0,0,0)"
       id="rect7365"
       style="fill:#bebebe;fill-opacity:1;stroke:none;display:inline" />
    <rect
       width="2.0084164"
       height="8"
       rx="1.0042082"
       ry="1.0042082"
       x="176.00415"
       y="-1232"
       transform="matrix(0,1,-1,0,0,0)"
       id="rect7367"
       style="fill:#bebebe;fill-opacity:1;stroke:none;display:inline" />
    <path
       d="M 1236.7037,182.71751 C 1236.3103,183.1109 1235.6769,183.1109 1235.2835,182.71751 L 1230.2951,177.71811 C 1229.9016,177.32473 1229.9016,176.69133 1230.2951,176.29795 C 1230.6884,175.90456 1231.3218,175.90456 1231.7151,176.29795 L 1236.7037,181.29735 C 1237.0971,181.69073 1237.0971,182.32413 1236.7037,182.71751 L 1236.7037,182.71751 z"
       id="path7369"
       style="fill:#bebebe;fill-opacity:1;stroke:none;display:inline" />
  </g>
  <g
     transform="translate(-1216,-175.00293)"
     id="layer7" />
  <g
     transform="translate(-1216,-175.00293)"
     id="layer2" />
  <g
     transform="translate(-1216,-175.00293)"
     id="layer8" />
  <g
     transform="translate(-1216,-1127.3651)"
     id="layer1" />
  <g
     transform="translate(-1216,-175.00293)"
     id="layer4" />
  <g
     transform="translate(-1216,-175.00293)"
     id="layer9" />
  <g
     transform="translate(-1216,-175.00293)"
     id="layer6" />
</svg>
