<?xml version="1.0" encoding="UTF-8" standalone="no"?>
<!-- Created with Inkscape (http://www.inkscape.org/) -->
<svg
   xmlns:svg="http://www.w3.org/2000/svg"
   xmlns="http://www.w3.org/2000/svg"
   version="1.0"
   width="24"
   height="24"
   id="svg7384">
  <defs
     id="defs7386" />
  <g
     transform="translate(-1245,-175.00293)"
     id="layer3" />
  <g
     transform="translate(-1245,-175.00293)"
     id="layer5">
    <rect
       width="24"
       height="24"
       x="-1269"
       y="175.00293"
       transform="scale(-1,1)"
       id="rect6040-5"
       style="opacity:0;fill:#ffffff;fill-opacity:1;stroke:none;display:inline" />
    <rect
       width="2"
       height="5"
       rx="1"
       ry="1"
       x="-1250"
       y="180.00293"
       transform="scale(-1,1)"
       id="rect6052-8"
       style="fill:#bebebe;fill-opacity:1;stroke:none;display:inline" />
    <rect
       width="2"
       height="11"
       rx="1.0436201"
       ry="1.0436201"
       x="177.00293"
       y="1251"
       transform="matrix(0,1,1,0,0,0)"
       id="rect6064-5"
       style="fill:#bebebe;fill-opacity:1;stroke:none;display:inline" />
    <path
       d="M 1261.0037,177.0066 C 1263.2008,177.0066 1265.0076,178.81342 1265.0076,181.01048 C 1265.0076,181.56568 1264.5575,182.01575 1264.0023,182.01575 C 1263.4472,182.01575 1262.9971,181.56568 1262.9971,181.01048 C 1262.9971,179.89555 1262.1187,178.99995 1261.0037,178.99995 C 1260.6279,179.03114 1260.2665,178.84829 1260.069,178.52704 C 1259.8715,178.20579 1259.8715,177.80077 1260.069,177.47952 C 1260.2665,177.15827 1260.6279,176.97542 1261.0037,177.0066 z"
       id="path6068-4"
       style="fill:#bebebe;fill-opacity:1;stroke:none;stroke-width:3.63709688;stroke-linecap:round;stroke-linejoin:miter;stroke-miterlimit:4;stroke-dasharray:none;stroke-dashoffset:220;stroke-opacity:1;display:inline" />
    <path
       d="M 1251.9963,177.0066 C 1249.7992,177.0066 1247.9924,178.81342 1247.9924,181.01048 C 1247.9924,181.56568 1248.4425,182.01575 1248.9977,182.01575 C 1249.5529,182.01575 1250.003,181.56568 1250.003,181.01048 C 1250.0029,179.89555 1250.8814,178.99995 1251.9963,178.99995 C 1252.3721,179.03114 1252.7335,178.84829 1252.931,178.52704 C 1253.1285,178.20579 1253.1285,177.80077 1252.931,177.47952 C 1252.7335,177.15827 1252.3721,176.97542 1251.9963,177.0066 z"
       id="path6070-5"
       style="fill:#bebebe;fill-opacity:1;stroke:none;stroke-width:3.63709688;stroke-linecap:round;stroke-linejoin:miter;stroke-miterlimit:4;stroke-dasharray:none;stroke-dashoffset:220;stroke-opacity:1;display:inline" />
    <rect
       width="3"
       height="2"
       rx="1"
       ry="1"
       x="-1250"
       y="183.00293"
       transform="scale(-1,1)"
       id="rect6072-4"
       style="fill:#bebebe;fill-opacity:1;stroke:none;display:inline" />
    <rect
       width="3"
       height="2"
       rx="1"
       ry="1"
       x="-1250"
       y="186.00293"
       transform="scale(-1,1)"
       id="rect6074-1"
       style="fill:#bebebe;fill-opacity:1;stroke:none;display:inline" />
    <rect
       width="2"
       height="11.01355"
       rx="1"
       ry="1"
       x="-1250"
       y="186.00293"
       transform="scale(-1,1)"
       id="rect6076-9"
       style="fill:#bebebe;fill-opacity:1;stroke:none;display:inline" />
    <rect
       width="2"
       height="5.0872421"
       rx="1"
       ry="0.99999994"
       x="-1249"
       y="183.00293"
       transform="scale(-1,1)"
       id="rect6078-1"
       style="fill:#bebebe;fill-opacity:1;stroke:none;display:inline" />
    <rect
       width="2"
       height="5"
       rx="1"
       ry="1"
       x="1263"
       y="180.00293"
       id="rect6080-6"
       style="fill:#bebebe;fill-opacity:1;stroke:none;display:inline" />
    <rect
       width="2"
       height="2"
       rx="1"
       ry="1"
       x="1264"
       y="183.00293"
       id="rect6082-0"
       style="fill:#bebebe;fill-opacity:1;stroke:none;display:inline" />
    <rect
       width="2"
       height="2"
       rx="1"
       ry="1"
       x="1264"
       y="186.00293"
       id="rect6084-9"
       style="fill:#bebebe;fill-opacity:1;stroke:none;display:inline" />
    <rect
       width="2"
       height="11"
       rx="1"
       ry="1"
       x="1263"
       y="186.00293"
       id="rect6086-0"
       style="fill:#bebebe;fill-opacity:1;stroke:none;display:inline" />
    <rect
       width="2"
       height="5.0872421"
       rx="1"
       ry="0.99999994"
       x="1264"
       y="183.00293"
       id="rect6088-6"
       style="fill:#bebebe;fill-opacity:1;stroke:none;display:inline" />
    <rect
       width="2"
       height="17"
       rx="1.0436201"
       ry="1.0436201"
       x="-197.01648"
       y="1248"
       transform="matrix(0,-1,1,0,0,0)"
       id="rect8552-5"
       style="fill:#bebebe;fill-opacity:1;stroke:none;display:inline" />
    <rect
       width="2"
       height="9"
       rx="1.0436201"
       ry="1.0436201"
       x="181.00293"
       y="1252"
       transform="matrix(0,1,1,0,0,0)"
       id="rect6064-5-5"
       style="fill:#bebebe;fill-opacity:1;stroke:none;display:inline" />
    <rect
       width="2"
       height="9"
       rx="1.0436201"
       ry="1.0436201"
       x="185.00293"
       y="1252"
       transform="matrix(0,1,1,0,0,0)"
       id="rect6000"
       style="fill:#bebebe;fill-opacity:1;stroke:none;display:inline" />
    <rect
       width="2"
       height="6"
       rx="1.0436201"
       ry="1.0436201"
       x="1259"
       y="-187.00293"
       transform="scale(1,-1)"
       id="rect6002"
       style="fill:#bebebe;fill-opacity:1;stroke:none;display:inline" />
    <rect
       width="2"
       height="6"
       rx="1.0436201"
       ry="1.0436201"
       x="1252"
       y="-187.00293"
       transform="scale(1,-1)"
       id="rect6004"
       style="fill:#bebebe;fill-opacity:1;stroke:none;display:inline" />
  </g>
  <g
     transform="translate(-1245,-175.00293)"
     id="layer7" />
  <g
     transform="translate(-1245,-175.00293)"
     id="layer2" />
  <g
     transform="translate(-1245,-175.00293)"
     id="layer8" />
  <g
     transform="translate(-1245,-1127.3651)"
     id="layer1" />
  <g
     transform="translate(-1245,-175.00293)"
     id="layer4" />
  <g
     transform="translate(-1245,-175.00293)"
     id="layer9" />
  <g
     transform="translate(-1245,-175.00293)"
     id="layer6" />
</svg>
