<?xml version="1.0" encoding="UTF-8" standalone="no"?>
<!-- Created with Inkscape (http://www.inkscape.org/) -->
<svg
   xmlns:svg="http://www.w3.org/2000/svg"
   xmlns="http://www.w3.org/2000/svg"
   version="1.0"
   width="24.04772"
   height="24"
   id="svg7384">
  <defs
     id="defs7386" />
  <g
     transform="translate(-1129.9523,-200.00293)"
     id="layer3" />
  <g
     transform="translate(-1129.9523,-200.00293)"
     id="layer5">
    <rect
       width="24"
       height="24"
       x="-1154"
       y="200.00293"
       transform="scale(-1,1)"
       id="rect7481"
       style="opacity:0;fill:#ffffff;fill-opacity:1;stroke:none;display:inline" />
    <path
       d="M 1148.0469,214.03125 L 1146,214 L 1146,217 L 1143,217 L 1143.0156,215 L 1142.0156,215 L 1142,217 L 1140,217 L 1139.999,214.00008 L 1138.0156,214.01558 L 1143,210.92182 L 1148.0469,214.03125 L 1148.0469,214.03125 z"
       id="path7493"
       style="fill:#bebebe;fill-opacity:1;stroke:none" />
    <g
       transform="translate(679.9375,787)"
       id="use7499">
      <path
         d="M 455.00184,-578 L 471.0625,-578 L 471.0625,-572.02066 C 471.0625,-569.94354 469.78607,-568 467.44378,-568 L 451.01478,-568 L 451.01478,-585.97227 L 456.9375,-585.97227 C 458.95323,-585.97227 460,-584.52938 460,-582.97227 L 460.0329,-582 L 469.06249,-582 L 469.06249,-578"
         id="path8921"
         style="fill:none;stroke:#bebebe;stroke-width:2;stroke-linecap:round;stroke-linejoin:round;stroke-miterlimit:4;stroke-dasharray:none;stroke-opacity:1" />
      <path
         d="M 454.51127,-577.94084 L 454.51146,-572 C 454.51127,-569.83448 452.96474,-568.92707 452.03666,-568.92707"
         id="path8923"
         style="fill:none;stroke:#bebebe;stroke-width:1px;stroke-linecap:butt;stroke-linejoin:miter;stroke-opacity:1" />
    </g>
  </g>
  <g
     transform="translate(-1129.9523,-200.00293)"
     id="layer7" />
  <g
     transform="translate(-1129.9523,-200.00293)"
     id="layer2" />
  <g
     transform="translate(-1129.9523,-200.00293)"
     id="layer8" />
  <g
     transform="translate(-1129.9523,-1152.3651)"
     id="layer1" />
  <g
     transform="translate(-1129.9523,-200.00293)"
     id="layer4" />
  <g
     transform="translate(-1129.9523,-200.00293)"
     id="layer9" />
  <g
     transform="translate(-1129.9523,-200.00293)"
     id="layer6" />
</svg>
